<?xml version="1.0" encoding="UTF-8" standalone="no"?>
<!DOCTYPE svg PUBLIC "-//W3C//DTD SVG 1.1//EN"
 "http://www.w3.org/Graphics/SVG/1.1/DTD/svg11.dtd">
<!-- Generated by graphviz version 2.43.0 (0)
 -->
<!-- Title: xiiLogInterface Pages: 1 -->
<svg width="266pt" height="249pt"
 viewBox="0.00 0.00 266.00 249.00" xmlns="http://www.w3.org/2000/svg" xmlns:xlink="http://www.w3.org/1999/xlink">
<g id="graph0" class="graph" transform="scale(1 1) rotate(0) translate(4 245)">
<title>xiiLogInterface</title>
<!-- Node1 -->
<g id="Node000001" class="node">
<title>Node1</title>
<g id="a_Node000001"><a xlink:title="Base class for all logging classes.">
<polygon fill="#999999" stroke="#666666" points="89,-130 0,-130 0,-111 89,-111 89,-130"/>
<text text-anchor="middle" x="44.5" y="-118" font-family="Helvetica,sans-Serif" font-size="10.00">xiiLogInterface</text>
</a>
</g>
</g>
<!-- Node2 -->
<g id="Node000002" class="node">
<title>Node2</title>
<g id="a_Node000002"><a xlink:href="../../da/d43/classxii_asset_processor_log.htm" target="_top" xlink:title="Log for all background processing results.">
<polygon fill="white" stroke="#666666" points="251.5,-241 131.5,-241 131.5,-222 251.5,-222 251.5,-241"/>
<text text-anchor="middle" x="191.5" y="-229" font-family="Helvetica,sans-Serif" font-size="10.00">xiiAssetProcessorLog</text>
</a>
</g>
</g>
<!-- Node1&#45;&gt;Node2 -->
<g id="edge1_Node000001_Node000002" class="edge">
<title>Node1&#45;&gt;Node2</title>
<g id="a_edge1_Node000001_Node000002"><a xlink:title=" ">
<path fill="none" stroke="#63b8ff" d="M56.28,-138.72C69.73,-159.85 94.68,-194.24 125,-213.5 130.38,-216.91 136.4,-219.69 142.55,-221.94"/>
<polygon fill="#63b8ff" stroke="#63b8ff" points="59.16,-136.72 50.93,-130.04 53.2,-140.39 59.16,-136.72"/>
</a>
</g>
</g>
<!-- Node3 -->
<g id="Node000003" class="node">
<title>Node3</title>
<g id="a_Node000003"><a xlink:title=" ">
<polygon fill="white" stroke="#bfbfbf" points="254,-204 129,-204 129,-185 254,-185 254,-204"/>
<text text-anchor="middle" x="191.5" y="-192" font-family="Helvetica,sans-Serif" font-size="10.00">xiiForwardToQTextEdit</text>
</a>
</g>
</g>
<!-- Node1&#45;&gt;Node3 -->
<g id="edge2_Node000001_Node000003" class="edge">
<title>Node1&#45;&gt;Node3</title>
<g id="a_edge2_Node000001_Node000003"><a xlink:title=" ">
<path fill="none" stroke="#63b8ff" d="M64.32,-136.6C79.73,-149.06 102.59,-165.92 125,-176.5 132.04,-179.82 139.8,-182.63 147.45,-184.96"/>
<polygon fill="#63b8ff" stroke="#63b8ff" points="66.51,-133.87 56.57,-130.2 62.05,-139.26 66.51,-133.87"/>
</a>
</g>
</g>
<!-- Node4 -->
<g id="Node000004" class="node">
<title>Node4</title>
<g id="a_Node000004"><a xlink:href="../../d1/df7/classxii_global_log.htm" target="_top" xlink:title="This is the standard log system that xiiLog sends all messages to.">
<polygon fill="white" stroke="#666666" points="230,-167 153,-167 153,-148 230,-148 230,-167"/>
<text text-anchor="middle" x="191.5" y="-155" font-family="Helvetica,sans-Serif" font-size="10.00">xiiGlobalLog</text>
</a>
</g>
</g>
<!-- Node1&#45;&gt;Node4 -->
<g id="edge3_Node000001_Node000004" class="edge">
<title>Node1&#45;&gt;Node4</title>
<g id="a_edge3_Node000001_Node000004"><a xlink:title=" ">
<path fill="none" stroke="#63b8ff" d="M92.77,-132.56C112.31,-137.55 134.65,-143.25 153.03,-147.94"/>
<polygon fill="#63b8ff" stroke="#63b8ff" points="93.4,-129.11 82.84,-130.03 91.67,-135.89 93.4,-129.11"/>
</a>
</g>
</g>
<!-- Node5 -->
<g id="Node000005" class="node">
<title>Node5</title>
<g id="a_Node000005"><a xlink:href="../../dc/d3d/classxii_log_entry_delegate.htm" target="_top" xlink:title="A log interface implementation that converts a log event into a xiiLogEntry and calls a delegate with...">
<polygon fill="white" stroke="#666666" points="249.5,-130 133.5,-130 133.5,-111 249.5,-111 249.5,-130"/>
<text text-anchor="middle" x="191.5" y="-118" font-family="Helvetica,sans-Serif" font-size="10.00">xiiLogEntryDelegate</text>
</a>
</g>
</g>
<!-- Node1&#45;&gt;Node5 -->
<g id="edge4_Node000001_Node000005" class="edge">
<title>Node1&#45;&gt;Node5</title>
<g id="a_edge4_Node000001_Node000005"><a xlink:title=" ">
<path fill="none" stroke="#63b8ff" d="M99.05,-120.5C110.22,-120.5 122.03,-120.5 133.33,-120.5"/>
<polygon fill="#63b8ff" stroke="#63b8ff" points="99,-117 89,-120.5 99,-124 99,-117"/>
</a>
</g>
</g>
<!-- Node6 -->
<g id="Node000006" class="node">
<title>Node6</title>
<g id="a_Node000006"><a xlink:href="../../d2/db4/classxii_log_system_to_buffer.htm" target="_top" xlink:title="A simple log interface implementation that gathers all messages in a string buffer.">
<polygon fill="white" stroke="#666666" points="252.5,-93 130.5,-93 130.5,-74 252.5,-74 252.5,-93"/>
<text text-anchor="middle" x="191.5" y="-81" font-family="Helvetica,sans-Serif" font-size="10.00">xiiLogSystemToBuffer</text>
</a>
</g>
</g>
<!-- Node1&#45;&gt;Node6 -->
<g id="edge5_Node000001_Node000006" class="edge">
<title>Node1&#45;&gt;Node6</title>
<g id="a_edge5_Node000001_Node000006"><a xlink:title=" ">
<path fill="none" stroke="#63b8ff" d="M92.77,-108.44C112.31,-103.45 134.65,-97.75 153.03,-93.06"/>
<polygon fill="#63b8ff" stroke="#63b8ff" points="91.67,-105.11 82.84,-110.97 93.4,-111.89 91.67,-105.11"/>
</a>
</g>
</g>
<!-- Node7 -->
<g id="Node000007" class="node">
<title>Node7</title>
<g id="a_Node000007"><a xlink:href="../../d6/d6c/classxii_mute_log.htm" target="_top" xlink:title="Used to ignore all log messages.">
<polygon fill="white" stroke="#666666" points="227,-56 156,-56 156,-37 227,-37 227,-56"/>
<text text-anchor="middle" x="191.5" y="-44" font-family="Helvetica,sans-Serif" font-size="10.00">xiiMuteLog</text>
</a>
</g>
</g>
<!-- Node1&#45;&gt;Node7 -->
<g id="edge6_Node000001_Node000007" class="edge">
<title>Node1&#45;&gt;Node7</title>
<g id="a_edge6_Node000001_Node000007"><a xlink:title=" ">
<path fill="none" stroke="#63b8ff" d="M65.1,-104.24C80.56,-92.12 103.08,-75.92 125,-65.5 134.62,-60.92 145.58,-57.22 155.73,-54.33"/>
<polygon fill="#63b8ff" stroke="#63b8ff" points="62.49,-101.85 56.88,-110.84 66.87,-107.31 62.49,-101.85"/>
</a>
</g>
</g>
<!-- Node8 -->
<g id="Node000008" class="node">
<title>Node8</title>
<g id="a_Node000008"><a xlink:title=" ">
<polygon fill="white" stroke="#bfbfbf" points="258,-19 125,-19 125,0 258,0 258,-19"/>
<text text-anchor="middle" x="191.5" y="-7" font-family="Helvetica,sans-Serif" font-size="10.00">xiiVisualShaderErrorLog</text>
</a>
</g>
</g>
<!-- Node1&#45;&gt;Node8 -->
<g id="edge7_Node000001_Node000008" class="edge">
<title>Node1&#45;&gt;Node8</title>
<g id="a_edge7_Node000001_Node000008"><a xlink:title=" ">
<path fill="none" stroke="#63b8ff" d="M56.58,-102.23C70.17,-81.38 95.11,-47.67 125,-28.5 130.98,-24.66 137.76,-21.58 144.62,-19.11"/>
<polygon fill="#63b8ff" stroke="#63b8ff" points="53.55,-100.49 51.16,-110.82 59.46,-104.23 53.55,-100.49"/>
</a>
</g>
</g>
</g>
</svg>
