<?xml version="1.0" encoding="UTF-8" standalone="no"?>
<!DOCTYPE svg PUBLIC "-//W3C//DTD SVG 1.1//EN"
 "http://www.w3.org/Graphics/SVG/1.1/DTD/svg11.dtd">
<!-- Generated by graphviz version 2.43.0 (0)
 -->
<!-- Title: xiiLogInterface Pages: 1 -->
<svg width="266pt" height="256pt"
 viewBox="0.00 0.00 266.00 256.00" xmlns="http://www.w3.org/2000/svg" xmlns:xlink="http://www.w3.org/1999/xlink">
<g id="graph0" class="graph" transform="scale(1 1) rotate(0) translate(4 252)">
<title>xiiLogInterface</title>
<polygon fill="white" stroke="transparent" points="-4,4 -4,-252 262,-252 262,4 -4,4"/>
<!-- Node1 -->
<g id="node1" class="node">
<title>Node1</title>
<g id="a_node1"><a xlink:title="Base class for all logging classes.">
<polygon fill="#bfbfbf" stroke="black" points="0,-114.5 0,-133.5 89,-133.5 89,-114.5 0,-114.5"/>
<text text-anchor="middle" x="44.5" y="-121.5" font-family="Helvetica,sans-Serif" font-size="10.00">xiiLogInterface</text>
</a>
</g>
</g>
<!-- Node2 -->
<g id="node2" class="node">
<title>Node2</title>
<g id="a_node2"><a xlink:href="../../da/d43/classxii_asset_processor_log.htm" target="_top" xlink:title="Log for all background processing results.">
<polygon fill="white" stroke="black" points="131.5,-228.5 131.5,-247.5 251.5,-247.5 251.5,-228.5 131.5,-228.5"/>
<text text-anchor="middle" x="191.5" y="-235.5" font-family="Helvetica,sans-Serif" font-size="10.00">xiiAssetProcessorLog</text>
</a>
</g>
</g>
<!-- Node1&#45;&gt;Node2 -->
<g id="edge1" class="edge">
<title>Node1&#45;&gt;Node2</title>
<path fill="none" stroke="midnightblue" d="M56.23,-142.54C69.63,-164.06 94.54,-199.13 125,-219 130.95,-222.88 137.71,-225.99 144.57,-228.47"/>
<polygon fill="midnightblue" stroke="midnightblue" points="59.07,-140.46 50.91,-133.71 53.08,-144.08 59.07,-140.46"/>
</g>
<!-- Node3 -->
<g id="node3" class="node">
<title>Node3</title>
<g id="a_node3"><a xlink:title=" ">
<polygon fill="white" stroke="#bfbfbf" points="129,-190.5 129,-209.5 254,-209.5 254,-190.5 129,-190.5"/>
<text text-anchor="middle" x="191.5" y="-197.5" font-family="Helvetica,sans-Serif" font-size="10.00">xiiForwardToQTextEdit</text>
</a>
</g>
</g>
<!-- Node1&#45;&gt;Node3 -->
<g id="edge2" class="edge">
<title>Node1&#45;&gt;Node3</title>
<path fill="none" stroke="midnightblue" d="M64.05,-140.1C79.46,-152.76 102.44,-170.04 125,-181 132.67,-184.72 141.2,-187.86 149.51,-190.44"/>
<polygon fill="midnightblue" stroke="midnightblue" points="66.22,-137.36 56.31,-133.61 61.72,-142.72 66.22,-137.36"/>
</g>
<!-- Node4 -->
<g id="node4" class="node">
<title>Node4</title>
<g id="a_node4"><a xlink:href="../../d1/df7/classxii_global_log.htm" target="_top" xlink:title="This is the standard log system that xiiLog sends all messages to.">
<polygon fill="white" stroke="black" points="153,-152.5 153,-171.5 230,-171.5 230,-152.5 153,-152.5"/>
<text text-anchor="middle" x="191.5" y="-159.5" font-family="Helvetica,sans-Serif" font-size="10.00">xiiGlobalLog</text>
</a>
</g>
</g>
<!-- Node1&#45;&gt;Node4 -->
<g id="edge3" class="edge">
<title>Node1&#45;&gt;Node4</title>
<path fill="none" stroke="midnightblue" d="M91.99,-136.18C112.12,-141.46 135.34,-147.54 154.17,-152.48"/>
<polygon fill="midnightblue" stroke="midnightblue" points="92.65,-132.74 82.09,-133.59 90.88,-139.51 92.65,-132.74"/>
</g>
<!-- Node5 -->
<g id="node5" class="node">
<title>Node5</title>
<g id="a_node5"><a xlink:href="../../dc/d3d/classxii_log_entry_delegate.htm" target="_top" xlink:title="A log interface implementation that converts a log event into a xiiLogEntry and calls a delegate with...">
<polygon fill="white" stroke="black" points="133.5,-114.5 133.5,-133.5 249.5,-133.5 249.5,-114.5 133.5,-114.5"/>
<text text-anchor="middle" x="191.5" y="-121.5" font-family="Helvetica,sans-Serif" font-size="10.00">xiiLogEntryDelegate</text>
</a>
</g>
</g>
<!-- Node1&#45;&gt;Node5 -->
<g id="edge4" class="edge">
<title>Node1&#45;&gt;Node5</title>
<path fill="none" stroke="midnightblue" d="M99.05,-124C110.22,-124 122.03,-124 133.33,-124"/>
<polygon fill="midnightblue" stroke="midnightblue" points="99,-120.5 89,-124 99,-127.5 99,-120.5"/>
</g>
<!-- Node6 -->
<g id="node6" class="node">
<title>Node6</title>
<g id="a_node6"><a xlink:href="../../d2/db4/classxii_log_system_to_buffer.htm" target="_top" xlink:title="A simple log interface implementation that gathers all messages in a string buffer.">
<polygon fill="white" stroke="black" points="130.5,-76.5 130.5,-95.5 252.5,-95.5 252.5,-76.5 130.5,-76.5"/>
<text text-anchor="middle" x="191.5" y="-83.5" font-family="Helvetica,sans-Serif" font-size="10.00">xiiLogSystemToBuffer</text>
</a>
</g>
</g>
<!-- Node1&#45;&gt;Node6 -->
<g id="edge5" class="edge">
<title>Node1&#45;&gt;Node6</title>
<path fill="none" stroke="midnightblue" d="M91.99,-111.82C112.12,-106.54 135.34,-100.46 154.17,-95.52"/>
<polygon fill="midnightblue" stroke="midnightblue" points="90.88,-108.49 82.09,-114.41 92.65,-115.26 90.88,-108.49"/>
</g>
<!-- Node7 -->
<g id="node7" class="node">
<title>Node7</title>
<g id="a_node7"><a xlink:href="../../d6/d6c/classxii_mute_log.htm" target="_top" xlink:title="Used to ignore all log messages.">
<polygon fill="white" stroke="black" points="156,-38.5 156,-57.5 227,-57.5 227,-38.5 156,-38.5"/>
<text text-anchor="middle" x="191.5" y="-45.5" font-family="Helvetica,sans-Serif" font-size="10.00">xiiMuteLog</text>
</a>
</g>
</g>
<!-- Node1&#45;&gt;Node7 -->
<g id="edge6" class="edge">
<title>Node1&#45;&gt;Node7</title>
<path fill="none" stroke="midnightblue" d="M64.05,-107.9C79.46,-95.24 102.44,-77.96 125,-67 134.59,-62.34 145.53,-58.61 155.69,-55.73"/>
<polygon fill="midnightblue" stroke="midnightblue" points="61.72,-105.28 56.31,-114.39 66.22,-110.64 61.72,-105.28"/>
</g>
<!-- Node8 -->
<g id="node8" class="node">
<title>Node8</title>
<g id="a_node8"><a xlink:title=" ">
<polygon fill="white" stroke="#bfbfbf" points="125,-0.5 125,-19.5 258,-19.5 258,-0.5 125,-0.5"/>
<text text-anchor="middle" x="191.5" y="-7.5" font-family="Helvetica,sans-Serif" font-size="10.00">xiiVisualShaderErrorLog</text>
</a>
</g>
</g>
<!-- Node1&#45;&gt;Node8 -->
<g id="edge7" class="edge">
<title>Node1&#45;&gt;Node8</title>
<path fill="none" stroke="midnightblue" d="M56.23,-105.46C69.63,-83.94 94.54,-48.87 125,-29 130.95,-25.12 137.71,-22.01 144.57,-19.53"/>
<polygon fill="midnightblue" stroke="midnightblue" points="53.08,-103.92 50.91,-114.29 59.07,-107.54 53.08,-103.92"/>
</g>
</g>
</svg>
