<?xml version="1.0" encoding="UTF-8" standalone="no"?>
<!DOCTYPE svg PUBLIC "-//W3C//DTD SVG 1.1//EN"
 "http://www.w3.org/Graphics/SVG/1.1/DTD/svg11.dtd">
<!-- Generated by graphviz version 2.43.0 (0)
 -->
<!-- Title: xiiSceneDocument Pages: 1 -->
<svg width="246pt" height="364pt"
 viewBox="0.00 0.00 246.00 364.00" xmlns="http://www.w3.org/2000/svg" xmlns:xlink="http://www.w3.org/1999/xlink">
<g id="graph0" class="graph" transform="scale(1 1) rotate(0) translate(4 360)">
<title>xiiSceneDocument</title>
<polygon fill="white" stroke="transparent" points="-4,4 -4,-360 242,-360 242,4 -4,4"/>
<!-- Node1 -->
<g id="node1" class="node">
<title>Node1</title>
<g id="a_node1"><a xlink:title=" ">
<polygon fill="#bfbfbf" stroke="black" points="63,-56.5 63,-75.5 171,-75.5 171,-56.5 63,-56.5"/>
<text text-anchor="middle" x="117" y="-63.5" font-family="Helvetica,sans-Serif" font-size="10.00">xiiSceneDocument</text>
</a>
</g>
</g>
<!-- Node7 -->
<g id="node7" class="node">
<title>Node7</title>
<g id="a_node7"><a xlink:href="../../d3/daf/classxii_layer_document.htm" target="_top" xlink:title=" ">
<polygon fill="white" stroke="black" points="0,-0.5 0,-19.5 106,-19.5 106,-0.5 0,-0.5"/>
<text text-anchor="middle" x="53" y="-7.5" font-family="Helvetica,sans-Serif" font-size="10.00">xiiLayerDocument</text>
</a>
</g>
</g>
<!-- Node1&#45;&gt;Node7 -->
<g id="edge6" class="edge">
<title>Node1&#45;&gt;Node7</title>
<path fill="none" stroke="midnightblue" d="M99.01,-49.82C87.54,-40.15 73.09,-27.95 63.47,-19.83"/>
<polygon fill="midnightblue" stroke="midnightblue" points="96.82,-52.55 106.72,-56.32 101.33,-47.2 96.82,-52.55"/>
</g>
<!-- Node8 -->
<g id="node8" class="node">
<title>Node8</title>
<g id="a_node8"><a xlink:href="../../df/dac/classxii_scene2_document.htm" target="_top" xlink:title=" ">
<polygon fill="white" stroke="black" points="124,-0.5 124,-19.5 238,-19.5 238,-0.5 124,-0.5"/>
<text text-anchor="middle" x="181" y="-7.5" font-family="Helvetica,sans-Serif" font-size="10.00">xiiScene2Document</text>
</a>
</g>
</g>
<!-- Node1&#45;&gt;Node8 -->
<g id="edge7" class="edge">
<title>Node1&#45;&gt;Node8</title>
<path fill="none" stroke="midnightblue" d="M134.99,-49.82C146.46,-40.15 160.91,-27.95 170.53,-19.83"/>
<polygon fill="midnightblue" stroke="midnightblue" points="132.67,-47.2 127.28,-56.32 137.18,-52.55 132.67,-47.2"/>
</g>
<!-- Node2 -->
<g id="node2" class="node">
<title>Node2</title>
<g id="a_node2"><a xlink:href="../../d1/dbf/classxii_game_object_document.htm" target="_top" xlink:title=" ">
<polygon fill="white" stroke="black" points="47,-112.5 47,-131.5 187,-131.5 187,-112.5 47,-112.5"/>
<text text-anchor="middle" x="117" y="-119.5" font-family="Helvetica,sans-Serif" font-size="10.00">xiiGameObjectDocument</text>
</a>
</g>
</g>
<!-- Node2&#45;&gt;Node1 -->
<g id="edge1" class="edge">
<title>Node2&#45;&gt;Node1</title>
<path fill="none" stroke="midnightblue" d="M117,-101.8C117,-92.91 117,-82.78 117,-75.75"/>
<polygon fill="midnightblue" stroke="midnightblue" points="113.5,-102.08 117,-112.08 120.5,-102.08 113.5,-102.08"/>
</g>
<!-- Node3 -->
<g id="node3" class="node">
<title>Node3</title>
<g id="a_node3"><a xlink:href="../../d7/dd5/classxii_asset_document.htm" target="_top" xlink:title=" ">
<polygon fill="white" stroke="black" points="64,-168.5 64,-187.5 170,-187.5 170,-168.5 64,-168.5"/>
<text text-anchor="middle" x="117" y="-175.5" font-family="Helvetica,sans-Serif" font-size="10.00">xiiAssetDocument</text>
</a>
</g>
</g>
<!-- Node3&#45;&gt;Node2 -->
<g id="edge2" class="edge">
<title>Node3&#45;&gt;Node2</title>
<path fill="none" stroke="midnightblue" d="M117,-157.8C117,-148.91 117,-138.78 117,-131.75"/>
<polygon fill="midnightblue" stroke="midnightblue" points="113.5,-158.08 117,-168.08 120.5,-158.08 113.5,-158.08"/>
</g>
<!-- Node4 -->
<g id="node4" class="node">
<title>Node4</title>
<g id="a_node4"><a xlink:href="../../d8/da9/classxii_document.htm" target="_top" xlink:title=" ">
<polygon fill="white" stroke="black" points="77.5,-224.5 77.5,-243.5 156.5,-243.5 156.5,-224.5 77.5,-224.5"/>
<text text-anchor="middle" x="117" y="-231.5" font-family="Helvetica,sans-Serif" font-size="10.00">xiiDocument</text>
</a>
</g>
</g>
<!-- Node4&#45;&gt;Node3 -->
<g id="edge3" class="edge">
<title>Node4&#45;&gt;Node3</title>
<path fill="none" stroke="midnightblue" d="M117,-213.8C117,-204.91 117,-194.78 117,-187.75"/>
<polygon fill="midnightblue" stroke="midnightblue" points="113.5,-214.08 117,-224.08 120.5,-214.08 113.5,-214.08"/>
</g>
<!-- Node5 -->
<g id="node5" class="node">
<title>Node5</title>
<g id="a_node5"><a xlink:href="../../dc/d71/classxii_reflected_class.htm" target="_top" xlink:title="All classes that should be dynamically reflectable, need to be derived from this base class.">
<polygon fill="white" stroke="black" points="66.5,-280.5 66.5,-299.5 167.5,-299.5 167.5,-280.5 66.5,-280.5"/>
<text text-anchor="middle" x="117" y="-287.5" font-family="Helvetica,sans-Serif" font-size="10.00">xiiReflectedClass</text>
</a>
</g>
</g>
<!-- Node5&#45;&gt;Node4 -->
<g id="edge4" class="edge">
<title>Node5&#45;&gt;Node4</title>
<path fill="none" stroke="midnightblue" d="M117,-269.8C117,-260.91 117,-250.78 117,-243.75"/>
<polygon fill="midnightblue" stroke="midnightblue" points="113.5,-270.08 117,-280.08 120.5,-270.08 113.5,-270.08"/>
</g>
<!-- Node6 -->
<g id="node6" class="node">
<title>Node6</title>
<g id="a_node6"><a xlink:href="../../d2/d38/classxii_no_base.htm" target="_top" xlink:title="Dummy type to pass to templates and macros that expect a base type for a class that has no base.">
<polygon fill="white" stroke="black" points="84,-336.5 84,-355.5 150,-355.5 150,-336.5 84,-336.5"/>
<text text-anchor="middle" x="117" y="-343.5" font-family="Helvetica,sans-Serif" font-size="10.00">xiiNoBase</text>
</a>
</g>
</g>
<!-- Node6&#45;&gt;Node5 -->
<g id="edge5" class="edge">
<title>Node6&#45;&gt;Node5</title>
<path fill="none" stroke="midnightblue" d="M117,-325.8C117,-316.91 117,-306.78 117,-299.75"/>
<polygon fill="midnightblue" stroke="midnightblue" points="113.5,-326.08 117,-336.08 120.5,-326.08 113.5,-326.08"/>
</g>
</g>
</svg>
