<?xml version="1.0" encoding="UTF-8" standalone="no"?>
<!DOCTYPE svg PUBLIC "-//W3C//DTD SVG 1.1//EN"
 "http://www.w3.org/Graphics/SVG/1.1/DTD/svg11.dtd">
<!-- Generated by graphviz version 2.43.0 (0)
 -->
<!-- Title: xiiScriptCoroutine_MoveTo Pages: 1 -->
<svg width="509pt" height="61pt"
 viewBox="0.00 0.00 509.00 61.00" xmlns="http://www.w3.org/2000/svg" xmlns:xlink="http://www.w3.org/1999/xlink">
<g id="graph0" class="graph" transform="scale(1 1) rotate(0) translate(4 57)">
<title>xiiScriptCoroutine_MoveTo</title>
<polygon fill="white" stroke="transparent" points="-4,4 -4,-57 505,-57 505,4 -4,4"/>
<!-- Node1 -->
<g id="node1" class="node">
<title>Node1</title>
<g id="a_node1"><a xlink:title=" ">
<polygon fill="#bfbfbf" stroke="black" points="397,-11.5 397,-41.5 501,-41.5 501,-11.5 397,-11.5"/>
<text text-anchor="start" x="405" y="-29.5" font-family="Helvetica,sans-Serif" font-size="10.00">xiiScriptCoroutine</text>
<text text-anchor="middle" x="449" y="-18.5" font-family="Helvetica,sans-Serif" font-size="10.00">_MoveTo</text>
</a>
</g>
</g>
<!-- Node2 -->
<g id="node2" class="node">
<title>Node2</title>
<g id="a_node2"><a xlink:href="../../d3/d2d/classxii_typed_script_coroutine.htm" target="_top" xlink:title=" ">
<polygon fill="white" stroke="black" points="140,-0.5 140,-52.5 361,-52.5 361,-0.5 140,-0.5"/>
<text text-anchor="start" x="148" y="-40.5" font-family="Helvetica,sans-Serif" font-size="10.00">xiiTypedScriptCoroutine</text>
<text text-anchor="start" x="148" y="-29.5" font-family="Helvetica,sans-Serif" font-size="10.00">&lt; xiiScriptCoroutine_MoveTo,</text>
<text text-anchor="start" x="148" y="-18.5" font-family="Helvetica,sans-Serif" font-size="10.00"> xiiGameObjectHandle, xiiVec3,</text>
<text text-anchor="middle" x="250.5" y="-7.5" font-family="Helvetica,sans-Serif" font-size="10.00"> xiiTime, xiiEnum&lt; xiiEasingFunction &gt; &gt;</text>
</a>
</g>
</g>
<!-- Node2&#45;&gt;Node1 -->
<g id="edge1" class="edge">
<title>Node2&#45;&gt;Node1</title>
<path fill="none" stroke="midnightblue" d="M371.27,-26.5C380.07,-26.5 388.63,-26.5 396.64,-26.5"/>
<polygon fill="midnightblue" stroke="midnightblue" points="371.24,-23 361.24,-26.5 371.24,-30 371.24,-23"/>
</g>
<!-- Node3 -->
<g id="node3" class="node">
<title>Node3</title>
<g id="a_node3"><a xlink:href="../../de/d39/classxii_script_coroutine.htm" target="_top" xlink:title="Base class of script coroutines.">
<polygon fill="white" stroke="black" points="0,-17 0,-36 104,-36 104,-17 0,-17"/>
<text text-anchor="middle" x="52" y="-24" font-family="Helvetica,sans-Serif" font-size="10.00">xiiScriptCoroutine</text>
</a>
</g>
</g>
<!-- Node3&#45;&gt;Node2 -->
<g id="edge2" class="edge">
<title>Node3&#45;&gt;Node2</title>
<path fill="none" stroke="midnightblue" d="M114.3,-26.5C122.53,-26.5 131.16,-26.5 139.91,-26.5"/>
<polygon fill="midnightblue" stroke="midnightblue" points="114.12,-23 104.12,-26.5 114.12,-30 114.12,-23"/>
</g>
</g>
</svg>
