<?xml version="1.0" encoding="UTF-8" standalone="no"?>
<!DOCTYPE svg PUBLIC "-//W3C//DTD SVG 1.1//EN"
 "http://www.w3.org/Graphics/SVG/1.1/DTD/svg11.dtd">
<!-- Generated by graphviz version 2.43.0 (0)
 -->
<!-- Title: xiiImageFilter Pages: 1 -->
<svg width="428pt" height="95pt"
 viewBox="0.00 0.00 427.50 95.00" xmlns="http://www.w3.org/2000/svg" xmlns:xlink="http://www.w3.org/1999/xlink">
<g id="graph0" class="graph" transform="scale(1 1) rotate(0) translate(4 91)">
<title>xiiImageFilter</title>
<polygon fill="white" stroke="transparent" points="-4,4 -4,-91 423.5,-91 423.5,4 -4,4"/>
<!-- Node1 -->
<g id="node1" class="node">
<title>Node1</title>
<g id="a_node1"><a xlink:title="Represents a function used for filtering an image.">
<polygon fill="#bfbfbf" stroke="black" points="158.5,-67.5 158.5,-86.5 242.5,-86.5 242.5,-67.5 158.5,-67.5"/>
<text text-anchor="middle" x="200.5" y="-74.5" font-family="Helvetica,sans-Serif" font-size="10.00">xiiImageFilter</text>
</a>
</g>
</g>
<!-- Node2 -->
<g id="node2" class="node">
<title>Node2</title>
<g id="a_node2"><a xlink:href="../../dd/d3f/classxii_image_filter_box.htm" target="_top" xlink:title="Box filter.">
<polygon fill="white" stroke="black" points="0,-6 0,-25 103,-25 103,-6 0,-6"/>
<text text-anchor="middle" x="51.5" y="-13" font-family="Helvetica,sans-Serif" font-size="10.00">xiiImageFilterBox</text>
</a>
</g>
</g>
<!-- Node1&#45;&gt;Node2 -->
<g id="edge1" class="edge">
<title>Node1&#45;&gt;Node2</title>
<path fill="none" stroke="midnightblue" d="M169.53,-63.63C140.58,-52.07 98.13,-35.12 72.81,-25.01"/>
<polygon fill="midnightblue" stroke="midnightblue" points="168.57,-67.02 179.15,-67.48 171.16,-60.52 168.57,-67.02"/>
</g>
<!-- Node3 -->
<g id="node3" class="node">
<title>Node3</title>
<g id="a_node3"><a xlink:href="../../d4/da5/classxii_image_filter_sinc_with_kaiser_window.htm" target="_top" xlink:title="Kaiser&#45;windowed sinc filter.">
<polygon fill="white" stroke="black" points="121.5,-0.5 121.5,-30.5 279.5,-30.5 279.5,-0.5 121.5,-0.5"/>
<text text-anchor="start" x="129.5" y="-18.5" font-family="Helvetica,sans-Serif" font-size="10.00">xiiImageFilterSincWithKaiser</text>
<text text-anchor="middle" x="200.5" y="-7.5" font-family="Helvetica,sans-Serif" font-size="10.00">Window</text>
</a>
</g>
</g>
<!-- Node1&#45;&gt;Node3 -->
<g id="edge2" class="edge">
<title>Node1&#45;&gt;Node3</title>
<path fill="none" stroke="midnightblue" d="M200.5,-57.23C200.5,-48.59 200.5,-38.5 200.5,-30.52"/>
<polygon fill="midnightblue" stroke="midnightblue" points="197,-57.48 200.5,-67.48 204,-57.48 197,-57.48"/>
</g>
<!-- Node4 -->
<g id="node4" class="node">
<title>Node4</title>
<g id="a_node4"><a xlink:href="../../d8/d87/classxii_image_filter_triangle.htm" target="_top" xlink:title="Triangle filter.">
<polygon fill="white" stroke="black" points="297.5,-6 297.5,-25 419.5,-25 419.5,-6 297.5,-6"/>
<text text-anchor="middle" x="358.5" y="-13" font-family="Helvetica,sans-Serif" font-size="10.00">xiiImageFilterTriangle</text>
</a>
</g>
</g>
<!-- Node1&#45;&gt;Node4 -->
<g id="edge3" class="edge">
<title>Node1&#45;&gt;Node4</title>
<path fill="none" stroke="midnightblue" d="M232.54,-63.93C263.25,-52.37 308.82,-35.21 335.9,-25.01"/>
<polygon fill="midnightblue" stroke="midnightblue" points="231.26,-60.68 223.14,-67.48 233.73,-67.23 231.26,-60.68"/>
</g>
</g>
</svg>
