<?xml version="1.0" encoding="UTF-8" standalone="no"?>
<!DOCTYPE svg PUBLIC "-//W3C//DTD SVG 1.1//EN"
 "http://www.w3.org/Graphics/SVG/1.1/DTD/svg11.dtd">
<!-- Generated by graphviz version 2.43.0 (0)
 -->
<!-- Title: xiiImageConversionStepLinear Pages: 1 -->
<!--zoomable 982 -->
<svg id="main" version="1.1" xmlns="http://www.w3.org/2000/svg" xmlns:xlink="http://www.w3.org/1999/xlink" xml:space="preserve" onload="init(evt)">
<style type="text/css"><![CDATA[
.edge:hover path { stroke: red; }
.edge:hover polygon { stroke: red; fill: red; }
]]></style>
<script type="text/javascript"><![CDATA[
var edges = document.getElementsByTagName('g');
if (edges && edges.length) {
  for (var i=0;i<edges.length;i++) {
    if (edges[i].id.substr(0,4)=='edge') {
      edges[i].setAttribute('class','edge');
    }
  }
}
]]></script>
        <defs>
                <circle id="rim" cx="0" cy="0" r="7"/>
                <circle id="rim2" cx="0" cy="0" r="3.5"/>
                <g id="zoomPlus">
                        <use xlink:href="#rim" fill="#404040">
                                <set attributeName="fill" to="#808080" begin="zoomplus.mouseover" end="zoomplus.mouseout"/>
                        </use>
                        <path d="M-4,0h8M0,-4v8" fill="none" stroke="white" stroke-width="1.5" pointer-events="none"/>
                </g>
                <g id="zoomMin">
                        <use xlink:href="#rim" fill="#404040">
                                <set attributeName="fill" to="#808080" begin="zoomminus.mouseover" end="zoomminus.mouseout"/>
                        </use>
                        <path d="M-4,0h8" fill="none" stroke="white" stroke-width="1.5" pointer-events="none"/>
                </g>
                <g id="dirArrow">
                        <path fill="none" stroke="white" stroke-width="1.5" d="M0,-3.0v7 M-2.5,-0.5L0,-3.0L2.5,-0.5"/>
                </g>
               <g id="resetDef">
                       <use xlink:href="#rim2" fill="#404040">
                               <set attributeName="fill" to="#808080" begin="reset.mouseover" end="reset.mouseout"/>
                       </use>
               </g>
        </defs>

<script type="text/javascript">
var viewWidth = 908;
var viewHeight = 982;
var sectionId = 'dynsection-0';
</script>
<script xlink:href="../../svgpan.js"/>
<svg id="graph" class="graph">
<g id="viewport">
<title>xiiImageConversionStepLinear</title>
<polygon fill="white" stroke="transparent" points="-4,4 -4,-978 904,-978 904,4 -4,4"/>
<!-- Node1 -->
<g id="node1" class="node">
<title>Node1</title>
<g id="a_node1"><a xlink:title="Interface for a single image conversion step where both the source and target format are uncompressed...">
<polygon fill="#bfbfbf" stroke="black" points="506,-460.5 506,-479.5 672,-479.5 672,-460.5 506,-460.5"/>
<text text-anchor="middle" x="589" y="-467.5" font-family="Helvetica,sans-Serif" font-size="10.00">xiiImageConversionStepLinear</text>
</a>
</g>
</g>
<!-- Node5 -->
<g id="node5" class="node">
<title>Node5</title>
<g id="a_node5"><a xlink:title=" ">
<polygon fill="white" stroke="#bfbfbf" points="711.5,-932.5 711.5,-973.5 896.5,-973.5 896.5,-932.5 711.5,-932.5"/>
<text text-anchor="start" x="719.5" y="-961.5" font-family="Helvetica,sans-Serif" font-size="10.00">xiiImageConversionStep</text>
<text text-anchor="start" x="719.5" y="-950.5" font-family="Helvetica,sans-Serif" font-size="10.00">_Compress16bpp&lt; compressFunc,</text>
<text text-anchor="middle" x="804" y="-939.5" font-family="Helvetica,sans-Serif" font-size="10.00"> templateTargetFormat &gt;</text>
</a>
</g>
</g>
<!-- Node1&#45;&gt;Node5 -->
<g id="edge4" class="edge">
<title>Node1&#45;&gt;Node5</title>
<path fill="none" stroke="#8b1a1a" d="M592.6,-489.81C603.28,-568.52 646.24,-858 708,-923 711.34,-926.51 715.08,-929.61 719.1,-932.35"/>
<polygon fill="#8b1a1a" stroke="#8b1a1a" points="596.05,-489.23 591.25,-479.78 589.11,-490.15 596.05,-489.23"/>
</g>
<!-- Node6 -->
<g id="node6" class="node">
<title>Node6</title>
<g id="a_node6"><a xlink:title=" ">
<polygon fill="white" stroke="#bfbfbf" points="712.5,-872.5 712.5,-913.5 895.5,-913.5 895.5,-872.5 712.5,-872.5"/>
<text text-anchor="start" x="720.5" y="-901.5" font-family="Helvetica,sans-Serif" font-size="10.00">xiiImageConversionStep</text>
<text text-anchor="start" x="720.5" y="-890.5" font-family="Helvetica,sans-Serif" font-size="10.00">_Decompress16bpp&lt; decompress</text>
<text text-anchor="middle" x="804" y="-879.5" font-family="Helvetica,sans-Serif" font-size="10.00">Func, templateSourceFormat &gt;</text>
</a>
</g>
</g>
<!-- Node1&#45;&gt;Node6 -->
<g id="edge5" class="edge">
<title>Node1&#45;&gt;Node6</title>
<path fill="none" stroke="#8b1a1a" d="M589.85,-489.76C590.45,-553.32 601.12,-754.59 708,-863 711.52,-866.57 715.46,-869.72 719.69,-872.49"/>
<polygon fill="#8b1a1a" stroke="#8b1a1a" points="593.35,-489.55 589.83,-479.55 586.35,-489.56 593.35,-489.55"/>
</g>
<!-- Node7 -->
<g id="node7" class="node">
<title>Node7</title>
<g id="a_node7"><a xlink:title=" ">
<polygon fill="white" stroke="#bfbfbf" points="747,-823 747,-853 861,-853 861,-823 747,-823"/>
<text text-anchor="start" x="755" y="-841" font-family="Helvetica,sans-Serif" font-size="10.00">xiiImageConversion</text>
<text text-anchor="middle" x="804" y="-830" font-family="Helvetica,sans-Serif" font-size="10.00">_BGRX_BGRA</text>
</a>
</g>
</g>
<!-- Node1&#45;&gt;Node7 -->
<g id="edge6" class="edge">
<title>Node1&#45;&gt;Node7</title>
<path fill="none" stroke="midnightblue" d="M590.57,-489.84C593.38,-548.7 610,-723.81 708,-814 718.64,-823.79 732.69,-829.73 746.71,-833.29"/>
<polygon fill="midnightblue" stroke="midnightblue" points="594.06,-489.53 590.17,-479.68 587.07,-489.81 594.06,-489.53"/>
</g>
<!-- Node8 -->
<g id="node8" class="node">
<title>Node8</title>
<g id="a_node8"><a xlink:title=" ">
<polygon fill="white" stroke="#bfbfbf" points="747,-774 747,-804 861,-804 861,-774 747,-774"/>
<text text-anchor="start" x="755" y="-792" font-family="Helvetica,sans-Serif" font-size="10.00">xiiImageConversion</text>
<text text-anchor="middle" x="804" y="-781" font-family="Helvetica,sans-Serif" font-size="10.00">_DiscardChannels</text>
</a>
</g>
</g>
<!-- Node1&#45;&gt;Node8 -->
<g id="edge7" class="edge">
<title>Node1&#45;&gt;Node8</title>
<path fill="none" stroke="midnightblue" d="M591.84,-489.8C597.89,-542.93 621.95,-689.7 708,-765 718.75,-774.41 732.68,-780.23 746.54,-783.8"/>
<polygon fill="midnightblue" stroke="midnightblue" points="595.31,-489.26 590.79,-479.68 588.35,-489.99 595.31,-489.26"/>
</g>
<!-- Node9 -->
<g id="node9" class="node">
<title>Node9</title>
<g id="a_node9"><a xlink:title=" ">
<polygon fill="white" stroke="#bfbfbf" points="747,-725 747,-755 861,-755 861,-725 747,-725"/>
<text text-anchor="start" x="755" y="-743" font-family="Helvetica,sans-Serif" font-size="10.00">xiiImageConversion</text>
<text text-anchor="middle" x="804" y="-732" font-family="Helvetica,sans-Serif" font-size="10.00">_F16_F32</text>
</a>
</g>
</g>
<!-- Node1&#45;&gt;Node9 -->
<g id="edge8" class="edge">
<title>Node1&#45;&gt;Node9</title>
<path fill="none" stroke="midnightblue" d="M593.54,-489.59C603.05,-536.37 633.65,-655.19 708,-716 719.06,-725.05 733.09,-730.74 746.95,-734.31"/>
<polygon fill="midnightblue" stroke="midnightblue" points="596.93,-488.72 591.6,-479.56 590.06,-490.04 596.93,-488.72"/>
</g>
<!-- Node10 -->
<g id="node10" class="node">
<title>Node10</title>
<g id="a_node10"><a xlink:title=" ">
<polygon fill="white" stroke="#bfbfbf" points="747,-676 747,-706 861,-706 861,-676 747,-676"/>
<text text-anchor="start" x="755" y="-694" font-family="Helvetica,sans-Serif" font-size="10.00">xiiImageConversion</text>
<text text-anchor="middle" x="804" y="-683" font-family="Helvetica,sans-Serif" font-size="10.00">_F32_F16</text>
</a>
</g>
</g>
<!-- Node1&#45;&gt;Node10 -->
<g id="edge9" class="edge">
<title>Node1&#45;&gt;Node10</title>
<path fill="none" stroke="midnightblue" d="M595.88,-489.14C609.09,-528.79 644.99,-620.16 708,-667 719.19,-675.32 732.96,-680.78 746.51,-684.34"/>
<polygon fill="midnightblue" stroke="midnightblue" points="599.21,-488.05 592.82,-479.61 592.55,-490.2 599.21,-488.05"/>
</g>
<!-- Node11 -->
<g id="node11" class="node">
<title>Node11</title>
<g id="a_node11"><a xlink:title=" ">
<polygon fill="white" stroke="#bfbfbf" points="747,-627 747,-657 861,-657 861,-627 747,-627"/>
<text text-anchor="start" x="755" y="-645" font-family="Helvetica,sans-Serif" font-size="10.00">xiiImageConversion</text>
<text text-anchor="middle" x="804" y="-634" font-family="Helvetica,sans-Serif" font-size="10.00">_F32_S8</text>
</a>
</g>
</g>
<!-- Node1&#45;&gt;Node11 -->
<g id="edge10" class="edge">
<title>Node1&#45;&gt;Node11</title>
<path fill="none" stroke="midnightblue" d="M599.65,-488.85C616.91,-520.61 656.16,-584.58 708,-618 719.58,-625.47 733.34,-630.61 746.75,-634.15"/>
<polygon fill="midnightblue" stroke="midnightblue" points="602.6,-486.95 594.83,-479.75 596.42,-490.23 602.6,-486.95"/>
</g>
<!-- Node12 -->
<g id="node12" class="node">
<title>Node12</title>
<g id="a_node12"><a xlink:title=" ">
<polygon fill="white" stroke="#bfbfbf" points="747,-578 747,-608 861,-608 861,-578 747,-578"/>
<text text-anchor="start" x="755" y="-596" font-family="Helvetica,sans-Serif" font-size="10.00">xiiImageConversion</text>
<text text-anchor="middle" x="804" y="-585" font-family="Helvetica,sans-Serif" font-size="10.00">_F32_U16</text>
</a>
</g>
</g>
<!-- Node1&#45;&gt;Node12 -->
<g id="edge11" class="edge">
<title>Node1&#45;&gt;Node12</title>
<path fill="none" stroke="midnightblue" d="M605.29,-486.89C626.29,-509.05 666.23,-547.64 708,-569 719.96,-575.12 733.59,-579.75 746.72,-583.22"/>
<polygon fill="midnightblue" stroke="midnightblue" points="607.81,-484.47 598.44,-479.53 602.69,-489.23 607.81,-484.47"/>
</g>
<!-- Node13 -->
<g id="node13" class="node">
<title>Node13</title>
<g id="a_node13"><a xlink:title=" ">
<polygon fill="white" stroke="#bfbfbf" points="747,-529 747,-559 861,-559 861,-529 747,-529"/>
<text text-anchor="start" x="755" y="-547" font-family="Helvetica,sans-Serif" font-size="10.00">xiiImageConversion</text>
<text text-anchor="middle" x="804" y="-536" font-family="Helvetica,sans-Serif" font-size="10.00">_F32_U8</text>
</a>
</g>
</g>
<!-- Node1&#45;&gt;Node13 -->
<g id="edge12" class="edge">
<title>Node1&#45;&gt;Node13</title>
<path fill="none" stroke="midnightblue" d="M619.21,-483.86C642.79,-494.69 677.04,-509.6 708,-520 720.42,-524.17 733.96,-528.01 746.83,-531.33"/>
<polygon fill="midnightblue" stroke="midnightblue" points="620.64,-480.67 610.1,-479.64 617.7,-487.02 620.64,-480.67"/>
</g>
<!-- Node14 -->
<g id="node14" class="node">
<title>Node14</title>
<g id="a_node14"><a xlink:title=" ">
<polygon fill="white" stroke="#bfbfbf" points="747,-480 747,-510 861,-510 861,-480 747,-480"/>
<text text-anchor="start" x="755" y="-498" font-family="Helvetica,sans-Serif" font-size="10.00">xiiImageConversion</text>
<text text-anchor="middle" x="804" y="-487" font-family="Helvetica,sans-Serif" font-size="10.00">_F32_sRGB</text>
</a>
</g>
</g>
<!-- Node1&#45;&gt;Node14 -->
<g id="edge13" class="edge">
<title>Node1&#45;&gt;Node14</title>
<path fill="none" stroke="midnightblue" d="M681.3,-480.72C703.59,-483.33 726.79,-486.05 746.88,-488.41"/>
<polygon fill="midnightblue" stroke="midnightblue" points="681.47,-477.21 671.13,-479.52 680.66,-484.16 681.47,-477.21"/>
</g>
<!-- Node15 -->
<g id="node15" class="node">
<title>Node15</title>
<g id="a_node15"><a xlink:title=" ">
<polygon fill="white" stroke="#bfbfbf" points="739,-431 739,-461 869,-461 869,-431 739,-431"/>
<text text-anchor="start" x="747" y="-449" font-family="Helvetica,sans-Serif" font-size="10.00">xiiImageConversion</text>
<text text-anchor="middle" x="804" y="-438" font-family="Helvetica,sans-Serif" font-size="10.00">_FLOAT_to_R11G11B10</text>
</a>
</g>
</g>
<!-- Node1&#45;&gt;Node15 -->
<g id="edge14" class="edge">
<title>Node1&#45;&gt;Node15</title>
<path fill="none" stroke="midnightblue" d="M682,-459.63C701.16,-457.48 720.96,-455.24 738.85,-453.23"/>
<polygon fill="midnightblue" stroke="midnightblue" points="681.59,-456.16 672.05,-460.76 682.38,-463.11 681.59,-456.16"/>
</g>
<!-- Node16 -->
<g id="node16" class="node">
<title>Node16</title>
<g id="a_node16"><a xlink:title=" ">
<polygon fill="white" stroke="#bfbfbf" points="747,-382 747,-412 861,-412 861,-382 747,-382"/>
<text text-anchor="start" x="755" y="-400" font-family="Helvetica,sans-Serif" font-size="10.00">xiiImageConversion</text>
<text text-anchor="middle" x="804" y="-389" font-family="Helvetica,sans-Serif" font-size="10.00">_Pad_To_RGBA_F32</text>
</a>
</g>
</g>
<!-- Node1&#45;&gt;Node16 -->
<g id="edge15" class="edge">
<title>Node1&#45;&gt;Node16</title>
<path fill="none" stroke="midnightblue" d="M619.66,-456.26C643.25,-445.69 677.28,-431.2 708,-421 720.43,-416.87 733.98,-413.06 746.85,-409.74"/>
<polygon fill="midnightblue" stroke="midnightblue" points="618.21,-453.08 610.54,-460.39 621.09,-459.46 618.21,-453.08"/>
</g>
<!-- Node17 -->
<g id="node17" class="node">
<title>Node17</title>
<g id="a_node17"><a xlink:title=" ">
<polygon fill="white" stroke="#bfbfbf" points="747,-333 747,-363 861,-363 861,-333 747,-333"/>
<text text-anchor="start" x="755" y="-351" font-family="Helvetica,sans-Serif" font-size="10.00">xiiImageConversion</text>
<text text-anchor="middle" x="804" y="-340" font-family="Helvetica,sans-Serif" font-size="10.00">_Pad_To_RGBA_U8</text>
</a>
</g>
</g>
<!-- Node1&#45;&gt;Node17 -->
<g id="edge16" class="edge">
<title>Node1&#45;&gt;Node17</title>
<path fill="none" stroke="midnightblue" d="M605.65,-452.95C626.77,-430.97 666.56,-393.06 708,-372 719.98,-365.91 733.61,-361.29 746.74,-357.82"/>
<polygon fill="midnightblue" stroke="midnightblue" points="603.06,-450.6 598.74,-460.27 608.15,-455.4 603.06,-450.6"/>
</g>
<!-- Node18 -->
<g id="node18" class="node">
<title>Node18</title>
<g id="a_node18"><a xlink:title=" ">
<polygon fill="white" stroke="#bfbfbf" points="739,-284 739,-314 869,-314 869,-284 739,-284"/>
<text text-anchor="start" x="747" y="-302" font-family="Helvetica,sans-Serif" font-size="10.00">xiiImageConversion</text>
<text text-anchor="middle" x="804" y="-291" font-family="Helvetica,sans-Serif" font-size="10.00">_R11G11B10_to_FLOAT</text>
</a>
</g>
</g>
<!-- Node1&#45;&gt;Node18 -->
<g id="edge17" class="edge">
<title>Node1&#45;&gt;Node18</title>
<path fill="none" stroke="midnightblue" d="M599.68,-451.28C616.99,-419.73 656.32,-356.19 708,-323 717.3,-317.02 728.01,-312.54 738.8,-309.17"/>
<polygon fill="midnightblue" stroke="midnightblue" points="596.48,-449.85 594.85,-460.31 602.65,-453.15 596.48,-449.85"/>
</g>
<!-- Node19 -->
<g id="node19" class="node">
<title>Node19</title>
<g id="a_node19"><a xlink:title=" ">
<polygon fill="white" stroke="#bfbfbf" points="741.5,-235 741.5,-265 866.5,-265 866.5,-235 741.5,-235"/>
<text text-anchor="start" x="749.5" y="-253" font-family="Helvetica,sans-Serif" font-size="10.00">xiiImageConversion</text>
<text text-anchor="middle" x="804" y="-242" font-family="Helvetica,sans-Serif" font-size="10.00">_R11G11B10_to_HALF</text>
</a>
</g>
</g>
<!-- Node1&#45;&gt;Node19 -->
<g id="edge18" class="edge">
<title>Node1&#45;&gt;Node19</title>
<path fill="none" stroke="midnightblue" d="M596,-450.71C609.33,-411.11 645.31,-320.5 708,-274 717.7,-266.8 729.33,-261.75 741.07,-258.21"/>
<polygon fill="midnightblue" stroke="midnightblue" points="592.59,-449.85 592.83,-460.44 599.25,-452.01 592.59,-449.85"/>
</g>
<!-- Node20 -->
<g id="node20" class="node">
<title>Node20</title>
<g id="a_node20"><a xlink:title=" ">
<polygon fill="white" stroke="#bfbfbf" points="747,-186 747,-216 861,-216 861,-186 747,-186"/>
<text text-anchor="start" x="755" y="-204" font-family="Helvetica,sans-Serif" font-size="10.00">xiiImageConversion</text>
<text text-anchor="middle" x="804" y="-193" font-family="Helvetica,sans-Serif" font-size="10.00">_S8_F32</text>
</a>
</g>
</g>
<!-- Node1&#45;&gt;Node20 -->
<g id="edge19" class="edge">
<title>Node1&#45;&gt;Node20</title>
<path fill="none" stroke="midnightblue" d="M593.56,-450.49C603.13,-403.9 633.84,-285.55 708,-225 719.07,-215.96 733.1,-210.27 746.96,-206.71"/>
<polygon fill="midnightblue" stroke="midnightblue" points="590.1,-449.99 591.62,-460.48 596.97,-451.33 590.1,-449.99"/>
</g>
<!-- Node21 -->
<g id="node21" class="node">
<title>Node21</title>
<g id="a_node21"><a xlink:title=" ">
<polygon fill="white" stroke="#bfbfbf" points="747,-137 747,-167 861,-167 861,-137 747,-137"/>
<text text-anchor="start" x="755" y="-155" font-family="Helvetica,sans-Serif" font-size="10.00">xiiImageConversion</text>
<text text-anchor="middle" x="804" y="-144" font-family="Helvetica,sans-Serif" font-size="10.00">_U16_F32</text>
</a>
</g>
</g>
<!-- Node1&#45;&gt;Node21 -->
<g id="edge20" class="edge">
<title>Node1&#45;&gt;Node21</title>
<path fill="none" stroke="midnightblue" d="M591.87,-450.27C597.97,-397.32 622.16,-251.03 708,-176 718.76,-166.6 732.69,-160.78 746.54,-157.21"/>
<polygon fill="midnightblue" stroke="midnightblue" points="588.37,-450.04 590.8,-460.35 595.33,-450.78 588.37,-450.04"/>
</g>
<!-- Node22 -->
<g id="node22" class="node">
<title>Node22</title>
<g id="a_node22"><a xlink:title=" ">
<polygon fill="white" stroke="#bfbfbf" points="747,-88 747,-118 861,-118 861,-88 747,-88"/>
<text text-anchor="start" x="755" y="-106" font-family="Helvetica,sans-Serif" font-size="10.00">xiiImageConversion</text>
<text text-anchor="middle" x="804" y="-95" font-family="Helvetica,sans-Serif" font-size="10.00">_U8_F32</text>
</a>
</g>
</g>
<!-- Node1&#45;&gt;Node22 -->
<g id="edge21" class="edge">
<title>Node1&#45;&gt;Node22</title>
<path fill="none" stroke="midnightblue" d="M590.59,-450.22C593.46,-391.53 610.22,-216.91 708,-127 718.64,-117.21 732.69,-111.28 746.71,-107.72"/>
<polygon fill="midnightblue" stroke="midnightblue" points="587.09,-450.22 590.18,-460.35 594.08,-450.5 587.09,-450.22"/>
</g>
<!-- Node23 -->
<g id="node23" class="node">
<title>Node23</title>
<g id="a_node23"><a xlink:title=" ">
<polygon fill="white" stroke="#bfbfbf" points="747,-39 747,-69 861,-69 861,-39 747,-39"/>
<text text-anchor="start" x="755" y="-57" font-family="Helvetica,sans-Serif" font-size="10.00">xiiImageConversion</text>
<text text-anchor="middle" x="804" y="-46" font-family="Helvetica,sans-Serif" font-size="10.00">_sRGB_F32</text>
</a>
</g>
</g>
<!-- Node1&#45;&gt;Node23 -->
<g id="edge22" class="edge">
<title>Node1&#45;&gt;Node23</title>
<path fill="none" stroke="midnightblue" d="M589.61,-450.03C589.49,-385.84 598.22,-182.96 708,-78 718.57,-67.89 732.77,-61.86 746.95,-58.32"/>
<polygon fill="midnightblue" stroke="midnightblue" points="586.11,-450.38 589.71,-460.34 593.11,-450.31 586.11,-450.38"/>
</g>
<!-- Node24 -->
<g id="node24" class="node">
<title>Node24</title>
<g id="a_node24"><a xlink:title=" ">
<polygon fill="white" stroke="#bfbfbf" points="708,-0.5 708,-19.5 900,-19.5 900,-0.5 708,-0.5"/>
<text text-anchor="middle" x="804" y="-7.5" font-family="Helvetica,sans-Serif" font-size="10.00">xiiImageSwizzleConversion32_2103</text>
</a>
</g>
</g>
<!-- Node1&#45;&gt;Node24 -->
<g id="edge23" class="edge">
<title>Node1&#45;&gt;Node24</title>
<path fill="none" stroke="midnightblue" d="M592.54,-450.04C602.9,-371.97 644.35,-88.69 708,-29 711.93,-25.32 716.35,-22.26 721.1,-19.73"/>
<polygon fill="midnightblue" stroke="midnightblue" points="589.02,-450.01 591.2,-460.38 595.96,-450.92 589.02,-450.01"/>
</g>
<!-- Node2 -->
<g id="node2" class="node">
<title>Node2</title>
<g id="a_node2"><a xlink:href="../../dc/d44/classxii_image_conversion_step.htm" target="_top" xlink:title="Interface for a single image conversion step.">
<polygon fill="white" stroke="black" points="334,-460.5 334,-479.5 470,-479.5 470,-460.5 334,-460.5"/>
<text text-anchor="middle" x="402" y="-467.5" font-family="Helvetica,sans-Serif" font-size="10.00">xiiImageConversionStep</text>
</a>
</g>
</g>
<!-- Node2&#45;&gt;Node1 -->
<g id="edge1" class="edge">
<title>Node2&#45;&gt;Node1</title>
<path fill="none" stroke="midnightblue" d="M480.22,-470C488.64,-470 497.24,-470 505.72,-470"/>
<polygon fill="midnightblue" stroke="midnightblue" points="480.05,-466.5 470.05,-470 480.05,-473.5 480.05,-466.5"/>
</g>
<!-- Node3 -->
<g id="node3" class="node">
<title>Node3</title>
<g id="a_node3"><a xlink:href="../../dc/d54/classxii_enumerable.htm" target="_top" xlink:title=" ">
<polygon fill="white" stroke="black" points="102,-455 102,-485 298,-485 298,-455 102,-455"/>
<text text-anchor="start" x="110" y="-473" font-family="Helvetica,sans-Serif" font-size="10.00">xiiEnumerable&lt; xiiImageConversion</text>
<text text-anchor="middle" x="200" y="-462" font-family="Helvetica,sans-Serif" font-size="10.00">Step &gt;</text>
</a>
</g>
</g>
<!-- Node3&#45;&gt;Node2 -->
<g id="edge2" class="edge">
<title>Node3&#45;&gt;Node2</title>
<path fill="none" stroke="midnightblue" d="M308.31,-470C317.02,-470 325.66,-470 333.95,-470"/>
<polygon fill="midnightblue" stroke="midnightblue" points="308.07,-466.5 298.07,-470 308.07,-473.5 308.07,-466.5"/>
</g>
<!-- Node4 -->
<g id="node4" class="node">
<title>Node4</title>
<g id="a_node4"><a xlink:href="../../d2/d38/classxii_no_base.htm" target="_top" xlink:title="Dummy type to pass to templates and macros that expect a base type for a class that has no base.">
<polygon fill="white" stroke="black" points="0,-460.5 0,-479.5 66,-479.5 66,-460.5 0,-460.5"/>
<text text-anchor="middle" x="33" y="-467.5" font-family="Helvetica,sans-Serif" font-size="10.00">xiiNoBase</text>
</a>
</g>
</g>
<!-- Node4&#45;&gt;Node3 -->
<g id="edge3" class="edge">
<title>Node4&#45;&gt;Node3</title>
<path fill="none" stroke="midnightblue" d="M76.26,-470C84.23,-470 92.86,-470 101.72,-470"/>
<polygon fill="midnightblue" stroke="midnightblue" points="76.21,-466.5 66.21,-470 76.21,-473.5 76.21,-466.5"/>
</g>
</g>
</svg>
        <g id="navigator" transform="translate(0 0)" fill="#404254">
                <rect fill="#f2f5e9" fill-opacity="0.5" stroke="#606060" stroke-width=".5" x="0" y="0" width="60" height="60"/>
                <use id="zoomplus" xlink:href="#zoomPlus" x="17" y="9" onmousedown="handleZoom(evt,'in')"/>
                <use id="zoomminus" xlink:href="#zoomMin" x="42" y="9" onmousedown="handleZoom(evt,'out')"/>
                <use id="reset" xlink:href="#resetDef" x="30" y="36" onmousedown="handleReset()"/>
                <g id="arrowUp" xlink:href="#dirArrow" transform="translate(30 24)" onmousedown="handlePan(0,-1)">
                  <use xlink:href="#rim" fill="#404040">
                        <set attributeName="fill" to="#808080" begin="arrowUp.mouseover" end="arrowUp.mouseout"/>
                  </use>
                  <path fill="none" stroke="white" stroke-width="1.5" d="M0,-3.0v7 M-2.5,-0.5L0,-3.0L2.5,-0.5"/>
                </g>
                <g id="arrowRight" xlink:href="#dirArrow" transform="rotate(90) translate(36 -43)" onmousedown="handlePan(1,0)">
                  <use xlink:href="#rim" fill="#404040">
                        <set attributeName="fill" to="#808080" begin="arrowRight.mouseover" end="arrowRight.mouseout"/>
                  </use>
                  <path fill="none" stroke="white" stroke-width="1.5" d="M0,-3.0v7 M-2.5,-0.5L0,-3.0L2.5,-0.5"/>
                </g>
                <g id="arrowDown" xlink:href="#dirArrow" transform="rotate(180) translate(-30 -48)" onmousedown="handlePan(0,1)">
                  <use xlink:href="#rim" fill="#404040">
                        <set attributeName="fill" to="#808080" begin="arrowDown.mouseover" end="arrowDown.mouseout"/>
                  </use>
                  <path fill="none" stroke="white" stroke-width="1.5" d="M0,-3.0v7 M-2.5,-0.5L0,-3.0L2.5,-0.5"/>
                </g>
                <g id="arrowLeft" xlink:href="#dirArrow" transform="rotate(270) translate(-36 17)" onmousedown="handlePan(-1,0)">
                  <use xlink:href="#rim" fill="#404040">
                        <set attributeName="fill" to="#808080" begin="arrowLeft.mouseover" end="arrowLeft.mouseout"/>
                  </use>
                  <path fill="none" stroke="white" stroke-width="1.5" d="M0,-3.0v7 M-2.5,-0.5L0,-3.0L2.5,-0.5"/>
                </g>
        </g>
        <svg viewBox="0 0 15 15" width="100%" height="30px" preserveAspectRatio="xMaxYMin meet">
         <g id="arrow_out" transform="scale(0.3 0.3)">
          <a xlink:href="classxii_image_conversion_step_linear__inherit__graph_org.svg" target="_base">
           <rect id="button" ry="5" rx="5" y="6" x="6" height="38" width="38"
                fill="#f2f5e9" fill-opacity="0.5" stroke="#606060" stroke-width="1.0"/>
           <path id="arrow"
             d="M 11.500037,31.436501 C 11.940474,20.09759 22.043105,11.32322 32.158766,21.979434 L 37.068811,17.246167 C 37.068811,17.246167 37.088388,32 37.088388,32 L 22.160133,31.978069 C 22.160133,31.978069 26.997745,27.140456 26.997745,27.140456 C 18.528582,18.264221 13.291696,25.230495 11.500037,31.436501 z"
             style="fill:#404040;"/>
          </a>
         </g>
        </svg>
</svg>
