<?xml version="1.0" encoding="UTF-8" standalone="no"?>
<!DOCTYPE svg PUBLIC "-//W3C//DTD SVG 1.1//EN"
 "http://www.w3.org/Graphics/SVG/1.1/DTD/svg11.dtd">
<!-- Generated by graphviz version 2.43.0 (0)
 -->
<!-- Title: xiiGALPipelineState Pages: 1 -->
<svg width="851pt" height="142pt"
 viewBox="0.00 0.00 851.00 142.00" xmlns="http://www.w3.org/2000/svg" xmlns:xlink="http://www.w3.org/1999/xlink">
<g id="graph0" class="graph" transform="scale(1 1) rotate(0) translate(4 138)">
<title>xiiGALPipelineState</title>
<polygon fill="white" stroke="transparent" points="-4,4 -4,-138 847,-138 847,4 -4,4"/>
<!-- Node1 -->
<g id="node1" class="node">
<title>Node1</title>
<g id="a_node1"><a xlink:title="Interface that defines methods to manipulate a pipeline state object.">
<polygon fill="#bfbfbf" stroke="black" points="548,-57.5 548,-76.5 661,-76.5 661,-57.5 548,-57.5"/>
<text text-anchor="middle" x="604.5" y="-64.5" font-family="Helvetica,sans-Serif" font-size="10.00">xiiGALPipelineState</text>
</a>
</g>
</g>
<!-- Node8 -->
<g id="node8" class="node">
<title>Node8</title>
<g id="a_node8"><a xlink:href="../../dc/df3/classxii_g_a_l_pipeline_state_d3_d11.htm" target="_top" xlink:title=" ">
<polygon fill="white" stroke="black" points="697,-114.5 697,-133.5 843,-133.5 843,-114.5 697,-114.5"/>
<text text-anchor="middle" x="770" y="-121.5" font-family="Helvetica,sans-Serif" font-size="10.00">xiiGALPipelineStateD3D11</text>
</a>
</g>
</g>
<!-- Node1&#45;&gt;Node8 -->
<g id="edge7" class="edge">
<title>Node1&#45;&gt;Node8</title>
<path fill="none" stroke="midnightblue" d="M635.5,-80.67C653.18,-88.42 676.1,-97.94 697,-105 707.17,-108.43 718.31,-111.64 728.73,-114.4"/>
<polygon fill="midnightblue" stroke="midnightblue" points="636.83,-77.43 626.27,-76.58 633.99,-83.83 636.83,-77.43"/>
</g>
<!-- Node9 -->
<g id="node9" class="node">
<title>Node9</title>
<g id="a_node9"><a xlink:href="../../db/df2/classxii_g_a_l_pipeline_state_d3_d12.htm" target="_top" xlink:title=" ">
<polygon fill="white" stroke="black" points="697,-76.5 697,-95.5 843,-95.5 843,-76.5 697,-76.5"/>
<text text-anchor="middle" x="770" y="-83.5" font-family="Helvetica,sans-Serif" font-size="10.00">xiiGALPipelineStateD3D12</text>
</a>
</g>
</g>
<!-- Node1&#45;&gt;Node9 -->
<g id="edge8" class="edge">
<title>Node1&#45;&gt;Node9</title>
<path fill="none" stroke="midnightblue" d="M671.42,-74.66C679.83,-75.64 688.47,-76.64 696.96,-77.63"/>
<polygon fill="midnightblue" stroke="midnightblue" points="671.65,-71.16 661.31,-73.49 670.84,-78.12 671.65,-71.16"/>
</g>
<!-- Node10 -->
<g id="node10" class="node">
<title>Node10</title>
<g id="a_node10"><a xlink:href="../../d7/da2/classxii_g_a_l_pipeline_state_null.htm" target="_top" xlink:title=" ">
<polygon fill="white" stroke="black" points="704,-38.5 704,-57.5 836,-57.5 836,-38.5 704,-38.5"/>
<text text-anchor="middle" x="770" y="-45.5" font-family="Helvetica,sans-Serif" font-size="10.00">xiiGALPipelineStateNull</text>
</a>
</g>
</g>
<!-- Node1&#45;&gt;Node10 -->
<g id="edge9" class="edge">
<title>Node1&#45;&gt;Node10</title>
<path fill="none" stroke="midnightblue" d="M671.42,-59.34C682.12,-58.1 693.19,-56.81 703.86,-55.57"/>
<polygon fill="midnightblue" stroke="midnightblue" points="670.84,-55.88 661.31,-60.51 671.65,-62.84 670.84,-55.88"/>
</g>
<!-- Node11 -->
<g id="node11" class="node">
<title>Node11</title>
<g id="a_node11"><a xlink:href="../../d6/d49/classxii_g_a_l_pipeline_state_vulkan.htm" target="_top" xlink:title=" ">
<polygon fill="white" stroke="black" points="697.5,-0.5 697.5,-19.5 842.5,-19.5 842.5,-0.5 697.5,-0.5"/>
<text text-anchor="middle" x="770" y="-7.5" font-family="Helvetica,sans-Serif" font-size="10.00">xiiGALPipelineStateVulkan</text>
</a>
</g>
</g>
<!-- Node1&#45;&gt;Node11 -->
<g id="edge10" class="edge">
<title>Node1&#45;&gt;Node11</title>
<path fill="none" stroke="midnightblue" d="M635.5,-53.33C653.18,-45.58 676.1,-36.06 697,-29 707.17,-25.57 718.31,-22.36 728.73,-19.6"/>
<polygon fill="midnightblue" stroke="midnightblue" points="633.99,-50.17 626.27,-57.42 636.83,-56.57 633.99,-50.17"/>
</g>
<!-- Node2 -->
<g id="node2" class="node">
<title>Node2</title>
<g id="a_node2"><a xlink:href="../../d5/d12/classxii_g_a_l_device_object.htm" target="_top" xlink:title="Base Graphics Abstraction Layer Object.">
<polygon fill="white" stroke="black" points="399,-57.5 399,-76.5 512,-76.5 512,-57.5 399,-57.5"/>
<text text-anchor="middle" x="455.5" y="-64.5" font-family="Helvetica,sans-Serif" font-size="10.00">xiiGALDeviceObject</text>
</a>
</g>
</g>
<!-- Node2&#45;&gt;Node1 -->
<g id="edge1" class="edge">
<title>Node2&#45;&gt;Node1</title>
<path fill="none" stroke="midnightblue" d="M522.08,-67C530.68,-67 539.43,-67 547.85,-67"/>
<polygon fill="midnightblue" stroke="midnightblue" points="522.07,-63.5 512.07,-67 522.07,-70.5 522.07,-63.5"/>
</g>
<!-- Node3 -->
<g id="node3" class="node">
<title>Node3</title>
<g id="a_node3"><a xlink:href="../../d3/dda/classxii_g_a_l_object.htm" target="_top" xlink:title="Base Graphics Abstraction Layer Object.">
<polygon fill="white" stroke="black" points="283,-57.5 283,-76.5 363,-76.5 363,-57.5 283,-57.5"/>
<text text-anchor="middle" x="323" y="-64.5" font-family="Helvetica,sans-Serif" font-size="10.00">xiiGALObject</text>
</a>
</g>
</g>
<!-- Node3&#45;&gt;Node2 -->
<g id="edge2" class="edge">
<title>Node3&#45;&gt;Node2</title>
<path fill="none" stroke="midnightblue" d="M373.19,-67C381.61,-67 390.4,-67 398.97,-67"/>
<polygon fill="midnightblue" stroke="midnightblue" points="373.15,-63.5 363.15,-67 373.15,-70.5 373.15,-63.5"/>
</g>
<!-- Node4 -->
<g id="node4" class="node">
<title>Node4</title>
<g id="a_node4"><a xlink:href="../../dc/d71/classxii_reflected_class.htm" target="_top" xlink:title="All classes that should be dynamically reflectable, need to be derived from this base class.">
<polygon fill="white" stroke="black" points="146,-76.5 146,-95.5 247,-95.5 247,-76.5 146,-76.5"/>
<text text-anchor="middle" x="196.5" y="-83.5" font-family="Helvetica,sans-Serif" font-size="10.00">xiiReflectedClass</text>
</a>
</g>
</g>
<!-- Node4&#45;&gt;Node3 -->
<g id="edge3" class="edge">
<title>Node4&#45;&gt;Node3</title>
<path fill="none" stroke="midnightblue" d="M256.96,-76.93C265.79,-75.58 274.69,-74.22 282.96,-72.96"/>
<polygon fill="midnightblue" stroke="midnightblue" points="256.42,-73.47 247.06,-78.44 257.48,-80.39 256.42,-73.47"/>
</g>
<!-- Node5 -->
<g id="node5" class="node">
<title>Node5</title>
<g id="a_node5"><a xlink:href="../../d2/d38/classxii_no_base.htm" target="_top" xlink:title="Dummy type to pass to templates and macros that expect a base type for a class that has no base.">
<polygon fill="white" stroke="black" points="22,-76.5 22,-95.5 88,-95.5 88,-76.5 22,-76.5"/>
<text text-anchor="middle" x="55" y="-83.5" font-family="Helvetica,sans-Serif" font-size="10.00">xiiNoBase</text>
</a>
</g>
</g>
<!-- Node5&#45;&gt;Node4 -->
<g id="edge4" class="edge">
<title>Node5&#45;&gt;Node4</title>
<path fill="none" stroke="midnightblue" d="M98.06,-86C113.12,-86 130.23,-86 145.87,-86"/>
<polygon fill="midnightblue" stroke="midnightblue" points="98,-82.5 88,-86 98,-89.5 98,-82.5"/>
</g>
<!-- Node6 -->
<g id="node6" class="node">
<title>Node6</title>
<g id="a_node6"><a xlink:href="../../d3/dd0/classxii_ref_counted.htm" target="_top" xlink:title="Base class for reference counted objects.">
<polygon fill="white" stroke="black" points="153.5,-38.5 153.5,-57.5 239.5,-57.5 239.5,-38.5 153.5,-38.5"/>
<text text-anchor="middle" x="196.5" y="-45.5" font-family="Helvetica,sans-Serif" font-size="10.00">xiiRefCounted</text>
</a>
</g>
</g>
<!-- Node6&#45;&gt;Node3 -->
<g id="edge5" class="edge">
<title>Node6&#45;&gt;Node3</title>
<path fill="none" stroke="midnightblue" d="M249.68,-55.96C260.78,-57.66 272.32,-59.42 282.83,-61.02"/>
<polygon fill="midnightblue" stroke="midnightblue" points="250.06,-52.48 239.65,-54.43 249.01,-59.4 250.06,-52.48"/>
</g>
<!-- Node7 -->
<g id="node7" class="node">
<title>Node7</title>
<g id="a_node7"><a xlink:href="../../d7/df4/classxii_ref_counting_impl.htm" target="_top" xlink:title=" ">
<polygon fill="white" stroke="black" points="0,-38.5 0,-57.5 110,-57.5 110,-38.5 0,-38.5"/>
<text text-anchor="middle" x="55" y="-45.5" font-family="Helvetica,sans-Serif" font-size="10.00">xiiRefCountingImpl</text>
</a>
</g>
</g>
<!-- Node7&#45;&gt;Node6 -->
<g id="edge6" class="edge">
<title>Node7&#45;&gt;Node6</title>
<path fill="none" stroke="midnightblue" d="M120.45,-48C131.57,-48 142.86,-48 153.19,-48"/>
<polygon fill="midnightblue" stroke="midnightblue" points="120.33,-44.5 110.33,-48 120.33,-51.5 120.33,-44.5"/>
</g>
</g>
</svg>
