<?xml version="1.0" encoding="UTF-8" standalone="no"?>
<!DOCTYPE svg PUBLIC "-//W3C//DTD SVG 1.1//EN"
 "http://www.w3.org/Graphics/SVG/1.1/DTD/svg11.dtd">
<!-- Generated by graphviz version 2.43.0 (0)
 -->
<!-- Title: xiiAssetDragDropHandler Pages: 1 -->
<svg width="941pt" height="278pt"
 viewBox="0.00 0.00 941.00 278.00" xmlns="http://www.w3.org/2000/svg" xmlns:xlink="http://www.w3.org/1999/xlink">
<g id="graph0" class="graph" transform="scale(1 1) rotate(0) translate(4 274)">
<title>xiiAssetDragDropHandler</title>
<!-- Node1 -->
<g id="Node000001" class="node">
<title>Node1</title>
<g id="a_Node000001"><a xlink:title=" ">
<polygon fill="#999999" stroke="#666666" points="528,-125.5 388,-125.5 388,-106.5 528,-106.5 528,-125.5"/>
<text text-anchor="middle" x="458" y="-113.5" font-family="Helvetica,sans-Serif" font-size="10.00">xiiAssetDragDropHandler</text>
</a>
</g>
</g>
<!-- Node5 -->
<g id="Node000005" class="node">
<title>Node5</title>
<g id="a_Node000005"><a xlink:href="../../dc/da3/classxii_component_drag_drop_handler.html" target="_top" xlink:title=" ">
<polygon fill="white" stroke="#bfbfbf" points="734,-144.5 564,-144.5 564,-125.5 734,-125.5 734,-144.5"/>
<text text-anchor="middle" x="649" y="-132.5" font-family="Helvetica,sans-Serif" font-size="10.00">xiiComponentDragDropHandler</text>
</a>
</g>
</g>
<!-- Node1&#45;&gt;Node5 -->
<g id="edge4_Node000001_Node000005" class="edge">
<title>Node1&#45;&gt;Node5</title>
<g id="a_edge4_Node000001_Node000005"><a xlink:title=" ">
<path fill="none" stroke="#63b8ff" d="M538.21,-123.96C546.64,-124.81 555.24,-125.67 563.72,-126.53"/>
<polygon fill="#63b8ff" stroke="#63b8ff" points="538.34,-120.46 528.04,-122.94 537.64,-127.42 538.34,-120.46"/>
</a>
</g>
</g>
<!-- Node12 -->
<g id="Node000012" class="node">
<title>Node12</title>
<g id="a_Node000012"><a xlink:href="../../da/d43/classxii_material_drag_drop_handler.html" target="_top" xlink:title=" ">
<polygon fill="white" stroke="#bfbfbf" points="726,-107.5 572,-107.5 572,-88.5 726,-88.5 726,-107.5"/>
<text text-anchor="middle" x="649" y="-95.5" font-family="Helvetica,sans-Serif" font-size="10.00">xiiMaterialDragDropHandler</text>
</a>
</g>
</g>
<!-- Node1&#45;&gt;Node12 -->
<g id="edge11_Node000001_Node000012" class="edge">
<title>Node1&#45;&gt;Node12</title>
<g id="a_edge11_Node000001_Node000012"><a xlink:title=" ">
<path fill="none" stroke="#63b8ff" d="M538.16,-108.46C549.3,-107.4 560.73,-106.31 571.81,-105.26"/>
<polygon fill="#63b8ff" stroke="#63b8ff" points="537.66,-104.99 528.04,-109.43 538.32,-111.96 537.66,-104.99"/>
</a>
</g>
</g>
<!-- Node2 -->
<g id="Node000002" class="node">
<title>Node2</title>
<g id="a_Node000002"><a xlink:href="../../db/d24/classxii_drag_drop_handler.html" target="_top" xlink:title=" ">
<polygon fill="white" stroke="#bfbfbf" points="352,-125.5 239,-125.5 239,-106.5 352,-106.5 352,-125.5"/>
<text text-anchor="middle" x="295.5" y="-113.5" font-family="Helvetica,sans-Serif" font-size="10.00">xiiDragDropHandler</text>
</a>
</g>
</g>
<!-- Node2&#45;&gt;Node1 -->
<g id="edge1_Node000001_Node000002" class="edge">
<title>Node2&#45;&gt;Node1</title>
<g id="a_edge1_Node000001_Node000002"><a xlink:title=" ">
<path fill="none" stroke="#63b8ff" d="M362.32,-116C370.73,-116 379.37,-116 387.84,-116"/>
<polygon fill="#63b8ff" stroke="#63b8ff" points="362.18,-112.5 352.18,-116 362.18,-119.5 362.18,-112.5"/>
</a>
</g>
</g>
<!-- Node3 -->
<g id="Node000003" class="node">
<title>Node3</title>
<g id="a_Node000003"><a xlink:href="../../dc/d71/classxii_reflected_class.html" target="_top" xlink:title="All classes that should be dynamically reflectable, need to be derived from this base class.">
<polygon fill="white" stroke="#666666" points="203,-125.5 102,-125.5 102,-106.5 203,-106.5 203,-125.5"/>
<text text-anchor="middle" x="152.5" y="-113.5" font-family="Helvetica,sans-Serif" font-size="10.00">xiiReflectedClass</text>
</a>
</g>
</g>
<!-- Node3&#45;&gt;Node2 -->
<g id="edge2_Node000002_Node000003" class="edge">
<title>Node3&#45;&gt;Node2</title>
<g id="a_edge2_Node000002_Node000003"><a xlink:title=" ">
<path fill="none" stroke="#63b8ff" d="M213.42,-116C221.91,-116 230.6,-116 238.99,-116"/>
<polygon fill="#63b8ff" stroke="#63b8ff" points="213.21,-112.5 203.21,-116 213.21,-119.5 213.21,-112.5"/>
</a>
</g>
</g>
<!-- Node4 -->
<g id="Node000004" class="node">
<title>Node4</title>
<g id="a_Node000004"><a xlink:href="../../d2/d38/classxii_no_base.html" target="_top" xlink:title="Dummy type to pass to templates and macros that expect a base type for a class that has no base.">
<polygon fill="white" stroke="#666666" points="66,-125.5 0,-125.5 0,-106.5 66,-106.5 66,-125.5"/>
<text text-anchor="middle" x="33" y="-113.5" font-family="Helvetica,sans-Serif" font-size="10.00">xiiNoBase</text>
</a>
</g>
</g>
<!-- Node4&#45;&gt;Node3 -->
<g id="edge3_Node000003_Node000004" class="edge">
<title>Node4&#45;&gt;Node3</title>
<g id="a_edge3_Node000003_Node000004"><a xlink:title=" ">
<path fill="none" stroke="#63b8ff" d="M76.27,-116C84.54,-116 93.29,-116 101.78,-116"/>
<polygon fill="#63b8ff" stroke="#63b8ff" points="76.11,-112.5 66.11,-116 76.11,-119.5 76.11,-112.5"/>
</a>
</g>
</g>
<!-- Node6 -->
<g id="Node000006" class="node">
<title>Node6</title>
<g id="a_Node000006"><a xlink:href="../../de/d38/classxii_animated_mesh_component_drag_drop_handler.html" target="_top" xlink:title=" ">
<polygon fill="white" stroke="#bfbfbf" points="930.5,-270 772.5,-270 772.5,-240 930.5,-240 930.5,-270"/>
<text text-anchor="start" x="780.5" y="-258" font-family="Helvetica,sans-Serif" font-size="10.00">xiiAnimatedMeshComponent</text>
<text text-anchor="middle" x="851.5" y="-247" font-family="Helvetica,sans-Serif" font-size="10.00">DragDropHandler</text>
</a>
</g>
</g>
<!-- Node5&#45;&gt;Node6 -->
<g id="edge5_Node000005_Node000006" class="edge">
<title>Node5&#45;&gt;Node6</title>
<g id="a_edge5_Node000005_Node000006"><a xlink:title=" ">
<path fill="none" stroke="#63b8ff" d="M666.51,-151.73C688.37,-173 728.95,-209.51 770,-231 776.46,-234.38 783.47,-237.36 790.56,-239.96"/>
<polygon fill="#63b8ff" stroke="#63b8ff" points="668.91,-149.19 659.34,-144.64 663.99,-154.16 668.91,-149.19"/>
</a>
</g>
</g>
<!-- Node7 -->
<g id="Node000007" class="node">
<title>Node7</title>
<g id="a_Node000007"><a xlink:href="../../d6/d3b/classxii_decal_component_drag_drop_handler.html" target="_top" xlink:title=" ">
<polygon fill="white" stroke="#bfbfbf" points="931,-222 772,-222 772,-192 931,-192 931,-222"/>
<text text-anchor="start" x="780" y="-210" font-family="Helvetica,sans-Serif" font-size="10.00">xiiDecalComponentDragDrop</text>
<text text-anchor="middle" x="851.5" y="-199" font-family="Helvetica,sans-Serif" font-size="10.00">Handler</text>
</a>
</g>
</g>
<!-- Node5&#45;&gt;Node7 -->
<g id="edge6_Node000005_Node000007" class="edge">
<title>Node5&#45;&gt;Node7</title>
<g id="a_edge6_Node000005_Node000007"><a xlink:title=" ">
<path fill="none" stroke="#63b8ff" d="M681.66,-148.58C705.68,-158.66 739.64,-172.43 770,-183 778.81,-186.07 788.25,-189.1 797.45,-191.93"/>
<polygon fill="#63b8ff" stroke="#63b8ff" points="682.9,-145.3 672.33,-144.64 680.18,-151.75 682.9,-145.3"/>
</a>
</g>
</g>
<!-- Node8 -->
<g id="Node000008" class="node">
<title>Node8</title>
<g id="a_Node000008"><a xlink:href="../../df/da5/classxii_mesh_component_drag_drop_handler.html" target="_top" xlink:title=" ">
<polygon fill="white" stroke="#bfbfbf" points="930.5,-174 772.5,-174 772.5,-144 930.5,-144 930.5,-174"/>
<text text-anchor="start" x="780.5" y="-162" font-family="Helvetica,sans-Serif" font-size="10.00">xiiMeshComponentDragDrop</text>
<text text-anchor="middle" x="851.5" y="-151" font-family="Helvetica,sans-Serif" font-size="10.00">Handler</text>
</a>
</g>
</g>
<!-- Node5&#45;&gt;Node8 -->
<g id="edge7_Node000005_Node000008" class="edge">
<title>Node5&#45;&gt;Node8</title>
<g id="a_edge7_Node000005_Node000008"><a xlink:title=" ">
<path fill="none" stroke="#63b8ff" d="M739.53,-145.72C750.48,-147.03 761.61,-148.36 772.38,-149.65"/>
<polygon fill="#63b8ff" stroke="#63b8ff" points="739.88,-142.23 729.53,-144.52 739.04,-149.18 739.88,-142.23"/>
</a>
</g>
</g>
<!-- Node9 -->
<g id="Node000009" class="node">
<title>Node9</title>
<g id="a_Node000009"><a xlink:href="../../d5/d4b/classxii_prefab_component_drag_drop_handler.html" target="_top" xlink:title=" ">
<polygon fill="white" stroke="#bfbfbf" points="933,-126 770,-126 770,-96 933,-96 933,-126"/>
<text text-anchor="start" x="778" y="-114" font-family="Helvetica,sans-Serif" font-size="10.00">xiiPrefabComponentDragDrop</text>
<text text-anchor="middle" x="851.5" y="-103" font-family="Helvetica,sans-Serif" font-size="10.00">Handler</text>
</a>
</g>
</g>
<!-- Node5&#45;&gt;Node9 -->
<g id="edge8_Node000005_Node000009" class="edge">
<title>Node5&#45;&gt;Node9</title>
<g id="a_edge8_Node000005_Node000009"><a xlink:title=" ">
<path fill="none" stroke="#63b8ff" d="M739.53,-124.28C749.6,-123.08 759.81,-121.86 769.75,-120.67"/>
<polygon fill="#63b8ff" stroke="#63b8ff" points="739.04,-120.82 729.53,-125.48 739.88,-127.77 739.04,-120.82"/>
</a>
</g>
</g>
<!-- Node10 -->
<g id="Node000010" class="node">
<title>Node10</title>
<g id="a_Node000010"><a xlink:href="../../d0/d1a/classxii_skeleton_component_drag_drop_handler.html" target="_top" xlink:title=" ">
<polygon fill="white" stroke="#bfbfbf" points="926.5,-78 776.5,-78 776.5,-48 926.5,-48 926.5,-78"/>
<text text-anchor="start" x="784.5" y="-66" font-family="Helvetica,sans-Serif" font-size="10.00">xiiSkeletonComponentDrag</text>
<text text-anchor="middle" x="851.5" y="-55" font-family="Helvetica,sans-Serif" font-size="10.00">DropHandler</text>
</a>
</g>
</g>
<!-- Node5&#45;&gt;Node10 -->
<g id="edge9_Node000005_Node000010" class="edge">
<title>Node5&#45;&gt;Node10</title>
<g id="a_edge9_Node000005_Node000010"><a xlink:title=" ">
<path fill="none" stroke="#63b8ff" d="M721.38,-122.27C725.73,-120.71 729.97,-118.96 734,-117 752.73,-107.89 751.65,-96.84 770,-87 776.3,-83.62 783.13,-80.66 790.07,-78.07"/>
<polygon fill="#63b8ff" stroke="#63b8ff" points="720.16,-118.98 711.73,-125.39 722.32,-125.65 720.16,-118.98"/>
</a>
</g>
</g>
<!-- Node11 -->
<g id="Node000011" class="node">
<title>Node11</title>
<g id="a_Node000011"><a xlink:href="../../de/d9d/classxii_visual_script_component_drag_drop_handler.html" target="_top" xlink:title=" ">
<polygon fill="white" stroke="#bfbfbf" points="923,-30 780,-30 780,0 923,0 923,-30"/>
<text text-anchor="start" x="788" y="-18" font-family="Helvetica,sans-Serif" font-size="10.00">xiiVisualScriptComponent</text>
<text text-anchor="middle" x="851.5" y="-7" font-family="Helvetica,sans-Serif" font-size="10.00">DragDropHandler</text>
</a>
</g>
</g>
<!-- Node5&#45;&gt;Node11 -->
<g id="edge10_Node000005_Node000011" class="edge">
<title>Node5&#45;&gt;Node11</title>
<g id="a_edge10_Node000005_Node000011"><a xlink:title=" ">
<path fill="none" stroke="#63b8ff" d="M729.09,-120.53C730.79,-119.43 732.43,-118.26 734,-117 763.81,-93.15 741.15,-64.01 770,-39 773.97,-35.56 778.41,-32.62 783.12,-30.09"/>
<polygon fill="#63b8ff" stroke="#63b8ff" points="727.29,-117.53 720.19,-125.4 730.65,-123.67 727.29,-117.53"/>
</a>
</g>
</g>
</g>
</svg>
