<?xml version="1.0" encoding="UTF-8" standalone="no"?>
<!DOCTYPE svg PUBLIC "-//W3C//DTD SVG 1.1//EN"
 "http://www.w3.org/Graphics/SVG/1.1/DTD/svg11.dtd">
<!-- Generated by graphviz version 2.43.0 (0)
 -->
<!-- Title: xiiVariantTypeInfo Pages: 1 -->
<svg width="153pt" height="203pt"
 viewBox="0.00 0.00 153.00 203.00" xmlns="http://www.w3.org/2000/svg" xmlns:xlink="http://www.w3.org/1999/xlink">
<g id="graph0" class="graph" transform="scale(1 1) rotate(0) translate(4 199)">
<title>xiiVariantTypeInfo</title>
<!-- Node1 -->
<g id="Node000001" class="node">
<title>Node1</title>
<g id="a_Node000001"><a xlink:title="Defines functions to allow the full feature set of xiiVariant to be used.">
<polygon fill="#999999" stroke="#666666" points="124.5,-74 20.5,-74 20.5,-55 124.5,-55 124.5,-74"/>
<text text-anchor="middle" x="72.5" y="-62" font-family="Helvetica,sans-Serif" font-size="10.00">xiiVariantTypeInfo</text>
</a>
</g>
</g>
<!-- Node4 -->
<g id="Node000004" class="node">
<title>Node4</title>
<g id="a_Node000004"><a xlink:href="../../da/df9/classxii_variant_type_info_t.html" target="_top" xlink:title="Helper template used by XII_DEFINE_CUSTOM_VARIANT_TYPE.">
<polygon fill="white" stroke="#666666" points="142,-19 3,-19 3,0 142,0 142,-19"/>
<text text-anchor="middle" x="72.5" y="-7" font-family="Helvetica,sans-Serif" font-size="10.00">xiiVariantTypeInfoT&lt; T &gt;</text>
</a>
</g>
</g>
<!-- Node1&#45;&gt;Node4 -->
<g id="edge3_Node000001_Node000004" class="edge">
<title>Node1&#45;&gt;Node4</title>
<g id="a_edge3_Node000001_Node000004"><a xlink:title=" ">
<path fill="none" stroke="#63b8ff" d="M72.5,-44.66C72.5,-35.93 72.5,-25.99 72.5,-19.09"/>
<polygon fill="#63b8ff" stroke="#63b8ff" points="69,-44.75 72.5,-54.75 76,-44.75 69,-44.75"/>
</a>
</g>
</g>
<!-- Node2 -->
<g id="Node000002" class="node">
<title>Node2</title>
<g id="a_Node000002"><a xlink:href="../../dc/d54/classxii_enumerable.html" target="_top" xlink:title=" ">
<polygon fill="white" stroke="#666666" points="145,-140 0,-140 0,-110 145,-110 145,-140"/>
<text text-anchor="start" x="8" y="-128" font-family="Helvetica,sans-Serif" font-size="10.00">xiiEnumerable&lt; xiiVariant</text>
<text text-anchor="middle" x="72.5" y="-117" font-family="Helvetica,sans-Serif" font-size="10.00">TypeInfo &gt;</text>
</a>
</g>
</g>
<!-- Node2&#45;&gt;Node1 -->
<g id="edge1_Node000001_Node000002" class="edge">
<title>Node2&#45;&gt;Node1</title>
<g id="a_edge1_Node000001_Node000002"><a xlink:title=" ">
<path fill="none" stroke="#63b8ff" d="M72.5,-99.75C72.5,-90.72 72.5,-81.03 72.5,-74.27"/>
<polygon fill="#63b8ff" stroke="#63b8ff" points="69,-99.84 72.5,-109.84 76,-99.84 69,-99.84"/>
</a>
</g>
</g>
<!-- Node3 -->
<g id="Node000003" class="node">
<title>Node3</title>
<g id="a_Node000003"><a xlink:href="../../d2/d38/classxii_no_base.html" target="_top" xlink:title="Dummy type to pass to templates and macros that expect a base type for a class that has no base.">
<polygon fill="white" stroke="#666666" points="105.5,-195 39.5,-195 39.5,-176 105.5,-176 105.5,-195"/>
<text text-anchor="middle" x="72.5" y="-183" font-family="Helvetica,sans-Serif" font-size="10.00">xiiNoBase</text>
</a>
</g>
</g>
<!-- Node3&#45;&gt;Node2 -->
<g id="edge2_Node000002_Node000003" class="edge">
<title>Node3&#45;&gt;Node2</title>
<g id="a_edge2_Node000002_Node000003"><a xlink:title=" ">
<path fill="none" stroke="#63b8ff" d="M72.5,-165.65C72.5,-157.36 72.5,-147.78 72.5,-140.11"/>
<polygon fill="#63b8ff" stroke="#63b8ff" points="69,-165.87 72.5,-175.87 76,-165.87 69,-165.87"/>
</a>
</g>
</g>
</g>
</svg>
