<?xml version="1.0" encoding="UTF-8" standalone="no"?>
<!DOCTYPE svg PUBLIC "-//W3C//DTD SVG 1.1//EN"
 "http://www.w3.org/Graphics/SVG/1.1/DTD/svg11.dtd">
<!-- Generated by graphviz version 2.43.0 (0)
 -->
<!-- Title: xiiHybridStringBase&lt; Size &gt; Pages: 1 -->
<!--zoomable 246 -->

<svg id="main" version="1.1" xmlns="http://www.w3.org/2000/svg" xmlns:xlink="http://www.w3.org/1999/xlink" xml:space="preserve" onload="init(evt)">
<style type="text/css"><![CDATA[
.node, .edge {opacity: 0.7;}
.node.selected, .edge.selected {opacity: 1;}
.edge:hover path { stroke: red; }
.edge:hover polygon { stroke: red; fill: red; }
]]></style>

<defs>
  <circle id="rim" cx="0" cy="0" r="7"/>
  <circle id="rim2" cx="0" cy="0" r="3.5"/>
  <g id="zoomPlus">
    <use xlink:href="#rim" fill="#404040"><set attributeName="fill" to="#808080" begin="zoomplus.mouseover" end="zoomplus.mouseout"/></use>
    <path d="M-4,0h8M0,-4v8" fill="none" stroke="white" stroke-width="1.5" pointer-events="none"/>
  </g>
  <g id="zoomMin">
    <use xlink:href="#rim" fill="#404040"><set attributeName="fill" to="#808080" begin="zoomminus.mouseover" end="zoomminus.mouseout"/></use>
    <path d="M-4,0h8" fill="none" stroke="white" stroke-width="1.5" pointer-events="none"/>
  </g>
  <g id="arrowUp" transform="translate(30 24)">
    <use xlink:href="#rim"/>
    <path pointer-events="none" fill="none" stroke="white" stroke-width="1.5" d="M0,-3.0v7 M-2.5,-0.5L0,-3.0L2.5,-0.5"/>
  </g>
  <g id="arrowRight" transform="rotate(90) translate(36 -43)">
    <use xlink:href="#rim"/>
    <path pointer-events="none" fill="none" stroke="white" stroke-width="1.5" d="M0,-3.0v7 M-2.5,-0.5L0,-3.0L2.5,-0.5"/>
  </g>
  <g id="arrowDown" transform="rotate(180) translate(-30 -48)">
    <use xlink:href="#rim"/>
    <path pointer-events="none" fill="none" stroke="white" stroke-width="1.5" d="M0,-3.0v7 M-2.5,-0.5L0,-3.0L2.5,-0.5"/>
  </g>
  <g id="arrowLeft" transform="rotate(270) translate(-36 17)">
    <use xlink:href="#rim"/>
    <path pointer-events="none" fill="none" stroke="white" stroke-width="1.5" d="M0,-3.0v7 M-2.5,-0.5L0,-3.0L2.5,-0.5"/>
  </g>
  <g id="resetDef">
    <use xlink:href="#rim2" fill="#404040"><set attributeName="fill" to="#808080" begin="reset.mouseover" end="reset.mouseout"/></use>
  </g>
</defs>
<script type="application/ecmascript">
var viewWidth = 622;
var viewHeight = 246;
var sectionId = 'dynsection-0';
</script>
<script type="application/ecmascript" xlink:href="../../svg.min.js"/>
<svg id="graph" class="graph">
<g id="viewport">
<title>xiiHybridStringBase&lt; Size &gt;</title>
<!-- Node1 -->
<g id="Node000001" class="node">
<title>Node1</title>
<g id="a_Node000001"><a xlink:title="A string class for storing and passing around strings.">
<polygon fill="#999999" stroke="#666666" points="414,-128 301,-128 301,-98 414,-98 414,-128"/>
<text text-anchor="start" x="309" y="-116" font-family="Helvetica,sans-Serif" font-size="10.00">xiiHybridStringBase</text>
<text text-anchor="middle" x="357.5" y="-105" font-family="Helvetica,sans-Serif" font-size="10.00">&lt; Size &gt;</text>
</a>
</g>
</g>
<!-- Node4 -->
<g id="Node000004" class="node">
<title>Node4</title>
<g id="a_Node000004"><a xlink:href="../../df/dfb/structxii_hybrid_string.htm" target="_top" xlink:title=" ">
<polygon fill="white" stroke="#666666" points="614,-238 450,-238 450,-208 614,-208 614,-238"/>
<text text-anchor="start" x="458" y="-226" font-family="Helvetica,sans-Serif" font-size="10.00">xiiHybridString&lt; 32,</text>
<text text-anchor="middle" x="532" y="-215" font-family="Helvetica,sans-Serif" font-size="10.00"> xiiDefaultAllocatorWrapper &gt;</text>
</a>
</g>
</g>
<!-- Node1&#45;&gt;Node4 -->
<g id="edge3_Node000001_Node000004" class="edge">
<title>Node1&#45;&gt;Node4</title>
<g id="a_edge3_Node000001_Node000004"><a xlink:title=" ">
<path fill="none" stroke="#63b8ff" d="M377.22,-135.78C394.31,-155.19 421.22,-182.47 450,-199 455.98,-202.43 462.49,-205.41 469.14,-207.99"/>
<polygon fill="#63b8ff" stroke="#63b8ff" points="379.7,-133.3 370.52,-128 374.4,-137.87 379.7,-133.3"/>
</a>
</g>
</g>
<!-- Node5 -->
<g id="Node000005" class="node">
<title>Node5</title>
<g id="a_Node000005"><a xlink:href="../../df/dfb/structxii_hybrid_string.htm" target="_top" xlink:title=" ">
<polygon fill="white" stroke="#666666" points="609.5,-190 454.5,-190 454.5,-160 609.5,-160 609.5,-190"/>
<text text-anchor="start" x="462.5" y="-178" font-family="Helvetica,sans-Serif" font-size="10.00">xiiHybridString&lt; 32U,</text>
<text text-anchor="middle" x="532" y="-167" font-family="Helvetica,sans-Serif" font-size="10.00"> xiiStaticAllocatorWrapper &gt;</text>
</a>
</g>
</g>
<!-- Node1&#45;&gt;Node5 -->
<g id="edge4_Node000001_Node000005" class="edge">
<title>Node1&#45;&gt;Node5</title>
<g id="a_edge4_Node000001_Node000005"><a xlink:title=" ">
<path fill="none" stroke="#63b8ff" d="M402.06,-132.19C417.11,-138.53 434.17,-145.39 450,-151 458.71,-154.09 468.04,-157.11 477.15,-159.91"/>
<polygon fill="#63b8ff" stroke="#63b8ff" points="403.06,-128.82 392.49,-128.12 400.32,-135.26 403.06,-128.82"/>
</a>
</g>
</g>
<!-- Node6 -->
<g id="Node000006" class="node">
<title>Node6</title>
<g id="a_Node000006"><a xlink:href="../../df/dfb/structxii_hybrid_string.htm" target="_top" xlink:title=" ">
<polygon fill="white" stroke="#666666" points="600.5,-141.5 463.5,-141.5 463.5,-122.5 600.5,-122.5 600.5,-141.5"/>
<text text-anchor="middle" x="532" y="-129.5" font-family="Helvetica,sans-Serif" font-size="10.00">xiiHybridString&lt; 128U &gt;</text>
</a>
</g>
</g>
<!-- Node1&#45;&gt;Node6 -->
<g id="edge5_Node000001_Node000006" class="edge">
<title>Node1&#45;&gt;Node6</title>
<g id="a_edge5_Node000001_Node000006"><a xlink:title=" ">
<path fill="none" stroke="#63b8ff" d="M424.12,-120.23C436.91,-121.64 450.34,-123.12 463.2,-124.53"/>
<polygon fill="#63b8ff" stroke="#63b8ff" points="424.35,-116.73 414.03,-119.12 423.59,-123.69 424.35,-116.73"/>
</a>
</g>
</g>
<!-- Node7 -->
<g id="Node000007" class="node">
<title>Node7</title>
<g id="a_Node000007"><a xlink:href="../../df/dfb/structxii_hybrid_string.htm" target="_top" xlink:title=" ">
<polygon fill="white" stroke="#666666" points="597.5,-104.5 466.5,-104.5 466.5,-85.5 597.5,-85.5 597.5,-104.5"/>
<text text-anchor="middle" x="532" y="-92.5" font-family="Helvetica,sans-Serif" font-size="10.00">xiiHybridString&lt; 32U &gt;</text>
</a>
</g>
</g>
<!-- Node1&#45;&gt;Node7 -->
<g id="edge6_Node000001_Node000007" class="edge">
<title>Node1&#45;&gt;Node7</title>
<g id="a_edge6_Node000001_Node000007"><a xlink:title=" ">
<path fill="none" stroke="#63b8ff" d="M424.37,-106.13C438.1,-104.69 452.57,-103.18 466.26,-101.76"/>
<polygon fill="#63b8ff" stroke="#63b8ff" points="423.61,-102.69 414.03,-107.21 424.34,-109.65 423.61,-102.69"/>
</a>
</g>
</g>
<!-- Node8 -->
<g id="Node000008" class="node">
<title>Node8</title>
<g id="a_Node000008"><a xlink:href="../../df/dfb/structxii_hybrid_string.htm" target="_top" xlink:title=" ">
<polygon fill="white" stroke="#666666" points="594,-67.5 470,-67.5 470,-48.5 594,-48.5 594,-67.5"/>
<text text-anchor="middle" x="532" y="-55.5" font-family="Helvetica,sans-Serif" font-size="10.00">xiiHybridString&lt; 64 &gt;</text>
</a>
</g>
</g>
<!-- Node1&#45;&gt;Node8 -->
<g id="edge7_Node000001_Node000008" class="edge">
<title>Node1&#45;&gt;Node8</title>
<g id="a_edge7_Node000001_Node000008"><a xlink:title=" ">
<path fill="none" stroke="#63b8ff" d="M401.51,-93.9C416.64,-87.64 433.89,-81.01 450,-76 460.18,-72.83 471.24,-70 481.83,-67.56"/>
<polygon fill="#63b8ff" stroke="#63b8ff" points="399.77,-90.83 391.91,-97.94 402.48,-97.29 399.77,-90.83"/>
</a>
</g>
</g>
<!-- Node9 -->
<g id="Node000009" class="node">
<title>Node9</title>
<g id="a_Node000009"><a xlink:href="../../df/dfb/structxii_hybrid_string.htm" target="_top" xlink:title=" ">
<polygon fill="white" stroke="#666666" points="594,-30 470,-30 470,0 594,0 594,-30"/>
<text text-anchor="start" x="478" y="-18" font-family="Helvetica,sans-Serif" font-size="10.00">xiiHybridString&lt; Size,</text>
<text text-anchor="middle" x="532" y="-7" font-family="Helvetica,sans-Serif" font-size="10.00"> AllocatorWrapper &gt;</text>
</a>
</g>
</g>
<!-- Node1&#45;&gt;Node9 -->
<g id="edge8_Node000001_Node000009" class="edge">
<title>Node1&#45;&gt;Node9</title>
<g id="a_edge8_Node000001_Node000009"><a xlink:title=" ">
<path fill="none" stroke="#63b8ff" d="M380.78,-90.75C398.28,-74.38 423.97,-52.69 450,-39 456.36,-35.66 463.25,-32.71 470.24,-30.14"/>
<polygon fill="#63b8ff" stroke="#63b8ff" points="378.16,-88.41 373.35,-97.84 383,-93.47 378.16,-88.41"/>
</a>
</g>
</g>
<!-- Node2 -->
<g id="Node000002" class="node">
<title>Node2</title>
<g id="a_Node000002"><a xlink:href="../../d2/d29/structxii_string_base.htm" target="_top" xlink:title=" ">
<polygon fill="white" stroke="#666666" points="265,-128 128,-128 128,-98 265,-98 265,-128"/>
<text text-anchor="start" x="136" y="-116" font-family="Helvetica,sans-Serif" font-size="10.00">xiiStringBase&lt; xiiHybrid</text>
<text text-anchor="middle" x="196.5" y="-105" font-family="Helvetica,sans-Serif" font-size="10.00">StringBase&lt; Size &gt; &gt;</text>
</a>
</g>
</g>
<!-- Node2&#45;&gt;Node1 -->
<g id="edge1_Node000001_Node000002" class="edge">
<title>Node2&#45;&gt;Node1</title>
<g id="a_edge1_Node000001_Node000002"><a xlink:title=" ">
<path fill="none" stroke="#63b8ff" d="M275.42,-113C283.99,-113 292.59,-113 300.82,-113"/>
<polygon fill="#63b8ff" stroke="#63b8ff" points="275.39,-109.5 265.39,-113 275.39,-116.5 275.39,-109.5"/>
</a>
</g>
</g>
<!-- Node3 -->
<g id="Node000003" class="node">
<title>Node3</title>
<g id="a_Node000003"><a xlink:href="../../d5/d12/structxii_this_is_a_string.htm" target="_top" xlink:title="Base class which marks a class as containing string data.">
<polygon fill="white" stroke="#666666" points="92,-122.5 0,-122.5 0,-103.5 92,-103.5 92,-122.5"/>
<text text-anchor="middle" x="46" y="-110.5" font-family="Helvetica,sans-Serif" font-size="10.00">xiiThisIsAString</text>
</a>
</g>
</g>
<!-- Node3&#45;&gt;Node2 -->
<g id="edge2_Node000002_Node000003" class="edge">
<title>Node3&#45;&gt;Node2</title>
<g id="a_edge2_Node000002_Node000003"><a xlink:title=" ">
<path fill="none" stroke="#63b8ff" d="M102.63,-113C110.91,-113 119.51,-113 128,-113"/>
<polygon fill="#63b8ff" stroke="#63b8ff" points="102.36,-109.5 92.36,-113 102.36,-116.5 102.36,-109.5"/>
</a>
</g>
</g>
</g>
</svg>

<g id="navigator" transform="translate(0 0)" fill="#404254">
  <rect fill="#f2f5e9" fill-opacity="0.5" stroke="#606060" stroke-width=".5" x="0" y="0" width="60" height="60"/>
  <use id="zoomplus" xlink:href="#zoomPlus" x="17" y="9" onmousedown="handleZoom(evt,'in')"/>
  <use id="zoomminus" xlink:href="#zoomMin" x="42" y="9" onmousedown="handleZoom(evt,'out')"/>
  <use id="reset" xlink:href="#resetDef" x="30" y="36" onmousedown="handleReset()"/>
   <use id="arrowup" xlink:href="#arrowUp" x="0" y="0" onmousedown="handlePan(0,-1)"/>
  <use id="arrowright" xlink:href="#arrowRight" x="0" y="0" onmousedown="handlePan(1,0)"/>
  <use id="arrowdown" xlink:href="#arrowDown" x="0" y="0" onmousedown="handlePan(0,1)"/>
  <use id="arrowleft" xlink:href="#arrowLeft" x="0" y="0" onmousedown="handlePan(-1,0)"/>
</g>
<svg viewBox="0 0 15 15" width="100%" height="30px" preserveAspectRatio="xMaxYMin meet">
 <g id="arrow_out" transform="scale(0.3 0.3)">
  <a xlink:href="structxii_hybrid_string_base__inherit__graph_org.svg" target="_base">
   <rect id="button" ry="5" rx="5" y="6" x="6" height="38" width="38"
        fill="#f2f5e9" fill-opacity="0.5" stroke="#606060" stroke-width="1.0"/>
   <path id="arrow"
     d="M 11.500037,31.436501 C 11.940474,20.09759 22.043105,11.32322 32.158766,21.979434 L 37.068811,17.246167 C 37.068811,17.246167 37.088388,32 37.088388,32 L 22.160133,31.978069 C 22.160133,31.978069 26.997745,27.140456 26.997745,27.140456 C 18.528582,18.264221 13.291696,25.230495 11.500037,31.436501 z"
     style="fill:#404040;"/>
  </a>
 </g>
</svg>

<style type='text/css'>
<![CDATA[
[data-mouse-over-selected='false'] { opacity: 0.7; }
[data-mouse-over-selected='true']  { opacity: 1.0; }
]]>
</style>
<script type="application/ecmascript"><![CDATA[
document.addEventListener('DOMContentLoaded', (event) => {
  highlightEdges();
  highlightAdjacentNodes();
});
]]></script>
</svg>
