<?xml version="1.0" encoding="UTF-8" standalone="no"?>
<!DOCTYPE svg PUBLIC "-//W3C//DTD SVG 1.1//EN"
 "http://www.w3.org/Graphics/SVG/1.1/DTD/svg11.dtd">
<!-- Generated by graphviz version 2.43.0 (0)
 -->
<!-- Title: xiiHybridStringBase&lt; Size &gt; Pages: 1 -->
<!--zoomable 214 -->
<svg id="main" version="1.1" xmlns="http://www.w3.org/2000/svg" xmlns:xlink="http://www.w3.org/1999/xlink" xml:space="preserve" onload="init(evt)">
<style type="text/css"><![CDATA[
.edge:hover path { stroke: red; }
.edge:hover polygon { stroke: red; fill: red; }
]]></style>
<script type="text/javascript"><![CDATA[
var edges = document.getElementsByTagName('g');
if (edges && edges.length) {
  for (var i=0;i<edges.length;i++) {
    if (edges[i].id.substr(0,4)=='edge') {
      edges[i].setAttribute('class','edge');
    }
  }
}
]]></script>
        <defs>
                <circle id="rim" cx="0" cy="0" r="7"/>
                <circle id="rim2" cx="0" cy="0" r="3.5"/>
                <g id="zoomPlus">
                        <use xlink:href="#rim" fill="#404040">
                                <set attributeName="fill" to="#808080" begin="zoomplus.mouseover" end="zoomplus.mouseout"/>
                        </use>
                        <path d="M-4,0h8M0,-4v8" fill="none" stroke="white" stroke-width="1.5" pointer-events="none"/>
                </g>
                <g id="zoomMin">
                        <use xlink:href="#rim" fill="#404040">
                                <set attributeName="fill" to="#808080" begin="zoomminus.mouseover" end="zoomminus.mouseout"/>
                        </use>
                        <path d="M-4,0h8" fill="none" stroke="white" stroke-width="1.5" pointer-events="none"/>
                </g>
                <g id="dirArrow">
                        <path fill="none" stroke="white" stroke-width="1.5" d="M0,-3.0v7 M-2.5,-0.5L0,-3.0L2.5,-0.5"/>
                </g>
               <g id="resetDef">
                       <use xlink:href="#rim2" fill="#404040">
                               <set attributeName="fill" to="#808080" begin="reset.mouseover" end="reset.mouseout"/>
                       </use>
               </g>
        </defs>

<script type="text/javascript">
var viewWidth = 622;
var viewHeight = 214;
var sectionId = 'dynsection-0';
</script>
<script xlink:href="../../svgpan.js"/>
<svg id="graph" class="graph">
<g id="viewport">
<title>xiiHybridStringBase&lt; Size &gt;</title>
<polygon fill="white" stroke="transparent" points="-4,4 -4,-210 618,-210 618,4 -4,4"/>
<!-- Node1 -->
<g id="node1" class="node">
<title>Node1</title>
<g id="a_node1"><a xlink:title="A string class for storing and passing around strings.">
<polygon fill="#bfbfbf" stroke="black" points="301,-93.5 301,-123.5 414,-123.5 414,-93.5 301,-93.5"/>
<text text-anchor="start" x="309" y="-111.5" font-family="Helvetica,sans-Serif" font-size="10.00">xiiHybridStringBase</text>
<text text-anchor="middle" x="357.5" y="-100.5" font-family="Helvetica,sans-Serif" font-size="10.00">&lt; Size &gt;</text>
</a>
</g>
</g>
<!-- Node4 -->
<g id="node4" class="node">
<title>Node4</title>
<g id="a_node4"><a xlink:href="../../df/dfb/structxii_hybrid_string.htm" target="_top" xlink:title=" ">
<polygon fill="white" stroke="black" points="454.5,-175.5 454.5,-205.5 609.5,-205.5 609.5,-175.5 454.5,-175.5"/>
<text text-anchor="start" x="462.5" y="-193.5" font-family="Helvetica,sans-Serif" font-size="10.00">xiiHybridString&lt; 32U,</text>
<text text-anchor="middle" x="532" y="-182.5" font-family="Helvetica,sans-Serif" font-size="10.00"> xiiStaticAllocatorWrapper &gt;</text>
</a>
</g>
</g>
<!-- Node1&#45;&gt;Node4 -->
<g id="edge3" class="edge">
<title>Node1&#45;&gt;Node4</title>
<path fill="none" stroke="midnightblue" d="M388.01,-129.61C405.43,-141.36 428.25,-155.57 450,-165.5 458.03,-169.17 466.75,-172.49 475.39,-175.42"/>
<polygon fill="midnightblue" stroke="midnightblue" points="389.66,-126.5 379.44,-123.73 385.7,-132.27 389.66,-126.5"/>
</g>
<!-- Node5 -->
<g id="node5" class="node">
<title>Node5</title>
<g id="a_node5"><a xlink:href="../../df/dfb/structxii_hybrid_string.htm" target="_top" xlink:title=" ">
<polygon fill="white" stroke="black" points="463.5,-137 463.5,-156 600.5,-156 600.5,-137 463.5,-137"/>
<text text-anchor="middle" x="532" y="-144" font-family="Helvetica,sans-Serif" font-size="10.00">xiiHybridString&lt; 128U &gt;</text>
</a>
</g>
</g>
<!-- Node1&#45;&gt;Node5 -->
<g id="edge4" class="edge">
<title>Node1&#45;&gt;Node5</title>
<path fill="none" stroke="midnightblue" d="M423.99,-122.93C445.27,-127.61 468.35,-132.7 487.61,-136.94"/>
<polygon fill="midnightblue" stroke="midnightblue" points="424.55,-119.47 414.03,-120.73 423.04,-126.3 424.55,-119.47"/>
</g>
<!-- Node6 -->
<g id="node6" class="node">
<title>Node6</title>
<g id="a_node6"><a xlink:href="../../df/dfb/structxii_hybrid_string.htm" target="_top" xlink:title=" ">
<polygon fill="white" stroke="black" points="466.5,-99 466.5,-118 597.5,-118 597.5,-99 466.5,-99"/>
<text text-anchor="middle" x="532" y="-106" font-family="Helvetica,sans-Serif" font-size="10.00">xiiHybridString&lt; 32U &gt;</text>
</a>
</g>
</g>
<!-- Node1&#45;&gt;Node6 -->
<g id="edge5" class="edge">
<title>Node1&#45;&gt;Node6</title>
<path fill="none" stroke="midnightblue" d="M424.37,-108.5C438.1,-108.5 452.57,-108.5 466.26,-108.5"/>
<polygon fill="midnightblue" stroke="midnightblue" points="424.03,-105 414.03,-108.5 424.03,-112 424.03,-105"/>
</g>
<!-- Node7 -->
<g id="node7" class="node">
<title>Node7</title>
<g id="a_node7"><a xlink:href="../../df/dfb/structxii_hybrid_string.htm" target="_top" xlink:title=" ">
<polygon fill="white" stroke="black" points="450,-49.5 450,-79.5 614,-79.5 614,-49.5 450,-49.5"/>
<text text-anchor="start" x="458" y="-67.5" font-family="Helvetica,sans-Serif" font-size="10.00">xiiHybridString&lt; 32,</text>
<text text-anchor="middle" x="532" y="-56.5" font-family="Helvetica,sans-Serif" font-size="10.00"> xiiDefaultAllocatorWrapper &gt;</text>
</a>
</g>
</g>
<!-- Node1&#45;&gt;Node7 -->
<g id="edge6" class="edge">
<title>Node1&#45;&gt;Node7</title>
<path fill="none" stroke="midnightblue" d="M423.75,-91.86C439.6,-87.81 456.46,-83.51 472,-79.55"/>
<polygon fill="midnightblue" stroke="midnightblue" points="422.85,-88.47 414.03,-94.34 424.58,-95.26 422.85,-88.47"/>
</g>
<!-- Node8 -->
<g id="node8" class="node">
<title>Node8</title>
<g id="a_node8"><a xlink:href="../../df/dfb/structxii_hybrid_string.htm" target="_top" xlink:title=" ">
<polygon fill="white" stroke="black" points="470,-0.5 470,-30.5 594,-30.5 594,-0.5 470,-0.5"/>
<text text-anchor="start" x="478" y="-18.5" font-family="Helvetica,sans-Serif" font-size="10.00">xiiHybridString&lt; Size,</text>
<text text-anchor="middle" x="532" y="-7.5" font-family="Helvetica,sans-Serif" font-size="10.00"> AllocatorWrapper &gt;</text>
</a>
</g>
</g>
<!-- Node1&#45;&gt;Node8 -->
<g id="edge7" class="edge">
<title>Node1&#45;&gt;Node8</title>
<path fill="none" stroke="midnightblue" d="M382.81,-86.31C400.38,-71.29 425.27,-51.97 450,-39.5 456.68,-36.13 463.91,-33.15 471.21,-30.54"/>
<polygon fill="midnightblue" stroke="midnightblue" points="380.04,-84.08 374.81,-93.29 384.65,-89.35 380.04,-84.08"/>
</g>
<!-- Node2 -->
<g id="node2" class="node">
<title>Node2</title>
<g id="a_node2"><a xlink:href="../../d2/d29/structxii_string_base.htm" target="_top" xlink:title=" ">
<polygon fill="white" stroke="black" points="128,-93.5 128,-123.5 265,-123.5 265,-93.5 128,-93.5"/>
<text text-anchor="start" x="136" y="-111.5" font-family="Helvetica,sans-Serif" font-size="10.00">xiiStringBase&lt; xiiHybrid</text>
<text text-anchor="middle" x="196.5" y="-100.5" font-family="Helvetica,sans-Serif" font-size="10.00">StringBase&lt; Size &gt; &gt;</text>
</a>
</g>
</g>
<!-- Node2&#45;&gt;Node1 -->
<g id="edge1" class="edge">
<title>Node2&#45;&gt;Node1</title>
<path fill="none" stroke="midnightblue" d="M275.42,-108.5C283.99,-108.5 292.59,-108.5 300.82,-108.5"/>
<polygon fill="midnightblue" stroke="midnightblue" points="275.39,-105 265.39,-108.5 275.39,-112 275.39,-105"/>
</g>
<!-- Node3 -->
<g id="node3" class="node">
<title>Node3</title>
<g id="a_node3"><a xlink:href="../../d5/d12/structxii_this_is_a_string.htm" target="_top" xlink:title="Base class which marks a class as containing string data.">
<polygon fill="white" stroke="black" points="0,-99 0,-118 92,-118 92,-99 0,-99"/>
<text text-anchor="middle" x="46" y="-106" font-family="Helvetica,sans-Serif" font-size="10.00">xiiThisIsAString</text>
</a>
</g>
</g>
<!-- Node3&#45;&gt;Node2 -->
<g id="edge2" class="edge">
<title>Node3&#45;&gt;Node2</title>
<path fill="none" stroke="midnightblue" d="M102.63,-108.5C110.91,-108.5 119.51,-108.5 128,-108.5"/>
<polygon fill="midnightblue" stroke="midnightblue" points="102.36,-105 92.36,-108.5 102.36,-112 102.36,-105"/>
</g>
</g>
</svg>
        <g id="navigator" transform="translate(0 0)" fill="#404254">
                <rect fill="#f2f5e9" fill-opacity="0.5" stroke="#606060" stroke-width=".5" x="0" y="0" width="60" height="60"/>
                <use id="zoomplus" xlink:href="#zoomPlus" x="17" y="9" onmousedown="handleZoom(evt,'in')"/>
                <use id="zoomminus" xlink:href="#zoomMin" x="42" y="9" onmousedown="handleZoom(evt,'out')"/>
                <use id="reset" xlink:href="#resetDef" x="30" y="36" onmousedown="handleReset()"/>
                <g id="arrowUp" xlink:href="#dirArrow" transform="translate(30 24)" onmousedown="handlePan(0,-1)">
                  <use xlink:href="#rim" fill="#404040">
                        <set attributeName="fill" to="#808080" begin="arrowUp.mouseover" end="arrowUp.mouseout"/>
                  </use>
                  <path fill="none" stroke="white" stroke-width="1.5" d="M0,-3.0v7 M-2.5,-0.5L0,-3.0L2.5,-0.5"/>
                </g>
                <g id="arrowRight" xlink:href="#dirArrow" transform="rotate(90) translate(36 -43)" onmousedown="handlePan(1,0)">
                  <use xlink:href="#rim" fill="#404040">
                        <set attributeName="fill" to="#808080" begin="arrowRight.mouseover" end="arrowRight.mouseout"/>
                  </use>
                  <path fill="none" stroke="white" stroke-width="1.5" d="M0,-3.0v7 M-2.5,-0.5L0,-3.0L2.5,-0.5"/>
                </g>
                <g id="arrowDown" xlink:href="#dirArrow" transform="rotate(180) translate(-30 -48)" onmousedown="handlePan(0,1)">
                  <use xlink:href="#rim" fill="#404040">
                        <set attributeName="fill" to="#808080" begin="arrowDown.mouseover" end="arrowDown.mouseout"/>
                  </use>
                  <path fill="none" stroke="white" stroke-width="1.5" d="M0,-3.0v7 M-2.5,-0.5L0,-3.0L2.5,-0.5"/>
                </g>
                <g id="arrowLeft" xlink:href="#dirArrow" transform="rotate(270) translate(-36 17)" onmousedown="handlePan(-1,0)">
                  <use xlink:href="#rim" fill="#404040">
                        <set attributeName="fill" to="#808080" begin="arrowLeft.mouseover" end="arrowLeft.mouseout"/>
                  </use>
                  <path fill="none" stroke="white" stroke-width="1.5" d="M0,-3.0v7 M-2.5,-0.5L0,-3.0L2.5,-0.5"/>
                </g>
        </g>
        <svg viewBox="0 0 15 15" width="100%" height="30px" preserveAspectRatio="xMaxYMin meet">
         <g id="arrow_out" transform="scale(0.3 0.3)">
          <a xlink:href="structxii_hybrid_string_base__inherit__graph_org.svg" target="_base">
           <rect id="button" ry="5" rx="5" y="6" x="6" height="38" width="38"
                fill="#f2f5e9" fill-opacity="0.5" stroke="#606060" stroke-width="1.0"/>
           <path id="arrow"
             d="M 11.500037,31.436501 C 11.940474,20.09759 22.043105,11.32322 32.158766,21.979434 L 37.068811,17.246167 C 37.068811,17.246167 37.088388,32 37.088388,32 L 22.160133,31.978069 C 22.160133,31.978069 26.997745,27.140456 26.997745,27.140456 C 18.528582,18.264221 13.291696,25.230495 11.500037,31.436501 z"
             style="fill:#404040;"/>
          </a>
         </g>
        </svg>
</svg>
