<?xml version="1.0" encoding="UTF-8" standalone="no"?>
<!DOCTYPE svg PUBLIC "-//W3C//DTD SVG 1.1//EN"
 "http://www.w3.org/Graphics/SVG/1.1/DTD/svg11.dtd">
<!-- Generated by graphviz version 2.43.0 (0)
 -->
<!-- Title: xiiRenderTargetActivatorComponent Pages: 1 -->
<svg width="145pt" height="263pt"
 viewBox="0.00 0.00 145.00 263.00" xmlns="http://www.w3.org/2000/svg" xmlns:xlink="http://www.w3.org/1999/xlink">
<g id="graph0" class="graph" transform="scale(1 1) rotate(0) translate(4 259)">
<title>xiiRenderTargetActivatorComponent</title>
<polygon fill="white" stroke="transparent" points="-4,4 -4,-259 141,-259 141,4 -4,4"/>
<!-- Node1 -->
<g id="node1" class="node">
<title>Node1</title>
<g id="a_node1"><a xlink:title=" ">
<polygon fill="#bfbfbf" stroke="black" points="0,-0.5 0,-30.5 137,-30.5 137,-0.5 0,-0.5"/>
<text text-anchor="start" x="8" y="-18.5" font-family="Helvetica,sans-Serif" font-size="10.00">xiiRenderTargetActivator</text>
<text text-anchor="middle" x="68.5" y="-7.5" font-family="Helvetica,sans-Serif" font-size="10.00">Component</text>
</a>
</g>
</g>
<!-- Node2 -->
<g id="node2" class="node">
<title>Node2</title>
<g id="a_node2"><a xlink:href="../../d2/d2b/classxii_render_component.htm" target="_top" xlink:title=" ">
<polygon fill="white" stroke="black" points="9,-67.5 9,-86.5 128,-86.5 128,-67.5 9,-67.5"/>
<text text-anchor="middle" x="68.5" y="-74.5" font-family="Helvetica,sans-Serif" font-size="10.00">xiiRenderComponent</text>
</a>
</g>
</g>
<!-- Node2&#45;&gt;Node1 -->
<g id="edge1" class="edge">
<title>Node2&#45;&gt;Node1</title>
<path fill="none" stroke="midnightblue" d="M68.5,-57.23C68.5,-48.59 68.5,-38.5 68.5,-30.52"/>
<polygon fill="midnightblue" stroke="midnightblue" points="65,-57.48 68.5,-67.48 72,-57.48 65,-57.48"/>
</g>
<!-- Node3 -->
<g id="node3" class="node">
<title>Node3</title>
<g id="a_node3"><a xlink:href="../../db/d60/classxii_component.htm" target="_top" xlink:title="Base class of all component types.">
<polygon fill="white" stroke="black" points="26,-123.5 26,-142.5 111,-142.5 111,-123.5 26,-123.5"/>
<text text-anchor="middle" x="68.5" y="-130.5" font-family="Helvetica,sans-Serif" font-size="10.00">xiiComponent</text>
</a>
</g>
</g>
<!-- Node3&#45;&gt;Node2 -->
<g id="edge2" class="edge">
<title>Node3&#45;&gt;Node2</title>
<path fill="none" stroke="midnightblue" d="M68.5,-112.8C68.5,-103.91 68.5,-93.78 68.5,-86.75"/>
<polygon fill="midnightblue" stroke="midnightblue" points="65,-113.08 68.5,-123.08 72,-113.08 65,-113.08"/>
</g>
<!-- Node4 -->
<g id="node4" class="node">
<title>Node4</title>
<g id="a_node4"><a xlink:href="../../dc/d71/classxii_reflected_class.htm" target="_top" xlink:title="All classes that should be dynamically reflectable, need to be derived from this base class.">
<polygon fill="white" stroke="black" points="18,-179.5 18,-198.5 119,-198.5 119,-179.5 18,-179.5"/>
<text text-anchor="middle" x="68.5" y="-186.5" font-family="Helvetica,sans-Serif" font-size="10.00">xiiReflectedClass</text>
</a>
</g>
</g>
<!-- Node4&#45;&gt;Node3 -->
<g id="edge3" class="edge">
<title>Node4&#45;&gt;Node3</title>
<path fill="none" stroke="midnightblue" d="M68.5,-168.8C68.5,-159.91 68.5,-149.78 68.5,-142.75"/>
<polygon fill="midnightblue" stroke="midnightblue" points="65,-169.08 68.5,-179.08 72,-169.08 65,-169.08"/>
</g>
<!-- Node5 -->
<g id="node5" class="node">
<title>Node5</title>
<g id="a_node5"><a xlink:href="../../d2/d38/classxii_no_base.htm" target="_top" xlink:title="Dummy type to pass to templates and macros that expect a base type for a class that has no base.">
<polygon fill="white" stroke="black" points="35.5,-235.5 35.5,-254.5 101.5,-254.5 101.5,-235.5 35.5,-235.5"/>
<text text-anchor="middle" x="68.5" y="-242.5" font-family="Helvetica,sans-Serif" font-size="10.00">xiiNoBase</text>
</a>
</g>
</g>
<!-- Node5&#45;&gt;Node4 -->
<g id="edge4" class="edge">
<title>Node5&#45;&gt;Node4</title>
<path fill="none" stroke="midnightblue" d="M68.5,-224.8C68.5,-215.91 68.5,-205.78 68.5,-198.75"/>
<polygon fill="midnightblue" stroke="midnightblue" points="65,-225.08 68.5,-235.08 72,-225.08 65,-225.08"/>
</g>
</g>
</svg>
