<?xml version="1.0" encoding="UTF-8" standalone="no"?>
<!DOCTYPE svg PUBLIC "-//W3C//DTD SVG 1.1//EN"
 "http://www.w3.org/Graphics/SVG/1.1/DTD/svg11.dtd">
<!-- Generated by graphviz version 2.43.0 (0)
 -->
<!-- Title: xiiTypedSetProperty&lt; const char * &gt; Pages: 1 -->
<svg width="134pt" height="148pt"
 viewBox="0.00 0.00 134.00 148.00" xmlns="http://www.w3.org/2000/svg" xmlns:xlink="http://www.w3.org/1999/xlink">
<g id="graph0" class="graph" transform="scale(1 1) rotate(0) translate(4 144)">
<title>xiiTypedSetProperty&lt; const char * &gt;</title>
<!-- Node1 -->
<g id="Node000001" class="node">
<title>Node1</title>
<g id="a_Node000001"><a xlink:title="Specialization of xiiTypedArrayProperty to retain the pointer in const char*.">
<polygon fill="#999999" stroke="#666666" points="120,-30 6,-30 6,0 120,0 120,-30"/>
<text text-anchor="start" x="14" y="-18" font-family="Helvetica,sans-Serif" font-size="10.00">xiiTypedSetProperty</text>
<text text-anchor="middle" x="63" y="-7" font-family="Helvetica,sans-Serif" font-size="10.00">&lt; const char * &gt;</text>
</a>
</g>
</g>
<!-- Node2 -->
<g id="Node000002" class="node">
<title>Node2</title>
<g id="a_Node000002"><a xlink:href="../../dd/d45/classxii_abstract_set_property.htm" target="_top" xlink:title="The base class for a property that represents a set of values.">
<polygon fill="white" stroke="#666666" points="126,-85 0,-85 0,-66 126,-66 126,-85"/>
<text text-anchor="middle" x="63" y="-73" font-family="Helvetica,sans-Serif" font-size="10.00">xiiAbstractSetProperty</text>
</a>
</g>
</g>
<!-- Node2&#45;&gt;Node1 -->
<g id="edge1_Node000001_Node000002" class="edge">
<title>Node2&#45;&gt;Node1</title>
<g id="a_edge1_Node000001_Node000002"><a xlink:title=" ">
<path fill="none" stroke="#63b8ff" d="M63,-55.65C63,-47.36 63,-37.78 63,-30.11"/>
<polygon fill="#63b8ff" stroke="#63b8ff" points="59.5,-55.87 63,-65.87 66.5,-55.87 59.5,-55.87"/>
</a>
</g>
</g>
<!-- Node3 -->
<g id="Node000003" class="node">
<title>Node3</title>
<g id="a_Node000003"><a xlink:href="../../da/d25/classxii_abstract_property.htm" target="_top" xlink:title="This is the base interface for all properties in the reflection system. It provides enough informatio...">
<polygon fill="white" stroke="#666666" points="118,-140 8,-140 8,-121 118,-121 118,-140"/>
<text text-anchor="middle" x="63" y="-128" font-family="Helvetica,sans-Serif" font-size="10.00">xiiAbstractProperty</text>
</a>
</g>
</g>
<!-- Node3&#45;&gt;Node2 -->
<g id="edge2_Node000002_Node000003" class="edge">
<title>Node3&#45;&gt;Node2</title>
<g id="a_edge2_Node000002_Node000003"><a xlink:title=" ">
<path fill="none" stroke="#63b8ff" d="M63,-110.66C63,-101.93 63,-91.99 63,-85.09"/>
<polygon fill="#63b8ff" stroke="#63b8ff" points="59.5,-110.75 63,-120.75 66.5,-110.75 59.5,-110.75"/>
</a>
</g>
</g>
</g>
</svg>
