<?xml version="1.0" encoding="UTF-8" standalone="no"?>
<!DOCTYPE svg PUBLIC "-//W3C//DTD SVG 1.1//EN"
 "http://www.w3.org/Graphics/SVG/1.1/DTD/svg11.dtd">
<!-- Generated by graphviz version 2.43.0 (0)
 -->
<!-- Title: xiiWindVolumeComponent Pages: 1 -->
<svg width="737pt" height="101pt"
 viewBox="0.00 0.00 737.00 101.00" xmlns="http://www.w3.org/2000/svg" xmlns:xlink="http://www.w3.org/1999/xlink">
<g id="graph0" class="graph" transform="scale(1 1) rotate(0) translate(4 97)">
<title>xiiWindVolumeComponent</title>
<!-- Node1 -->
<g id="Node000001" class="node">
<title>Node1</title>
<g id="a_Node000001"><a xlink:title=" ">
<polygon fill="#999999" stroke="#666666" points="506,-56 360,-56 360,-37 506,-37 506,-56"/>
<text text-anchor="middle" x="433" y="-44" font-family="Helvetica,sans-Serif" font-size="10.00">xiiWindVolumeComponent</text>
</a>
</g>
</g>
<!-- Node5 -->
<g id="Node000005" class="node">
<title>Node5</title>
<g id="a_Node000005"><a xlink:href="../../d0/dfe/classxii_wind_volume_cone_component.htm" target="_top" xlink:title=" ">
<polygon fill="white" stroke="#bfbfbf" points="721,-93 550,-93 550,-74 721,-74 721,-93"/>
<text text-anchor="middle" x="635.5" y="-81" font-family="Helvetica,sans-Serif" font-size="10.00">xiiWindVolumeConeComponent</text>
</a>
</g>
</g>
<!-- Node1&#45;&gt;Node5 -->
<g id="edge4_Node000001_Node000005" class="edge">
<title>Node1&#45;&gt;Node5</title>
<g id="a_edge4_Node000001_Node000005"><a xlink:title=" ">
<path fill="none" stroke="#63b8ff" d="M495.67,-57.88C523.54,-63.02 556.11,-69.03 582.69,-73.94"/>
<polygon fill="#63b8ff" stroke="#63b8ff" points="496.1,-54.4 485.63,-56.03 494.83,-61.29 496.1,-54.4"/>
</a>
</g>
</g>
<!-- Node6 -->
<g id="Node000006" class="node">
<title>Node6</title>
<g id="a_Node000006"><a xlink:href="../../d8/d02/classxii_wind_volume_cylinder_component.htm" target="_top" xlink:title=" ">
<polygon fill="white" stroke="#bfbfbf" points="729,-56 542,-56 542,-37 729,-37 729,-56"/>
<text text-anchor="middle" x="635.5" y="-44" font-family="Helvetica,sans-Serif" font-size="10.00">xiiWindVolumeCylinderComponent</text>
</a>
</g>
</g>
<!-- Node1&#45;&gt;Node6 -->
<g id="edge5_Node000001_Node000006" class="edge">
<title>Node1&#45;&gt;Node6</title>
<g id="a_edge5_Node000001_Node000006"><a xlink:title=" ">
<path fill="none" stroke="#63b8ff" d="M516.25,-46.5C524.65,-46.5 533.23,-46.5 541.74,-46.5"/>
<polygon fill="#63b8ff" stroke="#63b8ff" points="516.1,-43 506.1,-46.5 516.1,-50 516.1,-43"/>
</a>
</g>
</g>
<!-- Node7 -->
<g id="Node000007" class="node">
<title>Node7</title>
<g id="a_Node000007"><a xlink:href="../../dc/d69/classxii_wind_volume_sphere_component.htm" target="_top" xlink:title=" ">
<polygon fill="white" stroke="#bfbfbf" points="725.5,-19 545.5,-19 545.5,0 725.5,0 725.5,-19"/>
<text text-anchor="middle" x="635.5" y="-7" font-family="Helvetica,sans-Serif" font-size="10.00">xiiWindVolumeSphereComponent</text>
</a>
</g>
</g>
<!-- Node1&#45;&gt;Node7 -->
<g id="edge6_Node000001_Node000007" class="edge">
<title>Node1&#45;&gt;Node7</title>
<g id="a_edge6_Node000001_Node000007"><a xlink:title=" ">
<path fill="none" stroke="#63b8ff" d="M495.67,-35.12C523.54,-29.98 556.11,-23.97 582.69,-19.06"/>
<polygon fill="#63b8ff" stroke="#63b8ff" points="494.83,-31.71 485.63,-36.97 496.1,-38.6 494.83,-31.71"/>
</a>
</g>
</g>
<!-- Node2 -->
<g id="Node000002" class="node">
<title>Node2</title>
<g id="a_Node000002"><a xlink:href="../../db/d60/classxii_component.htm" target="_top" xlink:title="Base class of all component types.">
<polygon fill="white" stroke="#666666" points="324,-56 239,-56 239,-37 324,-37 324,-56"/>
<text text-anchor="middle" x="281.5" y="-44" font-family="Helvetica,sans-Serif" font-size="10.00">xiiComponent</text>
</a>
</g>
</g>
<!-- Node2&#45;&gt;Node1 -->
<g id="edge1_Node000001_Node000002" class="edge">
<title>Node2&#45;&gt;Node1</title>
<g id="a_edge1_Node000001_Node000002"><a xlink:title=" ">
<path fill="none" stroke="#63b8ff" d="M334.36,-46.5C342.63,-46.5 351.31,-46.5 359.94,-46.5"/>
<polygon fill="#63b8ff" stroke="#63b8ff" points="334.14,-43 324.14,-46.5 334.14,-50 334.14,-43"/>
</a>
</g>
</g>
<!-- Node3 -->
<g id="Node000003" class="node">
<title>Node3</title>
<g id="a_Node000003"><a xlink:href="../../dc/d71/classxii_reflected_class.htm" target="_top" xlink:title="All classes that should be dynamically reflectable, need to be derived from this base class.">
<polygon fill="white" stroke="#666666" points="203,-56 102,-56 102,-37 203,-37 203,-56"/>
<text text-anchor="middle" x="152.5" y="-44" font-family="Helvetica,sans-Serif" font-size="10.00">xiiReflectedClass</text>
</a>
</g>
</g>
<!-- Node3&#45;&gt;Node2 -->
<g id="edge2_Node000002_Node000003" class="edge">
<title>Node3&#45;&gt;Node2</title>
<g id="a_edge2_Node000002_Node000003"><a xlink:title=" ">
<path fill="none" stroke="#63b8ff" d="M213.57,-46.5C222.04,-46.5 230.59,-46.5 238.61,-46.5"/>
<polygon fill="#63b8ff" stroke="#63b8ff" points="213.33,-43 203.33,-46.5 213.33,-50 213.33,-43"/>
</a>
</g>
</g>
<!-- Node4 -->
<g id="Node000004" class="node">
<title>Node4</title>
<g id="a_Node000004"><a xlink:href="../../d2/d38/classxii_no_base.htm" target="_top" xlink:title="Dummy type to pass to templates and macros that expect a base type for a class that has no base.">
<polygon fill="white" stroke="#666666" points="66,-56 0,-56 0,-37 66,-37 66,-56"/>
<text text-anchor="middle" x="33" y="-44" font-family="Helvetica,sans-Serif" font-size="10.00">xiiNoBase</text>
</a>
</g>
</g>
<!-- Node4&#45;&gt;Node3 -->
<g id="edge3_Node000003_Node000004" class="edge">
<title>Node4&#45;&gt;Node3</title>
<g id="a_edge3_Node000003_Node000004"><a xlink:title=" ">
<path fill="none" stroke="#63b8ff" d="M76.27,-46.5C84.54,-46.5 93.29,-46.5 101.78,-46.5"/>
<polygon fill="#63b8ff" stroke="#63b8ff" points="76.11,-43 66.11,-46.5 76.11,-50 76.11,-43"/>
</a>
</g>
</g>
</g>
</svg>
