<?xml version="1.0" encoding="UTF-8" standalone="no"?>
<!DOCTYPE svg PUBLIC "-//W3C//DTD SVG 1.1//EN"
 "http://www.w3.org/Graphics/SVG/1.1/DTD/svg11.dtd">
<!-- Generated by graphviz version 2.43.0 (0)
 -->
<!-- Title: xiiWindVolumeComponent Pages: 1 -->
<!--zoomable 101 -->

<svg id="main" version="1.1" xmlns="http://www.w3.org/2000/svg" xmlns:xlink="http://www.w3.org/1999/xlink" xml:space="preserve" onload="init(evt)">
<style type="text/css"><![CDATA[
.node, .edge {opacity: 0.7;}
.node.selected, .edge.selected {opacity: 1;}
.edge:hover path { stroke: red; }
.edge:hover polygon { stroke: red; fill: red; }
]]></style>

<defs>
  <circle id="rim" cx="0" cy="0" r="7"/>
  <circle id="rim2" cx="0" cy="0" r="3.5"/>
  <g id="zoomPlus">
    <use xlink:href="#rim" fill="#404040"><set attributeName="fill" to="#808080" begin="zoomplus.mouseover" end="zoomplus.mouseout"/></use>
    <path d="M-4,0h8M0,-4v8" fill="none" stroke="white" stroke-width="1.5" pointer-events="none"/>
  </g>
  <g id="zoomMin">
    <use xlink:href="#rim" fill="#404040"><set attributeName="fill" to="#808080" begin="zoomminus.mouseover" end="zoomminus.mouseout"/></use>
    <path d="M-4,0h8" fill="none" stroke="white" stroke-width="1.5" pointer-events="none"/>
  </g>
  <g id="arrowUp" transform="translate(30 24)">
    <use xlink:href="#rim"/>
    <path pointer-events="none" fill="none" stroke="white" stroke-width="1.5" d="M0,-3.0v7 M-2.5,-0.5L0,-3.0L2.5,-0.5"/>
  </g>
  <g id="arrowRight" transform="rotate(90) translate(36 -43)">
    <use xlink:href="#rim"/>
    <path pointer-events="none" fill="none" stroke="white" stroke-width="1.5" d="M0,-3.0v7 M-2.5,-0.5L0,-3.0L2.5,-0.5"/>
  </g>
  <g id="arrowDown" transform="rotate(180) translate(-30 -48)">
    <use xlink:href="#rim"/>
    <path pointer-events="none" fill="none" stroke="white" stroke-width="1.5" d="M0,-3.0v7 M-2.5,-0.5L0,-3.0L2.5,-0.5"/>
  </g>
  <g id="arrowLeft" transform="rotate(270) translate(-36 17)">
    <use xlink:href="#rim"/>
    <path pointer-events="none" fill="none" stroke="white" stroke-width="1.5" d="M0,-3.0v7 M-2.5,-0.5L0,-3.0L2.5,-0.5"/>
  </g>
  <g id="resetDef">
    <use xlink:href="#rim2" fill="#404040"><set attributeName="fill" to="#808080" begin="reset.mouseover" end="reset.mouseout"/></use>
  </g>
</defs>
<script type="application/ecmascript">
var viewWidth = 737;
var viewHeight = 101;
var sectionId = 'dynsection-0';
</script>
<script type="application/ecmascript" xlink:href="../../svg.min.js"/>
<svg id="graph" class="graph">
<g id="viewport">
<title>xiiWindVolumeComponent</title>
<!-- Node1 -->
<g id="Node000001" class="node">
<title>Node1</title>
<g id="a_Node000001"><a xlink:title=" ">
<polygon fill="#999999" stroke="#666666" points="506,-56 360,-56 360,-37 506,-37 506,-56"/>
<text text-anchor="middle" x="433" y="-44" font-family="Helvetica,sans-Serif" font-size="10.00">xiiWindVolumeComponent</text>
</a>
</g>
</g>
<!-- Node5 -->
<g id="Node000005" class="node">
<title>Node5</title>
<g id="a_Node000005"><a xlink:href="../../d0/dfe/classxii_wind_volume_cone_component.htm" target="_top" xlink:title=" ">
<polygon fill="white" stroke="#bfbfbf" points="721,-93 550,-93 550,-74 721,-74 721,-93"/>
<text text-anchor="middle" x="635.5" y="-81" font-family="Helvetica,sans-Serif" font-size="10.00">xiiWindVolumeConeComponent</text>
</a>
</g>
</g>
<!-- Node1&#45;&gt;Node5 -->
<g id="edge4_Node000001_Node000005" class="edge">
<title>Node1&#45;&gt;Node5</title>
<g id="a_edge4_Node000001_Node000005"><a xlink:title=" ">
<path fill="none" stroke="#63b8ff" d="M495.67,-57.88C523.54,-63.02 556.11,-69.03 582.69,-73.94"/>
<polygon fill="#63b8ff" stroke="#63b8ff" points="496.1,-54.4 485.63,-56.03 494.83,-61.29 496.1,-54.4"/>
</a>
</g>
</g>
<!-- Node6 -->
<g id="Node000006" class="node">
<title>Node6</title>
<g id="a_Node000006"><a xlink:href="../../d8/d02/classxii_wind_volume_cylinder_component.htm" target="_top" xlink:title=" ">
<polygon fill="white" stroke="#bfbfbf" points="729,-56 542,-56 542,-37 729,-37 729,-56"/>
<text text-anchor="middle" x="635.5" y="-44" font-family="Helvetica,sans-Serif" font-size="10.00">xiiWindVolumeCylinderComponent</text>
</a>
</g>
</g>
<!-- Node1&#45;&gt;Node6 -->
<g id="edge5_Node000001_Node000006" class="edge">
<title>Node1&#45;&gt;Node6</title>
<g id="a_edge5_Node000001_Node000006"><a xlink:title=" ">
<path fill="none" stroke="#63b8ff" d="M516.25,-46.5C524.65,-46.5 533.23,-46.5 541.74,-46.5"/>
<polygon fill="#63b8ff" stroke="#63b8ff" points="516.1,-43 506.1,-46.5 516.1,-50 516.1,-43"/>
</a>
</g>
</g>
<!-- Node7 -->
<g id="Node000007" class="node">
<title>Node7</title>
<g id="a_Node000007"><a xlink:href="../../dc/d69/classxii_wind_volume_sphere_component.htm" target="_top" xlink:title=" ">
<polygon fill="white" stroke="#bfbfbf" points="725.5,-19 545.5,-19 545.5,0 725.5,0 725.5,-19"/>
<text text-anchor="middle" x="635.5" y="-7" font-family="Helvetica,sans-Serif" font-size="10.00">xiiWindVolumeSphereComponent</text>
</a>
</g>
</g>
<!-- Node1&#45;&gt;Node7 -->
<g id="edge6_Node000001_Node000007" class="edge">
<title>Node1&#45;&gt;Node7</title>
<g id="a_edge6_Node000001_Node000007"><a xlink:title=" ">
<path fill="none" stroke="#63b8ff" d="M495.67,-35.12C523.54,-29.98 556.11,-23.97 582.69,-19.06"/>
<polygon fill="#63b8ff" stroke="#63b8ff" points="494.83,-31.71 485.63,-36.97 496.1,-38.6 494.83,-31.71"/>
</a>
</g>
</g>
<!-- Node2 -->
<g id="Node000002" class="node">
<title>Node2</title>
<g id="a_Node000002"><a xlink:href="../../db/d60/classxii_component.htm" target="_top" xlink:title="Base class of all component types.">
<polygon fill="white" stroke="#666666" points="324,-56 239,-56 239,-37 324,-37 324,-56"/>
<text text-anchor="middle" x="281.5" y="-44" font-family="Helvetica,sans-Serif" font-size="10.00">xiiComponent</text>
</a>
</g>
</g>
<!-- Node2&#45;&gt;Node1 -->
<g id="edge1_Node000001_Node000002" class="edge">
<title>Node2&#45;&gt;Node1</title>
<g id="a_edge1_Node000001_Node000002"><a xlink:title=" ">
<path fill="none" stroke="#63b8ff" d="M334.36,-46.5C342.63,-46.5 351.31,-46.5 359.94,-46.5"/>
<polygon fill="#63b8ff" stroke="#63b8ff" points="334.14,-43 324.14,-46.5 334.14,-50 334.14,-43"/>
</a>
</g>
</g>
<!-- Node3 -->
<g id="Node000003" class="node">
<title>Node3</title>
<g id="a_Node000003"><a xlink:href="../../dc/d71/classxii_reflected_class.htm" target="_top" xlink:title="All classes that should be dynamically reflectable, need to be derived from this base class.">
<polygon fill="white" stroke="#666666" points="203,-56 102,-56 102,-37 203,-37 203,-56"/>
<text text-anchor="middle" x="152.5" y="-44" font-family="Helvetica,sans-Serif" font-size="10.00">xiiReflectedClass</text>
</a>
</g>
</g>
<!-- Node3&#45;&gt;Node2 -->
<g id="edge2_Node000002_Node000003" class="edge">
<title>Node3&#45;&gt;Node2</title>
<g id="a_edge2_Node000002_Node000003"><a xlink:title=" ">
<path fill="none" stroke="#63b8ff" d="M213.57,-46.5C222.04,-46.5 230.59,-46.5 238.61,-46.5"/>
<polygon fill="#63b8ff" stroke="#63b8ff" points="213.33,-43 203.33,-46.5 213.33,-50 213.33,-43"/>
</a>
</g>
</g>
<!-- Node4 -->
<g id="Node000004" class="node">
<title>Node4</title>
<g id="a_Node000004"><a xlink:href="../../d2/d38/classxii_no_base.htm" target="_top" xlink:title="Dummy type to pass to templates and macros that expect a base type for a class that has no base.">
<polygon fill="white" stroke="#666666" points="66,-56 0,-56 0,-37 66,-37 66,-56"/>
<text text-anchor="middle" x="33" y="-44" font-family="Helvetica,sans-Serif" font-size="10.00">xiiNoBase</text>
</a>
</g>
</g>
<!-- Node4&#45;&gt;Node3 -->
<g id="edge3_Node000003_Node000004" class="edge">
<title>Node4&#45;&gt;Node3</title>
<g id="a_edge3_Node000003_Node000004"><a xlink:title=" ">
<path fill="none" stroke="#63b8ff" d="M76.27,-46.5C84.54,-46.5 93.29,-46.5 101.78,-46.5"/>
<polygon fill="#63b8ff" stroke="#63b8ff" points="76.11,-43 66.11,-46.5 76.11,-50 76.11,-43"/>
</a>
</g>
</g>
</g>
</svg>

<g id="navigator" transform="translate(0 0)" fill="#404254">
  <rect fill="#f2f5e9" fill-opacity="0.5" stroke="#606060" stroke-width=".5" x="0" y="0" width="60" height="60"/>
  <use id="zoomplus" xlink:href="#zoomPlus" x="17" y="9" onmousedown="handleZoom(evt,'in')"/>
  <use id="zoomminus" xlink:href="#zoomMin" x="42" y="9" onmousedown="handleZoom(evt,'out')"/>
  <use id="reset" xlink:href="#resetDef" x="30" y="36" onmousedown="handleReset()"/>
   <use id="arrowup" xlink:href="#arrowUp" x="0" y="0" onmousedown="handlePan(0,-1)"/>
  <use id="arrowright" xlink:href="#arrowRight" x="0" y="0" onmousedown="handlePan(1,0)"/>
  <use id="arrowdown" xlink:href="#arrowDown" x="0" y="0" onmousedown="handlePan(0,1)"/>
  <use id="arrowleft" xlink:href="#arrowLeft" x="0" y="0" onmousedown="handlePan(-1,0)"/>
</g>
<svg viewBox="0 0 15 15" width="100%" height="30px" preserveAspectRatio="xMaxYMin meet">
 <g id="arrow_out" transform="scale(0.3 0.3)">
  <a xlink:href="classxii_wind_volume_component__inherit__graph_org.svg" target="_base">
   <rect id="button" ry="5" rx="5" y="6" x="6" height="38" width="38"
        fill="#f2f5e9" fill-opacity="0.5" stroke="#606060" stroke-width="1.0"/>
   <path id="arrow"
     d="M 11.500037,31.436501 C 11.940474,20.09759 22.043105,11.32322 32.158766,21.979434 L 37.068811,17.246167 C 37.068811,17.246167 37.088388,32 37.088388,32 L 22.160133,31.978069 C 22.160133,31.978069 26.997745,27.140456 26.997745,27.140456 C 18.528582,18.264221 13.291696,25.230495 11.500037,31.436501 z"
     style="fill:#404040;"/>
  </a>
 </g>
</svg>

<style type='text/css'>
<![CDATA[
[data-mouse-over-selected='false'] { opacity: 0.7; }
[data-mouse-over-selected='true']  { opacity: 1.0; }
]]>
</style>
<script type="application/ecmascript"><![CDATA[
document.addEventListener('DOMContentLoaded', (event) => {
  highlightEdges();
  highlightAdjacentNodes();
});
]]></script>
</svg>
