<?xml version="1.0" encoding="UTF-8" standalone="no"?>
<!DOCTYPE svg PUBLIC "-//W3C//DTD SVG 1.1//EN"
 "http://www.w3.org/Graphics/SVG/1.1/DTD/svg11.dtd">
<!-- Generated by graphviz version 2.43.0 (0)
 -->
<!-- Title: xiiQtGameObjectAdapter Pages: 1 -->
<svg width="187pt" height="247pt"
 viewBox="0.00 0.00 187.00 247.00" xmlns="http://www.w3.org/2000/svg" xmlns:xlink="http://www.w3.org/1999/xlink">
<g id="graph0" class="graph" transform="scale(1 1) rotate(0) translate(4 243)">
<title>xiiQtGameObjectAdapter</title>
<!-- Node1 -->
<g id="Node000001" class="node">
<title>Node1</title>
<g id="a_Node000001"><a xlink:title=" ">
<polygon fill="#999999" stroke="#666666" points="159,-19 20,-19 20,0 159,0 159,-19"/>
<text text-anchor="middle" x="89.5" y="-7" font-family="Helvetica,sans-Serif" font-size="10.00">xiiQtGameObjectAdapter</text>
</a>
</g>
</g>
<!-- Node2 -->
<g id="Node000002" class="node">
<title>Node2</title>
<g id="a_Node000002"><a xlink:href="../../de/d29/classxii_qt_nameable_adapter.htm" target="_top" xlink:title="Convenience class that implements setting the name via a property on the object.">
<polygon fill="white" stroke="#666666" points="153.5,-74 25.5,-74 25.5,-55 153.5,-55 153.5,-74"/>
<text text-anchor="middle" x="89.5" y="-62" font-family="Helvetica,sans-Serif" font-size="10.00">xiiQtNameableAdapter</text>
</a>
</g>
</g>
<!-- Node2&#45;&gt;Node1 -->
<g id="edge1_Node000001_Node000002" class="edge">
<title>Node2&#45;&gt;Node1</title>
<g id="a_edge1_Node000001_Node000002"><a xlink:title=" ">
<path fill="none" stroke="#63b8ff" d="M89.5,-44.66C89.5,-35.93 89.5,-25.99 89.5,-19.09"/>
<polygon fill="#63b8ff" stroke="#63b8ff" points="86,-44.75 89.5,-54.75 93,-44.75 86,-44.75"/>
</a>
</g>
</g>
<!-- Node3 -->
<g id="Node000003" class="node">
<title>Node3</title>
<g id="a_Node000003"><a xlink:href="../../d2/d9c/classxii_qt_named_adapter.htm" target="_top" xlink:title="Convenience class that implements getting the name via a property on the object.">
<polygon fill="white" stroke="#666666" points="146,-129 33,-129 33,-110 146,-110 146,-129"/>
<text text-anchor="middle" x="89.5" y="-117" font-family="Helvetica,sans-Serif" font-size="10.00">xiiQtNamedAdapter</text>
</a>
</g>
</g>
<!-- Node3&#45;&gt;Node2 -->
<g id="edge2_Node000002_Node000003" class="edge">
<title>Node3&#45;&gt;Node2</title>
<g id="a_edge2_Node000002_Node000003"><a xlink:title=" ">
<path fill="none" stroke="#63b8ff" d="M89.5,-99.66C89.5,-90.93 89.5,-80.99 89.5,-74.09"/>
<polygon fill="#63b8ff" stroke="#63b8ff" points="86,-99.75 89.5,-109.75 93,-99.75 86,-99.75"/>
</a>
</g>
</g>
<!-- Node4 -->
<g id="Node000004" class="node">
<title>Node4</title>
<g id="a_Node000004"><a xlink:href="../../d5/d1b/classxii_qt_document_tree_model_adapter.htm" target="_top" xlink:title="Adapter that defines data for specific type in the xiiQtDocumentTreeModel.">
<polygon fill="white" stroke="#666666" points="179,-184 0,-184 0,-165 179,-165 179,-184"/>
<text text-anchor="middle" x="89.5" y="-172" font-family="Helvetica,sans-Serif" font-size="10.00">xiiQtDocumentTreeModelAdapter</text>
</a>
</g>
</g>
<!-- Node4&#45;&gt;Node3 -->
<g id="edge3_Node000003_Node000004" class="edge">
<title>Node4&#45;&gt;Node3</title>
<g id="a_edge3_Node000003_Node000004"><a xlink:title=" ">
<path fill="none" stroke="#63b8ff" d="M89.5,-154.66C89.5,-145.93 89.5,-135.99 89.5,-129.09"/>
<polygon fill="#63b8ff" stroke="#63b8ff" points="86,-154.75 89.5,-164.75 93,-154.75 86,-154.75"/>
</a>
</g>
</g>
<!-- Node5 -->
<g id="Node000005" class="node">
<title>Node5</title>
<g id="a_Node000005"><a xlink:title=" ">
<polygon fill="white" stroke="#bfbfbf" points="117.5,-239 61.5,-239 61.5,-220 117.5,-220 117.5,-239"/>
<text text-anchor="middle" x="89.5" y="-227" font-family="Helvetica,sans-Serif" font-size="10.00">QObject</text>
</a>
</g>
</g>
<!-- Node5&#45;&gt;Node4 -->
<g id="edge4_Node000004_Node000005" class="edge">
<title>Node5&#45;&gt;Node4</title>
<g id="a_edge4_Node000004_Node000005"><a xlink:title=" ">
<path fill="none" stroke="#63b8ff" d="M89.5,-209.66C89.5,-200.93 89.5,-190.99 89.5,-184.09"/>
<polygon fill="#63b8ff" stroke="#63b8ff" points="86,-209.75 89.5,-219.75 93,-209.75 86,-209.75"/>
</a>
</g>
</g>
</g>
</svg>
