<?xml version="1.0" encoding="UTF-8" standalone="no"?>
<!DOCTYPE svg PUBLIC "-//W3C//DTD SVG 1.1//EN"
 "http://www.w3.org/Graphics/SVG/1.1/DTD/svg11.dtd">
<!-- Generated by graphviz version 2.43.0 (0)
 -->
<!-- Title: xiiComponentDragDropHandler Pages: 1 -->
<!--zoomable 284 -->
<svg id="main" version="1.1" xmlns="http://www.w3.org/2000/svg" xmlns:xlink="http://www.w3.org/1999/xlink" xml:space="preserve" onload="init(evt)">
<style type="text/css"><![CDATA[
.edge:hover path { stroke: red; }
.edge:hover polygon { stroke: red; fill: red; }
]]></style>
<script type="text/javascript"><![CDATA[
var edges = document.getElementsByTagName('g');
if (edges && edges.length) {
  for (var i=0;i<edges.length;i++) {
    if (edges[i].id.substr(0,4)=='edge') {
      edges[i].setAttribute('class','edge');
    }
  }
}
]]></script>
        <defs>
                <circle id="rim" cx="0" cy="0" r="7"/>
                <circle id="rim2" cx="0" cy="0" r="3.5"/>
                <g id="zoomPlus">
                        <use xlink:href="#rim" fill="#404040">
                                <set attributeName="fill" to="#808080" begin="zoomplus.mouseover" end="zoomplus.mouseout"/>
                        </use>
                        <path d="M-4,0h8M0,-4v8" fill="none" stroke="white" stroke-width="1.5" pointer-events="none"/>
                </g>
                <g id="zoomMin">
                        <use xlink:href="#rim" fill="#404040">
                                <set attributeName="fill" to="#808080" begin="zoomminus.mouseover" end="zoomminus.mouseout"/>
                        </use>
                        <path d="M-4,0h8" fill="none" stroke="white" stroke-width="1.5" pointer-events="none"/>
                </g>
                <g id="dirArrow">
                        <path fill="none" stroke="white" stroke-width="1.5" d="M0,-3.0v7 M-2.5,-0.5L0,-3.0L2.5,-0.5"/>
                </g>
               <g id="resetDef">
                       <use xlink:href="#rim2" fill="#404040">
                               <set attributeName="fill" to="#808080" begin="reset.mouseover" end="reset.mouseout"/>
                       </use>
               </g>
        </defs>

<script type="text/javascript">
var viewWidth = 941;
var viewHeight = 284;
var sectionId = 'dynsection-0';
</script>
<script xlink:href="../../svgpan.js"/>
<svg id="graph" class="graph">
<g id="viewport">
<title>xiiComponentDragDropHandler</title>
<polygon fill="white" stroke="transparent" points="-4,4 -4,-280 937,-280 937,4 -4,4"/>
<!-- Node1 -->
<g id="node1" class="node">
<title>Node1</title>
<g id="a_node1"><a xlink:title=" ">
<polygon fill="#bfbfbf" stroke="black" points="564,-128 564,-147 734,-147 734,-128 564,-128"/>
<text text-anchor="middle" x="649" y="-135" font-family="Helvetica,sans-Serif" font-size="10.00">xiiComponentDragDropHandler</text>
</a>
</g>
</g>
<!-- Node6 -->
<g id="node6" class="node">
<title>Node6</title>
<g id="a_node6"><a xlink:href="../../de/d38/classxii_animated_mesh_component_drag_drop_handler.htm" target="_top" xlink:title=" ">
<polygon fill="white" stroke="black" points="772.5,-245.5 772.5,-275.5 930.5,-275.5 930.5,-245.5 772.5,-245.5"/>
<text text-anchor="start" x="780.5" y="-263.5" font-family="Helvetica,sans-Serif" font-size="10.00">xiiAnimatedMeshComponent</text>
<text text-anchor="middle" x="851.5" y="-252.5" font-family="Helvetica,sans-Serif" font-size="10.00">DragDropHandler</text>
</a>
</g>
</g>
<!-- Node1&#45;&gt;Node6 -->
<g id="edge5" class="edge">
<title>Node1&#45;&gt;Node6</title>
<path fill="none" stroke="midnightblue" d="M666.07,-154.45C687.73,-176.36 728.4,-214.32 770,-236.5 776.31,-239.86 783.15,-242.82 790.09,-245.39"/>
<polygon fill="midnightblue" stroke="midnightblue" points="668.47,-151.89 658.99,-147.16 663.45,-156.77 668.47,-151.89"/>
</g>
<!-- Node7 -->
<g id="node7" class="node">
<title>Node7</title>
<g id="a_node7"><a xlink:href="../../d6/d3b/classxii_decal_component_drag_drop_handler.htm" target="_top" xlink:title=" ">
<polygon fill="white" stroke="black" points="772,-196.5 772,-226.5 931,-226.5 931,-196.5 772,-196.5"/>
<text text-anchor="start" x="780" y="-214.5" font-family="Helvetica,sans-Serif" font-size="10.00">xiiDecalComponentDragDrop</text>
<text text-anchor="middle" x="851.5" y="-203.5" font-family="Helvetica,sans-Serif" font-size="10.00">Handler</text>
</a>
</g>
</g>
<!-- Node1&#45;&gt;Node7 -->
<g id="edge6" class="edge">
<title>Node1&#45;&gt;Node7</title>
<path fill="none" stroke="midnightblue" d="M680.28,-151.16C704.34,-161.75 738.98,-176.45 770,-187.5 778.65,-190.58 787.92,-193.6 796.98,-196.4"/>
<polygon fill="midnightblue" stroke="midnightblue" points="681.54,-147.89 670.98,-147.03 678.7,-154.29 681.54,-147.89"/>
</g>
<!-- Node8 -->
<g id="node8" class="node">
<title>Node8</title>
<g id="a_node8"><a xlink:href="../../df/da5/classxii_mesh_component_drag_drop_handler.htm" target="_top" xlink:title=" ">
<polygon fill="white" stroke="black" points="772.5,-147.5 772.5,-177.5 930.5,-177.5 930.5,-147.5 772.5,-147.5"/>
<text text-anchor="start" x="780.5" y="-165.5" font-family="Helvetica,sans-Serif" font-size="10.00">xiiMeshComponentDragDrop</text>
<text text-anchor="middle" x="851.5" y="-154.5" font-family="Helvetica,sans-Serif" font-size="10.00">Handler</text>
</a>
</g>
</g>
<!-- Node1&#45;&gt;Node8 -->
<g id="edge7" class="edge">
<title>Node1&#45;&gt;Node8</title>
<path fill="none" stroke="midnightblue" d="M736.34,-148.27C748.31,-149.76 760.54,-151.28 772.34,-152.75"/>
<polygon fill="midnightblue" stroke="midnightblue" points="736.73,-144.79 726.37,-147.02 735.86,-151.73 736.73,-144.79"/>
</g>
<!-- Node9 -->
<g id="node9" class="node">
<title>Node9</title>
<g id="a_node9"><a xlink:href="../../d5/d4b/classxii_prefab_component_drag_drop_handler.htm" target="_top" xlink:title=" ">
<polygon fill="white" stroke="black" points="770,-98.5 770,-128.5 933,-128.5 933,-98.5 770,-98.5"/>
<text text-anchor="start" x="778" y="-116.5" font-family="Helvetica,sans-Serif" font-size="10.00">xiiPrefabComponentDragDrop</text>
<text text-anchor="middle" x="851.5" y="-105.5" font-family="Helvetica,sans-Serif" font-size="10.00">Handler</text>
</a>
</g>
</g>
<!-- Node1&#45;&gt;Node9 -->
<g id="edge8" class="edge">
<title>Node1&#45;&gt;Node9</title>
<path fill="none" stroke="midnightblue" d="M739.53,-126.78C749.6,-125.58 759.81,-124.36 769.75,-123.17"/>
<polygon fill="midnightblue" stroke="midnightblue" points="739.04,-123.32 729.53,-127.98 739.88,-130.27 739.04,-123.32"/>
</g>
<!-- Node10 -->
<g id="node10" class="node">
<title>Node10</title>
<g id="a_node10"><a xlink:href="../../d0/d1a/classxii_skeleton_component_drag_drop_handler.htm" target="_top" xlink:title=" ">
<polygon fill="white" stroke="black" points="776.5,-49.5 776.5,-79.5 926.5,-79.5 926.5,-49.5 776.5,-49.5"/>
<text text-anchor="start" x="784.5" y="-67.5" font-family="Helvetica,sans-Serif" font-size="10.00">xiiSkeletonComponentDrag</text>
<text text-anchor="middle" x="851.5" y="-56.5" font-family="Helvetica,sans-Serif" font-size="10.00">DropHandler</text>
</a>
</g>
</g>
<!-- Node1&#45;&gt;Node10 -->
<g id="edge9" class="edge">
<title>Node1&#45;&gt;Node10</title>
<path fill="none" stroke="midnightblue" d="M681.19,-123.78C705.22,-113.45 739.41,-99.28 770,-88.5 778.8,-85.4 788.24,-82.35 797.43,-79.52"/>
<polygon fill="midnightblue" stroke="midnightblue" points="679.66,-120.63 671.87,-127.81 682.44,-127.06 679.66,-120.63"/>
</g>
<!-- Node11 -->
<g id="node11" class="node">
<title>Node11</title>
<g id="a_node11"><a xlink:href="../../de/d9d/classxii_visual_script_component_drag_drop_handler.htm" target="_top" xlink:title=" ">
<polygon fill="white" stroke="black" points="780,-0.5 780,-30.5 923,-30.5 923,-0.5 780,-0.5"/>
<text text-anchor="start" x="788" y="-18.5" font-family="Helvetica,sans-Serif" font-size="10.00">xiiVisualScriptComponent</text>
<text text-anchor="middle" x="851.5" y="-7.5" font-family="Helvetica,sans-Serif" font-size="10.00">DragDropHandler</text>
</a>
</g>
</g>
<!-- Node1&#45;&gt;Node11 -->
<g id="edge10" class="edge">
<title>Node1&#45;&gt;Node11</title>
<path fill="none" stroke="midnightblue" d="M666.11,-120.73C687.81,-99.05 728.51,-61.49 770,-39.5 776.31,-36.15 783.16,-33.21 790.1,-30.64"/>
<polygon fill="midnightblue" stroke="midnightblue" points="663.53,-118.36 659.01,-127.94 668.52,-123.27 663.53,-118.36"/>
</g>
<!-- Node2 -->
<g id="node2" class="node">
<title>Node2</title>
<g id="a_node2"><a xlink:href="../../d1/d9a/classxii_asset_drag_drop_handler.htm" target="_top" xlink:title=" ">
<polygon fill="white" stroke="black" points="388,-128 388,-147 528,-147 528,-128 388,-128"/>
<text text-anchor="middle" x="458" y="-135" font-family="Helvetica,sans-Serif" font-size="10.00">xiiAssetDragDropHandler</text>
</a>
</g>
</g>
<!-- Node2&#45;&gt;Node1 -->
<g id="edge1" class="edge">
<title>Node2&#45;&gt;Node1</title>
<path fill="none" stroke="midnightblue" d="M538.21,-137.5C546.64,-137.5 555.24,-137.5 563.72,-137.5"/>
<polygon fill="midnightblue" stroke="midnightblue" points="538.04,-134 528.04,-137.5 538.04,-141 538.04,-134"/>
</g>
<!-- Node3 -->
<g id="node3" class="node">
<title>Node3</title>
<g id="a_node3"><a xlink:href="../../db/d24/classxii_drag_drop_handler.htm" target="_top" xlink:title=" ">
<polygon fill="white" stroke="black" points="239,-128 239,-147 352,-147 352,-128 239,-128"/>
<text text-anchor="middle" x="295.5" y="-135" font-family="Helvetica,sans-Serif" font-size="10.00">xiiDragDropHandler</text>
</a>
</g>
</g>
<!-- Node3&#45;&gt;Node2 -->
<g id="edge2" class="edge">
<title>Node3&#45;&gt;Node2</title>
<path fill="none" stroke="midnightblue" d="M362.32,-137.5C370.73,-137.5 379.37,-137.5 387.84,-137.5"/>
<polygon fill="midnightblue" stroke="midnightblue" points="362.18,-134 352.18,-137.5 362.18,-141 362.18,-134"/>
</g>
<!-- Node4 -->
<g id="node4" class="node">
<title>Node4</title>
<g id="a_node4"><a xlink:href="../../dc/d71/classxii_reflected_class.htm" target="_top" xlink:title="All classes that should be dynamically reflectable, need to be derived from this base class.">
<polygon fill="white" stroke="black" points="102,-128 102,-147 203,-147 203,-128 102,-128"/>
<text text-anchor="middle" x="152.5" y="-135" font-family="Helvetica,sans-Serif" font-size="10.00">xiiReflectedClass</text>
</a>
</g>
</g>
<!-- Node4&#45;&gt;Node3 -->
<g id="edge3" class="edge">
<title>Node4&#45;&gt;Node3</title>
<path fill="none" stroke="midnightblue" d="M213.42,-137.5C221.91,-137.5 230.6,-137.5 238.99,-137.5"/>
<polygon fill="midnightblue" stroke="midnightblue" points="213.21,-134 203.21,-137.5 213.21,-141 213.21,-134"/>
</g>
<!-- Node5 -->
<g id="node5" class="node">
<title>Node5</title>
<g id="a_node5"><a xlink:href="../../d2/d38/classxii_no_base.htm" target="_top" xlink:title="Dummy type to pass to templates and macros that expect a base type for a class that has no base.">
<polygon fill="white" stroke="black" points="0,-128 0,-147 66,-147 66,-128 0,-128"/>
<text text-anchor="middle" x="33" y="-135" font-family="Helvetica,sans-Serif" font-size="10.00">xiiNoBase</text>
</a>
</g>
</g>
<!-- Node5&#45;&gt;Node4 -->
<g id="edge4" class="edge">
<title>Node5&#45;&gt;Node4</title>
<path fill="none" stroke="midnightblue" d="M76.27,-137.5C84.54,-137.5 93.29,-137.5 101.78,-137.5"/>
<polygon fill="midnightblue" stroke="midnightblue" points="76.11,-134 66.11,-137.5 76.11,-141 76.11,-134"/>
</g>
</g>
</svg>
        <g id="navigator" transform="translate(0 0)" fill="#404254">
                <rect fill="#f2f5e9" fill-opacity="0.5" stroke="#606060" stroke-width=".5" x="0" y="0" width="60" height="60"/>
                <use id="zoomplus" xlink:href="#zoomPlus" x="17" y="9" onmousedown="handleZoom(evt,'in')"/>
                <use id="zoomminus" xlink:href="#zoomMin" x="42" y="9" onmousedown="handleZoom(evt,'out')"/>
                <use id="reset" xlink:href="#resetDef" x="30" y="36" onmousedown="handleReset()"/>
                <g id="arrowUp" xlink:href="#dirArrow" transform="translate(30 24)" onmousedown="handlePan(0,-1)">
                  <use xlink:href="#rim" fill="#404040">
                        <set attributeName="fill" to="#808080" begin="arrowUp.mouseover" end="arrowUp.mouseout"/>
                  </use>
                  <path fill="none" stroke="white" stroke-width="1.5" d="M0,-3.0v7 M-2.5,-0.5L0,-3.0L2.5,-0.5"/>
                </g>
                <g id="arrowRight" xlink:href="#dirArrow" transform="rotate(90) translate(36 -43)" onmousedown="handlePan(1,0)">
                  <use xlink:href="#rim" fill="#404040">
                        <set attributeName="fill" to="#808080" begin="arrowRight.mouseover" end="arrowRight.mouseout"/>
                  </use>
                  <path fill="none" stroke="white" stroke-width="1.5" d="M0,-3.0v7 M-2.5,-0.5L0,-3.0L2.5,-0.5"/>
                </g>
                <g id="arrowDown" xlink:href="#dirArrow" transform="rotate(180) translate(-30 -48)" onmousedown="handlePan(0,1)">
                  <use xlink:href="#rim" fill="#404040">
                        <set attributeName="fill" to="#808080" begin="arrowDown.mouseover" end="arrowDown.mouseout"/>
                  </use>
                  <path fill="none" stroke="white" stroke-width="1.5" d="M0,-3.0v7 M-2.5,-0.5L0,-3.0L2.5,-0.5"/>
                </g>
                <g id="arrowLeft" xlink:href="#dirArrow" transform="rotate(270) translate(-36 17)" onmousedown="handlePan(-1,0)">
                  <use xlink:href="#rim" fill="#404040">
                        <set attributeName="fill" to="#808080" begin="arrowLeft.mouseover" end="arrowLeft.mouseout"/>
                  </use>
                  <path fill="none" stroke="white" stroke-width="1.5" d="M0,-3.0v7 M-2.5,-0.5L0,-3.0L2.5,-0.5"/>
                </g>
        </g>
        <svg viewBox="0 0 15 15" width="100%" height="30px" preserveAspectRatio="xMaxYMin meet">
         <g id="arrow_out" transform="scale(0.3 0.3)">
          <a xlink:href="classxii_component_drag_drop_handler__inherit__graph_org.svg" target="_base">
           <rect id="button" ry="5" rx="5" y="6" x="6" height="38" width="38"
                fill="#f2f5e9" fill-opacity="0.5" stroke="#606060" stroke-width="1.0"/>
           <path id="arrow"
             d="M 11.500037,31.436501 C 11.940474,20.09759 22.043105,11.32322 32.158766,21.979434 L 37.068811,17.246167 C 37.068811,17.246167 37.088388,32 37.088388,32 L 22.160133,31.978069 C 22.160133,31.978069 26.997745,27.140456 26.997745,27.140456 C 18.528582,18.264221 13.291696,25.230495 11.500037,31.436501 z"
             style="fill:#404040;"/>
          </a>
         </g>
        </svg>
</svg>
