<?xml version="1.0" encoding="UTF-8" standalone="no"?>
<!DOCTYPE svg PUBLIC "-//W3C//DTD SVG 1.1//EN"
 "http://www.w3.org/Graphics/SVG/1.1/DTD/svg11.dtd">
<!-- Generated by graphviz version 2.43.0 (0)
 -->
<!-- Title: xiiQtExposedParameterPropertyWidget Pages: 1 -->
<svg width="181pt" height="263pt"
 viewBox="0.00 0.00 181.00 263.00" xmlns="http://www.w3.org/2000/svg" xmlns:xlink="http://www.w3.org/1999/xlink">
<g id="graph0" class="graph" transform="scale(1 1) rotate(0) translate(4 259)">
<title>xiiQtExposedParameterPropertyWidget</title>
<polygon fill="white" stroke="transparent" points="-4,4 -4,-259 177,-259 177,4 -4,4"/>
<!-- Node1 -->
<g id="node1" class="node">
<title>Node1</title>
<g id="a_node1"><a xlink:title=" ">
<polygon fill="#bfbfbf" stroke="black" points="0,-0.5 0,-30.5 173,-30.5 173,-0.5 0,-0.5"/>
<text text-anchor="start" x="8" y="-18.5" font-family="Helvetica,sans-Serif" font-size="10.00">xiiQtExposedParameterProperty</text>
<text text-anchor="middle" x="86.5" y="-7.5" font-family="Helvetica,sans-Serif" font-size="10.00">Widget</text>
</a>
</g>
</g>
<!-- Node2 -->
<g id="node2" class="node">
<title>Node2</title>
<g id="a_node2"><a xlink:href="../../df/d7e/classxii_qt_variant_property_widget.htm" target="_top" xlink:title=" ">
<polygon fill="white" stroke="black" points="11.5,-67.5 11.5,-86.5 161.5,-86.5 161.5,-67.5 11.5,-67.5"/>
<text text-anchor="middle" x="86.5" y="-74.5" font-family="Helvetica,sans-Serif" font-size="10.00">xiiQtVariantPropertyWidget</text>
</a>
</g>
</g>
<!-- Node2&#45;&gt;Node1 -->
<g id="edge1" class="edge">
<title>Node2&#45;&gt;Node1</title>
<path fill="none" stroke="midnightblue" d="M86.5,-57.23C86.5,-48.59 86.5,-38.5 86.5,-30.52"/>
<polygon fill="midnightblue" stroke="midnightblue" points="83,-57.48 86.5,-67.48 90,-57.48 83,-57.48"/>
</g>
<!-- Node3 -->
<g id="node3" class="node">
<title>Node3</title>
<g id="a_node3"><a xlink:href="../../d5/db2/classxii_qt_standard_property_widget.htm" target="_top" xlink:title="Base class for most &#39;simple&#39; property type widgets. Implements some of the standard functionality.">
<polygon fill="white" stroke="black" points="7,-123.5 7,-142.5 166,-142.5 166,-123.5 7,-123.5"/>
<text text-anchor="middle" x="86.5" y="-130.5" font-family="Helvetica,sans-Serif" font-size="10.00">xiiQtStandardPropertyWidget</text>
</a>
</g>
</g>
<!-- Node3&#45;&gt;Node2 -->
<g id="edge2" class="edge">
<title>Node3&#45;&gt;Node2</title>
<path fill="none" stroke="midnightblue" d="M86.5,-112.8C86.5,-103.91 86.5,-93.78 86.5,-86.75"/>
<polygon fill="midnightblue" stroke="midnightblue" points="83,-113.08 86.5,-123.08 90,-113.08 83,-113.08"/>
</g>
<!-- Node4 -->
<g id="node4" class="node">
<title>Node4</title>
<g id="a_node4"><a xlink:href="../../d9/d80/classxii_qt_property_widget.htm" target="_top" xlink:title="Base class for all property widgets.">
<polygon fill="white" stroke="black" points="28.5,-179.5 28.5,-198.5 144.5,-198.5 144.5,-179.5 28.5,-179.5"/>
<text text-anchor="middle" x="86.5" y="-186.5" font-family="Helvetica,sans-Serif" font-size="10.00">xiiQtPropertyWidget</text>
</a>
</g>
</g>
<!-- Node4&#45;&gt;Node3 -->
<g id="edge3" class="edge">
<title>Node4&#45;&gt;Node3</title>
<path fill="none" stroke="midnightblue" d="M86.5,-168.8C86.5,-159.91 86.5,-149.78 86.5,-142.75"/>
<polygon fill="midnightblue" stroke="midnightblue" points="83,-169.08 86.5,-179.08 90,-169.08 83,-169.08"/>
</g>
<!-- Node5 -->
<g id="node5" class="node">
<title>Node5</title>
<g id="a_node5"><a xlink:title=" ">
<polygon fill="white" stroke="#bfbfbf" points="57,-235.5 57,-254.5 116,-254.5 116,-235.5 57,-235.5"/>
<text text-anchor="middle" x="86.5" y="-242.5" font-family="Helvetica,sans-Serif" font-size="10.00">QWidget</text>
</a>
</g>
</g>
<!-- Node5&#45;&gt;Node4 -->
<g id="edge4" class="edge">
<title>Node5&#45;&gt;Node4</title>
<path fill="none" stroke="midnightblue" d="M86.5,-224.8C86.5,-215.91 86.5,-205.78 86.5,-198.75"/>
<polygon fill="midnightblue" stroke="midnightblue" points="83,-225.08 86.5,-235.08 90,-225.08 83,-225.08"/>
</g>
</g>
</svg>
