<?xml version="1.0" encoding="UTF-8" standalone="no"?>
<!DOCTYPE svg PUBLIC "-//W3C//DTD SVG 1.1//EN"
 "http://www.w3.org/Graphics/SVG/1.1/DTD/svg11.dtd">
<!-- Generated by graphviz version 2.43.0 (0)
 -->
<!-- Title: xiiAnimGraphNode Pages: 1 -->
<!--zoomable 1099 -->

<svg id="main" version="1.1" xmlns="http://www.w3.org/2000/svg" xmlns:xlink="http://www.w3.org/1999/xlink" xml:space="preserve" onload="init(evt)">
<style type="text/css"><![CDATA[
.node, .edge {opacity: 0.7;}
.node.selected, .edge.selected {opacity: 1;}
.edge:hover path { stroke: red; }
.edge:hover polygon { stroke: red; fill: red; }
]]></style>

<defs>
  <circle id="rim" cx="0" cy="0" r="7"/>
  <circle id="rim2" cx="0" cy="0" r="3.5"/>
  <g id="zoomPlus">
    <use xlink:href="#rim" fill="#404040"><set attributeName="fill" to="#808080" begin="zoomplus.mouseover" end="zoomplus.mouseout"/></use>
    <path d="M-4,0h8M0,-4v8" fill="none" stroke="white" stroke-width="1.5" pointer-events="none"/>
  </g>
  <g id="zoomMin">
    <use xlink:href="#rim" fill="#404040"><set attributeName="fill" to="#808080" begin="zoomminus.mouseover" end="zoomminus.mouseout"/></use>
    <path d="M-4,0h8" fill="none" stroke="white" stroke-width="1.5" pointer-events="none"/>
  </g>
  <g id="arrowUp" transform="translate(30 24)">
    <use xlink:href="#rim"/>
    <path pointer-events="none" fill="none" stroke="white" stroke-width="1.5" d="M0,-3.0v7 M-2.5,-0.5L0,-3.0L2.5,-0.5"/>
  </g>
  <g id="arrowRight" transform="rotate(90) translate(36 -43)">
    <use xlink:href="#rim"/>
    <path pointer-events="none" fill="none" stroke="white" stroke-width="1.5" d="M0,-3.0v7 M-2.5,-0.5L0,-3.0L2.5,-0.5"/>
  </g>
  <g id="arrowDown" transform="rotate(180) translate(-30 -48)">
    <use xlink:href="#rim"/>
    <path pointer-events="none" fill="none" stroke="white" stroke-width="1.5" d="M0,-3.0v7 M-2.5,-0.5L0,-3.0L2.5,-0.5"/>
  </g>
  <g id="arrowLeft" transform="rotate(270) translate(-36 17)">
    <use xlink:href="#rim"/>
    <path pointer-events="none" fill="none" stroke="white" stroke-width="1.5" d="M0,-3.0v7 M-2.5,-0.5L0,-3.0L2.5,-0.5"/>
  </g>
  <g id="resetDef">
    <use xlink:href="#rim2" fill="#404040"><set attributeName="fill" to="#808080" begin="reset.mouseover" end="reset.mouseout"/></use>
  </g>
</defs>
<script type="application/ecmascript">
var viewWidth = 739;
var viewHeight = 1099;
var sectionId = 'dynsection-0';
</script>
<script type="application/ecmascript" xlink:href="../../svg.min.js"/>
<svg id="graph" class="graph">
<g id="viewport">
<title>xiiAnimGraphNode</title>
<!-- Node1 -->
<g id="Node000001" class="node">
<title>Node1</title>
<g id="a_Node000001"><a xlink:title="Base class for all nodes in an xiiAnimGraphInstance.">
<polygon fill="#999999" stroke="#666666" points="348,-561 239,-561 239,-542 348,-542 348,-561"/>
<text text-anchor="middle" x="293.5" y="-549" font-family="Helvetica,sans-Serif" font-size="10.00">xiiAnimGraphNode</text>
</a>
</g>
</g>
<!-- Node4 -->
<g id="Node000004" class="node">
<title>Node4</title>
<g id="a_Node000004"><a xlink:href="../../d0/de3/classxii_bone_weights_anim_node.htm" target="_top" xlink:title=" ">
<polygon fill="white" stroke="#bfbfbf" points="551,-1091 408,-1091 408,-1072 551,-1072 551,-1091"/>
<text text-anchor="middle" x="479.5" y="-1079" font-family="Helvetica,sans-Serif" font-size="10.00">xiiBoneWeightsAnimNode</text>
</a>
</g>
</g>
<!-- Node1&#45;&gt;Node4 -->
<g id="edge3_Node000001_Node000004" class="edge">
<title>Node1&#45;&gt;Node4</title>
<g id="a_edge3_Node000001_Node000004"><a xlink:title=" ">
<path fill="none" stroke="#63b8ff" d="M295.09,-571.48C298.04,-656.93 313.96,-990.68 384,-1062.5 390.54,-1069.21 398.75,-1073.89 407.57,-1077.11"/>
<polygon fill="#63b8ff" stroke="#63b8ff" points="298.59,-571.2 294.76,-561.31 291.59,-571.42 298.59,-571.2"/>
</a>
</g>
</g>
<!-- Node5 -->
<g id="Node000005" class="node">
<title>Node5</title>
<g id="a_Node000005"><a xlink:href="../../da/d16/classxii_bool_to_number_anim_node.htm" target="_top" xlink:title=" ">
<polygon fill="white" stroke="#bfbfbf" points="555,-1054 404,-1054 404,-1035 555,-1035 555,-1054"/>
<text text-anchor="middle" x="479.5" y="-1042" font-family="Helvetica,sans-Serif" font-size="10.00">xiiBoolToNumberAnimNode</text>
</a>
</g>
</g>
<!-- Node1&#45;&gt;Node5 -->
<g id="edge4_Node000001_Node000005" class="edge">
<title>Node1&#45;&gt;Node5</title>
<g id="a_edge4_Node000001_Node000005"><a xlink:title=" ">
<path fill="none" stroke="#63b8ff" d="M295.41,-571.83C299.49,-653.91 318.92,-959.64 384,-1025.5 389.65,-1031.21 396.5,-1035.45 403.9,-1038.57"/>
<polygon fill="#63b8ff" stroke="#63b8ff" points="298.88,-571.22 294.91,-561.4 291.89,-571.55 298.88,-571.22"/>
</a>
</g>
</g>
<!-- Node6 -->
<g id="Node000006" class="node">
<title>Node6</title>
<g id="a_Node000006"><a xlink:href="../../dd/d80/classxii_check_blackboard_bool_anim_node.htm" target="_top" xlink:title=" ">
<polygon fill="white" stroke="#bfbfbf" points="572.5,-1017 386.5,-1017 386.5,-998 572.5,-998 572.5,-1017"/>
<text text-anchor="middle" x="479.5" y="-1005" font-family="Helvetica,sans-Serif" font-size="10.00">xiiCheckBlackboardBoolAnimNode</text>
</a>
</g>
</g>
<!-- Node1&#45;&gt;Node6 -->
<g id="edge5_Node000001_Node000006" class="edge">
<title>Node1&#45;&gt;Node6</title>
<g id="a_edge5_Node000001_Node000006"><a xlink:title=" ">
<path fill="none" stroke="#63b8ff" d="M295.72,-571.22C300.89,-648.35 323.6,-928.32 384,-988.5 387.79,-992.28 392.12,-995.41 396.77,-998"/>
<polygon fill="#63b8ff" stroke="#63b8ff" points="299.2,-570.76 295.06,-561 292.21,-571.21 299.2,-570.76"/>
</a>
</g>
</g>
<!-- Node7 -->
<g id="Node000007" class="node">
<title>Node7</title>
<g id="a_Node000007"><a xlink:href="../../dd/d18/classxii_compare_blackboard_number_anim_node.htm" target="_top" xlink:title=" ">
<polygon fill="white" stroke="#bfbfbf" points="563,-979.5 396,-979.5 396,-949.5 563,-949.5 563,-979.5"/>
<text text-anchor="start" x="404" y="-967.5" font-family="Helvetica,sans-Serif" font-size="10.00">xiiCompareBlackboardNumber</text>
<text text-anchor="middle" x="479.5" y="-956.5" font-family="Helvetica,sans-Serif" font-size="10.00">AnimNode</text>
</a>
</g>
</g>
<!-- Node1&#45;&gt;Node7 -->
<g id="edge6_Node000001_Node000007" class="edge">
<title>Node1&#45;&gt;Node7</title>
<g id="a_edge6_Node000001_Node000007"><a xlink:title=" ">
<path fill="none" stroke="#63b8ff" d="M296.43,-571.62C303.69,-643.41 331.72,-885.52 384,-939.5 387.66,-943.28 391.82,-946.51 396.3,-949.27"/>
<polygon fill="#63b8ff" stroke="#63b8ff" points="299.87,-570.89 295.4,-561.28 292.9,-571.58 299.87,-570.89"/>
</a>
</g>
</g>
<!-- Node8 -->
<g id="Node000008" class="node">
<title>Node8</title>
<g id="a_Node000008"><a xlink:href="../../d7/d38/classxii_compare_number_anim_node.htm" target="_top" xlink:title=" ">
<polygon fill="white" stroke="#bfbfbf" points="561,-931 398,-931 398,-912 561,-912 561,-931"/>
<text text-anchor="middle" x="479.5" y="-919" font-family="Helvetica,sans-Serif" font-size="10.00">xiiCompareNumberAnimNode</text>
</a>
</g>
</g>
<!-- Node1&#45;&gt;Node8 -->
<g id="edge7_Node000001_Node000008" class="edge">
<title>Node1&#45;&gt;Node8</title>
<g id="a_edge7_Node000001_Node000008"><a xlink:title=" ">
<path fill="none" stroke="#63b8ff" d="M296.77,-571.1C304.9,-637.99 334.76,-855.72 384,-902.5 388.13,-906.42 392.82,-909.63 397.86,-912.26"/>
<polygon fill="#63b8ff" stroke="#63b8ff" points="300.23,-570.58 295.57,-561.07 293.28,-571.41 300.23,-570.58"/>
</a>
</g>
</g>
<!-- Node9 -->
<g id="Node000009" class="node">
<title>Node9</title>
<g id="a_Node000009"><a xlink:href="../../d0/d40/classxii_controller_input_anim_node.htm" target="_top" xlink:title=" ">
<polygon fill="white" stroke="#bfbfbf" points="555.5,-894 403.5,-894 403.5,-875 555.5,-875 555.5,-894"/>
<text text-anchor="middle" x="479.5" y="-882" font-family="Helvetica,sans-Serif" font-size="10.00">xiiControllerInputAnimNode</text>
</a>
</g>
</g>
<!-- Node1&#45;&gt;Node9 -->
<g id="edge8_Node000001_Node000009" class="edge">
<title>Node1&#45;&gt;Node9</title>
<g id="a_edge8_Node000001_Node000009"><a xlink:title=" ">
<path fill="none" stroke="#63b8ff" d="M297.44,-571.43C307.07,-633.96 339.61,-824.49 384,-865.5 389.65,-870.72 396.33,-874.68 403.47,-877.66"/>
<polygon fill="#63b8ff" stroke="#63b8ff" points="300.87,-570.68 295.91,-561.31 293.95,-571.72 300.87,-570.68"/>
</a>
</g>
</g>
<!-- Node10 -->
<g id="Node000010" class="node">
<title>Node10</title>
<g id="a_Node000010"><a xlink:href="../../dc/de6/classxii_get_blackboard_bool_anim_node.htm" target="_top" xlink:title=" ">
<polygon fill="white" stroke="#bfbfbf" points="566,-857 393,-857 393,-838 566,-838 566,-857"/>
<text text-anchor="middle" x="479.5" y="-845" font-family="Helvetica,sans-Serif" font-size="10.00">xiiGetBlackboardBoolAnimNode</text>
</a>
</g>
</g>
<!-- Node1&#45;&gt;Node10 -->
<g id="edge9_Node000001_Node000010" class="edge">
<title>Node1&#45;&gt;Node10</title>
<g id="a_edge9_Node000001_Node000010"><a xlink:title=" ">
<path fill="none" stroke="#63b8ff" d="M294.52,-571.2C295.71,-622.17 306.33,-759.23 384,-828.5 388.25,-832.29 393.03,-835.4 398.14,-837.96"/>
<polygon fill="#63b8ff" stroke="#63b8ff" points="298.02,-571.13 294.39,-561.18 291.02,-571.22 298.02,-571.13"/>
</a>
</g>
</g>
<!-- Node11 -->
<g id="Node000011" class="node">
<title>Node11</title>
<g id="a_Node000011"><a xlink:href="../../d8/da0/classxii_get_blackboard_number_anim_node.htm" target="_top" xlink:title=" ">
<polygon fill="white" stroke="#bfbfbf" points="575,-820 384,-820 384,-801 575,-801 575,-820"/>
<text text-anchor="middle" x="479.5" y="-808" font-family="Helvetica,sans-Serif" font-size="10.00">xiiGetBlackboardNumberAnimNode</text>
</a>
</g>
</g>
<!-- Node1&#45;&gt;Node11 -->
<g id="edge10_Node000001_Node000011" class="edge">
<title>Node1&#45;&gt;Node11</title>
<g id="a_edge10_Node000001_Node000011"><a xlink:title=" ">
<path fill="none" stroke="#63b8ff" d="M295.65,-571.33C299.46,-617.61 315.69,-733.24 384,-791.5 388.46,-795.3 393.46,-798.42 398.78,-800.97"/>
<polygon fill="#63b8ff" stroke="#63b8ff" points="299.13,-570.86 294.92,-561.13 292.14,-571.35 299.13,-570.86"/>
</a>
</g>
</g>
<!-- Node12 -->
<g id="Node000012" class="node">
<title>Node12</title>
<g id="a_Node000012"><a xlink:href="../../d8/d58/classxii_lerp_poses_anim_node.htm" target="_top" xlink:title=" ">
<polygon fill="white" stroke="#bfbfbf" points="544,-783 415,-783 415,-764 544,-764 544,-783"/>
<text text-anchor="middle" x="479.5" y="-771" font-family="Helvetica,sans-Serif" font-size="10.00">xiiLerpPosesAnimNode</text>
</a>
</g>
</g>
<!-- Node1&#45;&gt;Node12 -->
<g id="edge11_Node000001_Node000012" class="edge">
<title>Node1&#45;&gt;Node12</title>
<g id="a_edge11_Node000001_Node000012"><a xlink:title=" ">
<path fill="none" stroke="#63b8ff" d="M297.1,-571.03C303.64,-611.96 324.72,-706.86 384,-754.5 392.87,-761.63 403.7,-766.31 414.81,-769.34"/>
<polygon fill="#63b8ff" stroke="#63b8ff" points="300.54,-570.38 295.62,-561 293.62,-571.41 300.54,-570.38"/>
</a>
</g>
</g>
<!-- Node13 -->
<g id="Node000013" class="node">
<title>Node13</title>
<g id="a_Node000013"><a xlink:href="../../dd/d1c/classxii_log_anim_node.htm" target="_top" xlink:title=" ">
<polygon fill="white" stroke="#bfbfbf" points="528,-746 431,-746 431,-727 528,-727 528,-746"/>
<text text-anchor="middle" x="479.5" y="-734" font-family="Helvetica,sans-Serif" font-size="10.00">xiiLogAnimNode</text>
</a>
</g>
</g>
<!-- Node1&#45;&gt;Node13 -->
<g id="edge12_Node000001_Node000013" class="edge">
<title>Node1&#45;&gt;Node13</title>
<g id="a_edge12_Node000001_Node000013"><a xlink:title=" ">
<path fill="none" stroke="#63b8ff" d="M299.25,-571.31C308.82,-606.67 333.9,-680.4 384,-717.5 397.45,-727.46 414.81,-732.54 430.98,-735.03"/>
<polygon fill="#63b8ff" stroke="#63b8ff" points="302.55,-570.09 296.68,-561.27 295.77,-571.83 302.55,-570.09"/>
</a>
</g>
</g>
<!-- Node16 -->
<g id="Node000016" class="node">
<title>Node16</title>
<g id="a_Node000016"><a xlink:href="../../dd/d69/classxii_logic_and_anim_node.htm" target="_top" xlink:title=" ">
<polygon fill="white" stroke="#bfbfbf" points="541.5,-709 417.5,-709 417.5,-690 541.5,-690 541.5,-709"/>
<text text-anchor="middle" x="479.5" y="-697" font-family="Helvetica,sans-Serif" font-size="10.00">xiiLogicAndAnimNode</text>
</a>
</g>
</g>
<!-- Node1&#45;&gt;Node16 -->
<g id="edge15_Node000001_Node000016" class="edge">
<title>Node1&#45;&gt;Node16</title>
<g id="a_edge15_Node000001_Node000016"><a xlink:title=" ">
<path fill="none" stroke="#63b8ff" d="M302.1,-570.5C314.62,-599.21 342.41,-653.17 384,-680.5 393.93,-687.02 405.62,-691.39 417.33,-694.3"/>
<polygon fill="#63b8ff" stroke="#63b8ff" points="305.28,-569.03 298.18,-561.17 298.82,-571.74 305.28,-569.03"/>
</a>
</g>
</g>
<!-- Node17 -->
<g id="Node000017" class="node">
<title>Node17</title>
<g id="a_Node000017"><a xlink:href="../../d8/def/classxii_logic_event_and_anim_node.htm" target="_top" xlink:title=" ">
<polygon fill="white" stroke="#bfbfbf" points="555.5,-672 403.5,-672 403.5,-653 555.5,-653 555.5,-672"/>
<text text-anchor="middle" x="479.5" y="-660" font-family="Helvetica,sans-Serif" font-size="10.00">xiiLogicEventAndAnimNode</text>
</a>
</g>
</g>
<!-- Node1&#45;&gt;Node17 -->
<g id="edge16_Node000001_Node000017" class="edge">
<title>Node1&#45;&gt;Node17</title>
<g id="a_edge16_Node000001_Node000017"><a xlink:title=" ">
<path fill="none" stroke="#63b8ff" d="M306.79,-569.59C322.23,-590.81 350.76,-625.39 384,-643.5 391.05,-647.34 398.78,-650.41 406.69,-652.86"/>
<polygon fill="#63b8ff" stroke="#63b8ff" points="309.45,-567.29 300.82,-561.14 303.73,-571.33 309.45,-567.29"/>
</a>
</g>
</g>
<!-- Node18 -->
<g id="Node000018" class="node">
<title>Node18</title>
<g id="a_Node000018"><a xlink:href="../../d8/d54/classxii_logic_not_anim_node.htm" target="_top" xlink:title=" ">
<polygon fill="white" stroke="#bfbfbf" points="540.5,-635 418.5,-635 418.5,-616 540.5,-616 540.5,-635"/>
<text text-anchor="middle" x="479.5" y="-623" font-family="Helvetica,sans-Serif" font-size="10.00">xiiLogicNotAnimNode</text>
</a>
</g>
</g>
<!-- Node1&#45;&gt;Node18 -->
<g id="edge17_Node000001_Node000018" class="edge">
<title>Node1&#45;&gt;Node18</title>
<g id="a_edge17_Node000001_Node000018"><a xlink:title=" ">
<path fill="none" stroke="#63b8ff" d="M315.07,-567.07C332.53,-579.55 358.71,-596.55 384,-606.5 394.82,-610.76 406.74,-614.1 418.35,-616.72"/>
<polygon fill="#63b8ff" stroke="#63b8ff" points="316.93,-564.1 306.79,-561.03 312.8,-569.75 316.93,-564.1"/>
</a>
</g>
</g>
<!-- Node19 -->
<g id="Node000019" class="node">
<title>Node19</title>
<g id="a_Node000019"><a xlink:href="../../d3/d96/classxii_logic_or_anim_node.htm" target="_top" xlink:title=" ">
<polygon fill="white" stroke="#bfbfbf" points="537.5,-598 421.5,-598 421.5,-579 537.5,-579 537.5,-598"/>
<text text-anchor="middle" x="479.5" y="-586" font-family="Helvetica,sans-Serif" font-size="10.00">xiiLogicOrAnimNode</text>
</a>
</g>
</g>
<!-- Node1&#45;&gt;Node19 -->
<g id="edge18_Node000001_Node000019" class="edge">
<title>Node1&#45;&gt;Node19</title>
<g id="a_edge18_Node000001_Node000019"><a xlink:title=" ">
<path fill="none" stroke="#63b8ff" d="M351.77,-563.02C377.2,-568.13 406.77,-574.08 430.96,-578.94"/>
<polygon fill="#63b8ff" stroke="#63b8ff" points="352.38,-559.57 341.88,-561.03 351,-566.43 352.38,-559.57"/>
</a>
</g>
</g>
<!-- Node20 -->
<g id="Node000020" class="node">
<title>Node20</title>
<g id="a_Node000020"><a xlink:href="../../de/dea/classxii_math_expression_anim_node.htm" target="_top" xlink:title=" ">
<polygon fill="white" stroke="#bfbfbf" points="558.5,-561 400.5,-561 400.5,-542 558.5,-542 558.5,-561"/>
<text text-anchor="middle" x="479.5" y="-549" font-family="Helvetica,sans-Serif" font-size="10.00">xiiMathExpressionAnimNode</text>
</a>
</g>
</g>
<!-- Node1&#45;&gt;Node20 -->
<g id="edge19_Node000001_Node000020" class="edge">
<title>Node1&#45;&gt;Node20</title>
<g id="a_edge19_Node000001_Node000020"><a xlink:title=" ">
<path fill="none" stroke="#63b8ff" d="M358.39,-551.5C371.95,-551.5 386.42,-551.5 400.44,-551.5"/>
<polygon fill="#63b8ff" stroke="#63b8ff" points="358.22,-548 348.22,-551.5 358.22,-555 358.22,-548"/>
</a>
</g>
</g>
<!-- Node21 -->
<g id="Node000021" class="node">
<title>Node21</title>
<g id="a_Node000021"><a xlink:href="../../d2/dc8/classxii_on_blackboard_value_changed_anim_node.htm" target="_top" xlink:title=" ">
<polygon fill="white" stroke="#bfbfbf" points="563,-523.5 396,-523.5 396,-493.5 563,-493.5 563,-523.5"/>
<text text-anchor="start" x="404" y="-511.5" font-family="Helvetica,sans-Serif" font-size="10.00">xiiOnBlackboardValueChanged</text>
<text text-anchor="middle" x="479.5" y="-500.5" font-family="Helvetica,sans-Serif" font-size="10.00">AnimNode</text>
</a>
</g>
</g>
<!-- Node1&#45;&gt;Node21 -->
<g id="edge20_Node000001_Node000021" class="edge">
<title>Node1&#45;&gt;Node21</title>
<g id="a_edge20_Node000001_Node000021"><a xlink:title=" ">
<path fill="none" stroke="#63b8ff" d="M345.18,-539.66C366.54,-534.66 391.65,-528.8 414.29,-523.51"/>
<polygon fill="#63b8ff" stroke="#63b8ff" points="344.28,-536.27 335.34,-541.96 345.87,-543.09 344.28,-536.27"/>
</a>
</g>
</g>
<!-- Node22 -->
<g id="Node000022" class="node">
<title>Node22</title>
<g id="a_Node000022"><a xlink:href="../../dc/d4e/classxii_pose_result_anim_node.htm" target="_top" xlink:title=" ">
<polygon fill="white" stroke="#bfbfbf" points="546.5,-475 412.5,-475 412.5,-456 546.5,-456 546.5,-475"/>
<text text-anchor="middle" x="479.5" y="-463" font-family="Helvetica,sans-Serif" font-size="10.00">xiiPoseResultAnimNode</text>
</a>
</g>
</g>
<!-- Node1&#45;&gt;Node22 -->
<g id="edge21_Node000001_Node000022" class="edge">
<title>Node1&#45;&gt;Node22</title>
<g id="a_edge21_Node000001_Node000022"><a xlink:title=" ">
<path fill="none" stroke="#63b8ff" d="M311.74,-534.85C328.73,-519.4 356.13,-496.96 384,-484.5 392.86,-480.54 402.56,-477.4 412.26,-474.91"/>
<polygon fill="#63b8ff" stroke="#63b8ff" points="309.2,-532.42 304.27,-541.8 313.98,-537.55 309.2,-532.42"/>
</a>
</g>
</g>
<!-- Node23 -->
<g id="Node000023" class="node">
<title>Node23</title>
<g id="a_Node000023"><a xlink:href="../../db/d31/classxii_rest_pose_anim_node.htm" target="_top" xlink:title=" ">
<polygon fill="white" stroke="#bfbfbf" points="542,-438 417,-438 417,-419 542,-419 542,-438"/>
<text text-anchor="middle" x="479.5" y="-426" font-family="Helvetica,sans-Serif" font-size="10.00">xiiRestPoseAnimNode</text>
</a>
</g>
</g>
<!-- Node1&#45;&gt;Node23 -->
<g id="edge22_Node000001_Node000023" class="edge">
<title>Node1&#45;&gt;Node23</title>
<g id="a_edge22_Node000001_Node000023"><a xlink:title=" ">
<path fill="none" stroke="#63b8ff" d="M304.85,-532.9C319.28,-508.85 347.78,-467.55 384,-446.5 393.96,-440.71 405.42,-436.73 416.84,-434.01"/>
<polygon fill="#63b8ff" stroke="#63b8ff" points="301.7,-531.36 299.71,-541.76 307.75,-534.87 301.7,-531.36"/>
</a>
</g>
</g>
<!-- Node24 -->
<g id="Node000024" class="node">
<title>Node24</title>
<g id="a_Node000024"><a xlink:href="../../d9/d47/classxii_root_rotation_anim_node.htm" target="_top" xlink:title=" ">
<polygon fill="white" stroke="#bfbfbf" points="551,-401 408,-401 408,-382 551,-382 551,-401"/>
<text text-anchor="middle" x="479.5" y="-389" font-family="Helvetica,sans-Serif" font-size="10.00">xiiRootRotationAnimNode</text>
</a>
</g>
</g>
<!-- Node1&#45;&gt;Node24 -->
<g id="edge23_Node000001_Node000024" class="edge">
<title>Node1&#45;&gt;Node24</title>
<g id="a_edge23_Node000001_Node000024"><a xlink:title=" ">
<path fill="none" stroke="#63b8ff" d="M300.86,-532.33C312.24,-501.2 339.2,-440.04 384,-409.5 391.18,-404.61 399.34,-400.96 407.78,-398.25"/>
<polygon fill="#63b8ff" stroke="#63b8ff" points="297.48,-531.4 297.48,-542 304.08,-533.71 297.48,-531.4"/>
</a>
</g>
</g>
<!-- Node25 -->
<g id="Node000025" class="node">
<title>Node25</title>
<g id="a_Node000025"><a xlink:href="../../dd/d7f/classxii_sample_anim_clip_anim_node.htm" target="_top" xlink:title=" ">
<polygon fill="white" stroke="#bfbfbf" points="560,-364 399,-364 399,-345 560,-345 560,-364"/>
<text text-anchor="middle" x="479.5" y="-352" font-family="Helvetica,sans-Serif" font-size="10.00">xiiSampleAnimClipAnimNode</text>
</a>
</g>
</g>
<!-- Node1&#45;&gt;Node25 -->
<g id="edge24_Node000001_Node000025" class="edge">
<title>Node1&#45;&gt;Node25</title>
<g id="a_edge24_Node000001_Node000025"><a xlink:title=" ">
<path fill="none" stroke="#63b8ff" d="M298.37,-531.68C306.8,-494.18 330.51,-412.96 384,-372.5 388.53,-369.07 393.52,-366.24 398.77,-363.9"/>
<polygon fill="#63b8ff" stroke="#63b8ff" points="294.87,-531.32 296.23,-541.83 301.72,-532.76 294.87,-531.32"/>
</a>
</g>
</g>
<!-- Node26 -->
<g id="Node000026" class="node">
<title>Node26</title>
<g id="a_Node000026"><a xlink:href="../../d4/dc4/classxii_sample_anim_clip_sequence_anim_node.htm" target="_top" xlink:title=" ">
<polygon fill="white" stroke="#bfbfbf" points="558,-326.5 401,-326.5 401,-296.5 558,-296.5 558,-326.5"/>
<text text-anchor="start" x="409" y="-314.5" font-family="Helvetica,sans-Serif" font-size="10.00">xiiSampleAnimClipSequence</text>
<text text-anchor="middle" x="479.5" y="-303.5" font-family="Helvetica,sans-Serif" font-size="10.00">AnimNode</text>
</a>
</g>
</g>
<!-- Node1&#45;&gt;Node26 -->
<g id="edge25_Node000001_Node000026" class="edge">
<title>Node1&#45;&gt;Node26</title>
<g id="a_edge25_Node000001_Node000026"><a xlink:title=" ">
<path fill="none" stroke="#63b8ff" d="M296.82,-531.54C302.86,-488.83 323.14,-388.17 384,-335.5 388.99,-331.18 394.66,-327.62 400.67,-324.69"/>
<polygon fill="#63b8ff" stroke="#63b8ff" points="293.34,-531.16 295.52,-541.53 300.28,-532.07 293.34,-531.16"/>
</a>
</g>
</g>
<!-- Node27 -->
<g id="Node000027" class="node">
<title>Node27</title>
<g id="a_Node000027"><a xlink:href="../../d9/d53/classxii_sample_blend_space1_d_anim_node.htm" target="_top" xlink:title=" ">
<polygon fill="white" stroke="#bfbfbf" points="573,-278 386,-278 386,-259 573,-259 573,-278"/>
<text text-anchor="middle" x="479.5" y="-266" font-family="Helvetica,sans-Serif" font-size="10.00">xiiSampleBlendSpace1DAnimNode</text>
</a>
</g>
</g>
<!-- Node1&#45;&gt;Node27 -->
<g id="edge26_Node000001_Node000027" class="edge">
<title>Node1&#45;&gt;Node27</title>
<g id="a_edge26_Node000001_Node000027"><a xlink:title=" ">
<path fill="none" stroke="#63b8ff" d="M294.88,-531.73C296.97,-482.34 309.65,-352.87 384,-287.5 388.27,-283.74 393.08,-280.65 398.2,-278.11"/>
<polygon fill="#63b8ff" stroke="#63b8ff" points="291.38,-531.64 294.56,-541.74 298.38,-531.86 291.38,-531.64"/>
</a>
</g>
</g>
<!-- Node28 -->
<g id="Node000028" class="node">
<title>Node28</title>
<g id="a_Node000028"><a xlink:href="../../dd/d97/classxii_sample_blend_space2_d_anim_node.htm" target="_top" xlink:title=" ">
<polygon fill="white" stroke="#bfbfbf" points="573,-241 386,-241 386,-222 573,-222 573,-241"/>
<text text-anchor="middle" x="479.5" y="-229" font-family="Helvetica,sans-Serif" font-size="10.00">xiiSampleBlendSpace2DAnimNode</text>
</a>
</g>
</g>
<!-- Node1&#45;&gt;Node28 -->
<g id="edge27_Node000001_Node000028" class="edge">
<title>Node1&#45;&gt;Node28</title>
<g id="a_edge27_Node000001_Node000028"><a xlink:title=" ">
<path fill="none" stroke="#63b8ff" d="M293.86,-531.49C293.3,-477.13 299.75,-325.72 384,-249.5 387.59,-246.25 391.58,-243.51 395.83,-241.19"/>
<polygon fill="#63b8ff" stroke="#63b8ff" points="290.37,-531.89 294.07,-541.82 297.37,-531.75 290.37,-531.89"/>
</a>
</g>
</g>
<!-- Node29 -->
<g id="Node000029" class="node">
<title>Node29</title>
<g id="a_Node000029"><a xlink:href="../../d7/dab/classxii_sample_frame_anim_node.htm" target="_top" xlink:title=" ">
<polygon fill="white" stroke="#bfbfbf" points="553,-204 406,-204 406,-185 553,-185 553,-204"/>
<text text-anchor="middle" x="479.5" y="-192" font-family="Helvetica,sans-Serif" font-size="10.00">xiiSampleFrameAnimNode</text>
</a>
</g>
</g>
<!-- Node1&#45;&gt;Node29 -->
<g id="edge28_Node000001_Node000029" class="edge">
<title>Node1&#45;&gt;Node29</title>
<g id="a_edge28_Node000001_Node000029"><a xlink:title=" ">
<path fill="none" stroke="#63b8ff" d="M296.96,-531.71C305.52,-466.07 336.12,-257.14 384,-212.5 390.23,-206.69 397.73,-202.48 405.74,-199.47"/>
<polygon fill="#63b8ff" stroke="#63b8ff" points="293.45,-531.56 295.66,-541.92 300.39,-532.44 293.45,-531.56"/>
</a>
</g>
</g>
<!-- Node30 -->
<g id="Node000030" class="node">
<title>Node30</title>
<g id="a_Node000030"><a xlink:href="../../d0/dfc/classxii_send_event_anim_node.htm" target="_top" xlink:title=" ">
<polygon fill="white" stroke="#bfbfbf" points="545,-167 414,-167 414,-148 545,-148 545,-167"/>
<text text-anchor="middle" x="479.5" y="-155" font-family="Helvetica,sans-Serif" font-size="10.00">xiiSendEventAnimNode</text>
</a>
</g>
</g>
<!-- Node1&#45;&gt;Node30 -->
<g id="edge29_Node000001_Node000030" class="edge">
<title>Node1&#45;&gt;Node30</title>
<g id="a_edge29_Node000001_Node000030"><a xlink:title=" ">
<path fill="none" stroke="#63b8ff" d="M296.39,-531.87C303.55,-461.85 331.27,-225.89 384,-175.5 392.21,-167.65 402.73,-162.71 413.75,-159.67"/>
<polygon fill="#63b8ff" stroke="#63b8ff" points="292.9,-531.66 295.39,-541.96 299.86,-532.35 292.9,-531.66"/>
</a>
</g>
</g>
<!-- Node31 -->
<g id="Node000031" class="node">
<title>Node31</title>
<g id="a_Node000031"><a xlink:href="../../d3/d47/classxii_set_blackboard_bool_anim_node.htm" target="_top" xlink:title=" ">
<polygon fill="white" stroke="#bfbfbf" points="565.5,-130 393.5,-130 393.5,-111 565.5,-111 565.5,-130"/>
<text text-anchor="middle" x="479.5" y="-118" font-family="Helvetica,sans-Serif" font-size="10.00">xiiSetBlackboardBoolAnimNode</text>
</a>
</g>
</g>
<!-- Node1&#45;&gt;Node31 -->
<g id="edge30_Node000001_Node000031" class="edge">
<title>Node1&#45;&gt;Node31</title>
<g id="a_edge30_Node000001_Node000031"><a xlink:title=" ">
<path fill="none" stroke="#63b8ff" d="M295.98,-531.42C301.92,-456.47 326.54,-194.53 384,-138.5 387.35,-135.24 391.09,-132.47 395.11,-130.13"/>
<polygon fill="#63b8ff" stroke="#63b8ff" points="292.46,-531.54 295.19,-541.78 299.44,-532.08 292.46,-531.54"/>
</a>
</g>
</g>
<!-- Node32 -->
<g id="Node000032" class="node">
<title>Node32</title>
<g id="a_Node000032"><a xlink:href="../../d9/dfb/classxii_set_blackboard_number_anim_node.htm" target="_top" xlink:title=" ">
<polygon fill="white" stroke="#bfbfbf" points="574,-93 385,-93 385,-74 574,-74 574,-93"/>
<text text-anchor="middle" x="479.5" y="-81" font-family="Helvetica,sans-Serif" font-size="10.00">xiiSetBlackboardNumberAnimNode</text>
</a>
</g>
</g>
<!-- Node1&#45;&gt;Node32 -->
<g id="edge31_Node000001_Node000032" class="edge">
<title>Node1&#45;&gt;Node32</title>
<g id="a_edge31_Node000001_Node000032"><a xlink:title=" ">
<path fill="none" stroke="#63b8ff" d="M295.58,-531.67C300.28,-452.89 321.61,-163.39 384,-101.5 387.32,-98.21 391.04,-95.42 395.04,-93.06"/>
<polygon fill="#63b8ff" stroke="#63b8ff" points="292.08,-531.52 295,-541.71 299.07,-531.93 292.08,-531.52"/>
</a>
</g>
</g>
<!-- Node33 -->
<g id="Node000033" class="node">
<title>Node33</title>
<g id="a_Node000033"><a xlink:href="../../de/ddc/classxii_switch_bone_weights_anim_node.htm" target="_top" xlink:title=" ">
<polygon fill="white" stroke="#bfbfbf" points="567.5,-56 391.5,-56 391.5,-37 567.5,-37 567.5,-56"/>
<text text-anchor="middle" x="479.5" y="-44" font-family="Helvetica,sans-Serif" font-size="10.00">xiiSwitchBoneWeightsAnimNode</text>
</a>
</g>
</g>
<!-- Node1&#45;&gt;Node33 -->
<g id="edge32_Node000001_Node000033" class="edge">
<title>Node1&#45;&gt;Node33</title>
<g id="a_edge32_Node000001_Node000033"><a xlink:title=" ">
<path fill="none" stroke="#63b8ff" d="M295.26,-531.66C298.82,-448.87 316.73,-132.21 384,-64.5 387.3,-61.18 391,-58.38 394.99,-56.01"/>
<polygon fill="#63b8ff" stroke="#63b8ff" points="291.75,-531.6 294.84,-541.73 298.75,-531.89 291.75,-531.6"/>
</a>
</g>
</g>
<!-- Node34 -->
<g id="Node000034" class="node">
<title>Node34</title>
<g id="a_Node000034"><a xlink:href="../../d9/dbd/classxii_switch_pose_anim_node.htm" target="_top" xlink:title=" ">
<polygon fill="white" stroke="#bfbfbf" points="547,-19 412,-19 412,0 547,0 547,-19"/>
<text text-anchor="middle" x="479.5" y="-7" font-family="Helvetica,sans-Serif" font-size="10.00">xiiSwitchPoseAnimNode</text>
</a>
</g>
</g>
<!-- Node1&#45;&gt;Node34 -->
<g id="edge33_Node000001_Node000034" class="edge">
<title>Node1&#45;&gt;Node34</title>
<g id="a_edge33_Node000001_Node000034"><a xlink:title=" ">
<path fill="none" stroke="#63b8ff" d="M294.97,-531.83C297.45,-445.49 311.78,-101.11 384,-27.5 391.6,-19.75 401.44,-14.78 411.88,-11.67"/>
<polygon fill="#63b8ff" stroke="#63b8ff" points="291.47,-531.76 294.7,-541.85 298.47,-531.95 291.47,-531.76"/>
</a>
</g>
</g>
<!-- Node2 -->
<g id="Node000002" class="node">
<title>Node2</title>
<g id="a_Node000002"><a xlink:href="../../dc/d71/classxii_reflected_class.htm" target="_top" xlink:title="All classes that should be dynamically reflectable, need to be derived from this base class.">
<polygon fill="white" stroke="#666666" points="203,-561 102,-561 102,-542 203,-542 203,-561"/>
<text text-anchor="middle" x="152.5" y="-549" font-family="Helvetica,sans-Serif" font-size="10.00">xiiReflectedClass</text>
</a>
</g>
</g>
<!-- Node2&#45;&gt;Node1 -->
<g id="edge1_Node000001_Node000002" class="edge">
<title>Node2&#45;&gt;Node1</title>
<g id="a_edge1_Node000001_Node000002"><a xlink:title=" ">
<path fill="none" stroke="#63b8ff" d="M213.45,-551.5C221.89,-551.5 230.52,-551.5 238.82,-551.5"/>
<polygon fill="#63b8ff" stroke="#63b8ff" points="213.29,-548 203.29,-551.5 213.29,-555 213.29,-548"/>
</a>
</g>
</g>
<!-- Node3 -->
<g id="Node000003" class="node">
<title>Node3</title>
<g id="a_Node000003"><a xlink:href="../../d2/d38/classxii_no_base.htm" target="_top" xlink:title="Dummy type to pass to templates and macros that expect a base type for a class that has no base.">
<polygon fill="white" stroke="#666666" points="66,-561 0,-561 0,-542 66,-542 66,-561"/>
<text text-anchor="middle" x="33" y="-549" font-family="Helvetica,sans-Serif" font-size="10.00">xiiNoBase</text>
</a>
</g>
</g>
<!-- Node3&#45;&gt;Node2 -->
<g id="edge2_Node000002_Node000003" class="edge">
<title>Node3&#45;&gt;Node2</title>
<g id="a_edge2_Node000002_Node000003"><a xlink:title=" ">
<path fill="none" stroke="#63b8ff" d="M76.27,-551.5C84.54,-551.5 93.29,-551.5 101.78,-551.5"/>
<polygon fill="#63b8ff" stroke="#63b8ff" points="76.11,-548 66.11,-551.5 76.11,-555 76.11,-548"/>
</a>
</g>
</g>
<!-- Node14 -->
<g id="Node000014" class="node">
<title>Node14</title>
<g id="a_Node000014"><a xlink:href="../../db/d5b/classxii_log_error_anim_node.htm" target="_top" xlink:title=" ">
<polygon fill="white" stroke="#bfbfbf" points="731,-764 611,-764 611,-745 731,-745 731,-764"/>
<text text-anchor="middle" x="671" y="-752" font-family="Helvetica,sans-Serif" font-size="10.00">xiiLogErrorAnimNode</text>
</a>
</g>
</g>
<!-- Node13&#45;&gt;Node14 -->
<g id="edge13_Node000013_Node000014" class="edge">
<title>Node13&#45;&gt;Node14</title>
<g id="a_edge13_Node000013_Node000014"><a xlink:title=" ">
<path fill="none" stroke="#63b8ff" d="M538.56,-742.02C561.43,-744.19 587.67,-746.68 610.66,-748.86"/>
<polygon fill="#63b8ff" stroke="#63b8ff" points="538.61,-738.5 528.32,-741.04 537.94,-745.47 538.61,-738.5"/>
</a>
</g>
</g>
<!-- Node15 -->
<g id="Node000015" class="node">
<title>Node15</title>
<g id="a_Node000015"><a xlink:href="../../d6/d8d/classxii_log_info_anim_node.htm" target="_top" xlink:title=" ">
<polygon fill="white" stroke="#bfbfbf" points="729,-727 613,-727 613,-708 729,-708 729,-727"/>
<text text-anchor="middle" x="671" y="-715" font-family="Helvetica,sans-Serif" font-size="10.00">xiiLogInfoAnimNode</text>
</a>
</g>
</g>
<!-- Node13&#45;&gt;Node15 -->
<g id="edge14_Node000013_Node000015" class="edge">
<title>Node13&#45;&gt;Node15</title>
<g id="a_edge14_Node000013_Node000015"><a xlink:title=" ">
<path fill="none" stroke="#63b8ff" d="M538.52,-730.68C562.09,-728.32 589.25,-725.6 612.74,-723.24"/>
<polygon fill="#63b8ff" stroke="#63b8ff" points="537.92,-727.23 528.32,-731.71 538.62,-734.19 537.92,-727.23"/>
</a>
</g>
</g>
</g>
</svg>

<g id="navigator" transform="translate(0 0)" fill="#404254">
  <rect fill="#f2f5e9" fill-opacity="0.5" stroke="#606060" stroke-width=".5" x="0" y="0" width="60" height="60"/>
  <use id="zoomplus" xlink:href="#zoomPlus" x="17" y="9" onmousedown="handleZoom(evt,'in')"/>
  <use id="zoomminus" xlink:href="#zoomMin" x="42" y="9" onmousedown="handleZoom(evt,'out')"/>
  <use id="reset" xlink:href="#resetDef" x="30" y="36" onmousedown="handleReset()"/>
   <use id="arrowup" xlink:href="#arrowUp" x="0" y="0" onmousedown="handlePan(0,-1)"/>
  <use id="arrowright" xlink:href="#arrowRight" x="0" y="0" onmousedown="handlePan(1,0)"/>
  <use id="arrowdown" xlink:href="#arrowDown" x="0" y="0" onmousedown="handlePan(0,1)"/>
  <use id="arrowleft" xlink:href="#arrowLeft" x="0" y="0" onmousedown="handlePan(-1,0)"/>
</g>
<svg viewBox="0 0 15 15" width="100%" height="30px" preserveAspectRatio="xMaxYMin meet">
 <g id="arrow_out" transform="scale(0.3 0.3)">
  <a xlink:href="classxii_anim_graph_node__inherit__graph_org.svg" target="_base">
   <rect id="button" ry="5" rx="5" y="6" x="6" height="38" width="38"
        fill="#f2f5e9" fill-opacity="0.5" stroke="#606060" stroke-width="1.0"/>
   <path id="arrow"
     d="M 11.500037,31.436501 C 11.940474,20.09759 22.043105,11.32322 32.158766,21.979434 L 37.068811,17.246167 C 37.068811,17.246167 37.088388,32 37.088388,32 L 22.160133,31.978069 C 22.160133,31.978069 26.997745,27.140456 26.997745,27.140456 C 18.528582,18.264221 13.291696,25.230495 11.500037,31.436501 z"
     style="fill:#404040;"/>
  </a>
 </g>
</svg>

<style type='text/css'>
<![CDATA[
[data-mouse-over-selected='false'] { opacity: 0.7; }
[data-mouse-over-selected='true']  { opacity: 1.0; }
]]>
</style>
<script type="application/ecmascript"><![CDATA[
document.addEventListener('DOMContentLoaded', (event) => {
  highlightEdges();
  highlightAdjacentNodes();
});
]]></script>
</svg>
