<?xml version="1.0" encoding="UTF-8" standalone="no"?>
<!DOCTYPE svg PUBLIC "-//W3C//DTD SVG 1.1//EN"
 "http://www.w3.org/Graphics/SVG/1.1/DTD/svg11.dtd">
<!-- Generated by graphviz version 2.43.0 (0)
 -->
<!-- Title: xiiThread Pages: 1 -->
<svg width="355pt" height="218pt"
 viewBox="0.00 0.00 355.00 218.00" xmlns="http://www.w3.org/2000/svg" xmlns:xlink="http://www.w3.org/1999/xlink">
<g id="graph0" class="graph" transform="scale(1 1) rotate(0) translate(4 214)">
<title>xiiThread</title>
<polygon fill="white" stroke="transparent" points="-4,4 -4,-214 351,-214 351,4 -4,4"/>
<!-- Node1 -->
<g id="node1" class="node">
<title>Node1</title>
<g id="a_node1"><a xlink:title="This class is the base class for platform independent long running threads.">
<polygon fill="#bfbfbf" stroke="black" points="112,-95.5 112,-114.5 174,-114.5 174,-95.5 112,-95.5"/>
<text text-anchor="middle" x="143" y="-102.5" font-family="Helvetica,sans-Serif" font-size="10.00">xiiThread</text>
</a>
</g>
</g>
<!-- Node3 -->
<g id="node3" class="node">
<title>Node3</title>
<g id="a_node3"><a xlink:title=" ">
<polygon fill="white" stroke="#bfbfbf" points="235.5,-190.5 235.5,-209.5 321.5,-209.5 321.5,-190.5 235.5,-190.5"/>
<text text-anchor="middle" x="278.5" y="-197.5" font-family="Helvetica,sans-Serif" font-size="10.00">xiiLoopThread</text>
</a>
</g>
</g>
<!-- Node1&#45;&gt;Node3 -->
<g id="edge2" class="edge">
<title>Node1&#45;&gt;Node3</title>
<path fill="none" stroke="midnightblue" d="M155.22,-123.18C166.85,-140.53 186.59,-166.16 210,-181 217.61,-185.82 226.46,-189.45 235.2,-192.16"/>
<polygon fill="midnightblue" stroke="midnightblue" points="157.99,-121.02 149.62,-114.51 152.11,-124.81 157.99,-121.02"/>
</g>
<!-- Node4 -->
<g id="node4" class="node">
<title>Node4</title>
<g id="a_node4"><a xlink:href="../../d7/de3/classxii_process_thread.htm" target="_top" xlink:title=" ">
<polygon fill="white" stroke="black" points="228.5,-152.5 228.5,-171.5 328.5,-171.5 328.5,-152.5 228.5,-152.5"/>
<text text-anchor="middle" x="278.5" y="-159.5" font-family="Helvetica,sans-Serif" font-size="10.00">xiiProcessThread</text>
</a>
</g>
</g>
<!-- Node1&#45;&gt;Node4 -->
<g id="edge3" class="edge">
<title>Node1&#45;&gt;Node4</title>
<path fill="none" stroke="midnightblue" d="M166.88,-120.06C179.26,-127.71 195.05,-136.71 210,-143 218.64,-146.64 228.19,-149.8 237.32,-152.46"/>
<polygon fill="midnightblue" stroke="midnightblue" points="168.47,-116.92 158.15,-114.53 164.72,-122.83 168.47,-116.92"/>
</g>
<!-- Node5 -->
<g id="node5" class="node">
<title>Node5</title>
<g id="a_node5"><a xlink:href="../../d1/d49/classxii_remote_thread.htm" target="_top" xlink:title="The remote interface thread updates in regular intervals to keep the connection alive.">
<polygon fill="white" stroke="black" points="228,-114.5 228,-133.5 329,-133.5 329,-114.5 228,-114.5"/>
<text text-anchor="middle" x="278.5" y="-121.5" font-family="Helvetica,sans-Serif" font-size="10.00">xiiRemoteThread</text>
</a>
</g>
</g>
<!-- Node1&#45;&gt;Node5 -->
<g id="edge4" class="edge">
<title>Node1&#45;&gt;Node5</title>
<path fill="none" stroke="midnightblue" d="M184.39,-110.75C198.11,-112.7 213.6,-114.91 227.95,-116.95"/>
<polygon fill="midnightblue" stroke="midnightblue" points="184.69,-107.26 174.29,-109.31 183.7,-114.19 184.69,-107.26"/>
</g>
<!-- Node6 -->
<g id="node6" class="node">
<title>Node6</title>
<g id="a_node6"><a xlink:href="../../d9/d85/classxii_task_worker_thread.htm" target="_top" xlink:title=" ">
<polygon fill="white" stroke="black" points="219.5,-76.5 219.5,-95.5 337.5,-95.5 337.5,-76.5 219.5,-76.5"/>
<text text-anchor="middle" x="278.5" y="-83.5" font-family="Helvetica,sans-Serif" font-size="10.00">xiiTaskWorkerThread</text>
</a>
</g>
</g>
<!-- Node1&#45;&gt;Node6 -->
<g id="edge5" class="edge">
<title>Node1&#45;&gt;Node6</title>
<path fill="none" stroke="midnightblue" d="M184.47,-99.24C195.49,-97.67 207.66,-95.94 219.45,-94.26"/>
<polygon fill="midnightblue" stroke="midnightblue" points="183.7,-95.81 174.29,-100.69 184.69,-102.74 183.7,-95.81"/>
</g>
<!-- Node7 -->
<g id="node7" class="node">
<title>Node7</title>
<g id="a_node7"><a xlink:title=" ">
<polygon fill="white" stroke="#bfbfbf" points="223,-38.5 223,-57.5 334,-57.5 334,-38.5 223,-38.5"/>
<text text-anchor="middle" x="278.5" y="-45.5" font-family="Helvetica,sans-Serif" font-size="10.00">xiiTelemetryThread</text>
</a>
</g>
</g>
<!-- Node1&#45;&gt;Node7 -->
<g id="edge6" class="edge">
<title>Node1&#45;&gt;Node7</title>
<path fill="none" stroke="midnightblue" d="M166.88,-89.94C179.26,-82.29 195.05,-73.29 210,-67 218.64,-63.36 228.19,-60.2 237.32,-57.54"/>
<polygon fill="midnightblue" stroke="midnightblue" points="164.72,-87.17 158.15,-95.47 168.47,-93.08 164.72,-87.17"/>
</g>
<!-- Node8 -->
<g id="node8" class="node">
<title>Node8</title>
<g id="a_node8"><a xlink:href="../../de/d20/classxii_thread_with_dispatcher.htm" target="_top" xlink:title="This class is the base class for threads which need dispatching of calls.">
<polygon fill="white" stroke="black" points="210,-0.5 210,-19.5 347,-19.5 347,-0.5 210,-0.5"/>
<text text-anchor="middle" x="278.5" y="-7.5" font-family="Helvetica,sans-Serif" font-size="10.00">xiiThreadWithDispatcher</text>
</a>
</g>
</g>
<!-- Node1&#45;&gt;Node8 -->
<g id="edge7" class="edge">
<title>Node1&#45;&gt;Node8</title>
<path fill="none" stroke="midnightblue" d="M155.22,-86.82C166.85,-69.47 186.59,-43.84 210,-29 216.07,-25.15 222.92,-22.07 229.88,-19.6"/>
<polygon fill="midnightblue" stroke="midnightblue" points="152.11,-85.19 149.62,-95.49 157.99,-88.98 152.11,-85.19"/>
</g>
<!-- Node2 -->
<g id="node2" class="node">
<title>Node2</title>
<g id="a_node2"><a xlink:href="../../d6/db1/classxii_o_s_thread.htm" target="_top" xlink:title="Implementation of a thread.">
<polygon fill="white" stroke="black" points="0,-95.5 0,-114.5 76,-114.5 76,-95.5 0,-95.5"/>
<text text-anchor="middle" x="38" y="-102.5" font-family="Helvetica,sans-Serif" font-size="10.00">xiiOSThread</text>
</a>
</g>
</g>
<!-- Node2&#45;&gt;Node1 -->
<g id="edge1" class="edge">
<title>Node2&#45;&gt;Node1</title>
<path fill="none" stroke="midnightblue" d="M86.3,-105C95.03,-105 103.92,-105 111.97,-105"/>
<polygon fill="midnightblue" stroke="midnightblue" points="86.19,-101.5 76.19,-105 86.19,-108.5 86.19,-101.5"/>
</g>
</g>
</svg>
