<?xml version="1.0" encoding="UTF-8" standalone="no"?>
<!DOCTYPE svg PUBLIC "-//W3C//DTD SVG 1.1//EN"
 "http://www.w3.org/Graphics/SVG/1.1/DTD/svg11.dtd">
<!-- Generated by graphviz version 2.43.0 (0)
 -->
<!-- Title: xiiGetTypeClass&lt; T &gt; Pages: 1 -->
<svg width="370pt" height="72pt"
 viewBox="0.00 0.00 370.00 72.00" xmlns="http://www.w3.org/2000/svg" xmlns:xlink="http://www.w3.org/1999/xlink">
<g id="graph0" class="graph" transform="scale(1 1) rotate(0) translate(4 68)">
<title>xiiGetTypeClass&lt; T &gt;</title>
<polygon fill="white" stroke="transparent" points="-4,4 -4,-68 366,-68 366,4 -4,4"/>
<!-- Node1 -->
<g id="node1" class="node">
<title>Node1</title>
<g id="a_node1"><a xlink:title="If there is an % operator which takes a xiiTypeIsMemRelocatable and returns a CompileTimeTrueType T i...">
<polygon fill="#bfbfbf" stroke="black" points="239,-22.5 239,-41.5 362,-41.5 362,-22.5 239,-22.5"/>
<text text-anchor="middle" x="300.5" y="-29.5" font-family="Helvetica,sans-Serif" font-size="10.00">xiiGetTypeClass&lt; T &gt;</text>
</a>
</g>
</g>
<!-- Node2 -->
<g id="node2" class="node">
<title>Node2</title>
<g id="a_node2"><a xlink:href="../../da/d04/structxii_trait_int.htm" target="_top" xlink:title=" ">
<polygon fill="white" stroke="black" points="0,-0.5 0,-63.5 203,-63.5 203,-0.5 0,-0.5"/>
<text text-anchor="start" x="8" y="-51.5" font-family="Helvetica,sans-Serif" font-size="10.00">xiiTraitInt&lt;(sizeof</text>
<text text-anchor="start" x="8" y="-40.5" font-family="Helvetica,sans-Serif" font-size="10.00">(*((T *) 0) % *((const</text>
<text text-anchor="start" x="8" y="-29.5" font-family="Helvetica,sans-Serif" font-size="10.00"> xiiTypeIsMemRelocatable</text>
<text text-anchor="start" x="8" y="-18.5" font-family="Helvetica,sans-Serif" font-size="10.00"> *) 0))==sizeof(xiiCompileTimeTrue</text>
<text text-anchor="middle" x="101.5" y="-7.5" font-family="Helvetica,sans-Serif" font-size="10.00">Type)) ? 2 :xiiIsPodType&lt; T &gt;::value &gt;</text>
</a>
</g>
</g>
<!-- Node2&#45;&gt;Node1 -->
<g id="edge1" class="edge">
<title>Node2&#45;&gt;Node1</title>
<path fill="none" stroke="midnightblue" d="M213.03,-32C221.87,-32 230.57,-32 238.85,-32"/>
<polygon fill="midnightblue" stroke="midnightblue" points="213.02,-28.5 203.02,-32 213.02,-35.5 213.02,-28.5"/>
</g>
</g>
</svg>
