<?xml version="1.0" encoding="UTF-8" standalone="no"?>
<!DOCTYPE svg PUBLIC "-//W3C//DTD SVG 1.1//EN"
 "http://www.w3.org/Graphics/SVG/1.1/DTD/svg11.dtd">
<!-- Generated by graphviz version 2.43.0 (0)
 -->
<!-- Title: xiiTypedMapProperty&lt; Type &gt; Pages: 1 -->
<svg width="637pt" height="86pt"
 viewBox="0.00 0.00 637.00 86.00" xmlns="http://www.w3.org/2000/svg" xmlns:xlink="http://www.w3.org/1999/xlink">
<g id="graph0" class="graph" transform="scale(1 1) rotate(0) translate(4 82)">
<title>xiiTypedMapProperty&lt; Type &gt;</title>
<!-- Node1 -->
<g id="Node000001" class="node">
<title>Node1</title>
<g id="a_Node000001"><a xlink:title=" ">
<polygon fill="#999999" stroke="#666666" points="432,-54 313,-54 313,-24 432,-24 432,-54"/>
<text text-anchor="start" x="321" y="-42" font-family="Helvetica,sans-Serif" font-size="10.00">xiiTypedMapProperty</text>
<text text-anchor="middle" x="372.5" y="-31" font-family="Helvetica,sans-Serif" font-size="10.00">&lt; Type &gt;</text>
</a>
</g>
</g>
<!-- Node4 -->
<g id="Node000004" class="node">
<title>Node4</title>
<g id="a_Node000004"><a xlink:href="../../d2/dc6/classxii_accessor_map_property.html" target="_top" xlink:title=" ">
<polygon fill="white" stroke="#bfbfbf" points="622,-78 475,-78 475,-48 622,-48 622,-78"/>
<text text-anchor="start" x="483" y="-66" font-family="Helvetica,sans-Serif" font-size="10.00">xiiAccessorMapProperty</text>
<text text-anchor="middle" x="548.5" y="-55" font-family="Helvetica,sans-Serif" font-size="10.00">&lt; Class, Type, Container &gt;</text>
</a>
</g>
</g>
<!-- Node1&#45;&gt;Node4 -->
<g id="edge3_Node000001_Node000004" class="edge">
<title>Node1&#45;&gt;Node4</title>
<g id="a_edge3_Node000001_Node000004"><a xlink:title=" ">
<path fill="none" stroke="#63b8ff" d="M442.45,-48.51C453.07,-49.98 464.07,-51.49 474.76,-52.97"/>
<polygon fill="#63b8ff" stroke="#63b8ff" points="442.79,-45.02 432.41,-47.13 441.84,-51.96 442.79,-45.02"/>
</a>
</g>
</g>
<!-- Node5 -->
<g id="Node000005" class="node">
<title>Node5</title>
<g id="a_Node000005"><a xlink:href="../../dc/d8a/classxii_write_accessor_map_property.html" target="_top" xlink:title=" ">
<polygon fill="white" stroke="#bfbfbf" points="629,-30 468,-30 468,0 629,0 629,-30"/>
<text text-anchor="start" x="476" y="-18" font-family="Helvetica,sans-Serif" font-size="10.00">xiiWriteAccessorMapProperty</text>
<text text-anchor="middle" x="548.5" y="-7" font-family="Helvetica,sans-Serif" font-size="10.00">&lt; Class, Type, Container &gt;</text>
</a>
</g>
</g>
<!-- Node1&#45;&gt;Node5 -->
<g id="edge4_Node000001_Node000005" class="edge">
<title>Node1&#45;&gt;Node5</title>
<g id="a_edge4_Node000001_Node000005"><a xlink:title=" ">
<path fill="none" stroke="#63b8ff" d="M442.49,-29.48C450.86,-28.33 459.47,-27.14 467.98,-25.97"/>
<polygon fill="#63b8ff" stroke="#63b8ff" points="441.84,-26.04 432.41,-30.87 442.79,-32.98 441.84,-26.04"/>
</a>
</g>
</g>
<!-- Node2 -->
<g id="Node000002" class="node">
<title>Node2</title>
<g id="a_Node000002"><a xlink:href="../../da/d76/classxii_abstract_map_property.html" target="_top" xlink:title="The base class for a property that represents a set of values.">
<polygon fill="white" stroke="#666666" points="277,-48.5 146,-48.5 146,-29.5 277,-29.5 277,-48.5"/>
<text text-anchor="middle" x="211.5" y="-36.5" font-family="Helvetica,sans-Serif" font-size="10.00">xiiAbstractMapProperty</text>
</a>
</g>
</g>
<!-- Node2&#45;&gt;Node1 -->
<g id="edge1_Node000001_Node000002" class="edge">
<title>Node2&#45;&gt;Node1</title>
<g id="a_edge1_Node000001_Node000002"><a xlink:title=" ">
<path fill="none" stroke="#63b8ff" d="M287.19,-39C295.78,-39 304.44,-39 312.77,-39"/>
<polygon fill="#63b8ff" stroke="#63b8ff" points="287.17,-35.5 277.17,-39 287.17,-42.5 287.17,-35.5"/>
</a>
</g>
</g>
<!-- Node3 -->
<g id="Node000003" class="node">
<title>Node3</title>
<g id="a_Node000003"><a xlink:href="../../da/d25/classxii_abstract_property.html" target="_top" xlink:title="This is the base interface for all properties in the reflection system. It provides enough informatio...">
<polygon fill="white" stroke="#666666" points="110,-48.5 0,-48.5 0,-29.5 110,-29.5 110,-48.5"/>
<text text-anchor="middle" x="55" y="-36.5" font-family="Helvetica,sans-Serif" font-size="10.00">xiiAbstractProperty</text>
</a>
</g>
</g>
<!-- Node3&#45;&gt;Node2 -->
<g id="edge2_Node000002_Node000003" class="edge">
<title>Node3&#45;&gt;Node2</title>
<g id="a_edge2_Node000002_Node000003"><a xlink:title=" ">
<path fill="none" stroke="#63b8ff" d="M120.24,-39C128.71,-39 137.4,-39 145.88,-39"/>
<polygon fill="#63b8ff" stroke="#63b8ff" points="120.04,-35.5 110.04,-39 120.04,-42.5 120.04,-35.5"/>
</a>
</g>
</g>
</g>
</svg>
