<?xml version="1.0" encoding="UTF-8" standalone="no"?>
<!DOCTYPE svg PUBLIC "-//W3C//DTD SVG 1.1//EN"
 "http://www.w3.org/Graphics/SVG/1.1/DTD/svg11.dtd">
<!-- Generated by graphviz version 2.43.0 (0)
 -->
<!-- Title: xiiDocumentManager Pages: 1 -->
<!--zoomable 894 -->

<svg id="main" version="1.1" xmlns="http://www.w3.org/2000/svg" xmlns:xlink="http://www.w3.org/1999/xlink" xml:space="preserve" onload="init(evt)">
<style type="text/css"><![CDATA[
.node, .edge {opacity: 0.7;}
.node.selected, .edge.selected {opacity: 1;}
.edge:hover path { stroke: red; }
.edge:hover polygon { stroke: red; fill: red; }
]]></style>

<defs>
  <circle id="rim" cx="0" cy="0" r="7"/>
  <circle id="rim2" cx="0" cy="0" r="3.5"/>
  <g id="zoomPlus">
    <use xlink:href="#rim" fill="#404040"><set attributeName="fill" to="#808080" begin="zoomplus.mouseover" end="zoomplus.mouseout"/></use>
    <path d="M-4,0h8M0,-4v8" fill="none" stroke="white" stroke-width="1.5" pointer-events="none"/>
  </g>
  <g id="zoomMin">
    <use xlink:href="#rim" fill="#404040"><set attributeName="fill" to="#808080" begin="zoomminus.mouseover" end="zoomminus.mouseout"/></use>
    <path d="M-4,0h8" fill="none" stroke="white" stroke-width="1.5" pointer-events="none"/>
  </g>
  <g id="arrowUp" transform="translate(30 24)">
    <use xlink:href="#rim"/>
    <path pointer-events="none" fill="none" stroke="white" stroke-width="1.5" d="M0,-3.0v7 M-2.5,-0.5L0,-3.0L2.5,-0.5"/>
  </g>
  <g id="arrowRight" transform="rotate(90) translate(36 -43)">
    <use xlink:href="#rim"/>
    <path pointer-events="none" fill="none" stroke="white" stroke-width="1.5" d="M0,-3.0v7 M-2.5,-0.5L0,-3.0L2.5,-0.5"/>
  </g>
  <g id="arrowDown" transform="rotate(180) translate(-30 -48)">
    <use xlink:href="#rim"/>
    <path pointer-events="none" fill="none" stroke="white" stroke-width="1.5" d="M0,-3.0v7 M-2.5,-0.5L0,-3.0L2.5,-0.5"/>
  </g>
  <g id="arrowLeft" transform="rotate(270) translate(-36 17)">
    <use xlink:href="#rim"/>
    <path pointer-events="none" fill="none" stroke="white" stroke-width="1.5" d="M0,-3.0v7 M-2.5,-0.5L0,-3.0L2.5,-0.5"/>
  </g>
  <g id="resetDef">
    <use xlink:href="#rim2" fill="#404040"><set attributeName="fill" to="#808080" begin="reset.mouseover" end="reset.mouseout"/></use>
  </g>
</defs>
<script type="application/ecmascript">
var viewWidth = 781;
var viewHeight = 894;
var sectionId = 'dynsection-0';
</script>
<script type="application/ecmascript" xlink:href="../../svg.min.js"/>
<svg id="graph" class="graph">
<g id="viewport">
<title>xiiDocumentManager</title>
<!-- Node1 -->
<g id="Node000001" class="node">
<title>Node1</title>
<g id="a_Node000001"><a xlink:title=" ">
<polygon fill="#999999" stroke="#666666" points="361,-441.5 239,-441.5 239,-422.5 361,-422.5 361,-441.5"/>
<text text-anchor="middle" x="300" y="-429.5" font-family="Helvetica,sans-Serif" font-size="10.00">xiiDocumentManager</text>
</a>
</g>
</g>
<!-- Node4 -->
<g id="Node000004" class="node">
<title>Node4</title>
<g id="a_Node000004"><a xlink:href="../../d4/da4/classxii_asset_document_manager.html" target="_top" xlink:title=" ">
<polygon fill="white" stroke="#bfbfbf" points="546,-441.5 397,-441.5 397,-422.5 546,-422.5 546,-441.5"/>
<text text-anchor="middle" x="471.5" y="-429.5" font-family="Helvetica,sans-Serif" font-size="10.00">xiiAssetDocumentManager</text>
</a>
</g>
</g>
<!-- Node1&#45;&gt;Node4 -->
<g id="edge3_Node000001_Node000004" class="edge">
<title>Node1&#45;&gt;Node4</title>
<g id="a_edge3_Node000001_Node000004"><a xlink:title=" ">
<path fill="none" stroke="#63b8ff" d="M371.36,-432C379.76,-432 388.36,-432 396.8,-432"/>
<polygon fill="#63b8ff" stroke="#63b8ff" points="371.24,-428.5 361.24,-432 371.24,-435.5 371.24,-428.5"/>
</a>
</g>
</g>
<!-- Node2 -->
<g id="Node000002" class="node">
<title>Node2</title>
<g id="a_Node000002"><a xlink:href="../../dc/d71/classxii_reflected_class.html" target="_top" xlink:title="All classes that should be dynamically reflectable, need to be derived from this base class.">
<polygon fill="white" stroke="#666666" points="203,-441.5 102,-441.5 102,-422.5 203,-422.5 203,-441.5"/>
<text text-anchor="middle" x="152.5" y="-429.5" font-family="Helvetica,sans-Serif" font-size="10.00">xiiReflectedClass</text>
</a>
</g>
</g>
<!-- Node2&#45;&gt;Node1 -->
<g id="edge1_Node000001_Node000002" class="edge">
<title>Node2&#45;&gt;Node1</title>
<g id="a_edge1_Node000001_Node000002"><a xlink:title=" ">
<path fill="none" stroke="#63b8ff" d="M213.34,-432C221.81,-432 230.52,-432 239,-432"/>
<polygon fill="#63b8ff" stroke="#63b8ff" points="213.17,-428.5 203.17,-432 213.17,-435.5 213.17,-428.5"/>
</a>
</g>
</g>
<!-- Node3 -->
<g id="Node000003" class="node">
<title>Node3</title>
<g id="a_Node000003"><a xlink:href="../../d2/d38/classxii_no_base.html" target="_top" xlink:title="Dummy type to pass to templates and macros that expect a base type for a class that has no base.">
<polygon fill="white" stroke="#666666" points="66,-441.5 0,-441.5 0,-422.5 66,-422.5 66,-441.5"/>
<text text-anchor="middle" x="33" y="-429.5" font-family="Helvetica,sans-Serif" font-size="10.00">xiiNoBase</text>
</a>
</g>
</g>
<!-- Node3&#45;&gt;Node2 -->
<g id="edge2_Node000002_Node000003" class="edge">
<title>Node3&#45;&gt;Node2</title>
<g id="a_edge2_Node000002_Node000003"><a xlink:title=" ">
<path fill="none" stroke="#63b8ff" d="M76.27,-432C84.54,-432 93.29,-432 101.78,-432"/>
<polygon fill="#63b8ff" stroke="#63b8ff" points="76.11,-428.5 66.11,-432 76.11,-435.5 76.11,-428.5"/>
</a>
</g>
</g>
<!-- Node5 -->
<g id="Node000005" class="node">
<title>Node5</title>
<g id="a_Node000005"><a xlink:href="../../d3/dfb/classxii_animated_mesh_asset_document_manager.html" target="_top" xlink:title=" ">
<polygon fill="white" stroke="#bfbfbf" points="767,-886 588,-886 588,-856 767,-856 767,-886"/>
<text text-anchor="start" x="596" y="-874" font-family="Helvetica,sans-Serif" font-size="10.00">xiiAnimatedMeshAssetDocument</text>
<text text-anchor="middle" x="677.5" y="-863" font-family="Helvetica,sans-Serif" font-size="10.00">Manager</text>
</a>
</g>
</g>
<!-- Node4&#45;&gt;Node5 -->
<g id="edge4_Node000004_Node000005" class="edge">
<title>Node4&#45;&gt;Node5</title>
<g id="a_edge4_Node000004_Node000005"><a xlink:title=" ">
<path fill="none" stroke="#63b8ff" d="M475.03,-451.65C485.02,-526.1 523.97,-789.51 582,-847 585.37,-850.34 589.13,-853.23 593.16,-855.74"/>
<polygon fill="#63b8ff" stroke="#63b8ff" points="478.5,-451.19 473.73,-441.73 471.56,-452.11 478.5,-451.19"/>
</a>
</g>
</g>
<!-- Node6 -->
<g id="Node000006" class="node">
<title>Node6</title>
<g id="a_Node000006"><a xlink:href="../../d1/d74/classxii_animation_clip_asset_document_manager.html" target="_top" xlink:title=" ">
<polygon fill="white" stroke="#bfbfbf" points="765,-838 590,-838 590,-808 765,-808 765,-838"/>
<text text-anchor="start" x="598" y="-826" font-family="Helvetica,sans-Serif" font-size="10.00">xiiAnimationClipAssetDocument</text>
<text text-anchor="middle" x="677.5" y="-815" font-family="Helvetica,sans-Serif" font-size="10.00">Manager</text>
</a>
</g>
</g>
<!-- Node4&#45;&gt;Node6 -->
<g id="edge5_Node000004_Node000006" class="edge">
<title>Node4&#45;&gt;Node6</title>
<g id="a_edge5_Node000004_Node000006"><a xlink:title=" ">
<path fill="none" stroke="#63b8ff" d="M472.08,-451.87C471.92,-513.21 480.14,-701.26 582,-799 585.54,-802.4 589.49,-805.34 593.72,-807.87"/>
<polygon fill="#63b8ff" stroke="#63b8ff" points="475.58,-451.69 472.19,-441.65 468.58,-451.61 475.58,-451.69"/>
</a>
</g>
</g>
<!-- Node7 -->
<g id="Node000007" class="node">
<title>Node7</title>
<g id="a_Node000007"><a xlink:href="../../dd/daf/classxii_animation_graph_asset_manager.html" target="_top" xlink:title=" ">
<polygon fill="white" stroke="#bfbfbf" points="766.5,-789.5 588.5,-789.5 588.5,-770.5 766.5,-770.5 766.5,-789.5"/>
<text text-anchor="middle" x="677.5" y="-777.5" font-family="Helvetica,sans-Serif" font-size="10.00">xiiAnimationGraphAssetManager</text>
</a>
</g>
</g>
<!-- Node4&#45;&gt;Node7 -->
<g id="edge6_Node000004_Node000007" class="edge">
<title>Node4&#45;&gt;Node7</title>
<g id="a_edge6_Node000004_Node000007"><a xlink:title=" ">
<path fill="none" stroke="#63b8ff" d="M472.66,-451.91C474.28,-509.47 487.28,-677.26 582,-761 586.26,-764.77 591.06,-767.87 596.17,-770.42"/>
<polygon fill="#63b8ff" stroke="#63b8ff" points="476.16,-451.58 472.47,-441.65 469.16,-451.72 476.16,-451.58"/>
</a>
</g>
</g>
<!-- Node8 -->
<g id="Node000008" class="node">
<title>Node8</title>
<g id="a_Node000008"><a xlink:href="../../d3/dfd/classxii_blackboard_template_asset_document_manager.html" target="_top" xlink:title=" ">
<polygon fill="white" stroke="#bfbfbf" points="755,-752 600,-752 600,-722 755,-722 755,-752"/>
<text text-anchor="start" x="608" y="-740" font-family="Helvetica,sans-Serif" font-size="10.00">xiiBlackboardTemplateAsset</text>
<text text-anchor="middle" x="677.5" y="-729" font-family="Helvetica,sans-Serif" font-size="10.00">DocumentManager</text>
</a>
</g>
</g>
<!-- Node4&#45;&gt;Node8 -->
<g id="edge7_Node000004_Node000008" class="edge">
<title>Node4&#45;&gt;Node8</title>
<g id="a_edge7_Node000004_Node000008"><a xlink:title=" ">
<path fill="none" stroke="#63b8ff" d="M474.16,-451.85C479.55,-503.24 501.22,-641.59 582,-713 587.33,-717.71 593.45,-721.52 599.96,-724.6"/>
<polygon fill="#63b8ff" stroke="#63b8ff" points="477.63,-451.37 473.2,-441.75 470.66,-452.04 477.63,-451.37"/>
</a>
</g>
</g>
<!-- Node9 -->
<g id="Node000009" class="node">
<title>Node9</title>
<g id="a_Node000009"><a xlink:href="../../dc/da0/classxii_collection_asset_document_manager.html" target="_top" xlink:title=" ">
<polygon fill="white" stroke="#bfbfbf" points="755,-704 600,-704 600,-674 755,-674 755,-704"/>
<text text-anchor="start" x="608" y="-692" font-family="Helvetica,sans-Serif" font-size="10.00">xiiCollectionAssetDocument</text>
<text text-anchor="middle" x="677.5" y="-681" font-family="Helvetica,sans-Serif" font-size="10.00">Manager</text>
</a>
</g>
</g>
<!-- Node4&#45;&gt;Node9 -->
<g id="edge8_Node000004_Node000009" class="edge">
<title>Node4&#45;&gt;Node9</title>
<g id="a_edge8_Node000004_Node000009"><a xlink:title=" ">
<path fill="none" stroke="#63b8ff" d="M475.9,-451.74C484.74,-496.82 512.73,-607.82 582,-665 587.35,-669.42 593.41,-673.04 599.82,-676"/>
<polygon fill="#63b8ff" stroke="#63b8ff" points="479.32,-450.97 474.05,-441.78 472.44,-452.25 479.32,-450.97"/>
</a>
</g>
</g>
<!-- Node10 -->
<g id="Node000010" class="node">
<title>Node10</title>
<g id="a_Node000010"><a xlink:href="../../d7/d74/classxii_color_gradient_asset_document_manager.html" target="_top" xlink:title=" ">
<polygon fill="white" stroke="#bfbfbf" points="764,-656 591,-656 591,-626 764,-626 764,-656"/>
<text text-anchor="start" x="599" y="-644" font-family="Helvetica,sans-Serif" font-size="10.00">xiiColorGradientAssetDocument</text>
<text text-anchor="middle" x="677.5" y="-633" font-family="Helvetica,sans-Serif" font-size="10.00">Manager</text>
</a>
</g>
</g>
<!-- Node4&#45;&gt;Node10 -->
<g id="edge9_Node000004_Node000010" class="edge">
<title>Node4&#45;&gt;Node10</title>
<g id="a_edge9_Node000004_Node000010"><a xlink:title=" ">
<path fill="none" stroke="#63b8ff" d="M478.48,-451.74C491.09,-489.86 524.07,-573.64 582,-617 586.61,-620.45 591.66,-623.4 596.95,-625.94"/>
<polygon fill="#63b8ff" stroke="#63b8ff" points="481.71,-450.34 475.34,-441.87 475.04,-452.46 481.71,-450.34"/>
</a>
</g>
</g>
<!-- Node11 -->
<g id="Node000011" class="node">
<title>Node11</title>
<g id="a_Node000011"><a xlink:href="../../db/d16/classxii_curve1_d_asset_document_manager.html" target="_top" xlink:title=" ">
<polygon fill="white" stroke="#bfbfbf" points="773,-607.5 582,-607.5 582,-588.5 773,-588.5 773,-607.5"/>
<text text-anchor="middle" x="677.5" y="-595.5" font-family="Helvetica,sans-Serif" font-size="10.00">xiiCurve1DAssetDocumentManager</text>
</a>
</g>
</g>
<!-- Node4&#45;&gt;Node11 -->
<g id="edge10_Node000004_Node000011" class="edge">
<title>Node4&#45;&gt;Node11</title>
<g id="a_edge10_Node000004_Node000011"><a xlink:title=" ">
<path fill="none" stroke="#63b8ff" d="M480.66,-450.71C495.7,-482.79 530.96,-547.93 582,-580 587.37,-583.38 593.23,-586.15 599.32,-588.42"/>
<polygon fill="#63b8ff" stroke="#63b8ff" points="483.82,-449.2 476.5,-441.54 477.45,-452.09 483.82,-449.2"/>
</a>
</g>
</g>
<!-- Node12 -->
<g id="Node000012" class="node">
<title>Node12</title>
<g id="a_Node000012"><a xlink:href="../../dc/d33/classxii_decal_asset_document_manager.html" target="_top" xlink:title=" ">
<polygon fill="white" stroke="#bfbfbf" points="765.5,-570.5 589.5,-570.5 589.5,-551.5 765.5,-551.5 765.5,-570.5"/>
<text text-anchor="middle" x="677.5" y="-558.5" font-family="Helvetica,sans-Serif" font-size="10.00">xiiDecalAssetDocumentManager</text>
</a>
</g>
</g>
<!-- Node4&#45;&gt;Node12 -->
<g id="edge11_Node000004_Node000012" class="edge">
<title>Node4&#45;&gt;Node12</title>
<g id="a_edge11_Node000004_Node000012"><a xlink:title=" ">
<path fill="none" stroke="#63b8ff" d="M484.72,-449.67C502.9,-474.48 539.51,-519.17 582,-542 589.22,-545.88 597.14,-548.97 605.23,-551.43"/>
<polygon fill="#63b8ff" stroke="#63b8ff" points="487.55,-447.6 478.88,-441.5 481.85,-451.67 487.55,-447.6"/>
</a>
</g>
</g>
<!-- Node13 -->
<g id="Node000013" class="node">
<title>Node13</title>
<g id="a_Node000013"><a xlink:href="../../de/db6/classxii_image_data_asset_document_manager.html" target="_top" xlink:title=" ">
<polygon fill="white" stroke="#bfbfbf" points="757.5,-533 597.5,-533 597.5,-503 757.5,-503 757.5,-533"/>
<text text-anchor="start" x="605.5" y="-521" font-family="Helvetica,sans-Serif" font-size="10.00">xiiImageDataAssetDocument</text>
<text text-anchor="middle" x="677.5" y="-510" font-family="Helvetica,sans-Serif" font-size="10.00">Manager</text>
</a>
</g>
</g>
<!-- Node4&#45;&gt;Node13 -->
<g id="edge12_Node000004_Node000013" class="edge">
<title>Node4&#45;&gt;Node13</title>
<g id="a_edge12_Node000004_Node000013"><a xlink:title=" ">
<path fill="none" stroke="#63b8ff" d="M495.2,-447.24C516.74,-461.12 550.43,-481.32 582,-494 590.32,-497.34 599.25,-500.33 608.18,-502.97"/>
<polygon fill="#63b8ff" stroke="#63b8ff" points="497.04,-444.26 486.75,-441.72 493.21,-450.12 497.04,-444.26"/>
</a>
</g>
</g>
<!-- Node14 -->
<g id="Node000014" class="node">
<title>Node14</title>
<g id="a_Node000014"><a xlink:href="../../d8/d9a/classxii_l_u_t_asset_document_manager.html" target="_top" xlink:title=" ">
<polygon fill="white" stroke="#bfbfbf" points="761,-484.5 594,-484.5 594,-465.5 761,-465.5 761,-484.5"/>
<text text-anchor="middle" x="677.5" y="-472.5" font-family="Helvetica,sans-Serif" font-size="10.00">xiiLUTAssetDocumentManager</text>
</a>
</g>
</g>
<!-- Node4&#45;&gt;Node14 -->
<g id="edge13_Node000004_Node000014" class="edge">
<title>Node4&#45;&gt;Node14</title>
<g id="a_edge13_Node000004_Node000014"><a xlink:title=" ">
<path fill="none" stroke="#63b8ff" d="M524.89,-443.68C542.97,-447.65 563.36,-452.08 582,-456 597.07,-459.17 613.51,-462.51 628.39,-465.5"/>
<polygon fill="#63b8ff" stroke="#63b8ff" points="525.62,-440.25 515.1,-441.52 524.12,-447.09 525.62,-440.25"/>
</a>
</g>
</g>
<!-- Node15 -->
<g id="Node000015" class="node">
<title>Node15</title>
<g id="a_Node000015"><a xlink:href="../../d0/dc1/classxii_material_asset_document_manager.html" target="_top" xlink:title=" ">
<polygon fill="white" stroke="#bfbfbf" points="750.5,-447 604.5,-447 604.5,-417 750.5,-417 750.5,-447"/>
<text text-anchor="start" x="612.5" y="-435" font-family="Helvetica,sans-Serif" font-size="10.00">xiiMaterialAssetDocument</text>
<text text-anchor="middle" x="677.5" y="-424" font-family="Helvetica,sans-Serif" font-size="10.00">Manager</text>
</a>
</g>
</g>
<!-- Node4&#45;&gt;Node15 -->
<g id="edge14_Node000004_Node000015" class="edge">
<title>Node4&#45;&gt;Node15</title>
<g id="a_edge14_Node000004_Node000015"><a xlink:title=" ">
<path fill="none" stroke="#63b8ff" d="M556.48,-432C572.36,-432 588.85,-432 604.33,-432"/>
<polygon fill="#63b8ff" stroke="#63b8ff" points="556.15,-428.5 546.15,-432 556.15,-435.5 556.15,-428.5"/>
</a>
</g>
</g>
<!-- Node16 -->
<g id="Node000016" class="node">
<title>Node16</title>
<g id="a_Node000016"><a xlink:href="../../d9/d50/classxii_mesh_asset_document_manager.html" target="_top" xlink:title=" ">
<polygon fill="white" stroke="#bfbfbf" points="765,-398.5 590,-398.5 590,-379.5 765,-379.5 765,-398.5"/>
<text text-anchor="middle" x="677.5" y="-386.5" font-family="Helvetica,sans-Serif" font-size="10.00">xiiMeshAssetDocumentManager</text>
</a>
</g>
</g>
<!-- Node4&#45;&gt;Node16 -->
<g id="edge15_Node000004_Node000016" class="edge">
<title>Node4&#45;&gt;Node16</title>
<g id="a_edge15_Node000004_Node000016"><a xlink:title=" ">
<path fill="none" stroke="#63b8ff" d="M524.89,-420.32C542.97,-416.35 563.36,-411.92 582,-408 597.07,-404.83 613.51,-401.49 628.39,-398.5"/>
<polygon fill="#63b8ff" stroke="#63b8ff" points="524.12,-416.91 515.1,-422.48 525.62,-423.75 524.12,-416.91"/>
</a>
</g>
</g>
<!-- Node17 -->
<g id="Node000017" class="node">
<title>Node17</title>
<g id="a_Node000017"><a xlink:href="../../d8/d10/classxii_property_anim_asset_document_manager.html" target="_top" xlink:title=" ">
<polygon fill="white" stroke="#bfbfbf" points="764,-361 591,-361 591,-331 764,-331 764,-361"/>
<text text-anchor="start" x="599" y="-349" font-family="Helvetica,sans-Serif" font-size="10.00">xiiPropertyAnimAssetDocument</text>
<text text-anchor="middle" x="677.5" y="-338" font-family="Helvetica,sans-Serif" font-size="10.00">Manager</text>
</a>
</g>
</g>
<!-- Node4&#45;&gt;Node17 -->
<g id="edge16_Node000004_Node000017" class="edge">
<title>Node4&#45;&gt;Node17</title>
<g id="a_edge16_Node000004_Node000017"><a xlink:title=" ">
<path fill="none" stroke="#63b8ff" d="M495.2,-416.76C516.74,-402.88 550.43,-382.68 582,-370 590.32,-366.66 599.25,-363.67 608.18,-361.03"/>
<polygon fill="#63b8ff" stroke="#63b8ff" points="493.21,-413.88 486.75,-422.28 497.04,-419.74 493.21,-413.88"/>
</a>
</g>
</g>
<!-- Node18 -->
<g id="Node000018" class="node">
<title>Node18</title>
<g id="a_Node000018"><a xlink:href="../../d6/d43/classxii_render_pipeline_asset_manager.html" target="_top" xlink:title=" ">
<polygon fill="white" stroke="#bfbfbf" points="763.5,-312.5 591.5,-312.5 591.5,-293.5 763.5,-293.5 763.5,-312.5"/>
<text text-anchor="middle" x="677.5" y="-300.5" font-family="Helvetica,sans-Serif" font-size="10.00">xiiRenderPipelineAssetManager</text>
</a>
</g>
</g>
<!-- Node4&#45;&gt;Node18 -->
<g id="edge17_Node000004_Node000018" class="edge">
<title>Node4&#45;&gt;Node18</title>
<g id="a_edge17_Node000004_Node000018"><a xlink:title=" ">
<path fill="none" stroke="#63b8ff" d="M484.72,-414.33C502.9,-389.52 539.51,-344.83 582,-322 589.22,-318.12 597.14,-315.03 605.23,-312.57"/>
<polygon fill="#63b8ff" stroke="#63b8ff" points="481.85,-412.33 478.88,-422.5 487.55,-416.4 481.85,-412.33"/>
</a>
</g>
</g>
<!-- Node19 -->
<g id="Node000019" class="node">
<title>Node19</title>
<g id="a_Node000019"><a xlink:href="../../db/db4/classxii_scene_document_manager.html" target="_top" xlink:title=" ">
<polygon fill="white" stroke="#bfbfbf" points="753,-275.5 602,-275.5 602,-256.5 753,-256.5 753,-275.5"/>
<text text-anchor="middle" x="677.5" y="-263.5" font-family="Helvetica,sans-Serif" font-size="10.00">xiiSceneDocumentManager</text>
</a>
</g>
</g>
<!-- Node4&#45;&gt;Node19 -->
<g id="edge18_Node000004_Node000019" class="edge">
<title>Node4&#45;&gt;Node19</title>
<g id="a_edge18_Node000004_Node000019"><a xlink:title=" ">
<path fill="none" stroke="#63b8ff" d="M480.66,-413.29C495.7,-381.21 530.96,-316.07 582,-284 588.08,-280.18 594.78,-277.13 601.73,-274.71"/>
<polygon fill="#63b8ff" stroke="#63b8ff" points="477.45,-411.91 476.5,-422.46 483.82,-414.8 477.45,-411.91"/>
</a>
</g>
</g>
<!-- Node20 -->
<g id="Node000020" class="node">
<title>Node20</title>
<g id="a_Node000020"><a xlink:href="../../d2/d6c/classxii_skeleton_asset_document_manager.html" target="_top" xlink:title=" ">
<polygon fill="white" stroke="#bfbfbf" points="751.5,-238 603.5,-238 603.5,-208 751.5,-208 751.5,-238"/>
<text text-anchor="start" x="611.5" y="-226" font-family="Helvetica,sans-Serif" font-size="10.00">xiiSkeletonAssetDocument</text>
<text text-anchor="middle" x="677.5" y="-215" font-family="Helvetica,sans-Serif" font-size="10.00">Manager</text>
</a>
</g>
</g>
<!-- Node4&#45;&gt;Node20 -->
<g id="edge19_Node000004_Node000020" class="edge">
<title>Node4&#45;&gt;Node20</title>
<g id="a_edge19_Node000004_Node000020"><a xlink:title=" ">
<path fill="none" stroke="#63b8ff" d="M478.48,-412.26C491.09,-374.14 524.07,-290.36 582,-247 588.37,-242.23 595.58,-238.41 603.12,-235.34"/>
<polygon fill="#63b8ff" stroke="#63b8ff" points="475.04,-411.54 475.34,-422.13 481.71,-413.66 475.04,-411.54"/>
</a>
</g>
</g>
<!-- Node21 -->
<g id="Node000021" class="node">
<title>Node21</title>
<g id="a_Node000021"><a xlink:href="../../d4/dbc/classxii_state_machine_asset_manager.html" target="_top" xlink:title=" ">
<polygon fill="white" stroke="#bfbfbf" points="760,-189.5 595,-189.5 595,-170.5 760,-170.5 760,-189.5"/>
<text text-anchor="middle" x="677.5" y="-177.5" font-family="Helvetica,sans-Serif" font-size="10.00">xiiStateMachineAssetManager</text>
</a>
</g>
</g>
<!-- Node4&#45;&gt;Node21 -->
<g id="edge20_Node000004_Node000021" class="edge">
<title>Node4&#45;&gt;Node21</title>
<g id="a_edge20_Node000004_Node000021"><a xlink:title=" ">
<path fill="none" stroke="#63b8ff" d="M475.71,-412.01C484.13,-366.42 511.31,-254.42 582,-199 586.87,-195.18 592.31,-192.07 598.05,-189.54"/>
<polygon fill="#63b8ff" stroke="#63b8ff" points="472.22,-411.65 473.95,-422.1 479.11,-412.84 472.22,-411.65"/>
</a>
</g>
</g>
<!-- Node22 -->
<g id="Node000022" class="node">
<title>Node22</title>
<g id="a_Node000022"><a xlink:href="../../dd/d25/classxii_surface_asset_document_manager.html" target="_top" xlink:title=" ">
<polygon fill="white" stroke="#bfbfbf" points="770,-152.5 585,-152.5 585,-133.5 770,-133.5 770,-152.5"/>
<text text-anchor="middle" x="677.5" y="-140.5" font-family="Helvetica,sans-Serif" font-size="10.00">xiiSurfaceAssetDocumentManager</text>
</a>
</g>
</g>
<!-- Node4&#45;&gt;Node22 -->
<g id="edge21_Node000004_Node000022" class="edge">
<title>Node4&#45;&gt;Node22</title>
<g id="a_edge21_Node000004_Node000022"><a xlink:title=" ">
<path fill="none" stroke="#63b8ff" d="M474.19,-412.24C479.65,-361.73 501.41,-227.17 582,-161 586,-157.71 590.42,-154.96 595.09,-152.66"/>
<polygon fill="#63b8ff" stroke="#63b8ff" points="470.69,-412.15 473.2,-422.45 477.65,-412.84 470.69,-412.15"/>
</a>
</g>
</g>
<!-- Node23 -->
<g id="Node000023" class="node">
<title>Node23</title>
<g id="a_Node000023"><a xlink:href="../../d0/d59/classxii_texture_asset_document_manager.html" target="_top" xlink:title=" ">
<polygon fill="white" stroke="#bfbfbf" points="770,-115.5 585,-115.5 585,-96.5 770,-96.5 770,-115.5"/>
<text text-anchor="middle" x="677.5" y="-103.5" font-family="Helvetica,sans-Serif" font-size="10.00">xiiTextureAssetDocumentManager</text>
</a>
</g>
</g>
<!-- Node4&#45;&gt;Node23 -->
<g id="edge22_Node000004_Node000023" class="edge">
<title>Node4&#45;&gt;Node23</title>
<g id="a_edge22_Node000004_Node000023"><a xlink:title=" ">
<path fill="none" stroke="#63b8ff" d="M473.13,-412.2C476,-357.12 492.1,-201.07 582,-124 585.8,-120.74 590.01,-118 594.48,-115.69"/>
<polygon fill="#63b8ff" stroke="#63b8ff" points="469.62,-412.22 472.69,-422.36 476.62,-412.52 469.62,-412.22"/>
</a>
</g>
</g>
<!-- Node24 -->
<g id="Node000024" class="node">
<title>Node24</title>
<g id="a_Node000024"><a xlink:href="../../de/d79/classxii_texture_cube_asset_document_manager.html" target="_top" xlink:title=" ">
<polygon fill="white" stroke="#bfbfbf" points="761,-78 594,-78 594,-48 761,-48 761,-78"/>
<text text-anchor="start" x="602" y="-66" font-family="Helvetica,sans-Serif" font-size="10.00">xiiTextureCubeAssetDocument</text>
<text text-anchor="middle" x="677.5" y="-55" font-family="Helvetica,sans-Serif" font-size="10.00">Manager</text>
</a>
</g>
</g>
<!-- Node4&#45;&gt;Node24 -->
<g id="edge23_Node000004_Node000024" class="edge">
<title>Node4&#45;&gt;Node24</title>
<g id="a_edge23_Node000004_Node000024"><a xlink:title=" ">
<path fill="none" stroke="#63b8ff" d="M472.52,-412.15C473.71,-353.25 485.56,-177.94 582,-87 585.57,-83.63 589.55,-80.72 593.79,-78.2"/>
<polygon fill="#63b8ff" stroke="#63b8ff" points="469.02,-412.28 472.4,-422.32 476.02,-412.36 469.02,-412.28"/>
</a>
</g>
</g>
<!-- Node25 -->
<g id="Node000025" class="node">
<title>Node25</title>
<g id="a_Node000025"><a xlink:href="../../d7/d16/classxii_visual_script_class_asset_manager.html" target="_top" xlink:title=" ">
<polygon fill="white" stroke="#bfbfbf" points="747.5,-30 607.5,-30 607.5,0 747.5,0 747.5,-30"/>
<text text-anchor="start" x="615.5" y="-18" font-family="Helvetica,sans-Serif" font-size="10.00">xiiVisualScriptClassAsset</text>
<text text-anchor="middle" x="677.5" y="-7" font-family="Helvetica,sans-Serif" font-size="10.00">Manager</text>
</a>
</g>
</g>
<!-- Node4&#45;&gt;Node25 -->
<g id="edge24_Node000004_Node000025" class="edge">
<title>Node4&#45;&gt;Node25</title>
<g id="a_edge24_Node000004_Node000025"><a xlink:title=" ">
<path fill="none" stroke="#63b8ff" d="M475.32,-412.48C486.08,-340.73 526.7,-93.04 582,-39 589.14,-32.02 598.01,-26.98 607.43,-23.36"/>
<polygon fill="#63b8ff" stroke="#63b8ff" points="471.85,-412.02 473.86,-422.42 478.78,-413.04 471.85,-412.02"/>
</a>
</g>
</g>
</g>
</svg>

<g id="navigator" transform="translate(0 0)" fill="#404254">
  <rect fill="#f2f5e9" fill-opacity="0.5" stroke="#606060" stroke-width=".5" x="0" y="0" width="60" height="60"/>
  <use id="zoomplus" xlink:href="#zoomPlus" x="17" y="9" onmousedown="handleZoom(evt,'in')"/>
  <use id="zoomminus" xlink:href="#zoomMin" x="42" y="9" onmousedown="handleZoom(evt,'out')"/>
  <use id="reset" xlink:href="#resetDef" x="30" y="36" onmousedown="handleReset()"/>
   <use id="arrowup" xlink:href="#arrowUp" x="0" y="0" onmousedown="handlePan(0,-1)"/>
  <use id="arrowright" xlink:href="#arrowRight" x="0" y="0" onmousedown="handlePan(1,0)"/>
  <use id="arrowdown" xlink:href="#arrowDown" x="0" y="0" onmousedown="handlePan(0,1)"/>
  <use id="arrowleft" xlink:href="#arrowLeft" x="0" y="0" onmousedown="handlePan(-1,0)"/>
</g>
<svg viewBox="0 0 15 15" width="100%" height="30px" preserveAspectRatio="xMaxYMin meet">
 <g id="arrow_out" transform="scale(0.3 0.3)">
  <a xlink:href="classxii_document_manager__inherit__graph_org.svg" target="_base">
   <rect id="button" ry="5" rx="5" y="6" x="6" height="38" width="38"
        fill="#f2f5e9" fill-opacity="0.5" stroke="#606060" stroke-width="1.0"/>
   <path id="arrow"
     d="M 11.500037,31.436501 C 11.940474,20.09759 22.043105,11.32322 32.158766,21.979434 L 37.068811,17.246167 C 37.068811,17.246167 37.088388,32 37.088388,32 L 22.160133,31.978069 C 22.160133,31.978069 26.997745,27.140456 26.997745,27.140456 C 18.528582,18.264221 13.291696,25.230495 11.500037,31.436501 z"
     style="fill:#404040;"/>
  </a>
 </g>
</svg>

<style type='text/css'>
<![CDATA[
[data-mouse-over-selected='false'] { opacity: 0.7; }
[data-mouse-over-selected='true']  { opacity: 1.0; }
]]>
</style>
<script type="application/ecmascript"><![CDATA[
document.addEventListener('DOMContentLoaded', (event) => {
  highlightEdges();
  highlightAdjacentNodes();
});
]]></script>
</svg>
