<?xml version="1.0" encoding="UTF-8" standalone="no"?>
<!DOCTYPE svg PUBLIC "-//W3C//DTD SVG 1.1//EN"
 "http://www.w3.org/Graphics/SVG/1.1/DTD/svg11.dtd">
<!-- Generated by graphviz version 2.43.0 (0)
 -->
<!-- Title: xiiQtModifiedDocumentsDlg Pages: 1 -->
<svg width="183pt" height="84pt"
 viewBox="0.00 0.00 183.00 84.00" xmlns="http://www.w3.org/2000/svg" xmlns:xlink="http://www.w3.org/1999/xlink">
<g id="graph0" class="graph" transform="scale(1 1) rotate(0) translate(4 80)">
<title>xiiQtModifiedDocumentsDlg</title>
<polygon fill="white" stroke="transparent" points="-4,4 -4,-80 179,-80 179,4 -4,4"/>
<!-- Node1 -->
<g id="node1" class="node">
<title>Node1</title>
<g id="a_node1"><a xlink:title=" ">
<polygon fill="#bfbfbf" stroke="black" points="0,-0.5 0,-19.5 154,-19.5 154,-0.5 0,-0.5"/>
<text text-anchor="middle" x="77" y="-7.5" font-family="Helvetica,sans-Serif" font-size="10.00">xiiQtModifiedDocumentsDlg</text>
</a>
</g>
</g>
<!-- Node2 -->
<g id="node2" class="node">
<title>Node2</title>
<g id="a_node2"><a xlink:title=" ">
<polygon fill="white" stroke="#bfbfbf" points="1,-56.5 1,-75.5 57,-75.5 57,-56.5 1,-56.5"/>
<text text-anchor="middle" x="29" y="-63.5" font-family="Helvetica,sans-Serif" font-size="10.00">QDialog</text>
</a>
</g>
</g>
<!-- Node2&#45;&gt;Node1 -->
<g id="edge1" class="edge">
<title>Node2&#45;&gt;Node1</title>
<path fill="none" stroke="midnightblue" d="M43.73,-48.43C52.14,-38.97 62.35,-27.48 69.22,-19.75"/>
<polygon fill="midnightblue" stroke="midnightblue" points="40.95,-46.28 36.93,-56.08 46.19,-50.93 40.95,-46.28"/>
</g>
<!-- Node3 -->
<g id="node3" class="node">
<title>Node3</title>
<g id="a_node3"><a xlink:title=" ">
<polygon fill="white" stroke="#bfbfbf" points="75,-56.5 75,-75.5 175,-75.5 175,-56.5 75,-56.5"/>
<text text-anchor="middle" x="125" y="-63.5" font-family="Helvetica,sans-Serif" font-size="10.00">Ui_DocumentList</text>
</a>
</g>
</g>
<!-- Node3&#45;&gt;Node1 -->
<g id="edge2" class="edge">
<title>Node3&#45;&gt;Node1</title>
<path fill="none" stroke="midnightblue" d="M110.27,-48.43C101.86,-38.97 91.65,-27.48 84.78,-19.75"/>
<polygon fill="midnightblue" stroke="midnightblue" points="107.81,-50.93 117.07,-56.08 113.05,-46.28 107.81,-50.93"/>
</g>
</g>
</svg>
