<?xml version="1.0" encoding="UTF-8" standalone="no"?>
<!DOCTYPE svg PUBLIC "-//W3C//DTD SVG 1.1//EN"
 "http://www.w3.org/Graphics/SVG/1.1/DTD/svg11.dtd">
<!-- Generated by graphviz version 2.43.0 (0)
 -->
<!-- Title: xiiAbstractMessageHandler Pages: 1 -->
<!--zoomable 156 -->

<svg id="main" version="1.1" xmlns="http://www.w3.org/2000/svg" xmlns:xlink="http://www.w3.org/1999/xlink" xml:space="preserve" onload="init(evt)">
<style type="text/css"><![CDATA[
.node, .edge {opacity: 0.7;}
.node.selected, .edge.selected {opacity: 1;}
.edge:hover path { stroke: red; }
.edge:hover polygon { stroke: red; fill: red; }
]]></style>

<defs>
  <circle id="rim" cx="0" cy="0" r="7"/>
  <circle id="rim2" cx="0" cy="0" r="3.5"/>
  <g id="zoomPlus">
    <use xlink:href="#rim" fill="#404040"><set attributeName="fill" to="#808080" begin="zoomplus.mouseover" end="zoomplus.mouseout"/></use>
    <path d="M-4,0h8M0,-4v8" fill="none" stroke="white" stroke-width="1.5" pointer-events="none"/>
  </g>
  <g id="zoomMin">
    <use xlink:href="#rim" fill="#404040"><set attributeName="fill" to="#808080" begin="zoomminus.mouseover" end="zoomminus.mouseout"/></use>
    <path d="M-4,0h8" fill="none" stroke="white" stroke-width="1.5" pointer-events="none"/>
  </g>
  <g id="arrowUp" transform="translate(30 24)">
    <use xlink:href="#rim"/>
    <path pointer-events="none" fill="none" stroke="white" stroke-width="1.5" d="M0,-3.0v7 M-2.5,-0.5L0,-3.0L2.5,-0.5"/>
  </g>
  <g id="arrowRight" transform="rotate(90) translate(36 -43)">
    <use xlink:href="#rim"/>
    <path pointer-events="none" fill="none" stroke="white" stroke-width="1.5" d="M0,-3.0v7 M-2.5,-0.5L0,-3.0L2.5,-0.5"/>
  </g>
  <g id="arrowDown" transform="rotate(180) translate(-30 -48)">
    <use xlink:href="#rim"/>
    <path pointer-events="none" fill="none" stroke="white" stroke-width="1.5" d="M0,-3.0v7 M-2.5,-0.5L0,-3.0L2.5,-0.5"/>
  </g>
  <g id="arrowLeft" transform="rotate(270) translate(-36 17)">
    <use xlink:href="#rim"/>
    <path pointer-events="none" fill="none" stroke="white" stroke-width="1.5" d="M0,-3.0v7 M-2.5,-0.5L0,-3.0L2.5,-0.5"/>
  </g>
  <g id="resetDef">
    <use xlink:href="#rim2" fill="#404040"><set attributeName="fill" to="#808080" begin="reset.mouseover" end="reset.mouseout"/></use>
  </g>
</defs>
<script type="application/ecmascript">
var viewWidth = 553;
var viewHeight = 156;
var sectionId = 'dynsection-0';
</script>
<script type="application/ecmascript" xlink:href="../../svg.min.js"/>
<svg id="graph" class="graph">
<g id="viewport">
<title>xiiAbstractMessageHandler</title>
<!-- Node1 -->
<g id="Node000001" class="node">
<title>Node1</title>
<g id="a_Node000001"><a xlink:title="The base class for all message handlers that a type provides.">
<polygon fill="#999999" stroke="#666666" points="151,-83 0,-83 0,-64 151,-64 151,-83"/>
<text text-anchor="middle" x="75.5" y="-71" font-family="Helvetica,sans-Serif" font-size="10.00">xiiAbstractMessageHandler</text>
</a>
</g>
</g>
<!-- Node2 -->
<g id="Node000002" class="node">
<title>Node2</title>
<g id="a_Node000002"><a xlink:href="../../dd/db2/classxii_internal_1_1_message_handler_1_1_impl.html" target="_top" xlink:title=" ">
<polygon fill="white" stroke="#bfbfbf" points="341,-148 187,-148 187,-107 341,-107 341,-148"/>
<text text-anchor="start" x="195" y="-136" font-family="Helvetica,sans-Serif" font-size="10.00">xiiInternal::MessageHandler</text>
<text text-anchor="start" x="195" y="-125" font-family="Helvetica,sans-Serif" font-size="10.00">&lt; bIsConst &gt;::Impl&lt; Class,</text>
<text text-anchor="middle" x="264" y="-114" font-family="Helvetica,sans-Serif" font-size="10.00"> MessageType, Method &gt;</text>
</a>
</g>
</g>
<!-- Node1&#45;&gt;Node2 -->
<g id="edge1_Node000001_Node000002" class="edge">
<title>Node1&#45;&gt;Node2</title>
<g id="a_edge1_Node000001_Node000002"><a xlink:title=" ">
<path fill="none" stroke="#63b8ff" d="M119.25,-85.88C140.85,-92.13 167.61,-99.88 192.17,-106.99"/>
<polygon fill="#63b8ff" stroke="#63b8ff" points="119.99,-82.45 109.41,-83.03 118.05,-89.17 119.99,-82.45"/>
</a>
</g>
</g>
<!-- Node3 -->
<g id="Node000003" class="node">
<title>Node3</title>
<g id="a_Node000003"><a xlink:href="../../d4/dbc/classxii_internal_1_1_message_handler_3_01true_01_4_1_1_impl.html" target="_top" xlink:title=" ">
<polygon fill="white" stroke="#bfbfbf" points="341,-88.5 187,-88.5 187,-58.5 341,-58.5 341,-88.5"/>
<text text-anchor="start" x="195" y="-76.5" font-family="Helvetica,sans-Serif" font-size="10.00">xiiInternal::MessageHandler</text>
<text text-anchor="middle" x="264" y="-65.5" font-family="Helvetica,sans-Serif" font-size="10.00">&lt; true &gt;::Impl</text>
</a>
</g>
</g>
<!-- Node1&#45;&gt;Node3 -->
<g id="edge2_Node000001_Node000003" class="edge">
<title>Node1&#45;&gt;Node3</title>
<g id="a_edge2_Node000001_Node000003"><a xlink:title=" ">
<path fill="none" stroke="#63b8ff" d="M161.03,-73.5C169.61,-73.5 178.29,-73.5 186.78,-73.5"/>
<polygon fill="#63b8ff" stroke="#63b8ff" points="161.01,-70 151.01,-73.5 161.01,-77 161.01,-70"/>
</a>
</g>
</g>
<!-- Node4 -->
<g id="Node000004" class="node">
<title>Node4</title>
<g id="a_Node000004"><a xlink:href="../../d7/dda/classxii_script_message_handler.html" target="_top" xlink:title=" ">
<polygon fill="white" stroke="#bfbfbf" points="333,-40 195,-40 195,-21 333,-21 333,-40"/>
<text text-anchor="middle" x="264" y="-28" font-family="Helvetica,sans-Serif" font-size="10.00">xiiScriptMessageHandler</text>
</a>
</g>
</g>
<!-- Node1&#45;&gt;Node4 -->
<g id="edge3_Node000001_Node000004" class="edge">
<title>Node1&#45;&gt;Node4</title>
<g id="a_edge3_Node000001_Node000004"><a xlink:title=" ">
<path fill="none" stroke="#63b8ff" d="M128.02,-61.62C157.54,-54.81 194.1,-46.38 221.73,-40.02"/>
<polygon fill="#63b8ff" stroke="#63b8ff" points="126.85,-58.3 117.89,-63.96 128.42,-65.12 126.85,-58.3"/>
</a>
</g>
</g>
<!-- Node5 -->
<g id="Node000005" class="node">
<title>Node5</title>
<g id="a_Node000005"><a xlink:href="../../db/d31/classxii_script_coroutine_message_handler.html" target="_top" xlink:title="A message handler that creates an instance of the given coroutine type and starts it immediately.">
<polygon fill="white" stroke="#666666" points="534.5,-67.5 387.5,-67.5 387.5,-37.5 534.5,-37.5 534.5,-67.5"/>
<text text-anchor="start" x="395.5" y="-55.5" font-family="Helvetica,sans-Serif" font-size="10.00">xiiScriptCoroutineMessage</text>
<text text-anchor="middle" x="461" y="-44.5" font-family="Helvetica,sans-Serif" font-size="10.00">Handler</text>
</a>
</g>
</g>
<!-- Node4&#45;&gt;Node5 -->
<g id="edge4_Node000004_Node000005" class="edge">
<title>Node4&#45;&gt;Node5</title>
<g id="a_edge4_Node000004_Node000005"><a xlink:title=" ">
<path fill="none" stroke="#63b8ff" d="M343.15,-39.32C357.69,-40.96 372.83,-42.66 387.19,-44.29"/>
<polygon fill="#63b8ff" stroke="#63b8ff" points="343.53,-35.84 333.2,-38.19 342.75,-42.79 343.53,-35.84"/>
</a>
</g>
</g>
<!-- Node6 -->
<g id="Node000006" class="node">
<title>Node6</title>
<g id="a_Node000006"><a xlink:href="../../d2/de5/classxii_visual_script_message_handler.html" target="_top" xlink:title=" ">
<polygon fill="white" stroke="#bfbfbf" points="545,-19 377,-19 377,0 545,0 545,-19"/>
<text text-anchor="middle" x="461" y="-7" font-family="Helvetica,sans-Serif" font-size="10.00">xiiVisualScriptMessageHandler</text>
</a>
</g>
</g>
<!-- Node4&#45;&gt;Node6 -->
<g id="edge5_Node000004_Node000006" class="edge">
<title>Node4&#45;&gt;Node6</title>
<g id="a_edge5_Node000004_Node000006"><a xlink:title=" ">
<path fill="none" stroke="#63b8ff" d="M343.22,-22.08C354.25,-20.89 365.62,-19.66 376.74,-18.47"/>
<polygon fill="#63b8ff" stroke="#63b8ff" points="342.77,-18.6 333.2,-23.16 343.52,-25.56 342.77,-18.6"/>
</a>
</g>
</g>
</g>
</svg>

<g id="navigator" transform="translate(0 0)" fill="#404254">
  <rect fill="#f2f5e9" fill-opacity="0.5" stroke="#606060" stroke-width=".5" x="0" y="0" width="60" height="60"/>
  <use id="zoomplus" xlink:href="#zoomPlus" x="17" y="9" onmousedown="handleZoom(evt,'in')"/>
  <use id="zoomminus" xlink:href="#zoomMin" x="42" y="9" onmousedown="handleZoom(evt,'out')"/>
  <use id="reset" xlink:href="#resetDef" x="30" y="36" onmousedown="handleReset()"/>
   <use id="arrowup" xlink:href="#arrowUp" x="0" y="0" onmousedown="handlePan(0,-1)"/>
  <use id="arrowright" xlink:href="#arrowRight" x="0" y="0" onmousedown="handlePan(1,0)"/>
  <use id="arrowdown" xlink:href="#arrowDown" x="0" y="0" onmousedown="handlePan(0,1)"/>
  <use id="arrowleft" xlink:href="#arrowLeft" x="0" y="0" onmousedown="handlePan(-1,0)"/>
</g>
<svg viewBox="0 0 15 15" width="100%" height="30px" preserveAspectRatio="xMaxYMin meet">
 <g id="arrow_out" transform="scale(0.3 0.3)">
  <a xlink:href="classxii_abstract_message_handler__inherit__graph_org.svg" target="_base">
   <rect id="button" ry="5" rx="5" y="6" x="6" height="38" width="38"
        fill="#f2f5e9" fill-opacity="0.5" stroke="#606060" stroke-width="1.0"/>
   <path id="arrow"
     d="M 11.500037,31.436501 C 11.940474,20.09759 22.043105,11.32322 32.158766,21.979434 L 37.068811,17.246167 C 37.068811,17.246167 37.088388,32 37.088388,32 L 22.160133,31.978069 C 22.160133,31.978069 26.997745,27.140456 26.997745,27.140456 C 18.528582,18.264221 13.291696,25.230495 11.500037,31.436501 z"
     style="fill:#404040;"/>
  </a>
 </g>
</svg>

<style type='text/css'>
<![CDATA[
[data-mouse-over-selected='false'] { opacity: 0.7; }
[data-mouse-over-selected='true']  { opacity: 1.0; }
]]>
</style>
<script type="application/ecmascript"><![CDATA[
document.addEventListener('DOMContentLoaded', (event) => {
  highlightEdges();
  highlightAdjacentNodes();
});
]]></script>
</svg>
