<?xml version="1.0" encoding="UTF-8" standalone="no"?>
<!DOCTYPE svg PUBLIC "-//W3C//DTD SVG 1.1//EN"
 "http://www.w3.org/Graphics/SVG/1.1/DTD/svg11.dtd">
<!-- Generated by graphviz version 2.43.0 (0)
 -->
<!-- Title: xiiMeshAssetDocumentGenerator Pages: 1 -->
<svg width="189pt" height="196pt"
 viewBox="0.00 0.00 189.00 196.00" xmlns="http://www.w3.org/2000/svg" xmlns:xlink="http://www.w3.org/1999/xlink">
<g id="graph0" class="graph" transform="scale(1 1) rotate(0) translate(4 192)">
<title>xiiMeshAssetDocumentGenerator</title>
<polygon fill="white" stroke="transparent" points="-4,4 -4,-192 185,-192 185,4 -4,4"/>
<!-- Node1 -->
<g id="node1" class="node">
<title>Node1</title>
<g id="a_node1"><a xlink:title=" ">
<polygon fill="#bfbfbf" stroke="black" points="0,-0.5 0,-19.5 181,-19.5 181,-0.5 0,-0.5"/>
<text text-anchor="middle" x="90.5" y="-7.5" font-family="Helvetica,sans-Serif" font-size="10.00">xiiMeshAssetDocumentGenerator</text>
</a>
</g>
</g>
<!-- Node2 -->
<g id="node2" class="node">
<title>Node2</title>
<g id="a_node2"><a xlink:href="../../d4/db0/classxii_asset_document_generator.htm" target="_top" xlink:title="Provides functionality for importing files as asset documents.">
<polygon fill="white" stroke="black" points="13,-56.5 13,-75.5 168,-75.5 168,-56.5 13,-56.5"/>
<text text-anchor="middle" x="90.5" y="-63.5" font-family="Helvetica,sans-Serif" font-size="10.00">xiiAssetDocumentGenerator</text>
</a>
</g>
</g>
<!-- Node2&#45;&gt;Node1 -->
<g id="edge1" class="edge">
<title>Node2&#45;&gt;Node1</title>
<path fill="none" stroke="midnightblue" d="M90.5,-45.8C90.5,-36.91 90.5,-26.78 90.5,-19.75"/>
<polygon fill="midnightblue" stroke="midnightblue" points="87,-46.08 90.5,-56.08 94,-46.08 87,-46.08"/>
</g>
<!-- Node3 -->
<g id="node3" class="node">
<title>Node3</title>
<g id="a_node3"><a xlink:href="../../dc/d71/classxii_reflected_class.htm" target="_top" xlink:title="All classes that should be dynamically reflectable, need to be derived from this base class.">
<polygon fill="white" stroke="black" points="40,-112.5 40,-131.5 141,-131.5 141,-112.5 40,-112.5"/>
<text text-anchor="middle" x="90.5" y="-119.5" font-family="Helvetica,sans-Serif" font-size="10.00">xiiReflectedClass</text>
</a>
</g>
</g>
<!-- Node3&#45;&gt;Node2 -->
<g id="edge2" class="edge">
<title>Node3&#45;&gt;Node2</title>
<path fill="none" stroke="midnightblue" d="M90.5,-101.8C90.5,-92.91 90.5,-82.78 90.5,-75.75"/>
<polygon fill="midnightblue" stroke="midnightblue" points="87,-102.08 90.5,-112.08 94,-102.08 87,-102.08"/>
</g>
<!-- Node4 -->
<g id="node4" class="node">
<title>Node4</title>
<g id="a_node4"><a xlink:href="../../d2/d38/classxii_no_base.htm" target="_top" xlink:title="Dummy type to pass to templates and macros that expect a base type for a class that has no base.">
<polygon fill="white" stroke="black" points="57.5,-168.5 57.5,-187.5 123.5,-187.5 123.5,-168.5 57.5,-168.5"/>
<text text-anchor="middle" x="90.5" y="-175.5" font-family="Helvetica,sans-Serif" font-size="10.00">xiiNoBase</text>
</a>
</g>
</g>
<!-- Node4&#45;&gt;Node3 -->
<g id="edge3" class="edge">
<title>Node4&#45;&gt;Node3</title>
<path fill="none" stroke="midnightblue" d="M90.5,-157.8C90.5,-148.91 90.5,-138.78 90.5,-131.75"/>
<polygon fill="midnightblue" stroke="midnightblue" points="87,-158.08 90.5,-168.08 94,-158.08 87,-158.08"/>
</g>
</g>
</svg>
