<?xml version="1.0" encoding="UTF-8" standalone="no"?>
<!DOCTYPE svg PUBLIC "-//W3C//DTD SVG 1.1//EN"
 "http://www.w3.org/Graphics/SVG/1.1/DTD/svg11.dtd">
<!-- Generated by graphviz version 2.43.0 (0)
 -->
<!-- Title: xiiResizeAndSetObjectPropertyCommand Pages: 1 -->
<svg width="176pt" height="207pt"
 viewBox="0.00 0.00 176.00 207.00" xmlns="http://www.w3.org/2000/svg" xmlns:xlink="http://www.w3.org/1999/xlink">
<g id="graph0" class="graph" transform="scale(1 1) rotate(0) translate(4 203)">
<title>xiiResizeAndSetObjectPropertyCommand</title>
<polygon fill="white" stroke="transparent" points="-4,4 -4,-203 172,-203 172,4 -4,4"/>
<!-- Node1 -->
<g id="node1" class="node">
<title>Node1</title>
<g id="a_node1"><a xlink:title=" ">
<polygon fill="#bfbfbf" stroke="black" points="0,-0.5 0,-30.5 168,-30.5 168,-0.5 0,-0.5"/>
<text text-anchor="start" x="8" y="-18.5" font-family="Helvetica,sans-Serif" font-size="10.00">xiiResizeAndSetObjectProperty</text>
<text text-anchor="middle" x="84" y="-7.5" font-family="Helvetica,sans-Serif" font-size="10.00">Command</text>
</a>
</g>
</g>
<!-- Node2 -->
<g id="node2" class="node">
<title>Node2</title>
<g id="a_node2"><a xlink:href="../../dd/d75/classxii_command.htm" target="_top" xlink:title="Interface for a command.">
<polygon fill="white" stroke="black" points="44.5,-67.5 44.5,-86.5 123.5,-86.5 123.5,-67.5 44.5,-67.5"/>
<text text-anchor="middle" x="84" y="-74.5" font-family="Helvetica,sans-Serif" font-size="10.00">xiiCommand</text>
</a>
</g>
</g>
<!-- Node2&#45;&gt;Node1 -->
<g id="edge1" class="edge">
<title>Node2&#45;&gt;Node1</title>
<path fill="none" stroke="midnightblue" d="M84,-57.23C84,-48.59 84,-38.5 84,-30.52"/>
<polygon fill="midnightblue" stroke="midnightblue" points="80.5,-57.48 84,-67.48 87.5,-57.48 80.5,-57.48"/>
</g>
<!-- Node3 -->
<g id="node3" class="node">
<title>Node3</title>
<g id="a_node3"><a xlink:href="../../dc/d71/classxii_reflected_class.htm" target="_top" xlink:title="All classes that should be dynamically reflectable, need to be derived from this base class.">
<polygon fill="white" stroke="black" points="33.5,-123.5 33.5,-142.5 134.5,-142.5 134.5,-123.5 33.5,-123.5"/>
<text text-anchor="middle" x="84" y="-130.5" font-family="Helvetica,sans-Serif" font-size="10.00">xiiReflectedClass</text>
</a>
</g>
</g>
<!-- Node3&#45;&gt;Node2 -->
<g id="edge2" class="edge">
<title>Node3&#45;&gt;Node2</title>
<path fill="none" stroke="midnightblue" d="M84,-112.8C84,-103.91 84,-93.78 84,-86.75"/>
<polygon fill="midnightblue" stroke="midnightblue" points="80.5,-113.08 84,-123.08 87.5,-113.08 80.5,-113.08"/>
</g>
<!-- Node4 -->
<g id="node4" class="node">
<title>Node4</title>
<g id="a_node4"><a xlink:href="../../d2/d38/classxii_no_base.htm" target="_top" xlink:title="Dummy type to pass to templates and macros that expect a base type for a class that has no base.">
<polygon fill="white" stroke="black" points="51,-179.5 51,-198.5 117,-198.5 117,-179.5 51,-179.5"/>
<text text-anchor="middle" x="84" y="-186.5" font-family="Helvetica,sans-Serif" font-size="10.00">xiiNoBase</text>
</a>
</g>
</g>
<!-- Node4&#45;&gt;Node3 -->
<g id="edge3" class="edge">
<title>Node4&#45;&gt;Node3</title>
<path fill="none" stroke="midnightblue" d="M84,-168.8C84,-159.91 84,-149.78 84,-142.75"/>
<polygon fill="midnightblue" stroke="midnightblue" points="80.5,-169.08 84,-179.08 87.5,-169.08 80.5,-169.08"/>
</g>
</g>
</svg>
