<?xml version="1.0" encoding="UTF-8" standalone="no"?>
<!DOCTYPE svg PUBLIC "-//W3C//DTD SVG 1.1//EN"
 "http://www.w3.org/Graphics/SVG/1.1/DTD/svg11.dtd">
<!-- Generated by graphviz version 2.43.0 (0)
 -->
<!-- Title: xiiBitflagsMemberProperty&lt; Class, EnumType, Type &gt; Pages: 1 -->
<svg width="181pt" height="269pt"
 viewBox="0.00 0.00 181.00 269.00" xmlns="http://www.w3.org/2000/svg" xmlns:xlink="http://www.w3.org/1999/xlink">
<g id="graph0" class="graph" transform="scale(1 1) rotate(0) translate(4 265)">
<title>xiiBitflagsMemberProperty&lt; Class, EnumType, Type &gt;</title>
<!-- Node1 -->
<g id="Node000001" class="node">
<title>Node1</title>
<g id="a_Node000001"><a xlink:title="[internal] An implementation of xiiTypedEnumProperty that accesses the bitflags property data directl...">
<polygon fill="#999999" stroke="#666666" points="161.5,-30 11.5,-30 11.5,0 161.5,0 161.5,-30"/>
<text text-anchor="start" x="19.5" y="-18" font-family="Helvetica,sans-Serif" font-size="10.00">xiiBitflagsMemberProperty</text>
<text text-anchor="middle" x="86.5" y="-7" font-family="Helvetica,sans-Serif" font-size="10.00">&lt; Class, EnumType, Type &gt;</text>
</a>
</g>
</g>
<!-- Node2 -->
<g id="Node000002" class="node">
<title>Node2</title>
<g id="a_Node000002"><a xlink:href="../../dc/d9b/classxii_typed_enum_property.htm" target="_top" xlink:title="[internal] Base class for enum / bitflags properties that already defines the type.">
<polygon fill="white" stroke="#666666" points="149.5,-96 23.5,-96 23.5,-66 149.5,-66 149.5,-96"/>
<text text-anchor="start" x="31.5" y="-84" font-family="Helvetica,sans-Serif" font-size="10.00">xiiTypedEnumProperty</text>
<text text-anchor="middle" x="86.5" y="-73" font-family="Helvetica,sans-Serif" font-size="10.00">&lt; EnumType &gt;</text>
</a>
</g>
</g>
<!-- Node2&#45;&gt;Node1 -->
<g id="edge1_Node000001_Node000002" class="edge">
<title>Node2&#45;&gt;Node1</title>
<g id="a_edge1_Node000001_Node000002"><a xlink:title=" ">
<path fill="none" stroke="#63b8ff" d="M86.5,-55.54C86.5,-46.96 86.5,-37.61 86.5,-30.16"/>
<polygon fill="#63b8ff" stroke="#63b8ff" points="83,-55.8 86.5,-65.8 90,-55.8 83,-55.8"/>
</a>
</g>
</g>
<!-- Node3 -->
<g id="Node000003" class="node">
<title>Node3</title>
<g id="a_Node000003"><a xlink:href="../../d6/dfe/classxii_abstract_enumeration_property.htm" target="_top" xlink:title="The base class for enum and bitflags member properties.">
<polygon fill="white" stroke="#666666" points="173,-151 0,-151 0,-132 173,-132 173,-151"/>
<text text-anchor="middle" x="86.5" y="-139" font-family="Helvetica,sans-Serif" font-size="10.00">xiiAbstractEnumerationProperty</text>
</a>
</g>
</g>
<!-- Node3&#45;&gt;Node2 -->
<g id="edge2_Node000002_Node000003" class="edge">
<title>Node3&#45;&gt;Node2</title>
<g id="a_edge2_Node000002_Node000003"><a xlink:title=" ">
<path fill="none" stroke="#63b8ff" d="M86.5,-121.65C86.5,-113.36 86.5,-103.78 86.5,-96.11"/>
<polygon fill="#63b8ff" stroke="#63b8ff" points="83,-121.87 86.5,-131.87 90,-121.87 83,-121.87"/>
</a>
</g>
</g>
<!-- Node4 -->
<g id="Node000004" class="node">
<title>Node4</title>
<g id="a_Node000004"><a xlink:href="../../dd/d67/classxii_abstract_member_property.htm" target="_top" xlink:title="This is the base class for all properties that are members of a class. It provides more information a...">
<polygon fill="white" stroke="#666666" points="162,-206 11,-206 11,-187 162,-187 162,-206"/>
<text text-anchor="middle" x="86.5" y="-194" font-family="Helvetica,sans-Serif" font-size="10.00">xiiAbstractMemberProperty</text>
</a>
</g>
</g>
<!-- Node4&#45;&gt;Node3 -->
<g id="edge3_Node000003_Node000004" class="edge">
<title>Node4&#45;&gt;Node3</title>
<g id="a_edge3_Node000003_Node000004"><a xlink:title=" ">
<path fill="none" stroke="#63b8ff" d="M86.5,-176.66C86.5,-167.93 86.5,-157.99 86.5,-151.09"/>
<polygon fill="#63b8ff" stroke="#63b8ff" points="83,-176.75 86.5,-186.75 90,-176.75 83,-176.75"/>
</a>
</g>
</g>
<!-- Node5 -->
<g id="Node000005" class="node">
<title>Node5</title>
<g id="a_Node000005"><a xlink:href="../../da/d25/classxii_abstract_property.htm" target="_top" xlink:title="This is the base interface for all properties in the reflection system. It provides enough informatio...">
<polygon fill="white" stroke="#666666" points="141.5,-261 31.5,-261 31.5,-242 141.5,-242 141.5,-261"/>
<text text-anchor="middle" x="86.5" y="-249" font-family="Helvetica,sans-Serif" font-size="10.00">xiiAbstractProperty</text>
</a>
</g>
</g>
<!-- Node5&#45;&gt;Node4 -->
<g id="edge4_Node000004_Node000005" class="edge">
<title>Node5&#45;&gt;Node4</title>
<g id="a_edge4_Node000004_Node000005"><a xlink:title=" ">
<path fill="none" stroke="#63b8ff" d="M86.5,-231.66C86.5,-222.93 86.5,-212.99 86.5,-206.09"/>
<polygon fill="#63b8ff" stroke="#63b8ff" points="83,-231.75 86.5,-241.75 90,-231.75 83,-231.75"/>
</a>
</g>
</g>
</g>
</svg>
