<?xml version="1.0" encoding="UTF-8" standalone="no"?>
<!DOCTYPE svg PUBLIC "-//W3C//DTD SVG 1.1//EN"
 "http://www.w3.org/Graphics/SVG/1.1/DTD/svg11.dtd">
<!-- Generated by graphviz version 2.43.0 (0)
 -->
<!-- Title: xiiEngineProcessViewContext Pages: 1 -->
<svg width="369pt" height="372pt"
 viewBox="0.00 0.00 369.00 372.00" xmlns="http://www.w3.org/2000/svg" xmlns:xlink="http://www.w3.org/1999/xlink">

<svg id="main" version="1.1" xmlns="http://www.w3.org/2000/svg" xmlns:xlink="http://www.w3.org/1999/xlink" xml:space="preserve" onload="init(evt)">
<style type="text/css"><![CDATA[
.node, .edge {opacity: 0.7;}
.node.selected, .edge.selected {opacity: 1;}
.edge:hover path { stroke: red; }
.edge:hover polygon { stroke: red; fill: red; }
]]></style>
<script type="application/ecmascript" xlink:href="../../svg.min.js"/>
<svg id="graph" class="graph">
<g id="graph0" class="graph" transform="scale(1 1) rotate(0) translate(4 368)">
<title>xiiEngineProcessViewContext</title>
<!-- Node1 -->
<g id="Node000001" class="node">
<title>Node1</title>
<g id="a_Node000001"><a xlink:title="Represents the view/window on the engine process side, holds all data necessary for rendering.">
<polygon fill="#999999" stroke="#666666" points="161,-194 0,-194 0,-175 161,-175 161,-194"/>
<text text-anchor="middle" x="80.5" y="-182" font-family="Helvetica,sans-Serif" font-size="10.00">xiiEngineProcessViewContext</text>
</a>
</g>
</g>
<!-- Node2 -->
<g id="Node000002" class="node">
<title>Node2</title>
<g id="a_Node000002"><a xlink:href="../../d7/d3d/classxii_animated_mesh_view_context.htm" target="_top" xlink:title=" ">
<polygon fill="white" stroke="#bfbfbf" points="361,-364 197,-364 197,-345 361,-345 361,-364"/>
<text text-anchor="middle" x="279" y="-352" font-family="Helvetica,sans-Serif" font-size="10.00">xiiAnimatedMeshViewContext</text>
</a>
</g>
</g>
<!-- Node1&#45;&gt;Node2 -->
<g id="edge1_Node000001_Node000002" class="edge">
<title>Node1&#45;&gt;Node2</title>
<g id="a_edge1_Node000001_Node000002"><a xlink:title=" ">
<path fill="none" stroke="#63b8ff" d="M90.36,-203.55C106.6,-236.25 144.37,-302.78 197,-336.5 202.34,-339.92 208.23,-342.7 214.34,-344.95"/>
<polygon fill="#63b8ff" stroke="#63b8ff" points="93.35,-201.7 85.85,-194.21 87.05,-204.74 93.35,-201.7"/>
</a>
</g>
</g>
<!-- Node3 -->
<g id="Node000003" class="node">
<title>Node3</title>
<g id="a_Node000003"><a xlink:href="../../d6/d9c/classxii_animation_clip_view_context.htm" target="_top" xlink:title=" ">
<polygon fill="white" stroke="#bfbfbf" points="359,-327 199,-327 199,-308 359,-308 359,-327"/>
<text text-anchor="middle" x="279" y="-315" font-family="Helvetica,sans-Serif" font-size="10.00">xiiAnimationClipViewContext</text>
</a>
</g>
</g>
<!-- Node1&#45;&gt;Node3 -->
<g id="edge2_Node000001_Node000003" class="edge">
<title>Node1&#45;&gt;Node3</title>
<g id="a_edge2_Node000001_Node000003"><a xlink:title=" ">
<path fill="none" stroke="#63b8ff" d="M93.96,-202.12C113.07,-227.76 152.15,-274.94 197,-299.5 203.19,-302.89 209.98,-305.64 216.91,-307.88"/>
<polygon fill="#63b8ff" stroke="#63b8ff" points="96.78,-200.05 88.06,-194.03 91.12,-204.17 96.78,-200.05"/>
</a>
</g>
</g>
<!-- Node4 -->
<g id="Node000004" class="node">
<title>Node4</title>
<g id="a_Node000004"><a xlink:href="../../dc/da3/classxii_decal_view_context.htm" target="_top" xlink:title=" ">
<polygon fill="white" stroke="#bfbfbf" points="338.5,-290 219.5,-290 219.5,-271 338.5,-271 338.5,-290"/>
<text text-anchor="middle" x="279" y="-278" font-family="Helvetica,sans-Serif" font-size="10.00">xiiDecalViewContext</text>
</a>
</g>
</g>
<!-- Node1&#45;&gt;Node4 -->
<g id="edge3_Node000001_Node000004" class="edge">
<title>Node1&#45;&gt;Node4</title>
<g id="a_edge3_Node000001_Node000004"><a xlink:title=" ">
<path fill="none" stroke="#63b8ff" d="M100.27,-200.48C122.11,-218.25 159.92,-246.54 197,-262.5 204.81,-265.86 213.32,-268.63 221.79,-270.9"/>
<polygon fill="#63b8ff" stroke="#63b8ff" points="102.4,-197.7 92.46,-194.02 97.93,-203.09 102.4,-197.7"/>
</a>
</g>
</g>
<!-- Node5 -->
<g id="Node000005" class="node">
<title>Node5</title>
<g id="a_Node000005"><a xlink:href="../../d3/d2e/classxii_material_view_context.htm" target="_top" xlink:title=" ">
<polygon fill="white" stroke="#bfbfbf" points="344.5,-253 213.5,-253 213.5,-234 344.5,-234 344.5,-253"/>
<text text-anchor="middle" x="279" y="-241" font-family="Helvetica,sans-Serif" font-size="10.00">xiiMaterialViewContext</text>
</a>
</g>
</g>
<!-- Node1&#45;&gt;Node5 -->
<g id="edge4_Node000001_Node000005" class="edge">
<title>Node1&#45;&gt;Node5</title>
<g id="a_edge4_Node000001_Node000005"><a xlink:title=" ">
<path fill="none" stroke="#63b8ff" d="M115.13,-197.67C137.98,-206.31 169.03,-217.46 197,-225.5 207.8,-228.6 219.54,-231.49 230.64,-234"/>
<polygon fill="#63b8ff" stroke="#63b8ff" points="116.15,-194.31 105.56,-194.01 113.65,-200.85 116.15,-194.31"/>
</a>
</g>
</g>
<!-- Node6 -->
<g id="Node000006" class="node">
<title>Node6</title>
<g id="a_Node000006"><a xlink:href="../../d6/d41/classxii_mesh_view_context.htm" target="_top" xlink:title=" ">
<polygon fill="white" stroke="#bfbfbf" points="337.5,-216 220.5,-216 220.5,-197 337.5,-197 337.5,-216"/>
<text text-anchor="middle" x="279" y="-204" font-family="Helvetica,sans-Serif" font-size="10.00">xiiMeshViewContext</text>
</a>
</g>
</g>
<!-- Node1&#45;&gt;Node6 -->
<g id="edge5_Node000001_Node000006" class="edge">
<title>Node1&#45;&gt;Node6</title>
<g id="a_edge5_Node000001_Node000006"><a xlink:title=" ">
<path fill="none" stroke="#63b8ff" d="M171.42,-194.57C188.02,-196.43 204.94,-198.32 220.27,-200.04"/>
<polygon fill="#63b8ff" stroke="#63b8ff" points="171.47,-191.05 161.14,-193.42 170.69,-198.01 171.47,-191.05"/>
</a>
</g>
</g>
<!-- Node7 -->
<g id="Node000007" class="node">
<title>Node7</title>
<g id="a_Node000007"><a xlink:href="../../d3/d5d/classxii_remote_engine_process_view_context.htm" target="_top" xlink:title=" ">
<polygon fill="white" stroke="#bfbfbf" points="359.5,-178.5 198.5,-178.5 198.5,-148.5 359.5,-148.5 359.5,-178.5"/>
<text text-anchor="start" x="206.5" y="-166.5" font-family="Helvetica,sans-Serif" font-size="10.00">xiiRemoteEngineProcessView</text>
<text text-anchor="middle" x="279" y="-155.5" font-family="Helvetica,sans-Serif" font-size="10.00">Context</text>
</a>
</g>
</g>
<!-- Node1&#45;&gt;Node7 -->
<g id="edge6_Node000001_Node000007" class="edge">
<title>Node1&#45;&gt;Node7</title>
<g id="a_edge6_Node000001_Node000007"><a xlink:title=" ">
<path fill="none" stroke="#63b8ff" d="M171.25,-174.91C180.25,-173.95 189.36,-172.97 198.25,-172.02"/>
<polygon fill="#63b8ff" stroke="#63b8ff" points="170.71,-171.45 161.14,-175.99 171.46,-178.41 170.71,-171.45"/>
</a>
</g>
</g>
<!-- Node8 -->
<g id="Node000008" class="node">
<title>Node8</title>
<g id="a_Node000008"><a xlink:href="../../dd/d27/classxii_scene_view_context.htm" target="_top" xlink:title=" ">
<polygon fill="white" stroke="#bfbfbf" points="339,-130 219,-130 219,-111 339,-111 339,-130"/>
<text text-anchor="middle" x="279" y="-118" font-family="Helvetica,sans-Serif" font-size="10.00">xiiSceneViewContext</text>
</a>
</g>
</g>
<!-- Node1&#45;&gt;Node8 -->
<g id="edge7_Node000001_Node000008" class="edge">
<title>Node1&#45;&gt;Node8</title>
<g id="a_edge7_Node000001_Node000008"><a xlink:title=" ">
<path fill="none" stroke="#63b8ff" d="M112.57,-171.01C135.58,-161.37 167.87,-148.54 197,-139.5 208.31,-135.99 220.69,-132.78 232.29,-130.03"/>
<polygon fill="#63b8ff" stroke="#63b8ff" points="111.16,-167.81 103.31,-174.93 113.89,-174.26 111.16,-167.81"/>
</a>
</g>
</g>
<!-- Node9 -->
<g id="Node000009" class="node">
<title>Node9</title>
<g id="a_Node000009"><a xlink:href="../../d9/d9e/classxii_skeleton_view_context.htm" target="_top" xlink:title=" ">
<polygon fill="white" stroke="#bfbfbf" points="345.5,-93 212.5,-93 212.5,-74 345.5,-74 345.5,-93"/>
<text text-anchor="middle" x="279" y="-81" font-family="Helvetica,sans-Serif" font-size="10.00">xiiSkeletonViewContext</text>
</a>
</g>
</g>
<!-- Node1&#45;&gt;Node9 -->
<g id="edge8_Node000001_Node000009" class="edge">
<title>Node1&#45;&gt;Node9</title>
<g id="a_edge8_Node000001_Node000009"><a xlink:title=" ">
<path fill="none" stroke="#63b8ff" d="M99.81,-168.03C121.49,-149.4 159.4,-119.47 197,-102.5 205.43,-98.7 214.7,-95.61 223.88,-93.11"/>
<polygon fill="#63b8ff" stroke="#63b8ff" points="97.3,-165.57 92.08,-174.79 101.91,-170.84 97.3,-165.57"/>
</a>
</g>
</g>
<!-- Node10 -->
<g id="Node000010" class="node">
<title>Node10</title>
<g id="a_Node000010"><a xlink:href="../../d9/daf/classxii_texture_cube_view_context.htm" target="_top" xlink:title=" ">
<polygon fill="white" stroke="#bfbfbf" points="355,-56 203,-56 203,-37 355,-37 355,-56"/>
<text text-anchor="middle" x="279" y="-44" font-family="Helvetica,sans-Serif" font-size="10.00">xiiTextureCubeViewContext</text>
</a>
</g>
</g>
<!-- Node1&#45;&gt;Node10 -->
<g id="edge9_Node000001_Node000010" class="edge">
<title>Node1&#45;&gt;Node10</title>
<g id="a_edge9_Node000001_Node000010"><a xlink:title=" ">
<path fill="none" stroke="#63b8ff" d="M93.85,-166.32C112.83,-139.87 151.73,-91.14 197,-65.5 203.91,-61.58 211.59,-58.47 219.39,-56"/>
<polygon fill="#63b8ff" stroke="#63b8ff" points="90.87,-164.48 87.99,-174.68 96.6,-168.5 90.87,-164.48"/>
</a>
</g>
</g>
<!-- Node11 -->
<g id="Node000011" class="node">
<title>Node11</title>
<g id="a_Node000011"><a xlink:href="../../df/d26/classxii_texture_view_context.htm" target="_top" xlink:title=" ">
<polygon fill="white" stroke="#bfbfbf" points="342.5,-19 215.5,-19 215.5,0 342.5,0 342.5,-19"/>
<text text-anchor="middle" x="279" y="-7" font-family="Helvetica,sans-Serif" font-size="10.00">xiiTextureViewContext</text>
</a>
</g>
</g>
<!-- Node1&#45;&gt;Node11 -->
<g id="edge10_Node000001_Node000011" class="edge">
<title>Node1&#45;&gt;Node11</title>
<g id="a_edge10_Node000001_Node000011"><a xlink:title=" ">
<path fill="none" stroke="#63b8ff" d="M90.03,-165.49C106,-132.21 143.65,-63.6 197,-28.5 202.91,-24.61 209.53,-21.51 216.36,-19.05"/>
<polygon fill="#63b8ff" stroke="#63b8ff" points="86.67,-164.42 85.62,-174.97 93.02,-167.38 86.67,-164.42"/>
</a>
</g>
</g>
</g>
</svg>
</svg>

<style type='text/css'>
<![CDATA[
[data-mouse-over-selected='false'] { opacity: 0.7; }
[data-mouse-over-selected='true']  { opacity: 1.0; }
]]>
</style>
<script type="application/ecmascript"><![CDATA[
document.addEventListener('DOMContentLoaded', (event) => {
  highlightEdges();
  highlightAdjacentNodes();
});
]]></script>
</svg>
