<?xml version="1.0" encoding="UTF-8" standalone="no"?>
<!DOCTYPE svg PUBLIC "-//W3C//DTD SVG 1.1//EN"
 "http://www.w3.org/Graphics/SVG/1.1/DTD/svg11.dtd">
<!-- Generated by graphviz version 2.43.0 (0)
 -->
<!-- Title: xiiConsoleFunctionBase Pages: 1 -->
<svg width="602pt" height="135pt"
 viewBox="0.00 0.00 602.00 134.50" xmlns="http://www.w3.org/2000/svg" xmlns:xlink="http://www.w3.org/1999/xlink">
<g id="graph0" class="graph" transform="scale(1 1) rotate(0) translate(4 130.5)">
<title>xiiConsoleFunctionBase</title>
<!-- Node1 -->
<g id="Node000001" class="node">
<title>Node1</title>
<g id="a_Node000001"><a xlink:title="Base class for all types of xiiConsoleFunction, represents functions to be exposed to xiiConsole.">
<polygon fill="#999999" stroke="#666666" points="420,-78 287,-78 287,-59 420,-59 420,-78"/>
<text text-anchor="middle" x="353.5" y="-66" font-family="Helvetica,sans-Serif" font-size="10.00">xiiConsoleFunctionBase</text>
</a>
</g>
</g>
<!-- Node4 -->
<g id="Node000004" class="node">
<title>Node4</title>
<g id="a_Node000004"><a xlink:href="../../df/dbb/classxii_console_function.htm" target="_top" xlink:title=" ">
<polygon fill="white" stroke="#666666" points="579.5,-126.5 470.5,-126.5 470.5,-96.5 579.5,-96.5 579.5,-126.5"/>
<text text-anchor="start" x="478.5" y="-114.5" font-family="Helvetica,sans-Serif" font-size="10.00">xiiConsoleFunction</text>
<text text-anchor="middle" x="525" y="-103.5" font-family="Helvetica,sans-Serif" font-size="10.00">&lt; void()&gt;</text>
</a>
</g>
</g>
<!-- Node1&#45;&gt;Node4 -->
<g id="edge3_Node000001_Node000004" class="edge">
<title>Node1&#45;&gt;Node4</title>
<g id="a_edge3_Node000001_Node000004"><a xlink:title=" ">
<path fill="none" stroke="#63b8ff" d="M401.91,-80.53C423.21,-85.93 448.43,-92.33 470.41,-97.91"/>
<polygon fill="#63b8ff" stroke="#63b8ff" points="402.67,-77.11 392.12,-78.04 400.95,-83.89 402.67,-77.11"/>
</a>
</g>
</g>
<!-- Node5 -->
<g id="Node000005" class="node">
<title>Node5</title>
<g id="a_Node000005"><a xlink:href="../../df/dbb/classxii_console_function.htm" target="_top" xlink:title="Implements the functionality of xiiConsoleFunctionBase for functions with different parameter types....">
<polygon fill="white" stroke="#666666" points="594,-78 456,-78 456,-59 594,-59 594,-78"/>
<text text-anchor="middle" x="525" y="-66" font-family="Helvetica,sans-Serif" font-size="10.00">xiiConsoleFunction&lt; R &gt;</text>
</a>
</g>
</g>
<!-- Node1&#45;&gt;Node5 -->
<g id="edge4_Node000001_Node000005" class="edge">
<title>Node1&#45;&gt;Node5</title>
<g id="a_edge4_Node000001_Node000005"><a xlink:title=" ">
<path fill="none" stroke="#63b8ff" d="M430.04,-68.5C438.63,-68.5 447.35,-68.5 455.84,-68.5"/>
<polygon fill="#63b8ff" stroke="#63b8ff" points="430.03,-65 420.03,-68.5 430.03,-72 430.03,-65"/>
</a>
</g>
</g>
<!-- Node6 -->
<g id="Node000006" class="node">
<title>Node6</title>
<g id="a_Node000006"><a xlink:href="../../d4/d78/classxii_console_function_3_01_r_07_x_i_i___l_i_s_t_07_p_00_01_a_r_g___c_o_u_n_t_08_08_4.htm" target="_top" xlink:title=" ">
<polygon fill="white" stroke="#bfbfbf" points="581.5,-41 468.5,-41 468.5,0 581.5,0 581.5,-41"/>
<text text-anchor="start" x="476.5" y="-29" font-family="Helvetica,sans-Serif" font-size="10.00">xiiConsoleFunction</text>
<text text-anchor="start" x="476.5" y="-18" font-family="Helvetica,sans-Serif" font-size="10.00">&lt; R(XII_LIST(P, ARG</text>
<text text-anchor="middle" x="525" y="-7" font-family="Helvetica,sans-Serif" font-size="10.00">_COUNT))&gt;</text>
</a>
</g>
</g>
<!-- Node1&#45;&gt;Node6 -->
<g id="edge5_Node000001_Node000006" class="edge">
<title>Node1&#45;&gt;Node6</title>
<g id="a_edge5_Node000001_Node000006"><a xlink:title=" ">
<path fill="none" stroke="#63b8ff" d="M398.19,-56.13C419.62,-50.06 445.66,-42.68 468.48,-36.22"/>
<polygon fill="#63b8ff" stroke="#63b8ff" points="397.06,-52.81 388.39,-58.9 398.97,-59.54 397.06,-52.81"/>
</a>
</g>
</g>
<!-- Node2 -->
<g id="Node000002" class="node">
<title>Node2</title>
<g id="a_Node000002"><a xlink:href="../../dc/d54/classxii_enumerable.htm" target="_top" xlink:title=" ">
<polygon fill="white" stroke="#666666" points="251,-83.5 102,-83.5 102,-53.5 251,-53.5 251,-83.5"/>
<text text-anchor="start" x="110" y="-71.5" font-family="Helvetica,sans-Serif" font-size="10.00">xiiEnumerable&lt; xiiConsole</text>
<text text-anchor="middle" x="176.5" y="-60.5" font-family="Helvetica,sans-Serif" font-size="10.00">FunctionBase &gt;</text>
</a>
</g>
</g>
<!-- Node2&#45;&gt;Node1 -->
<g id="edge1_Node000001_Node000002" class="edge">
<title>Node2&#45;&gt;Node1</title>
<g id="a_edge1_Node000001_Node000002"><a xlink:title=" ">
<path fill="none" stroke="#63b8ff" d="M261.28,-68.5C269.9,-68.5 278.56,-68.5 286.94,-68.5"/>
<polygon fill="#63b8ff" stroke="#63b8ff" points="261.21,-65 251.21,-68.5 261.21,-72 261.21,-65"/>
</a>
</g>
</g>
<!-- Node3 -->
<g id="Node000003" class="node">
<title>Node3</title>
<g id="a_Node000003"><a xlink:href="../../d2/d38/classxii_no_base.htm" target="_top" xlink:title="Dummy type to pass to templates and macros that expect a base type for a class that has no base.">
<polygon fill="white" stroke="#666666" points="66,-78 0,-78 0,-59 66,-59 66,-78"/>
<text text-anchor="middle" x="33" y="-66" font-family="Helvetica,sans-Serif" font-size="10.00">xiiNoBase</text>
</a>
</g>
</g>
<!-- Node3&#45;&gt;Node2 -->
<g id="edge2_Node000002_Node000003" class="edge">
<title>Node3&#45;&gt;Node2</title>
<g id="a_edge2_Node000002_Node000003"><a xlink:title=" ">
<path fill="none" stroke="#63b8ff" d="M76.38,-68.5C84.49,-68.5 93.2,-68.5 101.96,-68.5"/>
<polygon fill="#63b8ff" stroke="#63b8ff" points="76.11,-65 66.11,-68.5 76.11,-72 76.11,-65"/>
</a>
</g>
</g>
</g>
</svg>
