<?xml version="1.0" encoding="UTF-8" standalone="no"?>
<!DOCTYPE svg PUBLIC "-//W3C//DTD SVG 1.1//EN"
 "http://www.w3.org/Graphics/SVG/1.1/DTD/svg11.dtd">
<!-- Generated by graphviz version 2.43.0 (0)
 -->
<!-- Title: xiiTextureCubeContext Pages: 1 -->
<svg width="157pt" height="207pt"
 viewBox="0.00 0.00 157.00 207.00" xmlns="http://www.w3.org/2000/svg" xmlns:xlink="http://www.w3.org/1999/xlink">
<g id="graph0" class="graph" transform="scale(1 1) rotate(0) translate(4 203)">
<title>xiiTextureCubeContext</title>
<polygon fill="white" stroke="transparent" points="-4,4 -4,-203 153,-203 153,4 -4,4"/>
<!-- Node1 -->
<g id="node1" class="node">
<title>Node1</title>
<g id="a_node1"><a xlink:title=" ">
<polygon fill="#bfbfbf" stroke="black" points="10.5,-0.5 10.5,-19.5 138.5,-19.5 138.5,-0.5 10.5,-0.5"/>
<text text-anchor="middle" x="74.5" y="-7.5" font-family="Helvetica,sans-Serif" font-size="10.00">xiiTextureCubeContext</text>
</a>
</g>
</g>
<!-- Node2 -->
<g id="node2" class="node">
<title>Node2</title>
<g id="a_node2"><a xlink:href="../../db/df8/classxii_engine_process_document_context.htm" target="_top" xlink:title="A document context is the counter part to an editor document on the engine side.">
<polygon fill="white" stroke="black" points="0,-56.5 0,-86.5 149,-86.5 149,-56.5 0,-56.5"/>
<text text-anchor="start" x="8" y="-74.5" font-family="Helvetica,sans-Serif" font-size="10.00">xiiEngineProcessDocument</text>
<text text-anchor="middle" x="74.5" y="-63.5" font-family="Helvetica,sans-Serif" font-size="10.00">Context</text>
</a>
</g>
</g>
<!-- Node2&#45;&gt;Node1 -->
<g id="edge1" class="edge">
<title>Node2&#45;&gt;Node1</title>
<path fill="none" stroke="midnightblue" d="M74.5,-46.29C74.5,-36.86 74.5,-26.65 74.5,-19.66"/>
<polygon fill="midnightblue" stroke="midnightblue" points="71,-46.4 74.5,-56.4 78,-46.4 71,-46.4"/>
</g>
<!-- Node3 -->
<g id="node3" class="node">
<title>Node3</title>
<g id="a_node3"><a xlink:href="../../dc/d71/classxii_reflected_class.htm" target="_top" xlink:title="All classes that should be dynamically reflectable, need to be derived from this base class.">
<polygon fill="white" stroke="black" points="24,-123.5 24,-142.5 125,-142.5 125,-123.5 24,-123.5"/>
<text text-anchor="middle" x="74.5" y="-130.5" font-family="Helvetica,sans-Serif" font-size="10.00">xiiReflectedClass</text>
</a>
</g>
</g>
<!-- Node3&#45;&gt;Node2 -->
<g id="edge2" class="edge">
<title>Node3&#45;&gt;Node2</title>
<path fill="none" stroke="midnightblue" d="M74.5,-113.23C74.5,-104.59 74.5,-94.5 74.5,-86.52"/>
<polygon fill="midnightblue" stroke="midnightblue" points="71,-113.48 74.5,-123.48 78,-113.48 71,-113.48"/>
</g>
<!-- Node4 -->
<g id="node4" class="node">
<title>Node4</title>
<g id="a_node4"><a xlink:href="../../d2/d38/classxii_no_base.htm" target="_top" xlink:title="Dummy type to pass to templates and macros that expect a base type for a class that has no base.">
<polygon fill="white" stroke="black" points="41.5,-179.5 41.5,-198.5 107.5,-198.5 107.5,-179.5 41.5,-179.5"/>
<text text-anchor="middle" x="74.5" y="-186.5" font-family="Helvetica,sans-Serif" font-size="10.00">xiiNoBase</text>
</a>
</g>
</g>
<!-- Node4&#45;&gt;Node3 -->
<g id="edge3" class="edge">
<title>Node4&#45;&gt;Node3</title>
<path fill="none" stroke="midnightblue" d="M74.5,-168.8C74.5,-159.91 74.5,-149.78 74.5,-142.75"/>
<polygon fill="midnightblue" stroke="midnightblue" points="71,-169.08 74.5,-179.08 78,-169.08 71,-169.08"/>
</g>
</g>
</svg>
