<?xml version="1.0" encoding="UTF-8" standalone="no"?>
<!DOCTYPE svg PUBLIC "-//W3C//DTD SVG 1.1//EN"
 "http://www.w3.org/Graphics/SVG/1.1/DTD/svg11.dtd">
<!-- Generated by graphviz version 2.43.0 (0)
 -->
<!-- Title: xiiQtItemDelegate Pages: 1 -->
<svg width="266pt" height="140pt"
 viewBox="0.00 0.00 265.50 140.00" xmlns="http://www.w3.org/2000/svg" xmlns:xlink="http://www.w3.org/1999/xlink">
<g id="graph0" class="graph" transform="scale(1 1) rotate(0) translate(4 136)">
<title>xiiQtItemDelegate</title>
<polygon fill="white" stroke="transparent" points="-4,4 -4,-136 261.5,-136 261.5,4 -4,4"/>
<!-- Node1 -->
<g id="node1" class="node">
<title>Node1</title>
<g id="a_node1"><a xlink:title="In combination with xiiQtItemView this delegate allows for receiving the full range of mouse input.">
<polygon fill="#bfbfbf" stroke="black" points="79.5,-56.5 79.5,-75.5 186.5,-75.5 186.5,-56.5 79.5,-56.5"/>
<text text-anchor="middle" x="133" y="-63.5" font-family="Helvetica,sans-Serif" font-size="10.00">xiiQtItemDelegate</text>
</a>
</g>
</g>
<!-- Node3 -->
<g id="node3" class="node">
<title>Node3</title>
<g id="a_node3"><a xlink:href="../../d3/d03/classxii_qt_icon_view_delegate.htm" target="_top" xlink:title=" ">
<polygon fill="white" stroke="black" points="0,-0.5 0,-19.5 128,-19.5 128,-0.5 0,-0.5"/>
<text text-anchor="middle" x="64" y="-7.5" font-family="Helvetica,sans-Serif" font-size="10.00">xiiQtIconViewDelegate</text>
</a>
</g>
</g>
<!-- Node1&#45;&gt;Node3 -->
<g id="edge2" class="edge">
<title>Node1&#45;&gt;Node3</title>
<path fill="none" stroke="midnightblue" d="M113.96,-50.1C101.54,-40.38 85.76,-28.03 75.29,-19.83"/>
<polygon fill="midnightblue" stroke="midnightblue" points="111.88,-52.92 121.91,-56.32 116.2,-47.4 111.88,-52.92"/>
</g>
<!-- Node4 -->
<g id="node4" class="node">
<title>Node4</title>
<g id="a_node4"><a xlink:href="../../d2/d32/classxii_qt_layer_delegate.htm" target="_top" xlink:title="Custom delegate for layers, used in xiiQtLayerPanel. Provides buttons to toggle the layer visible / l...">
<polygon fill="white" stroke="black" points="146.5,-0.5 146.5,-19.5 257.5,-19.5 257.5,-0.5 146.5,-0.5"/>
<text text-anchor="middle" x="202" y="-7.5" font-family="Helvetica,sans-Serif" font-size="10.00">xiiQtLayerDelegate</text>
</a>
</g>
</g>
<!-- Node1&#45;&gt;Node4 -->
<g id="edge3" class="edge">
<title>Node1&#45;&gt;Node4</title>
<path fill="none" stroke="midnightblue" d="M152.04,-50.1C164.46,-40.38 180.24,-28.03 190.71,-19.83"/>
<polygon fill="midnightblue" stroke="midnightblue" points="149.8,-47.4 144.09,-56.32 154.12,-52.92 149.8,-47.4"/>
</g>
<!-- Node2 -->
<g id="node2" class="node">
<title>Node2</title>
<g id="a_node2"><a xlink:title=" ">
<polygon fill="white" stroke="#bfbfbf" points="87.5,-112.5 87.5,-131.5 178.5,-131.5 178.5,-112.5 87.5,-112.5"/>
<text text-anchor="middle" x="133" y="-119.5" font-family="Helvetica,sans-Serif" font-size="10.00">QItemDelegate</text>
</a>
</g>
</g>
<!-- Node2&#45;&gt;Node1 -->
<g id="edge1" class="edge">
<title>Node2&#45;&gt;Node1</title>
<path fill="none" stroke="midnightblue" d="M133,-101.8C133,-92.91 133,-82.78 133,-75.75"/>
<polygon fill="midnightblue" stroke="midnightblue" points="129.5,-102.08 133,-112.08 136.5,-102.08 129.5,-102.08"/>
</g>
</g>
</svg>
