<?xml version="1.0" encoding="UTF-8" standalone="no"?>
<!DOCTYPE svg PUBLIC "-//W3C//DTD SVG 1.1//EN"
 "http://www.w3.org/Graphics/SVG/1.1/DTD/svg11.dtd">
<!-- Generated by graphviz version 2.43.0 (0)
 -->
<!-- Title: xiiEditorEngineViewMsg Pages: 1 -->
<!--zoomable 390 -->
<svg id="main" version="1.1" xmlns="http://www.w3.org/2000/svg" xmlns:xlink="http://www.w3.org/1999/xlink" xml:space="preserve" onload="init(evt)">
<style type="text/css"><![CDATA[
.edge:hover path { stroke: red; }
.edge:hover polygon { stroke: red; fill: red; }
]]></style>
<script type="text/javascript"><![CDATA[
var edges = document.getElementsByTagName('g');
if (edges && edges.length) {
  for (var i=0;i<edges.length;i++) {
    if (edges[i].id.substr(0,4)=='edge') {
      edges[i].setAttribute('class','edge');
    }
  }
}
]]></script>
        <defs>
                <circle id="rim" cx="0" cy="0" r="7"/>
                <circle id="rim2" cx="0" cy="0" r="3.5"/>
                <g id="zoomPlus">
                        <use xlink:href="#rim" fill="#404040">
                                <set attributeName="fill" to="#808080" begin="zoomplus.mouseover" end="zoomplus.mouseout"/>
                        </use>
                        <path d="M-4,0h8M0,-4v8" fill="none" stroke="white" stroke-width="1.5" pointer-events="none"/>
                </g>
                <g id="zoomMin">
                        <use xlink:href="#rim" fill="#404040">
                                <set attributeName="fill" to="#808080" begin="zoomminus.mouseover" end="zoomminus.mouseout"/>
                        </use>
                        <path d="M-4,0h8" fill="none" stroke="white" stroke-width="1.5" pointer-events="none"/>
                </g>
                <g id="dirArrow">
                        <path fill="none" stroke="white" stroke-width="1.5" d="M0,-3.0v7 M-2.5,-0.5L0,-3.0L2.5,-0.5"/>
                </g>
               <g id="resetDef">
                       <use xlink:href="#rim2" fill="#404040">
                               <set attributeName="fill" to="#808080" begin="reset.mouseover" end="reset.mouseout"/>
                       </use>
               </g>
        </defs>

<script type="text/javascript">
var viewWidth = 930;
var viewHeight = 390;
var sectionId = 'dynsection-0';
</script>
<script xlink:href="../../svgpan.js"/>
<svg id="graph" class="graph">
<g id="viewport">
<title>xiiEditorEngineViewMsg</title>
<polygon fill="white" stroke="transparent" points="-4,4 -4,-385.5 926,-385.5 926,4 -4,4"/>
<!-- Node1 -->
<g id="node1" class="node">
<title>Node1</title>
<g id="a_node1"><a xlink:title=" ">
<polygon fill="#bfbfbf" stroke="black" points="582,-170.5 582,-189.5 716,-189.5 716,-170.5 582,-170.5"/>
<text text-anchor="middle" x="649" y="-177.5" font-family="Helvetica,sans-Serif" font-size="10.00">xiiEditorEngineViewMsg</text>
</a>
</g>
</g>
<!-- Node6 -->
<g id="node6" class="node">
<title>Node6</title>
<g id="a_node6"><a xlink:href="../../dc/d0a/classxii_activate_remote_view_msg_to_engine.htm" target="_top" xlink:title=" ">
<polygon fill="white" stroke="black" points="761,-351 761,-381 913,-381 913,-351 761,-351"/>
<text text-anchor="start" x="769" y="-369" font-family="Helvetica,sans-Serif" font-size="10.00">xiiActivateRemoteViewMsg</text>
<text text-anchor="middle" x="837" y="-358" font-family="Helvetica,sans-Serif" font-size="10.00">ToEngine</text>
</a>
</g>
</g>
<!-- Node1&#45;&gt;Node6 -->
<g id="edge5" class="edge">
<title>Node1&#45;&gt;Node6</title>
<path fill="none" stroke="midnightblue" d="M656.95,-199.29C670.13,-233.13 702,-303.17 752,-341 757.1,-344.86 762.78,-348.12 768.72,-350.88"/>
<polygon fill="midnightblue" stroke="midnightblue" points="660.13,-197.79 653.33,-189.67 653.57,-200.26 660.13,-197.79"/>
</g>
<!-- Node7 -->
<g id="node7" class="node">
<title>Node7</title>
<g id="a_node7"><a xlink:href="../../df/dcb/classxii_view_destroyed_msg_to_engine.htm" target="_top" xlink:title=" ">
<polygon fill="white" stroke="black" points="753.5,-312.5 753.5,-331.5 920.5,-331.5 920.5,-312.5 753.5,-312.5"/>
<text text-anchor="middle" x="837" y="-319.5" font-family="Helvetica,sans-Serif" font-size="10.00">xiiViewDestroyedMsgToEngine</text>
</a>
</g>
</g>
<!-- Node1&#45;&gt;Node7 -->
<g id="edge6" class="edge">
<title>Node1&#45;&gt;Node7</title>
<path fill="none" stroke="midnightblue" d="M660.17,-198.82C676.01,-226.24 709.25,-276.76 752,-303 758.37,-306.91 765.46,-310.02 772.74,-312.49"/>
<polygon fill="midnightblue" stroke="midnightblue" points="663.08,-196.85 655.13,-189.85 656.98,-200.28 663.08,-196.85"/>
</g>
<!-- Node8 -->
<g id="node8" class="node">
<title>Node8</title>
<g id="a_node8"><a xlink:href="../../d4/d3f/classxii_view_destroyed_response_msg_to_editor.htm" target="_top" xlink:title=" ">
<polygon fill="white" stroke="black" points="762,-263 762,-293 912,-293 912,-263 762,-263"/>
<text text-anchor="start" x="770" y="-281" font-family="Helvetica,sans-Serif" font-size="10.00">xiiViewDestroyedResponse</text>
<text text-anchor="middle" x="837" y="-270" font-family="Helvetica,sans-Serif" font-size="10.00">MsgToEditor</text>
</a>
</g>
</g>
<!-- Node1&#45;&gt;Node8 -->
<g id="edge7" class="edge">
<title>Node1&#45;&gt;Node8</title>
<path fill="none" stroke="midnightblue" d="M668.26,-196.32C687.74,-212.97 720.13,-238.49 752,-254 758.96,-257.39 766.47,-260.37 774.05,-262.99"/>
<polygon fill="midnightblue" stroke="midnightblue" points="670.34,-193.5 660.5,-189.58 665.75,-198.78 670.34,-193.5"/>
</g>
<!-- Node9 -->
<g id="node9" class="node">
<title>Node9</title>
<g id="a_node9"><a xlink:href="../../db/d92/classxii_view_marquee_picking_msg_to_engine.htm" target="_top" xlink:title=" ">
<polygon fill="white" stroke="black" points="761.5,-214 761.5,-244 912.5,-244 912.5,-214 761.5,-214"/>
<text text-anchor="start" x="769.5" y="-232" font-family="Helvetica,sans-Serif" font-size="10.00">xiiViewMarqueePickingMsg</text>
<text text-anchor="middle" x="837" y="-221" font-family="Helvetica,sans-Serif" font-size="10.00">ToEngine</text>
</a>
</g>
</g>
<!-- Node1&#45;&gt;Node9 -->
<g id="edge8" class="edge">
<title>Node1&#45;&gt;Node9</title>
<path fill="none" stroke="midnightblue" d="M696.27,-192.19C721.29,-198.78 752.41,-206.98 778.92,-213.96"/>
<polygon fill="midnightblue" stroke="midnightblue" points="696.87,-188.73 686.3,-189.56 695.08,-195.5 696.87,-188.73"/>
</g>
<!-- Node10 -->
<g id="node10" class="node">
<title>Node10</title>
<g id="a_node10"><a xlink:href="../../d2/d2c/classxii_view_marquee_picking_result_msg_to_editor.htm" target="_top" xlink:title=" ">
<polygon fill="white" stroke="black" points="756.5,-165 756.5,-195 917.5,-195 917.5,-165 756.5,-165"/>
<text text-anchor="start" x="764.5" y="-183" font-family="Helvetica,sans-Serif" font-size="10.00">xiiViewMarqueePickingResult</text>
<text text-anchor="middle" x="837" y="-172" font-family="Helvetica,sans-Serif" font-size="10.00">MsgToEditor</text>
</a>
</g>
</g>
<!-- Node1&#45;&gt;Node10 -->
<g id="edge9" class="edge">
<title>Node1&#45;&gt;Node10</title>
<path fill="none" stroke="midnightblue" d="M726.33,-180C736.26,-180 746.44,-180 756.42,-180"/>
<polygon fill="midnightblue" stroke="midnightblue" points="726.1,-176.5 716.1,-180 726.1,-183.5 726.1,-176.5"/>
</g>
<!-- Node11 -->
<g id="node11" class="node">
<title>Node11</title>
<g id="a_node11"><a xlink:href="../../d7/dc4/classxii_view_picking_msg_to_engine.htm" target="_top" xlink:title=" ">
<polygon fill="white" stroke="black" points="761,-126.5 761,-145.5 913,-145.5 913,-126.5 761,-126.5"/>
<text text-anchor="middle" x="837" y="-133.5" font-family="Helvetica,sans-Serif" font-size="10.00">xiiViewPickingMsgToEngine</text>
</a>
</g>
</g>
<!-- Node1&#45;&gt;Node11 -->
<g id="edge10" class="edge">
<title>Node1&#45;&gt;Node11</title>
<path fill="none" stroke="midnightblue" d="M697.97,-168.06C715.01,-163.86 734.35,-159.16 752,-155 765.39,-151.85 780,-148.5 793.23,-145.52"/>
<polygon fill="midnightblue" stroke="midnightblue" points="697.1,-164.67 688.23,-170.46 698.77,-171.46 697.1,-164.67"/>
</g>
<!-- Node12 -->
<g id="node12" class="node">
<title>Node12</title>
<g id="a_node12"><a xlink:href="../../df/dd5/classxii_view_picking_result_msg_to_editor.htm" target="_top" xlink:title=" ">
<polygon fill="white" stroke="black" points="762.5,-77 762.5,-107 911.5,-107 911.5,-77 762.5,-77"/>
<text text-anchor="start" x="770.5" y="-95" font-family="Helvetica,sans-Serif" font-size="10.00">xiiViewPickingResultMsgTo</text>
<text text-anchor="middle" x="837" y="-84" font-family="Helvetica,sans-Serif" font-size="10.00">Editor</text>
</a>
</g>
</g>
<!-- Node1&#45;&gt;Node12 -->
<g id="edge11" class="edge">
<title>Node1&#45;&gt;Node12</title>
<path fill="none" stroke="midnightblue" d="M671.27,-164.54C691.29,-150.56 722.52,-130.21 752,-117 760.19,-113.33 769.07,-110.02 777.88,-107.11"/>
<polygon fill="midnightblue" stroke="midnightblue" points="669.04,-161.83 662.9,-170.46 673.09,-167.54 669.04,-161.83"/>
</g>
<!-- Node13 -->
<g id="node13" class="node">
<title>Node13</title>
<g id="a_node13"><a xlink:href="../../d6/d27/classxii_view_redraw_msg_to_engine.htm" target="_top" xlink:title=" ">
<polygon fill="white" stroke="black" points="760.5,-38.5 760.5,-57.5 913.5,-57.5 913.5,-38.5 760.5,-38.5"/>
<text text-anchor="middle" x="837" y="-45.5" font-family="Helvetica,sans-Serif" font-size="10.00">xiiViewRedrawMsgToEngine</text>
</a>
</g>
</g>
<!-- Node1&#45;&gt;Node13 -->
<g id="edge12" class="edge">
<title>Node1&#45;&gt;Node13</title>
<path fill="none" stroke="midnightblue" d="M661.27,-161.64C677.86,-136.23 711.35,-90.79 752,-67 758.58,-63.15 765.87,-60.08 773.33,-57.63"/>
<polygon fill="midnightblue" stroke="midnightblue" points="658.16,-159.99 655.75,-170.31 664.07,-163.75 658.16,-159.99"/>
</g>
<!-- Node14 -->
<g id="node14" class="node">
<title>Node14</title>
<g id="a_node14"><a xlink:href="../../d0/dee/classxii_view_screenshot_msg_to_engine.htm" target="_top" xlink:title=" ">
<polygon fill="white" stroke="black" points="752,-0.5 752,-19.5 922,-19.5 922,-0.5 752,-0.5"/>
<text text-anchor="middle" x="837" y="-7.5" font-family="Helvetica,sans-Serif" font-size="10.00">xiiViewScreenshotMsgToEngine</text>
</a>
</g>
</g>
<!-- Node1&#45;&gt;Node14 -->
<g id="edge13" class="edge">
<title>Node1&#45;&gt;Node14</title>
<path fill="none" stroke="midnightblue" d="M657.42,-160.68C670.98,-128.11 702.96,-62.52 752,-29 757.68,-25.12 764.03,-22.02 770.62,-19.55"/>
<polygon fill="midnightblue" stroke="midnightblue" points="654.01,-159.79 653.53,-170.37 660.51,-162.4 654.01,-159.79"/>
</g>
<!-- Node2 -->
<g id="node2" class="node">
<title>Node2</title>
<g id="a_node2"><a xlink:href="../../d9/d5f/classxii_editor_engine_document_msg.htm" target="_top" xlink:title="Base class for all messages that are tied to some document.">
<polygon fill="white" stroke="black" points="385,-170.5 385,-189.5 546,-189.5 546,-170.5 385,-170.5"/>
<text text-anchor="middle" x="465.5" y="-177.5" font-family="Helvetica,sans-Serif" font-size="10.00">xiiEditorEngineDocumentMsg</text>
</a>
</g>
</g>
<!-- Node2&#45;&gt;Node1 -->
<g id="edge1" class="edge">
<title>Node2&#45;&gt;Node1</title>
<path fill="none" stroke="midnightblue" d="M556.2,-180C564.81,-180 573.44,-180 581.77,-180"/>
<polygon fill="midnightblue" stroke="midnightblue" points="556.11,-176.5 546.11,-180 556.11,-183.5 556.11,-176.5"/>
</g>
<!-- Node3 -->
<g id="node3" class="node">
<title>Node3</title>
<g id="a_node3"><a xlink:href="../../d4/d06/classxii_process_message.htm" target="_top" xlink:title="Base class for IPC messages transmitted by xiiIpcChannel.">
<polygon fill="white" stroke="black" points="239,-170.5 239,-189.5 349,-189.5 349,-170.5 239,-170.5"/>
<text text-anchor="middle" x="294" y="-177.5" font-family="Helvetica,sans-Serif" font-size="10.00">xiiProcessMessage</text>
</a>
</g>
</g>
<!-- Node3&#45;&gt;Node2 -->
<g id="edge2" class="edge">
<title>Node3&#45;&gt;Node2</title>
<path fill="none" stroke="midnightblue" d="M359.2,-180C367.62,-180 376.33,-180 384.97,-180"/>
<polygon fill="midnightblue" stroke="midnightblue" points="359.1,-176.5 349.1,-180 359.1,-183.5 359.1,-176.5"/>
</g>
<!-- Node4 -->
<g id="node4" class="node">
<title>Node4</title>
<g id="a_node4"><a xlink:href="../../dc/d71/classxii_reflected_class.htm" target="_top" xlink:title="All classes that should be dynamically reflectable, need to be derived from this base class.">
<polygon fill="white" stroke="black" points="102,-170.5 102,-189.5 203,-189.5 203,-170.5 102,-170.5"/>
<text text-anchor="middle" x="152.5" y="-177.5" font-family="Helvetica,sans-Serif" font-size="10.00">xiiReflectedClass</text>
</a>
</g>
</g>
<!-- Node4&#45;&gt;Node3 -->
<g id="edge3" class="edge">
<title>Node4&#45;&gt;Node3</title>
<path fill="none" stroke="midnightblue" d="M213.3,-180C221.78,-180 230.47,-180 238.85,-180"/>
<polygon fill="midnightblue" stroke="midnightblue" points="213.08,-176.5 203.08,-180 213.08,-183.5 213.08,-176.5"/>
</g>
<!-- Node5 -->
<g id="node5" class="node">
<title>Node5</title>
<g id="a_node5"><a xlink:href="../../d2/d38/classxii_no_base.htm" target="_top" xlink:title="Dummy type to pass to templates and macros that expect a base type for a class that has no base.">
<polygon fill="white" stroke="black" points="0,-170.5 0,-189.5 66,-189.5 66,-170.5 0,-170.5"/>
<text text-anchor="middle" x="33" y="-177.5" font-family="Helvetica,sans-Serif" font-size="10.00">xiiNoBase</text>
</a>
</g>
</g>
<!-- Node5&#45;&gt;Node4 -->
<g id="edge4" class="edge">
<title>Node5&#45;&gt;Node4</title>
<path fill="none" stroke="midnightblue" d="M76.27,-180C84.54,-180 93.29,-180 101.78,-180"/>
<polygon fill="midnightblue" stroke="midnightblue" points="76.11,-176.5 66.11,-180 76.11,-183.5 76.11,-176.5"/>
</g>
</g>
</svg>
        <g id="navigator" transform="translate(0 0)" fill="#404254">
                <rect fill="#f2f5e9" fill-opacity="0.5" stroke="#606060" stroke-width=".5" x="0" y="0" width="60" height="60"/>
                <use id="zoomplus" xlink:href="#zoomPlus" x="17" y="9" onmousedown="handleZoom(evt,'in')"/>
                <use id="zoomminus" xlink:href="#zoomMin" x="42" y="9" onmousedown="handleZoom(evt,'out')"/>
                <use id="reset" xlink:href="#resetDef" x="30" y="36" onmousedown="handleReset()"/>
                <g id="arrowUp" xlink:href="#dirArrow" transform="translate(30 24)" onmousedown="handlePan(0,-1)">
                  <use xlink:href="#rim" fill="#404040">
                        <set attributeName="fill" to="#808080" begin="arrowUp.mouseover" end="arrowUp.mouseout"/>
                  </use>
                  <path fill="none" stroke="white" stroke-width="1.5" d="M0,-3.0v7 M-2.5,-0.5L0,-3.0L2.5,-0.5"/>
                </g>
                <g id="arrowRight" xlink:href="#dirArrow" transform="rotate(90) translate(36 -43)" onmousedown="handlePan(1,0)">
                  <use xlink:href="#rim" fill="#404040">
                        <set attributeName="fill" to="#808080" begin="arrowRight.mouseover" end="arrowRight.mouseout"/>
                  </use>
                  <path fill="none" stroke="white" stroke-width="1.5" d="M0,-3.0v7 M-2.5,-0.5L0,-3.0L2.5,-0.5"/>
                </g>
                <g id="arrowDown" xlink:href="#dirArrow" transform="rotate(180) translate(-30 -48)" onmousedown="handlePan(0,1)">
                  <use xlink:href="#rim" fill="#404040">
                        <set attributeName="fill" to="#808080" begin="arrowDown.mouseover" end="arrowDown.mouseout"/>
                  </use>
                  <path fill="none" stroke="white" stroke-width="1.5" d="M0,-3.0v7 M-2.5,-0.5L0,-3.0L2.5,-0.5"/>
                </g>
                <g id="arrowLeft" xlink:href="#dirArrow" transform="rotate(270) translate(-36 17)" onmousedown="handlePan(-1,0)">
                  <use xlink:href="#rim" fill="#404040">
                        <set attributeName="fill" to="#808080" begin="arrowLeft.mouseover" end="arrowLeft.mouseout"/>
                  </use>
                  <path fill="none" stroke="white" stroke-width="1.5" d="M0,-3.0v7 M-2.5,-0.5L0,-3.0L2.5,-0.5"/>
                </g>
        </g>
        <svg viewBox="0 0 15 15" width="100%" height="30px" preserveAspectRatio="xMaxYMin meet">
         <g id="arrow_out" transform="scale(0.3 0.3)">
          <a xlink:href="classxii_editor_engine_view_msg__inherit__graph_org.svg" target="_base">
           <rect id="button" ry="5" rx="5" y="6" x="6" height="38" width="38"
                fill="#f2f5e9" fill-opacity="0.5" stroke="#606060" stroke-width="1.0"/>
           <path id="arrow"
             d="M 11.500037,31.436501 C 11.940474,20.09759 22.043105,11.32322 32.158766,21.979434 L 37.068811,17.246167 C 37.068811,17.246167 37.088388,32 37.088388,32 L 22.160133,31.978069 C 22.160133,31.978069 26.997745,27.140456 26.997745,27.140456 C 18.528582,18.264221 13.291696,25.230495 11.500037,31.436501 z"
             style="fill:#404040;"/>
          </a>
         </g>
        </svg>
</svg>
