<?xml version="1.0" encoding="UTF-8" standalone="no"?>
<!DOCTYPE svg PUBLIC "-//W3C//DTD SVG 1.1//EN"
 "http://www.w3.org/Graphics/SVG/1.1/DTD/svg11.dtd">
<!-- Generated by graphviz version 2.43.0 (0)
 -->
<!-- Title: xiiQtPropertyContainerWidget Pages: 1 -->
<svg width="340pt" height="274pt"
 viewBox="0.00 0.00 339.50 274.00" xmlns="http://www.w3.org/2000/svg" xmlns:xlink="http://www.w3.org/1999/xlink">
<g id="graph0" class="graph" transform="scale(1 1) rotate(0) translate(4 270)">
<title>xiiQtPropertyContainerWidget</title>
<polygon fill="white" stroke="transparent" points="-4,4 -4,-270 335.5,-270 335.5,4 -4,4"/>
<!-- Node1 -->
<g id="node1" class="node">
<title>Node1</title>
<g id="a_node1"><a xlink:title="Base class for all container properties.">
<polygon fill="#bfbfbf" stroke="black" points="90.5,-134.5 90.5,-153.5 253.5,-153.5 253.5,-134.5 90.5,-134.5"/>
<text text-anchor="middle" x="172" y="-141.5" font-family="Helvetica,sans-Serif" font-size="10.00">xiiQtPropertyContainerWidget</text>
</a>
</g>
</g>
<!-- Node4 -->
<g id="node4" class="node">
<title>Node4</title>
<g id="a_node4"><a xlink:href="../../df/d59/classxii_qt_property_standard_type_container_widget.htm" target="_top" xlink:title=" ">
<polygon fill="white" stroke="black" points="15.5,-67.5 15.5,-97.5 162.5,-97.5 162.5,-67.5 15.5,-67.5"/>
<text text-anchor="start" x="23.5" y="-85.5" font-family="Helvetica,sans-Serif" font-size="10.00">xiiQtPropertyStandardType</text>
<text text-anchor="middle" x="89" y="-74.5" font-family="Helvetica,sans-Serif" font-size="10.00">ContainerWidget</text>
</a>
</g>
</g>
<!-- Node1&#45;&gt;Node4 -->
<g id="edge3" class="edge">
<title>Node1&#45;&gt;Node4</title>
<path fill="none" stroke="midnightblue" d="M151.73,-128.47C138.59,-119.05 121.56,-106.84 108.56,-97.52"/>
<polygon fill="midnightblue" stroke="midnightblue" points="149.94,-131.49 160.11,-134.48 154.02,-125.8 149.94,-131.49"/>
</g>
<!-- Node6 -->
<g id="node6" class="node">
<title>Node6</title>
<g id="a_node6"><a xlink:href="../../dc/d61/classxii_qt_property_type_container_widget.htm" target="_top" xlink:title=" ">
<polygon fill="white" stroke="black" points="180.5,-67.5 180.5,-97.5 331.5,-97.5 331.5,-67.5 180.5,-67.5"/>
<text text-anchor="start" x="188.5" y="-85.5" font-family="Helvetica,sans-Serif" font-size="10.00">xiiQtPropertyTypeContainer</text>
<text text-anchor="middle" x="256" y="-74.5" font-family="Helvetica,sans-Serif" font-size="10.00">Widget</text>
</a>
</g>
</g>
<!-- Node1&#45;&gt;Node6 -->
<g id="edge5" class="edge">
<title>Node1&#45;&gt;Node6</title>
<path fill="none" stroke="midnightblue" d="M192.52,-128.47C205.82,-119.05 223.05,-106.84 236.2,-97.52"/>
<polygon fill="midnightblue" stroke="midnightblue" points="190.17,-125.84 184.04,-134.48 194.22,-131.55 190.17,-125.84"/>
</g>
<!-- Node2 -->
<g id="node2" class="node">
<title>Node2</title>
<g id="a_node2"><a xlink:href="../../d9/d80/classxii_qt_property_widget.htm" target="_top" xlink:title="Base class for all property widgets.">
<polygon fill="white" stroke="black" points="114,-190.5 114,-209.5 230,-209.5 230,-190.5 114,-190.5"/>
<text text-anchor="middle" x="172" y="-197.5" font-family="Helvetica,sans-Serif" font-size="10.00">xiiQtPropertyWidget</text>
</a>
</g>
</g>
<!-- Node2&#45;&gt;Node1 -->
<g id="edge1" class="edge">
<title>Node2&#45;&gt;Node1</title>
<path fill="none" stroke="midnightblue" d="M172,-179.8C172,-170.91 172,-160.78 172,-153.75"/>
<polygon fill="midnightblue" stroke="midnightblue" points="168.5,-180.08 172,-190.08 175.5,-180.08 168.5,-180.08"/>
</g>
<!-- Node3 -->
<g id="node3" class="node">
<title>Node3</title>
<g id="a_node3"><a xlink:title=" ">
<polygon fill="white" stroke="#bfbfbf" points="142.5,-246.5 142.5,-265.5 201.5,-265.5 201.5,-246.5 142.5,-246.5"/>
<text text-anchor="middle" x="172" y="-253.5" font-family="Helvetica,sans-Serif" font-size="10.00">QWidget</text>
</a>
</g>
</g>
<!-- Node3&#45;&gt;Node2 -->
<g id="edge2" class="edge">
<title>Node3&#45;&gt;Node2</title>
<path fill="none" stroke="midnightblue" d="M172,-235.8C172,-226.91 172,-216.78 172,-209.75"/>
<polygon fill="midnightblue" stroke="midnightblue" points="168.5,-236.08 172,-246.08 175.5,-236.08 168.5,-236.08"/>
</g>
<!-- Node5 -->
<g id="node5" class="node">
<title>Node5</title>
<g id="a_node5"><a xlink:href="../../d9/d92/classxii_qt_exposed_parameters_property_widget.htm" target="_top" xlink:title=" ">
<polygon fill="white" stroke="black" points="0,-0.5 0,-30.5 178,-30.5 178,-0.5 0,-0.5"/>
<text text-anchor="start" x="8" y="-18.5" font-family="Helvetica,sans-Serif" font-size="10.00">xiiQtExposedParametersProperty</text>
<text text-anchor="middle" x="89" y="-7.5" font-family="Helvetica,sans-Serif" font-size="10.00">Widget</text>
</a>
</g>
</g>
<!-- Node4&#45;&gt;Node5 -->
<g id="edge4" class="edge">
<title>Node4&#45;&gt;Node5</title>
<path fill="none" stroke="midnightblue" d="M89,-57.11C89,-48.15 89,-38.32 89,-30.58"/>
<polygon fill="midnightblue" stroke="midnightblue" points="85.5,-57.4 89,-67.4 92.5,-57.4 85.5,-57.4"/>
</g>
</g>
</svg>
