<?xml version="1.0" encoding="UTF-8" standalone="no"?>
<!DOCTYPE svg PUBLIC "-//W3C//DTD SVG 1.1//EN"
 "http://www.w3.org/Graphics/SVG/1.1/DTD/svg11.dtd">
<!-- Generated by graphviz version 2.43.0 (0)
 -->
<!-- Title: xiiApplication Pages: 1 -->
<svg width="644pt" height="434pt"
 viewBox="0.00 0.00 644.00 434.00" xmlns="http://www.w3.org/2000/svg" xmlns:xlink="http://www.w3.org/1999/xlink">
<g id="graph0" class="graph" transform="scale(1 1) rotate(0) translate(4 430)">
<title>xiiApplication</title>
<!-- Node1 -->
<g id="Node000001" class="node">
<title>Node1</title>
<g id="a_Node000001"><a xlink:title="Base class to be used by applications based on XII.">
<polygon fill="#999999" stroke="#666666" points="83,-241 0,-241 0,-222 83,-222 83,-241"/>
<text text-anchor="middle" x="41.5" y="-229" font-family="Helvetica,sans-Serif" font-size="10.00">xiiApplication</text>
</a>
</g>
</g>
<!-- Node2 -->
<g id="Node000002" class="node">
<title>Node2</title>
<g id="a_Node000002"><a xlink:title=" ">
<polygon fill="white" stroke="#bfbfbf" points="236,-426 151,-426 151,-407 236,-407 236,-426"/>
<text text-anchor="middle" x="193.5" y="-414" font-family="Helvetica,sans-Serif" font-size="10.00">xiiArchiveTool</text>
</a>
</g>
</g>
<!-- Node1&#45;&gt;Node2 -->
<g id="edge1_Node000001_Node000002" class="edge">
<title>Node1&#45;&gt;Node2</title>
<g id="a_edge1_Node000001_Node000002"><a xlink:title=" ">
<path fill="none" stroke="#63b8ff" d="M45.78,-251.16C52.7,-286.3 72.2,-359.82 119,-398.5 128.01,-405.95 139.64,-410.39 150.98,-413.02"/>
<polygon fill="#63b8ff" stroke="#63b8ff" points="49.2,-250.4 43.95,-241.19 42.31,-251.66 49.2,-250.4"/>
</a>
</g>
</g>
<!-- Node3 -->
<g id="Node000003" class="node">
<title>Node3</title>
<g id="a_Node000003"><a xlink:title=" ">
<polygon fill="white" stroke="#bfbfbf" points="268,-389 119,-389 119,-370 268,-370 268,-389"/>
<text text-anchor="middle" x="193.5" y="-377" font-family="Helvetica,sans-Serif" font-size="10.00">xiiDependencyAnalysisApp</text>
</a>
</g>
</g>
<!-- Node1&#45;&gt;Node3 -->
<g id="edge2_Node000001_Node000003" class="edge">
<title>Node1&#45;&gt;Node3</title>
<g id="a_edge2_Node000001_Node000003"><a xlink:title=" ">
<path fill="none" stroke="#63b8ff" d="M48.43,-250.78C58.28,-279.48 80.81,-333.09 119,-361.5 123.53,-364.87 128.62,-367.62 133.94,-369.86"/>
<polygon fill="#63b8ff" stroke="#63b8ff" points="51.7,-249.53 45.27,-241.11 45.05,-251.7 51.7,-249.53"/>
</a>
</g>
</g>
<!-- Node4 -->
<g id="Node000004" class="node">
<title>Node4</title>
<g id="a_Node000004"><a xlink:title=" ">
<polygon fill="white" stroke="#bfbfbf" points="249.5,-352 137.5,-352 137.5,-333 249.5,-333 249.5,-352"/>
<text text-anchor="middle" x="193.5" y="-340" font-family="Helvetica,sans-Serif" font-size="10.00">xiiEditorApplication</text>
</a>
</g>
</g>
<!-- Node1&#45;&gt;Node4 -->
<g id="edge3_Node000001_Node000004" class="edge">
<title>Node1&#45;&gt;Node4</title>
<g id="a_edge3_Node000001_Node000004"><a xlink:title=" ">
<path fill="none" stroke="#63b8ff" d="M56.82,-249.61C70.19,-268.99 92.11,-298.59 119,-315.5 134.13,-325.01 153.92,-329.5 169.16,-332.96"/>
<polygon fill="#63b8ff" stroke="#63b8ff" points="59.64,-247.54 51.12,-241.26 53.86,-251.49 59.64,-247.54"/>
</a>
</g>
</g>
<!-- Node1&#45;&gt;Node4 -->
<g id="edge4_Node000001_Node000004" class="edge">
<title>Node1&#45;&gt;Node4</title>
<g id="a_edge4_Node000001_Node000004"><a xlink:title=" ">
<path fill="none" stroke="#63b8ff" d="M49.57,-250.33C61.23,-274.04 86.48,-313.05 119,-333.5 124.56,-337 130.75,-339.81 137.12,-342.02"/>
<polygon fill="#63b8ff" stroke="#63b8ff" points="52.74,-248.85 45.42,-241.2 46.37,-251.75 52.74,-248.85"/>
</a>
</g>
</g>
<!-- Node5 -->
<g id="Node000005" class="node">
<title>Node5</title>
<g id="a_Node000005"><a xlink:href="../../d5/da9/classxii_fileserver_app.htm" target="_top" xlink:title="A stand&#45;alone application for the xiiFileServer.">
<polygon fill="white" stroke="#666666" points="241,-315 146,-315 146,-296 241,-296 241,-315"/>
<text text-anchor="middle" x="193.5" y="-303" font-family="Helvetica,sans-Serif" font-size="10.00">xiiFileserverApp</text>
</a>
</g>
</g>
<!-- Node1&#45;&gt;Node5 -->
<g id="edge5_Node000001_Node000005" class="edge">
<title>Node1&#45;&gt;Node5</title>
<g id="a_edge5_Node000001_Node000005"><a xlink:title=" ">
<path fill="none" stroke="#63b8ff" d="M60.84,-248.15C75.56,-260.69 97.3,-277.39 119,-287.5 127.34,-291.38 136.61,-294.49 145.68,-296.95"/>
<polygon fill="#63b8ff" stroke="#63b8ff" points="62.86,-245.28 53.03,-241.33 58.26,-250.55 62.86,-245.28"/>
</a>
</g>
</g>
<!-- Node6 -->
<g id="Node000006" class="node">
<title>Node6</title>
<g id="a_Node000006"><a xlink:href="../../da/d67/classxii_game_application_base.htm" target="_top" xlink:title=" ">
<polygon fill="white" stroke="#bfbfbf" points="262,-278 125,-278 125,-259 262,-259 262,-278"/>
<text text-anchor="middle" x="193.5" y="-266" font-family="Helvetica,sans-Serif" font-size="10.00">xiiGameApplicationBase</text>
</a>
</g>
</g>
<!-- Node1&#45;&gt;Node6 -->
<g id="edge6_Node000001_Node000006" class="edge">
<title>Node1&#45;&gt;Node6</title>
<g id="a_edge6_Node000001_Node000006"><a xlink:title=" ">
<path fill="none" stroke="#63b8ff" d="M90.94,-243.56C100.25,-245.87 109.93,-248.26 119,-250.5 130.22,-253.27 142.42,-256.26 153.59,-259"/>
<polygon fill="#63b8ff" stroke="#63b8ff" points="91.57,-240.11 81.02,-241.09 89.88,-246.9 91.57,-240.11"/>
</a>
</g>
</g>
<!-- Node11 -->
<g id="Node000011" class="node">
<title>Node11</title>
<g id="a_Node000011"><a xlink:title=" ">
<polygon fill="white" stroke="#bfbfbf" points="250,-241 137,-241 137,-222 250,-222 250,-241"/>
<text text-anchor="middle" x="193.5" y="-229" font-family="Helvetica,sans-Serif" font-size="10.00">xiiHeaderCheckApp</text>
</a>
</g>
</g>
<!-- Node1&#45;&gt;Node11 -->
<g id="edge11_Node000001_Node000011" class="edge">
<title>Node1&#45;&gt;Node11</title>
<g id="a_edge11_Node000001_Node000011"><a xlink:title=" ">
<path fill="none" stroke="#63b8ff" d="M93.1,-231.5C107.19,-231.5 122.58,-231.5 136.95,-231.5"/>
<polygon fill="#63b8ff" stroke="#63b8ff" points="93.09,-228 83.09,-231.5 93.09,-235 93.09,-228"/>
</a>
</g>
</g>
<!-- Node12 -->
<g id="Node000012" class="node">
<title>Node12</title>
<g id="a_Node000012"><a xlink:title=" ">
<polygon fill="white" stroke="#bfbfbf" points="235,-204 152,-204 152,-185 235,-185 235,-204"/>
<text text-anchor="middle" x="193.5" y="-192" font-family="Helvetica,sans-Serif" font-size="10.00">xiiHeaderTool</text>
</a>
</g>
</g>
<!-- Node1&#45;&gt;Node12 -->
<g id="edge12_Node000001_Node000012" class="edge">
<title>Node1&#45;&gt;Node12</title>
<g id="a_edge12_Node000001_Node000012"><a xlink:title=" ">
<path fill="none" stroke="#63b8ff" d="M90.84,-219.57C111.19,-214.56 134.55,-208.79 153.74,-204.06"/>
<polygon fill="#63b8ff" stroke="#63b8ff" points="90,-216.18 81.13,-221.97 91.68,-222.97 90,-216.18"/>
</a>
</g>
</g>
<!-- Node13 -->
<g id="Node000013" class="node">
<title>Node13</title>
<g id="a_Node000013"><a xlink:title=" ">
<polygon fill="white" stroke="#bfbfbf" points="239.5,-167 147.5,-167 147.5,-148 239.5,-148 239.5,-167"/>
<text text-anchor="middle" x="193.5" y="-155" font-family="Helvetica,sans-Serif" font-size="10.00">xiiInspectorApp</text>
</a>
</g>
</g>
<!-- Node1&#45;&gt;Node13 -->
<g id="edge13_Node000001_Node000013" class="edge">
<title>Node1&#45;&gt;Node13</title>
<g id="a_edge13_Node000001_Node000013"><a xlink:title=" ">
<path fill="none" stroke="#63b8ff" d="M60.92,-215.24C75.7,-202.97 97.45,-186.59 119,-176.5 127.83,-172.36 137.7,-169.03 147.27,-166.38"/>
<polygon fill="#63b8ff" stroke="#63b8ff" points="58.43,-212.76 53.09,-221.9 62.97,-218.09 58.43,-212.76"/>
</a>
</g>
</g>
<!-- Node14 -->
<g id="Node000014" class="node">
<title>Node14</title>
<g id="a_Node000014"><a xlink:title=" ">
<polygon fill="white" stroke="#bfbfbf" points="242.5,-130 144.5,-130 144.5,-111 242.5,-111 242.5,-130"/>
<text text-anchor="middle" x="193.5" y="-118" font-family="Helvetica,sans-Serif" font-size="10.00">xiiMiniDumpTool</text>
</a>
</g>
</g>
<!-- Node1&#45;&gt;Node14 -->
<g id="edge14_Node000001_Node000014" class="edge">
<title>Node1&#45;&gt;Node14</title>
<g id="a_edge14_Node000001_Node000014"><a xlink:title=" ">
<path fill="none" stroke="#63b8ff" d="M52.9,-213.07C65.72,-192.06 89.49,-158.21 119,-139.5 126.68,-134.63 135.56,-131.01 144.44,-128.31"/>
<polygon fill="#63b8ff" stroke="#63b8ff" points="49.87,-211.33 47.8,-221.72 55.89,-214.89 49.87,-211.33"/>
</a>
</g>
</g>
<!-- Node15 -->
<g id="Node000015" class="node">
<title>Node15</title>
<g id="a_Node000015"><a xlink:title=" ">
<polygon fill="white" stroke="#bfbfbf" points="242.5,-93 144.5,-93 144.5,-74 242.5,-74 242.5,-93"/>
<text text-anchor="middle" x="193.5" y="-81" font-family="Helvetica,sans-Serif" font-size="10.00">xiiStackResolver</text>
</a>
</g>
</g>
<!-- Node1&#45;&gt;Node15 -->
<g id="edge15_Node000001_Node000015" class="edge">
<title>Node1&#45;&gt;Node15</title>
<g id="a_edge15_Node000001_Node000015"><a xlink:title=" ">
<path fill="none" stroke="#63b8ff" d="M48.52,-212.43C58.48,-184.02 81.16,-130.93 119,-102.5 126.38,-96.96 135.21,-93.03 144.16,-90.24"/>
<polygon fill="#63b8ff" stroke="#63b8ff" points="45.17,-211.4 45.32,-222 51.81,-213.62 45.17,-211.4"/>
</a>
</g>
</g>
<!-- Node16 -->
<g id="Node000016" class="node">
<title>Node16</title>
<g id="a_Node000016"><a xlink:title=" ">
<polygon fill="white" stroke="#bfbfbf" points="245.5,-56 141.5,-56 141.5,-37 245.5,-37 245.5,-56"/>
<text text-anchor="middle" x="193.5" y="-44" font-family="Helvetica,sans-Serif" font-size="10.00">xiiStaticLinkerApp</text>
</a>
</g>
</g>
<!-- Node1&#45;&gt;Node16 -->
<g id="edge16_Node000001_Node000016" class="edge">
<title>Node1&#45;&gt;Node16</title>
<g id="a_edge16_Node000001_Node000016"><a xlink:title=" ">
<path fill="none" stroke="#63b8ff" d="M45.86,-212.01C52.92,-177.17 72.63,-104.23 119,-65.5 125.47,-60.09 133.3,-56.2 141.41,-53.41"/>
<polygon fill="#63b8ff" stroke="#63b8ff" points="42.41,-211.42 44,-221.89 49.29,-212.72 42.41,-211.42"/>
</a>
</g>
</g>
<!-- Node17 -->
<g id="Node000017" class="node">
<title>Node17</title>
<g id="a_Node000017"><a xlink:href="../../d5/ddb/classxii_tex_conv.htm" target="_top" xlink:title=" ">
<polygon fill="white" stroke="#bfbfbf" points="228.5,-19 158.5,-19 158.5,0 228.5,0 228.5,-19"/>
<text text-anchor="middle" x="193.5" y="-7" font-family="Helvetica,sans-Serif" font-size="10.00">xiiTexConv</text>
</a>
</g>
</g>
<!-- Node1&#45;&gt;Node17 -->
<g id="edge17_Node000001_Node000017" class="edge">
<title>Node1&#45;&gt;Node17</title>
<g id="a_edge17_Node000001_Node000017"><a xlink:title=" ">
<path fill="none" stroke="#63b8ff" d="M44.05,-211.73C48.33,-171.11 63.93,-77.95 119,-28.5 129.69,-18.9 144.6,-14.03 158.2,-11.61"/>
<polygon fill="#63b8ff" stroke="#63b8ff" points="40.56,-211.43 43.12,-221.71 47.53,-212.08 40.56,-211.43"/>
</a>
</g>
</g>
<!-- Node7 -->
<g id="Node000007" class="node">
<title>Node7</title>
<g id="a_Node000007"><a xlink:href="../../d1/ded/classxii_game_application.htm" target="_top" xlink:title="The base class for all typical game applications made with xiiEngine.">
<polygon fill="white" stroke="#666666" points="417,-278 304,-278 304,-259 417,-259 417,-278"/>
<text text-anchor="middle" x="360.5" y="-266" font-family="Helvetica,sans-Serif" font-size="10.00">xiiGameApplication</text>
</a>
</g>
</g>
<!-- Node6&#45;&gt;Node7 -->
<g id="edge7_Node000006_Node000007" class="edge">
<title>Node6&#45;&gt;Node7</title>
<g id="a_edge7_Node000006_Node000007"><a xlink:title=" ">
<path fill="none" stroke="#63b8ff" d="M272.25,-268.5C282.92,-268.5 293.68,-268.5 303.84,-268.5"/>
<polygon fill="#63b8ff" stroke="#63b8ff" points="272.09,-265 262.09,-268.5 272.09,-272 272.09,-265"/>
</a>
</g>
</g>
<!-- Node8 -->
<g id="Node000008" class="node">
<title>Node8</title>
<g id="a_Node000008"><a xlink:href="../../d6/d7b/classxii_engine_process_game_application.htm" target="_top" xlink:title=" ">
<polygon fill="white" stroke="#bfbfbf" points="636,-315 453,-315 453,-296 636,-296 636,-315"/>
<text text-anchor="middle" x="544.5" y="-303" font-family="Helvetica,sans-Serif" font-size="10.00">xiiEngineProcessGameApplication</text>
</a>
</g>
</g>
<!-- Node7&#45;&gt;Node8 -->
<g id="edge8_Node000007_Node000008" class="edge">
<title>Node7&#45;&gt;Node8</title>
<g id="a_edge8_Node000007_Node000008"><a xlink:title=" ">
<path fill="none" stroke="#63b8ff" d="M416.92,-280.09C428.82,-282.55 441.32,-285.13 453,-287.5 466.66,-290.28 481.48,-293.24 495.11,-295.95"/>
<polygon fill="#63b8ff" stroke="#63b8ff" points="417.6,-276.65 407.1,-278.05 416.18,-283.51 417.6,-276.65"/>
</a>
</g>
</g>
<!-- Node9 -->
<g id="Node000009" class="node">
<title>Node9</title>
<g id="a_Node000009"><a xlink:href="../../d7/d9e/classxii_player_application.htm" target="_top" xlink:title=" ">
<polygon fill="white" stroke="#bfbfbf" points="601.5,-278 487.5,-278 487.5,-259 601.5,-259 601.5,-278"/>
<text text-anchor="middle" x="544.5" y="-266" font-family="Helvetica,sans-Serif" font-size="10.00">xiiPlayerApplication</text>
</a>
</g>
</g>
<!-- Node7&#45;&gt;Node9 -->
<g id="edge9_Node000007_Node000009" class="edge">
<title>Node7&#45;&gt;Node9</title>
<g id="a_edge9_Node000007_Node000009"><a xlink:title=" ">
<path fill="none" stroke="#63b8ff" d="M427.21,-268.5C446.89,-268.5 468.29,-268.5 487.3,-268.5"/>
<polygon fill="#63b8ff" stroke="#63b8ff" points="427.09,-265 417.09,-268.5 427.09,-272 427.09,-265"/>
</a>
</g>
</g>
<!-- Node10 -->
<g id="Node000010" class="node">
<title>Node10</title>
<g id="a_Node000010"><a xlink:href="../../d1/df8/classxii_shader_compiler_application.htm" target="_top" xlink:title=" ">
<polygon fill="white" stroke="#bfbfbf" points="625,-241 464,-241 464,-222 625,-222 625,-241"/>
<text text-anchor="middle" x="544.5" y="-229" font-family="Helvetica,sans-Serif" font-size="10.00">xiiShaderCompilerApplication</text>
</a>
</g>
</g>
<!-- Node7&#45;&gt;Node10 -->
<g id="edge10_Node000007_Node000010" class="edge">
<title>Node7&#45;&gt;Node10</title>
<g id="a_edge10_Node000007_Node000010"><a xlink:title=" ">
<path fill="none" stroke="#63b8ff" d="M418.48,-256.92C443.56,-251.82 472.66,-245.9 496.47,-241.06"/>
<polygon fill="#63b8ff" stroke="#63b8ff" points="417.47,-253.55 408.37,-258.97 418.87,-260.41 417.47,-253.55"/>
</a>
</g>
</g>
</g>
</svg>
