<?xml version="1.0" encoding="UTF-8" standalone="no"?>
<!DOCTYPE svg PUBLIC "-//W3C//DTD SVG 1.1//EN"
 "http://www.w3.org/Graphics/SVG/1.1/DTD/svg11.dtd">
<!-- Generated by graphviz version 2.43.0 (0)
 -->
<!-- Title: xiiApplication Pages: 1 -->
<svg width="644pt" height="446pt"
 viewBox="0.00 0.00 644.00 446.00" xmlns="http://www.w3.org/2000/svg" xmlns:xlink="http://www.w3.org/1999/xlink">
<g id="graph0" class="graph" transform="scale(1 1) rotate(0) translate(4 442)">
<title>xiiApplication</title>
<polygon fill="white" stroke="transparent" points="-4,4 -4,-442 640,-442 640,4 -4,4"/>
<!-- Node1 -->
<g id="node1" class="node">
<title>Node1</title>
<g id="a_node1"><a xlink:title="Base class to be used by applications based on XII.">
<polygon fill="#bfbfbf" stroke="black" points="0,-228.5 0,-247.5 83,-247.5 83,-228.5 0,-228.5"/>
<text text-anchor="middle" x="41.5" y="-235.5" font-family="Helvetica,sans-Serif" font-size="10.00">xiiApplication</text>
</a>
</g>
</g>
<!-- Node2 -->
<g id="node2" class="node">
<title>Node2</title>
<g id="a_node2"><a xlink:title=" ">
<polygon fill="white" stroke="#bfbfbf" points="151,-418.5 151,-437.5 236,-437.5 236,-418.5 151,-418.5"/>
<text text-anchor="middle" x="193.5" y="-425.5" font-family="Helvetica,sans-Serif" font-size="10.00">xiiArchiveTool</text>
</a>
</g>
</g>
<!-- Node1&#45;&gt;Node2 -->
<g id="edge1" class="edge">
<title>Node1&#45;&gt;Node2</title>
<path fill="none" stroke="midnightblue" d="M45.68,-258.06C52.44,-293.93 71.7,-369.04 119,-409 127.96,-416.57 139.57,-421.17 150.91,-423.96"/>
<polygon fill="midnightblue" stroke="midnightblue" points="49.07,-257.14 43.9,-247.89 42.17,-258.34 49.07,-257.14"/>
</g>
<!-- Node3 -->
<g id="node3" class="node">
<title>Node3</title>
<g id="a_node3"><a xlink:title=" ">
<polygon fill="white" stroke="#bfbfbf" points="119,-380.5 119,-399.5 268,-399.5 268,-380.5 119,-380.5"/>
<text text-anchor="middle" x="193.5" y="-387.5" font-family="Helvetica,sans-Serif" font-size="10.00">xiiDependencyAnalysisApp</text>
</a>
</g>
</g>
<!-- Node1&#45;&gt;Node3 -->
<g id="edge2" class="edge">
<title>Node1&#45;&gt;Node3</title>
<path fill="none" stroke="midnightblue" d="M48.35,-257.66C58.09,-286.93 80.48,-341.66 119,-371 124.14,-374.91 130,-378.02 136.12,-380.5"/>
<polygon fill="midnightblue" stroke="midnightblue" points="51.58,-256.27 45.23,-247.79 44.91,-258.38 51.58,-256.27"/>
</g>
<!-- Node4 -->
<g id="node4" class="node">
<title>Node4</title>
<g id="a_node4"><a xlink:title=" ">
<polygon fill="white" stroke="#bfbfbf" points="137.5,-342.5 137.5,-361.5 249.5,-361.5 249.5,-342.5 137.5,-342.5"/>
<text text-anchor="middle" x="193.5" y="-349.5" font-family="Helvetica,sans-Serif" font-size="10.00">xiiEditorApplication</text>
</a>
</g>
</g>
<!-- Node1&#45;&gt;Node4 -->
<g id="edge3" class="edge">
<title>Node1&#45;&gt;Node4</title>
<path fill="none" stroke="midnightblue" d="M56.52,-256.23C69.82,-276.01 91.81,-306.46 119,-324 134.51,-334 155.03,-338.75 170.45,-342.47"/>
<polygon fill="midnightblue" stroke="midnightblue" points="59.31,-254.12 50.86,-247.73 53.48,-257.99 59.31,-254.12"/>
</g>
<!-- Node1&#45;&gt;Node4 -->
<g id="edge4" class="edge">
<title>Node1&#45;&gt;Node4</title>
<path fill="none" stroke="midnightblue" d="M49.53,-257.06C61.13,-281.15 86.3,-320.91 119,-342 124.65,-345.64 130.96,-348.59 137.46,-350.9"/>
<polygon fill="midnightblue" stroke="midnightblue" points="52.67,-255.51 45.4,-247.8 46.27,-258.36 52.67,-255.51"/>
</g>
<!-- Node5 -->
<g id="node5" class="node">
<title>Node5</title>
<g id="a_node5"><a xlink:href="../../d5/da9/classxii_fileserver_app.htm" target="_top" xlink:title="A stand&#45;alone application for the xiiFileServer.">
<polygon fill="white" stroke="black" points="146,-304.5 146,-323.5 241,-323.5 241,-304.5 146,-304.5"/>
<text text-anchor="middle" x="193.5" y="-311.5" font-family="Helvetica,sans-Serif" font-size="10.00">xiiFileserverApp</text>
</a>
</g>
</g>
<!-- Node1&#45;&gt;Node5 -->
<g id="edge5" class="edge">
<title>Node1&#45;&gt;Node5</title>
<path fill="none" stroke="midnightblue" d="M60.32,-254.45C75.04,-267.22 97.02,-284.47 119,-295 127.32,-298.99 136.59,-302.21 145.66,-304.8"/>
<polygon fill="midnightblue" stroke="midnightblue" points="62.34,-251.56 52.54,-247.53 57.69,-256.79 62.34,-251.56"/>
</g>
<!-- Node6 -->
<g id="node6" class="node">
<title>Node6</title>
<g id="a_node6"><a xlink:href="../../da/d67/classxii_game_application_base.htm" target="_top" xlink:title=" ">
<polygon fill="white" stroke="black" points="125,-266.5 125,-285.5 262,-285.5 262,-266.5 125,-266.5"/>
<text text-anchor="middle" x="193.5" y="-273.5" font-family="Helvetica,sans-Serif" font-size="10.00">xiiGameApplicationBase</text>
</a>
</g>
</g>
<!-- Node1&#45;&gt;Node6 -->
<g id="edge6" class="edge">
<title>Node1&#45;&gt;Node6</title>
<path fill="none" stroke="midnightblue" d="M90.31,-250.11C111.2,-255.4 135.35,-261.52 154.92,-266.48"/>
<polygon fill="midnightblue" stroke="midnightblue" points="90.9,-246.65 80.35,-247.59 89.19,-253.44 90.9,-246.65"/>
</g>
<!-- Node11 -->
<g id="node11" class="node">
<title>Node11</title>
<g id="a_node11"><a xlink:title=" ">
<polygon fill="white" stroke="#bfbfbf" points="137,-228.5 137,-247.5 250,-247.5 250,-228.5 137,-228.5"/>
<text text-anchor="middle" x="193.5" y="-235.5" font-family="Helvetica,sans-Serif" font-size="10.00">xiiHeaderCheckApp</text>
</a>
</g>
</g>
<!-- Node1&#45;&gt;Node11 -->
<g id="edge11" class="edge">
<title>Node1&#45;&gt;Node11</title>
<path fill="none" stroke="midnightblue" d="M93.1,-238C107.19,-238 122.58,-238 136.95,-238"/>
<polygon fill="midnightblue" stroke="midnightblue" points="93.09,-234.5 83.09,-238 93.09,-241.5 93.09,-234.5"/>
</g>
<!-- Node12 -->
<g id="node12" class="node">
<title>Node12</title>
<g id="a_node12"><a xlink:title=" ">
<polygon fill="white" stroke="#bfbfbf" points="152,-190.5 152,-209.5 235,-209.5 235,-190.5 152,-190.5"/>
<text text-anchor="middle" x="193.5" y="-197.5" font-family="Helvetica,sans-Serif" font-size="10.00">xiiHeaderTool</text>
</a>
</g>
</g>
<!-- Node1&#45;&gt;Node12 -->
<g id="edge12" class="edge">
<title>Node1&#45;&gt;Node12</title>
<path fill="none" stroke="midnightblue" d="M90.31,-225.89C111.2,-220.6 135.35,-214.48 154.92,-209.52"/>
<polygon fill="midnightblue" stroke="midnightblue" points="89.19,-222.56 80.35,-228.41 90.9,-229.35 89.19,-222.56"/>
</g>
<!-- Node13 -->
<g id="node13" class="node">
<title>Node13</title>
<g id="a_node13"><a xlink:title=" ">
<polygon fill="white" stroke="#bfbfbf" points="147.5,-152.5 147.5,-171.5 239.5,-171.5 239.5,-152.5 147.5,-152.5"/>
<text text-anchor="middle" x="193.5" y="-159.5" font-family="Helvetica,sans-Serif" font-size="10.00">xiiInspectorApp</text>
</a>
</g>
</g>
<!-- Node1&#45;&gt;Node13 -->
<g id="edge13" class="edge">
<title>Node1&#45;&gt;Node13</title>
<path fill="none" stroke="midnightblue" d="M60.32,-221.55C75.04,-208.78 97.02,-191.53 119,-181 127.8,-176.79 137.65,-173.42 147.21,-170.77"/>
<polygon fill="midnightblue" stroke="midnightblue" points="57.69,-219.21 52.54,-228.47 62.34,-224.44 57.69,-219.21"/>
</g>
<!-- Node14 -->
<g id="node14" class="node">
<title>Node14</title>
<g id="a_node14"><a xlink:title=" ">
<polygon fill="white" stroke="#bfbfbf" points="144.5,-114.5 144.5,-133.5 242.5,-133.5 242.5,-114.5 144.5,-114.5"/>
<text text-anchor="middle" x="193.5" y="-121.5" font-family="Helvetica,sans-Serif" font-size="10.00">xiiMiniDumpTool</text>
</a>
</g>
</g>
<!-- Node1&#45;&gt;Node14 -->
<g id="edge14" class="edge">
<title>Node1&#45;&gt;Node14</title>
<path fill="none" stroke="midnightblue" d="M52.36,-219.63C64.95,-197.99 88.75,-162.51 119,-143 126.64,-138.07 135.5,-134.42 144.37,-131.71"/>
<polygon fill="midnightblue" stroke="midnightblue" points="49.23,-218.06 47.39,-228.5 55.34,-221.49 49.23,-218.06"/>
</g>
<!-- Node15 -->
<g id="node15" class="node">
<title>Node15</title>
<g id="a_node15"><a xlink:title=" ">
<polygon fill="white" stroke="#bfbfbf" points="144.5,-76.5 144.5,-95.5 242.5,-95.5 242.5,-76.5 144.5,-76.5"/>
<text text-anchor="middle" x="193.5" y="-83.5" font-family="Helvetica,sans-Serif" font-size="10.00">xiiStackResolver</text>
</a>
</g>
</g>
<!-- Node1&#45;&gt;Node15 -->
<g id="edge15" class="edge">
<title>Node1&#45;&gt;Node15</title>
<path fill="none" stroke="midnightblue" d="M48.35,-218.34C58.09,-189.07 80.48,-134.34 119,-105 126.44,-99.33 135.41,-95.34 144.49,-92.54"/>
<polygon fill="midnightblue" stroke="midnightblue" points="44.91,-217.62 45.23,-228.21 51.58,-219.73 44.91,-217.62"/>
</g>
<!-- Node16 -->
<g id="node16" class="node">
<title>Node16</title>
<g id="a_node16"><a xlink:title=" ">
<polygon fill="white" stroke="#bfbfbf" points="141.5,-38.5 141.5,-57.5 245.5,-57.5 245.5,-38.5 141.5,-38.5"/>
<text text-anchor="middle" x="193.5" y="-45.5" font-family="Helvetica,sans-Serif" font-size="10.00">xiiStaticLinkerApp</text>
</a>
</g>
</g>
<!-- Node1&#45;&gt;Node16 -->
<g id="edge16" class="edge">
<title>Node1&#45;&gt;Node16</title>
<path fill="none" stroke="midnightblue" d="M45.68,-217.94C52.44,-182.07 71.7,-106.96 119,-67 125.44,-61.56 133.26,-57.65 141.36,-54.84"/>
<polygon fill="midnightblue" stroke="midnightblue" points="42.17,-217.66 43.9,-228.11 49.07,-218.86 42.17,-217.66"/>
</g>
<!-- Node17 -->
<g id="node17" class="node">
<title>Node17</title>
<g id="a_node17"><a xlink:href="../../d5/ddb/classxii_tex_conv.htm" target="_top" xlink:title=" ">
<polygon fill="white" stroke="black" points="158.5,-0.5 158.5,-19.5 228.5,-19.5 228.5,-0.5 158.5,-0.5"/>
<text text-anchor="middle" x="193.5" y="-7.5" font-family="Helvetica,sans-Serif" font-size="10.00">xiiTexConv</text>
</a>
</g>
</g>
<!-- Node1&#45;&gt;Node17 -->
<g id="edge17" class="edge">
<title>Node1&#45;&gt;Node17</title>
<path fill="none" stroke="midnightblue" d="M43.81,-218.24C47.64,-176.76 62.48,-80.24 119,-29 129.64,-19.35 144.55,-14.47 158.16,-12.06"/>
<polygon fill="midnightblue" stroke="midnightblue" points="40.3,-218.14 42.99,-228.39 47.28,-218.7 40.3,-218.14"/>
</g>
<!-- Node7 -->
<g id="node7" class="node">
<title>Node7</title>
<g id="a_node7"><a xlink:href="../../d1/ded/classxii_game_application.htm" target="_top" xlink:title="The base class for all typical game applications made with xiiEngine.">
<polygon fill="white" stroke="black" points="304,-266.5 304,-285.5 417,-285.5 417,-266.5 304,-266.5"/>
<text text-anchor="middle" x="360.5" y="-273.5" font-family="Helvetica,sans-Serif" font-size="10.00">xiiGameApplication</text>
</a>
</g>
</g>
<!-- Node6&#45;&gt;Node7 -->
<g id="edge7" class="edge">
<title>Node6&#45;&gt;Node7</title>
<path fill="none" stroke="midnightblue" d="M272.25,-276C282.92,-276 293.68,-276 303.84,-276"/>
<polygon fill="midnightblue" stroke="midnightblue" points="272.09,-272.5 262.09,-276 272.09,-279.5 272.09,-272.5"/>
</g>
<!-- Node8 -->
<g id="node8" class="node">
<title>Node8</title>
<g id="a_node8"><a xlink:href="../../d6/d7b/classxii_engine_process_game_application.htm" target="_top" xlink:title=" ">
<polygon fill="white" stroke="black" points="453,-304.5 453,-323.5 636,-323.5 636,-304.5 453,-304.5"/>
<text text-anchor="middle" x="544.5" y="-311.5" font-family="Helvetica,sans-Serif" font-size="10.00">xiiEngineProcessGameApplication</text>
</a>
</g>
</g>
<!-- Node7&#45;&gt;Node8 -->
<g id="edge8" class="edge">
<title>Node7&#45;&gt;Node8</title>
<path fill="none" stroke="midnightblue" d="M417.45,-287.68C443.26,-293.07 473.51,-299.39 497.9,-304.48"/>
<polygon fill="midnightblue" stroke="midnightblue" points="417.93,-284.21 407.43,-285.59 416.5,-291.06 417.93,-284.21"/>
</g>
<!-- Node9 -->
<g id="node9" class="node">
<title>Node9</title>
<g id="a_node9"><a xlink:href="../../d7/d9e/classxii_player_application.htm" target="_top" xlink:title=" ">
<polygon fill="white" stroke="black" points="487.5,-266.5 487.5,-285.5 601.5,-285.5 601.5,-266.5 487.5,-266.5"/>
<text text-anchor="middle" x="544.5" y="-273.5" font-family="Helvetica,sans-Serif" font-size="10.00">xiiPlayerApplication</text>
</a>
</g>
</g>
<!-- Node7&#45;&gt;Node9 -->
<g id="edge9" class="edge">
<title>Node7&#45;&gt;Node9</title>
<path fill="none" stroke="midnightblue" d="M427.21,-276C446.89,-276 468.29,-276 487.3,-276"/>
<polygon fill="midnightblue" stroke="midnightblue" points="427.09,-272.5 417.09,-276 427.09,-279.5 427.09,-272.5"/>
</g>
<!-- Node10 -->
<g id="node10" class="node">
<title>Node10</title>
<g id="a_node10"><a xlink:href="../../d1/df8/classxii_shader_compiler_application.htm" target="_top" xlink:title=" ">
<polygon fill="white" stroke="black" points="464,-228.5 464,-247.5 625,-247.5 625,-228.5 464,-228.5"/>
<text text-anchor="middle" x="544.5" y="-235.5" font-family="Helvetica,sans-Serif" font-size="10.00">xiiShaderCompilerApplication</text>
</a>
</g>
</g>
<!-- Node7&#45;&gt;Node10 -->
<g id="edge10" class="edge">
<title>Node7&#45;&gt;Node10</title>
<path fill="none" stroke="midnightblue" d="M417.45,-264.32C443.26,-258.93 473.51,-252.61 497.9,-247.52"/>
<polygon fill="midnightblue" stroke="midnightblue" points="416.5,-260.94 407.43,-266.41 417.93,-267.79 416.5,-260.94"/>
</g>
</g>
</svg>
