<?xml version="1.0" encoding="UTF-8" standalone="no"?>
<!DOCTYPE svg PUBLIC "-//W3C//DTD SVG 1.1//EN"
 "http://www.w3.org/Graphics/SVG/1.1/DTD/svg11.dtd">
<!-- Generated by graphviz version 2.43.0 (0)
 -->
<!-- Title: xiiQtSceneDocumentWindowBase Pages: 1 -->
<svg width="380pt" height="308pt"
 viewBox="0.00 0.00 380.00 308.00" xmlns="http://www.w3.org/2000/svg" xmlns:xlink="http://www.w3.org/1999/xlink">
<g id="graph0" class="graph" transform="scale(1 1) rotate(0) translate(4 304)">
<title>xiiQtSceneDocumentWindowBase</title>
<polygon fill="white" stroke="transparent" points="-4,4 -4,-304 376,-304 376,4 -4,4"/>
<!-- Node1 -->
<g id="node1" class="node">
<title>Node1</title>
<g id="a_node1"><a xlink:title=" ">
<polygon fill="#bfbfbf" stroke="black" points="101,-56.5 101,-75.5 283,-75.5 283,-56.5 101,-56.5"/>
<text text-anchor="middle" x="192" y="-63.5" font-family="Helvetica,sans-Serif" font-size="10.00">xiiQtSceneDocumentWindowBase</text>
</a>
</g>
</g>
<!-- Node7 -->
<g id="node7" class="node">
<title>Node7</title>
<g id="a_node7"><a xlink:href="../../d7/d61/classxii_qt_scene2_document_window.htm" target="_top" xlink:title=" ">
<polygon fill="white" stroke="black" points="21,-0.5 21,-19.5 185,-19.5 185,-0.5 21,-0.5"/>
<text text-anchor="middle" x="103" y="-7.5" font-family="Helvetica,sans-Serif" font-size="10.00">xiiQtScene2DocumentWindow</text>
</a>
</g>
</g>
<!-- Node1&#45;&gt;Node7 -->
<g id="edge6" class="edge">
<title>Node1&#45;&gt;Node7</title>
<path fill="none" stroke="midnightblue" d="M168.76,-50.9C152.44,-41 131.13,-28.07 117.26,-19.65"/>
<polygon fill="midnightblue" stroke="midnightblue" points="167.34,-54.13 177.7,-56.32 170.97,-48.14 167.34,-54.13"/>
</g>
<!-- Node8 -->
<g id="node8" class="node">
<title>Node8</title>
<g id="a_node8"><a xlink:href="../../df/d7c/classxii_qt_scene_document_window.htm" target="_top" xlink:title=" ">
<polygon fill="white" stroke="black" points="203,-0.5 203,-19.5 361,-19.5 361,-0.5 203,-0.5"/>
<text text-anchor="middle" x="282" y="-7.5" font-family="Helvetica,sans-Serif" font-size="10.00">xiiQtSceneDocumentWindow</text>
</a>
</g>
</g>
<!-- Node1&#45;&gt;Node8 -->
<g id="edge7" class="edge">
<title>Node1&#45;&gt;Node8</title>
<path fill="none" stroke="midnightblue" d="M215.04,-51.18C231.6,-41.24 253.42,-28.15 267.58,-19.65"/>
<polygon fill="midnightblue" stroke="midnightblue" points="213.23,-48.18 206.46,-56.32 216.84,-54.18 213.23,-48.18"/>
</g>
<!-- Node2 -->
<g id="node2" class="node">
<title>Node2</title>
<g id="a_node2"><a xlink:href="../../db/dd7/classxii_qt_game_object_document_window.htm" target="_top" xlink:title=" ">
<polygon fill="white" stroke="black" points="0,-112.5 0,-131.5 190,-131.5 190,-112.5 0,-112.5"/>
<text text-anchor="middle" x="95" y="-119.5" font-family="Helvetica,sans-Serif" font-size="10.00">xiiQtGameObjectDocumentWindow</text>
</a>
</g>
</g>
<!-- Node2&#45;&gt;Node1 -->
<g id="edge1" class="edge">
<title>Node2&#45;&gt;Node1</title>
<path fill="none" stroke="midnightblue" d="M119.34,-107.45C137.24,-97.48 161.05,-84.23 176.45,-75.65"/>
<polygon fill="midnightblue" stroke="midnightblue" points="117.62,-104.4 110.58,-112.32 121.02,-110.52 117.62,-104.4"/>
</g>
<!-- Node3 -->
<g id="node3" class="node">
<title>Node3</title>
<g id="a_node3"><a xlink:href="../../d0/d97/classxii_qt_engine_document_window.htm" target="_top" xlink:title="Base class for all document windows that need a connection to the engine process, and might want to r...">
<polygon fill="white" stroke="black" points="14,-168.5 14,-187.5 176,-187.5 176,-168.5 14,-168.5"/>
<text text-anchor="middle" x="95" y="-175.5" font-family="Helvetica,sans-Serif" font-size="10.00">xiiQtEngineDocumentWindow</text>
</a>
</g>
</g>
<!-- Node3&#45;&gt;Node2 -->
<g id="edge2" class="edge">
<title>Node3&#45;&gt;Node2</title>
<path fill="none" stroke="midnightblue" d="M95,-157.8C95,-148.91 95,-138.78 95,-131.75"/>
<polygon fill="midnightblue" stroke="midnightblue" points="91.5,-158.08 95,-168.08 98.5,-158.08 91.5,-158.08"/>
</g>
<!-- Node4 -->
<g id="node4" class="node">
<title>Node4</title>
<g id="a_node4"><a xlink:href="../../d8/dd2/classxii_qt_document_window.htm" target="_top" xlink:title="Base class for all document windows. Handles the most basic document window management.">
<polygon fill="white" stroke="black" points="30.5,-224.5 30.5,-243.5 159.5,-243.5 159.5,-224.5 30.5,-224.5"/>
<text text-anchor="middle" x="95" y="-231.5" font-family="Helvetica,sans-Serif" font-size="10.00">xiiQtDocumentWindow</text>
</a>
</g>
</g>
<!-- Node4&#45;&gt;Node3 -->
<g id="edge3" class="edge">
<title>Node4&#45;&gt;Node3</title>
<path fill="none" stroke="midnightblue" d="M95,-213.8C95,-204.91 95,-194.78 95,-187.75"/>
<polygon fill="midnightblue" stroke="midnightblue" points="91.5,-214.08 95,-224.08 98.5,-214.08 91.5,-214.08"/>
</g>
<!-- Node5 -->
<g id="node5" class="node">
<title>Node5</title>
<g id="a_node5"><a xlink:title=" ">
<polygon fill="white" stroke="#bfbfbf" points="51.5,-280.5 51.5,-299.5 138.5,-299.5 138.5,-280.5 51.5,-280.5"/>
<text text-anchor="middle" x="95" y="-287.5" font-family="Helvetica,sans-Serif" font-size="10.00">QMainWindow</text>
</a>
</g>
</g>
<!-- Node5&#45;&gt;Node4 -->
<g id="edge4" class="edge">
<title>Node5&#45;&gt;Node4</title>
<path fill="none" stroke="midnightblue" d="M95,-269.8C95,-260.91 95,-250.78 95,-243.75"/>
<polygon fill="midnightblue" stroke="midnightblue" points="91.5,-270.08 95,-280.08 98.5,-270.08 91.5,-270.08"/>
</g>
<!-- Node6 -->
<g id="node6" class="node">
<title>Node6</title>
<g id="a_node6"><a xlink:href="../../d9/d36/classxii_game_object_gizmo_interface.htm" target="_top" xlink:title=" ">
<polygon fill="white" stroke="black" points="208,-112.5 208,-131.5 372,-131.5 372,-112.5 208,-112.5"/>
<text text-anchor="middle" x="290" y="-119.5" font-family="Helvetica,sans-Serif" font-size="10.00">xiiGameObjectGizmoInterface</text>
</a>
</g>
</g>
<!-- Node6&#45;&gt;Node1 -->
<g id="edge5" class="edge">
<title>Node6&#45;&gt;Node1</title>
<path fill="none" stroke="midnightblue" d="M265.41,-107.45C247.32,-97.48 223.27,-84.23 207.71,-75.65"/>
<polygon fill="midnightblue" stroke="midnightblue" points="263.81,-110.56 274.25,-112.32 267.19,-104.43 263.81,-110.56"/>
</g>
</g>
</svg>
