<?xml version="1.0" encoding="UTF-8" standalone="no"?>
<!DOCTYPE svg PUBLIC "-//W3C//DTD SVG 1.1//EN"
 "http://www.w3.org/Graphics/SVG/1.1/DTD/svg11.dtd">
<!-- Generated by graphviz version 2.43.0 (0)
 -->
<!-- Title: xiiLightRenderData Pages: 1 -->
<svg width="476pt" height="252pt"
 viewBox="0.00 0.00 476.00 252.00" xmlns="http://www.w3.org/2000/svg" xmlns:xlink="http://www.w3.org/1999/xlink">
<g id="graph0" class="graph" transform="scale(1 1) rotate(0) translate(4 248)">
<title>xiiLightRenderData</title>
<polygon fill="white" stroke="transparent" points="-4,4 -4,-248 472,-248 472,4 -4,4"/>
<!-- Node1 -->
<g id="node1" class="node">
<title>Node1</title>
<g id="a_node1"><a xlink:title="Base class for light render data objects.">
<polygon fill="#bfbfbf" stroke="black" points="195,-56.5 195,-75.5 305,-75.5 305,-56.5 195,-56.5"/>
<text text-anchor="middle" x="250" y="-63.5" font-family="Helvetica,sans-Serif" font-size="10.00">xiiLightRenderData</text>
</a>
</g>
</g>
<!-- Node5 -->
<g id="node5" class="node">
<title>Node5</title>
<g id="a_node5"><a xlink:href="../../d1/d98/classxii_directional_light_render_data.htm" target="_top" xlink:title="The render data object for directional lights.">
<polygon fill="white" stroke="black" points="0,-0.5 0,-19.5 164,-19.5 164,-0.5 0,-0.5"/>
<text text-anchor="middle" x="82" y="-7.5" font-family="Helvetica,sans-Serif" font-size="10.00">xiiDirectionalLightRenderData</text>
</a>
</g>
</g>
<!-- Node1&#45;&gt;Node5 -->
<g id="edge4" class="edge">
<title>Node1&#45;&gt;Node5</title>
<path fill="none" stroke="midnightblue" d="M213.61,-53.3C181.96,-43.13 136.83,-28.62 108.5,-19.52"/>
<polygon fill="midnightblue" stroke="midnightblue" points="212.79,-56.72 223.38,-56.44 214.93,-50.05 212.79,-56.72"/>
</g>
<!-- Node6 -->
<g id="node6" class="node">
<title>Node6</title>
<g id="a_node6"><a xlink:href="../../d6/df4/classxii_point_light_render_data.htm" target="_top" xlink:title="The render data object for point lights.">
<polygon fill="white" stroke="black" points="182.5,-0.5 182.5,-19.5 317.5,-19.5 317.5,-0.5 182.5,-0.5"/>
<text text-anchor="middle" x="250" y="-7.5" font-family="Helvetica,sans-Serif" font-size="10.00">xiiPointLightRenderData</text>
</a>
</g>
</g>
<!-- Node1&#45;&gt;Node6 -->
<g id="edge5" class="edge">
<title>Node1&#45;&gt;Node6</title>
<path fill="none" stroke="midnightblue" d="M250,-45.8C250,-36.91 250,-26.78 250,-19.75"/>
<polygon fill="midnightblue" stroke="midnightblue" points="246.5,-46.08 250,-56.08 253.5,-46.08 246.5,-46.08"/>
</g>
<!-- Node7 -->
<g id="node7" class="node">
<title>Node7</title>
<g id="a_node7"><a xlink:href="../../dc/d14/classxii_spot_light_render_data.htm" target="_top" xlink:title="The render data object for spot lights.">
<polygon fill="white" stroke="black" points="336,-0.5 336,-19.5 468,-19.5 468,-0.5 336,-0.5"/>
<text text-anchor="middle" x="402" y="-7.5" font-family="Helvetica,sans-Serif" font-size="10.00">xiiSpotLightRenderData</text>
</a>
</g>
</g>
<!-- Node1&#45;&gt;Node7 -->
<g id="edge6" class="edge">
<title>Node1&#45;&gt;Node7</title>
<path fill="none" stroke="midnightblue" d="M283.67,-53.04C312.27,-42.88 352.61,-28.55 378.03,-19.52"/>
<polygon fill="midnightblue" stroke="midnightblue" points="282.34,-49.8 274.08,-56.44 284.68,-56.39 282.34,-49.8"/>
</g>
<!-- Node2 -->
<g id="node2" class="node">
<title>Node2</title>
<g id="a_node2"><a xlink:href="../../d8/da5/classxii_render_data.htm" target="_top" xlink:title="Base class for all render data. Render data must contain all information that is needed to render the...">
<polygon fill="white" stroke="black" points="207,-112.5 207,-131.5 293,-131.5 293,-112.5 207,-112.5"/>
<text text-anchor="middle" x="250" y="-119.5" font-family="Helvetica,sans-Serif" font-size="10.00">xiiRenderData</text>
</a>
</g>
</g>
<!-- Node2&#45;&gt;Node1 -->
<g id="edge1" class="edge">
<title>Node2&#45;&gt;Node1</title>
<path fill="none" stroke="midnightblue" d="M250,-101.8C250,-92.91 250,-82.78 250,-75.75"/>
<polygon fill="midnightblue" stroke="midnightblue" points="246.5,-102.08 250,-112.08 253.5,-102.08 246.5,-102.08"/>
</g>
<!-- Node3 -->
<g id="node3" class="node">
<title>Node3</title>
<g id="a_node3"><a xlink:href="../../dc/d71/classxii_reflected_class.htm" target="_top" xlink:title="All classes that should be dynamically reflectable, need to be derived from this base class.">
<polygon fill="white" stroke="black" points="199.5,-168.5 199.5,-187.5 300.5,-187.5 300.5,-168.5 199.5,-168.5"/>
<text text-anchor="middle" x="250" y="-175.5" font-family="Helvetica,sans-Serif" font-size="10.00">xiiReflectedClass</text>
</a>
</g>
</g>
<!-- Node3&#45;&gt;Node2 -->
<g id="edge2" class="edge">
<title>Node3&#45;&gt;Node2</title>
<path fill="none" stroke="midnightblue" d="M250,-157.8C250,-148.91 250,-138.78 250,-131.75"/>
<polygon fill="midnightblue" stroke="midnightblue" points="246.5,-158.08 250,-168.08 253.5,-158.08 246.5,-158.08"/>
</g>
<!-- Node4 -->
<g id="node4" class="node">
<title>Node4</title>
<g id="a_node4"><a xlink:href="../../d2/d38/classxii_no_base.htm" target="_top" xlink:title="Dummy type to pass to templates and macros that expect a base type for a class that has no base.">
<polygon fill="white" stroke="black" points="217,-224.5 217,-243.5 283,-243.5 283,-224.5 217,-224.5"/>
<text text-anchor="middle" x="250" y="-231.5" font-family="Helvetica,sans-Serif" font-size="10.00">xiiNoBase</text>
</a>
</g>
</g>
<!-- Node4&#45;&gt;Node3 -->
<g id="edge3" class="edge">
<title>Node4&#45;&gt;Node3</title>
<path fill="none" stroke="midnightblue" d="M250,-213.8C250,-204.91 250,-194.78 250,-187.75"/>
<polygon fill="midnightblue" stroke="midnightblue" points="246.5,-214.08 250,-224.08 253.5,-214.08 246.5,-214.08"/>
</g>
</g>
</svg>
