<?xml version="1.0" encoding="UTF-8" standalone="no"?>
<!DOCTYPE svg PUBLIC "-//W3C//DTD SVG 1.1//EN"
 "http://www.w3.org/Graphics/SVG/1.1/DTD/svg11.dtd">
<!-- Generated by graphviz version 2.43.0 (0)
 -->
<!-- Title: xiiLightRenderData Pages: 1 -->
<svg width="476pt" height="247pt"
 viewBox="0.00 0.00 476.00 247.00" xmlns="http://www.w3.org/2000/svg" xmlns:xlink="http://www.w3.org/1999/xlink">

<svg id="main" version="1.1" xmlns="http://www.w3.org/2000/svg" xmlns:xlink="http://www.w3.org/1999/xlink" xml:space="preserve" onload="init(evt)">
<style type="text/css"><![CDATA[
.node, .edge {opacity: 0.7;}
.node.selected, .edge.selected {opacity: 1;}
.edge:hover path { stroke: red; }
.edge:hover polygon { stroke: red; fill: red; }
]]></style>
<script type="application/ecmascript" xlink:href="../../svg.min.js"/>
<svg id="graph" class="graph">
<g id="graph0" class="graph" transform="scale(1 1) rotate(0) translate(4 243)">
<title>xiiLightRenderData</title>
<!-- Node1 -->
<g id="Node000001" class="node">
<title>Node1</title>
<g id="a_Node000001"><a xlink:title="Base class for light render data objects.">
<polygon fill="#999999" stroke="#666666" points="305,-74 195,-74 195,-55 305,-55 305,-74"/>
<text text-anchor="middle" x="250" y="-62" font-family="Helvetica,sans-Serif" font-size="10.00">xiiLightRenderData</text>
</a>
</g>
</g>
<!-- Node5 -->
<g id="Node000005" class="node">
<title>Node5</title>
<g id="a_Node000005"><a xlink:href="../../d1/d98/classxii_directional_light_render_data.htm" target="_top" xlink:title="The render data object for directional lights.">
<polygon fill="white" stroke="#666666" points="164,-19 0,-19 0,0 164,0 164,-19"/>
<text text-anchor="middle" x="82" y="-7" font-family="Helvetica,sans-Serif" font-size="10.00">xiiDirectionalLightRenderData</text>
</a>
</g>
</g>
<!-- Node1&#45;&gt;Node5 -->
<g id="edge4_Node000001_Node000005" class="edge">
<title>Node1&#45;&gt;Node5</title>
<g id="a_edge4_Node000001_Node000005"><a xlink:title=" ">
<path fill="none" stroke="#63b8ff" d="M213.32,-51.93C181.94,-42.03 137.49,-28.01 109.2,-19.08"/>
<polygon fill="#63b8ff" stroke="#63b8ff" points="212.42,-55.31 223.01,-54.98 214.52,-48.64 212.42,-55.31"/>
</a>
</g>
</g>
<!-- Node6 -->
<g id="Node000006" class="node">
<title>Node6</title>
<g id="a_Node000006"><a xlink:href="../../d6/df4/classxii_point_light_render_data.htm" target="_top" xlink:title="The render data object for point lights.">
<polygon fill="white" stroke="#666666" points="317.5,-19 182.5,-19 182.5,0 317.5,0 317.5,-19"/>
<text text-anchor="middle" x="250" y="-7" font-family="Helvetica,sans-Serif" font-size="10.00">xiiPointLightRenderData</text>
</a>
</g>
</g>
<!-- Node1&#45;&gt;Node6 -->
<g id="edge5_Node000001_Node000006" class="edge">
<title>Node1&#45;&gt;Node6</title>
<g id="a_edge5_Node000001_Node000006"><a xlink:title=" ">
<path fill="none" stroke="#63b8ff" d="M250,-44.66C250,-35.93 250,-25.99 250,-19.09"/>
<polygon fill="#63b8ff" stroke="#63b8ff" points="246.5,-44.75 250,-54.75 253.5,-44.75 246.5,-44.75"/>
</a>
</g>
</g>
<!-- Node7 -->
<g id="Node000007" class="node">
<title>Node7</title>
<g id="a_Node000007"><a xlink:href="../../dc/d14/classxii_spot_light_render_data.htm" target="_top" xlink:title="The render data object for spot lights.">
<polygon fill="white" stroke="#666666" points="468,-19 336,-19 336,0 468,0 468,-19"/>
<text text-anchor="middle" x="402" y="-7" font-family="Helvetica,sans-Serif" font-size="10.00">xiiSpotLightRenderData</text>
</a>
</g>
</g>
<!-- Node1&#45;&gt;Node7 -->
<g id="edge6_Node000001_Node000007" class="edge">
<title>Node1&#45;&gt;Node7</title>
<g id="a_edge6_Node000001_Node000007"><a xlink:title=" ">
<path fill="none" stroke="#63b8ff" d="M283.93,-51.67C312.27,-41.79 352.02,-27.93 377.39,-19.08"/>
<polygon fill="#63b8ff" stroke="#63b8ff" points="282.71,-48.39 274.42,-54.98 285.02,-55 282.71,-48.39"/>
</a>
</g>
</g>
<!-- Node2 -->
<g id="Node000002" class="node">
<title>Node2</title>
<g id="a_Node000002"><a xlink:href="../../d8/da5/classxii_render_data.htm" target="_top" xlink:title="Base class for all render data. Render data must contain all information that is needed to render the...">
<polygon fill="white" stroke="#666666" points="293,-129 207,-129 207,-110 293,-110 293,-129"/>
<text text-anchor="middle" x="250" y="-117" font-family="Helvetica,sans-Serif" font-size="10.00">xiiRenderData</text>
</a>
</g>
</g>
<!-- Node2&#45;&gt;Node1 -->
<g id="edge1_Node000001_Node000002" class="edge">
<title>Node2&#45;&gt;Node1</title>
<g id="a_edge1_Node000001_Node000002"><a xlink:title=" ">
<path fill="none" stroke="#63b8ff" d="M250,-99.66C250,-90.93 250,-80.99 250,-74.09"/>
<polygon fill="#63b8ff" stroke="#63b8ff" points="246.5,-99.75 250,-109.75 253.5,-99.75 246.5,-99.75"/>
</a>
</g>
</g>
<!-- Node3 -->
<g id="Node000003" class="node">
<title>Node3</title>
<g id="a_Node000003"><a xlink:href="../../dc/d71/classxii_reflected_class.htm" target="_top" xlink:title="All classes that should be dynamically reflectable, need to be derived from this base class.">
<polygon fill="white" stroke="#666666" points="300.5,-184 199.5,-184 199.5,-165 300.5,-165 300.5,-184"/>
<text text-anchor="middle" x="250" y="-172" font-family="Helvetica,sans-Serif" font-size="10.00">xiiReflectedClass</text>
</a>
</g>
</g>
<!-- Node3&#45;&gt;Node2 -->
<g id="edge2_Node000002_Node000003" class="edge">
<title>Node3&#45;&gt;Node2</title>
<g id="a_edge2_Node000002_Node000003"><a xlink:title=" ">
<path fill="none" stroke="#63b8ff" d="M250,-154.66C250,-145.93 250,-135.99 250,-129.09"/>
<polygon fill="#63b8ff" stroke="#63b8ff" points="246.5,-154.75 250,-164.75 253.5,-154.75 246.5,-154.75"/>
</a>
</g>
</g>
<!-- Node4 -->
<g id="Node000004" class="node">
<title>Node4</title>
<g id="a_Node000004"><a xlink:href="../../d2/d38/classxii_no_base.htm" target="_top" xlink:title="Dummy type to pass to templates and macros that expect a base type for a class that has no base.">
<polygon fill="white" stroke="#666666" points="283,-239 217,-239 217,-220 283,-220 283,-239"/>
<text text-anchor="middle" x="250" y="-227" font-family="Helvetica,sans-Serif" font-size="10.00">xiiNoBase</text>
</a>
</g>
</g>
<!-- Node4&#45;&gt;Node3 -->
<g id="edge3_Node000003_Node000004" class="edge">
<title>Node4&#45;&gt;Node3</title>
<g id="a_edge3_Node000003_Node000004"><a xlink:title=" ">
<path fill="none" stroke="#63b8ff" d="M250,-209.66C250,-200.93 250,-190.99 250,-184.09"/>
<polygon fill="#63b8ff" stroke="#63b8ff" points="246.5,-209.75 250,-219.75 253.5,-209.75 246.5,-209.75"/>
</a>
</g>
</g>
</g>
</svg>
</svg>

<style type='text/css'>
<![CDATA[
[data-mouse-over-selected='false'] { opacity: 0.7; }
[data-mouse-over-selected='true']  { opacity: 1.0; }
]]>
</style>
<script type="application/ecmascript"><![CDATA[
document.addEventListener('DOMContentLoaded', (event) => {
  highlightEdges();
  highlightAdjacentNodes();
});
]]></script>
</svg>
