<?xml version="1.0" encoding="UTF-8" standalone="no"?>
<!DOCTYPE svg PUBLIC "-//W3C//DTD SVG 1.1//EN"
 "http://www.w3.org/Graphics/SVG/1.1/DTD/svg11.dtd">
<!-- Generated by graphviz version 2.43.0 (0)
 -->
<!-- Title: xiiEditorEngineDocumentMsg Pages: 1 -->
<svg width="994pt" height="1371pt"
 viewBox="0.00 0.00 994.00 1370.50" xmlns="http://www.w3.org/2000/svg" xmlns:xlink="http://www.w3.org/1999/xlink">
<g id="graph0" class="graph" transform="scale(1 1) rotate(0) translate(4 1366.5)">
<title>xiiEditorEngineDocumentMsg</title>
<polygon fill="white" stroke="transparent" points="-4,4 -4,-1366.5 990,-1366.5 990,4 -4,4"/>
<!-- Node1 -->
<g id="node1" class="node">
<title>Node1</title>
<g id="a_node1"><a xlink:title="Base class for all messages that are tied to some document.">
<polygon fill="#bfbfbf" stroke="black" points="385,-694.5 385,-713.5 546,-713.5 546,-694.5 385,-694.5"/>
<text text-anchor="middle" x="465.5" y="-701.5" font-family="Helvetica,sans-Serif" font-size="10.00">xiiEditorEngineDocumentMsg</text>
</a>
</g>
</g>
<!-- Node5 -->
<g id="node5" class="node">
<title>Node5</title>
<g id="a_node5"><a xlink:href="../../d6/d54/classxii_active_layer_changed_msg_to_engine.htm" target="_top" xlink:title=" ">
<polygon fill="white" stroke="black" points="606.5,-1332 606.5,-1362 755.5,-1362 755.5,-1332 606.5,-1332"/>
<text text-anchor="start" x="614.5" y="-1350" font-family="Helvetica,sans-Serif" font-size="10.00">xiiActiveLayerChangedMsg</text>
<text text-anchor="middle" x="681" y="-1339" font-family="Helvetica,sans-Serif" font-size="10.00">ToEngine</text>
</a>
</g>
</g>
<!-- Node1&#45;&gt;Node5 -->
<g id="edge4" class="edge">
<title>Node1&#45;&gt;Node5</title>
<path fill="none" stroke="midnightblue" d="M467.42,-723.99C472.26,-819.92 497.73,-1232.07 582,-1322 588.72,-1329.18 597.19,-1334.41 606.33,-1338.2"/>
<polygon fill="midnightblue" stroke="midnightblue" points="470.91,-723.72 466.93,-713.9 463.92,-724.06 470.91,-723.72"/>
</g>
<!-- Node6 -->
<g id="node6" class="node">
<title>Node6</title>
<g id="a_node6"><a xlink:href="../../d4/dad/classxii_create_thumbnail_msg_to_editor.htm" target="_top" xlink:title=" ">
<polygon fill="white" stroke="black" points="595,-1293.5 595,-1312.5 767,-1312.5 767,-1293.5 595,-1293.5"/>
<text text-anchor="middle" x="681" y="-1300.5" font-family="Helvetica,sans-Serif" font-size="10.00">xiiCreateThumbnailMsgToEditor</text>
</a>
</g>
</g>
<!-- Node1&#45;&gt;Node6 -->
<g id="edge5" class="edge">
<title>Node1&#45;&gt;Node6</title>
<path fill="none" stroke="midnightblue" d="M467.58,-724.02C472.98,-816.64 500.16,-1202.58 582,-1284 585.81,-1287.79 590.13,-1290.94 594.79,-1293.55"/>
<polygon fill="midnightblue" stroke="midnightblue" points="471.06,-723.58 467,-713.79 464.07,-723.97 471.06,-723.58"/>
</g>
<!-- Node7 -->
<g id="node7" class="node">
<title>Node7</title>
<g id="a_node7"><a xlink:href="../../df/d32/classxii_create_thumbnail_msg_to_engine.htm" target="_top" xlink:title=" ">
<polygon fill="white" stroke="black" points="593,-1255.5 593,-1274.5 769,-1274.5 769,-1255.5 593,-1255.5"/>
<text text-anchor="middle" x="681" y="-1262.5" font-family="Helvetica,sans-Serif" font-size="10.00">xiiCreateThumbnailMsgToEngine</text>
</a>
</g>
</g>
<!-- Node1&#45;&gt;Node7 -->
<g id="edge6" class="edge">
<title>Node1&#45;&gt;Node7</title>
<path fill="none" stroke="midnightblue" d="M467.86,-723.82C474.36,-812.33 505.12,-1170.53 582,-1246 585.83,-1249.76 590.18,-1252.89 594.85,-1255.49"/>
<polygon fill="midnightblue" stroke="midnightblue" points="471.34,-723.3 467.13,-713.57 464.35,-723.8 471.34,-723.3"/>
</g>
<!-- Node8 -->
<g id="node8" class="node">
<title>Node8</title>
<g id="a_node8"><a xlink:href="../../df/d98/classxii_document_clear_msg_to_engine.htm" target="_top" xlink:title="Used to reset the engine side to an empty document before sending the full document state over.">
<polygon fill="white" stroke="black" points="597,-1217.5 597,-1236.5 765,-1236.5 765,-1217.5 597,-1217.5"/>
<text text-anchor="middle" x="681" y="-1224.5" font-family="Helvetica,sans-Serif" font-size="10.00">xiiDocumentClearMsgToEngine</text>
</a>
</g>
</g>
<!-- Node1&#45;&gt;Node8 -->
<g id="edge7" class="edge">
<title>Node1&#45;&gt;Node8</title>
<path fill="none" stroke="midnightblue" d="M468.2,-723.77C475.88,-808.34 510.12,-1138.5 582,-1208 586.36,-1212.22 591.36,-1215.63 596.74,-1218.39"/>
<polygon fill="midnightblue" stroke="midnightblue" points="471.68,-723.37 467.31,-713.71 464.71,-723.98 471.68,-723.37"/>
</g>
<!-- Node9 -->
<g id="node9" class="node">
<title>Node9</title>
<g id="a_node9"><a xlink:href="../../d1/dcb/classxii_document_config_msg_to_engine.htm" target="_top" xlink:title="For very simple uses cases where a custom message would be too much.">
<polygon fill="white" stroke="black" points="594.5,-1179.5 594.5,-1198.5 767.5,-1198.5 767.5,-1179.5 594.5,-1179.5"/>
<text text-anchor="middle" x="681" y="-1186.5" font-family="Helvetica,sans-Serif" font-size="10.00">xiiDocumentConfigMsgToEngine</text>
</a>
</g>
</g>
<!-- Node1&#45;&gt;Node9 -->
<g id="edge8" class="edge">
<title>Node1&#45;&gt;Node9</title>
<path fill="none" stroke="midnightblue" d="M468.63,-724.06C477.62,-805.03 515.18,-1106.53 582,-1170 585.9,-1173.7 590.28,-1176.78 594.99,-1179.34"/>
<polygon fill="midnightblue" stroke="midnightblue" points="472.07,-723.33 467.51,-713.76 465.11,-724.08 472.07,-723.33"/>
</g>
<!-- Node10 -->
<g id="node10" class="node">
<title>Node10</title>
<g id="a_node10"><a xlink:href="../../de/dcc/classxii_document_open_msg_to_engine.htm" target="_top" xlink:title=" ">
<polygon fill="white" stroke="black" points="597,-1141.5 597,-1160.5 765,-1160.5 765,-1141.5 597,-1141.5"/>
<text text-anchor="middle" x="681" y="-1148.5" font-family="Helvetica,sans-Serif" font-size="10.00">xiiDocumentOpenMsgToEngine</text>
</a>
</g>
</g>
<!-- Node1&#45;&gt;Node10 -->
<g id="edge9" class="edge">
<title>Node1&#45;&gt;Node10</title>
<path fill="none" stroke="midnightblue" d="M469.1,-723.82C479.48,-800.08 520.5,-1073.25 582,-1131 586.43,-1135.16 591.48,-1138.56 596.9,-1141.32"/>
<polygon fill="midnightblue" stroke="midnightblue" points="472.54,-723.13 467.74,-713.68 465.6,-724.06 472.54,-723.13"/>
</g>
<!-- Node11 -->
<g id="node11" class="node">
<title>Node11</title>
<g id="a_node11"><a xlink:href="../../dd/d8c/classxii_document_open_response_msg_to_editor.htm" target="_top" xlink:title=" ">
<polygon fill="white" stroke="black" points="595,-1092 595,-1122 767,-1122 767,-1092 595,-1092"/>
<text text-anchor="start" x="603" y="-1110" font-family="Helvetica,sans-Serif" font-size="10.00">xiiDocumentOpenResponseMsg</text>
<text text-anchor="middle" x="681" y="-1099" font-family="Helvetica,sans-Serif" font-size="10.00">ToEditor</text>
</a>
</g>
</g>
<!-- Node1&#45;&gt;Node11 -->
<g id="edge10" class="edge">
<title>Node1&#45;&gt;Node11</title>
<path fill="none" stroke="midnightblue" d="M466.23,-723.67C466.5,-786 476.15,-980.99 582,-1082 586.06,-1085.88 590.64,-1089.18 595.55,-1091.98"/>
<polygon fill="midnightblue" stroke="midnightblue" points="469.73,-723.64 466.27,-713.63 462.73,-723.61 469.73,-723.64"/>
</g>
<!-- Node12 -->
<g id="node12" class="node">
<title>Node12</title>
<g id="a_node12"><a xlink:href="../../d8/d27/classxii_editor_engine_loop_animation_msg.htm" target="_top" xlink:title=" ">
<polygon fill="white" stroke="black" points="589,-1053.5 589,-1072.5 773,-1072.5 773,-1053.5 589,-1053.5"/>
<text text-anchor="middle" x="681" y="-1060.5" font-family="Helvetica,sans-Serif" font-size="10.00">xiiEditorEngineLoopAnimationMsg</text>
</a>
</g>
</g>
<!-- Node1&#45;&gt;Node12 -->
<g id="edge11" class="edge">
<title>Node1&#45;&gt;Node12</title>
<path fill="none" stroke="midnightblue" d="M466.77,-723.86C468.7,-782.73 482.91,-957.55 582,-1044 586.31,-1047.76 591.14,-1050.87 596.28,-1053.42"/>
<polygon fill="midnightblue" stroke="midnightblue" points="470.26,-723.61 466.52,-713.69 463.26,-723.77 470.26,-723.61"/>
</g>
<!-- Node13 -->
<g id="node13" class="node">
<title>Node13</title>
<g id="a_node13"><a xlink:href="../../d5/d46/classxii_editor_engine_restart_simulation_msg.htm" target="_top" xlink:title=" ">
<polygon fill="white" stroke="black" points="582,-1015.5 582,-1034.5 780,-1034.5 780,-1015.5 582,-1015.5"/>
<text text-anchor="middle" x="681" y="-1022.5" font-family="Helvetica,sans-Serif" font-size="10.00">xiiEditorEngineRestartSimulationMsg</text>
</a>
</g>
</g>
<!-- Node1&#45;&gt;Node13 -->
<g id="edge12" class="edge">
<title>Node1&#45;&gt;Node13</title>
<path fill="none" stroke="midnightblue" d="M467.72,-723.8C472.18,-778.2 492.5,-930.85 582,-1006 586.51,-1009.79 591.55,-1012.91 596.91,-1015.47"/>
<polygon fill="midnightblue" stroke="midnightblue" points="471.2,-723.47 466.98,-713.75 464.22,-723.98 471.2,-723.47"/>
</g>
<!-- Node14 -->
<g id="node14" class="node">
<title>Node14</title>
<g id="a_node14"><a xlink:href="../../d4/d93/classxii_editor_engine_set_materials_msg.htm" target="_top" xlink:title=" ">
<polygon fill="white" stroke="black" points="595,-977.5 595,-996.5 767,-996.5 767,-977.5 595,-977.5"/>
<text text-anchor="middle" x="681" y="-984.5" font-family="Helvetica,sans-Serif" font-size="10.00">xiiEditorEngineSetMaterialsMsg</text>
</a>
</g>
</g>
<!-- Node1&#45;&gt;Node14 -->
<g id="edge13" class="edge">
<title>Node1&#45;&gt;Node14</title>
<path fill="none" stroke="midnightblue" d="M468.89,-723.61C476.03,-773.14 501.92,-903.91 582,-968 586.74,-971.79 592.01,-974.9 597.58,-977.44"/>
<polygon fill="midnightblue" stroke="midnightblue" points="472.34,-723.03 467.55,-713.58 465.4,-723.96 472.34,-723.03"/>
</g>
<!-- Node15 -->
<g id="node15" class="node">
<title>Node15</title>
<g id="a_node15"><a xlink:href="../../d0/daf/classxii_editor_engine_sync_object_msg.htm" target="_top" xlink:title=" ">
<polygon fill="white" stroke="black" points="598.5,-939.5 598.5,-958.5 763.5,-958.5 763.5,-939.5 598.5,-939.5"/>
<text text-anchor="middle" x="681" y="-946.5" font-family="Helvetica,sans-Serif" font-size="10.00">xiiEditorEngineSyncObjectMsg</text>
</a>
</g>
</g>
<!-- Node1&#45;&gt;Node15 -->
<g id="edge14" class="edge">
<title>Node1&#45;&gt;Node15</title>
<path fill="none" stroke="midnightblue" d="M470.41,-723.46C480.39,-767.83 511.23,-876.77 582,-930 586.99,-933.75 592.51,-936.82 598.32,-939.33"/>
<polygon fill="midnightblue" stroke="midnightblue" points="473.82,-722.69 468.3,-713.64 466.98,-724.15 473.82,-722.69"/>
</g>
<!-- Node16 -->
<g id="node16" class="node">
<title>Node16</title>
<g id="a_node16"><a xlink:href="../../dc/dfe/classxii_editor_engine_view_msg.htm" target="_top" xlink:title=" ">
<polygon fill="white" stroke="black" points="614,-901.5 614,-920.5 748,-920.5 748,-901.5 614,-901.5"/>
<text text-anchor="middle" x="681" y="-908.5" font-family="Helvetica,sans-Serif" font-size="10.00">xiiEditorEngineViewMsg</text>
</a>
</g>
</g>
<!-- Node1&#45;&gt;Node16 -->
<g id="edge15" class="edge">
<title>Node1&#45;&gt;Node16</title>
<path fill="none" stroke="midnightblue" d="M472.47,-723.33C485.5,-762.11 520.4,-849.34 582,-892 591.47,-898.56 602.64,-903 613.98,-905.97"/>
<polygon fill="midnightblue" stroke="midnightblue" points="475.78,-722.19 469.36,-713.75 469.12,-724.34 475.78,-722.19"/>
</g>
<!-- Node26 -->
<g id="node26" class="node">
<title>Node26</title>
<g id="a_node26"><a xlink:href="../../dc/d60/classxii_entity_msg_to_engine.htm" target="_top" xlink:title=" ">
<polygon fill="white" stroke="black" points="620.5,-863.5 620.5,-882.5 741.5,-882.5 741.5,-863.5 620.5,-863.5"/>
<text text-anchor="middle" x="681" y="-870.5" font-family="Helvetica,sans-Serif" font-size="10.00">xiiEntityMsgToEngine</text>
</a>
</g>
</g>
<!-- Node1&#45;&gt;Node26 -->
<g id="edge25" class="edge">
<title>Node1&#45;&gt;Node26</title>
<path fill="none" stroke="midnightblue" d="M475.34,-722.95C491.54,-755.45 529.26,-821.44 582,-854 593.5,-861.1 607.09,-865.64 620.43,-868.52"/>
<polygon fill="midnightblue" stroke="midnightblue" points="478.35,-721.14 470.84,-713.66 472.05,-724.19 478.35,-721.14"/>
</g>
<!-- Node27 -->
<g id="node27" class="node">
<title>Node27</title>
<g id="a_node27"><a xlink:href="../../d2/d55/classxii_export_document_msg_to_editor.htm" target="_top" xlink:title=" ">
<polygon fill="white" stroke="black" points="596,-825.5 596,-844.5 766,-844.5 766,-825.5 596,-825.5"/>
<text text-anchor="middle" x="681" y="-832.5" font-family="Helvetica,sans-Serif" font-size="10.00">xiiExportDocumentMsgToEditor</text>
</a>
</g>
</g>
<!-- Node1&#45;&gt;Node27 -->
<g id="edge26" class="edge">
<title>Node1&#45;&gt;Node27</title>
<path fill="none" stroke="midnightblue" d="M479.53,-722.02C498.86,-747.33 537.67,-792.88 582,-816 589.45,-819.89 597.6,-822.98 605.91,-825.45"/>
<polygon fill="midnightblue" stroke="midnightblue" points="482.1,-719.61 473.31,-713.69 476.49,-723.8 482.1,-719.61"/>
</g>
<!-- Node28 -->
<g id="node28" class="node">
<title>Node28</title>
<g id="a_node28"><a xlink:href="../../d8/d3e/classxii_export_document_msg_to_engine.htm" target="_top" xlink:title=" ">
<polygon fill="white" stroke="black" points="594,-787.5 594,-806.5 768,-806.5 768,-787.5 594,-787.5"/>
<text text-anchor="middle" x="681" y="-794.5" font-family="Helvetica,sans-Serif" font-size="10.00">xiiExportDocumentMsgToEngine</text>
</a>
</g>
</g>
<!-- Node1&#45;&gt;Node28 -->
<g id="edge27" class="edge">
<title>Node1&#45;&gt;Node28</title>
<path fill="none" stroke="midnightblue" d="M486.46,-719.82C508.57,-736.54 545.86,-762.46 582,-777 592.79,-781.34 604.65,-784.78 616.27,-787.49"/>
<polygon fill="midnightblue" stroke="midnightblue" points="488.56,-717.02 478.5,-713.7 484.29,-722.57 488.56,-717.02"/>
</g>
<!-- Node29 -->
<g id="node29" class="node">
<title>Node29</title>
<g id="a_node29"><a xlink:href="../../dc/d15/classxii_export_scene_geometry_msg_to_engine.htm" target="_top" xlink:title=" ">
<polygon fill="white" stroke="black" points="602,-738 602,-768 760,-768 760,-738 602,-738"/>
<text text-anchor="start" x="610" y="-756" font-family="Helvetica,sans-Serif" font-size="10.00">xiiExportSceneGeometryMsg</text>
<text text-anchor="middle" x="681" y="-745" font-family="Helvetica,sans-Serif" font-size="10.00">ToEngine</text>
</a>
</g>
</g>
<!-- Node1&#45;&gt;Node29 -->
<g id="edge28" class="edge">
<title>Node1&#45;&gt;Node29</title>
<path fill="none" stroke="midnightblue" d="M517.83,-715.78C546.8,-722.43 583.3,-730.81 614.33,-737.93"/>
<polygon fill="midnightblue" stroke="midnightblue" points="518.45,-712.33 507.92,-713.51 516.88,-719.15 518.45,-712.33"/>
</g>
<!-- Node30 -->
<g id="node30" class="node">
<title>Node30</title>
<g id="a_node30"><a xlink:href="../../d0/dcb/classxii_exposed_document_object_properties_msg_to_engine.htm" target="_top" xlink:title=" ">
<polygon fill="white" stroke="black" points="605,-689 605,-719 757,-719 757,-689 605,-689"/>
<text text-anchor="start" x="613" y="-707" font-family="Helvetica,sans-Serif" font-size="10.00">xiiExposedDocumentObject</text>
<text text-anchor="middle" x="681" y="-696" font-family="Helvetica,sans-Serif" font-size="10.00">PropertiesMsgToEngine</text>
</a>
</g>
</g>
<!-- Node1&#45;&gt;Node30 -->
<g id="edge29" class="edge">
<title>Node1&#45;&gt;Node30</title>
<path fill="none" stroke="midnightblue" d="M556.75,-704C572.79,-704 589.33,-704 604.89,-704"/>
<polygon fill="midnightblue" stroke="midnightblue" points="556.3,-700.5 546.3,-704 556.3,-707.5 556.3,-700.5"/>
</g>
<!-- Node31 -->
<g id="node31" class="node">
<title>Node31</title>
<g id="a_node31"><a xlink:href="../../da/ded/classxii_game_mode_msg_to_editor.htm" target="_top" xlink:title=" ">
<polygon fill="white" stroke="black" points="609,-650.5 609,-669.5 753,-669.5 753,-650.5 609,-650.5"/>
<text text-anchor="middle" x="681" y="-657.5" font-family="Helvetica,sans-Serif" font-size="10.00">xiiGameModeMsgToEditor</text>
</a>
</g>
</g>
<!-- Node1&#45;&gt;Node31 -->
<g id="edge30" class="edge">
<title>Node1&#45;&gt;Node31</title>
<path fill="none" stroke="midnightblue" d="M519.49,-692.28C539.11,-688.01 561.55,-683.2 582,-679 597.53,-675.81 614.48,-672.48 629.85,-669.51"/>
<polygon fill="midnightblue" stroke="midnightblue" points="518.53,-688.91 509.51,-694.46 520.03,-695.74 518.53,-688.91"/>
</g>
<!-- Node32 -->
<g id="node32" class="node">
<title>Node32</title>
<g id="a_node32"><a xlink:href="../../d5/db6/classxii_game_mode_msg_to_engine.htm" target="_top" xlink:title=" ">
<polygon fill="white" stroke="black" points="606.5,-612.5 606.5,-631.5 755.5,-631.5 755.5,-612.5 606.5,-612.5"/>
<text text-anchor="middle" x="681" y="-619.5" font-family="Helvetica,sans-Serif" font-size="10.00">xiiGameModeMsgToEngine</text>
</a>
</g>
</g>
<!-- Node1&#45;&gt;Node32 -->
<g id="edge31" class="edge">
<title>Node1&#45;&gt;Node32</title>
<path fill="none" stroke="midnightblue" d="M489.3,-688.8C511.91,-674.41 548,-653.24 582,-641 592.68,-637.16 604.31,-634.04 615.71,-631.52"/>
<polygon fill="midnightblue" stroke="midnightblue" points="487.26,-685.95 480.77,-694.32 491.06,-691.83 487.26,-685.95"/>
</g>
<!-- Node33 -->
<g id="node33" class="node">
<title>Node33</title>
<g id="a_node33"><a xlink:href="../../d9/dc1/classxii_grid_settings_msg_to_engine.htm" target="_top" xlink:title=" ">
<polygon fill="white" stroke="black" points="605,-574.5 605,-593.5 757,-593.5 757,-574.5 605,-574.5"/>
<text text-anchor="middle" x="681" y="-581.5" font-family="Helvetica,sans-Serif" font-size="10.00">xiiGridSettingsMsgToEngine</text>
</a>
</g>
</g>
<!-- Node1&#45;&gt;Node33 -->
<g id="edge32" class="edge">
<title>Node1&#45;&gt;Node33</title>
<path fill="none" stroke="midnightblue" d="M480.83,-686.75C500.94,-663.77 539.81,-623.64 582,-603 589.94,-599.12 598.6,-596.02 607.39,-593.57"/>
<polygon fill="midnightblue" stroke="midnightblue" points="478.15,-684.49 474.3,-694.37 483.47,-689.05 478.15,-684.49"/>
</g>
<!-- Node34 -->
<g id="node34" class="node">
<title>Node34</title>
<g id="a_node34"><a xlink:href="../../d0/d04/classxii_layer_visibility_changed_msg_to_engine.htm" target="_top" xlink:title=" ">
<polygon fill="white" stroke="black" points="610.5,-525 610.5,-555 751.5,-555 751.5,-525 610.5,-525"/>
<text text-anchor="start" x="618.5" y="-543" font-family="Helvetica,sans-Serif" font-size="10.00">xiiLayerVisibilityChanged</text>
<text text-anchor="middle" x="681" y="-532" font-family="Helvetica,sans-Serif" font-size="10.00">MsgToEngine</text>
</a>
</g>
</g>
<!-- Node1&#45;&gt;Node34 -->
<g id="edge33" class="edge">
<title>Node1&#45;&gt;Node34</title>
<path fill="none" stroke="midnightblue" d="M476.63,-685.49C494.06,-655.41 532.67,-596.17 582,-565 590.61,-559.56 600.35,-555.3 610.26,-551.97"/>
<polygon fill="midnightblue" stroke="midnightblue" points="473.41,-684.06 471.54,-694.49 479.51,-687.5 473.41,-684.06"/>
</g>
<!-- Node35 -->
<g id="node35" class="node">
<title>Node35</title>
<g id="a_node35"><a xlink:href="../../d9/db6/classxii_object_selection_msg_to_engine.htm" target="_top" xlink:title=" ">
<polygon fill="white" stroke="black" points="596.5,-486.5 596.5,-505.5 765.5,-505.5 765.5,-486.5 596.5,-486.5"/>
<text text-anchor="middle" x="681" y="-493.5" font-family="Helvetica,sans-Serif" font-size="10.00">xiiObjectSelectionMsgToEngine</text>
</a>
</g>
</g>
<!-- Node1&#45;&gt;Node35 -->
<g id="edge34" class="edge">
<title>Node1&#45;&gt;Node35</title>
<path fill="none" stroke="midnightblue" d="M472.43,-684.57C485.41,-645.59 520.21,-557.9 582,-515 587.55,-511.15 593.69,-508.02 600.1,-505.5"/>
<polygon fill="midnightblue" stroke="midnightblue" points="469.07,-683.61 469.35,-694.2 475.73,-685.74 469.07,-683.61"/>
</g>
<!-- Node36 -->
<g id="node36" class="node">
<title>Node36</title>
<g id="a_node36"><a xlink:href="../../d4/d53/classxii_object_tag_msg_to_engine.htm" target="_top" xlink:title=" ">
<polygon fill="white" stroke="black" points="611,-448.5 611,-467.5 751,-467.5 751,-448.5 611,-448.5"/>
<text text-anchor="middle" x="681" y="-455.5" font-family="Helvetica,sans-Serif" font-size="10.00">xiiObjectTagMsgToEngine</text>
</a>
</g>
</g>
<!-- Node1&#45;&gt;Node36 -->
<g id="edge35" class="edge">
<title>Node1&#45;&gt;Node36</title>
<path fill="none" stroke="midnightblue" d="M470.38,-684.45C480.31,-639.89 511.03,-530.48 582,-477 590.51,-470.59 600.59,-466.16 610.99,-463.13"/>
<polygon fill="midnightblue" stroke="midnightblue" points="466.94,-683.81 468.29,-694.31 473.79,-685.26 466.94,-683.81"/>
</g>
<!-- Node37 -->
<g id="node37" class="node">
<title>Node37</title>
<g id="a_node37"><a xlink:href="../../d3/d4d/classxii_objects_for_debug_vis_msg_to_engine.htm" target="_top" xlink:title="Send by the editor scene document to the runtime scene document, to tell it about the poll results (s...">
<polygon fill="white" stroke="black" points="607.5,-399 607.5,-429 754.5,-429 754.5,-399 607.5,-399"/>
<text text-anchor="start" x="615.5" y="-417" font-family="Helvetica,sans-Serif" font-size="10.00">xiiObjectsForDebugVisMsg</text>
<text text-anchor="middle" x="681" y="-406" font-family="Helvetica,sans-Serif" font-size="10.00">ToEngine</text>
</a>
</g>
</g>
<!-- Node1&#45;&gt;Node37 -->
<g id="edge36" class="edge">
<title>Node1&#45;&gt;Node37</title>
<path fill="none" stroke="midnightblue" d="M469.14,-684.26C476.82,-634.94 503.79,-505.51 582,-439 589.36,-432.74 598.08,-428.02 607.23,-424.46"/>
<polygon fill="midnightblue" stroke="midnightblue" points="465.66,-683.86 467.68,-694.26 472.59,-684.87 465.66,-683.86"/>
</g>
<!-- Node38 -->
<g id="node38" class="node">
<title>Node38</title>
<g id="a_node38"><a xlink:href="../../dd/d29/classxii_pull_object_state_msg_to_engine.htm" target="_top" xlink:title=" ">
<polygon fill="white" stroke="black" points="597.5,-360.5 597.5,-379.5 764.5,-379.5 764.5,-360.5 597.5,-360.5"/>
<text text-anchor="middle" x="681" y="-367.5" font-family="Helvetica,sans-Serif" font-size="10.00">xiiPullObjectStateMsgToEngine</text>
</a>
</g>
</g>
<!-- Node1&#45;&gt;Node38 -->
<g id="edge37" class="edge">
<title>Node1&#45;&gt;Node38</title>
<path fill="none" stroke="midnightblue" d="M467.37,-684.13C470.96,-628.13 489.26,-467.98 582,-389 586.62,-385.07 591.81,-381.85 597.32,-379.24"/>
<polygon fill="midnightblue" stroke="midnightblue" points="463.86,-684.25 466.81,-694.43 470.85,-684.64 463.86,-684.25"/>
</g>
<!-- Node39 -->
<g id="node39" class="node">
<title>Node39</title>
<g id="a_node39"><a xlink:href="../../d0/d53/classxii_push_object_state_msg_to_editor.htm" target="_top" xlink:title=" ">
<polygon fill="white" stroke="black" points="597,-322.5 597,-341.5 765,-341.5 765,-322.5 597,-322.5"/>
<text text-anchor="middle" x="681" y="-329.5" font-family="Helvetica,sans-Serif" font-size="10.00">xiiPushObjectStateMsgToEditor</text>
</a>
</g>
</g>
<!-- Node1&#45;&gt;Node39 -->
<g id="edge38" class="edge">
<title>Node1&#45;&gt;Node39</title>
<path fill="none" stroke="midnightblue" d="M466.48,-684.19C467.57,-623.91 479.58,-441.39 582,-351 586.42,-347.1 591.39,-343.9 596.69,-341.29"/>
<polygon fill="midnightblue" stroke="midnightblue" points="462.98,-684.23 466.39,-694.26 469.98,-684.29 462.98,-684.23"/>
</g>
<!-- Node40 -->
<g id="node40" class="node">
<title>Node40</title>
<g id="a_node40"><a xlink:href="../../d9/d1b/classxii_query_selection_b_box_msg_to_engine.htm" target="_top" xlink:title=" ">
<polygon fill="white" stroke="black" points="606.5,-273 606.5,-303 755.5,-303 755.5,-273 606.5,-273"/>
<text text-anchor="start" x="614.5" y="-291" font-family="Helvetica,sans-Serif" font-size="10.00">xiiQuerySelectionBBoxMsg</text>
<text text-anchor="middle" x="681" y="-280" font-family="Helvetica,sans-Serif" font-size="10.00">ToEngine</text>
</a>
</g>
</g>
<!-- Node1&#45;&gt;Node40 -->
<g id="edge39" class="edge">
<title>Node1&#45;&gt;Node40</title>
<path fill="none" stroke="midnightblue" d="M466,-684.1C465.51,-620.14 473.06,-417.94 582,-313 588.96,-306.3 597.45,-301.33 606.49,-297.64"/>
<polygon fill="midnightblue" stroke="midnightblue" points="462.5,-684.43 466.16,-694.38 469.5,-684.32 462.5,-684.43"/>
</g>
<!-- Node41 -->
<g id="node41" class="node">
<title>Node41</title>
<g id="a_node41"><a xlink:href="../../d2/df2/classxii_query_selection_b_box_result_msg_to_editor.htm" target="_top" xlink:title=" ">
<polygon fill="white" stroke="black" points="601.5,-224 601.5,-254 760.5,-254 760.5,-224 601.5,-224"/>
<text text-anchor="start" x="609.5" y="-242" font-family="Helvetica,sans-Serif" font-size="10.00">xiiQuerySelectionBBoxResult</text>
<text text-anchor="middle" x="681" y="-231" font-family="Helvetica,sans-Serif" font-size="10.00">MsgToEditor</text>
</a>
</g>
</g>
<!-- Node1&#45;&gt;Node41 -->
<g id="edge40" class="edge">
<title>Node1&#45;&gt;Node41</title>
<path fill="none" stroke="midnightblue" d="M469,-684.12C479.18,-606.37 519.89,-324.12 582,-263 587.62,-257.47 594.29,-253.14 601.47,-249.77"/>
<polygon fill="midnightblue" stroke="midnightblue" points="465.48,-684.06 467.68,-694.42 472.42,-684.95 465.48,-684.06"/>
</g>
<!-- Node42 -->
<g id="node42" class="node">
<title>Node42</title>
<g id="a_node42"><a xlink:href="../../d7/dc8/classxii_simple_document_config_msg_to_editor.htm" target="_top" xlink:title=" ">
<polygon fill="white" stroke="black" points="599,-175 599,-205 763,-205 763,-175 599,-175"/>
<text text-anchor="start" x="607" y="-193" font-family="Helvetica,sans-Serif" font-size="10.00">xiiSimpleDocumentConfigMsg</text>
<text text-anchor="middle" x="681" y="-182" font-family="Helvetica,sans-Serif" font-size="10.00">ToEditor</text>
</a>
</g>
</g>
<!-- Node1&#45;&gt;Node42 -->
<g id="edge41" class="edge">
<title>Node1&#45;&gt;Node42</title>
<path fill="none" stroke="midnightblue" d="M468.45,-684.07C476.98,-600.95 513.68,-282.91 582,-214 586.93,-209.02 592.72,-205.02 598.97,-201.8"/>
<polygon fill="midnightblue" stroke="midnightblue" points="464.95,-683.9 467.43,-694.19 471.92,-684.6 464.95,-683.9"/>
</g>
<!-- Node43 -->
<g id="node43" class="node">
<title>Node43</title>
<g id="a_node43"><a xlink:href="../../dd/de9/classxii_simple_document_config_msg_to_engine.htm" target="_top" xlink:title=" ">
<polygon fill="white" stroke="black" points="599,-126 599,-156 763,-156 763,-126 599,-126"/>
<text text-anchor="start" x="607" y="-144" font-family="Helvetica,sans-Serif" font-size="10.00">xiiSimpleDocumentConfigMsg</text>
<text text-anchor="middle" x="681" y="-133" font-family="Helvetica,sans-Serif" font-size="10.00">ToEngine</text>
</a>
</g>
</g>
<!-- Node1&#45;&gt;Node43 -->
<g id="edge42" class="edge">
<title>Node1&#45;&gt;Node43</title>
<path fill="none" stroke="midnightblue" d="M467.99,-684.08C474.99,-595.93 507.42,-241.78 582,-165 586.88,-159.97 592.63,-155.93 598.86,-152.69"/>
<polygon fill="midnightblue" stroke="midnightblue" points="464.5,-683.86 467.22,-694.1 471.48,-684.4 464.5,-683.86"/>
</g>
<!-- Node44 -->
<g id="node44" class="node">
<title>Node44</title>
<g id="a_node44"><a xlink:href="../../d0/d50/classxii_simulation_settings_msg_to_engine.htm" target="_top" xlink:title=" ">
<polygon fill="white" stroke="black" points="610.5,-77 610.5,-107 751.5,-107 751.5,-77 610.5,-77"/>
<text text-anchor="start" x="618.5" y="-95" font-family="Helvetica,sans-Serif" font-size="10.00">xiiSimulationSettingsMsg</text>
<text text-anchor="middle" x="681" y="-84" font-family="Helvetica,sans-Serif" font-size="10.00">ToEngine</text>
</a>
</g>
</g>
<!-- Node1&#45;&gt;Node44 -->
<g id="edge43" class="edge">
<title>Node1&#45;&gt;Node44</title>
<path fill="none" stroke="midnightblue" d="M467.61,-684.08C473.18,-591.1 501.14,-200.69 582,-116 589.74,-107.89 599.74,-102.34 610.38,-98.57"/>
<polygon fill="midnightblue" stroke="midnightblue" points="464.11,-683.94 467.02,-694.12 471.1,-684.34 464.11,-683.94"/>
</g>
<!-- Node45 -->
<g id="node45" class="node">
<title>Node45</title>
<g id="a_node45"><a xlink:href="../../d3/df2/classxii_view_highlight_msg_to_engine.htm" target="_top" xlink:title=" ">
<polygon fill="white" stroke="black" points="600.5,-38.5 600.5,-57.5 761.5,-57.5 761.5,-38.5 600.5,-38.5"/>
<text text-anchor="middle" x="681" y="-45.5" font-family="Helvetica,sans-Serif" font-size="10.00">xiiViewHighlightMsgToEngine</text>
</a>
</g>
</g>
<!-- Node1&#45;&gt;Node45 -->
<g id="edge44" class="edge">
<title>Node1&#45;&gt;Node45</title>
<path fill="none" stroke="midnightblue" d="M467.19,-683.92C471.01,-585.76 492.62,-157.47 582,-67 587.24,-61.7 593.48,-57.64 600.24,-54.56"/>
<polygon fill="midnightblue" stroke="midnightblue" points="463.69,-684.09 466.81,-694.21 470.68,-684.35 463.69,-684.09"/>
</g>
<!-- Node46 -->
<g id="node46" class="node">
<title>Node46</title>
<g id="a_node46"><a xlink:href="../../de/df2/classxii_world_settings_msg_to_engine.htm" target="_top" xlink:title=" ">
<polygon fill="white" stroke="black" points="601,-0.5 601,-19.5 761,-19.5 761,-0.5 601,-0.5"/>
<text text-anchor="middle" x="681" y="-7.5" font-family="Helvetica,sans-Serif" font-size="10.00">xiiWorldSettingsMsgToEngine</text>
</a>
</g>
</g>
<!-- Node1&#45;&gt;Node46 -->
<g id="edge45" class="edge">
<title>Node1&#45;&gt;Node46</title>
<path fill="none" stroke="midnightblue" d="M466.97,-684.02C469.77,-582.56 487.54,-125.57 582,-29 587.33,-23.55 593.73,-19.41 600.66,-16.29"/>
<polygon fill="midnightblue" stroke="midnightblue" points="463.47,-684.03 466.71,-694.12 470.47,-684.21 463.47,-684.03"/>
</g>
<!-- Node2 -->
<g id="node2" class="node">
<title>Node2</title>
<g id="a_node2"><a xlink:href="../../d4/d06/classxii_process_message.htm" target="_top" xlink:title="Base class for IPC messages transmitted by xiiIpcChannel.">
<polygon fill="white" stroke="black" points="239,-694.5 239,-713.5 349,-713.5 349,-694.5 239,-694.5"/>
<text text-anchor="middle" x="294" y="-701.5" font-family="Helvetica,sans-Serif" font-size="10.00">xiiProcessMessage</text>
</a>
</g>
</g>
<!-- Node2&#45;&gt;Node1 -->
<g id="edge1" class="edge">
<title>Node2&#45;&gt;Node1</title>
<path fill="none" stroke="midnightblue" d="M359.2,-704C367.62,-704 376.33,-704 384.97,-704"/>
<polygon fill="midnightblue" stroke="midnightblue" points="359.1,-700.5 349.1,-704 359.1,-707.5 359.1,-700.5"/>
</g>
<!-- Node3 -->
<g id="node3" class="node">
<title>Node3</title>
<g id="a_node3"><a xlink:href="../../dc/d71/classxii_reflected_class.htm" target="_top" xlink:title="All classes that should be dynamically reflectable, need to be derived from this base class.">
<polygon fill="white" stroke="black" points="102,-694.5 102,-713.5 203,-713.5 203,-694.5 102,-694.5"/>
<text text-anchor="middle" x="152.5" y="-701.5" font-family="Helvetica,sans-Serif" font-size="10.00">xiiReflectedClass</text>
</a>
</g>
</g>
<!-- Node3&#45;&gt;Node2 -->
<g id="edge2" class="edge">
<title>Node3&#45;&gt;Node2</title>
<path fill="none" stroke="midnightblue" d="M213.3,-704C221.78,-704 230.47,-704 238.85,-704"/>
<polygon fill="midnightblue" stroke="midnightblue" points="213.08,-700.5 203.08,-704 213.08,-707.5 213.08,-700.5"/>
</g>
<!-- Node4 -->
<g id="node4" class="node">
<title>Node4</title>
<g id="a_node4"><a xlink:href="../../d2/d38/classxii_no_base.htm" target="_top" xlink:title="Dummy type to pass to templates and macros that expect a base type for a class that has no base.">
<polygon fill="white" stroke="black" points="0,-694.5 0,-713.5 66,-713.5 66,-694.5 0,-694.5"/>
<text text-anchor="middle" x="33" y="-701.5" font-family="Helvetica,sans-Serif" font-size="10.00">xiiNoBase</text>
</a>
</g>
</g>
<!-- Node4&#45;&gt;Node3 -->
<g id="edge3" class="edge">
<title>Node4&#45;&gt;Node3</title>
<path fill="none" stroke="midnightblue" d="M76.27,-704C84.54,-704 93.29,-704 101.78,-704"/>
<polygon fill="midnightblue" stroke="midnightblue" points="76.11,-700.5 66.11,-704 76.11,-707.5 76.11,-700.5"/>
</g>
<!-- Node17 -->
<g id="node17" class="node">
<title>Node17</title>
<g id="a_node17"><a xlink:href="../../dc/d0a/classxii_activate_remote_view_msg_to_engine.htm" target="_top" xlink:title=" ">
<polygon fill="white" stroke="black" points="825,-1082 825,-1112 977,-1112 977,-1082 825,-1082"/>
<text text-anchor="start" x="833" y="-1100" font-family="Helvetica,sans-Serif" font-size="10.00">xiiActivateRemoteViewMsg</text>
<text text-anchor="middle" x="901" y="-1089" font-family="Helvetica,sans-Serif" font-size="10.00">ToEngine</text>
</a>
</g>
</g>
<!-- Node16&#45;&gt;Node17 -->
<g id="edge16" class="edge">
<title>Node16&#45;&gt;Node17</title>
<path fill="none" stroke="midnightblue" d="M757.59,-916.39C765.86,-919.55 773.59,-923.95 780,-930 827.33,-974.71 770.91,-1025.03 816,-1072 819.69,-1075.84 823.94,-1079.1 828.53,-1081.86"/>
<polygon fill="midnightblue" stroke="midnightblue" points="758.65,-913.05 748.06,-913.32 756.51,-919.72 758.65,-913.05"/>
</g>
<!-- Node18 -->
<g id="node18" class="node">
<title>Node18</title>
<g id="a_node18"><a xlink:href="../../df/dcb/classxii_view_destroyed_msg_to_engine.htm" target="_top" xlink:title=" ">
<polygon fill="white" stroke="black" points="817.5,-1043.5 817.5,-1062.5 984.5,-1062.5 984.5,-1043.5 817.5,-1043.5"/>
<text text-anchor="middle" x="901" y="-1050.5" font-family="Helvetica,sans-Serif" font-size="10.00">xiiViewDestroyedMsgToEngine</text>
</a>
</g>
</g>
<!-- Node16&#45;&gt;Node18 -->
<g id="edge17" class="edge">
<title>Node16&#45;&gt;Node18</title>
<path fill="none" stroke="midnightblue" d="M757.71,-917.17C765.84,-920.22 773.5,-924.38 780,-930 816.68,-961.72 780,-1000.51 816,-1033 820.79,-1037.32 826.33,-1040.75 832.25,-1043.47"/>
<polygon fill="midnightblue" stroke="midnightblue" points="758.59,-913.78 748,-914.08 756.47,-920.45 758.59,-913.78"/>
</g>
<!-- Node19 -->
<g id="node19" class="node">
<title>Node19</title>
<g id="a_node19"><a xlink:href="../../d4/d3f/classxii_view_destroyed_response_msg_to_editor.htm" target="_top" xlink:title=" ">
<polygon fill="white" stroke="black" points="826,-994 826,-1024 976,-1024 976,-994 826,-994"/>
<text text-anchor="start" x="834" y="-1012" font-family="Helvetica,sans-Serif" font-size="10.00">xiiViewDestroyedResponse</text>
<text text-anchor="middle" x="901" y="-1001" font-family="Helvetica,sans-Serif" font-size="10.00">MsgToEditor</text>
</a>
</g>
</g>
<!-- Node16&#45;&gt;Node19 -->
<g id="edge18" class="edge">
<title>Node16&#45;&gt;Node19</title>
<path fill="none" stroke="midnightblue" d="M757.78,-919.3C765.65,-922 773.23,-925.5 780,-930 804.01,-945.98 792.8,-966.87 816,-984 821.26,-987.89 827.13,-991.17 833.24,-993.95"/>
<polygon fill="midnightblue" stroke="midnightblue" points="758.67,-915.91 748.08,-916.39 756.65,-922.62 758.67,-915.91"/>
</g>
<!-- Node20 -->
<g id="node20" class="node">
<title>Node20</title>
<g id="a_node20"><a xlink:href="../../db/d92/classxii_view_marquee_picking_msg_to_engine.htm" target="_top" xlink:title=" ">
<polygon fill="white" stroke="black" points="825.5,-945 825.5,-975 976.5,-975 976.5,-945 825.5,-945"/>
<text text-anchor="start" x="833.5" y="-963" font-family="Helvetica,sans-Serif" font-size="10.00">xiiViewMarqueePickingMsg</text>
<text text-anchor="middle" x="901" y="-952" font-family="Helvetica,sans-Serif" font-size="10.00">ToEngine</text>
</a>
</g>
</g>
<!-- Node16&#45;&gt;Node20 -->
<g id="edge19" class="edge">
<title>Node16&#45;&gt;Node20</title>
<path fill="none" stroke="midnightblue" d="M743.92,-922.48C755.92,-924.86 768.37,-927.42 780,-930 800.44,-934.53 822.72,-939.97 842.47,-944.95"/>
<polygon fill="midnightblue" stroke="midnightblue" points="744.47,-919.03 733.98,-920.54 743.13,-925.9 744.47,-919.03"/>
</g>
<!-- Node21 -->
<g id="node21" class="node">
<title>Node21</title>
<g id="a_node21"><a xlink:href="../../d2/d2c/classxii_view_marquee_picking_result_msg_to_editor.htm" target="_top" xlink:title=" ">
<polygon fill="white" stroke="black" points="820.5,-896 820.5,-926 981.5,-926 981.5,-896 820.5,-896"/>
<text text-anchor="start" x="828.5" y="-914" font-family="Helvetica,sans-Serif" font-size="10.00">xiiViewMarqueePickingResult</text>
<text text-anchor="middle" x="901" y="-903" font-family="Helvetica,sans-Serif" font-size="10.00">MsgToEditor</text>
</a>
</g>
</g>
<!-- Node16&#45;&gt;Node21 -->
<g id="edge20" class="edge">
<title>Node16&#45;&gt;Node21</title>
<path fill="none" stroke="midnightblue" d="M758.57,-911C778.53,-911 800.08,-911 820.2,-911"/>
<polygon fill="midnightblue" stroke="midnightblue" points="758.3,-907.5 748.3,-911 758.3,-914.5 758.3,-907.5"/>
</g>
<!-- Node22 -->
<g id="node22" class="node">
<title>Node22</title>
<g id="a_node22"><a xlink:href="../../d7/dc4/classxii_view_picking_msg_to_engine.htm" target="_top" xlink:title=" ">
<polygon fill="white" stroke="black" points="825,-857.5 825,-876.5 977,-876.5 977,-857.5 825,-857.5"/>
<text text-anchor="middle" x="901" y="-864.5" font-family="Helvetica,sans-Serif" font-size="10.00">xiiViewPickingMsgToEngine</text>
</a>
</g>
</g>
<!-- Node16&#45;&gt;Node22 -->
<g id="edge21" class="edge">
<title>Node16&#45;&gt;Node22</title>
<path fill="none" stroke="midnightblue" d="M741.84,-899.54C754.45,-897.08 767.67,-894.48 780,-892 804.83,-887.01 832.5,-881.25 855.01,-876.53"/>
<polygon fill="midnightblue" stroke="midnightblue" points="741.03,-896.13 731.88,-901.47 742.37,-903 741.03,-896.13"/>
</g>
<!-- Node23 -->
<g id="node23" class="node">
<title>Node23</title>
<g id="a_node23"><a xlink:href="../../df/dd5/classxii_view_picking_result_msg_to_editor.htm" target="_top" xlink:title=" ">
<polygon fill="white" stroke="black" points="826.5,-808 826.5,-838 975.5,-838 975.5,-808 826.5,-808"/>
<text text-anchor="start" x="834.5" y="-826" font-family="Helvetica,sans-Serif" font-size="10.00">xiiViewPickingResultMsgTo</text>
<text text-anchor="middle" x="901" y="-815" font-family="Helvetica,sans-Serif" font-size="10.00">Editor</text>
</a>
</g>
</g>
<!-- Node16&#45;&gt;Node23 -->
<g id="edge22" class="edge">
<title>Node16&#45;&gt;Node23</title>
<path fill="none" stroke="midnightblue" d="M757.72,-901.91C765.54,-899.35 773.12,-896.11 780,-892 801.69,-879.05 794.96,-862 816,-848 821.83,-844.12 828.27,-840.83 834.92,-838.04"/>
<polygon fill="midnightblue" stroke="midnightblue" points="756.73,-898.55 748.1,-904.7 758.68,-905.27 756.73,-898.55"/>
</g>
<!-- Node24 -->
<g id="node24" class="node">
<title>Node24</title>
<g id="a_node24"><a xlink:href="../../d6/d27/classxii_view_redraw_msg_to_engine.htm" target="_top" xlink:title=" ">
<polygon fill="white" stroke="black" points="824.5,-769.5 824.5,-788.5 977.5,-788.5 977.5,-769.5 824.5,-769.5"/>
<text text-anchor="middle" x="901" y="-776.5" font-family="Helvetica,sans-Serif" font-size="10.00">xiiViewRedrawMsgToEngine</text>
</a>
</g>
</g>
<!-- Node16&#45;&gt;Node24 -->
<g id="edge23" class="edge">
<title>Node16&#45;&gt;Node24</title>
<path fill="none" stroke="midnightblue" d="M757.73,-904.57C765.82,-901.56 773.46,-897.49 780,-892 814.27,-863.24 782.18,-827.29 816,-798 820.41,-794.18 825.42,-791.09 830.76,-788.58"/>
<polygon fill="midnightblue" stroke="midnightblue" points="756.55,-901.28 748.07,-907.64 758.66,-907.95 756.55,-901.28"/>
</g>
<!-- Node25 -->
<g id="node25" class="node">
<title>Node25</title>
<g id="a_node25"><a xlink:href="../../d0/dee/classxii_view_screenshot_msg_to_engine.htm" target="_top" xlink:title=" ">
<polygon fill="white" stroke="black" points="816,-731.5 816,-750.5 986,-750.5 986,-731.5 816,-731.5"/>
<text text-anchor="middle" x="901" y="-738.5" font-family="Helvetica,sans-Serif" font-size="10.00">xiiViewScreenshotMsgToEngine</text>
</a>
</g>
</g>
<!-- Node16&#45;&gt;Node25 -->
<g id="edge24" class="edge">
<title>Node16&#45;&gt;Node25</title>
<path fill="none" stroke="midnightblue" d="M757.93,-905.33C766.05,-902.2 773.65,-897.89 780,-892 824.58,-850.64 772.07,-802.05 816,-760 820,-756.17 824.59,-753.06 829.53,-750.53"/>
<polygon fill="midnightblue" stroke="midnightblue" points="756.63,-902.07 748.19,-908.49 758.79,-908.73 756.63,-902.07"/>
</g>
</g>
</svg>
