<?xml version="1.0" encoding="UTF-8" standalone="no"?>
<!DOCTYPE svg PUBLIC "-//W3C//DTD SVG 1.1//EN"
 "http://www.w3.org/Graphics/SVG/1.1/DTD/svg11.dtd">
<!-- Generated by graphviz version 2.43.0 (0)
 -->
<!-- Title: xiiImageConversionStepCompressBlocks Pages: 1 -->
<svg width="254pt" height="285pt"
 viewBox="0.00 0.00 254.00 285.00" xmlns="http://www.w3.org/2000/svg" xmlns:xlink="http://www.w3.org/1999/xlink">
<g id="graph0" class="graph" transform="scale(1 1) rotate(0) translate(4 281)">
<title>xiiImageConversionStepCompressBlocks</title>
<polygon fill="white" stroke="transparent" points="-4,4 -4,-281 250,-281 250,4 -4,4"/>
<!-- Node1 -->
<g id="node1" class="node">
<title>Node1</title>
<g id="a_node1"><a xlink:title="Interface for a single image conversion step where the source format is uncompressed and the target f...">
<polygon fill="#bfbfbf" stroke="black" points="30.5,-67.5 30.5,-97.5 215.5,-97.5 215.5,-67.5 30.5,-67.5"/>
<text text-anchor="start" x="38.5" y="-85.5" font-family="Helvetica,sans-Serif" font-size="10.00">xiiImageConversionStepCompress</text>
<text text-anchor="middle" x="123" y="-74.5" font-family="Helvetica,sans-Serif" font-size="10.00">Blocks</text>
</a>
</g>
</g>
<!-- Node5 -->
<g id="node5" class="node">
<title>Node5</title>
<g id="a_node5"><a xlink:title=" ">
<polygon fill="white" stroke="#bfbfbf" points="0,-0.5 0,-30.5 114,-30.5 114,-0.5 0,-0.5"/>
<text text-anchor="start" x="8" y="-18.5" font-family="Helvetica,sans-Serif" font-size="10.00">xiiImageConversion</text>
<text text-anchor="middle" x="57" y="-7.5" font-family="Helvetica,sans-Serif" font-size="10.00">_CompressBC4</text>
</a>
</g>
</g>
<!-- Node1&#45;&gt;Node5 -->
<g id="edge4" class="edge">
<title>Node1&#45;&gt;Node5</title>
<path fill="none" stroke="midnightblue" d="M101.49,-60.31C91.59,-50.56 80.11,-39.26 71.29,-30.58"/>
<polygon fill="midnightblue" stroke="midnightblue" points="99.1,-62.87 108.68,-67.4 104.01,-57.89 99.1,-62.87"/>
</g>
<!-- Node6 -->
<g id="node6" class="node">
<title>Node6</title>
<g id="a_node6"><a xlink:title=" ">
<polygon fill="white" stroke="#bfbfbf" points="132,-0.5 132,-30.5 246,-30.5 246,-0.5 132,-0.5"/>
<text text-anchor="start" x="140" y="-18.5" font-family="Helvetica,sans-Serif" font-size="10.00">xiiImageConversion</text>
<text text-anchor="middle" x="189" y="-7.5" font-family="Helvetica,sans-Serif" font-size="10.00">_CompressBC5</text>
</a>
</g>
</g>
<!-- Node1&#45;&gt;Node6 -->
<g id="edge5" class="edge">
<title>Node1&#45;&gt;Node6</title>
<path fill="none" stroke="midnightblue" d="M144.51,-60.31C154.41,-50.56 165.89,-39.26 174.71,-30.58"/>
<polygon fill="midnightblue" stroke="midnightblue" points="141.99,-57.89 137.32,-67.4 146.9,-62.87 141.99,-57.89"/>
</g>
<!-- Node2 -->
<g id="node2" class="node">
<title>Node2</title>
<g id="a_node2"><a xlink:href="../../dc/d44/classxii_image_conversion_step.htm" target="_top" xlink:title="Interface for a single image conversion step.">
<polygon fill="white" stroke="black" points="55,-134.5 55,-153.5 191,-153.5 191,-134.5 55,-134.5"/>
<text text-anchor="middle" x="123" y="-141.5" font-family="Helvetica,sans-Serif" font-size="10.00">xiiImageConversionStep</text>
</a>
</g>
</g>
<!-- Node2&#45;&gt;Node1 -->
<g id="edge1" class="edge">
<title>Node2&#45;&gt;Node1</title>
<path fill="none" stroke="midnightblue" d="M123,-124.23C123,-115.59 123,-105.5 123,-97.52"/>
<polygon fill="midnightblue" stroke="midnightblue" points="119.5,-124.48 123,-134.48 126.5,-124.48 119.5,-124.48"/>
</g>
<!-- Node3 -->
<g id="node3" class="node">
<title>Node3</title>
<g id="a_node3"><a xlink:href="../../dc/d54/classxii_enumerable.htm" target="_top" xlink:title=" ">
<polygon fill="white" stroke="black" points="25,-190.5 25,-220.5 221,-220.5 221,-190.5 25,-190.5"/>
<text text-anchor="start" x="33" y="-208.5" font-family="Helvetica,sans-Serif" font-size="10.00">xiiEnumerable&lt; xiiImageConversion</text>
<text text-anchor="middle" x="123" y="-197.5" font-family="Helvetica,sans-Serif" font-size="10.00">Step &gt;</text>
</a>
</g>
</g>
<!-- Node3&#45;&gt;Node2 -->
<g id="edge2" class="edge">
<title>Node3&#45;&gt;Node2</title>
<path fill="none" stroke="midnightblue" d="M123,-180.29C123,-170.86 123,-160.65 123,-153.66"/>
<polygon fill="midnightblue" stroke="midnightblue" points="119.5,-180.4 123,-190.4 126.5,-180.4 119.5,-180.4"/>
</g>
<!-- Node4 -->
<g id="node4" class="node">
<title>Node4</title>
<g id="a_node4"><a xlink:href="../../d2/d38/classxii_no_base.htm" target="_top" xlink:title="Dummy type to pass to templates and macros that expect a base type for a class that has no base.">
<polygon fill="white" stroke="black" points="90,-257.5 90,-276.5 156,-276.5 156,-257.5 90,-257.5"/>
<text text-anchor="middle" x="123" y="-264.5" font-family="Helvetica,sans-Serif" font-size="10.00">xiiNoBase</text>
</a>
</g>
</g>
<!-- Node4&#45;&gt;Node3 -->
<g id="edge3" class="edge">
<title>Node4&#45;&gt;Node3</title>
<path fill="none" stroke="midnightblue" d="M123,-247.23C123,-238.59 123,-228.5 123,-220.52"/>
<polygon fill="midnightblue" stroke="midnightblue" points="119.5,-247.48 123,-257.48 126.5,-247.48 119.5,-247.48"/>
</g>
</g>
</svg>
