<?xml version="1.0" encoding="UTF-8" standalone="no"?>
<!DOCTYPE svg PUBLIC "-//W3C//DTD SVG 1.1//EN"
 "http://www.w3.org/Graphics/SVG/1.1/DTD/svg11.dtd">
<!-- Generated by graphviz version 2.43.0 (0)
 -->
<!-- Title: xiiCommandInterpreter Pages: 1 -->
<svg width="354pt" height="196pt"
 viewBox="0.00 0.00 353.50 196.00" xmlns="http://www.w3.org/2000/svg" xmlns:xlink="http://www.w3.org/1999/xlink">
<g id="graph0" class="graph" transform="scale(1 1) rotate(0) translate(4 192)">
<title>xiiCommandInterpreter</title>
<polygon fill="white" stroke="transparent" points="-4,4 -4,-192 349.5,-192 349.5,4 -4,4"/>
<!-- Node1 -->
<g id="node1" class="node">
<title>Node1</title>
<g id="a_node1"><a xlink:title=" ">
<polygon fill="#bfbfbf" stroke="black" points="101,-56.5 101,-75.5 232,-75.5 232,-56.5 101,-56.5"/>
<text text-anchor="middle" x="166.5" y="-63.5" font-family="Helvetica,sans-Serif" font-size="10.00">xiiCommandInterpreter</text>
</a>
</g>
</g>
<!-- Node4 -->
<g id="node4" class="node">
<title>Node4</title>
<g id="a_node4"><a xlink:title=" ">
<polygon fill="white" stroke="#bfbfbf" points="0,-0.5 0,-19.5 151,-19.5 151,-0.5 0,-0.5"/>
<text text-anchor="middle" x="75.5" y="-7.5" font-family="Helvetica,sans-Serif" font-size="10.00">xiiCommandInterpreterFwd</text>
</a>
</g>
</g>
<!-- Node1&#45;&gt;Node4 -->
<g id="edge3" class="edge">
<title>Node1&#45;&gt;Node4</title>
<path fill="none" stroke="midnightblue" d="M143.21,-51.18C126.46,-41.24 104.4,-28.15 90.08,-19.65"/>
<polygon fill="midnightblue" stroke="midnightblue" points="141.49,-54.23 151.88,-56.32 145.07,-48.21 141.49,-54.23"/>
</g>
<!-- Node5 -->
<g id="node5" class="node">
<title>Node5</title>
<g id="a_node5"><a xlink:title=" ">
<polygon fill="white" stroke="#bfbfbf" points="169.5,-0.5 169.5,-19.5 345.5,-19.5 345.5,-0.5 169.5,-0.5"/>
<text text-anchor="middle" x="257.5" y="-7.5" font-family="Helvetica,sans-Serif" font-size="10.00">xiiCommandInterpreterInspector</text>
</a>
</g>
</g>
<!-- Node1&#45;&gt;Node5 -->
<g id="edge4" class="edge">
<title>Node1&#45;&gt;Node5</title>
<path fill="none" stroke="midnightblue" d="M189.79,-51.18C206.54,-41.24 228.6,-28.15 242.92,-19.65"/>
<polygon fill="midnightblue" stroke="midnightblue" points="187.93,-48.21 181.12,-56.32 191.51,-54.23 187.93,-48.21"/>
</g>
<!-- Node2 -->
<g id="node2" class="node">
<title>Node2</title>
<g id="a_node2"><a xlink:href="../../d3/dd0/classxii_ref_counted.htm" target="_top" xlink:title="Base class for reference counted objects.">
<polygon fill="white" stroke="black" points="123.5,-112.5 123.5,-131.5 209.5,-131.5 209.5,-112.5 123.5,-112.5"/>
<text text-anchor="middle" x="166.5" y="-119.5" font-family="Helvetica,sans-Serif" font-size="10.00">xiiRefCounted</text>
</a>
</g>
</g>
<!-- Node2&#45;&gt;Node1 -->
<g id="edge1" class="edge">
<title>Node2&#45;&gt;Node1</title>
<path fill="none" stroke="midnightblue" d="M166.5,-101.8C166.5,-92.91 166.5,-82.78 166.5,-75.75"/>
<polygon fill="midnightblue" stroke="midnightblue" points="163,-102.08 166.5,-112.08 170,-102.08 163,-102.08"/>
</g>
<!-- Node3 -->
<g id="node3" class="node">
<title>Node3</title>
<g id="a_node3"><a xlink:href="../../d7/df4/classxii_ref_counting_impl.htm" target="_top" xlink:title=" ">
<polygon fill="white" stroke="black" points="111.5,-168.5 111.5,-187.5 221.5,-187.5 221.5,-168.5 111.5,-168.5"/>
<text text-anchor="middle" x="166.5" y="-175.5" font-family="Helvetica,sans-Serif" font-size="10.00">xiiRefCountingImpl</text>
</a>
</g>
</g>
<!-- Node3&#45;&gt;Node2 -->
<g id="edge2" class="edge">
<title>Node3&#45;&gt;Node2</title>
<path fill="none" stroke="midnightblue" d="M166.5,-157.8C166.5,-148.91 166.5,-138.78 166.5,-131.75"/>
<polygon fill="midnightblue" stroke="midnightblue" points="163,-158.08 166.5,-168.08 170,-158.08 163,-158.08"/>
</g>
</g>
</svg>
