<?xml version="1.0" encoding="UTF-8" standalone="no"?>
<!DOCTYPE svg PUBLIC "-//W3C//DTD SVG 1.1//EN"
 "http://www.w3.org/Graphics/SVG/1.1/DTD/svg11.dtd">
<!-- Generated by graphviz version 2.43.0 (0)
 -->
<!-- Title: xiiMaterialAssetDocument Pages: 1 -->
<svg width="176pt" height="319pt"
 viewBox="0.00 0.00 176.00 319.00" xmlns="http://www.w3.org/2000/svg" xmlns:xlink="http://www.w3.org/1999/xlink">
<g id="graph0" class="graph" transform="scale(1 1) rotate(0) translate(4 315)">
<title>xiiMaterialAssetDocument</title>
<polygon fill="white" stroke="transparent" points="-4,4 -4,-315 172,-315 172,4 -4,4"/>
<!-- Node1 -->
<g id="node1" class="node">
<title>Node1</title>
<g id="a_node1"><a xlink:title=" ">
<polygon fill="#bfbfbf" stroke="black" points="11,-0.5 11,-19.5 157,-19.5 157,-0.5 11,-0.5"/>
<text text-anchor="middle" x="84" y="-7.5" font-family="Helvetica,sans-Serif" font-size="10.00">xiiMaterialAssetDocument</text>
</a>
</g>
</g>
<!-- Node2 -->
<g id="node2" class="node">
<title>Node2</title>
<g id="a_node2"><a xlink:href="../../d4/d60/classxii_simple_asset_document.htm" target="_top" xlink:title=" ">
<polygon fill="white" stroke="black" points="0,-56.5 0,-86.5 168,-86.5 168,-56.5 0,-56.5"/>
<text text-anchor="start" x="8" y="-74.5" font-family="Helvetica,sans-Serif" font-size="10.00">xiiSimpleAssetDocument</text>
<text text-anchor="middle" x="84" y="-63.5" font-family="Helvetica,sans-Serif" font-size="10.00">&lt; xiiMaterialAssetProperties &gt;</text>
</a>
</g>
</g>
<!-- Node2&#45;&gt;Node1 -->
<g id="edge1" class="edge">
<title>Node2&#45;&gt;Node1</title>
<path fill="none" stroke="midnightblue" d="M84,-46.29C84,-36.86 84,-26.65 84,-19.66"/>
<polygon fill="midnightblue" stroke="midnightblue" points="80.5,-46.4 84,-56.4 87.5,-46.4 80.5,-46.4"/>
</g>
<!-- Node3 -->
<g id="node3" class="node">
<title>Node3</title>
<g id="a_node3"><a xlink:href="../../d7/dd5/classxii_asset_document.htm" target="_top" xlink:title=" ">
<polygon fill="white" stroke="black" points="31,-123.5 31,-142.5 137,-142.5 137,-123.5 31,-123.5"/>
<text text-anchor="middle" x="84" y="-130.5" font-family="Helvetica,sans-Serif" font-size="10.00">xiiAssetDocument</text>
</a>
</g>
</g>
<!-- Node3&#45;&gt;Node2 -->
<g id="edge2" class="edge">
<title>Node3&#45;&gt;Node2</title>
<path fill="none" stroke="midnightblue" d="M84,-113.23C84,-104.59 84,-94.5 84,-86.52"/>
<polygon fill="midnightblue" stroke="midnightblue" points="80.5,-113.48 84,-123.48 87.5,-113.48 80.5,-113.48"/>
</g>
<!-- Node4 -->
<g id="node4" class="node">
<title>Node4</title>
<g id="a_node4"><a xlink:href="../../d8/da9/classxii_document.htm" target="_top" xlink:title=" ">
<polygon fill="white" stroke="black" points="44.5,-179.5 44.5,-198.5 123.5,-198.5 123.5,-179.5 44.5,-179.5"/>
<text text-anchor="middle" x="84" y="-186.5" font-family="Helvetica,sans-Serif" font-size="10.00">xiiDocument</text>
</a>
</g>
</g>
<!-- Node4&#45;&gt;Node3 -->
<g id="edge3" class="edge">
<title>Node4&#45;&gt;Node3</title>
<path fill="none" stroke="midnightblue" d="M84,-168.8C84,-159.91 84,-149.78 84,-142.75"/>
<polygon fill="midnightblue" stroke="midnightblue" points="80.5,-169.08 84,-179.08 87.5,-169.08 80.5,-169.08"/>
</g>
<!-- Node5 -->
<g id="node5" class="node">
<title>Node5</title>
<g id="a_node5"><a xlink:href="../../dc/d71/classxii_reflected_class.htm" target="_top" xlink:title="All classes that should be dynamically reflectable, need to be derived from this base class.">
<polygon fill="white" stroke="black" points="33.5,-235.5 33.5,-254.5 134.5,-254.5 134.5,-235.5 33.5,-235.5"/>
<text text-anchor="middle" x="84" y="-242.5" font-family="Helvetica,sans-Serif" font-size="10.00">xiiReflectedClass</text>
</a>
</g>
</g>
<!-- Node5&#45;&gt;Node4 -->
<g id="edge4" class="edge">
<title>Node5&#45;&gt;Node4</title>
<path fill="none" stroke="midnightblue" d="M84,-224.8C84,-215.91 84,-205.78 84,-198.75"/>
<polygon fill="midnightblue" stroke="midnightblue" points="80.5,-225.08 84,-235.08 87.5,-225.08 80.5,-225.08"/>
</g>
<!-- Node6 -->
<g id="node6" class="node">
<title>Node6</title>
<g id="a_node6"><a xlink:href="../../d2/d38/classxii_no_base.htm" target="_top" xlink:title="Dummy type to pass to templates and macros that expect a base type for a class that has no base.">
<polygon fill="white" stroke="black" points="51,-291.5 51,-310.5 117,-310.5 117,-291.5 51,-291.5"/>
<text text-anchor="middle" x="84" y="-298.5" font-family="Helvetica,sans-Serif" font-size="10.00">xiiNoBase</text>
</a>
</g>
</g>
<!-- Node6&#45;&gt;Node5 -->
<g id="edge5" class="edge">
<title>Node6&#45;&gt;Node5</title>
<path fill="none" stroke="midnightblue" d="M84,-280.8C84,-271.91 84,-261.78 84,-254.75"/>
<polygon fill="midnightblue" stroke="midnightblue" points="80.5,-281.08 84,-291.08 87.5,-281.08 80.5,-281.08"/>
</g>
</g>
</svg>
