<?xml version="1.0" encoding="UTF-8" standalone="no"?>
<!DOCTYPE svg PUBLIC "-//W3C//DTD SVG 1.1//EN"
 "http://www.w3.org/Graphics/SVG/1.1/DTD/svg11.dtd">
<!-- Generated by graphviz version 2.43.0 (0)
 -->
<!-- Title: xiiLogAnimNode Pages: 1 -->
<svg width="262pt" height="247pt"
 viewBox="0.00 0.00 262.00 247.00" xmlns="http://www.w3.org/2000/svg" xmlns:xlink="http://www.w3.org/1999/xlink">
<g id="graph0" class="graph" transform="scale(1 1) rotate(0) translate(4 243)">
<title>xiiLogAnimNode</title>
<!-- Node1 -->
<g id="Node000001" class="node">
<title>Node1</title>
<g id="a_Node000001"><a xlink:title=" ">
<polygon fill="#999999" stroke="#666666" points="176.5,-74 79.5,-74 79.5,-55 176.5,-55 176.5,-74"/>
<text text-anchor="middle" x="128" y="-62" font-family="Helvetica,sans-Serif" font-size="10.00">xiiLogAnimNode</text>
</a>
</g>
</g>
<!-- Node5 -->
<g id="Node000005" class="node">
<title>Node5</title>
<g id="a_Node000005"><a xlink:href="../../db/d5b/classxii_log_error_anim_node.html" target="_top" xlink:title=" ">
<polygon fill="white" stroke="#bfbfbf" points="120,-19 0,-19 0,0 120,0 120,-19"/>
<text text-anchor="middle" x="60" y="-7" font-family="Helvetica,sans-Serif" font-size="10.00">xiiLogErrorAnimNode</text>
</a>
</g>
</g>
<!-- Node1&#45;&gt;Node5 -->
<g id="edge4_Node000001_Node000005" class="edge">
<title>Node1&#45;&gt;Node5</title>
<g id="a_edge4_Node000001_Node000005"><a xlink:title=" ">
<path fill="none" stroke="#63b8ff" d="M108.88,-48.6C96.7,-39.11 81.34,-27.13 71.12,-19.17"/>
<polygon fill="#63b8ff" stroke="#63b8ff" points="107.04,-51.6 117.07,-54.98 111.34,-46.08 107.04,-51.6"/>
</a>
</g>
</g>
<!-- Node6 -->
<g id="Node000006" class="node">
<title>Node6</title>
<g id="a_Node000006"><a xlink:href="../../d6/d8d/classxii_log_info_anim_node.html" target="_top" xlink:title=" ">
<polygon fill="white" stroke="#bfbfbf" points="254,-19 138,-19 138,0 254,0 254,-19"/>
<text text-anchor="middle" x="196" y="-7" font-family="Helvetica,sans-Serif" font-size="10.00">xiiLogInfoAnimNode</text>
</a>
</g>
</g>
<!-- Node1&#45;&gt;Node6 -->
<g id="edge5_Node000001_Node000006" class="edge">
<title>Node1&#45;&gt;Node6</title>
<g id="a_edge5_Node000001_Node000006"><a xlink:title=" ">
<path fill="none" stroke="#63b8ff" d="M147.12,-48.6C159.3,-39.11 174.66,-27.13 184.88,-19.17"/>
<polygon fill="#63b8ff" stroke="#63b8ff" points="144.66,-46.08 138.93,-54.98 148.96,-51.6 144.66,-46.08"/>
</a>
</g>
</g>
<!-- Node2 -->
<g id="Node000002" class="node">
<title>Node2</title>
<g id="a_Node000002"><a xlink:href="../../de/dfb/classxii_anim_graph_node.html" target="_top" xlink:title="Base class for all nodes in an xiiAnimGraphInstance.">
<polygon fill="white" stroke="#666666" points="182.5,-129 73.5,-129 73.5,-110 182.5,-110 182.5,-129"/>
<text text-anchor="middle" x="128" y="-117" font-family="Helvetica,sans-Serif" font-size="10.00">xiiAnimGraphNode</text>
</a>
</g>
</g>
<!-- Node2&#45;&gt;Node1 -->
<g id="edge1_Node000001_Node000002" class="edge">
<title>Node2&#45;&gt;Node1</title>
<g id="a_edge1_Node000001_Node000002"><a xlink:title=" ">
<path fill="none" stroke="#63b8ff" d="M128,-99.66C128,-90.93 128,-80.99 128,-74.09"/>
<polygon fill="#63b8ff" stroke="#63b8ff" points="124.5,-99.75 128,-109.75 131.5,-99.75 124.5,-99.75"/>
</a>
</g>
</g>
<!-- Node3 -->
<g id="Node000003" class="node">
<title>Node3</title>
<g id="a_Node000003"><a xlink:href="../../dc/d71/classxii_reflected_class.html" target="_top" xlink:title="All classes that should be dynamically reflectable, need to be derived from this base class.">
<polygon fill="white" stroke="#666666" points="178.5,-184 77.5,-184 77.5,-165 178.5,-165 178.5,-184"/>
<text text-anchor="middle" x="128" y="-172" font-family="Helvetica,sans-Serif" font-size="10.00">xiiReflectedClass</text>
</a>
</g>
</g>
<!-- Node3&#45;&gt;Node2 -->
<g id="edge2_Node000002_Node000003" class="edge">
<title>Node3&#45;&gt;Node2</title>
<g id="a_edge2_Node000002_Node000003"><a xlink:title=" ">
<path fill="none" stroke="#63b8ff" d="M128,-154.66C128,-145.93 128,-135.99 128,-129.09"/>
<polygon fill="#63b8ff" stroke="#63b8ff" points="124.5,-154.75 128,-164.75 131.5,-154.75 124.5,-154.75"/>
</a>
</g>
</g>
<!-- Node4 -->
<g id="Node000004" class="node">
<title>Node4</title>
<g id="a_Node000004"><a xlink:href="../../d2/d38/classxii_no_base.html" target="_top" xlink:title="Dummy type to pass to templates and macros that expect a base type for a class that has no base.">
<polygon fill="white" stroke="#666666" points="161,-239 95,-239 95,-220 161,-220 161,-239"/>
<text text-anchor="middle" x="128" y="-227" font-family="Helvetica,sans-Serif" font-size="10.00">xiiNoBase</text>
</a>
</g>
</g>
<!-- Node4&#45;&gt;Node3 -->
<g id="edge3_Node000003_Node000004" class="edge">
<title>Node4&#45;&gt;Node3</title>
<g id="a_edge3_Node000003_Node000004"><a xlink:title=" ">
<path fill="none" stroke="#63b8ff" d="M128,-209.66C128,-200.93 128,-190.99 128,-184.09"/>
<polygon fill="#63b8ff" stroke="#63b8ff" points="124.5,-209.75 128,-219.75 131.5,-209.75 124.5,-209.75"/>
</a>
</g>
</g>
</g>
</svg>
