<?xml version="1.0" encoding="UTF-8" standalone="no"?>
<!DOCTYPE svg PUBLIC "-//W3C//DTD SVG 1.1//EN"
 "http://www.w3.org/Graphics/SVG/1.1/DTD/svg11.dtd">
<!-- Generated by graphviz version 2.43.0 (0)
 -->
<!-- Title: xiiLongOpProxy_BakeScene Pages: 1 -->
<svg width="160pt" height="196pt"
 viewBox="0.00 0.00 160.00 196.00" xmlns="http://www.w3.org/2000/svg" xmlns:xlink="http://www.w3.org/1999/xlink">
<g id="graph0" class="graph" transform="scale(1 1) rotate(0) translate(4 192)">
<title>xiiLongOpProxy_BakeScene</title>
<polygon fill="white" stroke="transparent" points="-4,4 -4,-192 156,-192 156,4 -4,4"/>
<!-- Node1 -->
<g id="node1" class="node">
<title>Node1</title>
<g id="a_node1"><a xlink:title=" ">
<polygon fill="#bfbfbf" stroke="black" points="0,-0.5 0,-19.5 152,-19.5 152,-0.5 0,-0.5"/>
<text text-anchor="middle" x="76" y="-7.5" font-family="Helvetica,sans-Serif" font-size="10.00">xiiLongOpProxy_BakeScene</text>
</a>
</g>
</g>
<!-- Node2 -->
<g id="node2" class="node">
<title>Node2</title>
<g id="a_node2"><a xlink:href="../../d9/de0/classxii_long_op_proxy.htm" target="_top" xlink:title="Proxy long ops represent a long operation on the editor side.">
<polygon fill="white" stroke="black" points="29.5,-56.5 29.5,-75.5 122.5,-75.5 122.5,-56.5 29.5,-56.5"/>
<text text-anchor="middle" x="76" y="-63.5" font-family="Helvetica,sans-Serif" font-size="10.00">xiiLongOpProxy</text>
</a>
</g>
</g>
<!-- Node2&#45;&gt;Node1 -->
<g id="edge1" class="edge">
<title>Node2&#45;&gt;Node1</title>
<path fill="none" stroke="midnightblue" d="M76,-45.8C76,-36.91 76,-26.78 76,-19.75"/>
<polygon fill="midnightblue" stroke="midnightblue" points="72.5,-46.08 76,-56.08 79.5,-46.08 72.5,-46.08"/>
</g>
<!-- Node3 -->
<g id="node3" class="node">
<title>Node3</title>
<g id="a_node3"><a xlink:href="../../dc/d71/classxii_reflected_class.htm" target="_top" xlink:title="All classes that should be dynamically reflectable, need to be derived from this base class.">
<polygon fill="white" stroke="black" points="25.5,-112.5 25.5,-131.5 126.5,-131.5 126.5,-112.5 25.5,-112.5"/>
<text text-anchor="middle" x="76" y="-119.5" font-family="Helvetica,sans-Serif" font-size="10.00">xiiReflectedClass</text>
</a>
</g>
</g>
<!-- Node3&#45;&gt;Node2 -->
<g id="edge2" class="edge">
<title>Node3&#45;&gt;Node2</title>
<path fill="none" stroke="midnightblue" d="M76,-101.8C76,-92.91 76,-82.78 76,-75.75"/>
<polygon fill="midnightblue" stroke="midnightblue" points="72.5,-102.08 76,-112.08 79.5,-102.08 72.5,-102.08"/>
</g>
<!-- Node4 -->
<g id="node4" class="node">
<title>Node4</title>
<g id="a_node4"><a xlink:href="../../d2/d38/classxii_no_base.htm" target="_top" xlink:title="Dummy type to pass to templates and macros that expect a base type for a class that has no base.">
<polygon fill="white" stroke="black" points="43,-168.5 43,-187.5 109,-187.5 109,-168.5 43,-168.5"/>
<text text-anchor="middle" x="76" y="-175.5" font-family="Helvetica,sans-Serif" font-size="10.00">xiiNoBase</text>
</a>
</g>
</g>
<!-- Node4&#45;&gt;Node3 -->
<g id="edge3" class="edge">
<title>Node4&#45;&gt;Node3</title>
<path fill="none" stroke="midnightblue" d="M76,-157.8C76,-148.91 76,-138.78 76,-131.75"/>
<polygon fill="midnightblue" stroke="midnightblue" points="72.5,-158.08 76,-168.08 79.5,-158.08 72.5,-158.08"/>
</g>
</g>
</svg>
