<?xml version="1.0" encoding="UTF-8" standalone="no"?>
<!DOCTYPE svg PUBLIC "-//W3C//DTD SVG 1.1//EN"
 "http://www.w3.org/Graphics/SVG/1.1/DTD/svg11.dtd">
<!-- Generated by graphviz version 2.43.0 (0)
 -->
<!-- Title: xiiAnimationGraphAssetDocument Pages: 1 -->
<svg width="215pt" height="319pt"
 viewBox="0.00 0.00 215.00 319.00" xmlns="http://www.w3.org/2000/svg" xmlns:xlink="http://www.w3.org/1999/xlink">
<g id="graph0" class="graph" transform="scale(1 1) rotate(0) translate(4 315)">
<title>xiiAnimationGraphAssetDocument</title>
<polygon fill="white" stroke="transparent" points="-4,4 -4,-315 211,-315 211,4 -4,4"/>
<!-- Node1 -->
<g id="node1" class="node">
<title>Node1</title>
<g id="a_node1"><a xlink:title=" ">
<polygon fill="#bfbfbf" stroke="black" points="11,-0.5 11,-19.5 196,-19.5 196,-0.5 11,-0.5"/>
<text text-anchor="middle" x="103.5" y="-7.5" font-family="Helvetica,sans-Serif" font-size="10.00">xiiAnimationGraphAssetDocument</text>
</a>
</g>
</g>
<!-- Node2 -->
<g id="node2" class="node">
<title>Node2</title>
<g id="a_node2"><a xlink:href="../../d4/d60/classxii_simple_asset_document.htm" target="_top" xlink:title=" ">
<polygon fill="white" stroke="black" points="0,-56.5 0,-86.5 207,-86.5 207,-56.5 0,-56.5"/>
<text text-anchor="start" x="8" y="-74.5" font-family="Helvetica,sans-Serif" font-size="10.00">xiiSimpleAssetDocument</text>
<text text-anchor="middle" x="103.5" y="-63.5" font-family="Helvetica,sans-Serif" font-size="10.00">&lt; xiiAnimationGraphAssetProperties &gt;</text>
</a>
</g>
</g>
<!-- Node2&#45;&gt;Node1 -->
<g id="edge1" class="edge">
<title>Node2&#45;&gt;Node1</title>
<path fill="none" stroke="midnightblue" d="M103.5,-46.29C103.5,-36.86 103.5,-26.65 103.5,-19.66"/>
<polygon fill="midnightblue" stroke="midnightblue" points="100,-46.4 103.5,-56.4 107,-46.4 100,-46.4"/>
</g>
<!-- Node3 -->
<g id="node3" class="node">
<title>Node3</title>
<g id="a_node3"><a xlink:href="../../d7/dd5/classxii_asset_document.htm" target="_top" xlink:title=" ">
<polygon fill="white" stroke="black" points="50.5,-123.5 50.5,-142.5 156.5,-142.5 156.5,-123.5 50.5,-123.5"/>
<text text-anchor="middle" x="103.5" y="-130.5" font-family="Helvetica,sans-Serif" font-size="10.00">xiiAssetDocument</text>
</a>
</g>
</g>
<!-- Node3&#45;&gt;Node2 -->
<g id="edge2" class="edge">
<title>Node3&#45;&gt;Node2</title>
<path fill="none" stroke="midnightblue" d="M103.5,-113.23C103.5,-104.59 103.5,-94.5 103.5,-86.52"/>
<polygon fill="midnightblue" stroke="midnightblue" points="100,-113.48 103.5,-123.48 107,-113.48 100,-113.48"/>
</g>
<!-- Node4 -->
<g id="node4" class="node">
<title>Node4</title>
<g id="a_node4"><a xlink:href="../../d8/da9/classxii_document.htm" target="_top" xlink:title=" ">
<polygon fill="white" stroke="black" points="64,-179.5 64,-198.5 143,-198.5 143,-179.5 64,-179.5"/>
<text text-anchor="middle" x="103.5" y="-186.5" font-family="Helvetica,sans-Serif" font-size="10.00">xiiDocument</text>
</a>
</g>
</g>
<!-- Node4&#45;&gt;Node3 -->
<g id="edge3" class="edge">
<title>Node4&#45;&gt;Node3</title>
<path fill="none" stroke="midnightblue" d="M103.5,-168.8C103.5,-159.91 103.5,-149.78 103.5,-142.75"/>
<polygon fill="midnightblue" stroke="midnightblue" points="100,-169.08 103.5,-179.08 107,-169.08 100,-169.08"/>
</g>
<!-- Node5 -->
<g id="node5" class="node">
<title>Node5</title>
<g id="a_node5"><a xlink:href="../../dc/d71/classxii_reflected_class.htm" target="_top" xlink:title="All classes that should be dynamically reflectable, need to be derived from this base class.">
<polygon fill="white" stroke="black" points="53,-235.5 53,-254.5 154,-254.5 154,-235.5 53,-235.5"/>
<text text-anchor="middle" x="103.5" y="-242.5" font-family="Helvetica,sans-Serif" font-size="10.00">xiiReflectedClass</text>
</a>
</g>
</g>
<!-- Node5&#45;&gt;Node4 -->
<g id="edge4" class="edge">
<title>Node5&#45;&gt;Node4</title>
<path fill="none" stroke="midnightblue" d="M103.5,-224.8C103.5,-215.91 103.5,-205.78 103.5,-198.75"/>
<polygon fill="midnightblue" stroke="midnightblue" points="100,-225.08 103.5,-235.08 107,-225.08 100,-225.08"/>
</g>
<!-- Node6 -->
<g id="node6" class="node">
<title>Node6</title>
<g id="a_node6"><a xlink:href="../../d2/d38/classxii_no_base.htm" target="_top" xlink:title="Dummy type to pass to templates and macros that expect a base type for a class that has no base.">
<polygon fill="white" stroke="black" points="70.5,-291.5 70.5,-310.5 136.5,-310.5 136.5,-291.5 70.5,-291.5"/>
<text text-anchor="middle" x="103.5" y="-298.5" font-family="Helvetica,sans-Serif" font-size="10.00">xiiNoBase</text>
</a>
</g>
</g>
<!-- Node6&#45;&gt;Node5 -->
<g id="edge5" class="edge">
<title>Node6&#45;&gt;Node5</title>
<path fill="none" stroke="midnightblue" d="M103.5,-280.8C103.5,-271.91 103.5,-261.78 103.5,-254.75"/>
<polygon fill="midnightblue" stroke="midnightblue" points="100,-281.08 103.5,-291.08 107,-281.08 100,-281.08"/>
</g>
</g>
</svg>
