<?xml version="1.0" encoding="UTF-8" standalone="no"?>
<!DOCTYPE svg PUBLIC "-//W3C//DTD SVG 1.1//EN"
 "http://www.w3.org/Graphics/SVG/1.1/DTD/svg11.dtd">
<!-- Generated by graphviz version 2.43.0 (0)
 -->
<!-- Title: xiiDocument Pages: 1 -->
<svg width="1410pt" height="1000pt"
 viewBox="0.00 0.00 1410.00 999.50" xmlns="http://www.w3.org/2000/svg" xmlns:xlink="http://www.w3.org/1999/xlink">
<g id="graph0" class="graph" transform="scale(1 1) rotate(0) translate(4 995.5)">
<title>xiiDocument</title>
<polygon fill="white" stroke="transparent" points="-4,4 -4,-995.5 1406,-995.5 1406,4 -4,4"/>
<!-- Node1 -->
<g id="node1" class="node">
<title>Node1</title>
<g id="a_node1"><a xlink:title=" ">
<polygon fill="#bfbfbf" stroke="black" points="239,-438.5 239,-457.5 318,-457.5 318,-438.5 239,-438.5"/>
<text text-anchor="middle" x="278.5" y="-445.5" font-family="Helvetica,sans-Serif" font-size="10.00">xiiDocument</text>
</a>
</g>
</g>
<!-- Node4 -->
<g id="node4" class="node">
<title>Node4</title>
<g id="a_node4"><a xlink:href="../../d7/dd5/classxii_asset_document.htm" target="_top" xlink:title=" ">
<polygon fill="white" stroke="black" points="372,-476.5 372,-495.5 478,-495.5 478,-476.5 372,-476.5"/>
<text text-anchor="middle" x="425" y="-483.5" font-family="Helvetica,sans-Serif" font-size="10.00">xiiAssetDocument</text>
</a>
</g>
</g>
<!-- Node1&#45;&gt;Node4 -->
<g id="edge3" class="edge">
<title>Node1&#45;&gt;Node4</title>
<path fill="none" stroke="midnightblue" d="M325.83,-460.18C345.89,-465.46 369.03,-471.54 387.8,-476.48"/>
<polygon fill="midnightblue" stroke="midnightblue" points="326.52,-456.75 315.96,-457.59 324.74,-463.52 326.52,-456.75"/>
</g>
<!-- Node49 -->
<g id="node49" class="node">
<title>Node49</title>
<g id="a_node49"><a xlink:title=" ">
<polygon fill="white" stroke="#bfbfbf" points="354,-438.5 354,-457.5 496,-457.5 496,-438.5 354,-438.5"/>
<text text-anchor="middle" x="425" y="-445.5" font-family="Helvetica,sans-Serif" font-size="10.00">xiiAssetProfilesDocument</text>
</a>
</g>
</g>
<!-- Node1&#45;&gt;Node49 -->
<g id="edge48" class="edge">
<title>Node1&#45;&gt;Node49</title>
<path fill="none" stroke="midnightblue" d="M328.37,-448C336.6,-448 345.28,-448 353.93,-448"/>
<polygon fill="midnightblue" stroke="midnightblue" points="328.22,-444.5 318.22,-448 328.22,-451.5 328.22,-444.5"/>
</g>
<!-- Node50 -->
<g id="node50" class="node">
<title>Node50</title>
<g id="a_node50"><a xlink:title=" ">
<polygon fill="white" stroke="#bfbfbf" points="356.5,-400.5 356.5,-419.5 493.5,-419.5 493.5,-400.5 356.5,-400.5"/>
<text text-anchor="middle" x="425" y="-407.5" font-family="Helvetica,sans-Serif" font-size="10.00">xiiPreferencesDocument</text>
</a>
</g>
</g>
<!-- Node1&#45;&gt;Node50 -->
<g id="edge49" class="edge">
<title>Node1&#45;&gt;Node50</title>
<path fill="none" stroke="midnightblue" d="M325.83,-435.82C345.89,-430.54 369.03,-424.46 387.8,-419.52"/>
<polygon fill="midnightblue" stroke="midnightblue" points="324.74,-432.48 315.96,-438.41 326.52,-439.25 324.74,-432.48"/>
</g>
<!-- Node2 -->
<g id="node2" class="node">
<title>Node2</title>
<g id="a_node2"><a xlink:href="../../dc/d71/classxii_reflected_class.htm" target="_top" xlink:title="All classes that should be dynamically reflectable, need to be derived from this base class.">
<polygon fill="white" stroke="black" points="102,-438.5 102,-457.5 203,-457.5 203,-438.5 102,-438.5"/>
<text text-anchor="middle" x="152.5" y="-445.5" font-family="Helvetica,sans-Serif" font-size="10.00">xiiReflectedClass</text>
</a>
</g>
</g>
<!-- Node2&#45;&gt;Node1 -->
<g id="edge1" class="edge">
<title>Node2&#45;&gt;Node1</title>
<path fill="none" stroke="midnightblue" d="M213.33,-448C222.01,-448 230.73,-448 238.84,-448"/>
<polygon fill="midnightblue" stroke="midnightblue" points="213.22,-444.5 203.22,-448 213.22,-451.5 213.22,-444.5"/>
</g>
<!-- Node3 -->
<g id="node3" class="node">
<title>Node3</title>
<g id="a_node3"><a xlink:href="../../d2/d38/classxii_no_base.htm" target="_top" xlink:title="Dummy type to pass to templates and macros that expect a base type for a class that has no base.">
<polygon fill="white" stroke="black" points="0,-438.5 0,-457.5 66,-457.5 66,-438.5 0,-438.5"/>
<text text-anchor="middle" x="33" y="-445.5" font-family="Helvetica,sans-Serif" font-size="10.00">xiiNoBase</text>
</a>
</g>
</g>
<!-- Node3&#45;&gt;Node2 -->
<g id="edge2" class="edge">
<title>Node3&#45;&gt;Node2</title>
<path fill="none" stroke="midnightblue" d="M76.27,-448C84.54,-448 93.29,-448 101.78,-448"/>
<polygon fill="midnightblue" stroke="midnightblue" points="76.11,-444.5 66.11,-448 76.11,-451.5 76.11,-444.5"/>
</g>
<!-- Node5 -->
<g id="node5" class="node">
<title>Node5</title>
<g id="a_node5"><a xlink:href="../../d4/d60/classxii_simple_asset_document.htm" target="_top" xlink:title=" ">
<polygon fill="white" stroke="black" points="568,-961 568,-991 708,-991 708,-961 568,-961"/>
<text text-anchor="start" x="576" y="-979" font-family="Helvetica,sans-Serif" font-size="10.00">xiiSimpleAssetDocument</text>
<text text-anchor="middle" x="638" y="-968" font-family="Helvetica,sans-Serif" font-size="10.00">&lt; xiiCurveGroupData &gt;</text>
</a>
</g>
</g>
<!-- Node4&#45;&gt;Node5 -->
<g id="edge4" class="edge">
<title>Node4&#45;&gt;Node5</title>
<path fill="none" stroke="midnightblue" d="M427.76,-505.98C435.25,-586.64 467.17,-887.1 532,-952 541.71,-961.72 554.5,-967.84 567.81,-971.62"/>
<polygon fill="midnightblue" stroke="midnightblue" points="431.22,-505.37 426.83,-495.72 424.24,-506 431.22,-505.37"/>
</g>
<!-- Node7 -->
<g id="node7" class="node">
<title>Node7</title>
<g id="a_node7"><a xlink:href="../../d4/d60/classxii_simple_asset_document.htm" target="_top" xlink:title=" ">
<polygon fill="white" stroke="black" points="537.5,-912 537.5,-942 738.5,-942 738.5,-912 537.5,-912"/>
<text text-anchor="start" x="545.5" y="-930" font-family="Helvetica,sans-Serif" font-size="10.00">xiiSimpleAssetDocument</text>
<text text-anchor="middle" x="638" y="-919" font-family="Helvetica,sans-Serif" font-size="10.00">&lt; xiiAnimatedMeshAssetProperties &gt;</text>
</a>
</g>
</g>
<!-- Node4&#45;&gt;Node7 -->
<g id="edge6" class="edge">
<title>Node4&#45;&gt;Node7</title>
<path fill="none" stroke="midnightblue" d="M428.3,-505.78C437.43,-580.72 473.4,-845.8 532,-903 535.48,-906.4 539.33,-909.35 543.45,-911.92"/>
<polygon fill="midnightblue" stroke="midnightblue" points="431.77,-505.31 427.11,-495.8 424.82,-506.14 431.77,-505.31"/>
</g>
<!-- Node9 -->
<g id="node9" class="node">
<title>Node9</title>
<g id="a_node9"><a xlink:href="../../d4/d60/classxii_simple_asset_document.htm" target="_top" xlink:title=" ">
<polygon fill="white" stroke="black" points="546.5,-863 546.5,-893 729.5,-893 729.5,-863 546.5,-863"/>
<text text-anchor="start" x="554.5" y="-881" font-family="Helvetica,sans-Serif" font-size="10.00">xiiSimpleAssetDocument</text>
<text text-anchor="middle" x="638" y="-870" font-family="Helvetica,sans-Serif" font-size="10.00">&lt; xiiSurfaceResourceDescriptor &gt;</text>
</a>
</g>
</g>
<!-- Node4&#45;&gt;Node9 -->
<g id="edge8" class="edge">
<title>Node4&#45;&gt;Node9</title>
<path fill="none" stroke="midnightblue" d="M425.25,-506.02C424.09,-567.77 429.44,-757 532,-854 536.35,-858.11 541.25,-861.57 546.5,-864.48"/>
<polygon fill="midnightblue" stroke="midnightblue" points="428.75,-505.81 425.53,-495.72 421.76,-505.62 428.75,-505.81"/>
</g>
<!-- Node11 -->
<g id="node11" class="node">
<title>Node11</title>
<g id="a_node11"><a xlink:href="../../d4/d60/classxii_simple_asset_document.htm" target="_top" xlink:title=" ">
<polygon fill="white" stroke="black" points="563,-814 563,-844 713,-844 713,-814 563,-814"/>
<text text-anchor="start" x="571" y="-832" font-family="Helvetica,sans-Serif" font-size="10.00">xiiSimpleAssetDocument</text>
<text text-anchor="middle" x="638" y="-821" font-family="Helvetica,sans-Serif" font-size="10.00">&lt; xiiCollectionAssetData &gt;</text>
</a>
</g>
</g>
<!-- Node4&#45;&gt;Node11 -->
<g id="edge10" class="edge">
<title>Node4&#45;&gt;Node11</title>
<path fill="none" stroke="midnightblue" d="M426.27,-505.92C428.18,-562.08 441.66,-722.95 532,-805 540.72,-812.92 551.51,-818.4 562.82,-822.15"/>
<polygon fill="midnightblue" stroke="midnightblue" points="429.76,-505.5 426.02,-495.59 422.77,-505.67 429.76,-505.5"/>
</g>
<!-- Node13 -->
<g id="node13" class="node">
<title>Node13</title>
<g id="a_node13"><a xlink:href="../../d4/d60/classxii_simple_asset_document.htm" target="_top" xlink:title=" ">
<polygon fill="white" stroke="black" points="554,-765 554,-795 722,-795 722,-765 554,-765"/>
<text text-anchor="start" x="562" y="-783" font-family="Helvetica,sans-Serif" font-size="10.00">xiiSimpleAssetDocument</text>
<text text-anchor="middle" x="638" y="-772" font-family="Helvetica,sans-Serif" font-size="10.00">&lt; xiiMaterialAssetProperties &gt;</text>
</a>
</g>
</g>
<!-- Node4&#45;&gt;Node13 -->
<g id="edge12" class="edge">
<title>Node4&#45;&gt;Node13</title>
<path fill="none" stroke="midnightblue" d="M427.63,-505.84C432.85,-555.99 453.75,-688.64 532,-756 538.45,-761.55 545.92,-765.89 553.85,-769.26"/>
<polygon fill="midnightblue" stroke="midnightblue" points="431.09,-505.32 426.67,-495.69 424.12,-505.97 431.09,-505.32"/>
</g>
<!-- Node15 -->
<g id="node15" class="node">
<title>Node15</title>
<g id="a_node15"><a xlink:href="../../d4/d60/classxii_simple_asset_document.htm" target="_top" xlink:title=" ">
<polygon fill="white" stroke="black" points="565,-716 565,-746 711,-746 711,-716 565,-716"/>
<text text-anchor="start" x="573" y="-734" font-family="Helvetica,sans-Serif" font-size="10.00">xiiSimpleAssetDocument</text>
<text text-anchor="middle" x="638" y="-723" font-family="Helvetica,sans-Serif" font-size="10.00">&lt; xiiLUTAssetProperties &gt;</text>
</a>
</g>
</g>
<!-- Node4&#45;&gt;Node15 -->
<g id="edge14" class="edge">
<title>Node4&#45;&gt;Node15</title>
<path fill="none" stroke="midnightblue" d="M429.5,-505.72C438.32,-549.27 465.64,-653.97 532,-707 541.57,-714.65 553.11,-719.95 565,-723.61"/>
<polygon fill="midnightblue" stroke="midnightblue" points="432.92,-504.98 427.61,-495.81 426.05,-506.29 432.92,-504.98"/>
</g>
<!-- Node17 -->
<g id="node17" class="node">
<title>Node17</title>
<g id="a_node17"><a xlink:href="../../d4/d60/classxii_simple_asset_document.htm" target="_top" xlink:title=" ">
<polygon fill="white" stroke="black" points="568,-667 568,-697 708,-697 708,-667 568,-667"/>
<text text-anchor="start" x="576" y="-685" font-family="Helvetica,sans-Serif" font-size="10.00">xiiSimpleAssetDocument</text>
<text text-anchor="middle" x="638" y="-674" font-family="Helvetica,sans-Serif" font-size="10.00">&lt; xiiEditableSkeleton &gt;</text>
</a>
</g>
</g>
<!-- Node4&#45;&gt;Node17 -->
<g id="edge16" class="edge">
<title>Node4&#45;&gt;Node17</title>
<path fill="none" stroke="midnightblue" d="M432.27,-505.45C444.96,-541.54 477.22,-618.76 532,-658 542.57,-665.57 555.13,-670.8 567.84,-674.4"/>
<polygon fill="midnightblue" stroke="midnightblue" points="435.48,-504.01 428.96,-495.66 428.85,-506.25 435.48,-504.01"/>
</g>
<!-- Node19 -->
<g id="node19" class="node">
<title>Node19</title>
<g id="a_node19"><a xlink:href="../../d4/d60/classxii_simple_asset_document.htm" target="_top" xlink:title=" ">
<polygon fill="white" stroke="black" points="547,-618 547,-648 729,-648 729,-618 547,-618"/>
<text text-anchor="start" x="555" y="-636" font-family="Helvetica,sans-Serif" font-size="10.00">xiiSimpleAssetDocument</text>
<text text-anchor="middle" x="638" y="-625" font-family="Helvetica,sans-Serif" font-size="10.00">&lt; xiiImageDataAssetProperties &gt;</text>
</a>
</g>
</g>
<!-- Node4&#45;&gt;Node19 -->
<g id="edge18" class="edge">
<title>Node4&#45;&gt;Node19</title>
<path fill="none" stroke="midnightblue" d="M436.55,-504.44C453.17,-531.76 488.15,-582.59 532,-609 537.77,-612.47 543.99,-615.44 550.42,-617.99"/>
<polygon fill="midnightblue" stroke="midnightblue" points="439.56,-502.65 431.45,-495.84 433.53,-506.22 439.56,-502.65"/>
</g>
<!-- Node21 -->
<g id="node21" class="node">
<title>Node21</title>
<g id="a_node21"><a xlink:href="../../d4/d60/classxii_simple_asset_document.htm" target="_top" xlink:title=" ">
<polygon fill="white" stroke="black" points="556,-569 556,-599 720,-599 720,-569 556,-569"/>
<text text-anchor="start" x="564" y="-587" font-family="Helvetica,sans-Serif" font-size="10.00">xiiSimpleAssetDocument</text>
<text text-anchor="middle" x="638" y="-576" font-family="Helvetica,sans-Serif" font-size="10.00">&lt; xiiTextureAssetProperties &gt;</text>
</a>
</g>
</g>
<!-- Node4&#45;&gt;Node21 -->
<g id="edge20" class="edge">
<title>Node4&#45;&gt;Node21</title>
<path fill="none" stroke="midnightblue" d="M444.33,-502.14C464.47,-519.03 498.42,-545.12 532,-560 539.78,-563.45 548.11,-566.43 556.55,-569"/>
<polygon fill="midnightblue" stroke="midnightblue" points="446.46,-499.36 436.59,-495.52 441.92,-504.68 446.46,-499.36"/>
</g>
<!-- Node23 -->
<g id="node23" class="node">
<title>Node23</title>
<g id="a_node23"><a xlink:href="../../d4/d60/classxii_simple_asset_document.htm" target="_top" xlink:title=" ">
<polygon fill="white" stroke="black" points="561,-520 561,-550 715,-550 715,-520 561,-520"/>
<text text-anchor="start" x="569" y="-538" font-family="Helvetica,sans-Serif" font-size="10.00">xiiSimpleAssetDocument</text>
<text text-anchor="middle" x="638" y="-527" font-family="Helvetica,sans-Serif" font-size="10.00">&lt; xiiMeshAssetProperties &gt;</text>
</a>
</g>
</g>
<!-- Node4&#45;&gt;Node23 -->
<g id="edge22" class="edge">
<title>Node4&#45;&gt;Node23</title>
<path fill="none" stroke="midnightblue" d="M476.73,-497.78C505.36,-504.43 541.43,-512.81 572.1,-519.93"/>
<polygon fill="midnightblue" stroke="midnightblue" points="477.47,-494.36 466.93,-495.51 475.88,-501.18 477.47,-494.36"/>
</g>
<!-- Node25 -->
<g id="node25" class="node">
<title>Node25</title>
<g id="a_node25"><a xlink:href="../../d4/d60/classxii_simple_asset_document.htm" target="_top" xlink:title=" ">
<polygon fill="white" stroke="black" points="553.5,-471 553.5,-501 722.5,-501 722.5,-471 553.5,-471"/>
<text text-anchor="start" x="561.5" y="-489" font-family="Helvetica,sans-Serif" font-size="10.00">xiiSimpleAssetDocument</text>
<text text-anchor="middle" x="638" y="-478" font-family="Helvetica,sans-Serif" font-size="10.00">&lt; xiiColorGradientAssetData &gt;</text>
</a>
</g>
</g>
<!-- Node4&#45;&gt;Node25 -->
<g id="edge24" class="edge">
<title>Node4&#45;&gt;Node25</title>
<path fill="none" stroke="midnightblue" d="M488.26,-486C508.67,-486 531.7,-486 553.42,-486"/>
<polygon fill="midnightblue" stroke="midnightblue" points="488.16,-482.5 478.16,-486 488.16,-489.5 488.16,-482.5"/>
</g>
<!-- Node27 -->
<g id="node27" class="node">
<title>Node27</title>
<g id="a_node27"><a xlink:href="../../d4/d60/classxii_simple_asset_document.htm" target="_top" xlink:title=" ">
<polygon fill="white" stroke="black" points="554.5,-410.5 554.5,-451.5 721.5,-451.5 721.5,-410.5 554.5,-410.5"/>
<text text-anchor="start" x="562.5" y="-439.5" font-family="Helvetica,sans-Serif" font-size="10.00">xiiSimpleAssetDocument</text>
<text text-anchor="start" x="562.5" y="-428.5" font-family="Helvetica,sans-Serif" font-size="10.00">&lt; xiiBlackboardTemplateAsset</text>
<text text-anchor="middle" x="638" y="-417.5" font-family="Helvetica,sans-Serif" font-size="10.00">Object &gt;</text>
</a>
</g>
</g>
<!-- Node4&#45;&gt;Node27 -->
<g id="edge26" class="edge">
<title>Node4&#45;&gt;Node27</title>
<path fill="none" stroke="midnightblue" d="M472.74,-473.82C497.86,-467.27 529.5,-459.02 558.29,-451.52"/>
<polygon fill="midnightblue" stroke="midnightblue" points="471.55,-470.51 462.75,-476.42 473.31,-477.28 471.55,-470.51"/>
</g>
<!-- Node29 -->
<g id="node29" class="node">
<title>Node29</title>
<g id="a_node29"><a xlink:href="../../d4/d60/classxii_simple_asset_document.htm" target="_top" xlink:title=" ">
<polygon fill="white" stroke="black" points="539.5,-361 539.5,-391 736.5,-391 736.5,-361 539.5,-361"/>
<text text-anchor="start" x="547.5" y="-379" font-family="Helvetica,sans-Serif" font-size="10.00">xiiSimpleAssetDocument</text>
<text text-anchor="middle" x="638" y="-368" font-family="Helvetica,sans-Serif" font-size="10.00">&lt; xiiAnimationClipAssetProperties &gt;</text>
</a>
</g>
</g>
<!-- Node4&#45;&gt;Node29 -->
<g id="edge28" class="edge">
<title>Node4&#45;&gt;Node29</title>
<path fill="none" stroke="midnightblue" d="M487.14,-472.8C490.27,-471.1 493.25,-469.17 496,-467 522.23,-446.3 505.45,-421.29 532,-401 537.06,-397.13 542.63,-393.85 548.48,-391.07"/>
<polygon fill="midnightblue" stroke="midnightblue" points="485.59,-469.66 478,-477.05 488.54,-476.01 485.59,-469.66"/>
</g>
<!-- Node31 -->
<g id="node31" class="node">
<title>Node31</title>
<g id="a_node31"><a xlink:href="../../d4/d60/classxii_simple_asset_document.htm" target="_top" xlink:title=" ">
<polygon fill="white" stroke="black" points="544,-312 544,-342 732,-342 732,-312 544,-312"/>
<text text-anchor="start" x="552" y="-330" font-family="Helvetica,sans-Serif" font-size="10.00">xiiSimpleAssetDocument</text>
<text text-anchor="middle" x="638" y="-319" font-family="Helvetica,sans-Serif" font-size="10.00">&lt; xiiTextureCubeAssetProperties &gt;</text>
</a>
</g>
</g>
<!-- Node4&#45;&gt;Node31 -->
<g id="edge30" class="edge">
<title>Node4&#45;&gt;Node31</title>
<path fill="none" stroke="midnightblue" d="M487.07,-473.81C490.29,-471.85 493.3,-469.6 496,-467 534.85,-429.52 492.4,-387.69 532,-351 535.7,-347.57 539.79,-344.59 544.15,-342.02"/>
<polygon fill="midnightblue" stroke="midnightblue" points="485.49,-470.68 478.12,-478.29 488.63,-476.94 485.49,-470.68"/>
</g>
<!-- Node33 -->
<g id="node33" class="node">
<title>Node33</title>
<g id="a_node33"><a xlink:href="../../d4/d60/classxii_simple_asset_document.htm" target="_top" xlink:title=" ">
<polygon fill="white" stroke="black" points="532,-263 532,-293 744,-293 744,-263 532,-263"/>
<text text-anchor="start" x="540" y="-281" font-family="Helvetica,sans-Serif" font-size="10.00">xiiSimpleAssetDocument</text>
<text text-anchor="middle" x="638" y="-270" font-family="Helvetica,sans-Serif" font-size="10.00">&lt; xiiVisualScriptClassAssetProperties &gt;</text>
</a>
</g>
</g>
<!-- Node4&#45;&gt;Node33 -->
<g id="edge32" class="edge">
<title>Node4&#45;&gt;Node33</title>
<path fill="none" stroke="midnightblue" d="M487.16,-474.18C490.39,-472.14 493.37,-469.76 496,-467 547.72,-412.61 479.19,-355.34 532,-302 535.29,-298.68 538.94,-295.78 542.84,-293.24"/>
<polygon fill="midnightblue" stroke="midnightblue" points="485.44,-471.13 478.17,-478.84 488.66,-477.35 485.44,-471.13"/>
</g>
<!-- Node35 -->
<g id="node35" class="node">
<title>Node35</title>
<g id="a_node35"><a xlink:href="../../d4/d60/classxii_simple_asset_document.htm" target="_top" xlink:title=" ">
<polygon fill="white" stroke="black" points="560.5,-214 560.5,-244 715.5,-244 715.5,-214 560.5,-214"/>
<text text-anchor="start" x="568.5" y="-232" font-family="Helvetica,sans-Serif" font-size="10.00">xiiSimpleAssetDocument</text>
<text text-anchor="middle" x="638" y="-221" font-family="Helvetica,sans-Serif" font-size="10.00">&lt; xiiDecalAssetProperties &gt;</text>
</a>
</g>
</g>
<!-- Node4&#45;&gt;Node35 -->
<g id="edge34" class="edge">
<title>Node4&#45;&gt;Node35</title>
<path fill="none" stroke="midnightblue" d="M487.15,-474.43C490.4,-472.33 493.39,-469.88 496,-467 560.76,-395.53 465.81,-323.15 532,-253 539.76,-244.77 549.72,-239.09 560.41,-235.22"/>
<polygon fill="midnightblue" stroke="midnightblue" points="485.29,-471.46 478.05,-479.2 488.53,-477.66 485.29,-471.46"/>
</g>
<!-- Node37 -->
<g id="node37" class="node">
<title>Node37</title>
<g id="a_node37"><a xlink:href="../../d4/d60/classxii_simple_asset_document.htm" target="_top" xlink:title=" ">
<polygon fill="white" stroke="black" points="534.5,-165 534.5,-195 741.5,-195 741.5,-165 534.5,-165"/>
<text text-anchor="start" x="542.5" y="-183" font-family="Helvetica,sans-Serif" font-size="10.00">xiiSimpleAssetDocument</text>
<text text-anchor="middle" x="638" y="-172" font-family="Helvetica,sans-Serif" font-size="10.00">&lt; xiiAnimationGraphAssetProperties &gt;</text>
</a>
</g>
</g>
<!-- Node4&#45;&gt;Node37 -->
<g id="edge36" class="edge">
<title>Node4&#45;&gt;Node37</title>
<path fill="none" stroke="midnightblue" d="M487.26,-474.53C490.48,-472.4 493.44,-469.91 496,-467 573.87,-378.37 452.36,-291.04 532,-204 535.03,-200.69 538.41,-197.79 542.06,-195.25"/>
<polygon fill="midnightblue" stroke="midnightblue" points="485.39,-471.55 478.2,-479.33 488.67,-477.74 485.39,-471.55"/>
</g>
<!-- Node39 -->
<g id="node39" class="node">
<title>Node39</title>
<g id="a_node39"><a xlink:href="../../d1/dbf/classxii_game_object_document.htm" target="_top" xlink:title=" ">
<polygon fill="white" stroke="black" points="568,-126.5 568,-145.5 708,-145.5 708,-126.5 568,-126.5"/>
<text text-anchor="middle" x="638" y="-133.5" font-family="Helvetica,sans-Serif" font-size="10.00">xiiGameObjectDocument</text>
</a>
</g>
</g>
<!-- Node4&#45;&gt;Node39 -->
<g id="edge38" class="edge">
<title>Node4&#45;&gt;Node39</title>
<path fill="none" stroke="midnightblue" d="M487.33,-474.59C490.53,-472.45 493.47,-469.94 496,-467 587.02,-361.17 436.51,-256.82 532,-155 541.44,-144.93 554.28,-139.12 567.74,-135.93"/>
<polygon fill="midnightblue" stroke="midnightblue" points="485.47,-471.62 478.3,-479.42 488.77,-477.79 485.47,-471.62"/>
</g>
<!-- Node46 -->
<g id="node46" class="node">
<title>Node46</title>
<g id="a_node46"><a xlink:href="../../d8/d51/classxii_render_pipeline_asset_document.htm" target="_top" xlink:title=" ">
<polygon fill="white" stroke="black" points="548.5,-88.5 548.5,-107.5 727.5,-107.5 727.5,-88.5 548.5,-88.5"/>
<text text-anchor="middle" x="638" y="-95.5" font-family="Helvetica,sans-Serif" font-size="10.00">xiiRenderPipelineAssetDocument</text>
</a>
</g>
</g>
<!-- Node4&#45;&gt;Node46 -->
<g id="edge45" class="edge">
<title>Node4&#45;&gt;Node46</title>
<path fill="none" stroke="midnightblue" d="M486.92,-474.93C490.29,-472.71 493.37,-470.1 496,-467 546.62,-407.41 478.87,-174.36 532,-117 536.66,-111.97 542.16,-108 548.17,-104.88"/>
<polygon fill="midnightblue" stroke="midnightblue" points="485.23,-471.86 478.01,-479.62 488.49,-478.05 485.23,-471.86"/>
</g>
<!-- Node47 -->
<g id="node47" class="node">
<title>Node47</title>
<g id="a_node47"><a xlink:href="../../d4/d60/classxii_simple_asset_document.htm" target="_top" xlink:title=" ">
<polygon fill="white" stroke="black" points="558.5,-39 558.5,-69 717.5,-69 717.5,-39 558.5,-39"/>
<text text-anchor="start" x="566.5" y="-57" font-family="Helvetica,sans-Serif" font-size="10.00">xiiSimpleAssetDocument</text>
<text text-anchor="middle" x="638" y="-46" font-family="Helvetica,sans-Serif" font-size="10.00">&lt; PropertyType, BaseClass &gt;</text>
</a>
</g>
</g>
<!-- Node4&#45;&gt;Node47 -->
<g id="edge46" class="edge">
<title>Node4&#45;&gt;Node47</title>
<path fill="none" stroke="midnightblue" d="M486.95,-474.96C490.32,-472.74 493.39,-470.11 496,-467 551.73,-400.72 475.24,-144.4 532,-79 539.06,-70.86 548.25,-65.12 558.25,-61.11"/>
<polygon fill="midnightblue" stroke="midnightblue" points="485.26,-471.89 478.07,-479.66 488.54,-478.08 485.26,-471.89"/>
</g>
<!-- Node48 -->
<g id="node48" class="node">
<title>Node48</title>
<g id="a_node48"><a xlink:href="../../d4/dea/classxii_state_machine_asset_document.htm" target="_top" xlink:title=" ">
<polygon fill="white" stroke="black" points="551.5,-0.5 551.5,-19.5 724.5,-19.5 724.5,-0.5 551.5,-0.5"/>
<text text-anchor="middle" x="638" y="-7.5" font-family="Helvetica,sans-Serif" font-size="10.00">xiiStateMachineAssetDocument</text>
</a>
</g>
</g>
<!-- Node4&#45;&gt;Node48 -->
<g id="edge47" class="edge">
<title>Node4&#45;&gt;Node48</title>
<path fill="none" stroke="midnightblue" d="M486.99,-474.99C490.35,-472.76 493.4,-470.12 496,-467 558.46,-391.92 466.37,-101.32 532,-29 537.35,-23.1 543.87,-18.65 551.01,-15.32"/>
<polygon fill="midnightblue" stroke="midnightblue" points="485.3,-471.92 478.12,-479.71 488.59,-478.1 485.3,-471.92"/>
</g>
<!-- Node6 -->
<g id="node6" class="node">
<title>Node6</title>
<g id="a_node6"><a xlink:href="../../dd/df5/classxii_curve1_d_asset_document.htm" target="_top" xlink:title=" ">
<polygon fill="white" stroke="black" points="798.5,-966.5 798.5,-985.5 946.5,-985.5 946.5,-966.5 798.5,-966.5"/>
<text text-anchor="middle" x="872.5" y="-973.5" font-family="Helvetica,sans-Serif" font-size="10.00">xiiCurve1DAssetDocument</text>
</a>
</g>
</g>
<!-- Node5&#45;&gt;Node6 -->
<g id="edge5" class="edge">
<title>Node5&#45;&gt;Node6</title>
<path fill="none" stroke="midnightblue" d="M718.28,-976C744.16,-976 772.77,-976 798.19,-976"/>
<polygon fill="midnightblue" stroke="midnightblue" points="718.13,-972.5 708.13,-976 718.13,-979.5 718.13,-972.5"/>
</g>
<!-- Node8 -->
<g id="node8" class="node">
<title>Node8</title>
<g id="a_node8"><a xlink:href="../../d3/d32/classxii_animated_mesh_asset_document.htm" target="_top" xlink:title=" ">
<polygon fill="white" stroke="black" points="783,-917.5 783,-936.5 962,-936.5 962,-917.5 783,-917.5"/>
<text text-anchor="middle" x="872.5" y="-924.5" font-family="Helvetica,sans-Serif" font-size="10.00">xiiAnimatedMeshAssetDocument</text>
</a>
</g>
</g>
<!-- Node7&#45;&gt;Node8 -->
<g id="edge7" class="edge">
<title>Node7&#45;&gt;Node8</title>
<path fill="none" stroke="midnightblue" d="M748.63,-927C760.06,-927 771.58,-927 782.74,-927"/>
<polygon fill="midnightblue" stroke="midnightblue" points="748.61,-923.5 738.61,-927 748.61,-930.5 748.61,-923.5"/>
</g>
<!-- Node10 -->
<g id="node10" class="node">
<title>Node10</title>
<g id="a_node10"><a xlink:href="../../de/db1/classxii_surface_asset_document.htm" target="_top" xlink:title=" ">
<polygon fill="white" stroke="black" points="801,-868.5 801,-887.5 944,-887.5 944,-868.5 801,-868.5"/>
<text text-anchor="middle" x="872.5" y="-875.5" font-family="Helvetica,sans-Serif" font-size="10.00">xiiSurfaceAssetDocument</text>
</a>
</g>
</g>
<!-- Node9&#45;&gt;Node10 -->
<g id="edge9" class="edge">
<title>Node9&#45;&gt;Node10</title>
<path fill="none" stroke="midnightblue" d="M739.64,-878C760.31,-878 781.65,-878 800.99,-878"/>
<polygon fill="midnightblue" stroke="midnightblue" points="739.56,-874.5 729.56,-878 739.56,-881.5 739.56,-874.5"/>
</g>
<!-- Node12 -->
<g id="node12" class="node">
<title>Node12</title>
<g id="a_node12"><a xlink:href="../../d0/d63/classxii_collection_asset_document.htm" target="_top" xlink:title=" ">
<polygon fill="white" stroke="black" points="795,-819.5 795,-838.5 950,-838.5 950,-819.5 795,-819.5"/>
<text text-anchor="middle" x="872.5" y="-826.5" font-family="Helvetica,sans-Serif" font-size="10.00">xiiCollectionAssetDocument</text>
</a>
</g>
</g>
<!-- Node11&#45;&gt;Node12 -->
<g id="edge11" class="edge">
<title>Node11&#45;&gt;Node12</title>
<path fill="none" stroke="midnightblue" d="M723.43,-829C746.76,-829 771.94,-829 794.8,-829"/>
<polygon fill="midnightblue" stroke="midnightblue" points="723.2,-825.5 713.2,-829 723.2,-832.5 723.2,-825.5"/>
</g>
<!-- Node14 -->
<g id="node14" class="node">
<title>Node14</title>
<g id="a_node14"><a xlink:href="../../d6/d64/classxii_material_asset_document.htm" target="_top" xlink:title=" ">
<polygon fill="white" stroke="black" points="799.5,-770.5 799.5,-789.5 945.5,-789.5 945.5,-770.5 799.5,-770.5"/>
<text text-anchor="middle" x="872.5" y="-777.5" font-family="Helvetica,sans-Serif" font-size="10.00">xiiMaterialAssetDocument</text>
</a>
</g>
</g>
<!-- Node13&#45;&gt;Node14 -->
<g id="edge13" class="edge">
<title>Node13&#45;&gt;Node14</title>
<path fill="none" stroke="midnightblue" d="M732.41,-780C754.65,-780 778.06,-780 799.19,-780"/>
<polygon fill="midnightblue" stroke="midnightblue" points="732.28,-776.5 722.28,-780 732.28,-783.5 732.28,-776.5"/>
</g>
<!-- Node16 -->
<g id="node16" class="node">
<title>Node16</title>
<g id="a_node16"><a xlink:href="../../d2/da0/classxii_l_u_t_asset_document.htm" target="_top" xlink:title=" ">
<polygon fill="white" stroke="black" points="810.5,-721.5 810.5,-740.5 934.5,-740.5 934.5,-721.5 810.5,-721.5"/>
<text text-anchor="middle" x="872.5" y="-728.5" font-family="Helvetica,sans-Serif" font-size="10.00">xiiLUTAssetDocument</text>
</a>
</g>
</g>
<!-- Node15&#45;&gt;Node16 -->
<g id="edge15" class="edge">
<title>Node15&#45;&gt;Node16</title>
<path fill="none" stroke="midnightblue" d="M721.49,-731C750.72,-731 783.07,-731 810.22,-731"/>
<polygon fill="midnightblue" stroke="midnightblue" points="721.29,-727.5 711.29,-731 721.29,-734.5 721.29,-727.5"/>
</g>
<!-- Node18 -->
<g id="node18" class="node">
<title>Node18</title>
<g id="a_node18"><a xlink:href="../../d0/daa/classxii_skeleton_asset_document.htm" target="_top" xlink:title=" ">
<polygon fill="white" stroke="black" points="798.5,-672.5 798.5,-691.5 946.5,-691.5 946.5,-672.5 798.5,-672.5"/>
<text text-anchor="middle" x="872.5" y="-679.5" font-family="Helvetica,sans-Serif" font-size="10.00">xiiSkeletonAssetDocument</text>
</a>
</g>
</g>
<!-- Node17&#45;&gt;Node18 -->
<g id="edge17" class="edge">
<title>Node17&#45;&gt;Node18</title>
<path fill="none" stroke="midnightblue" d="M718.28,-682C744.16,-682 772.77,-682 798.19,-682"/>
<polygon fill="midnightblue" stroke="midnightblue" points="718.13,-678.5 708.13,-682 718.13,-685.5 718.13,-678.5"/>
</g>
<!-- Node20 -->
<g id="node20" class="node">
<title>Node20</title>
<g id="a_node20"><a xlink:href="../../d5/df1/classxii_image_data_asset_document.htm" target="_top" xlink:title=" ">
<polygon fill="white" stroke="black" points="792.5,-623.5 792.5,-642.5 952.5,-642.5 952.5,-623.5 792.5,-623.5"/>
<text text-anchor="middle" x="872.5" y="-630.5" font-family="Helvetica,sans-Serif" font-size="10.00">xiiImageDataAssetDocument</text>
</a>
</g>
</g>
<!-- Node19&#45;&gt;Node20 -->
<g id="edge19" class="edge">
<title>Node19&#45;&gt;Node20</title>
<path fill="none" stroke="midnightblue" d="M739.55,-633C757.2,-633 775.34,-633 792.3,-633"/>
<polygon fill="midnightblue" stroke="midnightblue" points="739.22,-629.5 729.22,-633 739.22,-636.5 739.22,-629.5"/>
</g>
<!-- Node22 -->
<g id="node22" class="node">
<title>Node22</title>
<g id="a_node22"><a xlink:href="../../d7/d60/classxii_texture_asset_document.htm" target="_top" xlink:title=" ">
<polygon fill="white" stroke="black" points="801.5,-574.5 801.5,-593.5 943.5,-593.5 943.5,-574.5 801.5,-574.5"/>
<text text-anchor="middle" x="872.5" y="-581.5" font-family="Helvetica,sans-Serif" font-size="10.00">xiiTextureAssetDocument</text>
</a>
</g>
</g>
<!-- Node21&#45;&gt;Node22 -->
<g id="edge21" class="edge">
<title>Node21&#45;&gt;Node22</title>
<path fill="none" stroke="midnightblue" d="M730.35,-584C753.99,-584 779.08,-584 801.44,-584"/>
<polygon fill="midnightblue" stroke="midnightblue" points="730.32,-580.5 720.32,-584 730.32,-587.5 730.32,-580.5"/>
</g>
<!-- Node24 -->
<g id="node24" class="node">
<title>Node24</title>
<g id="a_node24"><a xlink:href="../../d3/d95/classxii_mesh_asset_document.htm" target="_top" xlink:title=" ">
<polygon fill="white" stroke="black" points="806.5,-525.5 806.5,-544.5 938.5,-544.5 938.5,-525.5 806.5,-525.5"/>
<text text-anchor="middle" x="872.5" y="-532.5" font-family="Helvetica,sans-Serif" font-size="10.00">xiiMeshAssetDocument</text>
</a>
</g>
</g>
<!-- Node23&#45;&gt;Node24 -->
<g id="edge23" class="edge">
<title>Node23&#45;&gt;Node24</title>
<path fill="none" stroke="midnightblue" d="M725.26,-535C752.01,-535 781.04,-535 806.13,-535"/>
<polygon fill="midnightblue" stroke="midnightblue" points="725.13,-531.5 715.13,-535 725.13,-538.5 725.13,-531.5"/>
</g>
<!-- Node26 -->
<g id="node26" class="node">
<title>Node26</title>
<g id="a_node26"><a xlink:href="../../dd/d5d/classxii_color_gradient_asset_document.htm" target="_top" xlink:title=" ">
<polygon fill="white" stroke="black" points="786,-476.5 786,-495.5 959,-495.5 959,-476.5 786,-476.5"/>
<text text-anchor="middle" x="872.5" y="-483.5" font-family="Helvetica,sans-Serif" font-size="10.00">xiiColorGradientAssetDocument</text>
</a>
</g>
</g>
<!-- Node25&#45;&gt;Node26 -->
<g id="edge25" class="edge">
<title>Node25&#45;&gt;Node26</title>
<path fill="none" stroke="midnightblue" d="M732.84,-486C750.38,-486 768.62,-486 785.89,-486"/>
<polygon fill="midnightblue" stroke="midnightblue" points="732.61,-482.5 722.61,-486 732.61,-489.5 732.61,-482.5"/>
</g>
<!-- Node28 -->
<g id="node28" class="node">
<title>Node28</title>
<g id="a_node28"><a xlink:href="../../d1/d65/classxii_blackboard_template_asset_document.htm" target="_top" xlink:title=" ">
<polygon fill="white" stroke="black" points="795,-416 795,-446 950,-446 950,-416 795,-416"/>
<text text-anchor="start" x="803" y="-434" font-family="Helvetica,sans-Serif" font-size="10.00">xiiBlackboardTemplateAsset</text>
<text text-anchor="middle" x="872.5" y="-423" font-family="Helvetica,sans-Serif" font-size="10.00">Document</text>
</a>
</g>
</g>
<!-- Node27&#45;&gt;Node28 -->
<g id="edge27" class="edge">
<title>Node27&#45;&gt;Node28</title>
<path fill="none" stroke="midnightblue" d="M731.81,-431C752.76,-431 774.77,-431 794.97,-431"/>
<polygon fill="midnightblue" stroke="midnightblue" points="731.63,-427.5 721.63,-431 731.63,-434.5 731.63,-427.5"/>
</g>
<!-- Node30 -->
<g id="node30" class="node">
<title>Node30</title>
<g id="a_node30"><a xlink:href="../../d7/d55/classxii_animation_clip_asset_document.htm" target="_top" xlink:title=" ">
<polygon fill="white" stroke="black" points="785,-366.5 785,-385.5 960,-385.5 960,-366.5 785,-366.5"/>
<text text-anchor="middle" x="872.5" y="-373.5" font-family="Helvetica,sans-Serif" font-size="10.00">xiiAnimationClipAssetDocument</text>
</a>
</g>
</g>
<!-- Node29&#45;&gt;Node30 -->
<g id="edge29" class="edge">
<title>Node29&#45;&gt;Node30</title>
<path fill="none" stroke="midnightblue" d="M746.79,-376C759.55,-376 772.46,-376 784.88,-376"/>
<polygon fill="midnightblue" stroke="midnightblue" points="746.59,-372.5 736.59,-376 746.59,-379.5 746.59,-372.5"/>
</g>
<!-- Node32 -->
<g id="node32" class="node">
<title>Node32</title>
<g id="a_node32"><a xlink:href="../../d9/d25/classxii_texture_cube_asset_document.htm" target="_top" xlink:title=" ">
<polygon fill="white" stroke="black" points="789,-317.5 789,-336.5 956,-336.5 956,-317.5 789,-317.5"/>
<text text-anchor="middle" x="872.5" y="-324.5" font-family="Helvetica,sans-Serif" font-size="10.00">xiiTextureCubeAssetDocument</text>
</a>
</g>
</g>
<!-- Node31&#45;&gt;Node32 -->
<g id="edge31" class="edge">
<title>Node31&#45;&gt;Node32</title>
<path fill="none" stroke="midnightblue" d="M742.37,-327C757.9,-327 773.74,-327 788.76,-327"/>
<polygon fill="midnightblue" stroke="midnightblue" points="742.23,-323.5 732.23,-327 742.23,-330.5 742.23,-323.5"/>
</g>
<!-- Node34 -->
<g id="node34" class="node">
<title>Node34</title>
<g id="a_node34"><a xlink:href="../../d5/d9e/classxii_visual_script_class_asset_document.htm" target="_top" xlink:title=" ">
<polygon fill="white" stroke="black" points="802.5,-263 802.5,-293 942.5,-293 942.5,-263 802.5,-263"/>
<text text-anchor="start" x="810.5" y="-281" font-family="Helvetica,sans-Serif" font-size="10.00">xiiVisualScriptClassAsset</text>
<text text-anchor="middle" x="872.5" y="-270" font-family="Helvetica,sans-Serif" font-size="10.00">Document</text>
</a>
</g>
</g>
<!-- Node33&#45;&gt;Node34 -->
<g id="edge33" class="edge">
<title>Node33&#45;&gt;Node34</title>
<path fill="none" stroke="midnightblue" d="M754.23,-278C770.64,-278 787.08,-278 802.24,-278"/>
<polygon fill="midnightblue" stroke="midnightblue" points="754.03,-274.5 744.03,-278 754.03,-281.5 754.03,-274.5"/>
</g>
<!-- Node36 -->
<g id="node36" class="node">
<title>Node36</title>
<g id="a_node36"><a xlink:href="../../d6/d2b/classxii_decal_asset_document.htm" target="_top" xlink:title=" ">
<polygon fill="white" stroke="black" points="805.5,-219.5 805.5,-238.5 939.5,-238.5 939.5,-219.5 805.5,-219.5"/>
<text text-anchor="middle" x="872.5" y="-226.5" font-family="Helvetica,sans-Serif" font-size="10.00">xiiDecalAssetDocument</text>
</a>
</g>
</g>
<!-- Node35&#45;&gt;Node36 -->
<g id="edge35" class="edge">
<title>Node35&#45;&gt;Node36</title>
<path fill="none" stroke="midnightblue" d="M726.1,-229C752.33,-229 780.69,-229 805.33,-229"/>
<polygon fill="midnightblue" stroke="midnightblue" points="725.77,-225.5 715.77,-229 725.77,-232.5 725.77,-225.5"/>
</g>
<!-- Node38 -->
<g id="node38" class="node">
<title>Node38</title>
<g id="a_node38"><a xlink:href="../../de/d80/classxii_animation_graph_asset_document.htm" target="_top" xlink:title=" ">
<polygon fill="white" stroke="black" points="780,-170.5 780,-189.5 965,-189.5 965,-170.5 780,-170.5"/>
<text text-anchor="middle" x="872.5" y="-177.5" font-family="Helvetica,sans-Serif" font-size="10.00">xiiAnimationGraphAssetDocument</text>
</a>
</g>
</g>
<!-- Node37&#45;&gt;Node38 -->
<g id="edge37" class="edge">
<title>Node37&#45;&gt;Node38</title>
<path fill="none" stroke="midnightblue" d="M751.77,-180C761.12,-180 770.49,-180 779.65,-180"/>
<polygon fill="midnightblue" stroke="midnightblue" points="751.65,-176.5 741.65,-180 751.65,-183.5 751.65,-176.5"/>
</g>
<!-- Node40 -->
<g id="node40" class="node">
<title>Node40</title>
<g id="a_node40"><a xlink:href="../../d5/dcd/classxii_game_object_context_document.htm" target="_top" xlink:title=" ">
<polygon fill="white" stroke="black" points="783.5,-129.5 783.5,-148.5 961.5,-148.5 961.5,-129.5 783.5,-129.5"/>
<text text-anchor="middle" x="872.5" y="-136.5" font-family="Helvetica,sans-Serif" font-size="10.00">xiiGameObjectContextDocument</text>
</a>
</g>
</g>
<!-- Node39&#45;&gt;Node40 -->
<g id="edge39" class="edge">
<title>Node39&#45;&gt;Node40</title>
<path fill="none" stroke="midnightblue" d="M718.24,-137.02C739.15,-137.29 761.85,-137.59 783.21,-137.86"/>
<polygon fill="midnightblue" stroke="midnightblue" points="718.17,-133.52 708.13,-136.89 718.08,-140.52 718.17,-133.52"/>
</g>
<!-- Node43 -->
<g id="node43" class="node">
<title>Node43</title>
<g id="a_node43"><a xlink:href="../../da/d0a/classxii_scene_document.htm" target="_top" xlink:title=" ">
<polygon fill="white" stroke="black" points="818.5,-86.5 818.5,-105.5 926.5,-105.5 926.5,-86.5 818.5,-86.5"/>
<text text-anchor="middle" x="872.5" y="-93.5" font-family="Helvetica,sans-Serif" font-size="10.00">xiiSceneDocument</text>
</a>
</g>
</g>
<!-- Node39&#45;&gt;Node43 -->
<g id="edge42" class="edge">
<title>Node39&#45;&gt;Node43</title>
<path fill="none" stroke="midnightblue" d="M704.3,-124.77C740.24,-118.58 784.27,-111.01 818.13,-105.18"/>
<polygon fill="midnightblue" stroke="midnightblue" points="703.66,-121.32 694.39,-126.47 704.84,-128.22 703.66,-121.32"/>
</g>
<!-- Node41 -->
<g id="node41" class="node">
<title>Node41</title>
<g id="a_node41"><a xlink:href="../../d4/d60/classxii_simple_asset_document.htm" target="_top" xlink:title=" ">
<polygon fill="white" stroke="black" points="1001,-124.5 1001,-165.5 1193,-165.5 1193,-124.5 1001,-124.5"/>
<text text-anchor="start" x="1009" y="-153.5" font-family="Helvetica,sans-Serif" font-size="10.00">xiiSimpleAssetDocument</text>
<text text-anchor="start" x="1009" y="-142.5" font-family="Helvetica,sans-Serif" font-size="10.00">&lt; xiiPropertyAnimationTrackGroup,</text>
<text text-anchor="middle" x="1097" y="-131.5" font-family="Helvetica,sans-Serif" font-size="10.00"> xiiGameObjectContextDocument &gt;</text>
</a>
</g>
</g>
<!-- Node40&#45;&gt;Node41 -->
<g id="edge40" class="edge">
<title>Node40&#45;&gt;Node41</title>
<path fill="none" stroke="midnightblue" d="M971.78,-141.65C981.45,-141.91 991.26,-142.18 1000.9,-142.44"/>
<polygon fill="midnightblue" stroke="midnightblue" points="971.85,-138.15 961.76,-141.38 971.66,-145.15 971.85,-138.15"/>
</g>
<!-- Node42 -->
<g id="node42" class="node">
<title>Node42</title>
<g id="a_node42"><a xlink:href="../../d8/db8/classxii_property_anim_asset_document.htm" target="_top" xlink:title=" ">
<polygon fill="white" stroke="black" points="1229,-135.5 1229,-154.5 1402,-154.5 1402,-135.5 1229,-135.5"/>
<text text-anchor="middle" x="1315.5" y="-142.5" font-family="Helvetica,sans-Serif" font-size="10.00">xiiPropertyAnimAssetDocument</text>
</a>
</g>
</g>
<!-- Node41&#45;&gt;Node42 -->
<g id="edge41" class="edge">
<title>Node41&#45;&gt;Node42</title>
<path fill="none" stroke="midnightblue" d="M1203.55,-145C1211.98,-145 1220.45,-145 1228.72,-145"/>
<polygon fill="midnightblue" stroke="midnightblue" points="1203.28,-141.5 1193.28,-145 1203.28,-148.5 1203.28,-141.5"/>
</g>
<!-- Node44 -->
<g id="node44" class="node">
<title>Node44</title>
<g id="a_node44"><a xlink:href="../../d3/daf/classxii_layer_document.htm" target="_top" xlink:title=" ">
<polygon fill="white" stroke="black" points="1044,-86.5 1044,-105.5 1150,-105.5 1150,-86.5 1044,-86.5"/>
<text text-anchor="middle" x="1097" y="-93.5" font-family="Helvetica,sans-Serif" font-size="10.00">xiiLayerDocument</text>
</a>
</g>
</g>
<!-- Node43&#45;&gt;Node44 -->
<g id="edge43" class="edge">
<title>Node43&#45;&gt;Node44</title>
<path fill="none" stroke="midnightblue" d="M936.76,-96C970.6,-96 1011.78,-96 1043.78,-96"/>
<polygon fill="midnightblue" stroke="midnightblue" points="936.51,-92.5 926.51,-96 936.51,-99.5 936.51,-92.5"/>
</g>
<!-- Node45 -->
<g id="node45" class="node">
<title>Node45</title>
<g id="a_node45"><a xlink:href="../../df/dac/classxii_scene2_document.htm" target="_top" xlink:title=" ">
<polygon fill="white" stroke="black" points="1040,-48.5 1040,-67.5 1154,-67.5 1154,-48.5 1040,-48.5"/>
<text text-anchor="middle" x="1097" y="-55.5" font-family="Helvetica,sans-Serif" font-size="10.00">xiiScene2Document</text>
</a>
</g>
</g>
<!-- Node43&#45;&gt;Node45 -->
<g id="edge44" class="edge">
<title>Node43&#45;&gt;Node45</title>
<path fill="none" stroke="midnightblue" d="M936.42,-85.25C969.11,-79.67 1008.71,-72.91 1040.29,-67.51"/>
<polygon fill="midnightblue" stroke="midnightblue" points="935.78,-81.81 926.51,-86.95 936.96,-88.71 935.78,-81.81"/>
</g>
</g>
</svg>
