<?xml version="1.0" encoding="UTF-8" standalone="no"?>
<!DOCTYPE svg PUBLIC "-//W3C//DTD SVG 1.1//EN"
 "http://www.w3.org/Graphics/SVG/1.1/DTD/svg11.dtd">
<!-- Generated by graphviz version 2.43.0 (0)
 -->
<!-- Title: xiiApplicationPanelsMenuAction Pages: 1 -->
<svg width="150pt" height="375pt"
 viewBox="0.00 0.00 150.00 375.00" xmlns="http://www.w3.org/2000/svg" xmlns:xlink="http://www.w3.org/1999/xlink">
<g id="graph0" class="graph" transform="scale(1 1) rotate(0) translate(4 371)">
<title>xiiApplicationPanelsMenuAction</title>
<polygon fill="white" stroke="transparent" points="-4,4 -4,-371 146,-371 146,4 -4,4"/>
<!-- Node1 -->
<g id="node1" class="node">
<title>Node1</title>
<g id="a_node1"><a xlink:title=" ">
<polygon fill="#bfbfbf" stroke="black" points="0,-0.5 0,-30.5 142,-30.5 142,-0.5 0,-0.5"/>
<text text-anchor="start" x="8" y="-18.5" font-family="Helvetica,sans-Serif" font-size="10.00">xiiApplicationPanelsMenu</text>
<text text-anchor="middle" x="71" y="-7.5" font-family="Helvetica,sans-Serif" font-size="10.00">Action</text>
</a>
</g>
</g>
<!-- Node2 -->
<g id="node2" class="node">
<title>Node2</title>
<g id="a_node2"><a xlink:href="../../de/da6/classxii_dynamic_menu_action.htm" target="_top" xlink:title=" ">
<polygon fill="white" stroke="black" points="6,-67.5 6,-86.5 136,-86.5 136,-67.5 6,-67.5"/>
<text text-anchor="middle" x="71" y="-74.5" font-family="Helvetica,sans-Serif" font-size="10.00">xiiDynamicMenuAction</text>
</a>
</g>
</g>
<!-- Node2&#45;&gt;Node1 -->
<g id="edge1" class="edge">
<title>Node2&#45;&gt;Node1</title>
<path fill="none" stroke="midnightblue" d="M71,-57.23C71,-48.59 71,-38.5 71,-30.52"/>
<polygon fill="midnightblue" stroke="midnightblue" points="67.5,-57.48 71,-67.48 74.5,-57.48 67.5,-57.48"/>
</g>
<!-- Node3 -->
<g id="node3" class="node">
<title>Node3</title>
<g id="a_node3"><a xlink:href="../../d9/d0c/classxii_menu_action.htm" target="_top" xlink:title=" ">
<polygon fill="white" stroke="black" points="28,-123.5 28,-142.5 114,-142.5 114,-123.5 28,-123.5"/>
<text text-anchor="middle" x="71" y="-130.5" font-family="Helvetica,sans-Serif" font-size="10.00">xiiMenuAction</text>
</a>
</g>
</g>
<!-- Node3&#45;&gt;Node2 -->
<g id="edge2" class="edge">
<title>Node3&#45;&gt;Node2</title>
<path fill="none" stroke="midnightblue" d="M71,-112.8C71,-103.91 71,-93.78 71,-86.75"/>
<polygon fill="midnightblue" stroke="midnightblue" points="67.5,-113.08 71,-123.08 74.5,-113.08 67.5,-113.08"/>
</g>
<!-- Node4 -->
<g id="node4" class="node">
<title>Node4</title>
<g id="a_node4"><a xlink:href="../../d3/d7a/classxii_named_action.htm" target="_top" xlink:title=" ">
<polygon fill="white" stroke="black" points="23.5,-179.5 23.5,-198.5 118.5,-198.5 118.5,-179.5 23.5,-179.5"/>
<text text-anchor="middle" x="71" y="-186.5" font-family="Helvetica,sans-Serif" font-size="10.00">xiiNamedAction</text>
</a>
</g>
</g>
<!-- Node4&#45;&gt;Node3 -->
<g id="edge3" class="edge">
<title>Node4&#45;&gt;Node3</title>
<path fill="none" stroke="midnightblue" d="M71,-168.8C71,-159.91 71,-149.78 71,-142.75"/>
<polygon fill="midnightblue" stroke="midnightblue" points="67.5,-169.08 71,-179.08 74.5,-169.08 67.5,-169.08"/>
</g>
<!-- Node5 -->
<g id="node5" class="node">
<title>Node5</title>
<g id="a_node5"><a xlink:href="../../d8/d30/classxii_action.htm" target="_top" xlink:title=" ">
<polygon fill="white" stroke="black" points="41.5,-235.5 41.5,-254.5 100.5,-254.5 100.5,-235.5 41.5,-235.5"/>
<text text-anchor="middle" x="71" y="-242.5" font-family="Helvetica,sans-Serif" font-size="10.00">xiiAction</text>
</a>
</g>
</g>
<!-- Node5&#45;&gt;Node4 -->
<g id="edge4" class="edge">
<title>Node5&#45;&gt;Node4</title>
<path fill="none" stroke="midnightblue" d="M71,-224.8C71,-215.91 71,-205.78 71,-198.75"/>
<polygon fill="midnightblue" stroke="midnightblue" points="67.5,-225.08 71,-235.08 74.5,-225.08 67.5,-225.08"/>
</g>
<!-- Node6 -->
<g id="node6" class="node">
<title>Node6</title>
<g id="a_node6"><a xlink:href="../../dc/d71/classxii_reflected_class.htm" target="_top" xlink:title="All classes that should be dynamically reflectable, need to be derived from this base class.">
<polygon fill="white" stroke="black" points="20.5,-291.5 20.5,-310.5 121.5,-310.5 121.5,-291.5 20.5,-291.5"/>
<text text-anchor="middle" x="71" y="-298.5" font-family="Helvetica,sans-Serif" font-size="10.00">xiiReflectedClass</text>
</a>
</g>
</g>
<!-- Node6&#45;&gt;Node5 -->
<g id="edge5" class="edge">
<title>Node6&#45;&gt;Node5</title>
<path fill="none" stroke="midnightblue" d="M71,-280.8C71,-271.91 71,-261.78 71,-254.75"/>
<polygon fill="midnightblue" stroke="midnightblue" points="67.5,-281.08 71,-291.08 74.5,-281.08 67.5,-281.08"/>
</g>
<!-- Node7 -->
<g id="node7" class="node">
<title>Node7</title>
<g id="a_node7"><a xlink:href="../../d2/d38/classxii_no_base.htm" target="_top" xlink:title="Dummy type to pass to templates and macros that expect a base type for a class that has no base.">
<polygon fill="white" stroke="black" points="38,-347.5 38,-366.5 104,-366.5 104,-347.5 38,-347.5"/>
<text text-anchor="middle" x="71" y="-354.5" font-family="Helvetica,sans-Serif" font-size="10.00">xiiNoBase</text>
</a>
</g>
</g>
<!-- Node7&#45;&gt;Node6 -->
<g id="edge6" class="edge">
<title>Node7&#45;&gt;Node6</title>
<path fill="none" stroke="midnightblue" d="M71,-336.8C71,-327.91 71,-317.78 71,-310.75"/>
<polygon fill="midnightblue" stroke="midnightblue" points="67.5,-337.08 71,-347.08 74.5,-337.08 67.5,-337.08"/>
</g>
</g>
</svg>
