<?xml version="1.0" encoding="UTF-8" standalone="no"?>
<!DOCTYPE svg PUBLIC "-//W3C//DTD SVG 1.1//EN"
 "http://www.w3.org/Graphics/SVG/1.1/DTD/svg11.dtd">
<!-- Generated by graphviz version 2.43.0 (0)
 -->
<!-- Title: xiiGALInputLayout Pages: 1 -->
<svg width="837pt" height="138pt"
 viewBox="0.00 0.00 837.00 138.00" xmlns="http://www.w3.org/2000/svg" xmlns:xlink="http://www.w3.org/1999/xlink">
<g id="graph0" class="graph" transform="scale(1 1) rotate(0) translate(4 134)">
<title>xiiGALInputLayout</title>
<!-- Node1 -->
<g id="Node000001" class="node">
<title>Node1</title>
<g id="a_Node000001"><a xlink:title="Interface that defines methods to manipulate an input layout object.">
<polygon fill="#999999" stroke="#666666" points="654,-74 548,-74 548,-55 654,-55 654,-74"/>
<text text-anchor="middle" x="601" y="-62" font-family="Helvetica,sans-Serif" font-size="10.00">xiiGALInputLayout</text>
</a>
</g>
</g>
<!-- Node8 -->
<g id="Node000008" class="node">
<title>Node8</title>
<g id="a_Node000008"><a xlink:href="../../d8/d88/classxii_g_a_l_input_layout_d3_d11.htm" target="_top" xlink:title=" ">
<polygon fill="white" stroke="#bfbfbf" points="829,-130 690,-130 690,-111 829,-111 829,-130"/>
<text text-anchor="middle" x="759.5" y="-118" font-family="Helvetica,sans-Serif" font-size="10.00">xiiGALInputLayoutD3D11</text>
</a>
</g>
</g>
<!-- Node1&#45;&gt;Node8 -->
<g id="edge7_Node000001_Node000008" class="edge">
<title>Node1&#45;&gt;Node8</title>
<g id="a_edge7_Node000001_Node000008"><a xlink:title=" ">
<path fill="none" stroke="#63b8ff" d="M631.27,-78.46C648.19,-86.19 670.01,-95.6 690,-102.5 698.95,-105.59 708.71,-108.45 717.99,-110.94"/>
<polygon fill="#63b8ff" stroke="#63b8ff" points="632.48,-75.16 621.93,-74.13 629.53,-81.51 632.48,-75.16"/>
</a>
</g>
</g>
<!-- Node9 -->
<g id="Node000009" class="node">
<title>Node9</title>
<g id="a_Node000009"><a xlink:href="../../d1/d24/classxii_g_a_l_input_layout_d3_d12.htm" target="_top" xlink:title=" ">
<polygon fill="white" stroke="#bfbfbf" points="829,-93 690,-93 690,-74 829,-74 829,-93"/>
<text text-anchor="middle" x="759.5" y="-81" font-family="Helvetica,sans-Serif" font-size="10.00">xiiGALInputLayoutD3D12</text>
</a>
</g>
</g>
<!-- Node1&#45;&gt;Node9 -->
<g id="edge8_Node000001_Node000009" class="edge">
<title>Node1&#45;&gt;Node9</title>
<g id="a_edge8_Node000001_Node000009"><a xlink:title=" ">
<path fill="none" stroke="#63b8ff" d="M664.24,-72.06C672.68,-73.08 681.37,-74.14 689.91,-75.17"/>
<polygon fill="#63b8ff" stroke="#63b8ff" points="664.46,-68.56 654.11,-70.83 663.62,-75.51 664.46,-68.56"/>
</a>
</g>
</g>
<!-- Node10 -->
<g id="Node000010" class="node">
<title>Node10</title>
<g id="a_Node000010"><a xlink:href="../../d8/d8f/classxii_g_a_l_input_layout_null.htm" target="_top" xlink:title=" ">
<polygon fill="white" stroke="#bfbfbf" points="822,-56 697,-56 697,-37 822,-37 822,-56"/>
<text text-anchor="middle" x="759.5" y="-44" font-family="Helvetica,sans-Serif" font-size="10.00">xiiGALInputLayoutNull</text>
</a>
</g>
</g>
<!-- Node1&#45;&gt;Node10 -->
<g id="edge9_Node000001_Node000010" class="edge">
<title>Node1&#45;&gt;Node10</title>
<g id="a_edge9_Node000001_Node000010"><a xlink:title=" ">
<path fill="none" stroke="#63b8ff" d="M664.25,-57.34C674.98,-56.11 686.13,-54.82 696.85,-53.59"/>
<polygon fill="#63b8ff" stroke="#63b8ff" points="663.65,-53.89 654.11,-58.51 664.45,-60.84 663.65,-53.89"/>
</a>
</g>
</g>
<!-- Node11 -->
<g id="Node000011" class="node">
<title>Node11</title>
<g id="a_Node000011"><a xlink:href="../../df/d1d/classxii_g_a_l_input_layout_vulkan.htm" target="_top" xlink:title=" ">
<polygon fill="white" stroke="#bfbfbf" points="828.5,-19 690.5,-19 690.5,0 828.5,0 828.5,-19"/>
<text text-anchor="middle" x="759.5" y="-7" font-family="Helvetica,sans-Serif" font-size="10.00">xiiGALInputLayoutVulkan</text>
</a>
</g>
</g>
<!-- Node1&#45;&gt;Node11 -->
<g id="edge10_Node000001_Node000011" class="edge">
<title>Node1&#45;&gt;Node11</title>
<g id="a_edge10_Node000001_Node000011"><a xlink:title=" ">
<path fill="none" stroke="#63b8ff" d="M631.64,-50.8C648.52,-43.32 670.19,-34.23 690,-27.5 699.08,-24.41 708.99,-21.54 718.37,-19.03"/>
<polygon fill="#63b8ff" stroke="#63b8ff" points="630,-47.71 622.31,-55 632.87,-54.09 630,-47.71"/>
</a>
</g>
</g>
<!-- Node2 -->
<g id="Node000002" class="node">
<title>Node2</title>
<g id="a_Node000002"><a xlink:href="../../d5/d12/classxii_g_a_l_device_object.htm" target="_top" xlink:title="Base Graphics Abstraction Layer Object.">
<polygon fill="white" stroke="#666666" points="512,-74 399,-74 399,-55 512,-55 512,-74"/>
<text text-anchor="middle" x="455.5" y="-62" font-family="Helvetica,sans-Serif" font-size="10.00">xiiGALDeviceObject</text>
</a>
</g>
</g>
<!-- Node2&#45;&gt;Node1 -->
<g id="edge1_Node000001_Node000002" class="edge">
<title>Node2&#45;&gt;Node1</title>
<g id="a_edge1_Node000001_Node000002"><a xlink:title=" ">
<path fill="none" stroke="#63b8ff" d="M522.61,-64.5C531.05,-64.5 539.6,-64.5 547.78,-64.5"/>
<polygon fill="#63b8ff" stroke="#63b8ff" points="522.39,-61 512.39,-64.5 522.39,-68 522.39,-61"/>
</a>
</g>
</g>
<!-- Node3 -->
<g id="Node000003" class="node">
<title>Node3</title>
<g id="a_Node000003"><a xlink:href="../../d3/dda/classxii_g_a_l_object.htm" target="_top" xlink:title="Base Graphics Abstraction Layer Object.">
<polygon fill="white" stroke="#666666" points="363,-74 283,-74 283,-55 363,-55 363,-74"/>
<text text-anchor="middle" x="323" y="-62" font-family="Helvetica,sans-Serif" font-size="10.00">xiiGALObject</text>
</a>
</g>
</g>
<!-- Node3&#45;&gt;Node2 -->
<g id="edge2_Node000002_Node000003" class="edge">
<title>Node3&#45;&gt;Node2</title>
<g id="a_edge2_Node000002_Node000003"><a xlink:title=" ">
<path fill="none" stroke="#63b8ff" d="M373.19,-64.5C381.61,-64.5 390.4,-64.5 398.97,-64.5"/>
<polygon fill="#63b8ff" stroke="#63b8ff" points="373.15,-61 363.15,-64.5 373.15,-68 373.15,-61"/>
</a>
</g>
</g>
<!-- Node4 -->
<g id="Node000004" class="node">
<title>Node4</title>
<g id="a_Node000004"><a xlink:href="../../dc/d71/classxii_reflected_class.htm" target="_top" xlink:title="All classes that should be dynamically reflectable, need to be derived from this base class.">
<polygon fill="white" stroke="#666666" points="247,-93 146,-93 146,-74 247,-74 247,-93"/>
<text text-anchor="middle" x="196.5" y="-81" font-family="Helvetica,sans-Serif" font-size="10.00">xiiReflectedClass</text>
</a>
</g>
</g>
<!-- Node4&#45;&gt;Node3 -->
<g id="edge3_Node000003_Node000004" class="edge">
<title>Node4&#45;&gt;Node3</title>
<g id="a_edge3_Node000003_Node000004"><a xlink:title=" ">
<path fill="none" stroke="#63b8ff" d="M256.96,-74.43C265.79,-73.08 274.69,-71.72 282.96,-70.46"/>
<polygon fill="#63b8ff" stroke="#63b8ff" points="256.42,-70.97 247.06,-75.94 257.48,-77.89 256.42,-70.97"/>
</a>
</g>
</g>
<!-- Node5 -->
<g id="Node000005" class="node">
<title>Node5</title>
<g id="a_Node000005"><a xlink:href="../../d2/d38/classxii_no_base.htm" target="_top" xlink:title="Dummy type to pass to templates and macros that expect a base type for a class that has no base.">
<polygon fill="white" stroke="#666666" points="88,-93 22,-93 22,-74 88,-74 88,-93"/>
<text text-anchor="middle" x="55" y="-81" font-family="Helvetica,sans-Serif" font-size="10.00">xiiNoBase</text>
</a>
</g>
</g>
<!-- Node5&#45;&gt;Node4 -->
<g id="edge4_Node000004_Node000005" class="edge">
<title>Node5&#45;&gt;Node4</title>
<g id="a_edge4_Node000004_Node000005"><a xlink:title=" ">
<path fill="none" stroke="#63b8ff" d="M98.06,-83.5C113.12,-83.5 130.23,-83.5 145.87,-83.5"/>
<polygon fill="#63b8ff" stroke="#63b8ff" points="98,-80 88,-83.5 98,-87 98,-80"/>
</a>
</g>
</g>
<!-- Node6 -->
<g id="Node000006" class="node">
<title>Node6</title>
<g id="a_Node000006"><a xlink:href="../../d3/dd0/classxii_ref_counted.htm" target="_top" xlink:title="Base class for reference counted objects.">
<polygon fill="white" stroke="#666666" points="239.5,-56 153.5,-56 153.5,-37 239.5,-37 239.5,-56"/>
<text text-anchor="middle" x="196.5" y="-44" font-family="Helvetica,sans-Serif" font-size="10.00">xiiRefCounted</text>
</a>
</g>
</g>
<!-- Node6&#45;&gt;Node3 -->
<g id="edge5_Node000003_Node000006" class="edge">
<title>Node6&#45;&gt;Node3</title>
<g id="a_edge5_Node000003_Node000006"><a xlink:title=" ">
<path fill="none" stroke="#63b8ff" d="M249.68,-54.04C260.78,-55.65 272.32,-57.32 282.83,-58.84"/>
<polygon fill="#63b8ff" stroke="#63b8ff" points="250.05,-50.56 239.65,-52.59 249.05,-57.49 250.05,-50.56"/>
</a>
</g>
</g>
<!-- Node7 -->
<g id="Node000007" class="node">
<title>Node7</title>
<g id="a_Node000007"><a xlink:href="../../d7/df4/classxii_ref_counting_impl.htm" target="_top" xlink:title=" ">
<polygon fill="white" stroke="#bfbfbf" points="110,-56 0,-56 0,-37 110,-37 110,-56"/>
<text text-anchor="middle" x="55" y="-44" font-family="Helvetica,sans-Serif" font-size="10.00">xiiRefCountingImpl</text>
</a>
</g>
</g>
<!-- Node7&#45;&gt;Node6 -->
<g id="edge6_Node000006_Node000007" class="edge">
<title>Node7&#45;&gt;Node6</title>
<g id="a_edge6_Node000006_Node000007"><a xlink:title=" ">
<path fill="none" stroke="#63b8ff" d="M120.45,-46.5C131.57,-46.5 142.86,-46.5 153.19,-46.5"/>
<polygon fill="#63b8ff" stroke="#63b8ff" points="120.33,-43 110.33,-46.5 120.33,-50 120.33,-43"/>
</a>
</g>
</g>
</g>
</svg>
