<?xml version="1.0" encoding="UTF-8" standalone="no"?>
<!DOCTYPE svg PUBLIC "-//W3C//DTD SVG 1.1//EN"
 "http://www.w3.org/Graphics/SVG/1.1/DTD/svg11.dtd">
<!-- Generated by graphviz version 2.43.0 (0)
 -->
<!-- Title: xiiWindowOutputTargetBase Pages: 1 -->
<svg width="320pt" height="84pt"
 viewBox="0.00 0.00 320.00 84.00" xmlns="http://www.w3.org/2000/svg" xmlns:xlink="http://www.w3.org/1999/xlink">
<g id="graph0" class="graph" transform="scale(1 1) rotate(0) translate(4 80)">
<title>xiiWindowOutputTargetBase</title>
<polygon fill="white" stroke="transparent" points="-4,4 -4,-80 316,-80 316,4 -4,4"/>
<!-- Node1 -->
<g id="node1" class="node">
<title>Node1</title>
<g id="a_node1"><a xlink:title="Base class for window output targets.">
<polygon fill="#bfbfbf" stroke="black" points="79.5,-56.5 79.5,-75.5 234.5,-75.5 234.5,-56.5 79.5,-56.5"/>
<text text-anchor="middle" x="157" y="-63.5" font-family="Helvetica,sans-Serif" font-size="10.00">xiiWindowOutputTargetBase</text>
</a>
</g>
</g>
<!-- Node2 -->
<g id="node2" class="node">
<title>Node2</title>
<g id="a_node2"><a xlink:href="../../d9/d8d/classxii_window_output_target_g_a_l.htm" target="_top" xlink:title="Creates a swapchain and keeps it up to date with the window.">
<polygon fill="white" stroke="black" points="0,-0.5 0,-19.5 150,-19.5 150,-0.5 0,-0.5"/>
<text text-anchor="middle" x="75" y="-7.5" font-family="Helvetica,sans-Serif" font-size="10.00">xiiWindowOutputTargetGAL</text>
</a>
</g>
</g>
<!-- Node1&#45;&gt;Node2 -->
<g id="edge1" class="edge">
<title>Node1&#45;&gt;Node2</title>
<path fill="none" stroke="midnightblue" d="M135.17,-50.62C120.19,-40.76 100.8,-27.99 88.14,-19.65"/>
<polygon fill="midnightblue" stroke="midnightblue" points="133.55,-53.75 143.83,-56.32 137.4,-47.9 133.55,-53.75"/>
</g>
<!-- Node3 -->
<g id="node3" class="node">
<title>Node3</title>
<g id="a_node3"><a xlink:href="../../dd/d5f/classxii_window_output_target_x_r.htm" target="_top" xlink:title="XR Window output target base implementation. Optionally wraps a companion window output target.">
<polygon fill="white" stroke="black" points="168,-0.5 168,-19.5 312,-19.5 312,-0.5 168,-0.5"/>
<text text-anchor="middle" x="240" y="-7.5" font-family="Helvetica,sans-Serif" font-size="10.00">xiiWindowOutputTargetXR</text>
</a>
</g>
</g>
<!-- Node1&#45;&gt;Node3 -->
<g id="edge2" class="edge">
<title>Node1&#45;&gt;Node3</title>
<path fill="none" stroke="midnightblue" d="M179.1,-50.62C194.26,-40.76 213.88,-27.99 226.7,-19.65"/>
<polygon fill="midnightblue" stroke="midnightblue" points="176.81,-47.94 170.34,-56.32 180.63,-53.8 176.81,-47.94"/>
</g>
</g>
</svg>
