<?xml version="1.0" encoding="UTF-8" standalone="no"?>
<!DOCTYPE svg PUBLIC "-//W3C//DTD SVG 1.1//EN"
 "http://www.w3.org/Graphics/SVG/1.1/DTD/svg11.dtd">
<!-- Generated by graphviz version 2.43.0 (0)
 -->
<!-- Title: xiiTranslatorFromFiles Pages: 1 -->
<svg width="132pt" height="137pt"
 viewBox="0.00 0.00 132.00 137.00" xmlns="http://www.w3.org/2000/svg" xmlns:xlink="http://www.w3.org/1999/xlink">
<g id="graph0" class="graph" transform="scale(1 1) rotate(0) translate(4 133)">
<title>xiiTranslatorFromFiles</title>
<!-- Node1 -->
<g id="Node000001" class="node">
<title>Node1</title>
<g id="a_Node000001"><a xlink:title="Loads translations from files. Each translator can have different search paths, but the files to be l...">
<polygon fill="#999999" stroke="#666666" points="124,-19 0,-19 0,0 124,0 124,-19"/>
<text text-anchor="middle" x="62" y="-7" font-family="Helvetica,sans-Serif" font-size="10.00">xiiTranslatorFromFiles</text>
</a>
</g>
</g>
<!-- Node2 -->
<g id="Node000002" class="node">
<title>Node2</title>
<g id="a_Node000002"><a xlink:href="../../da/db1/classxii_translator_storage.htm" target="_top" xlink:title="Can store translated strings and all translation requests will come from that storage....">
<polygon fill="white" stroke="#666666" points="119,-74 5,-74 5,-55 119,-55 119,-74"/>
<text text-anchor="middle" x="62" y="-62" font-family="Helvetica,sans-Serif" font-size="10.00">xiiTranslatorStorage</text>
</a>
</g>
</g>
<!-- Node2&#45;&gt;Node1 -->
<g id="edge1_Node000001_Node000002" class="edge">
<title>Node2&#45;&gt;Node1</title>
<g id="a_edge1_Node000001_Node000002"><a xlink:title=" ">
<path fill="none" stroke="#63b8ff" d="M62,-44.66C62,-35.93 62,-25.99 62,-19.09"/>
<polygon fill="#63b8ff" stroke="#63b8ff" points="58.5,-44.75 62,-54.75 65.5,-44.75 58.5,-44.75"/>
</a>
</g>
</g>
<!-- Node3 -->
<g id="Node000003" class="node">
<title>Node3</title>
<g id="a_Node000003"><a xlink:href="../../d5/d99/classxii_translator.htm" target="_top" xlink:title="Base class to translate one string into another.">
<polygon fill="white" stroke="#666666" points="100.5,-129 23.5,-129 23.5,-110 100.5,-110 100.5,-129"/>
<text text-anchor="middle" x="62" y="-117" font-family="Helvetica,sans-Serif" font-size="10.00">xiiTranslator</text>
</a>
</g>
</g>
<!-- Node3&#45;&gt;Node2 -->
<g id="edge2_Node000002_Node000003" class="edge">
<title>Node3&#45;&gt;Node2</title>
<g id="a_edge2_Node000002_Node000003"><a xlink:title=" ">
<path fill="none" stroke="#63b8ff" d="M62,-99.66C62,-90.93 62,-80.99 62,-74.09"/>
<polygon fill="#63b8ff" stroke="#63b8ff" points="58.5,-99.75 62,-109.75 65.5,-99.75 58.5,-99.75"/>
</a>
</g>
</g>
</g>
</svg>
