<?xml version="1.0" encoding="UTF-8" standalone="no"?>
<!DOCTYPE svg PUBLIC "-//W3C//DTD SVG 1.1//EN"
 "http://www.w3.org/Graphics/SVG/1.1/DTD/svg11.dtd">
<!-- Generated by graphviz version 2.43.0 (0)
 -->
<!-- Title: xiiVisualizerAttribute Pages: 1 -->
<svg width="723pt" height="372pt"
 viewBox="0.00 0.00 723.00 371.50" xmlns="http://www.w3.org/2000/svg" xmlns:xlink="http://www.w3.org/1999/xlink">
<g id="graph0" class="graph" transform="scale(1 1) rotate(0) translate(4 367.5)">
<title>xiiVisualizerAttribute</title>
<!-- Node1 -->
<g id="Node000001" class="node">
<title>Node1</title>
<g id="a_Node000001"><a xlink:title=" ">
<polygon fill="#999999" stroke="#666666" points="507,-185 388,-185 388,-166 507,-166 507,-185"/>
<text text-anchor="middle" x="447.5" y="-173" font-family="Helvetica,sans-Serif" font-size="10.00">xiiVisualizerAttribute</text>
</a>
</g>
</g>
<!-- Node5 -->
<g id="Node000005" class="node">
<title>Node5</title>
<g id="a_Node000005"><a xlink:href="../../db/db2/classxii_box_reflection_probe_visualizer_attribute.htm" target="_top" xlink:title="A special visualizer attribute for box reflection probes.">
<polygon fill="white" stroke="#666666" points="715,-363.5 543,-363.5 543,-333.5 715,-333.5 715,-363.5"/>
<text text-anchor="start" x="551" y="-351.5" font-family="Helvetica,sans-Serif" font-size="10.00">xiiBoxReflectionProbeVisualizer</text>
<text text-anchor="middle" x="629" y="-340.5" font-family="Helvetica,sans-Serif" font-size="10.00">Attribute</text>
</a>
</g>
</g>
<!-- Node1&#45;&gt;Node5 -->
<g id="edge4_Node000001_Node000005" class="edge">
<title>Node1&#45;&gt;Node5</title>
<g id="a_edge4_Node000001_Node000005"><a xlink:title=" ">
<path fill="none" stroke="#63b8ff" d="M455.41,-194.74C467.86,-226.63 497.1,-290.3 543,-324.5 547.55,-327.89 552.56,-330.8 557.8,-333.3"/>
<polygon fill="#63b8ff" stroke="#63b8ff" points="458.63,-193.36 451.83,-185.24 452.08,-195.83 458.63,-193.36"/>
</a>
</g>
</g>
<!-- Node6 -->
<g id="Node000006" class="node">
<title>Node6</title>
<g id="a_Node000006"><a xlink:href="../../d5/de9/classxii_box_visualizer_attribute.htm" target="_top" xlink:title=" ">
<polygon fill="white" stroke="#bfbfbf" points="698,-315 560,-315 560,-296 698,-296 698,-315"/>
<text text-anchor="middle" x="629" y="-303" font-family="Helvetica,sans-Serif" font-size="10.00">xiiBoxVisualizerAttribute</text>
</a>
</g>
</g>
<!-- Node1&#45;&gt;Node6 -->
<g id="edge5_Node000001_Node000006" class="edge">
<title>Node1&#45;&gt;Node6</title>
<g id="a_edge5_Node000001_Node000006"><a xlink:title=" ">
<path fill="none" stroke="#63b8ff" d="M458.79,-194.12C473.82,-219.46 504.26,-264.32 543,-287.5 548.69,-290.91 554.94,-293.68 561.39,-295.92"/>
<polygon fill="#63b8ff" stroke="#63b8ff" points="461.65,-192.08 453.64,-185.15 455.59,-195.56 461.65,-192.08"/>
</a>
</g>
</g>
<!-- Node7 -->
<g id="Node000007" class="node">
<title>Node7</title>
<g id="a_Node000007"><a xlink:href="../../dc/d3f/classxii_camera_visualizer_attribute.htm" target="_top" xlink:title=" ">
<polygon fill="white" stroke="#bfbfbf" points="708,-278 550,-278 550,-259 708,-259 708,-278"/>
<text text-anchor="middle" x="629" y="-266" font-family="Helvetica,sans-Serif" font-size="10.00">xiiCameraVisualizerAttribute</text>
</a>
</g>
</g>
<!-- Node1&#45;&gt;Node7 -->
<g id="edge6_Node000001_Node000007" class="edge">
<title>Node1&#45;&gt;Node7</title>
<g id="a_edge6_Node000001_Node000007"><a xlink:title=" ">
<path fill="none" stroke="#63b8ff" d="M464.61,-192.24C482.23,-209.52 512.1,-235.96 543,-250.5 550.23,-253.9 558.12,-256.67 566.07,-258.92"/>
<polygon fill="#63b8ff" stroke="#63b8ff" points="466.96,-189.63 457.42,-185.02 462,-194.57 466.96,-189.63"/>
</a>
</g>
</g>
<!-- Node8 -->
<g id="Node000008" class="node">
<title>Node8</title>
<g id="a_Node000008"><a xlink:href="../../dc/da2/classxii_capsule_visualizer_attribute.htm" target="_top" xlink:title=" ">
<polygon fill="white" stroke="#bfbfbf" points="708,-241 550,-241 550,-222 708,-222 708,-241"/>
<text text-anchor="middle" x="629" y="-229" font-family="Helvetica,sans-Serif" font-size="10.00">xiiCapsuleVisualizerAttribute</text>
</a>
</g>
</g>
<!-- Node1&#45;&gt;Node8 -->
<g id="edge7_Node000001_Node000008" class="edge">
<title>Node1&#45;&gt;Node8</title>
<g id="a_edge7_Node000001_Node000008"><a xlink:title=" ">
<path fill="none" stroke="#63b8ff" d="M478.43,-189.09C496.78,-197.03 520.92,-206.78 543,-213.5 553.53,-216.71 564.97,-219.55 575.94,-221.97"/>
<polygon fill="#63b8ff" stroke="#63b8ff" points="479.71,-185.83 469.14,-185.01 476.89,-192.24 479.71,-185.83"/>
</a>
</g>
</g>
<!-- Node9 -->
<g id="Node000009" class="node">
<title>Node9</title>
<g id="a_Node000009"><a xlink:href="../../d7/d1b/classxii_cone_visualizer_attribute.htm" target="_top" xlink:title=" ">
<polygon fill="white" stroke="#bfbfbf" points="701,-204 557,-204 557,-185 701,-185 701,-204"/>
<text text-anchor="middle" x="629" y="-192" font-family="Helvetica,sans-Serif" font-size="10.00">xiiConeVisualizerAttribute</text>
</a>
</g>
</g>
<!-- Node1&#45;&gt;Node9 -->
<g id="edge8_Node000001_Node000009" class="edge">
<title>Node1&#45;&gt;Node9</title>
<g id="a_edge8_Node000001_Node000009"><a xlink:title=" ">
<path fill="none" stroke="#63b8ff" d="M517.48,-182.8C530.39,-184.17 543.91,-185.6 556.88,-186.97"/>
<polygon fill="#63b8ff" stroke="#63b8ff" points="517.59,-179.29 507.28,-181.72 516.85,-186.25 517.59,-179.29"/>
</a>
</g>
</g>
<!-- Node10 -->
<g id="Node000010" class="node">
<title>Node10</title>
<g id="a_Node000010"><a xlink:href="../../d4/db6/classxii_cylinder_visualizer_attribute.htm" target="_top" xlink:title=" ">
<polygon fill="white" stroke="#bfbfbf" points="709,-167 549,-167 549,-148 709,-148 709,-167"/>
<text text-anchor="middle" x="629" y="-155" font-family="Helvetica,sans-Serif" font-size="10.00">xiiCylinderVisualizerAttribute</text>
</a>
</g>
</g>
<!-- Node1&#45;&gt;Node10 -->
<g id="edge9_Node000001_Node000010" class="edge">
<title>Node1&#45;&gt;Node10</title>
<g id="a_edge9_Node000001_Node000010"><a xlink:title=" ">
<path fill="none" stroke="#63b8ff" d="M517.42,-168.59C527.71,-167.56 538.39,-166.49 548.87,-165.44"/>
<polygon fill="#63b8ff" stroke="#63b8ff" points="516.88,-165.13 507.28,-169.61 517.57,-172.09 516.88,-165.13"/>
</a>
</g>
</g>
<!-- Node11 -->
<g id="Node000011" class="node">
<title>Node11</title>
<g id="a_Node000011"><a xlink:href="../../d1/db6/classxii_direction_visualizer_attribute.htm" target="_top" xlink:title=" ">
<polygon fill="white" stroke="#bfbfbf" points="711,-130 547,-130 547,-111 711,-111 711,-130"/>
<text text-anchor="middle" x="629" y="-118" font-family="Helvetica,sans-Serif" font-size="10.00">xiiDirectionVisualizerAttribute</text>
</a>
</g>
</g>
<!-- Node1&#45;&gt;Node11 -->
<g id="edge10_Node000001_Node000011" class="edge">
<title>Node1&#45;&gt;Node11</title>
<g id="a_edge10_Node000001_Node000011"><a xlink:title=" ">
<path fill="none" stroke="#63b8ff" d="M479.19,-162C497.46,-154.34 521.25,-145.01 543,-138.5 553.69,-135.3 565.31,-132.44 576.42,-130"/>
<polygon fill="#63b8ff" stroke="#63b8ff" points="477.75,-158.81 469.91,-165.95 480.49,-165.25 477.75,-158.81"/>
</a>
</g>
</g>
<!-- Node12 -->
<g id="Node000012" class="node">
<title>Node12</title>
<g id="a_Node000012"><a xlink:href="../../d1/d94/classxii_point_light_visualizer_attribute.htm" target="_top" xlink:title="A special visualizer attribute for point lights.">
<polygon fill="white" stroke="#666666" points="713,-93 545,-93 545,-74 713,-74 713,-93"/>
<text text-anchor="middle" x="629" y="-81" font-family="Helvetica,sans-Serif" font-size="10.00">xiiPointLightVisualizerAttribute</text>
</a>
</g>
</g>
<!-- Node1&#45;&gt;Node12 -->
<g id="edge11_Node000001_Node000012" class="edge">
<title>Node1&#45;&gt;Node12</title>
<g id="a_edge11_Node000001_Node000012"><a xlink:title=" ">
<path fill="none" stroke="#63b8ff" d="M464.94,-158.72C482.63,-141.67 512.38,-115.79 543,-101.5 550.38,-98.06 558.43,-95.26 566.54,-93"/>
<polygon fill="#63b8ff" stroke="#63b8ff" points="462.36,-156.35 457.7,-165.86 467.28,-161.33 462.36,-156.35"/>
</a>
</g>
</g>
<!-- Node13 -->
<g id="Node000013" class="node">
<title>Node13</title>
<g id="a_Node000013"><a xlink:href="../../d3/da8/classxii_sphere_visualizer_attribute.htm" target="_top" xlink:title=" ">
<polygon fill="white" stroke="#bfbfbf" points="705.5,-56 552.5,-56 552.5,-37 705.5,-37 705.5,-56"/>
<text text-anchor="middle" x="629" y="-44" font-family="Helvetica,sans-Serif" font-size="10.00">xiiSphereVisualizerAttribute</text>
</a>
</g>
</g>
<!-- Node1&#45;&gt;Node13 -->
<g id="edge12_Node000001_Node000013" class="edge">
<title>Node1&#45;&gt;Node13</title>
<g id="a_edge12_Node000001_Node000013"><a xlink:title=" ">
<path fill="none" stroke="#63b8ff" d="M458.83,-157.05C473.92,-131.93 504.41,-87.48 543,-64.5 548.7,-61.1 554.96,-58.34 561.4,-56.1"/>
<polygon fill="#63b8ff" stroke="#63b8ff" points="455.67,-155.53 453.66,-165.94 461.72,-159.06 455.67,-155.53"/>
</a>
</g>
</g>
<!-- Node14 -->
<g id="Node000014" class="node">
<title>Node14</title>
<g id="a_Node000014"><a xlink:href="../../d6/d3d/classxii_spot_light_visualizer_attribute.htm" target="_top" xlink:title="A special visualizer attribute for spot lights.">
<polygon fill="white" stroke="#666666" points="711.5,-19 546.5,-19 546.5,0 711.5,0 711.5,-19"/>
<text text-anchor="middle" x="629" y="-7" font-family="Helvetica,sans-Serif" font-size="10.00">xiiSpotLightVisualizerAttribute</text>
</a>
</g>
</g>
<!-- Node1&#45;&gt;Node14 -->
<g id="edge13_Node000001_Node000014" class="edge">
<title>Node1&#45;&gt;Node14</title>
<g id="a_edge13_Node000001_Node000014"><a xlink:title=" ">
<path fill="none" stroke="#63b8ff" d="M455.2,-156.05C467.35,-123.88 496.16,-59.93 543,-27.5 547.84,-24.15 553.17,-21.4 558.74,-19.16"/>
<polygon fill="#63b8ff" stroke="#63b8ff" points="451.84,-155.05 451.72,-165.65 458.42,-157.44 451.84,-155.05"/>
</a>
</g>
</g>
<!-- Node2 -->
<g id="Node000002" class="node">
<title>Node2</title>
<g id="a_Node000002"><a xlink:href="../../d5/df0/classxii_property_attribute.htm" target="_top" xlink:title="Base class of all attributes can be used to decorate a RTTI property.">
<polygon fill="white" stroke="#666666" points="352,-185 239,-185 239,-166 352,-166 352,-185"/>
<text text-anchor="middle" x="295.5" y="-173" font-family="Helvetica,sans-Serif" font-size="10.00">xiiPropertyAttribute</text>
</a>
</g>
</g>
<!-- Node2&#45;&gt;Node1 -->
<g id="edge1_Node000001_Node000002" class="edge">
<title>Node2&#45;&gt;Node1</title>
<g id="a_edge1_Node000001_Node000002"><a xlink:title=" ">
<path fill="none" stroke="#63b8ff" d="M362.53,-175.5C370.96,-175.5 379.54,-175.5 387.84,-175.5"/>
<polygon fill="#63b8ff" stroke="#63b8ff" points="362.35,-172 352.35,-175.5 362.35,-179 362.35,-172"/>
</a>
</g>
</g>
<!-- Node3 -->
<g id="Node000003" class="node">
<title>Node3</title>
<g id="a_Node000003"><a xlink:href="../../dc/d71/classxii_reflected_class.htm" target="_top" xlink:title="All classes that should be dynamically reflectable, need to be derived from this base class.">
<polygon fill="white" stroke="#666666" points="203,-185 102,-185 102,-166 203,-166 203,-185"/>
<text text-anchor="middle" x="152.5" y="-173" font-family="Helvetica,sans-Serif" font-size="10.00">xiiReflectedClass</text>
</a>
</g>
</g>
<!-- Node3&#45;&gt;Node2 -->
<g id="edge2_Node000002_Node000003" class="edge">
<title>Node3&#45;&gt;Node2</title>
<g id="a_edge2_Node000002_Node000003"><a xlink:title=" ">
<path fill="none" stroke="#63b8ff" d="M213.42,-175.5C221.91,-175.5 230.6,-175.5 238.99,-175.5"/>
<polygon fill="#63b8ff" stroke="#63b8ff" points="213.21,-172 203.21,-175.5 213.21,-179 213.21,-172"/>
</a>
</g>
</g>
<!-- Node4 -->
<g id="Node000004" class="node">
<title>Node4</title>
<g id="a_Node000004"><a xlink:href="../../d2/d38/classxii_no_base.htm" target="_top" xlink:title="Dummy type to pass to templates and macros that expect a base type for a class that has no base.">
<polygon fill="white" stroke="#666666" points="66,-185 0,-185 0,-166 66,-166 66,-185"/>
<text text-anchor="middle" x="33" y="-173" font-family="Helvetica,sans-Serif" font-size="10.00">xiiNoBase</text>
</a>
</g>
</g>
<!-- Node4&#45;&gt;Node3 -->
<g id="edge3_Node000003_Node000004" class="edge">
<title>Node4&#45;&gt;Node3</title>
<g id="a_edge3_Node000003_Node000004"><a xlink:title=" ">
<path fill="none" stroke="#63b8ff" d="M76.27,-175.5C84.54,-175.5 93.29,-175.5 101.78,-175.5"/>
<polygon fill="#63b8ff" stroke="#63b8ff" points="76.11,-172 66.11,-175.5 76.11,-179 76.11,-172"/>
</a>
</g>
</g>
</g>
</svg>
