<?xml version="1.0" encoding="UTF-8" standalone="no"?>
<!DOCTYPE svg PUBLIC "-//W3C//DTD SVG 1.1//EN"
 "http://www.w3.org/Graphics/SVG/1.1/DTD/svg11.dtd">
<!-- Generated by graphviz version 2.43.0 (0)
 -->
<!-- Title: xiiPushObjectStateMsgToEditor Pages: 1 -->
<svg width="176pt" height="252pt"
 viewBox="0.00 0.00 176.00 252.00" xmlns="http://www.w3.org/2000/svg" xmlns:xlink="http://www.w3.org/1999/xlink">
<g id="graph0" class="graph" transform="scale(1 1) rotate(0) translate(4 248)">
<title>xiiPushObjectStateMsgToEditor</title>
<polygon fill="white" stroke="transparent" points="-4,4 -4,-248 172,-248 172,4 -4,4"/>
<!-- Node1 -->
<g id="node1" class="node">
<title>Node1</title>
<g id="a_node1"><a xlink:title=" ">
<polygon fill="#bfbfbf" stroke="black" points="0,-0.5 0,-19.5 168,-19.5 168,-0.5 0,-0.5"/>
<text text-anchor="middle" x="84" y="-7.5" font-family="Helvetica,sans-Serif" font-size="10.00">xiiPushObjectStateMsgToEditor</text>
</a>
</g>
</g>
<!-- Node2 -->
<g id="node2" class="node">
<title>Node2</title>
<g id="a_node2"><a xlink:href="../../d9/d5f/classxii_editor_engine_document_msg.htm" target="_top" xlink:title="Base class for all messages that are tied to some document.">
<polygon fill="white" stroke="black" points="3.5,-56.5 3.5,-75.5 164.5,-75.5 164.5,-56.5 3.5,-56.5"/>
<text text-anchor="middle" x="84" y="-63.5" font-family="Helvetica,sans-Serif" font-size="10.00">xiiEditorEngineDocumentMsg</text>
</a>
</g>
</g>
<!-- Node2&#45;&gt;Node1 -->
<g id="edge1" class="edge">
<title>Node2&#45;&gt;Node1</title>
<path fill="none" stroke="midnightblue" d="M84,-45.8C84,-36.91 84,-26.78 84,-19.75"/>
<polygon fill="midnightblue" stroke="midnightblue" points="80.5,-46.08 84,-56.08 87.5,-46.08 80.5,-46.08"/>
</g>
<!-- Node3 -->
<g id="node3" class="node">
<title>Node3</title>
<g id="a_node3"><a xlink:href="../../d4/d06/classxii_process_message.htm" target="_top" xlink:title="Base class for IPC messages transmitted by xiiIpcChannel.">
<polygon fill="white" stroke="black" points="29,-112.5 29,-131.5 139,-131.5 139,-112.5 29,-112.5"/>
<text text-anchor="middle" x="84" y="-119.5" font-family="Helvetica,sans-Serif" font-size="10.00">xiiProcessMessage</text>
</a>
</g>
</g>
<!-- Node3&#45;&gt;Node2 -->
<g id="edge2" class="edge">
<title>Node3&#45;&gt;Node2</title>
<path fill="none" stroke="midnightblue" d="M84,-101.8C84,-92.91 84,-82.78 84,-75.75"/>
<polygon fill="midnightblue" stroke="midnightblue" points="80.5,-102.08 84,-112.08 87.5,-102.08 80.5,-102.08"/>
</g>
<!-- Node4 -->
<g id="node4" class="node">
<title>Node4</title>
<g id="a_node4"><a xlink:href="../../dc/d71/classxii_reflected_class.htm" target="_top" xlink:title="All classes that should be dynamically reflectable, need to be derived from this base class.">
<polygon fill="white" stroke="black" points="33.5,-168.5 33.5,-187.5 134.5,-187.5 134.5,-168.5 33.5,-168.5"/>
<text text-anchor="middle" x="84" y="-175.5" font-family="Helvetica,sans-Serif" font-size="10.00">xiiReflectedClass</text>
</a>
</g>
</g>
<!-- Node4&#45;&gt;Node3 -->
<g id="edge3" class="edge">
<title>Node4&#45;&gt;Node3</title>
<path fill="none" stroke="midnightblue" d="M84,-157.8C84,-148.91 84,-138.78 84,-131.75"/>
<polygon fill="midnightblue" stroke="midnightblue" points="80.5,-158.08 84,-168.08 87.5,-158.08 80.5,-158.08"/>
</g>
<!-- Node5 -->
<g id="node5" class="node">
<title>Node5</title>
<g id="a_node5"><a xlink:href="../../d2/d38/classxii_no_base.htm" target="_top" xlink:title="Dummy type to pass to templates and macros that expect a base type for a class that has no base.">
<polygon fill="white" stroke="black" points="51,-224.5 51,-243.5 117,-243.5 117,-224.5 51,-224.5"/>
<text text-anchor="middle" x="84" y="-231.5" font-family="Helvetica,sans-Serif" font-size="10.00">xiiNoBase</text>
</a>
</g>
</g>
<!-- Node5&#45;&gt;Node4 -->
<g id="edge4" class="edge">
<title>Node5&#45;&gt;Node4</title>
<path fill="none" stroke="midnightblue" d="M84,-213.8C84,-204.91 84,-194.78 84,-187.75"/>
<polygon fill="midnightblue" stroke="midnightblue" points="80.5,-214.08 84,-224.08 87.5,-214.08 80.5,-214.08"/>
</g>
</g>
</svg>
