<?xml version="1.0" encoding="UTF-8" standalone="no"?>
<!DOCTYPE svg PUBLIC "-//W3C//DTD SVG 1.1//EN"
 "http://www.w3.org/Graphics/SVG/1.1/DTD/svg11.dtd">
<!-- Generated by graphviz version 2.43.0 (0)
 -->
<!-- Title: xiiEditorEngineSyncObject Pages: 1 -->
<svg width="287pt" height="252pt"
 viewBox="0.00 0.00 286.50 252.00" xmlns="http://www.w3.org/2000/svg" xmlns:xlink="http://www.w3.org/1999/xlink">
<g id="graph0" class="graph" transform="scale(1 1) rotate(0) translate(4 248)">
<title>xiiEditorEngineSyncObject</title>
<polygon fill="white" stroke="transparent" points="-4,4 -4,-248 282.5,-248 282.5,4 -4,4"/>
<!-- Node1 -->
<g id="node1" class="node">
<title>Node1</title>
<g id="a_node1"><a xlink:title=" ">
<polygon fill="#bfbfbf" stroke="black" points="72,-112.5 72,-131.5 217,-131.5 217,-112.5 72,-112.5"/>
<text text-anchor="middle" x="144.5" y="-119.5" font-family="Helvetica,sans-Serif" font-size="10.00">xiiEditorEngineSyncObject</text>
</a>
</g>
</g>
<!-- Node4 -->
<g id="node4" class="node">
<title>Node4</title>
<g id="a_node4"><a xlink:href="../../d6/d50/classxii_engine_view_light_settings.htm" target="_top" xlink:title=" ">
<polygon fill="white" stroke="black" points="0,-56.5 0,-75.5 149,-75.5 149,-56.5 0,-56.5"/>
<text text-anchor="middle" x="74.5" y="-63.5" font-family="Helvetica,sans-Serif" font-size="10.00">xiiEngineViewLightSettings</text>
</a>
</g>
</g>
<!-- Node1&#45;&gt;Node4 -->
<g id="edge3" class="edge">
<title>Node1&#45;&gt;Node4</title>
<path fill="none" stroke="midnightblue" d="M125.19,-106.1C112.59,-96.38 96.57,-84.03 85.95,-75.83"/>
<polygon fill="midnightblue" stroke="midnightblue" points="123.2,-108.99 133.25,-112.32 127.47,-103.44 123.2,-108.99"/>
</g>
<!-- Node5 -->
<g id="node5" class="node">
<title>Node5</title>
<g id="a_node5"><a xlink:href="../../d0/d6e/classxii_gizmo_handle.htm" target="_top" xlink:title=" ">
<polygon fill="white" stroke="black" points="167,-56.5 167,-75.5 262,-75.5 262,-56.5 167,-56.5"/>
<text text-anchor="middle" x="214.5" y="-63.5" font-family="Helvetica,sans-Serif" font-size="10.00">xiiGizmoHandle</text>
</a>
</g>
</g>
<!-- Node1&#45;&gt;Node5 -->
<g id="edge4" class="edge">
<title>Node1&#45;&gt;Node5</title>
<path fill="none" stroke="midnightblue" d="M163.81,-106.1C176.41,-96.38 192.43,-84.03 203.05,-75.83"/>
<polygon fill="midnightblue" stroke="midnightblue" points="161.53,-103.44 155.75,-112.32 165.8,-108.99 161.53,-103.44"/>
</g>
<!-- Node2 -->
<g id="node2" class="node">
<title>Node2</title>
<g id="a_node2"><a xlink:href="../../dc/d71/classxii_reflected_class.htm" target="_top" xlink:title="All classes that should be dynamically reflectable, need to be derived from this base class.">
<polygon fill="white" stroke="black" points="94,-168.5 94,-187.5 195,-187.5 195,-168.5 94,-168.5"/>
<text text-anchor="middle" x="144.5" y="-175.5" font-family="Helvetica,sans-Serif" font-size="10.00">xiiReflectedClass</text>
</a>
</g>
</g>
<!-- Node2&#45;&gt;Node1 -->
<g id="edge1" class="edge">
<title>Node2&#45;&gt;Node1</title>
<path fill="none" stroke="midnightblue" d="M144.5,-157.8C144.5,-148.91 144.5,-138.78 144.5,-131.75"/>
<polygon fill="midnightblue" stroke="midnightblue" points="141,-158.08 144.5,-168.08 148,-158.08 141,-158.08"/>
</g>
<!-- Node3 -->
<g id="node3" class="node">
<title>Node3</title>
<g id="a_node3"><a xlink:href="../../d2/d38/classxii_no_base.htm" target="_top" xlink:title="Dummy type to pass to templates and macros that expect a base type for a class that has no base.">
<polygon fill="white" stroke="black" points="111.5,-224.5 111.5,-243.5 177.5,-243.5 177.5,-224.5 111.5,-224.5"/>
<text text-anchor="middle" x="144.5" y="-231.5" font-family="Helvetica,sans-Serif" font-size="10.00">xiiNoBase</text>
</a>
</g>
</g>
<!-- Node3&#45;&gt;Node2 -->
<g id="edge2" class="edge">
<title>Node3&#45;&gt;Node2</title>
<path fill="none" stroke="midnightblue" d="M144.5,-213.8C144.5,-204.91 144.5,-194.78 144.5,-187.75"/>
<polygon fill="midnightblue" stroke="midnightblue" points="141,-214.08 144.5,-224.08 148,-214.08 141,-214.08"/>
</g>
<!-- Node6 -->
<g id="node6" class="node">
<title>Node6</title>
<g id="a_node6"><a xlink:href="../../da/d10/classxii_engine_gizmo_handle.htm" target="_top" xlink:title=" ">
<polygon fill="white" stroke="black" points="150.5,-0.5 150.5,-19.5 278.5,-19.5 278.5,-0.5 150.5,-0.5"/>
<text text-anchor="middle" x="214.5" y="-7.5" font-family="Helvetica,sans-Serif" font-size="10.00">xiiEngineGizmoHandle</text>
</a>
</g>
</g>
<!-- Node5&#45;&gt;Node6 -->
<g id="edge5" class="edge">
<title>Node5&#45;&gt;Node6</title>
<path fill="none" stroke="midnightblue" d="M214.5,-45.8C214.5,-36.91 214.5,-26.78 214.5,-19.75"/>
<polygon fill="midnightblue" stroke="midnightblue" points="211,-46.08 214.5,-56.08 218,-46.08 211,-46.08"/>
</g>
</g>
</svg>
