<?xml version="1.0" encoding="UTF-8" standalone="no"?>
<!DOCTYPE svg PUBLIC "-//W3C//DTD SVG 1.1//EN"
 "http://www.w3.org/Graphics/SVG/1.1/DTD/svg11.dtd">
<!-- Generated by graphviz version 2.43.0 (0)
 -->
<!-- Title: xiiDocumentObjectManager Pages: 1 -->
<svg width="775pt" height="261pt"
 viewBox="0.00 0.00 775.00 260.50" xmlns="http://www.w3.org/2000/svg" xmlns:xlink="http://www.w3.org/1999/xlink">
<g id="graph0" class="graph" transform="scale(1 1) rotate(0) translate(4 256.5)">
<title>xiiDocumentObjectManager</title>
<!-- Node1 -->
<g id="Node000001" class="node">
<title>Node1</title>
<g id="a_Node000001"><a xlink:title="Represents to content of a document. Every document has exactly one root object under which all objec...">
<polygon fill="#999999" stroke="#666666" points="153,-122.5 0,-122.5 0,-103.5 153,-103.5 153,-122.5"/>
<text text-anchor="middle" x="76.5" y="-110.5" font-family="Helvetica,sans-Serif" font-size="10.00">xiiDocumentObjectManager</text>
</a>
</g>
</g>
<!-- Node2 -->
<g id="Node000002" class="node">
<title>Node2</title>
<g id="a_Node000002"><a xlink:title=" ">
<polygon fill="white" stroke="#bfbfbf" points="365.5,-215.5 199.5,-215.5 199.5,-196.5 365.5,-196.5 365.5,-215.5"/>
<text text-anchor="middle" x="282.5" y="-203.5" font-family="Helvetica,sans-Serif" font-size="10.00">xiiAssetProfilesObjectManager</text>
</a>
</g>
</g>
<!-- Node1&#45;&gt;Node2 -->
<g id="edge1_Node000001_Node000002" class="edge">
<title>Node1&#45;&gt;Node2</title>
<g id="a_edge1_Node000001_Node000002"><a xlink:title=" ">
<path fill="none" stroke="#63b8ff" d="M96.18,-129.04C117.29,-146.31 153.38,-173.27 189,-188 197.32,-191.44 206.33,-194.23 215.35,-196.5"/>
<polygon fill="#63b8ff" stroke="#63b8ff" points="98.27,-126.23 88.34,-122.52 93.79,-131.61 98.27,-126.23"/>
</a>
</g>
</g>
<!-- Node3 -->
<g id="Node000003" class="node">
<title>Node3</title>
<g id="a_Node000003"><a xlink:href="../../db/d55/classxii_document_node_manager.htm" target="_top" xlink:title=" ">
<polygon fill="white" stroke="#bfbfbf" points="356,-178.5 209,-178.5 209,-159.5 356,-159.5 356,-178.5"/>
<text text-anchor="middle" x="282.5" y="-166.5" font-family="Helvetica,sans-Serif" font-size="10.00">xiiDocumentNodeManager</text>
</a>
</g>
</g>
<!-- Node1&#45;&gt;Node3 -->
<g id="edge2_Node000001_Node000003" class="edge">
<title>Node1&#45;&gt;Node3</title>
<g id="a_edge2_Node000001_Node000003"><a xlink:title=" ">
<path fill="none" stroke="#63b8ff" d="M111.94,-126.1C133.79,-134.06 162.78,-144.02 189,-151 200.86,-154.16 213.71,-157.01 225.95,-159.47"/>
<polygon fill="#63b8ff" stroke="#63b8ff" points="113.03,-122.77 102.44,-122.59 110.61,-129.34 113.03,-122.77"/>
</a>
</g>
</g>
<!-- Node10 -->
<g id="Node000010" class="node">
<title>Node10</title>
<g id="a_Node000010"><a xlink:title=" ">
<polygon fill="white" stroke="#bfbfbf" points="363,-141.5 202,-141.5 202,-122.5 363,-122.5 363,-141.5"/>
<text text-anchor="middle" x="282.5" y="-129.5" font-family="Helvetica,sans-Serif" font-size="10.00">xiiPreferencesObjectManager</text>
</a>
</g>
</g>
<!-- Node1&#45;&gt;Node10 -->
<g id="edge9_Node000001_Node000010" class="edge">
<title>Node1&#45;&gt;Node10</title>
<g id="a_edge9_Node000001_Node000010"><a xlink:title=" ">
<path fill="none" stroke="#63b8ff" d="M163.32,-120.99C176.1,-122.18 189.21,-123.4 201.85,-124.58"/>
<polygon fill="#63b8ff" stroke="#63b8ff" points="163.45,-117.49 153.17,-120.05 162.8,-124.46 163.45,-117.49"/>
</a>
</g>
</g>
<!-- Node11 -->
<g id="Node000011" class="node">
<title>Node11</title>
<g id="a_Node000011"><a xlink:href="../../d2/daa/classxii_property_anim_object_manager.htm" target="_top" xlink:title=" ">
<polygon fill="white" stroke="#bfbfbf" points="367.5,-104.5 197.5,-104.5 197.5,-85.5 367.5,-85.5 367.5,-104.5"/>
<text text-anchor="middle" x="282.5" y="-92.5" font-family="Helvetica,sans-Serif" font-size="10.00">xiiPropertyAnimObjectManager</text>
</a>
</g>
</g>
<!-- Node1&#45;&gt;Node11 -->
<g id="edge10_Node000001_Node000011" class="edge">
<title>Node1&#45;&gt;Node11</title>
<g id="a_edge10_Node000001_Node000011"><a xlink:title=" ">
<path fill="none" stroke="#63b8ff" d="M163.41,-105.42C174.65,-104.43 186.16,-103.41 197.37,-102.42"/>
<polygon fill="#63b8ff" stroke="#63b8ff" points="162.83,-101.96 153.17,-106.32 163.44,-108.93 162.83,-101.96"/>
</a>
</g>
</g>
<!-- Node12 -->
<g id="Node000012" class="node">
<title>Node12</title>
<g id="a_Node000012"><a xlink:href="../../dc/dbf/classxii_scene_object_manager.htm" target="_top" xlink:title=" ">
<polygon fill="white" stroke="#bfbfbf" points="348.5,-67.5 216.5,-67.5 216.5,-48.5 348.5,-48.5 348.5,-67.5"/>
<text text-anchor="middle" x="282.5" y="-55.5" font-family="Helvetica,sans-Serif" font-size="10.00">xiiSceneObjectManager</text>
</a>
</g>
</g>
<!-- Node1&#45;&gt;Node12 -->
<g id="edge11_Node000001_Node000012" class="edge">
<title>Node1&#45;&gt;Node12</title>
<g id="a_edge11_Node000001_Node000012"><a xlink:title=" ">
<path fill="none" stroke="#63b8ff" d="M112.83,-99.99C134.59,-92.3 163.17,-82.77 189,-76 201.03,-72.85 214.07,-69.98 226.46,-67.51"/>
<polygon fill="#63b8ff" stroke="#63b8ff" points="111.59,-96.71 103.35,-103.37 113.94,-103.3 111.59,-96.71"/>
</a>
</g>
</g>
<!-- Node13 -->
<g id="Node000013" class="node">
<title>Node13</title>
<g id="a_Node000013"><a xlink:href="../../de/d45/classxii_simple_document_object_manager.htm" target="_top" xlink:title=" ">
<polygon fill="white" stroke="#bfbfbf" points="376,-30 189,-30 189,0 376,0 376,-30"/>
<text text-anchor="start" x="197" y="-18" font-family="Helvetica,sans-Serif" font-size="10.00">xiiSimpleDocumentObjectManager</text>
<text text-anchor="middle" x="282.5" y="-7" font-family="Helvetica,sans-Serif" font-size="10.00">&lt; ObjectProperties &gt;</text>
</a>
</g>
</g>
<!-- Node1&#45;&gt;Node13 -->
<g id="edge12_Node000001_Node000013" class="edge">
<title>Node1&#45;&gt;Node13</title>
<g id="a_edge12_Node000001_Node000013"><a xlink:title=" ">
<path fill="none" stroke="#63b8ff" d="M97.08,-97.06C118.46,-80.37 154.32,-54.48 189,-39 196.57,-35.62 204.72,-32.64 212.92,-30.04"/>
<polygon fill="#63b8ff" stroke="#63b8ff" points="94.76,-94.42 89.1,-103.38 99.11,-99.91 94.76,-94.42"/>
</a>
</g>
</g>
<!-- Node4 -->
<g id="Node000004" class="node">
<title>Node4</title>
<g id="a_Node000004"><a xlink:href="../../dc/d7f/classxii_animation_graph_node_manager.htm" target="_top" xlink:title=" ">
<polygon fill="white" stroke="#bfbfbf" points="588,-252.5 412,-252.5 412,-233.5 588,-233.5 588,-252.5"/>
<text text-anchor="middle" x="500" y="-240.5" font-family="Helvetica,sans-Serif" font-size="10.00">xiiAnimationGraphNodeManager</text>
</a>
</g>
</g>
<!-- Node3&#45;&gt;Node4 -->
<g id="edge3_Node000003_Node000004" class="edge">
<title>Node3&#45;&gt;Node4</title>
<g id="a_edge3_Node000003_Node000004"><a xlink:title=" ">
<path fill="none" stroke="#63b8ff" d="M362.83,-181.92C367.39,-183.69 371.82,-185.71 376,-188 396.13,-199.02 391.88,-213.97 412,-225 418.22,-228.41 425.02,-231.18 431.98,-233.42"/>
<polygon fill="#63b8ff" stroke="#63b8ff" points="363.9,-178.59 353.31,-178.61 361.6,-185.2 363.9,-178.59"/>
</a>
</g>
</g>
<!-- Node5 -->
<g id="Node000005" class="node">
<title>Node5</title>
<g id="a_Node000005"><a xlink:href="../../d3/d1c/classxii_render_pipeline_node_manager.htm" target="_top" xlink:title=" ">
<polygon fill="white" stroke="#bfbfbf" points="585,-215.5 415,-215.5 415,-196.5 585,-196.5 585,-215.5"/>
<text text-anchor="middle" x="500" y="-203.5" font-family="Helvetica,sans-Serif" font-size="10.00">xiiRenderPipelineNodeManager</text>
</a>
</g>
</g>
<!-- Node3&#45;&gt;Node5 -->
<g id="edge4_Node000003_Node000005" class="edge">
<title>Node3&#45;&gt;Node5</title>
<g id="a_edge4_Node000003_Node000005"><a xlink:title=" ">
<path fill="none" stroke="#63b8ff" d="M349,-180.25C379.13,-185.42 414.49,-191.49 443.32,-196.44"/>
<polygon fill="#63b8ff" stroke="#63b8ff" points="349.44,-176.77 339,-178.53 348.26,-183.67 349.44,-176.77"/>
</a>
</g>
</g>
<!-- Node6 -->
<g id="Node000006" class="node">
<title>Node6</title>
<g id="a_Node000006"><a xlink:href="../../d0/d88/classxii_state_machine_node_manager.htm" target="_top" xlink:title=" ">
<polygon fill="white" stroke="#bfbfbf" points="582,-178.5 418,-178.5 418,-159.5 582,-159.5 582,-178.5"/>
<text text-anchor="middle" x="500" y="-166.5" font-family="Helvetica,sans-Serif" font-size="10.00">xiiStateMachineNodeManager</text>
</a>
</g>
</g>
<!-- Node3&#45;&gt;Node6 -->
<g id="edge5_Node000003_Node000006" class="edge">
<title>Node3&#45;&gt;Node6</title>
<g id="a_edge5_Node000003_Node000006"><a xlink:title=" ">
<path fill="none" stroke="#63b8ff" d="M366.51,-169C383.33,-169 401,-169 417.76,-169"/>
<polygon fill="#63b8ff" stroke="#63b8ff" points="366.16,-165.5 356.16,-169 366.16,-172.5 366.16,-165.5"/>
</a>
</g>
</g>
<!-- Node7 -->
<g id="Node000007" class="node">
<title>Node7</title>
<g id="a_Node000007"><a xlink:href="../../d0/de2/classxii_visual_script_node_manager.htm" target="_top" xlink:title=" ">
<polygon fill="white" stroke="#bfbfbf" points="577.5,-141.5 422.5,-141.5 422.5,-122.5 577.5,-122.5 577.5,-141.5"/>
<text text-anchor="middle" x="500" y="-129.5" font-family="Helvetica,sans-Serif" font-size="10.00">xiiVisualScriptNodeManager</text>
</a>
</g>
</g>
<!-- Node3&#45;&gt;Node7 -->
<g id="edge6_Node000003_Node000007" class="edge">
<title>Node3&#45;&gt;Node7</title>
<g id="a_edge6_Node000003_Node000007"><a xlink:title=" ">
<path fill="none" stroke="#63b8ff" d="M349,-157.75C379.13,-152.58 414.49,-146.51 443.32,-141.56"/>
<polygon fill="#63b8ff" stroke="#63b8ff" points="348.26,-154.33 339,-159.47 349.44,-161.23 348.26,-154.33"/>
</a>
</g>
</g>
<!-- Node8 -->
<g id="Node000008" class="node">
<title>Node8</title>
<g id="a_Node000008"><a xlink:href="../../d5/dec/classxii_visual_shader_node_manager.htm" target="_top" xlink:title=" ">
<polygon fill="white" stroke="#bfbfbf" points="580.5,-104.5 419.5,-104.5 419.5,-85.5 580.5,-85.5 580.5,-104.5"/>
<text text-anchor="middle" x="500" y="-92.5" font-family="Helvetica,sans-Serif" font-size="10.00">xiiVisualShaderNodeManager</text>
</a>
</g>
</g>
<!-- Node3&#45;&gt;Node8 -->
<g id="edge7_Node000003_Node000008" class="edge">
<title>Node3&#45;&gt;Node8</title>
<g id="a_edge7_Node000003_Node000008"><a xlink:title=" ">
<path fill="none" stroke="#63b8ff" d="M365.77,-155.88C369.3,-154.42 372.72,-152.8 376,-151 396.39,-139.8 391.68,-124.32 412,-113 418.06,-109.62 424.68,-106.88 431.48,-104.64"/>
<polygon fill="#63b8ff" stroke="#63b8ff" points="364.42,-152.65 356.24,-159.39 366.84,-159.22 364.42,-152.65"/>
</a>
</g>
</g>
<!-- Node9 -->
<g id="Node000009" class="node">
<title>Node9</title>
<g id="a_Node000009"><a xlink:href="../../db/d4c/classxii_material_object_manager.htm" target="_top" xlink:title=" ">
<polygon fill="white" stroke="#bfbfbf" points="767,-104.5 624,-104.5 624,-85.5 767,-85.5 767,-104.5"/>
<text text-anchor="middle" x="695.5" y="-92.5" font-family="Helvetica,sans-Serif" font-size="10.00">xiiMaterialObjectManager</text>
</a>
</g>
</g>
<!-- Node8&#45;&gt;Node9 -->
<g id="edge8_Node000008_Node000009" class="edge">
<title>Node8&#45;&gt;Node9</title>
<g id="a_edge8_Node000008_Node000009"><a xlink:title=" ">
<path fill="none" stroke="#63b8ff" d="M590.73,-95C601.87,-95 613.14,-95 623.94,-95"/>
<polygon fill="#63b8ff" stroke="#63b8ff" points="590.54,-91.5 580.54,-95 590.54,-98.5 590.54,-91.5"/>
</a>
</g>
</g>
</g>
</svg>
