<?xml version="1.0" encoding="UTF-8" standalone="no"?>
<!DOCTYPE svg PUBLIC "-//W3C//DTD SVG 1.1//EN"
 "http://www.w3.org/Graphics/SVG/1.1/DTD/svg11.dtd">
<!-- Generated by graphviz version 2.43.0 (0)
 -->
<!-- Title: xiiGizmoComponentManager Pages: 1 -->
<svg width="167pt" height="341pt"
 viewBox="0.00 0.00 167.00 341.00" xmlns="http://www.w3.org/2000/svg" xmlns:xlink="http://www.w3.org/1999/xlink">
<g id="graph0" class="graph" transform="scale(1 1) rotate(0) translate(4 337)">
<title>xiiGizmoComponentManager</title>
<polygon fill="white" stroke="transparent" points="-4,4 -4,-337 163,-337 163,4 -4,4"/>
<!-- Node1 -->
<g id="node1" class="node">
<title>Node1</title>
<g id="a_node1"><a xlink:title=" ">
<polygon fill="#bfbfbf" stroke="black" points="0,-0.5 0,-19.5 159,-19.5 159,-0.5 0,-0.5"/>
<text text-anchor="middle" x="79.5" y="-7.5" font-family="Helvetica,sans-Serif" font-size="10.00">xiiGizmoComponentManager</text>
</a>
</g>
</g>
<!-- Node2 -->
<g id="node2" class="node">
<title>Node2</title>
<g id="a_node2"><a xlink:href="../../d4/d5d/classxii_component_manager.htm" target="_top" xlink:title=" ">
<polygon fill="white" stroke="black" points="14,-56.5 14,-108.5 145,-108.5 145,-56.5 14,-56.5"/>
<text text-anchor="start" x="22" y="-96.5" font-family="Helvetica,sans-Serif" font-size="10.00">xiiComponentManager</text>
<text text-anchor="start" x="22" y="-85.5" font-family="Helvetica,sans-Serif" font-size="10.00">&lt; xiiGizmoComponent,</text>
<text text-anchor="start" x="22" y="-74.5" font-family="Helvetica,sans-Serif" font-size="10.00"> xiiBlockStorageType</text>
<text text-anchor="middle" x="79.5" y="-63.5" font-family="Helvetica,sans-Serif" font-size="10.00">::FreeList &gt;</text>
</a>
</g>
</g>
<!-- Node2&#45;&gt;Node1 -->
<g id="edge1" class="edge">
<title>Node2&#45;&gt;Node1</title>
<path fill="none" stroke="midnightblue" d="M79.5,-46.27C79.5,-36.37 79.5,-26.47 79.5,-19.7"/>
<polygon fill="midnightblue" stroke="midnightblue" points="76,-46.45 79.5,-56.45 83,-46.45 76,-46.45"/>
</g>
<!-- Node3 -->
<g id="node3" class="node">
<title>Node3</title>
<g id="a_node3"><a xlink:href="../../d4/d61/classxii_component_manager_base.htm" target="_top" xlink:title="Base class for all component managers. Do not derive directly from this class, but derive from xiiCom...">
<polygon fill="white" stroke="black" points="3.5,-145.5 3.5,-164.5 155.5,-164.5 155.5,-145.5 3.5,-145.5"/>
<text text-anchor="middle" x="79.5" y="-152.5" font-family="Helvetica,sans-Serif" font-size="10.00">xiiComponentManagerBase</text>
</a>
</g>
</g>
<!-- Node3&#45;&gt;Node2 -->
<g id="edge2" class="edge">
<title>Node3&#45;&gt;Node2</title>
<path fill="none" stroke="midnightblue" d="M79.5,-135.1C79.5,-126.96 79.5,-117.33 79.5,-108.6"/>
<polygon fill="midnightblue" stroke="midnightblue" points="76,-135.36 79.5,-145.36 83,-135.36 76,-135.36"/>
</g>
<!-- Node4 -->
<g id="node4" class="node">
<title>Node4</title>
<g id="a_node4"><a xlink:href="../../d9/dfe/classxii_world_module.htm" target="_top" xlink:title=" ">
<polygon fill="white" stroke="black" points="33.5,-201.5 33.5,-220.5 125.5,-220.5 125.5,-201.5 33.5,-201.5"/>
<text text-anchor="middle" x="79.5" y="-208.5" font-family="Helvetica,sans-Serif" font-size="10.00">xiiWorldModule</text>
</a>
</g>
</g>
<!-- Node4&#45;&gt;Node3 -->
<g id="edge3" class="edge">
<title>Node4&#45;&gt;Node3</title>
<path fill="none" stroke="midnightblue" d="M79.5,-190.8C79.5,-181.91 79.5,-171.78 79.5,-164.75"/>
<polygon fill="midnightblue" stroke="midnightblue" points="76,-191.08 79.5,-201.08 83,-191.08 76,-191.08"/>
</g>
<!-- Node5 -->
<g id="node5" class="node">
<title>Node5</title>
<g id="a_node5"><a xlink:href="../../dc/d71/classxii_reflected_class.htm" target="_top" xlink:title="All classes that should be dynamically reflectable, need to be derived from this base class.">
<polygon fill="white" stroke="black" points="29,-257.5 29,-276.5 130,-276.5 130,-257.5 29,-257.5"/>
<text text-anchor="middle" x="79.5" y="-264.5" font-family="Helvetica,sans-Serif" font-size="10.00">xiiReflectedClass</text>
</a>
</g>
</g>
<!-- Node5&#45;&gt;Node4 -->
<g id="edge4" class="edge">
<title>Node5&#45;&gt;Node4</title>
<path fill="none" stroke="midnightblue" d="M79.5,-246.8C79.5,-237.91 79.5,-227.78 79.5,-220.75"/>
<polygon fill="midnightblue" stroke="midnightblue" points="76,-247.08 79.5,-257.08 83,-247.08 76,-247.08"/>
</g>
<!-- Node6 -->
<g id="node6" class="node">
<title>Node6</title>
<g id="a_node6"><a xlink:href="../../d2/d38/classxii_no_base.htm" target="_top" xlink:title="Dummy type to pass to templates and macros that expect a base type for a class that has no base.">
<polygon fill="white" stroke="black" points="46.5,-313.5 46.5,-332.5 112.5,-332.5 112.5,-313.5 46.5,-313.5"/>
<text text-anchor="middle" x="79.5" y="-320.5" font-family="Helvetica,sans-Serif" font-size="10.00">xiiNoBase</text>
</a>
</g>
</g>
<!-- Node6&#45;&gt;Node5 -->
<g id="edge5" class="edge">
<title>Node6&#45;&gt;Node5</title>
<path fill="none" stroke="midnightblue" d="M79.5,-302.8C79.5,-293.91 79.5,-283.78 79.5,-276.75"/>
<polygon fill="midnightblue" stroke="midnightblue" points="76,-303.08 79.5,-313.08 83,-303.08 76,-303.08"/>
</g>
</g>
</svg>
