<?xml version="1.0" encoding="UTF-8" standalone="no"?>
<!DOCTYPE svg PUBLIC "-//W3C//DTD SVG 1.1//EN"
 "http://www.w3.org/Graphics/SVG/1.1/DTD/svg11.dtd">
<!-- Generated by graphviz version 2.43.0 (0)
 -->
<!-- Title: xiiQtEmbeddedClassPropertyWidget Pages: 1 -->
<svg width="167pt" height="151pt"
 viewBox="0.00 0.00 167.00 151.00" xmlns="http://www.w3.org/2000/svg" xmlns:xlink="http://www.w3.org/1999/xlink">
<g id="graph0" class="graph" transform="scale(1 1) rotate(0) translate(4 147)">
<title>xiiQtEmbeddedClassPropertyWidget</title>
<polygon fill="white" stroke="transparent" points="-4,4 -4,-147 163,-147 163,4 -4,4"/>
<!-- Node1 -->
<g id="node1" class="node">
<title>Node1</title>
<g id="a_node1"><a xlink:title="Base class for more &#39;advanced&#39; property type widgets for Pointer or Class type properties....">
<polygon fill="#bfbfbf" stroke="black" points="0,-0.5 0,-30.5 159,-30.5 159,-0.5 0,-0.5"/>
<text text-anchor="start" x="8" y="-18.5" font-family="Helvetica,sans-Serif" font-size="10.00">xiiQtEmbeddedClassProperty</text>
<text text-anchor="middle" x="79.5" y="-7.5" font-family="Helvetica,sans-Serif" font-size="10.00">Widget</text>
</a>
</g>
</g>
<!-- Node2 -->
<g id="node2" class="node">
<title>Node2</title>
<g id="a_node2"><a xlink:href="../../d9/d80/classxii_qt_property_widget.htm" target="_top" xlink:title="Base class for all property widgets.">
<polygon fill="white" stroke="black" points="21.5,-67.5 21.5,-86.5 137.5,-86.5 137.5,-67.5 21.5,-67.5"/>
<text text-anchor="middle" x="79.5" y="-74.5" font-family="Helvetica,sans-Serif" font-size="10.00">xiiQtPropertyWidget</text>
</a>
</g>
</g>
<!-- Node2&#45;&gt;Node1 -->
<g id="edge1" class="edge">
<title>Node2&#45;&gt;Node1</title>
<path fill="none" stroke="midnightblue" d="M79.5,-57.23C79.5,-48.59 79.5,-38.5 79.5,-30.52"/>
<polygon fill="midnightblue" stroke="midnightblue" points="76,-57.48 79.5,-67.48 83,-57.48 76,-57.48"/>
</g>
<!-- Node3 -->
<g id="node3" class="node">
<title>Node3</title>
<g id="a_node3"><a xlink:title=" ">
<polygon fill="white" stroke="#bfbfbf" points="50,-123.5 50,-142.5 109,-142.5 109,-123.5 50,-123.5"/>
<text text-anchor="middle" x="79.5" y="-130.5" font-family="Helvetica,sans-Serif" font-size="10.00">QWidget</text>
</a>
</g>
</g>
<!-- Node3&#45;&gt;Node2 -->
<g id="edge2" class="edge">
<title>Node3&#45;&gt;Node2</title>
<path fill="none" stroke="midnightblue" d="M79.5,-112.8C79.5,-103.91 79.5,-93.78 79.5,-86.75"/>
<polygon fill="midnightblue" stroke="midnightblue" points="76,-113.08 79.5,-123.08 83,-113.08 76,-113.08"/>
</g>
</g>
</svg>
