<?xml version="1.0" encoding="UTF-8" standalone="no"?>
<!DOCTYPE svg PUBLIC "-//W3C//DTD SVG 1.1//EN"
 "http://www.w3.org/Graphics/SVG/1.1/DTD/svg11.dtd">
<!-- Generated by graphviz version 2.43.0 (0)
 -->
<!-- Title: xiiLogErrorAnimNode Pages: 1 -->
<svg width="128pt" height="247pt"
 viewBox="0.00 0.00 128.00 247.00" xmlns="http://www.w3.org/2000/svg" xmlns:xlink="http://www.w3.org/1999/xlink">
<g id="graph0" class="graph" transform="scale(1 1) rotate(0) translate(4 243)">
<title>xiiLogErrorAnimNode</title>
<!-- Node1 -->
<g id="Node000001" class="node">
<title>Node1</title>
<g id="a_Node000001"><a xlink:title=" ">
<polygon fill="#999999" stroke="#666666" points="120,-19 0,-19 0,0 120,0 120,-19"/>
<text text-anchor="middle" x="60" y="-7" font-family="Helvetica,sans-Serif" font-size="10.00">xiiLogErrorAnimNode</text>
</a>
</g>
</g>
<!-- Node2 -->
<g id="Node000002" class="node">
<title>Node2</title>
<g id="a_Node000002"><a xlink:href="../../dd/d1c/classxii_log_anim_node.htm" target="_top" xlink:title=" ">
<polygon fill="white" stroke="#bfbfbf" points="108.5,-74 11.5,-74 11.5,-55 108.5,-55 108.5,-74"/>
<text text-anchor="middle" x="60" y="-62" font-family="Helvetica,sans-Serif" font-size="10.00">xiiLogAnimNode</text>
</a>
</g>
</g>
<!-- Node2&#45;&gt;Node1 -->
<g id="edge1_Node000001_Node000002" class="edge">
<title>Node2&#45;&gt;Node1</title>
<g id="a_edge1_Node000001_Node000002"><a xlink:title=" ">
<path fill="none" stroke="#63b8ff" d="M60,-44.66C60,-35.93 60,-25.99 60,-19.09"/>
<polygon fill="#63b8ff" stroke="#63b8ff" points="56.5,-44.75 60,-54.75 63.5,-44.75 56.5,-44.75"/>
</a>
</g>
</g>
<!-- Node3 -->
<g id="Node000003" class="node">
<title>Node3</title>
<g id="a_Node000003"><a xlink:href="../../de/dfb/classxii_anim_graph_node.htm" target="_top" xlink:title="Base class for all nodes in an xiiAnimGraphInstance.">
<polygon fill="white" stroke="#666666" points="114.5,-129 5.5,-129 5.5,-110 114.5,-110 114.5,-129"/>
<text text-anchor="middle" x="60" y="-117" font-family="Helvetica,sans-Serif" font-size="10.00">xiiAnimGraphNode</text>
</a>
</g>
</g>
<!-- Node3&#45;&gt;Node2 -->
<g id="edge2_Node000002_Node000003" class="edge">
<title>Node3&#45;&gt;Node2</title>
<g id="a_edge2_Node000002_Node000003"><a xlink:title=" ">
<path fill="none" stroke="#63b8ff" d="M60,-99.66C60,-90.93 60,-80.99 60,-74.09"/>
<polygon fill="#63b8ff" stroke="#63b8ff" points="56.5,-99.75 60,-109.75 63.5,-99.75 56.5,-99.75"/>
</a>
</g>
</g>
<!-- Node4 -->
<g id="Node000004" class="node">
<title>Node4</title>
<g id="a_Node000004"><a xlink:href="../../dc/d71/classxii_reflected_class.htm" target="_top" xlink:title="All classes that should be dynamically reflectable, need to be derived from this base class.">
<polygon fill="white" stroke="#666666" points="110.5,-184 9.5,-184 9.5,-165 110.5,-165 110.5,-184"/>
<text text-anchor="middle" x="60" y="-172" font-family="Helvetica,sans-Serif" font-size="10.00">xiiReflectedClass</text>
</a>
</g>
</g>
<!-- Node4&#45;&gt;Node3 -->
<g id="edge3_Node000003_Node000004" class="edge">
<title>Node4&#45;&gt;Node3</title>
<g id="a_edge3_Node000003_Node000004"><a xlink:title=" ">
<path fill="none" stroke="#63b8ff" d="M60,-154.66C60,-145.93 60,-135.99 60,-129.09"/>
<polygon fill="#63b8ff" stroke="#63b8ff" points="56.5,-154.75 60,-164.75 63.5,-154.75 56.5,-154.75"/>
</a>
</g>
</g>
<!-- Node5 -->
<g id="Node000005" class="node">
<title>Node5</title>
<g id="a_Node000005"><a xlink:href="../../d2/d38/classxii_no_base.htm" target="_top" xlink:title="Dummy type to pass to templates and macros that expect a base type for a class that has no base.">
<polygon fill="white" stroke="#666666" points="93,-239 27,-239 27,-220 93,-220 93,-239"/>
<text text-anchor="middle" x="60" y="-227" font-family="Helvetica,sans-Serif" font-size="10.00">xiiNoBase</text>
</a>
</g>
</g>
<!-- Node5&#45;&gt;Node4 -->
<g id="edge4_Node000004_Node000005" class="edge">
<title>Node5&#45;&gt;Node4</title>
<g id="a_edge4_Node000004_Node000005"><a xlink:title=" ">
<path fill="none" stroke="#63b8ff" d="M60,-209.66C60,-200.93 60,-190.99 60,-184.09"/>
<polygon fill="#63b8ff" stroke="#63b8ff" points="56.5,-209.75 60,-219.75 63.5,-209.75 56.5,-209.75"/>
</a>
</g>
</g>
</g>
</svg>
