<?xml version="1.0" encoding="UTF-8" standalone="no"?>
<!DOCTYPE svg PUBLIC "-//W3C//DTD SVG 1.1//EN"
 "http://www.w3.org/Graphics/SVG/1.1/DTD/svg11.dtd">
<!-- Generated by graphviz version 2.43.0 (0)
 -->
<!-- Title: xiiGameObjectGizmoInterface Pages: 1 -->
<svg width="469pt" height="148pt"
 viewBox="0.00 0.00 469.00 148.00" xmlns="http://www.w3.org/2000/svg" xmlns:xlink="http://www.w3.org/1999/xlink">
<g id="graph0" class="graph" transform="scale(1 1) rotate(0) translate(4 144)">
<title>xiiGameObjectGizmoInterface</title>
<!-- Node1 -->
<g id="Node000001" class="node">
<title>Node1</title>
<g id="a_Node000001"><a xlink:title=" ">
<polygon fill="#999999" stroke="#666666" points="274,-140 110,-140 110,-121 274,-121 274,-140"/>
<text text-anchor="middle" x="192" y="-128" font-family="Helvetica,sans-Serif" font-size="10.00">xiiGameObjectGizmoInterface</text>
</a>
</g>
</g>
<!-- Node2 -->
<g id="Node000002" class="node">
<title>Node2</title>
<g id="a_Node000002"><a xlink:href="../../d0/d8d/classxii_qt_property_anim_asset_document_window.htm" target="_top" xlink:title=" ">
<polygon fill="white" stroke="#bfbfbf" points="184,-85 0,-85 0,-55 184,-55 184,-85"/>
<text text-anchor="start" x="8" y="-73" font-family="Helvetica,sans-Serif" font-size="10.00">xiiQtPropertyAnimAssetDocument</text>
<text text-anchor="middle" x="92" y="-62" font-family="Helvetica,sans-Serif" font-size="10.00">Window</text>
</a>
</g>
</g>
<!-- Node1&#45;&gt;Node2 -->
<g id="edge1_Node000001_Node000002" class="edge">
<title>Node1&#45;&gt;Node2</title>
<g id="a_edge1_Node000001_Node000002"><a xlink:title=" ">
<path fill="none" stroke="#63b8ff" d="M168.6,-115.81C152.83,-106.58 132.06,-94.43 116.13,-85.11"/>
<polygon fill="#63b8ff" stroke="#63b8ff" points="166.85,-118.84 177.24,-120.87 170.38,-112.8 166.85,-118.84"/>
</a>
</g>
</g>
<!-- Node3 -->
<g id="Node000003" class="node">
<title>Node3</title>
<g id="a_Node000003"><a xlink:href="../../dc/d3c/classxii_qt_scene_document_window_base.htm" target="_top" xlink:title=" ">
<polygon fill="white" stroke="#bfbfbf" points="384,-79.5 202,-79.5 202,-60.5 384,-60.5 384,-79.5"/>
<text text-anchor="middle" x="293" y="-67.5" font-family="Helvetica,sans-Serif" font-size="10.00">xiiQtSceneDocumentWindowBase</text>
</a>
</g>
</g>
<!-- Node1&#45;&gt;Node3 -->
<g id="edge2_Node000001_Node000003" class="edge">
<title>Node1&#45;&gt;Node3</title>
<g id="a_edge2_Node000001_Node000003"><a xlink:title=" ">
<path fill="none" stroke="#63b8ff" d="M215.7,-115.77C234.98,-104.6 261.6,-89.19 278.04,-79.67"/>
<polygon fill="#63b8ff" stroke="#63b8ff" points="213.8,-112.83 206.9,-120.87 217.31,-118.88 213.8,-112.83"/>
</a>
</g>
</g>
<!-- Node4 -->
<g id="Node000004" class="node">
<title>Node4</title>
<g id="a_Node000004"><a xlink:href="../../d7/d61/classxii_qt_scene2_document_window.htm" target="_top" xlink:title=" ">
<polygon fill="white" stroke="#bfbfbf" points="285,-19 121,-19 121,0 285,0 285,-19"/>
<text text-anchor="middle" x="203" y="-7" font-family="Helvetica,sans-Serif" font-size="10.00">xiiQtScene2DocumentWindow</text>
</a>
</g>
</g>
<!-- Node3&#45;&gt;Node4 -->
<g id="edge3_Node000003_Node000004" class="edge">
<title>Node3&#45;&gt;Node4</title>
<g id="a_edge3_Node000003_Node000004"><a xlink:title=" ">
<path fill="none" stroke="#63b8ff" d="M270.94,-54.66C253.84,-43.55 230.71,-28.51 216.33,-19.17"/>
<polygon fill="#63b8ff" stroke="#63b8ff" points="269.43,-57.85 279.72,-60.37 273.24,-51.98 269.43,-57.85"/>
</a>
</g>
</g>
<!-- Node5 -->
<g id="Node000005" class="node">
<title>Node5</title>
<g id="a_Node000005"><a xlink:href="../../df/d7c/classxii_qt_scene_document_window.htm" target="_top" xlink:title=" ">
<polygon fill="white" stroke="#bfbfbf" points="461,-19 303,-19 303,0 461,0 461,-19"/>
<text text-anchor="middle" x="382" y="-7" font-family="Helvetica,sans-Serif" font-size="10.00">xiiQtSceneDocumentWindow</text>
</a>
</g>
</g>
<!-- Node3&#45;&gt;Node5 -->
<g id="edge4_Node000003_Node000005" class="edge">
<title>Node3&#45;&gt;Node5</title>
<g id="a_edge4_Node000003_Node000005"><a xlink:title=" ">
<path fill="none" stroke="#63b8ff" d="M314.82,-54.66C331.73,-43.55 354.59,-28.51 368.81,-19.17"/>
<polygon fill="#63b8ff" stroke="#63b8ff" points="312.57,-51.95 306.13,-60.37 316.41,-57.8 312.57,-51.95"/>
</a>
</g>
</g>
</g>
</svg>
