<?xml version="1.0" encoding="UTF-8" standalone="no"?>
<!DOCTYPE svg PUBLIC "-//W3C//DTD SVG 1.1//EN"
 "http://www.w3.org/Graphics/SVG/1.1/DTD/svg11.dtd">
<!-- Generated by graphviz version 2.43.0 (0)
 -->
<!-- Title: xiiRttiConverterContext Pages: 1 -->
<svg width="362pt" height="159pt"
 viewBox="0.00 0.00 361.50 159.00" xmlns="http://www.w3.org/2000/svg" xmlns:xlink="http://www.w3.org/1999/xlink">
<g id="graph0" class="graph" transform="scale(1 1) rotate(0) translate(4 155)">
<title>xiiRttiConverterContext</title>
<!-- Node1 -->
<g id="Node000001" class="node">
<title>Node1</title>
<g id="a_Node000001"><a xlink:title=" ">
<polygon fill="#999999" stroke="#666666" points="244,-151 112,-151 112,-132 244,-132 244,-151"/>
<text text-anchor="middle" x="178" y="-139" font-family="Helvetica,sans-Serif" font-size="10.00">xiiRttiConverterContext</text>
</a>
</g>
</g>
<!-- Node2 -->
<g id="Node000002" class="node">
<title>Node2</title>
<g id="a_Node000002"><a xlink:href="../../d3/d69/classxii_apply_native_property_changes_context.html" target="_top" xlink:title="The xiiApplyNativePropertyChangesContext takes care of generating guids for native pointers that matc...">
<polygon fill="white" stroke="#666666" points="172,-96 0,-96 0,-66 172,-66 172,-96"/>
<text text-anchor="start" x="8" y="-84" font-family="Helvetica,sans-Serif" font-size="10.00">xiiApplyNativePropertyChanges</text>
<text text-anchor="middle" x="86" y="-73" font-family="Helvetica,sans-Serif" font-size="10.00">Context</text>
</a>
</g>
</g>
<!-- Node1&#45;&gt;Node2 -->
<g id="edge1_Node000001_Node000002" class="edge">
<title>Node1&#45;&gt;Node2</title>
<g id="a_edge1_Node000001_Node000002"><a xlink:title=" ">
<path fill="none" stroke="#63b8ff" d="M155.66,-126.29C141.25,-117.13 122.58,-105.26 108.2,-96.11"/>
<polygon fill="#63b8ff" stroke="#63b8ff" points="154.11,-129.46 164.43,-131.87 157.86,-123.55 154.11,-129.46"/>
</a>
</g>
</g>
<!-- Node3 -->
<g id="Node000003" class="node">
<title>Node3</title>
<g id="a_Node000003"><a xlink:href="../../d2/d12/classxii_world_rtti_converter_context.html" target="_top" xlink:title="The world rtti converter context tracks created objects and is capable of also handling components / ...">
<polygon fill="white" stroke="#666666" points="350,-90.5 190,-90.5 190,-71.5 350,-71.5 350,-90.5"/>
<text text-anchor="middle" x="270" y="-78.5" font-family="Helvetica,sans-Serif" font-size="10.00">xiiWorldRttiConverterContext</text>
</a>
</g>
</g>
<!-- Node1&#45;&gt;Node3 -->
<g id="edge2_Node000001_Node000003" class="edge">
<title>Node1&#45;&gt;Node3</title>
<g id="a_edge2_Node000001_Node000003"><a xlink:title=" ">
<path fill="none" stroke="#63b8ff" d="M200.07,-126.47C217.59,-115.32 241.53,-100.1 256.37,-90.67"/>
<polygon fill="#63b8ff" stroke="#63b8ff" points="198.14,-123.55 191.57,-131.87 201.89,-129.46 198.14,-123.55"/>
</a>
</g>
</g>
<!-- Node4 -->
<g id="Node000004" class="node">
<title>Node4</title>
<g id="a_Node000004"><a xlink:href="../../d3/db7/classxii_render_pipeline_rtti_converter_context.html" target="_top" xlink:title=" ">
<polygon fill="white" stroke="#bfbfbf" points="353.5,-30 186.5,-30 186.5,0 353.5,0 353.5,-30"/>
<text text-anchor="start" x="194.5" y="-18" font-family="Helvetica,sans-Serif" font-size="10.00">xiiRenderPipelineRttiConverter</text>
<text text-anchor="middle" x="270" y="-7" font-family="Helvetica,sans-Serif" font-size="10.00">Context</text>
</a>
</g>
</g>
<!-- Node3&#45;&gt;Node4 -->
<g id="edge3_Node000003_Node000004" class="edge">
<title>Node3&#45;&gt;Node4</title>
<g id="a_edge3_Node000003_Node000004"><a xlink:title=" ">
<path fill="none" stroke="#63b8ff" d="M270,-61.35C270,-51.47 270,-39.51 270,-30.36"/>
<polygon fill="#63b8ff" stroke="#63b8ff" points="266.5,-61.37 270,-71.37 273.5,-61.37 266.5,-61.37"/>
</a>
</g>
</g>
</g>
</svg>
