<?xml version="1.0" encoding="UTF-8" standalone="no"?>
<!DOCTYPE svg PUBLIC "-//W3C//DTD SVG 1.1//EN"
 "http://www.w3.org/Graphics/SVG/1.1/DTD/svg11.dtd">
<!-- Generated by graphviz version 2.43.0 (0)
 -->
<!-- Title: xiiRttiConverterContext Pages: 1 -->
<svg width="362pt" height="162pt"
 viewBox="0.00 0.00 361.50 162.00" xmlns="http://www.w3.org/2000/svg" xmlns:xlink="http://www.w3.org/1999/xlink">
<g id="graph0" class="graph" transform="scale(1 1) rotate(0) translate(4 158)">
<title>xiiRttiConverterContext</title>
<polygon fill="white" stroke="transparent" points="-4,4 -4,-158 357.5,-158 357.5,4 -4,4"/>
<!-- Node1 -->
<g id="node1" class="node">
<title>Node1</title>
<g id="a_node1"><a xlink:title=" ">
<polygon fill="#bfbfbf" stroke="black" points="112,-134.5 112,-153.5 244,-153.5 244,-134.5 112,-134.5"/>
<text text-anchor="middle" x="178" y="-141.5" font-family="Helvetica,sans-Serif" font-size="10.00">xiiRttiConverterContext</text>
</a>
</g>
</g>
<!-- Node2 -->
<g id="node2" class="node">
<title>Node2</title>
<g id="a_node2"><a xlink:href="../../d3/d69/classxii_apply_native_property_changes_context.htm" target="_top" xlink:title="The xiiApplyNativePropertyChangesContext takes care of generating guids for native pointers that matc...">
<polygon fill="white" stroke="black" points="0,-67.5 0,-97.5 172,-97.5 172,-67.5 0,-67.5"/>
<text text-anchor="start" x="8" y="-85.5" font-family="Helvetica,sans-Serif" font-size="10.00">xiiApplyNativePropertyChanges</text>
<text text-anchor="middle" x="86" y="-74.5" font-family="Helvetica,sans-Serif" font-size="10.00">Context</text>
</a>
</g>
</g>
<!-- Node1&#45;&gt;Node2 -->
<g id="edge1" class="edge">
<title>Node1&#45;&gt;Node2</title>
<path fill="none" stroke="midnightblue" d="M156.37,-129.01C141.69,-119.52 122.37,-107.02 107.68,-97.52"/>
<polygon fill="midnightblue" stroke="midnightblue" points="154.52,-131.98 164.82,-134.48 158.32,-126.11 154.52,-131.98"/>
</g>
<!-- Node3 -->
<g id="node3" class="node">
<title>Node3</title>
<g id="a_node3"><a xlink:href="../../d2/d12/classxii_world_rtti_converter_context.htm" target="_top" xlink:title="The world rtti converter context tracks created objects and is capable of also handling components / ...">
<polygon fill="white" stroke="black" points="190,-73 190,-92 350,-92 350,-73 190,-73"/>
<text text-anchor="middle" x="270" y="-80" font-family="Helvetica,sans-Serif" font-size="10.00">xiiWorldRttiConverterContext</text>
</a>
</g>
</g>
<!-- Node1&#45;&gt;Node3 -->
<g id="edge2" class="edge">
<title>Node1&#45;&gt;Node3</title>
<path fill="none" stroke="midnightblue" d="M199.76,-128.93C217.49,-117.46 241.96,-101.63 256.84,-92.01"/>
<polygon fill="midnightblue" stroke="midnightblue" points="197.68,-126.11 191.18,-134.48 201.48,-131.98 197.68,-126.11"/>
</g>
<!-- Node4 -->
<g id="node4" class="node">
<title>Node4</title>
<g id="a_node4"><a xlink:href="../../d3/db7/classxii_render_pipeline_rtti_converter_context.htm" target="_top" xlink:title=" ">
<polygon fill="white" stroke="black" points="186.5,-0.5 186.5,-30.5 353.5,-30.5 353.5,-0.5 186.5,-0.5"/>
<text text-anchor="start" x="194.5" y="-18.5" font-family="Helvetica,sans-Serif" font-size="10.00">xiiRenderPipelineRttiConverter</text>
<text text-anchor="middle" x="270" y="-7.5" font-family="Helvetica,sans-Serif" font-size="10.00">Context</text>
</a>
</g>
</g>
<!-- Node3&#45;&gt;Node4 -->
<g id="edge3" class="edge">
<title>Node3&#45;&gt;Node4</title>
<path fill="none" stroke="midnightblue" d="M270,-62.41C270,-52.22 270,-39.9 270,-30.59"/>
<polygon fill="midnightblue" stroke="midnightblue" points="266.5,-62.73 270,-72.73 273.5,-62.73 266.5,-62.73"/>
</g>
</g>
</svg>
