<?xml version="1.0" encoding="UTF-8" standalone="no"?>
<!DOCTYPE svg PUBLIC "-//W3C//DTD SVG 1.1//EN"
 "http://www.w3.org/Graphics/SVG/1.1/DTD/svg11.dtd">
<!-- Generated by graphviz version 2.43.0 (0)
 -->
<!-- Title: xiiTask Pages: 1 -->
<svg width="512pt" height="455pt"
 viewBox="0.00 0.00 512.00 455.00" xmlns="http://www.w3.org/2000/svg" xmlns:xlink="http://www.w3.org/1999/xlink">
<g id="graph0" class="graph" transform="scale(1 1) rotate(0) translate(4 451)">
<title>xiiTask</title>
<polygon fill="white" stroke="transparent" points="-4,4 -4,-451 508,-451 508,4 -4,4"/>
<!-- Node1 -->
<g id="node1" class="node">
<title>Node1</title>
<g id="a_node1"><a xlink:title="Base class for custom tasks.">
<polygon fill="#bfbfbf" stroke="black" points="268,-213.5 268,-232.5 318,-232.5 318,-213.5 268,-213.5"/>
<text text-anchor="middle" x="293" y="-220.5" font-family="Helvetica,sans-Serif" font-size="10.00">xiiTask</text>
</a>
</g>
</g>
<!-- Node4 -->
<g id="node4" class="node">
<title>Node4</title>
<g id="a_node4"><a xlink:href="../../dd/dc9/class_array_ptr_task.htm" target="_top" xlink:title=" ">
<polygon fill="white" stroke="black" points="355,-427.5 355,-446.5 503,-446.5 503,-427.5 355,-427.5"/>
<text text-anchor="middle" x="429" y="-434.5" font-family="Helvetica,sans-Serif" font-size="10.00">ArrayPtrTask&lt; ElemType &gt;</text>
</a>
</g>
</g>
<!-- Node1&#45;&gt;Node4 -->
<g id="edge3" class="edge">
<title>Node1&#45;&gt;Node4</title>
<path fill="none" stroke="midnightblue" d="M294.09,-242.96C295.39,-282.34 304.08,-370.38 354,-418 358.03,-421.85 362.73,-424.94 367.77,-427.43"/>
<polygon fill="midnightblue" stroke="midnightblue" points="297.58,-242.73 293.89,-232.8 290.59,-242.87 297.58,-242.73"/>
</g>
<!-- Node5 -->
<g id="node5" class="node">
<title>Node5</title>
<g id="a_node5"><a xlink:title=" ">
<polygon fill="white" stroke="#bfbfbf" points="359,-378 359,-408 499,-408 499,-378 359,-378"/>
<text text-anchor="start" x="367" y="-396" font-family="Helvetica,sans-Serif" font-size="10.00">IndexedTask&lt; IndexType,</text>
<text text-anchor="middle" x="429" y="-385" font-family="Helvetica,sans-Serif" font-size="10.00"> Callback &gt;</text>
</a>
</g>
</g>
<!-- Node1&#45;&gt;Node5 -->
<g id="edge4" class="edge">
<title>Node1&#45;&gt;Node5</title>
<path fill="none" stroke="midnightblue" d="M296.85,-242.65C302.35,-273.59 317.32,-333.69 354,-368 358.16,-371.89 362.95,-375.18 368.04,-377.96"/>
<polygon fill="midnightblue" stroke="midnightblue" points="300.29,-241.98 295.23,-232.67 293.38,-243.1 300.29,-241.98"/>
</g>
<!-- Node6 -->
<g id="node6" class="node">
<title>Node6</title>
<g id="a_node6"><a xlink:href="../../d2/d35/classxii_after_save_document_task.htm" target="_top" xlink:title=" ">
<polygon fill="white" stroke="black" points="355,-339.5 355,-358.5 503,-358.5 503,-339.5 355,-339.5"/>
<text text-anchor="middle" x="429" y="-346.5" font-family="Helvetica,sans-Serif" font-size="10.00">xiiAfterSaveDocumentTask</text>
</a>
</g>
</g>
<!-- Node1&#45;&gt;Node6 -->
<g id="edge5" class="edge">
<title>Node1&#45;&gt;Node6</title>
<path fill="none" stroke="midnightblue" d="M299.68,-242.55C307.74,-266.77 324.86,-307.6 354,-330 359.05,-333.88 364.8,-336.97 370.82,-339.44"/>
<polygon fill="midnightblue" stroke="midnightblue" points="302.93,-241.21 296.6,-232.71 296.25,-243.3 302.93,-241.21"/>
</g>
<!-- Node7 -->
<g id="node7" class="node">
<title>Node7</title>
<g id="a_node7"><a xlink:title=" ">
<polygon fill="white" stroke="#bfbfbf" points="355,-290 355,-320 503,-320 503,-290 355,-290"/>
<text text-anchor="start" x="363" y="-308" font-family="Helvetica,sans-Serif" font-size="10.00">xiiBakedProbesComponent</text>
<text text-anchor="middle" x="429" y="-297" font-family="Helvetica,sans-Serif" font-size="10.00">::RenderDebugViewTask</text>
</a>
</g>
</g>
<!-- Node1&#45;&gt;Node7 -->
<g id="edge6" class="edge">
<title>Node1&#45;&gt;Node7</title>
<path fill="none" stroke="midnightblue" d="M308.53,-240.38C319.81,-252.91 336.44,-269.41 354,-280 360.27,-283.78 367.19,-287.08 374.2,-289.93"/>
<polygon fill="midnightblue" stroke="midnightblue" points="311.15,-238.06 301.94,-232.82 305.87,-242.66 311.15,-238.06"/>
</g>
<!-- Node8 -->
<g id="node8" class="node">
<title>Node8</title>
<g id="a_node8"><a xlink:href="../../d5/deb/classxii_delegate_task.htm" target="_top" xlink:title="A simple task implementation that calls a delegate function.">
<polygon fill="white" stroke="black" points="367.5,-251.5 367.5,-270.5 490.5,-270.5 490.5,-251.5 367.5,-251.5"/>
<text text-anchor="middle" x="429" y="-258.5" font-family="Helvetica,sans-Serif" font-size="10.00">xiiDelegateTask&lt; T &gt;</text>
</a>
</g>
</g>
<!-- Node1&#45;&gt;Node8 -->
<g id="edge7" class="edge">
<title>Node1&#45;&gt;Node8</title>
<path fill="none" stroke="midnightblue" d="M327.78,-234.06C336.31,-236.75 345.47,-239.56 354,-242 365.35,-245.25 377.75,-248.54 389.1,-251.44"/>
<polygon fill="midnightblue" stroke="midnightblue" points="328.73,-230.69 318.14,-230.98 326.6,-237.35 328.73,-230.69"/>
</g>
<!-- Node9 -->
<g id="node9" class="node">
<title>Node9</title>
<g id="a_node9"><a xlink:href="../../d9/d9c/classxii_delegate_task_3_01void_01_4.htm" target="_top" xlink:title=" ">
<polygon fill="white" stroke="black" points="360,-213.5 360,-232.5 498,-232.5 498,-213.5 360,-213.5"/>
<text text-anchor="middle" x="429" y="-220.5" font-family="Helvetica,sans-Serif" font-size="10.00">xiiDelegateTask&lt; void &gt;</text>
</a>
</g>
</g>
<!-- Node1&#45;&gt;Node9 -->
<g id="edge8" class="edge">
<title>Node1&#45;&gt;Node9</title>
<path fill="none" stroke="midnightblue" d="M328.29,-223C338.03,-223 348.98,-223 359.97,-223"/>
<polygon fill="midnightblue" stroke="midnightblue" points="328.27,-219.5 318.27,-223 328.27,-226.5 328.27,-219.5"/>
</g>
<!-- Node10 -->
<g id="node10" class="node">
<title>Node10</title>
<g id="a_node10"><a xlink:title=" ">
<polygon fill="white" stroke="#bfbfbf" points="385.5,-175.5 385.5,-194.5 472.5,-194.5 472.5,-175.5 385.5,-175.5"/>
<text text-anchor="middle" x="429" y="-182.5" font-family="Helvetica,sans-Serif" font-size="10.00">xiiLongOpTask</text>
</a>
</g>
</g>
<!-- Node1&#45;&gt;Node10 -->
<g id="edge9" class="edge">
<title>Node1&#45;&gt;Node10</title>
<path fill="none" stroke="midnightblue" d="M327.78,-211.94C336.31,-209.25 345.47,-206.44 354,-204 365.35,-200.75 377.75,-197.46 389.1,-194.56"/>
<polygon fill="midnightblue" stroke="midnightblue" points="326.6,-208.65 318.14,-215.02 328.73,-215.31 326.6,-208.65"/>
</g>
<!-- Node11 -->
<g id="node11" class="node">
<title>Node11</title>
<g id="a_node11"><a xlink:href="../../d1/d0e/classxii_resource_manager_worker_data_load.htm" target="_top" xlink:title="[internal] Worker task for loading resources (typically from disk).">
<polygon fill="white" stroke="black" points="354,-126 354,-156 504,-156 504,-126 354,-126"/>
<text text-anchor="start" x="362" y="-144" font-family="Helvetica,sans-Serif" font-size="10.00">xiiResourceManagerWorker</text>
<text text-anchor="middle" x="429" y="-133" font-family="Helvetica,sans-Serif" font-size="10.00">DataLoad</text>
</a>
</g>
</g>
<!-- Node1&#45;&gt;Node11 -->
<g id="edge10" class="edge">
<title>Node1&#45;&gt;Node11</title>
<path fill="none" stroke="midnightblue" d="M308.53,-205.62C319.81,-193.09 336.44,-176.59 354,-166 360.27,-162.22 367.19,-158.92 374.2,-156.07"/>
<polygon fill="midnightblue" stroke="midnightblue" points="305.87,-203.34 301.94,-213.18 311.15,-207.94 305.87,-203.34"/>
</g>
<!-- Node12 -->
<g id="node12" class="node">
<title>Node12</title>
<g id="a_node12"><a xlink:href="../../d5/d53/classxii_resource_manager_worker_update_content.htm" target="_top" xlink:title="[internal] Worker task for uploading resource data. Depending on the resource type,...">
<polygon fill="white" stroke="black" points="354,-77 354,-107 504,-107 504,-77 354,-77"/>
<text text-anchor="start" x="362" y="-95" font-family="Helvetica,sans-Serif" font-size="10.00">xiiResourceManagerWorker</text>
<text text-anchor="middle" x="429" y="-84" font-family="Helvetica,sans-Serif" font-size="10.00">UpdateContent</text>
</a>
</g>
</g>
<!-- Node1&#45;&gt;Node12 -->
<g id="edge11" class="edge">
<title>Node1&#45;&gt;Node12</title>
<path fill="none" stroke="midnightblue" d="M299.91,-203.74C308.21,-179.81 325.58,-139.3 354,-116 358.18,-112.58 362.86,-109.63 367.78,-107.11"/>
<polygon fill="midnightblue" stroke="midnightblue" points="296.51,-202.85 296.72,-213.44 303.17,-205.03 296.51,-202.85"/>
</g>
<!-- Node13 -->
<g id="node13" class="node">
<title>Node13</title>
<g id="a_node13"><a xlink:href="../../de/d97/classxii_save_document_task.htm" target="_top" xlink:title=" ">
<polygon fill="white" stroke="black" points="366.5,-38.5 366.5,-57.5 491.5,-57.5 491.5,-38.5 366.5,-38.5"/>
<text text-anchor="middle" x="429" y="-45.5" font-family="Helvetica,sans-Serif" font-size="10.00">xiiSaveDocumentTask</text>
</a>
</g>
</g>
<!-- Node1&#45;&gt;Node13 -->
<g id="edge12" class="edge">
<title>Node1&#45;&gt;Node13</title>
<path fill="none" stroke="midnightblue" d="M295.9,-202.95C300.14,-169.66 313.48,-103.08 354,-67 358.36,-63.12 363.41,-60.01 368.77,-57.52"/>
<polygon fill="midnightblue" stroke="midnightblue" points="292.38,-202.91 294.74,-213.23 299.34,-203.69 292.38,-202.91"/>
</g>
<!-- Node14 -->
<g id="node14" class="node">
<title>Node14</title>
<g id="a_node14"><a xlink:href="../../dd/d69/classxii_update_task.htm" target="_top" xlink:title=" ">
<polygon fill="white" stroke="black" points="386,-0.5 386,-19.5 472,-19.5 472,-0.5 386,-0.5"/>
<text text-anchor="middle" x="429" y="-7.5" font-family="Helvetica,sans-Serif" font-size="10.00">xiiUpdateTask</text>
</a>
</g>
</g>
<!-- Node1&#45;&gt;Node14 -->
<g id="edge13" class="edge">
<title>Node1&#45;&gt;Node14</title>
<path fill="none" stroke="midnightblue" d="M294.12,-203.14C295.48,-163.95 304.28,-76.36 354,-29 362.64,-20.77 374.36,-15.97 385.91,-13.22"/>
<polygon fill="midnightblue" stroke="midnightblue" points="290.62,-203.18 293.9,-213.25 297.62,-203.33 290.62,-203.18"/>
</g>
<!-- Node2 -->
<g id="node2" class="node">
<title>Node2</title>
<g id="a_node2"><a xlink:href="../../d3/dd0/classxii_ref_counted.htm" target="_top" xlink:title="Base class for reference counted objects.">
<polygon fill="white" stroke="black" points="146,-213.5 146,-232.5 232,-232.5 232,-213.5 146,-213.5"/>
<text text-anchor="middle" x="189" y="-220.5" font-family="Helvetica,sans-Serif" font-size="10.00">xiiRefCounted</text>
</a>
</g>
</g>
<!-- Node2&#45;&gt;Node1 -->
<g id="edge1" class="edge">
<title>Node2&#45;&gt;Node1</title>
<path fill="none" stroke="midnightblue" d="M242.17,-223C251.14,-223 260.06,-223 267.83,-223"/>
<polygon fill="midnightblue" stroke="midnightblue" points="242.08,-219.5 232.08,-223 242.08,-226.5 242.08,-219.5"/>
</g>
<!-- Node3 -->
<g id="node3" class="node">
<title>Node3</title>
<g id="a_node3"><a xlink:href="../../d7/df4/classxii_ref_counting_impl.htm" target="_top" xlink:title=" ">
<polygon fill="white" stroke="black" points="0,-213.5 0,-232.5 110,-232.5 110,-213.5 0,-213.5"/>
<text text-anchor="middle" x="55" y="-220.5" font-family="Helvetica,sans-Serif" font-size="10.00">xiiRefCountingImpl</text>
</a>
</g>
</g>
<!-- Node3&#45;&gt;Node2 -->
<g id="edge2" class="edge">
<title>Node3&#45;&gt;Node2</title>
<path fill="none" stroke="midnightblue" d="M120.25,-223C128.98,-223 137.74,-223 145.93,-223"/>
<polygon fill="midnightblue" stroke="midnightblue" points="120.07,-219.5 110.07,-223 120.07,-226.5 120.07,-219.5"/>
</g>
</g>
</svg>
