<?xml version="1.0" encoding="UTF-8" standalone="no"?>
<!DOCTYPE svg PUBLIC "-//W3C//DTD SVG 1.1//EN"
 "http://www.w3.org/Graphics/SVG/1.1/DTD/svg11.dtd">
<!-- Generated by graphviz version 2.43.0 (0)
 -->
<!-- Title: xiiDataDirectoryReaderWriterBase Pages: 1 -->
<!--zoomable 134 -->

<svg id="main" version="1.1" xmlns="http://www.w3.org/2000/svg" xmlns:xlink="http://www.w3.org/1999/xlink" xml:space="preserve" onload="init(evt)">
<style type="text/css"><![CDATA[
.node, .edge {opacity: 0.7;}
.node.selected, .edge.selected {opacity: 1;}
.edge:hover path { stroke: red; }
.edge:hover polygon { stroke: red; fill: red; }
]]></style>

<defs>
  <circle id="rim" cx="0" cy="0" r="7"/>
  <circle id="rim2" cx="0" cy="0" r="3.5"/>
  <g id="zoomPlus">
    <use xlink:href="#rim" fill="#404040"><set attributeName="fill" to="#808080" begin="zoomplus.mouseover" end="zoomplus.mouseout"/></use>
    <path d="M-4,0h8M0,-4v8" fill="none" stroke="white" stroke-width="1.5" pointer-events="none"/>
  </g>
  <g id="zoomMin">
    <use xlink:href="#rim" fill="#404040"><set attributeName="fill" to="#808080" begin="zoomminus.mouseover" end="zoomminus.mouseout"/></use>
    <path d="M-4,0h8" fill="none" stroke="white" stroke-width="1.5" pointer-events="none"/>
  </g>
  <g id="arrowUp" transform="translate(30 24)">
    <use xlink:href="#rim"/>
    <path pointer-events="none" fill="none" stroke="white" stroke-width="1.5" d="M0,-3.0v7 M-2.5,-0.5L0,-3.0L2.5,-0.5"/>
  </g>
  <g id="arrowRight" transform="rotate(90) translate(36 -43)">
    <use xlink:href="#rim"/>
    <path pointer-events="none" fill="none" stroke="white" stroke-width="1.5" d="M0,-3.0v7 M-2.5,-0.5L0,-3.0L2.5,-0.5"/>
  </g>
  <g id="arrowDown" transform="rotate(180) translate(-30 -48)">
    <use xlink:href="#rim"/>
    <path pointer-events="none" fill="none" stroke="white" stroke-width="1.5" d="M0,-3.0v7 M-2.5,-0.5L0,-3.0L2.5,-0.5"/>
  </g>
  <g id="arrowLeft" transform="rotate(270) translate(-36 17)">
    <use xlink:href="#rim"/>
    <path pointer-events="none" fill="none" stroke="white" stroke-width="1.5" d="M0,-3.0v7 M-2.5,-0.5L0,-3.0L2.5,-0.5"/>
  </g>
  <g id="resetDef">
    <use xlink:href="#rim2" fill="#404040"><set attributeName="fill" to="#808080" begin="reset.mouseover" end="reset.mouseout"/></use>
  </g>
</defs>
<script type="application/ecmascript">
var viewWidth = 717;
var viewHeight = 134;
var sectionId = 'dynsection-0';
</script>
<script type="application/ecmascript" xlink:href="../../svg.min.js"/>
<svg id="graph" class="graph">
<g id="viewport">
<title>xiiDataDirectoryReaderWriterBase</title>
<!-- Node1 -->
<g id="Node000001" class="node">
<title>Node1</title>
<g id="a_Node000001"><a xlink:title="This is the base class for all data directory readers/writers.">
<polygon fill="#999999" stroke="#666666" points="185,-48.5 0,-48.5 0,-29.5 185,-29.5 185,-48.5"/>
<text text-anchor="middle" x="92.5" y="-36.5" font-family="Helvetica,sans-Serif" font-size="10.00">xiiDataDirectoryReaderWriterBase</text>
</a>
</g>
</g>
<!-- Node2 -->
<g id="Node000002" class="node">
<title>Node2</title>
<g id="a_Node000002"><a xlink:href="../../de/d3d/classxii_data_directory_reader.html" target="_top" xlink:title="A base class for readers that handle reading from a (virtual) file inside a data directory.">
<polygon fill="white" stroke="#666666" points="352,-72.5 221,-72.5 221,-53.5 352,-53.5 352,-72.5"/>
<text text-anchor="middle" x="286.5" y="-60.5" font-family="Helvetica,sans-Serif" font-size="10.00">xiiDataDirectoryReader</text>
</a>
</g>
</g>
<!-- Node1&#45;&gt;Node2 -->
<g id="edge1_Node000001_Node000002" class="edge">
<title>Node1&#45;&gt;Node2</title>
<g id="a_edge1_Node000001_Node000002"><a xlink:title=" ">
<path fill="none" stroke="#63b8ff" d="M179.68,-49.77C193.53,-51.5 207.66,-53.27 220.89,-54.92"/>
<polygon fill="#63b8ff" stroke="#63b8ff" points="180.02,-46.29 169.66,-48.52 179.15,-53.23 180.02,-46.29"/>
</a>
</g>
</g>
<!-- Node7 -->
<g id="Node000007" class="node">
<title>Node7</title>
<g id="a_Node000007"><a xlink:href="../../d3/dd7/classxii_data_directory_writer.html" target="_top" xlink:title="A base class for writers that handle writing to a (virtual) file inside a data directory.">
<polygon fill="white" stroke="#666666" points="350,-30.5 223,-30.5 223,-11.5 350,-11.5 350,-30.5"/>
<text text-anchor="middle" x="286.5" y="-18.5" font-family="Helvetica,sans-Serif" font-size="10.00">xiiDataDirectoryWriter</text>
</a>
</g>
</g>
<!-- Node1&#45;&gt;Node7 -->
<g id="edge6_Node000001_Node000007" class="edge">
<title>Node1&#45;&gt;Node7</title>
<g id="a_edge6_Node000001_Node000007"><a xlink:title=" ">
<path fill="none" stroke="#63b8ff" d="M195.24,-29.46C204.67,-28.58 214.03,-27.7 222.94,-26.87"/>
<polygon fill="#63b8ff" stroke="#63b8ff" points="194.63,-26 185,-30.42 195.28,-32.97 194.63,-26"/>
</a>
</g>
</g>
<!-- Node3 -->
<g id="Node000003" class="node">
<title>Node3</title>
<g id="a_Node000003"><a xlink:href="../../db/d24/classxii_data_directory_1_1_archive_reader_common.html" target="_top" xlink:title=" ">
<polygon fill="white" stroke="#bfbfbf" points="527,-126 388,-126 388,-96 527,-96 527,-126"/>
<text text-anchor="start" x="396" y="-114" font-family="Helvetica,sans-Serif" font-size="10.00">xiiDataDirectory::Archive</text>
<text text-anchor="middle" x="457.5" y="-103" font-family="Helvetica,sans-Serif" font-size="10.00">ReaderCommon</text>
</a>
</g>
</g>
<!-- Node2&#45;&gt;Node3 -->
<g id="edge2_Node000002_Node000003" class="edge">
<title>Node2&#45;&gt;Node3</title>
<g id="a_edge2_Node000002_Node000003"><a xlink:title=" ">
<path fill="none" stroke="#63b8ff" d="M331.07,-75.37C353.16,-81.65 380.17,-89.32 403.47,-95.94"/>
<polygon fill="#63b8ff" stroke="#63b8ff" points="331.87,-71.96 321.29,-72.6 329.96,-78.7 331.87,-71.96"/>
</a>
</g>
</g>
<!-- Node5 -->
<g id="Node000005" class="node">
<title>Node5</title>
<g id="a_Node000005"><a xlink:href="../../da/d76/classxii_data_directory_1_1_folder_reader.html" target="_top" xlink:title="Handles reading from ordinary files.">
<polygon fill="white" stroke="#666666" points="523.5,-78 391.5,-78 391.5,-48 523.5,-48 523.5,-78"/>
<text text-anchor="start" x="399.5" y="-66" font-family="Helvetica,sans-Serif" font-size="10.00">xiiDataDirectory::Folder</text>
<text text-anchor="middle" x="457.5" y="-55" font-family="Helvetica,sans-Serif" font-size="10.00">Reader</text>
</a>
</g>
</g>
<!-- Node2&#45;&gt;Node5 -->
<g id="edge4_Node000002_Node000005" class="edge">
<title>Node2&#45;&gt;Node5</title>
<g id="a_edge4_Node000002_Node000005"><a xlink:title=" ">
<path fill="none" stroke="#63b8ff" d="M362.63,-63C372.18,-63 381.88,-63 391.26,-63"/>
<polygon fill="#63b8ff" stroke="#63b8ff" points="362.36,-59.5 352.36,-63 362.36,-66.5 362.36,-59.5"/>
</a>
</g>
</g>
<!-- Node4 -->
<g id="Node000004" class="node">
<title>Node4</title>
<g id="a_Node000004"><a xlink:href="../../dd/d1d/classxii_data_directory_1_1_archive_reader_uncompressed.html" target="_top" xlink:title=" ">
<polygon fill="white" stroke="#bfbfbf" points="705.5,-126 566.5,-126 566.5,-96 705.5,-96 705.5,-126"/>
<text text-anchor="start" x="574.5" y="-114" font-family="Helvetica,sans-Serif" font-size="10.00">xiiDataDirectory::Archive</text>
<text text-anchor="middle" x="636" y="-103" font-family="Helvetica,sans-Serif" font-size="10.00">ReaderUncompressed</text>
</a>
</g>
</g>
<!-- Node3&#45;&gt;Node4 -->
<g id="edge3_Node000003_Node000004" class="edge">
<title>Node3&#45;&gt;Node4</title>
<g id="a_edge3_Node000003_Node000004"><a xlink:title=" ">
<path fill="none" stroke="#63b8ff" d="M537.3,-111C547.02,-111 556.89,-111 566.44,-111"/>
<polygon fill="#63b8ff" stroke="#63b8ff" points="537.24,-107.5 527.24,-111 537.24,-114.5 537.24,-107.5"/>
</a>
</g>
</g>
<!-- Node6 -->
<g id="Node000006" class="node">
<title>Node6</title>
<g id="a_Node000006"><a xlink:href="../../d4/d69/classxii_data_directory_1_1_fileserve_data_directory_reader.html" target="_top" xlink:title=" ">
<polygon fill="white" stroke="#bfbfbf" points="709,-78 563,-78 563,-48 709,-48 709,-78"/>
<text text-anchor="start" x="571" y="-66" font-family="Helvetica,sans-Serif" font-size="10.00">xiiDataDirectory::Fileserve</text>
<text text-anchor="middle" x="636" y="-55" font-family="Helvetica,sans-Serif" font-size="10.00">DataDirectoryReader</text>
</a>
</g>
</g>
<!-- Node5&#45;&gt;Node6 -->
<g id="edge5_Node000005_Node000006" class="edge">
<title>Node5&#45;&gt;Node6</title>
<g id="a_edge5_Node000005_Node000006"><a xlink:title=" ">
<path fill="none" stroke="#63b8ff" d="M534.02,-63C543.6,-63 553.39,-63 562.92,-63"/>
<polygon fill="#63b8ff" stroke="#63b8ff" points="533.72,-59.5 523.72,-63 533.72,-66.5 533.72,-59.5"/>
</a>
</g>
</g>
<!-- Node8 -->
<g id="Node000008" class="node">
<title>Node8</title>
<g id="a_Node000008"><a xlink:href="../../d0/d0b/classxii_data_directory_1_1_folder_writer.html" target="_top" xlink:title="Handles writing to ordinary files.">
<polygon fill="white" stroke="#666666" points="523.5,-30 391.5,-30 391.5,0 523.5,0 523.5,-30"/>
<text text-anchor="start" x="399.5" y="-18" font-family="Helvetica,sans-Serif" font-size="10.00">xiiDataDirectory::Folder</text>
<text text-anchor="middle" x="457.5" y="-7" font-family="Helvetica,sans-Serif" font-size="10.00">Writer</text>
</a>
</g>
</g>
<!-- Node7&#45;&gt;Node8 -->
<g id="edge7_Node000007_Node000008" class="edge">
<title>Node7&#45;&gt;Node8</title>
<g id="a_edge7_Node000007_Node000008"><a xlink:title=" ">
<path fill="none" stroke="#63b8ff" d="M360.55,-18.41C370.76,-18.04 381.2,-17.67 391.26,-17.32"/>
<polygon fill="#63b8ff" stroke="#63b8ff" points="360.3,-14.91 350.43,-18.77 360.55,-21.91 360.3,-14.91"/>
</a>
</g>
</g>
<!-- Node9 -->
<g id="Node000009" class="node">
<title>Node9</title>
<g id="a_Node000009"><a xlink:href="../../d5/d1d/classxii_data_directory_1_1_fileserve_data_directory_writer.html" target="_top" xlink:title=" ">
<polygon fill="white" stroke="#bfbfbf" points="709,-30 563,-30 563,0 709,0 709,-30"/>
<text text-anchor="start" x="571" y="-18" font-family="Helvetica,sans-Serif" font-size="10.00">xiiDataDirectory::Fileserve</text>
<text text-anchor="middle" x="636" y="-7" font-family="Helvetica,sans-Serif" font-size="10.00">DataDirectoryWriter</text>
</a>
</g>
</g>
<!-- Node8&#45;&gt;Node9 -->
<g id="edge8_Node000008_Node000009" class="edge">
<title>Node8&#45;&gt;Node9</title>
<g id="a_edge8_Node000008_Node000009"><a xlink:title=" ">
<path fill="none" stroke="#63b8ff" d="M534.02,-15C543.6,-15 553.39,-15 562.92,-15"/>
<polygon fill="#63b8ff" stroke="#63b8ff" points="533.72,-11.5 523.72,-15 533.72,-18.5 533.72,-11.5"/>
</a>
</g>
</g>
</g>
</svg>

<g id="navigator" transform="translate(0 0)" fill="#404254">
  <rect fill="#f2f5e9" fill-opacity="0.5" stroke="#606060" stroke-width=".5" x="0" y="0" width="60" height="60"/>
  <use id="zoomplus" xlink:href="#zoomPlus" x="17" y="9" onmousedown="handleZoom(evt,'in')"/>
  <use id="zoomminus" xlink:href="#zoomMin" x="42" y="9" onmousedown="handleZoom(evt,'out')"/>
  <use id="reset" xlink:href="#resetDef" x="30" y="36" onmousedown="handleReset()"/>
   <use id="arrowup" xlink:href="#arrowUp" x="0" y="0" onmousedown="handlePan(0,-1)"/>
  <use id="arrowright" xlink:href="#arrowRight" x="0" y="0" onmousedown="handlePan(1,0)"/>
  <use id="arrowdown" xlink:href="#arrowDown" x="0" y="0" onmousedown="handlePan(0,1)"/>
  <use id="arrowleft" xlink:href="#arrowLeft" x="0" y="0" onmousedown="handlePan(-1,0)"/>
</g>
<svg viewBox="0 0 15 15" width="100%" height="30px" preserveAspectRatio="xMaxYMin meet">
 <g id="arrow_out" transform="scale(0.3 0.3)">
  <a xlink:href="classxii_data_directory_reader_writer_base__inherit__graph_org.svg" target="_base">
   <rect id="button" ry="5" rx="5" y="6" x="6" height="38" width="38"
        fill="#f2f5e9" fill-opacity="0.5" stroke="#606060" stroke-width="1.0"/>
   <path id="arrow"
     d="M 11.500037,31.436501 C 11.940474,20.09759 22.043105,11.32322 32.158766,21.979434 L 37.068811,17.246167 C 37.068811,17.246167 37.088388,32 37.088388,32 L 22.160133,31.978069 C 22.160133,31.978069 26.997745,27.140456 26.997745,27.140456 C 18.528582,18.264221 13.291696,25.230495 11.500037,31.436501 z"
     style="fill:#404040;"/>
  </a>
 </g>
</svg>

<style type='text/css'>
<![CDATA[
[data-mouse-over-selected='false'] { opacity: 0.7; }
[data-mouse-over-selected='true']  { opacity: 1.0; }
]]>
</style>
<script type="application/ecmascript"><![CDATA[
document.addEventListener('DOMContentLoaded', (event) => {
  highlightEdges();
  highlightAdjacentNodes();
});
]]></script>
</svg>
