<?xml version="1.0" encoding="UTF-8" standalone="no"?>
<!DOCTYPE svg PUBLIC "-//W3C//DTD SVG 1.1//EN"
 "http://www.w3.org/Graphics/SVG/1.1/DTD/svg11.dtd">
<!-- Generated by graphviz version 2.43.0 (0)
 -->
<!-- Title: xiiDataDirectoryReaderWriterBase Pages: 1 -->
<!--zoomable 137 -->
<svg id="main" version="1.1" xmlns="http://www.w3.org/2000/svg" xmlns:xlink="http://www.w3.org/1999/xlink" xml:space="preserve" onload="init(evt)">
<style type="text/css"><![CDATA[
.edge:hover path { stroke: red; }
.edge:hover polygon { stroke: red; fill: red; }
]]></style>
<script type="text/javascript"><![CDATA[
var edges = document.getElementsByTagName('g');
if (edges && edges.length) {
  for (var i=0;i<edges.length;i++) {
    if (edges[i].id.substr(0,4)=='edge') {
      edges[i].setAttribute('class','edge');
    }
  }
}
]]></script>
        <defs>
                <circle id="rim" cx="0" cy="0" r="7"/>
                <circle id="rim2" cx="0" cy="0" r="3.5"/>
                <g id="zoomPlus">
                        <use xlink:href="#rim" fill="#404040">
                                <set attributeName="fill" to="#808080" begin="zoomplus.mouseover" end="zoomplus.mouseout"/>
                        </use>
                        <path d="M-4,0h8M0,-4v8" fill="none" stroke="white" stroke-width="1.5" pointer-events="none"/>
                </g>
                <g id="zoomMin">
                        <use xlink:href="#rim" fill="#404040">
                                <set attributeName="fill" to="#808080" begin="zoomminus.mouseover" end="zoomminus.mouseout"/>
                        </use>
                        <path d="M-4,0h8" fill="none" stroke="white" stroke-width="1.5" pointer-events="none"/>
                </g>
                <g id="dirArrow">
                        <path fill="none" stroke="white" stroke-width="1.5" d="M0,-3.0v7 M-2.5,-0.5L0,-3.0L2.5,-0.5"/>
                </g>
               <g id="resetDef">
                       <use xlink:href="#rim2" fill="#404040">
                               <set attributeName="fill" to="#808080" begin="reset.mouseover" end="reset.mouseout"/>
                       </use>
               </g>
        </defs>

<script type="text/javascript">
var viewWidth = 717;
var viewHeight = 137;
var sectionId = 'dynsection-0';
</script>
<script xlink:href="../../svgpan.js"/>
<svg id="graph" class="graph">
<g id="viewport">
<title>xiiDataDirectoryReaderWriterBase</title>
<polygon fill="white" stroke="transparent" points="-4,4 -4,-133 713,-133 713,4 -4,4"/>
<!-- Node1 -->
<g id="node1" class="node">
<title>Node1</title>
<g id="a_node1"><a xlink:title="This is the base class for all data directory readers/writers.">
<polygon fill="#bfbfbf" stroke="black" points="0,-31 0,-50 185,-50 185,-31 0,-31"/>
<text text-anchor="middle" x="92.5" y="-38" font-family="Helvetica,sans-Serif" font-size="10.00">xiiDataDirectoryReaderWriterBase</text>
</a>
</g>
</g>
<!-- Node2 -->
<g id="node2" class="node">
<title>Node2</title>
<g id="a_node2"><a xlink:href="../../de/d3d/classxii_data_directory_reader.htm" target="_top" xlink:title="A base class for readers that handle reading from a (virtual) file inside a data directory.">
<polygon fill="white" stroke="black" points="221,-55 221,-74 352,-74 352,-55 221,-55"/>
<text text-anchor="middle" x="286.5" y="-62" font-family="Helvetica,sans-Serif" font-size="10.00">xiiDataDirectoryReader</text>
</a>
</g>
</g>
<!-- Node1&#45;&gt;Node2 -->
<g id="edge1" class="edge">
<title>Node1&#45;&gt;Node2</title>
<path fill="none" stroke="midnightblue" d="M179.68,-51.27C193.53,-53 207.66,-54.77 220.89,-56.42"/>
<polygon fill="midnightblue" stroke="midnightblue" points="180.02,-47.79 169.66,-50.02 179.15,-54.73 180.02,-47.79"/>
</g>
<!-- Node7 -->
<g id="node7" class="node">
<title>Node7</title>
<g id="a_node7"><a xlink:href="../../d3/dd7/classxii_data_directory_writer.htm" target="_top" xlink:title="A base class for writers that handle writing to a (virtual) file inside a data directory.">
<polygon fill="white" stroke="black" points="223,-12 223,-31 350,-31 350,-12 223,-12"/>
<text text-anchor="middle" x="286.5" y="-19" font-family="Helvetica,sans-Serif" font-size="10.00">xiiDataDirectoryWriter</text>
</a>
</g>
</g>
<!-- Node1&#45;&gt;Node7 -->
<g id="edge6" class="edge">
<title>Node1&#45;&gt;Node7</title>
<path fill="none" stroke="midnightblue" d="M195.24,-30.43C204.67,-29.5 214.03,-28.57 222.94,-27.69"/>
<polygon fill="midnightblue" stroke="midnightblue" points="194.61,-26.98 185,-31.45 195.3,-33.94 194.61,-26.98"/>
</g>
<!-- Node3 -->
<g id="node3" class="node">
<title>Node3</title>
<g id="a_node3"><a xlink:href="../../db/d24/classxii_data_directory_1_1_archive_reader_common.htm" target="_top" xlink:title=" ">
<polygon fill="white" stroke="black" points="388,-98.5 388,-128.5 527,-128.5 527,-98.5 388,-98.5"/>
<text text-anchor="start" x="396" y="-116.5" font-family="Helvetica,sans-Serif" font-size="10.00">xiiDataDirectory::Archive</text>
<text text-anchor="middle" x="457.5" y="-105.5" font-family="Helvetica,sans-Serif" font-size="10.00">ReaderCommon</text>
</a>
</g>
</g>
<!-- Node2&#45;&gt;Node3 -->
<g id="edge2" class="edge">
<title>Node2&#45;&gt;Node3</title>
<path fill="none" stroke="midnightblue" d="M330.15,-76.87C352.78,-83.43 380.76,-91.54 404.64,-98.46"/>
<polygon fill="midnightblue" stroke="midnightblue" points="331.07,-73.49 320.49,-74.06 329.12,-80.21 331.07,-73.49"/>
</g>
<!-- Node5 -->
<g id="node5" class="node">
<title>Node5</title>
<g id="a_node5"><a xlink:href="../../da/d76/classxii_data_directory_1_1_folder_reader.htm" target="_top" xlink:title="Handles reading from ordinary files.">
<polygon fill="white" stroke="black" points="391.5,-49.5 391.5,-79.5 523.5,-79.5 523.5,-49.5 391.5,-49.5"/>
<text text-anchor="start" x="399.5" y="-67.5" font-family="Helvetica,sans-Serif" font-size="10.00">xiiDataDirectory::Folder</text>
<text text-anchor="middle" x="457.5" y="-56.5" font-family="Helvetica,sans-Serif" font-size="10.00">Reader</text>
</a>
</g>
</g>
<!-- Node2&#45;&gt;Node5 -->
<g id="edge4" class="edge">
<title>Node2&#45;&gt;Node5</title>
<path fill="none" stroke="midnightblue" d="M362.63,-64.5C372.18,-64.5 381.88,-64.5 391.26,-64.5"/>
<polygon fill="midnightblue" stroke="midnightblue" points="362.36,-61 352.36,-64.5 362.36,-68 362.36,-61"/>
</g>
<!-- Node4 -->
<g id="node4" class="node">
<title>Node4</title>
<g id="a_node4"><a xlink:href="../../dd/d1d/classxii_data_directory_1_1_archive_reader_uncompressed.htm" target="_top" xlink:title=" ">
<polygon fill="white" stroke="black" points="566.5,-98.5 566.5,-128.5 705.5,-128.5 705.5,-98.5 566.5,-98.5"/>
<text text-anchor="start" x="574.5" y="-116.5" font-family="Helvetica,sans-Serif" font-size="10.00">xiiDataDirectory::Archive</text>
<text text-anchor="middle" x="636" y="-105.5" font-family="Helvetica,sans-Serif" font-size="10.00">ReaderUncompressed</text>
</a>
</g>
</g>
<!-- Node3&#45;&gt;Node4 -->
<g id="edge3" class="edge">
<title>Node3&#45;&gt;Node4</title>
<path fill="none" stroke="midnightblue" d="M537.3,-113.5C547.02,-113.5 556.89,-113.5 566.44,-113.5"/>
<polygon fill="midnightblue" stroke="midnightblue" points="537.24,-110 527.24,-113.5 537.24,-117 537.24,-110"/>
</g>
<!-- Node6 -->
<g id="node6" class="node">
<title>Node6</title>
<g id="a_node6"><a xlink:href="../../d4/d69/classxii_data_directory_1_1_fileserve_data_directory_reader.htm" target="_top" xlink:title=" ">
<polygon fill="white" stroke="black" points="563,-49.5 563,-79.5 709,-79.5 709,-49.5 563,-49.5"/>
<text text-anchor="start" x="571" y="-67.5" font-family="Helvetica,sans-Serif" font-size="10.00">xiiDataDirectory::Fileserve</text>
<text text-anchor="middle" x="636" y="-56.5" font-family="Helvetica,sans-Serif" font-size="10.00">DataDirectoryReader</text>
</a>
</g>
</g>
<!-- Node5&#45;&gt;Node6 -->
<g id="edge5" class="edge">
<title>Node5&#45;&gt;Node6</title>
<path fill="none" stroke="midnightblue" d="M534.02,-64.5C543.6,-64.5 553.39,-64.5 562.92,-64.5"/>
<polygon fill="midnightblue" stroke="midnightblue" points="533.72,-61 523.72,-64.5 533.72,-68 533.72,-61"/>
</g>
<!-- Node8 -->
<g id="node8" class="node">
<title>Node8</title>
<g id="a_node8"><a xlink:href="../../d0/d0b/classxii_data_directory_1_1_folder_writer.htm" target="_top" xlink:title="Handles writing to ordinary files.">
<polygon fill="white" stroke="black" points="391.5,-0.5 391.5,-30.5 523.5,-30.5 523.5,-0.5 391.5,-0.5"/>
<text text-anchor="start" x="399.5" y="-18.5" font-family="Helvetica,sans-Serif" font-size="10.00">xiiDataDirectory::Folder</text>
<text text-anchor="middle" x="457.5" y="-7.5" font-family="Helvetica,sans-Serif" font-size="10.00">Writer</text>
</a>
</g>
</g>
<!-- Node7&#45;&gt;Node8 -->
<g id="edge7" class="edge">
<title>Node7&#45;&gt;Node8</title>
<path fill="none" stroke="midnightblue" d="M360.55,-18.91C370.76,-18.54 381.2,-18.17 391.26,-17.82"/>
<polygon fill="midnightblue" stroke="midnightblue" points="360.3,-15.41 350.43,-19.27 360.55,-22.41 360.3,-15.41"/>
</g>
<!-- Node9 -->
<g id="node9" class="node">
<title>Node9</title>
<g id="a_node9"><a xlink:href="../../d5/d1d/classxii_data_directory_1_1_fileserve_data_directory_writer.htm" target="_top" xlink:title=" ">
<polygon fill="white" stroke="black" points="563,-0.5 563,-30.5 709,-30.5 709,-0.5 563,-0.5"/>
<text text-anchor="start" x="571" y="-18.5" font-family="Helvetica,sans-Serif" font-size="10.00">xiiDataDirectory::Fileserve</text>
<text text-anchor="middle" x="636" y="-7.5" font-family="Helvetica,sans-Serif" font-size="10.00">DataDirectoryWriter</text>
</a>
</g>
</g>
<!-- Node8&#45;&gt;Node9 -->
<g id="edge8" class="edge">
<title>Node8&#45;&gt;Node9</title>
<path fill="none" stroke="midnightblue" d="M534.02,-15.5C543.6,-15.5 553.39,-15.5 562.92,-15.5"/>
<polygon fill="midnightblue" stroke="midnightblue" points="533.72,-12 523.72,-15.5 533.72,-19 533.72,-12"/>
</g>
</g>
</svg>
        <g id="navigator" transform="translate(0 0)" fill="#404254">
                <rect fill="#f2f5e9" fill-opacity="0.5" stroke="#606060" stroke-width=".5" x="0" y="0" width="60" height="60"/>
                <use id="zoomplus" xlink:href="#zoomPlus" x="17" y="9" onmousedown="handleZoom(evt,'in')"/>
                <use id="zoomminus" xlink:href="#zoomMin" x="42" y="9" onmousedown="handleZoom(evt,'out')"/>
                <use id="reset" xlink:href="#resetDef" x="30" y="36" onmousedown="handleReset()"/>
                <g id="arrowUp" xlink:href="#dirArrow" transform="translate(30 24)" onmousedown="handlePan(0,-1)">
                  <use xlink:href="#rim" fill="#404040">
                        <set attributeName="fill" to="#808080" begin="arrowUp.mouseover" end="arrowUp.mouseout"/>
                  </use>
                  <path fill="none" stroke="white" stroke-width="1.5" d="M0,-3.0v7 M-2.5,-0.5L0,-3.0L2.5,-0.5"/>
                </g>
                <g id="arrowRight" xlink:href="#dirArrow" transform="rotate(90) translate(36 -43)" onmousedown="handlePan(1,0)">
                  <use xlink:href="#rim" fill="#404040">
                        <set attributeName="fill" to="#808080" begin="arrowRight.mouseover" end="arrowRight.mouseout"/>
                  </use>
                  <path fill="none" stroke="white" stroke-width="1.5" d="M0,-3.0v7 M-2.5,-0.5L0,-3.0L2.5,-0.5"/>
                </g>
                <g id="arrowDown" xlink:href="#dirArrow" transform="rotate(180) translate(-30 -48)" onmousedown="handlePan(0,1)">
                  <use xlink:href="#rim" fill="#404040">
                        <set attributeName="fill" to="#808080" begin="arrowDown.mouseover" end="arrowDown.mouseout"/>
                  </use>
                  <path fill="none" stroke="white" stroke-width="1.5" d="M0,-3.0v7 M-2.5,-0.5L0,-3.0L2.5,-0.5"/>
                </g>
                <g id="arrowLeft" xlink:href="#dirArrow" transform="rotate(270) translate(-36 17)" onmousedown="handlePan(-1,0)">
                  <use xlink:href="#rim" fill="#404040">
                        <set attributeName="fill" to="#808080" begin="arrowLeft.mouseover" end="arrowLeft.mouseout"/>
                  </use>
                  <path fill="none" stroke="white" stroke-width="1.5" d="M0,-3.0v7 M-2.5,-0.5L0,-3.0L2.5,-0.5"/>
                </g>
        </g>
        <svg viewBox="0 0 15 15" width="100%" height="30px" preserveAspectRatio="xMaxYMin meet">
         <g id="arrow_out" transform="scale(0.3 0.3)">
          <a xlink:href="classxii_data_directory_reader_writer_base__inherit__graph_org.svg" target="_base">
           <rect id="button" ry="5" rx="5" y="6" x="6" height="38" width="38"
                fill="#f2f5e9" fill-opacity="0.5" stroke="#606060" stroke-width="1.0"/>
           <path id="arrow"
             d="M 11.500037,31.436501 C 11.940474,20.09759 22.043105,11.32322 32.158766,21.979434 L 37.068811,17.246167 C 37.068811,17.246167 37.088388,32 37.088388,32 L 22.160133,31.978069 C 22.160133,31.978069 26.997745,27.140456 26.997745,27.140456 C 18.528582,18.264221 13.291696,25.230495 11.500037,31.436501 z"
             style="fill:#404040;"/>
          </a>
         </g>
        </svg>
</svg>
