<?xml version="1.0" encoding="UTF-8" standalone="no"?>
<!DOCTYPE svg PUBLIC "-//W3C//DTD SVG 1.1//EN"
 "http://www.w3.org/Graphics/SVG/1.1/DTD/svg11.dtd">
<!-- Generated by graphviz version 2.43.0 (0)
 -->
<!-- Title: xiiTask Pages: 1 -->
<svg width="512pt" height="444pt"
 viewBox="0.00 0.00 512.00 444.00" xmlns="http://www.w3.org/2000/svg" xmlns:xlink="http://www.w3.org/1999/xlink">
<g id="graph0" class="graph" transform="scale(1 1) rotate(0) translate(4 440)">
<title>xiiTask</title>
<!-- Node1 -->
<g id="Node000001" class="node">
<title>Node1</title>
<g id="a_Node000001"><a xlink:title="Base class for custom tasks.">
<polygon fill="#999999" stroke="#666666" points="318,-227 268,-227 268,-208 318,-208 318,-227"/>
<text text-anchor="middle" x="293" y="-215" font-family="Helvetica,sans-Serif" font-size="10.00">xiiTask</text>
</a>
</g>
</g>
<!-- Node4 -->
<g id="Node000004" class="node">
<title>Node4</title>
<g id="a_Node000004"><a xlink:href="../../dd/dc9/class_array_ptr_task.htm" target="_top" xlink:title=" ">
<polygon fill="white" stroke="#bfbfbf" points="503,-436 355,-436 355,-417 503,-417 503,-436"/>
<text text-anchor="middle" x="429" y="-424" font-family="Helvetica,sans-Serif" font-size="10.00">ArrayPtrTask&lt; ElemType &gt;</text>
</a>
</g>
</g>
<!-- Node1&#45;&gt;Node4 -->
<g id="edge3_Node000001_Node000004" class="edge">
<title>Node1&#45;&gt;Node4</title>
<g id="a_edge3_Node000001_Node000004"><a xlink:title=" ">
<path fill="none" stroke="#63b8ff" d="M294.28,-237.45C295.95,-276.09 305.29,-361.37 354,-407.5 358.05,-411.33 362.75,-414.42 367.8,-416.9"/>
<polygon fill="#63b8ff" stroke="#63b8ff" points="297.77,-236.95 293.97,-227.05 290.77,-237.15 297.77,-236.95"/>
</a>
</g>
</g>
<!-- Node5 -->
<g id="Node000005" class="node">
<title>Node5</title>
<g id="a_Node000005"><a xlink:title=" ">
<polygon fill="white" stroke="#666666" points="499,-398.5 359,-398.5 359,-368.5 499,-368.5 499,-398.5"/>
<text text-anchor="start" x="367" y="-386.5" font-family="Helvetica,sans-Serif" font-size="10.00">IndexedTask&lt; IndexType,</text>
<text text-anchor="middle" x="429" y="-375.5" font-family="Helvetica,sans-Serif" font-size="10.00"> Callback &gt;</text>
</a>
</g>
</g>
<!-- Node1&#45;&gt;Node5 -->
<g id="edge4_Node000001_Node000005" class="edge">
<title>Node1&#45;&gt;Node5</title>
<g id="a_edge4_Node000001_Node000005"><a xlink:title=" ">
<path fill="none" stroke="#63b8ff" d="M297.01,-237.24C302.68,-267.76 317.82,-326.31 354,-359.5 357.78,-362.97 362.07,-365.94 366.64,-368.48"/>
<polygon fill="#63b8ff" stroke="#63b8ff" points="300.45,-236.64 295.32,-227.37 293.55,-237.82 300.45,-236.64"/>
</a>
</g>
</g>
<!-- Node6 -->
<g id="Node000006" class="node">
<title>Node6</title>
<g id="a_Node000006"><a xlink:href="../../d2/d35/classxii_after_save_document_task.htm" target="_top" xlink:title=" ">
<polygon fill="white" stroke="#bfbfbf" points="503,-350 355,-350 355,-331 503,-331 503,-350"/>
<text text-anchor="middle" x="429" y="-338" font-family="Helvetica,sans-Serif" font-size="10.00">xiiAfterSaveDocumentTask</text>
</a>
</g>
</g>
<!-- Node1&#45;&gt;Node6 -->
<g id="edge5_Node000001_Node000006" class="edge">
<title>Node1&#45;&gt;Node6</title>
<g id="a_edge5_Node000001_Node000006"><a xlink:title=" ">
<path fill="none" stroke="#63b8ff" d="M299.96,-236.86C308.24,-260.46 325.49,-299.86 354,-321.5 359.07,-325.35 364.84,-328.42 370.87,-330.88"/>
<polygon fill="#63b8ff" stroke="#63b8ff" points="303.25,-235.65 296.78,-227.25 296.6,-237.85 303.25,-235.65"/>
</a>
</g>
</g>
<!-- Node7 -->
<g id="Node000007" class="node">
<title>Node7</title>
<g id="a_Node000007"><a xlink:title=" ">
<polygon fill="white" stroke="#bfbfbf" points="503,-312.5 355,-312.5 355,-282.5 503,-282.5 503,-312.5"/>
<text text-anchor="start" x="363" y="-300.5" font-family="Helvetica,sans-Serif" font-size="10.00">xiiBakedProbesComponent</text>
<text text-anchor="middle" x="429" y="-289.5" font-family="Helvetica,sans-Serif" font-size="10.00">::RenderDebugViewTask</text>
</a>
</g>
</g>
<!-- Node1&#45;&gt;Node7 -->
<g id="edge6_Node000001_Node000007" class="edge">
<title>Node1&#45;&gt;Node7</title>
<g id="a_edge6_Node000001_Node000007"><a xlink:title=" ">
<path fill="none" stroke="#63b8ff" d="M308.88,-234.98C320.16,-247.27 336.64,-263.28 354,-273.5 359.7,-276.86 365.93,-279.81 372.28,-282.39"/>
<polygon fill="#63b8ff" stroke="#63b8ff" points="311.21,-232.33 301.95,-227.18 305.97,-236.98 311.21,-232.33"/>
</a>
</g>
</g>
<!-- Node8 -->
<g id="Node000008" class="node">
<title>Node8</title>
<g id="a_Node000008"><a xlink:href="../../d5/deb/classxii_delegate_task.htm" target="_top" xlink:title="A simple task implementation that calls a delegate function.">
<polygon fill="white" stroke="#666666" points="490.5,-264 367.5,-264 367.5,-245 490.5,-245 490.5,-264"/>
<text text-anchor="middle" x="429" y="-252" font-family="Helvetica,sans-Serif" font-size="10.00">xiiDelegateTask&lt; T &gt;</text>
</a>
</g>
</g>
<!-- Node1&#45;&gt;Node8 -->
<g id="edge7_Node000001_Node000008" class="edge">
<title>Node1&#45;&gt;Node8</title>
<g id="a_edge7_Node000001_Node000008"><a xlink:title=" ">
<path fill="none" stroke="#63b8ff" d="M327.76,-228.63C336.29,-231.32 345.45,-234.11 354,-236.5 364.57,-239.46 376.06,-242.39 386.77,-245"/>
<polygon fill="#63b8ff" stroke="#63b8ff" points="328.71,-225.26 318.12,-225.55 326.58,-231.93 328.71,-225.26"/>
</a>
</g>
</g>
<!-- Node9 -->
<g id="Node000009" class="node">
<title>Node9</title>
<g id="a_Node000009"><a xlink:href="../../d9/d9c/classxii_delegate_task_3_01void_01_4.htm" target="_top" xlink:title=" ">
<polygon fill="white" stroke="#bfbfbf" points="498,-227 360,-227 360,-208 498,-208 498,-227"/>
<text text-anchor="middle" x="429" y="-215" font-family="Helvetica,sans-Serif" font-size="10.00">xiiDelegateTask&lt; void &gt;</text>
</a>
</g>
</g>
<!-- Node1&#45;&gt;Node9 -->
<g id="edge8_Node000001_Node000009" class="edge">
<title>Node1&#45;&gt;Node9</title>
<g id="a_edge8_Node000001_Node000009"><a xlink:title=" ">
<path fill="none" stroke="#63b8ff" d="M328.29,-217.5C338.03,-217.5 348.98,-217.5 359.97,-217.5"/>
<polygon fill="#63b8ff" stroke="#63b8ff" points="328.27,-214 318.27,-217.5 328.27,-221 328.27,-214"/>
</a>
</g>
</g>
<!-- Node10 -->
<g id="Node000010" class="node">
<title>Node10</title>
<g id="a_Node000010"><a xlink:title=" ">
<polygon fill="white" stroke="#bfbfbf" points="472.5,-190 385.5,-190 385.5,-171 472.5,-171 472.5,-190"/>
<text text-anchor="middle" x="429" y="-178" font-family="Helvetica,sans-Serif" font-size="10.00">xiiLongOpTask</text>
</a>
</g>
</g>
<!-- Node1&#45;&gt;Node10 -->
<g id="edge9_Node000001_Node000010" class="edge">
<title>Node1&#45;&gt;Node10</title>
<g id="a_edge9_Node000001_Node000010"><a xlink:title=" ">
<path fill="none" stroke="#63b8ff" d="M327.76,-206.37C336.29,-203.68 345.45,-200.89 354,-198.5 364.57,-195.54 376.06,-192.61 386.77,-190"/>
<polygon fill="#63b8ff" stroke="#63b8ff" points="326.58,-203.07 318.12,-209.45 328.71,-209.74 326.58,-203.07"/>
</a>
</g>
</g>
<!-- Node11 -->
<g id="Node000011" class="node">
<title>Node11</title>
<g id="a_Node000011"><a xlink:href="../../d1/d0e/classxii_resource_manager_worker_data_load.htm" target="_top" xlink:title="[internal] Worker task for loading resources (typically from disk).">
<polygon fill="white" stroke="#666666" points="504,-152.5 354,-152.5 354,-122.5 504,-122.5 504,-152.5"/>
<text text-anchor="start" x="362" y="-140.5" font-family="Helvetica,sans-Serif" font-size="10.00">xiiResourceManagerWorker</text>
<text text-anchor="middle" x="429" y="-129.5" font-family="Helvetica,sans-Serif" font-size="10.00">DataLoad</text>
</a>
</g>
</g>
<!-- Node1&#45;&gt;Node11 -->
<g id="edge10_Node000001_Node000011" class="edge">
<title>Node1&#45;&gt;Node11</title>
<g id="a_edge10_Node000001_Node000011"><a xlink:title=" ">
<path fill="none" stroke="#63b8ff" d="M308.88,-200.02C320.16,-187.73 336.64,-171.72 354,-161.5 359.7,-158.14 365.93,-155.19 372.28,-152.61"/>
<polygon fill="#63b8ff" stroke="#63b8ff" points="305.97,-198.02 301.95,-207.82 311.21,-202.67 305.97,-198.02"/>
</a>
</g>
</g>
<!-- Node12 -->
<g id="Node000012" class="node">
<title>Node12</title>
<g id="a_Node000012"><a xlink:href="../../d5/d53/classxii_resource_manager_worker_update_content.htm" target="_top" xlink:title="[internal] Worker task for uploading resource data. Depending on the resource type,...">
<polygon fill="white" stroke="#666666" points="504,-104.5 354,-104.5 354,-74.5 504,-74.5 504,-104.5"/>
<text text-anchor="start" x="362" y="-92.5" font-family="Helvetica,sans-Serif" font-size="10.00">xiiResourceManagerWorker</text>
<text text-anchor="middle" x="429" y="-81.5" font-family="Helvetica,sans-Serif" font-size="10.00">UpdateContent</text>
</a>
</g>
</g>
<!-- Node1&#45;&gt;Node12 -->
<g id="edge11_Node000001_Node000012" class="edge">
<title>Node1&#45;&gt;Node12</title>
<g id="a_edge11_Node000001_Node000012"><a xlink:title=" ">
<path fill="none" stroke="#63b8ff" d="M300.18,-198.42C308.69,-175.12 326.18,-136.02 354,-113.5 358.2,-110.1 362.89,-107.18 367.82,-104.67"/>
<polygon fill="#63b8ff" stroke="#63b8ff" points="296.87,-197.31 296.9,-207.9 303.48,-199.6 296.87,-197.31"/>
</a>
</g>
</g>
<!-- Node13 -->
<g id="Node000013" class="node">
<title>Node13</title>
<g id="a_Node000013"><a xlink:href="../../de/d97/classxii_save_document_task.htm" target="_top" xlink:title=" ">
<polygon fill="white" stroke="#bfbfbf" points="491.5,-56 366.5,-56 366.5,-37 491.5,-37 491.5,-56"/>
<text text-anchor="middle" x="429" y="-44" font-family="Helvetica,sans-Serif" font-size="10.00">xiiSaveDocumentTask</text>
</a>
</g>
</g>
<!-- Node1&#45;&gt;Node13 -->
<g id="edge12_Node000001_Node000013" class="edge">
<title>Node1&#45;&gt;Node13</title>
<g id="a_edge12_Node000001_Node000013"><a xlink:title=" ">
<path fill="none" stroke="#63b8ff" d="M296.06,-197.95C300.55,-165.5 314.23,-100.6 354,-65.5 358.38,-61.64 363.43,-58.54 368.81,-56.06"/>
<polygon fill="#63b8ff" stroke="#63b8ff" points="292.57,-197.63 294.83,-207.98 299.52,-198.48 292.57,-197.63"/>
</a>
</g>
</g>
<!-- Node14 -->
<g id="Node000014" class="node">
<title>Node14</title>
<g id="a_Node000014"><a xlink:href="../../dd/d69/classxii_update_task.htm" target="_top" xlink:title=" ">
<polygon fill="white" stroke="#bfbfbf" points="472,-19 386,-19 386,0 472,0 472,-19"/>
<text text-anchor="middle" x="429" y="-7" font-family="Helvetica,sans-Serif" font-size="10.00">xiiUpdateTask</text>
</a>
</g>
</g>
<!-- Node1&#45;&gt;Node14 -->
<g id="edge13_Node000001_Node000014" class="edge">
<title>Node1&#45;&gt;Node14</title>
<g id="a_edge13_Node000001_Node000014"><a xlink:title=" ">
<path fill="none" stroke="#63b8ff" d="M294.23,-197.49C295.8,-158.76 304.99,-73.32 354,-27.5 362.69,-19.37 374.42,-14.74 385.97,-12.14"/>
<polygon fill="#63b8ff" stroke="#63b8ff" points="290.72,-197.83 293.95,-207.92 297.72,-198.02 290.72,-197.83"/>
</a>
</g>
</g>
<!-- Node2 -->
<g id="Node000002" class="node">
<title>Node2</title>
<g id="a_Node000002"><a xlink:href="../../d3/dd0/classxii_ref_counted.htm" target="_top" xlink:title="Base class for reference counted objects.">
<polygon fill="white" stroke="#666666" points="232,-227 146,-227 146,-208 232,-208 232,-227"/>
<text text-anchor="middle" x="189" y="-215" font-family="Helvetica,sans-Serif" font-size="10.00">xiiRefCounted</text>
</a>
</g>
</g>
<!-- Node2&#45;&gt;Node1 -->
<g id="edge1_Node000001_Node000002" class="edge">
<title>Node2&#45;&gt;Node1</title>
<g id="a_edge1_Node000001_Node000002"><a xlink:title=" ">
<path fill="none" stroke="#63b8ff" d="M242.17,-217.5C251.14,-217.5 260.06,-217.5 267.83,-217.5"/>
<polygon fill="#63b8ff" stroke="#63b8ff" points="242.08,-214 232.08,-217.5 242.08,-221 242.08,-214"/>
</a>
</g>
</g>
<!-- Node3 -->
<g id="Node000003" class="node">
<title>Node3</title>
<g id="a_Node000003"><a xlink:href="../../d7/df4/classxii_ref_counting_impl.htm" target="_top" xlink:title=" ">
<polygon fill="white" stroke="#bfbfbf" points="110,-227 0,-227 0,-208 110,-208 110,-227"/>
<text text-anchor="middle" x="55" y="-215" font-family="Helvetica,sans-Serif" font-size="10.00">xiiRefCountingImpl</text>
</a>
</g>
</g>
<!-- Node3&#45;&gt;Node2 -->
<g id="edge2_Node000002_Node000003" class="edge">
<title>Node3&#45;&gt;Node2</title>
<g id="a_edge2_Node000002_Node000003"><a xlink:title=" ">
<path fill="none" stroke="#63b8ff" d="M120.25,-217.5C128.98,-217.5 137.74,-217.5 145.93,-217.5"/>
<polygon fill="#63b8ff" stroke="#63b8ff" points="120.07,-214 110.07,-217.5 120.07,-221 120.07,-214"/>
</a>
</g>
</g>
</g>
</svg>
