<?xml version="1.0" encoding="UTF-8" standalone="no"?>
<!DOCTYPE svg PUBLIC "-//W3C//DTD SVG 1.1//EN"
 "http://www.w3.org/Graphics/SVG/1.1/DTD/svg11.dtd">
<!-- Generated by graphviz version 2.43.0 (0)
 -->
<!-- Title: xiiDataDirectoryType Pages: 1 -->
<svg width="349pt" height="137pt"
 viewBox="0.00 0.00 349.00 137.00" xmlns="http://www.w3.org/2000/svg" xmlns:xlink="http://www.w3.org/1999/xlink">
<g id="graph0" class="graph" transform="scale(1 1) rotate(0) translate(4 133)">
<title>xiiDataDirectoryType</title>
<!-- Node1 -->
<g id="Node000001" class="node">
<title>Node1</title>
<g id="a_Node000001"><a xlink:title="The base class for all data directory types.">
<polygon fill="#999999" stroke="#666666" points="228,-129 109,-129 109,-110 228,-110 228,-129"/>
<text text-anchor="middle" x="168.5" y="-117" font-family="Helvetica,sans-Serif" font-size="10.00">xiiDataDirectoryType</text>
</a>
</g>
</g>
<!-- Node2 -->
<g id="Node000002" class="node">
<title>Node2</title>
<g id="a_Node000002"><a xlink:href="../../d1/d7b/classxii_data_directory_1_1_archive_type.htm" target="_top" xlink:title=" ">
<polygon fill="white" stroke="#bfbfbf" points="161,-74 0,-74 0,-55 161,-55 161,-74"/>
<text text-anchor="middle" x="80.5" y="-62" font-family="Helvetica,sans-Serif" font-size="10.00">xiiDataDirectory::ArchiveType</text>
</a>
</g>
</g>
<!-- Node1&#45;&gt;Node2 -->
<g id="edge1_Node000001_Node000002" class="edge">
<title>Node1&#45;&gt;Node2</title>
<g id="a_edge1_Node000001_Node000002"><a xlink:title=" ">
<path fill="none" stroke="#63b8ff" d="M145.58,-104.7C129.55,-95.04 108.63,-82.44 94.9,-74.17"/>
<polygon fill="#63b8ff" stroke="#63b8ff" points="143.99,-107.82 154.36,-109.98 147.6,-101.83 143.99,-107.82"/>
</a>
</g>
</g>
<!-- Node3 -->
<g id="Node000003" class="node">
<title>Node3</title>
<g id="a_Node000003"><a xlink:href="../../d5/dd5/classxii_data_directory_1_1_folder_type.htm" target="_top" xlink:title="A data directory type to handle access to ordinary files.">
<polygon fill="white" stroke="#666666" points="334,-74 179,-74 179,-55 334,-55 334,-74"/>
<text text-anchor="middle" x="256.5" y="-62" font-family="Helvetica,sans-Serif" font-size="10.00">xiiDataDirectory::FolderType</text>
</a>
</g>
</g>
<!-- Node1&#45;&gt;Node3 -->
<g id="edge2_Node000001_Node000003" class="edge">
<title>Node1&#45;&gt;Node3</title>
<g id="a_edge2_Node000001_Node000003"><a xlink:title=" ">
<path fill="none" stroke="#63b8ff" d="M191.42,-104.7C207.45,-95.04 228.37,-82.44 242.1,-74.17"/>
<polygon fill="#63b8ff" stroke="#63b8ff" points="189.4,-101.83 182.64,-109.98 193.01,-107.82 189.4,-101.83"/>
</a>
</g>
</g>
<!-- Node4 -->
<g id="Node000004" class="node">
<title>Node4</title>
<g id="a_Node000004"><a xlink:href="../../d9/df6/classxii_data_directory_1_1_fileserve_type.htm" target="_top" xlink:title="A data directory type to handle access to files that are served from a network host.">
<polygon fill="white" stroke="#666666" points="341,-19 172,-19 172,0 341,0 341,-19"/>
<text text-anchor="middle" x="256.5" y="-7" font-family="Helvetica,sans-Serif" font-size="10.00">xiiDataDirectory::FileserveType</text>
</a>
</g>
</g>
<!-- Node3&#45;&gt;Node4 -->
<g id="edge3_Node000003_Node000004" class="edge">
<title>Node3&#45;&gt;Node4</title>
<g id="a_edge3_Node000003_Node000004"><a xlink:title=" ">
<path fill="none" stroke="#63b8ff" d="M256.5,-44.66C256.5,-35.93 256.5,-25.99 256.5,-19.09"/>
<polygon fill="#63b8ff" stroke="#63b8ff" points="253,-44.75 256.5,-54.75 260,-44.75 253,-44.75"/>
</a>
</g>
</g>
</g>
</svg>
