<?xml version="1.0" encoding="UTF-8" standalone="no"?>
<!DOCTYPE svg PUBLIC "-//W3C//DTD SVG 1.1//EN"
 "http://www.w3.org/Graphics/SVG/1.1/DTD/svg11.dtd">
<!-- Generated by graphviz version 2.43.0 (0)
 -->
<!-- Title: xiiAbstractFunctionProperty Pages: 1 -->
<!--zoomable 288 -->
<svg id="main" version="1.1" xmlns="http://www.w3.org/2000/svg" xmlns:xlink="http://www.w3.org/1999/xlink" xml:space="preserve" onload="init(evt)">
<style type="text/css"><![CDATA[
.edge:hover path { stroke: red; }
.edge:hover polygon { stroke: red; fill: red; }
]]></style>
<script type="text/javascript"><![CDATA[
var edges = document.getElementsByTagName('g');
if (edges && edges.length) {
  for (var i=0;i<edges.length;i++) {
    if (edges[i].id.substr(0,4)=='edge') {
      edges[i].setAttribute('class','edge');
    }
  }
}
]]></script>
        <defs>
                <circle id="rim" cx="0" cy="0" r="7"/>
                <circle id="rim2" cx="0" cy="0" r="3.5"/>
                <g id="zoomPlus">
                        <use xlink:href="#rim" fill="#404040">
                                <set attributeName="fill" to="#808080" begin="zoomplus.mouseover" end="zoomplus.mouseout"/>
                        </use>
                        <path d="M-4,0h8M0,-4v8" fill="none" stroke="white" stroke-width="1.5" pointer-events="none"/>
                </g>
                <g id="zoomMin">
                        <use xlink:href="#rim" fill="#404040">
                                <set attributeName="fill" to="#808080" begin="zoomminus.mouseover" end="zoomminus.mouseout"/>
                        </use>
                        <path d="M-4,0h8" fill="none" stroke="white" stroke-width="1.5" pointer-events="none"/>
                </g>
                <g id="dirArrow">
                        <path fill="none" stroke="white" stroke-width="1.5" d="M0,-3.0v7 M-2.5,-0.5L0,-3.0L2.5,-0.5"/>
                </g>
               <g id="resetDef">
                       <use xlink:href="#rim2" fill="#404040">
                               <set attributeName="fill" to="#808080" begin="reset.mouseover" end="reset.mouseout"/>
                       </use>
               </g>
        </defs>

<script type="text/javascript">
var viewWidth = 702;
var viewHeight = 288;
var sectionId = 'dynsection-0';
</script>
<script xlink:href="../../svgpan.js"/>
<svg id="graph" class="graph">
<g id="viewport">
<title>xiiAbstractFunctionProperty</title>
<polygon fill="white" stroke="transparent" points="-4,4 -4,-284 698,-284 698,4 -4,4"/>
<!-- Node1 -->
<g id="node1" class="node">
<title>Node1</title>
<g id="a_node1"><a xlink:title="The base class for a property that represents a function.">
<polygon fill="#bfbfbf" stroke="black" points="146,-99 146,-118 298,-118 298,-99 146,-99"/>
<text text-anchor="middle" x="222" y="-106" font-family="Helvetica,sans-Serif" font-size="10.00">xiiAbstractFunctionProperty</text>
</a>
</g>
</g>
<!-- Node3 -->
<g id="node3" class="node">
<title>Node3</title>
<g id="a_node3"><a xlink:href="../../d9/dc8/classxii_typed_function_property.htm" target="_top" xlink:title=" ">
<polygon fill="white" stroke="black" points="341.5,-221.5 341.5,-251.5 481.5,-251.5 481.5,-221.5 341.5,-221.5"/>
<text text-anchor="start" x="349.5" y="-239.5" font-family="Helvetica,sans-Serif" font-size="10.00">xiiTypedFunctionProperty</text>
<text text-anchor="middle" x="411.5" y="-228.5" font-family="Helvetica,sans-Serif" font-size="10.00">&lt; CLASS *, Args... &gt;</text>
</a>
</g>
</g>
<!-- Node1&#45;&gt;Node3 -->
<g id="edge2" class="edge">
<title>Node1&#45;&gt;Node3</title>
<path fill="none" stroke="midnightblue" d="M245.51,-123.86C281.68,-148.56 352.35,-196.8 388.32,-221.36"/>
<polygon fill="midnightblue" stroke="midnightblue" points="247.33,-120.87 237.09,-118.12 243.38,-126.65 247.33,-120.87"/>
</g>
<!-- Node5 -->
<g id="node5" class="node">
<title>Node5</title>
<g id="a_node5"><a xlink:href="../../d9/dc8/classxii_typed_function_property.htm" target="_top" xlink:title=" ">
<polygon fill="white" stroke="black" points="341.5,-142.5 341.5,-172.5 481.5,-172.5 481.5,-142.5 341.5,-142.5"/>
<text text-anchor="start" x="349.5" y="-160.5" font-family="Helvetica,sans-Serif" font-size="10.00">xiiTypedFunctionProperty</text>
<text text-anchor="middle" x="411.5" y="-149.5" font-family="Helvetica,sans-Serif" font-size="10.00">&lt; R, Args... &gt;</text>
</a>
</g>
</g>
<!-- Node1&#45;&gt;Node5 -->
<g id="edge4" class="edge">
<title>Node1&#45;&gt;Node5</title>
<path fill="none" stroke="midnightblue" d="M269.31,-120.6C294.59,-127.21 326.11,-135.45 352.96,-142.46"/>
<polygon fill="midnightblue" stroke="midnightblue" points="270.16,-117.21 259.6,-118.06 268.39,-123.98 270.16,-117.21"/>
</g>
<!-- Node9 -->
<g id="node9" class="node">
<title>Node9</title>
<g id="a_node9"><a xlink:href="../../d4/dcb/classxii_phantom_function_property.htm" target="_top" xlink:title=" ">
<polygon fill="white" stroke="black" points="334,-99 334,-118 489,-118 489,-99 334,-99"/>
<text text-anchor="middle" x="411.5" y="-106" font-family="Helvetica,sans-Serif" font-size="10.00">xiiPhantomFunctionProperty</text>
</a>
</g>
</g>
<!-- Node1&#45;&gt;Node9 -->
<g id="edge8" class="edge">
<title>Node1&#45;&gt;Node9</title>
<path fill="none" stroke="midnightblue" d="M308.43,-108.5C316.88,-108.5 325.42,-108.5 333.77,-108.5"/>
<polygon fill="midnightblue" stroke="midnightblue" points="308.18,-105 298.18,-108.5 308.18,-112 308.18,-105"/>
</g>
<!-- Node10 -->
<g id="node10" class="node">
<title>Node10</title>
<g id="a_node10"><a xlink:href="../../db/d5b/classxii_script_function_property.htm" target="_top" xlink:title=" ">
<polygon fill="white" stroke="black" points="342,-50 342,-69 481,-69 481,-50 342,-50"/>
<text text-anchor="middle" x="411.5" y="-57" font-family="Helvetica,sans-Serif" font-size="10.00">xiiScriptFunctionProperty</text>
</a>
</g>
</g>
<!-- Node1&#45;&gt;Node10 -->
<g id="edge9" class="edge">
<title>Node1&#45;&gt;Node10</title>
<path fill="none" stroke="midnightblue" d="M269.69,-96.3C301.93,-87.87 344.21,-76.82 374,-69.04"/>
<polygon fill="midnightblue" stroke="midnightblue" points="268.39,-93.02 259.6,-98.94 270.16,-99.79 268.39,-93.02"/>
</g>
<!-- Node13 -->
<g id="node13" class="node">
<title>Node13</title>
<g id="a_node13"><a xlink:href="../../d9/dc8/classxii_typed_function_property.htm" target="_top" xlink:title=" ">
<polygon fill="white" stroke="black" points="341.5,-0.5 341.5,-30.5 481.5,-30.5 481.5,-0.5 341.5,-0.5"/>
<text text-anchor="start" x="349.5" y="-18.5" font-family="Helvetica,sans-Serif" font-size="10.00">xiiTypedFunctionProperty</text>
<text text-anchor="middle" x="411.5" y="-7.5" font-family="Helvetica,sans-Serif" font-size="10.00">&lt; R, Args &gt;</text>
</a>
</g>
</g>
<!-- Node1&#45;&gt;Node13 -->
<g id="edge12" class="edge">
<title>Node1&#45;&gt;Node13</title>
<path fill="none" stroke="midnightblue" d="M244.94,-92.92C266.74,-77.97 301.51,-55.51 334,-40.5 341.86,-36.87 350.41,-33.53 358.84,-30.55"/>
<polygon fill="midnightblue" stroke="midnightblue" points="242.66,-90.25 236.44,-98.83 246.65,-96 242.66,-90.25"/>
</g>
<!-- Node2 -->
<g id="node2" class="node">
<title>Node2</title>
<g id="a_node2"><a xlink:href="../../da/d25/classxii_abstract_property.htm" target="_top" xlink:title="This is the base interface for all properties in the reflection system. It provides enough informatio...">
<polygon fill="white" stroke="black" points="0,-99 0,-118 110,-118 110,-99 0,-99"/>
<text text-anchor="middle" x="55" y="-106" font-family="Helvetica,sans-Serif" font-size="10.00">xiiAbstractProperty</text>
</a>
</g>
</g>
<!-- Node2&#45;&gt;Node1 -->
<g id="edge1" class="edge">
<title>Node2&#45;&gt;Node1</title>
<path fill="none" stroke="midnightblue" d="M120.15,-108.5C128.59,-108.5 137.29,-108.5 145.89,-108.5"/>
<polygon fill="midnightblue" stroke="midnightblue" points="120.03,-105 110.03,-108.5 120.03,-112 120.03,-105"/>
</g>
<!-- Node4 -->
<g id="node4" class="node">
<title>Node4</title>
<g id="a_node4"><a xlink:href="../../da/d9e/classxii_constructor_function_property.htm" target="_top" xlink:title=" ">
<polygon fill="white" stroke="black" points="526,-249.5 526,-279.5 693,-279.5 693,-249.5 526,-249.5"/>
<text text-anchor="start" x="534" y="-267.5" font-family="Helvetica,sans-Serif" font-size="10.00">xiiConstructorFunctionProperty</text>
<text text-anchor="middle" x="609.5" y="-256.5" font-family="Helvetica,sans-Serif" font-size="10.00">&lt; CLASS, Args &gt;</text>
</a>
</g>
</g>
<!-- Node3&#45;&gt;Node4 -->
<g id="edge3" class="edge">
<title>Node3&#45;&gt;Node4</title>
<path fill="none" stroke="midnightblue" d="M491.81,-247.83C503.04,-249.43 514.62,-251.09 525.92,-252.7"/>
<polygon fill="midnightblue" stroke="midnightblue" points="492,-244.32 481.6,-246.37 491.01,-251.25 492,-244.32"/>
</g>
<!-- Node6 -->
<g id="node6" class="node">
<title>Node6</title>
<g id="a_node6"><a xlink:href="../../d3/d43/classxii_function_property_3_01_r_07_5_08_07_args_8_8_8_08_4.htm" target="_top" xlink:title=" ">
<polygon fill="white" stroke="black" points="554,-200.5 554,-230.5 665,-230.5 665,-200.5 554,-200.5"/>
<text text-anchor="start" x="562" y="-218.5" font-family="Helvetica,sans-Serif" font-size="10.00">xiiFunctionProperty</text>
<text text-anchor="middle" x="609.5" y="-207.5" font-family="Helvetica,sans-Serif" font-size="10.00">&lt; R(*)(Args...)&gt;</text>
</a>
</g>
</g>
<!-- Node5&#45;&gt;Node6 -->
<g id="edge5" class="edge">
<title>Node5&#45;&gt;Node6</title>
<path fill="none" stroke="midnightblue" d="M473,-175.4C500.12,-183.43 531.76,-192.79 557.64,-200.45"/>
<polygon fill="midnightblue" stroke="midnightblue" points="473.81,-171.99 463.23,-172.51 471.83,-178.71 473.81,-171.99"/>
</g>
<!-- Node7 -->
<g id="node7" class="node">
<title>Node7</title>
<g id="a_node7"><a xlink:href="../../df/d6f/classxii_function_property_3_01_r_07_c_l_a_s_s_1_1_5_08_07_args_8_8_8_08_01const_01_4.htm" target="_top" xlink:title=" ">
<polygon fill="white" stroke="black" points="548,-140 548,-181 671,-181 671,-140 548,-140"/>
<text text-anchor="start" x="556" y="-169" font-family="Helvetica,sans-Serif" font-size="10.00">xiiFunctionProperty</text>
<text text-anchor="start" x="556" y="-158" font-family="Helvetica,sans-Serif" font-size="10.00">&lt; R(CLASS::*)(Args...)</text>
<text text-anchor="middle" x="609.5" y="-147" font-family="Helvetica,sans-Serif" font-size="10.00"> const &gt;</text>
</a>
</g>
</g>
<!-- Node5&#45;&gt;Node7 -->
<g id="edge6" class="edge">
<title>Node5&#45;&gt;Node7</title>
<path fill="none" stroke="midnightblue" d="M491.6,-158.71C510.35,-159 530.06,-159.3 547.84,-159.57"/>
<polygon fill="midnightblue" stroke="midnightblue" points="491.65,-155.21 481.6,-158.56 491.55,-162.21 491.65,-155.21"/>
</g>
<!-- Node8 -->
<g id="node8" class="node">
<title>Node8</title>
<g id="a_node8"><a xlink:href="../../dc/dd1/classxii_function_property_3_01_r_07_c_l_a_s_s_1_1_5_08_07_args_8_8_8_08_4.htm" target="_top" xlink:title=" ">
<polygon fill="white" stroke="black" points="544,-90.5 544,-120.5 675,-120.5 675,-90.5 544,-90.5"/>
<text text-anchor="start" x="552" y="-108.5" font-family="Helvetica,sans-Serif" font-size="10.00">xiiFunctionProperty</text>
<text text-anchor="middle" x="609.5" y="-97.5" font-family="Helvetica,sans-Serif" font-size="10.00">&lt; R(CLASS::*)(Args...)&gt;</text>
</a>
</g>
</g>
<!-- Node5&#45;&gt;Node8 -->
<g id="edge7" class="edge">
<title>Node5&#45;&gt;Node8</title>
<path fill="none" stroke="midnightblue" d="M479.15,-139.82C502.81,-133.54 529.2,-126.54 551.94,-120.51"/>
<polygon fill="midnightblue" stroke="midnightblue" points="477.96,-136.51 469.19,-142.46 479.75,-143.28 477.96,-136.51"/>
</g>
<!-- Node11 -->
<g id="node11" class="node">
<title>Node11</title>
<g id="a_node11"><a xlink:href="../../df/dce/classxii_script_coroutine_function_property.htm" target="_top" xlink:title="A function property that creates an instance of the given coroutine type and starts it immediately.">
<polygon fill="white" stroke="black" points="537,-41.5 537,-71.5 682,-71.5 682,-41.5 537,-41.5"/>
<text text-anchor="start" x="545" y="-59.5" font-family="Helvetica,sans-Serif" font-size="10.00">xiiScriptCoroutineFunction</text>
<text text-anchor="middle" x="609.5" y="-48.5" font-family="Helvetica,sans-Serif" font-size="10.00">Property</text>
</a>
</g>
</g>
<!-- Node10&#45;&gt;Node11 -->
<g id="edge10" class="edge">
<title>Node10&#45;&gt;Node11</title>
<path fill="none" stroke="midnightblue" d="M491.37,-58.29C506.45,-58.06 522.16,-57.82 536.99,-57.59"/>
<polygon fill="midnightblue" stroke="midnightblue" points="491,-54.8 481.05,-58.45 491.1,-61.8 491,-54.8"/>
</g>
<!-- Node12 -->
<g id="node12" class="node">
<title>Node12</title>
<g id="a_node12"><a xlink:href="../../dd/d02/classxii_visual_script_function_property.htm" target="_top" xlink:title=" ">
<polygon fill="white" stroke="black" points="525,-3 525,-22 694,-22 694,-3 525,-3"/>
<text text-anchor="middle" x="609.5" y="-10" font-family="Helvetica,sans-Serif" font-size="10.00">xiiVisualScriptFunctionProperty</text>
</a>
</g>
</g>
<!-- Node10&#45;&gt;Node12 -->
<g id="edge11" class="edge">
<title>Node10&#45;&gt;Node12</title>
<path fill="none" stroke="midnightblue" d="M459.8,-47.5C479.88,-42.47 503.56,-36.61 525,-31.5 538.31,-28.33 552.83,-24.99 565.98,-22"/>
<polygon fill="midnightblue" stroke="midnightblue" points="458.8,-44.14 449.95,-49.98 460.51,-50.93 458.8,-44.14"/>
</g>
</g>
</svg>
        <g id="navigator" transform="translate(0 0)" fill="#404254">
                <rect fill="#f2f5e9" fill-opacity="0.5" stroke="#606060" stroke-width=".5" x="0" y="0" width="60" height="60"/>
                <use id="zoomplus" xlink:href="#zoomPlus" x="17" y="9" onmousedown="handleZoom(evt,'in')"/>
                <use id="zoomminus" xlink:href="#zoomMin" x="42" y="9" onmousedown="handleZoom(evt,'out')"/>
                <use id="reset" xlink:href="#resetDef" x="30" y="36" onmousedown="handleReset()"/>
                <g id="arrowUp" xlink:href="#dirArrow" transform="translate(30 24)" onmousedown="handlePan(0,-1)">
                  <use xlink:href="#rim" fill="#404040">
                        <set attributeName="fill" to="#808080" begin="arrowUp.mouseover" end="arrowUp.mouseout"/>
                  </use>
                  <path fill="none" stroke="white" stroke-width="1.5" d="M0,-3.0v7 M-2.5,-0.5L0,-3.0L2.5,-0.5"/>
                </g>
                <g id="arrowRight" xlink:href="#dirArrow" transform="rotate(90) translate(36 -43)" onmousedown="handlePan(1,0)">
                  <use xlink:href="#rim" fill="#404040">
                        <set attributeName="fill" to="#808080" begin="arrowRight.mouseover" end="arrowRight.mouseout"/>
                  </use>
                  <path fill="none" stroke="white" stroke-width="1.5" d="M0,-3.0v7 M-2.5,-0.5L0,-3.0L2.5,-0.5"/>
                </g>
                <g id="arrowDown" xlink:href="#dirArrow" transform="rotate(180) translate(-30 -48)" onmousedown="handlePan(0,1)">
                  <use xlink:href="#rim" fill="#404040">
                        <set attributeName="fill" to="#808080" begin="arrowDown.mouseover" end="arrowDown.mouseout"/>
                  </use>
                  <path fill="none" stroke="white" stroke-width="1.5" d="M0,-3.0v7 M-2.5,-0.5L0,-3.0L2.5,-0.5"/>
                </g>
                <g id="arrowLeft" xlink:href="#dirArrow" transform="rotate(270) translate(-36 17)" onmousedown="handlePan(-1,0)">
                  <use xlink:href="#rim" fill="#404040">
                        <set attributeName="fill" to="#808080" begin="arrowLeft.mouseover" end="arrowLeft.mouseout"/>
                  </use>
                  <path fill="none" stroke="white" stroke-width="1.5" d="M0,-3.0v7 M-2.5,-0.5L0,-3.0L2.5,-0.5"/>
                </g>
        </g>
        <svg viewBox="0 0 15 15" width="100%" height="30px" preserveAspectRatio="xMaxYMin meet">
         <g id="arrow_out" transform="scale(0.3 0.3)">
          <a xlink:href="classxii_abstract_function_property__inherit__graph_org.svg" target="_base">
           <rect id="button" ry="5" rx="5" y="6" x="6" height="38" width="38"
                fill="#f2f5e9" fill-opacity="0.5" stroke="#606060" stroke-width="1.0"/>
           <path id="arrow"
             d="M 11.500037,31.436501 C 11.940474,20.09759 22.043105,11.32322 32.158766,21.979434 L 37.068811,17.246167 C 37.068811,17.246167 37.088388,32 37.088388,32 L 22.160133,31.978069 C 22.160133,31.978069 26.997745,27.140456 26.997745,27.140456 C 18.528582,18.264221 13.291696,25.230495 11.500037,31.436501 z"
             style="fill:#404040;"/>
          </a>
         </g>
        </svg>
</svg>
