<?xml version="1.0" encoding="UTF-8" standalone="no"?>
<!DOCTYPE svg PUBLIC "-//W3C//DTD SVG 1.1//EN"
 "http://www.w3.org/Graphics/SVG/1.1/DTD/svg11.dtd">
<!-- Generated by graphviz version 2.43.0 (0)
 -->
<!-- Title: xiiAbstractFunctionProperty Pages: 1 -->
<!--zoomable 282 -->

<svg id="main" version="1.1" xmlns="http://www.w3.org/2000/svg" xmlns:xlink="http://www.w3.org/1999/xlink" xml:space="preserve" onload="init(evt)">
<style type="text/css"><![CDATA[
.node, .edge {opacity: 0.7;}
.node.selected, .edge.selected {opacity: 1;}
.edge:hover path { stroke: red; }
.edge:hover polygon { stroke: red; fill: red; }
]]></style>

<defs>
  <circle id="rim" cx="0" cy="0" r="7"/>
  <circle id="rim2" cx="0" cy="0" r="3.5"/>
  <g id="zoomPlus">
    <use xlink:href="#rim" fill="#404040"><set attributeName="fill" to="#808080" begin="zoomplus.mouseover" end="zoomplus.mouseout"/></use>
    <path d="M-4,0h8M0,-4v8" fill="none" stroke="white" stroke-width="1.5" pointer-events="none"/>
  </g>
  <g id="zoomMin">
    <use xlink:href="#rim" fill="#404040"><set attributeName="fill" to="#808080" begin="zoomminus.mouseover" end="zoomminus.mouseout"/></use>
    <path d="M-4,0h8" fill="none" stroke="white" stroke-width="1.5" pointer-events="none"/>
  </g>
  <g id="arrowUp" transform="translate(30 24)">
    <use xlink:href="#rim"/>
    <path pointer-events="none" fill="none" stroke="white" stroke-width="1.5" d="M0,-3.0v7 M-2.5,-0.5L0,-3.0L2.5,-0.5"/>
  </g>
  <g id="arrowRight" transform="rotate(90) translate(36 -43)">
    <use xlink:href="#rim"/>
    <path pointer-events="none" fill="none" stroke="white" stroke-width="1.5" d="M0,-3.0v7 M-2.5,-0.5L0,-3.0L2.5,-0.5"/>
  </g>
  <g id="arrowDown" transform="rotate(180) translate(-30 -48)">
    <use xlink:href="#rim"/>
    <path pointer-events="none" fill="none" stroke="white" stroke-width="1.5" d="M0,-3.0v7 M-2.5,-0.5L0,-3.0L2.5,-0.5"/>
  </g>
  <g id="arrowLeft" transform="rotate(270) translate(-36 17)">
    <use xlink:href="#rim"/>
    <path pointer-events="none" fill="none" stroke="white" stroke-width="1.5" d="M0,-3.0v7 M-2.5,-0.5L0,-3.0L2.5,-0.5"/>
  </g>
  <g id="resetDef">
    <use xlink:href="#rim2" fill="#404040"><set attributeName="fill" to="#808080" begin="reset.mouseover" end="reset.mouseout"/></use>
  </g>
</defs>
<script type="application/ecmascript">
var viewWidth = 702;
var viewHeight = 282;
var sectionId = 'dynsection-0';
</script>
<script type="application/ecmascript" xlink:href="../../svg.min.js"/>
<svg id="graph" class="graph">
<g id="viewport">
<title>xiiAbstractFunctionProperty</title>
<!-- Node1 -->
<g id="Node000001" class="node">
<title>Node1</title>
<g id="a_Node000001"><a xlink:title="The base class for a property that represents a function.">
<polygon fill="#999999" stroke="#666666" points="298,-115.5 146,-115.5 146,-96.5 298,-96.5 298,-115.5"/>
<text text-anchor="middle" x="222" y="-103.5" font-family="Helvetica,sans-Serif" font-size="10.00">xiiAbstractFunctionProperty</text>
</a>
</g>
</g>
<!-- Node3 -->
<g id="Node000003" class="node">
<title>Node3</title>
<g id="a_Node000003"><a xlink:href="../../d9/dc8/classxii_typed_function_property.htm" target="_top" xlink:title=" ">
<polygon fill="white" stroke="#bfbfbf" points="481.5,-247 341.5,-247 341.5,-217 481.5,-217 481.5,-247"/>
<text text-anchor="start" x="349.5" y="-235" font-family="Helvetica,sans-Serif" font-size="10.00">xiiTypedFunctionProperty</text>
<text text-anchor="middle" x="411.5" y="-224" font-family="Helvetica,sans-Serif" font-size="10.00">&lt; CLASS *, Args... &gt;</text>
</a>
</g>
</g>
<!-- Node1&#45;&gt;Node3 -->
<g id="edge2_Node000001_Node000003" class="edge">
<title>Node1&#45;&gt;Node3</title>
<g id="a_edge2_Node000001_Node000003"><a xlink:title=" ">
<path fill="none" stroke="#63b8ff" d="M245.83,-121.34C282.04,-145.67 352.18,-192.81 388.11,-216.95"/>
<polygon fill="#63b8ff" stroke="#63b8ff" points="247.65,-118.35 237.4,-115.68 243.75,-124.16 247.65,-118.35"/>
</a>
</g>
</g>
<!-- Node5 -->
<g id="Node000005" class="node">
<title>Node5</title>
<g id="a_Node000005"><a xlink:href="../../d9/dc8/classxii_typed_function_property.htm" target="_top" xlink:title=" ">
<polygon fill="white" stroke="#bfbfbf" points="481.5,-169 341.5,-169 341.5,-139 481.5,-139 481.5,-169"/>
<text text-anchor="start" x="349.5" y="-157" font-family="Helvetica,sans-Serif" font-size="10.00">xiiTypedFunctionProperty</text>
<text text-anchor="middle" x="411.5" y="-146" font-family="Helvetica,sans-Serif" font-size="10.00">&lt; R, Args... &gt;</text>
</a>
</g>
</g>
<!-- Node1&#45;&gt;Node5 -->
<g id="edge4_Node000001_Node000005" class="edge">
<title>Node1&#45;&gt;Node5</title>
<g id="a_edge4_Node000001_Node000005"><a xlink:title=" ">
<path fill="none" stroke="#63b8ff" d="M270.35,-118.12C295.04,-124.44 325.47,-132.23 351.66,-138.94"/>
<polygon fill="#63b8ff" stroke="#63b8ff" points="271.05,-114.69 260.49,-115.6 269.31,-121.47 271.05,-114.69"/>
</a>
</g>
</g>
<!-- Node9 -->
<g id="Node000009" class="node">
<title>Node9</title>
<g id="a_Node000009"><a xlink:href="../../d4/dcb/classxii_phantom_function_property.htm" target="_top" xlink:title=" ">
<polygon fill="white" stroke="#bfbfbf" points="489,-115.5 334,-115.5 334,-96.5 489,-96.5 489,-115.5"/>
<text text-anchor="middle" x="411.5" y="-103.5" font-family="Helvetica,sans-Serif" font-size="10.00">xiiPhantomFunctionProperty</text>
</a>
</g>
</g>
<!-- Node1&#45;&gt;Node9 -->
<g id="edge8_Node000001_Node000009" class="edge">
<title>Node1&#45;&gt;Node9</title>
<g id="a_edge8_Node000001_Node000009"><a xlink:title=" ">
<path fill="none" stroke="#63b8ff" d="M308.43,-106C316.88,-106 325.42,-106 333.77,-106"/>
<polygon fill="#63b8ff" stroke="#63b8ff" points="308.18,-102.5 298.18,-106 308.18,-109.5 308.18,-102.5"/>
</a>
</g>
</g>
<!-- Node10 -->
<g id="Node000010" class="node">
<title>Node10</title>
<g id="a_Node000010"><a xlink:href="../../db/d5b/classxii_script_function_property.htm" target="_top" xlink:title=" ">
<polygon fill="white" stroke="#bfbfbf" points="481,-67.5 342,-67.5 342,-48.5 481,-48.5 481,-67.5"/>
<text text-anchor="middle" x="411.5" y="-55.5" font-family="Helvetica,sans-Serif" font-size="10.00">xiiScriptFunctionProperty</text>
</a>
</g>
</g>
<!-- Node1&#45;&gt;Node10 -->
<g id="edge9_Node000001_Node000010" class="edge">
<title>Node1&#45;&gt;Node10</title>
<g id="a_edge9_Node000001_Node000010"><a xlink:title=" ">
<path fill="none" stroke="#63b8ff" d="M270.46,-93.85C302.27,-85.71 343.58,-75.13 373.07,-67.58"/>
<polygon fill="#63b8ff" stroke="#63b8ff" points="269.31,-90.53 260.49,-96.4 271.05,-97.31 269.31,-90.53"/>
</a>
</g>
</g>
<!-- Node13 -->
<g id="Node000013" class="node">
<title>Node13</title>
<g id="a_Node000013"><a xlink:href="../../d9/dc8/classxii_typed_function_property.htm" target="_top" xlink:title=" ">
<polygon fill="white" stroke="#bfbfbf" points="481.5,-30 341.5,-30 341.5,0 481.5,0 481.5,-30"/>
<text text-anchor="start" x="349.5" y="-18" font-family="Helvetica,sans-Serif" font-size="10.00">xiiTypedFunctionProperty</text>
<text text-anchor="middle" x="411.5" y="-7" font-family="Helvetica,sans-Serif" font-size="10.00">&lt; R, Args &gt;</text>
</a>
</g>
</g>
<!-- Node1&#45;&gt;Node13 -->
<g id="edge12_Node000001_Node000013" class="edge">
<title>Node1&#45;&gt;Node13</title>
<g id="a_edge12_Node000001_Node000013"><a xlink:title=" ">
<path fill="none" stroke="#63b8ff" d="M244.94,-90.59C266.73,-75.82 301.5,-53.65 334,-39 341.23,-35.74 349.04,-32.74 356.8,-30.05"/>
<polygon fill="#63b8ff" stroke="#63b8ff" points="242.7,-87.88 236.44,-96.43 246.66,-93.65 242.7,-87.88"/>
</a>
</g>
</g>
<!-- Node2 -->
<g id="Node000002" class="node">
<title>Node2</title>
<g id="a_Node000002"><a xlink:href="../../da/d25/classxii_abstract_property.htm" target="_top" xlink:title="This is the base interface for all properties in the reflection system. It provides enough informatio...">
<polygon fill="white" stroke="#666666" points="110,-115.5 0,-115.5 0,-96.5 110,-96.5 110,-115.5"/>
<text text-anchor="middle" x="55" y="-103.5" font-family="Helvetica,sans-Serif" font-size="10.00">xiiAbstractProperty</text>
</a>
</g>
</g>
<!-- Node2&#45;&gt;Node1 -->
<g id="edge1_Node000001_Node000002" class="edge">
<title>Node2&#45;&gt;Node1</title>
<g id="a_edge1_Node000001_Node000002"><a xlink:title=" ">
<path fill="none" stroke="#63b8ff" d="M120.15,-106C128.59,-106 137.29,-106 145.89,-106"/>
<polygon fill="#63b8ff" stroke="#63b8ff" points="120.03,-102.5 110.03,-106 120.03,-109.5 120.03,-102.5"/>
</a>
</g>
</g>
<!-- Node4 -->
<g id="Node000004" class="node">
<title>Node4</title>
<g id="a_Node000004"><a xlink:href="../../da/d9e/classxii_constructor_function_property.htm" target="_top" xlink:title=" ">
<polygon fill="white" stroke="#bfbfbf" points="693,-274 526,-274 526,-244 693,-244 693,-274"/>
<text text-anchor="start" x="534" y="-262" font-family="Helvetica,sans-Serif" font-size="10.00">xiiConstructorFunctionProperty</text>
<text text-anchor="middle" x="609.5" y="-251" font-family="Helvetica,sans-Serif" font-size="10.00">&lt; CLASS, Args &gt;</text>
</a>
</g>
</g>
<!-- Node3&#45;&gt;Node4 -->
<g id="edge3_Node000003_Node000004" class="edge">
<title>Node3&#45;&gt;Node4</title>
<g id="a_edge3_Node000003_Node000004"><a xlink:title=" ">
<path fill="none" stroke="#63b8ff" d="M491.81,-242.93C503.04,-244.47 514.62,-246.07 525.92,-247.62"/>
<polygon fill="#63b8ff" stroke="#63b8ff" points="491.99,-239.42 481.6,-241.52 491.03,-246.35 491.99,-239.42"/>
</a>
</g>
</g>
<!-- Node6 -->
<g id="Node000006" class="node">
<title>Node6</title>
<g id="a_Node000006"><a xlink:href="../../d3/d43/classxii_function_property_3_01_r_07_5_08_07_args_8_8_8_08_4.htm" target="_top" xlink:title=" ">
<polygon fill="white" stroke="#bfbfbf" points="665,-226 554,-226 554,-196 665,-196 665,-226"/>
<text text-anchor="start" x="562" y="-214" font-family="Helvetica,sans-Serif" font-size="10.00">xiiFunctionProperty</text>
<text text-anchor="middle" x="609.5" y="-203" font-family="Helvetica,sans-Serif" font-size="10.00">&lt; R(*)(Args...)&gt;</text>
</a>
</g>
</g>
<!-- Node5&#45;&gt;Node6 -->
<g id="edge5_Node000005_Node000006" class="edge">
<title>Node5&#45;&gt;Node6</title>
<g id="a_edge5_Node000005_Node000006"><a xlink:title=" ">
<path fill="none" stroke="#63b8ff" d="M473.14,-171.85C489.93,-176.78 508.17,-182.11 525,-187 534.99,-189.9 545.67,-192.98 555.93,-195.94"/>
<polygon fill="#63b8ff" stroke="#63b8ff" points="474.03,-168.47 463.45,-169.01 472.06,-175.18 474.03,-168.47"/>
</a>
</g>
</g>
<!-- Node7 -->
<g id="Node000007" class="node">
<title>Node7</title>
<g id="a_Node000007"><a xlink:href="../../df/d6f/classxii_function_property_3_01_r_07_c_l_a_s_s_1_1_5_08_07_args_8_8_8_08_01const_01_4.htm" target="_top" xlink:title=" ">
<polygon fill="white" stroke="#bfbfbf" points="671,-177.5 548,-177.5 548,-136.5 671,-136.5 671,-177.5"/>
<text text-anchor="start" x="556" y="-165.5" font-family="Helvetica,sans-Serif" font-size="10.00">xiiFunctionProperty</text>
<text text-anchor="start" x="556" y="-154.5" font-family="Helvetica,sans-Serif" font-size="10.00">&lt; R(CLASS::*)(Args...)</text>
<text text-anchor="middle" x="609.5" y="-143.5" font-family="Helvetica,sans-Serif" font-size="10.00"> const &gt;</text>
</a>
</g>
</g>
<!-- Node5&#45;&gt;Node7 -->
<g id="edge6_Node000005_Node000007" class="edge">
<title>Node5&#45;&gt;Node7</title>
<g id="a_edge6_Node000005_Node000007"><a xlink:title=" ">
<path fill="none" stroke="#63b8ff" d="M491.6,-155.21C510.35,-155.5 530.06,-155.8 547.84,-156.07"/>
<polygon fill="#63b8ff" stroke="#63b8ff" points="491.65,-151.71 481.6,-155.06 491.55,-158.71 491.65,-151.71"/>
</a>
</g>
</g>
<!-- Node8 -->
<g id="Node000008" class="node">
<title>Node8</title>
<g id="a_Node000008"><a xlink:href="../../dc/dd1/classxii_function_property_3_01_r_07_c_l_a_s_s_1_1_5_08_07_args_8_8_8_08_4.htm" target="_top" xlink:title=" ">
<polygon fill="white" stroke="#bfbfbf" points="675,-118 544,-118 544,-88 675,-88 675,-118"/>
<text text-anchor="start" x="552" y="-106" font-family="Helvetica,sans-Serif" font-size="10.00">xiiFunctionProperty</text>
<text text-anchor="middle" x="609.5" y="-95" font-family="Helvetica,sans-Serif" font-size="10.00">&lt; R(CLASS::*)(Args...)&gt;</text>
</a>
</g>
</g>
<!-- Node5&#45;&gt;Node8 -->
<g id="edge7_Node000005_Node000008" class="edge">
<title>Node5&#45;&gt;Node8</title>
<g id="a_edge7_Node000005_Node000008"><a xlink:title=" ">
<path fill="none" stroke="#63b8ff" d="M479.96,-136.45C503.03,-130.44 528.6,-123.79 550.83,-118.01"/>
<polygon fill="#63b8ff" stroke="#63b8ff" points="479.04,-133.07 470.25,-138.97 480.81,-139.84 479.04,-133.07"/>
</a>
</g>
</g>
<!-- Node11 -->
<g id="Node000011" class="node">
<title>Node11</title>
<g id="a_Node000011"><a xlink:href="../../df/dce/classxii_script_coroutine_function_property.htm" target="_top" xlink:title="A function property that creates an instance of the given coroutine type and starts it immediately.">
<polygon fill="white" stroke="#666666" points="682,-70 537,-70 537,-40 682,-40 682,-70"/>
<text text-anchor="start" x="545" y="-58" font-family="Helvetica,sans-Serif" font-size="10.00">xiiScriptCoroutineFunction</text>
<text text-anchor="middle" x="609.5" y="-47" font-family="Helvetica,sans-Serif" font-size="10.00">Property</text>
</a>
</g>
</g>
<!-- Node10&#45;&gt;Node11 -->
<g id="edge10_Node000010_Node000011" class="edge">
<title>Node10&#45;&gt;Node11</title>
<g id="a_edge10_Node000010_Node000011"><a xlink:title=" ">
<path fill="none" stroke="#63b8ff" d="M491.37,-56.79C506.45,-56.56 522.16,-56.32 536.99,-56.09"/>
<polygon fill="#63b8ff" stroke="#63b8ff" points="491,-53.3 481.05,-56.95 491.1,-60.3 491,-53.3"/>
</a>
</g>
</g>
<!-- Node12 -->
<g id="Node000012" class="node">
<title>Node12</title>
<g id="a_Node000012"><a xlink:href="../../dd/d02/classxii_visual_script_function_property.htm" target="_top" xlink:title=" ">
<polygon fill="white" stroke="#bfbfbf" points="694,-21.5 525,-21.5 525,-2.5 694,-2.5 694,-21.5"/>
<text text-anchor="middle" x="609.5" y="-9.5" font-family="Helvetica,sans-Serif" font-size="10.00">xiiVisualScriptFunctionProperty</text>
</a>
</g>
</g>
<!-- Node10&#45;&gt;Node12 -->
<g id="edge11_Node000010_Node000012" class="edge">
<title>Node10&#45;&gt;Node12</title>
<g id="a_edge11_Node000010_Node000012"><a xlink:title=" ">
<path fill="none" stroke="#63b8ff" d="M461.74,-46.05C481.41,-41.31 504.26,-35.85 525,-31 538.32,-27.89 552.85,-24.56 566,-21.57"/>
<polygon fill="#63b8ff" stroke="#63b8ff" points="460.68,-42.7 451.78,-48.45 462.32,-49.51 460.68,-42.7"/>
</a>
</g>
</g>
</g>
</svg>

<g id="navigator" transform="translate(0 0)" fill="#404254">
  <rect fill="#f2f5e9" fill-opacity="0.5" stroke="#606060" stroke-width=".5" x="0" y="0" width="60" height="60"/>
  <use id="zoomplus" xlink:href="#zoomPlus" x="17" y="9" onmousedown="handleZoom(evt,'in')"/>
  <use id="zoomminus" xlink:href="#zoomMin" x="42" y="9" onmousedown="handleZoom(evt,'out')"/>
  <use id="reset" xlink:href="#resetDef" x="30" y="36" onmousedown="handleReset()"/>
   <use id="arrowup" xlink:href="#arrowUp" x="0" y="0" onmousedown="handlePan(0,-1)"/>
  <use id="arrowright" xlink:href="#arrowRight" x="0" y="0" onmousedown="handlePan(1,0)"/>
  <use id="arrowdown" xlink:href="#arrowDown" x="0" y="0" onmousedown="handlePan(0,1)"/>
  <use id="arrowleft" xlink:href="#arrowLeft" x="0" y="0" onmousedown="handlePan(-1,0)"/>
</g>
<svg viewBox="0 0 15 15" width="100%" height="30px" preserveAspectRatio="xMaxYMin meet">
 <g id="arrow_out" transform="scale(0.3 0.3)">
  <a xlink:href="classxii_abstract_function_property__inherit__graph_org.svg" target="_base">
   <rect id="button" ry="5" rx="5" y="6" x="6" height="38" width="38"
        fill="#f2f5e9" fill-opacity="0.5" stroke="#606060" stroke-width="1.0"/>
   <path id="arrow"
     d="M 11.500037,31.436501 C 11.940474,20.09759 22.043105,11.32322 32.158766,21.979434 L 37.068811,17.246167 C 37.068811,17.246167 37.088388,32 37.088388,32 L 22.160133,31.978069 C 22.160133,31.978069 26.997745,27.140456 26.997745,27.140456 C 18.528582,18.264221 13.291696,25.230495 11.500037,31.436501 z"
     style="fill:#404040;"/>
  </a>
 </g>
</svg>

<style type='text/css'>
<![CDATA[
[data-mouse-over-selected='false'] { opacity: 0.7; }
[data-mouse-over-selected='true']  { opacity: 1.0; }
]]>
</style>
<script type="application/ecmascript"><![CDATA[
document.addEventListener('DOMContentLoaded', (event) => {
  highlightEdges();
  highlightAdjacentNodes();
});
]]></script>
</svg>
