<?xml version="1.0" encoding="UTF-8" standalone="no"?>
<!DOCTYPE svg PUBLIC "-//W3C//DTD SVG 1.1//EN"
 "http://www.w3.org/Graphics/SVG/1.1/DTD/svg11.dtd">
<!-- Generated by graphviz version 2.43.0 (0)
 -->
<!-- Title: xiiBoxReflectionProbeVisualizerAttribute Pages: 1 -->
<svg width="180pt" height="258pt"
 viewBox="0.00 0.00 180.00 258.00" xmlns="http://www.w3.org/2000/svg" xmlns:xlink="http://www.w3.org/1999/xlink">

<svg id="main" version="1.1" xmlns="http://www.w3.org/2000/svg" xmlns:xlink="http://www.w3.org/1999/xlink" xml:space="preserve" onload="init(evt)">
<style type="text/css"><![CDATA[
.node, .edge {opacity: 0.7;}
.node.selected, .edge.selected {opacity: 1;}
.edge:hover path { stroke: red; }
.edge:hover polygon { stroke: red; fill: red; }
]]></style>
<script type="application/ecmascript" xlink:href="../../svg.min.js"/>
<svg id="graph" class="graph">
<g id="graph0" class="graph" transform="scale(1 1) rotate(0) translate(4 254)">
<title>xiiBoxReflectionProbeVisualizerAttribute</title>
<!-- Node1 -->
<g id="Node000001" class="node">
<title>Node1</title>
<g id="a_Node000001"><a xlink:title="A special visualizer attribute for box reflection probes.">
<polygon fill="#999999" stroke="#666666" points="172,-30 0,-30 0,0 172,0 172,-30"/>
<text text-anchor="start" x="8" y="-18" font-family="Helvetica,sans-Serif" font-size="10.00">xiiBoxReflectionProbeVisualizer</text>
<text text-anchor="middle" x="86" y="-7" font-family="Helvetica,sans-Serif" font-size="10.00">Attribute</text>
</a>
</g>
</g>
<!-- Node2 -->
<g id="Node000002" class="node">
<title>Node2</title>
<g id="a_Node000002"><a xlink:href="../../dd/d2d/classxii_visualizer_attribute.htm" target="_top" xlink:title=" ">
<polygon fill="white" stroke="#bfbfbf" points="145.5,-85 26.5,-85 26.5,-66 145.5,-66 145.5,-85"/>
<text text-anchor="middle" x="86" y="-73" font-family="Helvetica,sans-Serif" font-size="10.00">xiiVisualizerAttribute</text>
</a>
</g>
</g>
<!-- Node2&#45;&gt;Node1 -->
<g id="edge1_Node000001_Node000002" class="edge">
<title>Node2&#45;&gt;Node1</title>
<g id="a_edge1_Node000001_Node000002"><a xlink:title=" ">
<path fill="none" stroke="#63b8ff" d="M86,-55.65C86,-47.36 86,-37.78 86,-30.11"/>
<polygon fill="#63b8ff" stroke="#63b8ff" points="82.5,-55.87 86,-65.87 89.5,-55.87 82.5,-55.87"/>
</a>
</g>
</g>
<!-- Node3 -->
<g id="Node000003" class="node">
<title>Node3</title>
<g id="a_Node000003"><a xlink:href="../../d5/df0/classxii_property_attribute.htm" target="_top" xlink:title="Base class of all attributes can be used to decorate a RTTI property.">
<polygon fill="white" stroke="#666666" points="142.5,-140 29.5,-140 29.5,-121 142.5,-121 142.5,-140"/>
<text text-anchor="middle" x="86" y="-128" font-family="Helvetica,sans-Serif" font-size="10.00">xiiPropertyAttribute</text>
</a>
</g>
</g>
<!-- Node3&#45;&gt;Node2 -->
<g id="edge2_Node000002_Node000003" class="edge">
<title>Node3&#45;&gt;Node2</title>
<g id="a_edge2_Node000002_Node000003"><a xlink:title=" ">
<path fill="none" stroke="#63b8ff" d="M86,-110.66C86,-101.93 86,-91.99 86,-85.09"/>
<polygon fill="#63b8ff" stroke="#63b8ff" points="82.5,-110.75 86,-120.75 89.5,-110.75 82.5,-110.75"/>
</a>
</g>
</g>
<!-- Node4 -->
<g id="Node000004" class="node">
<title>Node4</title>
<g id="a_Node000004"><a xlink:href="../../dc/d71/classxii_reflected_class.htm" target="_top" xlink:title="All classes that should be dynamically reflectable, need to be derived from this base class.">
<polygon fill="white" stroke="#666666" points="136.5,-195 35.5,-195 35.5,-176 136.5,-176 136.5,-195"/>
<text text-anchor="middle" x="86" y="-183" font-family="Helvetica,sans-Serif" font-size="10.00">xiiReflectedClass</text>
</a>
</g>
</g>
<!-- Node4&#45;&gt;Node3 -->
<g id="edge3_Node000003_Node000004" class="edge">
<title>Node4&#45;&gt;Node3</title>
<g id="a_edge3_Node000003_Node000004"><a xlink:title=" ">
<path fill="none" stroke="#63b8ff" d="M86,-165.66C86,-156.93 86,-146.99 86,-140.09"/>
<polygon fill="#63b8ff" stroke="#63b8ff" points="82.5,-165.75 86,-175.75 89.5,-165.75 82.5,-165.75"/>
</a>
</g>
</g>
<!-- Node5 -->
<g id="Node000005" class="node">
<title>Node5</title>
<g id="a_Node000005"><a xlink:href="../../d2/d38/classxii_no_base.htm" target="_top" xlink:title="Dummy type to pass to templates and macros that expect a base type for a class that has no base.">
<polygon fill="white" stroke="#666666" points="119,-250 53,-250 53,-231 119,-231 119,-250"/>
<text text-anchor="middle" x="86" y="-238" font-family="Helvetica,sans-Serif" font-size="10.00">xiiNoBase</text>
</a>
</g>
</g>
<!-- Node5&#45;&gt;Node4 -->
<g id="edge4_Node000004_Node000005" class="edge">
<title>Node5&#45;&gt;Node4</title>
<g id="a_edge4_Node000004_Node000005"><a xlink:title=" ">
<path fill="none" stroke="#63b8ff" d="M86,-220.66C86,-211.93 86,-201.99 86,-195.09"/>
<polygon fill="#63b8ff" stroke="#63b8ff" points="82.5,-220.75 86,-230.75 89.5,-220.75 82.5,-220.75"/>
</a>
</g>
</g>
</g>
</svg>
</svg>

<style type='text/css'>
<![CDATA[
[data-mouse-over-selected='false'] { opacity: 0.7; }
[data-mouse-over-selected='true']  { opacity: 1.0; }
]]>
</style>
<script type="application/ecmascript"><![CDATA[
document.addEventListener('DOMContentLoaded', (event) => {
  highlightEdges();
  highlightAdjacentNodes();
});
]]></script>
</svg>
