<?xml version="1.0" encoding="UTF-8" standalone="no"?>
<!DOCTYPE svg PUBLIC "-//W3C//DTD SVG 1.1//EN"
 "http://www.w3.org/Graphics/SVG/1.1/DTD/svg11.dtd">
<!-- Generated by graphviz version 2.43.0 (0)
 -->
<!-- Title: xiiBoxReflectionProbeVisualizerAttribute Pages: 1 -->
<svg width="180pt" height="263pt"
 viewBox="0.00 0.00 180.00 263.00" xmlns="http://www.w3.org/2000/svg" xmlns:xlink="http://www.w3.org/1999/xlink">
<g id="graph0" class="graph" transform="scale(1 1) rotate(0) translate(4 259)">
<title>xiiBoxReflectionProbeVisualizerAttribute</title>
<polygon fill="white" stroke="transparent" points="-4,4 -4,-259 176,-259 176,4 -4,4"/>
<!-- Node1 -->
<g id="node1" class="node">
<title>Node1</title>
<g id="a_node1"><a xlink:title="A special visualizer attribute for box reflection probes.">
<polygon fill="#bfbfbf" stroke="black" points="0,-0.5 0,-30.5 172,-30.5 172,-0.5 0,-0.5"/>
<text text-anchor="start" x="8" y="-18.5" font-family="Helvetica,sans-Serif" font-size="10.00">xiiBoxReflectionProbeVisualizer</text>
<text text-anchor="middle" x="86" y="-7.5" font-family="Helvetica,sans-Serif" font-size="10.00">Attribute</text>
</a>
</g>
</g>
<!-- Node2 -->
<g id="node2" class="node">
<title>Node2</title>
<g id="a_node2"><a xlink:href="../../dd/d2d/classxii_visualizer_attribute.htm" target="_top" xlink:title=" ">
<polygon fill="white" stroke="black" points="26.5,-67.5 26.5,-86.5 145.5,-86.5 145.5,-67.5 26.5,-67.5"/>
<text text-anchor="middle" x="86" y="-74.5" font-family="Helvetica,sans-Serif" font-size="10.00">xiiVisualizerAttribute</text>
</a>
</g>
</g>
<!-- Node2&#45;&gt;Node1 -->
<g id="edge1" class="edge">
<title>Node2&#45;&gt;Node1</title>
<path fill="none" stroke="midnightblue" d="M86,-57.23C86,-48.59 86,-38.5 86,-30.52"/>
<polygon fill="midnightblue" stroke="midnightblue" points="82.5,-57.48 86,-67.48 89.5,-57.48 82.5,-57.48"/>
</g>
<!-- Node3 -->
<g id="node3" class="node">
<title>Node3</title>
<g id="a_node3"><a xlink:href="../../d5/df0/classxii_property_attribute.htm" target="_top" xlink:title="Base class of all attributes can be used to decorate a RTTI property.">
<polygon fill="white" stroke="black" points="29.5,-123.5 29.5,-142.5 142.5,-142.5 142.5,-123.5 29.5,-123.5"/>
<text text-anchor="middle" x="86" y="-130.5" font-family="Helvetica,sans-Serif" font-size="10.00">xiiPropertyAttribute</text>
</a>
</g>
</g>
<!-- Node3&#45;&gt;Node2 -->
<g id="edge2" class="edge">
<title>Node3&#45;&gt;Node2</title>
<path fill="none" stroke="midnightblue" d="M86,-112.8C86,-103.91 86,-93.78 86,-86.75"/>
<polygon fill="midnightblue" stroke="midnightblue" points="82.5,-113.08 86,-123.08 89.5,-113.08 82.5,-113.08"/>
</g>
<!-- Node4 -->
<g id="node4" class="node">
<title>Node4</title>
<g id="a_node4"><a xlink:href="../../dc/d71/classxii_reflected_class.htm" target="_top" xlink:title="All classes that should be dynamically reflectable, need to be derived from this base class.">
<polygon fill="white" stroke="black" points="35.5,-179.5 35.5,-198.5 136.5,-198.5 136.5,-179.5 35.5,-179.5"/>
<text text-anchor="middle" x="86" y="-186.5" font-family="Helvetica,sans-Serif" font-size="10.00">xiiReflectedClass</text>
</a>
</g>
</g>
<!-- Node4&#45;&gt;Node3 -->
<g id="edge3" class="edge">
<title>Node4&#45;&gt;Node3</title>
<path fill="none" stroke="midnightblue" d="M86,-168.8C86,-159.91 86,-149.78 86,-142.75"/>
<polygon fill="midnightblue" stroke="midnightblue" points="82.5,-169.08 86,-179.08 89.5,-169.08 82.5,-169.08"/>
</g>
<!-- Node5 -->
<g id="node5" class="node">
<title>Node5</title>
<g id="a_node5"><a xlink:href="../../d2/d38/classxii_no_base.htm" target="_top" xlink:title="Dummy type to pass to templates and macros that expect a base type for a class that has no base.">
<polygon fill="white" stroke="black" points="53,-235.5 53,-254.5 119,-254.5 119,-235.5 53,-235.5"/>
<text text-anchor="middle" x="86" y="-242.5" font-family="Helvetica,sans-Serif" font-size="10.00">xiiNoBase</text>
</a>
</g>
</g>
<!-- Node5&#45;&gt;Node4 -->
<g id="edge4" class="edge">
<title>Node5&#45;&gt;Node4</title>
<path fill="none" stroke="midnightblue" d="M86,-224.8C86,-215.91 86,-205.78 86,-198.75"/>
<polygon fill="midnightblue" stroke="midnightblue" points="82.5,-225.08 86,-235.08 89.5,-225.08 82.5,-225.08"/>
</g>
</g>
</svg>
