<?xml version="1.0" encoding="UTF-8" standalone="no"?>
<!DOCTYPE svg PUBLIC "-//W3C//DTD SVG 1.1//EN"
 "http://www.w3.org/Graphics/SVG/1.1/DTD/svg11.dtd">
<!-- Generated by graphviz version 2.43.0 (0)
 -->
<!-- Title: xiiQtNameableAdapter Pages: 1 -->
<svg width="302pt" height="247pt"
 viewBox="0.00 0.00 301.50 247.00" xmlns="http://www.w3.org/2000/svg" xmlns:xlink="http://www.w3.org/1999/xlink">

<svg id="main" version="1.1" xmlns="http://www.w3.org/2000/svg" xmlns:xlink="http://www.w3.org/1999/xlink" xml:space="preserve" onload="init(evt)">
<style type="text/css"><![CDATA[
.node, .edge {opacity: 0.7;}
.node.selected, .edge.selected {opacity: 1;}
.edge:hover path { stroke: red; }
.edge:hover polygon { stroke: red; fill: red; }
]]></style>
<script type="application/ecmascript" xlink:href="../../svg.min.js"/>
<svg id="graph" class="graph">
<g id="graph0" class="graph" transform="scale(1 1) rotate(0) translate(4 243)">
<title>xiiQtNameableAdapter</title>
<!-- Node1 -->
<g id="Node000001" class="node">
<title>Node1</title>
<g id="a_Node000001"><a xlink:title="Convenience class that implements setting the name via a property on the object.">
<polygon fill="#999999" stroke="#666666" points="210,-74 82,-74 82,-55 210,-55 210,-74"/>
<text text-anchor="middle" x="146" y="-62" font-family="Helvetica,sans-Serif" font-size="10.00">xiiQtNameableAdapter</text>
</a>
</g>
</g>
<!-- Node5 -->
<g id="Node000005" class="node">
<title>Node5</title>
<g id="a_Node000005"><a xlink:title=" ">
<polygon fill="white" stroke="#bfbfbf" points="136,-19 0,-19 0,0 136,0 136,-19"/>
<text text-anchor="middle" x="68" y="-7" font-family="Helvetica,sans-Serif" font-size="10.00">xiiQtAssetConfigAdapter</text>
</a>
</g>
</g>
<!-- Node1&#45;&gt;Node5 -->
<g id="edge4_Node000001_Node000005" class="edge">
<title>Node1&#45;&gt;Node5</title>
<g id="a_edge4_Node000001_Node000005"><a xlink:title=" ">
<path fill="none" stroke="#63b8ff" d="M124.88,-49.15C110.79,-39.57 92.71,-27.29 80.76,-19.17"/>
<polygon fill="#63b8ff" stroke="#63b8ff" points="123.23,-52.26 133.47,-54.98 127.16,-46.47 123.23,-52.26"/>
</a>
</g>
</g>
<!-- Node6 -->
<g id="Node000006" class="node">
<title>Node6</title>
<g id="a_Node000006"><a xlink:href="../../d5/d21/classxii_qt_game_object_adapter.html" target="_top" xlink:title=" ">
<polygon fill="white" stroke="#bfbfbf" points="293.5,-19 154.5,-19 154.5,0 293.5,0 293.5,-19"/>
<text text-anchor="middle" x="224" y="-7" font-family="Helvetica,sans-Serif" font-size="10.00">xiiQtGameObjectAdapter</text>
</a>
</g>
</g>
<!-- Node1&#45;&gt;Node6 -->
<g id="edge5_Node000001_Node000006" class="edge">
<title>Node1&#45;&gt;Node6</title>
<g id="a_edge5_Node000001_Node000006"><a xlink:title=" ">
<path fill="none" stroke="#63b8ff" d="M167.12,-49.15C181.21,-39.57 199.29,-27.29 211.24,-19.17"/>
<polygon fill="#63b8ff" stroke="#63b8ff" points="164.84,-46.47 158.53,-54.98 168.77,-52.26 164.84,-46.47"/>
</a>
</g>
</g>
<!-- Node2 -->
<g id="Node000002" class="node">
<title>Node2</title>
<g id="a_Node000002"><a xlink:href="../../d2/d9c/classxii_qt_named_adapter.html" target="_top" xlink:title="Convenience class that implements getting the name via a property on the object.">
<polygon fill="white" stroke="#666666" points="202.5,-129 89.5,-129 89.5,-110 202.5,-110 202.5,-129"/>
<text text-anchor="middle" x="146" y="-117" font-family="Helvetica,sans-Serif" font-size="10.00">xiiQtNamedAdapter</text>
</a>
</g>
</g>
<!-- Node2&#45;&gt;Node1 -->
<g id="edge1_Node000001_Node000002" class="edge">
<title>Node2&#45;&gt;Node1</title>
<g id="a_edge1_Node000001_Node000002"><a xlink:title=" ">
<path fill="none" stroke="#63b8ff" d="M146,-99.66C146,-90.93 146,-80.99 146,-74.09"/>
<polygon fill="#63b8ff" stroke="#63b8ff" points="142.5,-99.75 146,-109.75 149.5,-99.75 142.5,-99.75"/>
</a>
</g>
</g>
<!-- Node3 -->
<g id="Node000003" class="node">
<title>Node3</title>
<g id="a_Node000003"><a xlink:href="../../d5/d1b/classxii_qt_document_tree_model_adapter.html" target="_top" xlink:title="Adapter that defines data for specific type in the xiiQtDocumentTreeModel.">
<polygon fill="white" stroke="#666666" points="235.5,-184 56.5,-184 56.5,-165 235.5,-165 235.5,-184"/>
<text text-anchor="middle" x="146" y="-172" font-family="Helvetica,sans-Serif" font-size="10.00">xiiQtDocumentTreeModelAdapter</text>
</a>
</g>
</g>
<!-- Node3&#45;&gt;Node2 -->
<g id="edge2_Node000002_Node000003" class="edge">
<title>Node3&#45;&gt;Node2</title>
<g id="a_edge2_Node000002_Node000003"><a xlink:title=" ">
<path fill="none" stroke="#63b8ff" d="M146,-154.66C146,-145.93 146,-135.99 146,-129.09"/>
<polygon fill="#63b8ff" stroke="#63b8ff" points="142.5,-154.75 146,-164.75 149.5,-154.75 142.5,-154.75"/>
</a>
</g>
</g>
<!-- Node4 -->
<g id="Node000004" class="node">
<title>Node4</title>
<g id="a_Node000004"><a xlink:title=" ">
<polygon fill="white" stroke="#bfbfbf" points="174,-239 118,-239 118,-220 174,-220 174,-239"/>
<text text-anchor="middle" x="146" y="-227" font-family="Helvetica,sans-Serif" font-size="10.00">QObject</text>
</a>
</g>
</g>
<!-- Node4&#45;&gt;Node3 -->
<g id="edge3_Node000003_Node000004" class="edge">
<title>Node4&#45;&gt;Node3</title>
<g id="a_edge3_Node000003_Node000004"><a xlink:title=" ">
<path fill="none" stroke="#63b8ff" d="M146,-209.66C146,-200.93 146,-190.99 146,-184.09"/>
<polygon fill="#63b8ff" stroke="#63b8ff" points="142.5,-209.75 146,-219.75 149.5,-209.75 142.5,-209.75"/>
</a>
</g>
</g>
</g>
</svg>
</svg>

<style type='text/css'>
<![CDATA[
[data-mouse-over-selected='false'] { opacity: 0.7; }
[data-mouse-over-selected='true']  { opacity: 1.0; }
]]>
</style>
<script type="application/ecmascript"><![CDATA[
document.addEventListener('DOMContentLoaded', (event) => {
  highlightEdges();
  highlightAdjacentNodes();
});
]]></script>
</svg>
