<?xml version="1.0" encoding="UTF-8" standalone="no"?>
<!DOCTYPE svg PUBLIC "-//W3C//DTD SVG 1.1//EN"
 "http://www.w3.org/Graphics/SVG/1.1/DTD/svg11.dtd">
<!-- Generated by graphviz version 2.43.0 (0)
 -->
<!-- Title: xiiQtNameableAdapter Pages: 1 -->
<svg width="302pt" height="252pt"
 viewBox="0.00 0.00 301.50 252.00" xmlns="http://www.w3.org/2000/svg" xmlns:xlink="http://www.w3.org/1999/xlink">
<g id="graph0" class="graph" transform="scale(1 1) rotate(0) translate(4 248)">
<title>xiiQtNameableAdapter</title>
<polygon fill="white" stroke="transparent" points="-4,4 -4,-248 297.5,-248 297.5,4 -4,4"/>
<!-- Node1 -->
<g id="node1" class="node">
<title>Node1</title>
<g id="a_node1"><a xlink:title="Convenience class that implements setting the name via a property on the object.">
<polygon fill="#bfbfbf" stroke="black" points="82,-56.5 82,-75.5 210,-75.5 210,-56.5 82,-56.5"/>
<text text-anchor="middle" x="146" y="-63.5" font-family="Helvetica,sans-Serif" font-size="10.00">xiiQtNameableAdapter</text>
</a>
</g>
</g>
<!-- Node5 -->
<g id="node5" class="node">
<title>Node5</title>
<g id="a_node5"><a xlink:title=" ">
<polygon fill="white" stroke="#bfbfbf" points="0,-0.5 0,-19.5 136,-19.5 136,-0.5 0,-0.5"/>
<text text-anchor="middle" x="68" y="-7.5" font-family="Helvetica,sans-Serif" font-size="10.00">xiiQtAssetConfigAdapter</text>
</a>
</g>
</g>
<!-- Node1&#45;&gt;Node5 -->
<g id="edge4" class="edge">
<title>Node1&#45;&gt;Node5</title>
<path fill="none" stroke="midnightblue" d="M125.23,-50.62C110.98,-40.76 92.54,-27.99 80.5,-19.65"/>
<polygon fill="midnightblue" stroke="midnightblue" points="123.25,-53.51 133.47,-56.32 127.24,-47.75 123.25,-53.51"/>
</g>
<!-- Node6 -->
<g id="node6" class="node">
<title>Node6</title>
<g id="a_node6"><a xlink:href="../../d5/d21/classxii_qt_game_object_adapter.htm" target="_top" xlink:title=" ">
<polygon fill="white" stroke="black" points="154.5,-0.5 154.5,-19.5 293.5,-19.5 293.5,-0.5 154.5,-0.5"/>
<text text-anchor="middle" x="224" y="-7.5" font-family="Helvetica,sans-Serif" font-size="10.00">xiiQtGameObjectAdapter</text>
</a>
</g>
</g>
<!-- Node1&#45;&gt;Node6 -->
<g id="edge5" class="edge">
<title>Node1&#45;&gt;Node6</title>
<path fill="none" stroke="midnightblue" d="M166.77,-50.62C181.02,-40.76 199.46,-27.99 211.5,-19.65"/>
<polygon fill="midnightblue" stroke="midnightblue" points="164.76,-47.75 158.53,-56.32 168.75,-53.51 164.76,-47.75"/>
</g>
<!-- Node2 -->
<g id="node2" class="node">
<title>Node2</title>
<g id="a_node2"><a xlink:href="../../d2/d9c/classxii_qt_named_adapter.htm" target="_top" xlink:title="Convenience class that implements getting the name via a property on the object.">
<polygon fill="white" stroke="black" points="89.5,-112.5 89.5,-131.5 202.5,-131.5 202.5,-112.5 89.5,-112.5"/>
<text text-anchor="middle" x="146" y="-119.5" font-family="Helvetica,sans-Serif" font-size="10.00">xiiQtNamedAdapter</text>
</a>
</g>
</g>
<!-- Node2&#45;&gt;Node1 -->
<g id="edge1" class="edge">
<title>Node2&#45;&gt;Node1</title>
<path fill="none" stroke="midnightblue" d="M146,-101.8C146,-92.91 146,-82.78 146,-75.75"/>
<polygon fill="midnightblue" stroke="midnightblue" points="142.5,-102.08 146,-112.08 149.5,-102.08 142.5,-102.08"/>
</g>
<!-- Node3 -->
<g id="node3" class="node">
<title>Node3</title>
<g id="a_node3"><a xlink:href="../../d5/d1b/classxii_qt_document_tree_model_adapter.htm" target="_top" xlink:title="Adapter that defines data for specific type in the xiiQtDocumentTreeModel.">
<polygon fill="white" stroke="black" points="56.5,-168.5 56.5,-187.5 235.5,-187.5 235.5,-168.5 56.5,-168.5"/>
<text text-anchor="middle" x="146" y="-175.5" font-family="Helvetica,sans-Serif" font-size="10.00">xiiQtDocumentTreeModelAdapter</text>
</a>
</g>
</g>
<!-- Node3&#45;&gt;Node2 -->
<g id="edge2" class="edge">
<title>Node3&#45;&gt;Node2</title>
<path fill="none" stroke="midnightblue" d="M146,-157.8C146,-148.91 146,-138.78 146,-131.75"/>
<polygon fill="midnightblue" stroke="midnightblue" points="142.5,-158.08 146,-168.08 149.5,-158.08 142.5,-158.08"/>
</g>
<!-- Node4 -->
<g id="node4" class="node">
<title>Node4</title>
<g id="a_node4"><a xlink:title=" ">
<polygon fill="white" stroke="#bfbfbf" points="118,-224.5 118,-243.5 174,-243.5 174,-224.5 118,-224.5"/>
<text text-anchor="middle" x="146" y="-231.5" font-family="Helvetica,sans-Serif" font-size="10.00">QObject</text>
</a>
</g>
</g>
<!-- Node4&#45;&gt;Node3 -->
<g id="edge3" class="edge">
<title>Node4&#45;&gt;Node3</title>
<path fill="none" stroke="midnightblue" d="M146,-213.8C146,-204.91 146,-194.78 146,-187.75"/>
<polygon fill="midnightblue" stroke="midnightblue" points="142.5,-214.08 146,-224.08 149.5,-214.08 142.5,-214.08"/>
</g>
</g>
</svg>
