<?xml version="1.0" encoding="UTF-8" standalone="no"?>
<!DOCTYPE svg PUBLIC "-//W3C//DTD SVG 1.1//EN"
 "http://www.w3.org/Graphics/SVG/1.1/DTD/svg11.dtd">
<!-- Generated by graphviz version 2.43.0 (0)
 -->
<!-- Title: xiiQtAnimationClipAssetDocumentWindow Pages: 1 -->
<svg width="194pt" height="207pt"
 viewBox="0.00 0.00 194.00 207.00" xmlns="http://www.w3.org/2000/svg" xmlns:xlink="http://www.w3.org/1999/xlink">
<g id="graph0" class="graph" transform="scale(1 1) rotate(0) translate(4 203)">
<title>xiiQtAnimationClipAssetDocumentWindow</title>
<polygon fill="white" stroke="transparent" points="-4,4 -4,-203 190,-203 190,4 -4,4"/>
<!-- Node1 -->
<g id="node1" class="node">
<title>Node1</title>
<g id="a_node1"><a xlink:title=" ">
<polygon fill="#bfbfbf" stroke="black" points="0,-0.5 0,-30.5 186,-30.5 186,-0.5 0,-0.5"/>
<text text-anchor="start" x="8" y="-18.5" font-family="Helvetica,sans-Serif" font-size="10.00">xiiQtAnimationClipAssetDocument</text>
<text text-anchor="middle" x="93" y="-7.5" font-family="Helvetica,sans-Serif" font-size="10.00">Window</text>
</a>
</g>
</g>
<!-- Node2 -->
<g id="node2" class="node">
<title>Node2</title>
<g id="a_node2"><a xlink:href="../../d0/d97/classxii_qt_engine_document_window.htm" target="_top" xlink:title="Base class for all document windows that need a connection to the engine process, and might want to r...">
<polygon fill="white" stroke="black" points="12,-67.5 12,-86.5 174,-86.5 174,-67.5 12,-67.5"/>
<text text-anchor="middle" x="93" y="-74.5" font-family="Helvetica,sans-Serif" font-size="10.00">xiiQtEngineDocumentWindow</text>
</a>
</g>
</g>
<!-- Node2&#45;&gt;Node1 -->
<g id="edge1" class="edge">
<title>Node2&#45;&gt;Node1</title>
<path fill="none" stroke="midnightblue" d="M93,-57.23C93,-48.59 93,-38.5 93,-30.52"/>
<polygon fill="midnightblue" stroke="midnightblue" points="89.5,-57.48 93,-67.48 96.5,-57.48 89.5,-57.48"/>
</g>
<!-- Node3 -->
<g id="node3" class="node">
<title>Node3</title>
<g id="a_node3"><a xlink:href="../../d8/dd2/classxii_qt_document_window.htm" target="_top" xlink:title="Base class for all document windows. Handles the most basic document window management.">
<polygon fill="white" stroke="black" points="28.5,-123.5 28.5,-142.5 157.5,-142.5 157.5,-123.5 28.5,-123.5"/>
<text text-anchor="middle" x="93" y="-130.5" font-family="Helvetica,sans-Serif" font-size="10.00">xiiQtDocumentWindow</text>
</a>
</g>
</g>
<!-- Node3&#45;&gt;Node2 -->
<g id="edge2" class="edge">
<title>Node3&#45;&gt;Node2</title>
<path fill="none" stroke="midnightblue" d="M93,-112.8C93,-103.91 93,-93.78 93,-86.75"/>
<polygon fill="midnightblue" stroke="midnightblue" points="89.5,-113.08 93,-123.08 96.5,-113.08 89.5,-113.08"/>
</g>
<!-- Node4 -->
<g id="node4" class="node">
<title>Node4</title>
<g id="a_node4"><a xlink:title=" ">
<polygon fill="white" stroke="#bfbfbf" points="49.5,-179.5 49.5,-198.5 136.5,-198.5 136.5,-179.5 49.5,-179.5"/>
<text text-anchor="middle" x="93" y="-186.5" font-family="Helvetica,sans-Serif" font-size="10.00">QMainWindow</text>
</a>
</g>
</g>
<!-- Node4&#45;&gt;Node3 -->
<g id="edge3" class="edge">
<title>Node4&#45;&gt;Node3</title>
<path fill="none" stroke="midnightblue" d="M93,-168.8C93,-159.91 93,-149.78 93,-142.75"/>
<polygon fill="midnightblue" stroke="midnightblue" points="89.5,-169.08 93,-179.08 96.5,-169.08 89.5,-169.08"/>
</g>
</g>
</svg>
