<?xml version="1.0" encoding="UTF-8" standalone="no"?>
<!DOCTYPE svg PUBLIC "-//W3C//DTD SVG 1.1//EN"
 "http://www.w3.org/Graphics/SVG/1.1/DTD/svg11.dtd">
<!-- Generated by graphviz version 2.43.0 (0)
 -->
<!-- Title: xiiQtAnimationClipAssetDocumentWindow Pages: 1 -->
<svg width="194pt" height="203pt"
 viewBox="0.00 0.00 194.00 203.00" xmlns="http://www.w3.org/2000/svg" xmlns:xlink="http://www.w3.org/1999/xlink">
<g id="graph0" class="graph" transform="scale(1 1) rotate(0) translate(4 199)">
<title>xiiQtAnimationClipAssetDocumentWindow</title>
<!-- Node1 -->
<g id="Node000001" class="node">
<title>Node1</title>
<g id="a_Node000001"><a xlink:title=" ">
<polygon fill="#999999" stroke="#666666" points="186,-30 0,-30 0,0 186,0 186,-30"/>
<text text-anchor="start" x="8" y="-18" font-family="Helvetica,sans-Serif" font-size="10.00">xiiQtAnimationClipAssetDocument</text>
<text text-anchor="middle" x="93" y="-7" font-family="Helvetica,sans-Serif" font-size="10.00">Window</text>
</a>
</g>
</g>
<!-- Node2 -->
<g id="Node000002" class="node">
<title>Node2</title>
<g id="a_Node000002"><a xlink:href="../../d0/d97/classxii_qt_engine_document_window.htm" target="_top" xlink:title="Base class for all document windows that need a connection to the engine process, and might want to r...">
<polygon fill="white" stroke="#666666" points="174,-85 12,-85 12,-66 174,-66 174,-85"/>
<text text-anchor="middle" x="93" y="-73" font-family="Helvetica,sans-Serif" font-size="10.00">xiiQtEngineDocumentWindow</text>
</a>
</g>
</g>
<!-- Node2&#45;&gt;Node1 -->
<g id="edge1_Node000001_Node000002" class="edge">
<title>Node2&#45;&gt;Node1</title>
<g id="a_edge1_Node000001_Node000002"><a xlink:title=" ">
<path fill="none" stroke="#63b8ff" d="M93,-55.65C93,-47.36 93,-37.78 93,-30.11"/>
<polygon fill="#63b8ff" stroke="#63b8ff" points="89.5,-55.87 93,-65.87 96.5,-55.87 89.5,-55.87"/>
</a>
</g>
</g>
<!-- Node3 -->
<g id="Node000003" class="node">
<title>Node3</title>
<g id="a_Node000003"><a xlink:href="../../d8/dd2/classxii_qt_document_window.htm" target="_top" xlink:title="Base class for all document windows. Handles the most basic document window management.">
<polygon fill="white" stroke="#666666" points="157.5,-140 28.5,-140 28.5,-121 157.5,-121 157.5,-140"/>
<text text-anchor="middle" x="93" y="-128" font-family="Helvetica,sans-Serif" font-size="10.00">xiiQtDocumentWindow</text>
</a>
</g>
</g>
<!-- Node3&#45;&gt;Node2 -->
<g id="edge2_Node000002_Node000003" class="edge">
<title>Node3&#45;&gt;Node2</title>
<g id="a_edge2_Node000002_Node000003"><a xlink:title=" ">
<path fill="none" stroke="#63b8ff" d="M93,-110.66C93,-101.93 93,-91.99 93,-85.09"/>
<polygon fill="#63b8ff" stroke="#63b8ff" points="89.5,-110.75 93,-120.75 96.5,-110.75 89.5,-110.75"/>
</a>
</g>
</g>
<!-- Node4 -->
<g id="Node000004" class="node">
<title>Node4</title>
<g id="a_Node000004"><a xlink:title=" ">
<polygon fill="white" stroke="#bfbfbf" points="136.5,-195 49.5,-195 49.5,-176 136.5,-176 136.5,-195"/>
<text text-anchor="middle" x="93" y="-183" font-family="Helvetica,sans-Serif" font-size="10.00">QMainWindow</text>
</a>
</g>
</g>
<!-- Node4&#45;&gt;Node3 -->
<g id="edge3_Node000003_Node000004" class="edge">
<title>Node4&#45;&gt;Node3</title>
<g id="a_edge3_Node000003_Node000004"><a xlink:title=" ">
<path fill="none" stroke="#63b8ff" d="M93,-165.66C93,-156.93 93,-146.99 93,-140.09"/>
<polygon fill="#63b8ff" stroke="#63b8ff" points="89.5,-165.75 93,-175.75 96.5,-165.75 89.5,-165.75"/>
</a>
</g>
</g>
</g>
</svg>
