<?xml version="1.0" encoding="UTF-8" standalone="no"?>
<!DOCTYPE svg PUBLIC "-//W3C//DTD SVG 1.1//EN"
 "http://www.w3.org/Graphics/SVG/1.1/DTD/svg11.dtd">
<!-- Generated by graphviz version 2.43.0 (0)
 -->
<!-- Title: xiiGALFence Pages: 1 -->
<svg width="488pt" height="308pt"
 viewBox="0.00 0.00 487.50 308.00" xmlns="http://www.w3.org/2000/svg" xmlns:xlink="http://www.w3.org/1999/xlink">
<g id="graph0" class="graph" transform="scale(1 1) rotate(0) translate(4 304)">
<title>xiiGALFence</title>
<polygon fill="white" stroke="transparent" points="-4,4 -4,-304 483.5,-304 483.5,4 -4,4"/>
<!-- Node1 -->
<g id="node1" class="node">
<title>Node1</title>
<g id="a_node1"><a xlink:title="Interface that defines methods to manipulate a fence object.">
<polygon fill="#bfbfbf" stroke="black" points="204.5,-56.5 204.5,-75.5 281.5,-75.5 281.5,-56.5 204.5,-56.5"/>
<text text-anchor="middle" x="243" y="-63.5" font-family="Helvetica,sans-Serif" font-size="10.00">xiiGALFence</text>
</a>
</g>
</g>
<!-- Node8 -->
<g id="node8" class="node">
<title>Node8</title>
<g id="a_node8"><a xlink:href="../../d5/d78/classxii_g_a_l_fence_d3_d11.htm" target="_top" xlink:title=" ">
<polygon fill="white" stroke="black" points="0,-0.5 0,-19.5 110,-19.5 110,-0.5 0,-0.5"/>
<text text-anchor="middle" x="55" y="-7.5" font-family="Helvetica,sans-Serif" font-size="10.00">xiiGALFenceD3D11</text>
</a>
</g>
</g>
<!-- Node1&#45;&gt;Node8 -->
<g id="edge7" class="edge">
<title>Node1&#45;&gt;Node8</title>
<path fill="none" stroke="midnightblue" d="M203.2,-53.57C167.73,-43.38 116.63,-28.7 84.65,-19.52"/>
<polygon fill="midnightblue" stroke="midnightblue" points="202.63,-57.05 213.21,-56.44 204.57,-50.32 202.63,-57.05"/>
</g>
<!-- Node9 -->
<g id="node9" class="node">
<title>Node9</title>
<g id="a_node9"><a xlink:href="../../d1/d8c/classxii_g_a_l_fence_d3_d12.htm" target="_top" xlink:title=" ">
<polygon fill="white" stroke="black" points="128,-0.5 128,-19.5 238,-19.5 238,-0.5 128,-0.5"/>
<text text-anchor="middle" x="183" y="-7.5" font-family="Helvetica,sans-Serif" font-size="10.00">xiiGALFenceD3D12</text>
</a>
</g>
</g>
<!-- Node1&#45;&gt;Node9 -->
<g id="edge8" class="edge">
<title>Node1&#45;&gt;Node9</title>
<path fill="none" stroke="midnightblue" d="M225.82,-49.54C215.12,-39.91 201.74,-27.87 192.82,-19.83"/>
<polygon fill="midnightblue" stroke="midnightblue" points="223.59,-52.24 233.36,-56.32 228.27,-47.03 223.59,-52.24"/>
</g>
<!-- Node10 -->
<g id="node10" class="node">
<title>Node10</title>
<g id="a_node10"><a xlink:href="../../d4/d1d/classxii_g_a_l_fence_null.htm" target="_top" xlink:title=" ">
<polygon fill="white" stroke="black" points="256,-0.5 256,-19.5 352,-19.5 352,-0.5 256,-0.5"/>
<text text-anchor="middle" x="304" y="-7.5" font-family="Helvetica,sans-Serif" font-size="10.00">xiiGALFenceNull</text>
</a>
</g>
</g>
<!-- Node1&#45;&gt;Node10 -->
<g id="edge9" class="edge">
<title>Node1&#45;&gt;Node10</title>
<path fill="none" stroke="midnightblue" d="M260.47,-49.54C271.34,-39.91 284.94,-27.87 294.02,-19.83"/>
<polygon fill="midnightblue" stroke="midnightblue" points="257.97,-47.07 252.8,-56.32 262.61,-52.32 257.97,-47.07"/>
</g>
<!-- Node11 -->
<g id="node11" class="node">
<title>Node11</title>
<g id="a_node11"><a xlink:href="../../dc/df3/classxii_g_a_l_fence_vulkan.htm" target="_top" xlink:title=" ">
<polygon fill="white" stroke="black" points="370.5,-0.5 370.5,-19.5 479.5,-19.5 479.5,-0.5 370.5,-0.5"/>
<text text-anchor="middle" x="425" y="-7.5" font-family="Helvetica,sans-Serif" font-size="10.00">xiiGALFenceVulkan</text>
</a>
</g>
</g>
<!-- Node1&#45;&gt;Node11 -->
<g id="edge10" class="edge">
<title>Node1&#45;&gt;Node11</title>
<path fill="none" stroke="midnightblue" d="M281.53,-53.57C315.86,-43.38 365.33,-28.7 396.3,-19.52"/>
<polygon fill="midnightblue" stroke="midnightblue" points="280.43,-50.24 271.84,-56.44 282.42,-56.95 280.43,-50.24"/>
</g>
<!-- Node2 -->
<g id="node2" class="node">
<title>Node2</title>
<g id="a_node2"><a xlink:href="../../d5/d12/classxii_g_a_l_device_object.htm" target="_top" xlink:title="Base Graphics Abstraction Layer Object.">
<polygon fill="white" stroke="black" points="186.5,-112.5 186.5,-131.5 299.5,-131.5 299.5,-112.5 186.5,-112.5"/>
<text text-anchor="middle" x="243" y="-119.5" font-family="Helvetica,sans-Serif" font-size="10.00">xiiGALDeviceObject</text>
</a>
</g>
</g>
<!-- Node2&#45;&gt;Node1 -->
<g id="edge1" class="edge">
<title>Node2&#45;&gt;Node1</title>
<path fill="none" stroke="midnightblue" d="M243,-101.8C243,-92.91 243,-82.78 243,-75.75"/>
<polygon fill="midnightblue" stroke="midnightblue" points="239.5,-102.08 243,-112.08 246.5,-102.08 239.5,-102.08"/>
</g>
<!-- Node3 -->
<g id="node3" class="node">
<title>Node3</title>
<g id="a_node3"><a xlink:href="../../d3/dda/classxii_g_a_l_object.htm" target="_top" xlink:title="Base Graphics Abstraction Layer Object.">
<polygon fill="white" stroke="black" points="203,-168.5 203,-187.5 283,-187.5 283,-168.5 203,-168.5"/>
<text text-anchor="middle" x="243" y="-175.5" font-family="Helvetica,sans-Serif" font-size="10.00">xiiGALObject</text>
</a>
</g>
</g>
<!-- Node3&#45;&gt;Node2 -->
<g id="edge2" class="edge">
<title>Node3&#45;&gt;Node2</title>
<path fill="none" stroke="midnightblue" d="M243,-157.8C243,-148.91 243,-138.78 243,-131.75"/>
<polygon fill="midnightblue" stroke="midnightblue" points="239.5,-158.08 243,-168.08 246.5,-158.08 239.5,-158.08"/>
</g>
<!-- Node4 -->
<g id="node4" class="node">
<title>Node4</title>
<g id="a_node4"><a xlink:href="../../dc/d71/classxii_reflected_class.htm" target="_top" xlink:title="All classes that should be dynamically reflectable, need to be derived from this base class.">
<polygon fill="white" stroke="black" points="136.5,-224.5 136.5,-243.5 237.5,-243.5 237.5,-224.5 136.5,-224.5"/>
<text text-anchor="middle" x="187" y="-231.5" font-family="Helvetica,sans-Serif" font-size="10.00">xiiReflectedClass</text>
</a>
</g>
</g>
<!-- Node4&#45;&gt;Node3 -->
<g id="edge3" class="edge">
<title>Node4&#45;&gt;Node3</title>
<path fill="none" stroke="midnightblue" d="M203.33,-217.25C213.26,-207.67 225.59,-195.79 233.84,-187.83"/>
<polygon fill="midnightblue" stroke="midnightblue" points="200.77,-214.86 196,-224.32 205.63,-219.9 200.77,-214.86"/>
</g>
<!-- Node5 -->
<g id="node5" class="node">
<title>Node5</title>
<g id="a_node5"><a xlink:href="../../d2/d38/classxii_no_base.htm" target="_top" xlink:title="Dummy type to pass to templates and macros that expect a base type for a class that has no base.">
<polygon fill="white" stroke="black" points="154,-280.5 154,-299.5 220,-299.5 220,-280.5 154,-280.5"/>
<text text-anchor="middle" x="187" y="-287.5" font-family="Helvetica,sans-Serif" font-size="10.00">xiiNoBase</text>
</a>
</g>
</g>
<!-- Node5&#45;&gt;Node4 -->
<g id="edge4" class="edge">
<title>Node5&#45;&gt;Node4</title>
<path fill="none" stroke="midnightblue" d="M187,-269.8C187,-260.91 187,-250.78 187,-243.75"/>
<polygon fill="midnightblue" stroke="midnightblue" points="183.5,-270.08 187,-280.08 190.5,-270.08 183.5,-270.08"/>
</g>
<!-- Node6 -->
<g id="node6" class="node">
<title>Node6</title>
<g id="a_node6"><a xlink:href="../../d3/dd0/classxii_ref_counted.htm" target="_top" xlink:title="Base class for reference counted objects.">
<polygon fill="white" stroke="black" points="256,-224.5 256,-243.5 342,-243.5 342,-224.5 256,-224.5"/>
<text text-anchor="middle" x="299" y="-231.5" font-family="Helvetica,sans-Serif" font-size="10.00">xiiRefCounted</text>
</a>
</g>
</g>
<!-- Node6&#45;&gt;Node3 -->
<g id="edge5" class="edge">
<title>Node6&#45;&gt;Node3</title>
<path fill="none" stroke="midnightblue" d="M282.67,-217.25C272.74,-207.67 260.41,-195.79 252.16,-187.83"/>
<polygon fill="midnightblue" stroke="midnightblue" points="280.37,-219.9 290,-224.32 285.23,-214.86 280.37,-219.9"/>
</g>
<!-- Node7 -->
<g id="node7" class="node">
<title>Node7</title>
<g id="a_node7"><a xlink:href="../../d7/df4/classxii_ref_counting_impl.htm" target="_top" xlink:title=" ">
<polygon fill="white" stroke="black" points="244,-280.5 244,-299.5 354,-299.5 354,-280.5 244,-280.5"/>
<text text-anchor="middle" x="299" y="-287.5" font-family="Helvetica,sans-Serif" font-size="10.00">xiiRefCountingImpl</text>
</a>
</g>
</g>
<!-- Node7&#45;&gt;Node6 -->
<g id="edge6" class="edge">
<title>Node7&#45;&gt;Node6</title>
<path fill="none" stroke="midnightblue" d="M299,-269.8C299,-260.91 299,-250.78 299,-243.75"/>
<polygon fill="midnightblue" stroke="midnightblue" points="295.5,-270.08 299,-280.08 302.5,-270.08 295.5,-270.08"/>
</g>
</g>
</svg>
