<?xml version="1.0" encoding="UTF-8" standalone="no"?>
<!DOCTYPE svg PUBLIC "-//W3C//DTD SVG 1.1//EN"
 "http://www.w3.org/Graphics/SVG/1.1/DTD/svg11.dtd">
<!-- Generated by graphviz version 2.43.0 (0)
 -->
<!-- Title: xiiComponentManagerBase Pages: 1 -->
<svg width="990pt" height="1373pt"
 viewBox="0.00 0.00 990.00 1372.50" xmlns="http://www.w3.org/2000/svg" xmlns:xlink="http://www.w3.org/1999/xlink">
<g id="graph0" class="graph" transform="scale(1 1) rotate(0) translate(4 1368.5)">
<title>xiiComponentManagerBase</title>
<polygon fill="white" stroke="transparent" points="-4,4 -4,-1368.5 986,-1368.5 986,4 -4,4"/>
<!-- Node1 -->
<g id="node1" class="node">
<title>Node1</title>
<g id="a_node1"><a xlink:title="Base class for all component managers. Do not derive directly from this class, but derive from xiiCom...">
<polygon fill="#bfbfbf" stroke="black" points="367,-645 367,-664 519,-664 519,-645 367,-645"/>
<text text-anchor="middle" x="443" y="-652" font-family="Helvetica,sans-Serif" font-size="10.00">xiiComponentManagerBase</text>
</a>
</g>
</g>
<!-- Node5 -->
<g id="node5" class="node">
<title>Node5</title>
<g id="a_node5"><a xlink:href="../../d4/d5d/classxii_component_manager.htm" target="_top" xlink:title=" ">
<polygon fill="white" stroke="black" points="559,-1323 559,-1364 751,-1364 751,-1323 559,-1323"/>
<text text-anchor="start" x="567" y="-1352" font-family="Helvetica,sans-Serif" font-size="10.00">xiiComponentManager</text>
<text text-anchor="start" x="567" y="-1341" font-family="Helvetica,sans-Serif" font-size="10.00">&lt; class xiiSkeletonPoseComponent,</text>
<text text-anchor="middle" x="655" y="-1330" font-family="Helvetica,sans-Serif" font-size="10.00"> xiiBlockStorageType::Compact &gt;</text>
</a>
</g>
</g>
<!-- Node1&#45;&gt;Node5 -->
<g id="edge4" class="edge">
<title>Node1&#45;&gt;Node5</title>
<path fill="none" stroke="midnightblue" d="M444.6,-674.13C448.01,-772.91 468,-1214.64 555,-1313.5 558.08,-1317.01 561.56,-1320.11 565.33,-1322.85"/>
<polygon fill="midnightblue" stroke="midnightblue" points="448.1,-673.94 444.27,-664.06 441.1,-674.17 448.1,-673.94"/>
</g>
<!-- Node7 -->
<g id="node7" class="node">
<title>Node7</title>
<g id="a_node7"><a xlink:href="../../d4/d5d/classxii_component_manager.htm" target="_top" xlink:title=" ">
<polygon fill="white" stroke="black" points="589.5,-1251.5 589.5,-1303.5 720.5,-1303.5 720.5,-1251.5 589.5,-1251.5"/>
<text text-anchor="start" x="597.5" y="-1291.5" font-family="Helvetica,sans-Serif" font-size="10.00">xiiComponentManager</text>
<text text-anchor="start" x="597.5" y="-1280.5" font-family="Helvetica,sans-Serif" font-size="10.00">&lt; xiiGizmoComponent,</text>
<text text-anchor="start" x="597.5" y="-1269.5" font-family="Helvetica,sans-Serif" font-size="10.00"> xiiBlockStorageType</text>
<text text-anchor="middle" x="655" y="-1258.5" font-family="Helvetica,sans-Serif" font-size="10.00">::FreeList &gt;</text>
</a>
</g>
</g>
<!-- Node1&#45;&gt;Node7 -->
<g id="edge6" class="edge">
<title>Node1&#45;&gt;Node7</title>
<path fill="none" stroke="midnightblue" d="M445.17,-674.47C450.98,-766.93 479.48,-1152.64 555,-1241.5 564,-1252.09 576.38,-1259.57 589.35,-1264.84"/>
<polygon fill="midnightblue" stroke="midnightblue" points="448.65,-674.03 444.55,-664.26 441.67,-674.46 448.65,-674.03"/>
</g>
<!-- Node9 -->
<g id="node9" class="node">
<title>Node9</title>
<g id="a_node9"><a xlink:href="../../d4/d5d/classxii_component_manager.htm" target="_top" xlink:title=" ">
<polygon fill="white" stroke="black" points="565,-1191 565,-1232 745,-1232 745,-1191 565,-1191"/>
<text text-anchor="start" x="573" y="-1220" font-family="Helvetica,sans-Serif" font-size="10.00">xiiComponentManager</text>
<text text-anchor="start" x="573" y="-1209" font-family="Helvetica,sans-Serif" font-size="10.00">&lt; xiiPrefabReferenceComponent,</text>
<text text-anchor="middle" x="655" y="-1198" font-family="Helvetica,sans-Serif" font-size="10.00"> xiiBlockStorageType::Compact &gt;</text>
</a>
</g>
</g>
<!-- Node1&#45;&gt;Node9 -->
<g id="edge8" class="edge">
<title>Node1&#45;&gt;Node9</title>
<path fill="none" stroke="midnightblue" d="M445.5,-674.14C452.47,-760.36 484.4,-1104.5 555,-1181.5 558.16,-1184.94 561.69,-1187.99 565.5,-1190.7"/>
<polygon fill="midnightblue" stroke="midnightblue" points="448.99,-673.83 444.71,-664.13 442.01,-674.38 448.99,-673.83"/>
</g>
<!-- Node11 -->
<g id="node11" class="node">
<title>Node11</title>
<g id="a_node11"><a xlink:href="../../d4/d5d/classxii_component_manager.htm" target="_top" xlink:title=" ">
<polygon fill="white" stroke="black" points="555,-1131 555,-1172 755,-1172 755,-1131 555,-1131"/>
<text text-anchor="start" x="563" y="-1160" font-family="Helvetica,sans-Serif" font-size="10.00">xiiComponentManager</text>
<text text-anchor="start" x="563" y="-1149" font-family="Helvetica,sans-Serif" font-size="10.00">&lt; class xiiPostProcessingComponent,</text>
<text text-anchor="middle" x="655" y="-1138" font-family="Helvetica,sans-Serif" font-size="10.00"> xiiBlockStorageType::Compact &gt;</text>
</a>
</g>
</g>
<!-- Node1&#45;&gt;Node11 -->
<g id="edge10" class="edge">
<title>Node1&#45;&gt;Node11</title>
<path fill="none" stroke="midnightblue" d="M446.1,-674.4C454.98,-754.79 491.86,-1054.4 555,-1121.5 558.32,-1125.03 562.05,-1128.15 566.05,-1130.91"/>
<polygon fill="midnightblue" stroke="midnightblue" points="449.55,-673.75 445,-664.19 442.59,-674.51 449.55,-673.75"/>
</g>
<!-- Node13 -->
<g id="node13" class="node">
<title>Node13</title>
<g id="a_node13"><a xlink:href="../../d4/d5d/classxii_component_manager.htm" target="_top" xlink:title=" ">
<polygon fill="white" stroke="black" points="555,-1071 555,-1112 755,-1112 755,-1071 555,-1071"/>
<text text-anchor="start" x="563" y="-1100" font-family="Helvetica,sans-Serif" font-size="10.00">xiiComponentManager</text>
<text text-anchor="start" x="563" y="-1089" font-family="Helvetica,sans-Serif" font-size="10.00">&lt; class xiiInstancedMeshComponent,</text>
<text text-anchor="middle" x="655" y="-1078" font-family="Helvetica,sans-Serif" font-size="10.00"> xiiBlockStorageType::Compact &gt;</text>
</a>
</g>
</g>
<!-- Node1&#45;&gt;Node13 -->
<g id="edge12" class="edge">
<title>Node1&#45;&gt;Node13</title>
<path fill="none" stroke="midnightblue" d="M446.81,-674.15C457.68,-747.51 499.14,-1004.06 555,-1061.5 558.38,-1064.98 562.15,-1068.05 566.19,-1070.78"/>
<polygon fill="midnightblue" stroke="midnightblue" points="450.24,-673.4 445.33,-664.01 443.31,-674.41 450.24,-673.4"/>
</g>
<!-- Node15 -->
<g id="node15" class="node">
<title>Node15</title>
<g id="a_node15"><a xlink:href="../../d4/d5d/classxii_component_manager.htm" target="_top" xlink:title=" ">
<polygon fill="white" stroke="black" points="560.5,-1011 560.5,-1052 749.5,-1052 749.5,-1011 560.5,-1011"/>
<text text-anchor="start" x="568.5" y="-1040" font-family="Helvetica,sans-Serif" font-size="10.00">xiiComponentManager</text>
<text text-anchor="start" x="568.5" y="-1029" font-family="Helvetica,sans-Serif" font-size="10.00">&lt; ComponentType, xiiBlockStorage</text>
<text text-anchor="middle" x="655" y="-1018" font-family="Helvetica,sans-Serif" font-size="10.00">Type::FreeList &gt;</text>
</a>
</g>
</g>
<!-- Node1&#45;&gt;Node15 -->
<g id="edge14" class="edge">
<title>Node1&#45;&gt;Node15</title>
<path fill="none" stroke="midnightblue" d="M444.27,-674.27C446.17,-732.95 459.94,-907.89 555,-1001.5 558.58,-1005.03 562.57,-1008.14 566.82,-1010.89"/>
<polygon fill="midnightblue" stroke="midnightblue" points="447.77,-674.05 444.03,-664.14 440.77,-674.22 447.77,-674.05"/>
</g>
<!-- Node17 -->
<g id="node17" class="node">
<title>Node17</title>
<g id="a_node17"><a xlink:href="../../d4/d5d/classxii_component_manager.htm" target="_top" xlink:title=" ">
<polygon fill="white" stroke="black" points="565.5,-951 565.5,-992 744.5,-992 744.5,-951 565.5,-951"/>
<text text-anchor="start" x="573.5" y="-980" font-family="Helvetica,sans-Serif" font-size="10.00">xiiComponentManager</text>
<text text-anchor="start" x="573.5" y="-969" font-family="Helvetica,sans-Serif" font-size="10.00">&lt; class xiiRaycastComponent,</text>
<text text-anchor="middle" x="655" y="-958" font-family="Helvetica,sans-Serif" font-size="10.00"> xiiBlockStorageType::Compact &gt;</text>
</a>
</g>
</g>
<!-- Node1&#45;&gt;Node17 -->
<g id="edge16" class="edge">
<title>Node1&#45;&gt;Node17</title>
<path fill="none" stroke="midnightblue" d="M445.78,-674.21C451.53,-725.89 474.17,-866.5 555,-941.5 558.82,-945.04 563.04,-948.17 567.53,-950.92"/>
<polygon fill="midnightblue" stroke="midnightblue" points="449.25,-673.67 444.75,-664.07 442.28,-674.38 449.25,-673.67"/>
</g>
<!-- Node19 -->
<g id="node19" class="node">
<title>Node19</title>
<g id="a_node19"><a xlink:href="../../d4/d5d/classxii_component_manager.htm" target="_top" xlink:title=" ">
<polygon fill="white" stroke="black" points="568,-891 568,-932 742,-932 742,-891 568,-891"/>
<text text-anchor="start" x="576" y="-920" font-family="Helvetica,sans-Serif" font-size="10.00">xiiComponentManager</text>
<text text-anchor="start" x="576" y="-909" font-family="Helvetica,sans-Serif" font-size="10.00">&lt; class xiiOccluderComponent,</text>
<text text-anchor="middle" x="655" y="-898" font-family="Helvetica,sans-Serif" font-size="10.00"> xiiBlockStorageType::FreeList &gt;</text>
</a>
</g>
</g>
<!-- Node1&#45;&gt;Node19 -->
<g id="edge18" class="edge">
<title>Node1&#45;&gt;Node19</title>
<path fill="none" stroke="midnightblue" d="M448.08,-674.42C458.13,-718.47 488.31,-824.74 555,-881.5 559.1,-884.99 563.6,-888.08 568.35,-890.8"/>
<polygon fill="midnightblue" stroke="midnightblue" points="451.44,-673.43 445.9,-664.4 444.6,-674.92 451.44,-673.43"/>
</g>
<!-- Node21 -->
<g id="node21" class="node">
<title>Node21</title>
<g id="a_node21"><a xlink:href="../../d4/d5d/classxii_component_manager.htm" target="_top" xlink:title=" ">
<polygon fill="white" stroke="black" points="568,-831 568,-872 742,-872 742,-831 568,-831"/>
<text text-anchor="start" x="576" y="-860" font-family="Helvetica,sans-Serif" font-size="10.00">xiiComponentManager</text>
<text text-anchor="start" x="576" y="-849" font-family="Helvetica,sans-Serif" font-size="10.00">&lt; class xiiFakeRopeComponent,</text>
<text text-anchor="middle" x="655" y="-838" font-family="Helvetica,sans-Serif" font-size="10.00"> xiiBlockStorageType::FreeList &gt;</text>
</a>
</g>
</g>
<!-- Node1&#45;&gt;Node21 -->
<g id="edge20" class="edge">
<title>Node1&#45;&gt;Node21</title>
<path fill="none" stroke="midnightblue" d="M451.46,-673.54C466.03,-708.23 501.57,-781.79 555,-821.5 559.76,-825.04 564.93,-828.16 570.34,-830.92"/>
<polygon fill="midnightblue" stroke="midnightblue" points="454.63,-672.04 447.62,-664.1 448.15,-674.69 454.63,-672.04"/>
</g>
<!-- Node23 -->
<g id="node23" class="node">
<title>Node23</title>
<g id="a_node23"><a xlink:href="../../d4/d5d/classxii_component_manager.htm" target="_top" xlink:title=" ">
<polygon fill="white" stroke="black" points="559.5,-771 559.5,-812 750.5,-812 750.5,-771 559.5,-771"/>
<text text-anchor="start" x="567.5" y="-800" font-family="Helvetica,sans-Serif" font-size="10.00">xiiComponentManager</text>
<text text-anchor="start" x="567.5" y="-789" font-family="Helvetica,sans-Serif" font-size="10.00">&lt; class xiiAreaDamageComponent,</text>
<text text-anchor="middle" x="655" y="-778" font-family="Helvetica,sans-Serif" font-size="10.00"> xiiBlockStorageType::FreeList &gt;</text>
</a>
</g>
</g>
<!-- Node1&#45;&gt;Node23 -->
<g id="edge22" class="edge">
<title>Node1&#45;&gt;Node23</title>
<path fill="none" stroke="midnightblue" d="M458.05,-672.28C477.47,-695.71 514.7,-736.73 555,-760.5 561.59,-764.39 568.73,-767.84 576.04,-770.89"/>
<polygon fill="midnightblue" stroke="midnightblue" points="460.54,-669.78 451.51,-664.23 455.1,-674.2 460.54,-669.78"/>
</g>
<!-- Node25 -->
<g id="node25" class="node">
<title>Node25</title>
<g id="a_node25"><a xlink:href="../../d4/d5d/classxii_component_manager.htm" target="_top" xlink:title=" ">
<polygon fill="white" stroke="black" points="566,-699.5 566,-751.5 744,-751.5 744,-699.5 566,-699.5"/>
<text text-anchor="start" x="574" y="-739.5" font-family="Helvetica,sans-Serif" font-size="10.00">xiiComponentManager</text>
<text text-anchor="start" x="574" y="-728.5" font-family="Helvetica,sans-Serif" font-size="10.00">&lt; class xiiBoxReflectionProbe</text>
<text text-anchor="start" x="574" y="-717.5" font-family="Helvetica,sans-Serif" font-size="10.00">Component, xiiBlockStorageType</text>
<text text-anchor="middle" x="655" y="-706.5" font-family="Helvetica,sans-Serif" font-size="10.00">::Compact &gt;</text>
</a>
</g>
</g>
<!-- Node1&#45;&gt;Node25 -->
<g id="edge24" class="edge">
<title>Node1&#45;&gt;Node25</title>
<path fill="none" stroke="midnightblue" d="M481.95,-667.33C508.39,-676.27 544.58,-688.51 576.95,-699.45"/>
<polygon fill="midnightblue" stroke="midnightblue" points="482.92,-663.96 472.32,-664.08 480.67,-670.59 482.92,-663.96"/>
</g>
<!-- Node27 -->
<g id="node27" class="node">
<title>Node27</title>
<g id="a_node27"><a xlink:href="../../d4/d5d/classxii_component_manager.htm" target="_top" xlink:title=" ">
<polygon fill="white" stroke="black" points="563.5,-628.5 563.5,-680.5 746.5,-680.5 746.5,-628.5 563.5,-628.5"/>
<text text-anchor="start" x="571.5" y="-668.5" font-family="Helvetica,sans-Serif" font-size="10.00">xiiComponentManager</text>
<text text-anchor="start" x="571.5" y="-657.5" font-family="Helvetica,sans-Serif" font-size="10.00">&lt; class xiiSphereReflection</text>
<text text-anchor="start" x="571.5" y="-646.5" font-family="Helvetica,sans-Serif" font-size="10.00">ProbeComponent, xiiBlockStorage</text>
<text text-anchor="middle" x="655" y="-635.5" font-family="Helvetica,sans-Serif" font-size="10.00">Type::Compact &gt;</text>
</a>
</g>
</g>
<!-- Node1&#45;&gt;Node27 -->
<g id="edge26" class="edge">
<title>Node1&#45;&gt;Node27</title>
<path fill="none" stroke="midnightblue" d="M529.35,-654.5C540.49,-654.5 551.94,-654.5 563.16,-654.5"/>
<polygon fill="midnightblue" stroke="midnightblue" points="529.22,-651 519.22,-654.5 529.22,-658 529.22,-651"/>
</g>
<!-- Node29 -->
<g id="node29" class="node">
<title>Node29</title>
<g id="a_node29"><a xlink:href="../../d4/d5d/classxii_component_manager.htm" target="_top" xlink:title=" ">
<polygon fill="white" stroke="black" points="558,-568 558,-609 752,-609 752,-568 558,-568"/>
<text text-anchor="start" x="566" y="-597" font-family="Helvetica,sans-Serif" font-size="10.00">xiiComponentManager</text>
<text text-anchor="start" x="566" y="-586" font-family="Helvetica,sans-Serif" font-size="10.00">&lt; class xiiStateMachineComponent,</text>
<text text-anchor="middle" x="655" y="-575" font-family="Helvetica,sans-Serif" font-size="10.00"> xiiBlockStorageType::Compact &gt;</text>
</a>
</g>
</g>
<!-- Node1&#45;&gt;Node29 -->
<g id="edge28" class="edge">
<title>Node1&#45;&gt;Node29</title>
<path fill="none" stroke="midnightblue" d="M482.82,-641.71C504.1,-634.74 530.97,-626.04 555,-618.5 564.85,-615.41 575.27,-612.19 585.51,-609.07"/>
<polygon fill="midnightblue" stroke="midnightblue" points="481.58,-638.43 473.16,-644.87 483.76,-645.08 481.58,-638.43"/>
</g>
<!-- Node31 -->
<g id="node31" class="node">
<title>Node31</title>
<g id="a_node31"><a xlink:href="../../d4/d5d/classxii_component_manager.htm" target="_top" xlink:title=" ">
<polygon fill="white" stroke="black" points="568,-508 568,-549 742,-549 742,-508 568,-508"/>
<text text-anchor="start" x="576" y="-537" font-family="Helvetica,sans-Serif" font-size="10.00">xiiComponentManager</text>
<text text-anchor="start" x="576" y="-526" font-family="Helvetica,sans-Serif" font-size="10.00">&lt; class xiiLineToComponent,</text>
<text text-anchor="middle" x="655" y="-515" font-family="Helvetica,sans-Serif" font-size="10.00"> xiiBlockStorageType::FreeList &gt;</text>
</a>
</g>
</g>
<!-- Node1&#45;&gt;Node31 -->
<g id="edge30" class="edge">
<title>Node1&#45;&gt;Node31</title>
<path fill="none" stroke="midnightblue" d="M459.3,-637.44C479.31,-616.1 516.42,-579.76 555,-558.5 561.37,-554.99 568.2,-551.84 575.19,-549.02"/>
<polygon fill="midnightblue" stroke="midnightblue" points="456.69,-635.1 452.49,-644.83 461.84,-639.85 456.69,-635.1"/>
</g>
<!-- Node33 -->
<g id="node33" class="node">
<title>Node33</title>
<g id="a_node33"><a xlink:href="../../d4/d5d/classxii_component_manager.htm" target="_top" xlink:title=" ">
<polygon fill="white" stroke="black" points="565.5,-448 565.5,-489 744.5,-489 744.5,-448 565.5,-448"/>
<text text-anchor="start" x="573.5" y="-477" font-family="Helvetica,sans-Serif" font-size="10.00">xiiComponentManager</text>
<text text-anchor="start" x="573.5" y="-466" font-family="Helvetica,sans-Serif" font-size="10.00">&lt; class xiiDecalComponent,</text>
<text text-anchor="middle" x="655" y="-455" font-family="Helvetica,sans-Serif" font-size="10.00"> xiiBlockStorageType::Compact &gt;</text>
</a>
</g>
</g>
<!-- Node1&#45;&gt;Node33 -->
<g id="edge32" class="edge">
<title>Node1&#45;&gt;Node33</title>
<path fill="none" stroke="midnightblue" d="M452.45,-635.36C467.96,-602.43 504.1,-535.09 555,-498.5 559.96,-494.94 565.35,-491.79 570.96,-489.01"/>
<polygon fill="midnightblue" stroke="midnightblue" points="449.13,-634.21 448.15,-644.76 455.49,-637.12 449.13,-634.21"/>
</g>
<!-- Node35 -->
<g id="node35" class="node">
<title>Node35</title>
<g id="a_node35"><a xlink:href="../../d4/d5d/classxii_component_manager.htm" target="_top" xlink:title=" ">
<polygon fill="white" stroke="black" points="565,-388 565,-429 745,-429 745,-388 565,-388"/>
<text text-anchor="start" x="573" y="-417" font-family="Helvetica,sans-Serif" font-size="10.00">xiiComponentManager</text>
<text text-anchor="start" x="573" y="-406" font-family="Helvetica,sans-Serif" font-size="10.00">&lt; class xiiClothSheetComponent,</text>
<text text-anchor="middle" x="655" y="-395" font-family="Helvetica,sans-Serif" font-size="10.00"> xiiBlockStorageType::FreeList &gt;</text>
</a>
</g>
</g>
<!-- Node1&#45;&gt;Node35 -->
<g id="edge34" class="edge">
<title>Node1&#45;&gt;Node35</title>
<path fill="none" stroke="midnightblue" d="M448.59,-634.68C459.46,-592.23 490.8,-492.05 555,-438.5 559.28,-434.93 563.97,-431.79 568.91,-429.02"/>
<polygon fill="midnightblue" stroke="midnightblue" points="445.14,-634.05 446.16,-644.6 451.94,-635.72 445.14,-634.05"/>
</g>
<!-- Node37 -->
<g id="node37" class="node">
<title>Node37</title>
<g id="a_node37"><a xlink:href="../../d4/d5d/classxii_component_manager.htm" target="_top" xlink:title=" ">
<polygon fill="white" stroke="black" points="555,-328 555,-369 755,-369 755,-328 555,-328"/>
<text text-anchor="start" x="563" y="-357" font-family="Helvetica,sans-Serif" font-size="10.00">xiiComponentManager</text>
<text text-anchor="start" x="563" y="-346" font-family="Helvetica,sans-Serif" font-size="10.00">&lt; class xiiAnimatedMeshComponent,</text>
<text text-anchor="middle" x="655" y="-335" font-family="Helvetica,sans-Serif" font-size="10.00"> xiiBlockStorageType::FreeList &gt;</text>
</a>
</g>
</g>
<!-- Node1&#45;&gt;Node37 -->
<g id="edge36" class="edge">
<title>Node1&#45;&gt;Node37</title>
<path fill="none" stroke="midnightblue" d="M446.16,-634.54C452.7,-584.01 476.9,-450 555,-378.5 558.84,-374.98 563.08,-371.88 567.58,-369.14"/>
<polygon fill="midnightblue" stroke="midnightblue" points="442.65,-634.41 444.94,-644.76 449.6,-635.24 442.65,-634.41"/>
</g>
<!-- Node39 -->
<g id="node39" class="node">
<title>Node39</title>
<g id="a_node39"><a xlink:href="../../d4/d5d/classxii_component_manager.htm" target="_top" xlink:title=" ">
<polygon fill="white" stroke="black" points="565.5,-268 565.5,-309 744.5,-309 744.5,-268 565.5,-268"/>
<text text-anchor="start" x="573.5" y="-297" font-family="Helvetica,sans-Serif" font-size="10.00">xiiComponentManager</text>
<text text-anchor="start" x="573.5" y="-286" font-family="Helvetica,sans-Serif" font-size="10.00">&lt; xiiHeightfieldComponent,</text>
<text text-anchor="middle" x="655" y="-275" font-family="Helvetica,sans-Serif" font-size="10.00"> xiiBlockStorageType::Compact &gt;</text>
</a>
</g>
</g>
<!-- Node1&#45;&gt;Node39 -->
<g id="edge38" class="edge">
<title>Node1&#45;&gt;Node39</title>
<path fill="none" stroke="midnightblue" d="M444.52,-634.6C447.11,-577.02 462.64,-408.6 555,-318.5 558.6,-314.99 562.6,-311.89 566.86,-309.15"/>
<polygon fill="midnightblue" stroke="midnightblue" points="441.01,-634.74 444.14,-644.86 448.01,-635 441.01,-634.74"/>
</g>
<!-- Node41 -->
<g id="node41" class="node">
<title>Node41</title>
<g id="a_node41"><a xlink:href="../../d4/d5d/classxii_component_manager.htm" target="_top" xlink:title=" ">
<polygon fill="white" stroke="black" points="565.5,-208 565.5,-249 744.5,-249 744.5,-208 565.5,-208"/>
<text text-anchor="start" x="573.5" y="-237" font-family="Helvetica,sans-Serif" font-size="10.00">xiiComponentManager</text>
<text text-anchor="start" x="573.5" y="-226" font-family="Helvetica,sans-Serif" font-size="10.00">&lt; class xiiCameraComponent,</text>
<text text-anchor="middle" x="655" y="-215" font-family="Helvetica,sans-Serif" font-size="10.00"> xiiBlockStorageType::Compact &gt;</text>
</a>
</g>
</g>
<!-- Node1&#45;&gt;Node41 -->
<g id="edge40" class="edge">
<title>Node1&#45;&gt;Node41</title>
<path fill="none" stroke="midnightblue" d="M443.35,-634.57C442.37,-570.47 448.24,-367.51 555,-258.5 558.39,-255.04 562.17,-251.97 566.22,-249.25"/>
<polygon fill="midnightblue" stroke="midnightblue" points="439.85,-634.95 443.58,-644.86 446.85,-634.79 439.85,-634.95"/>
</g>
<!-- Node43 -->
<g id="node43" class="node">
<title>Node43</title>
<g id="a_node43"><a xlink:href="../../d4/d5d/classxii_component_manager.htm" target="_top" xlink:title=" ">
<polygon fill="white" stroke="black" points="568,-148 568,-189 742,-189 742,-148 568,-148"/>
<text text-anchor="start" x="576" y="-177" font-family="Helvetica,sans-Serif" font-size="10.00">xiiComponentManager</text>
<text text-anchor="start" x="576" y="-166" font-family="Helvetica,sans-Serif" font-size="10.00">&lt; class xiiPathComponent,</text>
<text text-anchor="middle" x="655" y="-155" font-family="Helvetica,sans-Serif" font-size="10.00"> xiiBlockStorageType::FreeList &gt;</text>
</a>
</g>
</g>
<!-- Node1&#45;&gt;Node43 -->
<g id="edge42" class="edge">
<title>Node1&#45;&gt;Node43</title>
<path fill="none" stroke="midnightblue" d="M446.23,-634.55C455.48,-555.29 493.22,-263.8 555,-198.5 558.83,-194.46 563.18,-190.95 567.87,-187.91"/>
<polygon fill="midnightblue" stroke="midnightblue" points="442.74,-634.32 445.07,-644.65 449.69,-635.12 442.74,-634.32"/>
</g>
<!-- Node45 -->
<g id="node45" class="node">
<title>Node45</title>
<g id="a_node45"><a xlink:href="../../d8/d5c/classxii_settings_component_manager.htm" target="_top" xlink:title=" ">
<polygon fill="white" stroke="black" points="556,-98.5 556,-128.5 754,-128.5 754,-98.5 556,-98.5"/>
<text text-anchor="start" x="564" y="-116.5" font-family="Helvetica,sans-Serif" font-size="10.00">xiiSettingsComponentManager</text>
<text text-anchor="middle" x="655" y="-105.5" font-family="Helvetica,sans-Serif" font-size="10.00">&lt; class xiiBakedProbesComponent &gt;</text>
</a>
</g>
</g>
<!-- Node1&#45;&gt;Node45 -->
<g id="edge44" class="edge">
<title>Node1&#45;&gt;Node45</title>
<path fill="none" stroke="midnightblue" d="M445.52,-634.64C452.48,-548.96 484.05,-212.01 555,-138.5 558.69,-134.67 562.88,-131.4 567.4,-128.6"/>
<polygon fill="midnightblue" stroke="midnightblue" points="442.03,-634.37 444.73,-644.61 449.01,-634.92 442.03,-634.37"/>
</g>
<!-- Node47 -->
<g id="node47" class="node">
<title>Node47</title>
<g id="a_node47"><a xlink:href="../../d4/d5d/classxii_component_manager.htm" target="_top" xlink:title=" ">
<polygon fill="white" stroke="black" points="591,-49.5 591,-79.5 719,-79.5 719,-49.5 591,-49.5"/>
<text text-anchor="start" x="599" y="-67.5" font-family="Helvetica,sans-Serif" font-size="10.00">xiiComponentManager</text>
<text text-anchor="middle" x="655" y="-56.5" font-family="Helvetica,sans-Serif" font-size="10.00">&lt; T, StorageType &gt;</text>
</a>
</g>
</g>
<!-- Node1&#45;&gt;Node47 -->
<g id="edge46" class="edge">
<title>Node1&#45;&gt;Node47</title>
<path fill="none" stroke="midnightblue" d="M445.09,-634.77C450.48,-544.28 477.24,-169.77 555,-88.5 564.54,-78.53 577.45,-72.41 590.8,-68.72"/>
<polygon fill="midnightblue" stroke="midnightblue" points="441.58,-634.8 444.5,-644.99 448.57,-635.21 441.58,-634.8"/>
</g>
<!-- Node48 -->
<g id="node48" class="node">
<title>Node48</title>
<g id="a_node48"><a xlink:href="../../d8/d5c/classxii_settings_component_manager.htm" target="_top" xlink:title="A component manager that does no update at all on components and expects only a single instance to be...">
<polygon fill="white" stroke="black" points="571.5,-0.5 571.5,-30.5 738.5,-30.5 738.5,-0.5 571.5,-0.5"/>
<text text-anchor="start" x="579.5" y="-18.5" font-family="Helvetica,sans-Serif" font-size="10.00">xiiSettingsComponentManager</text>
<text text-anchor="middle" x="655" y="-7.5" font-family="Helvetica,sans-Serif" font-size="10.00">&lt; ComponentType &gt;</text>
</a>
</g>
</g>
<!-- Node1&#45;&gt;Node48 -->
<g id="edge47" class="edge">
<title>Node1&#45;&gt;Node48</title>
<path fill="none" stroke="midnightblue" d="M444.76,-634.59C448.82,-539.06 470.98,-128.65 555,-39.5 559.73,-34.48 565.32,-30.43 571.39,-27.18"/>
<polygon fill="midnightblue" stroke="midnightblue" points="441.26,-634.5 444.35,-644.64 448.26,-634.79 441.26,-634.5"/>
</g>
<!-- Node2 -->
<g id="node2" class="node">
<title>Node2</title>
<g id="a_node2"><a xlink:href="../../d9/dfe/classxii_world_module.htm" target="_top" xlink:title=" ">
<polygon fill="white" stroke="black" points="239,-645 239,-664 331,-664 331,-645 239,-645"/>
<text text-anchor="middle" x="285" y="-652" font-family="Helvetica,sans-Serif" font-size="10.00">xiiWorldModule</text>
</a>
</g>
</g>
<!-- Node2&#45;&gt;Node1 -->
<g id="edge1" class="edge">
<title>Node2&#45;&gt;Node1</title>
<path fill="none" stroke="midnightblue" d="M341.32,-654.5C349.55,-654.5 358.15,-654.5 366.71,-654.5"/>
<polygon fill="midnightblue" stroke="midnightblue" points="341.12,-651 331.12,-654.5 341.12,-658 341.12,-651"/>
</g>
<!-- Node3 -->
<g id="node3" class="node">
<title>Node3</title>
<g id="a_node3"><a xlink:href="../../dc/d71/classxii_reflected_class.htm" target="_top" xlink:title="All classes that should be dynamically reflectable, need to be derived from this base class.">
<polygon fill="white" stroke="black" points="102,-645 102,-664 203,-664 203,-645 102,-645"/>
<text text-anchor="middle" x="152.5" y="-652" font-family="Helvetica,sans-Serif" font-size="10.00">xiiReflectedClass</text>
</a>
</g>
</g>
<!-- Node3&#45;&gt;Node2 -->
<g id="edge2" class="edge">
<title>Node3&#45;&gt;Node2</title>
<path fill="none" stroke="midnightblue" d="M213.47,-654.5C221.95,-654.5 230.56,-654.5 238.71,-654.5"/>
<polygon fill="midnightblue" stroke="midnightblue" points="213.21,-651 203.21,-654.5 213.21,-658 213.21,-651"/>
</g>
<!-- Node4 -->
<g id="node4" class="node">
<title>Node4</title>
<g id="a_node4"><a xlink:href="../../d2/d38/classxii_no_base.htm" target="_top" xlink:title="Dummy type to pass to templates and macros that expect a base type for a class that has no base.">
<polygon fill="white" stroke="black" points="0,-645 0,-664 66,-664 66,-645 0,-645"/>
<text text-anchor="middle" x="33" y="-652" font-family="Helvetica,sans-Serif" font-size="10.00">xiiNoBase</text>
</a>
</g>
</g>
<!-- Node4&#45;&gt;Node3 -->
<g id="edge3" class="edge">
<title>Node4&#45;&gt;Node3</title>
<path fill="none" stroke="midnightblue" d="M76.27,-654.5C84.54,-654.5 93.29,-654.5 101.78,-654.5"/>
<polygon fill="midnightblue" stroke="midnightblue" points="76.11,-651 66.11,-654.5 76.11,-658 76.11,-651"/>
</g>
<!-- Node6 -->
<g id="node6" class="node">
<title>Node6</title>
<g id="a_node6"><a xlink:href="../../d1/d87/classxii_skeleton_pose_component_manager.htm" target="_top" xlink:title=" ">
<polygon fill="white" stroke="black" points="811.5,-1328.5 811.5,-1358.5 961.5,-1358.5 961.5,-1328.5 811.5,-1328.5"/>
<text text-anchor="start" x="819.5" y="-1346.5" font-family="Helvetica,sans-Serif" font-size="10.00">xiiSkeletonPoseComponent</text>
<text text-anchor="middle" x="886.5" y="-1335.5" font-family="Helvetica,sans-Serif" font-size="10.00">Manager</text>
</a>
</g>
</g>
<!-- Node5&#45;&gt;Node6 -->
<g id="edge5" class="edge">
<title>Node5&#45;&gt;Node6</title>
<path fill="none" stroke="midnightblue" d="M761.43,-1343.5C778.25,-1343.5 795.34,-1343.5 811.24,-1343.5"/>
<polygon fill="midnightblue" stroke="midnightblue" points="761,-1340 751,-1343.5 761,-1347 761,-1340"/>
</g>
<!-- Node8 -->
<g id="node8" class="node">
<title>Node8</title>
<g id="a_node8"><a xlink:href="../../da/d6d/classxii_gizmo_component_manager.htm" target="_top" xlink:title=" ">
<polygon fill="white" stroke="black" points="807,-1268 807,-1287 966,-1287 966,-1268 807,-1268"/>
<text text-anchor="middle" x="886.5" y="-1275" font-family="Helvetica,sans-Serif" font-size="10.00">xiiGizmoComponentManager</text>
</a>
</g>
</g>
<!-- Node7&#45;&gt;Node8 -->
<g id="edge7" class="edge">
<title>Node7&#45;&gt;Node8</title>
<path fill="none" stroke="midnightblue" d="M730.78,-1277.5C755.1,-1277.5 782.16,-1277.5 806.76,-1277.5"/>
<polygon fill="midnightblue" stroke="midnightblue" points="730.54,-1274 720.54,-1277.5 730.54,-1281 730.54,-1274"/>
</g>
<!-- Node10 -->
<g id="node10" class="node">
<title>Node10</title>
<g id="a_node10"><a xlink:href="../../db/d09/classxii_prefab_reference_component_manager.htm" target="_top" xlink:title=" ">
<polygon fill="white" stroke="black" points="803.5,-1196.5 803.5,-1226.5 969.5,-1226.5 969.5,-1196.5 803.5,-1196.5"/>
<text text-anchor="start" x="811.5" y="-1214.5" font-family="Helvetica,sans-Serif" font-size="10.00">xiiPrefabReferenceComponent</text>
<text text-anchor="middle" x="886.5" y="-1203.5" font-family="Helvetica,sans-Serif" font-size="10.00">Manager</text>
</a>
</g>
</g>
<!-- Node9&#45;&gt;Node10 -->
<g id="edge9" class="edge">
<title>Node9&#45;&gt;Node10</title>
<path fill="none" stroke="midnightblue" d="M755.47,-1211.5C771.41,-1211.5 787.76,-1211.5 803.25,-1211.5"/>
<polygon fill="midnightblue" stroke="midnightblue" points="755.06,-1208 745.06,-1211.5 755.06,-1215 755.06,-1208"/>
</g>
<!-- Node12 -->
<g id="node12" class="node">
<title>Node12</title>
<g id="a_node12"><a xlink:href="../../de/d81/classxii_post_processing_component_manager.htm" target="_top" xlink:title=" ">
<polygon fill="white" stroke="black" points="807.5,-1136.5 807.5,-1166.5 965.5,-1166.5 965.5,-1136.5 807.5,-1136.5"/>
<text text-anchor="start" x="815.5" y="-1154.5" font-family="Helvetica,sans-Serif" font-size="10.00">xiiPostProcessingComponent</text>
<text text-anchor="middle" x="886.5" y="-1143.5" font-family="Helvetica,sans-Serif" font-size="10.00">Manager</text>
</a>
</g>
</g>
<!-- Node11&#45;&gt;Node12 -->
<g id="edge11" class="edge">
<title>Node11&#45;&gt;Node12</title>
<path fill="none" stroke="midnightblue" d="M765.59,-1151.5C779.73,-1151.5 793.97,-1151.5 807.46,-1151.5"/>
<polygon fill="midnightblue" stroke="midnightblue" points="765.33,-1148 755.33,-1151.5 765.33,-1155 765.33,-1148"/>
</g>
<!-- Node14 -->
<g id="node14" class="node">
<title>Node14</title>
<g id="a_node14"><a xlink:href="../../dc/db1/classxii_instanced_mesh_component_manager.htm" target="_top" xlink:title=" ">
<polygon fill="white" stroke="black" points="807.5,-1076.5 807.5,-1106.5 965.5,-1106.5 965.5,-1076.5 807.5,-1076.5"/>
<text text-anchor="start" x="815.5" y="-1094.5" font-family="Helvetica,sans-Serif" font-size="10.00">xiiInstancedMeshComponent</text>
<text text-anchor="middle" x="886.5" y="-1083.5" font-family="Helvetica,sans-Serif" font-size="10.00">Manager</text>
</a>
</g>
</g>
<!-- Node13&#45;&gt;Node14 -->
<g id="edge13" class="edge">
<title>Node13&#45;&gt;Node14</title>
<path fill="none" stroke="midnightblue" d="M765.59,-1091.5C779.73,-1091.5 793.97,-1091.5 807.46,-1091.5"/>
<polygon fill="midnightblue" stroke="midnightblue" points="765.33,-1088 755.33,-1091.5 765.33,-1095 765.33,-1088"/>
</g>
<!-- Node16 -->
<g id="node16" class="node">
<title>Node16</title>
<g id="a_node16"><a xlink:href="../../d3/db6/classxii_component_manager_simple.htm" target="_top" xlink:title="Simple component manager implementation that calls an update method on all components every frame.">
<polygon fill="white" stroke="black" points="800,-1011 800,-1052 973,-1052 973,-1011 800,-1011"/>
<text text-anchor="start" x="808" y="-1040" font-family="Helvetica,sans-Serif" font-size="10.00">xiiComponentManagerSimple</text>
<text text-anchor="start" x="808" y="-1029" font-family="Helvetica,sans-Serif" font-size="10.00">&lt; ComponentType, UpdateType,</text>
<text text-anchor="middle" x="886.5" y="-1018" font-family="Helvetica,sans-Serif" font-size="10.00"> StorageType &gt;</text>
</a>
</g>
</g>
<!-- Node15&#45;&gt;Node16 -->
<g id="edge15" class="edge">
<title>Node15&#45;&gt;Node16</title>
<path fill="none" stroke="midnightblue" d="M759.86,-1031.5C773.25,-1031.5 786.83,-1031.5 799.88,-1031.5"/>
<polygon fill="midnightblue" stroke="midnightblue" points="759.68,-1028 749.68,-1031.5 759.68,-1035 759.68,-1028"/>
</g>
<!-- Node18 -->
<g id="node18" class="node">
<title>Node18</title>
<g id="a_node18"><a xlink:href="../../d2/de4/classxii_raycast_component_manager.htm" target="_top" xlink:title=" ">
<polygon fill="white" stroke="black" points="803,-962 803,-981 970,-981 970,-962 803,-962"/>
<text text-anchor="middle" x="886.5" y="-969" font-family="Helvetica,sans-Serif" font-size="10.00">xiiRaycastComponentManager</text>
</a>
</g>
</g>
<!-- Node17&#45;&gt;Node18 -->
<g id="edge17" class="edge">
<title>Node17&#45;&gt;Node18</title>
<path fill="none" stroke="midnightblue" d="M755.08,-971.5C770.94,-971.5 787.21,-971.5 802.65,-971.5"/>
<polygon fill="midnightblue" stroke="midnightblue" points="754.73,-968 744.73,-971.5 754.73,-975 754.73,-968"/>
</g>
<!-- Node20 -->
<g id="node20" class="node">
<title>Node20</title>
<g id="a_node20"><a xlink:href="../../dc/df7/classxii_occluder_component_manager.htm" target="_top" xlink:title=" ">
<polygon fill="white" stroke="black" points="801.5,-902 801.5,-921 971.5,-921 971.5,-902 801.5,-902"/>
<text text-anchor="middle" x="886.5" y="-909" font-family="Helvetica,sans-Serif" font-size="10.00">xiiOccluderComponentManager</text>
</a>
</g>
</g>
<!-- Node19&#45;&gt;Node20 -->
<g id="edge19" class="edge">
<title>Node19&#45;&gt;Node20</title>
<path fill="none" stroke="midnightblue" d="M752.17,-911.5C768.45,-911.5 785.24,-911.5 801.19,-911.5"/>
<polygon fill="midnightblue" stroke="midnightblue" points="752.11,-908 742.11,-911.5 752.11,-915 752.11,-908"/>
</g>
<!-- Node22 -->
<g id="node22" class="node">
<title>Node22</title>
<g id="a_node22"><a xlink:href="../../db/dfa/classxii_fake_rope_component_manager.htm" target="_top" xlink:title=" ">
<polygon fill="white" stroke="black" points="799.5,-842 799.5,-861 973.5,-861 973.5,-842 799.5,-842"/>
<text text-anchor="middle" x="886.5" y="-849" font-family="Helvetica,sans-Serif" font-size="10.00">xiiFakeRopeComponentManager</text>
</a>
</g>
</g>
<!-- Node21&#45;&gt;Node22 -->
<g id="edge21" class="edge">
<title>Node21&#45;&gt;Node22</title>
<path fill="none" stroke="midnightblue" d="M752.28,-851.5C767.88,-851.5 783.95,-851.5 799.29,-851.5"/>
<polygon fill="midnightblue" stroke="midnightblue" points="752.11,-848 742.11,-851.5 752.11,-855 752.11,-848"/>
</g>
<!-- Node24 -->
<g id="node24" class="node">
<title>Node24</title>
<g id="a_node24"><a xlink:href="../../d9/d04/classxii_area_damage_component_manager.htm" target="_top" xlink:title=" ">
<polygon fill="white" stroke="black" points="791,-782 791,-801 982,-801 982,-782 791,-782"/>
<text text-anchor="middle" x="886.5" y="-789" font-family="Helvetica,sans-Serif" font-size="10.00">xiiAreaDamageComponentManager</text>
</a>
</g>
</g>
<!-- Node23&#45;&gt;Node24 -->
<g id="edge23" class="edge">
<title>Node23&#45;&gt;Node24</title>
<path fill="none" stroke="midnightblue" d="M760.95,-791.5C770.86,-791.5 780.87,-791.5 790.68,-791.5"/>
<polygon fill="midnightblue" stroke="midnightblue" points="760.67,-788 750.67,-791.5 760.67,-795 760.67,-788"/>
</g>
<!-- Node26 -->
<g id="node26" class="node">
<title>Node26</title>
<g id="a_node26"><a xlink:href="../../d3/d7a/classxii_box_reflection_probe_component_manager.htm" target="_top" xlink:title=" ">
<polygon fill="white" stroke="black" points="796.5,-710.5 796.5,-740.5 976.5,-740.5 976.5,-710.5 796.5,-710.5"/>
<text text-anchor="start" x="804.5" y="-728.5" font-family="Helvetica,sans-Serif" font-size="10.00">xiiBoxReflectionProbeComponent</text>
<text text-anchor="middle" x="886.5" y="-717.5" font-family="Helvetica,sans-Serif" font-size="10.00">Manager</text>
</a>
</g>
</g>
<!-- Node25&#45;&gt;Node26 -->
<g id="edge25" class="edge">
<title>Node25&#45;&gt;Node26</title>
<path fill="none" stroke="midnightblue" d="M754.16,-725.5C768.1,-725.5 782.38,-725.5 796.14,-725.5"/>
<polygon fill="midnightblue" stroke="midnightblue" points="754.07,-722 744.07,-725.5 754.07,-729 754.07,-722"/>
</g>
<!-- Node28 -->
<g id="node28" class="node">
<title>Node28</title>
<g id="a_node28"><a xlink:href="../../d3/d9a/classxii_sphere_reflection_probe_component_manager.htm" target="_top" xlink:title=" ">
<polygon fill="white" stroke="black" points="817,-639.5 817,-669.5 956,-669.5 956,-639.5 817,-639.5"/>
<text text-anchor="start" x="825" y="-657.5" font-family="Helvetica,sans-Serif" font-size="10.00">xiiSphereReflectionProbe</text>
<text text-anchor="middle" x="886.5" y="-646.5" font-family="Helvetica,sans-Serif" font-size="10.00">ComponentManager</text>
</a>
</g>
</g>
<!-- Node27&#45;&gt;Node28 -->
<g id="edge27" class="edge">
<title>Node27&#45;&gt;Node28</title>
<path fill="none" stroke="midnightblue" d="M756.88,-654.5C777.09,-654.5 797.88,-654.5 816.69,-654.5"/>
<polygon fill="midnightblue" stroke="midnightblue" points="756.7,-651 746.7,-654.5 756.7,-658 756.7,-651"/>
</g>
<!-- Node30 -->
<g id="node30" class="node">
<title>Node30</title>
<g id="a_node30"><a xlink:href="../../dc/d61/classxii_state_machine_component_manager.htm" target="_top" xlink:title=" ">
<polygon fill="white" stroke="black" points="810.5,-573.5 810.5,-603.5 962.5,-603.5 962.5,-573.5 810.5,-573.5"/>
<text text-anchor="start" x="818.5" y="-591.5" font-family="Helvetica,sans-Serif" font-size="10.00">xiiStateMachineComponent</text>
<text text-anchor="middle" x="886.5" y="-580.5" font-family="Helvetica,sans-Serif" font-size="10.00">Manager</text>
</a>
</g>
</g>
<!-- Node29&#45;&gt;Node30 -->
<g id="edge29" class="edge">
<title>Node29&#45;&gt;Node30</title>
<path fill="none" stroke="midnightblue" d="M762.38,-588.5C778.58,-588.5 795,-588.5 810.34,-588.5"/>
<polygon fill="midnightblue" stroke="midnightblue" points="762.33,-585 752.33,-588.5 762.33,-592 762.33,-585"/>
</g>
<!-- Node32 -->
<g id="node32" class="node">
<title>Node32</title>
<g id="a_node32"><a xlink:href="../../df/da0/classxii_line_to_component_manager.htm" target="_top" xlink:title=" ">
<polygon fill="white" stroke="black" points="807.5,-519 807.5,-538 965.5,-538 965.5,-519 807.5,-519"/>
<text text-anchor="middle" x="886.5" y="-526" font-family="Helvetica,sans-Serif" font-size="10.00">xiiLineToComponentManager</text>
</a>
</g>
</g>
<!-- Node31&#45;&gt;Node32 -->
<g id="edge31" class="edge">
<title>Node31&#45;&gt;Node32</title>
<path fill="none" stroke="midnightblue" d="M752.22,-528.5C770.55,-528.5 789.54,-528.5 807.23,-528.5"/>
<polygon fill="midnightblue" stroke="midnightblue" points="752.11,-525 742.11,-528.5 752.11,-532 752.11,-525"/>
</g>
<!-- Node34 -->
<g id="node34" class="node">
<title>Node34</title>
<g id="a_node34"><a xlink:href="../../d6/d03/classxii_decal_component_manager.htm" target="_top" xlink:title=" ">
<polygon fill="white" stroke="black" points="809,-459 809,-478 964,-478 964,-459 809,-459"/>
<text text-anchor="middle" x="886.5" y="-466" font-family="Helvetica,sans-Serif" font-size="10.00">xiiDecalComponentManager</text>
</a>
</g>
</g>
<!-- Node33&#45;&gt;Node34 -->
<g id="edge33" class="edge">
<title>Node33&#45;&gt;Node34</title>
<path fill="none" stroke="midnightblue" d="M754.74,-468.5C772.89,-468.5 791.58,-468.5 808.95,-468.5"/>
<polygon fill="midnightblue" stroke="midnightblue" points="754.73,-465 744.73,-468.5 754.73,-472 754.73,-465"/>
</g>
<!-- Node36 -->
<g id="node36" class="node">
<title>Node36</title>
<g id="a_node36"><a xlink:href="../../d1/d65/classxii_cloth_sheet_component_manager.htm" target="_top" xlink:title=" ">
<polygon fill="white" stroke="black" points="796,-399 796,-418 977,-418 977,-399 796,-399"/>
<text text-anchor="middle" x="886.5" y="-406" font-family="Helvetica,sans-Serif" font-size="10.00">xiiClothSheetComponentManager</text>
</a>
</g>
</g>
<!-- Node35&#45;&gt;Node36 -->
<g id="edge35" class="edge">
<title>Node35&#45;&gt;Node36</title>
<path fill="none" stroke="midnightblue" d="M755.28,-408.5C768.73,-408.5 782.46,-408.5 795.73,-408.5"/>
<polygon fill="midnightblue" stroke="midnightblue" points="755.06,-405 745.06,-408.5 755.06,-412 755.06,-405"/>
</g>
<!-- Node38 -->
<g id="node38" class="node">
<title>Node38</title>
<g id="a_node38"><a xlink:href="../../d0/ddf/classxii_animated_mesh_component_manager.htm" target="_top" xlink:title=" ">
<polygon fill="white" stroke="black" points="807.5,-333.5 807.5,-363.5 965.5,-363.5 965.5,-333.5 807.5,-333.5"/>
<text text-anchor="start" x="815.5" y="-351.5" font-family="Helvetica,sans-Serif" font-size="10.00">xiiAnimatedMeshComponent</text>
<text text-anchor="middle" x="886.5" y="-340.5" font-family="Helvetica,sans-Serif" font-size="10.00">Manager</text>
</a>
</g>
</g>
<!-- Node37&#45;&gt;Node38 -->
<g id="edge37" class="edge">
<title>Node37&#45;&gt;Node38</title>
<path fill="none" stroke="midnightblue" d="M765.59,-348.5C779.73,-348.5 793.97,-348.5 807.46,-348.5"/>
<polygon fill="midnightblue" stroke="midnightblue" points="765.33,-345 755.33,-348.5 765.33,-352 765.33,-345"/>
</g>
<!-- Node40 -->
<g id="node40" class="node">
<title>Node40</title>
<g id="a_node40"><a xlink:href="../../dd/db8/classxii_heightfield_component_manager.htm" target="_top" xlink:title=" ">
<polygon fill="white" stroke="black" points="796,-279 796,-298 977,-298 977,-279 796,-279"/>
<text text-anchor="middle" x="886.5" y="-286" font-family="Helvetica,sans-Serif" font-size="10.00">xiiHeightfieldComponentManager</text>
</a>
</g>
</g>
<!-- Node39&#45;&gt;Node40 -->
<g id="edge39" class="edge">
<title>Node39&#45;&gt;Node40</title>
<path fill="none" stroke="midnightblue" d="M755.04,-288.5C768.61,-288.5 782.48,-288.5 795.87,-288.5"/>
<polygon fill="midnightblue" stroke="midnightblue" points="754.73,-285 744.73,-288.5 754.73,-292 754.73,-285"/>
</g>
<!-- Node42 -->
<g id="node42" class="node">
<title>Node42</title>
<g id="a_node42"><a xlink:href="../../d5/d1d/classxii_camera_component_manager.htm" target="_top" xlink:title=" ">
<polygon fill="white" stroke="black" points="803.5,-219 803.5,-238 969.5,-238 969.5,-219 803.5,-219"/>
<text text-anchor="middle" x="886.5" y="-226" font-family="Helvetica,sans-Serif" font-size="10.00">xiiCameraComponentManager</text>
</a>
</g>
</g>
<!-- Node41&#45;&gt;Node42 -->
<g id="edge41" class="edge">
<title>Node41&#45;&gt;Node42</title>
<path fill="none" stroke="midnightblue" d="M754.76,-228.5C770.98,-228.5 787.64,-228.5 803.39,-228.5"/>
<polygon fill="midnightblue" stroke="midnightblue" points="754.73,-225 744.73,-228.5 754.73,-232 754.73,-225"/>
</g>
<!-- Node44 -->
<g id="node44" class="node">
<title>Node44</title>
<g id="a_node44"><a xlink:href="../../dd/d0e/classxii_path_component_manager.htm" target="_top" xlink:title=" ">
<polygon fill="white" stroke="black" points="812,-159 812,-178 961,-178 961,-159 812,-159"/>
<text text-anchor="middle" x="886.5" y="-166" font-family="Helvetica,sans-Serif" font-size="10.00">xiiPathComponentManager</text>
</a>
</g>
</g>
<!-- Node43&#45;&gt;Node44 -->
<g id="edge43" class="edge">
<title>Node43&#45;&gt;Node44</title>
<path fill="none" stroke="midnightblue" d="M752.13,-168.5C772.04,-168.5 792.73,-168.5 811.7,-168.5"/>
<polygon fill="midnightblue" stroke="midnightblue" points="752.11,-165 742.11,-168.5 752.11,-172 752.11,-165"/>
</g>
<!-- Node46 -->
<g id="node46" class="node">
<title>Node46</title>
<g id="a_node46"><a xlink:href="../../df/dd4/classxii_baked_probes_component_manager.htm" target="_top" xlink:title=" ">
<polygon fill="white" stroke="black" points="791,-104 791,-123 982,-123 982,-104 791,-104"/>
<text text-anchor="middle" x="886.5" y="-111" font-family="Helvetica,sans-Serif" font-size="10.00">xiiBakedProbesComponentManager</text>
</a>
</g>
</g>
<!-- Node45&#45;&gt;Node46 -->
<g id="edge45" class="edge">
<title>Node45&#45;&gt;Node46</title>
<path fill="none" stroke="midnightblue" d="M764.54,-113.5C773.26,-113.5 782.04,-113.5 790.65,-113.5"/>
<polygon fill="midnightblue" stroke="midnightblue" points="764.33,-110 754.33,-113.5 764.33,-117 764.33,-110"/>
</g>
</g>
</svg>
