<?xml version="1.0" encoding="UTF-8" standalone="no"?>
<!DOCTYPE svg PUBLIC "-//W3C//DTD SVG 1.1//EN"
 "http://www.w3.org/Graphics/SVG/1.1/DTD/svg11.dtd">
<!-- Generated by graphviz version 2.43.0 (0)
 -->
<!-- Title: xiiComponentManagerBase Pages: 1 -->
<svg width="990pt" height="1351pt"
 viewBox="0.00 0.00 990.00 1350.50" xmlns="http://www.w3.org/2000/svg" xmlns:xlink="http://www.w3.org/1999/xlink">
<g id="graph0" class="graph" transform="scale(1 1) rotate(0) translate(4 1346.5)">
<title>xiiComponentManagerBase</title>
<!-- Node1 -->
<g id="Node000001" class="node">
<title>Node1</title>
<g id="a_Node000001"><a xlink:title="Base class for all component managers. Do not derive directly from this class, but derive from xiiCom...">
<polygon fill="#999999" stroke="#666666" points="519,-658.5 367,-658.5 367,-639.5 519,-639.5 519,-658.5"/>
<text text-anchor="middle" x="443" y="-646.5" font-family="Helvetica,sans-Serif" font-size="10.00">xiiComponentManagerBase</text>
</a>
</g>
</g>
<!-- Node5 -->
<g id="Node000005" class="node">
<title>Node5</title>
<g id="a_Node000005"><a xlink:href="../../d4/d5d/classxii_component_manager.html" target="_top" xlink:title=" ">
<polygon fill="white" stroke="#bfbfbf" points="755,-1342.5 555,-1342.5 555,-1301.5 755,-1301.5 755,-1342.5"/>
<text text-anchor="start" x="563" y="-1330.5" font-family="Helvetica,sans-Serif" font-size="10.00">xiiComponentManager</text>
<text text-anchor="start" x="563" y="-1319.5" font-family="Helvetica,sans-Serif" font-size="10.00">&lt; class xiiAnimatedMeshComponent,</text>
<text text-anchor="middle" x="655" y="-1308.5" font-family="Helvetica,sans-Serif" font-size="10.00"> xiiBlockStorageType::FreeList &gt;</text>
</a>
</g>
</g>
<!-- Node1&#45;&gt;Node5 -->
<g id="edge4_Node000001_Node000005" class="edge">
<title>Node1&#45;&gt;Node5</title>
<g id="a_edge4_Node000001_Node000005"><a xlink:title=" ">
<path fill="none" stroke="#63b8ff" d="M444.67,-668.82C448.39,-766.65 469.47,-1197.09 555,-1293 557.74,-1296.07 560.79,-1298.83 564.07,-1301.3"/>
<polygon fill="#63b8ff" stroke="#63b8ff" points="448.17,-668.68 444.31,-658.81 441.18,-668.93 448.17,-668.68"/>
</a>
</g>
</g>
<!-- Node7 -->
<g id="Node000007" class="node">
<title>Node7</title>
<g id="a_Node000007"><a xlink:href="../../d4/d5d/classxii_component_manager.html" target="_top" xlink:title=" ">
<polygon fill="white" stroke="#bfbfbf" points="750.5,-1283.5 559.5,-1283.5 559.5,-1242.5 750.5,-1242.5 750.5,-1283.5"/>
<text text-anchor="start" x="567.5" y="-1271.5" font-family="Helvetica,sans-Serif" font-size="10.00">xiiComponentManager</text>
<text text-anchor="start" x="567.5" y="-1260.5" font-family="Helvetica,sans-Serif" font-size="10.00">&lt; class xiiAreaDamageComponent,</text>
<text text-anchor="middle" x="655" y="-1249.5" font-family="Helvetica,sans-Serif" font-size="10.00"> xiiBlockStorageType::FreeList &gt;</text>
</a>
</g>
</g>
<!-- Node1&#45;&gt;Node7 -->
<g id="edge6_Node000001_Node000007" class="edge">
<title>Node1&#45;&gt;Node7</title>
<g id="a_edge6_Node000001_Node000007"><a xlink:title=" ">
<path fill="none" stroke="#63b8ff" d="M445.08,-668.96C450.49,-761.37 477.42,-1146.7 555,-1233 558.12,-1236.47 561.63,-1239.55 565.42,-1242.27"/>
<polygon fill="#63b8ff" stroke="#63b8ff" points="448.57,-668.55 444.51,-658.76 441.58,-668.94 448.57,-668.55"/>
</a>
</g>
</g>
<!-- Node9 -->
<g id="Node000009" class="node">
<title>Node9</title>
<g id="a_Node000009"><a xlink:href="../../d4/d5d/classxii_component_manager.html" target="_top" xlink:title=" ">
<polygon fill="white" stroke="#bfbfbf" points="744,-1224 566,-1224 566,-1172 744,-1172 744,-1224"/>
<text text-anchor="start" x="574" y="-1212" font-family="Helvetica,sans-Serif" font-size="10.00">xiiComponentManager</text>
<text text-anchor="start" x="574" y="-1201" font-family="Helvetica,sans-Serif" font-size="10.00">&lt; class xiiBoxReflectionProbe</text>
<text text-anchor="start" x="574" y="-1190" font-family="Helvetica,sans-Serif" font-size="10.00">Component, xiiBlockStorageType</text>
<text text-anchor="middle" x="655" y="-1179" font-family="Helvetica,sans-Serif" font-size="10.00">::Compact &gt;</text>
</a>
</g>
</g>
<!-- Node1&#45;&gt;Node9 -->
<g id="edge8_Node000001_Node000009" class="edge">
<title>Node1&#45;&gt;Node9</title>
<g id="a_edge8_Node000001_Node000009"><a xlink:title=" ">
<path fill="none" stroke="#63b8ff" d="M445.73,-668.89C453.51,-753.99 487.81,-1086.68 555,-1163 558.25,-1166.69 561.92,-1170 565.88,-1172.95"/>
<polygon fill="#63b8ff" stroke="#63b8ff" points="449.2,-668.42 444.83,-658.77 442.23,-669.04 449.2,-668.42"/>
</a>
</g>
</g>
<!-- Node11 -->
<g id="Node000011" class="node">
<title>Node11</title>
<g id="a_Node000011"><a xlink:href="../../d4/d5d/classxii_component_manager.html" target="_top" xlink:title=" ">
<polygon fill="white" stroke="#bfbfbf" points="744.5,-1153.5 565.5,-1153.5 565.5,-1112.5 744.5,-1112.5 744.5,-1153.5"/>
<text text-anchor="start" x="573.5" y="-1141.5" font-family="Helvetica,sans-Serif" font-size="10.00">xiiComponentManager</text>
<text text-anchor="start" x="573.5" y="-1130.5" font-family="Helvetica,sans-Serif" font-size="10.00">&lt; class xiiCameraComponent,</text>
<text text-anchor="middle" x="655" y="-1119.5" font-family="Helvetica,sans-Serif" font-size="10.00"> xiiBlockStorageType::Compact &gt;</text>
</a>
</g>
</g>
<!-- Node1&#45;&gt;Node11 -->
<g id="edge10_Node000001_Node000011" class="edge">
<title>Node1&#45;&gt;Node11</title>
<g id="a_edge10_Node000001_Node000011"><a xlink:title=" ">
<path fill="none" stroke="#63b8ff" d="M446.22,-668.92C455.43,-748.07 493.03,-1039.14 555,-1104 558.09,-1107.24 561.53,-1110.12 565.2,-1112.68"/>
<polygon fill="#63b8ff" stroke="#63b8ff" points="449.68,-668.37 445.07,-658.83 442.73,-669.17 449.68,-668.37"/>
</a>
</g>
</g>
<!-- Node13 -->
<g id="Node000013" class="node">
<title>Node13</title>
<g id="a_Node000013"><a xlink:href="../../d4/d5d/classxii_component_manager.html" target="_top" xlink:title=" ">
<polygon fill="white" stroke="#bfbfbf" points="745,-1094.5 565,-1094.5 565,-1053.5 745,-1053.5 745,-1094.5"/>
<text text-anchor="start" x="573" y="-1082.5" font-family="Helvetica,sans-Serif" font-size="10.00">xiiComponentManager</text>
<text text-anchor="start" x="573" y="-1071.5" font-family="Helvetica,sans-Serif" font-size="10.00">&lt; class xiiClothSheetComponent,</text>
<text text-anchor="middle" x="655" y="-1060.5" font-family="Helvetica,sans-Serif" font-size="10.00"> xiiBlockStorageType::FreeList &gt;</text>
</a>
</g>
</g>
<!-- Node1&#45;&gt;Node13 -->
<g id="edge12_Node000001_Node000013" class="edge">
<title>Node1&#45;&gt;Node13</title>
<g id="a_edge12_Node000001_Node000013"><a xlink:title=" ">
<path fill="none" stroke="#63b8ff" d="M443.3,-668.97C442.21,-733.19 447.74,-936.48 555,-1045 558.02,-1048.06 561.35,-1050.8 564.89,-1053.25"/>
<polygon fill="#63b8ff" stroke="#63b8ff" points="446.81,-668.74 443.56,-658.66 439.81,-668.56 446.81,-668.74"/>
</a>
</g>
</g>
<!-- Node15 -->
<g id="Node000015" class="node">
<title>Node15</title>
<g id="a_Node000015"><a xlink:href="../../d4/d5d/classxii_component_manager.html" target="_top" xlink:title=" ">
<polygon fill="white" stroke="#bfbfbf" points="749.5,-1035.5 560.5,-1035.5 560.5,-994.5 749.5,-994.5 749.5,-1035.5"/>
<text text-anchor="start" x="568.5" y="-1023.5" font-family="Helvetica,sans-Serif" font-size="10.00">xiiComponentManager</text>
<text text-anchor="start" x="568.5" y="-1012.5" font-family="Helvetica,sans-Serif" font-size="10.00">&lt; ComponentType, xiiBlockStorage</text>
<text text-anchor="middle" x="655" y="-1001.5" font-family="Helvetica,sans-Serif" font-size="10.00">Type::FreeList &gt;</text>
</a>
</g>
</g>
<!-- Node1&#45;&gt;Node15 -->
<g id="edge14_Node000001_Node000015" class="edge">
<title>Node1&#45;&gt;Node15</title>
<g id="a_edge14_Node000001_Node000015"><a xlink:title=" ">
<path fill="none" stroke="#63b8ff" d="M444.46,-669C446.89,-726.86 462.01,-896.05 555,-986 558.22,-989.11 561.75,-991.89 565.51,-994.38"/>
<polygon fill="#63b8ff" stroke="#63b8ff" points="447.94,-668.56 444.11,-658.68 440.95,-668.8 447.94,-668.56"/>
</a>
</g>
</g>
<!-- Node17 -->
<g id="Node000017" class="node">
<title>Node17</title>
<g id="a_Node000017"><a xlink:href="../../d4/d5d/classxii_component_manager.html" target="_top" xlink:title=" ">
<polygon fill="white" stroke="#bfbfbf" points="744.5,-976.5 565.5,-976.5 565.5,-935.5 744.5,-935.5 744.5,-976.5"/>
<text text-anchor="start" x="573.5" y="-964.5" font-family="Helvetica,sans-Serif" font-size="10.00">xiiComponentManager</text>
<text text-anchor="start" x="573.5" y="-953.5" font-family="Helvetica,sans-Serif" font-size="10.00">&lt; class xiiDecalComponent,</text>
<text text-anchor="middle" x="655" y="-942.5" font-family="Helvetica,sans-Serif" font-size="10.00"> xiiBlockStorageType::Compact &gt;</text>
</a>
</g>
</g>
<!-- Node1&#45;&gt;Node17 -->
<g id="edge16_Node000001_Node000017" class="edge">
<title>Node1&#45;&gt;Node17</title>
<g id="a_edge16_Node000001_Node000017"><a xlink:title=" ">
<path fill="none" stroke="#63b8ff" d="M446.03,-668.8C452.3,-719.52 475.99,-855.15 555,-927 558.45,-930.13 562.21,-932.93 566.2,-935.42"/>
<polygon fill="#63b8ff" stroke="#63b8ff" points="449.47,-668.11 444.86,-658.57 442.52,-668.9 449.47,-668.11"/>
</a>
</g>
</g>
<!-- Node19 -->
<g id="Node000019" class="node">
<title>Node19</title>
<g id="a_Node000019"><a xlink:href="../../d4/d5d/classxii_component_manager.html" target="_top" xlink:title=" ">
<polygon fill="white" stroke="#bfbfbf" points="742,-917.5 568,-917.5 568,-876.5 742,-876.5 742,-917.5"/>
<text text-anchor="start" x="576" y="-905.5" font-family="Helvetica,sans-Serif" font-size="10.00">xiiComponentManager</text>
<text text-anchor="start" x="576" y="-894.5" font-family="Helvetica,sans-Serif" font-size="10.00">&lt; class xiiFakeRopeComponent,</text>
<text text-anchor="middle" x="655" y="-883.5" font-family="Helvetica,sans-Serif" font-size="10.00"> xiiBlockStorageType::FreeList &gt;</text>
</a>
</g>
</g>
<!-- Node1&#45;&gt;Node19 -->
<g id="edge18_Node000001_Node000019" class="edge">
<title>Node1&#45;&gt;Node19</title>
<g id="a_edge18_Node000001_Node000019"><a xlink:title=" ">
<path fill="none" stroke="#63b8ff" d="M448.39,-668.41C459.01,-710.91 490.13,-812.69 555,-867 559.27,-870.57 563.96,-873.72 568.9,-876.5"/>
<polygon fill="#63b8ff" stroke="#63b8ff" points="451.75,-667.43 446.02,-658.52 444.94,-669.06 451.75,-667.43"/>
</a>
</g>
</g>
<!-- Node21 -->
<g id="Node000021" class="node">
<title>Node21</title>
<g id="a_Node000021"><a xlink:href="../../d4/d5d/classxii_component_manager.html" target="_top" xlink:title=" ">
<polygon fill="white" stroke="#bfbfbf" points="720.5,-858 589.5,-858 589.5,-806 720.5,-806 720.5,-858"/>
<text text-anchor="start" x="597.5" y="-846" font-family="Helvetica,sans-Serif" font-size="10.00">xiiComponentManager</text>
<text text-anchor="start" x="597.5" y="-835" font-family="Helvetica,sans-Serif" font-size="10.00">&lt; xiiGizmoComponent,</text>
<text text-anchor="start" x="597.5" y="-824" font-family="Helvetica,sans-Serif" font-size="10.00"> xiiBlockStorageType</text>
<text text-anchor="middle" x="655" y="-813" font-family="Helvetica,sans-Serif" font-size="10.00">::FreeList &gt;</text>
</a>
</g>
</g>
<!-- Node1&#45;&gt;Node21 -->
<g id="edge20_Node000001_Node000021" class="edge">
<title>Node1&#45;&gt;Node21</title>
<g id="a_edge20_Node000001_Node000021"><a xlink:title=" ">
<path fill="none" stroke="#63b8ff" d="M453.35,-667.82C469.76,-699.01 506.65,-761.48 555,-797 565.28,-804.55 577.35,-810.59 589.45,-815.38"/>
<polygon fill="#63b8ff" stroke="#63b8ff" points="456.44,-666.16 448.75,-658.86 450.21,-669.36 456.44,-666.16"/>
</a>
</g>
</g>
<!-- Node23 -->
<g id="Node000023" class="node">
<title>Node23</title>
<g id="a_Node000023"><a xlink:href="../../d4/d5d/classxii_component_manager.html" target="_top" xlink:title=" ">
<polygon fill="white" stroke="#bfbfbf" points="744.5,-787.5 565.5,-787.5 565.5,-746.5 744.5,-746.5 744.5,-787.5"/>
<text text-anchor="start" x="573.5" y="-775.5" font-family="Helvetica,sans-Serif" font-size="10.00">xiiComponentManager</text>
<text text-anchor="start" x="573.5" y="-764.5" font-family="Helvetica,sans-Serif" font-size="10.00">&lt; xiiHeightfieldComponent,</text>
<text text-anchor="middle" x="655" y="-753.5" font-family="Helvetica,sans-Serif" font-size="10.00"> xiiBlockStorageType::Compact &gt;</text>
</a>
</g>
</g>
<!-- Node1&#45;&gt;Node23 -->
<g id="edge22_Node000001_Node000023" class="edge">
<title>Node1&#45;&gt;Node23</title>
<g id="a_edge22_Node000001_Node000023"><a xlink:title=" ">
<path fill="none" stroke="#63b8ff" d="M460.81,-665.73C481.38,-685.36 518.07,-717.67 555,-737 561.68,-740.5 568.84,-743.66 576.13,-746.49"/>
<polygon fill="#63b8ff" stroke="#63b8ff" points="463.12,-663.09 453.5,-658.64 458.24,-668.12 463.12,-663.09"/>
</a>
</g>
</g>
<!-- Node25 -->
<g id="Node000025" class="node">
<title>Node25</title>
<g id="a_Node000025"><a xlink:href="../../d4/d5d/classxii_component_manager.html" target="_top" xlink:title=" ">
<polygon fill="white" stroke="#bfbfbf" points="755,-728.5 555,-728.5 555,-687.5 755,-687.5 755,-728.5"/>
<text text-anchor="start" x="563" y="-716.5" font-family="Helvetica,sans-Serif" font-size="10.00">xiiComponentManager</text>
<text text-anchor="start" x="563" y="-705.5" font-family="Helvetica,sans-Serif" font-size="10.00">&lt; class xiiInstancedMeshComponent,</text>
<text text-anchor="middle" x="655" y="-694.5" font-family="Helvetica,sans-Serif" font-size="10.00"> xiiBlockStorageType::Compact &gt;</text>
</a>
</g>
</g>
<!-- Node1&#45;&gt;Node25 -->
<g id="edge24_Node000001_Node000025" class="edge">
<title>Node1&#45;&gt;Node25</title>
<g id="a_edge24_Node000001_Node000025"><a xlink:title=" ">
<path fill="none" stroke="#63b8ff" d="M488.05,-661.38C514.85,-668.91 549.74,-678.71 580.61,-687.38"/>
<polygon fill="#63b8ff" stroke="#63b8ff" points="488.78,-657.95 478.21,-658.61 486.89,-664.69 488.78,-657.95"/>
</a>
</g>
</g>
<!-- Node27 -->
<g id="Node000027" class="node">
<title>Node27</title>
<g id="a_Node000027"><a xlink:href="../../d4/d5d/classxii_component_manager.html" target="_top" xlink:title=" ">
<polygon fill="white" stroke="#bfbfbf" points="742,-669.5 568,-669.5 568,-628.5 742,-628.5 742,-669.5"/>
<text text-anchor="start" x="576" y="-657.5" font-family="Helvetica,sans-Serif" font-size="10.00">xiiComponentManager</text>
<text text-anchor="start" x="576" y="-646.5" font-family="Helvetica,sans-Serif" font-size="10.00">&lt; class xiiLineToComponent,</text>
<text text-anchor="middle" x="655" y="-635.5" font-family="Helvetica,sans-Serif" font-size="10.00"> xiiBlockStorageType::FreeList &gt;</text>
</a>
</g>
</g>
<!-- Node1&#45;&gt;Node27 -->
<g id="edge26_Node000001_Node000027" class="edge">
<title>Node1&#45;&gt;Node27</title>
<g id="a_edge26_Node000001_Node000027"><a xlink:title=" ">
<path fill="none" stroke="#63b8ff" d="M529.32,-649C542.03,-649 555.14,-649 567.87,-649"/>
<polygon fill="#63b8ff" stroke="#63b8ff" points="529.22,-645.5 519.22,-649 529.22,-652.5 529.22,-645.5"/>
</a>
</g>
</g>
<!-- Node29 -->
<g id="Node000029" class="node">
<title>Node29</title>
<g id="a_Node000029"><a xlink:href="../../d4/d5d/classxii_component_manager.html" target="_top" xlink:title=" ">
<polygon fill="white" stroke="#bfbfbf" points="742,-610.5 568,-610.5 568,-569.5 742,-569.5 742,-610.5"/>
<text text-anchor="start" x="576" y="-598.5" font-family="Helvetica,sans-Serif" font-size="10.00">xiiComponentManager</text>
<text text-anchor="start" x="576" y="-587.5" font-family="Helvetica,sans-Serif" font-size="10.00">&lt; class xiiOccluderComponent,</text>
<text text-anchor="middle" x="655" y="-576.5" font-family="Helvetica,sans-Serif" font-size="10.00"> xiiBlockStorageType::FreeList &gt;</text>
</a>
</g>
</g>
<!-- Node1&#45;&gt;Node29 -->
<g id="edge28_Node000001_Node000029" class="edge">
<title>Node1&#45;&gt;Node29</title>
<g id="a_edge28_Node000001_Node000029"><a xlink:title=" ">
<path fill="none" stroke="#63b8ff" d="M488.05,-636.62C514.85,-629.09 549.74,-619.29 580.61,-610.62"/>
<polygon fill="#63b8ff" stroke="#63b8ff" points="486.89,-633.31 478.21,-639.39 488.78,-640.05 486.89,-633.31"/>
</a>
</g>
</g>
<!-- Node31 -->
<g id="Node000031" class="node">
<title>Node31</title>
<g id="a_Node000031"><a xlink:href="../../d4/d5d/classxii_component_manager.html" target="_top" xlink:title=" ">
<polygon fill="white" stroke="#bfbfbf" points="742,-551.5 568,-551.5 568,-510.5 742,-510.5 742,-551.5"/>
<text text-anchor="start" x="576" y="-539.5" font-family="Helvetica,sans-Serif" font-size="10.00">xiiComponentManager</text>
<text text-anchor="start" x="576" y="-528.5" font-family="Helvetica,sans-Serif" font-size="10.00">&lt; class xiiPathComponent,</text>
<text text-anchor="middle" x="655" y="-517.5" font-family="Helvetica,sans-Serif" font-size="10.00"> xiiBlockStorageType::FreeList &gt;</text>
</a>
</g>
</g>
<!-- Node1&#45;&gt;Node31 -->
<g id="edge30_Node000001_Node000031" class="edge">
<title>Node1&#45;&gt;Node31</title>
<g id="a_edge30_Node000001_Node000031"><a xlink:title=" ">
<path fill="none" stroke="#63b8ff" d="M460.42,-632.32C480.87,-612.43 517.68,-579.45 555,-560 560.96,-556.9 567.29,-554.08 573.77,-551.53"/>
<polygon fill="#63b8ff" stroke="#63b8ff" points="457.82,-629.96 453.18,-639.49 462.75,-634.94 457.82,-629.96"/>
</a>
</g>
</g>
<!-- Node33 -->
<g id="Node000033" class="node">
<title>Node33</title>
<g id="a_Node000033"><a xlink:href="../../d4/d5d/classxii_component_manager.html" target="_top" xlink:title=" ">
<polygon fill="white" stroke="#bfbfbf" points="755,-492.5 555,-492.5 555,-451.5 755,-451.5 755,-492.5"/>
<text text-anchor="start" x="563" y="-480.5" font-family="Helvetica,sans-Serif" font-size="10.00">xiiComponentManager</text>
<text text-anchor="start" x="563" y="-469.5" font-family="Helvetica,sans-Serif" font-size="10.00">&lt; class xiiPostProcessingComponent,</text>
<text text-anchor="middle" x="655" y="-458.5" font-family="Helvetica,sans-Serif" font-size="10.00"> xiiBlockStorageType::Compact &gt;</text>
</a>
</g>
</g>
<!-- Node1&#45;&gt;Node33 -->
<g id="edge32_Node000001_Node000033" class="edge">
<title>Node1&#45;&gt;Node33</title>
<g id="a_edge32_Node000001_Node000033"><a xlink:title=" ">
<path fill="none" stroke="#63b8ff" d="M452.91,-630.34C468.9,-598.88 505.46,-535.34 555,-501 559.42,-497.94 564.16,-495.2 569.08,-492.74"/>
<polygon fill="#63b8ff" stroke="#63b8ff" points="449.75,-628.84 448.45,-639.36 456.02,-631.94 449.75,-628.84"/>
</a>
</g>
</g>
<!-- Node35 -->
<g id="Node000035" class="node">
<title>Node35</title>
<g id="a_Node000035"><a xlink:href="../../d4/d5d/classxii_component_manager.html" target="_top" xlink:title=" ">
<polygon fill="white" stroke="#bfbfbf" points="745,-433.5 565,-433.5 565,-392.5 745,-392.5 745,-433.5"/>
<text text-anchor="start" x="573" y="-421.5" font-family="Helvetica,sans-Serif" font-size="10.00">xiiComponentManager</text>
<text text-anchor="start" x="573" y="-410.5" font-family="Helvetica,sans-Serif" font-size="10.00">&lt; xiiPrefabReferenceComponent,</text>
<text text-anchor="middle" x="655" y="-399.5" font-family="Helvetica,sans-Serif" font-size="10.00"> xiiBlockStorageType::Compact &gt;</text>
</a>
</g>
</g>
<!-- Node1&#45;&gt;Node35 -->
<g id="edge34_Node000001_Node000035" class="edge">
<title>Node1&#45;&gt;Node35</title>
<g id="a_edge34_Node000001_Node000035"><a xlink:title=" ">
<path fill="none" stroke="#63b8ff" d="M448.88,-629.69C460.24,-588.75 492.35,-492.84 555,-442 558.89,-438.84 563.12,-436.02 567.56,-433.52"/>
<polygon fill="#63b8ff" stroke="#63b8ff" points="445.46,-628.92 446.27,-639.48 452.23,-630.72 445.46,-628.92"/>
</a>
</g>
</g>
<!-- Node37 -->
<g id="Node000037" class="node">
<title>Node37</title>
<g id="a_Node000037"><a xlink:href="../../d4/d5d/classxii_component_manager.html" target="_top" xlink:title=" ">
<polygon fill="white" stroke="#bfbfbf" points="744.5,-374.5 565.5,-374.5 565.5,-333.5 744.5,-333.5 744.5,-374.5"/>
<text text-anchor="start" x="573.5" y="-362.5" font-family="Helvetica,sans-Serif" font-size="10.00">xiiComponentManager</text>
<text text-anchor="start" x="573.5" y="-351.5" font-family="Helvetica,sans-Serif" font-size="10.00">&lt; class xiiRaycastComponent,</text>
<text text-anchor="middle" x="655" y="-340.5" font-family="Helvetica,sans-Serif" font-size="10.00"> xiiBlockStorageType::Compact &gt;</text>
</a>
</g>
</g>
<!-- Node1&#45;&gt;Node37 -->
<g id="edge36_Node000001_Node000037" class="edge">
<title>Node1&#45;&gt;Node37</title>
<g id="a_edge36_Node000001_Node000037"><a xlink:title=" ">
<path fill="none" stroke="#63b8ff" d="M446.41,-629.37C453.48,-580.29 478.74,-451.28 555,-383 558.47,-379.89 562.26,-377.12 566.26,-374.64"/>
<polygon fill="#63b8ff" stroke="#63b8ff" points="442.93,-628.94 445.07,-639.32 449.87,-629.87 442.93,-628.94"/>
</a>
</g>
</g>
<!-- Node39 -->
<g id="Node000039" class="node">
<title>Node39</title>
<g id="a_Node000039"><a xlink:href="../../d4/d5d/classxii_component_manager.html" target="_top" xlink:title=" ">
<polygon fill="white" stroke="#bfbfbf" points="751,-315.5 559,-315.5 559,-274.5 751,-274.5 751,-315.5"/>
<text text-anchor="start" x="567" y="-303.5" font-family="Helvetica,sans-Serif" font-size="10.00">xiiComponentManager</text>
<text text-anchor="start" x="567" y="-292.5" font-family="Helvetica,sans-Serif" font-size="10.00">&lt; class xiiSkeletonPoseComponent,</text>
<text text-anchor="middle" x="655" y="-281.5" font-family="Helvetica,sans-Serif" font-size="10.00"> xiiBlockStorageType::Compact &gt;</text>
</a>
</g>
</g>
<!-- Node1&#45;&gt;Node39 -->
<g id="edge38_Node000001_Node000039" class="edge">
<title>Node1&#45;&gt;Node39</title>
<g id="a_edge38_Node000001_Node000039"><a xlink:title=" ">
<path fill="none" stroke="#63b8ff" d="M444.72,-629.32C447.86,-573.12 464.72,-410.38 555,-324 558.24,-320.9 561.78,-318.14 565.55,-315.66"/>
<polygon fill="#63b8ff" stroke="#63b8ff" points="441.22,-629.21 444.25,-639.36 448.21,-629.54 441.22,-629.21"/>
</a>
</g>
</g>
<!-- Node41 -->
<g id="Node000041" class="node">
<title>Node41</title>
<g id="a_Node000041"><a xlink:href="../../d4/d5d/classxii_component_manager.html" target="_top" xlink:title=" ">
<polygon fill="white" stroke="#bfbfbf" points="746.5,-256 563.5,-256 563.5,-204 746.5,-204 746.5,-256"/>
<text text-anchor="start" x="571.5" y="-244" font-family="Helvetica,sans-Serif" font-size="10.00">xiiComponentManager</text>
<text text-anchor="start" x="571.5" y="-233" font-family="Helvetica,sans-Serif" font-size="10.00">&lt; class xiiSphereReflection</text>
<text text-anchor="start" x="571.5" y="-222" font-family="Helvetica,sans-Serif" font-size="10.00">ProbeComponent, xiiBlockStorage</text>
<text text-anchor="middle" x="655" y="-211" font-family="Helvetica,sans-Serif" font-size="10.00">Type::Compact &gt;</text>
</a>
</g>
</g>
<!-- Node1&#45;&gt;Node41 -->
<g id="edge40_Node000001_Node000041" class="edge">
<title>Node1&#45;&gt;Node41</title>
<g id="a_edge40_Node000001_Node000041"><a xlink:title=" ">
<path fill="none" stroke="#63b8ff" d="M443.76,-629.05C444.1,-566.57 453.68,-372.42 555,-265 558,-261.82 561.31,-258.92 564.84,-256.29"/>
<polygon fill="#63b8ff" stroke="#63b8ff" points="440.26,-629.44 443.79,-639.43 447.26,-629.42 440.26,-629.44"/>
</a>
</g>
</g>
<!-- Node43 -->
<g id="Node000043" class="node">
<title>Node43</title>
<g id="a_Node000043"><a xlink:href="../../d4/d5d/classxii_component_manager.html" target="_top" xlink:title=" ">
<polygon fill="white" stroke="#bfbfbf" points="752,-185.5 558,-185.5 558,-144.5 752,-144.5 752,-185.5"/>
<text text-anchor="start" x="566" y="-173.5" font-family="Helvetica,sans-Serif" font-size="10.00">xiiComponentManager</text>
<text text-anchor="start" x="566" y="-162.5" font-family="Helvetica,sans-Serif" font-size="10.00">&lt; class xiiStateMachineComponent,</text>
<text text-anchor="middle" x="655" y="-151.5" font-family="Helvetica,sans-Serif" font-size="10.00"> xiiBlockStorageType::Compact &gt;</text>
</a>
</g>
</g>
<!-- Node1&#45;&gt;Node43 -->
<g id="edge42_Node000001_Node000043" class="edge">
<title>Node1&#45;&gt;Node43</title>
<g id="a_edge42_Node000001_Node000043"><a xlink:title=" ">
<path fill="none" stroke="#63b8ff" d="M446.24,-629.14C455.54,-550.22 493.45,-260 555,-195 558.33,-191.48 562.07,-188.37 566.08,-185.62"/>
<polygon fill="#63b8ff" stroke="#63b8ff" points="442.75,-628.86 445.08,-639.2 449.71,-629.66 442.75,-628.86"/>
</a>
</g>
</g>
<!-- Node45 -->
<g id="Node000045" class="node">
<title>Node45</title>
<g id="a_Node000045"><a xlink:href="../../d8/d5c/classxii_settings_component_manager.html" target="_top" xlink:title=" ">
<polygon fill="white" stroke="#666666" points="754,-126 556,-126 556,-96 754,-96 754,-126"/>
<text text-anchor="start" x="564" y="-114" font-family="Helvetica,sans-Serif" font-size="10.00">xiiSettingsComponentManager</text>
<text text-anchor="middle" x="655" y="-103" font-family="Helvetica,sans-Serif" font-size="10.00">&lt; class xiiBakedProbesComponent &gt;</text>
</a>
</g>
</g>
<!-- Node1&#45;&gt;Node45 -->
<g id="edge44_Node000001_Node000045" class="edge">
<title>Node1&#45;&gt;Node45</title>
<g id="a_edge44_Node000001_Node000045"><a xlink:title=" ">
<path fill="none" stroke="#63b8ff" d="M445.54,-628.94C452.52,-543.09 484.01,-207.8 555,-135 558.33,-131.58 562.07,-128.62 566.07,-126.05"/>
<polygon fill="#63b8ff" stroke="#63b8ff" points="442.03,-628.9 444.73,-639.14 449.01,-629.45 442.03,-628.9"/>
</a>
</g>
</g>
<!-- Node47 -->
<g id="Node000047" class="node">
<title>Node47</title>
<g id="a_Node000047"><a xlink:href="../../d4/d5d/classxii_component_manager.html" target="_top" xlink:title=" ">
<polygon fill="white" stroke="#bfbfbf" points="719,-78 591,-78 591,-48 719,-48 719,-78"/>
<text text-anchor="start" x="599" y="-66" font-family="Helvetica,sans-Serif" font-size="10.00">xiiComponentManager</text>
<text text-anchor="middle" x="655" y="-55" font-family="Helvetica,sans-Serif" font-size="10.00">&lt; T, StorageType &gt;</text>
</a>
</g>
</g>
<!-- Node1&#45;&gt;Node47 -->
<g id="edge46_Node000001_Node000047" class="edge">
<title>Node1&#45;&gt;Node47</title>
<g id="a_edge46_Node000001_Node000047"><a xlink:title=" ">
<path fill="none" stroke="#63b8ff" d="M445.13,-629.11C450.65,-538.72 477.8,-167.58 555,-87 564.54,-77.04 577.46,-70.92 590.81,-67.23"/>
<polygon fill="#63b8ff" stroke="#63b8ff" points="441.63,-628.93 444.53,-639.12 448.62,-629.35 441.63,-628.93"/>
</a>
</g>
</g>
<!-- Node48 -->
<g id="Node000048" class="node">
<title>Node48</title>
<g id="a_Node000048"><a xlink:href="../../d8/d5c/classxii_settings_component_manager.html" target="_top" xlink:title="A component manager that does no update at all on components and expects only a single instance to be...">
<polygon fill="white" stroke="#666666" points="738.5,-30 571.5,-30 571.5,0 738.5,0 738.5,-30"/>
<text text-anchor="start" x="579.5" y="-18" font-family="Helvetica,sans-Serif" font-size="10.00">xiiSettingsComponentManager</text>
<text text-anchor="middle" x="655" y="-7" font-family="Helvetica,sans-Serif" font-size="10.00">&lt; ComponentType &gt;</text>
</a>
</g>
</g>
<!-- Node1&#45;&gt;Node48 -->
<g id="edge47_Node000001_Node000048" class="edge">
<title>Node1&#45;&gt;Node48</title>
<g id="a_edge47_Node000001_Node000048"><a xlink:title=" ">
<path fill="none" stroke="#63b8ff" d="M444.8,-628.96C449.01,-533.67 471.66,-127.3 555,-39 559.73,-33.98 565.32,-29.94 571.4,-26.69"/>
<polygon fill="#63b8ff" stroke="#63b8ff" points="441.29,-629.08 444.37,-639.22 448.28,-629.37 441.29,-629.08"/>
</a>
</g>
</g>
<!-- Node2 -->
<g id="Node000002" class="node">
<title>Node2</title>
<g id="a_Node000002"><a xlink:href="../../d9/dfe/classxii_world_module.html" target="_top" xlink:title=" ">
<polygon fill="white" stroke="#bfbfbf" points="331,-658.5 239,-658.5 239,-639.5 331,-639.5 331,-658.5"/>
<text text-anchor="middle" x="285" y="-646.5" font-family="Helvetica,sans-Serif" font-size="10.00">xiiWorldModule</text>
</a>
</g>
</g>
<!-- Node2&#45;&gt;Node1 -->
<g id="edge1_Node000001_Node000002" class="edge">
<title>Node2&#45;&gt;Node1</title>
<g id="a_edge1_Node000001_Node000002"><a xlink:title=" ">
<path fill="none" stroke="#63b8ff" d="M341.32,-649C349.55,-649 358.15,-649 366.71,-649"/>
<polygon fill="#63b8ff" stroke="#63b8ff" points="341.12,-645.5 331.12,-649 341.12,-652.5 341.12,-645.5"/>
</a>
</g>
</g>
<!-- Node3 -->
<g id="Node000003" class="node">
<title>Node3</title>
<g id="a_Node000003"><a xlink:href="../../dc/d71/classxii_reflected_class.html" target="_top" xlink:title="All classes that should be dynamically reflectable, need to be derived from this base class.">
<polygon fill="white" stroke="#666666" points="203,-658.5 102,-658.5 102,-639.5 203,-639.5 203,-658.5"/>
<text text-anchor="middle" x="152.5" y="-646.5" font-family="Helvetica,sans-Serif" font-size="10.00">xiiReflectedClass</text>
</a>
</g>
</g>
<!-- Node3&#45;&gt;Node2 -->
<g id="edge2_Node000002_Node000003" class="edge">
<title>Node3&#45;&gt;Node2</title>
<g id="a_edge2_Node000002_Node000003"><a xlink:title=" ">
<path fill="none" stroke="#63b8ff" d="M213.47,-649C221.95,-649 230.56,-649 238.71,-649"/>
<polygon fill="#63b8ff" stroke="#63b8ff" points="213.21,-645.5 203.21,-649 213.21,-652.5 213.21,-645.5"/>
</a>
</g>
</g>
<!-- Node4 -->
<g id="Node000004" class="node">
<title>Node4</title>
<g id="a_Node000004"><a xlink:href="../../d2/d38/classxii_no_base.html" target="_top" xlink:title="Dummy type to pass to templates and macros that expect a base type for a class that has no base.">
<polygon fill="white" stroke="#666666" points="66,-658.5 0,-658.5 0,-639.5 66,-639.5 66,-658.5"/>
<text text-anchor="middle" x="33" y="-646.5" font-family="Helvetica,sans-Serif" font-size="10.00">xiiNoBase</text>
</a>
</g>
</g>
<!-- Node4&#45;&gt;Node3 -->
<g id="edge3_Node000003_Node000004" class="edge">
<title>Node4&#45;&gt;Node3</title>
<g id="a_edge3_Node000003_Node000004"><a xlink:title=" ">
<path fill="none" stroke="#63b8ff" d="M76.27,-649C84.54,-649 93.29,-649 101.78,-649"/>
<polygon fill="#63b8ff" stroke="#63b8ff" points="76.11,-645.5 66.11,-649 76.11,-652.5 76.11,-645.5"/>
</a>
</g>
</g>
<!-- Node6 -->
<g id="Node000006" class="node">
<title>Node6</title>
<g id="a_Node000006"><a xlink:href="../../d0/ddf/classxii_animated_mesh_component_manager.html" target="_top" xlink:title=" ">
<polygon fill="white" stroke="#bfbfbf" points="965.5,-1337 807.5,-1337 807.5,-1307 965.5,-1307 965.5,-1337"/>
<text text-anchor="start" x="815.5" y="-1325" font-family="Helvetica,sans-Serif" font-size="10.00">xiiAnimatedMeshComponent</text>
<text text-anchor="middle" x="886.5" y="-1314" font-family="Helvetica,sans-Serif" font-size="10.00">Manager</text>
</a>
</g>
</g>
<!-- Node5&#45;&gt;Node6 -->
<g id="edge5_Node000005_Node000006" class="edge">
<title>Node5&#45;&gt;Node6</title>
<g id="a_edge5_Node000005_Node000006"><a xlink:title=" ">
<path fill="none" stroke="#63b8ff" d="M765.59,-1322C779.73,-1322 793.97,-1322 807.46,-1322"/>
<polygon fill="#63b8ff" stroke="#63b8ff" points="765.33,-1318.5 755.33,-1322 765.33,-1325.5 765.33,-1318.5"/>
</a>
</g>
</g>
<!-- Node8 -->
<g id="Node000008" class="node">
<title>Node8</title>
<g id="a_Node000008"><a xlink:href="../../d9/d04/classxii_area_damage_component_manager.html" target="_top" xlink:title=" ">
<polygon fill="white" stroke="#bfbfbf" points="982,-1272.5 791,-1272.5 791,-1253.5 982,-1253.5 982,-1272.5"/>
<text text-anchor="middle" x="886.5" y="-1260.5" font-family="Helvetica,sans-Serif" font-size="10.00">xiiAreaDamageComponentManager</text>
</a>
</g>
</g>
<!-- Node7&#45;&gt;Node8 -->
<g id="edge7_Node000007_Node000008" class="edge">
<title>Node7&#45;&gt;Node8</title>
<g id="a_edge7_Node000007_Node000008"><a xlink:title=" ">
<path fill="none" stroke="#63b8ff" d="M760.95,-1263C770.86,-1263 780.87,-1263 790.68,-1263"/>
<polygon fill="#63b8ff" stroke="#63b8ff" points="760.67,-1259.5 750.67,-1263 760.67,-1266.5 760.67,-1259.5"/>
</a>
</g>
</g>
<!-- Node10 -->
<g id="Node000010" class="node">
<title>Node10</title>
<g id="a_Node000010"><a xlink:href="../../d3/d7a/classxii_box_reflection_probe_component_manager.html" target="_top" xlink:title=" ">
<polygon fill="white" stroke="#bfbfbf" points="976.5,-1213 796.5,-1213 796.5,-1183 976.5,-1183 976.5,-1213"/>
<text text-anchor="start" x="804.5" y="-1201" font-family="Helvetica,sans-Serif" font-size="10.00">xiiBoxReflectionProbeComponent</text>
<text text-anchor="middle" x="886.5" y="-1190" font-family="Helvetica,sans-Serif" font-size="10.00">Manager</text>
</a>
</g>
</g>
<!-- Node9&#45;&gt;Node10 -->
<g id="edge9_Node000009_Node000010" class="edge">
<title>Node9&#45;&gt;Node10</title>
<g id="a_edge9_Node000009_Node000010"><a xlink:title=" ">
<path fill="none" stroke="#63b8ff" d="M754.16,-1198C768.1,-1198 782.38,-1198 796.14,-1198"/>
<polygon fill="#63b8ff" stroke="#63b8ff" points="754.07,-1194.5 744.07,-1198 754.07,-1201.5 754.07,-1194.5"/>
</a>
</g>
</g>
<!-- Node12 -->
<g id="Node000012" class="node">
<title>Node12</title>
<g id="a_Node000012"><a xlink:href="../../d5/d1d/classxii_camera_component_manager.html" target="_top" xlink:title=" ">
<polygon fill="white" stroke="#bfbfbf" points="969.5,-1142.5 803.5,-1142.5 803.5,-1123.5 969.5,-1123.5 969.5,-1142.5"/>
<text text-anchor="middle" x="886.5" y="-1130.5" font-family="Helvetica,sans-Serif" font-size="10.00">xiiCameraComponentManager</text>
</a>
</g>
</g>
<!-- Node11&#45;&gt;Node12 -->
<g id="edge11_Node000011_Node000012" class="edge">
<title>Node11&#45;&gt;Node12</title>
<g id="a_edge11_Node000011_Node000012"><a xlink:title=" ">
<path fill="none" stroke="#63b8ff" d="M754.76,-1133C770.98,-1133 787.64,-1133 803.39,-1133"/>
<polygon fill="#63b8ff" stroke="#63b8ff" points="754.73,-1129.5 744.73,-1133 754.73,-1136.5 754.73,-1129.5"/>
</a>
</g>
</g>
<!-- Node14 -->
<g id="Node000014" class="node">
<title>Node14</title>
<g id="a_Node000014"><a xlink:href="../../d1/d65/classxii_cloth_sheet_component_manager.html" target="_top" xlink:title=" ">
<polygon fill="white" stroke="#bfbfbf" points="977,-1083.5 796,-1083.5 796,-1064.5 977,-1064.5 977,-1083.5"/>
<text text-anchor="middle" x="886.5" y="-1071.5" font-family="Helvetica,sans-Serif" font-size="10.00">xiiClothSheetComponentManager</text>
</a>
</g>
</g>
<!-- Node13&#45;&gt;Node14 -->
<g id="edge13_Node000013_Node000014" class="edge">
<title>Node13&#45;&gt;Node14</title>
<g id="a_edge13_Node000013_Node000014"><a xlink:title=" ">
<path fill="none" stroke="#63b8ff" d="M755.28,-1074C768.73,-1074 782.46,-1074 795.73,-1074"/>
<polygon fill="#63b8ff" stroke="#63b8ff" points="755.06,-1070.5 745.06,-1074 755.06,-1077.5 755.06,-1070.5"/>
</a>
</g>
</g>
<!-- Node16 -->
<g id="Node000016" class="node">
<title>Node16</title>
<g id="a_Node000016"><a xlink:href="../../d3/db6/classxii_component_manager_simple.html" target="_top" xlink:title="Simple component manager implementation that calls an update method on all components every frame.">
<polygon fill="white" stroke="#666666" points="973,-1035.5 800,-1035.5 800,-994.5 973,-994.5 973,-1035.5"/>
<text text-anchor="start" x="808" y="-1023.5" font-family="Helvetica,sans-Serif" font-size="10.00">xiiComponentManagerSimple</text>
<text text-anchor="start" x="808" y="-1012.5" font-family="Helvetica,sans-Serif" font-size="10.00">&lt; ComponentType, UpdateType,</text>
<text text-anchor="middle" x="886.5" y="-1001.5" font-family="Helvetica,sans-Serif" font-size="10.00"> StorageType &gt;</text>
</a>
</g>
</g>
<!-- Node15&#45;&gt;Node16 -->
<g id="edge15_Node000015_Node000016" class="edge">
<title>Node15&#45;&gt;Node16</title>
<g id="a_edge15_Node000015_Node000016"><a xlink:title=" ">
<path fill="none" stroke="#63b8ff" d="M759.86,-1015C773.25,-1015 786.83,-1015 799.88,-1015"/>
<polygon fill="#63b8ff" stroke="#63b8ff" points="759.68,-1011.5 749.68,-1015 759.68,-1018.5 759.68,-1011.5"/>
</a>
</g>
</g>
<!-- Node18 -->
<g id="Node000018" class="node">
<title>Node18</title>
<g id="a_Node000018"><a xlink:href="../../d6/d03/classxii_decal_component_manager.html" target="_top" xlink:title=" ">
<polygon fill="white" stroke="#bfbfbf" points="964,-965.5 809,-965.5 809,-946.5 964,-946.5 964,-965.5"/>
<text text-anchor="middle" x="886.5" y="-953.5" font-family="Helvetica,sans-Serif" font-size="10.00">xiiDecalComponentManager</text>
</a>
</g>
</g>
<!-- Node17&#45;&gt;Node18 -->
<g id="edge17_Node000017_Node000018" class="edge">
<title>Node17&#45;&gt;Node18</title>
<g id="a_edge17_Node000017_Node000018"><a xlink:title=" ">
<path fill="none" stroke="#63b8ff" d="M754.74,-956C772.89,-956 791.58,-956 808.95,-956"/>
<polygon fill="#63b8ff" stroke="#63b8ff" points="754.73,-952.5 744.73,-956 754.73,-959.5 754.73,-952.5"/>
</a>
</g>
</g>
<!-- Node20 -->
<g id="Node000020" class="node">
<title>Node20</title>
<g id="a_Node000020"><a xlink:href="../../db/dfa/classxii_fake_rope_component_manager.html" target="_top" xlink:title=" ">
<polygon fill="white" stroke="#bfbfbf" points="973.5,-906.5 799.5,-906.5 799.5,-887.5 973.5,-887.5 973.5,-906.5"/>
<text text-anchor="middle" x="886.5" y="-894.5" font-family="Helvetica,sans-Serif" font-size="10.00">xiiFakeRopeComponentManager</text>
</a>
</g>
</g>
<!-- Node19&#45;&gt;Node20 -->
<g id="edge19_Node000019_Node000020" class="edge">
<title>Node19&#45;&gt;Node20</title>
<g id="a_edge19_Node000019_Node000020"><a xlink:title=" ">
<path fill="none" stroke="#63b8ff" d="M752.28,-897C767.88,-897 783.95,-897 799.29,-897"/>
<polygon fill="#63b8ff" stroke="#63b8ff" points="752.11,-893.5 742.11,-897 752.11,-900.5 752.11,-893.5"/>
</a>
</g>
</g>
<!-- Node22 -->
<g id="Node000022" class="node">
<title>Node22</title>
<g id="a_Node000022"><a xlink:href="../../da/d6d/classxii_gizmo_component_manager.html" target="_top" xlink:title=" ">
<polygon fill="white" stroke="#bfbfbf" points="966,-841.5 807,-841.5 807,-822.5 966,-822.5 966,-841.5"/>
<text text-anchor="middle" x="886.5" y="-829.5" font-family="Helvetica,sans-Serif" font-size="10.00">xiiGizmoComponentManager</text>
</a>
</g>
</g>
<!-- Node21&#45;&gt;Node22 -->
<g id="edge21_Node000021_Node000022" class="edge">
<title>Node21&#45;&gt;Node22</title>
<g id="a_edge21_Node000021_Node000022"><a xlink:title=" ">
<path fill="none" stroke="#63b8ff" d="M730.78,-832C755.1,-832 782.16,-832 806.76,-832"/>
<polygon fill="#63b8ff" stroke="#63b8ff" points="730.54,-828.5 720.54,-832 730.54,-835.5 730.54,-828.5"/>
</a>
</g>
</g>
<!-- Node24 -->
<g id="Node000024" class="node">
<title>Node24</title>
<g id="a_Node000024"><a xlink:href="../../dd/db8/classxii_heightfield_component_manager.html" target="_top" xlink:title=" ">
<polygon fill="white" stroke="#bfbfbf" points="977,-776.5 796,-776.5 796,-757.5 977,-757.5 977,-776.5"/>
<text text-anchor="middle" x="886.5" y="-764.5" font-family="Helvetica,sans-Serif" font-size="10.00">xiiHeightfieldComponentManager</text>
</a>
</g>
</g>
<!-- Node23&#45;&gt;Node24 -->
<g id="edge23_Node000023_Node000024" class="edge">
<title>Node23&#45;&gt;Node24</title>
<g id="a_edge23_Node000023_Node000024"><a xlink:title=" ">
<path fill="none" stroke="#63b8ff" d="M755.04,-767C768.61,-767 782.48,-767 795.87,-767"/>
<polygon fill="#63b8ff" stroke="#63b8ff" points="754.73,-763.5 744.73,-767 754.73,-770.5 754.73,-763.5"/>
</a>
</g>
</g>
<!-- Node26 -->
<g id="Node000026" class="node">
<title>Node26</title>
<g id="a_Node000026"><a xlink:href="../../dc/db1/classxii_instanced_mesh_component_manager.html" target="_top" xlink:title=" ">
<polygon fill="white" stroke="#bfbfbf" points="965.5,-723 807.5,-723 807.5,-693 965.5,-693 965.5,-723"/>
<text text-anchor="start" x="815.5" y="-711" font-family="Helvetica,sans-Serif" font-size="10.00">xiiInstancedMeshComponent</text>
<text text-anchor="middle" x="886.5" y="-700" font-family="Helvetica,sans-Serif" font-size="10.00">Manager</text>
</a>
</g>
</g>
<!-- Node25&#45;&gt;Node26 -->
<g id="edge25_Node000025_Node000026" class="edge">
<title>Node25&#45;&gt;Node26</title>
<g id="a_edge25_Node000025_Node000026"><a xlink:title=" ">
<path fill="none" stroke="#63b8ff" d="M765.59,-708C779.73,-708 793.97,-708 807.46,-708"/>
<polygon fill="#63b8ff" stroke="#63b8ff" points="765.33,-704.5 755.33,-708 765.33,-711.5 765.33,-704.5"/>
</a>
</g>
</g>
<!-- Node28 -->
<g id="Node000028" class="node">
<title>Node28</title>
<g id="a_Node000028"><a xlink:href="../../df/da0/classxii_line_to_component_manager.html" target="_top" xlink:title=" ">
<polygon fill="white" stroke="#bfbfbf" points="965.5,-658.5 807.5,-658.5 807.5,-639.5 965.5,-639.5 965.5,-658.5"/>
<text text-anchor="middle" x="886.5" y="-646.5" font-family="Helvetica,sans-Serif" font-size="10.00">xiiLineToComponentManager</text>
</a>
</g>
</g>
<!-- Node27&#45;&gt;Node28 -->
<g id="edge27_Node000027_Node000028" class="edge">
<title>Node27&#45;&gt;Node28</title>
<g id="a_edge27_Node000027_Node000028"><a xlink:title=" ">
<path fill="none" stroke="#63b8ff" d="M752.22,-649C770.55,-649 789.54,-649 807.23,-649"/>
<polygon fill="#63b8ff" stroke="#63b8ff" points="752.11,-645.5 742.11,-649 752.11,-652.5 752.11,-645.5"/>
</a>
</g>
</g>
<!-- Node30 -->
<g id="Node000030" class="node">
<title>Node30</title>
<g id="a_Node000030"><a xlink:href="../../dc/df7/classxii_occluder_component_manager.html" target="_top" xlink:title=" ">
<polygon fill="white" stroke="#bfbfbf" points="971.5,-599.5 801.5,-599.5 801.5,-580.5 971.5,-580.5 971.5,-599.5"/>
<text text-anchor="middle" x="886.5" y="-587.5" font-family="Helvetica,sans-Serif" font-size="10.00">xiiOccluderComponentManager</text>
</a>
</g>
</g>
<!-- Node29&#45;&gt;Node30 -->
<g id="edge29_Node000029_Node000030" class="edge">
<title>Node29&#45;&gt;Node30</title>
<g id="a_edge29_Node000029_Node000030"><a xlink:title=" ">
<path fill="none" stroke="#63b8ff" d="M752.17,-590C768.45,-590 785.24,-590 801.19,-590"/>
<polygon fill="#63b8ff" stroke="#63b8ff" points="752.11,-586.5 742.11,-590 752.11,-593.5 752.11,-586.5"/>
</a>
</g>
</g>
<!-- Node32 -->
<g id="Node000032" class="node">
<title>Node32</title>
<g id="a_Node000032"><a xlink:href="../../dd/d0e/classxii_path_component_manager.html" target="_top" xlink:title=" ">
<polygon fill="white" stroke="#bfbfbf" points="961,-540.5 812,-540.5 812,-521.5 961,-521.5 961,-540.5"/>
<text text-anchor="middle" x="886.5" y="-528.5" font-family="Helvetica,sans-Serif" font-size="10.00">xiiPathComponentManager</text>
</a>
</g>
</g>
<!-- Node31&#45;&gt;Node32 -->
<g id="edge31_Node000031_Node000032" class="edge">
<title>Node31&#45;&gt;Node32</title>
<g id="a_edge31_Node000031_Node000032"><a xlink:title=" ">
<path fill="none" stroke="#63b8ff" d="M752.13,-531C772.04,-531 792.73,-531 811.7,-531"/>
<polygon fill="#63b8ff" stroke="#63b8ff" points="752.11,-527.5 742.11,-531 752.11,-534.5 752.11,-527.5"/>
</a>
</g>
</g>
<!-- Node34 -->
<g id="Node000034" class="node">
<title>Node34</title>
<g id="a_Node000034"><a xlink:href="../../de/d81/classxii_post_processing_component_manager.html" target="_top" xlink:title=" ">
<polygon fill="white" stroke="#bfbfbf" points="965.5,-487 807.5,-487 807.5,-457 965.5,-457 965.5,-487"/>
<text text-anchor="start" x="815.5" y="-475" font-family="Helvetica,sans-Serif" font-size="10.00">xiiPostProcessingComponent</text>
<text text-anchor="middle" x="886.5" y="-464" font-family="Helvetica,sans-Serif" font-size="10.00">Manager</text>
</a>
</g>
</g>
<!-- Node33&#45;&gt;Node34 -->
<g id="edge33_Node000033_Node000034" class="edge">
<title>Node33&#45;&gt;Node34</title>
<g id="a_edge33_Node000033_Node000034"><a xlink:title=" ">
<path fill="none" stroke="#63b8ff" d="M765.59,-472C779.73,-472 793.97,-472 807.46,-472"/>
<polygon fill="#63b8ff" stroke="#63b8ff" points="765.33,-468.5 755.33,-472 765.33,-475.5 765.33,-468.5"/>
</a>
</g>
</g>
<!-- Node36 -->
<g id="Node000036" class="node">
<title>Node36</title>
<g id="a_Node000036"><a xlink:href="../../db/d09/classxii_prefab_reference_component_manager.html" target="_top" xlink:title=" ">
<polygon fill="white" stroke="#bfbfbf" points="969.5,-428 803.5,-428 803.5,-398 969.5,-398 969.5,-428"/>
<text text-anchor="start" x="811.5" y="-416" font-family="Helvetica,sans-Serif" font-size="10.00">xiiPrefabReferenceComponent</text>
<text text-anchor="middle" x="886.5" y="-405" font-family="Helvetica,sans-Serif" font-size="10.00">Manager</text>
</a>
</g>
</g>
<!-- Node35&#45;&gt;Node36 -->
<g id="edge35_Node000035_Node000036" class="edge">
<title>Node35&#45;&gt;Node36</title>
<g id="a_edge35_Node000035_Node000036"><a xlink:title=" ">
<path fill="none" stroke="#63b8ff" d="M755.47,-413C771.41,-413 787.76,-413 803.25,-413"/>
<polygon fill="#63b8ff" stroke="#63b8ff" points="755.06,-409.5 745.06,-413 755.06,-416.5 755.06,-409.5"/>
</a>
</g>
</g>
<!-- Node38 -->
<g id="Node000038" class="node">
<title>Node38</title>
<g id="a_Node000038"><a xlink:href="../../d2/de4/classxii_raycast_component_manager.html" target="_top" xlink:title=" ">
<polygon fill="white" stroke="#bfbfbf" points="970,-363.5 803,-363.5 803,-344.5 970,-344.5 970,-363.5"/>
<text text-anchor="middle" x="886.5" y="-351.5" font-family="Helvetica,sans-Serif" font-size="10.00">xiiRaycastComponentManager</text>
</a>
</g>
</g>
<!-- Node37&#45;&gt;Node38 -->
<g id="edge37_Node000037_Node000038" class="edge">
<title>Node37&#45;&gt;Node38</title>
<g id="a_edge37_Node000037_Node000038"><a xlink:title=" ">
<path fill="none" stroke="#63b8ff" d="M755.08,-354C770.94,-354 787.21,-354 802.65,-354"/>
<polygon fill="#63b8ff" stroke="#63b8ff" points="754.73,-350.5 744.73,-354 754.73,-357.5 754.73,-350.5"/>
</a>
</g>
</g>
<!-- Node40 -->
<g id="Node000040" class="node">
<title>Node40</title>
<g id="a_Node000040"><a xlink:href="../../d1/d87/classxii_skeleton_pose_component_manager.html" target="_top" xlink:title=" ">
<polygon fill="white" stroke="#bfbfbf" points="961.5,-310 811.5,-310 811.5,-280 961.5,-280 961.5,-310"/>
<text text-anchor="start" x="819.5" y="-298" font-family="Helvetica,sans-Serif" font-size="10.00">xiiSkeletonPoseComponent</text>
<text text-anchor="middle" x="886.5" y="-287" font-family="Helvetica,sans-Serif" font-size="10.00">Manager</text>
</a>
</g>
</g>
<!-- Node39&#45;&gt;Node40 -->
<g id="edge39_Node000039_Node000040" class="edge">
<title>Node39&#45;&gt;Node40</title>
<g id="a_edge39_Node000039_Node000040"><a xlink:title=" ">
<path fill="none" stroke="#63b8ff" d="M761.43,-295C778.25,-295 795.34,-295 811.24,-295"/>
<polygon fill="#63b8ff" stroke="#63b8ff" points="761,-291.5 751,-295 761,-298.5 761,-291.5"/>
</a>
</g>
</g>
<!-- Node42 -->
<g id="Node000042" class="node">
<title>Node42</title>
<g id="a_Node000042"><a xlink:href="../../d3/d9a/classxii_sphere_reflection_probe_component_manager.html" target="_top" xlink:title=" ">
<polygon fill="white" stroke="#bfbfbf" points="956,-245 817,-245 817,-215 956,-215 956,-245"/>
<text text-anchor="start" x="825" y="-233" font-family="Helvetica,sans-Serif" font-size="10.00">xiiSphereReflectionProbe</text>
<text text-anchor="middle" x="886.5" y="-222" font-family="Helvetica,sans-Serif" font-size="10.00">ComponentManager</text>
</a>
</g>
</g>
<!-- Node41&#45;&gt;Node42 -->
<g id="edge41_Node000041_Node000042" class="edge">
<title>Node41&#45;&gt;Node42</title>
<g id="a_edge41_Node000041_Node000042"><a xlink:title=" ">
<path fill="none" stroke="#63b8ff" d="M756.88,-230C777.09,-230 797.88,-230 816.69,-230"/>
<polygon fill="#63b8ff" stroke="#63b8ff" points="756.7,-226.5 746.7,-230 756.7,-233.5 756.7,-226.5"/>
</a>
</g>
</g>
<!-- Node44 -->
<g id="Node000044" class="node">
<title>Node44</title>
<g id="a_Node000044"><a xlink:href="../../dc/d61/classxii_state_machine_component_manager.html" target="_top" xlink:title=" ">
<polygon fill="white" stroke="#bfbfbf" points="962.5,-180 810.5,-180 810.5,-150 962.5,-150 962.5,-180"/>
<text text-anchor="start" x="818.5" y="-168" font-family="Helvetica,sans-Serif" font-size="10.00">xiiStateMachineComponent</text>
<text text-anchor="middle" x="886.5" y="-157" font-family="Helvetica,sans-Serif" font-size="10.00">Manager</text>
</a>
</g>
</g>
<!-- Node43&#45;&gt;Node44 -->
<g id="edge43_Node000043_Node000044" class="edge">
<title>Node43&#45;&gt;Node44</title>
<g id="a_edge43_Node000043_Node000044"><a xlink:title=" ">
<path fill="none" stroke="#63b8ff" d="M762.38,-165C778.58,-165 795,-165 810.34,-165"/>
<polygon fill="#63b8ff" stroke="#63b8ff" points="762.33,-161.5 752.33,-165 762.33,-168.5 762.33,-161.5"/>
</a>
</g>
</g>
<!-- Node46 -->
<g id="Node000046" class="node">
<title>Node46</title>
<g id="a_Node000046"><a xlink:href="../../df/dd4/classxii_baked_probes_component_manager.html" target="_top" xlink:title=" ">
<polygon fill="white" stroke="#bfbfbf" points="982,-120.5 791,-120.5 791,-101.5 982,-101.5 982,-120.5"/>
<text text-anchor="middle" x="886.5" y="-108.5" font-family="Helvetica,sans-Serif" font-size="10.00">xiiBakedProbesComponentManager</text>
</a>
</g>
</g>
<!-- Node45&#45;&gt;Node46 -->
<g id="edge45_Node000045_Node000046" class="edge">
<title>Node45&#45;&gt;Node46</title>
<g id="a_edge45_Node000045_Node000046"><a xlink:title=" ">
<path fill="none" stroke="#63b8ff" d="M764.54,-111C773.26,-111 782.04,-111 790.65,-111"/>
<polygon fill="#63b8ff" stroke="#63b8ff" points="764.33,-107.5 754.33,-111 764.33,-114.5 764.33,-107.5"/>
</a>
</g>
</g>
</g>
</svg>
