<?xml version="1.0" encoding="UTF-8" standalone="no"?>
<!DOCTYPE svg PUBLIC "-//W3C//DTD SVG 1.1//EN"
 "http://www.w3.org/Graphics/SVG/1.1/DTD/svg11.dtd">
<!-- Generated by graphviz version 2.43.0 (0)
 -->
<!-- Title: xiiFunctionProperty&lt; R(CLASS::*)(Args...) const &gt; Pages: 1 -->
<svg width="160pt" height="229pt"
 viewBox="0.00 0.00 160.00 229.00" xmlns="http://www.w3.org/2000/svg" xmlns:xlink="http://www.w3.org/1999/xlink">
<g id="graph0" class="graph" transform="scale(1 1) rotate(0) translate(4 225)">
<title>xiiFunctionProperty&lt; R(CLASS::*)(Args...) const &gt;</title>
<polygon fill="white" stroke="transparent" points="-4,4 -4,-225 156,-225 156,4 -4,4"/>
<!-- Node1 -->
<g id="node1" class="node">
<title>Node1</title>
<g id="a_node1"><a xlink:title=" ">
<polygon fill="#bfbfbf" stroke="black" points="14.5,-0.5 14.5,-41.5 137.5,-41.5 137.5,-0.5 14.5,-0.5"/>
<text text-anchor="start" x="22.5" y="-29.5" font-family="Helvetica,sans-Serif" font-size="10.00">xiiFunctionProperty</text>
<text text-anchor="start" x="22.5" y="-18.5" font-family="Helvetica,sans-Serif" font-size="10.00">&lt; R(CLASS::*)(Args...)</text>
<text text-anchor="middle" x="76" y="-7.5" font-family="Helvetica,sans-Serif" font-size="10.00"> const &gt;</text>
</a>
</g>
</g>
<!-- Node2 -->
<g id="node2" class="node">
<title>Node2</title>
<g id="a_node2"><a xlink:href="../../d9/dc8/classxii_typed_function_property.htm" target="_top" xlink:title=" ">
<polygon fill="white" stroke="black" points="6,-78.5 6,-108.5 146,-108.5 146,-78.5 6,-78.5"/>
<text text-anchor="start" x="14" y="-96.5" font-family="Helvetica,sans-Serif" font-size="10.00">xiiTypedFunctionProperty</text>
<text text-anchor="middle" x="76" y="-85.5" font-family="Helvetica,sans-Serif" font-size="10.00">&lt; R, Args... &gt;</text>
</a>
</g>
</g>
<!-- Node2&#45;&gt;Node1 -->
<g id="edge1" class="edge">
<title>Node2&#45;&gt;Node1</title>
<path fill="none" stroke="midnightblue" d="M76,-67.98C76,-59.35 76,-49.76 76,-41.59"/>
<polygon fill="midnightblue" stroke="midnightblue" points="72.5,-68.23 76,-78.23 79.5,-68.23 72.5,-68.23"/>
</g>
<!-- Node3 -->
<g id="node3" class="node">
<title>Node3</title>
<g id="a_node3"><a xlink:href="../../de/d27/classxii_abstract_function_property.htm" target="_top" xlink:title="The base class for a property that represents a function.">
<polygon fill="white" stroke="black" points="0,-145.5 0,-164.5 152,-164.5 152,-145.5 0,-145.5"/>
<text text-anchor="middle" x="76" y="-152.5" font-family="Helvetica,sans-Serif" font-size="10.00">xiiAbstractFunctionProperty</text>
</a>
</g>
</g>
<!-- Node3&#45;&gt;Node2 -->
<g id="edge2" class="edge">
<title>Node3&#45;&gt;Node2</title>
<path fill="none" stroke="midnightblue" d="M76,-135.23C76,-126.59 76,-116.5 76,-108.52"/>
<polygon fill="midnightblue" stroke="midnightblue" points="72.5,-135.48 76,-145.48 79.5,-135.48 72.5,-135.48"/>
</g>
<!-- Node4 -->
<g id="node4" class="node">
<title>Node4</title>
<g id="a_node4"><a xlink:href="../../da/d25/classxii_abstract_property.htm" target="_top" xlink:title="This is the base interface for all properties in the reflection system. It provides enough informatio...">
<polygon fill="white" stroke="black" points="21,-201.5 21,-220.5 131,-220.5 131,-201.5 21,-201.5"/>
<text text-anchor="middle" x="76" y="-208.5" font-family="Helvetica,sans-Serif" font-size="10.00">xiiAbstractProperty</text>
</a>
</g>
</g>
<!-- Node4&#45;&gt;Node3 -->
<g id="edge3" class="edge">
<title>Node4&#45;&gt;Node3</title>
<path fill="none" stroke="midnightblue" d="M76,-190.8C76,-181.91 76,-171.78 76,-164.75"/>
<polygon fill="midnightblue" stroke="midnightblue" points="72.5,-191.08 76,-201.08 79.5,-191.08 72.5,-191.08"/>
</g>
</g>
</svg>
