<?xml version="1.0" encoding="UTF-8" standalone="no"?>
<!DOCTYPE svg PUBLIC "-//W3C//DTD SVG 1.1//EN"
 "http://www.w3.org/Graphics/SVG/1.1/DTD/svg11.dtd">
<!-- Generated by graphviz version 2.43.0 (0)
 -->
<!-- Title: xiiQtPin Pages: 1 -->
<svg width="399pt" height="137pt"
 viewBox="0.00 0.00 398.50 137.00" xmlns="http://www.w3.org/2000/svg" xmlns:xlink="http://www.w3.org/1999/xlink">

<svg id="main" version="1.1" xmlns="http://www.w3.org/2000/svg" xmlns:xlink="http://www.w3.org/1999/xlink" xml:space="preserve" onload="init(evt)">
<style type="text/css"><![CDATA[
.node, .edge {opacity: 0.7;}
.node.selected, .edge.selected {opacity: 1;}
.edge:hover path { stroke: red; }
.edge:hover polygon { stroke: red; fill: red; }
]]></style>
<script type="application/ecmascript" xlink:href="../../svg.min.js"/>
<svg id="graph" class="graph">
<g id="graph0" class="graph" transform="scale(1 1) rotate(0) translate(4 133)">
<title>xiiQtPin</title>
<!-- Node1 -->
<g id="Node000001" class="node">
<title>Node1</title>
<g id="a_Node000001"><a xlink:title=" ">
<polygon fill="#999999" stroke="#666666" points="224.5,-74 169.5,-74 169.5,-55 224.5,-55 224.5,-74"/>
<text text-anchor="middle" x="197" y="-62" font-family="Helvetica,sans-Serif" font-size="10.00">xiiQtPin</text>
</a>
</g>
</g>
<!-- Node3 -->
<g id="Node000003" class="node">
<title>Node3</title>
<g id="a_Node000003"><a xlink:href="../../db/d56/classxii_qt_state_machine_pin.html" target="_top" xlink:title=" ">
<polygon fill="white" stroke="#bfbfbf" points="122,-19 0,-19 0,0 122,0 122,-19"/>
<text text-anchor="middle" x="61" y="-7" font-family="Helvetica,sans-Serif" font-size="10.00">xiiQtStateMachinePin</text>
</a>
</g>
</g>
<!-- Node1&#45;&gt;Node3 -->
<g id="edge2_Node000001_Node000003" class="edge">
<title>Node1&#45;&gt;Node3</title>
<g id="a_edge2_Node000001_Node000003"><a xlink:title=" ">
<path fill="none" stroke="#63b8ff" d="M165.67,-51.29C140.46,-41.47 105.67,-27.91 83.25,-19.17"/>
<polygon fill="#63b8ff" stroke="#63b8ff" points="164.56,-54.61 175.15,-54.98 167.1,-48.09 164.56,-54.61"/>
</a>
</g>
</g>
<!-- Node4 -->
<g id="Node000004" class="node">
<title>Node4</title>
<g id="a_Node000004"><a xlink:href="../../d2/d52/classxii_qt_visual_script_pin.html" target="_top" xlink:title=" ">
<polygon fill="white" stroke="#bfbfbf" points="253.5,-19 140.5,-19 140.5,0 253.5,0 253.5,-19"/>
<text text-anchor="middle" x="197" y="-7" font-family="Helvetica,sans-Serif" font-size="10.00">xiiQtVisualScriptPin</text>
</a>
</g>
</g>
<!-- Node1&#45;&gt;Node4 -->
<g id="edge3_Node000001_Node000004" class="edge">
<title>Node1&#45;&gt;Node4</title>
<g id="a_edge3_Node000001_Node000004"><a xlink:title=" ">
<path fill="none" stroke="#63b8ff" d="M197,-44.66C197,-35.93 197,-25.99 197,-19.09"/>
<polygon fill="#63b8ff" stroke="#63b8ff" points="193.5,-44.75 197,-54.75 200.5,-44.75 193.5,-44.75"/>
</a>
</g>
</g>
<!-- Node5 -->
<g id="Node000005" class="node">
<title>Node5</title>
<g id="a_Node000005"><a xlink:href="../../d8/dbc/classxii_qt_visual_shader_pin.html" target="_top" xlink:title=" ">
<polygon fill="white" stroke="#bfbfbf" points="390.5,-19 271.5,-19 271.5,0 390.5,0 390.5,-19"/>
<text text-anchor="middle" x="331" y="-7" font-family="Helvetica,sans-Serif" font-size="10.00">xiiQtVisualShaderPin</text>
</a>
</g>
</g>
<!-- Node1&#45;&gt;Node5 -->
<g id="edge4_Node000001_Node000005" class="edge">
<title>Node1&#45;&gt;Node5</title>
<g id="a_edge4_Node000001_Node000005"><a xlink:title=" ">
<path fill="none" stroke="#63b8ff" d="M227.87,-51.29C252.7,-41.47 286.99,-27.91 309.08,-19.17"/>
<polygon fill="#63b8ff" stroke="#63b8ff" points="226.54,-48.05 218.53,-54.98 229.12,-54.56 226.54,-48.05"/>
</a>
</g>
</g>
<!-- Node2 -->
<g id="Node000002" class="node">
<title>Node2</title>
<g id="a_Node000002"><a xlink:title=" ">
<polygon fill="white" stroke="#bfbfbf" points="252,-129 142,-129 142,-110 252,-110 252,-129"/>
<text text-anchor="middle" x="197" y="-117" font-family="Helvetica,sans-Serif" font-size="10.00">QGraphicsPathItem</text>
</a>
</g>
</g>
<!-- Node2&#45;&gt;Node1 -->
<g id="edge1_Node000001_Node000002" class="edge">
<title>Node2&#45;&gt;Node1</title>
<g id="a_edge1_Node000001_Node000002"><a xlink:title=" ">
<path fill="none" stroke="#63b8ff" d="M197,-99.66C197,-90.93 197,-80.99 197,-74.09"/>
<polygon fill="#63b8ff" stroke="#63b8ff" points="193.5,-99.75 197,-109.75 200.5,-99.75 193.5,-99.75"/>
</a>
</g>
</g>
</g>
</svg>
</svg>

<style type='text/css'>
<![CDATA[
[data-mouse-over-selected='false'] { opacity: 0.7; }
[data-mouse-over-selected='true']  { opacity: 1.0; }
]]>
</style>
<script type="application/ecmascript"><![CDATA[
document.addEventListener('DOMContentLoaded', (event) => {
  highlightEdges();
  highlightAdjacentNodes();
});
]]></script>
</svg>
