<?xml version="1.0" encoding="UTF-8" standalone="no"?>
<!DOCTYPE svg PUBLIC "-//W3C//DTD SVG 1.1//EN"
 "http://www.w3.org/Graphics/SVG/1.1/DTD/svg11.dtd">
<!-- Generated by graphviz version 2.43.0 (0)
 -->
<!-- Title: xiiQtNode Pages: 1 -->
<svg width="400pt" height="142pt"
 viewBox="0.00 0.00 400.00 142.00" xmlns="http://www.w3.org/2000/svg" xmlns:xlink="http://www.w3.org/1999/xlink">
<g id="graph0" class="graph" transform="scale(1 1) rotate(0) translate(4 138)">
<title>xiiQtNode</title>
<polygon fill="white" stroke="transparent" points="-4,4 -4,-138 396,-138 396,4 -4,4"/>
<!-- Node1 -->
<g id="node1" class="node">
<title>Node1</title>
<g id="a_node1"><a xlink:title=" ">
<polygon fill="#bfbfbf" stroke="black" points="146,-57.5 146,-76.5 211,-76.5 211,-57.5 146,-57.5"/>
<text text-anchor="middle" x="178.5" y="-64.5" font-family="Helvetica,sans-Serif" font-size="10.00">xiiQtNode</text>
</a>
</g>
</g>
<!-- Node3 -->
<g id="node3" class="node">
<title>Node3</title>
<g id="a_node3"><a xlink:href="../../df/dc2/classxii_qt_animation_graph_node.htm" target="_top" xlink:title=" ">
<polygon fill="white" stroke="black" points="247,-114.5 247,-133.5 392,-133.5 392,-114.5 247,-114.5"/>
<text text-anchor="middle" x="319.5" y="-121.5" font-family="Helvetica,sans-Serif" font-size="10.00">xiiQtAnimationGraphNode</text>
</a>
</g>
</g>
<!-- Node1&#45;&gt;Node3 -->
<g id="edge2" class="edge">
<title>Node1&#45;&gt;Node3</title>
<path fill="none" stroke="midnightblue" d="M202.53,-81.89C215.25,-89.62 231.56,-98.72 247,-105 256.04,-108.68 266.02,-111.85 275.57,-114.48"/>
<polygon fill="midnightblue" stroke="midnightblue" points="204.31,-78.88 193.97,-76.57 200.62,-84.82 204.31,-78.88"/>
</g>
<!-- Node4 -->
<g id="node4" class="node">
<title>Node4</title>
<g id="a_node4"><a xlink:href="../../dd/d84/classxii_qt_state_machine_node.htm" target="_top" xlink:title=" ">
<polygon fill="white" stroke="black" points="253.5,-76.5 253.5,-95.5 385.5,-95.5 385.5,-76.5 253.5,-76.5"/>
<text text-anchor="middle" x="319.5" y="-83.5" font-family="Helvetica,sans-Serif" font-size="10.00">xiiQtStateMachineNode</text>
</a>
</g>
</g>
<!-- Node1&#45;&gt;Node4 -->
<g id="edge3" class="edge">
<title>Node1&#45;&gt;Node4</title>
<path fill="none" stroke="midnightblue" d="M221.2,-72.7C231.32,-74.08 242.38,-75.59 253.29,-77.09"/>
<polygon fill="midnightblue" stroke="midnightblue" points="221.42,-69.2 211.04,-71.31 220.48,-76.13 221.42,-69.2"/>
</g>
<!-- Node5 -->
<g id="node5" class="node">
<title>Node5</title>
<g id="a_node5"><a xlink:href="../../d0/d01/classxii_qt_visual_script_node.htm" target="_top" xlink:title=" ">
<polygon fill="white" stroke="black" points="258,-38.5 258,-57.5 381,-57.5 381,-38.5 258,-38.5"/>
<text text-anchor="middle" x="319.5" y="-45.5" font-family="Helvetica,sans-Serif" font-size="10.00">xiiQtVisualScriptNode</text>
</a>
</g>
</g>
<!-- Node1&#45;&gt;Node5 -->
<g id="edge4" class="edge">
<title>Node1&#45;&gt;Node5</title>
<path fill="none" stroke="midnightblue" d="M221.22,-61.3C232.72,-59.73 245.44,-57.99 257.78,-56.3"/>
<polygon fill="midnightblue" stroke="midnightblue" points="220.48,-57.87 211.04,-62.69 221.42,-64.8 220.48,-57.87"/>
</g>
<!-- Node6 -->
<g id="node6" class="node">
<title>Node6</title>
<g id="a_node6"><a xlink:href="../../dc/d68/classxii_qt_visual_shader_node.htm" target="_top" xlink:title=" ">
<polygon fill="white" stroke="black" points="255,-0.5 255,-19.5 384,-19.5 384,-0.5 255,-0.5"/>
<text text-anchor="middle" x="319.5" y="-7.5" font-family="Helvetica,sans-Serif" font-size="10.00">xiiQtVisualShaderNode</text>
</a>
</g>
</g>
<!-- Node1&#45;&gt;Node6 -->
<g id="edge5" class="edge">
<title>Node1&#45;&gt;Node6</title>
<path fill="none" stroke="midnightblue" d="M202.53,-52.11C215.25,-44.38 231.56,-35.28 247,-29 256.04,-25.32 266.02,-22.15 275.57,-19.52"/>
<polygon fill="midnightblue" stroke="midnightblue" points="200.62,-49.18 193.97,-57.43 204.31,-55.12 200.62,-49.18"/>
</g>
<!-- Node2 -->
<g id="node2" class="node">
<title>Node2</title>
<g id="a_node2"><a xlink:title=" ">
<polygon fill="white" stroke="#bfbfbf" points="0,-57.5 0,-76.5 110,-76.5 110,-57.5 0,-57.5"/>
<text text-anchor="middle" x="55" y="-64.5" font-family="Helvetica,sans-Serif" font-size="10.00">QGraphicsPathItem</text>
</a>
</g>
</g>
<!-- Node2&#45;&gt;Node1 -->
<g id="edge1" class="edge">
<title>Node2&#45;&gt;Node1</title>
<path fill="none" stroke="midnightblue" d="M120.63,-67C129.37,-67 138.01,-67 145.82,-67"/>
<polygon fill="midnightblue" stroke="midnightblue" points="120.35,-63.5 110.35,-67 120.35,-70.5 120.35,-63.5"/>
</g>
</g>
</svg>
