<?xml version="1.0" encoding="UTF-8" standalone="no"?>
<!DOCTYPE svg PUBLIC "-//W3C//DTD SVG 1.1//EN"
 "http://www.w3.org/Graphics/SVG/1.1/DTD/svg11.dtd">
<!-- Generated by graphviz version 2.43.0 (0)
 -->
<!-- Title: xiiInputDeviceController Pages: 1 -->
<svg width="180pt" height="313pt"
 viewBox="0.00 0.00 180.00 313.00" xmlns="http://www.w3.org/2000/svg" xmlns:xlink="http://www.w3.org/1999/xlink">
<g id="graph0" class="graph" transform="scale(1 1) rotate(0) translate(4 309)">
<title>xiiInputDeviceController</title>
<!-- Node1 -->
<g id="Node000001" class="node">
<title>Node1</title>
<g id="a_Node000001"><a xlink:title="This class is the base class for all controller type input devices.">
<polygon fill="#999999" stroke="#666666" points="153.5,-74 18.5,-74 18.5,-55 153.5,-55 153.5,-74"/>
<text text-anchor="middle" x="86" y="-62" font-family="Helvetica,sans-Serif" font-size="10.00">xiiInputDeviceController</text>
</a>
</g>
</g>
<!-- Node6 -->
<g id="Node000006" class="node">
<title>Node6</title>
<g id="a_Node000006"><a xlink:href="../../d1/d10/classxii_input_device_x_box360.htm" target="_top" xlink:title="An implementation of xiiInputDeviceController that handles XBox 360 controllers.">
<polygon fill="white" stroke="#666666" points="151.5,-19 20.5,-19 20.5,0 151.5,0 151.5,-19"/>
<text text-anchor="middle" x="86" y="-7" font-family="Helvetica,sans-Serif" font-size="10.00">xiiInputDeviceXBox360</text>
</a>
</g>
</g>
<!-- Node1&#45;&gt;Node6 -->
<g id="edge5_Node000001_Node000006" class="edge">
<title>Node1&#45;&gt;Node6</title>
<g id="a_edge5_Node000001_Node000006"><a xlink:title=" ">
<path fill="none" stroke="#63b8ff" d="M86,-44.66C86,-35.93 86,-25.99 86,-19.09"/>
<polygon fill="#63b8ff" stroke="#63b8ff" points="82.5,-44.75 86,-54.75 89.5,-44.75 82.5,-44.75"/>
</a>
</g>
</g>
<!-- Node2 -->
<g id="Node000002" class="node">
<title>Node2</title>
<g id="a_Node000002"><a xlink:href="../../d7/db1/classxii_input_device.htm" target="_top" xlink:title="The base class for all input device types.">
<polygon fill="white" stroke="#666666" points="129.5,-129 42.5,-129 42.5,-110 129.5,-110 129.5,-129"/>
<text text-anchor="middle" x="86" y="-117" font-family="Helvetica,sans-Serif" font-size="10.00">xiiInputDevice</text>
</a>
</g>
</g>
<!-- Node2&#45;&gt;Node1 -->
<g id="edge1_Node000001_Node000002" class="edge">
<title>Node2&#45;&gt;Node1</title>
<g id="a_edge1_Node000001_Node000002"><a xlink:title=" ">
<path fill="none" stroke="#63b8ff" d="M86,-99.66C86,-90.93 86,-80.99 86,-74.09"/>
<polygon fill="#63b8ff" stroke="#63b8ff" points="82.5,-99.75 86,-109.75 89.5,-99.75 82.5,-99.75"/>
</a>
</g>
</g>
<!-- Node3 -->
<g id="Node000003" class="node">
<title>Node3</title>
<g id="a_Node000003"><a xlink:href="../../dc/d54/classxii_enumerable.htm" target="_top" xlink:title=" ">
<polygon fill="white" stroke="#666666" points="172,-195 0,-195 0,-165 172,-165 172,-195"/>
<text text-anchor="start" x="8" y="-183" font-family="Helvetica,sans-Serif" font-size="10.00">xiiEnumerable&lt; xiiInputDevice,</text>
<text text-anchor="middle" x="86" y="-172" font-family="Helvetica,sans-Serif" font-size="10.00"> xiiReflectedClass &gt;</text>
</a>
</g>
</g>
<!-- Node3&#45;&gt;Node2 -->
<g id="edge2_Node000002_Node000003" class="edge">
<title>Node3&#45;&gt;Node2</title>
<g id="a_edge2_Node000002_Node000003"><a xlink:title=" ">
<path fill="none" stroke="#63b8ff" d="M86,-154.75C86,-145.72 86,-136.03 86,-129.27"/>
<polygon fill="#63b8ff" stroke="#63b8ff" points="82.5,-154.84 86,-164.84 89.5,-154.84 82.5,-154.84"/>
</a>
</g>
</g>
<!-- Node4 -->
<g id="Node000004" class="node">
<title>Node4</title>
<g id="a_Node000004"><a xlink:href="../../dc/d71/classxii_reflected_class.htm" target="_top" xlink:title="All classes that should be dynamically reflectable, need to be derived from this base class.">
<polygon fill="white" stroke="#666666" points="136.5,-250 35.5,-250 35.5,-231 136.5,-231 136.5,-250"/>
<text text-anchor="middle" x="86" y="-238" font-family="Helvetica,sans-Serif" font-size="10.00">xiiReflectedClass</text>
</a>
</g>
</g>
<!-- Node4&#45;&gt;Node3 -->
<g id="edge3_Node000003_Node000004" class="edge">
<title>Node4&#45;&gt;Node3</title>
<g id="a_edge3_Node000003_Node000004"><a xlink:title=" ">
<path fill="none" stroke="#63b8ff" d="M86,-220.65C86,-212.36 86,-202.78 86,-195.11"/>
<polygon fill="#63b8ff" stroke="#63b8ff" points="82.5,-220.87 86,-230.87 89.5,-220.87 82.5,-220.87"/>
</a>
</g>
</g>
<!-- Node5 -->
<g id="Node000005" class="node">
<title>Node5</title>
<g id="a_Node000005"><a xlink:href="../../d2/d38/classxii_no_base.htm" target="_top" xlink:title="Dummy type to pass to templates and macros that expect a base type for a class that has no base.">
<polygon fill="white" stroke="#666666" points="119,-305 53,-305 53,-286 119,-286 119,-305"/>
<text text-anchor="middle" x="86" y="-293" font-family="Helvetica,sans-Serif" font-size="10.00">xiiNoBase</text>
</a>
</g>
</g>
<!-- Node5&#45;&gt;Node4 -->
<g id="edge4_Node000004_Node000005" class="edge">
<title>Node5&#45;&gt;Node4</title>
<g id="a_edge4_Node000004_Node000005"><a xlink:title=" ">
<path fill="none" stroke="#63b8ff" d="M86,-275.66C86,-266.93 86,-256.99 86,-250.09"/>
<polygon fill="#63b8ff" stroke="#63b8ff" points="82.5,-275.75 86,-285.75 89.5,-275.75 82.5,-275.75"/>
</a>
</g>
</g>
</g>
</svg>
