<?xml version="1.0" encoding="UTF-8" standalone="no"?>
<!DOCTYPE svg PUBLIC "-//W3C//DTD SVG 1.1//EN"
 "http://www.w3.org/Graphics/SVG/1.1/DTD/svg11.dtd">
<!-- Generated by graphviz version 2.43.0 (0)
 -->
<!-- Title: xiiHybridArray&lt; T, Size, AllocatorWrapper &gt; Pages: 1 -->
<svg width="172pt" height="229pt"
 viewBox="0.00 0.00 172.00 229.00" xmlns="http://www.w3.org/2000/svg" xmlns:xlink="http://www.w3.org/1999/xlink">
<g id="graph0" class="graph" transform="scale(1 1) rotate(0) translate(4 225)">
<title>xiiHybridArray&lt; T, Size, AllocatorWrapper &gt;</title>
<polygon fill="white" stroke="transparent" points="-4,4 -4,-225 168,-225 168,4 -4,4"/>
<!-- Node1 -->
<g id="node1" class="node">
<title>Node1</title>
<g id="a_node1"><a xlink:title="A hybrid array uses in&#45;place storage to handle the first few elements without any allocation....">
<polygon fill="#bfbfbf" stroke="black" points="11,-0.5 11,-30.5 153,-30.5 153,-0.5 11,-0.5"/>
<text text-anchor="start" x="19" y="-18.5" font-family="Helvetica,sans-Serif" font-size="10.00">xiiHybridArray&lt; T,</text>
<text text-anchor="middle" x="82" y="-7.5" font-family="Helvetica,sans-Serif" font-size="10.00"> Size, AllocatorWrapper &gt;</text>
</a>
</g>
</g>
<!-- Node2 -->
<g id="node2" class="node">
<title>Node2</title>
<g id="a_node2"><a xlink:href="../../dc/da4/classxii_dynamic_array.htm" target="_top" xlink:title=" ">
<polygon fill="white" stroke="black" points="0,-67.5 0,-97.5 164,-97.5 164,-67.5 0,-67.5"/>
<text text-anchor="start" x="8" y="-85.5" font-family="Helvetica,sans-Serif" font-size="10.00">xiiDynamicArray&lt; T,</text>
<text text-anchor="middle" x="82" y="-74.5" font-family="Helvetica,sans-Serif" font-size="10.00"> xiiDefaultAllocatorWrapper &gt;</text>
</a>
</g>
</g>
<!-- Node2&#45;&gt;Node1 -->
<g id="edge1" class="edge">
<title>Node2&#45;&gt;Node1</title>
<path fill="none" stroke="midnightblue" d="M82,-57.11C82,-48.15 82,-38.32 82,-30.58"/>
<polygon fill="midnightblue" stroke="midnightblue" points="78.5,-57.4 82,-67.4 85.5,-57.4 78.5,-57.4"/>
</g>
<!-- Node3 -->
<g id="node3" class="node">
<title>Node3</title>
<g id="a_node3"><a xlink:href="../../d2/dea/classxii_dynamic_array_base.htm" target="_top" xlink:title="Implementation of a dynamically growing array.">
<polygon fill="white" stroke="black" points="6.5,-134.5 6.5,-153.5 157.5,-153.5 157.5,-134.5 6.5,-134.5"/>
<text text-anchor="middle" x="82" y="-141.5" font-family="Helvetica,sans-Serif" font-size="10.00">xiiDynamicArrayBase&lt; T &gt;</text>
</a>
</g>
</g>
<!-- Node3&#45;&gt;Node2 -->
<g id="edge2" class="edge">
<title>Node3&#45;&gt;Node2</title>
<path fill="none" stroke="midnightblue" d="M82,-124.23C82,-115.59 82,-105.5 82,-97.52"/>
<polygon fill="midnightblue" stroke="midnightblue" points="78.5,-124.48 82,-134.48 85.5,-124.48 78.5,-124.48"/>
</g>
<!-- Node4 -->
<g id="node4" class="node">
<title>Node4</title>
<g id="a_node4"><a xlink:href="../../da/d4c/classxii_array_base.htm" target="_top" xlink:title=" ">
<polygon fill="white" stroke="black" points="3,-190.5 3,-220.5 161,-220.5 161,-190.5 3,-190.5"/>
<text text-anchor="start" x="11" y="-208.5" font-family="Helvetica,sans-Serif" font-size="10.00">xiiArrayBase&lt; T, xiiDynamic</text>
<text text-anchor="middle" x="82" y="-197.5" font-family="Helvetica,sans-Serif" font-size="10.00">ArrayBase&lt; T &gt; &gt;</text>
</a>
</g>
</g>
<!-- Node4&#45;&gt;Node3 -->
<g id="edge3" class="edge">
<title>Node4&#45;&gt;Node3</title>
<path fill="none" stroke="midnightblue" d="M82,-180.29C82,-170.86 82,-160.65 82,-153.66"/>
<polygon fill="midnightblue" stroke="midnightblue" points="78.5,-180.4 82,-190.4 85.5,-180.4 78.5,-180.4"/>
</g>
</g>
</svg>
