<?xml version="1.0" encoding="UTF-8" standalone="no"?>
<!DOCTYPE svg PUBLIC "-//W3C//DTD SVG 1.1//EN"
 "http://www.w3.org/Graphics/SVG/1.1/DTD/svg11.dtd">
<!-- Generated by graphviz version 2.43.0 (0)
 -->
<!-- Title: xiiGALResourceView Pages: 1 -->
<svg width="992pt" height="286pt"
 viewBox="0.00 0.00 992.00 286.00" xmlns="http://www.w3.org/2000/svg" xmlns:xlink="http://www.w3.org/1999/xlink">
<g id="graph0" class="graph" transform="scale(1 1) rotate(0) translate(4 282)">
<title>xiiGALResourceView</title>
<!-- Node1 -->
<g id="Node000001" class="node">
<title>Node1</title>
<g id="a_Node000001"><a xlink:title="Base class for all GAL resource views (texture and buffer views).">
<polygon fill="#999999" stroke="#666666" points="665,-148 548,-148 548,-129 665,-129 665,-148"/>
<text text-anchor="middle" x="606.5" y="-136" font-family="Helvetica,sans-Serif" font-size="10.00">xiiGALResourceView</text>
</a>
</g>
</g>
<!-- Node8 -->
<g id="Node000008" class="node">
<title>Node8</title>
<g id="a_Node000008"><a xlink:href="../../d8/dcf/classxii_g_a_l_buffer_view.htm" target="_top" xlink:title="Interface that defines methods to manipulate a buffer view object.">
<polygon fill="white" stroke="#666666" points="805,-204 704,-204 704,-185 805,-185 805,-204"/>
<text text-anchor="middle" x="754.5" y="-192" font-family="Helvetica,sans-Serif" font-size="10.00">xiiGALBufferView</text>
</a>
</g>
</g>
<!-- Node1&#45;&gt;Node8 -->
<g id="edge7_Node000001_Node000008" class="edge">
<title>Node1&#45;&gt;Node8</title>
<g id="a_edge7_Node000001_Node000008"><a xlink:title=" ">
<path fill="none" stroke="#63b8ff" d="M641.94,-151.71C668.6,-161.94 704.88,-175.85 728.73,-185"/>
<polygon fill="#63b8ff" stroke="#63b8ff" points="643.19,-148.44 632.6,-148.13 640.68,-154.98 643.19,-148.44"/>
</a>
</g>
</g>
<!-- Node13 -->
<g id="Node000013" class="node">
<title>Node13</title>
<g id="a_Node000013"><a xlink:href="../../da/d75/classxii_g_a_l_texture_view.htm" target="_top" xlink:title="Interface that defines methods to manipulate a texture view object.">
<polygon fill="white" stroke="#666666" points="808,-93 701,-93 701,-74 808,-74 808,-93"/>
<text text-anchor="middle" x="754.5" y="-81" font-family="Helvetica,sans-Serif" font-size="10.00">xiiGALTextureView</text>
</a>
</g>
</g>
<!-- Node1&#45;&gt;Node13 -->
<g id="edge12_Node000001_Node000013" class="edge">
<title>Node1&#45;&gt;Node13</title>
<g id="a_edge12_Node000001_Node000013"><a xlink:title=" ">
<path fill="none" stroke="#63b8ff" d="M642.52,-125.31C668.8,-115.41 704.19,-102.08 727.87,-93.16"/>
<polygon fill="#63b8ff" stroke="#63b8ff" points="641.06,-122.12 632.93,-128.92 643.52,-128.67 641.06,-122.12"/>
</a>
</g>
</g>
<!-- Node2 -->
<g id="Node000002" class="node">
<title>Node2</title>
<g id="a_Node000002"><a xlink:href="../../d5/d12/classxii_g_a_l_device_object.htm" target="_top" xlink:title="Base Graphics Abstraction Layer Object.">
<polygon fill="white" stroke="#666666" points="512,-148 399,-148 399,-129 512,-129 512,-148"/>
<text text-anchor="middle" x="455.5" y="-136" font-family="Helvetica,sans-Serif" font-size="10.00">xiiGALDeviceObject</text>
</a>
</g>
</g>
<!-- Node2&#45;&gt;Node1 -->
<g id="edge1_Node000001_Node000002" class="edge">
<title>Node2&#45;&gt;Node1</title>
<g id="a_edge1_Node000001_Node000002"><a xlink:title=" ">
<path fill="none" stroke="#63b8ff" d="M522.56,-138.5C530.97,-138.5 539.53,-138.5 547.79,-138.5"/>
<polygon fill="#63b8ff" stroke="#63b8ff" points="522.41,-135 512.41,-138.5 522.41,-142 522.41,-135"/>
</a>
</g>
</g>
<!-- Node3 -->
<g id="Node000003" class="node">
<title>Node3</title>
<g id="a_Node000003"><a xlink:href="../../d3/dda/classxii_g_a_l_object.htm" target="_top" xlink:title="Base Graphics Abstraction Layer Object.">
<polygon fill="white" stroke="#666666" points="363,-148 283,-148 283,-129 363,-129 363,-148"/>
<text text-anchor="middle" x="323" y="-136" font-family="Helvetica,sans-Serif" font-size="10.00">xiiGALObject</text>
</a>
</g>
</g>
<!-- Node3&#45;&gt;Node2 -->
<g id="edge2_Node000002_Node000003" class="edge">
<title>Node3&#45;&gt;Node2</title>
<g id="a_edge2_Node000002_Node000003"><a xlink:title=" ">
<path fill="none" stroke="#63b8ff" d="M373.19,-138.5C381.61,-138.5 390.4,-138.5 398.97,-138.5"/>
<polygon fill="#63b8ff" stroke="#63b8ff" points="373.15,-135 363.15,-138.5 373.15,-142 373.15,-135"/>
</a>
</g>
</g>
<!-- Node4 -->
<g id="Node000004" class="node">
<title>Node4</title>
<g id="a_Node000004"><a xlink:href="../../dc/d71/classxii_reflected_class.htm" target="_top" xlink:title="All classes that should be dynamically reflectable, need to be derived from this base class.">
<polygon fill="white" stroke="#666666" points="247,-167 146,-167 146,-148 247,-148 247,-167"/>
<text text-anchor="middle" x="196.5" y="-155" font-family="Helvetica,sans-Serif" font-size="10.00">xiiReflectedClass</text>
</a>
</g>
</g>
<!-- Node4&#45;&gt;Node3 -->
<g id="edge3_Node000003_Node000004" class="edge">
<title>Node4&#45;&gt;Node3</title>
<g id="a_edge3_Node000003_Node000004"><a xlink:title=" ">
<path fill="none" stroke="#63b8ff" d="M256.96,-148.43C265.79,-147.08 274.69,-145.72 282.96,-144.46"/>
<polygon fill="#63b8ff" stroke="#63b8ff" points="256.42,-144.97 247.06,-149.94 257.48,-151.89 256.42,-144.97"/>
</a>
</g>
</g>
<!-- Node5 -->
<g id="Node000005" class="node">
<title>Node5</title>
<g id="a_Node000005"><a xlink:href="../../d2/d38/classxii_no_base.htm" target="_top" xlink:title="Dummy type to pass to templates and macros that expect a base type for a class that has no base.">
<polygon fill="white" stroke="#666666" points="88,-167 22,-167 22,-148 88,-148 88,-167"/>
<text text-anchor="middle" x="55" y="-155" font-family="Helvetica,sans-Serif" font-size="10.00">xiiNoBase</text>
</a>
</g>
</g>
<!-- Node5&#45;&gt;Node4 -->
<g id="edge4_Node000004_Node000005" class="edge">
<title>Node5&#45;&gt;Node4</title>
<g id="a_edge4_Node000004_Node000005"><a xlink:title=" ">
<path fill="none" stroke="#63b8ff" d="M98.06,-157.5C113.12,-157.5 130.23,-157.5 145.87,-157.5"/>
<polygon fill="#63b8ff" stroke="#63b8ff" points="98,-154 88,-157.5 98,-161 98,-154"/>
</a>
</g>
</g>
<!-- Node6 -->
<g id="Node000006" class="node">
<title>Node6</title>
<g id="a_Node000006"><a xlink:href="../../d3/dd0/classxii_ref_counted.htm" target="_top" xlink:title="Base class for reference counted objects.">
<polygon fill="white" stroke="#666666" points="239.5,-130 153.5,-130 153.5,-111 239.5,-111 239.5,-130"/>
<text text-anchor="middle" x="196.5" y="-118" font-family="Helvetica,sans-Serif" font-size="10.00">xiiRefCounted</text>
</a>
</g>
</g>
<!-- Node6&#45;&gt;Node3 -->
<g id="edge5_Node000003_Node000006" class="edge">
<title>Node6&#45;&gt;Node3</title>
<g id="a_edge5_Node000003_Node000006"><a xlink:title=" ">
<path fill="none" stroke="#63b8ff" d="M249.68,-128.04C260.78,-129.65 272.32,-131.32 282.83,-132.84"/>
<polygon fill="#63b8ff" stroke="#63b8ff" points="250.05,-124.56 239.65,-126.59 249.05,-131.49 250.05,-124.56"/>
</a>
</g>
</g>
<!-- Node7 -->
<g id="Node000007" class="node">
<title>Node7</title>
<g id="a_Node000007"><a xlink:href="../../d7/df4/classxii_ref_counting_impl.htm" target="_top" xlink:title=" ">
<polygon fill="white" stroke="#bfbfbf" points="110,-130 0,-130 0,-111 110,-111 110,-130"/>
<text text-anchor="middle" x="55" y="-118" font-family="Helvetica,sans-Serif" font-size="10.00">xiiRefCountingImpl</text>
</a>
</g>
</g>
<!-- Node7&#45;&gt;Node6 -->
<g id="edge6_Node000006_Node000007" class="edge">
<title>Node7&#45;&gt;Node6</title>
<g id="a_edge6_Node000006_Node000007"><a xlink:title=" ">
<path fill="none" stroke="#63b8ff" d="M120.45,-120.5C131.57,-120.5 142.86,-120.5 153.19,-120.5"/>
<polygon fill="#63b8ff" stroke="#63b8ff" points="120.33,-117 110.33,-120.5 120.33,-124 120.33,-117"/>
</a>
</g>
</g>
<!-- Node9 -->
<g id="Node000009" class="node">
<title>Node9</title>
<g id="a_Node000009"><a xlink:href="../../d2/d0f/classxii_g_a_l_buffer_view_d3_d11.htm" target="_top" xlink:title=" ">
<polygon fill="white" stroke="#bfbfbf" points="981,-278 847,-278 847,-259 981,-259 981,-278"/>
<text text-anchor="middle" x="914" y="-266" font-family="Helvetica,sans-Serif" font-size="10.00">xiiGALBufferViewD3D11</text>
</a>
</g>
</g>
<!-- Node8&#45;&gt;Node9 -->
<g id="edge8_Node000008_Node000009" class="edge">
<title>Node8&#45;&gt;Node9</title>
<g id="a_edge8_Node000008_Node000009"><a xlink:title=" ">
<path fill="none" stroke="#63b8ff" d="M776.22,-210.22C793.53,-222.7 819.29,-239.77 844,-250.5 851.61,-253.8 859.96,-256.61 868.15,-258.96"/>
<polygon fill="#63b8ff" stroke="#63b8ff" points="778.12,-207.28 767.99,-204.18 773.98,-212.92 778.12,-207.28"/>
</a>
</g>
</g>
<!-- Node10 -->
<g id="Node000010" class="node">
<title>Node10</title>
<g id="a_Node000010"><a xlink:href="../../d9/d44/classxii_g_a_l_buffer_view_d3_d12.htm" target="_top" xlink:title=" ">
<polygon fill="white" stroke="#bfbfbf" points="981,-241 847,-241 847,-222 981,-222 981,-241"/>
<text text-anchor="middle" x="914" y="-229" font-family="Helvetica,sans-Serif" font-size="10.00">xiiGALBufferViewD3D12</text>
</a>
</g>
</g>
<!-- Node8&#45;&gt;Node10 -->
<g id="edge9_Node000008_Node000010" class="edge">
<title>Node8&#45;&gt;Node10</title>
<g id="a_edge9_Node000008_Node000010"><a xlink:title=" ">
<path fill="none" stroke="#63b8ff" d="M805.97,-206.36C827.41,-211.39 852.06,-217.18 872.3,-221.94"/>
<polygon fill="#63b8ff" stroke="#63b8ff" points="806.6,-202.91 796.06,-204.03 804.99,-209.72 806.6,-202.91"/>
</a>
</g>
</g>
<!-- Node11 -->
<g id="Node000011" class="node">
<title>Node11</title>
<g id="a_Node000011"><a xlink:href="../../d8/db0/classxii_g_a_l_buffer_view_null.htm" target="_top" xlink:title=" ">
<polygon fill="white" stroke="#bfbfbf" points="974.5,-204 853.5,-204 853.5,-185 974.5,-185 974.5,-204"/>
<text text-anchor="middle" x="914" y="-192" font-family="Helvetica,sans-Serif" font-size="10.00">xiiGALBufferViewNull</text>
</a>
</g>
</g>
<!-- Node8&#45;&gt;Node11 -->
<g id="edge10_Node000008_Node000011" class="edge">
<title>Node8&#45;&gt;Node11</title>
<g id="a_edge10_Node000008_Node000011"><a xlink:title=" ">
<path fill="none" stroke="#63b8ff" d="M815.54,-194.5C827.91,-194.5 840.93,-194.5 853.29,-194.5"/>
<polygon fill="#63b8ff" stroke="#63b8ff" points="815.33,-191 805.33,-194.5 815.33,-198 815.33,-191"/>
</a>
</g>
</g>
<!-- Node12 -->
<g id="Node000012" class="node">
<title>Node12</title>
<g id="a_Node000012"><a xlink:href="../../db/da2/classxii_g_a_l_buffer_view_vulkan.htm" target="_top" xlink:title=" ">
<polygon fill="white" stroke="#bfbfbf" points="981,-167 847,-167 847,-148 981,-148 981,-167"/>
<text text-anchor="middle" x="914" y="-155" font-family="Helvetica,sans-Serif" font-size="10.00">xiiGALBufferViewVulkan</text>
</a>
</g>
</g>
<!-- Node8&#45;&gt;Node12 -->
<g id="edge11_Node000008_Node000012" class="edge">
<title>Node8&#45;&gt;Node12</title>
<g id="a_edge11_Node000008_Node000012"><a xlink:title=" ">
<path fill="none" stroke="#63b8ff" d="M805.97,-182.64C827.41,-177.61 852.06,-171.82 872.3,-167.06"/>
<polygon fill="#63b8ff" stroke="#63b8ff" points="804.99,-179.28 796.06,-184.97 806.6,-186.09 804.99,-179.28"/>
</a>
</g>
</g>
<!-- Node14 -->
<g id="Node000014" class="node">
<title>Node14</title>
<g id="a_Node000014"><a xlink:href="../../d0/d30/classxii_g_a_l_texture_view_d3_d11.htm" target="_top" xlink:title=" ">
<polygon fill="white" stroke="#bfbfbf" points="984,-130 844,-130 844,-111 984,-111 984,-130"/>
<text text-anchor="middle" x="914" y="-118" font-family="Helvetica,sans-Serif" font-size="10.00">xiiGALTextureViewD3D11</text>
</a>
</g>
</g>
<!-- Node13&#45;&gt;Node14 -->
<g id="edge13_Node000013_Node000014" class="edge">
<title>Node13&#45;&gt;Node14</title>
<g id="a_edge13_Node000013_Node000014"><a xlink:title=" ">
<path fill="none" stroke="#63b8ff" d="M805.97,-95.36C827.41,-100.39 852.06,-106.18 872.3,-110.94"/>
<polygon fill="#63b8ff" stroke="#63b8ff" points="806.6,-91.91 796.06,-93.03 804.99,-98.72 806.6,-91.91"/>
</a>
</g>
</g>
<!-- Node15 -->
<g id="Node000015" class="node">
<title>Node15</title>
<g id="a_Node000015"><a xlink:href="../../df/dbc/classxii_g_a_l_texture_view_d3_d12.htm" target="_top" xlink:title=" ">
<polygon fill="white" stroke="#bfbfbf" points="984,-93 844,-93 844,-74 984,-74 984,-93"/>
<text text-anchor="middle" x="914" y="-81" font-family="Helvetica,sans-Serif" font-size="10.00">xiiGALTextureViewD3D12</text>
</a>
</g>
</g>
<!-- Node13&#45;&gt;Node15 -->
<g id="edge14_Node000013_Node000015" class="edge">
<title>Node13&#45;&gt;Node15</title>
<g id="a_edge14_Node000013_Node000015"><a xlink:title=" ">
<path fill="none" stroke="#63b8ff" d="M818.4,-83.5C826.74,-83.5 835.32,-83.5 843.75,-83.5"/>
<polygon fill="#63b8ff" stroke="#63b8ff" points="818.38,-80 808.38,-83.5 818.38,-87 818.38,-80"/>
</a>
</g>
</g>
<!-- Node16 -->
<g id="Node000016" class="node">
<title>Node16</title>
<g id="a_Node000016"><a xlink:href="../../d6/da6/classxii_g_a_l_texture_view_null.htm" target="_top" xlink:title=" ">
<polygon fill="white" stroke="#bfbfbf" points="977.5,-56 850.5,-56 850.5,-37 977.5,-37 977.5,-56"/>
<text text-anchor="middle" x="914" y="-44" font-family="Helvetica,sans-Serif" font-size="10.00">xiiGALTextureViewNull</text>
</a>
</g>
</g>
<!-- Node13&#45;&gt;Node16 -->
<g id="edge15_Node000013_Node000016" class="edge">
<title>Node13&#45;&gt;Node16</title>
<g id="a_edge15_Node000013_Node000016"><a xlink:title=" ">
<path fill="none" stroke="#63b8ff" d="M805.97,-71.64C827.41,-66.61 852.06,-60.82 872.3,-56.06"/>
<polygon fill="#63b8ff" stroke="#63b8ff" points="804.99,-68.28 796.06,-73.97 806.6,-75.09 804.99,-68.28"/>
</a>
</g>
</g>
<!-- Node17 -->
<g id="Node000017" class="node">
<title>Node17</title>
<g id="a_Node000017"><a xlink:href="../../d5/d6e/classxii_g_a_l_texture_view_vulkan.htm" target="_top" xlink:title=" ">
<polygon fill="white" stroke="#bfbfbf" points="984,-19 844,-19 844,0 984,0 984,-19"/>
<text text-anchor="middle" x="914" y="-7" font-family="Helvetica,sans-Serif" font-size="10.00">xiiGALTextureViewVulkan</text>
</a>
</g>
</g>
<!-- Node13&#45;&gt;Node17 -->
<g id="edge16_Node000013_Node000017" class="edge">
<title>Node13&#45;&gt;Node17</title>
<g id="a_edge16_Node000013_Node000017"><a xlink:title=" ">
<path fill="none" stroke="#63b8ff" d="M776.22,-67.78C793.53,-55.3 819.29,-38.23 844,-27.5 851.61,-24.2 859.96,-21.39 868.15,-19.04"/>
<polygon fill="#63b8ff" stroke="#63b8ff" points="773.98,-65.08 767.99,-73.82 778.12,-70.72 773.98,-65.08"/>
</a>
</g>
</g>
</g>
</svg>
