<?xml version="1.0" encoding="UTF-8" standalone="no"?>
<!DOCTYPE svg PUBLIC "-//W3C//DTD SVG 1.1//EN"
 "http://www.w3.org/Graphics/SVG/1.1/DTD/svg11.dtd">
<!-- Generated by graphviz version 2.43.0 (0)
 -->
<!-- Title: xiiQtStandardPropertyWidget Pages: 1 -->
<svg width="840pt" height="858pt"
 viewBox="0.00 0.00 840.00 857.50" xmlns="http://www.w3.org/2000/svg" xmlns:xlink="http://www.w3.org/1999/xlink">
<g id="graph0" class="graph" transform="scale(1 1) rotate(0) translate(4 853.5)">
<title>xiiQtStandardPropertyWidget</title>
<!-- Node1 -->
<g id="Node000001" class="node">
<title>Node1</title>
<g id="a_Node000001"><a xlink:title="Base class for most &#39;simple&#39; property type widgets. Implements some of the standard functionality.">
<polygon fill="#999999" stroke="#666666" points="406,-443.5 247,-443.5 247,-424.5 406,-424.5 406,-443.5"/>
<text text-anchor="middle" x="326.5" y="-431.5" font-family="Helvetica,sans-Serif" font-size="10.00">xiiQtStandardPropertyWidget</text>
</a>
</g>
</g>
<!-- Node4 -->
<g id="Node000004" class="node">
<title>Node4</title>
<g id="a_Node000004"><a xlink:href="../../d1/d7a/classxii_qt_asset_property_widget.htm" target="_top" xlink:title="*** Asset Browser ***">
<polygon fill="white" stroke="#666666" points="604,-849.5 461,-849.5 461,-830.5 604,-830.5 604,-849.5"/>
<text text-anchor="middle" x="532.5" y="-837.5" font-family="Helvetica,sans-Serif" font-size="10.00">xiiQtAssetPropertyWidget</text>
</a>
</g>
</g>
<!-- Node1&#45;&gt;Node4 -->
<g id="edge3_Node000001_Node000004" class="edge">
<title>Node1&#45;&gt;Node4</title>
<g id="a_edge3_Node000001_Node000004"><a xlink:title=" ">
<path fill="none" stroke="#63b8ff" d="M326.84,-453.88C325.88,-517.74 332.05,-719.36 442,-821 447.48,-826.07 453.97,-829.92 460.9,-832.82"/>
<polygon fill="#63b8ff" stroke="#63b8ff" points="330.34,-453.7 327.08,-443.62 323.35,-453.53 330.34,-453.7"/>
</a>
</g>
</g>
<!-- Node5 -->
<g id="Node000005" class="node">
<title>Node5</title>
<g id="a_Node000005"><a xlink:href="../../d8/d8d/classxii_qt_dynamic_bitflags_property_widget.htm" target="_top" xlink:title=" ">
<polygon fill="white" stroke="#bfbfbf" points="613,-812 452,-812 452,-782 613,-782 613,-812"/>
<text text-anchor="start" x="460" y="-800" font-family="Helvetica,sans-Serif" font-size="10.00">xiiQtDynamicBitflagsProperty</text>
<text text-anchor="middle" x="532.5" y="-789" font-family="Helvetica,sans-Serif" font-size="10.00">Widget</text>
</a>
</g>
</g>
<!-- Node1&#45;&gt;Node5 -->
<g id="edge4_Node000001_Node000005" class="edge">
<title>Node1&#45;&gt;Node5</title>
<g id="a_edge4_Node000001_Node000005"><a xlink:title=" ">
<path fill="none" stroke="#63b8ff" d="M328.03,-453.84C330.69,-511.99 346.64,-683.53 442,-773 445.64,-776.41 449.71,-779.35 454.05,-781.88"/>
<polygon fill="#63b8ff" stroke="#63b8ff" points="331.51,-453.37 327.65,-443.5 324.52,-453.62 331.51,-453.37"/>
</a>
</g>
</g>
<!-- Node6 -->
<g id="Node000006" class="node">
<title>Node6</title>
<g id="a_Node000006"><a xlink:href="../../dc/d0a/classxii_qt_dynamic_enum_property_widget.htm" target="_top" xlink:title="*** Asset Browser ***">
<polygon fill="white" stroke="#666666" points="608.5,-764 456.5,-764 456.5,-734 608.5,-734 608.5,-764"/>
<text text-anchor="start" x="464.5" y="-752" font-family="Helvetica,sans-Serif" font-size="10.00">xiiQtDynamicEnumProperty</text>
<text text-anchor="middle" x="532.5" y="-741" font-family="Helvetica,sans-Serif" font-size="10.00">Widget</text>
</a>
</g>
</g>
<!-- Node1&#45;&gt;Node6 -->
<g id="edge5_Node000001_Node000006" class="edge">
<title>Node1&#45;&gt;Node6</title>
<g id="a_edge5_Node000001_Node000006"><a xlink:title=" ">
<path fill="none" stroke="#63b8ff" d="M329.28,-453.78C335.08,-506.28 358.24,-650.19 442,-725 446.32,-728.86 451.19,-732.1 456.38,-734.84"/>
<polygon fill="#63b8ff" stroke="#63b8ff" points="332.73,-453.11 328.24,-443.51 325.76,-453.81 332.73,-453.11"/>
</a>
</g>
</g>
<!-- Node7 -->
<g id="Node000007" class="node">
<title>Node7</title>
<g id="a_Node000007"><a xlink:href="../../d9/d6a/classxii_qt_dynamic_string_enum_property_widget.htm" target="_top" xlink:title=" ">
<polygon fill="white" stroke="#bfbfbf" points="623,-716 442,-716 442,-686 623,-686 623,-716"/>
<text text-anchor="start" x="450" y="-704" font-family="Helvetica,sans-Serif" font-size="10.00">xiiQtDynamicStringEnumProperty</text>
<text text-anchor="middle" x="532.5" y="-693" font-family="Helvetica,sans-Serif" font-size="10.00">Widget</text>
</a>
</g>
</g>
<!-- Node1&#45;&gt;Node7 -->
<g id="edge6_Node000001_Node000007" class="edge">
<title>Node1&#45;&gt;Node7</title>
<g id="a_edge6_Node000001_Node000007"><a xlink:title=" ">
<path fill="none" stroke="#63b8ff" d="M330.94,-453.59C340.12,-499.85 369.61,-616.49 442,-677 446.07,-680.4 450.58,-683.33 455.35,-685.84"/>
<polygon fill="#63b8ff" stroke="#63b8ff" points="334.36,-452.84 329.07,-443.66 327.48,-454.13 334.36,-452.84"/>
</a>
</g>
</g>
<!-- Node8 -->
<g id="Node000008" class="node">
<title>Node8</title>
<g id="a_Node000008"><a xlink:href="../../d7/d0c/classxii_qt_exposed_bone_widget.htm" target="_top" xlink:title=" ">
<polygon fill="white" stroke="#bfbfbf" points="602.5,-667.5 462.5,-667.5 462.5,-648.5 602.5,-648.5 602.5,-667.5"/>
<text text-anchor="middle" x="532.5" y="-655.5" font-family="Helvetica,sans-Serif" font-size="10.00">xiiQtExposedBoneWidget</text>
</a>
</g>
</g>
<!-- Node1&#45;&gt;Node8 -->
<g id="edge7_Node000001_Node000008" class="edge">
<title>Node1&#45;&gt;Node8</title>
<g id="a_edge7_Node000001_Node000008"><a xlink:title=" ">
<path fill="none" stroke="#63b8ff" d="M332.35,-453.39C343.77,-494.84 376.49,-592.14 442,-640 448.14,-644.49 455.13,-647.93 462.43,-650.55"/>
<polygon fill="#63b8ff" stroke="#63b8ff" points="335.72,-452.47 329.79,-443.7 328.96,-454.26 335.72,-452.47"/>
</a>
</g>
</g>
<!-- Node9 -->
<g id="Node000009" class="node">
<title>Node9</title>
<g id="a_Node000009"><a xlink:href="../../d8/d2a/classxii_qt_file_property_widget.htm" target="_top" xlink:title=" ">
<polygon fill="white" stroke="#bfbfbf" points="599,-630.5 466,-630.5 466,-611.5 599,-611.5 599,-630.5"/>
<text text-anchor="middle" x="532.5" y="-618.5" font-family="Helvetica,sans-Serif" font-size="10.00">xiiQtFilePropertyWidget</text>
</a>
</g>
</g>
<!-- Node1&#45;&gt;Node9 -->
<g id="edge8_Node000001_Node000009" class="edge">
<title>Node1&#45;&gt;Node9</title>
<g id="a_edge8_Node000001_Node000009"><a xlink:title=" ">
<path fill="none" stroke="#63b8ff" d="M335.02,-453.61C349.75,-489.24 385.95,-564.4 442,-602 449.12,-606.78 457.22,-610.39 465.57,-613.11"/>
<polygon fill="#63b8ff" stroke="#63b8ff" points="338.1,-451.89 331.14,-443.9 331.6,-454.49 338.1,-451.89"/>
</a>
</g>
</g>
<!-- Node10 -->
<g id="Node000010" class="node">
<title>Node10</title>
<g id="a_Node000010"><a xlink:href="../../d5/dc6/classxii_qt_game_object_reference_property_widget.htm" target="_top" xlink:title=" ">
<polygon fill="white" stroke="#bfbfbf" points="607.5,-593 457.5,-593 457.5,-563 607.5,-563 607.5,-593"/>
<text text-anchor="start" x="465.5" y="-581" font-family="Helvetica,sans-Serif" font-size="10.00">xiiQtGameObjectReference</text>
<text text-anchor="middle" x="532.5" y="-570" font-family="Helvetica,sans-Serif" font-size="10.00">PropertyWidget</text>
</a>
</g>
</g>
<!-- Node1&#45;&gt;Node10 -->
<g id="edge9_Node000001_Node000010" class="edge">
<title>Node1&#45;&gt;Node10</title>
<g id="a_edge9_Node000001_Node000010"><a xlink:title=" ">
<path fill="none" stroke="#63b8ff" d="M339.78,-452.15C358.63,-478.6 397.25,-527.45 442,-554 447.81,-557.45 454.12,-560.41 460.62,-562.95"/>
<polygon fill="#63b8ff" stroke="#63b8ff" points="342.55,-450 333.96,-443.8 336.81,-454.01 342.55,-450"/>
</a>
</g>
</g>
<!-- Node11 -->
<g id="Node000011" class="node">
<title>Node11</title>
<g id="a_Node000011"><a xlink:href="../../da/d96/classxii_qt_property_editor_angle_widget.htm" target="_top" xlink:title="*** ANGLE SPINBOX ***">
<polygon fill="white" stroke="#666666" points="601,-545 464,-545 464,-515 601,-515 601,-545"/>
<text text-anchor="start" x="472" y="-533" font-family="Helvetica,sans-Serif" font-size="10.00">xiiQtPropertyEditorAngle</text>
<text text-anchor="middle" x="532.5" y="-522" font-family="Helvetica,sans-Serif" font-size="10.00">Widget</text>
</a>
</g>
</g>
<!-- Node1&#45;&gt;Node11 -->
<g id="edge10_Node000001_Node000011" class="edge">
<title>Node1&#45;&gt;Node11</title>
<g id="a_edge10_Node000001_Node000011"><a xlink:title=" ">
<path fill="none" stroke="#63b8ff" d="M348.13,-449.66C370.28,-465.81 407.01,-490.72 442,-506 449.67,-509.35 457.91,-512.32 466.18,-514.95"/>
<polygon fill="#63b8ff" stroke="#63b8ff" points="349.97,-446.67 339.85,-443.53 345.81,-452.29 349.97,-446.67"/>
</a>
</g>
</g>
<!-- Node12 -->
<g id="Node000012" class="node">
<title>Node12</title>
<g id="a_Node000012"><a xlink:href="../../de/dac/classxii_qt_property_editor_bitflags_widget.htm" target="_top" xlink:title="*** BITFLAGS COMBOBOX ***">
<polygon fill="white" stroke="#666666" points="605.5,-497 459.5,-497 459.5,-467 605.5,-467 605.5,-497"/>
<text text-anchor="start" x="467.5" y="-485" font-family="Helvetica,sans-Serif" font-size="10.00">xiiQtPropertyEditorBitflags</text>
<text text-anchor="middle" x="532.5" y="-474" font-family="Helvetica,sans-Serif" font-size="10.00">Widget</text>
</a>
</g>
</g>
<!-- Node1&#45;&gt;Node12 -->
<g id="edge11_Node000001_Node000012" class="edge">
<title>Node1&#45;&gt;Node12</title>
<g id="a_edge11_Node000001_Node000012"><a xlink:title=" ">
<path fill="none" stroke="#63b8ff" d="M378.3,-445.95C405.29,-452.3 438.73,-460.17 467.48,-466.94"/>
<polygon fill="#63b8ff" stroke="#63b8ff" points="378.83,-442.48 368.29,-443.6 377.22,-449.3 378.83,-442.48"/>
</a>
</g>
</g>
<!-- Node13 -->
<g id="Node000013" class="node">
<title>Node13</title>
<g id="a_Node000013"><a xlink:href="../../d3/d49/classxii_qt_property_editor_checkbox_widget.htm" target="_top" xlink:title="*** CHECKBOX ***">
<polygon fill="white" stroke="#666666" points="611.5,-449 453.5,-449 453.5,-419 611.5,-419 611.5,-449"/>
<text text-anchor="start" x="461.5" y="-437" font-family="Helvetica,sans-Serif" font-size="10.00">xiiQtPropertyEditorCheckbox</text>
<text text-anchor="middle" x="532.5" y="-426" font-family="Helvetica,sans-Serif" font-size="10.00">Widget</text>
</a>
</g>
</g>
<!-- Node1&#45;&gt;Node13 -->
<g id="edge12_Node000001_Node000013" class="edge">
<title>Node1&#45;&gt;Node13</title>
<g id="a_edge12_Node000001_Node000013"><a xlink:title=" ">
<path fill="none" stroke="#63b8ff" d="M416.34,-434C428.64,-434 441.21,-434 453.3,-434"/>
<polygon fill="#63b8ff" stroke="#63b8ff" points="416.08,-430.5 406.08,-434 416.08,-437.5 416.08,-430.5"/>
</a>
</g>
</g>
<!-- Node14 -->
<g id="Node000014" class="node">
<title>Node14</title>
<g id="a_Node000014"><a xlink:href="../../de/dc4/classxii_qt_property_editor_color_widget.htm" target="_top" xlink:title=" ">
<polygon fill="white" stroke="#bfbfbf" points="600,-401 465,-401 465,-371 600,-371 600,-401"/>
<text text-anchor="start" x="473" y="-389" font-family="Helvetica,sans-Serif" font-size="10.00">xiiQtPropertyEditorColor</text>
<text text-anchor="middle" x="532.5" y="-378" font-family="Helvetica,sans-Serif" font-size="10.00">Widget</text>
</a>
</g>
</g>
<!-- Node1&#45;&gt;Node14 -->
<g id="edge13_Node000001_Node000014" class="edge">
<title>Node1&#45;&gt;Node14</title>
<g id="a_edge13_Node000001_Node000014"><a xlink:title=" ">
<path fill="none" stroke="#63b8ff" d="M378.3,-422.05C405.29,-415.7 438.73,-407.83 467.48,-401.06"/>
<polygon fill="#63b8ff" stroke="#63b8ff" points="377.22,-418.7 368.29,-424.4 378.83,-425.52 377.22,-418.7"/>
</a>
</g>
</g>
<!-- Node15 -->
<g id="Node000015" class="node">
<title>Node15</title>
<g id="a_Node000015"><a xlink:href="../../dd/dab/classxii_qt_property_editor_double_spinbox_widget.htm" target="_top" xlink:title="*** DOUBLE SPINBOX ***">
<polygon fill="white" stroke="#666666" points="604.5,-353 460.5,-353 460.5,-323 604.5,-323 604.5,-353"/>
<text text-anchor="start" x="468.5" y="-341" font-family="Helvetica,sans-Serif" font-size="10.00">xiiQtPropertyEditorDouble</text>
<text text-anchor="middle" x="532.5" y="-330" font-family="Helvetica,sans-Serif" font-size="10.00">SpinboxWidget</text>
</a>
</g>
</g>
<!-- Node1&#45;&gt;Node15 -->
<g id="edge14_Node000001_Node000015" class="edge">
<title>Node1&#45;&gt;Node15</title>
<g id="a_edge14_Node000001_Node000015"><a xlink:title=" ">
<path fill="none" stroke="#63b8ff" d="M348.13,-418.34C370.28,-402.19 407.01,-377.28 442,-362 449.67,-358.65 457.91,-355.68 466.18,-353.05"/>
<polygon fill="#63b8ff" stroke="#63b8ff" points="345.81,-415.71 339.85,-424.47 349.97,-421.33 345.81,-415.71"/>
</a>
</g>
</g>
<!-- Node16 -->
<g id="Node000016" class="node">
<title>Node16</title>
<g id="a_Node000016"><a xlink:href="../../da/d30/classxii_qt_property_editor_enum_widget.htm" target="_top" xlink:title="*** ENUM COMBOBOX ***">
<polygon fill="white" stroke="#666666" points="618.5,-304.5 446.5,-304.5 446.5,-285.5 618.5,-285.5 618.5,-304.5"/>
<text text-anchor="middle" x="532.5" y="-292.5" font-family="Helvetica,sans-Serif" font-size="10.00">xiiQtPropertyEditorEnumWidget</text>
</a>
</g>
</g>
<!-- Node1&#45;&gt;Node16 -->
<g id="edge15_Node000001_Node000016" class="edge">
<title>Node1&#45;&gt;Node16</title>
<g id="a_edge15_Node000001_Node000016"><a xlink:title=" ">
<path fill="none" stroke="#63b8ff" d="M339.32,-415.94C357.84,-389.19 396.34,-339.48 442,-314 448.94,-310.13 456.58,-307.05 464.38,-304.59"/>
<polygon fill="#63b8ff" stroke="#63b8ff" points="336.33,-414.12 333.63,-424.36 342.13,-418.04 336.33,-414.12"/>
</a>
</g>
</g>
<!-- Node17 -->
<g id="Node000017" class="node">
<title>Node17</title>
<g id="a_Node000017"><a xlink:href="../../d6/de7/classxii_qt_property_editor_int_spinbox_widget.htm" target="_top" xlink:title="*** INT SPINBOX ***">
<polygon fill="white" stroke="#666666" points="613,-267 452,-267 452,-237 613,-237 613,-267"/>
<text text-anchor="start" x="460" y="-255" font-family="Helvetica,sans-Serif" font-size="10.00">xiiQtPropertyEditorIntSpinbox</text>
<text text-anchor="middle" x="532.5" y="-244" font-family="Helvetica,sans-Serif" font-size="10.00">Widget</text>
</a>
</g>
</g>
<!-- Node1&#45;&gt;Node17 -->
<g id="edge16_Node000001_Node000017" class="edge">
<title>Node1&#45;&gt;Node17</title>
<g id="a_edge16_Node000001_Node000017"><a xlink:title=" ">
<path fill="none" stroke="#63b8ff" d="M335.96,-414.92C351.79,-381.48 389.12,-312.4 442,-276 447.04,-272.53 452.55,-269.57 458.29,-267.03"/>
<polygon fill="#63b8ff" stroke="#63b8ff" points="332.58,-413.89 331.59,-424.44 338.94,-416.81 332.58,-413.89"/>
</a>
</g>
</g>
<!-- Node18 -->
<g id="Node000018" class="node">
<title>Node18</title>
<g id="a_Node000018"><a xlink:href="../../d5/d11/classxii_qt_property_editor_line_edit_widget.htm" target="_top" xlink:title="*** LINEEDIT ***">
<polygon fill="white" stroke="#666666" points="607,-219 458,-219 458,-189 607,-189 607,-219"/>
<text text-anchor="start" x="466" y="-207" font-family="Helvetica,sans-Serif" font-size="10.00">xiiQtPropertyEditorLineEdit</text>
<text text-anchor="middle" x="532.5" y="-196" font-family="Helvetica,sans-Serif" font-size="10.00">Widget</text>
</a>
</g>
</g>
<!-- Node1&#45;&gt;Node18 -->
<g id="edge17_Node000001_Node000018" class="edge">
<title>Node1&#45;&gt;Node18</title>
<g id="a_edge17_Node000001_Node000018"><a xlink:title=" ">
<path fill="none" stroke="#63b8ff" d="M332.66,-414.66C344.61,-373.68 378.18,-277.81 442,-228 446.82,-224.24 452.18,-221.07 457.81,-218.39"/>
<polygon fill="#63b8ff" stroke="#63b8ff" points="329.24,-413.89 329.91,-424.47 335.98,-415.78 329.24,-413.89"/>
</a>
</g>
</g>
<!-- Node19 -->
<g id="Node000019" class="node">
<title>Node19</title>
<g id="a_Node000019"><a xlink:href="../../d4/d9a/classxii_qt_property_editor_quaternion_widget.htm" target="_top" xlink:title="*** QUATERNION ***">
<polygon fill="white" stroke="#666666" points="614.5,-171 450.5,-171 450.5,-141 614.5,-141 614.5,-171"/>
<text text-anchor="start" x="458.5" y="-159" font-family="Helvetica,sans-Serif" font-size="10.00">xiiQtPropertyEditorQuaternion</text>
<text text-anchor="middle" x="532.5" y="-148" font-family="Helvetica,sans-Serif" font-size="10.00">Widget</text>
</a>
</g>
</g>
<!-- Node1&#45;&gt;Node19 -->
<g id="edge18_Node000001_Node000019" class="edge">
<title>Node1&#45;&gt;Node19</title>
<g id="a_edge18_Node000001_Node000019"><a xlink:title=" ">
<path fill="none" stroke="#63b8ff" d="M330.49,-414.5C338.84,-366.86 366.95,-243.82 442,-180 446.04,-176.56 450.53,-173.61 455.29,-171.08"/>
<polygon fill="#63b8ff" stroke="#63b8ff" points="327.02,-414 328.85,-424.43 333.93,-415.14 327.02,-414"/>
</a>
</g>
</g>
<!-- Node20 -->
<g id="Node000020" class="node">
<title>Node20</title>
<g id="a_Node000020"><a xlink:href="../../d3/d59/classxii_qt_property_editor_time_widget.htm" target="_top" xlink:title="*** TIME SPINBOX ***">
<polygon fill="white" stroke="#666666" points="617,-122.5 448,-122.5 448,-103.5 617,-103.5 617,-122.5"/>
<text text-anchor="middle" x="532.5" y="-110.5" font-family="Helvetica,sans-Serif" font-size="10.00">xiiQtPropertyEditorTimeWidget</text>
</a>
</g>
</g>
<!-- Node1&#45;&gt;Node20 -->
<g id="edge19_Node000001_Node000020" class="edge">
<title>Node1&#45;&gt;Node20</title>
<g id="a_edge19_Node000001_Node000020"><a xlink:title=" ">
<path fill="none" stroke="#63b8ff" d="M328.72,-414.29C333.17,-360.12 353.38,-207.99 442,-132 446.46,-128.17 451.5,-125.06 456.86,-122.52"/>
<polygon fill="#63b8ff" stroke="#63b8ff" points="325.22,-414.07 327.99,-424.3 332.2,-414.58 325.22,-414.07"/>
</a>
</g>
</g>
<!-- Node21 -->
<g id="Node000021" class="node">
<title>Node21</title>
<g id="a_Node000021"><a xlink:href="../../d5/dd4/classxii_qt_variance_type_widget.htm" target="_top" xlink:title=" ">
<polygon fill="white" stroke="#bfbfbf" points="602,-85.5 463,-85.5 463,-66.5 602,-66.5 602,-85.5"/>
<text text-anchor="middle" x="532.5" y="-73.5" font-family="Helvetica,sans-Serif" font-size="10.00">xiiQtVarianceTypeWidget</text>
</a>
</g>
</g>
<!-- Node1&#45;&gt;Node21 -->
<g id="edge20_Node000001_Node000021" class="edge">
<title>Node1&#45;&gt;Node21</title>
<g id="a_edge20_Node000001_Node000021"><a xlink:title=" ">
<path fill="none" stroke="#63b8ff" d="M327.73,-414.18C329.56,-355.41 343.42,-180.85 442,-94 448.07,-88.66 455.27,-84.73 462.91,-81.86"/>
<polygon fill="#63b8ff" stroke="#63b8ff" points="324.23,-414.25 327.5,-424.33 331.23,-414.41 324.23,-414.25"/>
</a>
</g>
</g>
<!-- Node22 -->
<g id="Node000022" class="node">
<title>Node22</title>
<g id="a_Node000022"><a xlink:href="../../df/d7e/classxii_qt_variant_property_widget.htm" target="_top" xlink:title=" ">
<polygon fill="white" stroke="#bfbfbf" points="607.5,-48.5 457.5,-48.5 457.5,-29.5 607.5,-29.5 607.5,-48.5"/>
<text text-anchor="middle" x="532.5" y="-36.5" font-family="Helvetica,sans-Serif" font-size="10.00">xiiQtVariantPropertyWidget</text>
</a>
</g>
</g>
<!-- Node1&#45;&gt;Node22 -->
<g id="edge21_Node000001_Node000022" class="edge">
<title>Node1&#45;&gt;Node22</title>
<g id="a_edge21_Node000001_Node000022"><a xlink:title=" ">
<path fill="none" stroke="#63b8ff" d="M326.98,-414.16C326.48,-351.31 334.02,-155.05 442,-57 446.58,-52.84 451.84,-49.54 457.46,-46.92"/>
<polygon fill="#63b8ff" stroke="#63b8ff" points="323.48,-414.34 327.14,-424.28 330.48,-414.23 323.48,-414.34"/>
</a>
</g>
</g>
<!-- Node2 -->
<g id="Node000002" class="node">
<title>Node2</title>
<g id="a_Node000002"><a xlink:href="../../d9/d80/classxii_qt_property_widget.htm" target="_top" xlink:title="Base class for all property widgets.">
<polygon fill="white" stroke="#666666" points="211,-443.5 95,-443.5 95,-424.5 211,-424.5 211,-443.5"/>
<text text-anchor="middle" x="153" y="-431.5" font-family="Helvetica,sans-Serif" font-size="10.00">xiiQtPropertyWidget</text>
</a>
</g>
</g>
<!-- Node2&#45;&gt;Node1 -->
<g id="edge1_Node000001_Node000002" class="edge">
<title>Node2&#45;&gt;Node1</title>
<g id="a_edge1_Node000001_Node000002"><a xlink:title=" ">
<path fill="none" stroke="#63b8ff" d="M221.25,-434C229.68,-434 238.37,-434 246.96,-434"/>
<polygon fill="#63b8ff" stroke="#63b8ff" points="221.11,-430.5 211.11,-434 221.11,-437.5 221.11,-430.5"/>
</a>
</g>
</g>
<!-- Node3 -->
<g id="Node000003" class="node">
<title>Node3</title>
<g id="a_Node000003"><a xlink:title=" ">
<polygon fill="white" stroke="#bfbfbf" points="59,-443.5 0,-443.5 0,-424.5 59,-424.5 59,-443.5"/>
<text text-anchor="middle" x="29.5" y="-431.5" font-family="Helvetica,sans-Serif" font-size="10.00">QWidget</text>
</a>
</g>
</g>
<!-- Node3&#45;&gt;Node2 -->
<g id="edge2_Node000002_Node000003" class="edge">
<title>Node3&#45;&gt;Node2</title>
<g id="a_edge2_Node000002_Node000003"><a xlink:title=" ">
<path fill="none" stroke="#63b8ff" d="M69.5,-434C77.56,-434 86.21,-434 94.77,-434"/>
<polygon fill="#63b8ff" stroke="#63b8ff" points="69.29,-430.5 59.29,-434 69.29,-437.5 69.29,-430.5"/>
</a>
</g>
</g>
<!-- Node23 -->
<g id="Node000023" class="node">
<title>Node23</title>
<g id="a_Node000023"><a xlink:href="../../d8/dd3/classxii_qt_exposed_parameter_property_widget.htm" target="_top" xlink:title=" ">
<polygon fill="white" stroke="#bfbfbf" points="832,-78 659,-78 659,-48 832,-48 832,-78"/>
<text text-anchor="start" x="667" y="-66" font-family="Helvetica,sans-Serif" font-size="10.00">xiiQtExposedParameterProperty</text>
<text text-anchor="middle" x="745.5" y="-55" font-family="Helvetica,sans-Serif" font-size="10.00">Widget</text>
</a>
</g>
</g>
<!-- Node22&#45;&gt;Node23 -->
<g id="edge22_Node000022_Node000023" class="edge">
<title>Node22&#45;&gt;Node23</title>
<g id="a_edge22_Node000022_Node000023"><a xlink:title=" ">
<path fill="none" stroke="#63b8ff" d="M617.78,-48.59C631.23,-50.12 645.17,-51.7 658.67,-53.24"/>
<polygon fill="#63b8ff" stroke="#63b8ff" points="617.93,-45.08 607.59,-47.43 617.13,-52.04 617.93,-45.08"/>
</a>
</g>
</g>
<!-- Node24 -->
<g id="Node000024" class="node">
<title>Node24</title>
<g id="a_Node000024"><a xlink:href="../../de/d6a/classxii_qt_visual_script_variable_widget.htm" target="_top" xlink:title=" ">
<polygon fill="white" stroke="#bfbfbf" points="814,-30 677,-30 677,0 814,0 814,-30"/>
<text text-anchor="start" x="685" y="-18" font-family="Helvetica,sans-Serif" font-size="10.00">xiiQtVisualScriptVariable</text>
<text text-anchor="middle" x="745.5" y="-7" font-family="Helvetica,sans-Serif" font-size="10.00">Widget</text>
</a>
</g>
</g>
<!-- Node22&#45;&gt;Node24 -->
<g id="edge23_Node000022_Node000024" class="edge">
<title>Node22&#45;&gt;Node24</title>
<g id="a_edge23_Node000022_Node000024"><a xlink:title=" ">
<path fill="none" stroke="#63b8ff" d="M617.77,-29.42C637.42,-27.18 658.11,-24.83 676.93,-22.69"/>
<polygon fill="#63b8ff" stroke="#63b8ff" points="617.13,-25.96 607.59,-30.57 617.93,-32.92 617.13,-25.96"/>
</a>
</g>
</g>
</g>
</svg>
