<?xml version="1.0" encoding="UTF-8" standalone="no"?>
<!DOCTYPE svg PUBLIC "-//W3C//DTD SVG 1.1//EN"
 "http://www.w3.org/Graphics/SVG/1.1/DTD/svg11.dtd">
<!-- Generated by graphviz version 2.43.0 (0)
 -->
<!-- Title: xiiLongOpManager Pages: 1 -->
<svg width="324pt" height="84pt"
 viewBox="0.00 0.00 324.00 84.00" xmlns="http://www.w3.org/2000/svg" xmlns:xlink="http://www.w3.org/1999/xlink">
<g id="graph0" class="graph" transform="scale(1 1) rotate(0) translate(4 80)">
<title>xiiLongOpManager</title>
<polygon fill="white" stroke="transparent" points="-4,4 -4,-80 320,-80 320,4 -4,4"/>
<!-- Node1 -->
<g id="node1" class="node">
<title>Node1</title>
<g id="a_node1"><a xlink:title="Base class with shared functionality for xiiLongOpControllerManager and xiiLongOpWorkerManager.">
<polygon fill="#bfbfbf" stroke="black" points="107,-56.5 107,-75.5 215,-75.5 215,-56.5 107,-56.5"/>
<text text-anchor="middle" x="161" y="-63.5" font-family="Helvetica,sans-Serif" font-size="10.00">xiiLongOpManager</text>
</a>
</g>
</g>
<!-- Node2 -->
<g id="node2" class="node">
<title>Node2</title>
<g id="a_node2"><a xlink:href="../../df/d2a/classxii_long_op_controller_manager.htm" target="_top" xlink:title="The LongOp controller is active in the editor process and manages which long ops are available,...">
<polygon fill="white" stroke="black" points="0,-0.5 0,-19.5 156,-19.5 156,-0.5 0,-0.5"/>
<text text-anchor="middle" x="78" y="-7.5" font-family="Helvetica,sans-Serif" font-size="10.00">xiiLongOpControllerManager</text>
</a>
</g>
</g>
<!-- Node1&#45;&gt;Node2 -->
<g id="edge1" class="edge">
<title>Node1&#45;&gt;Node2</title>
<path fill="none" stroke="midnightblue" d="M138.9,-50.62C123.74,-40.76 104.12,-27.99 91.3,-19.65"/>
<polygon fill="midnightblue" stroke="midnightblue" points="137.37,-53.8 147.66,-56.32 141.19,-47.94 137.37,-53.8"/>
</g>
<!-- Node3 -->
<g id="node3" class="node">
<title>Node3</title>
<g id="a_node3"><a xlink:href="../../dd/d8f/classxii_long_op_worker_manager.htm" target="_top" xlink:title="The LongOp worker manager is active in the engine process of the editor.">
<polygon fill="white" stroke="black" points="174,-0.5 174,-19.5 316,-19.5 316,-0.5 174,-0.5"/>
<text text-anchor="middle" x="245" y="-7.5" font-family="Helvetica,sans-Serif" font-size="10.00">xiiLongOpWorkerManager</text>
</a>
</g>
</g>
<!-- Node1&#45;&gt;Node3 -->
<g id="edge2" class="edge">
<title>Node1&#45;&gt;Node3</title>
<path fill="none" stroke="midnightblue" d="M182.93,-50.9C198.34,-41 218.45,-28.07 231.54,-19.65"/>
<polygon fill="midnightblue" stroke="midnightblue" points="181.02,-47.97 174.5,-56.32 184.8,-53.86 181.02,-47.97"/>
</g>
</g>
</svg>
