<?xml version="1.0" encoding="UTF-8" standalone="no"?>
<!DOCTYPE svg PUBLIC "-//W3C//DTD SVG 1.1//EN"
 "http://www.w3.org/Graphics/SVG/1.1/DTD/svg11.dtd">
<!-- Generated by graphviz version 2.43.0 (0)
 -->
<!-- Title: xiiCommandLineOptionDoc Pages: 1 -->
<svg width="820pt" height="218pt"
 viewBox="0.00 0.00 820.00 218.00" xmlns="http://www.w3.org/2000/svg" xmlns:xlink="http://www.w3.org/1999/xlink">
<g id="graph0" class="graph" transform="scale(1 1) rotate(0) translate(4 214)">
<title>xiiCommandLineOptionDoc</title>
<polygon fill="white" stroke="transparent" points="-4,4 -4,-214 816,-214 816,4 -4,4"/>
<!-- Node1 -->
<g id="node1" class="node">
<title>Node1</title>
<g id="a_node1"><a xlink:title="xiiCommandLineOptionDoc can be used to document a command line option whose logic might be more compl...">
<polygon fill="#bfbfbf" stroke="black" points="466,-95.5 466,-114.5 616,-114.5 616,-95.5 466,-95.5"/>
<text text-anchor="middle" x="541" y="-102.5" font-family="Helvetica,sans-Serif" font-size="10.00">xiiCommandLineOptionDoc</text>
</a>
</g>
</g>
<!-- Node5 -->
<g id="node5" class="node">
<title>Node5</title>
<g id="a_node5"><a xlink:href="../../db/d51/classxii_command_line_option_bool.htm" target="_top" xlink:title="This command line option exposes simple on/off switches.">
<polygon fill="white" stroke="black" points="655.5,-190.5 655.5,-209.5 808.5,-209.5 808.5,-190.5 655.5,-190.5"/>
<text text-anchor="middle" x="732" y="-197.5" font-family="Helvetica,sans-Serif" font-size="10.00">xiiCommandLineOptionBool</text>
</a>
</g>
</g>
<!-- Node1&#45;&gt;Node5 -->
<g id="edge4" class="edge">
<title>Node1&#45;&gt;Node5</title>
<path fill="none" stroke="midnightblue" d="M560.81,-121.26C581.72,-138.53 617.17,-165.43 652,-181 660.5,-184.8 669.87,-187.9 679.09,-190.42"/>
<polygon fill="midnightblue" stroke="midnightblue" points="562.94,-118.48 553.03,-114.73 558.43,-123.84 562.94,-118.48"/>
</g>
<!-- Node6 -->
<g id="node6" class="node">
<title>Node6</title>
<g id="a_node6"><a xlink:href="../../dd/d8c/classxii_command_line_option_enum.htm" target="_top" xlink:title="An &#39;enum&#39; option is a string option that only allows certain phrases (&#39;keys&#39;).">
<polygon fill="white" stroke="black" points="652.5,-152.5 652.5,-171.5 811.5,-171.5 811.5,-152.5 652.5,-152.5"/>
<text text-anchor="middle" x="732" y="-159.5" font-family="Helvetica,sans-Serif" font-size="10.00">xiiCommandLineOptionEnum</text>
</a>
</g>
</g>
<!-- Node1&#45;&gt;Node6 -->
<g id="edge5" class="edge">
<title>Node1&#45;&gt;Node6</title>
<path fill="none" stroke="midnightblue" d="M577.21,-118.14C598.66,-125.9 626.72,-135.61 652,-143 663.64,-146.4 676.38,-149.66 688.16,-152.49"/>
<polygon fill="midnightblue" stroke="midnightblue" points="578.15,-114.75 567.56,-114.61 575.75,-121.33 578.15,-114.75"/>
</g>
<!-- Node7 -->
<g id="node7" class="node">
<title>Node7</title>
<g id="a_node7"><a xlink:href="../../db/d47/classxii_command_line_option_float.htm" target="_top" xlink:title="This command line option exposes float values, optionally with a min/max range.">
<polygon fill="white" stroke="black" points="654,-114.5 654,-133.5 810,-133.5 810,-114.5 654,-114.5"/>
<text text-anchor="middle" x="732" y="-121.5" font-family="Helvetica,sans-Serif" font-size="10.00">xiiCommandLineOptionFloat</text>
</a>
</g>
</g>
<!-- Node1&#45;&gt;Node7 -->
<g id="edge6" class="edge">
<title>Node1&#45;&gt;Node7</title>
<path fill="none" stroke="midnightblue" d="M626.13,-113.46C635.39,-114.39 644.78,-115.33 653.95,-116.25"/>
<polygon fill="midnightblue" stroke="midnightblue" points="626.46,-109.97 616.16,-112.45 625.76,-116.94 626.46,-109.97"/>
</g>
<!-- Node8 -->
<g id="node8" class="node">
<title>Node8</title>
<g id="a_node8"><a xlink:href="../../de/d58/classxii_command_line_option_int.htm" target="_top" xlink:title="This command line option exposes integer values, optionally with a min/max range.">
<polygon fill="white" stroke="black" points="660,-76.5 660,-95.5 804,-95.5 804,-76.5 660,-76.5"/>
<text text-anchor="middle" x="732" y="-83.5" font-family="Helvetica,sans-Serif" font-size="10.00">xiiCommandLineOptionInt</text>
</a>
</g>
</g>
<!-- Node1&#45;&gt;Node8 -->
<g id="edge7" class="edge">
<title>Node1&#45;&gt;Node8</title>
<path fill="none" stroke="midnightblue" d="M626.35,-96.52C637.54,-95.4 648.91,-94.25 659.84,-93.15"/>
<polygon fill="midnightblue" stroke="midnightblue" points="625.76,-93.06 616.16,-97.55 626.46,-100.03 625.76,-93.06"/>
</g>
<!-- Node9 -->
<g id="node9" class="node">
<title>Node9</title>
<g id="a_node9"><a xlink:href="../../de/d4a/classxii_command_line_option_path.htm" target="_top" xlink:title="This command line option exposes absolute paths. If the user provides a relative path,...">
<polygon fill="white" stroke="black" points="656,-38.5 656,-57.5 808,-57.5 808,-38.5 656,-38.5"/>
<text text-anchor="middle" x="732" y="-45.5" font-family="Helvetica,sans-Serif" font-size="10.00">xiiCommandLineOptionPath</text>
</a>
</g>
</g>
<!-- Node1&#45;&gt;Node9 -->
<g id="edge8" class="edge">
<title>Node1&#45;&gt;Node9</title>
<path fill="none" stroke="midnightblue" d="M577.21,-91.86C598.66,-84.1 626.72,-74.39 652,-67 663.64,-63.6 676.38,-60.34 688.16,-57.51"/>
<polygon fill="midnightblue" stroke="midnightblue" points="575.75,-88.67 567.56,-95.39 578.15,-95.25 575.75,-88.67"/>
</g>
<!-- Node10 -->
<g id="node10" class="node">
<title>Node10</title>
<g id="a_node10"><a xlink:href="../../d6/d63/classxii_command_line_option_string.htm" target="_top" xlink:title="This command line option exposes simple string values.">
<polygon fill="white" stroke="black" points="652,-0.5 652,-19.5 812,-19.5 812,-0.5 652,-0.5"/>
<text text-anchor="middle" x="732" y="-7.5" font-family="Helvetica,sans-Serif" font-size="10.00">xiiCommandLineOptionString</text>
</a>
</g>
</g>
<!-- Node1&#45;&gt;Node10 -->
<g id="edge9" class="edge">
<title>Node1&#45;&gt;Node10</title>
<path fill="none" stroke="midnightblue" d="M560.81,-88.74C581.72,-71.47 617.17,-44.57 652,-29 660.5,-25.2 669.87,-22.1 679.09,-19.58"/>
<polygon fill="midnightblue" stroke="midnightblue" points="558.43,-86.16 553.03,-95.27 562.94,-91.52 558.43,-86.16"/>
</g>
<!-- Node2 -->
<g id="node2" class="node">
<title>Node2</title>
<g id="a_node2"><a xlink:href="../../dd/da4/classxii_command_line_option.htm" target="_top" xlink:title="xiiCommandLineOption (and derived types) are used to define options that the application supports.">
<polygon fill="white" stroke="black" points="299,-95.5 299,-114.5 430,-114.5 430,-95.5 299,-95.5"/>
<text text-anchor="middle" x="364.5" y="-102.5" font-family="Helvetica,sans-Serif" font-size="10.00">xiiCommandLineOption</text>
</a>
</g>
</g>
<!-- Node2&#45;&gt;Node1 -->
<g id="edge1" class="edge">
<title>Node2&#45;&gt;Node1</title>
<path fill="none" stroke="midnightblue" d="M440.6,-105C448.97,-105 457.5,-105 465.86,-105"/>
<polygon fill="midnightblue" stroke="midnightblue" points="440.48,-101.5 430.48,-105 440.48,-108.5 440.48,-101.5"/>
</g>
<!-- Node3 -->
<g id="node3" class="node">
<title>Node3</title>
<g id="a_node3"><a xlink:href="../../dc/d54/classxii_enumerable.htm" target="_top" xlink:title=" ">
<polygon fill="white" stroke="black" points="102,-90 102,-120 263,-120 263,-90 102,-90"/>
<text text-anchor="start" x="110" y="-108" font-family="Helvetica,sans-Serif" font-size="10.00">xiiEnumerable&lt; xiiCommand</text>
<text text-anchor="middle" x="182.5" y="-97" font-family="Helvetica,sans-Serif" font-size="10.00">LineOption &gt;</text>
</a>
</g>
</g>
<!-- Node3&#45;&gt;Node2 -->
<g id="edge2" class="edge">
<title>Node3&#45;&gt;Node2</title>
<path fill="none" stroke="midnightblue" d="M273.35,-105C281.99,-105 290.62,-105 298.94,-105"/>
<polygon fill="midnightblue" stroke="midnightblue" points="273.24,-101.5 263.24,-105 273.24,-108.5 273.24,-101.5"/>
</g>
<!-- Node4 -->
<g id="node4" class="node">
<title>Node4</title>
<g id="a_node4"><a xlink:href="../../d2/d38/classxii_no_base.htm" target="_top" xlink:title="Dummy type to pass to templates and macros that expect a base type for a class that has no base.">
<polygon fill="white" stroke="black" points="0,-95.5 0,-114.5 66,-114.5 66,-95.5 0,-95.5"/>
<text text-anchor="middle" x="33" y="-102.5" font-family="Helvetica,sans-Serif" font-size="10.00">xiiNoBase</text>
</a>
</g>
</g>
<!-- Node4&#45;&gt;Node3 -->
<g id="edge3" class="edge">
<title>Node4&#45;&gt;Node3</title>
<path fill="none" stroke="midnightblue" d="M76.21,-105C84.27,-105 92.95,-105 101.75,-105"/>
<polygon fill="midnightblue" stroke="midnightblue" points="76.01,-101.5 66.01,-105 76.01,-108.5 76.01,-101.5"/>
</g>
</g>
</svg>
