<?xml version="1.0" encoding="UTF-8" standalone="no"?>
<!DOCTYPE svg PUBLIC "-//W3C//DTD SVG 1.1//EN"
 "http://www.w3.org/Graphics/SVG/1.1/DTD/svg11.dtd">
<!-- Generated by graphviz version 2.43.0 (0)
 -->
<!-- Title: xiiContainerWidgetAttribute Pages: 1 -->
<svg width="332pt" height="247pt"
 viewBox="0.00 0.00 332.00 247.00" xmlns="http://www.w3.org/2000/svg" xmlns:xlink="http://www.w3.org/1999/xlink">
<g id="graph0" class="graph" transform="scale(1 1) rotate(0) translate(4 243)">
<title>xiiContainerWidgetAttribute</title>
<!-- Node1 -->
<g id="Node000001" class="node">
<title>Node1</title>
<g id="a_Node000001"><a xlink:title="Derive from this class if you want to define an attribute that replaces the property widget of contai...">
<polygon fill="#999999" stroke="#666666" points="245.5,-74 92.5,-74 92.5,-55 245.5,-55 245.5,-74"/>
<text text-anchor="middle" x="169" y="-62" font-family="Helvetica,sans-Serif" font-size="10.00">xiiContainerWidgetAttribute</text>
</a>
</g>
</g>
<!-- Node5 -->
<g id="Node000005" class="node">
<title>Node5</title>
<g id="a_Node000005"><a xlink:href="../../d6/d8c/classxii_exposed_parameters_attribute.html" target="_top" xlink:title="Add this attribute to a variant map property to make it map to the exposed parameters of an asset....">
<polygon fill="white" stroke="#666666" points="168,-19 0,-19 0,0 168,0 168,-19"/>
<text text-anchor="middle" x="84" y="-7" font-family="Helvetica,sans-Serif" font-size="10.00">xiiExposedParametersAttribute</text>
</a>
</g>
</g>
<!-- Node1&#45;&gt;Node5 -->
<g id="edge4_Node000001_Node000005" class="edge">
<title>Node1&#45;&gt;Node5</title>
<g id="a_edge4_Node000001_Node000005"><a xlink:title=" ">
<path fill="none" stroke="#63b8ff" d="M146.43,-49.42C131,-39.81 111.05,-27.37 97.91,-19.17"/>
<polygon fill="#63b8ff" stroke="#63b8ff" points="145.01,-52.66 155.34,-54.98 148.71,-46.72 145.01,-52.66"/>
</a>
</g>
</g>
<!-- Node6 -->
<g id="Node000006" class="node">
<title>Node6</title>
<g id="a_Node000006"><a xlink:href="../../d6/d01/classxii_tag_set_widget_attribute.html" target="_top" xlink:title="Add this attribute to a tag set member property to make it use the tag set editor and define the cate...">
<polygon fill="white" stroke="#666666" points="324,-19 186,-19 186,0 324,0 324,-19"/>
<text text-anchor="middle" x="255" y="-7" font-family="Helvetica,sans-Serif" font-size="10.00">xiiTagSetWidgetAttribute</text>
</a>
</g>
</g>
<!-- Node1&#45;&gt;Node6 -->
<g id="edge5_Node000001_Node000006" class="edge">
<title>Node1&#45;&gt;Node6</title>
<g id="a_edge5_Node000001_Node000006"><a xlink:title=" ">
<path fill="none" stroke="#63b8ff" d="M191.4,-49.7C207.07,-40.04 227.51,-27.44 240.93,-19.17"/>
<polygon fill="#63b8ff" stroke="#63b8ff" points="189.49,-46.76 182.82,-54.98 193.17,-52.72 189.49,-46.76"/>
</a>
</g>
</g>
<!-- Node2 -->
<g id="Node000002" class="node">
<title>Node2</title>
<g id="a_Node000002"><a xlink:href="../../d5/df0/classxii_property_attribute.html" target="_top" xlink:title="Base class of all attributes can be used to decorate a RTTI property.">
<polygon fill="white" stroke="#666666" points="225.5,-129 112.5,-129 112.5,-110 225.5,-110 225.5,-129"/>
<text text-anchor="middle" x="169" y="-117" font-family="Helvetica,sans-Serif" font-size="10.00">xiiPropertyAttribute</text>
</a>
</g>
</g>
<!-- Node2&#45;&gt;Node1 -->
<g id="edge1_Node000001_Node000002" class="edge">
<title>Node2&#45;&gt;Node1</title>
<g id="a_edge1_Node000001_Node000002"><a xlink:title=" ">
<path fill="none" stroke="#63b8ff" d="M169,-99.66C169,-90.93 169,-80.99 169,-74.09"/>
<polygon fill="#63b8ff" stroke="#63b8ff" points="165.5,-99.75 169,-109.75 172.5,-99.75 165.5,-99.75"/>
</a>
</g>
</g>
<!-- Node3 -->
<g id="Node000003" class="node">
<title>Node3</title>
<g id="a_Node000003"><a xlink:href="../../dc/d71/classxii_reflected_class.html" target="_top" xlink:title="All classes that should be dynamically reflectable, need to be derived from this base class.">
<polygon fill="white" stroke="#666666" points="219.5,-184 118.5,-184 118.5,-165 219.5,-165 219.5,-184"/>
<text text-anchor="middle" x="169" y="-172" font-family="Helvetica,sans-Serif" font-size="10.00">xiiReflectedClass</text>
</a>
</g>
</g>
<!-- Node3&#45;&gt;Node2 -->
<g id="edge2_Node000002_Node000003" class="edge">
<title>Node3&#45;&gt;Node2</title>
<g id="a_edge2_Node000002_Node000003"><a xlink:title=" ">
<path fill="none" stroke="#63b8ff" d="M169,-154.66C169,-145.93 169,-135.99 169,-129.09"/>
<polygon fill="#63b8ff" stroke="#63b8ff" points="165.5,-154.75 169,-164.75 172.5,-154.75 165.5,-154.75"/>
</a>
</g>
</g>
<!-- Node4 -->
<g id="Node000004" class="node">
<title>Node4</title>
<g id="a_Node000004"><a xlink:href="../../d2/d38/classxii_no_base.html" target="_top" xlink:title="Dummy type to pass to templates and macros that expect a base type for a class that has no base.">
<polygon fill="white" stroke="#666666" points="202,-239 136,-239 136,-220 202,-220 202,-239"/>
<text text-anchor="middle" x="169" y="-227" font-family="Helvetica,sans-Serif" font-size="10.00">xiiNoBase</text>
</a>
</g>
</g>
<!-- Node4&#45;&gt;Node3 -->
<g id="edge3_Node000003_Node000004" class="edge">
<title>Node4&#45;&gt;Node3</title>
<g id="a_edge3_Node000003_Node000004"><a xlink:title=" ">
<path fill="none" stroke="#63b8ff" d="M169,-209.66C169,-200.93 169,-190.99 169,-184.09"/>
<polygon fill="#63b8ff" stroke="#63b8ff" points="165.5,-209.75 169,-219.75 172.5,-209.75 165.5,-209.75"/>
</a>
</g>
</g>
</g>
</svg>
