<?xml version="1.0" encoding="UTF-8" standalone="no"?>
<!DOCTYPE svg PUBLIC "-//W3C//DTD SVG 1.1//EN"
 "http://www.w3.org/Graphics/SVG/1.1/DTD/svg11.dtd">
<!-- Generated by graphviz version 2.43.0 (0)
 -->
<!-- Title: xiiContainerWidgetAttribute Pages: 1 -->
<svg width="332pt" height="252pt"
 viewBox="0.00 0.00 332.00 252.00" xmlns="http://www.w3.org/2000/svg" xmlns:xlink="http://www.w3.org/1999/xlink">
<g id="graph0" class="graph" transform="scale(1 1) rotate(0) translate(4 248)">
<title>xiiContainerWidgetAttribute</title>
<polygon fill="white" stroke="transparent" points="-4,4 -4,-248 328,-248 328,4 -4,4"/>
<!-- Node1 -->
<g id="node1" class="node">
<title>Node1</title>
<g id="a_node1"><a xlink:title="Derive from this class if you want to define an attribute that replaces the property widget of contai...">
<polygon fill="#bfbfbf" stroke="black" points="92.5,-56.5 92.5,-75.5 245.5,-75.5 245.5,-56.5 92.5,-56.5"/>
<text text-anchor="middle" x="169" y="-63.5" font-family="Helvetica,sans-Serif" font-size="10.00">xiiContainerWidgetAttribute</text>
</a>
</g>
</g>
<!-- Node5 -->
<g id="node5" class="node">
<title>Node5</title>
<g id="a_node5"><a xlink:href="../../d6/d8c/classxii_exposed_parameters_attribute.htm" target="_top" xlink:title="Add this attribute to a variant map property to make it map to the exposed parameters of an asset....">
<polygon fill="white" stroke="black" points="0,-0.5 0,-19.5 168,-19.5 168,-0.5 0,-0.5"/>
<text text-anchor="middle" x="84" y="-7.5" font-family="Helvetica,sans-Serif" font-size="10.00">xiiExposedParametersAttribute</text>
</a>
</g>
</g>
<!-- Node1&#45;&gt;Node5 -->
<g id="edge4" class="edge">
<title>Node1&#45;&gt;Node5</title>
<path fill="none" stroke="midnightblue" d="M146.81,-50.9C131.22,-41 110.87,-28.07 97.62,-19.65"/>
<polygon fill="midnightblue" stroke="midnightblue" points="145.03,-53.92 155.34,-56.32 148.78,-48.01 145.03,-53.92"/>
</g>
<!-- Node6 -->
<g id="node6" class="node">
<title>Node6</title>
<g id="a_node6"><a xlink:href="../../d6/d01/classxii_tag_set_widget_attribute.htm" target="_top" xlink:title="Add this attribute to a tag set member property to make it use the tag set editor and define the cate...">
<polygon fill="white" stroke="black" points="186,-0.5 186,-19.5 324,-19.5 324,-0.5 186,-0.5"/>
<text text-anchor="middle" x="255" y="-7.5" font-family="Helvetica,sans-Serif" font-size="10.00">xiiTagSetWidgetAttribute</text>
</a>
</g>
</g>
<!-- Node1&#45;&gt;Node6 -->
<g id="edge5" class="edge">
<title>Node1&#45;&gt;Node6</title>
<path fill="none" stroke="midnightblue" d="M191.45,-50.9C207.22,-41 227.81,-28.07 241.22,-19.65"/>
<polygon fill="midnightblue" stroke="midnightblue" points="189.43,-48.04 182.82,-56.32 193.15,-53.97 189.43,-48.04"/>
</g>
<!-- Node2 -->
<g id="node2" class="node">
<title>Node2</title>
<g id="a_node2"><a xlink:href="../../d5/df0/classxii_property_attribute.htm" target="_top" xlink:title="Base class of all attributes can be used to decorate a RTTI property.">
<polygon fill="white" stroke="black" points="112.5,-112.5 112.5,-131.5 225.5,-131.5 225.5,-112.5 112.5,-112.5"/>
<text text-anchor="middle" x="169" y="-119.5" font-family="Helvetica,sans-Serif" font-size="10.00">xiiPropertyAttribute</text>
</a>
</g>
</g>
<!-- Node2&#45;&gt;Node1 -->
<g id="edge1" class="edge">
<title>Node2&#45;&gt;Node1</title>
<path fill="none" stroke="midnightblue" d="M169,-101.8C169,-92.91 169,-82.78 169,-75.75"/>
<polygon fill="midnightblue" stroke="midnightblue" points="165.5,-102.08 169,-112.08 172.5,-102.08 165.5,-102.08"/>
</g>
<!-- Node3 -->
<g id="node3" class="node">
<title>Node3</title>
<g id="a_node3"><a xlink:href="../../dc/d71/classxii_reflected_class.htm" target="_top" xlink:title="All classes that should be dynamically reflectable, need to be derived from this base class.">
<polygon fill="white" stroke="black" points="118.5,-168.5 118.5,-187.5 219.5,-187.5 219.5,-168.5 118.5,-168.5"/>
<text text-anchor="middle" x="169" y="-175.5" font-family="Helvetica,sans-Serif" font-size="10.00">xiiReflectedClass</text>
</a>
</g>
</g>
<!-- Node3&#45;&gt;Node2 -->
<g id="edge2" class="edge">
<title>Node3&#45;&gt;Node2</title>
<path fill="none" stroke="midnightblue" d="M169,-157.8C169,-148.91 169,-138.78 169,-131.75"/>
<polygon fill="midnightblue" stroke="midnightblue" points="165.5,-158.08 169,-168.08 172.5,-158.08 165.5,-158.08"/>
</g>
<!-- Node4 -->
<g id="node4" class="node">
<title>Node4</title>
<g id="a_node4"><a xlink:href="../../d2/d38/classxii_no_base.htm" target="_top" xlink:title="Dummy type to pass to templates and macros that expect a base type for a class that has no base.">
<polygon fill="white" stroke="black" points="136,-224.5 136,-243.5 202,-243.5 202,-224.5 136,-224.5"/>
<text text-anchor="middle" x="169" y="-231.5" font-family="Helvetica,sans-Serif" font-size="10.00">xiiNoBase</text>
</a>
</g>
</g>
<!-- Node4&#45;&gt;Node3 -->
<g id="edge3" class="edge">
<title>Node4&#45;&gt;Node3</title>
<path fill="none" stroke="midnightblue" d="M169,-213.8C169,-204.91 169,-194.78 169,-187.75"/>
<polygon fill="midnightblue" stroke="midnightblue" points="165.5,-214.08 169,-224.08 172.5,-214.08 165.5,-214.08"/>
</g>
</g>
</svg>
