<?xml version="1.0" encoding="UTF-8" standalone="no"?>
<!DOCTYPE svg PUBLIC "-//W3C//DTD SVG 1.1//EN"
 "http://www.w3.org/Graphics/SVG/1.1/DTD/svg11.dtd">
<!-- Generated by graphviz version 2.43.0 (0)
 -->
<!-- Title: xiiCameraSpeedSliderAction Pages: 1 -->
<svg width="163pt" height="308pt"
 viewBox="0.00 0.00 163.00 308.00" xmlns="http://www.w3.org/2000/svg" xmlns:xlink="http://www.w3.org/1999/xlink">
<g id="graph0" class="graph" transform="scale(1 1) rotate(0) translate(4 304)">
<title>xiiCameraSpeedSliderAction</title>
<polygon fill="white" stroke="transparent" points="-4,4 -4,-304 159,-304 159,4 -4,4"/>
<!-- Node1 -->
<g id="node1" class="node">
<title>Node1</title>
<g id="a_node1"><a xlink:title=" ">
<polygon fill="#bfbfbf" stroke="black" points="0,-0.5 0,-19.5 155,-19.5 155,-0.5 0,-0.5"/>
<text text-anchor="middle" x="77.5" y="-7.5" font-family="Helvetica,sans-Serif" font-size="10.00">xiiCameraSpeedSliderAction</text>
</a>
</g>
</g>
<!-- Node2 -->
<g id="node2" class="node">
<title>Node2</title>
<g id="a_node2"><a xlink:href="../../d0/df6/classxii_slider_action.htm" target="_top" xlink:title=" ">
<polygon fill="white" stroke="black" points="34,-56.5 34,-75.5 121,-75.5 121,-56.5 34,-56.5"/>
<text text-anchor="middle" x="77.5" y="-63.5" font-family="Helvetica,sans-Serif" font-size="10.00">xiiSliderAction</text>
</a>
</g>
</g>
<!-- Node2&#45;&gt;Node1 -->
<g id="edge1" class="edge">
<title>Node2&#45;&gt;Node1</title>
<path fill="none" stroke="midnightblue" d="M77.5,-45.8C77.5,-36.91 77.5,-26.78 77.5,-19.75"/>
<polygon fill="midnightblue" stroke="midnightblue" points="74,-46.08 77.5,-56.08 81,-46.08 74,-46.08"/>
</g>
<!-- Node3 -->
<g id="node3" class="node">
<title>Node3</title>
<g id="a_node3"><a xlink:href="../../d3/d7a/classxii_named_action.htm" target="_top" xlink:title=" ">
<polygon fill="white" stroke="black" points="30,-112.5 30,-131.5 125,-131.5 125,-112.5 30,-112.5"/>
<text text-anchor="middle" x="77.5" y="-119.5" font-family="Helvetica,sans-Serif" font-size="10.00">xiiNamedAction</text>
</a>
</g>
</g>
<!-- Node3&#45;&gt;Node2 -->
<g id="edge2" class="edge">
<title>Node3&#45;&gt;Node2</title>
<path fill="none" stroke="midnightblue" d="M77.5,-101.8C77.5,-92.91 77.5,-82.78 77.5,-75.75"/>
<polygon fill="midnightblue" stroke="midnightblue" points="74,-102.08 77.5,-112.08 81,-102.08 74,-102.08"/>
</g>
<!-- Node4 -->
<g id="node4" class="node">
<title>Node4</title>
<g id="a_node4"><a xlink:href="../../d8/d30/classxii_action.htm" target="_top" xlink:title=" ">
<polygon fill="white" stroke="black" points="48,-168.5 48,-187.5 107,-187.5 107,-168.5 48,-168.5"/>
<text text-anchor="middle" x="77.5" y="-175.5" font-family="Helvetica,sans-Serif" font-size="10.00">xiiAction</text>
</a>
</g>
</g>
<!-- Node4&#45;&gt;Node3 -->
<g id="edge3" class="edge">
<title>Node4&#45;&gt;Node3</title>
<path fill="none" stroke="midnightblue" d="M77.5,-157.8C77.5,-148.91 77.5,-138.78 77.5,-131.75"/>
<polygon fill="midnightblue" stroke="midnightblue" points="74,-158.08 77.5,-168.08 81,-158.08 74,-158.08"/>
</g>
<!-- Node5 -->
<g id="node5" class="node">
<title>Node5</title>
<g id="a_node5"><a xlink:href="../../dc/d71/classxii_reflected_class.htm" target="_top" xlink:title="All classes that should be dynamically reflectable, need to be derived from this base class.">
<polygon fill="white" stroke="black" points="27,-224.5 27,-243.5 128,-243.5 128,-224.5 27,-224.5"/>
<text text-anchor="middle" x="77.5" y="-231.5" font-family="Helvetica,sans-Serif" font-size="10.00">xiiReflectedClass</text>
</a>
</g>
</g>
<!-- Node5&#45;&gt;Node4 -->
<g id="edge4" class="edge">
<title>Node5&#45;&gt;Node4</title>
<path fill="none" stroke="midnightblue" d="M77.5,-213.8C77.5,-204.91 77.5,-194.78 77.5,-187.75"/>
<polygon fill="midnightblue" stroke="midnightblue" points="74,-214.08 77.5,-224.08 81,-214.08 74,-214.08"/>
</g>
<!-- Node6 -->
<g id="node6" class="node">
<title>Node6</title>
<g id="a_node6"><a xlink:href="../../d2/d38/classxii_no_base.htm" target="_top" xlink:title="Dummy type to pass to templates and macros that expect a base type for a class that has no base.">
<polygon fill="white" stroke="black" points="44.5,-280.5 44.5,-299.5 110.5,-299.5 110.5,-280.5 44.5,-280.5"/>
<text text-anchor="middle" x="77.5" y="-287.5" font-family="Helvetica,sans-Serif" font-size="10.00">xiiNoBase</text>
</a>
</g>
</g>
<!-- Node6&#45;&gt;Node5 -->
<g id="edge5" class="edge">
<title>Node6&#45;&gt;Node5</title>
<path fill="none" stroke="midnightblue" d="M77.5,-269.8C77.5,-260.91 77.5,-250.78 77.5,-243.75"/>
<polygon fill="midnightblue" stroke="midnightblue" points="74,-270.08 77.5,-280.08 81,-270.08 74,-270.08"/>
</g>
</g>
</svg>
