<?xml version="1.0" encoding="UTF-8" standalone="no"?>
<!DOCTYPE svg PUBLIC "-//W3C//DTD SVG 1.1//EN"
 "http://www.w3.org/Graphics/SVG/1.1/DTD/svg11.dtd">
<!-- Generated by graphviz version 2.43.0 (0)
 -->
<!-- Title: xiiVarianceTypeBaseFloat Pages: 1 -->
<svg width="266pt" height="84pt"
 viewBox="0.00 0.00 265.50 84.00" xmlns="http://www.w3.org/2000/svg" xmlns:xlink="http://www.w3.org/1999/xlink">
<g id="graph0" class="graph" transform="scale(1 1) rotate(0) translate(4 80)">
<title>xiiVarianceTypeBaseFloat</title>
<polygon fill="white" stroke="transparent" points="-4,4 -4,-80 261.5,-80 261.5,4 -4,4"/>
<!-- Node1 -->
<g id="node1" class="node">
<title>Node1</title>
<g id="a_node1"><a xlink:title=" ">
<polygon fill="#bfbfbf" stroke="black" points="58.5,-56.5 58.5,-75.5 200.5,-75.5 200.5,-56.5 58.5,-56.5"/>
<text text-anchor="middle" x="129.5" y="-63.5" font-family="Helvetica,sans-Serif" font-size="10.00">xiiVarianceTypeBaseFloat</text>
</a>
</g>
</g>
<!-- Node2 -->
<g id="node2" class="node">
<title>Node2</title>
<g id="a_node2"><a xlink:href="../../db/d67/structxii_variance_type_angle.htm" target="_top" xlink:title=" ">
<polygon fill="white" stroke="black" points="0,-0.5 0,-19.5 121,-19.5 121,-0.5 0,-0.5"/>
<text text-anchor="middle" x="60.5" y="-7.5" font-family="Helvetica,sans-Serif" font-size="10.00">xiiVarianceTypeAngle</text>
</a>
</g>
</g>
<!-- Node1&#45;&gt;Node2 -->
<g id="edge1" class="edge">
<title>Node1&#45;&gt;Node2</title>
<path fill="none" stroke="midnightblue" d="M110.46,-50.1C98.04,-40.38 82.26,-28.03 71.79,-19.83"/>
<polygon fill="midnightblue" stroke="midnightblue" points="108.38,-52.92 118.41,-56.32 112.7,-47.4 108.38,-52.92"/>
</g>
<!-- Node3 -->
<g id="node3" class="node">
<title>Node3</title>
<g id="a_node3"><a xlink:href="../../d5/d76/structxii_variance_type_float.htm" target="_top" xlink:title=" ">
<polygon fill="white" stroke="black" points="139.5,-0.5 139.5,-19.5 257.5,-19.5 257.5,-0.5 139.5,-0.5"/>
<text text-anchor="middle" x="198.5" y="-7.5" font-family="Helvetica,sans-Serif" font-size="10.00">xiiVarianceTypeFloat</text>
</a>
</g>
</g>
<!-- Node1&#45;&gt;Node3 -->
<g id="edge2" class="edge">
<title>Node1&#45;&gt;Node3</title>
<path fill="none" stroke="midnightblue" d="M148.54,-50.1C160.96,-40.38 176.74,-28.03 187.21,-19.83"/>
<polygon fill="midnightblue" stroke="midnightblue" points="146.3,-47.4 140.59,-56.32 150.62,-52.92 146.3,-47.4"/>
</g>
</g>
</svg>
