<?xml version="1.0" encoding="UTF-8" standalone="no"?>
<!DOCTYPE svg PUBLIC "-//W3C//DTD SVG 1.1//EN"
 "http://www.w3.org/Graphics/SVG/1.1/DTD/svg11.dtd">
<!-- Generated by graphviz version 2.43.0 (0)
 -->
<!-- Title: xiiDelegateBase Pages: 1 -->
<!--zoomable 2125 -->

<svg id="main" version="1.1" xmlns="http://www.w3.org/2000/svg" xmlns:xlink="http://www.w3.org/1999/xlink" xml:space="preserve" onload="init(evt)">
<style type="text/css"><![CDATA[
.node, .edge {opacity: 0.7;}
.node.selected, .edge.selected {opacity: 1;}
.edge:hover path { stroke: red; }
.edge:hover polygon { stroke: red; fill: red; }
]]></style>

<defs>
  <circle id="rim" cx="0" cy="0" r="7"/>
  <circle id="rim2" cx="0" cy="0" r="3.5"/>
  <g id="zoomPlus">
    <use xlink:href="#rim" fill="#404040"><set attributeName="fill" to="#808080" begin="zoomplus.mouseover" end="zoomplus.mouseout"/></use>
    <path d="M-4,0h8M0,-4v8" fill="none" stroke="white" stroke-width="1.5" pointer-events="none"/>
  </g>
  <g id="zoomMin">
    <use xlink:href="#rim" fill="#404040"><set attributeName="fill" to="#808080" begin="zoomminus.mouseover" end="zoomminus.mouseout"/></use>
    <path d="M-4,0h8" fill="none" stroke="white" stroke-width="1.5" pointer-events="none"/>
  </g>
  <g id="arrowUp" transform="translate(30 24)">
    <use xlink:href="#rim"/>
    <path pointer-events="none" fill="none" stroke="white" stroke-width="1.5" d="M0,-3.0v7 M-2.5,-0.5L0,-3.0L2.5,-0.5"/>
  </g>
  <g id="arrowRight" transform="rotate(90) translate(36 -43)">
    <use xlink:href="#rim"/>
    <path pointer-events="none" fill="none" stroke="white" stroke-width="1.5" d="M0,-3.0v7 M-2.5,-0.5L0,-3.0L2.5,-0.5"/>
  </g>
  <g id="arrowDown" transform="rotate(180) translate(-30 -48)">
    <use xlink:href="#rim"/>
    <path pointer-events="none" fill="none" stroke="white" stroke-width="1.5" d="M0,-3.0v7 M-2.5,-0.5L0,-3.0L2.5,-0.5"/>
  </g>
  <g id="arrowLeft" transform="rotate(270) translate(-36 17)">
    <use xlink:href="#rim"/>
    <path pointer-events="none" fill="none" stroke="white" stroke-width="1.5" d="M0,-3.0v7 M-2.5,-0.5L0,-3.0L2.5,-0.5"/>
  </g>
  <g id="resetDef">
    <use xlink:href="#rim2" fill="#404040"><set attributeName="fill" to="#808080" begin="reset.mouseover" end="reset.mouseout"/></use>
  </g>
</defs>
<script type="application/ecmascript">
var viewWidth = 383;
var viewHeight = 2125;
var sectionId = 'dynsection-0';
</script>
<script type="application/ecmascript" xlink:href="../../svg.min.js"/>
<svg id="graph" class="graph">
<g id="viewport">
<title>xiiDelegateBase</title>
<!-- Node1 -->
<g id="Node000001" class="node">
<title>Node1</title>
<g id="a_Node000001"><a xlink:title="Base class for xiiDelegate.">
<polygon fill="#999999" stroke="#666666" points="97,-1081.5 0,-1081.5 0,-1062.5 97,-1062.5 97,-1081.5"/>
<text text-anchor="middle" x="48.5" y="-1069.5" font-family="Helvetica,sans-Serif" font-size="10.00">xiiDelegateBase</text>
</a>
</g>
</g>
<!-- Node2 -->
<g id="Node000002" class="node">
<title>Node2</title>
<g id="a_Node000002"><a xlink:href="../../dc/d84/structxii_delegate.html" target="_top" xlink:title=" ">
<polygon fill="white" stroke="#666666" points="325.5,-2116.5 182.5,-2116.5 182.5,-2097.5 325.5,-2097.5 325.5,-2116.5"/>
<text text-anchor="middle" x="254" y="-2104.5" font-family="Helvetica,sans-Serif" font-size="10.00">xiiDelegate&lt; ElemType &gt;</text>
</a>
</g>
</g>
<!-- Node1&#45;&gt;Node2 -->
<g id="edge1_Node000001_Node000002" class="edge">
<title>Node1&#45;&gt;Node2</title>
<g id="a_edge1_Node000001_Node000002"><a xlink:title=" ">
<path fill="none" stroke="#63b8ff" d="M49.69,-1091.66C51.14,-1226.53 62.61,-2012.12 133,-2088 145.7,-2101.69 163.95,-2108.18 182.41,-2110.82"/>
<polygon fill="#63b8ff" stroke="#63b8ff" points="53.18,-1091.52 49.58,-1081.56 46.18,-1091.59 53.18,-1091.52"/>
</a>
</g>
</g>
<!-- Node3 -->
<g id="Node000003" class="node">
<title>Node3</title>
<g id="a_Node000003"><a xlink:href="../../dc/d84/structxii_delegate.html" target="_top" xlink:title=" ">
<polygon fill="white" stroke="#666666" points="356,-2079 152,-2079 152,-2027 356,-2027 356,-2079"/>
<text text-anchor="start" x="160" y="-2067" font-family="Helvetica,sans-Serif" font-size="10.00">xiiDelegate&lt; xiiInternal</text>
<text text-anchor="start" x="160" y="-2056" font-family="Helvetica,sans-Serif" font-size="10.00">::NewInstance&lt; xiiGALDevice</text>
<text text-anchor="start" x="160" y="-2045" font-family="Helvetica,sans-Serif" font-size="10.00"> &gt;(xiiAllocatorBase *, const</text>
<text text-anchor="middle" x="254" y="-2034" font-family="Helvetica,sans-Serif" font-size="10.00"> xiiGALDeviceCreationDescription &amp;)&gt;</text>
</a>
</g>
</g>
<!-- Node1&#45;&gt;Node3 -->
<g id="edge2_Node000001_Node000003" class="edge">
<title>Node1&#45;&gt;Node3</title>
<g id="a_edge2_Node000001_Node000003"><a xlink:title=" ">
<path fill="none" stroke="#63b8ff" d="M49.93,-1091.79C52.88,-1221.21 72.06,-1943.79 133,-2018 138.3,-2024.46 144.72,-2029.76 151.81,-2034.12"/>
<polygon fill="#63b8ff" stroke="#63b8ff" points="53.42,-1091.65 49.7,-1081.73 46.43,-1091.8 53.42,-1091.65"/>
</a>
</g>
</g>
<!-- Node4 -->
<g id="Node000004" class="node">
<title>Node4</title>
<g id="a_Node000004"><a xlink:href="../../dc/d84/structxii_delegate.html" target="_top" xlink:title=" ">
<polygon fill="white" stroke="#666666" points="339.5,-2009 168.5,-2009 168.5,-1979 339.5,-1979 339.5,-2009"/>
<text text-anchor="start" x="176.5" y="-1997" font-family="Helvetica,sans-Serif" font-size="10.00">xiiDelegate&lt; void(xiiDocument</text>
<text text-anchor="middle" x="254" y="-1986" font-family="Helvetica,sans-Serif" font-size="10.00"> *, xiiStatus)&gt;</text>
</a>
</g>
</g>
<!-- Node1&#45;&gt;Node4 -->
<g id="edge3_Node000001_Node000004" class="edge">
<title>Node1&#45;&gt;Node4</title>
<g id="a_edge3_Node000001_Node000004"><a xlink:title=" ">
<path fill="none" stroke="#63b8ff" d="M49.94,-1091.62C52.95,-1216.93 72.1,-1902.37 133,-1970 142.38,-1980.42 154.9,-1987.06 168.32,-1991.18"/>
<polygon fill="#63b8ff" stroke="#63b8ff" points="53.44,-1091.47 49.71,-1081.55 46.44,-1091.63 53.44,-1091.47"/>
</a>
</g>
</g>
<!-- Node5 -->
<g id="Node000005" class="node">
<title>Node5</title>
<g id="a_Node000005"><a xlink:href="../../dc/d84/structxii_delegate.html" target="_top" xlink:title=" ">
<polygon fill="white" stroke="#666666" points="321.5,-1961 186.5,-1961 186.5,-1931 321.5,-1931 321.5,-1961"/>
<text text-anchor="start" x="194.5" y="-1949" font-family="Helvetica,sans-Serif" font-size="10.00">xiiDelegate&lt; R(XII</text>
<text text-anchor="middle" x="254" y="-1938" font-family="Helvetica,sans-Serif" font-size="10.00">_LIST(P, ARG_COUNT))&gt;</text>
</a>
</g>
</g>
<!-- Node1&#45;&gt;Node5 -->
<g id="edge4_Node000001_Node000005" class="edge">
<title>Node1&#45;&gt;Node5</title>
<g id="a_edge4_Node000001_Node000005"><a xlink:title=" ">
<path fill="none" stroke="#63b8ff" d="M50.05,-1091.69C53.64,-1213.21 75.34,-1858.3 133,-1922 146.54,-1936.96 166.56,-1944.13 186.38,-1947.22"/>
<polygon fill="#63b8ff" stroke="#63b8ff" points="53.55,-1091.49 49.76,-1081.6 46.55,-1091.69 53.55,-1091.49"/>
</a>
</g>
</g>
<!-- Node6 -->
<g id="Node000006" class="node">
<title>Node6</title>
<g id="a_Node000006"><a xlink:href="../../dc/d84/structxii_delegate.html" target="_top" xlink:title=" ">
<polygon fill="white" stroke="#666666" points="321.5,-1913 186.5,-1913 186.5,-1883 321.5,-1883 321.5,-1913"/>
<text text-anchor="start" x="194.5" y="-1901" font-family="Helvetica,sans-Serif" font-size="10.00">xiiDelegate&lt; void(const</text>
<text text-anchor="middle" x="254" y="-1890" font-family="Helvetica,sans-Serif" font-size="10.00"> T &amp;)&gt;</text>
</a>
</g>
</g>
<!-- Node1&#45;&gt;Node6 -->
<g id="edge5_Node000001_Node000006" class="edge">
<title>Node1&#45;&gt;Node6</title>
<g id="a_edge5_Node000001_Node000006"><a xlink:title=" ">
<path fill="none" stroke="#63b8ff" d="M50.17,-1091.66C54.37,-1209.02 78.56,-1814.21 133,-1874 146.59,-1888.92 166.62,-1896.08 186.43,-1899.17"/>
<polygon fill="#63b8ff" stroke="#63b8ff" points="53.67,-1091.46 49.82,-1081.59 46.67,-1091.71 53.67,-1091.46"/>
</a>
</g>
</g>
<!-- Node7 -->
<g id="Node000007" class="node">
<title>Node7</title>
<g id="a_Node000007"><a xlink:href="../../dc/d84/structxii_delegate.html" target="_top" xlink:title=" ">
<polygon fill="white" stroke="#666666" points="314.5,-1864.5 193.5,-1864.5 193.5,-1845.5 314.5,-1845.5 314.5,-1864.5"/>
<text text-anchor="middle" x="254" y="-1852.5" font-family="Helvetica,sans-Serif" font-size="10.00">xiiDelegate&lt; void()&gt;</text>
</a>
</g>
</g>
<!-- Node1&#45;&gt;Node7 -->
<g id="edge6_Node000001_Node000007" class="edge">
<title>Node1&#45;&gt;Node7</title>
<g id="a_edge6_Node000001_Node000007"><a xlink:title=" ">
<path fill="none" stroke="#63b8ff" d="M50.24,-1091.85C54.72,-1206.55 79.7,-1781.52 133,-1837 148.4,-1853.03 171.48,-1858.9 193.31,-1860.27"/>
<polygon fill="#63b8ff" stroke="#63b8ff" points="53.73,-1091.55 49.85,-1081.7 46.74,-1091.82 53.73,-1091.55"/>
</a>
</g>
</g>
<!-- Node8 -->
<g id="Node000008" class="node">
<title>Node8</title>
<g id="a_Node000008"><a xlink:href="../../dc/d84/structxii_delegate.html" target="_top" xlink:title=" ">
<polygon fill="white" stroke="#666666" points="335.5,-1827.5 172.5,-1827.5 172.5,-1786.5 335.5,-1786.5 335.5,-1827.5"/>
<text text-anchor="start" x="180.5" y="-1815.5" font-family="Helvetica,sans-Serif" font-size="10.00">xiiDelegate&lt; bool(const</text>
<text text-anchor="start" x="180.5" y="-1804.5" font-family="Helvetica,sans-Serif" font-size="10.00"> xiiDocumentObject *,</text>
<text text-anchor="middle" x="254" y="-1793.5" font-family="Helvetica,sans-Serif" font-size="10.00"> const xiiAbstractProperty *)&gt;</text>
</a>
</g>
</g>
<!-- Node1&#45;&gt;Node8 -->
<g id="edge7_Node000001_Node000008" class="edge">
<title>Node1&#45;&gt;Node8</title>
<g id="a_edge7_Node000001_Node000008"><a xlink:title=" ">
<path fill="none" stroke="#63b8ff" d="M50.51,-1091.92C56.25,-1201.23 86.07,-1725.11 133,-1778 143.31,-1789.62 157.41,-1796.99 172.32,-1801.58"/>
<polygon fill="#63b8ff" stroke="#63b8ff" points="54,-1091.47 49.98,-1081.67 47.01,-1091.84 54,-1091.47"/>
</a>
</g>
</g>
<!-- Node9 -->
<g id="Node000009" class="node">
<title>Node9</title>
<g id="a_Node000009"><a xlink:href="../../dc/d84/structxii_delegate.html" target="_top" xlink:title=" ">
<polygon fill="white" stroke="#666666" points="321.5,-1768.5 186.5,-1768.5 186.5,-1727.5 321.5,-1727.5 321.5,-1768.5"/>
<text text-anchor="start" x="194.5" y="-1756.5" font-family="Helvetica,sans-Serif" font-size="10.00">xiiDelegate&lt; bool(const</text>
<text text-anchor="start" x="194.5" y="-1745.5" font-family="Helvetica,sans-Serif" font-size="10.00"> xiiDocumentObject *,</text>
<text text-anchor="middle" x="254" y="-1734.5" font-family="Helvetica,sans-Serif" font-size="10.00"> xiiStringView)&gt;</text>
</a>
</g>
</g>
<!-- Node1&#45;&gt;Node9 -->
<g id="edge8_Node000001_Node000009" class="edge">
<title>Node1&#45;&gt;Node9</title>
<g id="a_edge8_Node000001_Node000009"><a xlink:title=" ">
<path fill="none" stroke="#63b8ff" d="M49.16,-1091.95C47.9,-1190.4 47.36,-1623.49 133,-1719 146.59,-1734.16 166.62,-1742.06 186.44,-1746"/>
<polygon fill="#63b8ff" stroke="#63b8ff" points="52.66,-1091.92 49.31,-1081.87 45.66,-1091.82 52.66,-1091.92"/>
</a>
</g>
</g>
<!-- Node10 -->
<g id="Node000010" class="node">
<title>Node10</title>
<g id="a_Node000010"><a xlink:href="../../dc/d84/structxii_delegate.html" target="_top" xlink:title=" ">
<polygon fill="white" stroke="#666666" points="352,-1709.5 156,-1709.5 156,-1668.5 352,-1668.5 352,-1709.5"/>
<text text-anchor="start" x="164" y="-1697.5" font-family="Helvetica,sans-Serif" font-size="10.00">xiiDelegate&lt; void(xiiString</text>
<text text-anchor="start" x="164" y="-1686.5" font-family="Helvetica,sans-Serif" font-size="10.00">View sEnumName, xiiDynamicString</text>
<text text-anchor="middle" x="254" y="-1675.5" font-family="Helvetica,sans-Serif" font-size="10.00">Enum &amp;e)&gt;</text>
</a>
</g>
</g>
<!-- Node1&#45;&gt;Node10 -->
<g id="edge9_Node000001_Node000010" class="edge">
<title>Node1&#45;&gt;Node10</title>
<g id="a_edge9_Node000001_Node000010"><a xlink:title=" ">
<path fill="none" stroke="#63b8ff" d="M49.47,-1092.1C49.73,-1185.13 55.51,-1573.03 133,-1659 139.4,-1666.1 147.2,-1671.64 155.72,-1675.94"/>
<polygon fill="#63b8ff" stroke="#63b8ff" points="52.97,-1091.83 49.46,-1081.83 45.97,-1091.83 52.97,-1091.83"/>
</a>
</g>
</g>
<!-- Node11 -->
<g id="Node000011" class="node">
<title>Node11</title>
<g id="a_Node000011"><a xlink:href="../../dc/d84/structxii_delegate.html" target="_top" xlink:title=" ">
<polygon fill="white" stroke="#666666" points="328.5,-1650 179.5,-1650 179.5,-1620 328.5,-1620 328.5,-1650"/>
<text text-anchor="start" x="187.5" y="-1638" font-family="Helvetica,sans-Serif" font-size="10.00">xiiDelegate&lt; void(xiiEditor</text>
<text text-anchor="middle" x="254" y="-1627" font-family="Helvetica,sans-Serif" font-size="10.00">EngineSyncObject *)&gt;</text>
</a>
</g>
</g>
<!-- Node1&#45;&gt;Node11 -->
<g id="edge10_Node000001_Node000011" class="edge">
<title>Node1&#45;&gt;Node11</title>
<g id="a_edge10_Node000001_Node000011"><a xlink:title=" ">
<path fill="none" stroke="#63b8ff" d="M49.65,-1091.93C50.76,-1180.14 59.76,-1534.49 133,-1611 145.19,-1623.74 162.09,-1630.74 179.37,-1634.39"/>
<polygon fill="#63b8ff" stroke="#63b8ff" points="53.15,-1091.87 49.55,-1081.91 46.15,-1091.94 53.15,-1091.87"/>
</a>
</g>
</g>
<!-- Node12 -->
<g id="Node000012" class="node">
<title>Node12</title>
<g id="a_Node000012"><a xlink:href="../../dc/d84/structxii_delegate.html" target="_top" xlink:title=" ">
<polygon fill="white" stroke="#666666" points="340,-1601.5 168,-1601.5 168,-1582.5 340,-1582.5 340,-1601.5"/>
<text text-anchor="middle" x="254" y="-1589.5" font-family="Helvetica,sans-Serif" font-size="10.00">xiiDelegate&lt; void(EventData)&gt;</text>
</a>
</g>
</g>
<!-- Node1&#45;&gt;Node12 -->
<g id="edge11_Node000001_Node000012" class="edge">
<title>Node1&#45;&gt;Node12</title>
<g id="a_edge11_Node000001_Node000012"><a xlink:title=" ">
<path fill="none" stroke="#63b8ff" d="M49.84,-1091.91C51.69,-1176.36 63.34,-1503.91 133,-1573 142.58,-1582.51 154.88,-1588.45 167.92,-1592.01"/>
<polygon fill="#63b8ff" stroke="#63b8ff" points="53.33,-1091.58 49.63,-1081.65 46.33,-1091.72 53.33,-1091.58"/>
</a>
</g>
</g>
<!-- Node13 -->
<g id="Node000013" class="node">
<title>Node13</title>
<g id="a_Node000013"><a xlink:href="../../dc/d84/structxii_delegate.html" target="_top" xlink:title=" ">
<polygon fill="white" stroke="#666666" points="375,-1564 133,-1564 133,-1534 375,-1534 375,-1564"/>
<text text-anchor="start" x="141" y="-1552" font-family="Helvetica,sans-Serif" font-size="10.00">xiiDelegate&lt; xiiGALDevice</text>
<text text-anchor="middle" x="254" y="-1541" font-family="Helvetica,sans-Serif" font-size="10.00"> *(const xiiGALDeviceCreationDescription &amp;)&gt;</text>
</a>
</g>
</g>
<!-- Node1&#45;&gt;Node13 -->
<g id="edge12_Node000001_Node000013" class="edge">
<title>Node1&#45;&gt;Node13</title>
<g id="a_edge12_Node000001_Node000013"><a xlink:title=" ">
<path fill="none" stroke="#63b8ff" d="M50.3,-1091.93C53.87,-1171.11 71.09,-1462.14 133,-1525 136.28,-1528.33 139.88,-1531.26 143.73,-1533.85"/>
<polygon fill="#63b8ff" stroke="#63b8ff" points="53.79,-1091.68 49.86,-1081.84 46.79,-1091.98 53.79,-1091.68"/>
</a>
</g>
</g>
<!-- Node14 -->
<g id="Node000014" class="node">
<title>Node14</title>
<g id="a_Node000014"><a xlink:href="../../dc/d84/structxii_delegate.html" target="_top" xlink:title=" ">
<polygon fill="white" stroke="#666666" points="329,-1516 179,-1516 179,-1486 329,-1486 329,-1516"/>
<text text-anchor="start" x="187" y="-1504" font-family="Helvetica,sans-Serif" font-size="10.00">xiiDelegate&lt; void(xiiGame</text>
<text text-anchor="middle" x="254" y="-1493" font-family="Helvetica,sans-Serif" font-size="10.00">ObjectEditTool *)&gt;</text>
</a>
</g>
</g>
<!-- Node1&#45;&gt;Node14 -->
<g id="edge13_Node000001_Node000014" class="edge">
<title>Node1&#45;&gt;Node14</title>
<g id="a_edge13_Node000001_Node000014"><a xlink:title=" ">
<path fill="none" stroke="#63b8ff" d="M50.75,-1091.67C55.82,-1165.07 77.3,-1421.63 133,-1477 145.28,-1489.21 161.9,-1496.07 178.86,-1499.76"/>
<polygon fill="#63b8ff" stroke="#63b8ff" points="54.23,-1091.26 50.07,-1081.52 47.25,-1091.73 54.23,-1091.26"/>
</a>
</g>
</g>
<!-- Node15 -->
<g id="Node000015" class="node">
<title>Node15</title>
<g id="a_Node000015"><a xlink:href="../../dc/d84/structxii_delegate.html" target="_top" xlink:title=" ">
<polygon fill="white" stroke="#666666" points="321.5,-1468 186.5,-1468 186.5,-1438 321.5,-1438 321.5,-1468"/>
<text text-anchor="start" x="194.5" y="-1456" font-family="Helvetica,sans-Serif" font-size="10.00">xiiDelegate&lt; bool(const</text>
<text text-anchor="middle" x="254" y="-1445" font-family="Helvetica,sans-Serif" font-size="10.00"> xiiSimdBBox &amp;)&gt;</text>
</a>
</g>
</g>
<!-- Node1&#45;&gt;Node15 -->
<g id="edge14_Node000001_Node000015" class="edge">
<title>Node1&#45;&gt;Node15</title>
<g id="a_edge14_Node000001_Node000015"><a xlink:title=" ">
<path fill="none" stroke="#63b8ff" d="M51.36,-1091.92C58.12,-1159.9 83.61,-1381.18 133,-1429 147.2,-1442.74 166.91,-1449.67 186.27,-1452.92"/>
<polygon fill="#63b8ff" stroke="#63b8ff" points="54.82,-1091.34 50.37,-1081.72 47.85,-1092.01 54.82,-1091.34"/>
</a>
</g>
</g>
<!-- Node16 -->
<g id="Node000016" class="node">
<title>Node16</title>
<g id="a_Node000016"><a xlink:href="../../dc/d84/structxii_delegate.html" target="_top" xlink:title=" ">
<polygon fill="white" stroke="#666666" points="341.5,-1420 166.5,-1420 166.5,-1390 341.5,-1390 341.5,-1420"/>
<text text-anchor="start" x="174.5" y="-1408" font-family="Helvetica,sans-Serif" font-size="10.00">xiiDelegate&lt; xiiVisitorExecution</text>
<text text-anchor="middle" x="254" y="-1397" font-family="Helvetica,sans-Serif" font-size="10.00">::Enum(xiiGameObject *)&gt;</text>
</a>
</g>
</g>
<!-- Node1&#45;&gt;Node16 -->
<g id="edge15_Node000001_Node000016" class="edge">
<title>Node1&#45;&gt;Node16</title>
<g id="a_edge15_Node000001_Node000016"><a xlink:title=" ">
<path fill="none" stroke="#63b8ff" d="M52.09,-1091.6C60.61,-1153.1 89.74,-1340.52 133,-1381 142.39,-1389.78 154.04,-1395.75 166.36,-1399.75"/>
<polygon fill="#63b8ff" stroke="#63b8ff" points="55.55,-1091.09 50.74,-1081.65 48.62,-1092.03 55.55,-1091.09"/>
</a>
</g>
</g>
<!-- Node17 -->
<g id="Node000017" class="node">
<title>Node17</title>
<g id="a_Node000017"><a xlink:href="../../dc/d84/structxii_delegate.html" target="_top" xlink:title=" ">
<polygon fill="white" stroke="#666666" points="348,-1371.5 160,-1371.5 160,-1330.5 348,-1330.5 348,-1371.5"/>
<text text-anchor="start" x="168" y="-1359.5" font-family="Helvetica,sans-Serif" font-size="10.00">xiiDelegate&lt; xiiGameObject</text>
<text text-anchor="start" x="168" y="-1348.5" font-family="Helvetica,sans-Serif" font-size="10.00">Handle(const void *, xiiComponent</text>
<text text-anchor="middle" x="254" y="-1337.5" font-family="Helvetica,sans-Serif" font-size="10.00">Handle, xiiStringView)&gt;</text>
</a>
</g>
</g>
<!-- Node1&#45;&gt;Node17 -->
<g id="edge16_Node000001_Node000017" class="edge">
<title>Node1&#45;&gt;Node17</title>
<g id="a_edge16_Node000001_Node000017"><a xlink:title=" ">
<path fill="none" stroke="#63b8ff" d="M50.02,-1091.67C52.38,-1138.67 65.1,-1258.24 133,-1321 140.81,-1328.22 150.08,-1333.76 159.96,-1338.02"/>
<polygon fill="#63b8ff" stroke="#63b8ff" points="53.52,-1091.45 49.63,-1081.6 46.52,-1091.73 53.52,-1091.45"/>
</a>
</g>
</g>
<!-- Node18 -->
<g id="Node000018" class="node">
<title>Node18</title>
<g id="a_Node000018"><a xlink:href="../../dc/d84/structxii_delegate.html" target="_top" xlink:title=" ">
<polygon fill="white" stroke="#666666" points="321.5,-1312 186.5,-1312 186.5,-1282 321.5,-1282 321.5,-1312"/>
<text text-anchor="start" x="194.5" y="-1300" font-family="Helvetica,sans-Serif" font-size="10.00">xiiDelegate&lt; void(const</text>
<text text-anchor="middle" x="254" y="-1289" font-family="Helvetica,sans-Serif" font-size="10.00"> UpdateContext &amp;)&gt;</text>
</a>
</g>
</g>
<!-- Node1&#45;&gt;Node18 -->
<g id="edge17_Node000001_Node000018" class="edge">
<title>Node1&#45;&gt;Node18</title>
<g id="a_edge17_Node000001_Node000018"><a xlink:title=" ">
<path fill="none" stroke="#63b8ff" d="M51.63,-1091.88C57.12,-1132.66 75.6,-1225.89 133,-1273 147.95,-1285.27 167.43,-1291.84 186.33,-1295.23"/>
<polygon fill="#63b8ff" stroke="#63b8ff" points="55.09,-1091.35 50.41,-1081.85 48.14,-1092.2 55.09,-1091.35"/>
</a>
</g>
</g>
<!-- Node19 -->
<g id="Node000019" class="node">
<title>Node19</title>
<g id="a_Node000019"><a xlink:href="../../dc/d84/structxii_delegate.html" target="_top" xlink:title=" ">
<polygon fill="white" stroke="#666666" points="331,-1264 177,-1264 177,-1234 331,-1234 331,-1264"/>
<text text-anchor="start" x="185" y="-1252" font-family="Helvetica,sans-Serif" font-size="10.00">xiiDelegate&lt; void(Resource</text>
<text text-anchor="middle" x="254" y="-1241" font-family="Helvetica,sans-Serif" font-size="10.00">ReloadContext &amp;)&gt;</text>
</a>
</g>
</g>
<!-- Node1&#45;&gt;Node19 -->
<g id="edge18_Node000001_Node000019" class="edge">
<title>Node1&#45;&gt;Node19</title>
<g id="a_edge18_Node000001_Node000019"><a xlink:title=" ">
<path fill="none" stroke="#63b8ff" d="M54.38,-1091.63C63.68,-1124.74 87.23,-1191.33 133,-1225 145.75,-1234.38 161.24,-1240.33 176.8,-1244.06"/>
<polygon fill="#63b8ff" stroke="#63b8ff" points="57.71,-1090.55 51.76,-1081.79 50.95,-1092.35 57.71,-1090.55"/>
</a>
</g>
</g>
<!-- Node20 -->
<g id="Node000020" class="node">
<title>Node20</title>
<g id="a_Node000020"><a xlink:href="../../dc/d84/structxii_delegate.html" target="_top" xlink:title=" ">
<polygon fill="white" stroke="#666666" points="343.5,-1216 164.5,-1216 164.5,-1186 343.5,-1186 343.5,-1216"/>
<text text-anchor="start" x="172.5" y="-1204" font-family="Helvetica,sans-Serif" font-size="10.00">xiiDelegate&lt; void(xiiArray</text>
<text text-anchor="middle" x="254" y="-1193" font-family="Helvetica,sans-Serif" font-size="10.00">Ptr&lt; const xiiUInt8 &gt; message)&gt;</text>
</a>
</g>
</g>
<!-- Node1&#45;&gt;Node20 -->
<g id="edge19_Node000001_Node000020" class="edge">
<title>Node1&#45;&gt;Node20</title>
<g id="a_edge19_Node000001_Node000020"><a xlink:title=" ">
<path fill="none" stroke="#63b8ff" d="M59.04,-1090.87C72.23,-1114.9 98.39,-1155.87 133,-1177 142.61,-1182.87 153.38,-1187.34 164.43,-1190.73"/>
<polygon fill="#63b8ff" stroke="#63b8ff" points="61.96,-1088.91 54.19,-1081.71 55.78,-1092.18 61.96,-1088.91"/>
</a>
</g>
</g>
<!-- Node21 -->
<g id="Node000021" class="node">
<title>Node21</title>
<g id="a_Node000021"><a xlink:href="../../dc/d84/structxii_delegate.html" target="_top" xlink:title=" ">
<polygon fill="white" stroke="#666666" points="323,-1168 185,-1168 185,-1138 323,-1138 323,-1168"/>
<text text-anchor="start" x="193" y="-1156" font-family="Helvetica,sans-Serif" font-size="10.00">xiiDelegate&lt; void(xiiLog</text>
<text text-anchor="middle" x="254" y="-1145" font-family="Helvetica,sans-Serif" font-size="10.00">Entry &amp;)&gt;</text>
</a>
</g>
</g>
<!-- Node1&#45;&gt;Node21 -->
<g id="edge20_Node000001_Node000021" class="edge">
<title>Node1&#45;&gt;Node21</title>
<g id="a_edge20_Node000001_Node000021"><a xlink:title=" ">
<path fill="none" stroke="#63b8ff" d="M68.6,-1088.37C84.73,-1101.33 108.97,-1118.89 133,-1129 149.25,-1135.84 167.58,-1140.76 184.93,-1144.3"/>
<polygon fill="#63b8ff" stroke="#63b8ff" points="70.47,-1085.37 60.52,-1081.71 66.01,-1090.77 70.47,-1085.37"/>
</a>
</g>
</g>
<!-- Node22 -->
<g id="Node000022" class="node">
<title>Node22</title>
<g id="a_Node000022"><a xlink:href="../../dc/d84/structxii_delegate.html" target="_top" xlink:title=" ">
<polygon fill="white" stroke="#666666" points="332.5,-1120 175.5,-1120 175.5,-1090 332.5,-1090 332.5,-1120"/>
<text text-anchor="start" x="183.5" y="-1108" font-family="Helvetica,sans-Serif" font-size="10.00">xiiDelegate&lt; bool(xiiString</text>
<text text-anchor="middle" x="254" y="-1097" font-family="Helvetica,sans-Serif" font-size="10.00">View sUnknownCommand)&gt;</text>
</a>
</g>
</g>
<!-- Node1&#45;&gt;Node22 -->
<g id="edge21_Node000001_Node000022" class="edge">
<title>Node1&#45;&gt;Node22</title>
<g id="a_edge21_Node000001_Node000022"><a xlink:title=" ">
<path fill="none" stroke="#63b8ff" d="M107.32,-1081.38C128.46,-1084.8 152.74,-1088.74 175.33,-1092.41"/>
<polygon fill="#63b8ff" stroke="#63b8ff" points="107.64,-1077.88 97.21,-1079.74 106.52,-1084.79 107.64,-1077.88"/>
</a>
</g>
</g>
<!-- Node23 -->
<g id="Node000023" class="node">
<title>Node23</title>
<g id="a_Node000023"><a xlink:href="../../dc/d84/structxii_delegate.html" target="_top" xlink:title=" ">
<polygon fill="white" stroke="#666666" points="337.5,-1071.5 170.5,-1071.5 170.5,-1008.5 337.5,-1008.5 337.5,-1071.5"/>
<text text-anchor="start" x="178.5" y="-1059.5" font-family="Helvetica,sans-Serif" font-size="10.00">xiiDelegate&lt; xiiResult</text>
<text text-anchor="start" x="178.5" y="-1048.5" font-family="Helvetica,sans-Serif" font-size="10.00">(xiiStringView sAbsoluteFile,</text>
<text text-anchor="start" x="178.5" y="-1037.5" font-family="Helvetica,sans-Serif" font-size="10.00"> xiiDynamicArray&lt; xiiUInt8</text>
<text text-anchor="start" x="178.5" y="-1026.5" font-family="Helvetica,sans-Serif" font-size="10.00"> &gt; &amp;FileContent, xiiTimestamp</text>
<text text-anchor="middle" x="254" y="-1015.5" font-family="Helvetica,sans-Serif" font-size="10.00"> &amp;out_FileModification)&gt;</text>
</a>
</g>
</g>
<!-- Node1&#45;&gt;Node23 -->
<g id="edge22_Node000001_Node000023" class="edge">
<title>Node1&#45;&gt;Node23</title>
<g id="a_edge22_Node000001_Node000023"><a xlink:title=" ">
<path fill="none" stroke="#63b8ff" d="M107.18,-1062.93C126.74,-1059.85 149,-1056.35 170.13,-1053.03"/>
<polygon fill="#63b8ff" stroke="#63b8ff" points="106.55,-1059.49 97.21,-1064.5 107.63,-1066.4 106.55,-1059.49"/>
</a>
</g>
</g>
<!-- Node24 -->
<g id="Node000024" class="node">
<title>Node24</title>
<g id="a_Node000024"><a xlink:href="../../dc/d84/structxii_delegate.html" target="_top" xlink:title=" ">
<polygon fill="white" stroke="#666666" points="353,-990.5 155,-990.5 155,-927.5 353,-927.5 353,-990.5"/>
<text text-anchor="start" x="163" y="-978.5" font-family="Helvetica,sans-Serif" font-size="10.00">xiiDelegate&lt; xiiResult</text>
<text text-anchor="start" x="163" y="-967.5" font-family="Helvetica,sans-Serif" font-size="10.00">(xiiStringView sCurAbsoluteFile,</text>
<text text-anchor="start" x="163" y="-956.5" font-family="Helvetica,sans-Serif" font-size="10.00"> xiiStringView sIncludeFile,</text>
<text text-anchor="start" x="163" y="-945.5" font-family="Helvetica,sans-Serif" font-size="10.00"> IncludeType IncType, xiiStringBuilder</text>
<text text-anchor="middle" x="254" y="-934.5" font-family="Helvetica,sans-Serif" font-size="10.00"> &amp;out_sAbsoluteFilePath)&gt;</text>
</a>
</g>
</g>
<!-- Node1&#45;&gt;Node24 -->
<g id="edge23_Node000001_Node000024" class="edge">
<title>Node1&#45;&gt;Node24</title>
<g id="a_edge23_Node000001_Node000024"><a xlink:title=" ">
<path fill="none" stroke="#63b8ff" d="M65.7,-1054.63C81.53,-1038.54 106.98,-1014.91 133,-1000 139.97,-996 147.4,-992.31 155,-988.92"/>
<polygon fill="#63b8ff" stroke="#63b8ff" points="62.76,-1052.64 58.35,-1062.27 67.8,-1057.49 62.76,-1052.64"/>
</a>
</g>
</g>
<!-- Node25 -->
<g id="Node000025" class="node">
<title>Node25</title>
<g id="a_Node000025"><a xlink:href="../../dc/d84/structxii_delegate.html" target="_top" xlink:title=" ">
<polygon fill="white" stroke="#666666" points="333,-909 175,-909 175,-879 333,-879 333,-909"/>
<text text-anchor="start" x="183" y="-897" font-family="Helvetica,sans-Serif" font-size="10.00">xiiDelegate&lt; bool(xiiProcess</text>
<text text-anchor="middle" x="254" y="-886" font-family="Helvetica,sans-Serif" font-size="10.00">Message *)&gt;</text>
</a>
</g>
</g>
<!-- Node1&#45;&gt;Node25 -->
<g id="edge24_Node000001_Node000025" class="edge">
<title>Node1&#45;&gt;Node25</title>
<g id="a_edge24_Node000001_Node000025"><a xlink:title=" ">
<path fill="none" stroke="#63b8ff" d="M54.41,-1052.41C63.75,-1019.36 87.37,-952.86 133,-919 145.22,-909.93 159.97,-903.98 174.89,-900.11"/>
<polygon fill="#63b8ff" stroke="#63b8ff" points="50.98,-1051.67 51.77,-1062.23 57.74,-1053.48 50.98,-1051.67"/>
</a>
</g>
</g>
<!-- Node26 -->
<g id="Node000026" class="node">
<title>Node26</title>
<g id="a_Node000026"><a xlink:href="../../dc/d84/structxii_delegate.html" target="_top" xlink:title=" ">
<polygon fill="white" stroke="#666666" points="328.5,-861 179.5,-861 179.5,-831 328.5,-831 328.5,-861"/>
<text text-anchor="start" x="187.5" y="-849" font-family="Helvetica,sans-Serif" font-size="10.00">xiiDelegate&lt; void(xiiString</text>
<text text-anchor="middle" x="254" y="-838" font-family="Helvetica,sans-Serif" font-size="10.00">View)&gt;</text>
</a>
</g>
</g>
<!-- Node1&#45;&gt;Node26 -->
<g id="edge25_Node000001_Node000026" class="edge">
<title>Node1&#45;&gt;Node26</title>
<g id="a_edge25_Node000001_Node000026"><a xlink:title=" ">
<path fill="none" stroke="#63b8ff" d="M51.6,-1052.03C57.02,-1011.05 75.39,-917.36 133,-870 146.13,-859.21 162.77,-852.81 179.45,-849.13"/>
<polygon fill="#63b8ff" stroke="#63b8ff" points="48.11,-1051.76 50.39,-1062.1 55.06,-1052.59 48.11,-1051.76"/>
</a>
</g>
</g>
<!-- Node27 -->
<g id="Node000027" class="node">
<title>Node27</title>
<g id="a_Node000027"><a xlink:href="../../dc/d84/structxii_delegate.html" target="_top" xlink:title=" ">
<polygon fill="white" stroke="#666666" points="315,-813 193,-813 193,-783 315,-783 315,-813"/>
<text text-anchor="start" x="201" y="-801" font-family="Helvetica,sans-Serif" font-size="10.00">xiiDelegate&lt; QPointF</text>
<text text-anchor="middle" x="254" y="-790" font-family="Helvetica,sans-Serif" font-size="10.00">(const QPointF &amp;)&gt;</text>
</a>
</g>
</g>
<!-- Node1&#45;&gt;Node27 -->
<g id="edge26_Node000001_Node000027" class="edge">
<title>Node1&#45;&gt;Node27</title>
<g id="a_edge26_Node000001_Node000027"><a xlink:title=" ">
<path fill="none" stroke="#63b8ff" d="M49.8,-1052.04C51.68,-1004.38 63.42,-883.39 133,-822 149.33,-807.59 171.82,-800.88 192.92,-798"/>
<polygon fill="#63b8ff" stroke="#63b8ff" points="46.3,-1052.16 49.51,-1062.26 53.3,-1052.36 46.3,-1052.16"/>
</a>
</g>
</g>
<!-- Node28 -->
<g id="Node000028" class="node">
<title>Node28</title>
<g id="a_Node000028"><a xlink:href="../../dc/d84/structxii_delegate.html" target="_top" xlink:title=" ">
<polygon fill="white" stroke="#666666" points="351,-764.5 157,-764.5 157,-723.5 351,-723.5 351,-764.5"/>
<text text-anchor="start" x="165" y="-752.5" font-family="Helvetica,sans-Serif" font-size="10.00">xiiDelegate&lt; xiiQtEngine</text>
<text text-anchor="start" x="165" y="-741.5" font-family="Helvetica,sans-Serif" font-size="10.00">ViewWidget *(xiiQtEngineDocument</text>
<text text-anchor="middle" x="254" y="-730.5" font-family="Helvetica,sans-Serif" font-size="10.00">Window *, xiiEngineViewConfig *)&gt;</text>
</a>
</g>
</g>
<!-- Node1&#45;&gt;Node28 -->
<g id="edge27_Node000001_Node000028" class="edge">
<title>Node1&#45;&gt;Node28</title>
<g id="a_edge27_Node000001_Node000028"><a xlink:title=" ">
<path fill="none" stroke="#63b8ff" d="M48.75,-1052.17C47.86,-998.93 53.14,-851.63 133,-774 139.93,-767.26 148.13,-761.97 156.94,-757.82"/>
<polygon fill="#63b8ff" stroke="#63b8ff" points="45.25,-1052.4 49.01,-1062.31 52.25,-1052.22 45.25,-1052.4"/>
</a>
</g>
</g>
<!-- Node29 -->
<g id="Node000029" class="node">
<title>Node29</title>
<g id="a_Node000029"><a xlink:href="../../dc/d84/structxii_delegate.html" target="_top" xlink:title=" ">
<polygon fill="white" stroke="#666666" points="314.5,-705.5 193.5,-705.5 193.5,-686.5 314.5,-686.5 314.5,-705.5"/>
<text text-anchor="middle" x="254" y="-693.5" font-family="Helvetica,sans-Serif" font-size="10.00">xiiDelegate&lt; bool()&gt;</text>
</a>
</g>
</g>
<!-- Node1&#45;&gt;Node29 -->
<g id="edge28_Node000001_Node000029" class="edge">
<title>Node1&#45;&gt;Node29</title>
<g id="a_edge28_Node000001_Node000029"><a xlink:title=" ">
<path fill="none" stroke="#63b8ff" d="M51.29,-1052.01C57.82,-983.79 82.65,-761.81 133,-715 149.07,-700.06 171.88,-694.13 193.31,-692.34"/>
<polygon fill="#63b8ff" stroke="#63b8ff" points="47.78,-1051.96 50.34,-1062.24 54.75,-1052.61 47.78,-1051.96"/>
</a>
</g>
</g>
<!-- Node30 -->
<g id="Node000030" class="node">
<title>Node30</title>
<g id="a_Node000030"><a xlink:href="../../dc/d84/structxii_delegate.html" target="_top" xlink:title=" ">
<polygon fill="white" stroke="#666666" points="333,-668.5 175,-668.5 175,-649.5 333,-649.5 333,-668.5"/>
<text text-anchor="middle" x="254" y="-656.5" font-family="Helvetica,sans-Serif" font-size="10.00">xiiDelegate&lt; IteratorType()&gt;</text>
</a>
</g>
</g>
<!-- Node1&#45;&gt;Node30 -->
<g id="edge29_Node000001_Node000030" class="edge">
<title>Node1&#45;&gt;Node30</title>
<g id="a_edge29_Node000001_Node000030"><a xlink:title=" ">
<path fill="none" stroke="#63b8ff" d="M50.8,-1052.32C55.98,-980.02 77.65,-730.56 133,-678 144.4,-667.18 159.32,-661.05 174.76,-657.79"/>
<polygon fill="#63b8ff" stroke="#63b8ff" points="47.3,-1052.13 50.1,-1062.35 54.29,-1052.61 47.3,-1052.13"/>
</a>
</g>
</g>
<!-- Node31 -->
<g id="Node000031" class="node">
<title>Node31</title>
<g id="a_Node000031"><a xlink:href="../../dc/d84/structxii_delegate.html" target="_top" xlink:title=" ">
<polygon fill="white" stroke="#666666" points="326.5,-631 181.5,-631 181.5,-601 326.5,-601 326.5,-631"/>
<text text-anchor="start" x="189.5" y="-619" font-family="Helvetica,sans-Serif" font-size="10.00">xiiDelegate&lt; void(Iterator</text>
<text text-anchor="middle" x="254" y="-608" font-family="Helvetica,sans-Serif" font-size="10.00">Type &amp;)&gt;</text>
</a>
</g>
</g>
<!-- Node1&#45;&gt;Node31 -->
<g id="edge30_Node000001_Node000031" class="edge">
<title>Node1&#45;&gt;Node31</title>
<g id="a_edge30_Node000001_Node000031"><a xlink:title=" ">
<path fill="none" stroke="#63b8ff" d="M50.51,-1052.08C54.83,-975.4 74.21,-700.62 133,-641 145.78,-628.04 163.4,-620.95 181.22,-617.26"/>
<polygon fill="#63b8ff" stroke="#63b8ff" points="47.01,-1052.09 49.97,-1062.27 54,-1052.47 47.01,-1052.09"/>
</a>
</g>
</g>
<!-- Node32 -->
<g id="Node000032" class="node">
<title>Node32</title>
<g id="a_Node000032"><a xlink:href="../../dc/d84/structxii_delegate.html" target="_top" xlink:title=" ">
<polygon fill="white" stroke="#666666" points="321,-583 187,-583 187,-553 321,-553 321,-583"/>
<text text-anchor="start" x="195" y="-571" font-family="Helvetica,sans-Serif" font-size="10.00">xiiDelegate&lt; ValueType</text>
<text text-anchor="middle" x="254" y="-560" font-family="Helvetica,sans-Serif" font-size="10.00">(const IteratorType &amp;)&gt;</text>
</a>
</g>
</g>
<!-- Node1&#45;&gt;Node32 -->
<g id="edge31_Node000001_Node000032" class="edge">
<title>Node1&#45;&gt;Node32</title>
<g id="a_edge31_Node000001_Node000032"><a xlink:title=" ">
<path fill="none" stroke="#63b8ff" d="M50.07,-1051.96C52.85,-969.7 67.57,-659.1 133,-592 147.02,-577.63 167.04,-570.59 186.72,-567.44"/>
<polygon fill="#63b8ff" stroke="#63b8ff" points="46.56,-1052.28 49.75,-1062.39 53.56,-1052.5 46.56,-1052.28"/>
</a>
</g>
</g>
<!-- Node33 -->
<g id="Node000033" class="node">
<title>Node33</title>
<g id="a_Node000033"><a xlink:href="../../dc/d84/structxii_delegate.html" target="_top" xlink:title=" ">
<polygon fill="white" stroke="#666666" points="333.5,-535 174.5,-535 174.5,-505 333.5,-505 333.5,-535"/>
<text text-anchor="start" x="182.5" y="-523" font-family="Helvetica,sans-Serif" font-size="10.00">xiiDelegate&lt; void(xiiRemote</text>
<text text-anchor="middle" x="254" y="-512" font-family="Helvetica,sans-Serif" font-size="10.00">Message &amp;)&gt;</text>
</a>
</g>
</g>
<!-- Node1&#45;&gt;Node33 -->
<g id="edge32_Node000001_Node000033" class="edge">
<title>Node1&#45;&gt;Node33</title>
<g id="a_edge32_Node000001_Node000033"><a xlink:title=" ">
<path fill="none" stroke="#63b8ff" d="M49.72,-1052.21C51.12,-965.34 61.18,-618.8 133,-544 144.04,-532.51 158.91,-525.69 174.42,-521.79"/>
<polygon fill="#63b8ff" stroke="#63b8ff" points="46.22,-1052.24 49.58,-1062.29 53.22,-1052.34 46.22,-1052.24"/>
</a>
</g>
</g>
<!-- Node34 -->
<g id="Node000034" class="node">
<title>Node34</title>
<g id="a_Node000034"><a xlink:href="../../dc/d84/structxii_delegate.html" target="_top" xlink:title=" ">
<polygon fill="white" stroke="#666666" points="321.5,-487 186.5,-487 186.5,-457 321.5,-457 321.5,-487"/>
<text text-anchor="start" x="194.5" y="-475" font-family="Helvetica,sans-Serif" font-size="10.00">xiiDelegate&lt; bool(const</text>
<text text-anchor="middle" x="254" y="-464" font-family="Helvetica,sans-Serif" font-size="10.00"> xiiRenderData *)&gt;</text>
</a>
</g>
</g>
<!-- Node1&#45;&gt;Node34 -->
<g id="edge33_Node000001_Node000034" class="edge">
<title>Node1&#45;&gt;Node34</title>
<g id="a_edge33_Node000001_Node000034"><a xlink:title=" ">
<path fill="none" stroke="#63b8ff" d="M49.44,-1052.19C49.56,-960.53 54.84,-578.46 133,-496 146.81,-481.43 166.78,-474.35 186.47,-471.21"/>
<polygon fill="#63b8ff" stroke="#63b8ff" points="45.94,-1052.32 49.44,-1062.31 52.94,-1052.31 45.94,-1052.32"/>
</a>
</g>
</g>
<!-- Node35 -->
<g id="Node000035" class="node">
<title>Node35</title>
<g id="a_Node000035"><a xlink:href="../../dc/d84/structxii_delegate.html" target="_top" xlink:title=" ">
<polygon fill="white" stroke="#666666" points="321.5,-439 186.5,-439 186.5,-409 321.5,-409 321.5,-439"/>
<text text-anchor="start" x="194.5" y="-427" font-family="Helvetica,sans-Serif" font-size="10.00">xiiDelegate&lt; bool(const</text>
<text text-anchor="middle" x="254" y="-416" font-family="Helvetica,sans-Serif" font-size="10.00"> xiiStringBuilder &amp;)&gt;</text>
</a>
</g>
</g>
<!-- Node1&#45;&gt;Node35 -->
<g id="edge34_Node000001_Node000035" class="edge">
<title>Node1&#45;&gt;Node35</title>
<g id="a_edge34_Node000001_Node000035"><a xlink:title=" ">
<path fill="none" stroke="#63b8ff" d="M49.2,-1052.4C48.12,-956.55 48.41,-538.22 133,-448 146.73,-433.35 166.68,-426.25 186.38,-423.12"/>
<polygon fill="#63b8ff" stroke="#63b8ff" points="45.7,-1052.49 49.33,-1062.44 52.7,-1052.4 45.7,-1052.49"/>
</a>
</g>
</g>
<!-- Node36 -->
<g id="Node000036" class="node">
<title>Node36</title>
<g id="a_Node000036"><a xlink:href="../../dc/d84/structxii_delegate.html" target="_top" xlink:title=" ">
<polygon fill="white" stroke="#666666" points="334.5,-390.5 173.5,-390.5 173.5,-349.5 334.5,-349.5 334.5,-390.5"/>
<text text-anchor="start" x="181.5" y="-378.5" font-family="Helvetica,sans-Serif" font-size="10.00">xiiDelegate&lt; bool(const</text>
<text text-anchor="start" x="181.5" y="-367.5" font-family="Helvetica,sans-Serif" font-size="10.00"> void *pObject, const</text>
<text text-anchor="middle" x="254" y="-356.5" font-family="Helvetica,sans-Serif" font-size="10.00"> xiiAbstractProperty *pProp)&gt;</text>
</a>
</g>
</g>
<!-- Node1&#45;&gt;Node36 -->
<g id="edge35_Node000001_Node000036" class="edge">
<title>Node1&#45;&gt;Node36</title>
<g id="a_edge35_Node000001_Node000036"><a xlink:title=" ">
<path fill="none" stroke="#63b8ff" d="M49.07,-1051.94C47.31,-951.05 44.54,-499.91 133,-400 143.53,-388.1 158.01,-380.58 173.26,-375.89"/>
<polygon fill="#63b8ff" stroke="#63b8ff" points="45.57,-1052.31 49.27,-1062.24 52.57,-1052.17 45.57,-1052.31"/>
</a>
</g>
</g>
<!-- Node37 -->
<g id="Node000037" class="node">
<title>Node37</title>
<g id="a_Node000037"><a xlink:href="../../dc/d84/structxii_delegate.html" target="_top" xlink:title=" ">
<polygon fill="white" stroke="#666666" points="321.5,-331 186.5,-331 186.5,-301 321.5,-301 321.5,-331"/>
<text text-anchor="start" x="194.5" y="-319" font-family="Helvetica,sans-Serif" font-size="10.00">xiiDelegate&lt; void(const</text>
<text text-anchor="middle" x="254" y="-308" font-family="Helvetica,sans-Serif" font-size="10.00"> xiiDocumentObject *)&gt;</text>
</a>
</g>
</g>
<!-- Node1&#45;&gt;Node37 -->
<g id="edge36_Node000001_Node000037" class="edge">
<title>Node1&#45;&gt;Node37</title>
<g id="a_edge36_Node000001_Node000037"><a xlink:title=" ">
<path fill="none" stroke="#63b8ff" d="M50.39,-1052.4C55.58,-941.44 83.53,-395.23 133,-341 146.63,-326.06 166.66,-318.77 186.48,-315.51"/>
<polygon fill="#63b8ff" stroke="#63b8ff" points="46.88,-1052.35 49.92,-1062.5 53.88,-1052.67 46.88,-1052.35"/>
</a>
</g>
</g>
<!-- Node38 -->
<g id="Node000038" class="node">
<title>Node38</title>
<g id="a_Node000038"><a xlink:href="../../dc/d84/structxii_delegate.html" target="_top" xlink:title=" ">
<polygon fill="white" stroke="#666666" points="348,-282.5 160,-282.5 160,-241.5 348,-241.5 348,-282.5"/>
<text text-anchor="start" x="168" y="-270.5" font-family="Helvetica,sans-Serif" font-size="10.00">xiiDelegate&lt; void(xiiBuiltin</text>
<text text-anchor="start" x="168" y="-259.5" font-family="Helvetica,sans-Serif" font-size="10.00">ShaderType type, xiiShaderUtilities</text>
<text text-anchor="middle" x="254" y="-248.5" font-family="Helvetica,sans-Serif" font-size="10.00">::xiiBuiltinShader &amp;out_shader)&gt;</text>
</a>
</g>
</g>
<!-- Node1&#45;&gt;Node38 -->
<g id="edge37_Node000001_Node000038" class="edge">
<title>Node1&#45;&gt;Node38</title>
<g id="a_edge37_Node000001_Node000038"><a xlink:title=" ">
<path fill="none" stroke="#63b8ff" d="M50.28,-1052.21C55.02,-936.55 81.46,-351.22 133,-292 140.33,-283.58 149.64,-277.34 159.81,-272.74"/>
<polygon fill="#63b8ff" stroke="#63b8ff" points="46.78,-1052.29 49.87,-1062.42 53.77,-1052.57 46.78,-1052.29"/>
</a>
</g>
</g>
<!-- Node39 -->
<g id="Node000039" class="node">
<title>Node39</title>
<g id="a_Node000039"><a xlink:href="../../dc/d84/structxii_delegate.html" target="_top" xlink:title=" ">
<polygon fill="white" stroke="#666666" points="333,-223 175,-223 175,-193 333,-193 333,-223"/>
<text text-anchor="start" x="183" y="-211" font-family="Helvetica,sans-Serif" font-size="10.00">xiiDelegate&lt; void(const</text>
<text text-anchor="middle" x="254" y="-200" font-family="Helvetica,sans-Serif" font-size="10.00"> xiiSharedPtr&lt; xiiTask &gt; &amp;)&gt;</text>
</a>
</g>
</g>
<!-- Node1&#45;&gt;Node39 -->
<g id="edge38_Node000001_Node000039" class="edge">
<title>Node1&#45;&gt;Node39</title>
<g id="a_edge38_Node000001_Node000039"><a xlink:title=" ">
<path fill="none" stroke="#63b8ff" d="M50.09,-1052.2C53.87,-931.32 76.35,-296.01 133,-233 143.88,-220.89 158.98,-213.79 174.8,-209.78"/>
<polygon fill="#63b8ff" stroke="#63b8ff" points="46.59,-1052.15 49.78,-1062.25 53.59,-1052.36 46.59,-1052.15"/>
</a>
</g>
</g>
<!-- Node40 -->
<g id="Node000040" class="node">
<title>Node40</title>
<g id="a_Node000040"><a xlink:href="../../dc/d84/structxii_delegate.html" target="_top" xlink:title=" ">
<polygon fill="white" stroke="#666666" points="325.5,-175 182.5,-175 182.5,-145 325.5,-145 325.5,-175"/>
<text text-anchor="start" x="190.5" y="-163" font-family="Helvetica,sans-Serif" font-size="10.00">xiiDelegate&lt; void(xiiTask</text>
<text text-anchor="middle" x="254" y="-152" font-family="Helvetica,sans-Serif" font-size="10.00">GroupID)&gt;</text>
</a>
</g>
</g>
<!-- Node1&#45;&gt;Node40 -->
<g id="edge39_Node000001_Node000040" class="edge">
<title>Node1&#45;&gt;Node40</title>
<g id="a_edge39_Node000001_Node000040"><a xlink:title=" ">
<path fill="none" stroke="#63b8ff" d="M49.97,-1052.21C53.11,-927.27 72.8,-250.78 133,-184 145.59,-170.03 163.82,-162.86 182.28,-159.44"/>
<polygon fill="#63b8ff" stroke="#63b8ff" points="46.47,-1052.18 49.72,-1062.27 53.47,-1052.36 46.47,-1052.18"/>
</a>
</g>
</g>
<!-- Node41 -->
<g id="Node000041" class="node">
<title>Node41</title>
<g id="a_Node000041"><a xlink:href="../../dc/d84/structxii_delegate.html" target="_top" xlink:title=" ">
<polygon fill="white" stroke="#666666" points="337.5,-126.5 170.5,-126.5 170.5,-85.5 337.5,-85.5 337.5,-126.5"/>
<text text-anchor="start" x="178.5" y="-114.5" font-family="Helvetica,sans-Serif" font-size="10.00">xiiDelegate&lt; void(xiiGALSwap</text>
<text text-anchor="start" x="178.5" y="-103.5" font-family="Helvetica,sans-Serif" font-size="10.00">ChainHandle hSwapChain,</text>
<text text-anchor="middle" x="254" y="-92.5" font-family="Helvetica,sans-Serif" font-size="10.00"> xiiSizeU32 size)&gt;</text>
</a>
</g>
</g>
<!-- Node1&#45;&gt;Node41 -->
<g id="edge40_Node000001_Node000041" class="edge">
<title>Node1&#45;&gt;Node41</title>
<g id="a_edge40_Node000001_Node000041"><a xlink:title=" ">
<path fill="none" stroke="#63b8ff" d="M49.92,-1052C52.78,-922.71 71.31,-208.15 133,-136 142.77,-124.57 156.17,-117.15 170.48,-112.4"/>
<polygon fill="#63b8ff" stroke="#63b8ff" points="46.41,-1052.29 49.69,-1062.36 53.41,-1052.44 46.41,-1052.29"/>
</a>
</g>
</g>
<!-- Node42 -->
<g id="Node000042" class="node">
<title>Node42</title>
<g id="a_Node000042"><a xlink:href="../../dc/d84/structxii_delegate.html" target="_top" xlink:title="A generic delegate class which supports static functions and member functions.">
<polygon fill="white" stroke="#666666" points="329.5,-67.5 178.5,-67.5 178.5,-48.5 329.5,-48.5 329.5,-67.5"/>
<text text-anchor="middle" x="254" y="-55.5" font-family="Helvetica,sans-Serif" font-size="10.00">xiiDelegate&lt; T, DataSize &gt;</text>
</a>
</g>
</g>
<!-- Node1&#45;&gt;Node42 -->
<g id="edge41_Node000001_Node000042" class="edge">
<title>Node1&#45;&gt;Node42</title>
<g id="a_edge41_Node000001_Node000042"><a xlink:title=" ">
<path fill="none" stroke="#63b8ff" d="M49.72,-1052.34C51.4,-919.06 64.06,-151.19 133,-77 144.77,-64.33 161.32,-57.83 178.37,-54.84"/>
<polygon fill="#63b8ff" stroke="#63b8ff" points="46.22,-1052.3 49.6,-1062.34 53.22,-1052.38 46.22,-1052.3"/>
</a>
</g>
</g>
<!-- Node43 -->
<g id="Node000043" class="node">
<title>Node43</title>
<g id="a_Node000043"><a xlink:href="../../d2/da7/structxii_delegate_3_01_r_07_args_8_8_8_08_00_01_data_size_01_4.html" target="_top" xlink:title=" ">
<polygon fill="white" stroke="#bfbfbf" points="318.5,-30 189.5,-30 189.5,0 318.5,0 318.5,-30"/>
<text text-anchor="start" x="197.5" y="-18" font-family="Helvetica,sans-Serif" font-size="10.00">xiiDelegate&lt; R(Args...)</text>
<text text-anchor="middle" x="254" y="-7" font-family="Helvetica,sans-Serif" font-size="10.00">, DataSize &gt;</text>
</a>
</g>
</g>
<!-- Node1&#45;&gt;Node43 -->
<g id="edge42_Node000001_Node000043" class="edge">
<title>Node1&#45;&gt;Node43</title>
<g id="a_edge42_Node000001_Node000043"><a xlink:title=" ">
<path fill="none" stroke="#63b8ff" d="M49.7,-1052.07C51.28,-915.33 63.44,-118.82 133,-40 147.08,-24.04 168.47,-16.74 189.31,-13.76"/>
<polygon fill="#63b8ff" stroke="#63b8ff" points="46.2,-1052.28 49.59,-1062.31 53.2,-1052.35 46.2,-1052.28"/>
</a>
</g>
</g>
</g>
</svg>

<g id="navigator" transform="translate(0 0)" fill="#404254">
  <rect fill="#f2f5e9" fill-opacity="0.5" stroke="#606060" stroke-width=".5" x="0" y="0" width="60" height="60"/>
  <use id="zoomplus" xlink:href="#zoomPlus" x="17" y="9" onmousedown="handleZoom(evt,'in')"/>
  <use id="zoomminus" xlink:href="#zoomMin" x="42" y="9" onmousedown="handleZoom(evt,'out')"/>
  <use id="reset" xlink:href="#resetDef" x="30" y="36" onmousedown="handleReset()"/>
   <use id="arrowup" xlink:href="#arrowUp" x="0" y="0" onmousedown="handlePan(0,-1)"/>
  <use id="arrowright" xlink:href="#arrowRight" x="0" y="0" onmousedown="handlePan(1,0)"/>
  <use id="arrowdown" xlink:href="#arrowDown" x="0" y="0" onmousedown="handlePan(0,1)"/>
  <use id="arrowleft" xlink:href="#arrowLeft" x="0" y="0" onmousedown="handlePan(-1,0)"/>
</g>
<svg viewBox="0 0 15 15" width="100%" height="30px" preserveAspectRatio="xMaxYMin meet">
 <g id="arrow_out" transform="scale(0.3 0.3)">
  <a xlink:href="classxii_delegate_base__inherit__graph_org.svg" target="_base">
   <rect id="button" ry="5" rx="5" y="6" x="6" height="38" width="38"
        fill="#f2f5e9" fill-opacity="0.5" stroke="#606060" stroke-width="1.0"/>
   <path id="arrow"
     d="M 11.500037,31.436501 C 11.940474,20.09759 22.043105,11.32322 32.158766,21.979434 L 37.068811,17.246167 C 37.068811,17.246167 37.088388,32 37.088388,32 L 22.160133,31.978069 C 22.160133,31.978069 26.997745,27.140456 26.997745,27.140456 C 18.528582,18.264221 13.291696,25.230495 11.500037,31.436501 z"
     style="fill:#404040;"/>
  </a>
 </g>
</svg>

<style type='text/css'>
<![CDATA[
[data-mouse-over-selected='false'] { opacity: 0.7; }
[data-mouse-over-selected='true']  { opacity: 1.0; }
]]>
</style>
<script type="application/ecmascript"><![CDATA[
document.addEventListener('DOMContentLoaded', (event) => {
  highlightEdges();
  highlightAdjacentNodes();
});
]]></script>
</svg>
