<?xml version="1.0" encoding="UTF-8" standalone="no"?>
<!DOCTYPE svg PUBLIC "-//W3C//DTD SVG 1.1//EN"
 "http://www.w3.org/Graphics/SVG/1.1/DTD/svg11.dtd">
<!-- Generated by graphviz version 2.43.0 (0)
 -->
<!-- Title: xiiDelegateBase Pages: 1 -->
<svg width="383pt" height="2171pt"
 viewBox="0.00 0.00 383.00 2170.50" xmlns="http://www.w3.org/2000/svg" xmlns:xlink="http://www.w3.org/1999/xlink">
<g id="graph0" class="graph" transform="scale(1 1) rotate(0) translate(4 2166.5)">
<title>xiiDelegateBase</title>
<polygon fill="white" stroke="transparent" points="-4,4 -4,-2166.5 379,-2166.5 379,4 -4,4"/>
<!-- Node1 -->
<g id="node1" class="node">
<title>Node1</title>
<g id="a_node1"><a xlink:title="Base class for xiiDelegate.">
<polygon fill="#bfbfbf" stroke="black" points="0,-1074 0,-1093 97,-1093 97,-1074 0,-1074"/>
<text text-anchor="middle" x="48.5" y="-1081" font-family="Helvetica,sans-Serif" font-size="10.00">xiiDelegateBase</text>
</a>
</g>
</g>
<!-- Node2 -->
<g id="node2" class="node">
<title>Node2</title>
<g id="a_node2"><a xlink:href="../../dc/d84/structxii_delegate.htm" target="_top" xlink:title=" ">
<polygon fill="white" stroke="black" points="155,-2099 155,-2162 353,-2162 353,-2099 155,-2099"/>
<text text-anchor="start" x="163" y="-2150" font-family="Helvetica,sans-Serif" font-size="10.00">xiiDelegate&lt; xiiResult</text>
<text text-anchor="start" x="163" y="-2139" font-family="Helvetica,sans-Serif" font-size="10.00">(xiiStringView sCurAbsoluteFile,</text>
<text text-anchor="start" x="163" y="-2128" font-family="Helvetica,sans-Serif" font-size="10.00"> xiiStringView sIncludeFile,</text>
<text text-anchor="start" x="163" y="-2117" font-family="Helvetica,sans-Serif" font-size="10.00"> IncludeType IncType, xiiStringBuilder</text>
<text text-anchor="middle" x="254" y="-2106" font-family="Helvetica,sans-Serif" font-size="10.00"> &amp;out_sAbsoluteFilePath)&gt;</text>
</a>
</g>
</g>
<!-- Node1&#45;&gt;Node2 -->
<g id="edge1" class="edge">
<title>Node1&#45;&gt;Node2</title>
<path fill="none" stroke="midnightblue" d="M49.86,-1103.25C52.45,-1237.14 70.05,-2008.75 133,-2089.5 139.02,-2097.23 146.58,-2103.51 154.95,-2108.61"/>
<polygon fill="midnightblue" stroke="midnightblue" points="53.36,-1103.14 49.67,-1093.2 46.36,-1103.27 53.36,-1103.14"/>
</g>
<!-- Node3 -->
<g id="node3" class="node">
<title>Node3</title>
<g id="a_node3"><a xlink:href="../../dc/d84/structxii_delegate.htm" target="_top" xlink:title=" ">
<polygon fill="white" stroke="black" points="186.5,-2049.5 186.5,-2079.5 321.5,-2079.5 321.5,-2049.5 186.5,-2049.5"/>
<text text-anchor="start" x="194.5" y="-2067.5" font-family="Helvetica,sans-Serif" font-size="10.00">xiiDelegate&lt; bool(const</text>
<text text-anchor="middle" x="254" y="-2056.5" font-family="Helvetica,sans-Serif" font-size="10.00"> xiiSimdBBox &amp;)&gt;</text>
</a>
</g>
</g>
<!-- Node1&#45;&gt;Node3 -->
<g id="edge2" class="edge">
<title>Node1&#45;&gt;Node3</title>
<path fill="none" stroke="midnightblue" d="M49.83,-1103.15C52.22,-1233.2 68.49,-1966.88 133,-2039.5 146.43,-2054.62 166.41,-2061.95 186.24,-2065.21"/>
<polygon fill="midnightblue" stroke="midnightblue" points="53.33,-1103 49.65,-1093.06 46.33,-1103.12 53.33,-1103"/>
</g>
<!-- Node4 -->
<g id="node4" class="node">
<title>Node4</title>
<g id="a_node4"><a xlink:href="../../dc/d84/structxii_delegate.htm" target="_top" xlink:title=" ">
<polygon fill="white" stroke="black" points="168,-2011 168,-2030 340,-2030 340,-2011 168,-2011"/>
<text text-anchor="middle" x="254" y="-2018" font-family="Helvetica,sans-Serif" font-size="10.00">xiiDelegate&lt; void(EventData)&gt;</text>
</a>
</g>
</g>
<!-- Node1&#45;&gt;Node4 -->
<g id="edge3" class="edge">
<title>Node1&#45;&gt;Node4</title>
<path fill="none" stroke="midnightblue" d="M49.88,-1103.58C52.46,-1231.88 69.44,-1933.58 133,-2001.5 142.37,-2011.51 154.71,-2017.66 167.92,-2021.27"/>
<polygon fill="midnightblue" stroke="midnightblue" points="53.37,-1103.21 49.67,-1093.28 46.37,-1103.35 53.37,-1103.21"/>
</g>
<!-- Node5 -->
<g id="node5" class="node">
<title>Node5</title>
<g id="a_node5"><a xlink:href="../../dc/d84/structxii_delegate.htm" target="_top" xlink:title=" ">
<polygon fill="white" stroke="black" points="179,-1961.5 179,-1991.5 329,-1991.5 329,-1961.5 179,-1961.5"/>
<text text-anchor="start" x="187" y="-1979.5" font-family="Helvetica,sans-Serif" font-size="10.00">xiiDelegate&lt; void(xiiGame</text>
<text text-anchor="middle" x="254" y="-1968.5" font-family="Helvetica,sans-Serif" font-size="10.00">ObjectEditTool *)&gt;</text>
</a>
</g>
</g>
<!-- Node1&#45;&gt;Node5 -->
<g id="edge4" class="edge">
<title>Node1&#45;&gt;Node5</title>
<path fill="none" stroke="midnightblue" d="M50.01,-1103.24C53.37,-1226.48 74.07,-1887.26 133,-1952.5 144.82,-1965.59 161.59,-1972.71 178.86,-1976.36"/>
<polygon fill="midnightblue" stroke="midnightblue" points="53.5,-1102.93 49.74,-1093.03 46.51,-1103.12 53.5,-1102.93"/>
</g>
<!-- Node6 -->
<g id="node6" class="node">
<title>Node6</title>
<g id="a_node6"><a xlink:href="../../dc/d84/structxii_delegate.htm" target="_top" xlink:title=" ">
<polygon fill="white" stroke="black" points="182.5,-1912.5 182.5,-1942.5 325.5,-1942.5 325.5,-1912.5 182.5,-1912.5"/>
<text text-anchor="start" x="190.5" y="-1930.5" font-family="Helvetica,sans-Serif" font-size="10.00">xiiDelegate&lt; void(xiiTask</text>
<text text-anchor="middle" x="254" y="-1919.5" font-family="Helvetica,sans-Serif" font-size="10.00">GroupID)&gt;</text>
</a>
</g>
</g>
<!-- Node1&#45;&gt;Node6 -->
<g id="edge5" class="edge">
<title>Node1&#45;&gt;Node6</title>
<path fill="none" stroke="midnightblue" d="M50.13,-1103.22C54.1,-1222.29 77.36,-1842.25 133,-1903.5 145.64,-1917.42 163.89,-1924.58 182.35,-1928"/>
<polygon fill="midnightblue" stroke="midnightblue" points="53.62,-1102.91 49.8,-1093.03 46.62,-1103.14 53.62,-1102.91"/>
</g>
<!-- Node7 -->
<g id="node7" class="node">
<title>Node7</title>
<g id="a_node7"><a xlink:href="../../dc/d84/structxii_delegate.htm" target="_top" xlink:title=" ">
<polygon fill="white" stroke="black" points="168.5,-1863.5 168.5,-1893.5 339.5,-1893.5 339.5,-1863.5 168.5,-1863.5"/>
<text text-anchor="start" x="176.5" y="-1881.5" font-family="Helvetica,sans-Serif" font-size="10.00">xiiDelegate&lt; void(xiiDocument</text>
<text text-anchor="middle" x="254" y="-1870.5" font-family="Helvetica,sans-Serif" font-size="10.00"> *, xiiStatus)&gt;</text>
</a>
</g>
</g>
<!-- Node1&#45;&gt;Node7 -->
<g id="edge6" class="edge">
<title>Node1&#45;&gt;Node7</title>
<path fill="none" stroke="midnightblue" d="M50.28,-1103.43C54.97,-1218.63 80.98,-1796.15 133,-1853.5 142.44,-1863.9 154.98,-1870.6 168.41,-1874.82"/>
<polygon fill="midnightblue" stroke="midnightblue" points="53.77,-1103.09 49.87,-1093.24 46.78,-1103.37 53.77,-1103.09"/>
</g>
<!-- Node8 -->
<g id="node8" class="node">
<title>Node8</title>
<g id="a_node8"><a xlink:href="../../dc/d84/structxii_delegate.htm" target="_top" xlink:title=" ">
<polygon fill="white" stroke="black" points="170.5,-1803 170.5,-1844 337.5,-1844 337.5,-1803 170.5,-1803"/>
<text text-anchor="start" x="178.5" y="-1832" font-family="Helvetica,sans-Serif" font-size="10.00">xiiDelegate&lt; void(xiiGALSwap</text>
<text text-anchor="start" x="178.5" y="-1821" font-family="Helvetica,sans-Serif" font-size="10.00">ChainHandle hSwapChain,</text>
<text text-anchor="middle" x="254" y="-1810" font-family="Helvetica,sans-Serif" font-size="10.00"> xiiSizeU32 size)&gt;</text>
</a>
</g>
</g>
<!-- Node1&#45;&gt;Node8 -->
<g id="edge7" class="edge">
<title>Node1&#45;&gt;Node8</title>
<path fill="none" stroke="midnightblue" d="M50.51,-1103.53C56.25,-1213.42 86.04,-1740.11 133,-1793.5 142.86,-1804.71 156.21,-1812.04 170.43,-1816.78"/>
<polygon fill="midnightblue" stroke="midnightblue" points="53.99,-1103.03 49.98,-1093.22 47,-1103.39 53.99,-1103.03"/>
</g>
<!-- Node9 -->
<g id="node9" class="node">
<title>Node9</title>
<g id="a_node9"><a xlink:href="../../dc/d84/structxii_delegate.htm" target="_top" xlink:title=" ">
<polygon fill="white" stroke="black" points="193.5,-1765 193.5,-1784 314.5,-1784 314.5,-1765 193.5,-1765"/>
<text text-anchor="middle" x="254" y="-1772" font-family="Helvetica,sans-Serif" font-size="10.00">xiiDelegate&lt; bool()&gt;</text>
</a>
</g>
</g>
<!-- Node1&#45;&gt;Node9 -->
<g id="edge8" class="edge">
<title>Node1&#45;&gt;Node9</title>
<path fill="none" stroke="midnightblue" d="M50.57,-1103.52C56.46,-1210.03 86.32,-1707.24 133,-1755.5 148.47,-1771.5 171.57,-1777.53 193.38,-1779.11"/>
<polygon fill="midnightblue" stroke="midnightblue" points="54.05,-1103.02 50.01,-1093.23 47.06,-1103.4 54.05,-1103.02"/>
</g>
<!-- Node10 -->
<g id="node10" class="node">
<title>Node10</title>
<g id="a_node10"><a xlink:href="../../dc/d84/structxii_delegate.htm" target="_top" xlink:title=" ">
<polygon fill="white" stroke="black" points="186.5,-1715.5 186.5,-1745.5 321.5,-1745.5 321.5,-1715.5 186.5,-1715.5"/>
<text text-anchor="start" x="194.5" y="-1733.5" font-family="Helvetica,sans-Serif" font-size="10.00">xiiDelegate&lt; R(XII</text>
<text text-anchor="middle" x="254" y="-1722.5" font-family="Helvetica,sans-Serif" font-size="10.00">_LIST(P, ARG_COUNT))&gt;</text>
</a>
</g>
</g>
<!-- Node1&#45;&gt;Node10 -->
<g id="edge9" class="edge">
<title>Node1&#45;&gt;Node10</title>
<path fill="none" stroke="midnightblue" d="M49.22,-1103.03C48.26,-1198.51 49.02,-1615.25 133,-1705.5 146.7,-1720.22 166.64,-1727.48 186.34,-1730.78"/>
<polygon fill="midnightblue" stroke="midnightblue" points="52.72,-1103.06 49.34,-1093.02 45.72,-1102.98 52.72,-1103.06"/>
</g>
<!-- Node11 -->
<g id="node11" class="node">
<title>Node11</title>
<g id="a_node11"><a xlink:href="../../dc/d84/structxii_delegate.htm" target="_top" xlink:title=" ">
<polygon fill="white" stroke="black" points="160,-1655 160,-1696 348,-1696 348,-1655 160,-1655"/>
<text text-anchor="start" x="168" y="-1684" font-family="Helvetica,sans-Serif" font-size="10.00">xiiDelegate&lt; void(xiiBuiltin</text>
<text text-anchor="start" x="168" y="-1673" font-family="Helvetica,sans-Serif" font-size="10.00">ShaderType type, xiiShaderUtilities</text>
<text text-anchor="middle" x="254" y="-1662" font-family="Helvetica,sans-Serif" font-size="10.00">::xiiBuiltinShader &amp;out_shader)&gt;</text>
</a>
</g>
</g>
<!-- Node1&#45;&gt;Node11 -->
<g id="edge10" class="edge">
<title>Node1&#45;&gt;Node11</title>
<path fill="none" stroke="midnightblue" d="M49.61,-1103.6C50.5,-1194.19 58.72,-1563.6 133,-1645.5 140.43,-1653.69 149.73,-1659.8 159.84,-1664.34"/>
<polygon fill="midnightblue" stroke="midnightblue" points="53.1,-1103.32 49.53,-1093.34 46.1,-1103.37 53.1,-1103.32"/>
</g>
<!-- Node12 -->
<g id="node12" class="node">
<title>Node12</title>
<g id="a_node12"><a xlink:href="../../dc/d84/structxii_delegate.htm" target="_top" xlink:title=" ">
<polygon fill="white" stroke="black" points="193,-1605.5 193,-1635.5 315,-1635.5 315,-1605.5 193,-1605.5"/>
<text text-anchor="start" x="201" y="-1623.5" font-family="Helvetica,sans-Serif" font-size="10.00">xiiDelegate&lt; QPointF</text>
<text text-anchor="middle" x="254" y="-1612.5" font-family="Helvetica,sans-Serif" font-size="10.00">(const QPointF &amp;)&gt;</text>
</a>
</g>
</g>
<!-- Node1&#45;&gt;Node12 -->
<g id="edge11" class="edge">
<title>Node1&#45;&gt;Node12</title>
<path fill="none" stroke="midnightblue" d="M49.85,-1103.49C51.76,-1189.01 63.64,-1523.03 133,-1595.5 148.38,-1611.56 171.2,-1618.68 192.82,-1621.48"/>
<polygon fill="midnightblue" stroke="midnightblue" points="53.35,-1103.25 49.64,-1093.32 46.35,-1103.39 53.35,-1103.25"/>
</g>
<!-- Node13 -->
<g id="node13" class="node">
<title>Node13</title>
<g id="a_node13"><a xlink:href="../../dc/d84/structxii_delegate.htm" target="_top" xlink:title=" ">
<polygon fill="white" stroke="black" points="160,-1545 160,-1586 348,-1586 348,-1545 160,-1545"/>
<text text-anchor="start" x="168" y="-1574" font-family="Helvetica,sans-Serif" font-size="10.00">xiiDelegate&lt; xiiGameObject</text>
<text text-anchor="start" x="168" y="-1563" font-family="Helvetica,sans-Serif" font-size="10.00">Handle(const void *, xiiComponent</text>
<text text-anchor="middle" x="254" y="-1552" font-family="Helvetica,sans-Serif" font-size="10.00">Handle, xiiStringView)&gt;</text>
</a>
</g>
</g>
<!-- Node1&#45;&gt;Node13 -->
<g id="edge12" class="edge">
<title>Node1&#45;&gt;Node13</title>
<path fill="none" stroke="midnightblue" d="M50.39,-1103.31C54.32,-1182 72.72,-1471.34 133,-1535.5 140.5,-1543.48 149.77,-1549.47 159.82,-1553.95"/>
<polygon fill="midnightblue" stroke="midnightblue" points="53.88,-1103.1 49.91,-1093.28 46.89,-1103.43 53.88,-1103.1"/>
</g>
<!-- Node14 -->
<g id="node14" class="node">
<title>Node14</title>
<g id="a_node14"><a xlink:href="../../dc/d84/structxii_delegate.htm" target="_top" xlink:title=" ">
<polygon fill="white" stroke="black" points="175,-1495.5 175,-1525.5 333,-1525.5 333,-1495.5 175,-1495.5"/>
<text text-anchor="start" x="183" y="-1513.5" font-family="Helvetica,sans-Serif" font-size="10.00">xiiDelegate&lt; void(const</text>
<text text-anchor="middle" x="254" y="-1502.5" font-family="Helvetica,sans-Serif" font-size="10.00"> xiiSharedPtr&lt; xiiTask &gt; &amp;)&gt;</text>
</a>
</g>
</g>
<!-- Node1&#45;&gt;Node14 -->
<g id="edge13" class="edge">
<title>Node1&#45;&gt;Node14</title>
<path fill="none" stroke="midnightblue" d="M50.8,-1103.55C55.98,-1177.22 77.66,-1431.54 133,-1486.5 144.31,-1497.73 159.29,-1504.44 174.82,-1508.31"/>
<polygon fill="midnightblue" stroke="midnightblue" points="54.27,-1103.07 50.1,-1093.33 47.29,-1103.55 54.27,-1103.07"/>
</g>
<!-- Node15 -->
<g id="node15" class="node">
<title>Node15</title>
<g id="a_node15"><a xlink:href="../../dc/d84/structxii_delegate.htm" target="_top" xlink:title=" ">
<polygon fill="white" stroke="black" points="174.5,-1446.5 174.5,-1476.5 333.5,-1476.5 333.5,-1446.5 174.5,-1446.5"/>
<text text-anchor="start" x="182.5" y="-1464.5" font-family="Helvetica,sans-Serif" font-size="10.00">xiiDelegate&lt; void(xiiRemote</text>
<text text-anchor="middle" x="254" y="-1453.5" font-family="Helvetica,sans-Serif" font-size="10.00">Message &amp;)&gt;</text>
</a>
</g>
</g>
<!-- Node1&#45;&gt;Node15 -->
<g id="edge14" class="edge">
<title>Node1&#45;&gt;Node15</title>
<path fill="none" stroke="midnightblue" d="M51.41,-1103.18C58.32,-1170.36 84.26,-1389.06 133,-1436.5 144.28,-1447.48 159.07,-1454.21 174.39,-1458.22"/>
<polygon fill="midnightblue" stroke="midnightblue" points="54.88,-1102.71 50.4,-1093.11 47.91,-1103.41 54.88,-1102.71"/>
</g>
<!-- Node16 -->
<g id="node16" class="node">
<title>Node16</title>
<g id="a_node16"><a xlink:href="../../dc/d84/structxii_delegate.htm" target="_top" xlink:title=" ">
<polygon fill="white" stroke="black" points="156,-1386 156,-1427 352,-1427 352,-1386 156,-1386"/>
<text text-anchor="start" x="164" y="-1415" font-family="Helvetica,sans-Serif" font-size="10.00">xiiDelegate&lt; void(xiiString</text>
<text text-anchor="start" x="164" y="-1404" font-family="Helvetica,sans-Serif" font-size="10.00">View sEnumName, xiiDynamicString</text>
<text text-anchor="middle" x="254" y="-1393" font-family="Helvetica,sans-Serif" font-size="10.00">Enum &amp;e)&gt;</text>
</a>
</g>
</g>
<!-- Node1&#45;&gt;Node16 -->
<g id="edge15" class="edge">
<title>Node1&#45;&gt;Node16</title>
<path fill="none" stroke="midnightblue" d="M48.86,-1103.34C48.3,-1155.98 54.38,-1300.41 133,-1376.5 139.64,-1382.92 147.43,-1388.03 155.8,-1392.09"/>
<polygon fill="midnightblue" stroke="midnightblue" points="52.36,-1103.1 49.07,-1093.03 45.37,-1102.96 52.36,-1103.1"/>
</g>
<!-- Node17 -->
<g id="node17" class="node">
<title>Node17</title>
<g id="a_node17"><a xlink:href="../../dc/d84/structxii_delegate.htm" target="_top" xlink:title=" ">
<polygon fill="white" stroke="black" points="193.5,-1348 193.5,-1367 314.5,-1367 314.5,-1348 193.5,-1348"/>
<text text-anchor="middle" x="254" y="-1355" font-family="Helvetica,sans-Serif" font-size="10.00">xiiDelegate&lt; void()&gt;</text>
</a>
</g>
</g>
<!-- Node1&#45;&gt;Node17 -->
<g id="edge16" class="edge">
<title>Node1&#45;&gt;Node17</title>
<path fill="none" stroke="midnightblue" d="M49.48,-1103.06C50.58,-1151.37 60.62,-1276.83 133,-1338.5 149.54,-1352.59 172.19,-1358.42 193.37,-1360.35"/>
<polygon fill="midnightblue" stroke="midnightblue" points="52.98,-1102.97 49.36,-1093.01 45.98,-1103.05 52.98,-1102.97"/>
</g>
<!-- Node18 -->
<g id="node18" class="node">
<title>Node18</title>
<g id="a_node18"><a xlink:href="../../dc/d84/structxii_delegate.htm" target="_top" xlink:title=" ">
<polygon fill="white" stroke="black" points="175,-1298.5 175,-1328.5 333,-1328.5 333,-1298.5 175,-1298.5"/>
<text text-anchor="start" x="183" y="-1316.5" font-family="Helvetica,sans-Serif" font-size="10.00">xiiDelegate&lt; bool(xiiProcess</text>
<text text-anchor="middle" x="254" y="-1305.5" font-family="Helvetica,sans-Serif" font-size="10.00">Message *)&gt;</text>
</a>
</g>
</g>
<!-- Node1&#45;&gt;Node18 -->
<g id="edge17" class="edge">
<title>Node1&#45;&gt;Node18</title>
<path fill="none" stroke="midnightblue" d="M51.4,-1103.28C56.48,-1144.74 74.31,-1240.91 133,-1289.5 144.86,-1299.32 159.63,-1305.51 174.71,-1309.33"/>
<polygon fill="midnightblue" stroke="midnightblue" points="54.85,-1102.68 50.28,-1093.12 47.89,-1103.45 54.85,-1102.68"/>
</g>
<!-- Node19 -->
<g id="node19" class="node">
<title>Node19</title>
<g id="a_node19"><a xlink:href="../../dc/d84/structxii_delegate.htm" target="_top" xlink:title=" ">
<polygon fill="white" stroke="black" points="133,-1249.5 133,-1279.5 375,-1279.5 375,-1249.5 133,-1249.5"/>
<text text-anchor="start" x="141" y="-1267.5" font-family="Helvetica,sans-Serif" font-size="10.00">xiiDelegate&lt; xiiGALDevice</text>
<text text-anchor="middle" x="254" y="-1256.5" font-family="Helvetica,sans-Serif" font-size="10.00"> *(const xiiGALDeviceCreationDescription &amp;)&gt;</text>
</a>
</g>
</g>
<!-- Node1&#45;&gt;Node19 -->
<g id="edge18" class="edge">
<title>Node1&#45;&gt;Node19</title>
<path fill="none" stroke="midnightblue" d="M54.16,-1102.99C63.24,-1136.5 86.59,-1204.78 133,-1239.5 138.11,-1243.32 143.67,-1246.6 149.51,-1249.39"/>
<polygon fill="midnightblue" stroke="midnightblue" points="57.49,-1101.88 51.62,-1093.06 50.71,-1103.61 57.49,-1101.88"/>
</g>
<!-- Node20 -->
<g id="node20" class="node">
<title>Node20</title>
<g id="a_node20"><a xlink:href="../../dc/d84/structxii_delegate.htm" target="_top" xlink:title=" ">
<polygon fill="white" stroke="black" points="186.5,-1189 186.5,-1230 321.5,-1230 321.5,-1189 186.5,-1189"/>
<text text-anchor="start" x="194.5" y="-1218" font-family="Helvetica,sans-Serif" font-size="10.00">xiiDelegate&lt; bool(const</text>
<text text-anchor="start" x="194.5" y="-1207" font-family="Helvetica,sans-Serif" font-size="10.00"> xiiDocumentObject *,</text>
<text text-anchor="middle" x="254" y="-1196" font-family="Helvetica,sans-Serif" font-size="10.00"> xiiStringView)&gt;</text>
</a>
</g>
</g>
<!-- Node1&#45;&gt;Node20 -->
<g id="edge19" class="edge">
<title>Node1&#45;&gt;Node20</title>
<path fill="none" stroke="midnightblue" d="M60.42,-1101.8C74.44,-1123.67 100.85,-1159.79 133,-1179.5 149.02,-1189.32 168.11,-1195.93 186.29,-1200.38"/>
<polygon fill="midnightblue" stroke="midnightblue" points="63.28,-1099.77 55.03,-1093.12 57.33,-1103.46 63.28,-1099.77"/>
</g>
<!-- Node21 -->
<g id="node21" class="node">
<title>Node21</title>
<g id="a_node21"><a xlink:href="../../dc/d84/structxii_delegate.htm" target="_top" xlink:title=" ">
<polygon fill="white" stroke="black" points="186.5,-1139.5 186.5,-1169.5 321.5,-1169.5 321.5,-1139.5 186.5,-1139.5"/>
<text text-anchor="start" x="194.5" y="-1157.5" font-family="Helvetica,sans-Serif" font-size="10.00">xiiDelegate&lt; void(const</text>
<text text-anchor="middle" x="254" y="-1146.5" font-family="Helvetica,sans-Serif" font-size="10.00"> T &amp;)&gt;</text>
</a>
</g>
</g>
<!-- Node1&#45;&gt;Node21 -->
<g id="edge20" class="edge">
<title>Node1&#45;&gt;Node21</title>
<path fill="none" stroke="midnightblue" d="M72.08,-1098.81C88.37,-1109.18 111.23,-1122.43 133,-1130.5 149.83,-1136.74 168.63,-1141.48 186.26,-1145.02"/>
<polygon fill="midnightblue" stroke="midnightblue" points="73.6,-1095.62 63.31,-1093.09 69.78,-1101.48 73.6,-1095.62"/>
</g>
<!-- Node22 -->
<g id="node22" class="node">
<title>Node22</title>
<g id="a_node22"><a xlink:href="../../dc/d84/structxii_delegate.htm" target="_top" xlink:title=" ">
<polygon fill="white" stroke="black" points="186.5,-1090.5 186.5,-1120.5 321.5,-1120.5 321.5,-1090.5 186.5,-1090.5"/>
<text text-anchor="start" x="194.5" y="-1108.5" font-family="Helvetica,sans-Serif" font-size="10.00">xiiDelegate&lt; void(const</text>
<text text-anchor="middle" x="254" y="-1097.5" font-family="Helvetica,sans-Serif" font-size="10.00"> xiiDocumentObject *)&gt;</text>
</a>
</g>
</g>
<!-- Node1&#45;&gt;Node22 -->
<g id="edge21" class="edge">
<title>Node1&#45;&gt;Node22</title>
<path fill="none" stroke="midnightblue" d="M107.47,-1089.77C132.06,-1092.43 160.86,-1095.54 186.33,-1098.29"/>
<polygon fill="midnightblue" stroke="midnightblue" points="107.53,-1086.25 97.21,-1088.66 106.78,-1093.21 107.53,-1086.25"/>
</g>
<!-- Node23 -->
<g id="node23" class="node">
<title>Node23</title>
<g id="a_node23"><a xlink:href="../../dc/d84/structxii_delegate.htm" target="_top" xlink:title=" ">
<polygon fill="white" stroke="black" points="182.5,-1052 182.5,-1071 325.5,-1071 325.5,-1052 182.5,-1052"/>
<text text-anchor="middle" x="254" y="-1059" font-family="Helvetica,sans-Serif" font-size="10.00">xiiDelegate&lt; ElemType &gt;</text>
</a>
</g>
</g>
<!-- Node1&#45;&gt;Node23 -->
<g id="edge22" class="edge">
<title>Node1&#45;&gt;Node23</title>
<path fill="none" stroke="midnightblue" d="M107.32,-1077.25C130.7,-1074.72 157.91,-1071.78 182.44,-1069.13"/>
<polygon fill="midnightblue" stroke="midnightblue" points="106.78,-1073.79 97.21,-1078.34 107.53,-1080.75 106.78,-1073.79"/>
</g>
<!-- Node24 -->
<g id="node24" class="node">
<title>Node24</title>
<g id="a_node24"><a xlink:href="../../dc/d84/structxii_delegate.htm" target="_top" xlink:title=" ">
<polygon fill="white" stroke="black" points="187,-1002.5 187,-1032.5 321,-1032.5 321,-1002.5 187,-1002.5"/>
<text text-anchor="start" x="195" y="-1020.5" font-family="Helvetica,sans-Serif" font-size="10.00">xiiDelegate&lt; ValueType</text>
<text text-anchor="middle" x="254" y="-1009.5" font-family="Helvetica,sans-Serif" font-size="10.00">(const IteratorType &amp;)&gt;</text>
</a>
</g>
</g>
<!-- Node1&#45;&gt;Node24 -->
<g id="edge23" class="edge">
<title>Node1&#45;&gt;Node24</title>
<path fill="none" stroke="midnightblue" d="M74.77,-1069.02C90.97,-1060.26 112.7,-1049.47 133,-1042.5 150.11,-1036.62 169.08,-1031.89 186.8,-1028.2"/>
<polygon fill="midnightblue" stroke="midnightblue" points="72.99,-1066 65.92,-1073.9 76.37,-1072.13 72.99,-1066"/>
</g>
<!-- Node25 -->
<g id="node25" class="node">
<title>Node25</title>
<g id="a_node25"><a xlink:href="../../dc/d84/structxii_delegate.htm" target="_top" xlink:title=" ">
<polygon fill="white" stroke="black" points="173.5,-942 173.5,-983 334.5,-983 334.5,-942 173.5,-942"/>
<text text-anchor="start" x="181.5" y="-971" font-family="Helvetica,sans-Serif" font-size="10.00">xiiDelegate&lt; bool(const</text>
<text text-anchor="start" x="181.5" y="-960" font-family="Helvetica,sans-Serif" font-size="10.00"> void *pObject, const</text>
<text text-anchor="middle" x="254" y="-949" font-family="Helvetica,sans-Serif" font-size="10.00"> xiiAbstractProperty *pProp)&gt;</text>
</a>
</g>
</g>
<!-- Node1&#45;&gt;Node25 -->
<g id="edge24" class="edge">
<title>Node1&#45;&gt;Node25</title>
<path fill="none" stroke="midnightblue" d="M61.35,-1065.5C75.82,-1044.96 102.2,-1011.87 133,-993.5 145.29,-986.17 159.29,-980.56 173.29,-976.26"/>
<polygon fill="midnightblue" stroke="midnightblue" points="58.33,-1063.72 55.57,-1073.95 64.11,-1067.67 58.33,-1063.72"/>
</g>
<!-- Node26 -->
<g id="node26" class="node">
<title>Node26</title>
<g id="a_node26"><a xlink:href="../../dc/d84/structxii_delegate.htm" target="_top" xlink:title=" ">
<polygon fill="white" stroke="black" points="179.5,-892.5 179.5,-922.5 328.5,-922.5 328.5,-892.5 179.5,-892.5"/>
<text text-anchor="start" x="187.5" y="-910.5" font-family="Helvetica,sans-Serif" font-size="10.00">xiiDelegate&lt; void(xiiString</text>
<text text-anchor="middle" x="254" y="-899.5" font-family="Helvetica,sans-Serif" font-size="10.00">View)&gt;</text>
</a>
</g>
</g>
<!-- Node1&#45;&gt;Node26 -->
<g id="edge25" class="edge">
<title>Node1&#45;&gt;Node26</title>
<path fill="none" stroke="midnightblue" d="M54.49,-1064.16C63.95,-1031.54 87.73,-965.89 133,-932.5 146.44,-922.58 162.93,-916.4 179.32,-912.59"/>
<polygon fill="midnightblue" stroke="midnightblue" points="51.09,-1063.29 51.82,-1073.86 57.84,-1065.15 51.09,-1063.29"/>
</g>
<!-- Node27 -->
<g id="node27" class="node">
<title>Node27</title>
<g id="a_node27"><a xlink:href="../../dc/d84/structxii_delegate.htm" target="_top" xlink:title=" ">
<polygon fill="white" stroke="black" points="170.5,-810 170.5,-873 337.5,-873 337.5,-810 170.5,-810"/>
<text text-anchor="start" x="178.5" y="-861" font-family="Helvetica,sans-Serif" font-size="10.00">xiiDelegate&lt; xiiResult</text>
<text text-anchor="start" x="178.5" y="-850" font-family="Helvetica,sans-Serif" font-size="10.00">(xiiStringView sAbsoluteFile,</text>
<text text-anchor="start" x="178.5" y="-839" font-family="Helvetica,sans-Serif" font-size="10.00"> xiiDynamicArray&lt; xiiUInt8</text>
<text text-anchor="start" x="178.5" y="-828" font-family="Helvetica,sans-Serif" font-size="10.00"> &gt; &amp;FileContent, xiiTimestamp</text>
<text text-anchor="middle" x="254" y="-817" font-family="Helvetica,sans-Serif" font-size="10.00"> &amp;out_FileModification)&gt;</text>
</a>
</g>
</g>
<!-- Node1&#45;&gt;Node27 -->
<g id="edge26" class="edge">
<title>Node1&#45;&gt;Node27</title>
<path fill="none" stroke="midnightblue" d="M52.35,-1063.54C59.07,-1023.71 79.56,-933.88 133,-883.5 143.6,-873.51 156.71,-865.87 170.33,-860.05"/>
<polygon fill="midnightblue" stroke="midnightblue" points="48.87,-1063.16 50.77,-1073.58 55.78,-1064.24 48.87,-1063.16"/>
</g>
<!-- Node28 -->
<g id="node28" class="node">
<title>Node28</title>
<g id="a_node28"><a xlink:href="../../dc/d84/structxii_delegate.htm" target="_top" xlink:title=" ">
<polygon fill="white" stroke="black" points="175.5,-760.5 175.5,-790.5 332.5,-790.5 332.5,-760.5 175.5,-760.5"/>
<text text-anchor="start" x="183.5" y="-778.5" font-family="Helvetica,sans-Serif" font-size="10.00">xiiDelegate&lt; bool(xiiString</text>
<text text-anchor="middle" x="254" y="-767.5" font-family="Helvetica,sans-Serif" font-size="10.00">View sUnknownCommand)&gt;</text>
</a>
</g>
</g>
<!-- Node1&#45;&gt;Node28 -->
<g id="edge27" class="edge">
<title>Node1&#45;&gt;Node28</title>
<path fill="none" stroke="midnightblue" d="M48.93,-1063.81C48.6,-1012.21 55.26,-872.15 133,-800.5 144.74,-789.68 159.9,-783.06 175.46,-779.1"/>
<polygon fill="midnightblue" stroke="midnightblue" points="45.44,-1063.99 49.1,-1073.93 52.43,-1063.87 45.44,-1063.99"/>
</g>
<!-- Node29 -->
<g id="node29" class="node">
<title>Node29</title>
<g id="a_node29"><a xlink:href="../../dc/d84/structxii_delegate.htm" target="_top" xlink:title=" ">
<polygon fill="white" stroke="black" points="185,-711.5 185,-741.5 323,-741.5 323,-711.5 185,-711.5"/>
<text text-anchor="start" x="193" y="-729.5" font-family="Helvetica,sans-Serif" font-size="10.00">xiiDelegate&lt; void(xiiLog</text>
<text text-anchor="middle" x="254" y="-718.5" font-family="Helvetica,sans-Serif" font-size="10.00">Entry &amp;)&gt;</text>
</a>
</g>
</g>
<!-- Node1&#45;&gt;Node29 -->
<g id="edge28" class="edge">
<title>Node1&#45;&gt;Node29</title>
<path fill="none" stroke="midnightblue" d="M51.73,-1063.74C59.44,-999.11 86.99,-795.66 133,-751.5 146.89,-738.16 165.96,-731.13 184.81,-727.61"/>
<polygon fill="midnightblue" stroke="midnightblue" points="48.24,-1063.47 50.56,-1073.81 55.19,-1064.28 48.24,-1063.47"/>
</g>
<!-- Node30 -->
<g id="node30" class="node">
<title>Node30</title>
<g id="a_node30"><a xlink:href="../../dc/d84/structxii_delegate.htm" target="_top" xlink:title=" ">
<polygon fill="white" stroke="black" points="166.5,-662.5 166.5,-692.5 341.5,-692.5 341.5,-662.5 166.5,-662.5"/>
<text text-anchor="start" x="174.5" y="-680.5" font-family="Helvetica,sans-Serif" font-size="10.00">xiiDelegate&lt; xiiVisitorExecution</text>
<text text-anchor="middle" x="254" y="-669.5" font-family="Helvetica,sans-Serif" font-size="10.00">::Enum(xiiGameObject *)&gt;</text>
</a>
</g>
</g>
<!-- Node1&#45;&gt;Node30 -->
<g id="edge29" class="edge">
<title>Node1&#45;&gt;Node30</title>
<path fill="none" stroke="midnightblue" d="M51.05,-1063.66C57.01,-992.88 80.68,-754.28 133,-702.5 142.23,-693.37 153.87,-687.17 166.25,-683.02"/>
<polygon fill="midnightblue" stroke="midnightblue" points="47.55,-1063.6 50.22,-1073.85 54.52,-1064.17 47.55,-1063.6"/>
</g>
<!-- Node31 -->
<g id="node31" class="node">
<title>Node31</title>
<g id="a_node31"><a xlink:href="../../dc/d84/structxii_delegate.htm" target="_top" xlink:title=" ">
<polygon fill="white" stroke="black" points="186.5,-613.5 186.5,-643.5 321.5,-643.5 321.5,-613.5 186.5,-613.5"/>
<text text-anchor="start" x="194.5" y="-631.5" font-family="Helvetica,sans-Serif" font-size="10.00">xiiDelegate&lt; bool(const</text>
<text text-anchor="middle" x="254" y="-620.5" font-family="Helvetica,sans-Serif" font-size="10.00"> xiiStringBuilder &amp;)&gt;</text>
</a>
</g>
</g>
<!-- Node1&#45;&gt;Node31 -->
<g id="edge30" class="edge">
<title>Node1&#45;&gt;Node31</title>
<path fill="none" stroke="midnightblue" d="M50.52,-1063.62C54.86,-987.12 74.33,-712.98 133,-653.5 146.97,-639.34 166.75,-632.18 186.22,-628.81"/>
<polygon fill="midnightblue" stroke="midnightblue" points="47.02,-1063.61 49.97,-1073.79 54.01,-1063.99 47.02,-1063.61"/>
</g>
<!-- Node32 -->
<g id="node32" class="node">
<title>Node32</title>
<g id="a_node32"><a xlink:href="../../dc/d84/structxii_delegate.htm" target="_top" xlink:title=" ">
<polygon fill="white" stroke="black" points="181.5,-564.5 181.5,-594.5 326.5,-594.5 326.5,-564.5 181.5,-564.5"/>
<text text-anchor="start" x="189.5" y="-582.5" font-family="Helvetica,sans-Serif" font-size="10.00">xiiDelegate&lt; void(Iterator</text>
<text text-anchor="middle" x="254" y="-571.5" font-family="Helvetica,sans-Serif" font-size="10.00">Type &amp;)&gt;</text>
</a>
</g>
</g>
<!-- Node1&#45;&gt;Node32 -->
<g id="edge31" class="edge">
<title>Node1&#45;&gt;Node32</title>
<path fill="none" stroke="midnightblue" d="M50.09,-1063.52C52.95,-981.49 67.96,-671.71 133,-604.5 145.73,-591.35 163.45,-584.21 181.37,-580.53"/>
<polygon fill="midnightblue" stroke="midnightblue" points="46.58,-1063.81 49.76,-1073.91 53.58,-1064.03 46.58,-1063.81"/>
</g>
<!-- Node33 -->
<g id="node33" class="node">
<title>Node33</title>
<g id="a_node33"><a xlink:href="../../dc/d84/structxii_delegate.htm" target="_top" xlink:title=" ">
<polygon fill="white" stroke="black" points="177,-515.5 177,-545.5 331,-545.5 331,-515.5 177,-515.5"/>
<text text-anchor="start" x="185" y="-533.5" font-family="Helvetica,sans-Serif" font-size="10.00">xiiDelegate&lt; void(Resource</text>
<text text-anchor="middle" x="254" y="-522.5" font-family="Helvetica,sans-Serif" font-size="10.00">ReloadContext &amp;)&gt;</text>
</a>
</g>
</g>
<!-- Node1&#45;&gt;Node33 -->
<g id="edge32" class="edge">
<title>Node1&#45;&gt;Node33</title>
<path fill="none" stroke="midnightblue" d="M49.74,-1063.72C51.2,-976.91 61.48,-630.58 133,-555.5 144.6,-543.33 160.46,-536.29 176.86,-532.37"/>
<polygon fill="midnightblue" stroke="midnightblue" points="46.24,-1063.75 49.59,-1073.8 53.24,-1063.85 46.24,-1063.75"/>
</g>
<!-- Node34 -->
<g id="node34" class="node">
<title>Node34</title>
<g id="a_node34"><a xlink:href="../../dc/d84/structxii_delegate.htm" target="_top" xlink:title=" ">
<polygon fill="white" stroke="black" points="179.5,-466.5 179.5,-496.5 328.5,-496.5 328.5,-466.5 179.5,-466.5"/>
<text text-anchor="start" x="187.5" y="-484.5" font-family="Helvetica,sans-Serif" font-size="10.00">xiiDelegate&lt; void(xiiEditor</text>
<text text-anchor="middle" x="254" y="-473.5" font-family="Helvetica,sans-Serif" font-size="10.00">EngineSyncObject *)&gt;</text>
</a>
</g>
</g>
<!-- Node1&#45;&gt;Node34 -->
<g id="edge33" class="edge">
<title>Node1&#45;&gt;Node34</title>
<path fill="none" stroke="midnightblue" d="M49.45,-1063.67C49.61,-971.91 55.04,-589.42 133,-506.5 145.1,-493.63 161.97,-486.48 179.24,-482.69"/>
<polygon fill="midnightblue" stroke="midnightblue" points="45.95,-1063.8 49.45,-1073.8 52.95,-1063.8 45.95,-1063.8"/>
</g>
<!-- Node35 -->
<g id="node35" class="node">
<title>Node35</title>
<g id="a_node35"><a xlink:href="../../dc/d84/structxii_delegate.htm" target="_top" xlink:title=" ">
<polygon fill="white" stroke="black" points="172.5,-406 172.5,-447 335.5,-447 335.5,-406 172.5,-406"/>
<text text-anchor="start" x="180.5" y="-435" font-family="Helvetica,sans-Serif" font-size="10.00">xiiDelegate&lt; bool(const</text>
<text text-anchor="start" x="180.5" y="-424" font-family="Helvetica,sans-Serif" font-size="10.00"> xiiDocumentObject *,</text>
<text text-anchor="middle" x="254" y="-413" font-family="Helvetica,sans-Serif" font-size="10.00"> const xiiAbstractProperty *)&gt;</text>
</a>
</g>
</g>
<!-- Node1&#45;&gt;Node35 -->
<g id="edge34" class="edge">
<title>Node1&#45;&gt;Node35</title>
<path fill="none" stroke="midnightblue" d="M49.29,-1063.93C48.66,-968.22 50.7,-550.34 133,-457.5 143.35,-445.83 157.46,-438.28 172.37,-433.46"/>
<polygon fill="midnightblue" stroke="midnightblue" points="45.79,-1063.99 49.37,-1073.96 52.79,-1063.93 45.79,-1063.99"/>
</g>
<!-- Node36 -->
<g id="node36" class="node">
<title>Node36</title>
<g id="a_node36"><a xlink:href="../../dc/d84/structxii_delegate.htm" target="_top" xlink:title=" ">
<polygon fill="white" stroke="black" points="164.5,-356.5 164.5,-386.5 343.5,-386.5 343.5,-356.5 164.5,-356.5"/>
<text text-anchor="start" x="172.5" y="-374.5" font-family="Helvetica,sans-Serif" font-size="10.00">xiiDelegate&lt; void(xiiArray</text>
<text text-anchor="middle" x="254" y="-363.5" font-family="Helvetica,sans-Serif" font-size="10.00">Ptr&lt; const xiiUInt8 &gt; message)&gt;</text>
</a>
</g>
</g>
<!-- Node1&#45;&gt;Node36 -->
<g id="edge35" class="edge">
<title>Node1&#45;&gt;Node36</title>
<path fill="none" stroke="midnightblue" d="M50.54,-1063.75C56.39,-956.51 86.48,-447.13 133,-396.5 141.5,-387.26 152.45,-380.94 164.28,-376.7"/>
<polygon fill="midnightblue" stroke="midnightblue" points="47.04,-1063.65 50,-1073.83 54.03,-1064.03 47.04,-1063.65"/>
</g>
<!-- Node37 -->
<g id="node37" class="node">
<title>Node37</title>
<g id="a_node37"><a xlink:href="../../dc/d84/structxii_delegate.htm" target="_top" xlink:title=" ">
<polygon fill="white" stroke="black" points="186.5,-307.5 186.5,-337.5 321.5,-337.5 321.5,-307.5 186.5,-307.5"/>
<text text-anchor="start" x="194.5" y="-325.5" font-family="Helvetica,sans-Serif" font-size="10.00">xiiDelegate&lt; bool(const</text>
<text text-anchor="middle" x="254" y="-314.5" font-family="Helvetica,sans-Serif" font-size="10.00"> xiiRenderData *)&gt;</text>
</a>
</g>
</g>
<!-- Node1&#45;&gt;Node37 -->
<g id="edge36" class="edge">
<title>Node1&#45;&gt;Node37</title>
<path fill="none" stroke="midnightblue" d="M50.38,-1063.76C55.51,-952.05 83.21,-402.11 133,-347.5 146.62,-332.56 166.66,-325.26 186.47,-322"/>
<polygon fill="midnightblue" stroke="midnightblue" points="46.87,-1063.79 49.92,-1073.93 53.86,-1064.1 46.87,-1063.79"/>
</g>
<!-- Node38 -->
<g id="node38" class="node">
<title>Node38</title>
<g id="a_node38"><a xlink:href="../../dc/d84/structxii_delegate.htm" target="_top" xlink:title=" ">
<polygon fill="white" stroke="black" points="175,-269 175,-288 333,-288 333,-269 175,-269"/>
<text text-anchor="middle" x="254" y="-276" font-family="Helvetica,sans-Serif" font-size="10.00">xiiDelegate&lt; IteratorType()&gt;</text>
</a>
</g>
</g>
<!-- Node1&#45;&gt;Node38 -->
<g id="edge37" class="edge">
<title>Node1&#45;&gt;Node38</title>
<path fill="none" stroke="midnightblue" d="M50.2,-1063.52C54.5,-946.77 78.81,-355.99 133,-298.5 144.01,-286.82 159.06,-280.31 174.78,-276.93"/>
<polygon fill="midnightblue" stroke="midnightblue" points="46.69,-1063.71 49.83,-1073.83 53.69,-1063.96 46.69,-1063.71"/>
</g>
<!-- Node39 -->
<g id="node39" class="node">
<title>Node39</title>
<g id="a_node39"><a xlink:href="../../dc/d84/structxii_delegate.htm" target="_top" xlink:title=" ">
<polygon fill="white" stroke="black" points="157,-209 157,-250 351,-250 351,-209 157,-209"/>
<text text-anchor="start" x="165" y="-238" font-family="Helvetica,sans-Serif" font-size="10.00">xiiDelegate&lt; xiiQtEngine</text>
<text text-anchor="start" x="165" y="-227" font-family="Helvetica,sans-Serif" font-size="10.00">ViewWidget *(xiiQtEngineDocument</text>
<text text-anchor="middle" x="254" y="-216" font-family="Helvetica,sans-Serif" font-size="10.00">Window *, xiiEngineViewConfig *)&gt;</text>
</a>
</g>
</g>
<!-- Node1&#45;&gt;Node39 -->
<g id="edge38" class="edge">
<title>Node1&#45;&gt;Node39</title>
<path fill="none" stroke="midnightblue" d="M50.16,-1063.72C54.34,-944.28 78.59,-322.37 133,-259.5 139.6,-251.87 147.83,-246.03 156.86,-241.58"/>
<polygon fill="midnightblue" stroke="midnightblue" points="46.66,-1063.83 49.81,-1073.94 53.65,-1064.07 46.66,-1063.83"/>
</g>
<!-- Node40 -->
<g id="node40" class="node">
<title>Node40</title>
<g id="a_node40"><a xlink:href="../../dc/d84/structxii_delegate.htm" target="_top" xlink:title=" ">
<polygon fill="white" stroke="black" points="186.5,-159.5 186.5,-189.5 321.5,-189.5 321.5,-159.5 186.5,-159.5"/>
<text text-anchor="start" x="194.5" y="-177.5" font-family="Helvetica,sans-Serif" font-size="10.00">xiiDelegate&lt; void(const</text>
<text text-anchor="middle" x="254" y="-166.5" font-family="Helvetica,sans-Serif" font-size="10.00"> UpdateContext &amp;)&gt;</text>
</a>
</g>
</g>
<!-- Node1&#45;&gt;Node40 -->
<g id="edge39" class="edge">
<title>Node1&#45;&gt;Node40</title>
<path fill="none" stroke="midnightblue" d="M49.98,-1063.81C53.2,-939.46 73.33,-266.21 133,-199.5 146.48,-184.43 166.48,-177.1 186.3,-173.85"/>
<polygon fill="midnightblue" stroke="midnightblue" points="46.48,-1063.73 49.73,-1073.81 53.48,-1063.91 46.48,-1063.73"/>
</g>
<!-- Node41 -->
<g id="node41" class="node">
<title>Node41</title>
<g id="a_node41"><a xlink:href="../../dc/d84/structxii_delegate.htm" target="_top" xlink:title=" ">
<polygon fill="white" stroke="black" points="152,-88.5 152,-140.5 356,-140.5 356,-88.5 152,-88.5"/>
<text text-anchor="start" x="160" y="-128.5" font-family="Helvetica,sans-Serif" font-size="10.00">xiiDelegate&lt; xiiInternal</text>
<text text-anchor="start" x="160" y="-117.5" font-family="Helvetica,sans-Serif" font-size="10.00">::NewInstance&lt; xiiGALDevice</text>
<text text-anchor="start" x="160" y="-106.5" font-family="Helvetica,sans-Serif" font-size="10.00"> &gt;(xiiAllocatorBase *, const</text>
<text text-anchor="middle" x="254" y="-95.5" font-family="Helvetica,sans-Serif" font-size="10.00"> xiiGALDeviceCreationDescription &amp;)&gt;</text>
</a>
</g>
</g>
<!-- Node1&#45;&gt;Node41 -->
<g id="edge40" class="edge">
<title>Node1&#45;&gt;Node41</title>
<path fill="none" stroke="midnightblue" d="M49.96,-1063.6C53.12,-934.95 73.19,-223.82 133,-150.5 138.29,-144.01 144.71,-138.66 151.79,-134.25"/>
<polygon fill="midnightblue" stroke="midnightblue" points="46.46,-1063.83 49.71,-1073.91 53.45,-1063.99 46.46,-1063.83"/>
</g>
<!-- Node42 -->
<g id="node42" class="node">
<title>Node42</title>
<g id="a_node42"><a xlink:href="../../dc/d84/structxii_delegate.htm" target="_top" xlink:title="A generic delegate class which supports static functions and member functions.">
<polygon fill="white" stroke="black" points="178.5,-50 178.5,-69 329.5,-69 329.5,-50 178.5,-50"/>
<text text-anchor="middle" x="254" y="-57" font-family="Helvetica,sans-Serif" font-size="10.00">xiiDelegate&lt; T, DataSize &gt;</text>
</a>
</g>
</g>
<!-- Node1&#45;&gt;Node42 -->
<g id="edge41" class="edge">
<title>Node1&#45;&gt;Node42</title>
<path fill="none" stroke="midnightblue" d="M49.71,-1063.66C51.35,-929.22 63.77,-154.66 133,-79.5 144.73,-66.76 161.26,-60.13 178.31,-57"/>
<polygon fill="midnightblue" stroke="midnightblue" points="46.21,-1063.71 49.6,-1073.75 53.21,-1063.8 46.21,-1063.71"/>
</g>
<!-- Node43 -->
<g id="node43" class="node">
<title>Node43</title>
<g id="a_node43"><a xlink:href="../../d2/da7/structxii_delegate_3_01_r_07_args_8_8_8_08_00_01_data_size_01_4.htm" target="_top" xlink:title=" ">
<polygon fill="white" stroke="black" points="189.5,-0.5 189.5,-30.5 318.5,-30.5 318.5,-0.5 189.5,-0.5"/>
<text text-anchor="start" x="197.5" y="-18.5" font-family="Helvetica,sans-Serif" font-size="10.00">xiiDelegate&lt; R(Args...)</text>
<text text-anchor="middle" x="254" y="-7.5" font-family="Helvetica,sans-Serif" font-size="10.00">, DataSize &gt;</text>
</a>
</g>
</g>
<!-- Node1&#45;&gt;Node43 -->
<g id="edge42" class="edge">
<title>Node1&#45;&gt;Node43</title>
<path fill="none" stroke="midnightblue" d="M49.69,-1063.36C51.16,-925.17 62.74,-120.18 133,-40.5 147.07,-24.54 168.46,-17.23 189.31,-14.25"/>
<polygon fill="midnightblue" stroke="midnightblue" points="46.18,-1063.68 49.58,-1073.71 53.18,-1063.75 46.18,-1063.68"/>
</g>
</g>
</svg>
