<?xml version="1.0" encoding="UTF-8" standalone="no"?>
<!DOCTYPE svg PUBLIC "-//W3C//DTD SVG 1.1//EN"
 "http://www.w3.org/Graphics/SVG/1.1/DTD/svg11.dtd">
<!-- Generated by graphviz version 2.43.0 (0)
 -->
<!-- Title: xiiQtDocumentPanel Pages: 1 -->
<svg width="514pt" height="140pt"
 viewBox="0.00 0.00 513.50 140.00" xmlns="http://www.w3.org/2000/svg" xmlns:xlink="http://www.w3.org/1999/xlink">
<g id="graph0" class="graph" transform="scale(1 1) rotate(0) translate(4 136)">
<title>xiiQtDocumentPanel</title>
<polygon fill="white" stroke="transparent" points="-4,4 -4,-136 509.5,-136 509.5,4 -4,4"/>
<!-- Node1 -->
<g id="node1" class="node">
<title>Node1</title>
<g id="a_node1"><a xlink:title=" ">
<polygon fill="#bfbfbf" stroke="black" points="196.5,-56.5 196.5,-75.5 312.5,-75.5 312.5,-56.5 196.5,-56.5"/>
<text text-anchor="middle" x="254.5" y="-63.5" font-family="Helvetica,sans-Serif" font-size="10.00">xiiQtDocumentPanel</text>
</a>
</g>
</g>
<!-- Node3 -->
<g id="node3" class="node">
<title>Node3</title>
<g id="a_node3"><a xlink:href="../../d2/dac/classxii_qt_game_object_panel.htm" target="_top" xlink:title=" ">
<polygon fill="white" stroke="black" points="0,-0.5 0,-19.5 127,-19.5 127,-0.5 0,-0.5"/>
<text text-anchor="middle" x="63.5" y="-7.5" font-family="Helvetica,sans-Serif" font-size="10.00">xiiQtGameObjectPanel</text>
</a>
</g>
</g>
<!-- Node1&#45;&gt;Node3 -->
<g id="edge2" class="edge">
<title>Node1&#45;&gt;Node3</title>
<path fill="none" stroke="midnightblue" d="M214.53,-53.7C178.48,-43.51 126.26,-28.74 93.62,-19.52"/>
<polygon fill="midnightblue" stroke="midnightblue" points="213.66,-57.09 224.24,-56.44 215.56,-50.35 213.66,-57.09"/>
</g>
<!-- Node4 -->
<g id="node4" class="node">
<title>Node4</title>
<g id="a_node4"><a xlink:href="../../d4/d81/classxii_qt_layer_panel.htm" target="_top" xlink:title=" ">
<polygon fill="white" stroke="black" points="145,-0.5 145,-19.5 238,-19.5 238,-0.5 145,-0.5"/>
<text text-anchor="middle" x="191.5" y="-7.5" font-family="Helvetica,sans-Serif" font-size="10.00">xiiQtLayerPanel</text>
</a>
</g>
</g>
<!-- Node1&#45;&gt;Node4 -->
<g id="edge3" class="edge">
<title>Node1&#45;&gt;Node4</title>
<path fill="none" stroke="midnightblue" d="M236.46,-49.54C225.23,-39.91 211.18,-27.87 201.81,-19.83"/>
<polygon fill="midnightblue" stroke="midnightblue" points="234.51,-52.47 244.38,-56.32 239.06,-47.16 234.51,-52.47"/>
</g>
<!-- Node5 -->
<g id="node5" class="node">
<title>Node5</title>
<g id="a_node5"><a xlink:href="../../d1/d58/classxii_qt_scenegraph_panel.htm" target="_top" xlink:title=" ">
<polygon fill="white" stroke="black" points="256,-0.5 256,-19.5 379,-19.5 379,-0.5 256,-0.5"/>
<text text-anchor="middle" x="317.5" y="-7.5" font-family="Helvetica,sans-Serif" font-size="10.00">xiiQtScenegraphPanel</text>
</a>
</g>
</g>
<!-- Node1&#45;&gt;Node5 -->
<g id="edge4" class="edge">
<title>Node1&#45;&gt;Node5</title>
<path fill="none" stroke="midnightblue" d="M272.54,-49.54C283.77,-39.91 297.82,-27.87 307.19,-19.83"/>
<polygon fill="midnightblue" stroke="midnightblue" points="269.94,-47.16 264.62,-56.32 274.49,-52.47 269.94,-47.16"/>
</g>
<!-- Node6 -->
<g id="node6" class="node">
<title>Node6</title>
<g id="a_node6"><a xlink:href="../../d8/d86/classxii_qt_skeleton_panel.htm" target="_top" xlink:title=" ">
<polygon fill="white" stroke="black" points="397.5,-0.5 397.5,-19.5 505.5,-19.5 505.5,-0.5 397.5,-0.5"/>
<text text-anchor="middle" x="451.5" y="-7.5" font-family="Helvetica,sans-Serif" font-size="10.00">xiiQtSkeletonPanel</text>
</a>
</g>
</g>
<!-- Node1&#45;&gt;Node6 -->
<g id="edge5" class="edge">
<title>Node1&#45;&gt;Node6</title>
<path fill="none" stroke="midnightblue" d="M295.73,-53.7C332.91,-43.51 386.77,-28.74 420.43,-19.52"/>
<polygon fill="midnightblue" stroke="midnightblue" points="294.43,-50.42 285.72,-56.44 296.28,-57.18 294.43,-50.42"/>
</g>
<!-- Node2 -->
<g id="node2" class="node">
<title>Node2</title>
<g id="a_node2"><a xlink:title=" ">
<polygon fill="white" stroke="#bfbfbf" points="213,-112.5 213,-131.5 296,-131.5 296,-112.5 213,-112.5"/>
<text text-anchor="middle" x="254.5" y="-119.5" font-family="Helvetica,sans-Serif" font-size="10.00">QDockWidget</text>
</a>
</g>
</g>
<!-- Node2&#45;&gt;Node1 -->
<g id="edge1" class="edge">
<title>Node2&#45;&gt;Node1</title>
<path fill="none" stroke="midnightblue" d="M254.5,-101.8C254.5,-92.91 254.5,-82.78 254.5,-75.75"/>
<polygon fill="midnightblue" stroke="midnightblue" points="251,-102.08 254.5,-112.08 258,-102.08 251,-102.08"/>
</g>
</g>
</svg>
