<?xml version="1.0" encoding="UTF-8" standalone="no"?>
<!DOCTYPE svg PUBLIC "-//W3C//DTD SVG 1.1//EN"
 "http://www.w3.org/Graphics/SVG/1.1/DTD/svg11.dtd">
<!-- Generated by graphviz version 2.43.0 (0)
 -->
<!-- Title: xiiImageConversionStepPlanarize Pages: 1 -->
<svg width="204pt" height="274pt"
 viewBox="0.00 0.00 204.00 274.00" xmlns="http://www.w3.org/2000/svg" xmlns:xlink="http://www.w3.org/1999/xlink">
<g id="graph0" class="graph" transform="scale(1 1) rotate(0) translate(4 270)">
<title>xiiImageConversionStepPlanarize</title>
<polygon fill="white" stroke="transparent" points="-4,4 -4,-270 200,-270 200,4 -4,4"/>
<!-- Node1 -->
<g id="node1" class="node">
<title>Node1</title>
<g id="a_node1"><a xlink:title="Interface for a single image conversion step from a linear to a planar format.">
<polygon fill="#bfbfbf" stroke="black" points="7.5,-67.5 7.5,-86.5 188.5,-86.5 188.5,-67.5 7.5,-67.5"/>
<text text-anchor="middle" x="98" y="-74.5" font-family="Helvetica,sans-Serif" font-size="10.00">xiiImageConversionStepPlanarize</text>
</a>
</g>
</g>
<!-- Node5 -->
<g id="node5" class="node">
<title>Node5</title>
<g id="a_node5"><a xlink:title=" ">
<polygon fill="white" stroke="#bfbfbf" points="41,-0.5 41,-30.5 155,-30.5 155,-0.5 41,-0.5"/>
<text text-anchor="start" x="49" y="-18.5" font-family="Helvetica,sans-Serif" font-size="10.00">xiiImageConversion</text>
<text text-anchor="middle" x="98" y="-7.5" font-family="Helvetica,sans-Serif" font-size="10.00">_sRGB_NV12</text>
</a>
</g>
</g>
<!-- Node1&#45;&gt;Node5 -->
<g id="edge4" class="edge">
<title>Node1&#45;&gt;Node5</title>
<path fill="none" stroke="midnightblue" d="M98,-57.23C98,-48.59 98,-38.5 98,-30.52"/>
<polygon fill="midnightblue" stroke="midnightblue" points="94.5,-57.48 98,-67.48 101.5,-57.48 94.5,-57.48"/>
</g>
<!-- Node2 -->
<g id="node2" class="node">
<title>Node2</title>
<g id="a_node2"><a xlink:href="../../dc/d44/classxii_image_conversion_step.htm" target="_top" xlink:title="Interface for a single image conversion step.">
<polygon fill="white" stroke="black" points="30,-123.5 30,-142.5 166,-142.5 166,-123.5 30,-123.5"/>
<text text-anchor="middle" x="98" y="-130.5" font-family="Helvetica,sans-Serif" font-size="10.00">xiiImageConversionStep</text>
</a>
</g>
</g>
<!-- Node2&#45;&gt;Node1 -->
<g id="edge1" class="edge">
<title>Node2&#45;&gt;Node1</title>
<path fill="none" stroke="midnightblue" d="M98,-112.8C98,-103.91 98,-93.78 98,-86.75"/>
<polygon fill="midnightblue" stroke="midnightblue" points="94.5,-113.08 98,-123.08 101.5,-113.08 94.5,-113.08"/>
</g>
<!-- Node3 -->
<g id="node3" class="node">
<title>Node3</title>
<g id="a_node3"><a xlink:href="../../dc/d54/classxii_enumerable.htm" target="_top" xlink:title=" ">
<polygon fill="white" stroke="black" points="0,-179.5 0,-209.5 196,-209.5 196,-179.5 0,-179.5"/>
<text text-anchor="start" x="8" y="-197.5" font-family="Helvetica,sans-Serif" font-size="10.00">xiiEnumerable&lt; xiiImageConversion</text>
<text text-anchor="middle" x="98" y="-186.5" font-family="Helvetica,sans-Serif" font-size="10.00">Step &gt;</text>
</a>
</g>
</g>
<!-- Node3&#45;&gt;Node2 -->
<g id="edge2" class="edge">
<title>Node3&#45;&gt;Node2</title>
<path fill="none" stroke="midnightblue" d="M98,-169.29C98,-159.86 98,-149.65 98,-142.66"/>
<polygon fill="midnightblue" stroke="midnightblue" points="94.5,-169.4 98,-179.4 101.5,-169.4 94.5,-169.4"/>
</g>
<!-- Node4 -->
<g id="node4" class="node">
<title>Node4</title>
<g id="a_node4"><a xlink:href="../../d2/d38/classxii_no_base.htm" target="_top" xlink:title="Dummy type to pass to templates and macros that expect a base type for a class that has no base.">
<polygon fill="white" stroke="black" points="65,-246.5 65,-265.5 131,-265.5 131,-246.5 65,-246.5"/>
<text text-anchor="middle" x="98" y="-253.5" font-family="Helvetica,sans-Serif" font-size="10.00">xiiNoBase</text>
</a>
</g>
</g>
<!-- Node4&#45;&gt;Node3 -->
<g id="edge3" class="edge">
<title>Node4&#45;&gt;Node3</title>
<path fill="none" stroke="midnightblue" d="M98,-236.23C98,-227.59 98,-217.5 98,-209.52"/>
<polygon fill="midnightblue" stroke="midnightblue" points="94.5,-236.48 98,-246.48 101.5,-236.48 94.5,-236.48"/>
</g>
</g>
</svg>
