<?xml version="1.0" encoding="UTF-8" standalone="no"?>
<!DOCTYPE svg PUBLIC "-//W3C//DTD SVG 1.1//EN"
 "http://www.w3.org/Graphics/SVG/1.1/DTD/svg11.dtd">
<!-- Generated by graphviz version 2.43.0 (0)
 -->
<!-- Title: xiiScriptCoroutine Pages: 1 -->
<!--zoomable 280 -->
<svg id="main" version="1.1" xmlns="http://www.w3.org/2000/svg" xmlns:xlink="http://www.w3.org/1999/xlink" xml:space="preserve" onload="init(evt)">
<style type="text/css"><![CDATA[
.edge:hover path { stroke: red; }
.edge:hover polygon { stroke: red; fill: red; }
]]></style>
<script type="text/javascript"><![CDATA[
var edges = document.getElementsByTagName('g');
if (edges && edges.length) {
  for (var i=0;i<edges.length;i++) {
    if (edges[i].id.substr(0,4)=='edge') {
      edges[i].setAttribute('class','edge');
    }
  }
}
]]></script>
        <defs>
                <circle id="rim" cx="0" cy="0" r="7"/>
                <circle id="rim2" cx="0" cy="0" r="3.5"/>
                <g id="zoomPlus">
                        <use xlink:href="#rim" fill="#404040">
                                <set attributeName="fill" to="#808080" begin="zoomplus.mouseover" end="zoomplus.mouseout"/>
                        </use>
                        <path d="M-4,0h8M0,-4v8" fill="none" stroke="white" stroke-width="1.5" pointer-events="none"/>
                </g>
                <g id="zoomMin">
                        <use xlink:href="#rim" fill="#404040">
                                <set attributeName="fill" to="#808080" begin="zoomminus.mouseover" end="zoomminus.mouseout"/>
                        </use>
                        <path d="M-4,0h8" fill="none" stroke="white" stroke-width="1.5" pointer-events="none"/>
                </g>
                <g id="dirArrow">
                        <path fill="none" stroke="white" stroke-width="1.5" d="M0,-3.0v7 M-2.5,-0.5L0,-3.0L2.5,-0.5"/>
                </g>
               <g id="resetDef">
                       <use xlink:href="#rim2" fill="#404040">
                               <set attributeName="fill" to="#808080" begin="reset.mouseover" end="reset.mouseout"/>
                       </use>
               </g>
        </defs>

<script type="text/javascript">
var viewWidth = 589;
var viewHeight = 280;
var sectionId = 'dynsection-0';
</script>
<script xlink:href="../../svgpan.js"/>
<svg id="graph" class="graph">
<g id="viewport">
<title>xiiScriptCoroutine</title>
<polygon fill="white" stroke="transparent" points="-4,4 -4,-276 585,-276 585,4 -4,4"/>
<!-- Node1 -->
<g id="node1" class="node">
<title>Node1</title>
<g id="a_node1"><a xlink:title="Base class of script coroutines.">
<polygon fill="#bfbfbf" stroke="black" points="0,-104.5 0,-123.5 104,-123.5 104,-104.5 0,-104.5"/>
<text text-anchor="middle" x="52" y="-111.5" font-family="Helvetica,sans-Serif" font-size="10.00">xiiScriptCoroutine</text>
</a>
</g>
</g>
<!-- Node2 -->
<g id="node2" class="node">
<title>Node2</title>
<g id="a_node2"><a xlink:href="../../d3/d2d/classxii_typed_script_coroutine.htm" target="_top" xlink:title=" ">
<polygon fill="white" stroke="black" points="204.5,-230.5 204.5,-271.5 349.5,-271.5 349.5,-230.5 204.5,-230.5"/>
<text text-anchor="start" x="212.5" y="-259.5" font-family="Helvetica,sans-Serif" font-size="10.00">xiiTypedScriptCoroutine</text>
<text text-anchor="start" x="212.5" y="-248.5" font-family="Helvetica,sans-Serif" font-size="10.00">&lt; xiiScriptCoroutine_Wait,</text>
<text text-anchor="middle" x="277" y="-237.5" font-family="Helvetica,sans-Serif" font-size="10.00"> xiiTime &gt;</text>
</a>
</g>
</g>
<!-- Node1&#45;&gt;Node2 -->
<g id="edge1" class="edge">
<title>Node1&#45;&gt;Node2</title>
<path fill="none" stroke="midnightblue" d="M62.72,-132.43C76.53,-156.71 104.18,-198.91 140,-221 159.24,-232.87 182.57,-240.07 204.43,-244.43"/>
<polygon fill="midnightblue" stroke="midnightblue" points="65.7,-130.59 57.82,-123.51 59.57,-133.96 65.7,-130.59"/>
</g>
<!-- Node4 -->
<g id="node4" class="node">
<title>Node4</title>
<g id="a_node4"><a xlink:href="../../d3/d2d/classxii_typed_script_coroutine.htm" target="_top" xlink:title=" ">
<polygon fill="white" stroke="black" points="140,-159 140,-211 414,-211 414,-159 140,-159"/>
<text text-anchor="start" x="148" y="-199" font-family="Helvetica,sans-Serif" font-size="10.00">xiiTypedScriptCoroutine</text>
<text text-anchor="start" x="148" y="-188" font-family="Helvetica,sans-Serif" font-size="10.00">&lt; xiiScriptCoroutine_TweenProperty,</text>
<text text-anchor="start" x="148" y="-177" font-family="Helvetica,sans-Serif" font-size="10.00"> xiiComponentHandle, xiiStringView,</text>
<text text-anchor="middle" x="277" y="-166" font-family="Helvetica,sans-Serif" font-size="10.00"> xiiVariant, xiiTime, xiiEnum&lt; xiiEasingFunction &gt; &gt;</text>
</a>
</g>
</g>
<!-- Node1&#45;&gt;Node4 -->
<g id="edge3" class="edge">
<title>Node1&#45;&gt;Node4</title>
<path fill="none" stroke="midnightblue" d="M84.17,-127.63C100.6,-134.53 121.19,-142.75 140,-149 150.31,-152.43 161.15,-155.75 172.02,-158.9"/>
<polygon fill="midnightblue" stroke="midnightblue" points="85.1,-124.22 74.53,-123.53 82.36,-130.67 85.1,-124.22"/>
</g>
<!-- Node6 -->
<g id="node6" class="node">
<title>Node6</title>
<g id="a_node6"><a xlink:href="../../d3/d2d/classxii_typed_script_coroutine.htm" target="_top" xlink:title=" ">
<polygon fill="white" stroke="black" points="166.5,-88 166.5,-140 387.5,-140 387.5,-88 166.5,-88"/>
<text text-anchor="start" x="174.5" y="-128" font-family="Helvetica,sans-Serif" font-size="10.00">xiiTypedScriptCoroutine</text>
<text text-anchor="start" x="174.5" y="-117" font-family="Helvetica,sans-Serif" font-size="10.00">&lt; xiiScriptCoroutine_MoveTo,</text>
<text text-anchor="start" x="174.5" y="-106" font-family="Helvetica,sans-Serif" font-size="10.00"> xiiGameObjectHandle, xiiVec3,</text>
<text text-anchor="middle" x="277" y="-95" font-family="Helvetica,sans-Serif" font-size="10.00"> xiiTime, xiiEnum&lt; xiiEasingFunction &gt; &gt;</text>
</a>
</g>
</g>
<!-- Node1&#45;&gt;Node6 -->
<g id="edge5" class="edge">
<title>Node1&#45;&gt;Node6</title>
<path fill="none" stroke="midnightblue" d="M114.5,-114C130.66,-114 148.58,-114 166.44,-114"/>
<polygon fill="midnightblue" stroke="midnightblue" points="114.16,-110.5 104.16,-114 114.16,-117.5 114.16,-110.5"/>
</g>
<!-- Node8 -->
<g id="node8" class="node">
<title>Node8</title>
<g id="a_node8"><a xlink:href="../../d3/d2d/classxii_typed_script_coroutine.htm" target="_top" xlink:title="Base class of coroutines which are implemented in C++ to allow automatic unpacking of the arguments f...">
<polygon fill="white" stroke="black" points="211,-39 211,-69 343,-69 343,-39 211,-39"/>
<text text-anchor="start" x="219" y="-57" font-family="Helvetica,sans-Serif" font-size="10.00">xiiTypedScriptCoroutine</text>
<text text-anchor="middle" x="277" y="-46" font-family="Helvetica,sans-Serif" font-size="10.00">&lt; Derived, Args &gt;</text>
</a>
</g>
</g>
<!-- Node1&#45;&gt;Node8 -->
<g id="edge7" class="edge">
<title>Node1&#45;&gt;Node8</title>
<path fill="none" stroke="midnightblue" d="M81.8,-100.22C98.48,-92.72 120.06,-83.81 140,-78 162.79,-71.36 188.29,-66.27 211,-62.52"/>
<polygon fill="midnightblue" stroke="midnightblue" points="80.23,-97.09 72.6,-104.44 83.15,-103.46 80.23,-97.09"/>
</g>
<!-- Node9 -->
<g id="node9" class="node">
<title>Node9</title>
<g id="a_node9"><a xlink:href="../../d8/d80/classxii_visual_script_coroutine.htm" target="_top" xlink:title=" ">
<polygon fill="white" stroke="black" points="210,-0.5 210,-19.5 344,-19.5 344,-0.5 210,-0.5"/>
<text text-anchor="middle" x="277" y="-7.5" font-family="Helvetica,sans-Serif" font-size="10.00">xiiVisualScriptCoroutine</text>
</a>
</g>
</g>
<!-- Node1&#45;&gt;Node9 -->
<g id="edge8" class="edge">
<title>Node1&#45;&gt;Node9</title>
<path fill="none" stroke="midnightblue" d="M65.66,-96.09C80.85,-76.11 108.27,-44.57 140,-29 161.4,-18.5 186.83,-13.3 209.88,-10.87"/>
<polygon fill="midnightblue" stroke="midnightblue" points="62.68,-94.23 59.57,-104.35 68.32,-98.38 62.68,-94.23"/>
</g>
<!-- Node3 -->
<g id="node3" class="node">
<title>Node3</title>
<g id="a_node3"><a xlink:href="../../d7/d7b/classxii_script_coroutine___wait.htm" target="_top" xlink:title=" ">
<polygon fill="white" stroke="black" points="450,-241.5 450,-260.5 581,-260.5 581,-241.5 450,-241.5"/>
<text text-anchor="middle" x="515.5" y="-248.5" font-family="Helvetica,sans-Serif" font-size="10.00">xiiScriptCoroutine_Wait</text>
</a>
</g>
</g>
<!-- Node2&#45;&gt;Node3 -->
<g id="edge2" class="edge">
<title>Node2&#45;&gt;Node3</title>
<path fill="none" stroke="midnightblue" d="M359.88,-251C389.36,-251 422.19,-251 449.98,-251"/>
<polygon fill="midnightblue" stroke="midnightblue" points="359.6,-247.5 349.6,-251 359.6,-254.5 359.6,-247.5"/>
</g>
<!-- Node5 -->
<g id="node5" class="node">
<title>Node5</title>
<g id="a_node5"><a xlink:href="../../d9/db7/classxii_script_coroutine___tween_property.htm" target="_top" xlink:title=" ">
<polygon fill="white" stroke="black" points="463.5,-170 463.5,-200 567.5,-200 567.5,-170 463.5,-170"/>
<text text-anchor="start" x="471.5" y="-188" font-family="Helvetica,sans-Serif" font-size="10.00">xiiScriptCoroutine</text>
<text text-anchor="middle" x="515.5" y="-177" font-family="Helvetica,sans-Serif" font-size="10.00">_TweenProperty</text>
</a>
</g>
</g>
<!-- Node4&#45;&gt;Node5 -->
<g id="edge4" class="edge">
<title>Node4&#45;&gt;Node5</title>
<path fill="none" stroke="midnightblue" d="M424.36,-185C438.19,-185 451.47,-185 463.4,-185"/>
<polygon fill="midnightblue" stroke="midnightblue" points="424.2,-181.5 414.2,-185 424.2,-188.5 424.2,-181.5"/>
</g>
<!-- Node7 -->
<g id="node7" class="node">
<title>Node7</title>
<g id="a_node7"><a xlink:href="../../db/d71/classxii_script_coroutine___move_to.htm" target="_top" xlink:title=" ">
<polygon fill="white" stroke="black" points="463.5,-99 463.5,-129 567.5,-129 567.5,-99 463.5,-99"/>
<text text-anchor="start" x="471.5" y="-117" font-family="Helvetica,sans-Serif" font-size="10.00">xiiScriptCoroutine</text>
<text text-anchor="middle" x="515.5" y="-106" font-family="Helvetica,sans-Serif" font-size="10.00">_MoveTo</text>
</a>
</g>
</g>
<!-- Node6&#45;&gt;Node7 -->
<g id="edge6" class="edge">
<title>Node6&#45;&gt;Node7</title>
<path fill="none" stroke="midnightblue" d="M397.85,-114C420.95,-114 443.97,-114 463.38,-114"/>
<polygon fill="midnightblue" stroke="midnightblue" points="397.6,-110.5 387.6,-114 397.6,-117.5 397.6,-110.5"/>
</g>
</g>
</svg>
        <g id="navigator" transform="translate(0 0)" fill="#404254">
                <rect fill="#f2f5e9" fill-opacity="0.5" stroke="#606060" stroke-width=".5" x="0" y="0" width="60" height="60"/>
                <use id="zoomplus" xlink:href="#zoomPlus" x="17" y="9" onmousedown="handleZoom(evt,'in')"/>
                <use id="zoomminus" xlink:href="#zoomMin" x="42" y="9" onmousedown="handleZoom(evt,'out')"/>
                <use id="reset" xlink:href="#resetDef" x="30" y="36" onmousedown="handleReset()"/>
                <g id="arrowUp" xlink:href="#dirArrow" transform="translate(30 24)" onmousedown="handlePan(0,-1)">
                  <use xlink:href="#rim" fill="#404040">
                        <set attributeName="fill" to="#808080" begin="arrowUp.mouseover" end="arrowUp.mouseout"/>
                  </use>
                  <path fill="none" stroke="white" stroke-width="1.5" d="M0,-3.0v7 M-2.5,-0.5L0,-3.0L2.5,-0.5"/>
                </g>
                <g id="arrowRight" xlink:href="#dirArrow" transform="rotate(90) translate(36 -43)" onmousedown="handlePan(1,0)">
                  <use xlink:href="#rim" fill="#404040">
                        <set attributeName="fill" to="#808080" begin="arrowRight.mouseover" end="arrowRight.mouseout"/>
                  </use>
                  <path fill="none" stroke="white" stroke-width="1.5" d="M0,-3.0v7 M-2.5,-0.5L0,-3.0L2.5,-0.5"/>
                </g>
                <g id="arrowDown" xlink:href="#dirArrow" transform="rotate(180) translate(-30 -48)" onmousedown="handlePan(0,1)">
                  <use xlink:href="#rim" fill="#404040">
                        <set attributeName="fill" to="#808080" begin="arrowDown.mouseover" end="arrowDown.mouseout"/>
                  </use>
                  <path fill="none" stroke="white" stroke-width="1.5" d="M0,-3.0v7 M-2.5,-0.5L0,-3.0L2.5,-0.5"/>
                </g>
                <g id="arrowLeft" xlink:href="#dirArrow" transform="rotate(270) translate(-36 17)" onmousedown="handlePan(-1,0)">
                  <use xlink:href="#rim" fill="#404040">
                        <set attributeName="fill" to="#808080" begin="arrowLeft.mouseover" end="arrowLeft.mouseout"/>
                  </use>
                  <path fill="none" stroke="white" stroke-width="1.5" d="M0,-3.0v7 M-2.5,-0.5L0,-3.0L2.5,-0.5"/>
                </g>
        </g>
        <svg viewBox="0 0 15 15" width="100%" height="30px" preserveAspectRatio="xMaxYMin meet">
         <g id="arrow_out" transform="scale(0.3 0.3)">
          <a xlink:href="classxii_script_coroutine__inherit__graph_org.svg" target="_base">
           <rect id="button" ry="5" rx="5" y="6" x="6" height="38" width="38"
                fill="#f2f5e9" fill-opacity="0.5" stroke="#606060" stroke-width="1.0"/>
           <path id="arrow"
             d="M 11.500037,31.436501 C 11.940474,20.09759 22.043105,11.32322 32.158766,21.979434 L 37.068811,17.246167 C 37.068811,17.246167 37.088388,32 37.088388,32 L 22.160133,31.978069 C 22.160133,31.978069 26.997745,27.140456 26.997745,27.140456 C 18.528582,18.264221 13.291696,25.230495 11.500037,31.436501 z"
             style="fill:#404040;"/>
          </a>
         </g>
        </svg>
</svg>
