<?xml version="1.0" encoding="UTF-8" standalone="no"?>
<!DOCTYPE svg PUBLIC "-//W3C//DTD SVG 1.1//EN"
 "http://www.w3.org/Graphics/SVG/1.1/DTD/svg11.dtd">
<!-- Generated by graphviz version 2.43.0 (0)
 -->
<!-- Title: xiiOpaqueForwardRenderPass Pages: 1 -->
<svg width="169pt" height="308pt"
 viewBox="0.00 0.00 169.00 308.00" xmlns="http://www.w3.org/2000/svg" xmlns:xlink="http://www.w3.org/1999/xlink">
<g id="graph0" class="graph" transform="scale(1 1) rotate(0) translate(4 304)">
<title>xiiOpaqueForwardRenderPass</title>
<polygon fill="white" stroke="transparent" points="-4,4 -4,-304 165,-304 165,4 -4,4"/>
<!-- Node1 -->
<g id="node1" class="node">
<title>Node1</title>
<g id="a_node1"><a xlink:title="A forward render pass that renders all opaque objects into the color target.">
<polygon fill="#bfbfbf" stroke="black" points="0,-0.5 0,-19.5 161,-19.5 161,-0.5 0,-0.5"/>
<text text-anchor="middle" x="80.5" y="-7.5" font-family="Helvetica,sans-Serif" font-size="10.00">xiiOpaqueForwardRenderPass</text>
</a>
</g>
</g>
<!-- Node2 -->
<g id="node2" class="node">
<title>Node2</title>
<g id="a_node2"><a xlink:href="../../da/d8f/classxii_forward_render_pass.htm" target="_top" xlink:title="A standard forward render pass that renders into the color target.">
<polygon fill="white" stroke="black" points="18.5,-56.5 18.5,-75.5 142.5,-75.5 142.5,-56.5 18.5,-56.5"/>
<text text-anchor="middle" x="80.5" y="-63.5" font-family="Helvetica,sans-Serif" font-size="10.00">xiiForwardRenderPass</text>
</a>
</g>
</g>
<!-- Node2&#45;&gt;Node1 -->
<g id="edge1" class="edge">
<title>Node2&#45;&gt;Node1</title>
<path fill="none" stroke="midnightblue" d="M80.5,-45.8C80.5,-36.91 80.5,-26.78 80.5,-19.75"/>
<polygon fill="midnightblue" stroke="midnightblue" points="77,-46.08 80.5,-56.08 84,-46.08 77,-46.08"/>
</g>
<!-- Node3 -->
<g id="node3" class="node">
<title>Node3</title>
<g id="a_node3"><a xlink:href="../../d5/d44/classxii_render_pipeline_pass.htm" target="_top" xlink:title=" ">
<polygon fill="white" stroke="black" points="18.5,-112.5 18.5,-131.5 142.5,-131.5 142.5,-112.5 18.5,-112.5"/>
<text text-anchor="middle" x="80.5" y="-119.5" font-family="Helvetica,sans-Serif" font-size="10.00">xiiRenderPipelinePass</text>
</a>
</g>
</g>
<!-- Node3&#45;&gt;Node2 -->
<g id="edge2" class="edge">
<title>Node3&#45;&gt;Node2</title>
<path fill="none" stroke="midnightblue" d="M80.5,-101.8C80.5,-92.91 80.5,-82.78 80.5,-75.75"/>
<polygon fill="midnightblue" stroke="midnightblue" points="77,-102.08 80.5,-112.08 84,-102.08 77,-102.08"/>
</g>
<!-- Node4 -->
<g id="node4" class="node">
<title>Node4</title>
<g id="a_node4"><a xlink:href="../../d9/d98/classxii_render_pipeline_node.htm" target="_top" xlink:title=" ">
<polygon fill="white" stroke="black" points="16.5,-168.5 16.5,-187.5 144.5,-187.5 144.5,-168.5 16.5,-168.5"/>
<text text-anchor="middle" x="80.5" y="-175.5" font-family="Helvetica,sans-Serif" font-size="10.00">xiiRenderPipelineNode</text>
</a>
</g>
</g>
<!-- Node4&#45;&gt;Node3 -->
<g id="edge3" class="edge">
<title>Node4&#45;&gt;Node3</title>
<path fill="none" stroke="midnightblue" d="M80.5,-157.8C80.5,-148.91 80.5,-138.78 80.5,-131.75"/>
<polygon fill="midnightblue" stroke="midnightblue" points="77,-158.08 80.5,-168.08 84,-158.08 77,-158.08"/>
</g>
<!-- Node5 -->
<g id="node5" class="node">
<title>Node5</title>
<g id="a_node5"><a xlink:href="../../dc/d71/classxii_reflected_class.htm" target="_top" xlink:title="All classes that should be dynamically reflectable, need to be derived from this base class.">
<polygon fill="white" stroke="black" points="30,-224.5 30,-243.5 131,-243.5 131,-224.5 30,-224.5"/>
<text text-anchor="middle" x="80.5" y="-231.5" font-family="Helvetica,sans-Serif" font-size="10.00">xiiReflectedClass</text>
</a>
</g>
</g>
<!-- Node5&#45;&gt;Node4 -->
<g id="edge4" class="edge">
<title>Node5&#45;&gt;Node4</title>
<path fill="none" stroke="midnightblue" d="M80.5,-213.8C80.5,-204.91 80.5,-194.78 80.5,-187.75"/>
<polygon fill="midnightblue" stroke="midnightblue" points="77,-214.08 80.5,-224.08 84,-214.08 77,-214.08"/>
</g>
<!-- Node6 -->
<g id="node6" class="node">
<title>Node6</title>
<g id="a_node6"><a xlink:href="../../d2/d38/classxii_no_base.htm" target="_top" xlink:title="Dummy type to pass to templates and macros that expect a base type for a class that has no base.">
<polygon fill="white" stroke="black" points="47.5,-280.5 47.5,-299.5 113.5,-299.5 113.5,-280.5 47.5,-280.5"/>
<text text-anchor="middle" x="80.5" y="-287.5" font-family="Helvetica,sans-Serif" font-size="10.00">xiiNoBase</text>
</a>
</g>
</g>
<!-- Node6&#45;&gt;Node5 -->
<g id="edge5" class="edge">
<title>Node6&#45;&gt;Node5</title>
<path fill="none" stroke="midnightblue" d="M80.5,-269.8C80.5,-260.91 80.5,-250.78 80.5,-243.75"/>
<polygon fill="midnightblue" stroke="midnightblue" points="77,-270.08 80.5,-280.08 84,-270.08 77,-270.08"/>
</g>
</g>
</svg>
