<?xml version="1.0" encoding="UTF-8" standalone="no"?>
<!DOCTYPE svg PUBLIC "-//W3C//DTD SVG 1.1//EN"
 "http://www.w3.org/Graphics/SVG/1.1/DTD/svg11.dtd">
<!-- Generated by graphviz version 2.43.0 (0)
 -->
<!-- Title: xiiQtVariantPropertyWidget Pages: 1 -->
<svg width="336pt" height="263pt"
 viewBox="0.00 0.00 336.00 263.00" xmlns="http://www.w3.org/2000/svg" xmlns:xlink="http://www.w3.org/1999/xlink">
<g id="graph0" class="graph" transform="scale(1 1) rotate(0) translate(4 259)">
<title>xiiQtVariantPropertyWidget</title>
<polygon fill="white" stroke="transparent" points="-4,4 -4,-259 332,-259 332,4 -4,4"/>
<!-- Node1 -->
<g id="node1" class="node">
<title>Node1</title>
<g id="a_node1"><a xlink:title=" ">
<polygon fill="#bfbfbf" stroke="black" points="97.5,-67.5 97.5,-86.5 247.5,-86.5 247.5,-67.5 97.5,-67.5"/>
<text text-anchor="middle" x="172.5" y="-74.5" font-family="Helvetica,sans-Serif" font-size="10.00">xiiQtVariantPropertyWidget</text>
</a>
</g>
</g>
<!-- Node5 -->
<g id="node5" class="node">
<title>Node5</title>
<g id="a_node5"><a xlink:href="../../d8/dd3/classxii_qt_exposed_parameter_property_widget.htm" target="_top" xlink:title=" ">
<polygon fill="white" stroke="black" points="0,-0.5 0,-30.5 173,-30.5 173,-0.5 0,-0.5"/>
<text text-anchor="start" x="8" y="-18.5" font-family="Helvetica,sans-Serif" font-size="10.00">xiiQtExposedParameterProperty</text>
<text text-anchor="middle" x="86.5" y="-7.5" font-family="Helvetica,sans-Serif" font-size="10.00">Widget</text>
</a>
</g>
</g>
<!-- Node1&#45;&gt;Node5 -->
<g id="edge4" class="edge">
<title>Node1&#45;&gt;Node5</title>
<path fill="none" stroke="midnightblue" d="M151.89,-61.74C138.22,-52.28 120.37,-39.93 106.77,-30.52"/>
<polygon fill="midnightblue" stroke="midnightblue" points="149.96,-64.66 160.18,-67.48 153.95,-58.91 149.96,-64.66"/>
</g>
<!-- Node6 -->
<g id="node6" class="node">
<title>Node6</title>
<g id="a_node6"><a xlink:href="../../de/d6a/classxii_qt_visual_script_variable_widget.htm" target="_top" xlink:title=" ">
<polygon fill="white" stroke="black" points="191,-0.5 191,-30.5 328,-30.5 328,-0.5 191,-0.5"/>
<text text-anchor="start" x="199" y="-18.5" font-family="Helvetica,sans-Serif" font-size="10.00">xiiQtVisualScriptVariable</text>
<text text-anchor="middle" x="259.5" y="-7.5" font-family="Helvetica,sans-Serif" font-size="10.00">Widget</text>
</a>
</g>
</g>
<!-- Node1&#45;&gt;Node6 -->
<g id="edge5" class="edge">
<title>Node1&#45;&gt;Node6</title>
<path fill="none" stroke="midnightblue" d="M193.35,-61.74C207.18,-52.28 225.24,-39.93 239,-30.52"/>
<polygon fill="midnightblue" stroke="midnightblue" points="191.24,-58.94 184.96,-67.48 195.2,-64.72 191.24,-58.94"/>
</g>
<!-- Node2 -->
<g id="node2" class="node">
<title>Node2</title>
<g id="a_node2"><a xlink:href="../../d5/db2/classxii_qt_standard_property_widget.htm" target="_top" xlink:title="Base class for most &#39;simple&#39; property type widgets. Implements some of the standard functionality.">
<polygon fill="white" stroke="black" points="93,-123.5 93,-142.5 252,-142.5 252,-123.5 93,-123.5"/>
<text text-anchor="middle" x="172.5" y="-130.5" font-family="Helvetica,sans-Serif" font-size="10.00">xiiQtStandardPropertyWidget</text>
</a>
</g>
</g>
<!-- Node2&#45;&gt;Node1 -->
<g id="edge1" class="edge">
<title>Node2&#45;&gt;Node1</title>
<path fill="none" stroke="midnightblue" d="M172.5,-112.8C172.5,-103.91 172.5,-93.78 172.5,-86.75"/>
<polygon fill="midnightblue" stroke="midnightblue" points="169,-113.08 172.5,-123.08 176,-113.08 169,-113.08"/>
</g>
<!-- Node3 -->
<g id="node3" class="node">
<title>Node3</title>
<g id="a_node3"><a xlink:href="../../d9/d80/classxii_qt_property_widget.htm" target="_top" xlink:title="Base class for all property widgets.">
<polygon fill="white" stroke="black" points="114.5,-179.5 114.5,-198.5 230.5,-198.5 230.5,-179.5 114.5,-179.5"/>
<text text-anchor="middle" x="172.5" y="-186.5" font-family="Helvetica,sans-Serif" font-size="10.00">xiiQtPropertyWidget</text>
</a>
</g>
</g>
<!-- Node3&#45;&gt;Node2 -->
<g id="edge2" class="edge">
<title>Node3&#45;&gt;Node2</title>
<path fill="none" stroke="midnightblue" d="M172.5,-168.8C172.5,-159.91 172.5,-149.78 172.5,-142.75"/>
<polygon fill="midnightblue" stroke="midnightblue" points="169,-169.08 172.5,-179.08 176,-169.08 169,-169.08"/>
</g>
<!-- Node4 -->
<g id="node4" class="node">
<title>Node4</title>
<g id="a_node4"><a xlink:title=" ">
<polygon fill="white" stroke="#bfbfbf" points="143,-235.5 143,-254.5 202,-254.5 202,-235.5 143,-235.5"/>
<text text-anchor="middle" x="172.5" y="-242.5" font-family="Helvetica,sans-Serif" font-size="10.00">QWidget</text>
</a>
</g>
</g>
<!-- Node4&#45;&gt;Node3 -->
<g id="edge3" class="edge">
<title>Node4&#45;&gt;Node3</title>
<path fill="none" stroke="midnightblue" d="M172.5,-224.8C172.5,-215.91 172.5,-205.78 172.5,-198.75"/>
<polygon fill="midnightblue" stroke="midnightblue" points="169,-225.08 172.5,-235.08 176,-225.08 169,-225.08"/>
</g>
</g>
</svg>
