<?xml version="1.0" encoding="UTF-8" standalone="no"?>
<!DOCTYPE svg PUBLIC "-//W3C//DTD SVG 1.1//EN"
 "http://www.w3.org/Graphics/SVG/1.1/DTD/svg11.dtd">
<!-- Generated by graphviz version 2.43.0 (0)
 -->
<!-- Title: xiiAnimGraphInputPin Pages: 1 -->
<!--zoomable 261 -->

<svg id="main" version="1.1" xmlns="http://www.w3.org/2000/svg" xmlns:xlink="http://www.w3.org/1999/xlink" xml:space="preserve" onload="init(evt)">
<style type="text/css"><![CDATA[
.node, .edge {opacity: 0.7;}
.node.selected, .edge.selected {opacity: 1;}
.edge:hover path { stroke: red; }
.edge:hover polygon { stroke: red; fill: red; }
]]></style>

<defs>
  <circle id="rim" cx="0" cy="0" r="7"/>
  <circle id="rim2" cx="0" cy="0" r="3.5"/>
  <g id="zoomPlus">
    <use xlink:href="#rim" fill="#404040"><set attributeName="fill" to="#808080" begin="zoomplus.mouseover" end="zoomplus.mouseout"/></use>
    <path d="M-4,0h8M0,-4v8" fill="none" stroke="white" stroke-width="1.5" pointer-events="none"/>
  </g>
  <g id="zoomMin">
    <use xlink:href="#rim" fill="#404040"><set attributeName="fill" to="#808080" begin="zoomminus.mouseover" end="zoomminus.mouseout"/></use>
    <path d="M-4,0h8" fill="none" stroke="white" stroke-width="1.5" pointer-events="none"/>
  </g>
  <g id="arrowUp" transform="translate(30 24)">
    <use xlink:href="#rim"/>
    <path pointer-events="none" fill="none" stroke="white" stroke-width="1.5" d="M0,-3.0v7 M-2.5,-0.5L0,-3.0L2.5,-0.5"/>
  </g>
  <g id="arrowRight" transform="rotate(90) translate(36 -43)">
    <use xlink:href="#rim"/>
    <path pointer-events="none" fill="none" stroke="white" stroke-width="1.5" d="M0,-3.0v7 M-2.5,-0.5L0,-3.0L2.5,-0.5"/>
  </g>
  <g id="arrowDown" transform="rotate(180) translate(-30 -48)">
    <use xlink:href="#rim"/>
    <path pointer-events="none" fill="none" stroke="white" stroke-width="1.5" d="M0,-3.0v7 M-2.5,-0.5L0,-3.0L2.5,-0.5"/>
  </g>
  <g id="arrowLeft" transform="rotate(270) translate(-36 17)">
    <use xlink:href="#rim"/>
    <path pointer-events="none" fill="none" stroke="white" stroke-width="1.5" d="M0,-3.0v7 M-2.5,-0.5L0,-3.0L2.5,-0.5"/>
  </g>
  <g id="resetDef">
    <use xlink:href="#rim2" fill="#404040"><set attributeName="fill" to="#808080" begin="reset.mouseover" end="reset.mouseout"/></use>
  </g>
</defs>
<script type="application/ecmascript">
var viewWidth = 727;
var viewHeight = 261;
var sectionId = 'dynsection-0';
</script>
<script type="application/ecmascript" xlink:href="../../svg.min.js"/>
<svg id="graph" class="graph">
<g id="viewport">
<title>xiiAnimGraphInputPin</title>
<!-- Node1 -->
<g id="Node000001" class="node">
<title>Node1</title>
<g id="a_Node000001"><a xlink:title=" ">
<polygon fill="#999999" stroke="#666666" points="496,-136 373,-136 373,-117 496,-117 496,-136"/>
<text text-anchor="middle" x="434.5" y="-124" font-family="Helvetica,sans-Serif" font-size="10.00">xiiAnimGraphInputPin</text>
</a>
</g>
</g>
<!-- Node5 -->
<g id="Node000005" class="node">
<title>Node5</title>
<g id="a_Node000005"><a xlink:href="../../d1/dd9/classxii_anim_graph_bone_weights_input_pin.htm" target="_top" xlink:title=" ">
<polygon fill="white" stroke="#bfbfbf" points="719,-253 532,-253 532,-234 719,-234 719,-253"/>
<text text-anchor="middle" x="625.5" y="-241" font-family="Helvetica,sans-Serif" font-size="10.00">xiiAnimGraphBoneWeightsInputPin</text>
</a>
</g>
</g>
<!-- Node1&#45;&gt;Node5 -->
<g id="edge4_Node000001_Node000005" class="edge">
<title>Node1&#45;&gt;Node5</title>
<g id="a_edge4_Node000001_Node000005"><a xlink:title=" ">
<path fill="none" stroke="#63b8ff" d="M447.79,-144.69C464.19,-167.43 495.43,-205.75 532,-225.5 538.33,-228.92 545.22,-231.7 552.29,-233.95"/>
<polygon fill="#63b8ff" stroke="#63b8ff" points="450.49,-142.45 441.88,-136.27 444.76,-146.47 450.49,-142.45"/>
</a>
</g>
</g>
<!-- Node6 -->
<g id="Node000006" class="node">
<title>Node6</title>
<g id="a_Node000006"><a xlink:href="../../dc/de4/classxii_anim_graph_bool_input_pin.htm" target="_top" xlink:title=" ">
<polygon fill="white" stroke="#bfbfbf" points="698,-216 553,-216 553,-197 698,-197 698,-216"/>
<text text-anchor="middle" x="625.5" y="-204" font-family="Helvetica,sans-Serif" font-size="10.00">xiiAnimGraphBoolInputPin</text>
</a>
</g>
</g>
<!-- Node1&#45;&gt;Node6 -->
<g id="edge5_Node000001_Node000006" class="edge">
<title>Node1&#45;&gt;Node6</title>
<g id="a_edge5_Node000001_Node000006"><a xlink:title=" ">
<path fill="none" stroke="#63b8ff" d="M455.19,-142.36C473.87,-156.6 503.28,-176.98 532,-188.5 540.5,-191.91 549.71,-194.69 558.91,-196.96"/>
<polygon fill="#63b8ff" stroke="#63b8ff" points="457.21,-139.5 447.17,-136.12 452.91,-145.02 457.21,-139.5"/>
</a>
</g>
</g>
<!-- Node7 -->
<g id="Node000007" class="node">
<title>Node7</title>
<g id="a_Node000007"><a xlink:href="../../df/d23/classxii_anim_graph_local_pose_input_pin.htm" target="_top" xlink:title=" ">
<polygon fill="white" stroke="#bfbfbf" points="711.5,-179 539.5,-179 539.5,-160 711.5,-160 711.5,-179"/>
<text text-anchor="middle" x="625.5" y="-167" font-family="Helvetica,sans-Serif" font-size="10.00">xiiAnimGraphLocalPoseInputPin</text>
</a>
</g>
</g>
<!-- Node1&#45;&gt;Node7 -->
<g id="edge6_Node000001_Node000007" class="edge">
<title>Node1&#45;&gt;Node7</title>
<g id="a_edge6_Node000001_Node000007"><a xlink:title=" ">
<path fill="none" stroke="#63b8ff" d="M482.54,-138.61C498.24,-142.54 515.84,-146.83 532,-150.5 546.23,-153.73 561.74,-157.01 575.93,-159.92"/>
<polygon fill="#63b8ff" stroke="#63b8ff" points="483.08,-135.14 472.53,-136.09 481.37,-141.93 483.08,-135.14"/>
</a>
</g>
</g>
<!-- Node8 -->
<g id="Node000008" class="node">
<title>Node8</title>
<g id="a_Node000008"><a xlink:href="../../d3/dde/classxii_anim_graph_local_pose_multi_input_pin.htm" target="_top" xlink:title=" ">
<polygon fill="white" stroke="#bfbfbf" points="704,-141.5 547,-141.5 547,-111.5 704,-111.5 704,-141.5"/>
<text text-anchor="start" x="555" y="-129.5" font-family="Helvetica,sans-Serif" font-size="10.00">xiiAnimGraphLocalPoseMulti</text>
<text text-anchor="middle" x="625.5" y="-118.5" font-family="Helvetica,sans-Serif" font-size="10.00">InputPin</text>
</a>
</g>
</g>
<!-- Node1&#45;&gt;Node8 -->
<g id="edge7_Node000001_Node000008" class="edge">
<title>Node1&#45;&gt;Node8</title>
<g id="a_edge7_Node000001_Node000008"><a xlink:title=" ">
<path fill="none" stroke="#63b8ff" d="M506.12,-126.5C519.45,-126.5 533.45,-126.5 546.98,-126.5"/>
<polygon fill="#63b8ff" stroke="#63b8ff" points="506.08,-123 496.08,-126.5 506.08,-130 506.08,-123"/>
</a>
</g>
</g>
<!-- Node9 -->
<g id="Node000009" class="node">
<title>Node9</title>
<g id="a_Node000009"><a xlink:href="../../d7/db0/classxii_anim_graph_model_pose_input_pin.htm" target="_top" xlink:title=" ">
<polygon fill="white" stroke="#bfbfbf" points="713.5,-93 537.5,-93 537.5,-74 713.5,-74 713.5,-93"/>
<text text-anchor="middle" x="625.5" y="-81" font-family="Helvetica,sans-Serif" font-size="10.00">xiiAnimGraphModelPoseInputPin</text>
</a>
</g>
</g>
<!-- Node1&#45;&gt;Node9 -->
<g id="edge8_Node000001_Node000009" class="edge">
<title>Node1&#45;&gt;Node9</title>
<g id="a_edge8_Node000001_Node000009"><a xlink:title=" ">
<path fill="none" stroke="#63b8ff" d="M482.54,-114.39C498.24,-110.46 515.84,-106.17 532,-102.5 546.23,-99.27 561.74,-95.99 575.93,-93.08"/>
<polygon fill="#63b8ff" stroke="#63b8ff" points="481.37,-111.07 472.53,-116.91 483.08,-117.86 481.37,-111.07"/>
</a>
</g>
</g>
<!-- Node10 -->
<g id="Node000010" class="node">
<title>Node10</title>
<g id="a_Node000010"><a xlink:href="../../d0/df6/classxii_anim_graph_number_input_pin.htm" target="_top" xlink:title=" ">
<polygon fill="white" stroke="#bfbfbf" points="706.5,-56 544.5,-56 544.5,-37 706.5,-37 706.5,-56"/>
<text text-anchor="middle" x="625.5" y="-44" font-family="Helvetica,sans-Serif" font-size="10.00">xiiAnimGraphNumberInputPin</text>
</a>
</g>
</g>
<!-- Node1&#45;&gt;Node10 -->
<g id="edge9_Node000001_Node000010" class="edge">
<title>Node1&#45;&gt;Node10</title>
<g id="a_edge9_Node000001_Node000010"><a xlink:title=" ">
<path fill="none" stroke="#63b8ff" d="M455.19,-110.64C473.87,-96.4 503.28,-76.02 532,-64.5 540.5,-61.09 549.71,-58.31 558.91,-56.04"/>
<polygon fill="#63b8ff" stroke="#63b8ff" points="452.91,-107.98 447.17,-116.88 457.21,-113.5 452.91,-107.98"/>
</a>
</g>
</g>
<!-- Node11 -->
<g id="Node000011" class="node">
<title>Node11</title>
<g id="a_Node000011"><a xlink:href="../../dc/dff/classxii_anim_graph_trigger_input_pin.htm" target="_top" xlink:title=" ">
<polygon fill="white" stroke="#bfbfbf" points="703.5,-19 547.5,-19 547.5,0 703.5,0 703.5,-19"/>
<text text-anchor="middle" x="625.5" y="-7" font-family="Helvetica,sans-Serif" font-size="10.00">xiiAnimGraphTriggerInputPin</text>
</a>
</g>
</g>
<!-- Node1&#45;&gt;Node11 -->
<g id="edge10_Node000001_Node000011" class="edge">
<title>Node1&#45;&gt;Node11</title>
<g id="a_edge10_Node000001_Node000011"><a xlink:title=" ">
<path fill="none" stroke="#63b8ff" d="M447.79,-108.31C464.19,-85.57 495.43,-47.25 532,-27.5 538.33,-24.08 545.22,-21.3 552.29,-19.05"/>
<polygon fill="#63b8ff" stroke="#63b8ff" points="444.76,-106.53 441.88,-116.73 450.49,-110.55 444.76,-106.53"/>
</a>
</g>
</g>
<!-- Node2 -->
<g id="Node000002" class="node">
<title>Node2</title>
<g id="a_Node000002"><a xlink:href="../../dc/d71/classxii_anim_graph_pin.htm" target="_top" xlink:title=" ">
<polygon fill="white" stroke="#bfbfbf" points="337,-136 239,-136 239,-117 337,-117 337,-136"/>
<text text-anchor="middle" x="288" y="-124" font-family="Helvetica,sans-Serif" font-size="10.00">xiiAnimGraphPin</text>
</a>
</g>
</g>
<!-- Node2&#45;&gt;Node1 -->
<g id="edge1_Node000001_Node000002" class="edge">
<title>Node2&#45;&gt;Node1</title>
<g id="a_edge1_Node000001_Node000002"><a xlink:title=" ">
<path fill="none" stroke="#63b8ff" d="M347.28,-126.5C355.75,-126.5 364.49,-126.5 373,-126.5"/>
<polygon fill="#63b8ff" stroke="#63b8ff" points="347.12,-123 337.12,-126.5 347.12,-130 347.12,-123"/>
</a>
</g>
</g>
<!-- Node3 -->
<g id="Node000003" class="node">
<title>Node3</title>
<g id="a_Node000003"><a xlink:href="../../dc/d71/classxii_reflected_class.htm" target="_top" xlink:title="All classes that should be dynamically reflectable, need to be derived from this base class.">
<polygon fill="white" stroke="#666666" points="203,-136 102,-136 102,-117 203,-117 203,-136"/>
<text text-anchor="middle" x="152.5" y="-124" font-family="Helvetica,sans-Serif" font-size="10.00">xiiReflectedClass</text>
</a>
</g>
</g>
<!-- Node3&#45;&gt;Node2 -->
<g id="edge2_Node000002_Node000003" class="edge">
<title>Node3&#45;&gt;Node2</title>
<g id="a_edge2_Node000002_Node000003"><a xlink:title=" ">
<path fill="none" stroke="#63b8ff" d="M213.39,-126.5C221.82,-126.5 230.4,-126.5 238.58,-126.5"/>
<polygon fill="#63b8ff" stroke="#63b8ff" points="213.21,-123 203.21,-126.5 213.21,-130 213.21,-123"/>
</a>
</g>
</g>
<!-- Node4 -->
<g id="Node000004" class="node">
<title>Node4</title>
<g id="a_Node000004"><a xlink:href="../../d2/d38/classxii_no_base.htm" target="_top" xlink:title="Dummy type to pass to templates and macros that expect a base type for a class that has no base.">
<polygon fill="white" stroke="#666666" points="66,-136 0,-136 0,-117 66,-117 66,-136"/>
<text text-anchor="middle" x="33" y="-124" font-family="Helvetica,sans-Serif" font-size="10.00">xiiNoBase</text>
</a>
</g>
</g>
<!-- Node4&#45;&gt;Node3 -->
<g id="edge3_Node000003_Node000004" class="edge">
<title>Node4&#45;&gt;Node3</title>
<g id="a_edge3_Node000003_Node000004"><a xlink:title=" ">
<path fill="none" stroke="#63b8ff" d="M76.27,-126.5C84.54,-126.5 93.29,-126.5 101.78,-126.5"/>
<polygon fill="#63b8ff" stroke="#63b8ff" points="76.11,-123 66.11,-126.5 76.11,-130 76.11,-123"/>
</a>
</g>
</g>
</g>
</svg>

<g id="navigator" transform="translate(0 0)" fill="#404254">
  <rect fill="#f2f5e9" fill-opacity="0.5" stroke="#606060" stroke-width=".5" x="0" y="0" width="60" height="60"/>
  <use id="zoomplus" xlink:href="#zoomPlus" x="17" y="9" onmousedown="handleZoom(evt,'in')"/>
  <use id="zoomminus" xlink:href="#zoomMin" x="42" y="9" onmousedown="handleZoom(evt,'out')"/>
  <use id="reset" xlink:href="#resetDef" x="30" y="36" onmousedown="handleReset()"/>
   <use id="arrowup" xlink:href="#arrowUp" x="0" y="0" onmousedown="handlePan(0,-1)"/>
  <use id="arrowright" xlink:href="#arrowRight" x="0" y="0" onmousedown="handlePan(1,0)"/>
  <use id="arrowdown" xlink:href="#arrowDown" x="0" y="0" onmousedown="handlePan(0,1)"/>
  <use id="arrowleft" xlink:href="#arrowLeft" x="0" y="0" onmousedown="handlePan(-1,0)"/>
</g>
<svg viewBox="0 0 15 15" width="100%" height="30px" preserveAspectRatio="xMaxYMin meet">
 <g id="arrow_out" transform="scale(0.3 0.3)">
  <a xlink:href="classxii_anim_graph_input_pin__inherit__graph_org.svg" target="_base">
   <rect id="button" ry="5" rx="5" y="6" x="6" height="38" width="38"
        fill="#f2f5e9" fill-opacity="0.5" stroke="#606060" stroke-width="1.0"/>
   <path id="arrow"
     d="M 11.500037,31.436501 C 11.940474,20.09759 22.043105,11.32322 32.158766,21.979434 L 37.068811,17.246167 C 37.068811,17.246167 37.088388,32 37.088388,32 L 22.160133,31.978069 C 22.160133,31.978069 26.997745,27.140456 26.997745,27.140456 C 18.528582,18.264221 13.291696,25.230495 11.500037,31.436501 z"
     style="fill:#404040;"/>
  </a>
 </g>
</svg>

<style type='text/css'>
<![CDATA[
[data-mouse-over-selected='false'] { opacity: 0.7; }
[data-mouse-over-selected='true']  { opacity: 1.0; }
]]>
</style>
<script type="application/ecmascript"><![CDATA[
document.addEventListener('DOMContentLoaded', (event) => {
  highlightEdges();
  highlightAdjacentNodes();
});
]]></script>
</svg>
