<?xml version="1.0" encoding="UTF-8" standalone="no"?>
<!DOCTYPE svg PUBLIC "-//W3C//DTD SVG 1.1//EN"
 "http://www.w3.org/Graphics/SVG/1.1/DTD/svg11.dtd">
<!-- Generated by graphviz version 2.43.0 (0)
 -->
<!-- Title: xiiQtPropertyAnimAssetDocumentWindow Pages: 1 -->
<svg width="380pt" height="258pt"
 viewBox="0.00 0.00 380.00 258.00" xmlns="http://www.w3.org/2000/svg" xmlns:xlink="http://www.w3.org/1999/xlink">
<g id="graph0" class="graph" transform="scale(1 1) rotate(0) translate(4 254)">
<title>xiiQtPropertyAnimAssetDocumentWindow</title>
<!-- Node1 -->
<g id="Node000001" class="node">
<title>Node1</title>
<g id="a_Node000001"><a xlink:title=" ">
<polygon fill="#999999" stroke="#666666" points="284,-30 100,-30 100,0 284,0 284,-30"/>
<text text-anchor="start" x="108" y="-18" font-family="Helvetica,sans-Serif" font-size="10.00">xiiQtPropertyAnimAssetDocument</text>
<text text-anchor="middle" x="192" y="-7" font-family="Helvetica,sans-Serif" font-size="10.00">Window</text>
</a>
</g>
</g>
<!-- Node2 -->
<g id="Node000002" class="node">
<title>Node2</title>
<g id="a_Node000002"><a xlink:href="../../db/dd7/classxii_qt_game_object_document_window.html" target="_top" xlink:title=" ">
<polygon fill="white" stroke="#bfbfbf" points="190,-85 0,-85 0,-66 190,-66 190,-85"/>
<text text-anchor="middle" x="95" y="-73" font-family="Helvetica,sans-Serif" font-size="10.00">xiiQtGameObjectDocumentWindow</text>
</a>
</g>
</g>
<!-- Node2&#45;&gt;Node1 -->
<g id="edge1_Node000001_Node000002" class="edge">
<title>Node2&#45;&gt;Node1</title>
<g id="a_edge1_Node000001_Node000002"><a xlink:title=" ">
<path fill="none" stroke="#63b8ff" d="M118.12,-60.55C133.38,-51.36 153.29,-39.35 168.6,-30.11"/>
<polygon fill="#63b8ff" stroke="#63b8ff" points="116.07,-57.71 109.31,-65.87 119.68,-63.7 116.07,-57.71"/>
</a>
</g>
</g>
<!-- Node3 -->
<g id="Node000003" class="node">
<title>Node3</title>
<g id="a_Node000003"><a xlink:href="../../d0/d97/classxii_qt_engine_document_window.html" target="_top" xlink:title="Base class for all document windows that need a connection to the engine process, and might want to r...">
<polygon fill="white" stroke="#666666" points="176,-140 14,-140 14,-121 176,-121 176,-140"/>
<text text-anchor="middle" x="95" y="-128" font-family="Helvetica,sans-Serif" font-size="10.00">xiiQtEngineDocumentWindow</text>
</a>
</g>
</g>
<!-- Node3&#45;&gt;Node2 -->
<g id="edge2_Node000002_Node000003" class="edge">
<title>Node3&#45;&gt;Node2</title>
<g id="a_edge2_Node000002_Node000003"><a xlink:title=" ">
<path fill="none" stroke="#63b8ff" d="M95,-110.66C95,-101.93 95,-91.99 95,-85.09"/>
<polygon fill="#63b8ff" stroke="#63b8ff" points="91.5,-110.75 95,-120.75 98.5,-110.75 91.5,-110.75"/>
</a>
</g>
</g>
<!-- Node4 -->
<g id="Node000004" class="node">
<title>Node4</title>
<g id="a_Node000004"><a xlink:href="../../d8/dd2/classxii_qt_document_window.html" target="_top" xlink:title="Base class for all document windows. Handles the most basic document window management.">
<polygon fill="white" stroke="#666666" points="159.5,-195 30.5,-195 30.5,-176 159.5,-176 159.5,-195"/>
<text text-anchor="middle" x="95" y="-183" font-family="Helvetica,sans-Serif" font-size="10.00">xiiQtDocumentWindow</text>
</a>
</g>
</g>
<!-- Node4&#45;&gt;Node3 -->
<g id="edge3_Node000003_Node000004" class="edge">
<title>Node4&#45;&gt;Node3</title>
<g id="a_edge3_Node000003_Node000004"><a xlink:title=" ">
<path fill="none" stroke="#63b8ff" d="M95,-165.66C95,-156.93 95,-146.99 95,-140.09"/>
<polygon fill="#63b8ff" stroke="#63b8ff" points="91.5,-165.75 95,-175.75 98.5,-165.75 91.5,-165.75"/>
</a>
</g>
</g>
<!-- Node5 -->
<g id="Node000005" class="node">
<title>Node5</title>
<g id="a_Node000005"><a xlink:title=" ">
<polygon fill="white" stroke="#bfbfbf" points="138.5,-250 51.5,-250 51.5,-231 138.5,-231 138.5,-250"/>
<text text-anchor="middle" x="95" y="-238" font-family="Helvetica,sans-Serif" font-size="10.00">QMainWindow</text>
</a>
</g>
</g>
<!-- Node5&#45;&gt;Node4 -->
<g id="edge4_Node000004_Node000005" class="edge">
<title>Node5&#45;&gt;Node4</title>
<g id="a_edge4_Node000004_Node000005"><a xlink:title=" ">
<path fill="none" stroke="#63b8ff" d="M95,-220.66C95,-211.93 95,-201.99 95,-195.09"/>
<polygon fill="#63b8ff" stroke="#63b8ff" points="91.5,-220.75 95,-230.75 98.5,-220.75 91.5,-220.75"/>
</a>
</g>
</g>
<!-- Node6 -->
<g id="Node000006" class="node">
<title>Node6</title>
<g id="a_Node000006"><a xlink:href="../../d9/d36/classxii_game_object_gizmo_interface.html" target="_top" xlink:title=" ">
<polygon fill="white" stroke="#bfbfbf" points="372,-85 208,-85 208,-66 372,-66 372,-85"/>
<text text-anchor="middle" x="290" y="-73" font-family="Helvetica,sans-Serif" font-size="10.00">xiiGameObjectGizmoInterface</text>
</a>
</g>
</g>
<!-- Node6&#45;&gt;Node1 -->
<g id="edge5_Node000001_Node000006" class="edge">
<title>Node6&#45;&gt;Node1</title>
<g id="a_edge5_Node000001_Node000006"><a xlink:title=" ">
<path fill="none" stroke="#63b8ff" d="M266.64,-60.55C251.23,-51.36 231.11,-39.35 215.64,-30.11"/>
<polygon fill="#63b8ff" stroke="#63b8ff" points="265.16,-63.75 275.54,-65.87 268.75,-57.74 265.16,-63.75"/>
</a>
</g>
</g>
</g>
</svg>
