<?xml version="1.0" encoding="UTF-8" standalone="no"?>
<!DOCTYPE svg PUBLIC "-//W3C//DTD SVG 1.1//EN"
 "http://www.w3.org/Graphics/SVG/1.1/DTD/svg11.dtd">
<!-- Generated by graphviz version 2.43.0 (0)
 -->
<!-- Title: xiiGALTextureView Pages: 1 -->
<svg width="992pt" height="142pt"
 viewBox="0.00 0.00 992.00 142.00" xmlns="http://www.w3.org/2000/svg" xmlns:xlink="http://www.w3.org/1999/xlink">
<g id="graph0" class="graph" transform="scale(1 1) rotate(0) translate(4 138)">
<title>xiiGALTextureView</title>
<polygon fill="white" stroke="transparent" points="-4,4 -4,-138 988,-138 988,4 -4,4"/>
<!-- Node1 -->
<g id="node1" class="node">
<title>Node1</title>
<g id="a_node1"><a xlink:title="Interface that defines methods to manipulate a texture view object.">
<polygon fill="#bfbfbf" stroke="black" points="701,-57.5 701,-76.5 808,-76.5 808,-57.5 701,-57.5"/>
<text text-anchor="middle" x="754.5" y="-64.5" font-family="Helvetica,sans-Serif" font-size="10.00">xiiGALTextureView</text>
</a>
</g>
</g>
<!-- Node9 -->
<g id="node9" class="node">
<title>Node9</title>
<g id="a_node9"><a xlink:href="../../d0/d30/classxii_g_a_l_texture_view_d3_d11.htm" target="_top" xlink:title=" ">
<polygon fill="white" stroke="black" points="844,-114.5 844,-133.5 984,-133.5 984,-114.5 844,-114.5"/>
<text text-anchor="middle" x="914" y="-121.5" font-family="Helvetica,sans-Serif" font-size="10.00">xiiGALTextureViewD3D11</text>
</a>
</g>
</g>
<!-- Node1&#45;&gt;Node9 -->
<g id="edge8" class="edge">
<title>Node1&#45;&gt;Node9</title>
<path fill="none" stroke="midnightblue" d="M784.98,-80.86C802,-88.56 823.95,-97.97 844,-105 853.85,-108.45 864.66,-111.68 874.75,-114.47"/>
<polygon fill="midnightblue" stroke="midnightblue" points="786.12,-77.54 775.58,-76.56 783.21,-83.9 786.12,-77.54"/>
</g>
<!-- Node10 -->
<g id="node10" class="node">
<title>Node10</title>
<g id="a_node10"><a xlink:href="../../df/dbc/classxii_g_a_l_texture_view_d3_d12.htm" target="_top" xlink:title=" ">
<polygon fill="white" stroke="black" points="844,-76.5 844,-95.5 984,-95.5 984,-76.5 844,-76.5"/>
<text text-anchor="middle" x="914" y="-83.5" font-family="Helvetica,sans-Serif" font-size="10.00">xiiGALTextureViewD3D12</text>
</a>
</g>
</g>
<!-- Node1&#45;&gt;Node10 -->
<g id="edge9" class="edge">
<title>Node1&#45;&gt;Node10</title>
<path fill="none" stroke="midnightblue" d="M818.4,-74.59C826.74,-75.59 835.32,-76.63 843.75,-77.65"/>
<polygon fill="midnightblue" stroke="midnightblue" points="818.73,-71.1 808.38,-73.38 817.89,-78.05 818.73,-71.1"/>
</g>
<!-- Node11 -->
<g id="node11" class="node">
<title>Node11</title>
<g id="a_node11"><a xlink:href="../../d6/da6/classxii_g_a_l_texture_view_null.htm" target="_top" xlink:title=" ">
<polygon fill="white" stroke="black" points="850.5,-38.5 850.5,-57.5 977.5,-57.5 977.5,-38.5 850.5,-38.5"/>
<text text-anchor="middle" x="914" y="-45.5" font-family="Helvetica,sans-Serif" font-size="10.00">xiiGALTextureViewNull</text>
</a>
</g>
</g>
<!-- Node1&#45;&gt;Node11 -->
<g id="edge10" class="edge">
<title>Node1&#45;&gt;Node11</title>
<path fill="none" stroke="midnightblue" d="M818.36,-59.42C828.92,-58.14 839.89,-56.82 850.44,-55.55"/>
<polygon fill="midnightblue" stroke="midnightblue" points="817.89,-55.95 808.38,-60.62 818.73,-62.9 817.89,-55.95"/>
</g>
<!-- Node12 -->
<g id="node12" class="node">
<title>Node12</title>
<g id="a_node12"><a xlink:href="../../d5/d6e/classxii_g_a_l_texture_view_vulkan.htm" target="_top" xlink:title=" ">
<polygon fill="white" stroke="black" points="844,-0.5 844,-19.5 984,-19.5 984,-0.5 844,-0.5"/>
<text text-anchor="middle" x="914" y="-7.5" font-family="Helvetica,sans-Serif" font-size="10.00">xiiGALTextureViewVulkan</text>
</a>
</g>
</g>
<!-- Node1&#45;&gt;Node12 -->
<g id="edge11" class="edge">
<title>Node1&#45;&gt;Node12</title>
<path fill="none" stroke="midnightblue" d="M784.98,-53.14C802,-45.44 823.95,-36.03 844,-29 853.85,-25.55 864.66,-22.32 874.75,-19.53"/>
<polygon fill="midnightblue" stroke="midnightblue" points="783.21,-50.1 775.58,-57.44 786.12,-56.46 783.21,-50.1"/>
</g>
<!-- Node2 -->
<g id="node2" class="node">
<title>Node2</title>
<g id="a_node2"><a xlink:href="../../dc/d10/classxii_g_a_l_resource_view.htm" target="_top" xlink:title="Base class for all GAL resource views (texture and buffer views).">
<polygon fill="white" stroke="black" points="548,-57.5 548,-76.5 665,-76.5 665,-57.5 548,-57.5"/>
<text text-anchor="middle" x="606.5" y="-64.5" font-family="Helvetica,sans-Serif" font-size="10.00">xiiGALResourceView</text>
</a>
</g>
</g>
<!-- Node2&#45;&gt;Node1 -->
<g id="edge1" class="edge">
<title>Node2&#45;&gt;Node1</title>
<path fill="none" stroke="midnightblue" d="M675.26,-67C683.89,-67 692.62,-67 700.96,-67"/>
<polygon fill="midnightblue" stroke="midnightblue" points="675.2,-63.5 665.2,-67 675.2,-70.5 675.2,-63.5"/>
</g>
<!-- Node3 -->
<g id="node3" class="node">
<title>Node3</title>
<g id="a_node3"><a xlink:href="../../d5/d12/classxii_g_a_l_device_object.htm" target="_top" xlink:title="Base Graphics Abstraction Layer Object.">
<polygon fill="white" stroke="black" points="399,-57.5 399,-76.5 512,-76.5 512,-57.5 399,-57.5"/>
<text text-anchor="middle" x="455.5" y="-64.5" font-family="Helvetica,sans-Serif" font-size="10.00">xiiGALDeviceObject</text>
</a>
</g>
</g>
<!-- Node3&#45;&gt;Node2 -->
<g id="edge2" class="edge">
<title>Node3&#45;&gt;Node2</title>
<path fill="none" stroke="midnightblue" d="M522.56,-67C530.97,-67 539.53,-67 547.79,-67"/>
<polygon fill="midnightblue" stroke="midnightblue" points="522.41,-63.5 512.41,-67 522.41,-70.5 522.41,-63.5"/>
</g>
<!-- Node4 -->
<g id="node4" class="node">
<title>Node4</title>
<g id="a_node4"><a xlink:href="../../d3/dda/classxii_g_a_l_object.htm" target="_top" xlink:title="Base Graphics Abstraction Layer Object.">
<polygon fill="white" stroke="black" points="283,-57.5 283,-76.5 363,-76.5 363,-57.5 283,-57.5"/>
<text text-anchor="middle" x="323" y="-64.5" font-family="Helvetica,sans-Serif" font-size="10.00">xiiGALObject</text>
</a>
</g>
</g>
<!-- Node4&#45;&gt;Node3 -->
<g id="edge3" class="edge">
<title>Node4&#45;&gt;Node3</title>
<path fill="none" stroke="midnightblue" d="M373.19,-67C381.61,-67 390.4,-67 398.97,-67"/>
<polygon fill="midnightblue" stroke="midnightblue" points="373.15,-63.5 363.15,-67 373.15,-70.5 373.15,-63.5"/>
</g>
<!-- Node5 -->
<g id="node5" class="node">
<title>Node5</title>
<g id="a_node5"><a xlink:href="../../dc/d71/classxii_reflected_class.htm" target="_top" xlink:title="All classes that should be dynamically reflectable, need to be derived from this base class.">
<polygon fill="white" stroke="black" points="146,-76.5 146,-95.5 247,-95.5 247,-76.5 146,-76.5"/>
<text text-anchor="middle" x="196.5" y="-83.5" font-family="Helvetica,sans-Serif" font-size="10.00">xiiReflectedClass</text>
</a>
</g>
</g>
<!-- Node5&#45;&gt;Node4 -->
<g id="edge4" class="edge">
<title>Node5&#45;&gt;Node4</title>
<path fill="none" stroke="midnightblue" d="M256.96,-76.93C265.79,-75.58 274.69,-74.22 282.96,-72.96"/>
<polygon fill="midnightblue" stroke="midnightblue" points="256.42,-73.47 247.06,-78.44 257.48,-80.39 256.42,-73.47"/>
</g>
<!-- Node6 -->
<g id="node6" class="node">
<title>Node6</title>
<g id="a_node6"><a xlink:href="../../d2/d38/classxii_no_base.htm" target="_top" xlink:title="Dummy type to pass to templates and macros that expect a base type for a class that has no base.">
<polygon fill="white" stroke="black" points="22,-76.5 22,-95.5 88,-95.5 88,-76.5 22,-76.5"/>
<text text-anchor="middle" x="55" y="-83.5" font-family="Helvetica,sans-Serif" font-size="10.00">xiiNoBase</text>
</a>
</g>
</g>
<!-- Node6&#45;&gt;Node5 -->
<g id="edge5" class="edge">
<title>Node6&#45;&gt;Node5</title>
<path fill="none" stroke="midnightblue" d="M98.06,-86C113.12,-86 130.23,-86 145.87,-86"/>
<polygon fill="midnightblue" stroke="midnightblue" points="98,-82.5 88,-86 98,-89.5 98,-82.5"/>
</g>
<!-- Node7 -->
<g id="node7" class="node">
<title>Node7</title>
<g id="a_node7"><a xlink:href="../../d3/dd0/classxii_ref_counted.htm" target="_top" xlink:title="Base class for reference counted objects.">
<polygon fill="white" stroke="black" points="153.5,-38.5 153.5,-57.5 239.5,-57.5 239.5,-38.5 153.5,-38.5"/>
<text text-anchor="middle" x="196.5" y="-45.5" font-family="Helvetica,sans-Serif" font-size="10.00">xiiRefCounted</text>
</a>
</g>
</g>
<!-- Node7&#45;&gt;Node4 -->
<g id="edge6" class="edge">
<title>Node7&#45;&gt;Node4</title>
<path fill="none" stroke="midnightblue" d="M249.68,-55.96C260.78,-57.66 272.32,-59.42 282.83,-61.02"/>
<polygon fill="midnightblue" stroke="midnightblue" points="250.06,-52.48 239.65,-54.43 249.01,-59.4 250.06,-52.48"/>
</g>
<!-- Node8 -->
<g id="node8" class="node">
<title>Node8</title>
<g id="a_node8"><a xlink:href="../../d7/df4/classxii_ref_counting_impl.htm" target="_top" xlink:title=" ">
<polygon fill="white" stroke="black" points="0,-38.5 0,-57.5 110,-57.5 110,-38.5 0,-38.5"/>
<text text-anchor="middle" x="55" y="-45.5" font-family="Helvetica,sans-Serif" font-size="10.00">xiiRefCountingImpl</text>
</a>
</g>
</g>
<!-- Node8&#45;&gt;Node7 -->
<g id="edge7" class="edge">
<title>Node8&#45;&gt;Node7</title>
<path fill="none" stroke="midnightblue" d="M120.45,-48C131.57,-48 142.86,-48 153.19,-48"/>
<polygon fill="midnightblue" stroke="midnightblue" points="120.33,-44.5 110.33,-48 120.33,-51.5 120.33,-44.5"/>
</g>
</g>
</svg>
