<?xml version="1.0" encoding="UTF-8" standalone="no"?>
<!DOCTYPE svg PUBLIC "-//W3C//DTD SVG 1.1//EN"
 "http://www.w3.org/Graphics/SVG/1.1/DTD/svg11.dtd">
<!-- Generated by graphviz version 2.43.0 (0)
 -->
<!-- Title: xiiDefaultStateProvider Pages: 1 -->
<svg width="617pt" height="162pt"
 viewBox="0.00 0.00 617.00 161.50" xmlns="http://www.w3.org/2000/svg" xmlns:xlink="http://www.w3.org/1999/xlink">
<g id="graph0" class="graph" transform="scale(1 1) rotate(0) translate(4 157.5)">
<title>xiiDefaultStateProvider</title>
<!-- Node1 -->
<g id="Node000001" class="node">
<title>Node1</title>
<g id="a_Node000001"><a xlink:title="Interface for querying and restoring the default state of objects and containers.">
<polygon fill="#999999" stroke="#666666" points="399,-83 268,-83 268,-64 399,-64 399,-83"/>
<text text-anchor="middle" x="333.5" y="-71" font-family="Helvetica,sans-Serif" font-size="10.00">xiiDefaultStateProvider</text>
</a>
</g>
</g>
<!-- Node4 -->
<g id="Node000004" class="node">
<title>Node4</title>
<g id="a_Node000004"><a xlink:href="../../d2/d40/classxii_attribute_default_state_provider.html" target="_top" xlink:title="This is the fall back default state provider which handles the default state set via the xiiDefaultAt...">
<polygon fill="white" stroke="#666666" points="588.5,-153.5 455.5,-153.5 455.5,-123.5 588.5,-123.5 588.5,-153.5"/>
<text text-anchor="start" x="463.5" y="-141.5" font-family="Helvetica,sans-Serif" font-size="10.00">xiiAttributeDefaultState</text>
<text text-anchor="middle" x="522" y="-130.5" font-family="Helvetica,sans-Serif" font-size="10.00">Provider</text>
</a>
</g>
</g>
<!-- Node1&#45;&gt;Node4 -->
<g id="edge3_Node000001_Node000004" class="edge">
<title>Node1&#45;&gt;Node4</title>
<g id="a_edge3_Node000001_Node000004"><a xlink:title=" ">
<path fill="none" stroke="#63b8ff" d="M365.18,-87.09C384.91,-95.56 411.21,-106.36 435,-114.5 444.09,-117.61 453.83,-120.62 463.36,-123.4"/>
<polygon fill="#63b8ff" stroke="#63b8ff" points="366.36,-83.79 355.79,-83.02 363.58,-90.21 366.36,-83.79"/>
</a>
</g>
</g>
<!-- Node5 -->
<g id="Node000005" class="node">
<title>Node5</title>
<g id="a_Node000005"><a xlink:href="../../dd/d8e/classxii_dynamic_default_state_provider.html" target="_top" xlink:title="Retrieves the dynamic default state of an object or container attributed with xiiDynamicDefaultValueA...">
<polygon fill="white" stroke="#666666" points="609,-105 435,-105 435,-86 609,-86 609,-105"/>
<text text-anchor="middle" x="522" y="-93" font-family="Helvetica,sans-Serif" font-size="10.00">xiiDynamicDefaultStateProvider</text>
</a>
</g>
</g>
<!-- Node1&#45;&gt;Node5 -->
<g id="edge4_Node000001_Node000005" class="edge">
<title>Node1&#45;&gt;Node5</title>
<g id="a_edge4_Node000001_Node000005"><a xlink:title=" ">
<path fill="none" stroke="#63b8ff" d="M409.29,-82.32C419.49,-83.53 430,-84.77 440.31,-85.98"/>
<polygon fill="#63b8ff" stroke="#63b8ff" points="409.55,-78.83 399.21,-81.13 408.73,-85.78 409.55,-78.83"/>
</a>
</g>
</g>
<!-- Node6 -->
<g id="Node000006" class="node">
<title>Node6</title>
<g id="a_Node000006"><a xlink:href="../../dd/def/classxii_exposed_parameters_default_state_provider.html" target="_top" xlink:title="Default state provider handling variant maps with the xiiExposedParametersAttribute set....">
<polygon fill="white" stroke="#666666" points="602.5,-67.5 441.5,-67.5 441.5,-37.5 602.5,-37.5 602.5,-67.5"/>
<text text-anchor="start" x="449.5" y="-55.5" font-family="Helvetica,sans-Serif" font-size="10.00">xiiExposedParametersDefault</text>
<text text-anchor="middle" x="522" y="-44.5" font-family="Helvetica,sans-Serif" font-size="10.00">StateProvider</text>
</a>
</g>
</g>
<!-- Node1&#45;&gt;Node6 -->
<g id="edge5_Node000001_Node000006" class="edge">
<title>Node1&#45;&gt;Node6</title>
<g id="a_edge5_Node000001_Node000006"><a xlink:title=" ">
<path fill="none" stroke="#63b8ff" d="M409.2,-65.09C419.76,-63.9 430.64,-62.67 441.29,-61.48"/>
<polygon fill="#63b8ff" stroke="#63b8ff" points="408.75,-61.62 399.21,-66.21 409.53,-68.57 408.75,-61.62"/>
</a>
</g>
</g>
<!-- Node7 -->
<g id="Node000007" class="node">
<title>Node7</title>
<g id="a_Node000007"><a xlink:href="../../dc/de3/classxii_prefab_default_state_provider.html" target="_top" xlink:title="Default state provider that reflects the default state defined in the prefab template.">
<polygon fill="white" stroke="#666666" points="603,-19 441,-19 441,0 603,0 603,-19"/>
<text text-anchor="middle" x="522" y="-7" font-family="Helvetica,sans-Serif" font-size="10.00">xiiPrefabDefaultStateProvider</text>
</a>
</g>
</g>
<!-- Node1&#45;&gt;Node7 -->
<g id="edge6_Node000001_Node000007" class="edge">
<title>Node1&#45;&gt;Node7</title>
<g id="a_edge6_Node000001_Node000007"><a xlink:title=" ">
<path fill="none" stroke="#63b8ff" d="M362.02,-59.34C381.88,-49.58 409.57,-36.9 435,-28.5 446.03,-24.85 458.1,-21.7 469.6,-19.06"/>
<polygon fill="#63b8ff" stroke="#63b8ff" points="360.33,-56.28 352.94,-63.87 363.45,-62.54 360.33,-56.28"/>
</a>
</g>
</g>
<!-- Node2 -->
<g id="Node000002" class="node">
<title>Node2</title>
<g id="a_Node000002"><a xlink:href="../../d3/dd0/classxii_ref_counted.html" target="_top" xlink:title="Base class for reference counted objects.">
<polygon fill="white" stroke="#666666" points="232,-83 146,-83 146,-64 232,-64 232,-83"/>
<text text-anchor="middle" x="189" y="-71" font-family="Helvetica,sans-Serif" font-size="10.00">xiiRefCounted</text>
</a>
</g>
</g>
<!-- Node2&#45;&gt;Node1 -->
<g id="edge1_Node000001_Node000002" class="edge">
<title>Node2&#45;&gt;Node1</title>
<g id="a_edge1_Node000001_Node000002"><a xlink:title=" ">
<path fill="none" stroke="#63b8ff" d="M242.57,-73.5C250.8,-73.5 259.4,-73.5 267.86,-73.5"/>
<polygon fill="#63b8ff" stroke="#63b8ff" points="242.37,-70 232.37,-73.5 242.37,-77 242.37,-70"/>
</a>
</g>
</g>
<!-- Node3 -->
<g id="Node000003" class="node">
<title>Node3</title>
<g id="a_Node000003"><a xlink:href="../../d7/df4/classxii_ref_counting_impl.html" target="_top" xlink:title=" ">
<polygon fill="white" stroke="#bfbfbf" points="110,-83 0,-83 0,-64 110,-64 110,-83"/>
<text text-anchor="middle" x="55" y="-71" font-family="Helvetica,sans-Serif" font-size="10.00">xiiRefCountingImpl</text>
</a>
</g>
</g>
<!-- Node3&#45;&gt;Node2 -->
<g id="edge2_Node000002_Node000003" class="edge">
<title>Node3&#45;&gt;Node2</title>
<g id="a_edge2_Node000002_Node000003"><a xlink:title=" ">
<path fill="none" stroke="#63b8ff" d="M120.25,-73.5C128.98,-73.5 137.74,-73.5 145.93,-73.5"/>
<polygon fill="#63b8ff" stroke="#63b8ff" points="120.07,-70 110.07,-73.5 120.07,-77 120.07,-70"/>
</a>
</g>
</g>
</g>
</svg>
