<?xml version="1.0" encoding="UTF-8" standalone="no"?>
<!DOCTYPE svg PUBLIC "-//W3C//DTD SVG 1.1//EN"
 "http://www.w3.org/Graphics/SVG/1.1/DTD/svg11.dtd">
<!-- Generated by graphviz version 2.43.0 (0)
 -->
<!-- Title: xiiScriptCoroutineRTTI Pages: 1 -->
<svg width="186pt" height="84pt"
 viewBox="0.00 0.00 186.00 84.00" xmlns="http://www.w3.org/2000/svg" xmlns:xlink="http://www.w3.org/1999/xlink">
<g id="graph0" class="graph" transform="scale(1 1) rotate(0) translate(4 80)">
<title>xiiScriptCoroutineRTTI</title>
<polygon fill="white" stroke="transparent" points="-4,4 -4,-80 182,-80 182,4 -4,4"/>
<!-- Node1 -->
<g id="node1" class="node">
<title>Node1</title>
<g id="a_node1"><a xlink:title="A coroutine type that stores a custom allocator.">
<polygon fill="#bfbfbf" stroke="black" points="11.5,-0.5 11.5,-19.5 136.5,-19.5 136.5,-0.5 11.5,-0.5"/>
<text text-anchor="middle" x="74" y="-7.5" font-family="Helvetica,sans-Serif" font-size="10.00">xiiScriptCoroutineRTTI</text>
</a>
</g>
</g>
<!-- Node2 -->
<g id="node2" class="node">
<title>Node2</title>
<g id="a_node2"><a xlink:href="../../db/d89/classxii_r_t_t_i.htm" target="_top" xlink:title="This class holds information about reflected types. Each instance represents one type that is known t...">
<polygon fill="white" stroke="black" points="0,-56.5 0,-75.5 50,-75.5 50,-56.5 0,-56.5"/>
<text text-anchor="middle" x="25" y="-63.5" font-family="Helvetica,sans-Serif" font-size="10.00">xiiRTTI</text>
</a>
</g>
</g>
<!-- Node2&#45;&gt;Node1 -->
<g id="edge1" class="edge">
<title>Node2&#45;&gt;Node1</title>
<path fill="none" stroke="midnightblue" d="M40.03,-48.43C48.62,-38.97 59.04,-27.48 66.06,-19.75"/>
<polygon fill="midnightblue" stroke="midnightblue" points="37.22,-46.33 33.09,-56.08 42.4,-51.03 37.22,-46.33"/>
</g>
<!-- Node3 -->
<g id="node3" class="node">
<title>Node3</title>
<g id="a_node3"><a xlink:href="../../d7/df4/classxii_ref_counting_impl.htm" target="_top" xlink:title=" ">
<polygon fill="white" stroke="black" points="68,-56.5 68,-75.5 178,-75.5 178,-56.5 68,-56.5"/>
<text text-anchor="middle" x="123" y="-63.5" font-family="Helvetica,sans-Serif" font-size="10.00">xiiRefCountingImpl</text>
</a>
</g>
</g>
<!-- Node3&#45;&gt;Node1 -->
<g id="edge2" class="edge">
<title>Node3&#45;&gt;Node1</title>
<path fill="none" stroke="midnightblue" d="M107.97,-48.43C99.38,-38.97 88.96,-27.48 81.94,-19.75"/>
<polygon fill="midnightblue" stroke="midnightblue" points="105.6,-51.03 114.91,-56.08 110.78,-46.33 105.6,-51.03"/>
</g>
</g>
</svg>
