<?xml version="1.0" encoding="UTF-8" standalone="no"?>
<!DOCTYPE svg PUBLIC "-//W3C//DTD SVG 1.1//EN"
 "http://www.w3.org/Graphics/SVG/1.1/DTD/svg11.dtd">
<!-- Generated by graphviz version 2.43.0 (0)
 -->
<!-- Title: xiiPreferences Pages: 1 -->
<svg width="577pt" height="212pt"
 viewBox="0.00 0.00 577.00 212.00" xmlns="http://www.w3.org/2000/svg" xmlns:xlink="http://www.w3.org/1999/xlink">
<g id="graph0" class="graph" transform="scale(1 1) rotate(0) translate(4 208)">
<title>xiiPreferences</title>
<!-- Node1 -->
<g id="Node000001" class="node">
<title>Node1</title>
<g id="a_Node000001"><a xlink:title="Base class for all preferences.">
<polygon fill="#999999" stroke="#666666" points="325,-111 239,-111 239,-92 325,-92 325,-111"/>
<text text-anchor="middle" x="282" y="-99" font-family="Helvetica,sans-Serif" font-size="10.00">xiiPreferences</text>
</a>
</g>
</g>
<!-- Node4 -->
<g id="Node000004" class="node">
<title>Node4</title>
<g id="a_Node000004"><a xlink:href="../../dc/d95/classxii_editor_application_preferences.html" target="_top" xlink:title=" ">
<polygon fill="white" stroke="#bfbfbf" points="550,-204 380,-204 380,-185 550,-185 550,-204"/>
<text text-anchor="middle" x="465" y="-192" font-family="Helvetica,sans-Serif" font-size="10.00">xiiEditorApplicationPreferences</text>
</a>
</g>
</g>
<!-- Node1&#45;&gt;Node4 -->
<g id="edge3_Node000001_Node000004" class="edge">
<title>Node1&#45;&gt;Node4</title>
<g id="a_edge3_Node000001_Node000004"><a xlink:title=" ">
<path fill="none" stroke="#63b8ff" d="M296.35,-119.46C310.4,-136.98 334.18,-162.9 361,-176.5 367.72,-179.91 374.97,-182.68 382.39,-184.94"/>
<polygon fill="#63b8ff" stroke="#63b8ff" points="298.82,-116.94 289.92,-111.18 293.29,-121.23 298.82,-116.94"/>
</a>
</g>
</g>
<!-- Node5 -->
<g id="Node000005" class="node">
<title>Node5</title>
<g id="a_Node000005"><a xlink:href="../../d6/d9b/classxii_editor_preferences_user.html" target="_top" xlink:title="Stores editor specific preferences for the current user.">
<polygon fill="white" stroke="#666666" points="533.5,-167 396.5,-167 396.5,-148 533.5,-148 533.5,-167"/>
<text text-anchor="middle" x="465" y="-155" font-family="Helvetica,sans-Serif" font-size="10.00">xiiEditorPreferencesUser</text>
</a>
</g>
</g>
<!-- Node1&#45;&gt;Node5 -->
<g id="edge4_Node000001_Node000005" class="edge">
<title>Node1&#45;&gt;Node5</title>
<g id="a_edge4_Node000001_Node000005"><a xlink:title=" ">
<path fill="none" stroke="#63b8ff" d="M308.25,-116.05C323.17,-124.06 342.66,-133.56 361,-139.5 372.23,-143.14 384.39,-146.08 396.29,-148.46"/>
<polygon fill="#63b8ff" stroke="#63b8ff" points="309.62,-112.81 299.17,-111.05 306.25,-118.94 309.62,-112.81"/>
</a>
</g>
</g>
<!-- Node6 -->
<g id="Node000006" class="node">
<title>Node6</title>
<g id="a_Node000006"><a xlink:href="../../df/d2d/classxii_game_object_context_preferences_user.html" target="_top" xlink:title=" ">
<polygon fill="white" stroke="#bfbfbf" points="569,-130 361,-130 361,-111 569,-111 569,-130"/>
<text text-anchor="middle" x="465" y="-118" font-family="Helvetica,sans-Serif" font-size="10.00">xiiGameObjectContextPreferencesUser</text>
</a>
</g>
</g>
<!-- Node1&#45;&gt;Node6 -->
<g id="edge5_Node000001_Node000006" class="edge">
<title>Node1&#45;&gt;Node6</title>
<g id="a_edge5_Node000001_Node000006"><a xlink:title=" ">
<path fill="none" stroke="#63b8ff" d="M335.56,-107.02C347.43,-108.26 360.36,-109.62 373.29,-110.98"/>
<polygon fill="#63b8ff" stroke="#63b8ff" points="335.75,-103.52 325.44,-105.95 335.02,-110.48 335.75,-103.52"/>
</a>
</g>
</g>
<!-- Node7 -->
<g id="Node000007" class="node">
<title>Node7</title>
<g id="a_Node000007"><a xlink:href="../../dd/d13/classxii_project_preferences_user.html" target="_top" xlink:title="Stores project specific preferences for the current user.">
<polygon fill="white" stroke="#666666" points="536.5,-93 393.5,-93 393.5,-74 536.5,-74 536.5,-93"/>
<text text-anchor="middle" x="465" y="-81" font-family="Helvetica,sans-Serif" font-size="10.00">xiiProjectPreferencesUser</text>
</a>
</g>
</g>
<!-- Node1&#45;&gt;Node7 -->
<g id="edge6_Node000001_Node000007" class="edge">
<title>Node1&#45;&gt;Node7</title>
<g id="a_edge6_Node000001_Node000007"><a xlink:title=" ">
<path fill="none" stroke="#63b8ff" d="M335.45,-96.28C353.45,-94.49 373.92,-92.46 393.14,-90.55"/>
<polygon fill="#63b8ff" stroke="#63b8ff" points="335.04,-92.81 325.44,-97.28 335.73,-99.77 335.04,-92.81"/>
</a>
</g>
</g>
<!-- Node8 -->
<g id="Node000008" class="node">
<title>Node8</title>
<g id="a_Node000008"><a xlink:href="../../d5/d19/classxii_quad_view_preferences_user.html" target="_top" xlink:title=" ">
<polygon fill="white" stroke="#bfbfbf" points="544,-56 386,-56 386,-37 544,-37 544,-56"/>
<text text-anchor="middle" x="465" y="-44" font-family="Helvetica,sans-Serif" font-size="10.00">xiiQuadViewPreferencesUser</text>
</a>
</g>
</g>
<!-- Node1&#45;&gt;Node8 -->
<g id="edge7_Node000001_Node000008" class="edge">
<title>Node1&#45;&gt;Node8</title>
<g id="a_edge7_Node000001_Node000008"><a xlink:title=" ">
<path fill="none" stroke="#63b8ff" d="M308.88,-87.06C323.73,-79.32 342.96,-70.24 361,-64.5 371.64,-61.12 383.11,-58.32 394.4,-56.02"/>
<polygon fill="#63b8ff" stroke="#63b8ff" points="306.98,-84.1 299.81,-91.89 310.28,-90.28 306.98,-84.1"/>
</a>
</g>
</g>
<!-- Node9 -->
<g id="Node000009" class="node">
<title>Node9</title>
<g id="a_Node000009"><a xlink:href="../../da/dce/classxii_scene_preferences_user.html" target="_top" xlink:title=" ">
<polygon fill="white" stroke="#bfbfbf" points="534,-19 396,-19 396,0 534,0 534,-19"/>
<text text-anchor="middle" x="465" y="-7" font-family="Helvetica,sans-Serif" font-size="10.00">xiiScenePreferencesUser</text>
</a>
</g>
</g>
<!-- Node1&#45;&gt;Node9 -->
<g id="edge8_Node000001_Node000009" class="edge">
<title>Node1&#45;&gt;Node9</title>
<g id="a_edge8_Node000001_Node000009"><a xlink:title=" ">
<path fill="none" stroke="#63b8ff" d="M296.4,-83.78C310.49,-66.5 334.3,-40.93 361,-27.5 371.78,-22.08 383.92,-18.25 395.97,-15.57"/>
<polygon fill="#63b8ff" stroke="#63b8ff" points="293.4,-81.93 289.95,-91.95 298.89,-86.27 293.4,-81.93"/>
</a>
</g>
</g>
<!-- Node2 -->
<g id="Node000002" class="node">
<title>Node2</title>
<g id="a_Node000002"><a xlink:href="../../dc/d71/classxii_reflected_class.html" target="_top" xlink:title="All classes that should be dynamically reflectable, need to be derived from this base class.">
<polygon fill="white" stroke="#666666" points="203,-111 102,-111 102,-92 203,-92 203,-111"/>
<text text-anchor="middle" x="152.5" y="-99" font-family="Helvetica,sans-Serif" font-size="10.00">xiiReflectedClass</text>
</a>
</g>
</g>
<!-- Node2&#45;&gt;Node1 -->
<g id="edge1_Node000001_Node000002" class="edge">
<title>Node2&#45;&gt;Node1</title>
<g id="a_edge1_Node000001_Node000002"><a xlink:title=" ">
<path fill="none" stroke="#63b8ff" d="M213.19,-101.5C221.81,-101.5 230.53,-101.5 238.71,-101.5"/>
<polygon fill="#63b8ff" stroke="#63b8ff" points="213.16,-98 203.16,-101.5 213.16,-105 213.16,-98"/>
</a>
</g>
</g>
<!-- Node3 -->
<g id="Node000003" class="node">
<title>Node3</title>
<g id="a_Node000003"><a xlink:href="../../d2/d38/classxii_no_base.html" target="_top" xlink:title="Dummy type to pass to templates and macros that expect a base type for a class that has no base.">
<polygon fill="white" stroke="#666666" points="66,-111 0,-111 0,-92 66,-92 66,-111"/>
<text text-anchor="middle" x="33" y="-99" font-family="Helvetica,sans-Serif" font-size="10.00">xiiNoBase</text>
</a>
</g>
</g>
<!-- Node3&#45;&gt;Node2 -->
<g id="edge2_Node000002_Node000003" class="edge">
<title>Node3&#45;&gt;Node2</title>
<g id="a_edge2_Node000002_Node000003"><a xlink:title=" ">
<path fill="none" stroke="#63b8ff" d="M76.27,-101.5C84.54,-101.5 93.29,-101.5 101.78,-101.5"/>
<polygon fill="#63b8ff" stroke="#63b8ff" points="76.11,-98 66.11,-101.5 76.11,-105 76.11,-98"/>
</a>
</g>
</g>
</g>
</svg>
