<?xml version="1.0" encoding="UTF-8" standalone="no"?>
<!DOCTYPE svg PUBLIC "-//W3C//DTD SVG 1.1//EN"
 "http://www.w3.org/Graphics/SVG/1.1/DTD/svg11.dtd">
<!-- Generated by graphviz version 2.43.0 (0)
 -->
<!-- Title: xiiStackAllocator&lt; TrackingMode &gt; Pages: 1 -->
<svg width="847pt" height="50pt"
 viewBox="0.00 0.00 847.00 50.00" xmlns="http://www.w3.org/2000/svg" xmlns:xlink="http://www.w3.org/1999/xlink">
<g id="graph0" class="graph" transform="scale(1 1) rotate(0) translate(4 46)">
<title>xiiStackAllocator&lt; TrackingMode &gt;</title>
<polygon fill="white" stroke="transparent" points="-4,4 -4,-46 843,-46 843,4 -4,4"/>
<!-- Node1 -->
<g id="node1" class="node">
<title>Node1</title>
<g id="a_node1"><a xlink:title=" ">
<polygon fill="#bfbfbf" stroke="black" points="732,-6 732,-36 839,-36 839,-6 732,-6"/>
<text text-anchor="start" x="740" y="-24" font-family="Helvetica,sans-Serif" font-size="10.00">xiiStackAllocator&lt;</text>
<text text-anchor="middle" x="785.5" y="-13" font-family="Helvetica,sans-Serif" font-size="10.00"> TrackingMode &gt;</text>
</a>
</g>
</g>
<!-- Node2 -->
<g id="node2" class="node">
<title>Node2</title>
<g id="a_node2"><a xlink:href="../../df/dbd/classxii_allocator.htm" target="_top" xlink:title=" ">
<polygon fill="white" stroke="black" points="523,-0.5 523,-41.5 696,-41.5 696,-0.5 523,-0.5"/>
<text text-anchor="start" x="531" y="-29.5" font-family="Helvetica,sans-Serif" font-size="10.00">xiiAllocator&lt; xiiMemoryPolicies</text>
<text text-anchor="start" x="531" y="-18.5" font-family="Helvetica,sans-Serif" font-size="10.00">::xiiStackAllocation, xiiAllocator</text>
<text text-anchor="middle" x="609.5" y="-7.5" font-family="Helvetica,sans-Serif" font-size="10.00">TrackingMode::Default &gt;</text>
</a>
</g>
</g>
<!-- Node2&#45;&gt;Node1 -->
<g id="edge1" class="edge">
<title>Node2&#45;&gt;Node1</title>
<path fill="none" stroke="midnightblue" d="M706.49,-21C715.2,-21 723.8,-21 731.91,-21"/>
<polygon fill="midnightblue" stroke="midnightblue" points="706.23,-17.5 696.23,-21 706.23,-24.5 706.23,-17.5"/>
</g>
<!-- Node3 -->
<g id="node3" class="node">
<title>Node3</title>
<g id="a_node3"><a xlink:href="../../d9/dcd/classxii_internal_1_1xii_allocator_mixin_reallocate.htm" target="_top" xlink:title=" ">
<polygon fill="white" stroke="black" points="299,-0.5 299,-41.5 487,-41.5 487,-0.5 299,-0.5"/>
<text text-anchor="start" x="307" y="-29.5" font-family="Helvetica,sans-Serif" font-size="10.00">xiiInternal::xiiAllocator</text>
<text text-anchor="start" x="307" y="-18.5" font-family="Helvetica,sans-Serif" font-size="10.00">MixinReallocate&lt; AllocationPolicy,</text>
<text text-anchor="middle" x="393" y="-7.5" font-family="Helvetica,sans-Serif" font-size="10.00"> TrackingMode, HasReallocate &gt;</text>
</a>
</g>
</g>
<!-- Node3&#45;&gt;Node2 -->
<g id="edge2" class="edge">
<title>Node3&#45;&gt;Node2</title>
<path fill="none" stroke="midnightblue" d="M497.21,-21C505.8,-21 514.43,-21 522.87,-21"/>
<polygon fill="midnightblue" stroke="midnightblue" points="497.15,-17.5 487.15,-21 497.15,-24.5 497.15,-17.5"/>
</g>
<!-- Node4 -->
<g id="node4" class="node">
<title>Node4</title>
<g id="a_node4"><a xlink:href="../../d4/deb/classxii_internal_1_1xii_allocator_impl.htm" target="_top" xlink:title=" ">
<polygon fill="white" stroke="black" points="132,-0.5 132,-41.5 263,-41.5 263,-0.5 132,-0.5"/>
<text text-anchor="start" x="140" y="-29.5" font-family="Helvetica,sans-Serif" font-size="10.00">xiiInternal::xiiAllocator</text>
<text text-anchor="start" x="140" y="-18.5" font-family="Helvetica,sans-Serif" font-size="10.00">Impl&lt; AllocationPolicy,</text>
<text text-anchor="middle" x="197.5" y="-7.5" font-family="Helvetica,sans-Serif" font-size="10.00"> TrackingMode &gt;</text>
</a>
</g>
</g>
<!-- Node4&#45;&gt;Node3 -->
<g id="edge3" class="edge">
<title>Node4&#45;&gt;Node3</title>
<path fill="none" stroke="midnightblue" d="M273.26,-21C281.62,-21 290.2,-21 298.75,-21"/>
<polygon fill="midnightblue" stroke="midnightblue" points="273.2,-17.5 263.2,-21 273.2,-24.5 273.2,-17.5"/>
</g>
<!-- Node5 -->
<g id="node5" class="node">
<title>Node5</title>
<g id="a_node5"><a xlink:href="../../d5/d66/classxii_allocator_base.htm" target="_top" xlink:title="Base class for all memory allocators.">
<polygon fill="white" stroke="black" points="0,-11.5 0,-30.5 96,-30.5 96,-11.5 0,-11.5"/>
<text text-anchor="middle" x="48" y="-18.5" font-family="Helvetica,sans-Serif" font-size="10.00">xiiAllocatorBase</text>
</a>
</g>
</g>
<!-- Node5&#45;&gt;Node4 -->
<g id="edge4" class="edge">
<title>Node5&#45;&gt;Node4</title>
<path fill="none" stroke="midnightblue" d="M106.16,-21C114.58,-21 123.3,-21 131.85,-21"/>
<polygon fill="midnightblue" stroke="midnightblue" points="106.08,-17.5 96.08,-21 106.08,-24.5 106.08,-17.5"/>
</g>
</g>
</svg>
