<?xml version="1.0" encoding="UTF-8" standalone="no"?>
<!DOCTYPE svg PUBLIC "-//W3C//DTD SVG 1.1//EN"
 "http://www.w3.org/Graphics/SVG/1.1/DTD/svg11.dtd">
<!-- Generated by graphviz version 2.43.0 (0)
 -->
<!-- Title: xiiSurfaceAssetDocument Pages: 1 -->
<svg width="191pt" height="319pt"
 viewBox="0.00 0.00 191.00 319.00" xmlns="http://www.w3.org/2000/svg" xmlns:xlink="http://www.w3.org/1999/xlink">
<g id="graph0" class="graph" transform="scale(1 1) rotate(0) translate(4 315)">
<title>xiiSurfaceAssetDocument</title>
<polygon fill="white" stroke="transparent" points="-4,4 -4,-315 187,-315 187,4 -4,4"/>
<!-- Node1 -->
<g id="node1" class="node">
<title>Node1</title>
<g id="a_node1"><a xlink:title=" ">
<polygon fill="#bfbfbf" stroke="black" points="20,-0.5 20,-19.5 163,-19.5 163,-0.5 20,-0.5"/>
<text text-anchor="middle" x="91.5" y="-7.5" font-family="Helvetica,sans-Serif" font-size="10.00">xiiSurfaceAssetDocument</text>
</a>
</g>
</g>
<!-- Node2 -->
<g id="node2" class="node">
<title>Node2</title>
<g id="a_node2"><a xlink:href="../../d4/d60/classxii_simple_asset_document.htm" target="_top" xlink:title=" ">
<polygon fill="white" stroke="black" points="0,-56.5 0,-86.5 183,-86.5 183,-56.5 0,-56.5"/>
<text text-anchor="start" x="8" y="-74.5" font-family="Helvetica,sans-Serif" font-size="10.00">xiiSimpleAssetDocument</text>
<text text-anchor="middle" x="91.5" y="-63.5" font-family="Helvetica,sans-Serif" font-size="10.00">&lt; xiiSurfaceResourceDescriptor &gt;</text>
</a>
</g>
</g>
<!-- Node2&#45;&gt;Node1 -->
<g id="edge1" class="edge">
<title>Node2&#45;&gt;Node1</title>
<path fill="none" stroke="midnightblue" d="M91.5,-46.29C91.5,-36.86 91.5,-26.65 91.5,-19.66"/>
<polygon fill="midnightblue" stroke="midnightblue" points="88,-46.4 91.5,-56.4 95,-46.4 88,-46.4"/>
</g>
<!-- Node3 -->
<g id="node3" class="node">
<title>Node3</title>
<g id="a_node3"><a xlink:href="../../d7/dd5/classxii_asset_document.htm" target="_top" xlink:title=" ">
<polygon fill="white" stroke="black" points="38.5,-123.5 38.5,-142.5 144.5,-142.5 144.5,-123.5 38.5,-123.5"/>
<text text-anchor="middle" x="91.5" y="-130.5" font-family="Helvetica,sans-Serif" font-size="10.00">xiiAssetDocument</text>
</a>
</g>
</g>
<!-- Node3&#45;&gt;Node2 -->
<g id="edge2" class="edge">
<title>Node3&#45;&gt;Node2</title>
<path fill="none" stroke="midnightblue" d="M91.5,-113.23C91.5,-104.59 91.5,-94.5 91.5,-86.52"/>
<polygon fill="midnightblue" stroke="midnightblue" points="88,-113.48 91.5,-123.48 95,-113.48 88,-113.48"/>
</g>
<!-- Node4 -->
<g id="node4" class="node">
<title>Node4</title>
<g id="a_node4"><a xlink:href="../../d8/da9/classxii_document.htm" target="_top" xlink:title=" ">
<polygon fill="white" stroke="black" points="52,-179.5 52,-198.5 131,-198.5 131,-179.5 52,-179.5"/>
<text text-anchor="middle" x="91.5" y="-186.5" font-family="Helvetica,sans-Serif" font-size="10.00">xiiDocument</text>
</a>
</g>
</g>
<!-- Node4&#45;&gt;Node3 -->
<g id="edge3" class="edge">
<title>Node4&#45;&gt;Node3</title>
<path fill="none" stroke="midnightblue" d="M91.5,-168.8C91.5,-159.91 91.5,-149.78 91.5,-142.75"/>
<polygon fill="midnightblue" stroke="midnightblue" points="88,-169.08 91.5,-179.08 95,-169.08 88,-169.08"/>
</g>
<!-- Node5 -->
<g id="node5" class="node">
<title>Node5</title>
<g id="a_node5"><a xlink:href="../../dc/d71/classxii_reflected_class.htm" target="_top" xlink:title="All classes that should be dynamically reflectable, need to be derived from this base class.">
<polygon fill="white" stroke="black" points="41,-235.5 41,-254.5 142,-254.5 142,-235.5 41,-235.5"/>
<text text-anchor="middle" x="91.5" y="-242.5" font-family="Helvetica,sans-Serif" font-size="10.00">xiiReflectedClass</text>
</a>
</g>
</g>
<!-- Node5&#45;&gt;Node4 -->
<g id="edge4" class="edge">
<title>Node5&#45;&gt;Node4</title>
<path fill="none" stroke="midnightblue" d="M91.5,-224.8C91.5,-215.91 91.5,-205.78 91.5,-198.75"/>
<polygon fill="midnightblue" stroke="midnightblue" points="88,-225.08 91.5,-235.08 95,-225.08 88,-225.08"/>
</g>
<!-- Node6 -->
<g id="node6" class="node">
<title>Node6</title>
<g id="a_node6"><a xlink:href="../../d2/d38/classxii_no_base.htm" target="_top" xlink:title="Dummy type to pass to templates and macros that expect a base type for a class that has no base.">
<polygon fill="white" stroke="black" points="58.5,-291.5 58.5,-310.5 124.5,-310.5 124.5,-291.5 58.5,-291.5"/>
<text text-anchor="middle" x="91.5" y="-298.5" font-family="Helvetica,sans-Serif" font-size="10.00">xiiNoBase</text>
</a>
</g>
</g>
<!-- Node6&#45;&gt;Node5 -->
<g id="edge5" class="edge">
<title>Node6&#45;&gt;Node5</title>
<path fill="none" stroke="midnightblue" d="M91.5,-280.8C91.5,-271.91 91.5,-261.78 91.5,-254.75"/>
<polygon fill="midnightblue" stroke="midnightblue" points="88,-281.08 91.5,-291.08 95,-281.08 88,-281.08"/>
</g>
</g>
</svg>
