<?xml version="1.0" encoding="UTF-8" standalone="no"?>
<!DOCTYPE svg PUBLIC "-//W3C//DTD SVG 1.1//EN"
 "http://www.w3.org/Graphics/SVG/1.1/DTD/svg11.dtd">
<!-- Generated by graphviz version 2.43.0 (0)
 -->
<!-- Title: xiiDecalComponentManager Pages: 1 -->
<svg width="187pt" height="330pt"
 viewBox="0.00 0.00 187.00 330.00" xmlns="http://www.w3.org/2000/svg" xmlns:xlink="http://www.w3.org/1999/xlink">
<g id="graph0" class="graph" transform="scale(1 1) rotate(0) translate(4 326)">
<title>xiiDecalComponentManager</title>
<polygon fill="white" stroke="transparent" points="-4,4 -4,-326 183,-326 183,4 -4,4"/>
<!-- Node1 -->
<g id="node1" class="node">
<title>Node1</title>
<g id="a_node1"><a xlink:title=" ">
<polygon fill="#bfbfbf" stroke="black" points="12,-0.5 12,-19.5 167,-19.5 167,-0.5 12,-0.5"/>
<text text-anchor="middle" x="89.5" y="-7.5" font-family="Helvetica,sans-Serif" font-size="10.00">xiiDecalComponentManager</text>
</a>
</g>
</g>
<!-- Node2 -->
<g id="node2" class="node">
<title>Node2</title>
<g id="a_node2"><a xlink:href="../../d4/d5d/classxii_component_manager.htm" target="_top" xlink:title=" ">
<polygon fill="white" stroke="black" points="0,-56.5 0,-97.5 179,-97.5 179,-56.5 0,-56.5"/>
<text text-anchor="start" x="8" y="-85.5" font-family="Helvetica,sans-Serif" font-size="10.00">xiiComponentManager</text>
<text text-anchor="start" x="8" y="-74.5" font-family="Helvetica,sans-Serif" font-size="10.00">&lt; class xiiDecalComponent,</text>
<text text-anchor="middle" x="89.5" y="-63.5" font-family="Helvetica,sans-Serif" font-size="10.00"> xiiBlockStorageType::Compact &gt;</text>
</a>
</g>
</g>
<!-- Node2&#45;&gt;Node1 -->
<g id="edge1" class="edge">
<title>Node2&#45;&gt;Node1</title>
<path fill="none" stroke="midnightblue" d="M89.5,-46.26C89.5,-36.56 89.5,-26.52 89.5,-19.65"/>
<polygon fill="midnightblue" stroke="midnightblue" points="86,-46.5 89.5,-56.5 93,-46.5 86,-46.5"/>
</g>
<!-- Node3 -->
<g id="node3" class="node">
<title>Node3</title>
<g id="a_node3"><a xlink:href="../../d4/d61/classxii_component_manager_base.htm" target="_top" xlink:title="Base class for all component managers. Do not derive directly from this class, but derive from xiiCom...">
<polygon fill="white" stroke="black" points="13.5,-134.5 13.5,-153.5 165.5,-153.5 165.5,-134.5 13.5,-134.5"/>
<text text-anchor="middle" x="89.5" y="-141.5" font-family="Helvetica,sans-Serif" font-size="10.00">xiiComponentManagerBase</text>
</a>
</g>
</g>
<!-- Node3&#45;&gt;Node2 -->
<g id="edge2" class="edge">
<title>Node3&#45;&gt;Node2</title>
<path fill="none" stroke="midnightblue" d="M89.5,-124.04C89.5,-115.71 89.5,-105.94 89.5,-97.54"/>
<polygon fill="midnightblue" stroke="midnightblue" points="86,-124.23 89.5,-134.23 93,-124.23 86,-124.23"/>
</g>
<!-- Node4 -->
<g id="node4" class="node">
<title>Node4</title>
<g id="a_node4"><a xlink:href="../../d9/dfe/classxii_world_module.htm" target="_top" xlink:title=" ">
<polygon fill="white" stroke="black" points="43.5,-190.5 43.5,-209.5 135.5,-209.5 135.5,-190.5 43.5,-190.5"/>
<text text-anchor="middle" x="89.5" y="-197.5" font-family="Helvetica,sans-Serif" font-size="10.00">xiiWorldModule</text>
</a>
</g>
</g>
<!-- Node4&#45;&gt;Node3 -->
<g id="edge3" class="edge">
<title>Node4&#45;&gt;Node3</title>
<path fill="none" stroke="midnightblue" d="M89.5,-179.8C89.5,-170.91 89.5,-160.78 89.5,-153.75"/>
<polygon fill="midnightblue" stroke="midnightblue" points="86,-180.08 89.5,-190.08 93,-180.08 86,-180.08"/>
</g>
<!-- Node5 -->
<g id="node5" class="node">
<title>Node5</title>
<g id="a_node5"><a xlink:href="../../dc/d71/classxii_reflected_class.htm" target="_top" xlink:title="All classes that should be dynamically reflectable, need to be derived from this base class.">
<polygon fill="white" stroke="black" points="39,-246.5 39,-265.5 140,-265.5 140,-246.5 39,-246.5"/>
<text text-anchor="middle" x="89.5" y="-253.5" font-family="Helvetica,sans-Serif" font-size="10.00">xiiReflectedClass</text>
</a>
</g>
</g>
<!-- Node5&#45;&gt;Node4 -->
<g id="edge4" class="edge">
<title>Node5&#45;&gt;Node4</title>
<path fill="none" stroke="midnightblue" d="M89.5,-235.8C89.5,-226.91 89.5,-216.78 89.5,-209.75"/>
<polygon fill="midnightblue" stroke="midnightblue" points="86,-236.08 89.5,-246.08 93,-236.08 86,-236.08"/>
</g>
<!-- Node6 -->
<g id="node6" class="node">
<title>Node6</title>
<g id="a_node6"><a xlink:href="../../d2/d38/classxii_no_base.htm" target="_top" xlink:title="Dummy type to pass to templates and macros that expect a base type for a class that has no base.">
<polygon fill="white" stroke="black" points="56.5,-302.5 56.5,-321.5 122.5,-321.5 122.5,-302.5 56.5,-302.5"/>
<text text-anchor="middle" x="89.5" y="-309.5" font-family="Helvetica,sans-Serif" font-size="10.00">xiiNoBase</text>
</a>
</g>
</g>
<!-- Node6&#45;&gt;Node5 -->
<g id="edge5" class="edge">
<title>Node6&#45;&gt;Node5</title>
<path fill="none" stroke="midnightblue" d="M89.5,-291.8C89.5,-282.91 89.5,-272.78 89.5,-265.75"/>
<polygon fill="midnightblue" stroke="midnightblue" points="86,-292.08 89.5,-302.08 93,-292.08 86,-292.08"/>
</g>
</g>
</svg>
