<?xml version="1.0" encoding="UTF-8" standalone="no"?>
<!DOCTYPE svg PUBLIC "-//W3C//DTD SVG 1.1//EN"
 "http://www.w3.org/Graphics/SVG/1.1/DTD/svg11.dtd">
<!-- Generated by graphviz version 2.43.0 (0)
 -->
<!-- Title: xiiMemberSetProperty&lt; Class, xiiTagSet, xiiStringView &gt; Pages: 1 -->
<svg width="196pt" height="236pt"
 viewBox="0.00 0.00 196.00 236.00" xmlns="http://www.w3.org/2000/svg" xmlns:xlink="http://www.w3.org/1999/xlink">
<g id="graph0" class="graph" transform="scale(1 1) rotate(0) translate(4 232)">
<title>xiiMemberSetProperty&lt; Class, xiiTagSet, xiiStringView &gt;</title>
<!-- Node1 -->
<g id="Node000001" class="node">
<title>Node1</title>
<g id="a_Node000001"><a xlink:title=" ">
<polygon fill="#999999" stroke="#666666" points="169.5,-41 18.5,-41 18.5,0 169.5,0 169.5,-41"/>
<text text-anchor="start" x="26.5" y="-29" font-family="Helvetica,sans-Serif" font-size="10.00">xiiMemberSetProperty</text>
<text text-anchor="start" x="26.5" y="-18" font-family="Helvetica,sans-Serif" font-size="10.00">&lt; Class, xiiTagSet, xiiString</text>
<text text-anchor="middle" x="94" y="-7" font-family="Helvetica,sans-Serif" font-size="10.00">View &gt;</text>
</a>
</g>
</g>
<!-- Node2 -->
<g id="Node000002" class="node">
<title>Node2</title>
<g id="a_Node000002"><a xlink:href="../../df/d18/classxii_typed_set_property.html" target="_top" xlink:title=" ">
<polygon fill="white" stroke="#666666" points="188,-118 0,-118 0,-77 188,-77 188,-118"/>
<text text-anchor="start" x="8" y="-106" font-family="Helvetica,sans-Serif" font-size="10.00">xiiTypedSetProperty</text>
<text text-anchor="start" x="8" y="-95" font-family="Helvetica,sans-Serif" font-size="10.00">&lt; xiiTypeTraits&lt; xiiString</text>
<text text-anchor="middle" x="94" y="-84" font-family="Helvetica,sans-Serif" font-size="10.00">View &gt;::NonConstReferenceType &gt;</text>
</a>
</g>
</g>
<!-- Node2&#45;&gt;Node1 -->
<g id="edge1_Node000001_Node000002" class="edge">
<title>Node2&#45;&gt;Node1</title>
<g id="a_edge1_Node000001_Node000002"><a xlink:title=" ">
<path fill="none" stroke="#63b8ff" d="M94,-66.69C94,-58.08 94,-48.9 94,-41.07"/>
<polygon fill="#63b8ff" stroke="#63b8ff" points="90.5,-66.79 94,-76.79 97.5,-66.79 90.5,-66.79"/>
</a>
</g>
</g>
<!-- Node3 -->
<g id="Node000003" class="node">
<title>Node3</title>
<g id="a_Node000003"><a xlink:href="../../dd/d45/classxii_abstract_set_property.html" target="_top" xlink:title="The base class for a property that represents a set of values.">
<polygon fill="white" stroke="#666666" points="157,-173 31,-173 31,-154 157,-154 157,-173"/>
<text text-anchor="middle" x="94" y="-161" font-family="Helvetica,sans-Serif" font-size="10.00">xiiAbstractSetProperty</text>
</a>
</g>
</g>
<!-- Node3&#45;&gt;Node2 -->
<g id="edge2_Node000002_Node000003" class="edge">
<title>Node3&#45;&gt;Node2</title>
<g id="a_edge2_Node000002_Node000003"><a xlink:title=" ">
<path fill="none" stroke="#63b8ff" d="M94,-143.63C94,-135.56 94,-126.15 94,-118.01"/>
<polygon fill="#63b8ff" stroke="#63b8ff" points="90.5,-143.87 94,-153.87 97.5,-143.87 90.5,-143.87"/>
</a>
</g>
</g>
<!-- Node4 -->
<g id="Node000004" class="node">
<title>Node4</title>
<g id="a_Node000004"><a xlink:href="../../da/d25/classxii_abstract_property.html" target="_top" xlink:title="This is the base interface for all properties in the reflection system. It provides enough informatio...">
<polygon fill="white" stroke="#666666" points="149,-228 39,-228 39,-209 149,-209 149,-228"/>
<text text-anchor="middle" x="94" y="-216" font-family="Helvetica,sans-Serif" font-size="10.00">xiiAbstractProperty</text>
</a>
</g>
</g>
<!-- Node4&#45;&gt;Node3 -->
<g id="edge3_Node000003_Node000004" class="edge">
<title>Node4&#45;&gt;Node3</title>
<g id="a_edge3_Node000003_Node000004"><a xlink:title=" ">
<path fill="none" stroke="#63b8ff" d="M94,-198.66C94,-189.93 94,-179.99 94,-173.09"/>
<polygon fill="#63b8ff" stroke="#63b8ff" points="90.5,-198.75 94,-208.75 97.5,-198.75 90.5,-198.75"/>
</a>
</g>
</g>
</g>
</svg>
