<?xml version="1.0" encoding="UTF-8" standalone="no"?>
<!DOCTYPE svg PUBLIC "-//W3C//DTD SVG 1.1//EN"
 "http://www.w3.org/Graphics/SVG/1.1/DTD/svg11.dtd">
<!-- Generated by graphviz version 2.43.0 (0)
 -->
<!-- Title: xiiMemberSetProperty&lt; Class, xiiTagSet, xiiStringView &gt; Pages: 1 -->
<svg width="196pt" height="240pt"
 viewBox="0.00 0.00 196.00 240.00" xmlns="http://www.w3.org/2000/svg" xmlns:xlink="http://www.w3.org/1999/xlink">
<g id="graph0" class="graph" transform="scale(1 1) rotate(0) translate(4 236)">
<title>xiiMemberSetProperty&lt; Class, xiiTagSet, xiiStringView &gt;</title>
<polygon fill="white" stroke="transparent" points="-4,4 -4,-236 192,-236 192,4 -4,4"/>
<!-- Node1 -->
<g id="node1" class="node">
<title>Node1</title>
<g id="a_node1"><a xlink:title=" ">
<polygon fill="#bfbfbf" stroke="black" points="18.5,-0.5 18.5,-41.5 169.5,-41.5 169.5,-0.5 18.5,-0.5"/>
<text text-anchor="start" x="26.5" y="-29.5" font-family="Helvetica,sans-Serif" font-size="10.00">xiiMemberSetProperty</text>
<text text-anchor="start" x="26.5" y="-18.5" font-family="Helvetica,sans-Serif" font-size="10.00">&lt; Class, xiiTagSet, xiiString</text>
<text text-anchor="middle" x="94" y="-7.5" font-family="Helvetica,sans-Serif" font-size="10.00">View &gt;</text>
</a>
</g>
</g>
<!-- Node2 -->
<g id="node2" class="node">
<title>Node2</title>
<g id="a_node2"><a xlink:href="../../df/d18/classxii_typed_set_property.htm" target="_top" xlink:title=" ">
<polygon fill="white" stroke="black" points="0,-78.5 0,-119.5 188,-119.5 188,-78.5 0,-78.5"/>
<text text-anchor="start" x="8" y="-107.5" font-family="Helvetica,sans-Serif" font-size="10.00">xiiTypedSetProperty</text>
<text text-anchor="start" x="8" y="-96.5" font-family="Helvetica,sans-Serif" font-size="10.00">&lt; xiiTypeTraits&lt; xiiString</text>
<text text-anchor="middle" x="94" y="-85.5" font-family="Helvetica,sans-Serif" font-size="10.00">View &gt;::NonConstReferenceType &gt;</text>
</a>
</g>
</g>
<!-- Node2&#45;&gt;Node1 -->
<g id="edge1" class="edge">
<title>Node2&#45;&gt;Node1</title>
<path fill="none" stroke="midnightblue" d="M94,-68.3C94,-59.3 94,-49.65 94,-41.51"/>
<polygon fill="midnightblue" stroke="midnightblue" points="90.5,-68.43 94,-78.43 97.5,-68.43 90.5,-68.43"/>
</g>
<!-- Node3 -->
<g id="node3" class="node">
<title>Node3</title>
<g id="a_node3"><a xlink:href="../../dd/d45/classxii_abstract_set_property.htm" target="_top" xlink:title="The base class for a property that represents a set of values.">
<polygon fill="white" stroke="black" points="31,-156.5 31,-175.5 157,-175.5 157,-156.5 31,-156.5"/>
<text text-anchor="middle" x="94" y="-163.5" font-family="Helvetica,sans-Serif" font-size="10.00">xiiAbstractSetProperty</text>
</a>
</g>
</g>
<!-- Node3&#45;&gt;Node2 -->
<g id="edge2" class="edge">
<title>Node3&#45;&gt;Node2</title>
<path fill="none" stroke="midnightblue" d="M94,-146.04C94,-137.71 94,-127.94 94,-119.54"/>
<polygon fill="midnightblue" stroke="midnightblue" points="90.5,-146.23 94,-156.23 97.5,-146.23 90.5,-146.23"/>
</g>
<!-- Node4 -->
<g id="node4" class="node">
<title>Node4</title>
<g id="a_node4"><a xlink:href="../../da/d25/classxii_abstract_property.htm" target="_top" xlink:title="This is the base interface for all properties in the reflection system. It provides enough informatio...">
<polygon fill="white" stroke="black" points="39,-212.5 39,-231.5 149,-231.5 149,-212.5 39,-212.5"/>
<text text-anchor="middle" x="94" y="-219.5" font-family="Helvetica,sans-Serif" font-size="10.00">xiiAbstractProperty</text>
</a>
</g>
</g>
<!-- Node4&#45;&gt;Node3 -->
<g id="edge3" class="edge">
<title>Node4&#45;&gt;Node3</title>
<path fill="none" stroke="midnightblue" d="M94,-201.8C94,-192.91 94,-182.78 94,-175.75"/>
<polygon fill="midnightblue" stroke="midnightblue" points="90.5,-202.08 94,-212.08 97.5,-202.08 90.5,-202.08"/>
</g>
</g>
</svg>
