<?xml version="1.0" encoding="UTF-8" standalone="no"?>
<!DOCTYPE svg PUBLIC "-//W3C//DTD SVG 1.1//EN"
 "http://www.w3.org/Graphics/SVG/1.1/DTD/svg11.dtd">
<!-- Generated by graphviz version 2.43.0 (0)
 -->
<!-- Title: xiiConsoleFunction&lt; R(XII_LIST(P, ARG_COUNT))&gt; Pages: 1 -->
<svg width="157pt" height="225pt"
 viewBox="0.00 0.00 157.00 225.00" xmlns="http://www.w3.org/2000/svg" xmlns:xlink="http://www.w3.org/1999/xlink">
<g id="graph0" class="graph" transform="scale(1 1) rotate(0) translate(4 221)">
<title>xiiConsoleFunction&lt; R(XII_LIST(P, ARG_COUNT))&gt;</title>
<!-- Node1 -->
<g id="Node000001" class="node">
<title>Node1</title>
<g id="a_Node000001"><a xlink:title=" ">
<polygon fill="#999999" stroke="#666666" points="131,-41 18,-41 18,0 131,0 131,-41"/>
<text text-anchor="start" x="26" y="-29" font-family="Helvetica,sans-Serif" font-size="10.00">xiiConsoleFunction</text>
<text text-anchor="start" x="26" y="-18" font-family="Helvetica,sans-Serif" font-size="10.00">&lt; R(XII_LIST(P, ARG</text>
<text text-anchor="middle" x="74.5" y="-7" font-family="Helvetica,sans-Serif" font-size="10.00">_COUNT))&gt;</text>
</a>
</g>
</g>
<!-- Node2 -->
<g id="Node000002" class="node">
<title>Node2</title>
<g id="a_Node000002"><a xlink:href="../../de/d74/classxii_console_function_base.htm" target="_top" xlink:title="Base class for all types of xiiConsoleFunction, represents functions to be exposed to xiiConsole.">
<polygon fill="white" stroke="#666666" points="141,-96 8,-96 8,-77 141,-77 141,-96"/>
<text text-anchor="middle" x="74.5" y="-84" font-family="Helvetica,sans-Serif" font-size="10.00">xiiConsoleFunctionBase</text>
</a>
</g>
</g>
<!-- Node2&#45;&gt;Node1 -->
<g id="edge1_Node000001_Node000002" class="edge">
<title>Node2&#45;&gt;Node1</title>
<g id="a_edge1_Node000001_Node000002"><a xlink:title=" ">
<path fill="none" stroke="#63b8ff" d="M74.5,-66.63C74.5,-58.56 74.5,-49.15 74.5,-41.01"/>
<polygon fill="#63b8ff" stroke="#63b8ff" points="71,-66.87 74.5,-76.87 78,-66.87 71,-66.87"/>
</a>
</g>
</g>
<!-- Node3 -->
<g id="Node000003" class="node">
<title>Node3</title>
<g id="a_Node000003"><a xlink:href="../../dc/d54/classxii_enumerable.htm" target="_top" xlink:title=" ">
<polygon fill="white" stroke="#666666" points="149,-162 0,-162 0,-132 149,-132 149,-162"/>
<text text-anchor="start" x="8" y="-150" font-family="Helvetica,sans-Serif" font-size="10.00">xiiEnumerable&lt; xiiConsole</text>
<text text-anchor="middle" x="74.5" y="-139" font-family="Helvetica,sans-Serif" font-size="10.00">FunctionBase &gt;</text>
</a>
</g>
</g>
<!-- Node3&#45;&gt;Node2 -->
<g id="edge2_Node000002_Node000003" class="edge">
<title>Node3&#45;&gt;Node2</title>
<g id="a_edge2_Node000002_Node000003"><a xlink:title=" ">
<path fill="none" stroke="#63b8ff" d="M74.5,-121.75C74.5,-112.72 74.5,-103.03 74.5,-96.27"/>
<polygon fill="#63b8ff" stroke="#63b8ff" points="71,-121.84 74.5,-131.84 78,-121.84 71,-121.84"/>
</a>
</g>
</g>
<!-- Node4 -->
<g id="Node000004" class="node">
<title>Node4</title>
<g id="a_Node000004"><a xlink:href="../../d2/d38/classxii_no_base.htm" target="_top" xlink:title="Dummy type to pass to templates and macros that expect a base type for a class that has no base.">
<polygon fill="white" stroke="#666666" points="107.5,-217 41.5,-217 41.5,-198 107.5,-198 107.5,-217"/>
<text text-anchor="middle" x="74.5" y="-205" font-family="Helvetica,sans-Serif" font-size="10.00">xiiNoBase</text>
</a>
</g>
</g>
<!-- Node4&#45;&gt;Node3 -->
<g id="edge3_Node000003_Node000004" class="edge">
<title>Node4&#45;&gt;Node3</title>
<g id="a_edge3_Node000003_Node000004"><a xlink:title=" ">
<path fill="none" stroke="#63b8ff" d="M74.5,-187.65C74.5,-179.36 74.5,-169.78 74.5,-162.11"/>
<polygon fill="#63b8ff" stroke="#63b8ff" points="71,-187.87 74.5,-197.87 78,-187.87 71,-187.87"/>
</a>
</g>
</g>
</g>
</svg>
