<?xml version="1.0" encoding="UTF-8" standalone="no"?>
<!DOCTYPE svg PUBLIC "-//W3C//DTD SVG 1.1//EN"
 "http://www.w3.org/Graphics/SVG/1.1/DTD/svg11.dtd">
<!-- Generated by graphviz version 2.43.0 (0)
 -->
<!-- Title: xiiPrefabReferenceComponentManager Pages: 1 -->
<svg width="188pt" height="335pt"
 viewBox="0.00 0.00 188.00 335.00" xmlns="http://www.w3.org/2000/svg" xmlns:xlink="http://www.w3.org/1999/xlink">
<g id="graph0" class="graph" transform="scale(1 1) rotate(0) translate(4 331)">
<title>xiiPrefabReferenceComponentManager</title>
<!-- Node1 -->
<g id="Node000001" class="node">
<title>Node1</title>
<g id="a_Node000001"><a xlink:title=" ">
<polygon fill="#999999" stroke="#666666" points="173,-30 7,-30 7,0 173,0 173,-30"/>
<text text-anchor="start" x="15" y="-18" font-family="Helvetica,sans-Serif" font-size="10.00">xiiPrefabReferenceComponent</text>
<text text-anchor="middle" x="90" y="-7" font-family="Helvetica,sans-Serif" font-size="10.00">Manager</text>
</a>
</g>
</g>
<!-- Node2 -->
<g id="Node000002" class="node">
<title>Node2</title>
<g id="a_Node000002"><a xlink:href="../../d4/d5d/classxii_component_manager.htm" target="_top" xlink:title=" ">
<polygon fill="white" stroke="#bfbfbf" points="180,-107 0,-107 0,-66 180,-66 180,-107"/>
<text text-anchor="start" x="8" y="-95" font-family="Helvetica,sans-Serif" font-size="10.00">xiiComponentManager</text>
<text text-anchor="start" x="8" y="-84" font-family="Helvetica,sans-Serif" font-size="10.00">&lt; xiiPrefabReferenceComponent,</text>
<text text-anchor="middle" x="90" y="-73" font-family="Helvetica,sans-Serif" font-size="10.00"> xiiBlockStorageType::Compact &gt;</text>
</a>
</g>
</g>
<!-- Node2&#45;&gt;Node1 -->
<g id="edge1_Node000001_Node000002" class="edge">
<title>Node2&#45;&gt;Node1</title>
<g id="a_edge1_Node000001_Node000002"><a xlink:title=" ">
<path fill="none" stroke="#63b8ff" d="M90,-55.66C90,-46.76 90,-37.42 90,-30.04"/>
<polygon fill="#63b8ff" stroke="#63b8ff" points="86.5,-55.77 90,-65.77 93.5,-55.77 86.5,-55.77"/>
</a>
</g>
</g>
<!-- Node3 -->
<g id="Node000003" class="node">
<title>Node3</title>
<g id="a_Node000003"><a xlink:href="../../d4/d61/classxii_component_manager_base.htm" target="_top" xlink:title="Base class for all component managers. Do not derive directly from this class, but derive from xiiCom...">
<polygon fill="white" stroke="#666666" points="166,-162 14,-162 14,-143 166,-143 166,-162"/>
<text text-anchor="middle" x="90" y="-150" font-family="Helvetica,sans-Serif" font-size="10.00">xiiComponentManagerBase</text>
</a>
</g>
</g>
<!-- Node3&#45;&gt;Node2 -->
<g id="edge2_Node000002_Node000003" class="edge">
<title>Node3&#45;&gt;Node2</title>
<g id="a_edge2_Node000002_Node000003"><a xlink:title=" ">
<path fill="none" stroke="#63b8ff" d="M90,-132.63C90,-124.56 90,-115.15 90,-107.01"/>
<polygon fill="#63b8ff" stroke="#63b8ff" points="86.5,-132.87 90,-142.87 93.5,-132.87 86.5,-132.87"/>
</a>
</g>
</g>
<!-- Node4 -->
<g id="Node000004" class="node">
<title>Node4</title>
<g id="a_Node000004"><a xlink:href="../../d9/dfe/classxii_world_module.htm" target="_top" xlink:title=" ">
<polygon fill="white" stroke="#bfbfbf" points="136,-217 44,-217 44,-198 136,-198 136,-217"/>
<text text-anchor="middle" x="90" y="-205" font-family="Helvetica,sans-Serif" font-size="10.00">xiiWorldModule</text>
</a>
</g>
</g>
<!-- Node4&#45;&gt;Node3 -->
<g id="edge3_Node000003_Node000004" class="edge">
<title>Node4&#45;&gt;Node3</title>
<g id="a_edge3_Node000003_Node000004"><a xlink:title=" ">
<path fill="none" stroke="#63b8ff" d="M90,-187.66C90,-178.93 90,-168.99 90,-162.09"/>
<polygon fill="#63b8ff" stroke="#63b8ff" points="86.5,-187.75 90,-197.75 93.5,-187.75 86.5,-187.75"/>
</a>
</g>
</g>
<!-- Node5 -->
<g id="Node000005" class="node">
<title>Node5</title>
<g id="a_Node000005"><a xlink:href="../../dc/d71/classxii_reflected_class.htm" target="_top" xlink:title="All classes that should be dynamically reflectable, need to be derived from this base class.">
<polygon fill="white" stroke="#666666" points="140.5,-272 39.5,-272 39.5,-253 140.5,-253 140.5,-272"/>
<text text-anchor="middle" x="90" y="-260" font-family="Helvetica,sans-Serif" font-size="10.00">xiiReflectedClass</text>
</a>
</g>
</g>
<!-- Node5&#45;&gt;Node4 -->
<g id="edge4_Node000004_Node000005" class="edge">
<title>Node5&#45;&gt;Node4</title>
<g id="a_edge4_Node000004_Node000005"><a xlink:title=" ">
<path fill="none" stroke="#63b8ff" d="M90,-242.66C90,-233.93 90,-223.99 90,-217.09"/>
<polygon fill="#63b8ff" stroke="#63b8ff" points="86.5,-242.75 90,-252.75 93.5,-242.75 86.5,-242.75"/>
</a>
</g>
</g>
<!-- Node6 -->
<g id="Node000006" class="node">
<title>Node6</title>
<g id="a_Node000006"><a xlink:href="../../d2/d38/classxii_no_base.htm" target="_top" xlink:title="Dummy type to pass to templates and macros that expect a base type for a class that has no base.">
<polygon fill="white" stroke="#666666" points="123,-327 57,-327 57,-308 123,-308 123,-327"/>
<text text-anchor="middle" x="90" y="-315" font-family="Helvetica,sans-Serif" font-size="10.00">xiiNoBase</text>
</a>
</g>
</g>
<!-- Node6&#45;&gt;Node5 -->
<g id="edge5_Node000005_Node000006" class="edge">
<title>Node6&#45;&gt;Node5</title>
<g id="a_edge5_Node000005_Node000006"><a xlink:title=" ">
<path fill="none" stroke="#63b8ff" d="M90,-297.66C90,-288.93 90,-278.99 90,-272.09"/>
<polygon fill="#63b8ff" stroke="#63b8ff" points="86.5,-297.75 90,-307.75 93.5,-297.75 86.5,-297.75"/>
</a>
</g>
</g>
</g>
</svg>
