<?xml version="1.0" encoding="UTF-8" standalone="no"?>
<!DOCTYPE svg PUBLIC "-//W3C//DTD SVG 1.1//EN"
 "http://www.w3.org/Graphics/SVG/1.1/DTD/svg11.dtd">
<!-- Generated by graphviz version 2.43.0 (0)
 -->
<!-- Title: xiiEngineProcessDocumentContext Pages: 1 -->
<!--zoomable 397 -->

<svg id="main" version="1.1" xmlns="http://www.w3.org/2000/svg" xmlns:xlink="http://www.w3.org/1999/xlink" xml:space="preserve" onload="init(evt)">
<style type="text/css"><![CDATA[
.node, .edge {opacity: 0.7;}
.node.selected, .edge.selected {opacity: 1;}
.edge:hover path { stroke: red; }
.edge:hover polygon { stroke: red; fill: red; }
]]></style>

<defs>
  <circle id="rim" cx="0" cy="0" r="7"/>
  <circle id="rim2" cx="0" cy="0" r="3.5"/>
  <g id="zoomPlus">
    <use xlink:href="#rim" fill="#404040"><set attributeName="fill" to="#808080" begin="zoomplus.mouseover" end="zoomplus.mouseout"/></use>
    <path d="M-4,0h8M0,-4v8" fill="none" stroke="white" stroke-width="1.5" pointer-events="none"/>
  </g>
  <g id="zoomMin">
    <use xlink:href="#rim" fill="#404040"><set attributeName="fill" to="#808080" begin="zoomminus.mouseover" end="zoomminus.mouseout"/></use>
    <path d="M-4,0h8" fill="none" stroke="white" stroke-width="1.5" pointer-events="none"/>
  </g>
  <g id="arrowUp" transform="translate(30 24)">
    <use xlink:href="#rim"/>
    <path pointer-events="none" fill="none" stroke="white" stroke-width="1.5" d="M0,-3.0v7 M-2.5,-0.5L0,-3.0L2.5,-0.5"/>
  </g>
  <g id="arrowRight" transform="rotate(90) translate(36 -43)">
    <use xlink:href="#rim"/>
    <path pointer-events="none" fill="none" stroke="white" stroke-width="1.5" d="M0,-3.0v7 M-2.5,-0.5L0,-3.0L2.5,-0.5"/>
  </g>
  <g id="arrowDown" transform="rotate(180) translate(-30 -48)">
    <use xlink:href="#rim"/>
    <path pointer-events="none" fill="none" stroke="white" stroke-width="1.5" d="M0,-3.0v7 M-2.5,-0.5L0,-3.0L2.5,-0.5"/>
  </g>
  <g id="arrowLeft" transform="rotate(270) translate(-36 17)">
    <use xlink:href="#rim"/>
    <path pointer-events="none" fill="none" stroke="white" stroke-width="1.5" d="M0,-3.0v7 M-2.5,-0.5L0,-3.0L2.5,-0.5"/>
  </g>
  <g id="resetDef">
    <use xlink:href="#rim2" fill="#404040"><set attributeName="fill" to="#808080" begin="reset.mouseover" end="reset.mouseout"/></use>
  </g>
</defs>
<script type="application/ecmascript">
var viewWidth = 572;
var viewHeight = 397;
var sectionId = 'dynsection-0';
</script>
<script type="application/ecmascript" xlink:href="../../svg.min.js"/>
<svg id="graph" class="graph">
<g id="viewport">
<title>xiiEngineProcessDocumentContext</title>
<!-- Node1 -->
<g id="Node000001" class="node">
<title>Node1</title>
<g id="a_Node000001"><a xlink:title="A document context is the counter part to an editor document on the engine side.">
<polygon fill="#999999" stroke="#666666" points="388,-209.5 239,-209.5 239,-179.5 388,-179.5 388,-209.5"/>
<text text-anchor="start" x="247" y="-197.5" font-family="Helvetica,sans-Serif" font-size="10.00">xiiEngineProcessDocument</text>
<text text-anchor="middle" x="313.5" y="-186.5" font-family="Helvetica,sans-Serif" font-size="10.00">Context</text>
</a>
</g>
</g>
<!-- Node4 -->
<g id="Node000004" class="node">
<title>Node4</title>
<g id="a_Node000004"><a xlink:href="../../d2/d8c/classxii_animated_mesh_context.htm" target="_top" xlink:title=" ">
<polygon fill="white" stroke="#bfbfbf" points="564,-389 424,-389 424,-370 564,-370 564,-389"/>
<text text-anchor="middle" x="494" y="-377" font-family="Helvetica,sans-Serif" font-size="10.00">xiiAnimatedMeshContext</text>
</a>
</g>
</g>
<!-- Node1&#45;&gt;Node4 -->
<g id="edge3_Node000001_Node000004" class="edge">
<title>Node1&#45;&gt;Node4</title>
<g id="a_edge3_Node000001_Node000004"><a xlink:title=" ">
<path fill="none" stroke="#63b8ff" d="M323.84,-219.13C339.06,-255.89 372.78,-324.71 424,-361.5 428.73,-364.89 434.04,-367.65 439.57,-369.88"/>
<polygon fill="#63b8ff" stroke="#63b8ff" points="327.01,-217.64 320.03,-209.67 320.51,-220.25 327.01,-217.64"/>
</a>
</g>
</g>
<!-- Node5 -->
<g id="Node000005" class="node">
<title>Node5</title>
<g id="a_Node000005"><a xlink:href="../../da/dc1/classxii_animation_clip_context.htm" target="_top" xlink:title=" ">
<polygon fill="white" stroke="#bfbfbf" points="562,-352 426,-352 426,-333 562,-333 562,-352"/>
<text text-anchor="middle" x="494" y="-340" font-family="Helvetica,sans-Serif" font-size="10.00">xiiAnimationClipContext</text>
</a>
</g>
</g>
<!-- Node1&#45;&gt;Node5 -->
<g id="edge4_Node000001_Node000005" class="edge">
<title>Node1&#45;&gt;Node5</title>
<g id="a_edge4_Node000001_Node000005"><a xlink:title=" ">
<path fill="none" stroke="#63b8ff" d="M328.16,-218.38C346.26,-247.84 380.99,-297.36 424,-324.5 429.44,-327.94 435.52,-330.72 441.76,-332.97"/>
<polygon fill="#63b8ff" stroke="#63b8ff" points="331.02,-216.34 322.87,-209.57 325.02,-219.94 331.02,-216.34"/>
</a>
</g>
</g>
<!-- Node6 -->
<g id="Node000006" class="node">
<title>Node6</title>
<g id="a_Node000006"><a xlink:href="../../d5/dde/classxii_decal_context.htm" target="_top" xlink:title=" ">
<polygon fill="white" stroke="#bfbfbf" points="541.5,-315 446.5,-315 446.5,-296 541.5,-296 541.5,-315"/>
<text text-anchor="middle" x="494" y="-303" font-family="Helvetica,sans-Serif" font-size="10.00">xiiDecalContext</text>
</a>
</g>
</g>
<!-- Node1&#45;&gt;Node6 -->
<g id="edge5_Node000001_Node000006" class="edge">
<title>Node1&#45;&gt;Node6</title>
<g id="a_edge5_Node000001_Node000006"><a xlink:title=" ">
<path fill="none" stroke="#63b8ff" d="M335.12,-217.1C355.67,-238.29 389.12,-269.36 424,-287.5 430.92,-291.1 438.61,-294.02 446.28,-296.37"/>
<polygon fill="#63b8ff" stroke="#63b8ff" points="337.59,-214.61 328.16,-209.78 332.52,-219.44 337.59,-214.61"/>
</a>
</g>
</g>
<!-- Node7 -->
<g id="Node000007" class="node">
<title>Node7</title>
<g id="a_Node000007"><a xlink:href="../../d2/d93/classxii_layer_context.htm" target="_top" xlink:title="Layers that are loaded as sub&#45;documents of a scene share the xiiWorld with their main document scene....">
<polygon fill="white" stroke="#666666" points="541,-278 447,-278 447,-259 541,-259 541,-278"/>
<text text-anchor="middle" x="494" y="-266" font-family="Helvetica,sans-Serif" font-size="10.00">xiiLayerContext</text>
</a>
</g>
</g>
<!-- Node1&#45;&gt;Node7 -->
<g id="edge6_Node000001_Node000007" class="edge">
<title>Node1&#45;&gt;Node7</title>
<g id="a_edge6_Node000001_Node000007"><a xlink:title=" ">
<path fill="none" stroke="#63b8ff" d="M349.22,-214.72C370.32,-226.38 398.1,-240.63 424,-250.5 432.45,-253.72 441.69,-256.56 450.58,-258.99"/>
<polygon fill="#63b8ff" stroke="#63b8ff" points="350.75,-211.57 340.32,-209.74 347.33,-217.67 350.75,-211.57"/>
</a>
</g>
</g>
<!-- Node8 -->
<g id="Node000008" class="node">
<title>Node8</title>
<g id="a_Node000008"><a xlink:href="../../da/d05/classxii_material_context.htm" target="_top" xlink:title=" ">
<polygon fill="white" stroke="#bfbfbf" points="547.5,-241 440.5,-241 440.5,-222 547.5,-222 547.5,-241"/>
<text text-anchor="middle" x="494" y="-229" font-family="Helvetica,sans-Serif" font-size="10.00">xiiMaterialContext</text>
</a>
</g>
</g>
<!-- Node1&#45;&gt;Node8 -->
<g id="edge7_Node000001_Node000008" class="edge">
<title>Node1&#45;&gt;Node8</title>
<g id="a_edge7_Node000001_Node000008"><a xlink:title=" ">
<path fill="none" stroke="#63b8ff" d="M397.16,-211.63C414.33,-215.19 431.83,-218.82 447.09,-221.98"/>
<polygon fill="#63b8ff" stroke="#63b8ff" points="397.61,-208.15 387.1,-209.55 396.18,-215.01 397.61,-208.15"/>
</a>
</g>
</g>
<!-- Node9 -->
<g id="Node000009" class="node">
<title>Node9</title>
<g id="a_Node000009"><a xlink:href="../../df/dd4/classxii_mesh_context.htm" target="_top" xlink:title=" ">
<polygon fill="white" stroke="#bfbfbf" points="540.5,-204 447.5,-204 447.5,-185 540.5,-185 540.5,-204"/>
<text text-anchor="middle" x="494" y="-192" font-family="Helvetica,sans-Serif" font-size="10.00">xiiMeshContext</text>
</a>
</g>
</g>
<!-- Node1&#45;&gt;Node9 -->
<g id="edge8_Node000001_Node000009" class="edge">
<title>Node1&#45;&gt;Node9</title>
<g id="a_edge8_Node000001_Node000009"><a xlink:title=" ">
<path fill="none" stroke="#63b8ff" d="M398.56,-194.5C415.39,-194.5 432.46,-194.5 447.38,-194.5"/>
<polygon fill="#63b8ff" stroke="#63b8ff" points="398.13,-191 388.13,-194.5 398.13,-198 398.13,-191"/>
</a>
</g>
</g>
<!-- Node10 -->
<g id="Node000010" class="node">
<title>Node10</title>
<g id="a_Node000010"><a xlink:href="../../d5/dbe/classxii_render_pipeline_context.htm" target="_top" xlink:title=" ">
<polygon fill="white" stroke="#bfbfbf" points="564,-167 424,-167 424,-148 564,-148 564,-167"/>
<text text-anchor="middle" x="494" y="-155" font-family="Helvetica,sans-Serif" font-size="10.00">xiiRenderPipelineContext</text>
</a>
</g>
</g>
<!-- Node1&#45;&gt;Node10 -->
<g id="edge9_Node000001_Node000010" class="edge">
<title>Node1&#45;&gt;Node10</title>
<g id="a_edge9_Node000001_Node000010"><a xlink:title=" ">
<path fill="none" stroke="#63b8ff" d="M397.16,-177.37C414.33,-173.81 431.83,-170.18 447.09,-167.02"/>
<polygon fill="#63b8ff" stroke="#63b8ff" points="396.18,-173.99 387.1,-179.45 397.61,-180.85 396.18,-173.99"/>
</a>
</g>
</g>
<!-- Node11 -->
<g id="Node000011" class="node">
<title>Node11</title>
<g id="a_Node000011"><a xlink:href="../../db/de8/classxii_scene_context.htm" target="_top" xlink:title=" ">
<polygon fill="white" stroke="#bfbfbf" points="542,-130 446,-130 446,-111 542,-111 542,-130"/>
<text text-anchor="middle" x="494" y="-118" font-family="Helvetica,sans-Serif" font-size="10.00">xiiSceneContext</text>
</a>
</g>
</g>
<!-- Node1&#45;&gt;Node11 -->
<g id="edge10_Node000001_Node000011" class="edge">
<title>Node1&#45;&gt;Node11</title>
<g id="a_edge10_Node000001_Node000011"><a xlink:title=" ">
<path fill="none" stroke="#63b8ff" d="M349.22,-174.28C370.32,-162.62 398.1,-148.37 424,-138.5 432.45,-135.28 441.69,-132.44 450.58,-130.01"/>
<polygon fill="#63b8ff" stroke="#63b8ff" points="347.33,-171.33 340.32,-179.26 350.75,-177.43 347.33,-171.33"/>
</a>
</g>
</g>
<!-- Node12 -->
<g id="Node000012" class="node">
<title>Node12</title>
<g id="a_Node000012"><a xlink:href="../../d2/d7d/classxii_skeleton_context.htm" target="_top" xlink:title=" ">
<polygon fill="white" stroke="#bfbfbf" points="548.5,-93 439.5,-93 439.5,-74 548.5,-74 548.5,-93"/>
<text text-anchor="middle" x="494" y="-81" font-family="Helvetica,sans-Serif" font-size="10.00">xiiSkeletonContext</text>
</a>
</g>
</g>
<!-- Node1&#45;&gt;Node12 -->
<g id="edge11_Node000001_Node000012" class="edge">
<title>Node1&#45;&gt;Node12</title>
<g id="a_edge11_Node000001_Node000012"><a xlink:title=" ">
<path fill="none" stroke="#63b8ff" d="M335.12,-171.9C355.67,-150.71 389.12,-119.64 424,-101.5 430.48,-98.13 437.64,-95.36 444.82,-93.08"/>
<polygon fill="#63b8ff" stroke="#63b8ff" points="332.52,-169.56 328.16,-179.22 337.59,-174.39 332.52,-169.56"/>
</a>
</g>
</g>
<!-- Node13 -->
<g id="Node000013" class="node">
<title>Node13</title>
<g id="a_Node000013"><a xlink:href="../../d4/d95/classxii_texture_context.htm" target="_top" xlink:title=" ">
<polygon fill="white" stroke="#bfbfbf" points="545.5,-56 442.5,-56 442.5,-37 545.5,-37 545.5,-56"/>
<text text-anchor="middle" x="494" y="-44" font-family="Helvetica,sans-Serif" font-size="10.00">xiiTextureContext</text>
</a>
</g>
</g>
<!-- Node1&#45;&gt;Node13 -->
<g id="edge12_Node000001_Node000013" class="edge">
<title>Node1&#45;&gt;Node13</title>
<g id="a_edge12_Node000001_Node000013"><a xlink:title=" ">
<path fill="none" stroke="#63b8ff" d="M328.16,-170.62C346.26,-141.16 380.99,-91.64 424,-64.5 429.65,-60.93 435.99,-58.07 442.48,-55.77"/>
<polygon fill="#63b8ff" stroke="#63b8ff" points="325.02,-169.06 322.87,-179.43 331.02,-172.66 325.02,-169.06"/>
</a>
</g>
</g>
<!-- Node14 -->
<g id="Node000014" class="node">
<title>Node14</title>
<g id="a_Node000014"><a xlink:href="../../d7/d07/classxii_texture_cube_context.htm" target="_top" xlink:title=" ">
<polygon fill="white" stroke="#bfbfbf" points="558,-19 430,-19 430,0 558,0 558,-19"/>
<text text-anchor="middle" x="494" y="-7" font-family="Helvetica,sans-Serif" font-size="10.00">xiiTextureCubeContext</text>
</a>
</g>
</g>
<!-- Node1&#45;&gt;Node14 -->
<g id="edge13_Node000001_Node000014" class="edge">
<title>Node1&#45;&gt;Node14</title>
<g id="a_edge13_Node000001_Node000014"><a xlink:title=" ">
<path fill="none" stroke="#63b8ff" d="M323.84,-169.87C339.06,-133.11 372.78,-64.29 424,-27.5 428.73,-24.11 434.04,-21.35 439.57,-19.12"/>
<polygon fill="#63b8ff" stroke="#63b8ff" points="320.51,-168.75 320.03,-179.33 327.01,-171.36 320.51,-168.75"/>
</a>
</g>
</g>
<!-- Node2 -->
<g id="Node000002" class="node">
<title>Node2</title>
<g id="a_Node000002"><a xlink:href="../../dc/d71/classxii_reflected_class.htm" target="_top" xlink:title="All classes that should be dynamically reflectable, need to be derived from this base class.">
<polygon fill="white" stroke="#666666" points="203,-204 102,-204 102,-185 203,-185 203,-204"/>
<text text-anchor="middle" x="152.5" y="-192" font-family="Helvetica,sans-Serif" font-size="10.00">xiiReflectedClass</text>
</a>
</g>
</g>
<!-- Node2&#45;&gt;Node1 -->
<g id="edge1_Node000001_Node000002" class="edge">
<title>Node2&#45;&gt;Node1</title>
<g id="a_edge1_Node000001_Node000002"><a xlink:title=" ">
<path fill="none" stroke="#63b8ff" d="M213.65,-194.5C221.91,-194.5 230.46,-194.5 238.93,-194.5"/>
<polygon fill="#63b8ff" stroke="#63b8ff" points="213.37,-191 203.37,-194.5 213.37,-198 213.37,-191"/>
</a>
</g>
</g>
<!-- Node3 -->
<g id="Node000003" class="node">
<title>Node3</title>
<g id="a_Node000003"><a xlink:href="../../d2/d38/classxii_no_base.htm" target="_top" xlink:title="Dummy type to pass to templates and macros that expect a base type for a class that has no base.">
<polygon fill="white" stroke="#666666" points="66,-204 0,-204 0,-185 66,-185 66,-204"/>
<text text-anchor="middle" x="33" y="-192" font-family="Helvetica,sans-Serif" font-size="10.00">xiiNoBase</text>
</a>
</g>
</g>
<!-- Node3&#45;&gt;Node2 -->
<g id="edge2_Node000002_Node000003" class="edge">
<title>Node3&#45;&gt;Node2</title>
<g id="a_edge2_Node000002_Node000003"><a xlink:title=" ">
<path fill="none" stroke="#63b8ff" d="M76.27,-194.5C84.54,-194.5 93.29,-194.5 101.78,-194.5"/>
<polygon fill="#63b8ff" stroke="#63b8ff" points="76.11,-191 66.11,-194.5 76.11,-198 76.11,-191"/>
</a>
</g>
</g>
</g>
</svg>

<g id="navigator" transform="translate(0 0)" fill="#404254">
  <rect fill="#f2f5e9" fill-opacity="0.5" stroke="#606060" stroke-width=".5" x="0" y="0" width="60" height="60"/>
  <use id="zoomplus" xlink:href="#zoomPlus" x="17" y="9" onmousedown="handleZoom(evt,'in')"/>
  <use id="zoomminus" xlink:href="#zoomMin" x="42" y="9" onmousedown="handleZoom(evt,'out')"/>
  <use id="reset" xlink:href="#resetDef" x="30" y="36" onmousedown="handleReset()"/>
   <use id="arrowup" xlink:href="#arrowUp" x="0" y="0" onmousedown="handlePan(0,-1)"/>
  <use id="arrowright" xlink:href="#arrowRight" x="0" y="0" onmousedown="handlePan(1,0)"/>
  <use id="arrowdown" xlink:href="#arrowDown" x="0" y="0" onmousedown="handlePan(0,1)"/>
  <use id="arrowleft" xlink:href="#arrowLeft" x="0" y="0" onmousedown="handlePan(-1,0)"/>
</g>
<svg viewBox="0 0 15 15" width="100%" height="30px" preserveAspectRatio="xMaxYMin meet">
 <g id="arrow_out" transform="scale(0.3 0.3)">
  <a xlink:href="classxii_engine_process_document_context__inherit__graph_org.svg" target="_base">
   <rect id="button" ry="5" rx="5" y="6" x="6" height="38" width="38"
        fill="#f2f5e9" fill-opacity="0.5" stroke="#606060" stroke-width="1.0"/>
   <path id="arrow"
     d="M 11.500037,31.436501 C 11.940474,20.09759 22.043105,11.32322 32.158766,21.979434 L 37.068811,17.246167 C 37.068811,17.246167 37.088388,32 37.088388,32 L 22.160133,31.978069 C 22.160133,31.978069 26.997745,27.140456 26.997745,27.140456 C 18.528582,18.264221 13.291696,25.230495 11.500037,31.436501 z"
     style="fill:#404040;"/>
  </a>
 </g>
</svg>

<style type='text/css'>
<![CDATA[
[data-mouse-over-selected='false'] { opacity: 0.7; }
[data-mouse-over-selected='true']  { opacity: 1.0; }
]]>
</style>
<script type="application/ecmascript"><![CDATA[
document.addEventListener('DOMContentLoaded', (event) => {
  highlightEdges();
  highlightAdjacentNodes();
});
]]></script>
</svg>
