<?xml version="1.0" encoding="UTF-8" standalone="no"?>
<!DOCTYPE svg PUBLIC "-//W3C//DTD SVG 1.1//EN"
 "http://www.w3.org/Graphics/SVG/1.1/DTD/svg11.dtd">
<!-- Generated by graphviz version 2.43.0 (0)
 -->
<!-- Title: xiiQtGroupBoxBase Pages: 1 -->
<svg width="290pt" height="140pt"
 viewBox="0.00 0.00 289.50 140.00" xmlns="http://www.w3.org/2000/svg" xmlns:xlink="http://www.w3.org/1999/xlink">
<g id="graph0" class="graph" transform="scale(1 1) rotate(0) translate(4 136)">
<title>xiiQtGroupBoxBase</title>
<polygon fill="white" stroke="transparent" points="-4,4 -4,-136 285.5,-136 285.5,4 -4,4"/>
<!-- Node1 -->
<g id="node1" class="node">
<title>Node1</title>
<g id="a_node1"><a xlink:title=" ">
<polygon fill="#bfbfbf" stroke="black" points="90,-56.5 90,-75.5 202,-75.5 202,-56.5 90,-56.5"/>
<text text-anchor="middle" x="146" y="-63.5" font-family="Helvetica,sans-Serif" font-size="10.00">xiiQtGroupBoxBase</text>
</a>
</g>
</g>
<!-- Node3 -->
<g id="node3" class="node">
<title>Node3</title>
<g id="a_node3"><a xlink:href="../../d6/dd6/classxii_qt_collapsible_group_box.htm" target="_top" xlink:title=" ">
<polygon fill="white" stroke="black" points="0,-0.5 0,-19.5 142,-19.5 142,-0.5 0,-0.5"/>
<text text-anchor="middle" x="71" y="-7.5" font-family="Helvetica,sans-Serif" font-size="10.00">xiiQtCollapsibleGroupBox</text>
</a>
</g>
</g>
<!-- Node1&#45;&gt;Node3 -->
<g id="edge2" class="edge">
<title>Node1&#45;&gt;Node3</title>
<path fill="none" stroke="midnightblue" d="M125.69,-50.38C112.14,-40.62 94.76,-28.11 83.27,-19.83"/>
<polygon fill="midnightblue" stroke="midnightblue" points="123.79,-53.32 133.95,-56.32 127.88,-47.64 123.79,-53.32"/>
</g>
<!-- Node4 -->
<g id="node4" class="node">
<title>Node4</title>
<g id="a_node4"><a xlink:href="../../d8/dde/classxii_qt_inlined_group_box.htm" target="_top" xlink:title=" ">
<polygon fill="white" stroke="black" points="160.5,-0.5 160.5,-19.5 281.5,-19.5 281.5,-0.5 160.5,-0.5"/>
<text text-anchor="middle" x="221" y="-7.5" font-family="Helvetica,sans-Serif" font-size="10.00">xiiQtInlinedGroupBox</text>
</a>
</g>
</g>
<!-- Node1&#45;&gt;Node4 -->
<g id="edge3" class="edge">
<title>Node1&#45;&gt;Node4</title>
<path fill="none" stroke="midnightblue" d="M166.31,-50.38C179.86,-40.62 197.24,-28.11 208.73,-19.83"/>
<polygon fill="midnightblue" stroke="midnightblue" points="164.12,-47.64 158.05,-56.32 168.21,-53.32 164.12,-47.64"/>
</g>
<!-- Node2 -->
<g id="node2" class="node">
<title>Node2</title>
<g id="a_node2"><a xlink:title=" ">
<polygon fill="white" stroke="#bfbfbf" points="116.5,-112.5 116.5,-131.5 175.5,-131.5 175.5,-112.5 116.5,-112.5"/>
<text text-anchor="middle" x="146" y="-119.5" font-family="Helvetica,sans-Serif" font-size="10.00">QWidget</text>
</a>
</g>
</g>
<!-- Node2&#45;&gt;Node1 -->
<g id="edge1" class="edge">
<title>Node2&#45;&gt;Node1</title>
<path fill="none" stroke="midnightblue" d="M146,-101.8C146,-92.91 146,-82.78 146,-75.75"/>
<polygon fill="midnightblue" stroke="midnightblue" points="142.5,-102.08 146,-112.08 149.5,-102.08 142.5,-102.08"/>
</g>
</g>
</svg>
