<?xml version="1.0" encoding="UTF-8" standalone="no"?>
<!DOCTYPE svg PUBLIC "-//W3C//DTD SVG 1.1//EN"
 "http://www.w3.org/Graphics/SVG/1.1/DTD/svg11.dtd">
<!-- Generated by graphviz version 2.43.0 (0)
 -->
<!-- Title: xiiCommand Pages: 1 -->
<svg width="554pt" height="680pt"
 viewBox="0.00 0.00 554.00 680.00" xmlns="http://www.w3.org/2000/svg" xmlns:xlink="http://www.w3.org/1999/xlink">
<g id="graph0" class="graph" transform="scale(1 1) rotate(0) translate(4 676)">
<title>xiiCommand</title>
<!-- Node1 -->
<g id="Node000001" class="node">
<title>Node1</title>
<g id="a_Node000001"><a xlink:title="Interface for a command.">
<polygon fill="#999999" stroke="#666666" points="318,-357 239,-357 239,-338 318,-338 318,-357"/>
<text text-anchor="middle" x="278.5" y="-345" font-family="Helvetica,sans-Serif" font-size="10.00">xiiCommand</text>
</a>
</g>
</g>
<!-- Node4 -->
<g id="Node000004" class="node">
<title>Node4</title>
<g id="a_Node000004"><a xlink:href="../../db/d8e/classxii_add_object_command.html" target="_top" xlink:title=" ">
<polygon fill="white" stroke="#bfbfbf" points="514.5,-672 385.5,-672 385.5,-653 514.5,-653 514.5,-672"/>
<text text-anchor="middle" x="450" y="-660" font-family="Helvetica,sans-Serif" font-size="10.00">xiiAddObjectCommand</text>
</a>
</g>
</g>
<!-- Node1&#45;&gt;Node4 -->
<g id="edge3_Node000001_Node000004" class="edge">
<title>Node1&#45;&gt;Node4</title>
<g id="a_edge3_Node000001_Node000004"><a xlink:title=" ">
<path fill="none" stroke="#63b8ff" d="M281.68,-367.11C288.74,-427 312.95,-605.78 354,-644.5 362.67,-652.68 373.84,-657.7 385.45,-660.7"/>
<polygon fill="#63b8ff" stroke="#63b8ff" points="285.15,-366.62 280.53,-357.08 278.19,-367.42 285.15,-366.62"/>
</a>
</g>
</g>
<!-- Node5 -->
<g id="Node000005" class="node">
<title>Node5</title>
<g id="a_Node000005"><a xlink:href="../../df/d5f/classxii_command_transaction.html" target="_top" xlink:title=" ">
<polygon fill="white" stroke="#bfbfbf" points="517,-635 383,-635 383,-616 517,-616 517,-635"/>
<text text-anchor="middle" x="450" y="-623" font-family="Helvetica,sans-Serif" font-size="10.00">xiiCommandTransaction</text>
</a>
</g>
</g>
<!-- Node1&#45;&gt;Node5 -->
<g id="edge4_Node000001_Node000005" class="edge">
<title>Node1&#45;&gt;Node5</title>
<g id="a_edge4_Node000001_Node000005"><a xlink:title=" ">
<path fill="none" stroke="#63b8ff" d="M278.71,-367.24C277.93,-416.01 283.18,-542.9 354,-607.5 362.06,-614.85 372.15,-619.63 382.73,-622.67"/>
<polygon fill="#63b8ff" stroke="#63b8ff" points="282.22,-367.18 278.99,-357.09 275.22,-366.99 282.22,-367.18"/>
</a>
</g>
</g>
<!-- Node6 -->
<g id="Node000006" class="node">
<title>Node6</title>
<g id="a_Node000006"><a xlink:href="../../d6/d5d/classxii_connect_node_pins_command.html" target="_top" xlink:title=" ">
<polygon fill="white" stroke="#bfbfbf" points="532,-598 368,-598 368,-579 532,-579 532,-598"/>
<text text-anchor="middle" x="450" y="-586" font-family="Helvetica,sans-Serif" font-size="10.00">xiiConnectNodePinsCommand</text>
</a>
</g>
</g>
<!-- Node1&#45;&gt;Node6 -->
<g id="edge5_Node000001_Node000006" class="edge">
<title>Node1&#45;&gt;Node6</title>
<g id="a_edge5_Node000001_Node000006"><a xlink:title=" ">
<path fill="none" stroke="#63b8ff" d="M279.83,-367.66C281.71,-411.75 292.75,-517.02 354,-570.5 358.17,-574.14 362.85,-577.15 367.83,-579.61"/>
<polygon fill="#63b8ff" stroke="#63b8ff" points="283.32,-367.28 279.51,-357.39 276.32,-367.5 283.32,-367.28"/>
</a>
</g>
</g>
<!-- Node7 -->
<g id="Node000007" class="node">
<title>Node7</title>
<g id="a_Node000007"><a xlink:href="../../d8/d8e/classxii_disconnect_node_pins_command.html" target="_top" xlink:title=" ">
<polygon fill="white" stroke="#bfbfbf" points="539.5,-561 360.5,-561 360.5,-542 539.5,-542 539.5,-561"/>
<text text-anchor="middle" x="450" y="-549" font-family="Helvetica,sans-Serif" font-size="10.00">xiiDisconnectNodePinsCommand</text>
</a>
</g>
</g>
<!-- Node1&#45;&gt;Node7 -->
<g id="edge6_Node000001_Node000007" class="edge">
<title>Node1&#45;&gt;Node7</title>
<g id="a_edge6_Node000001_Node000007"><a xlink:title=" ">
<path fill="none" stroke="#63b8ff" d="M281.33,-367.44C285.99,-405.97 301.91,-490.63 354,-533.5 358.02,-536.81 362.46,-539.58 367.15,-541.89"/>
<polygon fill="#63b8ff" stroke="#63b8ff" points="284.76,-366.63 280.22,-357.06 277.8,-367.37 284.76,-366.63"/>
</a>
</g>
</g>
<!-- Node8 -->
<g id="Node000008" class="node">
<title>Node8</title>
<g id="a_Node000008"><a xlink:href="../../d8/da7/classxii_duplicate_objects_command.html" target="_top" xlink:title=" ">
<polygon fill="white" stroke="#bfbfbf" points="531,-524 369,-524 369,-505 531,-505 531,-524"/>
<text text-anchor="middle" x="450" y="-512" font-family="Helvetica,sans-Serif" font-size="10.00">xiiDuplicateObjectsCommand</text>
</a>
</g>
</g>
<!-- Node1&#45;&gt;Node8 -->
<g id="edge7_Node000001_Node000008" class="edge">
<title>Node1&#45;&gt;Node8</title>
<g id="a_edge7_Node000001_Node000008"><a xlink:title=" ">
<path fill="none" stroke="#63b8ff" d="M283.42,-367.05C291,-399.45 310.86,-463.9 354,-496.5 358.55,-499.94 363.57,-502.79 368.85,-505.13"/>
<polygon fill="#63b8ff" stroke="#63b8ff" points="286.79,-366.06 281.24,-357.04 279.95,-367.55 286.79,-366.06"/>
</a>
</g>
</g>
<!-- Node9 -->
<g id="Node000009" class="node">
<title>Node9</title>
<g id="a_Node000009"><a xlink:href="../../de/d86/classxii_insert_object_property_command.html" target="_top" xlink:title=" ">
<polygon fill="white" stroke="#bfbfbf" points="539.5,-487 360.5,-487 360.5,-468 539.5,-468 539.5,-487"/>
<text text-anchor="middle" x="450" y="-475" font-family="Helvetica,sans-Serif" font-size="10.00">xiiInsertObjectPropertyCommand</text>
</a>
</g>
</g>
<!-- Node1&#45;&gt;Node9 -->
<g id="edge8_Node000001_Node000009" class="edge">
<title>Node1&#45;&gt;Node9</title>
<g id="a_edge8_Node000001_Node000009"><a xlink:title=" ">
<path fill="none" stroke="#63b8ff" d="M286.62,-366.54C297.21,-392.03 319.62,-436.7 354,-459.5 359.04,-462.84 364.54,-465.6 370.27,-467.87"/>
<polygon fill="#63b8ff" stroke="#63b8ff" points="289.86,-365.2 282.92,-357.2 283.35,-367.78 289.86,-365.2"/>
</a>
</g>
</g>
<!-- Node10 -->
<g id="Node000010" class="node">
<title>Node10</title>
<g id="a_Node000010"><a xlink:href="../../d1/dab/classxii_instantiate_prefab_command.html" target="_top" xlink:title=" ">
<polygon fill="white" stroke="#bfbfbf" points="531.5,-450 368.5,-450 368.5,-431 531.5,-431 531.5,-450"/>
<text text-anchor="middle" x="450" y="-438" font-family="Helvetica,sans-Serif" font-size="10.00">xiiInstantiatePrefabCommand</text>
</a>
</g>
</g>
<!-- Node1&#45;&gt;Node10 -->
<g id="edge9_Node000001_Node000010" class="edge">
<title>Node1&#45;&gt;Node10</title>
<g id="a_edge9_Node000001_Node000010"><a xlink:title=" ">
<path fill="none" stroke="#63b8ff" d="M292.11,-365.39C305.42,-382.85 328.05,-408.72 354,-422.5 360.38,-425.88 367.29,-428.64 374.38,-430.88"/>
<polygon fill="#63b8ff" stroke="#63b8ff" points="294.78,-363.11 286.03,-357.14 289.14,-367.27 294.78,-363.11"/>
</a>
</g>
</g>
<!-- Node11 -->
<g id="Node000011" class="node">
<title>Node11</title>
<g id="a_Node000011"><a xlink:href="../../d1/da6/classxii_move_node_command.html" target="_top" xlink:title=" ">
<polygon fill="white" stroke="#bfbfbf" points="515.5,-413 384.5,-413 384.5,-394 515.5,-394 515.5,-413"/>
<text text-anchor="middle" x="450" y="-401" font-family="Helvetica,sans-Serif" font-size="10.00">xiiMoveNodeCommand</text>
</a>
</g>
</g>
<!-- Node1&#45;&gt;Node11 -->
<g id="edge10_Node000001_Node000011" class="edge">
<title>Node1&#45;&gt;Node11</title>
<g id="a_edge10_Node000001_Node000011"><a xlink:title=" ">
<path fill="none" stroke="#63b8ff" d="M303.98,-362.23C318.15,-370.17 336.59,-379.55 354,-385.5 363.85,-388.87 374.5,-391.66 384.98,-393.96"/>
<polygon fill="#63b8ff" stroke="#63b8ff" points="305.33,-358.96 294.91,-357.01 301.84,-365.03 305.33,-358.96"/>
</a>
</g>
</g>
<!-- Node12 -->
<g id="Node000012" class="node">
<title>Node12</title>
<g id="a_Node000012"><a xlink:href="../../d6/db6/classxii_move_object_command.html" target="_top" xlink:title=" ">
<polygon fill="white" stroke="#bfbfbf" points="518.5,-376 381.5,-376 381.5,-357 518.5,-357 518.5,-376"/>
<text text-anchor="middle" x="450" y="-364" font-family="Helvetica,sans-Serif" font-size="10.00">xiiMoveObjectCommand</text>
</a>
</g>
</g>
<!-- Node1&#45;&gt;Node12 -->
<g id="edge11_Node000001_Node000012" class="edge">
<title>Node1&#45;&gt;Node12</title>
<g id="a_edge11_Node000001_Node000012"><a xlink:title=" ">
<path fill="none" stroke="#63b8ff" d="M328.36,-352.98C344.89,-354.83 363.65,-356.93 381.37,-358.92"/>
<polygon fill="#63b8ff" stroke="#63b8ff" points="328.71,-349.49 318.39,-351.86 327.93,-356.45 328.71,-349.49"/>
</a>
</g>
</g>
<!-- Node13 -->
<g id="Node000013" class="node">
<title>Node13</title>
<g id="a_Node000013"><a xlink:href="../../dd/dff/classxii_move_object_property_command.html" target="_top" xlink:title=" ">
<polygon fill="white" stroke="#bfbfbf" points="539.5,-339 360.5,-339 360.5,-320 539.5,-320 539.5,-339"/>
<text text-anchor="middle" x="450" y="-327" font-family="Helvetica,sans-Serif" font-size="10.00">xiiMoveObjectPropertyCommand</text>
</a>
</g>
</g>
<!-- Node1&#45;&gt;Node13 -->
<g id="edge12_Node000001_Node000013" class="edge">
<title>Node1&#45;&gt;Node13</title>
<g id="a_edge12_Node000001_Node000013"><a xlink:title=" ">
<path fill="none" stroke="#63b8ff" d="M328.49,-342.3C338.51,-341.23 349.33,-340.08 360.25,-338.92"/>
<polygon fill="#63b8ff" stroke="#63b8ff" points="327.96,-338.83 318.39,-343.37 328.7,-345.79 327.96,-338.83"/>
</a>
</g>
</g>
<!-- Node14 -->
<g id="Node000014" class="node">
<title>Node14</title>
<g id="a_Node000014"><a xlink:href="../../db/df4/classxii_paste_objects_command.html" target="_top" xlink:title=" ">
<polygon fill="white" stroke="#bfbfbf" points="521,-302 379,-302 379,-283 521,-283 521,-302"/>
<text text-anchor="middle" x="450" y="-290" font-family="Helvetica,sans-Serif" font-size="10.00">xiiPasteObjectsCommand</text>
</a>
</g>
</g>
<!-- Node1&#45;&gt;Node14 -->
<g id="edge13_Node000001_Node000014" class="edge">
<title>Node1&#45;&gt;Node14</title>
<g id="a_edge13_Node000001_Node000014"><a xlink:title=" ">
<path fill="none" stroke="#63b8ff" d="M304.57,-332.89C318.69,-325.22 336.87,-316.25 354,-310.5 364.02,-307.13 374.87,-304.33 385.52,-302.02"/>
<polygon fill="#63b8ff" stroke="#63b8ff" points="302.55,-330.01 295.52,-337.93 305.96,-336.13 302.55,-330.01"/>
</a>
</g>
</g>
<!-- Node15 -->
<g id="Node000015" class="node">
<title>Node15</title>
<g id="a_Node000015"><a xlink:href="../../d5/dff/classxii_remove_node_command.html" target="_top" xlink:title=" ">
<polygon fill="white" stroke="#bfbfbf" points="522.5,-265 377.5,-265 377.5,-246 522.5,-246 522.5,-265"/>
<text text-anchor="middle" x="450" y="-253" font-family="Helvetica,sans-Serif" font-size="10.00">xiiRemoveNodeCommand</text>
</a>
</g>
</g>
<!-- Node1&#45;&gt;Node15 -->
<g id="edge14_Node000001_Node000015" class="edge">
<title>Node1&#45;&gt;Node15</title>
<g id="a_edge14_Node000001_Node000015"><a xlink:title=" ">
<path fill="none" stroke="#63b8ff" d="M292.16,-329.85C305.51,-312.63 328.18,-287.1 354,-273.5 361.28,-269.67 369.25,-266.64 377.38,-264.26"/>
<polygon fill="#63b8ff" stroke="#63b8ff" points="289.26,-327.89 286.06,-337.99 294.86,-332.09 289.26,-327.89"/>
</a>
</g>
</g>
<!-- Node16 -->
<g id="Node000016" class="node">
<title>Node16</title>
<g id="a_Node000016"><a xlink:href="../../d6/def/classxii_remove_object_command.html" target="_top" xlink:title=" ">
<polygon fill="white" stroke="#bfbfbf" points="525.5,-228 374.5,-228 374.5,-209 525.5,-209 525.5,-228"/>
<text text-anchor="middle" x="450" y="-216" font-family="Helvetica,sans-Serif" font-size="10.00">xiiRemoveObjectCommand</text>
</a>
</g>
</g>
<!-- Node1&#45;&gt;Node16 -->
<g id="edge15_Node000001_Node000016" class="edge">
<title>Node1&#45;&gt;Node16</title>
<g id="a_edge15_Node000001_Node000016"><a xlink:title=" ">
<path fill="none" stroke="#63b8ff" d="M286.81,-328.29C297.51,-302.97 319.93,-258.99 354,-236.5 360.16,-232.43 367.02,-229.23 374.14,-226.72"/>
<polygon fill="#63b8ff" stroke="#63b8ff" points="283.44,-327.31 282.95,-337.89 289.93,-329.92 283.44,-327.31"/>
</a>
</g>
</g>
<!-- Node17 -->
<g id="Node000017" class="node">
<title>Node17</title>
<g id="a_Node000017"><a xlink:href="../../d7/de0/classxii_remove_object_property_command.html" target="_top" xlink:title=" ">
<polygon fill="white" stroke="#bfbfbf" points="546,-191 354,-191 354,-172 546,-172 546,-191"/>
<text text-anchor="middle" x="450" y="-179" font-family="Helvetica,sans-Serif" font-size="10.00">xiiRemoveObjectPropertyCommand</text>
</a>
</g>
</g>
<!-- Node1&#45;&gt;Node17 -->
<g id="edge16_Node000001_Node000017" class="edge">
<title>Node1&#45;&gt;Node17</title>
<g id="a_edge16_Node000001_Node000017"><a xlink:title=" ">
<path fill="none" stroke="#63b8ff" d="M283.57,-327.61C291.29,-295.28 311.26,-231.71 354,-199.5 358.42,-196.17 363.29,-193.39 368.4,-191.09"/>
<polygon fill="#63b8ff" stroke="#63b8ff" points="280.1,-327.12 281.34,-337.64 286.93,-328.64 280.1,-327.12"/>
</a>
</g>
</g>
<!-- Node18 -->
<g id="Node000018" class="node">
<title>Node18</title>
<g id="a_Node000018"><a xlink:href="../../db/d33/classxii_resize_and_set_object_property_command.html" target="_top" xlink:title=" ">
<polygon fill="white" stroke="#bfbfbf" points="534,-153.5 366,-153.5 366,-123.5 534,-123.5 534,-153.5"/>
<text text-anchor="start" x="374" y="-141.5" font-family="Helvetica,sans-Serif" font-size="10.00">xiiResizeAndSetObjectProperty</text>
<text text-anchor="middle" x="450" y="-130.5" font-family="Helvetica,sans-Serif" font-size="10.00">Command</text>
</a>
</g>
</g>
<!-- Node1&#45;&gt;Node18 -->
<g id="edge17_Node000001_Node000018" class="edge">
<title>Node1&#45;&gt;Node18</title>
<g id="a_edge17_Node000001_Node000018"><a xlink:title=" ">
<path fill="none" stroke="#63b8ff" d="M281.67,-327.41C286.87,-289.31 303.65,-206.46 354,-162.5 357.84,-159.14 362.09,-156.24 366.6,-153.74"/>
<polygon fill="#63b8ff" stroke="#63b8ff" points="278.15,-327.35 280.4,-337.7 285.09,-328.2 278.15,-327.35"/>
</a>
</g>
</g>
<!-- Node19 -->
<g id="Node000019" class="node">
<title>Node19</title>
<g id="a_Node000019"><a xlink:href="../../da/d3f/classxii_set_object_property_command.html" target="_top" xlink:title=" ">
<polygon fill="white" stroke="#bfbfbf" points="533.5,-105 366.5,-105 366.5,-86 533.5,-86 533.5,-105"/>
<text text-anchor="middle" x="450" y="-93" font-family="Helvetica,sans-Serif" font-size="10.00">xiiSetObjectPropertyCommand</text>
</a>
</g>
</g>
<!-- Node1&#45;&gt;Node19 -->
<g id="edge18_Node000001_Node000019" class="edge">
<title>Node1&#45;&gt;Node19</title>
<g id="a_edge18_Node000001_Node000019"><a xlink:title=" ">
<path fill="none" stroke="#63b8ff" d="M279.53,-327.42C280.77,-282.07 290.5,-171.26 354,-114.5 358.14,-110.8 362.79,-107.74 367.75,-105.21"/>
<polygon fill="#63b8ff" stroke="#63b8ff" points="276.03,-327.65 279.37,-337.7 283.03,-327.76 276.03,-327.65"/>
</a>
</g>
</g>
<!-- Node20 -->
<g id="Node000020" class="node">
<title>Node20</title>
<g id="a_Node000020"><a xlink:href="../../dd/d60/classxii_state_machine___set_initial_state_command.html" target="_top" xlink:title=" ">
<polygon fill="white" stroke="#bfbfbf" points="522,-67.5 378,-67.5 378,-37.5 522,-37.5 522,-67.5"/>
<text text-anchor="start" x="386" y="-55.5" font-family="Helvetica,sans-Serif" font-size="10.00">xiiStateMachine_SetInitial</text>
<text text-anchor="middle" x="450" y="-44.5" font-family="Helvetica,sans-Serif" font-size="10.00">StateCommand</text>
</a>
</g>
</g>
<!-- Node1&#45;&gt;Node20 -->
<g id="edge19_Node000001_Node000020" class="edge">
<title>Node1&#45;&gt;Node20</title>
<g id="a_edge19_Node000001_Node000020"><a xlink:title=" ">
<path fill="none" stroke="#63b8ff" d="M278.68,-327.87C277.75,-278.2 282.53,-146.5 354,-76.5 360.68,-69.95 368.88,-65.11 377.63,-61.55"/>
<polygon fill="#63b8ff" stroke="#63b8ff" points="275.19,-328.03 278.98,-337.92 282.18,-327.82 275.19,-328.03"/>
</a>
</g>
</g>
<!-- Node21 -->
<g id="Node000021" class="node">
<title>Node21</title>
<g id="a_Node000021"><a xlink:href="../../de/d3c/classxii_unlink_prefab_command.html" target="_top" xlink:title=" ">
<polygon fill="white" stroke="#bfbfbf" points="521,-19 379,-19 379,0 521,0 521,-19"/>
<text text-anchor="middle" x="450" y="-7" font-family="Helvetica,sans-Serif" font-size="10.00">xiiUnlinkPrefabCommand</text>
</a>
</g>
</g>
<!-- Node1&#45;&gt;Node21 -->
<g id="edge20_Node000001_Node000021" class="edge">
<title>Node1&#45;&gt;Node21</title>
<g id="a_edge20_Node000001_Node000021"><a xlink:title=" ">
<path fill="none" stroke="#63b8ff" d="M281.35,-327.71C287.66,-264.76 310.35,-70.78 354,-28.5 361.01,-21.71 369.72,-17.03 379,-13.84"/>
<polygon fill="#63b8ff" stroke="#63b8ff" points="277.85,-327.58 280.37,-337.88 284.82,-328.26 277.85,-327.58"/>
</a>
</g>
</g>
<!-- Node2 -->
<g id="Node000002" class="node">
<title>Node2</title>
<g id="a_Node000002"><a xlink:href="../../dc/d71/classxii_reflected_class.html" target="_top" xlink:title="All classes that should be dynamically reflectable, need to be derived from this base class.">
<polygon fill="white" stroke="#666666" points="203,-357 102,-357 102,-338 203,-338 203,-357"/>
<text text-anchor="middle" x="152.5" y="-345" font-family="Helvetica,sans-Serif" font-size="10.00">xiiReflectedClass</text>
</a>
</g>
</g>
<!-- Node2&#45;&gt;Node1 -->
<g id="edge1_Node000001_Node000002" class="edge">
<title>Node2&#45;&gt;Node1</title>
<g id="a_edge1_Node000001_Node000002"><a xlink:title=" ">
<path fill="none" stroke="#63b8ff" d="M213.33,-347.5C222.01,-347.5 230.73,-347.5 238.84,-347.5"/>
<polygon fill="#63b8ff" stroke="#63b8ff" points="213.22,-344 203.22,-347.5 213.22,-351 213.22,-344"/>
</a>
</g>
</g>
<!-- Node3 -->
<g id="Node000003" class="node">
<title>Node3</title>
<g id="a_Node000003"><a xlink:href="../../d2/d38/classxii_no_base.html" target="_top" xlink:title="Dummy type to pass to templates and macros that expect a base type for a class that has no base.">
<polygon fill="white" stroke="#666666" points="66,-357 0,-357 0,-338 66,-338 66,-357"/>
<text text-anchor="middle" x="33" y="-345" font-family="Helvetica,sans-Serif" font-size="10.00">xiiNoBase</text>
</a>
</g>
</g>
<!-- Node3&#45;&gt;Node2 -->
<g id="edge2_Node000002_Node000003" class="edge">
<title>Node3&#45;&gt;Node2</title>
<g id="a_edge2_Node000002_Node000003"><a xlink:title=" ">
<path fill="none" stroke="#63b8ff" d="M76.27,-347.5C84.54,-347.5 93.29,-347.5 101.78,-347.5"/>
<polygon fill="#63b8ff" stroke="#63b8ff" points="76.11,-344 66.11,-347.5 76.11,-351 76.11,-344"/>
</a>
</g>
</g>
</g>
</svg>
