<?xml version="1.0" encoding="UTF-8" standalone="no"?>
<!DOCTYPE svg PUBLIC "-//W3C//DTD SVG 1.1//EN"
 "http://www.w3.org/Graphics/SVG/1.1/DTD/svg11.dtd">
<!-- Generated by graphviz version 2.43.0 (0)
 -->
<!-- Title: xiiWindVolumeConeComponent Pages: 1 -->
<svg width="179pt" height="247pt"
 viewBox="0.00 0.00 179.00 247.00" xmlns="http://www.w3.org/2000/svg" xmlns:xlink="http://www.w3.org/1999/xlink">
<g id="graph0" class="graph" transform="scale(1 1) rotate(0) translate(4 243)">
<title>xiiWindVolumeConeComponent</title>
<!-- Node1 -->
<g id="Node000001" class="node">
<title>Node1</title>
<g id="a_Node000001"><a xlink:title=" ">
<polygon fill="#999999" stroke="#666666" points="171,-19 0,-19 0,0 171,0 171,-19"/>
<text text-anchor="middle" x="85.5" y="-7" font-family="Helvetica,sans-Serif" font-size="10.00">xiiWindVolumeConeComponent</text>
</a>
</g>
</g>
<!-- Node2 -->
<g id="Node000002" class="node">
<title>Node2</title>
<g id="a_Node000002"><a xlink:href="../../dc/dc1/classxii_wind_volume_component.htm" target="_top" xlink:title=" ">
<polygon fill="white" stroke="#bfbfbf" points="158.5,-74 12.5,-74 12.5,-55 158.5,-55 158.5,-74"/>
<text text-anchor="middle" x="85.5" y="-62" font-family="Helvetica,sans-Serif" font-size="10.00">xiiWindVolumeComponent</text>
</a>
</g>
</g>
<!-- Node2&#45;&gt;Node1 -->
<g id="edge1_Node000001_Node000002" class="edge">
<title>Node2&#45;&gt;Node1</title>
<g id="a_edge1_Node000001_Node000002"><a xlink:title=" ">
<path fill="none" stroke="#63b8ff" d="M85.5,-44.66C85.5,-35.93 85.5,-25.99 85.5,-19.09"/>
<polygon fill="#63b8ff" stroke="#63b8ff" points="82,-44.75 85.5,-54.75 89,-44.75 82,-44.75"/>
</a>
</g>
</g>
<!-- Node3 -->
<g id="Node000003" class="node">
<title>Node3</title>
<g id="a_Node000003"><a xlink:href="../../db/d60/classxii_component.htm" target="_top" xlink:title="Base class of all component types.">
<polygon fill="white" stroke="#666666" points="128,-129 43,-129 43,-110 128,-110 128,-129"/>
<text text-anchor="middle" x="85.5" y="-117" font-family="Helvetica,sans-Serif" font-size="10.00">xiiComponent</text>
</a>
</g>
</g>
<!-- Node3&#45;&gt;Node2 -->
<g id="edge2_Node000002_Node000003" class="edge">
<title>Node3&#45;&gt;Node2</title>
<g id="a_edge2_Node000002_Node000003"><a xlink:title=" ">
<path fill="none" stroke="#63b8ff" d="M85.5,-99.66C85.5,-90.93 85.5,-80.99 85.5,-74.09"/>
<polygon fill="#63b8ff" stroke="#63b8ff" points="82,-99.75 85.5,-109.75 89,-99.75 82,-99.75"/>
</a>
</g>
</g>
<!-- Node4 -->
<g id="Node000004" class="node">
<title>Node4</title>
<g id="a_Node000004"><a xlink:href="../../dc/d71/classxii_reflected_class.htm" target="_top" xlink:title="All classes that should be dynamically reflectable, need to be derived from this base class.">
<polygon fill="white" stroke="#666666" points="136,-184 35,-184 35,-165 136,-165 136,-184"/>
<text text-anchor="middle" x="85.5" y="-172" font-family="Helvetica,sans-Serif" font-size="10.00">xiiReflectedClass</text>
</a>
</g>
</g>
<!-- Node4&#45;&gt;Node3 -->
<g id="edge3_Node000003_Node000004" class="edge">
<title>Node4&#45;&gt;Node3</title>
<g id="a_edge3_Node000003_Node000004"><a xlink:title=" ">
<path fill="none" stroke="#63b8ff" d="M85.5,-154.66C85.5,-145.93 85.5,-135.99 85.5,-129.09"/>
<polygon fill="#63b8ff" stroke="#63b8ff" points="82,-154.75 85.5,-164.75 89,-154.75 82,-154.75"/>
</a>
</g>
</g>
<!-- Node5 -->
<g id="Node000005" class="node">
<title>Node5</title>
<g id="a_Node000005"><a xlink:href="../../d2/d38/classxii_no_base.htm" target="_top" xlink:title="Dummy type to pass to templates and macros that expect a base type for a class that has no base.">
<polygon fill="white" stroke="#666666" points="118.5,-239 52.5,-239 52.5,-220 118.5,-220 118.5,-239"/>
<text text-anchor="middle" x="85.5" y="-227" font-family="Helvetica,sans-Serif" font-size="10.00">xiiNoBase</text>
</a>
</g>
</g>
<!-- Node5&#45;&gt;Node4 -->
<g id="edge4_Node000004_Node000005" class="edge">
<title>Node5&#45;&gt;Node4</title>
<g id="a_edge4_Node000004_Node000005"><a xlink:title=" ">
<path fill="none" stroke="#63b8ff" d="M85.5,-209.66C85.5,-200.93 85.5,-190.99 85.5,-184.09"/>
<polygon fill="#63b8ff" stroke="#63b8ff" points="82,-209.75 85.5,-219.75 89,-209.75 82,-209.75"/>
</a>
</g>
</g>
</g>
</svg>
