<?xml version="1.0" encoding="UTF-8" standalone="no"?>
<!DOCTYPE svg PUBLIC "-//W3C//DTD SVG 1.1//EN"
 "http://www.w3.org/Graphics/SVG/1.1/DTD/svg11.dtd">
<!-- Generated by graphviz version 2.43.0 (0)
 -->
<!-- Title: xiiQtActionProxy Pages: 1 -->
<svg width="222pt" height="196pt"
 viewBox="0.00 0.00 221.50 196.00" xmlns="http://www.w3.org/2000/svg" xmlns:xlink="http://www.w3.org/1999/xlink">
<g id="graph0" class="graph" transform="scale(1 1) rotate(0) translate(4 192)">
<title>xiiQtActionProxy</title>
<polygon fill="white" stroke="transparent" points="-4,4 -4,-192 217.5,-192 217.5,4 -4,4"/>
<!-- Node1 -->
<g id="node1" class="node">
<title>Node1</title>
<g id="a_node1"><a xlink:title=" ">
<polygon fill="#bfbfbf" stroke="black" points="59,-56.5 59,-75.5 157,-75.5 157,-56.5 59,-56.5"/>
<text text-anchor="middle" x="108" y="-63.5" font-family="Helvetica,sans-Serif" font-size="10.00">xiiQtActionProxy</text>
</a>
</g>
</g>
<!-- Node4 -->
<g id="node4" class="node">
<title>Node4</title>
<g id="a_node4"><a xlink:href="../../d8/d99/classxii_qt_button_proxy.htm" target="_top" xlink:title=" ">
<polygon fill="white" stroke="black" points="0,-0.5 0,-19.5 100,-19.5 100,-0.5 0,-0.5"/>
<text text-anchor="middle" x="50" y="-7.5" font-family="Helvetica,sans-Serif" font-size="10.00">xiiQtButtonProxy</text>
</a>
</g>
</g>
<!-- Node1&#45;&gt;Node4 -->
<g id="edge3" class="edge">
<title>Node1&#45;&gt;Node4</title>
<path fill="none" stroke="midnightblue" d="M91.09,-49.25C80.8,-39.67 68.03,-27.79 59.49,-19.83"/>
<polygon fill="midnightblue" stroke="midnightblue" points="88.98,-52.07 98.68,-56.32 93.75,-46.95 88.98,-52.07"/>
</g>
<!-- Node5 -->
<g id="node5" class="node">
<title>Node5</title>
<g id="a_node5"><a xlink:href="../../da/dfe/classxii_qt_slider_proxy.htm" target="_top" xlink:title=" ">
<polygon fill="white" stroke="black" points="118.5,-0.5 118.5,-19.5 213.5,-19.5 213.5,-0.5 118.5,-0.5"/>
<text text-anchor="middle" x="166" y="-7.5" font-family="Helvetica,sans-Serif" font-size="10.00">xiiQtSliderProxy</text>
</a>
</g>
</g>
<!-- Node1&#45;&gt;Node5 -->
<g id="edge4" class="edge">
<title>Node1&#45;&gt;Node5</title>
<path fill="none" stroke="midnightblue" d="M124.91,-49.25C135.2,-39.67 147.97,-27.79 156.51,-19.83"/>
<polygon fill="midnightblue" stroke="midnightblue" points="122.25,-46.95 117.32,-56.32 127.02,-52.07 122.25,-46.95"/>
</g>
<!-- Node2 -->
<g id="node2" class="node">
<title>Node2</title>
<g id="a_node2"><a xlink:href="../../d7/da8/classxii_qt_proxy.htm" target="_top" xlink:title="Glue class that maps xiiActions to QActions. QActions are only created if the xiiAction is actually m...">
<polygon fill="white" stroke="black" points="74,-112.5 74,-131.5 142,-131.5 142,-112.5 74,-112.5"/>
<text text-anchor="middle" x="108" y="-119.5" font-family="Helvetica,sans-Serif" font-size="10.00">xiiQtProxy</text>
</a>
</g>
</g>
<!-- Node2&#45;&gt;Node1 -->
<g id="edge1" class="edge">
<title>Node2&#45;&gt;Node1</title>
<path fill="none" stroke="midnightblue" d="M108,-101.8C108,-92.91 108,-82.78 108,-75.75"/>
<polygon fill="midnightblue" stroke="midnightblue" points="104.5,-102.08 108,-112.08 111.5,-102.08 104.5,-102.08"/>
</g>
<!-- Node3 -->
<g id="node3" class="node">
<title>Node3</title>
<g id="a_node3"><a xlink:title=" ">
<polygon fill="white" stroke="#bfbfbf" points="80,-168.5 80,-187.5 136,-187.5 136,-168.5 80,-168.5"/>
<text text-anchor="middle" x="108" y="-175.5" font-family="Helvetica,sans-Serif" font-size="10.00">QObject</text>
</a>
</g>
</g>
<!-- Node3&#45;&gt;Node2 -->
<g id="edge2" class="edge">
<title>Node3&#45;&gt;Node2</title>
<path fill="none" stroke="midnightblue" d="M108,-157.8C108,-148.91 108,-138.78 108,-131.75"/>
<polygon fill="midnightblue" stroke="midnightblue" points="104.5,-158.08 108,-168.08 111.5,-158.08 104.5,-158.08"/>
</g>
</g>
</svg>
