<?xml version="1.0" encoding="UTF-8" standalone="no"?>
<!DOCTYPE svg PUBLIC "-//W3C//DTD SVG 1.1//EN"
 "http://www.w3.org/Graphics/SVG/1.1/DTD/svg11.dtd">
<!-- Generated by graphviz version 2.43.0 (0)
 -->
<!-- Title: xiiComponentManagerSimple&lt; ComponentType, UpdateType, StorageType &gt; Pages: 1 -->
<svg width="197pt" height="352pt"
 viewBox="0.00 0.00 197.00 352.00" xmlns="http://www.w3.org/2000/svg" xmlns:xlink="http://www.w3.org/1999/xlink">
<g id="graph0" class="graph" transform="scale(1 1) rotate(0) translate(4 348)">
<title>xiiComponentManagerSimple&lt; ComponentType, UpdateType, StorageType &gt;</title>
<polygon fill="white" stroke="transparent" points="-4,4 -4,-348 193,-348 193,4 -4,4"/>
<!-- Node1 -->
<g id="node1" class="node">
<title>Node1</title>
<g id="a_node1"><a xlink:title="Simple component manager implementation that calls an update method on all components every frame.">
<polygon fill="#bfbfbf" stroke="black" points="8,-0.5 8,-41.5 181,-41.5 181,-0.5 8,-0.5"/>
<text text-anchor="start" x="16" y="-29.5" font-family="Helvetica,sans-Serif" font-size="10.00">xiiComponentManagerSimple</text>
<text text-anchor="start" x="16" y="-18.5" font-family="Helvetica,sans-Serif" font-size="10.00">&lt; ComponentType, UpdateType,</text>
<text text-anchor="middle" x="94.5" y="-7.5" font-family="Helvetica,sans-Serif" font-size="10.00"> StorageType &gt;</text>
</a>
</g>
</g>
<!-- Node2 -->
<g id="node2" class="node">
<title>Node2</title>
<g id="a_node2"><a xlink:href="../../d4/d5d/classxii_component_manager.htm" target="_top" xlink:title=" ">
<polygon fill="white" stroke="black" points="0,-78.5 0,-119.5 189,-119.5 189,-78.5 0,-78.5"/>
<text text-anchor="start" x="8" y="-107.5" font-family="Helvetica,sans-Serif" font-size="10.00">xiiComponentManager</text>
<text text-anchor="start" x="8" y="-96.5" font-family="Helvetica,sans-Serif" font-size="10.00">&lt; ComponentType, xiiBlockStorage</text>
<text text-anchor="middle" x="94.5" y="-85.5" font-family="Helvetica,sans-Serif" font-size="10.00">Type::FreeList &gt;</text>
</a>
</g>
</g>
<!-- Node2&#45;&gt;Node1 -->
<g id="edge1" class="edge">
<title>Node2&#45;&gt;Node1</title>
<path fill="none" stroke="midnightblue" d="M94.5,-68.3C94.5,-59.3 94.5,-49.65 94.5,-41.51"/>
<polygon fill="midnightblue" stroke="midnightblue" points="91,-68.43 94.5,-78.43 98,-68.43 91,-68.43"/>
</g>
<!-- Node3 -->
<g id="node3" class="node">
<title>Node3</title>
<g id="a_node3"><a xlink:href="../../d4/d61/classxii_component_manager_base.htm" target="_top" xlink:title="Base class for all component managers. Do not derive directly from this class, but derive from xiiCom...">
<polygon fill="white" stroke="black" points="18.5,-156.5 18.5,-175.5 170.5,-175.5 170.5,-156.5 18.5,-156.5"/>
<text text-anchor="middle" x="94.5" y="-163.5" font-family="Helvetica,sans-Serif" font-size="10.00">xiiComponentManagerBase</text>
</a>
</g>
</g>
<!-- Node3&#45;&gt;Node2 -->
<g id="edge2" class="edge">
<title>Node3&#45;&gt;Node2</title>
<path fill="none" stroke="midnightblue" d="M94.5,-146.04C94.5,-137.71 94.5,-127.94 94.5,-119.54"/>
<polygon fill="midnightblue" stroke="midnightblue" points="91,-146.23 94.5,-156.23 98,-146.23 91,-146.23"/>
</g>
<!-- Node4 -->
<g id="node4" class="node">
<title>Node4</title>
<g id="a_node4"><a xlink:href="../../d9/dfe/classxii_world_module.htm" target="_top" xlink:title=" ">
<polygon fill="white" stroke="black" points="48.5,-212.5 48.5,-231.5 140.5,-231.5 140.5,-212.5 48.5,-212.5"/>
<text text-anchor="middle" x="94.5" y="-219.5" font-family="Helvetica,sans-Serif" font-size="10.00">xiiWorldModule</text>
</a>
</g>
</g>
<!-- Node4&#45;&gt;Node3 -->
<g id="edge3" class="edge">
<title>Node4&#45;&gt;Node3</title>
<path fill="none" stroke="midnightblue" d="M94.5,-201.8C94.5,-192.91 94.5,-182.78 94.5,-175.75"/>
<polygon fill="midnightblue" stroke="midnightblue" points="91,-202.08 94.5,-212.08 98,-202.08 91,-202.08"/>
</g>
<!-- Node5 -->
<g id="node5" class="node">
<title>Node5</title>
<g id="a_node5"><a xlink:href="../../dc/d71/classxii_reflected_class.htm" target="_top" xlink:title="All classes that should be dynamically reflectable, need to be derived from this base class.">
<polygon fill="white" stroke="black" points="44,-268.5 44,-287.5 145,-287.5 145,-268.5 44,-268.5"/>
<text text-anchor="middle" x="94.5" y="-275.5" font-family="Helvetica,sans-Serif" font-size="10.00">xiiReflectedClass</text>
</a>
</g>
</g>
<!-- Node5&#45;&gt;Node4 -->
<g id="edge4" class="edge">
<title>Node5&#45;&gt;Node4</title>
<path fill="none" stroke="midnightblue" d="M94.5,-257.8C94.5,-248.91 94.5,-238.78 94.5,-231.75"/>
<polygon fill="midnightblue" stroke="midnightblue" points="91,-258.08 94.5,-268.08 98,-258.08 91,-258.08"/>
</g>
<!-- Node6 -->
<g id="node6" class="node">
<title>Node6</title>
<g id="a_node6"><a xlink:href="../../d2/d38/classxii_no_base.htm" target="_top" xlink:title="Dummy type to pass to templates and macros that expect a base type for a class that has no base.">
<polygon fill="white" stroke="black" points="61.5,-324.5 61.5,-343.5 127.5,-343.5 127.5,-324.5 61.5,-324.5"/>
<text text-anchor="middle" x="94.5" y="-331.5" font-family="Helvetica,sans-Serif" font-size="10.00">xiiNoBase</text>
</a>
</g>
</g>
<!-- Node6&#45;&gt;Node5 -->
<g id="edge5" class="edge">
<title>Node6&#45;&gt;Node5</title>
<path fill="none" stroke="midnightblue" d="M94.5,-313.8C94.5,-304.91 94.5,-294.78 94.5,-287.75"/>
<polygon fill="midnightblue" stroke="midnightblue" points="91,-314.08 94.5,-324.08 98,-314.08 91,-314.08"/>
</g>
</g>
</svg>
