<?xml version="1.0" encoding="UTF-8" standalone="no"?>
<!DOCTYPE svg PUBLIC "-//W3C//DTD SVG 1.1//EN"
 "http://www.w3.org/Graphics/SVG/1.1/DTD/svg11.dtd">
<!-- Generated by graphviz version 2.43.0 (0)
 -->
<!-- Title: xiiMessage Pages: 1 -->
<!--zoomable 1396 -->
<svg id="main" version="1.1" xmlns="http://www.w3.org/2000/svg" xmlns:xlink="http://www.w3.org/1999/xlink" xml:space="preserve" onload="init(evt)">
<style type="text/css"><![CDATA[
.edge:hover path { stroke: red; }
.edge:hover polygon { stroke: red; fill: red; }
]]></style>
<script type="text/javascript"><![CDATA[
var edges = document.getElementsByTagName('g');
if (edges && edges.length) {
  for (var i=0;i<edges.length;i++) {
    if (edges[i].id.substr(0,4)=='edge') {
      edges[i].setAttribute('class','edge');
    }
  }
}
]]></script>
        <defs>
                <circle id="rim" cx="0" cy="0" r="7"/>
                <circle id="rim2" cx="0" cy="0" r="3.5"/>
                <g id="zoomPlus">
                        <use xlink:href="#rim" fill="#404040">
                                <set attributeName="fill" to="#808080" begin="zoomplus.mouseover" end="zoomplus.mouseout"/>
                        </use>
                        <path d="M-4,0h8M0,-4v8" fill="none" stroke="white" stroke-width="1.5" pointer-events="none"/>
                </g>
                <g id="zoomMin">
                        <use xlink:href="#rim" fill="#404040">
                                <set attributeName="fill" to="#808080" begin="zoomminus.mouseover" end="zoomminus.mouseout"/>
                        </use>
                        <path d="M-4,0h8" fill="none" stroke="white" stroke-width="1.5" pointer-events="none"/>
                </g>
                <g id="dirArrow">
                        <path fill="none" stroke="white" stroke-width="1.5" d="M0,-3.0v7 M-2.5,-0.5L0,-3.0L2.5,-0.5"/>
                </g>
               <g id="resetDef">
                       <use xlink:href="#rim2" fill="#404040">
                               <set attributeName="fill" to="#808080" begin="reset.mouseover" end="reset.mouseout"/>
                       </use>
               </g>
        </defs>

<script type="text/javascript">
var viewWidth = 751;
var viewHeight = 1396;
var sectionId = 'dynsection-0';
</script>
<script xlink:href="../../svgpan.js"/>
<svg id="graph" class="graph">
<g id="viewport">
<title>xiiMessage</title>
<polygon fill="white" stroke="transparent" points="-4,4 -4,-1392 747,-1392 747,4 -4,4"/>
<!-- Node1 -->
<g id="node1" class="node">
<title>Node1</title>
<g id="a_node1"><a xlink:title="Base class for all message types. Each message type has it&#39;s own id which is used to dispatch message...">
<polygon fill="#bfbfbf" stroke="black" points="239,-589.5 239,-608.5 311,-608.5 311,-589.5 239,-589.5"/>
<text text-anchor="middle" x="275" y="-596.5" font-family="Helvetica,sans-Serif" font-size="10.00">xiiMessage</text>
</a>
</g>
</g>
<!-- Node4 -->
<g id="node4" class="node">
<title>Node4</title>
<g id="a_node4"><a xlink:href="../../d6/de3/structxii_event_message.htm" target="_top" xlink:title="Base class for all messages that are sent as &#39;events&#39;.">
<polygon fill="white" stroke="black" points="385,-1178.5 385,-1197.5 485,-1197.5 485,-1178.5 385,-1178.5"/>
<text text-anchor="middle" x="435" y="-1185.5" font-family="Helvetica,sans-Serif" font-size="10.00">xiiEventMessage</text>
</a>
</g>
</g>
<!-- Node1&#45;&gt;Node4 -->
<g id="edge3" class="edge">
<title>Node1&#45;&gt;Node4</title>
<path fill="none" stroke="midnightblue" d="M277.11,-618.55C282.69,-713.91 308.96,-1127.33 347,-1169 356.69,-1179.62 370.83,-1185.03 384.89,-1187.62"/>
<polygon fill="midnightblue" stroke="midnightblue" points="280.6,-618.33 276.53,-608.55 273.61,-618.73 280.6,-618.33"/>
</g>
<!-- Node16 -->
<g id="node16" class="node">
<title>Node16</title>
<g id="a_node16"><a xlink:href="../../d3/d32/structxii_msg_animation_pose_preparing.htm" target="_top" xlink:title="Used by components that skin a mesh to inform children whenever a new pose is being prepared.">
<polygon fill="white" stroke="black" points="350.5,-1140.5 350.5,-1159.5 519.5,-1159.5 519.5,-1140.5 350.5,-1140.5"/>
<text text-anchor="middle" x="435" y="-1147.5" font-family="Helvetica,sans-Serif" font-size="10.00">xiiMsgAnimationPosePreparing</text>
</a>
</g>
</g>
<!-- Node1&#45;&gt;Node16 -->
<g id="edge15" class="edge">
<title>Node1&#45;&gt;Node16</title>
<path fill="none" stroke="midnightblue" d="M275.73,-618.88C274.97,-706.16 276.47,-1054.41 347,-1131 350.46,-1134.75 354.47,-1137.85 358.83,-1140.41"/>
<polygon fill="midnightblue" stroke="midnightblue" points="279.23,-618.79 275.84,-608.75 272.23,-618.71 279.23,-618.79"/>
</g>
<!-- Node17 -->
<g id="node17" class="node">
<title>Node17</title>
<g id="a_node17"><a xlink:href="../../d2/d2b/structxii_msg_animation_pose_proposal.htm" target="_top" xlink:title=" ">
<polygon fill="white" stroke="black" points="353,-1102.5 353,-1121.5 517,-1121.5 517,-1102.5 353,-1102.5"/>
<text text-anchor="middle" x="435" y="-1109.5" font-family="Helvetica,sans-Serif" font-size="10.00">xiiMsgAnimationPoseProposal</text>
</a>
</g>
</g>
<!-- Node1&#45;&gt;Node17 -->
<g id="edge16" class="edge">
<title>Node1&#45;&gt;Node17</title>
<path fill="none" stroke="midnightblue" d="M275.96,-619.04C276.2,-702.64 281.48,-1022.56 347,-1093 350.47,-1096.74 354.5,-1099.82 358.87,-1102.37"/>
<polygon fill="midnightblue" stroke="midnightblue" points="279.46,-618.86 275.95,-608.86 272.46,-618.86 279.46,-618.86"/>
</g>
<!-- Node18 -->
<g id="node18" class="node">
<title>Node18</title>
<g id="a_node18"><a xlink:href="../../d9/d18/structxii_msg_animation_pose_updated.htm" target="_top" xlink:title="Used by components that skin a mesh to inform children whenever a new pose has been computed.">
<polygon fill="white" stroke="black" points="353,-1064.5 353,-1083.5 517,-1083.5 517,-1064.5 353,-1064.5"/>
<text text-anchor="middle" x="435" y="-1071.5" font-family="Helvetica,sans-Serif" font-size="10.00">xiiMsgAnimationPoseUpdated</text>
</a>
</g>
</g>
<!-- Node1&#45;&gt;Node18 -->
<g id="edge17" class="edge">
<title>Node1&#45;&gt;Node18</title>
<path fill="none" stroke="midnightblue" d="M276.22,-619C277.52,-698.47 286.42,-990.63 347,-1055 350.5,-1058.72 354.54,-1061.79 358.92,-1064.32"/>
<polygon fill="midnightblue" stroke="midnightblue" points="279.72,-618.82 276.08,-608.87 272.72,-618.92 279.72,-618.82"/>
</g>
<!-- Node19 -->
<g id="node19" class="node">
<title>Node19</title>
<g id="a_node19"><a xlink:href="../../d3/dac/structxii_msg_apply_root_motion.htm" target="_top" xlink:title="This message is sent when animation root motion data is available.">
<polygon fill="white" stroke="black" points="368.5,-1026.5 368.5,-1045.5 501.5,-1045.5 501.5,-1026.5 368.5,-1026.5"/>
<text text-anchor="middle" x="435" y="-1033.5" font-family="Helvetica,sans-Serif" font-size="10.00">xiiMsgApplyRootMotion</text>
</a>
</g>
</g>
<!-- Node1&#45;&gt;Node19 -->
<g id="edge18" class="edge">
<title>Node1&#45;&gt;Node19</title>
<path fill="none" stroke="midnightblue" d="M276.54,-619.23C278.98,-694.74 291.41,-958.74 347,-1017 352.87,-1023.15 360.23,-1027.54 368.18,-1030.63"/>
<polygon fill="midnightblue" stroke="midnightblue" points="280.03,-618.68 276.23,-608.79 273.03,-618.89 280.03,-618.68"/>
</g>
<!-- Node20 -->
<g id="node20" class="node">
<title>Node20</title>
<g id="a_node20"><a xlink:href="../../db/dd4/structxii_msg_build_static_mesh.htm" target="_top" xlink:title=" ">
<polygon fill="white" stroke="black" points="371,-988.5 371,-1007.5 499,-1007.5 499,-988.5 371,-988.5"/>
<text text-anchor="middle" x="435" y="-995.5" font-family="Helvetica,sans-Serif" font-size="10.00">xiiMsgBuildStaticMesh</text>
</a>
</g>
</g>
<!-- Node1&#45;&gt;Node20 -->
<g id="edge19" class="edge">
<title>Node1&#45;&gt;Node20</title>
<path fill="none" stroke="midnightblue" d="M276.89,-618.74C280.48,-689.17 296.2,-926.64 347,-979 353.57,-985.77 361.94,-990.39 370.9,-993.5"/>
<polygon fill="midnightblue" stroke="midnightblue" points="280.38,-618.42 276.4,-608.6 273.39,-618.75 280.38,-618.42"/>
</g>
<!-- Node21 -->
<g id="node21" class="node">
<title>Node21</title>
<g id="a_node21"><a xlink:href="../../d3/d60/structxii_msg_children_changed.htm" target="_top" xlink:title=" ">
<polygon fill="white" stroke="black" points="369,-950.5 369,-969.5 501,-969.5 501,-950.5 369,-950.5"/>
<text text-anchor="middle" x="435" y="-957.5" font-family="Helvetica,sans-Serif" font-size="10.00">xiiMsgChildrenChanged</text>
</a>
</g>
</g>
<!-- Node1&#45;&gt;Node21 -->
<g id="edge20" class="edge">
<title>Node1&#45;&gt;Node21</title>
<path fill="none" stroke="midnightblue" d="M277.35,-618.86C282.22,-684.77 301.12,-894.65 347,-941 353.09,-947.15 360.68,-951.52 368.82,-954.6"/>
<polygon fill="midnightblue" stroke="midnightblue" points="280.82,-618.34 276.62,-608.62 273.84,-618.84 280.82,-618.34"/>
</g>
<!-- Node22 -->
<g id="node22" class="node">
<title>Node22</title>
<g id="a_node22"><a xlink:href="../../d0/dc9/structxii_msg_collision.htm" target="_top" xlink:title=" ">
<polygon fill="white" stroke="black" points="389.5,-912.5 389.5,-931.5 480.5,-931.5 480.5,-912.5 389.5,-912.5"/>
<text text-anchor="middle" x="435" y="-919.5" font-family="Helvetica,sans-Serif" font-size="10.00">xiiMsgCollision</text>
</a>
</g>
</g>
<!-- Node1&#45;&gt;Node22 -->
<g id="edge21" class="edge">
<title>Node1&#45;&gt;Node22</title>
<path fill="none" stroke="midnightblue" d="M277.92,-619.01C284.18,-680.11 306.02,-862.61 347,-903 358.12,-913.96 374.01,-919.23 389.17,-921.59"/>
<polygon fill="midnightblue" stroke="midnightblue" points="281.37,-618.38 276.9,-608.77 274.41,-619.07 281.37,-618.38"/>
</g>
<!-- Node23 -->
<g id="node23" class="node">
<title>Node23</title>
<g id="a_node23"><a xlink:href="../../d6/d29/structxii_msg_component_internal_trigger.htm" target="_top" xlink:title="For internal use by components to trigger some known behavior. Usually components will post this mess...">
<polygon fill="white" stroke="black" points="347,-874.5 347,-893.5 523,-893.5 523,-874.5 347,-874.5"/>
<text text-anchor="middle" x="435" y="-881.5" font-family="Helvetica,sans-Serif" font-size="10.00">xiiMsgComponentInternalTrigger</text>
</a>
</g>
</g>
<!-- Node1&#45;&gt;Node23 -->
<g id="edge22" class="edge">
<title>Node1&#45;&gt;Node23</title>
<path fill="none" stroke="midnightblue" d="M278.59,-618.67C286.28,-674.2 310.78,-830.41 347,-865 350.91,-868.74 355.38,-871.81 360.18,-874.32"/>
<polygon fill="midnightblue" stroke="midnightblue" points="282.05,-618.14 277.24,-608.7 275.11,-619.08 282.05,-618.14"/>
</g>
<!-- Node24 -->
<g id="node24" class="node">
<title>Node24</title>
<g id="a_node24"><a xlink:href="../../de/db3/structxii_msg_components_changed.htm" target="_top" xlink:title=" ">
<polygon fill="white" stroke="black" points="358.5,-836.5 358.5,-855.5 511.5,-855.5 511.5,-836.5 358.5,-836.5"/>
<text text-anchor="middle" x="435" y="-843.5" font-family="Helvetica,sans-Serif" font-size="10.00">xiiMsgComponentsChanged</text>
</a>
</g>
</g>
<!-- Node1&#45;&gt;Node24 -->
<g id="edge23" class="edge">
<title>Node1&#45;&gt;Node24</title>
<path fill="none" stroke="midnightblue" d="M275.92,-618.55C276.88,-662.74 285.71,-770.82 347,-827 351.1,-830.76 355.77,-833.84 360.77,-836.35"/>
<polygon fill="midnightblue" stroke="midnightblue" points="279.42,-618.51 275.82,-608.54 272.42,-618.58 279.42,-618.51"/>
</g>
<!-- Node25 -->
<g id="node25" class="node">
<title>Node25</title>
<g id="a_node25"><a xlink:href="../../df/df3/structxii_msg_delete_game_object.htm" target="_top" xlink:title=" ">
<polygon fill="white" stroke="black" points="364,-798.5 364,-817.5 506,-817.5 506,-798.5 364,-798.5"/>
<text text-anchor="middle" x="435" y="-805.5" font-family="Helvetica,sans-Serif" font-size="10.00">xiiMsgDeleteGameObject</text>
</a>
</g>
</g>
<!-- Node1&#45;&gt;Node25 -->
<g id="edge24" class="edge">
<title>Node1&#45;&gt;Node25</title>
<path fill="none" stroke="midnightblue" d="M277.35,-618.7C281.11,-657.53 295.17,-744.08 347,-789 352.02,-793.35 357.81,-796.78 363.97,-799.47"/>
<polygon fill="midnightblue" stroke="midnightblue" points="280.83,-618.35 276.51,-608.68 273.85,-618.94 280.83,-618.35"/>
</g>
<!-- Node26 -->
<g id="node26" class="node">
<title>Node26</title>
<g id="a_node26"><a xlink:href="../../da/d35/structxii_msg_extract_geometry.htm" target="_top" xlink:title="Sent by xiiWorldGeoExtractionUtil to gather geometry information about objects in a world.">
<polygon fill="white" stroke="black" points="369,-760.5 369,-779.5 501,-779.5 501,-760.5 369,-760.5"/>
<text text-anchor="middle" x="435" y="-767.5" font-family="Helvetica,sans-Serif" font-size="10.00">xiiMsgExtractGeometry</text>
</a>
</g>
</g>
<!-- Node1&#45;&gt;Node26 -->
<g id="edge25" class="edge">
<title>Node1&#45;&gt;Node26</title>
<path fill="none" stroke="midnightblue" d="M279.43,-618.78C286.19,-651.59 304.47,-717 347,-751 353.4,-756.12 360.88,-759.93 368.72,-762.76"/>
<polygon fill="midnightblue" stroke="midnightblue" points="282.8,-617.81 277.49,-608.65 275.93,-619.12 282.8,-617.81"/>
</g>
<!-- Node27 -->
<g id="node27" class="node">
<title>Node27</title>
<g id="a_node27"><a xlink:href="../../df/d5d/structxii_msg_extract_occluder_data.htm" target="_top" xlink:title=" ">
<polygon fill="white" stroke="black" points="360.5,-722.5 360.5,-741.5 509.5,-741.5 509.5,-722.5 360.5,-722.5"/>
<text text-anchor="middle" x="435" y="-729.5" font-family="Helvetica,sans-Serif" font-size="10.00">xiiMsgExtractOccluderData</text>
</a>
</g>
</g>
<!-- Node1&#45;&gt;Node27 -->
<g id="edge26" class="edge">
<title>Node1&#45;&gt;Node27</title>
<path fill="none" stroke="midnightblue" d="M282.53,-618.22C292.33,-643.99 313.34,-689.26 347,-713 352.43,-716.83 358.49,-719.91 364.82,-722.39"/>
<polygon fill="midnightblue" stroke="midnightblue" points="285.81,-617 279.12,-608.78 279.23,-619.38 285.81,-617"/>
</g>
<!-- Node28 -->
<g id="node28" class="node">
<title>Node28</title>
<g id="a_node28"><a xlink:href="../../d3/d47/structxii_msg_extract_render_data.htm" target="_top" xlink:title=" ">
<polygon fill="white" stroke="black" points="364.5,-684.5 364.5,-703.5 505.5,-703.5 505.5,-684.5 364.5,-684.5"/>
<text text-anchor="middle" x="435" y="-691.5" font-family="Helvetica,sans-Serif" font-size="10.00">xiiMsgExtractRenderData</text>
</a>
</g>
</g>
<!-- Node1&#45;&gt;Node28 -->
<g id="edge27" class="edge">
<title>Node1&#45;&gt;Node28</title>
<path fill="none" stroke="midnightblue" d="M287.85,-616.99C300.41,-634.57 321.87,-660.71 347,-675 353.85,-678.9 361.43,-682 369.17,-684.46"/>
<polygon fill="midnightblue" stroke="midnightblue" points="290.68,-614.93 282.12,-608.69 284.92,-618.9 290.68,-614.93"/>
</g>
<!-- Node29 -->
<g id="node29" class="node">
<title>Node29</title>
<g id="a_node29"><a xlink:href="../../d4/d2e/structxii_msg_move_character_controller.htm" target="_top" xlink:title=" ">
<polygon fill="white" stroke="black" points="349.5,-646.5 349.5,-665.5 520.5,-665.5 520.5,-646.5 349.5,-646.5"/>
<text text-anchor="middle" x="435" y="-653.5" font-family="Helvetica,sans-Serif" font-size="10.00">xiiMsgMoveCharacterController</text>
</a>
</g>
</g>
<!-- Node1&#45;&gt;Node29 -->
<g id="edge28" class="edge">
<title>Node1&#45;&gt;Node29</title>
<path fill="none" stroke="midnightblue" d="M299.57,-613.74C313.03,-621.61 330.48,-630.91 347,-637 357.15,-640.74 368.26,-643.86 379.04,-646.41"/>
<polygon fill="midnightblue" stroke="midnightblue" points="301.32,-610.71 290.94,-608.58 297.72,-616.72 301.32,-610.71"/>
</g>
<!-- Node30 -->
<g id="node30" class="node">
<title>Node30</title>
<g id="a_node30"><a xlink:href="../../dc/ddd/structxii_msg_object_grabbed.htm" target="_top" xlink:title="Sent by components such as xiiJoltGrabObjectComponent to indicate that the object has been grabbed or...">
<polygon fill="white" stroke="black" points="374,-608.5 374,-627.5 496,-627.5 496,-608.5 374,-608.5"/>
<text text-anchor="middle" x="435" y="-615.5" font-family="Helvetica,sans-Serif" font-size="10.00">xiiMsgObjectGrabbed</text>
</a>
</g>
</g>
<!-- Node1&#45;&gt;Node30 -->
<g id="edge29" class="edge">
<title>Node1&#45;&gt;Node30</title>
<path fill="none" stroke="midnightblue" d="M321.43,-604.46C337.78,-606.43 356.48,-608.68 373.88,-610.77"/>
<polygon fill="midnightblue" stroke="midnightblue" points="321.41,-600.94 311.07,-603.22 320.58,-607.89 321.41,-600.94"/>
</g>
<!-- Node31 -->
<g id="node31" class="node">
<title>Node31</title>
<g id="a_node31"><a xlink:href="../../d1/de5/structxii_msg_only_apply_to_object.htm" target="_top" xlink:title=" ">
<polygon fill="white" stroke="black" points="364.5,-570.5 364.5,-589.5 505.5,-589.5 505.5,-570.5 364.5,-570.5"/>
<text text-anchor="middle" x="435" y="-577.5" font-family="Helvetica,sans-Serif" font-size="10.00">xiiMsgOnlyApplyToObject</text>
</a>
</g>
</g>
<!-- Node1&#45;&gt;Node31 -->
<g id="edge30" class="edge">
<title>Node1&#45;&gt;Node31</title>
<path fill="none" stroke="midnightblue" d="M321.04,-593.58C334.54,-591.96 349.67,-590.14 364.37,-588.37"/>
<polygon fill="midnightblue" stroke="midnightblue" points="320.58,-590.11 311.07,-594.78 321.41,-597.06 320.58,-590.11"/>
</g>
<!-- Node32 -->
<g id="node32" class="node">
<title>Node32</title>
<g id="a_node32"><a xlink:href="../../d0/d96/structxii_msg_parent_changed.htm" target="_top" xlink:title=" ">
<polygon fill="white" stroke="black" points="374,-532.5 374,-551.5 496,-551.5 496,-532.5 374,-532.5"/>
<text text-anchor="middle" x="435" y="-539.5" font-family="Helvetica,sans-Serif" font-size="10.00">xiiMsgParentChanged</text>
</a>
</g>
</g>
<!-- Node1&#45;&gt;Node32 -->
<g id="edge31" class="edge">
<title>Node1&#45;&gt;Node32</title>
<path fill="none" stroke="midnightblue" d="M299.57,-584.26C313.03,-576.39 330.48,-567.09 347,-561 357.15,-557.26 368.26,-554.14 379.04,-551.59"/>
<polygon fill="midnightblue" stroke="midnightblue" points="297.72,-581.28 290.94,-589.42 301.32,-587.29 297.72,-581.28"/>
</g>
<!-- Node33 -->
<g id="node33" class="node">
<title>Node33</title>
<g id="a_node33"><a xlink:href="../../d2/dd1/structxii_msg_physics_add_force.htm" target="_top" xlink:title="Used to apply a physical force on the object.">
<polygon fill="white" stroke="black" points="369.5,-494.5 369.5,-513.5 500.5,-513.5 500.5,-494.5 369.5,-494.5"/>
<text text-anchor="middle" x="435" y="-501.5" font-family="Helvetica,sans-Serif" font-size="10.00">xiiMsgPhysicsAddForce</text>
</a>
</g>
</g>
<!-- Node1&#45;&gt;Node33 -->
<g id="edge32" class="edge">
<title>Node1&#45;&gt;Node33</title>
<path fill="none" stroke="midnightblue" d="M287.85,-581.01C300.41,-563.43 321.87,-537.29 347,-523 353.85,-519.1 361.43,-516 369.17,-513.54"/>
<polygon fill="midnightblue" stroke="midnightblue" points="284.92,-579.1 282.12,-589.31 290.68,-583.07 284.92,-579.1"/>
</g>
<!-- Node34 -->
<g id="node34" class="node">
<title>Node34</title>
<g id="a_node34"><a xlink:href="../../d9/d2c/structxii_msg_physics_add_impulse.htm" target="_top" xlink:title="Used to apply a physical impulse on the object.">
<polygon fill="white" stroke="black" points="363.5,-456.5 363.5,-475.5 506.5,-475.5 506.5,-456.5 363.5,-456.5"/>
<text text-anchor="middle" x="435" y="-463.5" font-family="Helvetica,sans-Serif" font-size="10.00">xiiMsgPhysicsAddImpulse</text>
</a>
</g>
</g>
<!-- Node1&#45;&gt;Node34 -->
<g id="edge33" class="edge">
<title>Node1&#45;&gt;Node34</title>
<path fill="none" stroke="midnightblue" d="M282.53,-579.78C292.33,-554.01 313.34,-508.74 347,-485 352.43,-481.17 358.49,-478.09 364.82,-475.61"/>
<polygon fill="midnightblue" stroke="midnightblue" points="279.23,-578.62 279.12,-589.22 285.81,-581 279.23,-578.62"/>
</g>
<!-- Node35 -->
<g id="node35" class="node">
<title>Node35</title>
<g id="a_node35"><a xlink:href="../../d6/d36/structxii_msg_query_animation_skeleton.htm" target="_top" xlink:title="The animated mesh component listens to this message and &#39;answers&#39; by filling out the skeleton resourc...">
<polygon fill="white" stroke="black" points="350,-418.5 350,-437.5 520,-437.5 520,-418.5 350,-418.5"/>
<text text-anchor="middle" x="435" y="-425.5" font-family="Helvetica,sans-Serif" font-size="10.00">xiiMsgQueryAnimationSkeleton</text>
</a>
</g>
</g>
<!-- Node1&#45;&gt;Node35 -->
<g id="edge34" class="edge">
<title>Node1&#45;&gt;Node35</title>
<path fill="none" stroke="midnightblue" d="M279.43,-579.22C286.19,-546.41 304.47,-481 347,-447 351.83,-443.14 357.28,-440.02 363.02,-437.51"/>
<polygon fill="midnightblue" stroke="midnightblue" points="275.93,-578.88 277.49,-589.35 282.8,-580.19 275.93,-578.88"/>
</g>
<!-- Node36 -->
<g id="node36" class="node">
<title>Node36</title>
<g id="a_node36"><a xlink:href="../../d9/d68/structxii_msg_release_object_grab.htm" target="_top" xlink:title="Send this to components such as xiiJoltGrabObjectComponent to demand that m_hGrabbedObjectToRelease s...">
<polygon fill="white" stroke="black" points="363.5,-380.5 363.5,-399.5 506.5,-399.5 506.5,-380.5 363.5,-380.5"/>
<text text-anchor="middle" x="435" y="-387.5" font-family="Helvetica,sans-Serif" font-size="10.00">xiiMsgReleaseObjectGrab</text>
</a>
</g>
</g>
<!-- Node1&#45;&gt;Node36 -->
<g id="edge35" class="edge">
<title>Node1&#45;&gt;Node36</title>
<path fill="none" stroke="midnightblue" d="M277.35,-579.3C281.11,-540.47 295.17,-453.92 347,-409 351.79,-404.85 357.28,-401.54 363.12,-398.91"/>
<polygon fill="midnightblue" stroke="midnightblue" points="273.85,-579.06 276.51,-589.32 280.83,-579.65 273.85,-579.06"/>
</g>
<!-- Node37 -->
<g id="node37" class="node">
<title>Node37</title>
<g id="a_node37"><a xlink:href="../../d7/d35/structxii_msg_retrieve_bone_state.htm" target="_top" xlink:title="Queries the local transforms of each bone in an object with a skeleton.">
<polygon fill="white" stroke="black" points="365,-342.5 365,-361.5 505,-361.5 505,-342.5 365,-342.5"/>
<text text-anchor="middle" x="435" y="-349.5" font-family="Helvetica,sans-Serif" font-size="10.00">xiiMsgRetrieveBoneState</text>
</a>
</g>
</g>
<!-- Node1&#45;&gt;Node37 -->
<g id="edge36" class="edge">
<title>Node1&#45;&gt;Node37</title>
<path fill="none" stroke="midnightblue" d="M275.92,-579.45C276.88,-535.26 285.71,-427.18 347,-371 352.13,-366.3 358.14,-362.66 364.57,-359.86"/>
<polygon fill="midnightblue" stroke="midnightblue" points="272.42,-579.42 275.82,-589.46 279.42,-579.49 272.42,-579.42"/>
</g>
<!-- Node38 -->
<g id="node38" class="node">
<title>Node38</title>
<g id="a_node38"><a xlink:href="../../d4/d46/structxii_msg_rope_pose_updated.htm" target="_top" xlink:title="Used by components that do rope simulation and rendering.">
<polygon fill="white" stroke="black" points="366,-304.5 366,-323.5 504,-323.5 504,-304.5 366,-304.5"/>
<text text-anchor="middle" x="435" y="-311.5" font-family="Helvetica,sans-Serif" font-size="10.00">xiiMsgRopePoseUpdated</text>
</a>
</g>
</g>
<!-- Node1&#45;&gt;Node38 -->
<g id="edge37" class="edge">
<title>Node1&#45;&gt;Node38</title>
<path fill="none" stroke="midnightblue" d="M278.59,-579.33C286.28,-523.8 310.78,-367.59 347,-333 352.37,-327.87 358.78,-324 365.66,-321.1"/>
<polygon fill="midnightblue" stroke="midnightblue" points="275.11,-578.92 277.24,-589.3 282.05,-579.86 275.11,-578.92"/>
</g>
<!-- Node39 -->
<g id="node39" class="node">
<title>Node39</title>
<g id="a_node39"><a xlink:href="../../de/d10/structxii_msg_set_color.htm" target="_top" xlink:title=" ">
<polygon fill="white" stroke="black" points="390,-266.5 390,-285.5 480,-285.5 480,-266.5 390,-266.5"/>
<text text-anchor="middle" x="435" y="-273.5" font-family="Helvetica,sans-Serif" font-size="10.00">xiiMsgSetColor</text>
</a>
</g>
</g>
<!-- Node1&#45;&gt;Node39 -->
<g id="edge38" class="edge">
<title>Node1&#45;&gt;Node39</title>
<path fill="none" stroke="midnightblue" d="M277.92,-578.99C284.18,-517.89 306.02,-335.39 347,-295 358.23,-283.93 374.32,-278.67 389.62,-276.34"/>
<polygon fill="midnightblue" stroke="midnightblue" points="274.41,-578.93 276.9,-589.23 281.37,-579.62 274.41,-578.93"/>
</g>
<!-- Node40 -->
<g id="node40" class="node">
<title>Node40</title>
<g id="a_node40"><a xlink:href="../../d4/dfb/structxii_msg_set_double_parameter.htm" target="_top" xlink:title="Basic message to set some generic parameter to a double value.">
<polygon fill="white" stroke="black" points="360.5,-228.5 360.5,-247.5 509.5,-247.5 509.5,-228.5 360.5,-228.5"/>
<text text-anchor="middle" x="435" y="-235.5" font-family="Helvetica,sans-Serif" font-size="10.00">xiiMsgSetDoubleParameter</text>
</a>
</g>
</g>
<!-- Node1&#45;&gt;Node40 -->
<g id="edge39" class="edge">
<title>Node1&#45;&gt;Node40</title>
<path fill="none" stroke="midnightblue" d="M277.35,-579.14C282.22,-513.23 301.12,-303.35 347,-257 350.92,-253.04 355.45,-249.83 360.35,-247.21"/>
<polygon fill="midnightblue" stroke="midnightblue" points="273.84,-579.16 276.62,-589.38 280.82,-579.66 273.84,-579.16"/>
</g>
<!-- Node41 -->
<g id="node41" class="node">
<title>Node41</title>
<g id="a_node41"><a xlink:href="../../dd/d07/structxii_msg_set_float_parameter.htm" target="_top" xlink:title="Basic message to set some generic parameter to a float value.">
<polygon fill="white" stroke="black" points="365,-190.5 365,-209.5 505,-209.5 505,-190.5 365,-190.5"/>
<text text-anchor="middle" x="435" y="-197.5" font-family="Helvetica,sans-Serif" font-size="10.00">xiiMsgSetFloatParameter</text>
</a>
</g>
</g>
<!-- Node1&#45;&gt;Node41 -->
<g id="edge40" class="edge">
<title>Node1&#45;&gt;Node41</title>
<path fill="none" stroke="midnightblue" d="M276.89,-579.26C280.48,-508.83 296.2,-271.36 347,-219 352.06,-213.78 358.19,-209.84 364.84,-206.89"/>
<polygon fill="midnightblue" stroke="midnightblue" points="273.39,-579.25 276.4,-589.4 280.38,-579.58 273.39,-579.25"/>
</g>
<!-- Node42 -->
<g id="node42" class="node">
<title>Node42</title>
<g id="a_node42"><a xlink:href="../../da/d3c/structxii_msg_set_mesh_material.htm" target="_top" xlink:title=" ">
<polygon fill="white" stroke="black" points="369.5,-152.5 369.5,-171.5 500.5,-171.5 500.5,-152.5 369.5,-152.5"/>
<text text-anchor="middle" x="435" y="-159.5" font-family="Helvetica,sans-Serif" font-size="10.00">xiiMsgSetMeshMaterial</text>
</a>
</g>
</g>
<!-- Node1&#45;&gt;Node42 -->
<g id="edge41" class="edge">
<title>Node1&#45;&gt;Node42</title>
<path fill="none" stroke="midnightblue" d="M276.54,-578.77C278.98,-503.26 291.41,-239.26 347,-181 353.19,-174.51 361.04,-169.99 369.48,-166.87"/>
<polygon fill="midnightblue" stroke="midnightblue" points="273.03,-579.11 276.23,-589.21 280.03,-579.32 273.03,-579.11"/>
</g>
<!-- Node43 -->
<g id="node43" class="node">
<title>Node43</title>
<g id="a_node43"><a xlink:href="../../df/d58/structxii_msg_set_playing.htm" target="_top" xlink:title="Common message for components that can be toggled between playing and paused states.">
<polygon fill="white" stroke="black" points="384.5,-114.5 384.5,-133.5 485.5,-133.5 485.5,-114.5 384.5,-114.5"/>
<text text-anchor="middle" x="435" y="-121.5" font-family="Helvetica,sans-Serif" font-size="10.00">xiiMsgSetPlaying</text>
</a>
</g>
</g>
<!-- Node1&#45;&gt;Node43 -->
<g id="edge42" class="edge">
<title>Node1&#45;&gt;Node43</title>
<path fill="none" stroke="midnightblue" d="M276.22,-579C277.52,-499.53 286.42,-207.37 347,-143 356.64,-132.76 370.42,-127.39 384.18,-124.74"/>
<polygon fill="midnightblue" stroke="midnightblue" points="272.72,-579.08 276.08,-589.13 279.72,-579.18 272.72,-579.08"/>
</g>
<!-- Node44 -->
<g id="node44" class="node">
<title>Node44</title>
<g id="a_node44"><a xlink:href="../../d7/dfa/structxii_msg_set_real_parameter.htm" target="_top" xlink:title="Basic message to set some generic parameter to a xiiReal value.">
<polygon fill="white" stroke="black" points="366.5,-76.5 366.5,-95.5 503.5,-95.5 503.5,-76.5 366.5,-76.5"/>
<text text-anchor="middle" x="435" y="-83.5" font-family="Helvetica,sans-Serif" font-size="10.00">xiiMsgSetRealParameter</text>
</a>
</g>
</g>
<!-- Node1&#45;&gt;Node44 -->
<g id="edge43" class="edge">
<title>Node1&#45;&gt;Node44</title>
<path fill="none" stroke="midnightblue" d="M275.96,-578.96C276.2,-495.36 281.48,-175.44 347,-105 352.37,-99.23 359.05,-95 366.31,-91.93"/>
<polygon fill="midnightblue" stroke="midnightblue" points="272.46,-579.14 275.95,-589.14 279.46,-579.14 272.46,-579.14"/>
</g>
<!-- Node45 -->
<g id="node45" class="node">
<title>Node45</title>
<g id="a_node45"><a xlink:href="../../d1/ddd/structxii_msg_transform_changed.htm" target="_top" xlink:title=" ">
<polygon fill="white" stroke="black" points="365,-38.5 365,-57.5 505,-57.5 505,-38.5 365,-38.5"/>
<text text-anchor="middle" x="435" y="-45.5" font-family="Helvetica,sans-Serif" font-size="10.00">xiiMsgTransformChanged</text>
</a>
</g>
</g>
<!-- Node1&#45;&gt;Node45 -->
<g id="edge44" class="edge">
<title>Node1&#45;&gt;Node45</title>
<path fill="none" stroke="midnightblue" d="M275.73,-579.12C274.97,-491.84 276.47,-143.59 347,-67 352.03,-61.54 358.23,-57.46 364.98,-54.44"/>
<polygon fill="midnightblue" stroke="midnightblue" points="272.23,-579.29 275.84,-589.25 279.23,-579.21 272.23,-579.29"/>
</g>
<!-- Node46 -->
<g id="node46" class="node">
<title>Node46</title>
<g id="a_node46"><a xlink:href="../../dc/dc8/structxii_msg_update_local_bounds.htm" target="_top" xlink:title=" ">
<polygon fill="white" stroke="black" points="362,-0.5 362,-19.5 508,-19.5 508,-0.5 362,-0.5"/>
<text text-anchor="middle" x="435" y="-7.5" font-family="Helvetica,sans-Serif" font-size="10.00">xiiMsgUpdateLocalBounds</text>
</a>
</g>
</g>
<!-- Node1&#45;&gt;Node46 -->
<g id="edge45" class="edge">
<title>Node1&#45;&gt;Node46</title>
<path fill="none" stroke="midnightblue" d="M277.11,-579.45C282.69,-484.09 308.96,-70.67 347,-29 351.17,-24.43 356.16,-20.83 361.61,-18"/>
<polygon fill="midnightblue" stroke="midnightblue" points="273.61,-579.27 276.53,-589.45 280.6,-579.67 273.61,-579.27"/>
</g>
<!-- Node2 -->
<g id="node2" class="node">
<title>Node2</title>
<g id="a_node2"><a xlink:href="../../dc/d71/classxii_reflected_class.htm" target="_top" xlink:title="All classes that should be dynamically reflectable, need to be derived from this base class.">
<polygon fill="white" stroke="black" points="102,-589.5 102,-608.5 203,-608.5 203,-589.5 102,-589.5"/>
<text text-anchor="middle" x="152.5" y="-596.5" font-family="Helvetica,sans-Serif" font-size="10.00">xiiReflectedClass</text>
</a>
</g>
</g>
<!-- Node2&#45;&gt;Node1 -->
<g id="edge1" class="edge">
<title>Node2&#45;&gt;Node1</title>
<path fill="none" stroke="midnightblue" d="M213.36,-599C222.06,-599 230.76,-599 238.75,-599"/>
<polygon fill="midnightblue" stroke="midnightblue" points="213.21,-595.5 203.21,-599 213.21,-602.5 213.21,-595.5"/>
</g>
<!-- Node3 -->
<g id="node3" class="node">
<title>Node3</title>
<g id="a_node3"><a xlink:href="../../d2/d38/classxii_no_base.htm" target="_top" xlink:title="Dummy type to pass to templates and macros that expect a base type for a class that has no base.">
<polygon fill="white" stroke="black" points="0,-589.5 0,-608.5 66,-608.5 66,-589.5 0,-589.5"/>
<text text-anchor="middle" x="33" y="-596.5" font-family="Helvetica,sans-Serif" font-size="10.00">xiiNoBase</text>
</a>
</g>
</g>
<!-- Node3&#45;&gt;Node2 -->
<g id="edge2" class="edge">
<title>Node3&#45;&gt;Node2</title>
<path fill="none" stroke="midnightblue" d="M76.27,-599C84.54,-599 93.29,-599 101.78,-599"/>
<polygon fill="midnightblue" stroke="midnightblue" points="76.11,-595.5 66.11,-599 76.11,-602.5 76.11,-595.5"/>
</g>
<!-- Node5 -->
<g id="node5" class="node">
<title>Node5</title>
<g id="a_node5"><a xlink:href="../../da/d11/classxii_event_msg_set_power_input.htm" target="_top" xlink:title="This event is posted by xiiPowerConnectorComponent whenever the power input on a connector changes.">
<polygon fill="white" stroke="black" points="577.5,-1368.5 577.5,-1387.5 724.5,-1387.5 724.5,-1368.5 577.5,-1368.5"/>
<text text-anchor="middle" x="651" y="-1375.5" font-family="Helvetica,sans-Serif" font-size="10.00">xiiEventMsgSetPowerInput</text>
</a>
</g>
</g>
<!-- Node4&#45;&gt;Node5 -->
<g id="edge4" class="edge">
<title>Node4&#45;&gt;Node5</title>
<path fill="none" stroke="midnightblue" d="M443.94,-1207.01C459.99,-1242.91 499.84,-1320.53 559,-1359 564.95,-1362.87 571.55,-1365.97 578.39,-1368.46"/>
<polygon fill="midnightblue" stroke="midnightblue" points="447.08,-1205.45 439.89,-1197.67 440.66,-1208.24 447.08,-1205.45"/>
</g>
<!-- Node6 -->
<g id="node6" class="node">
<title>Node6</title>
<g id="a_node6"><a xlink:href="../../d4/d6a/structxii_msg_animation_reached_end.htm" target="_top" xlink:title="Sent when an animation reached its end (either forwards or backwards playing)">
<polygon fill="white" stroke="black" points="571.5,-1330.5 571.5,-1349.5 730.5,-1349.5 730.5,-1330.5 571.5,-1330.5"/>
<text text-anchor="middle" x="651" y="-1337.5" font-family="Helvetica,sans-Serif" font-size="10.00">xiiMsgAnimationReachedEnd</text>
</a>
</g>
</g>
<!-- Node4&#45;&gt;Node6 -->
<g id="edge5" class="edge">
<title>Node4&#45;&gt;Node6</title>
<path fill="none" stroke="midnightblue" d="M447.43,-1206.36C466.64,-1235.6 508.35,-1292.32 559,-1321 565.88,-1324.9 573.46,-1328 581.22,-1330.46"/>
<polygon fill="midnightblue" stroke="midnightblue" points="450.14,-1204.11 441.79,-1197.59 444.25,-1207.89 450.14,-1204.11"/>
</g>
<!-- Node7 -->
<g id="node7" class="node">
<title>Node7</title>
<g id="a_node7"><a xlink:href="../../dd/d7a/structxii_msg_blackboard_entry_changed.htm" target="_top" xlink:title=" ">
<polygon fill="white" stroke="black" points="565,-1292.5 565,-1311.5 737,-1311.5 737,-1292.5 565,-1292.5"/>
<text text-anchor="middle" x="651" y="-1299.5" font-family="Helvetica,sans-Serif" font-size="10.00">xiiMsgBlackboardEntryChanged</text>
</a>
</g>
</g>
<!-- Node4&#45;&gt;Node7 -->
<g id="edge6" class="edge">
<title>Node4&#45;&gt;Node7</title>
<path fill="none" stroke="midnightblue" d="M452.44,-1204.74C474.59,-1226.29 516.22,-1263.29 559,-1283 567.36,-1286.85 576.5,-1289.93 585.67,-1292.38"/>
<polygon fill="midnightblue" stroke="midnightblue" points="454.76,-1202.11 445.19,-1197.56 449.83,-1207.09 454.76,-1202.11"/>
</g>
<!-- Node8 -->
<g id="node8" class="node">
<title>Node8</title>
<g id="a_node8"><a xlink:href="../../dd/d19/structxii_msg_damage.htm" target="_top" xlink:title=" ">
<polygon fill="white" stroke="black" points="606,-1254.5 606,-1273.5 696,-1273.5 696,-1254.5 606,-1254.5"/>
<text text-anchor="middle" x="651" y="-1261.5" font-family="Helvetica,sans-Serif" font-size="10.00">xiiMsgDamage</text>
</a>
</g>
</g>
<!-- Node4&#45;&gt;Node8 -->
<g id="edge7" class="edge">
<title>Node4&#45;&gt;Node8</title>
<path fill="none" stroke="midnightblue" d="M462.4,-1202.39C486.83,-1215.17 524.48,-1233.57 559,-1245 574.01,-1249.97 590.87,-1253.92 605.95,-1256.91"/>
<polygon fill="midnightblue" stroke="midnightblue" points="463.88,-1199.21 453.41,-1197.62 460.6,-1205.39 463.88,-1199.21"/>
</g>
<!-- Node9 -->
<g id="node9" class="node">
<title>Node9</title>
<g id="a_node9"><a xlink:href="../../d1/df2/structxii_msg_generic_event.htm" target="_top" xlink:title="For use in scripts to signal a custom event that some game event has occurred.">
<polygon fill="white" stroke="black" points="594,-1216.5 594,-1235.5 708,-1235.5 708,-1216.5 594,-1216.5"/>
<text text-anchor="middle" x="651" y="-1223.5" font-family="Helvetica,sans-Serif" font-size="10.00">xiiMsgGenericEvent</text>
</a>
</g>
</g>
<!-- Node4&#45;&gt;Node9 -->
<g id="edge8" class="edge">
<title>Node4&#45;&gt;Node9</title>
<path fill="none" stroke="midnightblue" d="M495.11,-1198.5C526.76,-1204.12 565.46,-1210.99 596.25,-1216.46"/>
<polygon fill="midnightblue" stroke="midnightblue" points="495.55,-1195.02 485.1,-1196.72 494.33,-1201.91 495.55,-1195.02"/>
</g>
<!-- Node10 -->
<g id="node10" class="node">
<title>Node10</title>
<g id="a_node10"><a xlink:href="../../d7/daa/structxii_msg_input_action_triggered.htm" target="_top" xlink:title="xiiInputComponent raises this event when it detects input">
<polygon fill="white" stroke="black" points="576.5,-1178.5 576.5,-1197.5 725.5,-1197.5 725.5,-1178.5 576.5,-1178.5"/>
<text text-anchor="middle" x="651" y="-1185.5" font-family="Helvetica,sans-Serif" font-size="10.00">xiiMsgInputActionTriggered</text>
</a>
</g>
</g>
<!-- Node4&#45;&gt;Node10 -->
<g id="edge9" class="edge">
<title>Node4&#45;&gt;Node10</title>
<path fill="none" stroke="midnightblue" d="M495.2,-1188C520.32,-1188 549.85,-1188 576.35,-1188"/>
<polygon fill="midnightblue" stroke="midnightblue" points="495.1,-1184.5 485.1,-1188 495.1,-1191.5 495.1,-1184.5"/>
</g>
<!-- Node11 -->
<g id="node11" class="node">
<title>Node11</title>
<g id="a_node11"><a xlink:href="../../dd/d55/structxii_msg_path_changed.htm" target="_top" xlink:title=" ">
<polygon fill="white" stroke="black" points="594.5,-1140.5 594.5,-1159.5 707.5,-1159.5 707.5,-1140.5 594.5,-1140.5"/>
<text text-anchor="middle" x="651" y="-1147.5" font-family="Helvetica,sans-Serif" font-size="10.00">xiiMsgPathChanged</text>
</a>
</g>
</g>
<!-- Node4&#45;&gt;Node11 -->
<g id="edge10" class="edge">
<title>Node4&#45;&gt;Node11</title>
<path fill="none" stroke="midnightblue" d="M495.11,-1177.5C526.76,-1171.88 565.46,-1165.01 596.25,-1159.54"/>
<polygon fill="midnightblue" stroke="midnightblue" points="494.33,-1174.09 485.1,-1179.28 495.55,-1180.98 494.33,-1174.09"/>
</g>
<!-- Node12 -->
<g id="node12" class="node">
<title>Node12</title>
<g id="a_node12"><a xlink:href="../../d9/dba/structxii_msg_physics_joint_broke.htm" target="_top" xlink:title=" ">
<polygon fill="white" stroke="black" points="583.5,-1102.5 583.5,-1121.5 718.5,-1121.5 718.5,-1102.5 583.5,-1102.5"/>
<text text-anchor="middle" x="651" y="-1109.5" font-family="Helvetica,sans-Serif" font-size="10.00">xiiMsgPhysicsJointBroke</text>
</a>
</g>
</g>
<!-- Node4&#45;&gt;Node12 -->
<g id="edge11" class="edge">
<title>Node4&#45;&gt;Node12</title>
<path fill="none" stroke="midnightblue" d="M495.28,-1180.06C504.91,-1177.38 514.51,-1173.79 523,-1169 543.26,-1157.57 538.69,-1142.34 559,-1131 566.47,-1126.83 574.75,-1123.57 583.18,-1121.03"/>
<polygon fill="midnightblue" stroke="midnightblue" points="494.14,-1176.74 485.28,-1182.54 495.82,-1183.53 494.14,-1176.74"/>
</g>
<!-- Node13 -->
<g id="node13" class="node">
<title>Node13</title>
<g id="a_node13"><a xlink:href="../../d9/daa/structxii_msg_sensor_detected_objects_changed.htm" target="_top" xlink:title=" ">
<polygon fill="white" stroke="black" points="569.5,-1053 569.5,-1083 732.5,-1083 732.5,-1053 569.5,-1053"/>
<text text-anchor="start" x="577.5" y="-1071" font-family="Helvetica,sans-Serif" font-size="10.00">xiiMsgSensorDetectedObjects</text>
<text text-anchor="middle" x="651" y="-1060" font-family="Helvetica,sans-Serif" font-size="10.00">Changed</text>
</a>
</g>
</g>
<!-- Node4&#45;&gt;Node13 -->
<g id="edge12" class="edge">
<title>Node4&#45;&gt;Node13</title>
<path fill="none" stroke="midnightblue" d="M494.78,-1182.82C504.94,-1179.88 514.84,-1175.49 523,-1169 552.26,-1145.74 530.37,-1117.03 559,-1093 563.64,-1089.1 568.85,-1085.81 574.35,-1083.03"/>
<polygon fill="midnightblue" stroke="midnightblue" points="493.89,-1179.44 485.02,-1185.22 495.56,-1186.23 493.89,-1179.44"/>
</g>
<!-- Node14 -->
<g id="node14" class="node">
<title>Node14</title>
<g id="a_node14"><a xlink:href="../../d7/d80/structxii_msg_state_machine_state_changed.htm" target="_top" xlink:title="Message that is sent by xiiStateMachineState_SendMsg once the state is entered.">
<polygon fill="white" stroke="black" points="559,-1014.5 559,-1033.5 743,-1033.5 743,-1014.5 559,-1014.5"/>
<text text-anchor="middle" x="651" y="-1021.5" font-family="Helvetica,sans-Serif" font-size="10.00">xiiMsgStateMachineStateChanged</text>
</a>
</g>
</g>
<!-- Node4&#45;&gt;Node14 -->
<g id="edge13" class="edge">
<title>Node4&#45;&gt;Node14</title>
<path fill="none" stroke="midnightblue" d="M495.01,-1184.08C505.33,-1181.04 515.23,-1176.3 523,-1169 565.46,-1129.14 516.35,-1082.66 559,-1043 563.02,-1039.26 567.57,-1036.18 572.45,-1033.65"/>
<polygon fill="midnightblue" stroke="midnightblue" points="493.94,-1180.74 485.05,-1186.5 495.6,-1187.54 493.94,-1180.74"/>
</g>
<!-- Node15 -->
<g id="node15" class="node">
<title>Node15</title>
<g id="a_node15"><a xlink:href="../../d8/df9/structxii_msg_trigger_triggered.htm" target="_top" xlink:title="Sent when something enters or leaves a trigger.">
<polygon fill="white" stroke="black" points="587.5,-976.5 587.5,-995.5 714.5,-995.5 714.5,-976.5 587.5,-976.5"/>
<text text-anchor="middle" x="651" y="-983.5" font-family="Helvetica,sans-Serif" font-size="10.00">xiiMsgTriggerTriggered</text>
</a>
</g>
</g>
<!-- Node4&#45;&gt;Node15 -->
<g id="edge14" class="edge">
<title>Node4&#45;&gt;Node15</title>
<path fill="none" stroke="midnightblue" d="M495.38,-1184.46C505.66,-1181.39 515.46,-1176.53 523,-1169 575.8,-1116.26 505.96,-1057.5 559,-1005 566.8,-997.28 576.88,-992.32 587.47,-989.2"/>
<polygon fill="midnightblue" stroke="midnightblue" points="494.32,-1181.12 485.43,-1186.89 495.98,-1187.92 494.32,-1181.12"/>
</g>
</g>
</svg>
        <g id="navigator" transform="translate(0 0)" fill="#404254">
                <rect fill="#f2f5e9" fill-opacity="0.5" stroke="#606060" stroke-width=".5" x="0" y="0" width="60" height="60"/>
                <use id="zoomplus" xlink:href="#zoomPlus" x="17" y="9" onmousedown="handleZoom(evt,'in')"/>
                <use id="zoomminus" xlink:href="#zoomMin" x="42" y="9" onmousedown="handleZoom(evt,'out')"/>
                <use id="reset" xlink:href="#resetDef" x="30" y="36" onmousedown="handleReset()"/>
                <g id="arrowUp" xlink:href="#dirArrow" transform="translate(30 24)" onmousedown="handlePan(0,-1)">
                  <use xlink:href="#rim" fill="#404040">
                        <set attributeName="fill" to="#808080" begin="arrowUp.mouseover" end="arrowUp.mouseout"/>
                  </use>
                  <path fill="none" stroke="white" stroke-width="1.5" d="M0,-3.0v7 M-2.5,-0.5L0,-3.0L2.5,-0.5"/>
                </g>
                <g id="arrowRight" xlink:href="#dirArrow" transform="rotate(90) translate(36 -43)" onmousedown="handlePan(1,0)">
                  <use xlink:href="#rim" fill="#404040">
                        <set attributeName="fill" to="#808080" begin="arrowRight.mouseover" end="arrowRight.mouseout"/>
                  </use>
                  <path fill="none" stroke="white" stroke-width="1.5" d="M0,-3.0v7 M-2.5,-0.5L0,-3.0L2.5,-0.5"/>
                </g>
                <g id="arrowDown" xlink:href="#dirArrow" transform="rotate(180) translate(-30 -48)" onmousedown="handlePan(0,1)">
                  <use xlink:href="#rim" fill="#404040">
                        <set attributeName="fill" to="#808080" begin="arrowDown.mouseover" end="arrowDown.mouseout"/>
                  </use>
                  <path fill="none" stroke="white" stroke-width="1.5" d="M0,-3.0v7 M-2.5,-0.5L0,-3.0L2.5,-0.5"/>
                </g>
                <g id="arrowLeft" xlink:href="#dirArrow" transform="rotate(270) translate(-36 17)" onmousedown="handlePan(-1,0)">
                  <use xlink:href="#rim" fill="#404040">
                        <set attributeName="fill" to="#808080" begin="arrowLeft.mouseover" end="arrowLeft.mouseout"/>
                  </use>
                  <path fill="none" stroke="white" stroke-width="1.5" d="M0,-3.0v7 M-2.5,-0.5L0,-3.0L2.5,-0.5"/>
                </g>
        </g>
        <svg viewBox="0 0 15 15" width="100%" height="30px" preserveAspectRatio="xMaxYMin meet">
         <g id="arrow_out" transform="scale(0.3 0.3)">
          <a xlink:href="classxii_message__inherit__graph_org.svg" target="_base">
           <rect id="button" ry="5" rx="5" y="6" x="6" height="38" width="38"
                fill="#f2f5e9" fill-opacity="0.5" stroke="#606060" stroke-width="1.0"/>
           <path id="arrow"
             d="M 11.500037,31.436501 C 11.940474,20.09759 22.043105,11.32322 32.158766,21.979434 L 37.068811,17.246167 C 37.068811,17.246167 37.088388,32 37.088388,32 L 22.160133,31.978069 C 22.160133,31.978069 26.997745,27.140456 26.997745,27.140456 C 18.528582,18.264221 13.291696,25.230495 11.500037,31.436501 z"
             style="fill:#404040;"/>
          </a>
         </g>
        </svg>
</svg>
