<?xml version="1.0" encoding="UTF-8" standalone="no"?>
<!DOCTYPE svg PUBLIC "-//W3C//DTD SVG 1.1//EN"
 "http://www.w3.org/Graphics/SVG/1.1/DTD/svg11.dtd">
<!-- Generated by graphviz version 2.43.0 (0)
 -->
<!-- Title: xiiMessage Pages: 1 -->
<svg width="751pt" height="1433pt"
 viewBox="0.00 0.00 751.00 1433.00" xmlns="http://www.w3.org/2000/svg" xmlns:xlink="http://www.w3.org/1999/xlink">
<g id="graph0" class="graph" transform="scale(1 1) rotate(0) translate(4 1429)">
<title>xiiMessage</title>
<!-- Node1 -->
<g id="Node000001" class="node">
<title>Node1</title>
<g id="a_Node000001"><a xlink:title="Base class for all message types. Each message type has it&#39;s own id which is used to dispatch message...">
<polygon fill="#999999" stroke="#666666" points="311,-629 239,-629 239,-610 311,-610 311,-629"/>
<text text-anchor="middle" x="275" y="-617" font-family="Helvetica,sans-Serif" font-size="10.00">xiiMessage</text>
</a>
</g>
</g>
<!-- Node4 -->
<g id="Node000004" class="node">
<title>Node4</title>
<g id="a_Node000004"><a xlink:href="../../d6/de3/structxii_event_message.html" target="_top" xlink:title="Base class for all messages that are sent as &#39;events&#39;.">
<polygon fill="white" stroke="#666666" points="485,-1240 385,-1240 385,-1221 485,-1221 485,-1240"/>
<text text-anchor="middle" x="435" y="-1228" font-family="Helvetica,sans-Serif" font-size="10.00">xiiEventMessage</text>
</a>
</g>
</g>
<!-- Node1&#45;&gt;Node4 -->
<g id="edge3_Node000001_Node000004" class="edge">
<title>Node1&#45;&gt;Node4</title>
<g id="a_edge3_Node000001_Node000004"><a xlink:title=" ">
<path fill="none" stroke="#63b8ff" d="M277.04,-639.5C282.33,-737.96 307.58,-1168.11 347,-1211.5 356.67,-1222.14 370.79,-1227.56 384.86,-1230.14"/>
<polygon fill="#63b8ff" stroke="#63b8ff" points="280.53,-639.21 276.5,-629.41 273.54,-639.58 280.53,-639.21"/>
</a>
</g>
</g>
<!-- Node16 -->
<g id="Node000016" class="node">
<title>Node16</title>
<g id="a_Node000016"><a xlink:href="../../d3/d32/structxii_msg_animation_pose_preparing.html" target="_top" xlink:title="Used by components that skin a mesh to inform children whenever a new pose is being prepared.">
<polygon fill="white" stroke="#666666" points="519.5,-1203 350.5,-1203 350.5,-1184 519.5,-1184 519.5,-1203"/>
<text text-anchor="middle" x="435" y="-1191" font-family="Helvetica,sans-Serif" font-size="10.00">xiiMsgAnimationPosePreparing</text>
</a>
</g>
</g>
<!-- Node1&#45;&gt;Node16 -->
<g id="edge15_Node000001_Node000016" class="edge">
<title>Node1&#45;&gt;Node16</title>
<g id="a_edge15_Node000001_Node000016"><a xlink:title=" ">
<path fill="none" stroke="#63b8ff" d="M275.61,-639.38C274.27,-728.95 273.46,-1094.21 347,-1174.5 350.45,-1178.26 354.45,-1181.37 358.81,-1183.93"/>
<polygon fill="#63b8ff" stroke="#63b8ff" points="279.11,-639.29 275.78,-629.24 272.11,-639.17 279.11,-639.29"/>
</a>
</g>
</g>
<!-- Node17 -->
<g id="Node000017" class="node">
<title>Node17</title>
<g id="a_Node000017"><a xlink:href="../../d2/d2b/structxii_msg_animation_pose_proposal.html" target="_top" xlink:title=" ">
<polygon fill="white" stroke="#bfbfbf" points="517,-1166 353,-1166 353,-1147 517,-1147 517,-1166"/>
<text text-anchor="middle" x="435" y="-1154" font-family="Helvetica,sans-Serif" font-size="10.00">xiiMsgAnimationPoseProposal</text>
</a>
</g>
</g>
<!-- Node1&#45;&gt;Node17 -->
<g id="edge16_Node000001_Node000017" class="edge">
<title>Node1&#45;&gt;Node17</title>
<g id="a_edge16_Node000001_Node000017"><a xlink:title=" ">
<path fill="none" stroke="#63b8ff" d="M275.81,-639.41C275.42,-725.31 278.31,-1063.17 347,-1137.5 350.46,-1141.25 354.48,-1144.34 358.85,-1146.9"/>
<polygon fill="#63b8ff" stroke="#63b8ff" points="279.31,-639.44 275.88,-629.41 272.31,-639.39 279.31,-639.44"/>
</a>
</g>
</g>
<!-- Node18 -->
<g id="Node000018" class="node">
<title>Node18</title>
<g id="a_Node000018"><a xlink:href="../../d9/d18/structxii_msg_animation_pose_updated.html" target="_top" xlink:title="Used by components that skin a mesh to inform children whenever a new pose has been computed.">
<polygon fill="white" stroke="#666666" points="517,-1129 353,-1129 353,-1110 517,-1110 517,-1129"/>
<text text-anchor="middle" x="435" y="-1117" font-family="Helvetica,sans-Serif" font-size="10.00">xiiMsgAnimationPoseUpdated</text>
</a>
</g>
</g>
<!-- Node1&#45;&gt;Node18 -->
<g id="edge17_Node000001_Node000018" class="edge">
<title>Node1&#45;&gt;Node18</title>
<g id="a_edge17_Node000001_Node000018"><a xlink:title=" ">
<path fill="none" stroke="#63b8ff" d="M276.04,-639.52C276.64,-721.71 283.17,-1032.14 347,-1100.5 350.48,-1104.23 354.51,-1107.31 358.89,-1109.85"/>
<polygon fill="#63b8ff" stroke="#63b8ff" points="279.54,-639.08 275.99,-629.1 272.54,-639.12 279.54,-639.08"/>
</a>
</g>
</g>
<!-- Node19 -->
<g id="Node000019" class="node">
<title>Node19</title>
<g id="a_Node000019"><a xlink:href="../../d3/dac/structxii_msg_apply_root_motion.html" target="_top" xlink:title="This message is sent when animation root motion data is available.">
<polygon fill="white" stroke="#666666" points="501.5,-1092 368.5,-1092 368.5,-1073 501.5,-1073 501.5,-1092"/>
<text text-anchor="middle" x="435" y="-1080" font-family="Helvetica,sans-Serif" font-size="10.00">xiiMsgApplyRootMotion</text>
</a>
</g>
</g>
<!-- Node1&#45;&gt;Node19 -->
<g id="edge18_Node000001_Node000019" class="edge">
<title>Node1&#45;&gt;Node19</title>
<g id="a_edge18_Node000001_Node000019"><a xlink:title=" ">
<path fill="none" stroke="#63b8ff" d="M276.31,-639.46C277.96,-717.54 287.97,-1001.04 347,-1063.5 352.84,-1069.68 360.19,-1074.08 368.12,-1077.18"/>
<polygon fill="#63b8ff" stroke="#63b8ff" points="279.81,-639.05 276.12,-629.12 272.81,-639.18 279.81,-639.05"/>
</a>
</g>
</g>
<!-- Node20 -->
<g id="Node000020" class="node">
<title>Node20</title>
<g id="a_Node000020"><a xlink:href="../../db/dd4/structxii_msg_build_static_mesh.html" target="_top" xlink:title=" ">
<polygon fill="white" stroke="#bfbfbf" points="499,-1055 371,-1055 371,-1036 499,-1036 499,-1055"/>
<text text-anchor="middle" x="435" y="-1043" font-family="Helvetica,sans-Serif" font-size="10.00">xiiMsgBuildStaticMesh</text>
</a>
</g>
</g>
<!-- Node1&#45;&gt;Node20 -->
<g id="edge19_Node000001_Node000020" class="edge">
<title>Node1&#45;&gt;Node20</title>
<g id="a_edge19_Node000001_Node000020"><a xlink:title=" ">
<path fill="none" stroke="#63b8ff" d="M276.62,-639.2C279.35,-712.74 292.7,-969.85 347,-1026.5 353.53,-1033.31 361.88,-1037.95 370.82,-1041.07"/>
<polygon fill="#63b8ff" stroke="#63b8ff" points="280.11,-638.91 276.27,-629.03 273.12,-639.15 280.11,-638.91"/>
</a>
</g>
</g>
<!-- Node21 -->
<g id="Node000021" class="node">
<title>Node21</title>
<g id="a_Node000021"><a xlink:href="../../d3/d60/structxii_msg_children_changed.html" target="_top" xlink:title=" ">
<polygon fill="white" stroke="#bfbfbf" points="501,-1018 369,-1018 369,-999 501,-999 501,-1018"/>
<text text-anchor="middle" x="435" y="-1006" font-family="Helvetica,sans-Serif" font-size="10.00">xiiMsgChildrenChanged</text>
</a>
</g>
</g>
<!-- Node1&#45;&gt;Node21 -->
<g id="edge20_Node000001_Node000021" class="edge">
<title>Node1&#45;&gt;Node21</title>
<g id="a_edge20_Node000001_Node000021"><a xlink:title=" ">
<path fill="none" stroke="#63b8ff" d="M277,-639.18C280.9,-708.33 297.48,-938.7 347,-989.5 353.04,-995.7 360.61,-1000.1 368.73,-1003.18"/>
<polygon fill="#63b8ff" stroke="#63b8ff" points="280.49,-638.99 276.46,-629.19 273.5,-639.36 280.49,-638.99"/>
</a>
</g>
</g>
<!-- Node22 -->
<g id="Node000022" class="node">
<title>Node22</title>
<g id="a_Node000022"><a xlink:href="../../d0/dc9/structxii_msg_collision.html" target="_top" xlink:title=" ">
<polygon fill="white" stroke="#bfbfbf" points="480.5,-981 389.5,-981 389.5,-962 480.5,-962 480.5,-981"/>
<text text-anchor="middle" x="435" y="-969" font-family="Helvetica,sans-Serif" font-size="10.00">xiiMsgCollision</text>
</a>
</g>
</g>
<!-- Node1&#45;&gt;Node22 -->
<g id="edge21_Node000001_Node000022" class="edge">
<title>Node1&#45;&gt;Node22</title>
<g id="a_edge21_Node000001_Node000022"><a xlink:title=" ">
<path fill="none" stroke="#63b8ff" d="M277.46,-639.27C282.63,-703.93 302.26,-907.54 347,-952.5 358.01,-963.57 373.88,-968.86 389.05,-971.21"/>
<polygon fill="#63b8ff" stroke="#63b8ff" points="280.94,-638.89 276.68,-629.19 273.96,-639.43 280.94,-638.89"/>
</a>
</g>
</g>
<!-- Node23 -->
<g id="Node000023" class="node">
<title>Node23</title>
<g id="a_Node000023"><a xlink:href="../../d6/d29/structxii_msg_component_internal_trigger.html" target="_top" xlink:title="For internal use by components to trigger some known behavior. Usually components will post this mess...">
<polygon fill="white" stroke="#666666" points="523,-944 347,-944 347,-925 523,-925 523,-944"/>
<text text-anchor="middle" x="435" y="-932" font-family="Helvetica,sans-Serif" font-size="10.00">xiiMsgComponentInternalTrigger</text>
</a>
</g>
</g>
<!-- Node1&#45;&gt;Node23 -->
<g id="edge22_Node000001_Node000023" class="edge">
<title>Node1&#45;&gt;Node23</title>
<g id="a_edge22_Node000001_Node000023"><a xlink:title=" ">
<path fill="none" stroke="#63b8ff" d="M278,-638.99C284.49,-698.5 306.93,-876.24 347,-915.5 350.87,-919.29 355.3,-922.39 360.08,-924.94"/>
<polygon fill="#63b8ff" stroke="#63b8ff" points="281.47,-638.6 276.94,-629.02 274.51,-639.33 281.47,-638.6"/>
</a>
</g>
</g>
<!-- Node24 -->
<g id="Node000024" class="node">
<title>Node24</title>
<g id="a_Node000024"><a xlink:href="../../de/db3/structxii_msg_components_changed.html" target="_top" xlink:title=" ">
<polygon fill="white" stroke="#bfbfbf" points="511.5,-907 358.5,-907 358.5,-888 511.5,-888 511.5,-907"/>
<text text-anchor="middle" x="435" y="-895" font-family="Helvetica,sans-Serif" font-size="10.00">xiiMsgComponentsChanged</text>
</a>
</g>
</g>
<!-- Node1&#45;&gt;Node24 -->
<g id="edge23_Node000001_Node000024" class="edge">
<title>Node1&#45;&gt;Node24</title>
<g id="a_edge23_Node000001_Node000024"><a xlink:title=" ">
<path fill="none" stroke="#63b8ff" d="M278.77,-639.36C286.78,-694.05 311.71,-845.02 347,-878.5 350.93,-882.22 355.4,-885.29 360.21,-887.8"/>
<polygon fill="#63b8ff" stroke="#63b8ff" points="282.2,-638.63 277.31,-629.23 275.27,-639.62 282.2,-638.63"/>
</a>
</g>
</g>
<!-- Node25 -->
<g id="Node000025" class="node">
<title>Node25</title>
<g id="a_Node000025"><a xlink:href="../../df/df3/structxii_msg_delete_game_object.html" target="_top" xlink:title=" ">
<polygon fill="white" stroke="#bfbfbf" points="506,-870 364,-870 364,-851 506,-851 506,-870"/>
<text text-anchor="middle" x="435" y="-858" font-family="Helvetica,sans-Serif" font-size="10.00">xiiMsgDeleteGameObject</text>
</a>
</g>
</g>
<!-- Node1&#45;&gt;Node25 -->
<g id="edge24_Node000001_Node000025" class="edge">
<title>Node1&#45;&gt;Node25</title>
<g id="a_edge24_Node000001_Node000025"><a xlink:title=" ">
<path fill="none" stroke="#63b8ff" d="M276.13,-639.43C277.55,-683.02 287.37,-787.26 347,-841.5 351.92,-845.97 357.64,-849.48 363.75,-852.22"/>
<polygon fill="#63b8ff" stroke="#63b8ff" points="279.62,-639.2 275.92,-629.27 272.63,-639.34 279.62,-639.2"/>
</a>
</g>
</g>
<!-- Node26 -->
<g id="Node000026" class="node">
<title>Node26</title>
<g id="a_Node000026"><a xlink:href="../../da/d35/structxii_msg_extract_geometry.html" target="_top" xlink:title="Sent by xiiWorldGeoExtractionUtil to gather geometry information about objects in a world.">
<polygon fill="white" stroke="#666666" points="501,-833 369,-833 369,-814 501,-814 501,-833"/>
<text text-anchor="middle" x="435" y="-821" font-family="Helvetica,sans-Serif" font-size="10.00">xiiMsgExtractGeometry</text>
</a>
</g>
</g>
<!-- Node1&#45;&gt;Node26 -->
<g id="edge25_Node000001_Node000026" class="edge">
<title>Node1&#45;&gt;Node26</title>
<g id="a_edge25_Node000001_Node000026"><a xlink:title=" ">
<path fill="none" stroke="#63b8ff" d="M277.63,-639.72C281.85,-678.03 296.63,-761.23 347,-804.5 353.33,-809.94 360.87,-813.93 368.81,-816.84"/>
<polygon fill="#63b8ff" stroke="#63b8ff" points="281.08,-638.98 276.63,-629.36 274.11,-639.65 281.08,-638.98"/>
</a>
</g>
</g>
<!-- Node27 -->
<g id="Node000027" class="node">
<title>Node27</title>
<g id="a_Node000027"><a xlink:href="../../df/d5d/structxii_msg_extract_occluder_data.html" target="_top" xlink:title=" ">
<polygon fill="white" stroke="#bfbfbf" points="509.5,-796 360.5,-796 360.5,-777 509.5,-777 509.5,-796"/>
<text text-anchor="middle" x="435" y="-784" font-family="Helvetica,sans-Serif" font-size="10.00">xiiMsgExtractOccluderData</text>
</a>
</g>
</g>
<!-- Node1&#45;&gt;Node27 -->
<g id="edge26_Node000001_Node000027" class="edge">
<title>Node1&#45;&gt;Node27</title>
<g id="a_edge26_Node000001_Node000027"><a xlink:title=" ">
<path fill="none" stroke="#63b8ff" d="M279.69,-639.24C286.77,-671.35 305.41,-734.6 347,-767.5 351.85,-771.34 357.31,-774.44 363.07,-776.94"/>
<polygon fill="#63b8ff" stroke="#63b8ff" points="283.09,-638.37 277.65,-629.28 276.23,-639.78 283.09,-638.37"/>
</a>
</g>
</g>
<!-- Node28 -->
<g id="Node000028" class="node">
<title>Node28</title>
<g id="a_Node000028"><a xlink:href="../../d3/d47/structxii_msg_extract_render_data.html" target="_top" xlink:title=" ">
<polygon fill="white" stroke="#bfbfbf" points="505.5,-759 364.5,-759 364.5,-740 505.5,-740 505.5,-759"/>
<text text-anchor="middle" x="435" y="-747" font-family="Helvetica,sans-Serif" font-size="10.00">xiiMsgExtractRenderData</text>
</a>
</g>
</g>
<!-- Node1&#45;&gt;Node28 -->
<g id="edge27_Node000001_Node000028" class="edge">
<title>Node1&#45;&gt;Node28</title>
<g id="a_edge27_Node000001_Node000028"><a xlink:title=" ">
<path fill="none" stroke="#63b8ff" d="M282.81,-638.56C292.82,-663.72 313.99,-707.51 347,-730.5 352.58,-734.39 358.82,-737.5 365.31,-739.99"/>
<polygon fill="#63b8ff" stroke="#63b8ff" points="286.02,-637.14 279.2,-629.03 279.47,-639.62 286.02,-637.14"/>
</a>
</g>
</g>
<!-- Node29 -->
<g id="Node000029" class="node">
<title>Node29</title>
<g id="a_Node000029"><a xlink:href="../../d6/d4f/structxii_msg_interrupt_playing.html" target="_top" xlink:title="Common message for components that can or need to be canceled immediately.">
<polygon fill="white" stroke="#666666" points="498.5,-722 371.5,-722 371.5,-703 498.5,-703 498.5,-722"/>
<text text-anchor="middle" x="435" y="-710" font-family="Helvetica,sans-Serif" font-size="10.00">xiiMsgInterruptPlaying</text>
</a>
</g>
</g>
<!-- Node1&#45;&gt;Node29 -->
<g id="edge28_Node000001_Node000029" class="edge">
<title>Node1&#45;&gt;Node29</title>
<g id="a_edge28_Node000001_Node000029"><a xlink:title=" ">
<path fill="none" stroke="#63b8ff" d="M288.51,-637.76C301.22,-654.86 322.49,-679.77 347,-693.5 354.55,-697.73 362.97,-701.02 371.5,-703.58"/>
<polygon fill="#63b8ff" stroke="#63b8ff" points="291.03,-635.27 282.36,-629.18 285.35,-639.35 291.03,-635.27"/>
</a>
</g>
</g>
<!-- Node30 -->
<g id="Node000030" class="node">
<title>Node30</title>
<g id="a_Node000030"><a xlink:href="../../d4/d2e/structxii_msg_move_character_controller.html" target="_top" xlink:title=" ">
<polygon fill="white" stroke="#bfbfbf" points="520.5,-685 349.5,-685 349.5,-666 520.5,-666 520.5,-685"/>
<text text-anchor="middle" x="435" y="-673" font-family="Helvetica,sans-Serif" font-size="10.00">xiiMsgMoveCharacterController</text>
</a>
</g>
</g>
<!-- Node1&#45;&gt;Node30 -->
<g id="edge29_Node000001_Node000030" class="edge">
<title>Node1&#45;&gt;Node30</title>
<g id="a_edge29_Node000001_Node000030"><a xlink:title=" ">
<path fill="none" stroke="#63b8ff" d="M300.53,-634.34C313.88,-641.89 330.91,-650.67 347,-656.5 357.32,-660.24 368.61,-663.37 379.53,-665.93"/>
<polygon fill="#63b8ff" stroke="#63b8ff" points="301.93,-631.11 291.52,-629.13 298.42,-637.17 301.93,-631.11"/>
</a>
</g>
</g>
<!-- Node31 -->
<g id="Node000031" class="node">
<title>Node31</title>
<g id="a_Node000031"><a xlink:href="../../dc/ddd/structxii_msg_object_grabbed.html" target="_top" xlink:title="Sent by components such as xiiJoltGrabObjectComponent to indicate that the object has been grabbed or...">
<polygon fill="white" stroke="#666666" points="496,-648 374,-648 374,-629 496,-629 496,-648"/>
<text text-anchor="middle" x="435" y="-636" font-family="Helvetica,sans-Serif" font-size="10.00">xiiMsgObjectGrabbed</text>
</a>
</g>
</g>
<!-- Node1&#45;&gt;Node31 -->
<g id="edge30_Node000001_Node000031" class="edge">
<title>Node1&#45;&gt;Node31</title>
<g id="a_edge30_Node000001_Node000031"><a xlink:title=" ">
<path fill="none" stroke="#63b8ff" d="M321.43,-624.96C337.78,-626.93 356.48,-629.18 373.88,-631.27"/>
<polygon fill="#63b8ff" stroke="#63b8ff" points="321.41,-621.44 311.07,-623.72 320.58,-628.39 321.41,-621.44"/>
</a>
</g>
</g>
<!-- Node32 -->
<g id="Node000032" class="node">
<title>Node32</title>
<g id="a_Node000032"><a xlink:href="../../d1/de5/structxii_msg_only_apply_to_object.html" target="_top" xlink:title=" ">
<polygon fill="white" stroke="#bfbfbf" points="505.5,-611 364.5,-611 364.5,-592 505.5,-592 505.5,-611"/>
<text text-anchor="middle" x="435" y="-599" font-family="Helvetica,sans-Serif" font-size="10.00">xiiMsgOnlyApplyToObject</text>
</a>
</g>
</g>
<!-- Node1&#45;&gt;Node32 -->
<g id="edge31_Node000001_Node000032" class="edge">
<title>Node1&#45;&gt;Node32</title>
<g id="a_edge31_Node000001_Node000032"><a xlink:title=" ">
<path fill="none" stroke="#63b8ff" d="M321.04,-614.37C334.54,-612.83 349.67,-611.11 364.37,-609.43"/>
<polygon fill="#63b8ff" stroke="#63b8ff" points="320.6,-610.9 311.07,-615.51 321.4,-617.85 320.6,-610.9"/>
</a>
</g>
</g>
<!-- Node33 -->
<g id="Node000033" class="node">
<title>Node33</title>
<g id="a_Node000033"><a xlink:href="../../d0/d96/structxii_msg_parent_changed.html" target="_top" xlink:title=" ">
<polygon fill="white" stroke="#bfbfbf" points="496,-574 374,-574 374,-555 496,-555 496,-574"/>
<text text-anchor="middle" x="435" y="-562" font-family="Helvetica,sans-Serif" font-size="10.00">xiiMsgParentChanged</text>
</a>
</g>
</g>
<!-- Node1&#45;&gt;Node33 -->
<g id="edge32_Node000001_Node000033" class="edge">
<title>Node1&#45;&gt;Node33</title>
<g id="a_edge32_Node000001_Node000033"><a xlink:title=" ">
<path fill="none" stroke="#63b8ff" d="M300.24,-604.73C313.62,-597.13 330.77,-588.28 347,-582.5 356.3,-579.19 366.39,-576.41 376.29,-574.1"/>
<polygon fill="#63b8ff" stroke="#63b8ff" points="298.11,-601.92 291.23,-609.98 301.63,-607.97 298.11,-601.92"/>
</a>
</g>
</g>
<!-- Node34 -->
<g id="Node000034" class="node">
<title>Node34</title>
<g id="a_Node000034"><a xlink:href="../../d2/dd1/structxii_msg_physics_add_force.html" target="_top" xlink:title="Used to apply a physical force on the object.">
<polygon fill="white" stroke="#666666" points="500.5,-537 369.5,-537 369.5,-518 500.5,-518 500.5,-537"/>
<text text-anchor="middle" x="435" y="-525" font-family="Helvetica,sans-Serif" font-size="10.00">xiiMsgPhysicsAddForce</text>
</a>
</g>
</g>
<!-- Node1&#45;&gt;Node34 -->
<g id="edge33_Node000001_Node000034" class="edge">
<title>Node1&#45;&gt;Node34</title>
<g id="a_edge33_Node000001_Node000034"><a xlink:title=" ">
<path fill="none" stroke="#63b8ff" d="M288.48,-601.18C301.16,-584.04 322.42,-559.09 347,-545.5 353.88,-541.69 361.48,-538.69 369.23,-536.32"/>
<polygon fill="#63b8ff" stroke="#63b8ff" points="285.3,-599.61 282.34,-609.78 291,-603.67 285.3,-599.61"/>
</a>
</g>
</g>
<!-- Node35 -->
<g id="Node000035" class="node">
<title>Node35</title>
<g id="a_Node000035"><a xlink:href="../../d9/d2c/structxii_msg_physics_add_impulse.html" target="_top" xlink:title="Used to apply a physical impulse on the object.">
<polygon fill="white" stroke="#666666" points="506.5,-500 363.5,-500 363.5,-481 506.5,-481 506.5,-500"/>
<text text-anchor="middle" x="435" y="-488" font-family="Helvetica,sans-Serif" font-size="10.00">xiiMsgPhysicsAddImpulse</text>
</a>
</g>
</g>
<!-- Node1&#45;&gt;Node35 -->
<g id="edge34_Node000001_Node000035" class="edge">
<title>Node1&#45;&gt;Node35</title>
<g id="a_edge34_Node000001_Node000035"><a xlink:title=" ">
<path fill="none" stroke="#63b8ff" d="M282.77,-600.39C292.74,-575.17 313.86,-531.31 347,-508.5 351.95,-505.09 357.42,-502.3 363.12,-500.02"/>
<polygon fill="#63b8ff" stroke="#63b8ff" points="279.42,-599.35 279.18,-609.94 285.98,-601.81 279.42,-599.35"/>
</a>
</g>
</g>
<!-- Node36 -->
<g id="Node000036" class="node">
<title>Node36</title>
<g id="a_Node000036"><a xlink:href="../../d6/d36/structxii_msg_query_animation_skeleton.html" target="_top" xlink:title="The animated mesh component listens to this message and &#39;answers&#39; by filling out the skeleton resourc...">
<polygon fill="white" stroke="#666666" points="520,-463 350,-463 350,-444 520,-444 520,-463"/>
<text text-anchor="middle" x="435" y="-451" font-family="Helvetica,sans-Serif" font-size="10.00">xiiMsgQueryAnimationSkeleton</text>
</a>
</g>
</g>
<!-- Node1&#45;&gt;Node36 -->
<g id="edge35_Node000001_Node000036" class="edge">
<title>Node1&#45;&gt;Node36</title>
<g id="a_edge35_Node000001_Node000036"><a xlink:title=" ">
<path fill="none" stroke="#63b8ff" d="M279.65,-599.71C286.67,-567.53 305.23,-504.17 347,-471.5 351.25,-468.17 355.97,-465.42 360.94,-463.15"/>
<polygon fill="#63b8ff" stroke="#63b8ff" points="276.18,-599.2 277.63,-609.69 283.04,-600.59 276.18,-599.2"/>
</a>
</g>
</g>
<!-- Node37 -->
<g id="Node000037" class="node">
<title>Node37</title>
<g id="a_Node000037"><a xlink:href="../../d9/d68/structxii_msg_release_object_grab.html" target="_top" xlink:title="Send this to components such as xiiJoltGrabObjectComponent to demand that m_hGrabbedObjectToRelease s...">
<polygon fill="white" stroke="#666666" points="506.5,-426 363.5,-426 363.5,-407 506.5,-407 506.5,-426"/>
<text text-anchor="middle" x="435" y="-414" font-family="Helvetica,sans-Serif" font-size="10.00">xiiMsgReleaseObjectGrab</text>
</a>
</g>
</g>
<!-- Node1&#45;&gt;Node37 -->
<g id="edge36_Node000001_Node000037" class="edge">
<title>Node1&#45;&gt;Node37</title>
<g id="a_edge36_Node000001_Node000037"><a xlink:title=" ">
<path fill="none" stroke="#63b8ff" d="M277.59,-599.23C281.73,-560.83 296.39,-477.49 347,-434.5 351.82,-430.41 357.33,-427.16 363.18,-424.6"/>
<polygon fill="#63b8ff" stroke="#63b8ff" points="274.06,-599.33 276.61,-609.61 281.03,-599.98 274.06,-599.33"/>
</a>
</g>
</g>
<!-- Node38 -->
<g id="Node000038" class="node">
<title>Node38</title>
<g id="a_Node000038"><a xlink:href="../../d7/d35/structxii_msg_retrieve_bone_state.html" target="_top" xlink:title="Queries the local transforms of each bone in an object with a skeleton.">
<polygon fill="white" stroke="#666666" points="505,-389 365,-389 365,-370 505,-370 505,-389"/>
<text text-anchor="middle" x="435" y="-377" font-family="Helvetica,sans-Serif" font-size="10.00">xiiMsgRetrieveBoneState</text>
</a>
</g>
</g>
<!-- Node1&#45;&gt;Node38 -->
<g id="edge37_Node000001_Node000038" class="edge">
<title>Node1&#45;&gt;Node38</title>
<g id="a_edge37_Node000001_Node000038"><a xlink:title=" ">
<path fill="none" stroke="#63b8ff" d="M276.08,-599.52C277.42,-555.84 287.08,-451.41 347,-397.5 352.16,-392.86 358.19,-389.29 364.64,-386.57"/>
<polygon fill="#63b8ff" stroke="#63b8ff" points="272.58,-599.64 275.9,-609.7 279.58,-599.77 272.58,-599.64"/>
</a>
</g>
</g>
<!-- Node39 -->
<g id="Node000039" class="node">
<title>Node39</title>
<g id="a_Node000039"><a xlink:href="../../d4/d46/structxii_msg_rope_pose_updated.html" target="_top" xlink:title="Used by components that do rope simulation and rendering.">
<polygon fill="white" stroke="#666666" points="504,-352 366,-352 366,-333 504,-333 504,-352"/>
<text text-anchor="middle" x="435" y="-340" font-family="Helvetica,sans-Serif" font-size="10.00">xiiMsgRopePoseUpdated</text>
</a>
</g>
</g>
<!-- Node1&#45;&gt;Node39 -->
<g id="edge38_Node000001_Node000039" class="edge">
<title>Node1&#45;&gt;Node39</title>
<g id="a_edge38_Node000001_Node000039"><a xlink:title=" ">
<path fill="none" stroke="#63b8ff" d="M278.75,-599.62C286.71,-544.88 311.53,-393.79 347,-360.5 352.4,-355.43 358.83,-351.63 365.72,-348.81"/>
<polygon fill="#63b8ff" stroke="#63b8ff" points="275.25,-599.37 277.31,-609.76 282.18,-600.35 275.25,-599.37"/>
</a>
</g>
</g>
<!-- Node40 -->
<g id="Node000040" class="node">
<title>Node40</title>
<g id="a_Node000040"><a xlink:href="../../de/d10/structxii_msg_set_color.html" target="_top" xlink:title="A message to modify the main color of some thing.">
<polygon fill="white" stroke="#666666" points="480,-315 390,-315 390,-296 480,-296 480,-315"/>
<text text-anchor="middle" x="435" y="-303" font-family="Helvetica,sans-Serif" font-size="10.00">xiiMsgSetColor</text>
</a>
</g>
</g>
<!-- Node1&#45;&gt;Node40 -->
<g id="edge39_Node000001_Node000040" class="edge">
<title>Node1&#45;&gt;Node40</title>
<g id="a_edge39_Node000001_Node000040"><a xlink:title=" ">
<path fill="none" stroke="#63b8ff" d="M277.98,-600C284.41,-540.42 306.71,-362.54 347,-323.5 358.3,-312.55 374.4,-307.47 389.69,-305.32"/>
<polygon fill="#63b8ff" stroke="#63b8ff" points="274.49,-599.66 276.93,-609.97 281.46,-600.39 274.49,-599.66"/>
</a>
</g>
</g>
<!-- Node41 -->
<g id="Node000041" class="node">
<title>Node41</title>
<g id="a_Node000041"><a xlink:href="../../d1/deb/structxii_msg_set_custom_data.html" target="_top" xlink:title=" ">
<polygon fill="white" stroke="#bfbfbf" points="497.5,-278 372.5,-278 372.5,-259 497.5,-259 497.5,-278"/>
<text text-anchor="middle" x="435" y="-266" font-family="Helvetica,sans-Serif" font-size="10.00">xiiMsgSetCustomData</text>
</a>
</g>
</g>
<!-- Node1&#45;&gt;Node41 -->
<g id="edge40_Node000001_Node000041" class="edge">
<title>Node1&#45;&gt;Node41</title>
<g id="a_edge40_Node000001_Node000041"><a xlink:title=" ">
<path fill="none" stroke="#63b8ff" d="M277.44,-599.71C282.55,-534.99 302.01,-331.22 347,-286.5 354,-279.54 362.94,-274.94 372.41,-271.94"/>
<polygon fill="#63b8ff" stroke="#63b8ff" points="273.94,-599.56 276.67,-609.8 280.92,-600.09 273.94,-599.56"/>
</a>
</g>
</g>
<!-- Node42 -->
<g id="Node000042" class="node">
<title>Node42</title>
<g id="a_Node000042"><a xlink:href="../../d4/dfb/structxii_msg_set_double_parameter.html" target="_top" xlink:title="Basic message to set some generic parameter to a double value.">
<polygon fill="white" stroke="#666666" points="509.5,-241 360.5,-241 360.5,-222 509.5,-222 509.5,-241"/>
<text text-anchor="middle" x="435" y="-229" font-family="Helvetica,sans-Serif" font-size="10.00">xiiMsgSetDoubleParameter</text>
</a>
</g>
</g>
<!-- Node1&#45;&gt;Node42 -->
<g id="edge41_Node000001_Node000042" class="edge">
<title>Node1&#45;&gt;Node42</title>
<g id="a_edge41_Node000001_Node000042"><a xlink:title=" ">
<path fill="none" stroke="#63b8ff" d="M276.98,-599.8C280.82,-530.59 297.2,-300.02 347,-249.5 350.9,-245.55 355.42,-242.35 360.31,-239.77"/>
<polygon fill="#63b8ff" stroke="#63b8ff" points="273.48,-599.63 276.45,-609.8 280.47,-600 273.48,-599.63"/>
</a>
</g>
</g>
<!-- Node43 -->
<g id="Node000043" class="node">
<title>Node43</title>
<g id="a_Node000043"><a xlink:href="../../dd/d07/structxii_msg_set_float_parameter.html" target="_top" xlink:title="Basic message to set some generic parameter to a float value.">
<polygon fill="white" stroke="#666666" points="505,-204 365,-204 365,-185 505,-185 505,-204"/>
<text text-anchor="middle" x="435" y="-192" font-family="Helvetica,sans-Serif" font-size="10.00">xiiMsgSetFloatParameter</text>
</a>
</g>
</g>
<!-- Node1&#45;&gt;Node43 -->
<g id="edge42_Node000001_Node000043" class="edge">
<title>Node1&#45;&gt;Node43</title>
<g id="a_edge42_Node000001_Node000043"><a xlink:title=" ">
<path fill="none" stroke="#63b8ff" d="M276.6,-599.78C279.26,-526.17 292.39,-268.85 347,-212.5 352.05,-207.29 358.17,-203.39 364.81,-200.49"/>
<polygon fill="#63b8ff" stroke="#63b8ff" points="273.1,-599.84 276.26,-609.96 280.09,-600.08 273.1,-599.84"/>
</a>
</g>
</g>
<!-- Node44 -->
<g id="Node000044" class="node">
<title>Node44</title>
<g id="a_Node000044"><a xlink:href="../../da/d3c/structxii_msg_set_mesh_material.html" target="_top" xlink:title=" ">
<polygon fill="white" stroke="#bfbfbf" points="500.5,-167 369.5,-167 369.5,-148 500.5,-148 500.5,-167"/>
<text text-anchor="middle" x="435" y="-155" font-family="Helvetica,sans-Serif" font-size="10.00">xiiMsgSetMeshMaterial</text>
</a>
</g>
</g>
<!-- Node1&#45;&gt;Node44 -->
<g id="edge43_Node000001_Node000044" class="edge">
<title>Node1&#45;&gt;Node44</title>
<g id="a_edge43_Node000001_Node000044"><a xlink:title=" ">
<path fill="none" stroke="#63b8ff" d="M276.29,-599.52C277.86,-521.37 287.62,-237.64 347,-175.5 353.18,-169.03 361.03,-164.57 369.47,-161.54"/>
<polygon fill="#63b8ff" stroke="#63b8ff" points="272.79,-599.81 276.11,-609.87 279.79,-599.94 272.79,-599.81"/>
</a>
</g>
</g>
<!-- Node45 -->
<g id="Node000045" class="node">
<title>Node45</title>
<g id="a_Node000045"><a xlink:href="../../df/d58/structxii_msg_set_playing.html" target="_top" xlink:title="Common message for components that can be toggled between playing and paused states.">
<polygon fill="white" stroke="#666666" points="485.5,-130 384.5,-130 384.5,-111 485.5,-111 485.5,-130"/>
<text text-anchor="middle" x="435" y="-118" font-family="Helvetica,sans-Serif" font-size="10.00">xiiMsgSetPlaying</text>
</a>
</g>
</g>
<!-- Node1&#45;&gt;Node45 -->
<g id="edge44_Node000001_Node000045" class="edge">
<title>Node1&#45;&gt;Node45</title>
<g id="a_edge44_Node000001_Node000045"><a xlink:title=" ">
<path fill="none" stroke="#63b8ff" d="M276.02,-599.46C276.54,-517.2 282.79,-206.51 347,-138.5 356.64,-128.29 370.41,-123.07 384.17,-120.57"/>
<polygon fill="#63b8ff" stroke="#63b8ff" points="272.52,-599.87 275.98,-609.89 279.52,-599.9 272.52,-599.87"/>
</a>
</g>
</g>
<!-- Node46 -->
<g id="Node000046" class="node">
<title>Node46</title>
<g id="a_Node000046"><a xlink:href="../../d7/dfa/structxii_msg_set_real_parameter.html" target="_top" xlink:title="Basic message to set some generic parameter to a xiiReal value.">
<polygon fill="white" stroke="#666666" points="503.5,-93 366.5,-93 366.5,-74 503.5,-74 503.5,-93"/>
<text text-anchor="middle" x="435" y="-81" font-family="Helvetica,sans-Serif" font-size="10.00">xiiMsgSetRealParameter</text>
</a>
</g>
</g>
<!-- Node1&#45;&gt;Node46 -->
<g id="edge45_Node000001_Node000046" class="edge">
<title>Node1&#45;&gt;Node46</title>
<g id="a_edge45_Node000001_Node000046"><a xlink:title=" ">
<path fill="none" stroke="#63b8ff" d="M275.79,-599.86C275.3,-514.35 277.83,-175.53 347,-101.5 352.37,-95.75 359.05,-91.58 366.31,-88.58"/>
<polygon fill="#63b8ff" stroke="#63b8ff" points="272.29,-600.02 275.87,-609.99 279.29,-599.97 272.29,-600.02"/>
</a>
</g>
</g>
<!-- Node47 -->
<g id="Node000047" class="node">
<title>Node47</title>
<g id="a_Node000047"><a xlink:href="../../d1/ddd/structxii_msg_transform_changed.html" target="_top" xlink:title=" ">
<polygon fill="white" stroke="#bfbfbf" points="505,-56 365,-56 365,-37 505,-37 505,-56"/>
<text text-anchor="middle" x="435" y="-44" font-family="Helvetica,sans-Serif" font-size="10.00">xiiMsgTransformChanged</text>
</a>
</g>
</g>
<!-- Node1&#45;&gt;Node47 -->
<g id="edge46_Node000001_Node000047" class="edge">
<title>Node1&#45;&gt;Node47</title>
<g id="a_edge46_Node000001_Node000047"><a xlink:title=" ">
<path fill="none" stroke="#63b8ff" d="M275.59,-599.6C274.16,-509.95 273.02,-144.39 347,-64.5 352.03,-59.07 358.23,-55.04 364.99,-52.08"/>
<polygon fill="#63b8ff" stroke="#63b8ff" points="272.09,-599.82 275.77,-609.76 279.09,-599.69 272.09,-599.82"/>
</a>
</g>
</g>
<!-- Node48 -->
<g id="Node000048" class="node">
<title>Node48</title>
<g id="a_Node000048"><a xlink:href="../../dc/dc8/structxii_msg_update_local_bounds.html" target="_top" xlink:title=" ">
<polygon fill="white" stroke="#bfbfbf" points="508,-19 362,-19 362,0 508,0 508,-19"/>
<text text-anchor="middle" x="435" y="-7" font-family="Helvetica,sans-Serif" font-size="10.00">xiiMsgUpdateLocalBounds</text>
</a>
</g>
</g>
<!-- Node1&#45;&gt;Node48 -->
<g id="edge47_Node000001_Node000048" class="edge">
<title>Node1&#45;&gt;Node48</title>
<g id="a_edge47_Node000001_Node000048"><a xlink:title=" ">
<path fill="none" stroke="#63b8ff" d="M277.03,-599.49C282.27,-500.99 307.34,-70.67 347,-27.5 351.17,-22.96 356.17,-19.39 361.62,-16.62"/>
<polygon fill="#63b8ff" stroke="#63b8ff" points="273.53,-599.41 276.5,-609.58 280.52,-599.78 273.53,-599.41"/>
</a>
</g>
</g>
<!-- Node2 -->
<g id="Node000002" class="node">
<title>Node2</title>
<g id="a_Node000002"><a xlink:href="../../dc/d71/classxii_reflected_class.html" target="_top" xlink:title="All classes that should be dynamically reflectable, need to be derived from this base class.">
<polygon fill="white" stroke="#666666" points="203,-629 102,-629 102,-610 203,-610 203,-629"/>
<text text-anchor="middle" x="152.5" y="-617" font-family="Helvetica,sans-Serif" font-size="10.00">xiiReflectedClass</text>
</a>
</g>
</g>
<!-- Node2&#45;&gt;Node1 -->
<g id="edge1_Node000001_Node000002" class="edge">
<title>Node2&#45;&gt;Node1</title>
<g id="a_edge1_Node000001_Node000002"><a xlink:title=" ">
<path fill="none" stroke="#63b8ff" d="M213.36,-619.5C222.06,-619.5 230.76,-619.5 238.75,-619.5"/>
<polygon fill="#63b8ff" stroke="#63b8ff" points="213.21,-616 203.21,-619.5 213.21,-623 213.21,-616"/>
</a>
</g>
</g>
<!-- Node3 -->
<g id="Node000003" class="node">
<title>Node3</title>
<g id="a_Node000003"><a xlink:href="../../d2/d38/classxii_no_base.html" target="_top" xlink:title="Dummy type to pass to templates and macros that expect a base type for a class that has no base.">
<polygon fill="white" stroke="#666666" points="66,-629 0,-629 0,-610 66,-610 66,-629"/>
<text text-anchor="middle" x="33" y="-617" font-family="Helvetica,sans-Serif" font-size="10.00">xiiNoBase</text>
</a>
</g>
</g>
<!-- Node3&#45;&gt;Node2 -->
<g id="edge2_Node000002_Node000003" class="edge">
<title>Node3&#45;&gt;Node2</title>
<g id="a_edge2_Node000002_Node000003"><a xlink:title=" ">
<path fill="none" stroke="#63b8ff" d="M76.27,-619.5C84.54,-619.5 93.29,-619.5 101.78,-619.5"/>
<polygon fill="#63b8ff" stroke="#63b8ff" points="76.11,-616 66.11,-619.5 76.11,-623 76.11,-616"/>
</a>
</g>
</g>
<!-- Node5 -->
<g id="Node000005" class="node">
<title>Node5</title>
<g id="a_Node000005"><a xlink:href="../../da/d11/classxii_event_msg_set_power_input.html" target="_top" xlink:title="This event is posted by xiiPowerConnectorComponent whenever the power input on a connector changes.">
<polygon fill="white" stroke="#666666" points="724.5,-1425 577.5,-1425 577.5,-1406 724.5,-1406 724.5,-1425"/>
<text text-anchor="middle" x="651" y="-1413" font-family="Helvetica,sans-Serif" font-size="10.00">xiiEventMsgSetPowerInput</text>
</a>
</g>
</g>
<!-- Node4&#45;&gt;Node5 -->
<g id="edge4_Node000004_Node000005" class="edge">
<title>Node4&#45;&gt;Node5</title>
<g id="a_edge4_Node000004_Node000005"><a xlink:title=" ">
<path fill="none" stroke="#63b8ff" d="M444.33,-1249.45C460.79,-1284.53 500.99,-1359.36 559,-1396.5 564.98,-1400.33 571.59,-1403.4 578.44,-1405.87"/>
<polygon fill="#63b8ff" stroke="#63b8ff" points="447.49,-1247.95 440.16,-1240.3 441.12,-1250.85 447.49,-1247.95"/>
</a>
</g>
</g>
<!-- Node6 -->
<g id="Node000006" class="node">
<title>Node6</title>
<g id="a_Node000006"><a xlink:href="../../d4/d6a/structxii_msg_animation_reached_end.html" target="_top" xlink:title="Sent when an animation reached its end (either forwards or backwards playing)">
<polygon fill="white" stroke="#666666" points="730.5,-1388 571.5,-1388 571.5,-1369 730.5,-1369 730.5,-1388"/>
<text text-anchor="middle" x="651" y="-1376" font-family="Helvetica,sans-Serif" font-size="10.00">xiiMsgAnimationReachedEnd</text>
</a>
</g>
</g>
<!-- Node4&#45;&gt;Node6 -->
<g id="edge5_Node000004_Node000006" class="edge">
<title>Node4&#45;&gt;Node6</title>
<g id="a_edge5_Node000004_Node000006"><a xlink:title=" ">
<path fill="none" stroke="#63b8ff" d="M447.85,-1248.72C467.39,-1277.19 509.19,-1331.8 559,-1359.5 565.91,-1363.34 573.51,-1366.41 581.28,-1368.86"/>
<polygon fill="#63b8ff" stroke="#63b8ff" points="450.58,-1246.5 442.1,-1240.15 444.76,-1250.4 450.58,-1246.5"/>
</a>
</g>
</g>
<!-- Node7 -->
<g id="Node000007" class="node">
<title>Node7</title>
<g id="a_Node000007"><a xlink:href="../../dd/d7a/structxii_msg_blackboard_entry_changed.html" target="_top" xlink:title=" ">
<polygon fill="white" stroke="#bfbfbf" points="737,-1351 565,-1351 565,-1332 737,-1332 737,-1351"/>
<text text-anchor="middle" x="651" y="-1339" font-family="Helvetica,sans-Serif" font-size="10.00">xiiMsgBlackboardEntryChanged</text>
</a>
</g>
</g>
<!-- Node4&#45;&gt;Node7 -->
<g id="edge6_Node000004_Node000007" class="edge">
<title>Node4&#45;&gt;Node7</title>
<g id="a_edge6_Node000004_Node000007"><a xlink:title=" ">
<path fill="none" stroke="#63b8ff" d="M452.88,-1247.01C475.24,-1267.9 516.79,-1303.45 559,-1322.5 567.53,-1326.35 576.87,-1329.43 586.21,-1331.9"/>
<polygon fill="#63b8ff" stroke="#63b8ff" points="455.21,-1244.39 445.55,-1240.04 450.38,-1249.47 455.21,-1244.39"/>
</a>
</g>
</g>
<!-- Node8 -->
<g id="Node000008" class="node">
<title>Node8</title>
<g id="a_Node000008"><a xlink:href="../../dd/d19/structxii_msg_damage.html" target="_top" xlink:title=" ">
<polygon fill="white" stroke="#bfbfbf" points="696,-1314 606,-1314 606,-1295 696,-1295 696,-1314"/>
<text text-anchor="middle" x="651" y="-1302" font-family="Helvetica,sans-Serif" font-size="10.00">xiiMsgDamage</text>
</a>
</g>
</g>
<!-- Node4&#45;&gt;Node8 -->
<g id="edge7_Node000004_Node000008" class="edge">
<title>Node4&#45;&gt;Node8</title>
<g id="a_edge7_Node000004_Node000008"><a xlink:title=" ">
<path fill="none" stroke="#63b8ff" d="M463.31,-1244.76C487.8,-1257.04 525.01,-1274.49 559,-1285.5 574.05,-1290.37 590.91,-1294.3 605.99,-1297.29"/>
<polygon fill="#63b8ff" stroke="#63b8ff" points="464.76,-1241.57 454.26,-1240.16 461.59,-1247.81 464.76,-1241.57"/>
</a>
</g>
</g>
<!-- Node9 -->
<g id="Node000009" class="node">
<title>Node9</title>
<g id="a_Node000009"><a xlink:href="../../d1/df2/structxii_msg_generic_event.html" target="_top" xlink:title="For use in scripts to signal a custom event that some game event has occurred.">
<polygon fill="white" stroke="#666666" points="708,-1277 594,-1277 594,-1258 708,-1258 708,-1277"/>
<text text-anchor="middle" x="651" y="-1265" font-family="Helvetica,sans-Serif" font-size="10.00">xiiMsgGenericEvent</text>
</a>
</g>
</g>
<!-- Node4&#45;&gt;Node9 -->
<g id="edge8_Node000004_Node000009" class="edge">
<title>Node4&#45;&gt;Node9</title>
<g id="a_edge8_Node000004_Node000009"><a xlink:title=" ">
<path fill="none" stroke="#63b8ff" d="M494.95,-1240.69C526.11,-1246.08 564.13,-1252.65 594.73,-1257.94"/>
<polygon fill="#63b8ff" stroke="#63b8ff" points="495.55,-1237.24 485.1,-1238.99 494.35,-1244.14 495.55,-1237.24"/>
</a>
</g>
</g>
<!-- Node10 -->
<g id="Node000010" class="node">
<title>Node10</title>
<g id="a_Node000010"><a xlink:href="../../d7/daa/structxii_msg_input_action_triggered.html" target="_top" xlink:title="xiiInputComponent raises this event when it detects input">
<polygon fill="white" stroke="#666666" points="725.5,-1240 576.5,-1240 576.5,-1221 725.5,-1221 725.5,-1240"/>
<text text-anchor="middle" x="651" y="-1228" font-family="Helvetica,sans-Serif" font-size="10.00">xiiMsgInputActionTriggered</text>
</a>
</g>
</g>
<!-- Node4&#45;&gt;Node10 -->
<g id="edge9_Node000004_Node000010" class="edge">
<title>Node4&#45;&gt;Node10</title>
<g id="a_edge9_Node000004_Node000010"><a xlink:title=" ">
<path fill="none" stroke="#63b8ff" d="M495.2,-1230.5C520.32,-1230.5 549.85,-1230.5 576.35,-1230.5"/>
<polygon fill="#63b8ff" stroke="#63b8ff" points="495.1,-1227 485.1,-1230.5 495.1,-1234 495.1,-1227"/>
</a>
</g>
</g>
<!-- Node11 -->
<g id="Node000011" class="node">
<title>Node11</title>
<g id="a_Node000011"><a xlink:href="../../dd/d55/structxii_msg_path_changed.html" target="_top" xlink:title=" ">
<polygon fill="white" stroke="#bfbfbf" points="707.5,-1203 594.5,-1203 594.5,-1184 707.5,-1184 707.5,-1203"/>
<text text-anchor="middle" x="651" y="-1191" font-family="Helvetica,sans-Serif" font-size="10.00">xiiMsgPathChanged</text>
</a>
</g>
</g>
<!-- Node4&#45;&gt;Node11 -->
<g id="edge10_Node000004_Node000011" class="edge">
<title>Node4&#45;&gt;Node11</title>
<g id="a_edge10_Node000004_Node000011"><a xlink:title=" ">
<path fill="none" stroke="#63b8ff" d="M494.95,-1220.31C526.11,-1214.92 564.13,-1208.35 594.73,-1203.06"/>
<polygon fill="#63b8ff" stroke="#63b8ff" points="494.35,-1216.86 485.1,-1222.01 495.55,-1223.76 494.35,-1216.86"/>
</a>
</g>
</g>
<!-- Node12 -->
<g id="Node000012" class="node">
<title>Node12</title>
<g id="a_Node000012"><a xlink:href="../../d9/dba/structxii_msg_physics_joint_broke.html" target="_top" xlink:title=" ">
<polygon fill="white" stroke="#bfbfbf" points="718.5,-1166 583.5,-1166 583.5,-1147 718.5,-1147 718.5,-1166"/>
<text text-anchor="middle" x="651" y="-1154" font-family="Helvetica,sans-Serif" font-size="10.00">xiiMsgPhysicsJointBroke</text>
</a>
</g>
</g>
<!-- Node4&#45;&gt;Node12 -->
<g id="edge11_Node000004_Node000012" class="edge">
<title>Node4&#45;&gt;Node12</title>
<g id="a_edge11_Node000004_Node000012"><a xlink:title=" ">
<path fill="none" stroke="#63b8ff" d="M495.23,-1222.46C504.87,-1219.79 514.47,-1216.24 523,-1211.5 543.06,-1200.36 538.83,-1185.44 559,-1174.5 566.5,-1170.43 574.8,-1167.27 583.24,-1164.83"/>
<polygon fill="#63b8ff" stroke="#63b8ff" points="494.09,-1219.14 485.22,-1224.93 495.77,-1225.93 494.09,-1219.14"/>
</a>
</g>
</g>
<!-- Node13 -->
<g id="Node000013" class="node">
<title>Node13</title>
<g id="a_Node000013"><a xlink:href="../../d9/daa/structxii_msg_sensor_detected_objects_changed.html" target="_top" xlink:title=" ">
<polygon fill="white" stroke="#bfbfbf" points="732.5,-1128.5 569.5,-1128.5 569.5,-1098.5 732.5,-1098.5 732.5,-1128.5"/>
<text text-anchor="start" x="577.5" y="-1116.5" font-family="Helvetica,sans-Serif" font-size="10.00">xiiMsgSensorDetectedObjects</text>
<text text-anchor="middle" x="651" y="-1105.5" font-family="Helvetica,sans-Serif" font-size="10.00">Changed</text>
</a>
</g>
</g>
<!-- Node4&#45;&gt;Node13 -->
<g id="edge12_Node000004_Node000013" class="edge">
<title>Node4&#45;&gt;Node13</title>
<g id="a_edge12_Node000004_Node000013"><a xlink:title=" ">
<path fill="none" stroke="#63b8ff" d="M495.38,-1225.06C505.31,-1222.13 514.98,-1217.81 523,-1211.5 551.75,-1188.89 530.74,-1160.72 559,-1137.5 563.17,-1134.08 567.77,-1131.14 572.63,-1128.61"/>
<polygon fill="#63b8ff" stroke="#63b8ff" points="494.26,-1221.73 485.41,-1227.56 495.96,-1228.52 494.26,-1221.73"/>
</a>
</g>
</g>
<!-- Node14 -->
<g id="Node000014" class="node">
<title>Node14</title>
<g id="a_Node000014"><a xlink:href="../../d7/d80/structxii_msg_state_machine_state_changed.html" target="_top" xlink:title="Message that is sent by xiiStateMachineState_SendMsg once the state is entered.">
<polygon fill="white" stroke="#666666" points="743,-1080 559,-1080 559,-1061 743,-1061 743,-1080"/>
<text text-anchor="middle" x="651" y="-1068" font-family="Helvetica,sans-Serif" font-size="10.00">xiiMsgStateMachineStateChanged</text>
</a>
</g>
</g>
<!-- Node4&#45;&gt;Node14 -->
<g id="edge13_Node000004_Node000014" class="edge">
<title>Node4&#45;&gt;Node14</title>
<g id="a_edge13_Node000004_Node000014"><a xlink:title=" ">
<path fill="none" stroke="#63b8ff" d="M494.96,-1226.52C505.28,-1223.49 515.2,-1218.76 523,-1211.5 564.39,-1172.99 517.44,-1127.82 559,-1089.5 563.03,-1085.78 567.6,-1082.71 572.49,-1080.19"/>
<polygon fill="#63b8ff" stroke="#63b8ff" points="493.89,-1223.18 485,-1228.94 495.54,-1229.98 493.89,-1223.18"/>
</a>
</g>
</g>
<!-- Node15 -->
<g id="Node000015" class="node">
<title>Node15</title>
<g id="a_Node000015"><a xlink:href="../../d8/df9/structxii_msg_trigger_triggered.html" target="_top" xlink:title="Sent when something enters or leaves a trigger.">
<polygon fill="white" stroke="#666666" points="714.5,-1043 587.5,-1043 587.5,-1024 714.5,-1024 714.5,-1043"/>
<text text-anchor="middle" x="651" y="-1031" font-family="Helvetica,sans-Serif" font-size="10.00">xiiMsgTriggerTriggered</text>
</a>
</g>
</g>
<!-- Node4&#45;&gt;Node15 -->
<g id="edge14_Node000004_Node000015" class="edge">
<title>Node4&#45;&gt;Node15</title>
<g id="a_edge14_Node000004_Node000015"><a xlink:title=" ">
<path fill="none" stroke="#63b8ff" d="M495.35,-1226.93C505.64,-1223.86 515.44,-1219.02 523,-1211.5 574.7,-1160.12 506.79,-1102.37 559,-1051.5 566.73,-1043.97 576.64,-1039.15 587.07,-1036.13"/>
<polygon fill="#63b8ff" stroke="#63b8ff" points="494.29,-1223.59 485.4,-1229.35 495.94,-1230.39 494.29,-1223.59"/>
</a>
</g>
</g>
</g>
</svg>
