<?xml version="1.0" encoding="UTF-8" standalone="no"?>
<!DOCTYPE svg PUBLIC "-//W3C//DTD SVG 1.1//EN"
 "http://www.w3.org/Graphics/SVG/1.1/DTD/svg11.dtd">
<!-- Generated by graphviz version 2.43.0 (0)
 -->
<!-- Title: xiiSetBase&lt; KeyType, Comparer &gt; Pages: 1 -->
<svg width="341pt" height="615pt"
 viewBox="0.00 0.00 341.00 614.50" xmlns="http://www.w3.org/2000/svg" xmlns:xlink="http://www.w3.org/1999/xlink">
<g id="graph0" class="graph" transform="scale(1 1) rotate(0) translate(4 610.5)">
<title>xiiSetBase&lt; KeyType, Comparer &gt;</title>
<!-- Node1 -->
<g id="Node000001" class="node">
<title>Node1</title>
<g id="a_Node000001"><a xlink:title="A set container that only stores whether an element resides in it or not. Similar to STL::set.">
<polygon fill="#999999" stroke="#666666" points="123,-313 0,-313 0,-283 123,-283 123,-313"/>
<text text-anchor="start" x="8" y="-301" font-family="Helvetica,sans-Serif" font-size="10.00">xiiSetBase&lt; KeyType,</text>
<text text-anchor="middle" x="61.5" y="-290" font-family="Helvetica,sans-Serif" font-size="10.00"> Comparer &gt;</text>
</a>
</g>
</g>
<!-- Node2 -->
<g id="Node000002" class="node">
<title>Node2</title>
<g id="a_Node000002"><a xlink:href="../../d6/d31/classxii_set.html" target="_top" xlink:title=" ">
<polygon fill="white" stroke="#666666" points="316,-606.5 176,-606.5 176,-587.5 316,-587.5 316,-606.5"/>
<text text-anchor="middle" x="246" y="-594.5" font-family="Helvetica,sans-Serif" font-size="10.00">xiiSet&lt; xiiHybridString &gt;</text>
</a>
</g>
</g>
<!-- Node1&#45;&gt;Node2 -->
<g id="edge1_Node000001_Node000002" class="edge">
<title>Node1&#45;&gt;Node2</title>
<g id="a_edge1_Node000001_Node000002"><a xlink:title=" ">
<path fill="none" stroke="#63b8ff" d="M63.37,-323.5C66.71,-378.74 82.7,-509.97 159,-578 163.91,-582.38 169.59,-585.82 175.66,-588.52"/>
<polygon fill="#63b8ff" stroke="#63b8ff" points="66.85,-323.02 62.85,-313.21 59.86,-323.37 66.85,-323.02"/>
</a>
</g>
</g>
<!-- Node3 -->
<g id="Node000003" class="node">
<title>Node3</title>
<g id="a_Node000003"><a xlink:href="../../d6/d31/classxii_set.html" target="_top" xlink:title=" ">
<polygon fill="white" stroke="#666666" points="320.5,-569 171.5,-569 171.5,-539 320.5,-539 320.5,-569"/>
<text text-anchor="start" x="179.5" y="-557" font-family="Helvetica,sans-Serif" font-size="10.00">xiiSet&lt; xiiActionDescriptor</text>
<text text-anchor="middle" x="246" y="-546" font-family="Helvetica,sans-Serif" font-size="10.00">Handle &gt;</text>
</a>
</g>
</g>
<!-- Node1&#45;&gt;Node3 -->
<g id="edge2_Node000001_Node000003" class="edge">
<title>Node1&#45;&gt;Node3</title>
<g id="a_edge2_Node000001_Node000003"><a xlink:title=" ">
<path fill="none" stroke="#63b8ff" d="M65.7,-323.12C73.13,-370.71 95.96,-474.22 159,-530 162.83,-533.39 167.1,-536.3 171.64,-538.81"/>
<polygon fill="#63b8ff" stroke="#63b8ff" points="69.14,-322.46 64.24,-313.07 62.22,-323.47 69.14,-322.46"/>
</a>
</g>
</g>
<!-- Node4 -->
<g id="Node000004" class="node">
<title>Node4</title>
<g id="a_Node000004"><a xlink:href="../../d6/d31/classxii_set.html" target="_top" xlink:title=" ">
<polygon fill="white" stroke="#666666" points="296.5,-520.5 195.5,-520.5 195.5,-501.5 296.5,-501.5 296.5,-520.5"/>
<text text-anchor="middle" x="246" y="-508.5" font-family="Helvetica,sans-Serif" font-size="10.00">xiiSet&lt; xiiUuid &gt;</text>
</a>
</g>
</g>
<!-- Node1&#45;&gt;Node4 -->
<g id="edge3_Node000001_Node000004" class="edge">
<title>Node1&#45;&gt;Node4</title>
<g id="a_edge3_Node000001_Node000004"><a xlink:title=" ">
<path fill="none" stroke="#63b8ff" d="M67.48,-322.99C77.22,-365.04 102.95,-449.61 159,-493 169.37,-501.03 182.48,-505.7 195.32,-508.35"/>
<polygon fill="#63b8ff" stroke="#63b8ff" points="70.85,-322.04 65.29,-313.03 64.01,-323.55 70.85,-322.04"/>
</a>
</g>
</g>
<!-- Node5 -->
<g id="Node000005" class="node">
<title>Node5</title>
<g id="a_Node000005"><a xlink:href="../../d6/d31/classxii_set.html" target="_top" xlink:title=" ">
<polygon fill="white" stroke="#666666" points="320.5,-483.5 171.5,-483.5 171.5,-464.5 320.5,-464.5 320.5,-483.5"/>
<text text-anchor="middle" x="246" y="-471.5" font-family="Helvetica,sans-Serif" font-size="10.00">xiiSet&lt; xiiDataTransfer * &gt;</text>
</a>
</g>
</g>
<!-- Node1&#45;&gt;Node5 -->
<g id="edge4_Node000001_Node000005" class="edge">
<title>Node1&#45;&gt;Node5</title>
<g id="a_edge4_Node000001_Node000005"><a xlink:title=" ">
<path fill="none" stroke="#63b8ff" d="M70.42,-322.56C83.16,-357.93 111.67,-422.61 159,-456 163.74,-459.34 168.96,-462.09 174.43,-464.34"/>
<polygon fill="#63b8ff" stroke="#63b8ff" points="73.69,-321.31 67.11,-313.01 67.08,-323.6 73.69,-321.31"/>
</a>
</g>
</g>
<!-- Node6 -->
<g id="Node000006" class="node">
<title>Node6</title>
<g id="a_Node000006"><a xlink:href="../../d6/d31/classxii_set.html" target="_top" xlink:title=" ">
<polygon fill="white" stroke="#666666" points="314.5,-446.5 177.5,-446.5 177.5,-427.5 314.5,-427.5 314.5,-446.5"/>
<text text-anchor="middle" x="246" y="-434.5" font-family="Helvetica,sans-Serif" font-size="10.00">xiiSet&lt; const xiiRTTI * &gt;</text>
</a>
</g>
</g>
<!-- Node1&#45;&gt;Node6 -->
<g id="edge5_Node000001_Node000006" class="edge">
<title>Node1&#45;&gt;Node6</title>
<g id="a_edge5_Node000001_Node000006"><a xlink:title=" ">
<path fill="none" stroke="#63b8ff" d="M75.29,-322.31C91.15,-349.95 120.8,-394.29 159,-418 165.24,-421.87 172.16,-424.96 179.29,-427.42"/>
<polygon fill="#63b8ff" stroke="#63b8ff" points="78.19,-320.33 70.27,-313.29 72.08,-323.73 78.19,-320.33"/>
</a>
</g>
</g>
<!-- Node7 -->
<g id="Node000007" class="node">
<title>Node7</title>
<g id="a_Node000007"><a xlink:href="../../d6/d31/classxii_set.html" target="_top" xlink:title=" ">
<polygon fill="white" stroke="#666666" points="319.5,-409 172.5,-409 172.5,-379 319.5,-379 319.5,-409"/>
<text text-anchor="start" x="180.5" y="-397" font-family="Helvetica,sans-Serif" font-size="10.00">xiiSet&lt; const xiiDocument</text>
<text text-anchor="middle" x="246" y="-386" font-family="Helvetica,sans-Serif" font-size="10.00">Object * &gt;</text>
</a>
</g>
</g>
<!-- Node1&#45;&gt;Node7 -->
<g id="edge6_Node000001_Node000007" class="edge">
<title>Node1&#45;&gt;Node7</title>
<g id="a_edge6_Node000001_Node000007"><a xlink:title=" ">
<path fill="none" stroke="#63b8ff" d="M86.34,-319.75C104.93,-335.69 132.03,-356.75 159,-370 165.82,-373.35 173.18,-376.29 180.62,-378.87"/>
<polygon fill="#63b8ff" stroke="#63b8ff" points="88.51,-317 78.68,-313.06 83.91,-322.28 88.51,-317"/>
</a>
</g>
</g>
<!-- Node8 -->
<g id="Node000008" class="node">
<title>Node8</title>
<g id="a_Node000008"><a xlink:href="../../d6/d31/classxii_set.html" target="_top" xlink:title=" ">
<polygon fill="white" stroke="#666666" points="306.5,-361 185.5,-361 185.5,-331 306.5,-331 306.5,-361"/>
<text text-anchor="start" x="193.5" y="-349" font-family="Helvetica,sans-Serif" font-size="10.00">xiiSet&lt; xiiExpression</text>
<text text-anchor="middle" x="246" y="-338" font-family="Helvetica,sans-Serif" font-size="10.00">::FunctionDesc &gt;</text>
</a>
</g>
</g>
<!-- Node1&#45;&gt;Node8 -->
<g id="edge7_Node000001_Node000008" class="edge">
<title>Node1&#45;&gt;Node8</title>
<g id="a_edge7_Node000001_Node000008"><a xlink:title=" ">
<path fill="none" stroke="#63b8ff" d="M129.6,-315.65C148.77,-320.69 169.46,-326.13 187.96,-331"/>
<polygon fill="#63b8ff" stroke="#63b8ff" points="130.3,-312.21 119.74,-313.06 128.52,-318.98 130.3,-312.21"/>
</a>
</g>
</g>
<!-- Node9 -->
<g id="Node000009" class="node">
<title>Node9</title>
<g id="a_Node000009"><a xlink:href="../../d6/d31/classxii_set.html" target="_top" xlink:title=" ">
<polygon fill="white" stroke="#666666" points="323.5,-313 168.5,-313 168.5,-283 323.5,-283 323.5,-313"/>
<text text-anchor="start" x="176.5" y="-301" font-family="Helvetica,sans-Serif" font-size="10.00">xiiSet&lt; xiiGALCommandList</text>
<text text-anchor="middle" x="246" y="-290" font-family="Helvetica,sans-Serif" font-size="10.00">Vulkan * &gt;</text>
</a>
</g>
</g>
<!-- Node1&#45;&gt;Node9 -->
<g id="edge8_Node000001_Node000009" class="edge">
<title>Node1&#45;&gt;Node9</title>
<g id="a_edge8_Node000001_Node000009"><a xlink:title=" ">
<path fill="none" stroke="#63b8ff" d="M133.05,-298C144.63,-298 156.68,-298 168.39,-298"/>
<polygon fill="#63b8ff" stroke="#63b8ff" points="133.02,-294.5 123.02,-298 133.02,-301.5 133.02,-294.5"/>
</a>
</g>
</g>
<!-- Node10 -->
<g id="Node000010" class="node">
<title>Node10</title>
<g id="a_Node000010"><a xlink:href="../../d6/d31/classxii_set.html" target="_top" xlink:title=" ">
<polygon fill="white" stroke="#666666" points="330,-264.5 162,-264.5 162,-245.5 330,-245.5 330,-264.5"/>
<text text-anchor="middle" x="246" y="-252.5" font-family="Helvetica,sans-Serif" font-size="10.00">xiiSet&lt; xiiGALTextureHandle &gt;</text>
</a>
</g>
</g>
<!-- Node1&#45;&gt;Node10 -->
<g id="edge9_Node000001_Node000010" class="edge">
<title>Node1&#45;&gt;Node10</title>
<g id="a_edge9_Node000001_Node000010"><a xlink:title=" ">
<path fill="none" stroke="#63b8ff" d="M131.76,-280.54C140.91,-278.3 150.18,-276.07 159,-274 172.55,-270.82 187.33,-267.5 200.76,-264.54"/>
<polygon fill="#63b8ff" stroke="#63b8ff" points="130.77,-277.18 121.9,-282.97 132.44,-283.98 130.77,-277.18"/>
</a>
</g>
</g>
<!-- Node11 -->
<g id="Node000011" class="node">
<title>Node11</title>
<g id="a_Node000011"><a xlink:href="../../d6/d31/classxii_set.html" target="_top" xlink:title=" ">
<polygon fill="white" stroke="#666666" points="327,-227.5 165,-227.5 165,-208.5 327,-208.5 327,-227.5"/>
<text text-anchor="middle" x="246" y="-215.5" font-family="Helvetica,sans-Serif" font-size="10.00">xiiSet&lt; xiiGALBufferHandle &gt;</text>
</a>
</g>
</g>
<!-- Node1&#45;&gt;Node11 -->
<g id="edge10_Node000001_Node000011" class="edge">
<title>Node1&#45;&gt;Node11</title>
<g id="a_edge10_Node000001_Node000011"><a xlink:title=" ">
<path fill="none" stroke="#63b8ff" d="M90.35,-276.73C108.9,-263.51 134.32,-247.16 159,-237 168.33,-233.16 178.57,-230.03 188.62,-227.51"/>
<polygon fill="#63b8ff" stroke="#63b8ff" points="88.12,-274.03 82.08,-282.74 92.23,-279.69 88.12,-274.03"/>
</a>
</g>
</g>
<!-- Node12 -->
<g id="Node000012" class="node">
<title>Node12</title>
<g id="a_Node000012"><a xlink:href="../../d6/d31/classxii_set.html" target="_top" xlink:title=" ">
<polygon fill="white" stroke="#666666" points="331,-190.5 161,-190.5 161,-171.5 331,-171.5 331,-190.5"/>
<text text-anchor="middle" x="246" y="-178.5" font-family="Helvetica,sans-Serif" font-size="10.00">xiiSet&lt; xiiTempHashedString &gt;</text>
</a>
</g>
</g>
<!-- Node1&#45;&gt;Node12 -->
<g id="edge11_Node000001_Node000012" class="edge">
<title>Node1&#45;&gt;Node12</title>
<g id="a_edge11_Node000001_Node000012"><a xlink:title=" ">
<path fill="none" stroke="#63b8ff" d="M79.06,-274.63C96.38,-251.99 125.65,-218.45 159,-200 165.96,-196.15 173.64,-193.08 181.46,-190.63"/>
<polygon fill="#63b8ff" stroke="#63b8ff" points="76.2,-272.61 73.02,-282.72 81.81,-276.8 76.2,-272.61"/>
</a>
</g>
</g>
<!-- Node13 -->
<g id="Node000013" class="node">
<title>Node13</title>
<g id="a_Node000013"><a xlink:href="../../d6/d31/classxii_set.html" target="_top" xlink:title=" ">
<polygon fill="white" stroke="#666666" points="299.5,-153.5 192.5,-153.5 192.5,-134.5 299.5,-134.5 299.5,-153.5"/>
<text text-anchor="middle" x="246" y="-141.5" font-family="Helvetica,sans-Serif" font-size="10.00">xiiSet&lt; Request &gt;</text>
</a>
</g>
</g>
<!-- Node1&#45;&gt;Node13 -->
<g id="edge12_Node000001_Node000013" class="edge">
<title>Node1&#45;&gt;Node13</title>
<g id="a_edge12_Node000001_Node000013"><a xlink:title=" ">
<path fill="none" stroke="#63b8ff" d="M73.18,-273.43C87.88,-242.62 117.35,-190.51 159,-163 168.82,-156.51 180.52,-152.21 192.07,-149.36"/>
<polygon fill="#63b8ff" stroke="#63b8ff" points="69.94,-272.08 68.92,-282.62 76.3,-275.01 69.94,-272.08"/>
</a>
</g>
</g>
<!-- Node14 -->
<g id="Node000014" class="node">
<title>Node14</title>
<g id="a_Node000014"><a xlink:href="../../d6/d31/classxii_set.html" target="_top" xlink:title=" ">
<polygon fill="white" stroke="#666666" points="314,-116 178,-116 178,-86 314,-86 314,-116"/>
<text text-anchor="start" x="186" y="-104" font-family="Helvetica,sans-Serif" font-size="10.00">xiiSet&lt; xiiReflectedType</text>
<text text-anchor="middle" x="246" y="-93" font-family="Helvetica,sans-Serif" font-size="10.00">StorageAccessor * &gt;</text>
</a>
</g>
</g>
<!-- Node1&#45;&gt;Node14 -->
<g id="edge13_Node000001_Node000014" class="edge">
<title>Node1&#45;&gt;Node14</title>
<g id="a_edge13_Node000001_Node000014"><a xlink:title=" ">
<path fill="none" stroke="#63b8ff" d="M69.72,-273.13C81.9,-235.62 110.11,-164.83 159,-126 164.6,-121.55 170.97,-117.89 177.64,-114.89"/>
<polygon fill="#63b8ff" stroke="#63b8ff" points="66.35,-272.18 66.71,-282.77 73.03,-274.27 66.35,-272.18"/>
</a>
</g>
</g>
<!-- Node15 -->
<g id="Node000015" class="node">
<title>Node15</title>
<g id="a_Node000015"><a xlink:href="../../d6/d31/classxii_set.html" target="_top" xlink:title=" ">
<polygon fill="white" stroke="#666666" points="333,-67.5 159,-67.5 159,-48.5 333,-48.5 333,-67.5"/>
<text text-anchor="middle" x="246" y="-55.5" font-family="Helvetica,sans-Serif" font-size="10.00">xiiSet&lt; xiiGameObjectHandle &gt;</text>
</a>
</g>
</g>
<!-- Node1&#45;&gt;Node15 -->
<g id="edge14_Node000001_Node000015" class="edge">
<title>Node1&#45;&gt;Node15</title>
<g id="a_edge14_Node000001_Node000015"><a xlink:title=" ">
<path fill="none" stroke="#63b8ff" d="M65.98,-272.78C73.76,-226.47 97.03,-127.96 159,-77 163.61,-73.21 168.8,-70.14 174.31,-67.65"/>
<polygon fill="#63b8ff" stroke="#63b8ff" points="62.49,-272.44 64.4,-282.86 69.41,-273.53 62.49,-272.44"/>
</a>
</g>
</g>
<!-- Node16 -->
<g id="Node000016" class="node">
<title>Node16</title>
<g id="a_Node000016"><a xlink:href="../../d6/d31/classxii_set.html" target="_top" xlink:title=" ">
<polygon fill="white" stroke="#666666" points="322.5,-30 169.5,-30 169.5,0 322.5,0 322.5,-30"/>
<text text-anchor="start" x="177.5" y="-18" font-family="Helvetica,sans-Serif" font-size="10.00">xiiSet&lt; KeyType, Comparer,</text>
<text text-anchor="middle" x="246" y="-7" font-family="Helvetica,sans-Serif" font-size="10.00"> AllocatorWrapper &gt;</text>
</a>
</g>
</g>
<!-- Node1&#45;&gt;Node16 -->
<g id="edge15_Node000001_Node000016" class="edge">
<title>Node1&#45;&gt;Node16</title>
<g id="a_edge15_Node000001_Node000016"><a xlink:title=" ">
<path fill="none" stroke="#63b8ff" d="M64.58,-272.72C70.2,-221.25 90.24,-103.78 159,-40 163.1,-36.19 167.75,-32.96 172.72,-30.22"/>
<polygon fill="#63b8ff" stroke="#63b8ff" points="61.08,-272.64 63.57,-282.93 68.04,-273.33 61.08,-272.64"/>
</a>
</g>
</g>
</g>
</svg>
