<?xml version="1.0" encoding="UTF-8" standalone="no"?>
<!DOCTYPE svg PUBLIC "-//W3C//DTD SVG 1.1//EN"
 "http://www.w3.org/Graphics/SVG/1.1/DTD/svg11.dtd">
<!-- Generated by graphviz version 2.43.0 (0)
 -->
<!-- Title: xiiLayerDragDropHandler Pages: 1 -->
<svg width="360pt" height="258pt"
 viewBox="0.00 0.00 360.00 258.00" xmlns="http://www.w3.org/2000/svg" xmlns:xlink="http://www.w3.org/1999/xlink">

<svg id="main" version="1.1" xmlns="http://www.w3.org/2000/svg" xmlns:xlink="http://www.w3.org/1999/xlink" xml:space="preserve" onload="init(evt)">
<style type="text/css"><![CDATA[
.node, .edge {opacity: 0.7;}
.node.selected, .edge.selected {opacity: 1;}
.edge:hover path { stroke: red; }
.edge:hover polygon { stroke: red; fill: red; }
]]></style>
<script type="application/ecmascript" xlink:href="../../svg.min.js"/>
<svg id="graph" class="graph">
<g id="graph0" class="graph" transform="scale(1 1) rotate(0) translate(4 254)">
<title>xiiLayerDragDropHandler</title>
<!-- Node1 -->
<g id="Node000001" class="node">
<title>Node1</title>
<g id="a_Node000001"><a xlink:title="Base class for drag and drop handler that drop on a xiiSceneLayer.">
<polygon fill="#999999" stroke="#666666" points="238.5,-85 98.5,-85 98.5,-66 238.5,-66 238.5,-85"/>
<text text-anchor="middle" x="168.5" y="-73" font-family="Helvetica,sans-Serif" font-size="10.00">xiiLayerDragDropHandler</text>
</a>
</g>
</g>
<!-- Node5 -->
<g id="Node000005" class="node">
<title>Node5</title>
<g id="a_Node000005"><a xlink:href="../../d9/db6/classxii_game_object_on_layer_drag_drop_handler.htm" target="_top" xlink:title=" ">
<polygon fill="white" stroke="#bfbfbf" points="153,-30 0,-30 0,0 153,0 153,-30"/>
<text text-anchor="start" x="8" y="-18" font-family="Helvetica,sans-Serif" font-size="10.00">xiiGameObjectOnLayerDrag</text>
<text text-anchor="middle" x="76.5" y="-7" font-family="Helvetica,sans-Serif" font-size="10.00">DropHandler</text>
</a>
</g>
</g>
<!-- Node1&#45;&gt;Node5 -->
<g id="edge4_Node000001_Node000005" class="edge">
<title>Node1&#45;&gt;Node5</title>
<g id="a_edge4_Node000001_Node000005"><a xlink:title=" ">
<path fill="none" stroke="#63b8ff" d="M146.16,-60.29C131.75,-51.13 113.08,-39.26 98.7,-30.11"/>
<polygon fill="#63b8ff" stroke="#63b8ff" points="144.61,-63.46 154.93,-65.87 148.36,-57.55 144.61,-63.46"/>
</a>
</g>
</g>
<!-- Node6 -->
<g id="Node000006" class="node">
<title>Node6</title>
<g id="a_Node000006"><a xlink:href="../../dd/df7/classxii_layer_on_layer_drag_drop_handler.htm" target="_top" xlink:title=" ">
<polygon fill="white" stroke="#bfbfbf" points="352,-24.5 171,-24.5 171,-5.5 352,-5.5 352,-24.5"/>
<text text-anchor="middle" x="261.5" y="-12.5" font-family="Helvetica,sans-Serif" font-size="10.00">xiiLayerOnLayerDragDropHandler</text>
</a>
</g>
</g>
<!-- Node1&#45;&gt;Node6 -->
<g id="edge5_Node000001_Node000006" class="edge">
<title>Node1&#45;&gt;Node6</title>
<g id="a_edge5_Node000001_Node000006"><a xlink:title=" ">
<path fill="none" stroke="#63b8ff" d="M190.81,-60.47C208.52,-49.32 232.72,-34.1 247.72,-24.67"/>
<polygon fill="#63b8ff" stroke="#63b8ff" points="188.82,-57.58 182.22,-65.87 192.55,-63.51 188.82,-57.58"/>
</a>
</g>
</g>
<!-- Node2 -->
<g id="Node000002" class="node">
<title>Node2</title>
<g id="a_Node000002"><a xlink:href="../../db/d24/classxii_drag_drop_handler.htm" target="_top" xlink:title=" ">
<polygon fill="white" stroke="#bfbfbf" points="225,-140 112,-140 112,-121 225,-121 225,-140"/>
<text text-anchor="middle" x="168.5" y="-128" font-family="Helvetica,sans-Serif" font-size="10.00">xiiDragDropHandler</text>
</a>
</g>
</g>
<!-- Node2&#45;&gt;Node1 -->
<g id="edge1_Node000001_Node000002" class="edge">
<title>Node2&#45;&gt;Node1</title>
<g id="a_edge1_Node000001_Node000002"><a xlink:title=" ">
<path fill="none" stroke="#63b8ff" d="M168.5,-110.66C168.5,-101.93 168.5,-91.99 168.5,-85.09"/>
<polygon fill="#63b8ff" stroke="#63b8ff" points="165,-110.75 168.5,-120.75 172,-110.75 165,-110.75"/>
</a>
</g>
</g>
<!-- Node3 -->
<g id="Node000003" class="node">
<title>Node3</title>
<g id="a_Node000003"><a xlink:href="../../dc/d71/classxii_reflected_class.htm" target="_top" xlink:title="All classes that should be dynamically reflectable, need to be derived from this base class.">
<polygon fill="white" stroke="#666666" points="219,-195 118,-195 118,-176 219,-176 219,-195"/>
<text text-anchor="middle" x="168.5" y="-183" font-family="Helvetica,sans-Serif" font-size="10.00">xiiReflectedClass</text>
</a>
</g>
</g>
<!-- Node3&#45;&gt;Node2 -->
<g id="edge2_Node000002_Node000003" class="edge">
<title>Node3&#45;&gt;Node2</title>
<g id="a_edge2_Node000002_Node000003"><a xlink:title=" ">
<path fill="none" stroke="#63b8ff" d="M168.5,-165.66C168.5,-156.93 168.5,-146.99 168.5,-140.09"/>
<polygon fill="#63b8ff" stroke="#63b8ff" points="165,-165.75 168.5,-175.75 172,-165.75 165,-165.75"/>
</a>
</g>
</g>
<!-- Node4 -->
<g id="Node000004" class="node">
<title>Node4</title>
<g id="a_Node000004"><a xlink:href="../../d2/d38/classxii_no_base.htm" target="_top" xlink:title="Dummy type to pass to templates and macros that expect a base type for a class that has no base.">
<polygon fill="white" stroke="#666666" points="201.5,-250 135.5,-250 135.5,-231 201.5,-231 201.5,-250"/>
<text text-anchor="middle" x="168.5" y="-238" font-family="Helvetica,sans-Serif" font-size="10.00">xiiNoBase</text>
</a>
</g>
</g>
<!-- Node4&#45;&gt;Node3 -->
<g id="edge3_Node000003_Node000004" class="edge">
<title>Node4&#45;&gt;Node3</title>
<g id="a_edge3_Node000003_Node000004"><a xlink:title=" ">
<path fill="none" stroke="#63b8ff" d="M168.5,-220.66C168.5,-211.93 168.5,-201.99 168.5,-195.09"/>
<polygon fill="#63b8ff" stroke="#63b8ff" points="165,-220.75 168.5,-230.75 172,-220.75 165,-220.75"/>
</a>
</g>
</g>
</g>
</svg>
</svg>

<style type='text/css'>
<![CDATA[
[data-mouse-over-selected='false'] { opacity: 0.7; }
[data-mouse-over-selected='true']  { opacity: 1.0; }
]]>
</style>
<script type="application/ecmascript"><![CDATA[
document.addEventListener('DOMContentLoaded', (event) => {
  highlightEdges();
  highlightAdjacentNodes();
});
]]></script>
</svg>
