<?xml version="1.0" encoding="UTF-8" standalone="no"?>
<!DOCTYPE svg PUBLIC "-//W3C//DTD SVG 1.1//EN"
 "http://www.w3.org/Graphics/SVG/1.1/DTD/svg11.dtd">
<!-- Generated by graphviz version 2.43.0 (0)
 -->
<!-- Title: xiiLayerDragDropHandler Pages: 1 -->
<svg width="360pt" height="263pt"
 viewBox="0.00 0.00 360.00 263.00" xmlns="http://www.w3.org/2000/svg" xmlns:xlink="http://www.w3.org/1999/xlink">
<g id="graph0" class="graph" transform="scale(1 1) rotate(0) translate(4 259)">
<title>xiiLayerDragDropHandler</title>
<polygon fill="white" stroke="transparent" points="-4,4 -4,-259 356,-259 356,4 -4,4"/>
<!-- Node1 -->
<g id="node1" class="node">
<title>Node1</title>
<g id="a_node1"><a xlink:title="Base class for drag and drop handler that drop on a xiiSceneLayer.">
<polygon fill="#bfbfbf" stroke="black" points="98.5,-67.5 98.5,-86.5 238.5,-86.5 238.5,-67.5 98.5,-67.5"/>
<text text-anchor="middle" x="168.5" y="-74.5" font-family="Helvetica,sans-Serif" font-size="10.00">xiiLayerDragDropHandler</text>
</a>
</g>
</g>
<!-- Node5 -->
<g id="node5" class="node">
<title>Node5</title>
<g id="a_node5"><a xlink:href="../../d9/db6/classxii_game_object_on_layer_drag_drop_handler.htm" target="_top" xlink:title=" ">
<polygon fill="white" stroke="black" points="0,-0.5 0,-30.5 153,-30.5 153,-0.5 0,-0.5"/>
<text text-anchor="start" x="8" y="-18.5" font-family="Helvetica,sans-Serif" font-size="10.00">xiiGameObjectOnLayerDrag</text>
<text text-anchor="middle" x="76.5" y="-7.5" font-family="Helvetica,sans-Serif" font-size="10.00">DropHandler</text>
</a>
</g>
</g>
<!-- Node1&#45;&gt;Node5 -->
<g id="edge4" class="edge">
<title>Node1&#45;&gt;Node5</title>
<path fill="none" stroke="midnightblue" d="M146.87,-62.01C132.19,-52.52 112.87,-40.02 98.18,-30.52"/>
<polygon fill="midnightblue" stroke="midnightblue" points="145.02,-64.98 155.32,-67.48 148.82,-59.11 145.02,-64.98"/>
</g>
<!-- Node6 -->
<g id="node6" class="node">
<title>Node6</title>
<g id="a_node6"><a xlink:href="../../dd/df7/classxii_layer_on_layer_drag_drop_handler.htm" target="_top" xlink:title=" ">
<polygon fill="white" stroke="black" points="171,-6 171,-25 352,-25 352,-6 171,-6"/>
<text text-anchor="middle" x="261.5" y="-13" font-family="Helvetica,sans-Serif" font-size="10.00">xiiLayerOnLayerDragDropHandler</text>
</a>
</g>
</g>
<!-- Node1&#45;&gt;Node6 -->
<g id="edge5" class="edge">
<title>Node1&#45;&gt;Node6</title>
<path fill="none" stroke="midnightblue" d="M190.49,-61.93C208.42,-50.46 233.16,-34.63 248.2,-25.01"/>
<polygon fill="midnightblue" stroke="midnightblue" points="188.36,-59.14 181.82,-67.48 192.13,-65.03 188.36,-59.14"/>
</g>
<!-- Node2 -->
<g id="node2" class="node">
<title>Node2</title>
<g id="a_node2"><a xlink:href="../../db/d24/classxii_drag_drop_handler.htm" target="_top" xlink:title=" ">
<polygon fill="white" stroke="black" points="112,-123.5 112,-142.5 225,-142.5 225,-123.5 112,-123.5"/>
<text text-anchor="middle" x="168.5" y="-130.5" font-family="Helvetica,sans-Serif" font-size="10.00">xiiDragDropHandler</text>
</a>
</g>
</g>
<!-- Node2&#45;&gt;Node1 -->
<g id="edge1" class="edge">
<title>Node2&#45;&gt;Node1</title>
<path fill="none" stroke="midnightblue" d="M168.5,-112.8C168.5,-103.91 168.5,-93.78 168.5,-86.75"/>
<polygon fill="midnightblue" stroke="midnightblue" points="165,-113.08 168.5,-123.08 172,-113.08 165,-113.08"/>
</g>
<!-- Node3 -->
<g id="node3" class="node">
<title>Node3</title>
<g id="a_node3"><a xlink:href="../../dc/d71/classxii_reflected_class.htm" target="_top" xlink:title="All classes that should be dynamically reflectable, need to be derived from this base class.">
<polygon fill="white" stroke="black" points="118,-179.5 118,-198.5 219,-198.5 219,-179.5 118,-179.5"/>
<text text-anchor="middle" x="168.5" y="-186.5" font-family="Helvetica,sans-Serif" font-size="10.00">xiiReflectedClass</text>
</a>
</g>
</g>
<!-- Node3&#45;&gt;Node2 -->
<g id="edge2" class="edge">
<title>Node3&#45;&gt;Node2</title>
<path fill="none" stroke="midnightblue" d="M168.5,-168.8C168.5,-159.91 168.5,-149.78 168.5,-142.75"/>
<polygon fill="midnightblue" stroke="midnightblue" points="165,-169.08 168.5,-179.08 172,-169.08 165,-169.08"/>
</g>
<!-- Node4 -->
<g id="node4" class="node">
<title>Node4</title>
<g id="a_node4"><a xlink:href="../../d2/d38/classxii_no_base.htm" target="_top" xlink:title="Dummy type to pass to templates and macros that expect a base type for a class that has no base.">
<polygon fill="white" stroke="black" points="135.5,-235.5 135.5,-254.5 201.5,-254.5 201.5,-235.5 135.5,-235.5"/>
<text text-anchor="middle" x="168.5" y="-242.5" font-family="Helvetica,sans-Serif" font-size="10.00">xiiNoBase</text>
</a>
</g>
</g>
<!-- Node4&#45;&gt;Node3 -->
<g id="edge3" class="edge">
<title>Node4&#45;&gt;Node3</title>
<path fill="none" stroke="midnightblue" d="M168.5,-224.8C168.5,-215.91 168.5,-205.78 168.5,-198.75"/>
<polygon fill="midnightblue" stroke="midnightblue" points="165,-225.08 168.5,-235.08 172,-225.08 165,-225.08"/>
</g>
</g>
</svg>
