<?xml version="1.0" encoding="UTF-8" standalone="no"?>
<!DOCTYPE svg PUBLIC "-//W3C//DTD SVG 1.1//EN"
 "http://www.w3.org/Graphics/SVG/1.1/DTD/svg11.dtd">
<!-- Generated by graphviz version 2.43.0 (0)
 -->
<!-- Title: xiiStreamWriter Pages: 1 -->
<svg width="405pt" height="249pt"
 viewBox="0.00 0.00 405.00 249.00" xmlns="http://www.w3.org/2000/svg" xmlns:xlink="http://www.w3.org/1999/xlink">
<g id="graph0" class="graph" transform="scale(1 1) rotate(0) translate(4 245)">
<title>xiiStreamWriter</title>
<!-- Node1 -->
<g id="Node000001" class="node">
<title>Node1</title>
<g id="a_Node000001"><a xlink:title="Interface for binary out (write) streams.">
<polygon fill="#999999" stroke="#666666" points="94,-130 0,-130 0,-111 94,-111 94,-130"/>
<text text-anchor="middle" x="47" y="-118" font-family="Helvetica,sans-Serif" font-size="10.00">xiiStreamWriter</text>
</a>
</g>
</g>
<!-- Node2 -->
<g id="Node000002" class="node">
<title>Node2</title>
<g id="a_Node000002"><a xlink:href="../../d1/d4f/classxii_chunk_stream_writer.htm" target="_top" xlink:title="A stream writer that separates data into &#39;chunks&#39;, which act like sub&#45;streams.">
<polygon fill="white" stroke="#666666" points="270,-241 145,-241 145,-222 270,-222 270,-241"/>
<text text-anchor="middle" x="207.5" y="-229" font-family="Helvetica,sans-Serif" font-size="10.00">xiiChunkStreamWriter</text>
</a>
</g>
</g>
<!-- Node1&#45;&gt;Node2 -->
<g id="edge1_Node000001_Node000002" class="edge">
<title>Node1&#45;&gt;Node2</title>
<g id="a_edge1_Node000001_Node000002"><a xlink:title=" ">
<path fill="none" stroke="#63b8ff" d="M58.95,-138.62C72.79,-159.91 98.63,-194.71 130,-213.5 135.74,-216.94 142.08,-219.71 148.59,-221.96"/>
<polygon fill="#63b8ff" stroke="#63b8ff" points="61.91,-136.75 53.61,-130.15 55.98,-140.48 61.91,-136.75"/>
</a>
</g>
</g>
<!-- Node3 -->
<g id="Node000003" class="node">
<title>Node3</title>
<g id="a_Node000003"><a xlink:href="../../d6/d42/classxii_deferred_file_writer.htm" target="_top" xlink:title="A file writer that caches all written data and only opens and writes to the output file when everythi...">
<polygon fill="white" stroke="#666666" points="267,-204 148,-204 148,-185 267,-185 267,-204"/>
<text text-anchor="middle" x="207.5" y="-192" font-family="Helvetica,sans-Serif" font-size="10.00">xiiDeferredFileWriter</text>
</a>
</g>
</g>
<!-- Node1&#45;&gt;Node3 -->
<g id="edge2_Node000001_Node000003" class="edge">
<title>Node1&#45;&gt;Node3</title>
<g id="a_edge2_Node000001_Node000003"><a xlink:title=" ">
<path fill="none" stroke="#63b8ff" d="M67.11,-136.58C83,-149.18 106.71,-166.23 130,-176.5 137.62,-179.86 145.95,-182.64 154.22,-184.92"/>
<polygon fill="#63b8ff" stroke="#63b8ff" points="69.11,-133.7 59.14,-130.12 64.7,-139.14 69.11,-133.7"/>
</a>
</g>
</g>
<!-- Node4 -->
<g id="Node000004" class="node">
<title>Node4</title>
<g id="a_Node000004"><a xlink:href="../../d8/d36/classxii_file_writer_base.htm" target="_top" xlink:title=" ">
<polygon fill="white" stroke="#666666" points="257.5,-167 157.5,-167 157.5,-148 257.5,-148 257.5,-167"/>
<text text-anchor="middle" x="207.5" y="-155" font-family="Helvetica,sans-Serif" font-size="10.00">xiiFileWriterBase</text>
</a>
</g>
</g>
<!-- Node1&#45;&gt;Node4 -->
<g id="edge3_Node000001_Node000004" class="edge">
<title>Node1&#45;&gt;Node4</title>
<g id="a_edge3_Node000001_Node000004"><a xlink:title=" ">
<path fill="none" stroke="#63b8ff" d="M98.79,-132.36C120.36,-137.39 145.18,-143.18 165.55,-147.94"/>
<polygon fill="#63b8ff" stroke="#63b8ff" points="99.35,-128.89 88.82,-130.03 97.76,-135.71 99.35,-128.89"/>
</a>
</g>
</g>
<!-- Node6 -->
<g id="Node000006" class="node">
<title>Node6</title>
<g id="a_Node000006"><a xlink:href="../../dd/d70/classxii_hash_stream_writer32.htm" target="_top" xlink:title="A stream writer that hashes the data written to it.">
<polygon fill="white" stroke="#666666" points="273,-130 142,-130 142,-111 273,-111 273,-130"/>
<text text-anchor="middle" x="207.5" y="-118" font-family="Helvetica,sans-Serif" font-size="10.00">xiiHashStreamWriter32</text>
</a>
</g>
</g>
<!-- Node1&#45;&gt;Node6 -->
<g id="edge5_Node000001_Node000006" class="edge">
<title>Node1&#45;&gt;Node6</title>
<g id="a_edge5_Node000001_Node000006"><a xlink:title=" ">
<path fill="none" stroke="#63b8ff" d="M104.29,-120.5C116.47,-120.5 129.44,-120.5 141.91,-120.5"/>
<polygon fill="#63b8ff" stroke="#63b8ff" points="104.27,-117 94.27,-120.5 104.27,-124 104.27,-117"/>
</a>
</g>
</g>
<!-- Node7 -->
<g id="Node000007" class="node">
<title>Node7</title>
<g id="a_Node000007"><a xlink:href="../../d7/ddb/classxii_hash_stream_writer64.htm" target="_top" xlink:title="A stream writer that hashes the data written to it.">
<polygon fill="white" stroke="#666666" points="273,-93 142,-93 142,-74 273,-74 273,-93"/>
<text text-anchor="middle" x="207.5" y="-81" font-family="Helvetica,sans-Serif" font-size="10.00">xiiHashStreamWriter64</text>
</a>
</g>
</g>
<!-- Node1&#45;&gt;Node7 -->
<g id="edge6_Node000001_Node000007" class="edge">
<title>Node1&#45;&gt;Node7</title>
<g id="a_edge6_Node000001_Node000007"><a xlink:title=" ">
<path fill="none" stroke="#63b8ff" d="M98.79,-108.64C120.36,-103.61 145.18,-97.82 165.55,-93.06"/>
<polygon fill="#63b8ff" stroke="#63b8ff" points="97.76,-105.29 88.82,-110.97 99.35,-112.11 97.76,-105.29"/>
</a>
</g>
</g>
<!-- Node8 -->
<g id="Node000008" class="node">
<title>Node8</title>
<g id="a_Node000008"><a xlink:href="../../db/d2b/classxii_memory_stream_writer.htm" target="_top" xlink:title="A writer which can access a memory stream.">
<polygon fill="white" stroke="#666666" points="274.5,-56 140.5,-56 140.5,-37 274.5,-37 274.5,-56"/>
<text text-anchor="middle" x="207.5" y="-44" font-family="Helvetica,sans-Serif" font-size="10.00">xiiMemoryStreamWriter</text>
</a>
</g>
</g>
<!-- Node1&#45;&gt;Node8 -->
<g id="edge7_Node000001_Node000008" class="edge">
<title>Node1&#45;&gt;Node8</title>
<g id="a_edge7_Node000001_Node000008"><a xlink:title=" ">
<path fill="none" stroke="#63b8ff" d="M67.47,-104.58C83.4,-92.29 106.99,-75.7 130,-65.5 138.51,-61.73 147.89,-58.62 157.09,-56.09"/>
<polygon fill="#63b8ff" stroke="#63b8ff" points="65.14,-101.96 59.46,-110.91 69.48,-107.46 65.14,-101.96"/>
</a>
</g>
</g>
<!-- Node9 -->
<g id="Node000009" class="node">
<title>Node9</title>
<g id="a_Node000009"><a xlink:href="../../db/d13/classxii_raw_memory_stream_writer.htm" target="_top" xlink:title="Maps a raw chunk of memory to the xiiStreamReader interface.">
<polygon fill="white" stroke="#666666" points="285,-19 130,-19 130,0 285,0 285,-19"/>
<text text-anchor="middle" x="207.5" y="-7" font-family="Helvetica,sans-Serif" font-size="10.00">xiiRawMemoryStreamWriter</text>
</a>
</g>
</g>
<!-- Node1&#45;&gt;Node9 -->
<g id="edge8_Node000001_Node000009" class="edge">
<title>Node1&#45;&gt;Node9</title>
<g id="a_edge8_Node000001_Node000009"><a xlink:title=" ">
<path fill="none" stroke="#63b8ff" d="M59.22,-102.36C73.19,-81.34 99.03,-47.2 130,-28.5 136.44,-24.61 143.65,-21.51 150.99,-19.05"/>
<polygon fill="#63b8ff" stroke="#63b8ff" points="56.14,-100.69 53.66,-110.99 62.02,-104.48 56.14,-100.69"/>
</a>
</g>
</g>
<!-- Node5 -->
<g id="Node000005" class="node">
<title>Node5</title>
<g id="a_Node000005"><a xlink:href="../../d4/dea/classxii_file_writer.htm" target="_top" xlink:title="The default class to use to write data to a file, implements the xiiStreamWriter interface.">
<polygon fill="white" stroke="#666666" points="397,-167 321,-167 321,-148 397,-148 397,-167"/>
<text text-anchor="middle" x="359" y="-155" font-family="Helvetica,sans-Serif" font-size="10.00">xiiFileWriter</text>
</a>
</g>
</g>
<!-- Node4&#45;&gt;Node5 -->
<g id="edge4_Node000004_Node000005" class="edge">
<title>Node4&#45;&gt;Node5</title>
<g id="a_edge4_Node000004_Node000005"><a xlink:title=" ">
<path fill="none" stroke="#63b8ff" d="M268.11,-157.5C285.8,-157.5 304.67,-157.5 320.53,-157.5"/>
<polygon fill="#63b8ff" stroke="#63b8ff" points="267.87,-154 257.87,-157.5 267.87,-161 267.87,-154"/>
</a>
</g>
</g>
</g>
</svg>
