<?xml version="1.0" encoding="UTF-8" standalone="no"?>
<!DOCTYPE svg PUBLIC "-//W3C//DTD SVG 1.1//EN"
 "http://www.w3.org/Graphics/SVG/1.1/DTD/svg11.dtd">
<!-- Generated by graphviz version 2.43.0 (0)
 -->
<!-- Title: xiiStreamWriter Pages: 1 -->
<svg width="405pt" height="286pt"
 viewBox="0.00 0.00 405.00 286.00" xmlns="http://www.w3.org/2000/svg" xmlns:xlink="http://www.w3.org/1999/xlink">
<g id="graph0" class="graph" transform="scale(1 1) rotate(0) translate(4 282)">
<title>xiiStreamWriter</title>
<!-- Node1 -->
<g id="Node000001" class="node">
<title>Node1</title>
<g id="a_Node000001"><a xlink:title="Interface for binary out (write) streams.">
<polygon fill="#999999" stroke="#666666" points="94,-148 0,-148 0,-129 94,-129 94,-148"/>
<text text-anchor="middle" x="47" y="-136" font-family="Helvetica,sans-Serif" font-size="10.00">xiiStreamWriter</text>
</a>
</g>
</g>
<!-- Node2 -->
<g id="Node000002" class="node">
<title>Node2</title>
<g id="a_Node000002"><a xlink:href="../../d1/d4f/classxii_chunk_stream_writer.html" target="_top" xlink:title="A stream writer that separates data into &#39;chunks&#39;, which act like sub&#45;streams.">
<polygon fill="white" stroke="#666666" points="270,-278 145,-278 145,-259 270,-259 270,-278"/>
<text text-anchor="middle" x="207.5" y="-266" font-family="Helvetica,sans-Serif" font-size="10.00">xiiChunkStreamWriter</text>
</a>
</g>
</g>
<!-- Node1&#45;&gt;Node2 -->
<g id="edge1_Node000001_Node000002" class="edge">
<title>Node1&#45;&gt;Node2</title>
<g id="a_edge1_Node000001_Node000002"><a xlink:title=" ">
<path fill="none" stroke="#63b8ff" d="M56.52,-157.33C68.95,-182.59 94.51,-226.99 130,-250.5 135.12,-253.89 140.8,-256.64 146.69,-258.88"/>
<polygon fill="#63b8ff" stroke="#63b8ff" points="59.58,-155.62 52.14,-148.08 53.26,-158.62 59.58,-155.62"/>
</a>
</g>
</g>
<!-- Node3 -->
<g id="Node000003" class="node">
<title>Node3</title>
<g id="a_Node000003"><a xlink:href="../../d6/d42/classxii_deferred_file_writer.html" target="_top" xlink:title="A file writer that caches all written data and only opens and writes to the output file when everythi...">
<polygon fill="white" stroke="#666666" points="267,-241 148,-241 148,-222 267,-222 267,-241"/>
<text text-anchor="middle" x="207.5" y="-229" font-family="Helvetica,sans-Serif" font-size="10.00">xiiDeferredFileWriter</text>
</a>
</g>
</g>
<!-- Node1&#45;&gt;Node3 -->
<g id="edge2_Node000001_Node000003" class="edge">
<title>Node1&#45;&gt;Node3</title>
<g id="a_edge2_Node000001_Node000003"><a xlink:title=" ">
<path fill="none" stroke="#63b8ff" d="M62.23,-155.92C77.28,-173.16 102.59,-199.02 130,-213.5 136.51,-216.94 143.68,-219.73 150.94,-221.99"/>
<polygon fill="#63b8ff" stroke="#63b8ff" points="64.85,-153.59 55.71,-148.24 59.51,-158.12 64.85,-153.59"/>
</a>
</g>
</g>
<!-- Node4 -->
<g id="Node000004" class="node">
<title>Node4</title>
<g id="a_Node000004"><a xlink:href="../../d8/d36/classxii_file_writer_base.html" target="_top" xlink:title=" ">
<polygon fill="white" stroke="#666666" points="257.5,-204 157.5,-204 157.5,-185 257.5,-185 257.5,-204"/>
<text text-anchor="middle" x="207.5" y="-192" font-family="Helvetica,sans-Serif" font-size="10.00">xiiFileWriterBase</text>
</a>
</g>
</g>
<!-- Node1&#45;&gt;Node4 -->
<g id="edge3_Node000001_Node000004" class="edge">
<title>Node1&#45;&gt;Node4</title>
<g id="a_edge3_Node000001_Node000004"><a xlink:title=" ">
<path fill="none" stroke="#63b8ff" d="M74.94,-152.67C90.67,-160.51 111.09,-169.97 130,-176.5 139.29,-179.71 149.4,-182.53 159.14,-184.94"/>
<polygon fill="#63b8ff" stroke="#63b8ff" points="76.3,-149.44 65.8,-148.03 73.14,-155.68 76.3,-149.44"/>
</a>
</g>
</g>
<!-- Node6 -->
<g id="Node000006" class="node">
<title>Node6</title>
<g id="a_Node000006"><a xlink:href="../../dd/d70/classxii_hash_stream_writer32.html" target="_top" xlink:title="A stream writer that hashes the data written to it.">
<polygon fill="white" stroke="#666666" points="273,-167 142,-167 142,-148 273,-148 273,-167"/>
<text text-anchor="middle" x="207.5" y="-155" font-family="Helvetica,sans-Serif" font-size="10.00">xiiHashStreamWriter32</text>
</a>
</g>
</g>
<!-- Node1&#45;&gt;Node6 -->
<g id="edge5_Node000001_Node000006" class="edge">
<title>Node1&#45;&gt;Node6</title>
<g id="a_edge5_Node000001_Node000006"><a xlink:title=" ">
<path fill="none" stroke="#63b8ff" d="M104.29,-145.25C116.47,-146.71 129.44,-148.26 141.91,-149.76"/>
<polygon fill="#63b8ff" stroke="#63b8ff" points="104.62,-141.76 94.27,-144.05 103.78,-148.71 104.62,-141.76"/>
</a>
</g>
</g>
<!-- Node7 -->
<g id="Node000007" class="node">
<title>Node7</title>
<g id="a_Node000007"><a xlink:href="../../d7/ddb/classxii_hash_stream_writer64.html" target="_top" xlink:title="A stream writer that hashes the data written to it.">
<polygon fill="white" stroke="#666666" points="273,-130 142,-130 142,-111 273,-111 273,-130"/>
<text text-anchor="middle" x="207.5" y="-118" font-family="Helvetica,sans-Serif" font-size="10.00">xiiHashStreamWriter64</text>
</a>
</g>
</g>
<!-- Node1&#45;&gt;Node7 -->
<g id="edge6_Node000001_Node000007" class="edge">
<title>Node1&#45;&gt;Node7</title>
<g id="a_edge6_Node000001_Node000007"><a xlink:title=" ">
<path fill="none" stroke="#63b8ff" d="M104.29,-132.11C116.47,-130.72 129.44,-129.25 141.91,-127.83"/>
<polygon fill="#63b8ff" stroke="#63b8ff" points="103.81,-128.64 94.27,-133.25 104.6,-135.59 103.81,-128.64"/>
</a>
</g>
</g>
<!-- Node8 -->
<g id="Node000008" class="node">
<title>Node8</title>
<g id="a_Node000008"><a xlink:href="../../db/d2b/classxii_memory_stream_writer.html" target="_top" xlink:title="A writer which can access a memory stream.">
<polygon fill="white" stroke="#666666" points="274.5,-93 140.5,-93 140.5,-74 274.5,-74 274.5,-93"/>
<text text-anchor="middle" x="207.5" y="-81" font-family="Helvetica,sans-Serif" font-size="10.00">xiiMemoryStreamWriter</text>
</a>
</g>
</g>
<!-- Node1&#45;&gt;Node8 -->
<g id="edge7_Node000001_Node000008" class="edge">
<title>Node1&#45;&gt;Node8</title>
<g id="a_edge7_Node000001_Node000008"><a xlink:title=" ">
<path fill="none" stroke="#63b8ff" d="M76.28,-124.66C91.87,-117.39 111.72,-108.73 130,-102.5 140.36,-98.97 151.72,-95.79 162.44,-93.08"/>
<polygon fill="#63b8ff" stroke="#63b8ff" points="74.72,-121.52 67.18,-128.97 77.72,-127.85 74.72,-121.52"/>
</a>
</g>
</g>
<!-- Node9 -->
<g id="Node000009" class="node">
<title>Node9</title>
<g id="a_Node000009"><a xlink:href="../../db/d13/classxii_raw_memory_stream_writer.html" target="_top" xlink:title="Maps a raw chunk of memory to the xiiStreamReader interface.">
<polygon fill="white" stroke="#666666" points="285,-56 130,-56 130,-37 285,-37 285,-56"/>
<text text-anchor="middle" x="207.5" y="-44" font-family="Helvetica,sans-Serif" font-size="10.00">xiiRawMemoryStreamWriter</text>
</a>
</g>
</g>
<!-- Node1&#45;&gt;Node9 -->
<g id="edge8_Node000001_Node000009" class="edge">
<title>Node1&#45;&gt;Node9</title>
<g id="a_edge8_Node000001_Node000009"><a xlink:title=" ">
<path fill="none" stroke="#63b8ff" d="M63.03,-120.9C78.25,-104.19 103.3,-79.59 130,-65.5 137.26,-61.67 145.32,-58.59 153.41,-56.12"/>
<polygon fill="#63b8ff" stroke="#63b8ff" points="60.02,-119.02 56.01,-128.82 65.26,-123.66 60.02,-119.02"/>
</a>
</g>
</g>
<!-- Node10 -->
<g id="Node000010" class="node">
<title>Node10</title>
<g id="a_Node000010"><a xlink:href="../../d6/d9a/classxii_stream_writer_with_stats.html" target="_top" xlink:title="A stream writer that wraps another stream to track how many bytes are written to it.">
<polygon fill="white" stroke="#666666" points="278,-19 137,-19 137,0 278,0 278,-19"/>
<text text-anchor="middle" x="207.5" y="-7" font-family="Helvetica,sans-Serif" font-size="10.00">xiiStreamWriterWithStats</text>
</a>
</g>
</g>
<!-- Node1&#45;&gt;Node10 -->
<g id="edge9_Node000001_Node000010" class="edge">
<title>Node1&#45;&gt;Node10</title>
<g id="a_edge9_Node000001_Node000010"><a xlink:title=" ">
<path fill="none" stroke="#63b8ff" d="M56.84,-119.7C69.49,-94.89 95.13,-51.68 130,-28.5 135.81,-24.64 142.34,-21.56 149.08,-19.1"/>
<polygon fill="#63b8ff" stroke="#63b8ff" points="53.63,-118.28 52.36,-128.8 59.92,-121.37 53.63,-118.28"/>
</a>
</g>
</g>
<!-- Node5 -->
<g id="Node000005" class="node">
<title>Node5</title>
<g id="a_Node000005"><a xlink:href="../../d4/dea/classxii_file_writer.html" target="_top" xlink:title="The default class to use to write data to a file, implements the xiiStreamWriter interface.">
<polygon fill="white" stroke="#666666" points="397,-204 321,-204 321,-185 397,-185 397,-204"/>
<text text-anchor="middle" x="359" y="-192" font-family="Helvetica,sans-Serif" font-size="10.00">xiiFileWriter</text>
</a>
</g>
</g>
<!-- Node4&#45;&gt;Node5 -->
<g id="edge4_Node000004_Node000005" class="edge">
<title>Node4&#45;&gt;Node5</title>
<g id="a_edge4_Node000004_Node000005"><a xlink:title=" ">
<path fill="none" stroke="#63b8ff" d="M268.11,-194.5C285.8,-194.5 304.67,-194.5 320.53,-194.5"/>
<polygon fill="#63b8ff" stroke="#63b8ff" points="267.87,-191 257.87,-194.5 267.87,-198 267.87,-191"/>
</a>
</g>
</g>
</g>
</svg>
