<?xml version="1.0" encoding="UTF-8" standalone="no"?>
<!DOCTYPE svg PUBLIC "-//W3C//DTD SVG 1.1//EN"
 "http://www.w3.org/Graphics/SVG/1.1/DTD/svg11.dtd">
<!-- Generated by graphviz version 2.43.0 (0)
 -->
<!-- Title: xiiGameObjectEditTool Pages: 1 -->
<svg width="777pt" height="138pt"
 viewBox="0.00 0.00 777.00 138.00" xmlns="http://www.w3.org/2000/svg" xmlns:xlink="http://www.w3.org/1999/xlink">
<g id="graph0" class="graph" transform="scale(1 1) rotate(0) translate(4 134)">
<title>xiiGameObjectEditTool</title>
<!-- Node1 -->
<g id="Node000001" class="node">
<title>Node1</title>
<g id="a_Node000001"><a xlink:title=" ">
<polygon fill="#999999" stroke="#666666" points="367,-55 239,-55 239,-36 367,-36 367,-55"/>
<text text-anchor="middle" x="303" y="-43" font-family="Helvetica,sans-Serif" font-size="10.00">xiiGameObjectEditTool</text>
</a>
</g>
</g>
<!-- Node4 -->
<g id="Node000004" class="node">
<title>Node4</title>
<g id="a_Node000004"><a xlink:href="../../d4/ded/classxii_game_object_gizmo_edit_tool.htm" target="_top" xlink:title=" ">
<polygon fill="white" stroke="#bfbfbf" points="562,-74 403,-74 403,-55 562,-55 562,-74"/>
<text text-anchor="middle" x="482.5" y="-62" font-family="Helvetica,sans-Serif" font-size="10.00">xiiGameObjectGizmoEditTool</text>
</a>
</g>
</g>
<!-- Node1&#45;&gt;Node4 -->
<g id="edge3_Node000001_Node000004" class="edge">
<title>Node1&#45;&gt;Node4</title>
<g id="a_edge3_Node000001_Node000004"><a xlink:title=" ">
<path fill="none" stroke="#63b8ff" d="M377.24,-53.34C385.67,-54.24 394.29,-55.16 402.78,-56.07"/>
<polygon fill="#63b8ff" stroke="#63b8ff" points="377.4,-49.84 367.08,-52.25 376.65,-56.8 377.4,-49.84"/>
</a>
</g>
</g>
<!-- Node9 -->
<g id="Node000009" class="node">
<title>Node9</title>
<g id="a_Node000009"><a xlink:href="../../d7/d42/classxii_grey_box_edit_tool.htm" target="_top" xlink:title=" ">
<polygon fill="white" stroke="#bfbfbf" points="537,-37 428,-37 428,-18 537,-18 537,-37"/>
<text text-anchor="middle" x="482.5" y="-25" font-family="Helvetica,sans-Serif" font-size="10.00">xiiGreyBoxEditTool</text>
</a>
</g>
</g>
<!-- Node1&#45;&gt;Node9 -->
<g id="edge8_Node000001_Node000009" class="edge">
<title>Node1&#45;&gt;Node9</title>
<g id="a_edge8_Node000001_Node000009"><a xlink:title=" ">
<path fill="none" stroke="#63b8ff" d="M377.45,-38.05C394.29,-36.34 411.9,-34.56 427.73,-32.95"/>
<polygon fill="#63b8ff" stroke="#63b8ff" points="376.68,-34.61 367.08,-39.1 377.38,-41.58 376.68,-34.61"/>
</a>
</g>
</g>
<!-- Node2 -->
<g id="Node000002" class="node">
<title>Node2</title>
<g id="a_Node000002"><a xlink:href="../../dc/d71/classxii_reflected_class.htm" target="_top" xlink:title="All classes that should be dynamically reflectable, need to be derived from this base class.">
<polygon fill="white" stroke="#666666" points="203,-55 102,-55 102,-36 203,-36 203,-55"/>
<text text-anchor="middle" x="152.5" y="-43" font-family="Helvetica,sans-Serif" font-size="10.00">xiiReflectedClass</text>
</a>
</g>
</g>
<!-- Node2&#45;&gt;Node1 -->
<g id="edge1_Node000001_Node000002" class="edge">
<title>Node2&#45;&gt;Node1</title>
<g id="a_edge1_Node000001_Node000002"><a xlink:title=" ">
<path fill="none" stroke="#63b8ff" d="M213.41,-45.5C221.78,-45.5 230.4,-45.5 238.82,-45.5"/>
<polygon fill="#63b8ff" stroke="#63b8ff" points="213.36,-42 203.36,-45.5 213.36,-49 213.36,-42"/>
</a>
</g>
</g>
<!-- Node3 -->
<g id="Node000003" class="node">
<title>Node3</title>
<g id="a_Node000003"><a xlink:href="../../d2/d38/classxii_no_base.htm" target="_top" xlink:title="Dummy type to pass to templates and macros that expect a base type for a class that has no base.">
<polygon fill="white" stroke="#666666" points="66,-55 0,-55 0,-36 66,-36 66,-55"/>
<text text-anchor="middle" x="33" y="-43" font-family="Helvetica,sans-Serif" font-size="10.00">xiiNoBase</text>
</a>
</g>
</g>
<!-- Node3&#45;&gt;Node2 -->
<g id="edge2_Node000002_Node000003" class="edge">
<title>Node3&#45;&gt;Node2</title>
<g id="a_edge2_Node000002_Node000003"><a xlink:title=" ">
<path fill="none" stroke="#63b8ff" d="M76.27,-45.5C84.54,-45.5 93.29,-45.5 101.78,-45.5"/>
<polygon fill="#63b8ff" stroke="#63b8ff" points="76.11,-42 66.11,-45.5 76.11,-49 76.11,-42"/>
</a>
</g>
</g>
<!-- Node5 -->
<g id="Node000005" class="node">
<title>Node5</title>
<g id="a_Node000005"><a xlink:href="../../dc/dfa/classxii_drag_to_position_gizmo_edit_tool.htm" target="_top" xlink:title=" ">
<polygon fill="white" stroke="#bfbfbf" points="769,-130 598,-130 598,-111 769,-111 769,-130"/>
<text text-anchor="middle" x="683.5" y="-118" font-family="Helvetica,sans-Serif" font-size="10.00">xiiDragToPositionGizmoEditTool</text>
</a>
</g>
</g>
<!-- Node4&#45;&gt;Node5 -->
<g id="edge4_Node000004_Node000005" class="edge">
<title>Node4&#45;&gt;Node5</title>
<g id="a_edge4_Node000004_Node000005"><a xlink:title=" ">
<path fill="none" stroke="#63b8ff" d="M519.08,-77.44C541.53,-85.32 571.24,-95.23 598,-102.5 609.29,-105.57 621.55,-108.43 633.13,-110.94"/>
<polygon fill="#63b8ff" stroke="#63b8ff" points="520.22,-74.13 509.63,-74.09 517.88,-80.73 520.22,-74.13"/>
</a>
</g>
</g>
<!-- Node6 -->
<g id="Node000006" class="node">
<title>Node6</title>
<g id="a_Node000006"><a xlink:href="../../da/de3/classxii_rotate_gizmo_edit_tool.htm" target="_top" xlink:title=" ">
<polygon fill="white" stroke="#bfbfbf" points="749,-93 618,-93 618,-74 749,-74 749,-93"/>
<text text-anchor="middle" x="683.5" y="-81" font-family="Helvetica,sans-Serif" font-size="10.00">xiiRotateGizmoEditTool</text>
</a>
</g>
</g>
<!-- Node4&#45;&gt;Node6 -->
<g id="edge5_Node000004_Node000006" class="edge">
<title>Node4&#45;&gt;Node6</title>
<g id="a_edge5_Node000004_Node000006"><a xlink:title=" ">
<path fill="none" stroke="#63b8ff" d="M572.19,-72.97C587.56,-74.44 603.28,-75.94 617.86,-77.33"/>
<polygon fill="#63b8ff" stroke="#63b8ff" points="572.44,-69.48 562.15,-72.01 571.77,-76.44 572.44,-69.48"/>
</a>
</g>
</g>
<!-- Node7 -->
<g id="Node000007" class="node">
<title>Node7</title>
<g id="a_Node000007"><a xlink:href="../../da/d8b/classxii_scale_gizmo_edit_tool.htm" target="_top" xlink:title=" ">
<polygon fill="white" stroke="#bfbfbf" points="746,-56 621,-56 621,-37 746,-37 746,-56"/>
<text text-anchor="middle" x="683.5" y="-44" font-family="Helvetica,sans-Serif" font-size="10.00">xiiScaleGizmoEditTool</text>
</a>
</g>
</g>
<!-- Node4&#45;&gt;Node7 -->
<g id="edge6_Node000004_Node000007" class="edge">
<title>Node4&#45;&gt;Node7</title>
<g id="a_edge6_Node000004_Node000007"><a xlink:title=" ">
<path fill="none" stroke="#63b8ff" d="M572.32,-56.47C588.75,-54.98 605.58,-53.46 620.98,-52.06"/>
<polygon fill="#63b8ff" stroke="#63b8ff" points="571.79,-53 562.15,-57.39 572.42,-59.97 571.79,-53"/>
</a>
</g>
</g>
<!-- Node8 -->
<g id="Node000008" class="node">
<title>Node8</title>
<g id="a_Node000008"><a xlink:href="../../d6/dc3/classxii_translate_gizmo_edit_tool.htm" target="_top" xlink:title=" ">
<polygon fill="white" stroke="#bfbfbf" points="755,-19 612,-19 612,0 755,0 755,-19"/>
<text text-anchor="middle" x="683.5" y="-7" font-family="Helvetica,sans-Serif" font-size="10.00">xiiTranslateGizmoEditTool</text>
</a>
</g>
</g>
<!-- Node4&#45;&gt;Node8 -->
<g id="edge7_Node000004_Node000008" class="edge">
<title>Node4&#45;&gt;Node8</title>
<g id="a_edge7_Node000004_Node000008"><a xlink:title=" ">
<path fill="none" stroke="#63b8ff" d="M543.71,-52.39C549.96,-50.63 556.15,-48.67 562,-46.5 578.96,-40.2 580.99,-33.67 598,-27.5 607.17,-24.18 617.12,-21.38 626.88,-19.06"/>
<polygon fill="#63b8ff" stroke="#63b8ff" points="542.68,-49.05 533.91,-54.99 544.47,-55.81 542.68,-49.05"/>
</a>
</g>
</g>
</g>
</svg>
