<?xml version="1.0" encoding="UTF-8" standalone="no"?>
<!DOCTYPE svg PUBLIC "-//W3C//DTD SVG 1.1//EN"
 "http://www.w3.org/Graphics/SVG/1.1/DTD/svg11.dtd">
<!-- Generated by graphviz version 2.43.0 (0)
 -->
<!-- Title: xiiQtProxy Pages: 1 -->
<svg width="444pt" height="258pt"
 viewBox="0.00 0.00 444.00 258.00" xmlns="http://www.w3.org/2000/svg" xmlns:xlink="http://www.w3.org/1999/xlink">
<g id="graph0" class="graph" transform="scale(1 1) rotate(0) translate(4 254)">
<title>xiiQtProxy</title>
<!-- Node1 -->
<g id="Node000001" class="node">
<title>Node1</title>
<g id="a_Node000001"><a xlink:title="Glue class that maps xiiActions to QActions. QActions are only created if the xiiAction is actually m...">
<polygon fill="#999999" stroke="#666666" points="268,-195 200,-195 200,-176 268,-176 268,-195"/>
<text text-anchor="middle" x="234" y="-183" font-family="Helvetica,sans-Serif" font-size="10.00">xiiQtProxy</text>
</a>
</g>
</g>
<!-- Node3 -->
<g id="Node000003" class="node">
<title>Node3</title>
<g id="a_Node000003"><a xlink:href="../../d9/d4f/classxii_qt_action_proxy.html" target="_top" xlink:title=" ">
<polygon fill="white" stroke="#bfbfbf" points="160,-140 62,-140 62,-121 160,-121 160,-140"/>
<text text-anchor="middle" x="111" y="-128" font-family="Helvetica,sans-Serif" font-size="10.00">xiiQtActionProxy</text>
</a>
</g>
</g>
<!-- Node1&#45;&gt;Node3 -->
<g id="edge2_Node000001_Node000003" class="edge">
<title>Node1&#45;&gt;Node3</title>
<g id="a_edge2_Node000001_Node000003"><a xlink:title=" ">
<path fill="none" stroke="#63b8ff" d="M204.75,-171.9C182.03,-162.11 151.13,-148.79 131.12,-140.17"/>
<polygon fill="#63b8ff" stroke="#63b8ff" points="203.67,-175.24 214.24,-175.98 206.44,-168.81 203.67,-175.24"/>
</a>
</g>
</g>
<!-- Node6 -->
<g id="Node000006" class="node">
<title>Node6</title>
<g id="a_Node000006"><a xlink:href="../../d3/d29/classxii_qt_category_proxy.html" target="_top" xlink:title=" ">
<polygon fill="white" stroke="#bfbfbf" points="290,-140 178,-140 178,-121 290,-121 290,-140"/>
<text text-anchor="middle" x="234" y="-128" font-family="Helvetica,sans-Serif" font-size="10.00">xiiQtCategoryProxy</text>
</a>
</g>
</g>
<!-- Node1&#45;&gt;Node6 -->
<g id="edge5_Node000001_Node000006" class="edge">
<title>Node1&#45;&gt;Node6</title>
<g id="a_edge5_Node000001_Node000006"><a xlink:title=" ">
<path fill="none" stroke="#63b8ff" d="M234,-165.66C234,-156.93 234,-146.99 234,-140.09"/>
<polygon fill="#63b8ff" stroke="#63b8ff" points="230.5,-165.75 234,-175.75 237.5,-165.75 230.5,-165.75"/>
</a>
</g>
</g>
<!-- Node7 -->
<g id="Node000007" class="node">
<title>Node7</title>
<g id="a_Node000007"><a xlink:href="../../d8/d45/classxii_qt_menu_proxy.html" target="_top" xlink:title=" ">
<polygon fill="white" stroke="#bfbfbf" points="403.5,-140 308.5,-140 308.5,-121 403.5,-121 403.5,-140"/>
<text text-anchor="middle" x="356" y="-128" font-family="Helvetica,sans-Serif" font-size="10.00">xiiQtMenuProxy</text>
</a>
</g>
</g>
<!-- Node1&#45;&gt;Node7 -->
<g id="edge6_Node000001_Node000007" class="edge">
<title>Node1&#45;&gt;Node7</title>
<g id="a_edge6_Node000001_Node000007"><a xlink:title=" ">
<path fill="none" stroke="#63b8ff" d="M263.01,-171.9C285.54,-162.11 316.2,-148.79 336.04,-140.17"/>
<polygon fill="#63b8ff" stroke="#63b8ff" points="261.38,-168.79 253.6,-175.98 264.17,-175.21 261.38,-168.79"/>
</a>
</g>
</g>
<!-- Node2 -->
<g id="Node000002" class="node">
<title>Node2</title>
<g id="a_Node000002"><a xlink:title=" ">
<polygon fill="white" stroke="#bfbfbf" points="262,-250 206,-250 206,-231 262,-231 262,-250"/>
<text text-anchor="middle" x="234" y="-238" font-family="Helvetica,sans-Serif" font-size="10.00">QObject</text>
</a>
</g>
</g>
<!-- Node2&#45;&gt;Node1 -->
<g id="edge1_Node000001_Node000002" class="edge">
<title>Node2&#45;&gt;Node1</title>
<g id="a_edge1_Node000001_Node000002"><a xlink:title=" ">
<path fill="none" stroke="#63b8ff" d="M234,-220.66C234,-211.93 234,-201.99 234,-195.09"/>
<polygon fill="#63b8ff" stroke="#63b8ff" points="230.5,-220.75 234,-230.75 237.5,-220.75 230.5,-220.75"/>
</a>
</g>
</g>
<!-- Node4 -->
<g id="Node000004" class="node">
<title>Node4</title>
<g id="a_Node000004"><a xlink:href="../../d8/d99/classxii_qt_button_proxy.html" target="_top" xlink:title=" ">
<polygon fill="white" stroke="#bfbfbf" points="100,-85 0,-85 0,-66 100,-66 100,-85"/>
<text text-anchor="middle" x="50" y="-73" font-family="Helvetica,sans-Serif" font-size="10.00">xiiQtButtonProxy</text>
</a>
</g>
</g>
<!-- Node3&#45;&gt;Node4 -->
<g id="edge3_Node000003_Node000004" class="edge">
<title>Node3&#45;&gt;Node4</title>
<g id="a_edge3_Node000003_Node000004"><a xlink:title=" ">
<path fill="none" stroke="#63b8ff" d="M93.53,-114.32C82.66,-104.87 69.06,-93.06 59.98,-85.17"/>
<polygon fill="#63b8ff" stroke="#63b8ff" points="91.35,-117.07 101.2,-120.98 95.95,-111.78 91.35,-117.07"/>
</a>
</g>
</g>
<!-- Node5 -->
<g id="Node000005" class="node">
<title>Node5</title>
<g id="a_Node000005"><a xlink:href="../../da/dfe/classxii_qt_slider_proxy.html" target="_top" xlink:title=" ">
<polygon fill="white" stroke="#bfbfbf" points="213.5,-85 118.5,-85 118.5,-66 213.5,-66 213.5,-85"/>
<text text-anchor="middle" x="166" y="-73" font-family="Helvetica,sans-Serif" font-size="10.00">xiiQtSliderProxy</text>
</a>
</g>
</g>
<!-- Node3&#45;&gt;Node5 -->
<g id="edge4_Node000003_Node000005" class="edge">
<title>Node3&#45;&gt;Node5</title>
<g id="a_edge4_Node000003_Node000005"><a xlink:title=" ">
<path fill="none" stroke="#63b8ff" d="M127.29,-113.8C137.04,-104.41 149.05,-92.83 157.09,-85.09"/>
<polygon fill="#63b8ff" stroke="#63b8ff" points="124.85,-111.29 120.08,-120.75 129.71,-116.33 124.85,-111.29"/>
</a>
</g>
</g>
<!-- Node8 -->
<g id="Node000008" class="node">
<title>Node8</title>
<g id="a_Node000008"><a xlink:href="../../d0/de2/classxii_qt_dynamic_menu_proxy.html" target="_top" xlink:title=" ">
<polygon fill="white" stroke="#bfbfbf" points="425,-85 287,-85 287,-66 425,-66 425,-85"/>
<text text-anchor="middle" x="356" y="-73" font-family="Helvetica,sans-Serif" font-size="10.00">xiiQtDynamicMenuProxy</text>
</a>
</g>
</g>
<!-- Node7&#45;&gt;Node8 -->
<g id="edge7_Node000007_Node000008" class="edge">
<title>Node7&#45;&gt;Node8</title>
<g id="a_edge7_Node000007_Node000008"><a xlink:title=" ">
<path fill="none" stroke="#63b8ff" d="M356,-110.66C356,-101.93 356,-91.99 356,-85.09"/>
<polygon fill="#63b8ff" stroke="#63b8ff" points="352.5,-110.75 356,-120.75 359.5,-110.75 352.5,-110.75"/>
</a>
</g>
</g>
<!-- Node9 -->
<g id="Node000009" class="node">
<title>Node9</title>
<g id="a_Node000009"><a xlink:href="../../d1/d3d/classxii_qt_dynamic_action_and_menu_proxy.html" target="_top" xlink:title=" ">
<polygon fill="white" stroke="#bfbfbf" points="436,-30 276,-30 276,0 436,0 436,-30"/>
<text text-anchor="start" x="284" y="-18" font-family="Helvetica,sans-Serif" font-size="10.00">xiiQtDynamicActionAndMenu</text>
<text text-anchor="middle" x="356" y="-7" font-family="Helvetica,sans-Serif" font-size="10.00">Proxy</text>
</a>
</g>
</g>
<!-- Node8&#45;&gt;Node9 -->
<g id="edge8_Node000008_Node000009" class="edge">
<title>Node8&#45;&gt;Node9</title>
<g id="a_edge8_Node000008_Node000009"><a xlink:title=" ">
<path fill="none" stroke="#63b8ff" d="M356,-55.65C356,-47.36 356,-37.78 356,-30.11"/>
<polygon fill="#63b8ff" stroke="#63b8ff" points="352.5,-55.87 356,-65.87 359.5,-55.87 352.5,-55.87"/>
</a>
</g>
</g>
</g>
</svg>
