<?xml version="1.0" encoding="UTF-8" standalone="no"?>
<!DOCTYPE svg PUBLIC "-//W3C//DTD SVG 1.1//EN"
 "http://www.w3.org/Graphics/SVG/1.1/DTD/svg11.dtd">
<!-- Generated by graphviz version 2.43.0 (0)
 -->
<!-- Title: xiiButtonAction Pages: 1 -->
<!--zoomable 730 -->

<svg id="main" version="1.1" xmlns="http://www.w3.org/2000/svg" xmlns:xlink="http://www.w3.org/1999/xlink" xml:space="preserve" onload="init(evt)">
<style type="text/css"><![CDATA[
.node, .edge {opacity: 0.7;}
.node.selected, .edge.selected {opacity: 1;}
.edge:hover path { stroke: red; }
.edge:hover polygon { stroke: red; fill: red; }
]]></style>

<defs>
  <circle id="rim" cx="0" cy="0" r="7"/>
  <circle id="rim2" cx="0" cy="0" r="3.5"/>
  <g id="zoomPlus">
    <use xlink:href="#rim" fill="#404040"><set attributeName="fill" to="#808080" begin="zoomplus.mouseover" end="zoomplus.mouseout"/></use>
    <path d="M-4,0h8M0,-4v8" fill="none" stroke="white" stroke-width="1.5" pointer-events="none"/>
  </g>
  <g id="zoomMin">
    <use xlink:href="#rim" fill="#404040"><set attributeName="fill" to="#808080" begin="zoomminus.mouseover" end="zoomminus.mouseout"/></use>
    <path d="M-4,0h8" fill="none" stroke="white" stroke-width="1.5" pointer-events="none"/>
  </g>
  <g id="arrowUp" transform="translate(30 24)">
    <use xlink:href="#rim"/>
    <path pointer-events="none" fill="none" stroke="white" stroke-width="1.5" d="M0,-3.0v7 M-2.5,-0.5L0,-3.0L2.5,-0.5"/>
  </g>
  <g id="arrowRight" transform="rotate(90) translate(36 -43)">
    <use xlink:href="#rim"/>
    <path pointer-events="none" fill="none" stroke="white" stroke-width="1.5" d="M0,-3.0v7 M-2.5,-0.5L0,-3.0L2.5,-0.5"/>
  </g>
  <g id="arrowDown" transform="rotate(180) translate(-30 -48)">
    <use xlink:href="#rim"/>
    <path pointer-events="none" fill="none" stroke="white" stroke-width="1.5" d="M0,-3.0v7 M-2.5,-0.5L0,-3.0L2.5,-0.5"/>
  </g>
  <g id="arrowLeft" transform="rotate(270) translate(-36 17)">
    <use xlink:href="#rim"/>
    <path pointer-events="none" fill="none" stroke="white" stroke-width="1.5" d="M0,-3.0v7 M-2.5,-0.5L0,-3.0L2.5,-0.5"/>
  </g>
  <g id="resetDef">
    <use xlink:href="#rim2" fill="#404040"><set attributeName="fill" to="#808080" begin="reset.mouseover" end="reset.mouseout"/></use>
  </g>
</defs>
<script type="application/ecmascript">
var viewWidth = 956;
var viewHeight = 730;
var sectionId = 'dynsection-0';
</script>
<script type="application/ecmascript" xlink:href="../../svg.min.js"/>
<svg id="graph" class="graph">
<g id="viewport">
<title>xiiButtonAction</title>
<!-- Node1 -->
<g id="Node000001" class="node">
<title>Node1</title>
<g id="a_Node000001"><a xlink:title=" ">
<polygon fill="#999999" stroke="#666666" points="557,-370 465,-370 465,-351 557,-351 557,-370"/>
<text text-anchor="middle" x="511" y="-358" font-family="Helvetica,sans-Serif" font-size="10.00">xiiButtonAction</text>
</a>
</g>
</g>
<!-- Node6 -->
<g id="Node000006" class="node">
<title>Node6</title>
<g id="a_Node000006"><a xlink:href="../../d4/d8a/classxii_asset_action.html" target="_top" xlink:title=" ">
<polygon fill="white" stroke="#bfbfbf" points="721,-722 635,-722 635,-703 721,-703 721,-722"/>
<text text-anchor="middle" x="678" y="-710" font-family="Helvetica,sans-Serif" font-size="10.00">xiiAssetAction</text>
</a>
</g>
</g>
<!-- Node1&#45;&gt;Node6 -->
<g id="edge5_Node000001_Node000006" class="edge">
<title>Node1&#45;&gt;Node6</title>
<g id="a_edge5_Node000001_Node000006"><a xlink:title=" ">
<path fill="none" stroke="#63b8ff" d="M514.1,-380.28C521.36,-444.99 547.49,-648.72 593,-693.5 603.98,-704.3 619.72,-709.49 634.61,-711.83"/>
<polygon fill="#63b8ff" stroke="#63b8ff" points="517.56,-379.76 512.99,-370.2 510.6,-380.52 517.56,-379.76"/>
</a>
</g>
</g>
<!-- Node7 -->
<g id="Node000007" class="node">
<title>Node7</title>
<g id="a_Node000007"><a xlink:href="../../d1/d96/classxii_common_asset_action.html" target="_top" xlink:title=" ">
<polygon fill="white" stroke="#bfbfbf" points="743.5,-685 612.5,-685 612.5,-666 743.5,-666 743.5,-685"/>
<text text-anchor="middle" x="678" y="-673" font-family="Helvetica,sans-Serif" font-size="10.00">xiiCommonAssetAction</text>
</a>
</g>
</g>
<!-- Node1&#45;&gt;Node7 -->
<g id="edge6_Node000001_Node000007" class="edge">
<title>Node1&#45;&gt;Node7</title>
<g id="a_edge6_Node000001_Node000007"><a xlink:title=" ">
<path fill="none" stroke="#63b8ff" d="M514.7,-380C523.33,-439.56 552.12,-617.41 593,-656.5 598.51,-661.77 605.16,-665.69 612.27,-668.6"/>
<polygon fill="#63b8ff" stroke="#63b8ff" points="518.16,-379.44 513.28,-370.03 511.22,-380.42 518.16,-379.44"/>
</a>
</g>
</g>
<!-- Node8 -->
<g id="Node000008" class="node">
<title>Node8</title>
<g id="a_Node000008"><a xlink:href="../../d5/d9a/classxii_document_action.html" target="_top" xlink:title="Standard document actions.">
<polygon fill="white" stroke="#666666" points="733,-648 623,-648 623,-629 733,-629 733,-648"/>
<text text-anchor="middle" x="678" y="-636" font-family="Helvetica,sans-Serif" font-size="10.00">xiiDocumentAction</text>
</a>
</g>
</g>
<!-- Node1&#45;&gt;Node8 -->
<g id="edge7_Node000001_Node000008" class="edge">
<title>Node1&#45;&gt;Node8</title>
<g id="a_edge7_Node000001_Node000008"><a xlink:title=" ">
<path fill="none" stroke="#63b8ff" d="M511.93,-380.39C512.9,-428.96 522.47,-554.44 593,-619.5 601.24,-627.1 611.87,-631.88 622.77,-634.84"/>
<polygon fill="#63b8ff" stroke="#63b8ff" points="515.43,-380.22 511.84,-370.26 508.43,-380.29 515.43,-380.22"/>
</a>
</g>
</g>
<!-- Node9 -->
<g id="Node000009" class="node">
<title>Node9</title>
<g id="a_Node000009"><a xlink:href="../../db/dba/classxii_edit_action.html" target="_top" xlink:title=" ">
<polygon fill="white" stroke="#bfbfbf" points="717,-611 639,-611 639,-592 717,-592 717,-611"/>
<text text-anchor="middle" x="678" y="-599" font-family="Helvetica,sans-Serif" font-size="10.00">xiiEditAction</text>
</a>
</g>
</g>
<!-- Node1&#45;&gt;Node9 -->
<g id="edge8_Node000001_Node000009" class="edge">
<title>Node1&#45;&gt;Node9</title>
<g id="a_edge8_Node000001_Node000009"><a xlink:title=" ">
<path fill="none" stroke="#63b8ff" d="M513.13,-380.46C516.73,-424.13 531.65,-528.51 593,-582.5 605.46,-593.46 622.91,-598.49 638.67,-600.67"/>
<polygon fill="#63b8ff" stroke="#63b8ff" points="516.61,-380.02 512.41,-370.29 509.63,-380.51 516.61,-380.02"/>
</a>
</g>
</g>
<!-- Node10 -->
<g id="Node000010" class="node">
<title>Node10</title>
<g id="a_Node000010"><a xlink:href="../../dc/d44/classxii_game_object_context_action.html" target="_top" xlink:title=" ">
<polygon fill="white" stroke="#bfbfbf" points="757,-574 599,-574 599,-555 757,-555 757,-574"/>
<text text-anchor="middle" x="678" y="-562" font-family="Helvetica,sans-Serif" font-size="10.00">xiiGameObjectContextAction</text>
</a>
</g>
</g>
<!-- Node1&#45;&gt;Node10 -->
<g id="edge9_Node000001_Node000010" class="edge">
<title>Node1&#45;&gt;Node10</title>
<g id="a_edge9_Node000001_Node000010"><a xlink:title=" ">
<path fill="none" stroke="#63b8ff" d="M514.82,-380.75C521.27,-419.12 540.81,-502.4 593,-545.5 597.61,-549.31 602.83,-552.39 608.36,-554.88"/>
<polygon fill="#63b8ff" stroke="#63b8ff" points="518.2,-379.73 513.21,-370.38 511.28,-380.8 518.2,-379.73"/>
</a>
</g>
</g>
<!-- Node11 -->
<g id="Node000011" class="node">
<title>Node11</title>
<g id="a_Node000011"><a xlink:href="../../da/d2c/classxii_game_object_document_action.html" target="_top" xlink:title=" ">
<polygon fill="white" stroke="#bfbfbf" points="763,-537 593,-537 593,-518 763,-518 763,-537"/>
<text text-anchor="middle" x="678" y="-525" font-family="Helvetica,sans-Serif" font-size="10.00">xiiGameObjectDocumentAction</text>
</a>
</g>
</g>
<!-- Node1&#45;&gt;Node11 -->
<g id="edge10_Node000001_Node000011" class="edge">
<title>Node1&#45;&gt;Node11</title>
<g id="a_edge10_Node000001_Node000011"><a xlink:title=" ">
<path fill="none" stroke="#63b8ff" d="M517.09,-380.25C526.44,-412.39 549.49,-475.68 593,-508.5 598.13,-512.37 603.91,-515.48 609.97,-517.97"/>
<polygon fill="#63b8ff" stroke="#63b8ff" points="520.38,-379 514.35,-370.29 513.63,-380.86 520.38,-379"/>
</a>
</g>
</g>
<!-- Node12 -->
<g id="Node000012" class="node">
<title>Node12</title>
<g id="a_Node000012"><a xlink:href="../../d1/db0/classxii_game_object_selection_action.html" target="_top" xlink:title=" ">
<polygon fill="white" stroke="#bfbfbf" points="760.5,-500 595.5,-500 595.5,-481 760.5,-481 760.5,-500"/>
<text text-anchor="middle" x="678" y="-488" font-family="Helvetica,sans-Serif" font-size="10.00">xiiGameObjectSelectionAction</text>
</a>
</g>
</g>
<!-- Node1&#45;&gt;Node12 -->
<g id="edge11_Node000001_Node000012" class="edge">
<title>Node1&#45;&gt;Node12</title>
<g id="a_edge11_Node000001_Node000012"><a xlink:title=" ">
<path fill="none" stroke="#63b8ff" d="M520.37,-379.21C532.6,-404.29 557.78,-448.35 593,-471.5 598.87,-475.36 605.42,-478.44 612.2,-480.9"/>
<polygon fill="#63b8ff" stroke="#63b8ff" points="523.48,-377.59 516.06,-370.02 517.14,-380.56 523.48,-377.59"/>
</a>
</g>
</g>
<!-- Node13 -->
<g id="Node000013" class="node">
<title>Node13</title>
<g id="a_Node000013"><a xlink:href="../../d9/d72/classxii_gizmo_action.html" target="_top" xlink:title=" ">
<polygon fill="white" stroke="#bfbfbf" points="723.5,-463 632.5,-463 632.5,-444 723.5,-444 723.5,-463"/>
<text text-anchor="middle" x="678" y="-451" font-family="Helvetica,sans-Serif" font-size="10.00">xiiGizmoAction</text>
</a>
</g>
</g>
<!-- Node1&#45;&gt;Node13 -->
<g id="edge12_Node000001_Node000013" class="edge">
<title>Node1&#45;&gt;Node13</title>
<g id="a_edge12_Node000001_Node000013"><a xlink:title=" ">
<path fill="none" stroke="#63b8ff" d="M526.44,-378.2C541.34,-395.25 566.12,-420.46 593,-434.5 605.06,-440.8 619.16,-445.02 632.33,-447.85"/>
<polygon fill="#63b8ff" stroke="#63b8ff" points="528.74,-375.5 519.6,-370.14 523.4,-380.03 528.74,-375.5"/>
</a>
</g>
</g>
<!-- Node15 -->
<g id="Node000015" class="node">
<title>Node15</title>
<g id="a_Node000015"><a xlink:href="../../d8/d13/classxii_help_actions.html" target="_top" xlink:title=" ">
<polygon fill="white" stroke="#bfbfbf" points="721.5,-426 634.5,-426 634.5,-407 721.5,-407 721.5,-426"/>
<text text-anchor="middle" x="678" y="-414" font-family="Helvetica,sans-Serif" font-size="10.00">xiiHelpActions</text>
</a>
</g>
</g>
<!-- Node1&#45;&gt;Node15 -->
<g id="edge14_Node000001_Node000015" class="edge">
<title>Node1&#45;&gt;Node15</title>
<g id="a_edge14_Node000001_Node000015"><a xlink:title=" ">
<path fill="none" stroke="#63b8ff" d="M539.22,-374.64C554.67,-382.23 574.56,-391.28 593,-397.5 606.18,-401.95 620.86,-405.67 634.23,-408.61"/>
<polygon fill="#63b8ff" stroke="#63b8ff" points="540.73,-371.48 530.22,-370.14 537.6,-377.74 540.73,-371.48"/>
</a>
</g>
</g>
<!-- Node16 -->
<g id="Node000016" class="node">
<title>Node16</title>
<g id="a_Node000016"><a xlink:href="../../d4/d67/classxii_layer_action.html" target="_top" xlink:title=" ">
<polygon fill="white" stroke="#bfbfbf" points="721,-389 635,-389 635,-370 721,-370 721,-389"/>
<text text-anchor="middle" x="678" y="-377" font-family="Helvetica,sans-Serif" font-size="10.00">xiiLayerAction</text>
</a>
</g>
</g>
<!-- Node1&#45;&gt;Node16 -->
<g id="edge15_Node000001_Node000016" class="edge">
<title>Node1&#45;&gt;Node16</title>
<g id="a_edge15_Node000001_Node000016"><a xlink:title=" ">
<path fill="none" stroke="#63b8ff" d="M567.3,-366.87C589.33,-369.41 614.27,-372.28 634.8,-374.64"/>
<polygon fill="#63b8ff" stroke="#63b8ff" points="567.42,-363.36 557.09,-365.69 566.62,-370.31 567.42,-363.36"/>
</a>
</g>
</g>
<!-- Node17 -->
<g id="Node000017" class="node">
<title>Node17</title>
<g id="a_Node000017"><a xlink:href="../../d4/d6c/classxii_project_action.html" target="_top" xlink:title=" ">
<polygon fill="white" stroke="#bfbfbf" points="724.5,-352 631.5,-352 631.5,-333 724.5,-333 724.5,-352"/>
<text text-anchor="middle" x="678" y="-340" font-family="Helvetica,sans-Serif" font-size="10.00">xiiProjectAction</text>
</a>
</g>
</g>
<!-- Node1&#45;&gt;Node17 -->
<g id="edge16_Node000001_Node000017" class="edge">
<title>Node1&#45;&gt;Node17</title>
<g id="a_edge16_Node000001_Node000017"><a xlink:title=" ">
<path fill="none" stroke="#63b8ff" d="M567.1,-354.49C587.97,-352.21 611.49,-349.65 631.39,-347.48"/>
<polygon fill="#63b8ff" stroke="#63b8ff" points="566.65,-351.02 557.09,-355.58 567.41,-357.98 566.65,-351.02"/>
</a>
</g>
</g>
<!-- Node18 -->
<g id="Node000018" class="node">
<title>Node18</title>
<g id="a_Node000018"><a xlink:href="../../dc/dcb/classxii_quad_view_action.html" target="_top" xlink:title=" ">
<polygon fill="white" stroke="#bfbfbf" points="732.5,-315 623.5,-315 623.5,-296 732.5,-296 732.5,-315"/>
<text text-anchor="middle" x="678" y="-303" font-family="Helvetica,sans-Serif" font-size="10.00">xiiQuadViewAction</text>
</a>
</g>
</g>
<!-- Node1&#45;&gt;Node18 -->
<g id="edge17_Node000001_Node000018" class="edge">
<title>Node1&#45;&gt;Node18</title>
<g id="a_edge17_Node000001_Node000018"><a xlink:title=" ">
<path fill="none" stroke="#63b8ff" d="M538.88,-346.43C554.37,-338.78 574.4,-329.66 593,-323.5 602.91,-320.22 613.68,-317.38 624.1,-315"/>
<polygon fill="#63b8ff" stroke="#63b8ff" points="537.24,-343.34 529.88,-350.96 540.39,-349.59 537.24,-343.34"/>
</a>
</g>
</g>
<!-- Node19 -->
<g id="Node000019" class="node">
<title>Node19</title>
<g id="a_Node000019"><a xlink:href="../../d8/dda/classxii_scene_action.html" target="_top" xlink:title=" ">
<polygon fill="white" stroke="#bfbfbf" points="722.5,-278 633.5,-278 633.5,-259 722.5,-259 722.5,-278"/>
<text text-anchor="middle" x="678" y="-266" font-family="Helvetica,sans-Serif" font-size="10.00">xiiSceneAction</text>
</a>
</g>
</g>
<!-- Node1&#45;&gt;Node19 -->
<g id="edge18_Node000001_Node000019" class="edge">
<title>Node1&#45;&gt;Node19</title>
<g id="a_edge18_Node000001_Node000019"><a xlink:title=" ">
<path fill="none" stroke="#63b8ff" d="M526.41,-342.73C541.28,-325.63 566.04,-300.39 593,-286.5 605.33,-280.15 619.79,-276.04 633.2,-273.37"/>
<polygon fill="#63b8ff" stroke="#63b8ff" points="523.35,-340.93 519.58,-350.83 528.7,-345.44 523.35,-340.93"/>
</a>
</g>
</g>
<!-- Node20 -->
<g id="Node000020" class="node">
<title>Node20</title>
<g id="a_Node000020"><a xlink:href="../../d2/d40/classxii_selection_action.html" target="_top" xlink:title=" ">
<polygon fill="white" stroke="#bfbfbf" points="730,-241 626,-241 626,-222 730,-222 730,-241"/>
<text text-anchor="middle" x="678" y="-229" font-family="Helvetica,sans-Serif" font-size="10.00">xiiSelectionAction</text>
</a>
</g>
</g>
<!-- Node1&#45;&gt;Node20 -->
<g id="edge19_Node000001_Node000020" class="edge">
<title>Node1&#45;&gt;Node20</title>
<g id="a_edge19_Node000001_Node000020"><a xlink:title=" ">
<path fill="none" stroke="#63b8ff" d="M520.33,-341.74C532.52,-316.58 557.65,-272.45 593,-249.5 602.76,-243.17 614.37,-239.02 625.79,-236.32"/>
<polygon fill="#63b8ff" stroke="#63b8ff" points="517.09,-340.4 516.04,-350.95 523.44,-343.36 517.09,-340.4"/>
</a>
</g>
</g>
<!-- Node21 -->
<g id="Node000021" class="node">
<title>Node21</title>
<g id="a_Node000021"><a xlink:href="../../d3/dc7/classxii_skeleton_action.html" target="_top" xlink:title=" ">
<polygon fill="white" stroke="#bfbfbf" points="728.5,-204 627.5,-204 627.5,-185 728.5,-185 728.5,-204"/>
<text text-anchor="middle" x="678" y="-192" font-family="Helvetica,sans-Serif" font-size="10.00">xiiSkeletonAction</text>
</a>
</g>
</g>
<!-- Node1&#45;&gt;Node21 -->
<g id="edge20_Node000001_Node000021" class="edge">
<title>Node1&#45;&gt;Node21</title>
<g id="a_edge20_Node000001_Node000021"><a xlink:title=" ">
<path fill="none" stroke="#63b8ff" d="M517.05,-340.69C526.34,-308.48 549.3,-245.07 593,-212.5 602.92,-205.1 615.24,-200.61 627.36,-197.91"/>
<polygon fill="#63b8ff" stroke="#63b8ff" points="513.58,-340.11 514.32,-350.68 520.33,-341.96 513.58,-340.11"/>
</a>
</g>
</g>
<!-- Node22 -->
<g id="Node000022" class="node">
<title>Node22</title>
<g id="a_Node000022"><a xlink:href="../../d4/dcc/classxii_transform_gizmo_action.html" target="_top" xlink:title=" ">
<polygon fill="white" stroke="#bfbfbf" points="748,-167 608,-167 608,-148 748,-148 748,-167"/>
<text text-anchor="middle" x="678" y="-155" font-family="Helvetica,sans-Serif" font-size="10.00">xiiTransformGizmoAction</text>
</a>
</g>
</g>
<!-- Node1&#45;&gt;Node22 -->
<g id="edge21_Node000001_Node000022" class="edge">
<title>Node1&#45;&gt;Node22</title>
<g id="a_edge21_Node000001_Node000022"><a xlink:title=" ">
<path fill="none" stroke="#63b8ff" d="M514.69,-340.69C520.99,-302.46 540.34,-218.48 593,-175.5 597.51,-171.82 602.59,-168.85 607.97,-166.45"/>
<polygon fill="#63b8ff" stroke="#63b8ff" points="511.23,-340.18 513.19,-350.59 518.15,-341.23 511.23,-340.18"/>
</a>
</g>
</g>
<!-- Node23 -->
<g id="Node000023" class="node">
<title>Node23</title>
<g id="a_Node000023"><a xlink:href="../../df/d89/classxii_translate_gizmo_action.html" target="_top" xlink:title=" ">
<polygon fill="white" stroke="#bfbfbf" points="745.5,-130 610.5,-130 610.5,-111 745.5,-111 745.5,-130"/>
<text text-anchor="middle" x="678" y="-118" font-family="Helvetica,sans-Serif" font-size="10.00">xiiTranslateGizmoAction</text>
</a>
</g>
</g>
<!-- Node1&#45;&gt;Node23 -->
<g id="edge22_Node000001_Node000023" class="edge">
<title>Node1&#45;&gt;Node23</title>
<g id="a_edge22_Node000001_Node000023"><a xlink:title=" ">
<path fill="none" stroke="#63b8ff" d="M513.09,-340.49C516.6,-296.72 531.34,-192.14 593,-138.5 598.06,-134.09 603.94,-130.68 610.19,-128.05"/>
<polygon fill="#63b8ff" stroke="#63b8ff" points="509.58,-340.47 512.39,-350.68 516.56,-340.94 509.58,-340.47"/>
</a>
</g>
</g>
<!-- Node24 -->
<g id="Node000024" class="node">
<title>Node24</title>
<g id="a_Node000024"><a xlink:href="../../d4/d48/classxii_view_action.html" target="_top" xlink:title=" ">
<polygon fill="white" stroke="#bfbfbf" points="719.5,-93 636.5,-93 636.5,-74 719.5,-74 719.5,-93"/>
<text text-anchor="middle" x="678" y="-81" font-family="Helvetica,sans-Serif" font-size="10.00">xiiViewAction</text>
</a>
</g>
</g>
<!-- Node1&#45;&gt;Node24 -->
<g id="edge23_Node000001_Node000024" class="edge">
<title>Node1&#45;&gt;Node24</title>
<g id="a_edge23_Node000001_Node000024"><a xlink:title=" ">
<path fill="none" stroke="#63b8ff" d="M511.88,-340.89C512.7,-292.44 521.94,-166.31 593,-101.5 604.68,-90.85 621.09,-85.93 636.31,-83.83"/>
<polygon fill="#63b8ff" stroke="#63b8ff" points="508.38,-340.96 511.81,-350.98 515.38,-341 508.38,-340.96"/>
</a>
</g>
</g>
<!-- Node25 -->
<g id="Node000025" class="node">
<title>Node25</title>
<g id="a_Node000025"><a xlink:href="../../d6/da3/classxii_view_light_button_action.html" target="_top" xlink:title=" ">
<polygon fill="white" stroke="#bfbfbf" points="748,-56 608,-56 608,-37 748,-37 748,-56"/>
<text text-anchor="middle" x="678" y="-44" font-family="Helvetica,sans-Serif" font-size="10.00">xiiViewLightButtonAction</text>
</a>
</g>
</g>
<!-- Node1&#45;&gt;Node25 -->
<g id="edge24_Node000001_Node000025" class="edge">
<title>Node1&#45;&gt;Node25</title>
<g id="a_edge24_Node000001_Node000025"><a xlink:title=" ">
<path fill="none" stroke="#63b8ff" d="M514.68,-340.98C523.26,-281.36 551.9,-103.36 593,-64.5 597.33,-60.4 602.37,-57.14 607.77,-54.57"/>
<polygon fill="#63b8ff" stroke="#63b8ff" points="511.2,-340.57 513.27,-350.96 518.14,-341.55 511.2,-340.57"/>
</a>
</g>
</g>
<!-- Node26 -->
<g id="Node000026" class="node">
<title>Node26</title>
<g id="a_Node000026"><a xlink:href="../../d1/d7d/classxii_visual_shader_action.html" target="_top" xlink:title=" ">
<polygon fill="white" stroke="#bfbfbf" points="739.5,-19 616.5,-19 616.5,0 739.5,0 739.5,-19"/>
<text text-anchor="middle" x="678" y="-7" font-family="Helvetica,sans-Serif" font-size="10.00">xiiVisualShaderAction</text>
</a>
</g>
</g>
<!-- Node1&#45;&gt;Node26 -->
<g id="edge25_Node000001_Node000026" class="edge">
<title>Node1&#45;&gt;Node26</title>
<g id="a_edge25_Node000001_Node000026"><a xlink:title=" ">
<path fill="none" stroke="#63b8ff" d="M514.08,-340.7C521.28,-275.93 547.24,-72.02 593,-27.5 599.52,-21.16 607.7,-16.81 616.39,-13.88"/>
<polygon fill="#63b8ff" stroke="#63b8ff" points="510.58,-340.47 512.98,-350.79 517.54,-341.23 510.58,-340.47"/>
</a>
</g>
</g>
<!-- Node2 -->
<g id="Node000002" class="node">
<title>Node2</title>
<g id="a_Node000002"><a xlink:href="../../d3/d7a/classxii_named_action.html" target="_top" xlink:title=" ">
<polygon fill="white" stroke="#bfbfbf" points="429,-370 334,-370 334,-351 429,-351 429,-370"/>
<text text-anchor="middle" x="381.5" y="-358" font-family="Helvetica,sans-Serif" font-size="10.00">xiiNamedAction</text>
</a>
</g>
</g>
<!-- Node2&#45;&gt;Node1 -->
<g id="edge1_Node000001_Node000002" class="edge">
<title>Node2&#45;&gt;Node1</title>
<g id="a_edge1_Node000001_Node000002"><a xlink:title=" ">
<path fill="none" stroke="#63b8ff" d="M439.52,-360.5C448.04,-360.5 456.73,-360.5 464.95,-360.5"/>
<polygon fill="#63b8ff" stroke="#63b8ff" points="439.25,-357 429.25,-360.5 439.25,-364 439.25,-357"/>
</a>
</g>
</g>
<!-- Node3 -->
<g id="Node000003" class="node">
<title>Node3</title>
<g id="a_Node000003"><a xlink:href="../../d8/d30/classxii_action.html" target="_top" xlink:title=" ">
<polygon fill="white" stroke="#bfbfbf" points="298,-370 239,-370 239,-351 298,-351 298,-370"/>
<text text-anchor="middle" x="268.5" y="-358" font-family="Helvetica,sans-Serif" font-size="10.00">xiiAction</text>
</a>
</g>
</g>
<!-- Node3&#45;&gt;Node2 -->
<g id="edge2_Node000002_Node000003" class="edge">
<title>Node3&#45;&gt;Node2</title>
<g id="a_edge2_Node000002_Node000003"><a xlink:title=" ">
<path fill="none" stroke="#63b8ff" d="M308.23,-360.5C316.53,-360.5 325.37,-360.5 333.93,-360.5"/>
<polygon fill="#63b8ff" stroke="#63b8ff" points="308.09,-357 298.09,-360.5 308.09,-364 308.09,-357"/>
</a>
</g>
</g>
<!-- Node4 -->
<g id="Node000004" class="node">
<title>Node4</title>
<g id="a_Node000004"><a xlink:href="../../dc/d71/classxii_reflected_class.html" target="_top" xlink:title="All classes that should be dynamically reflectable, need to be derived from this base class.">
<polygon fill="white" stroke="#666666" points="203,-370 102,-370 102,-351 203,-351 203,-370"/>
<text text-anchor="middle" x="152.5" y="-358" font-family="Helvetica,sans-Serif" font-size="10.00">xiiReflectedClass</text>
</a>
</g>
</g>
<!-- Node4&#45;&gt;Node3 -->
<g id="edge3_Node000003_Node000004" class="edge">
<title>Node4&#45;&gt;Node3</title>
<g id="a_edge3_Node000003_Node000004"><a xlink:title=" ">
<path fill="none" stroke="#63b8ff" d="M213.27,-360.5C222.22,-360.5 231.08,-360.5 238.96,-360.5"/>
<polygon fill="#63b8ff" stroke="#63b8ff" points="213.17,-357 203.17,-360.5 213.17,-364 213.17,-357"/>
</a>
</g>
</g>
<!-- Node5 -->
<g id="Node000005" class="node">
<title>Node5</title>
<g id="a_Node000005"><a xlink:href="../../d2/d38/classxii_no_base.html" target="_top" xlink:title="Dummy type to pass to templates and macros that expect a base type for a class that has no base.">
<polygon fill="white" stroke="#666666" points="66,-370 0,-370 0,-351 66,-351 66,-370"/>
<text text-anchor="middle" x="33" y="-358" font-family="Helvetica,sans-Serif" font-size="10.00">xiiNoBase</text>
</a>
</g>
</g>
<!-- Node5&#45;&gt;Node4 -->
<g id="edge4_Node000004_Node000005" class="edge">
<title>Node5&#45;&gt;Node4</title>
<g id="a_edge4_Node000004_Node000005"><a xlink:title=" ">
<path fill="none" stroke="#63b8ff" d="M76.27,-360.5C84.54,-360.5 93.29,-360.5 101.78,-360.5"/>
<polygon fill="#63b8ff" stroke="#63b8ff" points="76.11,-357 66.11,-360.5 76.11,-364 76.11,-357"/>
</a>
</g>
</g>
<!-- Node14 -->
<g id="Node000014" class="node">
<title>Node14</title>
<g id="a_Node000014"><a xlink:href="../../df/dfa/classxii_toggle_world_space_gizmo.html" target="_top" xlink:title=" ">
<polygon fill="white" stroke="#bfbfbf" points="948,-463 799,-463 799,-444 948,-444 948,-463"/>
<text text-anchor="middle" x="873.5" y="-451" font-family="Helvetica,sans-Serif" font-size="10.00">xiiToggleWorldSpaceGizmo</text>
</a>
</g>
</g>
<!-- Node13&#45;&gt;Node14 -->
<g id="edge13_Node000013_Node000014" class="edge">
<title>Node13&#45;&gt;Node14</title>
<g id="a_edge13_Node000013_Node000014"><a xlink:title=" ">
<path fill="none" stroke="#63b8ff" d="M734.09,-453.5C754.18,-453.5 777.23,-453.5 798.69,-453.5"/>
<polygon fill="#63b8ff" stroke="#63b8ff" points="733.88,-450 723.88,-453.5 733.88,-457 733.88,-450"/>
</a>
</g>
</g>
</g>
</svg>

<g id="navigator" transform="translate(0 0)" fill="#404254">
  <rect fill="#f2f5e9" fill-opacity="0.5" stroke="#606060" stroke-width=".5" x="0" y="0" width="60" height="60"/>
  <use id="zoomplus" xlink:href="#zoomPlus" x="17" y="9" onmousedown="handleZoom(evt,'in')"/>
  <use id="zoomminus" xlink:href="#zoomMin" x="42" y="9" onmousedown="handleZoom(evt,'out')"/>
  <use id="reset" xlink:href="#resetDef" x="30" y="36" onmousedown="handleReset()"/>
   <use id="arrowup" xlink:href="#arrowUp" x="0" y="0" onmousedown="handlePan(0,-1)"/>
  <use id="arrowright" xlink:href="#arrowRight" x="0" y="0" onmousedown="handlePan(1,0)"/>
  <use id="arrowdown" xlink:href="#arrowDown" x="0" y="0" onmousedown="handlePan(0,1)"/>
  <use id="arrowleft" xlink:href="#arrowLeft" x="0" y="0" onmousedown="handlePan(-1,0)"/>
</g>
<svg viewBox="0 0 15 15" width="100%" height="30px" preserveAspectRatio="xMaxYMin meet">
 <g id="arrow_out" transform="scale(0.3 0.3)">
  <a xlink:href="classxii_button_action__inherit__graph_org.svg" target="_base">
   <rect id="button" ry="5" rx="5" y="6" x="6" height="38" width="38"
        fill="#f2f5e9" fill-opacity="0.5" stroke="#606060" stroke-width="1.0"/>
   <path id="arrow"
     d="M 11.500037,31.436501 C 11.940474,20.09759 22.043105,11.32322 32.158766,21.979434 L 37.068811,17.246167 C 37.068811,17.246167 37.088388,32 37.088388,32 L 22.160133,31.978069 C 22.160133,31.978069 26.997745,27.140456 26.997745,27.140456 C 18.528582,18.264221 13.291696,25.230495 11.500037,31.436501 z"
     style="fill:#404040;"/>
  </a>
 </g>
</svg>

<style type='text/css'>
<![CDATA[
[data-mouse-over-selected='false'] { opacity: 0.7; }
[data-mouse-over-selected='true']  { opacity: 1.0; }
]]>
</style>
<script type="application/ecmascript"><![CDATA[
document.addEventListener('DOMContentLoaded', (event) => {
  highlightEdges();
  highlightAdjacentNodes();
});
]]></script>
</svg>
