<?xml version="1.0" encoding="UTF-8" standalone="no"?>
<!DOCTYPE svg PUBLIC "-//W3C//DTD SVG 1.1//EN"
 "http://www.w3.org/Graphics/SVG/1.1/DTD/svg11.dtd">
<!-- Generated by graphviz version 2.43.0 (0)
 -->
<!-- Title: xiiButtonAction Pages: 1 -->
<svg width="956pt" height="750pt"
 viewBox="0.00 0.00 956.00 750.00" xmlns="http://www.w3.org/2000/svg" xmlns:xlink="http://www.w3.org/1999/xlink">
<g id="graph0" class="graph" transform="scale(1 1) rotate(0) translate(4 746)">
<title>xiiButtonAction</title>
<polygon fill="white" stroke="transparent" points="-4,4 -4,-746 952,-746 952,4 -4,4"/>
<!-- Node1 -->
<g id="node1" class="node">
<title>Node1</title>
<g id="a_node1"><a xlink:title=" ">
<polygon fill="#bfbfbf" stroke="black" points="465,-361.5 465,-380.5 557,-380.5 557,-361.5 465,-361.5"/>
<text text-anchor="middle" x="511" y="-368.5" font-family="Helvetica,sans-Serif" font-size="10.00">xiiButtonAction</text>
</a>
</g>
</g>
<!-- Node6 -->
<g id="node6" class="node">
<title>Node6</title>
<g id="a_node6"><a xlink:href="../../d4/d8a/classxii_asset_action.htm" target="_top" xlink:title=" ">
<polygon fill="white" stroke="black" points="635,-722.5 635,-741.5 721,-741.5 721,-722.5 635,-722.5"/>
<text text-anchor="middle" x="678" y="-729.5" font-family="Helvetica,sans-Serif" font-size="10.00">xiiAssetAction</text>
</a>
</g>
</g>
<!-- Node1&#45;&gt;Node6 -->
<g id="edge5" class="edge">
<title>Node1&#45;&gt;Node6</title>
<path fill="none" stroke="midnightblue" d="M513.97,-390.88C520.92,-456.83 546.37,-666.83 593,-713 603.94,-723.83 619.68,-729.03 634.58,-731.36"/>
<polygon fill="midnightblue" stroke="midnightblue" points="517.42,-390.21 512.92,-380.62 510.46,-390.93 517.42,-390.21"/>
</g>
<!-- Node7 -->
<g id="node7" class="node">
<title>Node7</title>
<g id="a_node7"><a xlink:href="../../d1/d96/classxii_common_asset_action.htm" target="_top" xlink:title=" ">
<polygon fill="white" stroke="black" points="612.5,-684.5 612.5,-703.5 743.5,-703.5 743.5,-684.5 612.5,-684.5"/>
<text text-anchor="middle" x="678" y="-691.5" font-family="Helvetica,sans-Serif" font-size="10.00">xiiCommonAssetAction</text>
</a>
</g>
</g>
<!-- Node1&#45;&gt;Node7 -->
<g id="edge6" class="edge">
<title>Node1&#45;&gt;Node7</title>
<path fill="none" stroke="midnightblue" d="M514.62,-391.02C523.03,-452.17 551.23,-634.79 593,-675 598.49,-680.29 605.13,-684.22 612.24,-687.14"/>
<polygon fill="midnightblue" stroke="midnightblue" points="518.05,-390.23 513.24,-380.78 511.11,-391.16 518.05,-390.23"/>
</g>
<!-- Node8 -->
<g id="node8" class="node">
<title>Node8</title>
<g id="a_node8"><a xlink:href="../../d5/d9a/classxii_document_action.htm" target="_top" xlink:title="Standard document actions.">
<polygon fill="white" stroke="black" points="623,-646.5 623,-665.5 733,-665.5 733,-646.5 623,-646.5"/>
<text text-anchor="middle" x="678" y="-653.5" font-family="Helvetica,sans-Serif" font-size="10.00">xiiDocumentAction</text>
</a>
</g>
</g>
<!-- Node1&#45;&gt;Node8 -->
<g id="edge7" class="edge">
<title>Node1&#45;&gt;Node8</title>
<path fill="none" stroke="midnightblue" d="M511.74,-390.76C512.21,-440.14 520.67,-569.77 593,-637 601.21,-644.63 611.82,-649.43 622.72,-652.39"/>
<polygon fill="midnightblue" stroke="midnightblue" points="515.24,-390.75 511.74,-380.75 508.24,-390.74 515.24,-390.75"/>
</g>
<!-- Node9 -->
<g id="node9" class="node">
<title>Node9</title>
<g id="a_node9"><a xlink:href="../../db/dba/classxii_edit_action.htm" target="_top" xlink:title=" ">
<polygon fill="white" stroke="black" points="639,-608.5 639,-627.5 717,-627.5 717,-608.5 639,-608.5"/>
<text text-anchor="middle" x="678" y="-615.5" font-family="Helvetica,sans-Serif" font-size="10.00">xiiEditAction</text>
</a>
</g>
</g>
<!-- Node1&#45;&gt;Node9 -->
<g id="edge8" class="edge">
<title>Node1&#45;&gt;Node9</title>
<path fill="none" stroke="midnightblue" d="M512.89,-390.59C516,-434.85 530,-543.08 593,-599 605.41,-610.02 622.85,-615.05 638.63,-617.22"/>
<polygon fill="midnightblue" stroke="midnightblue" points="516.38,-390.34 512.3,-380.56 509.39,-390.75 516.38,-390.34"/>
</g>
<!-- Node10 -->
<g id="node10" class="node">
<title>Node10</title>
<g id="a_node10"><a xlink:href="../../dc/d44/classxii_game_object_context_action.htm" target="_top" xlink:title=" ">
<polygon fill="white" stroke="black" points="599,-570.5 599,-589.5 757,-589.5 757,-570.5 599,-570.5"/>
<text text-anchor="middle" x="678" y="-577.5" font-family="Helvetica,sans-Serif" font-size="10.00">xiiGameObjectContextAction</text>
</a>
</g>
</g>
<!-- Node1&#45;&gt;Node10 -->
<g id="edge9" class="edge">
<title>Node1&#45;&gt;Node10</title>
<path fill="none" stroke="midnightblue" d="M514.48,-390.73C520.46,-429.62 539.36,-516.27 593,-561 597.59,-564.83 602.8,-567.93 608.32,-570.43"/>
<polygon fill="midnightblue" stroke="midnightblue" points="517.93,-390.11 513.07,-380.7 510.99,-391.09 517.93,-390.11"/>
</g>
<!-- Node11 -->
<g id="node11" class="node">
<title>Node11</title>
<g id="a_node11"><a xlink:href="../../da/d2c/classxii_game_object_document_action.htm" target="_top" xlink:title=" ">
<polygon fill="white" stroke="black" points="593,-532.5 593,-551.5 763,-551.5 763,-532.5 593,-532.5"/>
<text text-anchor="middle" x="678" y="-539.5" font-family="Helvetica,sans-Serif" font-size="10.00">xiiGameObjectDocumentAction</text>
</a>
</g>
</g>
<!-- Node1&#45;&gt;Node11 -->
<g id="edge10" class="edge">
<title>Node1&#45;&gt;Node11</title>
<path fill="none" stroke="midnightblue" d="M516.68,-390.38C525.63,-423.07 548.36,-488.94 593,-523 597.99,-526.81 603.61,-529.88 609.51,-532.35"/>
<polygon fill="midnightblue" stroke="midnightblue" points="520.06,-389.46 514.16,-380.66 513.28,-391.21 520.06,-389.46"/>
</g>
<!-- Node12 -->
<g id="node12" class="node">
<title>Node12</title>
<g id="a_node12"><a xlink:href="../../d1/db0/classxii_game_object_selection_action.htm" target="_top" xlink:title=" ">
<polygon fill="white" stroke="black" points="595.5,-494.5 595.5,-513.5 760.5,-513.5 760.5,-494.5 595.5,-494.5"/>
<text text-anchor="middle" x="678" y="-501.5" font-family="Helvetica,sans-Serif" font-size="10.00">xiiGameObjectSelectionAction</text>
</a>
</g>
</g>
<!-- Node1&#45;&gt;Node12 -->
<g id="edge11" class="edge">
<title>Node1&#45;&gt;Node12</title>
<path fill="none" stroke="midnightblue" d="M520.23,-390.21C532.3,-415.97 557.31,-461.22 593,-485 598.85,-488.9 605.38,-492 612.15,-494.48"/>
<polygon fill="midnightblue" stroke="midnightblue" points="523.28,-388.46 515.99,-380.78 516.9,-391.33 523.28,-388.46"/>
</g>
<!-- Node13 -->
<g id="node13" class="node">
<title>Node13</title>
<g id="a_node13"><a xlink:href="../../d9/d72/classxii_gizmo_action.htm" target="_top" xlink:title=" ">
<polygon fill="white" stroke="black" points="632.5,-456.5 632.5,-475.5 723.5,-475.5 723.5,-456.5 632.5,-456.5"/>
<text text-anchor="middle" x="678" y="-463.5" font-family="Helvetica,sans-Serif" font-size="10.00">xiiGizmoAction</text>
</a>
</g>
</g>
<!-- Node1&#45;&gt;Node13 -->
<g id="edge12" class="edge">
<title>Node1&#45;&gt;Node13</title>
<path fill="none" stroke="midnightblue" d="M525.7,-388.43C540.44,-405.95 565.48,-432.39 593,-447 605.02,-453.38 619.11,-457.62 632.27,-460.45"/>
<polygon fill="midnightblue" stroke="midnightblue" points="528.37,-386.17 519.33,-380.64 522.95,-390.6 528.37,-386.17"/>
</g>
<!-- Node15 -->
<g id="node15" class="node">
<title>Node15</title>
<g id="a_node15"><a xlink:href="../../d8/d13/classxii_help_actions.htm" target="_top" xlink:title=" ">
<polygon fill="white" stroke="black" points="634.5,-418.5 634.5,-437.5 721.5,-437.5 721.5,-418.5 634.5,-418.5"/>
<text text-anchor="middle" x="678" y="-425.5" font-family="Helvetica,sans-Serif" font-size="10.00">xiiHelpActions</text>
</a>
</g>
</g>
<!-- Node1&#45;&gt;Node15 -->
<g id="edge14" class="edge">
<title>Node1&#45;&gt;Node15</title>
<path fill="none" stroke="midnightblue" d="M538.57,-385.25C554.09,-393.12 574.26,-402.57 593,-409 606.15,-413.51 620.83,-417.25 634.2,-420.19"/>
<polygon fill="midnightblue" stroke="midnightblue" points="540.05,-382.07 529.55,-380.59 536.83,-388.29 540.05,-382.07"/>
</g>
<!-- Node16 -->
<g id="node16" class="node">
<title>Node16</title>
<g id="a_node16"><a xlink:href="../../d4/d67/classxii_layer_action.htm" target="_top" xlink:title=" ">
<polygon fill="white" stroke="black" points="635,-380.5 635,-399.5 721,-399.5 721,-380.5 635,-380.5"/>
<text text-anchor="middle" x="678" y="-387.5" font-family="Helvetica,sans-Serif" font-size="10.00">xiiLayerAction</text>
</a>
</g>
</g>
<!-- Node1&#45;&gt;Node16 -->
<g id="edge15" class="edge">
<title>Node1&#45;&gt;Node16</title>
<path fill="none" stroke="midnightblue" d="M567.3,-377.37C589.33,-379.91 614.27,-382.78 634.8,-385.14"/>
<polygon fill="midnightblue" stroke="midnightblue" points="567.42,-373.86 557.09,-376.19 566.62,-380.81 567.42,-373.86"/>
</g>
<!-- Node17 -->
<g id="node17" class="node">
<title>Node17</title>
<g id="a_node17"><a xlink:href="../../d4/d6c/classxii_project_action.htm" target="_top" xlink:title=" ">
<polygon fill="white" stroke="black" points="631.5,-342.5 631.5,-361.5 724.5,-361.5 724.5,-342.5 631.5,-342.5"/>
<text text-anchor="middle" x="678" y="-349.5" font-family="Helvetica,sans-Serif" font-size="10.00">xiiProjectAction</text>
</a>
</g>
</g>
<!-- Node1&#45;&gt;Node17 -->
<g id="edge16" class="edge">
<title>Node1&#45;&gt;Node17</title>
<path fill="none" stroke="midnightblue" d="M567.1,-364.66C587.97,-362.25 611.49,-359.54 631.39,-357.25"/>
<polygon fill="midnightblue" stroke="midnightblue" points="566.62,-361.19 557.09,-365.81 567.42,-368.14 566.62,-361.19"/>
</g>
<!-- Node18 -->
<g id="node18" class="node">
<title>Node18</title>
<g id="a_node18"><a xlink:href="../../dc/dcb/classxii_quad_view_action.htm" target="_top" xlink:title=" ">
<polygon fill="white" stroke="black" points="623.5,-304.5 623.5,-323.5 732.5,-323.5 732.5,-304.5 623.5,-304.5"/>
<text text-anchor="middle" x="678" y="-311.5" font-family="Helvetica,sans-Serif" font-size="10.00">xiiQuadViewAction</text>
</a>
</g>
</g>
<!-- Node1&#45;&gt;Node18 -->
<g id="edge17" class="edge">
<title>Node1&#45;&gt;Node18</title>
<path fill="none" stroke="midnightblue" d="M538.57,-356.75C554.09,-348.88 574.26,-339.43 593,-333 603.75,-329.31 615.52,-326.14 626.76,-323.5"/>
<polygon fill="midnightblue" stroke="midnightblue" points="536.83,-353.71 529.55,-361.41 540.05,-359.93 536.83,-353.71"/>
</g>
<!-- Node19 -->
<g id="node19" class="node">
<title>Node19</title>
<g id="a_node19"><a xlink:href="../../d8/dda/classxii_scene_action.htm" target="_top" xlink:title=" ">
<polygon fill="white" stroke="black" points="633.5,-266.5 633.5,-285.5 722.5,-285.5 722.5,-266.5 633.5,-266.5"/>
<text text-anchor="middle" x="678" y="-273.5" font-family="Helvetica,sans-Serif" font-size="10.00">xiiSceneAction</text>
</a>
</g>
</g>
<!-- Node1&#45;&gt;Node19 -->
<g id="edge18" class="edge">
<title>Node1&#45;&gt;Node19</title>
<path fill="none" stroke="midnightblue" d="M525.7,-353.57C540.44,-336.05 565.48,-309.61 593,-295 605.28,-288.48 619.73,-284.19 633.14,-281.37"/>
<polygon fill="midnightblue" stroke="midnightblue" points="522.95,-351.4 519.33,-361.36 528.37,-355.83 522.95,-351.4"/>
</g>
<!-- Node20 -->
<g id="node20" class="node">
<title>Node20</title>
<g id="a_node20"><a xlink:href="../../d2/d40/classxii_selection_action.htm" target="_top" xlink:title=" ">
<polygon fill="white" stroke="black" points="626,-228.5 626,-247.5 730,-247.5 730,-228.5 626,-228.5"/>
<text text-anchor="middle" x="678" y="-235.5" font-family="Helvetica,sans-Serif" font-size="10.00">xiiSelectionAction</text>
</a>
</g>
</g>
<!-- Node1&#45;&gt;Node20 -->
<g id="edge19" class="edge">
<title>Node1&#45;&gt;Node20</title>
<path fill="none" stroke="midnightblue" d="M520.23,-351.79C532.3,-326.03 557.31,-280.78 593,-257 602.71,-250.53 614.29,-246.24 625.72,-243.4"/>
<polygon fill="midnightblue" stroke="midnightblue" points="516.9,-350.67 515.99,-361.22 523.28,-353.54 516.9,-350.67"/>
</g>
<!-- Node21 -->
<g id="node21" class="node">
<title>Node21</title>
<g id="a_node21"><a xlink:href="../../d3/dc7/classxii_skeleton_action.htm" target="_top" xlink:title=" ">
<polygon fill="white" stroke="black" points="627.5,-190.5 627.5,-209.5 728.5,-209.5 728.5,-190.5 627.5,-190.5"/>
<text text-anchor="middle" x="678" y="-197.5" font-family="Helvetica,sans-Serif" font-size="10.00">xiiSkeletonAction</text>
</a>
</g>
</g>
<!-- Node1&#45;&gt;Node21 -->
<g id="edge20" class="edge">
<title>Node1&#45;&gt;Node21</title>
<path fill="none" stroke="midnightblue" d="M516.68,-351.62C525.63,-318.93 548.36,-253.06 593,-219 602.87,-211.47 615.16,-206.83 627.28,-203.99"/>
<polygon fill="midnightblue" stroke="midnightblue" points="513.28,-350.79 514.16,-361.34 520.06,-352.54 513.28,-350.79"/>
</g>
<!-- Node22 -->
<g id="node22" class="node">
<title>Node22</title>
<g id="a_node22"><a xlink:href="../../d4/dcc/classxii_transform_gizmo_action.htm" target="_top" xlink:title=" ">
<polygon fill="white" stroke="black" points="608,-152.5 608,-171.5 748,-171.5 748,-152.5 608,-152.5"/>
<text text-anchor="middle" x="678" y="-159.5" font-family="Helvetica,sans-Serif" font-size="10.00">xiiTransformGizmoAction</text>
</a>
</g>
</g>
<!-- Node1&#45;&gt;Node22 -->
<g id="edge21" class="edge">
<title>Node1&#45;&gt;Node22</title>
<path fill="none" stroke="midnightblue" d="M514.48,-351.27C520.46,-312.38 539.36,-225.73 593,-181 597.59,-177.17 602.8,-174.07 608.32,-171.57"/>
<polygon fill="midnightblue" stroke="midnightblue" points="510.99,-350.91 513.07,-361.3 517.93,-351.89 510.99,-350.91"/>
</g>
<!-- Node23 -->
<g id="node23" class="node">
<title>Node23</title>
<g id="a_node23"><a xlink:href="../../df/d89/classxii_translate_gizmo_action.htm" target="_top" xlink:title=" ">
<polygon fill="white" stroke="black" points="610.5,-114.5 610.5,-133.5 745.5,-133.5 745.5,-114.5 610.5,-114.5"/>
<text text-anchor="middle" x="678" y="-121.5" font-family="Helvetica,sans-Serif" font-size="10.00">xiiTranslateGizmoAction</text>
</a>
</g>
</g>
<!-- Node1&#45;&gt;Node23 -->
<g id="edge22" class="edge">
<title>Node1&#45;&gt;Node23</title>
<path fill="none" stroke="midnightblue" d="M512.89,-351.41C516,-307.15 530,-198.92 593,-143 598.03,-138.53 603.89,-135.05 610.13,-132.34"/>
<polygon fill="midnightblue" stroke="midnightblue" points="509.39,-351.25 512.3,-361.44 516.38,-351.66 509.39,-351.25"/>
</g>
<!-- Node24 -->
<g id="node24" class="node">
<title>Node24</title>
<g id="a_node24"><a xlink:href="../../d4/d48/classxii_view_action.htm" target="_top" xlink:title=" ">
<polygon fill="white" stroke="black" points="636.5,-76.5 636.5,-95.5 719.5,-95.5 719.5,-76.5 636.5,-76.5"/>
<text text-anchor="middle" x="678" y="-83.5" font-family="Helvetica,sans-Serif" font-size="10.00">xiiViewAction</text>
</a>
</g>
</g>
<!-- Node1&#45;&gt;Node24 -->
<g id="edge23" class="edge">
<title>Node1&#45;&gt;Node24</title>
<path fill="none" stroke="midnightblue" d="M511.74,-351.24C512.21,-301.86 520.67,-172.23 593,-105 604.61,-94.21 621.01,-89.1 636.24,-86.81"/>
<polygon fill="midnightblue" stroke="midnightblue" points="508.24,-351.26 511.74,-361.25 515.24,-351.25 508.24,-351.26"/>
</g>
<!-- Node25 -->
<g id="node25" class="node">
<title>Node25</title>
<g id="a_node25"><a xlink:href="../../d6/da3/classxii_view_light_button_action.htm" target="_top" xlink:title=" ">
<polygon fill="white" stroke="black" points="608,-38.5 608,-57.5 748,-57.5 748,-38.5 608,-38.5"/>
<text text-anchor="middle" x="678" y="-45.5" font-family="Helvetica,sans-Serif" font-size="10.00">xiiViewLightButtonAction</text>
</a>
</g>
</g>
<!-- Node1&#45;&gt;Node25 -->
<g id="edge24" class="edge">
<title>Node1&#45;&gt;Node25</title>
<path fill="none" stroke="midnightblue" d="M514.62,-350.98C523.03,-289.83 551.23,-107.21 593,-67 597.31,-62.85 602.32,-59.54 607.71,-56.89"/>
<polygon fill="midnightblue" stroke="midnightblue" points="511.11,-350.84 513.24,-361.22 518.05,-351.77 511.11,-350.84"/>
</g>
<!-- Node26 -->
<g id="node26" class="node">
<title>Node26</title>
<g id="a_node26"><a xlink:href="../../d1/d7d/classxii_visual_shader_action.htm" target="_top" xlink:title=" ">
<polygon fill="white" stroke="black" points="616.5,-0.5 616.5,-19.5 739.5,-19.5 739.5,-0.5 616.5,-0.5"/>
<text text-anchor="middle" x="678" y="-7.5" font-family="Helvetica,sans-Serif" font-size="10.00">xiiVisualShaderAction</text>
</a>
</g>
</g>
<!-- Node1&#45;&gt;Node26 -->
<g id="edge25" class="edge">
<title>Node1&#45;&gt;Node26</title>
<path fill="none" stroke="midnightblue" d="M513.97,-351.12C520.92,-285.17 546.37,-75.17 593,-29 599.48,-22.58 607.64,-18.15 616.32,-15.11"/>
<polygon fill="midnightblue" stroke="midnightblue" points="510.46,-351.07 512.92,-361.38 517.42,-351.79 510.46,-351.07"/>
</g>
<!-- Node2 -->
<g id="node2" class="node">
<title>Node2</title>
<g id="a_node2"><a xlink:href="../../d3/d7a/classxii_named_action.htm" target="_top" xlink:title=" ">
<polygon fill="white" stroke="black" points="334,-361.5 334,-380.5 429,-380.5 429,-361.5 334,-361.5"/>
<text text-anchor="middle" x="381.5" y="-368.5" font-family="Helvetica,sans-Serif" font-size="10.00">xiiNamedAction</text>
</a>
</g>
</g>
<!-- Node2&#45;&gt;Node1 -->
<g id="edge1" class="edge">
<title>Node2&#45;&gt;Node1</title>
<path fill="none" stroke="midnightblue" d="M439.52,-371C448.04,-371 456.73,-371 464.95,-371"/>
<polygon fill="midnightblue" stroke="midnightblue" points="439.25,-367.5 429.25,-371 439.25,-374.5 439.25,-367.5"/>
</g>
<!-- Node3 -->
<g id="node3" class="node">
<title>Node3</title>
<g id="a_node3"><a xlink:href="../../d8/d30/classxii_action.htm" target="_top" xlink:title=" ">
<polygon fill="white" stroke="black" points="239,-361.5 239,-380.5 298,-380.5 298,-361.5 239,-361.5"/>
<text text-anchor="middle" x="268.5" y="-368.5" font-family="Helvetica,sans-Serif" font-size="10.00">xiiAction</text>
</a>
</g>
</g>
<!-- Node3&#45;&gt;Node2 -->
<g id="edge2" class="edge">
<title>Node3&#45;&gt;Node2</title>
<path fill="none" stroke="midnightblue" d="M308.23,-371C316.53,-371 325.37,-371 333.93,-371"/>
<polygon fill="midnightblue" stroke="midnightblue" points="308.09,-367.5 298.09,-371 308.09,-374.5 308.09,-367.5"/>
</g>
<!-- Node4 -->
<g id="node4" class="node">
<title>Node4</title>
<g id="a_node4"><a xlink:href="../../dc/d71/classxii_reflected_class.htm" target="_top" xlink:title="All classes that should be dynamically reflectable, need to be derived from this base class.">
<polygon fill="white" stroke="black" points="102,-361.5 102,-380.5 203,-380.5 203,-361.5 102,-361.5"/>
<text text-anchor="middle" x="152.5" y="-368.5" font-family="Helvetica,sans-Serif" font-size="10.00">xiiReflectedClass</text>
</a>
</g>
</g>
<!-- Node4&#45;&gt;Node3 -->
<g id="edge3" class="edge">
<title>Node4&#45;&gt;Node3</title>
<path fill="none" stroke="midnightblue" d="M213.27,-371C222.22,-371 231.08,-371 238.96,-371"/>
<polygon fill="midnightblue" stroke="midnightblue" points="213.17,-367.5 203.17,-371 213.17,-374.5 213.17,-367.5"/>
</g>
<!-- Node5 -->
<g id="node5" class="node">
<title>Node5</title>
<g id="a_node5"><a xlink:href="../../d2/d38/classxii_no_base.htm" target="_top" xlink:title="Dummy type to pass to templates and macros that expect a base type for a class that has no base.">
<polygon fill="white" stroke="black" points="0,-361.5 0,-380.5 66,-380.5 66,-361.5 0,-361.5"/>
<text text-anchor="middle" x="33" y="-368.5" font-family="Helvetica,sans-Serif" font-size="10.00">xiiNoBase</text>
</a>
</g>
</g>
<!-- Node5&#45;&gt;Node4 -->
<g id="edge4" class="edge">
<title>Node5&#45;&gt;Node4</title>
<path fill="none" stroke="midnightblue" d="M76.27,-371C84.54,-371 93.29,-371 101.78,-371"/>
<polygon fill="midnightblue" stroke="midnightblue" points="76.11,-367.5 66.11,-371 76.11,-374.5 76.11,-367.5"/>
</g>
<!-- Node14 -->
<g id="node14" class="node">
<title>Node14</title>
<g id="a_node14"><a xlink:href="../../df/dfa/classxii_toggle_world_space_gizmo.htm" target="_top" xlink:title=" ">
<polygon fill="white" stroke="black" points="799,-456.5 799,-475.5 948,-475.5 948,-456.5 799,-456.5"/>
<text text-anchor="middle" x="873.5" y="-463.5" font-family="Helvetica,sans-Serif" font-size="10.00">xiiToggleWorldSpaceGizmo</text>
</a>
</g>
</g>
<!-- Node13&#45;&gt;Node14 -->
<g id="edge13" class="edge">
<title>Node13&#45;&gt;Node14</title>
<path fill="none" stroke="midnightblue" d="M734.09,-466C754.18,-466 777.23,-466 798.69,-466"/>
<polygon fill="midnightblue" stroke="midnightblue" points="733.88,-462.5 723.88,-466 733.88,-469.5 733.88,-462.5"/>
</g>
</g>
</svg>
