<?xml version="1.0" encoding="UTF-8" standalone="no"?>
<!DOCTYPE svg PUBLIC "-//W3C//DTD SVG 1.1//EN"
 "http://www.w3.org/Graphics/SVG/1.1/DTD/svg11.dtd">
<!-- Generated by graphviz version 2.43.0 (0)
 -->
<!-- Title: xiiSensorComponent Pages: 1 -->
<svg width="498pt" height="252pt"
 viewBox="0.00 0.00 497.50 252.00" xmlns="http://www.w3.org/2000/svg" xmlns:xlink="http://www.w3.org/1999/xlink">
<g id="graph0" class="graph" transform="scale(1 1) rotate(0) translate(4 248)">
<title>xiiSensorComponent</title>
<polygon fill="white" stroke="transparent" points="-4,4 -4,-248 493.5,-248 493.5,4 -4,4"/>
<!-- Node1 -->
<g id="node1" class="node">
<title>Node1</title>
<g id="a_node1"><a xlink:title="Base class for sensor components that can be used for AI perception like vision or hearing.">
<polygon fill="#bfbfbf" stroke="black" points="181.5,-56.5 181.5,-75.5 299.5,-75.5 299.5,-56.5 181.5,-56.5"/>
<text text-anchor="middle" x="240.5" y="-63.5" font-family="Helvetica,sans-Serif" font-size="10.00">xiiSensorComponent</text>
</a>
</g>
</g>
<!-- Node5 -->
<g id="node5" class="node">
<title>Node5</title>
<g id="a_node5"><a xlink:href="../../da/d5d/classxii_sensor_cone_component.htm" target="_top" xlink:title=" ">
<polygon fill="white" stroke="black" points="0,-0.5 0,-19.5 143,-19.5 143,-0.5 0,-0.5"/>
<text text-anchor="middle" x="71.5" y="-7.5" font-family="Helvetica,sans-Serif" font-size="10.00">xiiSensorConeComponent</text>
</a>
</g>
</g>
<!-- Node1&#45;&gt;Node5 -->
<g id="edge4" class="edge">
<title>Node1&#45;&gt;Node5</title>
<path fill="none" stroke="midnightblue" d="M203.9,-53.3C172.05,-43.13 126.66,-28.62 98.15,-19.52"/>
<polygon fill="midnightblue" stroke="midnightblue" points="203.13,-56.73 213.72,-56.44 205.26,-50.07 203.13,-56.73"/>
</g>
<!-- Node6 -->
<g id="node6" class="node">
<title>Node6</title>
<g id="a_node6"><a xlink:href="../../da/df3/classxii_sensor_cylinder_component.htm" target="_top" xlink:title=" ">
<polygon fill="white" stroke="black" points="161.5,-0.5 161.5,-19.5 319.5,-19.5 319.5,-0.5 161.5,-0.5"/>
<text text-anchor="middle" x="240.5" y="-7.5" font-family="Helvetica,sans-Serif" font-size="10.00">xiiSensorCylinderComponent</text>
</a>
</g>
</g>
<!-- Node1&#45;&gt;Node6 -->
<g id="edge5" class="edge">
<title>Node1&#45;&gt;Node6</title>
<path fill="none" stroke="midnightblue" d="M240.5,-45.8C240.5,-36.91 240.5,-26.78 240.5,-19.75"/>
<polygon fill="midnightblue" stroke="midnightblue" points="237,-46.08 240.5,-56.08 244,-46.08 237,-46.08"/>
</g>
<!-- Node7 -->
<g id="node7" class="node">
<title>Node7</title>
<g id="a_node7"><a xlink:href="../../dd/d4a/classxii_sensor_sphere_component.htm" target="_top" xlink:title=" ">
<polygon fill="white" stroke="black" points="337.5,-0.5 337.5,-19.5 489.5,-19.5 489.5,-0.5 337.5,-0.5"/>
<text text-anchor="middle" x="413.5" y="-7.5" font-family="Helvetica,sans-Serif" font-size="10.00">xiiSensorSphereComponent</text>
</a>
</g>
</g>
<!-- Node1&#45;&gt;Node7 -->
<g id="edge6" class="edge">
<title>Node1&#45;&gt;Node7</title>
<path fill="none" stroke="midnightblue" d="M277.55,-53.44C310.16,-43.26 356.91,-28.66 386.22,-19.52"/>
<polygon fill="midnightblue" stroke="midnightblue" points="276.42,-50.12 267.91,-56.44 278.5,-56.8 276.42,-50.12"/>
</g>
<!-- Node2 -->
<g id="node2" class="node">
<title>Node2</title>
<g id="a_node2"><a xlink:href="../../db/d60/classxii_component.htm" target="_top" xlink:title="Base class of all component types.">
<polygon fill="white" stroke="black" points="198,-112.5 198,-131.5 283,-131.5 283,-112.5 198,-112.5"/>
<text text-anchor="middle" x="240.5" y="-119.5" font-family="Helvetica,sans-Serif" font-size="10.00">xiiComponent</text>
</a>
</g>
</g>
<!-- Node2&#45;&gt;Node1 -->
<g id="edge1" class="edge">
<title>Node2&#45;&gt;Node1</title>
<path fill="none" stroke="midnightblue" d="M240.5,-101.8C240.5,-92.91 240.5,-82.78 240.5,-75.75"/>
<polygon fill="midnightblue" stroke="midnightblue" points="237,-102.08 240.5,-112.08 244,-102.08 237,-102.08"/>
</g>
<!-- Node3 -->
<g id="node3" class="node">
<title>Node3</title>
<g id="a_node3"><a xlink:href="../../dc/d71/classxii_reflected_class.htm" target="_top" xlink:title="All classes that should be dynamically reflectable, need to be derived from this base class.">
<polygon fill="white" stroke="black" points="190,-168.5 190,-187.5 291,-187.5 291,-168.5 190,-168.5"/>
<text text-anchor="middle" x="240.5" y="-175.5" font-family="Helvetica,sans-Serif" font-size="10.00">xiiReflectedClass</text>
</a>
</g>
</g>
<!-- Node3&#45;&gt;Node2 -->
<g id="edge2" class="edge">
<title>Node3&#45;&gt;Node2</title>
<path fill="none" stroke="midnightblue" d="M240.5,-157.8C240.5,-148.91 240.5,-138.78 240.5,-131.75"/>
<polygon fill="midnightblue" stroke="midnightblue" points="237,-158.08 240.5,-168.08 244,-158.08 237,-158.08"/>
</g>
<!-- Node4 -->
<g id="node4" class="node">
<title>Node4</title>
<g id="a_node4"><a xlink:href="../../d2/d38/classxii_no_base.htm" target="_top" xlink:title="Dummy type to pass to templates and macros that expect a base type for a class that has no base.">
<polygon fill="white" stroke="black" points="207.5,-224.5 207.5,-243.5 273.5,-243.5 273.5,-224.5 207.5,-224.5"/>
<text text-anchor="middle" x="240.5" y="-231.5" font-family="Helvetica,sans-Serif" font-size="10.00">xiiNoBase</text>
</a>
</g>
</g>
<!-- Node4&#45;&gt;Node3 -->
<g id="edge3" class="edge">
<title>Node4&#45;&gt;Node3</title>
<path fill="none" stroke="midnightblue" d="M240.5,-213.8C240.5,-204.91 240.5,-194.78 240.5,-187.75"/>
<polygon fill="midnightblue" stroke="midnightblue" points="237,-214.08 240.5,-224.08 244,-214.08 237,-214.08"/>
</g>
</g>
</svg>
