<?xml version="1.0" encoding="UTF-8" standalone="no"?>
<!DOCTYPE svg PUBLIC "-//W3C//DTD SVG 1.1//EN"
 "http://www.w3.org/Graphics/SVG/1.1/DTD/svg11.dtd">
<!-- Generated by graphviz version 2.43.0 (0)
 -->
<!-- Title: xiiGALShaderResourceVariableD3D11 Pages: 1 -->
<svg width="226pt" height="263pt"
 viewBox="0.00 0.00 225.50 263.00" xmlns="http://www.w3.org/2000/svg" xmlns:xlink="http://www.w3.org/1999/xlink">
<g id="graph0" class="graph" transform="scale(1 1) rotate(0) translate(4 259)">
<title>xiiGALShaderResourceVariableD3D11</title>
<polygon fill="white" stroke="transparent" points="-4,4 -4,-259 221.5,-259 221.5,4 -4,4"/>
<!-- Node1 -->
<g id="node1" class="node">
<title>Node1</title>
<g id="a_node1"><a xlink:title=" ">
<polygon fill="#bfbfbf" stroke="black" points="23,-0.5 23,-30.5 190,-30.5 190,-0.5 23,-0.5"/>
<text text-anchor="start" x="31" y="-18.5" font-family="Helvetica,sans-Serif" font-size="10.00">xiiGALShaderResourceVariable</text>
<text text-anchor="middle" x="106.5" y="-7.5" font-family="Helvetica,sans-Serif" font-size="10.00">D3D11</text>
</a>
</g>
</g>
<!-- Node2 -->
<g id="node2" class="node">
<title>Node2</title>
<g id="a_node2"><a xlink:href="../../de/df6/classxii_g_a_l_shader_resource_variable.htm" target="_top" xlink:title="Interface that defines methods to manipulate a shader resource variable object.">
<polygon fill="white" stroke="black" points="23,-67.5 23,-86.5 190,-86.5 190,-67.5 23,-67.5"/>
<text text-anchor="middle" x="106.5" y="-74.5" font-family="Helvetica,sans-Serif" font-size="10.00">xiiGALShaderResourceVariable</text>
</a>
</g>
</g>
<!-- Node2&#45;&gt;Node1 -->
<g id="edge1" class="edge">
<title>Node2&#45;&gt;Node1</title>
<path fill="none" stroke="midnightblue" d="M106.5,-57.23C106.5,-48.59 106.5,-38.5 106.5,-30.52"/>
<polygon fill="midnightblue" stroke="midnightblue" points="103,-57.48 106.5,-67.48 110,-57.48 103,-57.48"/>
</g>
<!-- Node3 -->
<g id="node3" class="node">
<title>Node3</title>
<g id="a_node3"><a xlink:href="../../d3/dda/classxii_g_a_l_object.htm" target="_top" xlink:title="Base Graphics Abstraction Layer Object.">
<polygon fill="white" stroke="black" points="66.5,-123.5 66.5,-142.5 146.5,-142.5 146.5,-123.5 66.5,-123.5"/>
<text text-anchor="middle" x="106.5" y="-130.5" font-family="Helvetica,sans-Serif" font-size="10.00">xiiGALObject</text>
</a>
</g>
</g>
<!-- Node3&#45;&gt;Node2 -->
<g id="edge2" class="edge">
<title>Node3&#45;&gt;Node2</title>
<path fill="none" stroke="midnightblue" d="M106.5,-112.8C106.5,-103.91 106.5,-93.78 106.5,-86.75"/>
<polygon fill="midnightblue" stroke="midnightblue" points="103,-113.08 106.5,-123.08 110,-113.08 103,-113.08"/>
</g>
<!-- Node4 -->
<g id="node4" class="node">
<title>Node4</title>
<g id="a_node4"><a xlink:href="../../dc/d71/classxii_reflected_class.htm" target="_top" xlink:title="All classes that should be dynamically reflectable, need to be derived from this base class.">
<polygon fill="white" stroke="black" points="0,-179.5 0,-198.5 101,-198.5 101,-179.5 0,-179.5"/>
<text text-anchor="middle" x="50.5" y="-186.5" font-family="Helvetica,sans-Serif" font-size="10.00">xiiReflectedClass</text>
</a>
</g>
</g>
<!-- Node4&#45;&gt;Node3 -->
<g id="edge3" class="edge">
<title>Node4&#45;&gt;Node3</title>
<path fill="none" stroke="midnightblue" d="M66.83,-172.25C76.76,-162.67 89.09,-150.79 97.34,-142.83"/>
<polygon fill="midnightblue" stroke="midnightblue" points="64.27,-169.86 59.5,-179.32 69.13,-174.9 64.27,-169.86"/>
</g>
<!-- Node5 -->
<g id="node5" class="node">
<title>Node5</title>
<g id="a_node5"><a xlink:href="../../d2/d38/classxii_no_base.htm" target="_top" xlink:title="Dummy type to pass to templates and macros that expect a base type for a class that has no base.">
<polygon fill="white" stroke="black" points="17.5,-235.5 17.5,-254.5 83.5,-254.5 83.5,-235.5 17.5,-235.5"/>
<text text-anchor="middle" x="50.5" y="-242.5" font-family="Helvetica,sans-Serif" font-size="10.00">xiiNoBase</text>
</a>
</g>
</g>
<!-- Node5&#45;&gt;Node4 -->
<g id="edge4" class="edge">
<title>Node5&#45;&gt;Node4</title>
<path fill="none" stroke="midnightblue" d="M50.5,-224.8C50.5,-215.91 50.5,-205.78 50.5,-198.75"/>
<polygon fill="midnightblue" stroke="midnightblue" points="47,-225.08 50.5,-235.08 54,-225.08 47,-225.08"/>
</g>
<!-- Node6 -->
<g id="node6" class="node">
<title>Node6</title>
<g id="a_node6"><a xlink:href="../../d3/dd0/classxii_ref_counted.htm" target="_top" xlink:title="Base class for reference counted objects.">
<polygon fill="white" stroke="black" points="119.5,-179.5 119.5,-198.5 205.5,-198.5 205.5,-179.5 119.5,-179.5"/>
<text text-anchor="middle" x="162.5" y="-186.5" font-family="Helvetica,sans-Serif" font-size="10.00">xiiRefCounted</text>
</a>
</g>
</g>
<!-- Node6&#45;&gt;Node3 -->
<g id="edge5" class="edge">
<title>Node6&#45;&gt;Node3</title>
<path fill="none" stroke="midnightblue" d="M146.17,-172.25C136.24,-162.67 123.91,-150.79 115.66,-142.83"/>
<polygon fill="midnightblue" stroke="midnightblue" points="143.87,-174.9 153.5,-179.32 148.73,-169.86 143.87,-174.9"/>
</g>
<!-- Node7 -->
<g id="node7" class="node">
<title>Node7</title>
<g id="a_node7"><a xlink:href="../../d7/df4/classxii_ref_counting_impl.htm" target="_top" xlink:title=" ">
<polygon fill="white" stroke="black" points="107.5,-235.5 107.5,-254.5 217.5,-254.5 217.5,-235.5 107.5,-235.5"/>
<text text-anchor="middle" x="162.5" y="-242.5" font-family="Helvetica,sans-Serif" font-size="10.00">xiiRefCountingImpl</text>
</a>
</g>
</g>
<!-- Node7&#45;&gt;Node6 -->
<g id="edge6" class="edge">
<title>Node7&#45;&gt;Node6</title>
<path fill="none" stroke="midnightblue" d="M162.5,-224.8C162.5,-215.91 162.5,-205.78 162.5,-198.75"/>
<polygon fill="midnightblue" stroke="midnightblue" points="159,-225.08 162.5,-235.08 166,-225.08 159,-225.08"/>
</g>
</g>
</svg>
