<?xml version="1.0" encoding="UTF-8" standalone="no"?>
<!DOCTYPE svg PUBLIC "-//W3C//DTD SVG 1.1//EN"
 "http://www.w3.org/Graphics/SVG/1.1/DTD/svg11.dtd">
<!-- Generated by graphviz version 2.43.0 (0)
 -->
<!-- Title: xiiDecalAssetDocument Pages: 1 -->
<svg width="163pt" height="313pt"
 viewBox="0.00 0.00 163.00 313.00" xmlns="http://www.w3.org/2000/svg" xmlns:xlink="http://www.w3.org/1999/xlink">
<g id="graph0" class="graph" transform="scale(1 1) rotate(0) translate(4 309)">
<title>xiiDecalAssetDocument</title>
<!-- Node1 -->
<g id="Node000001" class="node">
<title>Node1</title>
<g id="a_Node000001"><a xlink:title=" ">
<polygon fill="#999999" stroke="#666666" points="144.5,-19 10.5,-19 10.5,0 144.5,0 144.5,-19"/>
<text text-anchor="middle" x="77.5" y="-7" font-family="Helvetica,sans-Serif" font-size="10.00">xiiDecalAssetDocument</text>
</a>
</g>
</g>
<!-- Node2 -->
<g id="Node000002" class="node">
<title>Node2</title>
<g id="a_Node000002"><a xlink:href="../../d4/d60/classxii_simple_asset_document.html" target="_top" xlink:title=" ">
<polygon fill="white" stroke="#bfbfbf" points="155,-85 0,-85 0,-55 155,-55 155,-85"/>
<text text-anchor="start" x="8" y="-73" font-family="Helvetica,sans-Serif" font-size="10.00">xiiSimpleAssetDocument</text>
<text text-anchor="middle" x="77.5" y="-62" font-family="Helvetica,sans-Serif" font-size="10.00">&lt; xiiDecalAssetProperties &gt;</text>
</a>
</g>
</g>
<!-- Node2&#45;&gt;Node1 -->
<g id="edge1_Node000001_Node000002" class="edge">
<title>Node2&#45;&gt;Node1</title>
<g id="a_edge1_Node000001_Node000002"><a xlink:title=" ">
<path fill="none" stroke="#63b8ff" d="M77.5,-44.75C77.5,-35.72 77.5,-26.03 77.5,-19.27"/>
<polygon fill="#63b8ff" stroke="#63b8ff" points="74,-44.84 77.5,-54.84 81,-44.84 74,-44.84"/>
</a>
</g>
</g>
<!-- Node3 -->
<g id="Node000003" class="node">
<title>Node3</title>
<g id="a_Node000003"><a xlink:href="../../d7/dd5/classxii_asset_document.html" target="_top" xlink:title=" ">
<polygon fill="white" stroke="#bfbfbf" points="130.5,-140 24.5,-140 24.5,-121 130.5,-121 130.5,-140"/>
<text text-anchor="middle" x="77.5" y="-128" font-family="Helvetica,sans-Serif" font-size="10.00">xiiAssetDocument</text>
</a>
</g>
</g>
<!-- Node3&#45;&gt;Node2 -->
<g id="edge2_Node000002_Node000003" class="edge">
<title>Node3&#45;&gt;Node2</title>
<g id="a_edge2_Node000002_Node000003"><a xlink:title=" ">
<path fill="none" stroke="#63b8ff" d="M77.5,-110.65C77.5,-102.36 77.5,-92.78 77.5,-85.11"/>
<polygon fill="#63b8ff" stroke="#63b8ff" points="74,-110.87 77.5,-120.87 81,-110.87 74,-110.87"/>
</a>
</g>
</g>
<!-- Node4 -->
<g id="Node000004" class="node">
<title>Node4</title>
<g id="a_Node000004"><a xlink:href="../../d8/da9/classxii_document.html" target="_top" xlink:title=" ">
<polygon fill="white" stroke="#bfbfbf" points="117,-195 38,-195 38,-176 117,-176 117,-195"/>
<text text-anchor="middle" x="77.5" y="-183" font-family="Helvetica,sans-Serif" font-size="10.00">xiiDocument</text>
</a>
</g>
</g>
<!-- Node4&#45;&gt;Node3 -->
<g id="edge3_Node000003_Node000004" class="edge">
<title>Node4&#45;&gt;Node3</title>
<g id="a_edge3_Node000003_Node000004"><a xlink:title=" ">
<path fill="none" stroke="#63b8ff" d="M77.5,-165.66C77.5,-156.93 77.5,-146.99 77.5,-140.09"/>
<polygon fill="#63b8ff" stroke="#63b8ff" points="74,-165.75 77.5,-175.75 81,-165.75 74,-165.75"/>
</a>
</g>
</g>
<!-- Node5 -->
<g id="Node000005" class="node">
<title>Node5</title>
<g id="a_Node000005"><a xlink:href="../../dc/d71/classxii_reflected_class.html" target="_top" xlink:title="All classes that should be dynamically reflectable, need to be derived from this base class.">
<polygon fill="white" stroke="#666666" points="128,-250 27,-250 27,-231 128,-231 128,-250"/>
<text text-anchor="middle" x="77.5" y="-238" font-family="Helvetica,sans-Serif" font-size="10.00">xiiReflectedClass</text>
</a>
</g>
</g>
<!-- Node5&#45;&gt;Node4 -->
<g id="edge4_Node000004_Node000005" class="edge">
<title>Node5&#45;&gt;Node4</title>
<g id="a_edge4_Node000004_Node000005"><a xlink:title=" ">
<path fill="none" stroke="#63b8ff" d="M77.5,-220.66C77.5,-211.93 77.5,-201.99 77.5,-195.09"/>
<polygon fill="#63b8ff" stroke="#63b8ff" points="74,-220.75 77.5,-230.75 81,-220.75 74,-220.75"/>
</a>
</g>
</g>
<!-- Node6 -->
<g id="Node000006" class="node">
<title>Node6</title>
<g id="a_Node000006"><a xlink:href="../../d2/d38/classxii_no_base.html" target="_top" xlink:title="Dummy type to pass to templates and macros that expect a base type for a class that has no base.">
<polygon fill="white" stroke="#666666" points="110.5,-305 44.5,-305 44.5,-286 110.5,-286 110.5,-305"/>
<text text-anchor="middle" x="77.5" y="-293" font-family="Helvetica,sans-Serif" font-size="10.00">xiiNoBase</text>
</a>
</g>
</g>
<!-- Node6&#45;&gt;Node5 -->
<g id="edge5_Node000005_Node000006" class="edge">
<title>Node6&#45;&gt;Node5</title>
<g id="a_edge5_Node000005_Node000006"><a xlink:title=" ">
<path fill="none" stroke="#63b8ff" d="M77.5,-275.66C77.5,-266.93 77.5,-256.99 77.5,-250.09"/>
<polygon fill="#63b8ff" stroke="#63b8ff" points="74,-275.75 77.5,-285.75 81,-275.75 74,-275.75"/>
</a>
</g>
</g>
</g>
</svg>
