<?xml version="1.0" encoding="UTF-8" standalone="no"?>
<!DOCTYPE svg PUBLIC "-//W3C//DTD SVG 1.1//EN"
 "http://www.w3.org/Graphics/SVG/1.1/DTD/svg11.dtd">
<!-- Generated by graphviz version 2.43.0 (0)
 -->
<!-- Title: xiiRenderData Pages: 1 -->
<svg width="732pt" height="446pt"
 viewBox="0.00 0.00 732.00 446.00" xmlns="http://www.w3.org/2000/svg" xmlns:xlink="http://www.w3.org/1999/xlink">
<g id="graph0" class="graph" transform="scale(1 1) rotate(0) translate(4 442)">
<title>xiiRenderData</title>
<polygon fill="white" stroke="transparent" points="-4,4 -4,-442 728,-442 728,4 -4,4"/>
<!-- Node1 -->
<g id="node1" class="node">
<title>Node1</title>
<g id="a_node1"><a xlink:title="Base class for all render data. Render data must contain all information that is needed to render the...">
<polygon fill="#bfbfbf" stroke="black" points="239,-209.5 239,-228.5 325,-228.5 325,-209.5 239,-209.5"/>
<text text-anchor="middle" x="282" y="-216.5" font-family="Helvetica,sans-Serif" font-size="10.00">xiiRenderData</text>
</a>
</g>
</g>
<!-- Node4 -->
<g id="node4" class="node">
<title>Node4</title>
<g id="a_node4"><a xlink:href="../../d7/de2/classxii_cloth_sheet_render_data.htm" target="_top" xlink:title=" ">
<polygon fill="white" stroke="black" points="372.5,-418.5 372.5,-437.5 512.5,-437.5 512.5,-418.5 372.5,-418.5"/>
<text text-anchor="middle" x="442.5" y="-425.5" font-family="Helvetica,sans-Serif" font-size="10.00">xiiClothSheetRenderData</text>
</a>
</g>
</g>
<!-- Node1&#45;&gt;Node4 -->
<g id="edge3" class="edge">
<title>Node1&#45;&gt;Node4</title>
<path fill="none" stroke="midnightblue" d="M285.19,-238.67C290.58,-277.45 308.17,-363.91 361,-409 365.48,-412.82 370.59,-415.91 376.01,-418.39"/>
<polygon fill="midnightblue" stroke="midnightblue" points="288.65,-238.15 283.92,-228.66 281.7,-239.02 288.65,-238.15"/>
</g>
<!-- Node5 -->
<g id="node5" class="node">
<title>Node5</title>
<g id="a_node5"><a xlink:href="../../d9/df8/classxii_clustered_data_c_p_u.htm" target="_top" xlink:title=" ">
<polygon fill="white" stroke="black" points="383,-380.5 383,-399.5 502,-399.5 502,-380.5 383,-380.5"/>
<text text-anchor="middle" x="442.5" y="-387.5" font-family="Helvetica,sans-Serif" font-size="10.00">xiiClusteredDataCPU</text>
</a>
</g>
</g>
<!-- Node1&#45;&gt;Node5 -->
<g id="edge4" class="edge">
<title>Node1&#45;&gt;Node5</title>
<path fill="none" stroke="midnightblue" d="M287.43,-238.75C295.85,-271.49 317.34,-336.82 361,-371 367.44,-376.05 375.01,-379.79 382.88,-382.55"/>
<polygon fill="midnightblue" stroke="midnightblue" points="290.74,-237.52 284.99,-228.62 283.93,-239.17 290.74,-237.52"/>
</g>
<!-- Node6 -->
<g id="node6" class="node">
<title>Node6</title>
<g id="a_node6"><a xlink:href="../../d4/d79/classxii_custom_mesh_render_data.htm" target="_top" xlink:title="Temporary data used to feed the xiiCustomMeshRenderer.">
<polygon fill="white" stroke="black" points="367.5,-342.5 367.5,-361.5 517.5,-361.5 517.5,-342.5 367.5,-342.5"/>
<text text-anchor="middle" x="442.5" y="-349.5" font-family="Helvetica,sans-Serif" font-size="10.00">xiiCustomMeshRenderData</text>
</a>
</g>
</g>
<!-- Node1&#45;&gt;Node6 -->
<g id="edge5" class="edge">
<title>Node1&#45;&gt;Node6</title>
<path fill="none" stroke="midnightblue" d="M290.77,-238.16C302.2,-263.86 326.07,-309.03 361,-333 366.68,-336.9 373.07,-340 379.69,-342.48"/>
<polygon fill="midnightblue" stroke="midnightblue" points="293.89,-236.57 286.75,-228.75 287.46,-239.32 293.89,-236.57"/>
</g>
<!-- Node7 -->
<g id="node7" class="node">
<title>Node7</title>
<g id="a_node7"><a xlink:href="../../d6/d93/classxii_decal_render_data.htm" target="_top" xlink:title=" ">
<polygon fill="white" stroke="black" points="385.5,-304.5 385.5,-323.5 499.5,-323.5 499.5,-304.5 385.5,-304.5"/>
<text text-anchor="middle" x="442.5" y="-311.5" font-family="Helvetica,sans-Serif" font-size="10.00">xiiDecalRenderData</text>
</a>
</g>
</g>
<!-- Node1&#45;&gt;Node7 -->
<g id="edge6" class="edge">
<title>Node1&#45;&gt;Node7</title>
<path fill="none" stroke="midnightblue" d="M296.47,-236.87C310.62,-254.36 334.47,-280.43 361,-295 368.55,-299.15 376.99,-302.39 385.47,-304.93"/>
<polygon fill="midnightblue" stroke="midnightblue" points="298.92,-234.33 289.99,-228.62 293.41,-238.65 298.92,-234.33"/>
</g>
<!-- Node8 -->
<g id="node8" class="node">
<title>Node8</title>
<g id="a_node8"><a xlink:href="../../d5/d6c/classxii_fog_render_data.htm" target="_top" xlink:title="The render data object for ambient light.">
<polygon fill="white" stroke="black" points="390.5,-266.5 390.5,-285.5 494.5,-285.5 494.5,-266.5 390.5,-266.5"/>
<text text-anchor="middle" x="442.5" y="-273.5" font-family="Helvetica,sans-Serif" font-size="10.00">xiiFogRenderData</text>
</a>
</g>
</g>
<!-- Node1&#45;&gt;Node8 -->
<g id="edge7" class="edge">
<title>Node1&#45;&gt;Node8</title>
<path fill="none" stroke="midnightblue" d="M308.97,-233.45C323.85,-241.27 343.08,-250.61 361,-257 371.28,-260.67 382.55,-263.83 393.32,-266.47"/>
<polygon fill="midnightblue" stroke="midnightblue" points="310.34,-230.22 299.87,-228.58 307.04,-236.39 310.34,-230.22"/>
</g>
<!-- Node9 -->
<g id="node9" class="node">
<title>Node9</title>
<g id="a_node9"><a xlink:href="../../d3/d6d/classxii_grid_render_data.htm" target="_top" xlink:title=" ">
<polygon fill="white" stroke="black" points="389,-228.5 389,-247.5 496,-247.5 496,-228.5 389,-228.5"/>
<text text-anchor="middle" x="442.5" y="-235.5" font-family="Helvetica,sans-Serif" font-size="10.00">xiiGridRenderData</text>
</a>
</g>
</g>
<!-- Node1&#45;&gt;Node9 -->
<g id="edge8" class="edge">
<title>Node1&#45;&gt;Node9</title>
<path fill="none" stroke="midnightblue" d="M335.44,-225.29C352.57,-227.34 371.59,-229.62 388.73,-231.67"/>
<polygon fill="midnightblue" stroke="midnightblue" points="335.4,-221.76 325.06,-224.04 334.57,-228.71 335.4,-221.76"/>
</g>
<!-- Node10 -->
<g id="node10" class="node">
<title>Node10</title>
<g id="a_node10"><a xlink:href="../../d5/d2a/classxii_lens_flare_render_data.htm" target="_top" xlink:title=" ">
<polygon fill="white" stroke="black" points="375.5,-190.5 375.5,-209.5 509.5,-209.5 509.5,-190.5 375.5,-190.5"/>
<text text-anchor="middle" x="442.5" y="-197.5" font-family="Helvetica,sans-Serif" font-size="10.00">xiiLensFlareRenderData</text>
</a>
</g>
</g>
<!-- Node1&#45;&gt;Node10 -->
<g id="edge9" class="edge">
<title>Node1&#45;&gt;Node10</title>
<path fill="none" stroke="midnightblue" d="M335.1,-212.75C347.95,-211.21 361.89,-209.54 375.31,-207.93"/>
<polygon fill="midnightblue" stroke="midnightblue" points="334.57,-209.29 325.06,-213.96 335.4,-216.24 334.57,-209.29"/>
</g>
<!-- Node11 -->
<g id="node11" class="node">
<title>Node11</title>
<g id="a_node11"><a xlink:href="../../d1/d33/classxii_light_render_data.htm" target="_top" xlink:title="Base class for light render data objects.">
<polygon fill="white" stroke="black" points="387.5,-152.5 387.5,-171.5 497.5,-171.5 497.5,-152.5 387.5,-152.5"/>
<text text-anchor="middle" x="442.5" y="-159.5" font-family="Helvetica,sans-Serif" font-size="10.00">xiiLightRenderData</text>
</a>
</g>
</g>
<!-- Node1&#45;&gt;Node11 -->
<g id="edge10" class="edge">
<title>Node1&#45;&gt;Node11</title>
<path fill="none" stroke="midnightblue" d="M308.97,-204.55C323.85,-196.73 343.08,-187.39 361,-181 371.28,-177.33 382.55,-174.17 393.32,-171.53"/>
<polygon fill="midnightblue" stroke="midnightblue" points="307.04,-201.61 299.87,-209.42 310.34,-207.78 307.04,-201.61"/>
</g>
<!-- Node15 -->
<g id="node15" class="node">
<title>Node15</title>
<g id="a_node15"><a xlink:href="../../d6/d05/classxii_mesh_render_data.htm" target="_top" xlink:title=" ">
<polygon fill="white" stroke="black" points="386,-114.5 386,-133.5 499,-133.5 499,-114.5 386,-114.5"/>
<text text-anchor="middle" x="442.5" y="-121.5" font-family="Helvetica,sans-Serif" font-size="10.00">xiiMeshRenderData</text>
</a>
</g>
</g>
<!-- Node1&#45;&gt;Node15 -->
<g id="edge14" class="edge">
<title>Node1&#45;&gt;Node15</title>
<path fill="none" stroke="midnightblue" d="M296.47,-201.13C310.62,-183.64 334.47,-157.57 361,-143 368.68,-138.78 377.27,-135.5 385.9,-132.94"/>
<polygon fill="midnightblue" stroke="midnightblue" points="293.41,-199.35 289.99,-209.38 298.92,-203.67 293.41,-199.35"/>
</g>
<!-- Node19 -->
<g id="node19" class="node">
<title>Node19</title>
<g id="a_node19"><a xlink:href="../../de/da3/classxii_reflection_probe_render_data.htm" target="_top" xlink:title="Render data for a reflection probe.">
<polygon fill="white" stroke="black" points="361,-76.5 361,-95.5 524,-95.5 524,-76.5 361,-76.5"/>
<text text-anchor="middle" x="442.5" y="-83.5" font-family="Helvetica,sans-Serif" font-size="10.00">xiiReflectionProbeRenderData</text>
</a>
</g>
</g>
<!-- Node1&#45;&gt;Node19 -->
<g id="edge18" class="edge">
<title>Node1&#45;&gt;Node19</title>
<path fill="none" stroke="midnightblue" d="M290.77,-199.84C302.2,-174.14 326.07,-128.97 361,-105 366.68,-101.1 373.07,-98 379.69,-95.52"/>
<polygon fill="midnightblue" stroke="midnightblue" points="287.46,-198.68 286.75,-209.25 293.89,-201.43 287.46,-198.68"/>
</g>
<!-- Node20 -->
<g id="node20" class="node">
<title>Node20</title>
<g id="a_node20"><a xlink:href="../../d8/ddd/classxii_simplified_data_c_p_u.htm" target="_top" xlink:title=" ">
<polygon fill="white" stroke="black" points="382,-38.5 382,-57.5 503,-57.5 503,-38.5 382,-38.5"/>
<text text-anchor="middle" x="442.5" y="-45.5" font-family="Helvetica,sans-Serif" font-size="10.00">xiiSimplifiedDataCPU</text>
</a>
</g>
</g>
<!-- Node1&#45;&gt;Node20 -->
<g id="edge19" class="edge">
<title>Node1&#45;&gt;Node20</title>
<path fill="none" stroke="midnightblue" d="M287.43,-199.25C295.85,-166.51 317.34,-101.18 361,-67 367.11,-62.22 374.22,-58.61 381.64,-55.89"/>
<polygon fill="midnightblue" stroke="midnightblue" points="283.93,-198.83 284.99,-209.38 290.74,-200.48 283.93,-198.83"/>
</g>
<!-- Node21 -->
<g id="node21" class="node">
<title>Node21</title>
<g id="a_node21"><a xlink:href="../../d2/d0e/classxii_sprite_render_data.htm" target="_top" xlink:title=" ">
<polygon fill="white" stroke="black" points="385,-0.5 385,-19.5 500,-19.5 500,-0.5 385,-0.5"/>
<text text-anchor="middle" x="442.5" y="-7.5" font-family="Helvetica,sans-Serif" font-size="10.00">xiiSpriteRenderData</text>
</a>
</g>
</g>
<!-- Node1&#45;&gt;Node21 -->
<g id="edge20" class="edge">
<title>Node1&#45;&gt;Node21</title>
<path fill="none" stroke="midnightblue" d="M285.19,-199.33C290.58,-160.55 308.17,-74.09 361,-29 367.88,-23.13 376.25,-18.99 384.96,-16.1"/>
<polygon fill="midnightblue" stroke="midnightblue" points="281.7,-198.98 283.92,-209.34 288.65,-199.85 281.7,-198.98"/>
</g>
<!-- Node2 -->
<g id="node2" class="node">
<title>Node2</title>
<g id="a_node2"><a xlink:href="../../dc/d71/classxii_reflected_class.htm" target="_top" xlink:title="All classes that should be dynamically reflectable, need to be derived from this base class.">
<polygon fill="white" stroke="black" points="102,-209.5 102,-228.5 203,-228.5 203,-209.5 102,-209.5"/>
<text text-anchor="middle" x="152.5" y="-216.5" font-family="Helvetica,sans-Serif" font-size="10.00">xiiReflectedClass</text>
</a>
</g>
</g>
<!-- Node2&#45;&gt;Node1 -->
<g id="edge1" class="edge">
<title>Node2&#45;&gt;Node1</title>
<path fill="none" stroke="midnightblue" d="M213.19,-219C221.81,-219 230.53,-219 238.71,-219"/>
<polygon fill="midnightblue" stroke="midnightblue" points="213.16,-215.5 203.16,-219 213.16,-222.5 213.16,-215.5"/>
</g>
<!-- Node3 -->
<g id="node3" class="node">
<title>Node3</title>
<g id="a_node3"><a xlink:href="../../d2/d38/classxii_no_base.htm" target="_top" xlink:title="Dummy type to pass to templates and macros that expect a base type for a class that has no base.">
<polygon fill="white" stroke="black" points="0,-209.5 0,-228.5 66,-228.5 66,-209.5 0,-209.5"/>
<text text-anchor="middle" x="33" y="-216.5" font-family="Helvetica,sans-Serif" font-size="10.00">xiiNoBase</text>
</a>
</g>
</g>
<!-- Node3&#45;&gt;Node2 -->
<g id="edge2" class="edge">
<title>Node3&#45;&gt;Node2</title>
<path fill="none" stroke="midnightblue" d="M76.27,-219C84.54,-219 93.29,-219 101.78,-219"/>
<polygon fill="midnightblue" stroke="midnightblue" points="76.11,-215.5 66.11,-219 76.11,-222.5 76.11,-215.5"/>
</g>
<!-- Node12 -->
<g id="node12" class="node">
<title>Node12</title>
<g id="a_node12"><a xlink:href="../../d1/d98/classxii_directional_light_render_data.htm" target="_top" xlink:title="The render data object for directional lights.">
<polygon fill="white" stroke="black" points="560,-228.5 560,-247.5 724,-247.5 724,-228.5 560,-228.5"/>
<text text-anchor="middle" x="642" y="-235.5" font-family="Helvetica,sans-Serif" font-size="10.00">xiiDirectionalLightRenderData</text>
</a>
</g>
</g>
<!-- Node11&#45;&gt;Node12 -->
<g id="edge11" class="edge">
<title>Node11&#45;&gt;Node12</title>
<path fill="none" stroke="midnightblue" d="M507.4,-173.38C513.19,-175.5 518.82,-178.02 524,-181 544.17,-192.6 539.83,-207.41 560,-219 566.76,-222.89 574.28,-225.98 581.92,-228.44"/>
<polygon fill="midnightblue" stroke="midnightblue" points="508.15,-169.95 497.56,-170.17 505.98,-176.6 508.15,-169.95"/>
</g>
<!-- Node13 -->
<g id="node13" class="node">
<title>Node13</title>
<g id="a_node13"><a xlink:href="../../d6/df4/classxii_point_light_render_data.htm" target="_top" xlink:title="The render data object for point lights.">
<polygon fill="white" stroke="black" points="574.5,-190.5 574.5,-209.5 709.5,-209.5 709.5,-190.5 574.5,-190.5"/>
<text text-anchor="middle" x="642" y="-197.5" font-family="Helvetica,sans-Serif" font-size="10.00">xiiPointLightRenderData</text>
</a>
</g>
</g>
<!-- Node11&#45;&gt;Node13 -->
<g id="edge12" class="edge">
<title>Node11&#45;&gt;Node13</title>
<path fill="none" stroke="midnightblue" d="M503.21,-173.49C531.39,-178.91 564.63,-185.31 591.4,-190.46"/>
<polygon fill="midnightblue" stroke="midnightblue" points="503.56,-169.99 493.08,-171.54 502.24,-176.87 503.56,-169.99"/>
</g>
<!-- Node14 -->
<g id="node14" class="node">
<title>Node14</title>
<g id="a_node14"><a xlink:href="../../dc/d14/classxii_spot_light_render_data.htm" target="_top" xlink:title="The render data object for spot lights.">
<polygon fill="white" stroke="black" points="576,-152.5 576,-171.5 708,-171.5 708,-152.5 576,-152.5"/>
<text text-anchor="middle" x="642" y="-159.5" font-family="Helvetica,sans-Serif" font-size="10.00">xiiSpotLightRenderData</text>
</a>
</g>
</g>
<!-- Node11&#45;&gt;Node14 -->
<g id="edge13" class="edge">
<title>Node11&#45;&gt;Node14</title>
<path fill="none" stroke="midnightblue" d="M507.84,-162C529.57,-162 553.85,-162 575.65,-162"/>
<polygon fill="midnightblue" stroke="midnightblue" points="507.73,-158.5 497.73,-162 507.73,-165.5 507.73,-158.5"/>
</g>
<!-- Node16 -->
<g id="node16" class="node">
<title>Node16</title>
<g id="a_node16"><a xlink:href="../../d6/de8/classxii_gizmo_render_data.htm" target="_top" xlink:title=" ">
<polygon fill="white" stroke="black" points="583,-114.5 583,-133.5 701,-133.5 701,-114.5 583,-114.5"/>
<text text-anchor="middle" x="642" y="-121.5" font-family="Helvetica,sans-Serif" font-size="10.00">xiiGizmoRenderData</text>
</a>
</g>
</g>
<!-- Node15&#45;&gt;Node16 -->
<g id="edge15" class="edge">
<title>Node15&#45;&gt;Node16</title>
<path fill="none" stroke="midnightblue" d="M509.05,-124C532.88,-124 559.63,-124 582.78,-124"/>
<polygon fill="midnightblue" stroke="midnightblue" points="509.04,-120.5 499.04,-124 509.04,-127.5 509.04,-120.5"/>
</g>
<!-- Node17 -->
<g id="node17" class="node">
<title>Node17</title>
<g id="a_node17"><a xlink:href="../../d2/df4/classxii_instanced_mesh_render_data.htm" target="_top" xlink:title=" ">
<polygon fill="white" stroke="black" points="562,-76.5 562,-95.5 722,-95.5 722,-76.5 562,-76.5"/>
<text text-anchor="middle" x="642" y="-83.5" font-family="Helvetica,sans-Serif" font-size="10.00">xiiInstancedMeshRenderData</text>
</a>
</g>
</g>
<!-- Node15&#45;&gt;Node17 -->
<g id="edge16" class="edge">
<title>Node15&#45;&gt;Node17</title>
<path fill="none" stroke="midnightblue" d="M503.21,-112.51C531.39,-107.09 564.63,-100.69 591.4,-95.54"/>
<polygon fill="midnightblue" stroke="midnightblue" points="502.24,-109.13 493.08,-114.46 503.56,-116.01 502.24,-109.13"/>
</g>
<!-- Node18 -->
<g id="node18" class="node">
<title>Node18</title>
<g id="a_node18"><a xlink:href="../../da/d03/classxii_skinned_mesh_render_data.htm" target="_top" xlink:title=" ">
<polygon fill="white" stroke="black" points="566,-38.5 566,-57.5 718,-57.5 718,-38.5 566,-38.5"/>
<text text-anchor="middle" x="642" y="-45.5" font-family="Helvetica,sans-Serif" font-size="10.00">xiiSkinnedMeshRenderData</text>
</a>
</g>
</g>
<!-- Node15&#45;&gt;Node18 -->
<g id="edge17" class="edge">
<title>Node15&#45;&gt;Node18</title>
<path fill="none" stroke="midnightblue" d="M508.86,-112.07C514.14,-110.07 519.25,-107.73 524,-105 544.17,-93.4 539.83,-78.59 560,-67 566.76,-63.11 574.28,-60.02 581.92,-57.56"/>
<polygon fill="midnightblue" stroke="midnightblue" points="507.6,-108.8 499.25,-115.33 509.84,-115.43 507.6,-108.8"/>
</g>
</g>
</svg>
