<?xml version="1.0" encoding="UTF-8" standalone="no"?>
<!DOCTYPE svg PUBLIC "-//W3C//DTD SVG 1.1//EN"
 "http://www.w3.org/Graphics/SVG/1.1/DTD/svg11.dtd">
<!-- Generated by graphviz version 2.43.0 (0)
 -->
<!-- Title: xiiAbstractArrayProperty Pages: 1 -->
<svg width="711pt" height="203pt"
 viewBox="0.00 0.00 711.00 203.00" xmlns="http://www.w3.org/2000/svg" xmlns:xlink="http://www.w3.org/1999/xlink">
<g id="graph0" class="graph" transform="scale(1 1) rotate(0) translate(4 199)">
<title>xiiAbstractArrayProperty</title>
<!-- Node1 -->
<g id="Node000001" class="node">
<title>Node1</title>
<g id="a_Node000001"><a xlink:title="The base class for a property that represents an array of values.">
<polygon fill="#999999" stroke="#666666" points="283,-93.5 146,-93.5 146,-74.5 283,-74.5 283,-93.5"/>
<text text-anchor="middle" x="214.5" y="-81.5" font-family="Helvetica,sans-Serif" font-size="10.00">xiiAbstractArrayProperty</text>
</a>
</g>
</g>
<!-- Node3 -->
<g id="Node000003" class="node">
<title>Node3</title>
<g id="a_Node000003"><a xlink:href="../../d7/d2f/classxii_typed_array_property.htm" target="_top" xlink:title=" ">
<polygon fill="white" stroke="#666666" points="483,-174.5 319,-174.5 319,-133.5 483,-133.5 483,-174.5"/>
<text text-anchor="start" x="327" y="-162.5" font-family="Helvetica,sans-Serif" font-size="10.00">xiiTypedArrayProperty</text>
<text text-anchor="start" x="327" y="-151.5" font-family="Helvetica,sans-Serif" font-size="10.00">&lt; xiiTypeTraits&lt; Type</text>
<text text-anchor="middle" x="401" y="-140.5" font-family="Helvetica,sans-Serif" font-size="10.00"> &gt;::NonConstReferenceType &gt;</text>
</a>
</g>
</g>
<!-- Node1&#45;&gt;Node3 -->
<g id="edge2_Node000001_Node000003" class="edge">
<title>Node1&#45;&gt;Node3</title>
<g id="a_edge2_Node000001_Node000003"><a xlink:title=" ">
<path fill="none" stroke="#63b8ff" d="M249.53,-97.29C269.7,-105.13 295.77,-115.21 319,-124 327.13,-127.08 335.74,-130.3 344.19,-133.45"/>
<polygon fill="#63b8ff" stroke="#63b8ff" points="250.73,-94 240.14,-93.63 248.19,-100.52 250.73,-94"/>
</a>
</g>
</g>
<!-- Node6 -->
<g id="Node000006" class="node">
<title>Node6</title>
<g id="a_Node000006"><a xlink:href="../../d3/dee/classxii_phantom_array_property.htm" target="_top" xlink:title=" ">
<polygon fill="white" stroke="#bfbfbf" points="471,-115.5 331,-115.5 331,-96.5 471,-96.5 471,-115.5"/>
<text text-anchor="middle" x="401" y="-103.5" font-family="Helvetica,sans-Serif" font-size="10.00">xiiPhantomArrayProperty</text>
</a>
</g>
</g>
<!-- Node1&#45;&gt;Node6 -->
<g id="edge5_Node000001_Node000006" class="edge">
<title>Node1&#45;&gt;Node6</title>
<g id="a_edge5_Node000001_Node000006"><a xlink:title=" ">
<path fill="none" stroke="#63b8ff" d="M293.1,-93.25C305.62,-94.75 318.5,-96.28 330.81,-97.75"/>
<polygon fill="#63b8ff" stroke="#63b8ff" points="293.5,-89.78 283.15,-92.07 292.67,-96.73 293.5,-89.78"/>
</a>
</g>
</g>
<!-- Node7 -->
<g id="Node000007" class="node">
<title>Node7</title>
<g id="a_Node000007"><a xlink:href="../../d7/d2f/classxii_typed_array_property.htm" target="_top" xlink:title="Do not cast into this class or any of its derived classes, use xiiTypedArrayProperty instead.">
<polygon fill="white" stroke="#666666" points="463.5,-78 338.5,-78 338.5,-48 463.5,-48 463.5,-78"/>
<text text-anchor="start" x="346.5" y="-66" font-family="Helvetica,sans-Serif" font-size="10.00">xiiTypedArrayProperty</text>
<text text-anchor="middle" x="401" y="-55" font-family="Helvetica,sans-Serif" font-size="10.00">&lt; Type &gt;</text>
</a>
</g>
</g>
<!-- Node1&#45;&gt;Node7 -->
<g id="edge6_Node000001_Node000007" class="edge">
<title>Node1&#45;&gt;Node7</title>
<g id="a_edge6_Node000001_Node000007"><a xlink:title=" ">
<path fill="none" stroke="#63b8ff" d="M293.46,-75.13C308.49,-73.42 324.05,-71.65 338.47,-70"/>
<polygon fill="#63b8ff" stroke="#63b8ff" points="292.69,-71.69 283.15,-76.3 293.49,-78.65 292.69,-71.69"/>
</a>
</g>
</g>
<!-- Node9 -->
<g id="Node000009" class="node">
<title>Node9</title>
<g id="a_Node000009"><a xlink:href="../../d1/d38/classxii_typed_array_property_3_01const_01char_01_5_01_4.htm" target="_top" xlink:title="Specialization of xiiTypedArrayProperty to retain the pointer in const char*.">
<polygon fill="white" stroke="#666666" points="463.5,-30 338.5,-30 338.5,0 463.5,0 463.5,-30"/>
<text text-anchor="start" x="346.5" y="-18" font-family="Helvetica,sans-Serif" font-size="10.00">xiiTypedArrayProperty</text>
<text text-anchor="middle" x="401" y="-7" font-family="Helvetica,sans-Serif" font-size="10.00">&lt; const char * &gt;</text>
</a>
</g>
</g>
<!-- Node1&#45;&gt;Node9 -->
<g id="edge8_Node000001_Node000009" class="edge">
<title>Node1&#45;&gt;Node9</title>
<g id="a_edge8_Node000001_Node000009"><a xlink:title=" ">
<path fill="none" stroke="#63b8ff" d="M244.56,-70.23C265.1,-60.78 293.41,-48.31 319,-39 327.54,-35.89 336.7,-32.88 345.67,-30.1"/>
<polygon fill="#63b8ff" stroke="#63b8ff" points="243.03,-67.08 235.43,-74.47 245.98,-73.43 243.03,-67.08"/>
</a>
</g>
</g>
<!-- Node2 -->
<g id="Node000002" class="node">
<title>Node2</title>
<g id="a_Node000002"><a xlink:href="../../da/d25/classxii_abstract_property.htm" target="_top" xlink:title="This is the base interface for all properties in the reflection system. It provides enough informatio...">
<polygon fill="white" stroke="#666666" points="110,-93.5 0,-93.5 0,-74.5 110,-74.5 110,-93.5"/>
<text text-anchor="middle" x="55" y="-81.5" font-family="Helvetica,sans-Serif" font-size="10.00">xiiAbstractProperty</text>
</a>
</g>
</g>
<!-- Node2&#45;&gt;Node1 -->
<g id="edge1_Node000001_Node000002" class="edge">
<title>Node2&#45;&gt;Node1</title>
<g id="a_edge1_Node000001_Node000002"><a xlink:title=" ">
<path fill="none" stroke="#63b8ff" d="M120.32,-84C128.74,-84 137.38,-84 145.84,-84"/>
<polygon fill="#63b8ff" stroke="#63b8ff" points="120.2,-80.5 110.2,-84 120.2,-87.5 120.2,-80.5"/>
</a>
</g>
</g>
<!-- Node4 -->
<g id="Node000004" class="node">
<title>Node4</title>
<g id="a_Node000004"><a xlink:href="../../d5/d5d/classxii_member_array_property.htm" target="_top" xlink:title=" ">
<polygon fill="white" stroke="#bfbfbf" points="684.5,-195 537.5,-195 537.5,-165 684.5,-165 684.5,-195"/>
<text text-anchor="start" x="545.5" y="-183" font-family="Helvetica,sans-Serif" font-size="10.00">xiiMemberArrayProperty</text>
<text text-anchor="middle" x="611" y="-172" font-family="Helvetica,sans-Serif" font-size="10.00">&lt; Class, Container, Type &gt;</text>
</a>
</g>
</g>
<!-- Node3&#45;&gt;Node4 -->
<g id="edge3_Node000003_Node000004" class="edge">
<title>Node3&#45;&gt;Node4</title>
<g id="a_edge3_Node000003_Node000004"><a xlink:title=" ">
<path fill="none" stroke="#63b8ff" d="M493.17,-165.4C507.95,-167.24 523.08,-169.13 537.34,-170.92"/>
<polygon fill="#63b8ff" stroke="#63b8ff" points="493.37,-161.89 483.01,-164.13 492.5,-168.84 493.37,-161.89"/>
</a>
</g>
</g>
<!-- Node5 -->
<g id="Node000005" class="node">
<title>Node5</title>
<g id="a_Node000005"><a xlink:href="../../da/d92/classxii_member_array_read_only_property.htm" target="_top" xlink:title="Read only version of xiiMemberArrayProperty that does not call any functions that modify the array....">
<polygon fill="white" stroke="#666666" points="703,-147 519,-147 519,-117 703,-117 703,-147"/>
<text text-anchor="start" x="527" y="-135" font-family="Helvetica,sans-Serif" font-size="10.00">xiiMemberArrayReadOnlyProperty</text>
<text text-anchor="middle" x="611" y="-124" font-family="Helvetica,sans-Serif" font-size="10.00">&lt; Class, Container, Type &gt;</text>
</a>
</g>
</g>
<!-- Node3&#45;&gt;Node5 -->
<g id="edge4_Node000003_Node000005" class="edge">
<title>Node3&#45;&gt;Node5</title>
<g id="a_edge4_Node000003_Node000005"><a xlink:title=" ">
<path fill="none" stroke="#63b8ff" d="M493.01,-144.37C501.59,-143.47 510.28,-142.55 518.86,-141.64"/>
<polygon fill="#63b8ff" stroke="#63b8ff" points="492.59,-140.9 483.01,-145.43 493.33,-147.86 492.59,-140.9"/>
</a>
</g>
</g>
<!-- Node8 -->
<g id="Node000008" class="node">
<title>Node8</title>
<g id="a_Node000008"><a xlink:href="../../d8/db9/classxii_accessor_array_property.htm" target="_top" xlink:title=" ">
<polygon fill="white" stroke="#bfbfbf" points="681,-78 541,-78 541,-48 681,-48 681,-78"/>
<text text-anchor="start" x="549" y="-66" font-family="Helvetica,sans-Serif" font-size="10.00">xiiAccessorArrayProperty</text>
<text text-anchor="middle" x="611" y="-55" font-family="Helvetica,sans-Serif" font-size="10.00">&lt; Class, Type &gt;</text>
</a>
</g>
</g>
<!-- Node7&#45;&gt;Node8 -->
<g id="edge7_Node000007_Node000008" class="edge">
<title>Node7&#45;&gt;Node8</title>
<g id="a_edge7_Node000007_Node000008"><a xlink:title=" ">
<path fill="none" stroke="#63b8ff" d="M473.73,-63C495.49,-63 519.35,-63 540.94,-63"/>
<polygon fill="#63b8ff" stroke="#63b8ff" points="473.56,-59.5 463.56,-63 473.56,-66.5 473.56,-59.5"/>
</a>
</g>
</g>
</g>
</svg>
