<?xml version="1.0" encoding="UTF-8" standalone="no"?>
<!DOCTYPE svg PUBLIC "-//W3C//DTD SVG 1.1//EN"
 "http://www.w3.org/Graphics/SVG/1.1/DTD/svg11.dtd">
<!-- Generated by graphviz version 2.43.0 (0)
 -->
<!-- Title: xiiMenuAction Pages: 1 -->
<svg width="1138pt" height="192pt"
 viewBox="0.00 0.00 1138.00 191.50" xmlns="http://www.w3.org/2000/svg" xmlns:xlink="http://www.w3.org/1999/xlink">
<g id="graph0" class="graph" transform="scale(1 1) rotate(0) translate(4 187.5)">
<title>xiiMenuAction</title>
<polygon fill="white" stroke="transparent" points="-4,4 -4,-187.5 1134,-187.5 1134,4 -4,4"/>
<!-- Node1 -->
<g id="node1" class="node">
<title>Node1</title>
<g id="a_node1"><a xlink:title=" ">
<polygon fill="#bfbfbf" stroke="black" points="465,-76.5 465,-95.5 551,-95.5 551,-76.5 465,-76.5"/>
<text text-anchor="middle" x="508" y="-83.5" font-family="Helvetica,sans-Serif" font-size="10.00">xiiMenuAction</text>
</a>
</g>
</g>
<!-- Node6 -->
<g id="node6" class="node">
<title>Node6</title>
<g id="a_node6"><a xlink:href="../../de/da6/classxii_dynamic_menu_action.htm" target="_top" xlink:title=" ">
<polygon fill="white" stroke="black" points="587,-76.5 587,-95.5 717,-95.5 717,-76.5 587,-76.5"/>
<text text-anchor="middle" x="652" y="-83.5" font-family="Helvetica,sans-Serif" font-size="10.00">xiiDynamicMenuAction</text>
</a>
</g>
</g>
<!-- Node1&#45;&gt;Node6 -->
<g id="edge5" class="edge">
<title>Node1&#45;&gt;Node6</title>
<path fill="none" stroke="midnightblue" d="M561.46,-86C569.73,-86 578.36,-86 586.85,-86"/>
<polygon fill="midnightblue" stroke="midnightblue" points="561.22,-82.5 551.22,-86 561.22,-89.5 561.22,-82.5"/>
</g>
<!-- Node2 -->
<g id="node2" class="node">
<title>Node2</title>
<g id="a_node2"><a xlink:href="../../d3/d7a/classxii_named_action.htm" target="_top" xlink:title=" ">
<polygon fill="white" stroke="black" points="334,-76.5 334,-95.5 429,-95.5 429,-76.5 334,-76.5"/>
<text text-anchor="middle" x="381.5" y="-83.5" font-family="Helvetica,sans-Serif" font-size="10.00">xiiNamedAction</text>
</a>
</g>
</g>
<!-- Node2&#45;&gt;Node1 -->
<g id="edge1" class="edge">
<title>Node2&#45;&gt;Node1</title>
<path fill="none" stroke="midnightblue" d="M439.26,-86C447.9,-86 456.69,-86 464.95,-86"/>
<polygon fill="midnightblue" stroke="midnightblue" points="439.21,-82.5 429.21,-86 439.21,-89.5 439.21,-82.5"/>
</g>
<!-- Node3 -->
<g id="node3" class="node">
<title>Node3</title>
<g id="a_node3"><a xlink:href="../../d8/d30/classxii_action.htm" target="_top" xlink:title=" ">
<polygon fill="white" stroke="black" points="239,-76.5 239,-95.5 298,-95.5 298,-76.5 239,-76.5"/>
<text text-anchor="middle" x="268.5" y="-83.5" font-family="Helvetica,sans-Serif" font-size="10.00">xiiAction</text>
</a>
</g>
</g>
<!-- Node3&#45;&gt;Node2 -->
<g id="edge2" class="edge">
<title>Node3&#45;&gt;Node2</title>
<path fill="none" stroke="midnightblue" d="M308.23,-86C316.53,-86 325.37,-86 333.93,-86"/>
<polygon fill="midnightblue" stroke="midnightblue" points="308.09,-82.5 298.09,-86 308.09,-89.5 308.09,-82.5"/>
</g>
<!-- Node4 -->
<g id="node4" class="node">
<title>Node4</title>
<g id="a_node4"><a xlink:href="../../dc/d71/classxii_reflected_class.htm" target="_top" xlink:title="All classes that should be dynamically reflectable, need to be derived from this base class.">
<polygon fill="white" stroke="black" points="102,-76.5 102,-95.5 203,-95.5 203,-76.5 102,-76.5"/>
<text text-anchor="middle" x="152.5" y="-83.5" font-family="Helvetica,sans-Serif" font-size="10.00">xiiReflectedClass</text>
</a>
</g>
</g>
<!-- Node4&#45;&gt;Node3 -->
<g id="edge3" class="edge">
<title>Node4&#45;&gt;Node3</title>
<path fill="none" stroke="midnightblue" d="M213.27,-86C222.22,-86 231.08,-86 238.96,-86"/>
<polygon fill="midnightblue" stroke="midnightblue" points="213.17,-82.5 203.17,-86 213.17,-89.5 213.17,-82.5"/>
</g>
<!-- Node5 -->
<g id="node5" class="node">
<title>Node5</title>
<g id="a_node5"><a xlink:href="../../d2/d38/classxii_no_base.htm" target="_top" xlink:title="Dummy type to pass to templates and macros that expect a base type for a class that has no base.">
<polygon fill="white" stroke="black" points="0,-76.5 0,-95.5 66,-95.5 66,-76.5 0,-76.5"/>
<text text-anchor="middle" x="33" y="-83.5" font-family="Helvetica,sans-Serif" font-size="10.00">xiiNoBase</text>
</a>
</g>
</g>
<!-- Node5&#45;&gt;Node4 -->
<g id="edge4" class="edge">
<title>Node5&#45;&gt;Node4</title>
<path fill="none" stroke="midnightblue" d="M76.27,-86C84.54,-86 93.29,-86 101.78,-86"/>
<polygon fill="midnightblue" stroke="midnightblue" points="76.11,-82.5 66.11,-86 76.11,-89.5 76.11,-82.5"/>
</g>
<!-- Node7 -->
<g id="node7" class="node">
<title>Node7</title>
<g id="a_node7"><a xlink:href="../../dc/d2e/classxii_application_panels_menu_action.htm" target="_top" xlink:title=" ">
<polygon fill="white" stroke="black" points="771.5,-153 771.5,-183 913.5,-183 913.5,-153 771.5,-153"/>
<text text-anchor="start" x="779.5" y="-171" font-family="Helvetica,sans-Serif" font-size="10.00">xiiApplicationPanelsMenu</text>
<text text-anchor="middle" x="842.5" y="-160" font-family="Helvetica,sans-Serif" font-size="10.00">Action</text>
</a>
</g>
</g>
<!-- Node6&#45;&gt;Node7 -->
<g id="edge6" class="edge">
<title>Node6&#45;&gt;Node7</title>
<path fill="none" stroke="midnightblue" d="M675.93,-101.21C695.69,-113.79 725.31,-131.4 753,-143 761.84,-146.7 771.39,-150.04 780.84,-152.98"/>
<polygon fill="midnightblue" stroke="midnightblue" points="677.64,-98.15 667.34,-95.66 673.84,-104.03 677.64,-98.15"/>
</g>
<!-- Node8 -->
<g id="node8" class="node">
<title>Node8</title>
<g id="a_node8"><a xlink:href="../../d9/d2d/classxii_dynamic_action_and_menu_action.htm" target="_top" xlink:title=" ">
<polygon fill="white" stroke="black" points="753,-114.5 753,-133.5 932,-133.5 932,-114.5 753,-114.5"/>
<text text-anchor="middle" x="842.5" y="-121.5" font-family="Helvetica,sans-Serif" font-size="10.00">xiiDynamicActionAndMenuAction</text>
</a>
</g>
</g>
<!-- Node6&#45;&gt;Node8 -->
<g id="edge7" class="edge">
<title>Node6&#45;&gt;Node8</title>
<path fill="none" stroke="midnightblue" d="M710.59,-97.61C737.4,-103.01 768.9,-109.36 794.28,-114.48"/>
<polygon fill="midnightblue" stroke="midnightblue" points="711.06,-94.13 700.57,-95.59 709.68,-101 711.06,-94.13"/>
</g>
<!-- Node10 -->
<g id="node10" class="node">
<title>Node10</title>
<g id="a_node10"><a xlink:href="../../da/dec/classxii_enumeration_menu_action.htm" target="_top" xlink:title=" ">
<polygon fill="white" stroke="black" points="768,-76.5 768,-95.5 917,-95.5 917,-76.5 768,-76.5"/>
<text text-anchor="middle" x="842.5" y="-83.5" font-family="Helvetica,sans-Serif" font-size="10.00">xiiEnumerationMenuAction</text>
</a>
</g>
</g>
<!-- Node6&#45;&gt;Node10 -->
<g id="edge9" class="edge">
<title>Node6&#45;&gt;Node10</title>
<path fill="none" stroke="midnightblue" d="M727.18,-86C740.56,-86 754.5,-86 767.86,-86"/>
<polygon fill="midnightblue" stroke="midnightblue" points="727.08,-82.5 717.08,-86 727.08,-89.5 727.08,-82.5"/>
</g>
<!-- Node15 -->
<g id="node15" class="node">
<title>Node15</title>
<g id="a_node15"><a xlink:href="../../d4/d45/classxii_recent_documents_menu_action.htm" target="_top" xlink:title=" ">
<polygon fill="white" stroke="black" points="754.5,-38.5 754.5,-57.5 930.5,-57.5 930.5,-38.5 754.5,-38.5"/>
<text text-anchor="middle" x="842.5" y="-45.5" font-family="Helvetica,sans-Serif" font-size="10.00">xiiRecentDocumentsMenuAction</text>
</a>
</g>
</g>
<!-- Node6&#45;&gt;Node15 -->
<g id="edge14" class="edge">
<title>Node6&#45;&gt;Node15</title>
<path fill="none" stroke="midnightblue" d="M710.59,-74.39C737.4,-68.99 768.9,-62.64 794.28,-57.52"/>
<polygon fill="midnightblue" stroke="midnightblue" points="709.68,-71 700.57,-76.41 711.06,-77.87 709.68,-71"/>
</g>
<!-- Node16 -->
<g id="node16" class="node">
<title>Node16</title>
<g id="a_node16"><a xlink:href="../../da/dbc/classxii_recent_projects_menu_action.htm" target="_top" xlink:title=" ">
<polygon fill="white" stroke="black" points="763,-0.5 763,-19.5 922,-19.5 922,-0.5 763,-0.5"/>
<text text-anchor="middle" x="842.5" y="-7.5" font-family="Helvetica,sans-Serif" font-size="10.00">xiiRecentProjectsMenuAction</text>
</a>
</g>
</g>
<!-- Node6&#45;&gt;Node16 -->
<g id="edge15" class="edge">
<title>Node6&#45;&gt;Node16</title>
<path fill="none" stroke="midnightblue" d="M675.08,-70.77C694.72,-57.88 724.64,-39.83 753,-29 762.98,-25.19 773.91,-22.06 784.57,-19.52"/>
<polygon fill="midnightblue" stroke="midnightblue" points="672.94,-67.99 666.57,-76.46 676.83,-73.81 672.94,-67.99"/>
</g>
<!-- Node9 -->
<g id="node9" class="node">
<title>Node9</title>
<g id="a_node9"><a xlink:href="../../db/d47/classxii_command_history_action.htm" target="_top" xlink:title=" ">
<polygon fill="white" stroke="black" points="976.5,-152.5 976.5,-171.5 1121.5,-171.5 1121.5,-152.5 976.5,-152.5"/>
<text text-anchor="middle" x="1049" y="-159.5" font-family="Helvetica,sans-Serif" font-size="10.00">xiiCommandHistoryAction</text>
</a>
</g>
</g>
<!-- Node8&#45;&gt;Node9 -->
<g id="edge8" class="edge">
<title>Node8&#45;&gt;Node9</title>
<path fill="none" stroke="midnightblue" d="M904.95,-135.42C934.21,-140.86 968.8,-147.28 996.64,-152.46"/>
<polygon fill="midnightblue" stroke="midnightblue" points="905.31,-131.93 894.84,-133.54 904.03,-138.81 905.31,-131.93"/>
</g>
<!-- Node11 -->
<g id="node11" class="node">
<title>Node11</title>
<g id="a_node11"><a xlink:href="../../dc/d4c/classxii_material_model_action.htm" target="_top" xlink:title=" ">
<polygon fill="white" stroke="black" points="984,-114.5 984,-133.5 1114,-133.5 1114,-114.5 984,-114.5"/>
<text text-anchor="middle" x="1049" y="-121.5" font-family="Helvetica,sans-Serif" font-size="10.00">xiiMaterialModelAction</text>
</a>
</g>
</g>
<!-- Node10&#45;&gt;Node11 -->
<g id="edge10" class="edge">
<title>Node10&#45;&gt;Node11</title>
<path fill="none" stroke="midnightblue" d="M904.95,-97.42C934.21,-102.86 968.8,-109.28 996.64,-114.46"/>
<polygon fill="midnightblue" stroke="midnightblue" points="905.31,-93.93 894.84,-95.54 904.03,-100.81 905.31,-93.93"/>
</g>
<!-- Node12 -->
<g id="node12" class="node">
<title>Node12</title>
<g id="a_node12"><a xlink:href="../../da/d8f/classxii_perspective_action.htm" target="_top" xlink:title=" ">
<polygon fill="white" stroke="black" points="991,-76.5 991,-95.5 1107,-95.5 1107,-76.5 991,-76.5"/>
<text text-anchor="middle" x="1049" y="-83.5" font-family="Helvetica,sans-Serif" font-size="10.00">xiiPerspectiveAction</text>
</a>
</g>
</g>
<!-- Node10&#45;&gt;Node12 -->
<g id="edge11" class="edge">
<title>Node10&#45;&gt;Node12</title>
<path fill="none" stroke="midnightblue" d="M927.11,-86C948.53,-86 971.07,-86 990.81,-86"/>
<polygon fill="midnightblue" stroke="midnightblue" points="927.04,-82.5 917.04,-86 927.04,-89.5 927.04,-82.5"/>
</g>
<!-- Node13 -->
<g id="node13" class="node">
<title>Node13</title>
<g id="a_node13"><a xlink:href="../../d9/d17/classxii_render_mode_action.htm" target="_top" xlink:title=" ">
<polygon fill="white" stroke="black" points="988.5,-38.5 988.5,-57.5 1109.5,-57.5 1109.5,-38.5 988.5,-38.5"/>
<text text-anchor="middle" x="1049" y="-45.5" font-family="Helvetica,sans-Serif" font-size="10.00">xiiRenderModeAction</text>
</a>
</g>
</g>
<!-- Node10&#45;&gt;Node13 -->
<g id="edge12" class="edge">
<title>Node10&#45;&gt;Node13</title>
<path fill="none" stroke="midnightblue" d="M904.95,-74.58C934.21,-69.14 968.8,-62.72 996.64,-57.54"/>
<polygon fill="midnightblue" stroke="midnightblue" points="904.03,-71.19 894.84,-76.46 905.31,-78.07 904.03,-71.19"/>
</g>
<!-- Node14 -->
<g id="node14" class="node">
<title>Node14</title>
<g id="a_node14"><a xlink:href="../../d2/db8/classxii_texture_channel_mode_action.htm" target="_top" xlink:title=" ">
<polygon fill="white" stroke="black" points="968,-0.5 968,-19.5 1130,-19.5 1130,-0.5 968,-0.5"/>
<text text-anchor="middle" x="1049" y="-7.5" font-family="Helvetica,sans-Serif" font-size="10.00">xiiTextureChannelModeAction</text>
</a>
</g>
</g>
<!-- Node10&#45;&gt;Node14 -->
<g id="edge13" class="edge">
<title>Node10&#45;&gt;Node14</title>
<path fill="none" stroke="midnightblue" d="M919.52,-72.93C923.85,-71.19 928.04,-69.23 932,-67 952.28,-55.6 947.84,-40.62 968,-29 974.68,-25.15 982.1,-22.08 989.65,-19.63"/>
<polygon fill="midnightblue" stroke="midnightblue" points="918.12,-69.71 909.88,-76.37 920.48,-76.3 918.12,-69.71"/>
</g>
</g>
</svg>
