<?xml version="1.0" encoding="UTF-8" standalone="no"?>
<!DOCTYPE svg PUBLIC "-//W3C//DTD SVG 1.1//EN"
 "http://www.w3.org/Graphics/SVG/1.1/DTD/svg11.dtd">
<!-- Generated by graphviz version 2.43.0 (0)
 -->
<!-- Title: xiiRenderComponent Pages: 1 -->
<svg width="1026pt" height="572pt"
 viewBox="0.00 0.00 1026.00 572.00" xmlns="http://www.w3.org/2000/svg" xmlns:xlink="http://www.w3.org/1999/xlink">
<g id="graph0" class="graph" transform="scale(1 1) rotate(0) translate(4 568)">
<title>xiiRenderComponent</title>
<polygon fill="white" stroke="transparent" points="-4,4 -4,-568 1022,-568 1022,4 -4,4"/>
<!-- Node1 -->
<g id="node1" class="node">
<title>Node1</title>
<g id="a_node1"><a xlink:title=" ">
<polygon fill="#bfbfbf" stroke="black" points="360,-278.5 360,-297.5 479,-297.5 479,-278.5 360,-278.5"/>
<text text-anchor="middle" x="419.5" y="-285.5" font-family="Helvetica,sans-Serif" font-size="10.00">xiiRenderComponent</text>
</a>
</g>
</g>
<!-- Node5 -->
<g id="node5" class="node">
<title>Node5</title>
<g id="a_node5"><a xlink:href="../../de/d92/classxii_always_visible_component.htm" target="_top" xlink:title="Attaching this component to a game object makes the renderer consider it always visible,...">
<polygon fill="white" stroke="black" points="515,-544.5 515,-563.5 668,-563.5 668,-544.5 515,-544.5"/>
<text text-anchor="middle" x="591.5" y="-551.5" font-family="Helvetica,sans-Serif" font-size="10.00">xiiAlwaysVisibleComponent</text>
</a>
</g>
</g>
<!-- Node1&#45;&gt;Node5 -->
<g id="edge4" class="edge">
<title>Node1&#45;&gt;Node5</title>
<path fill="none" stroke="midnightblue" d="M422.03,-307.57C426.76,-354.32 445.37,-473.19 515,-535 519.35,-538.86 524.36,-541.96 529.7,-544.44"/>
<polygon fill="midnightblue" stroke="midnightblue" points="425.51,-307.19 421.12,-297.55 418.54,-307.83 425.51,-307.19"/>
</g>
<!-- Node6 -->
<g id="node6" class="node">
<title>Node6</title>
<g id="a_node6"><a xlink:href="../../d2/d4c/classxii_beam_component.htm" target="_top" xlink:title="A beam component.">
<polygon fill="white" stroke="black" points="535,-506.5 535,-525.5 648,-525.5 648,-506.5 535,-506.5"/>
<text text-anchor="middle" x="591.5" y="-513.5" font-family="Helvetica,sans-Serif" font-size="10.00">xiiBeamComponent</text>
</a>
</g>
</g>
<!-- Node1&#45;&gt;Node6 -->
<g id="edge5" class="edge">
<title>Node1&#45;&gt;Node6</title>
<path fill="none" stroke="midnightblue" d="M423.56,-307.62C431.09,-349.2 454.55,-446.46 515,-497 520.81,-501.85 527.69,-505.5 534.89,-508.22"/>
<polygon fill="midnightblue" stroke="midnightblue" points="426.99,-306.95 421.87,-297.67 420.09,-308.12 426.99,-306.95"/>
</g>
<!-- Node7 -->
<g id="node7" class="node">
<title>Node7</title>
<g id="a_node7"><a xlink:href="../../dc/da3/classxii_cloth_sheet_component.htm" target="_top" xlink:title="Simulates a rectangular piece of cloth.">
<polygon fill="white" stroke="black" points="522.5,-468.5 522.5,-487.5 660.5,-487.5 660.5,-468.5 522.5,-468.5"/>
<text text-anchor="middle" x="591.5" y="-475.5" font-family="Helvetica,sans-Serif" font-size="10.00">xiiClothSheetComponent</text>
</a>
</g>
</g>
<!-- Node1&#45;&gt;Node7 -->
<g id="edge6" class="edge">
<title>Node1&#45;&gt;Node7</title>
<path fill="none" stroke="midnightblue" d="M425.57,-307.2C436.01,-342.85 463.37,-419.24 515,-459 520.03,-462.88 525.76,-465.97 531.76,-468.44"/>
<polygon fill="midnightblue" stroke="midnightblue" points="428.93,-306.22 422.87,-297.53 422.19,-308.1 428.93,-306.22"/>
</g>
<!-- Node8 -->
<g id="node8" class="node">
<title>Node8</title>
<g id="a_node8"><a xlink:href="../../d6/dad/classxii_custom_mesh_component.htm" target="_top" xlink:title="This component is used to render custom geometry.">
<polygon fill="white" stroke="black" points="517,-430.5 517,-449.5 666,-449.5 666,-430.5 517,-430.5"/>
<text text-anchor="middle" x="591.5" y="-437.5" font-family="Helvetica,sans-Serif" font-size="10.00">xiiCustomMeshComponent</text>
</a>
</g>
</g>
<!-- Node1&#45;&gt;Node8 -->
<g id="edge7" class="edge">
<title>Node1&#45;&gt;Node8</title>
<path fill="none" stroke="midnightblue" d="M428.65,-306.96C442.18,-336.12 472.12,-391.68 515,-421 520.69,-424.89 527.11,-427.99 533.74,-430.45"/>
<polygon fill="midnightblue" stroke="midnightblue" points="431.84,-305.52 424.55,-297.83 425.45,-308.39 431.84,-305.52"/>
</g>
<!-- Node9 -->
<g id="node9" class="node">
<title>Node9</title>
<g id="a_node9"><a xlink:href="../../d0/d1e/classxii_decal_component.htm" target="_top" xlink:title=" ">
<polygon fill="white" stroke="black" points="535,-392.5 535,-411.5 648,-411.5 648,-392.5 535,-392.5"/>
<text text-anchor="middle" x="591.5" y="-399.5" font-family="Helvetica,sans-Serif" font-size="10.00">xiiDecalComponent</text>
</a>
</g>
</g>
<!-- Node1&#45;&gt;Node9 -->
<g id="edge8" class="edge">
<title>Node1&#45;&gt;Node9</title>
<path fill="none" stroke="midnightblue" d="M433.51,-306.1C450.01,-327.71 480.5,-363.37 515,-383 521.81,-386.88 529.42,-389.97 537.1,-392.44"/>
<polygon fill="midnightblue" stroke="midnightblue" points="436.1,-303.72 427.32,-297.79 430.49,-307.9 436.1,-303.72"/>
</g>
<!-- Node10 -->
<g id="node10" class="node">
<title>Node10</title>
<g id="a_node10"><a xlink:href="../../da/d2d/classxii_grey_box_component.htm" target="_top" xlink:title=" ">
<polygon fill="white" stroke="black" points="528,-354.5 528,-373.5 655,-373.5 655,-354.5 528,-354.5"/>
<text text-anchor="middle" x="591.5" y="-361.5" font-family="Helvetica,sans-Serif" font-size="10.00">xiiGreyBoxComponent</text>
</a>
</g>
</g>
<!-- Node1&#45;&gt;Node10 -->
<g id="edge9" class="edge">
<title>Node1&#45;&gt;Node10</title>
<path fill="none" stroke="midnightblue" d="M441.9,-303.44C460.44,-316.19 488.4,-333.92 515,-345 523.98,-348.74 533.89,-351.88 543.48,-354.46"/>
<polygon fill="midnightblue" stroke="midnightblue" points="443.8,-300.5 433.6,-297.64 439.79,-306.24 443.8,-300.5"/>
</g>
<!-- Node11 -->
<g id="node11" class="node">
<title>Node11</title>
<g id="a_node11"><a xlink:href="../../d1/dea/classxii_heightfield_component.htm" target="_top" xlink:title="This component utilizes a greyscale image to generate an elevation mesh, which is typically used for ...">
<polygon fill="white" stroke="black" points="522.5,-316.5 522.5,-335.5 660.5,-335.5 660.5,-316.5 522.5,-316.5"/>
<text text-anchor="middle" x="591.5" y="-323.5" font-family="Helvetica,sans-Serif" font-size="10.00">xiiHeightfieldComponent</text>
</a>
</g>
</g>
<!-- Node1&#45;&gt;Node11 -->
<g id="edge10" class="edge">
<title>Node1&#45;&gt;Node11</title>
<path fill="none" stroke="midnightblue" d="M473.4,-299.82C497.37,-305.18 525.32,-311.43 547.91,-316.48"/>
<polygon fill="midnightblue" stroke="midnightblue" points="473.92,-296.35 463.4,-297.59 472.39,-303.19 473.92,-296.35"/>
</g>
<!-- Node12 -->
<g id="node12" class="node">
<title>Node12</title>
<g id="a_node12"><a xlink:href="../../d6/dc8/classxii_lens_flare_component.htm" target="_top" xlink:title=" ">
<polygon fill="white" stroke="black" points="525.5,-278.5 525.5,-297.5 657.5,-297.5 657.5,-278.5 525.5,-278.5"/>
<text text-anchor="middle" x="591.5" y="-285.5" font-family="Helvetica,sans-Serif" font-size="10.00">xiiLensFlareComponent</text>
</a>
</g>
</g>
<!-- Node1&#45;&gt;Node12 -->
<g id="edge11" class="edge">
<title>Node1&#45;&gt;Node12</title>
<path fill="none" stroke="midnightblue" d="M489.35,-288C501.28,-288 513.65,-288 525.48,-288"/>
<polygon fill="midnightblue" stroke="midnightblue" points="489,-284.5 479,-288 489,-291.5 489,-284.5"/>
</g>
<!-- Node13 -->
<g id="node13" class="node">
<title>Node13</title>
<g id="a_node13"><a xlink:href="../../dd/de7/classxii_light_component.htm" target="_top" xlink:title="Base class for all xii light components containing shared properties.">
<polygon fill="white" stroke="black" points="537,-240.5 537,-259.5 646,-259.5 646,-240.5 537,-240.5"/>
<text text-anchor="middle" x="591.5" y="-247.5" font-family="Helvetica,sans-Serif" font-size="10.00">xiiLightComponent</text>
</a>
</g>
</g>
<!-- Node1&#45;&gt;Node13 -->
<g id="edge12" class="edge">
<title>Node1&#45;&gt;Node13</title>
<path fill="none" stroke="midnightblue" d="M473.4,-276.18C497.37,-270.82 525.32,-264.57 547.91,-259.52"/>
<polygon fill="midnightblue" stroke="midnightblue" points="472.39,-272.81 463.4,-278.41 473.92,-279.65 472.39,-272.81"/>
</g>
<!-- Node17 -->
<g id="node17" class="node">
<title>Node17</title>
<g id="a_node17"><a xlink:href="../../da/dc0/classxii_mesh_component_base.htm" target="_top" xlink:title=" ">
<polygon fill="white" stroke="black" points="524,-202.5 524,-221.5 659,-221.5 659,-202.5 524,-202.5"/>
<text text-anchor="middle" x="591.5" y="-209.5" font-family="Helvetica,sans-Serif" font-size="10.00">xiiMeshComponentBase</text>
</a>
</g>
</g>
<!-- Node1&#45;&gt;Node17 -->
<g id="edge16" class="edge">
<title>Node1&#45;&gt;Node17</title>
<path fill="none" stroke="midnightblue" d="M441.9,-272.56C460.44,-259.81 488.4,-242.08 515,-231 523.98,-227.26 533.89,-224.12 543.48,-221.54"/>
<polygon fill="midnightblue" stroke="midnightblue" points="439.79,-269.76 433.6,-278.36 443.8,-275.5 439.79,-269.76"/>
</g>
<!-- Node22 -->
<g id="node22" class="node">
<title>Node22</title>
<g id="a_node22"><a xlink:href="../../db/d22/classxii_render_target_activator_component.htm" target="_top" xlink:title=" ">
<polygon fill="white" stroke="black" points="523,-153 523,-183 660,-183 660,-153 523,-153"/>
<text text-anchor="start" x="531" y="-171" font-family="Helvetica,sans-Serif" font-size="10.00">xiiRenderTargetActivator</text>
<text text-anchor="middle" x="591.5" y="-160" font-family="Helvetica,sans-Serif" font-size="10.00">Component</text>
</a>
</g>
</g>
<!-- Node1&#45;&gt;Node22 -->
<g id="edge21" class="edge">
<title>Node1&#45;&gt;Node22</title>
<path fill="none" stroke="midnightblue" d="M433.76,-270.32C450.5,-249.13 481.24,-213.88 515,-193 521.11,-189.22 527.85,-185.95 534.71,-183.13"/>
<polygon fill="midnightblue" stroke="midnightblue" points="430.81,-268.4 427.47,-278.45 436.35,-272.68 430.81,-268.4"/>
</g>
<!-- Node23 -->
<g id="node23" class="node">
<title>Node23</title>
<g id="a_node23"><a xlink:href="../../d8/df5/classxii_rope_render_component.htm" target="_top" xlink:title=" ">
<polygon fill="white" stroke="black" points="519.5,-114.5 519.5,-133.5 663.5,-133.5 663.5,-114.5 519.5,-114.5"/>
<text text-anchor="middle" x="591.5" y="-121.5" font-family="Helvetica,sans-Serif" font-size="10.00">xiiRopeRenderComponent</text>
</a>
</g>
</g>
<!-- Node1&#45;&gt;Node23 -->
<g id="edge22" class="edge">
<title>Node1&#45;&gt;Node23</title>
<path fill="none" stroke="midnightblue" d="M427.62,-268.72C440.22,-237.34 469.49,-175.48 515,-143 520.39,-139.15 526.48,-136.08 532.81,-133.63"/>
<polygon fill="midnightblue" stroke="midnightblue" points="424.2,-267.86 423.86,-278.45 430.73,-270.38 424.2,-267.86"/>
</g>
<!-- Node24 -->
<g id="node24" class="node">
<title>Node24</title>
<g id="a_node24"><a xlink:href="../../d5/d81/classxii_skeleton_component.htm" target="_top" xlink:title=" ">
<polygon fill="white" stroke="black" points="528,-76.5 528,-95.5 655,-95.5 655,-76.5 528,-76.5"/>
<text text-anchor="middle" x="591.5" y="-83.5" font-family="Helvetica,sans-Serif" font-size="10.00">xiiSkeletonComponent</text>
</a>
</g>
</g>
<!-- Node1&#45;&gt;Node24 -->
<g id="edge23" class="edge">
<title>Node1&#45;&gt;Node24</title>
<path fill="none" stroke="midnightblue" d="M424.9,-268.5C434.44,-230.85 460.68,-148.06 515,-105 519.87,-101.14 525.43,-98.05 531.27,-95.58"/>
<polygon fill="midnightblue" stroke="midnightblue" points="421.49,-267.71 422.55,-278.25 428.3,-269.35 421.49,-267.71"/>
</g>
<!-- Node25 -->
<g id="node25" class="node">
<title>Node25</title>
<g id="a_node25"><a xlink:href="../../da/d36/classxii_sky_box_component.htm" target="_top" xlink:title=" ">
<polygon fill="white" stroke="black" points="531,-38.5 531,-57.5 652,-57.5 652,-38.5 531,-38.5"/>
<text text-anchor="middle" x="591.5" y="-45.5" font-family="Helvetica,sans-Serif" font-size="10.00">xiiSkyBoxComponent</text>
</a>
</g>
</g>
<!-- Node1&#45;&gt;Node25 -->
<g id="edge24" class="edge">
<title>Node1&#45;&gt;Node25</title>
<path fill="none" stroke="midnightblue" d="M423.06,-268.16C429.73,-224.76 451.78,-120.97 515,-67 519.73,-62.96 525.2,-59.76 530.98,-57.23"/>
<polygon fill="midnightblue" stroke="midnightblue" points="419.56,-267.88 421.62,-278.27 426.49,-268.86 419.56,-267.88"/>
</g>
<!-- Node26 -->
<g id="node26" class="node">
<title>Node26</title>
<g id="a_node26"><a xlink:href="../../dd/d63/classxii_sprite_component.htm" target="_top" xlink:title=" ">
<polygon fill="white" stroke="black" points="535,-0.5 535,-19.5 648,-19.5 648,-0.5 535,-0.5"/>
<text text-anchor="middle" x="591.5" y="-7.5" font-family="Helvetica,sans-Serif" font-size="10.00">xiiSpriteComponent</text>
</a>
</g>
</g>
<!-- Node1&#45;&gt;Node26 -->
<g id="edge25" class="edge">
<title>Node1&#45;&gt;Node26</title>
<path fill="none" stroke="midnightblue" d="M421.66,-268.14C425.59,-219.63 442.6,-94.28 515,-29 520.72,-23.84 527.64,-20.04 534.93,-17.24"/>
<polygon fill="midnightblue" stroke="midnightblue" points="418.15,-268.04 420.94,-278.26 425.14,-268.53 418.15,-268.04"/>
</g>
<!-- Node2 -->
<g id="node2" class="node">
<title>Node2</title>
<g id="a_node2"><a xlink:href="../../db/d60/classxii_component.htm" target="_top" xlink:title="Base class of all component types.">
<polygon fill="white" stroke="black" points="239,-278.5 239,-297.5 324,-297.5 324,-278.5 239,-278.5"/>
<text text-anchor="middle" x="281.5" y="-285.5" font-family="Helvetica,sans-Serif" font-size="10.00">xiiComponent</text>
</a>
</g>
</g>
<!-- Node2&#45;&gt;Node1 -->
<g id="edge1" class="edge">
<title>Node2&#45;&gt;Node1</title>
<path fill="none" stroke="midnightblue" d="M334.05,-288C342.42,-288 351.15,-288 359.69,-288"/>
<polygon fill="midnightblue" stroke="midnightblue" points="334.04,-284.5 324.04,-288 334.04,-291.5 334.04,-284.5"/>
</g>
<!-- Node3 -->
<g id="node3" class="node">
<title>Node3</title>
<g id="a_node3"><a xlink:href="../../dc/d71/classxii_reflected_class.htm" target="_top" xlink:title="All classes that should be dynamically reflectable, need to be derived from this base class.">
<polygon fill="white" stroke="black" points="102,-278.5 102,-297.5 203,-297.5 203,-278.5 102,-278.5"/>
<text text-anchor="middle" x="152.5" y="-285.5" font-family="Helvetica,sans-Serif" font-size="10.00">xiiReflectedClass</text>
</a>
</g>
</g>
<!-- Node3&#45;&gt;Node2 -->
<g id="edge2" class="edge">
<title>Node3&#45;&gt;Node2</title>
<path fill="none" stroke="midnightblue" d="M213.57,-288C222.04,-288 230.59,-288 238.61,-288"/>
<polygon fill="midnightblue" stroke="midnightblue" points="213.33,-284.5 203.33,-288 213.33,-291.5 213.33,-284.5"/>
</g>
<!-- Node4 -->
<g id="node4" class="node">
<title>Node4</title>
<g id="a_node4"><a xlink:href="../../d2/d38/classxii_no_base.htm" target="_top" xlink:title="Dummy type to pass to templates and macros that expect a base type for a class that has no base.">
<polygon fill="white" stroke="black" points="0,-278.5 0,-297.5 66,-297.5 66,-278.5 0,-278.5"/>
<text text-anchor="middle" x="33" y="-285.5" font-family="Helvetica,sans-Serif" font-size="10.00">xiiNoBase</text>
</a>
</g>
</g>
<!-- Node4&#45;&gt;Node3 -->
<g id="edge3" class="edge">
<title>Node4&#45;&gt;Node3</title>
<path fill="none" stroke="midnightblue" d="M76.27,-288C84.54,-288 93.29,-288 101.78,-288"/>
<polygon fill="midnightblue" stroke="midnightblue" points="76.11,-284.5 66.11,-288 76.11,-291.5 76.11,-284.5"/>
</g>
<!-- Node14 -->
<g id="node14" class="node">
<title>Node14</title>
<g id="a_node14"><a xlink:href="../../d6/d88/classxii_directional_light_component.htm" target="_top" xlink:title="The standard directional light component. This component represents directional lights.">
<polygon fill="white" stroke="black" points="704,-316.5 704,-335.5 866,-335.5 866,-316.5 704,-316.5"/>
<text text-anchor="middle" x="785" y="-323.5" font-family="Helvetica,sans-Serif" font-size="10.00">xiiDirectionalLightComponent</text>
</a>
</g>
</g>
<!-- Node13&#45;&gt;Node14 -->
<g id="edge13" class="edge">
<title>Node13&#45;&gt;Node14</title>
<path fill="none" stroke="midnightblue" d="M655.81,-263.01C660.05,-264.77 664.16,-266.75 668,-269 688.08,-280.75 683.84,-295.38 704,-307 710.68,-310.85 718.1,-313.92 725.65,-316.37"/>
<polygon fill="midnightblue" stroke="midnightblue" points="656.98,-259.71 646.38,-259.54 654.56,-266.28 656.98,-259.71"/>
</g>
<!-- Node15 -->
<g id="node15" class="node">
<title>Node15</title>
<g id="a_node15"><a xlink:href="../../da/db8/classxii_point_light_component.htm" target="_top" xlink:title="The standard point light component. This component represents point lights with various properties (e...">
<polygon fill="white" stroke="black" points="718,-278.5 718,-297.5 852,-297.5 852,-278.5 718,-278.5"/>
<text text-anchor="middle" x="785" y="-285.5" font-family="Helvetica,sans-Serif" font-size="10.00">xiiPointLightComponent</text>
</a>
</g>
</g>
<!-- Node13&#45;&gt;Node15 -->
<g id="edge14" class="edge">
<title>Node13&#45;&gt;Node15</title>
<path fill="none" stroke="midnightblue" d="M650.65,-261.54C677.96,-266.96 710.13,-273.34 736.02,-278.48"/>
<polygon fill="midnightblue" stroke="midnightblue" points="651.31,-258.1 640.82,-259.59 649.95,-264.97 651.31,-258.1"/>
</g>
<!-- Node16 -->
<g id="node16" class="node">
<title>Node16</title>
<g id="a_node16"><a xlink:href="../../d5/d5e/classxii_spot_light_component.htm" target="_top" xlink:title="The standard spot light component. This component represents spot lights with various properties (e....">
<polygon fill="white" stroke="black" points="719.5,-240.5 719.5,-259.5 850.5,-259.5 850.5,-240.5 719.5,-240.5"/>
<text text-anchor="middle" x="785" y="-247.5" font-family="Helvetica,sans-Serif" font-size="10.00">xiiSpotLightComponent</text>
</a>
</g>
</g>
<!-- Node13&#45;&gt;Node16 -->
<g id="edge15" class="edge">
<title>Node13&#45;&gt;Node16</title>
<path fill="none" stroke="midnightblue" d="M656.16,-250C676.42,-250 698.84,-250 719.18,-250"/>
<polygon fill="midnightblue" stroke="midnightblue" points="656.1,-246.5 646.1,-250 656.1,-253.5 656.1,-246.5"/>
</g>
<!-- Node18 -->
<g id="node18" class="node">
<title>Node18</title>
<g id="a_node18"><a xlink:href="../../d4/d85/classxii_animated_mesh_component.htm" target="_top" xlink:title=" ">
<polygon fill="white" stroke="black" points="706,-202.5 706,-221.5 864,-221.5 864,-202.5 706,-202.5"/>
<text text-anchor="middle" x="785" y="-209.5" font-family="Helvetica,sans-Serif" font-size="10.00">xiiAnimatedMeshComponent</text>
</a>
</g>
</g>
<!-- Node17&#45;&gt;Node18 -->
<g id="edge17" class="edge">
<title>Node17&#45;&gt;Node18</title>
<path fill="none" stroke="midnightblue" d="M669.55,-212C681.46,-212 693.76,-212 705.7,-212"/>
<polygon fill="midnightblue" stroke="midnightblue" points="669.21,-208.5 659.21,-212 669.21,-215.5 669.21,-208.5"/>
</g>
<!-- Node19 -->
<g id="node19" class="node">
<title>Node19</title>
<g id="a_node19"><a xlink:href="../../d7/d73/classxii_instanced_mesh_component.htm" target="_top" xlink:title=" ">
<polygon fill="white" stroke="black" points="706,-164.5 706,-183.5 864,-183.5 864,-164.5 706,-164.5"/>
<text text-anchor="middle" x="785" y="-171.5" font-family="Helvetica,sans-Serif" font-size="10.00">xiiInstancedMeshComponent</text>
</a>
</g>
</g>
<!-- Node17&#45;&gt;Node19 -->
<g id="edge18" class="edge">
<title>Node17&#45;&gt;Node19</title>
<path fill="none" stroke="midnightblue" d="M650.65,-200.46C677.96,-195.04 710.13,-188.66 736.02,-183.52"/>
<polygon fill="midnightblue" stroke="midnightblue" points="649.95,-197.03 640.82,-202.41 651.31,-203.9 649.95,-197.03"/>
</g>
<!-- Node20 -->
<g id="node20" class="node">
<title>Node20</title>
<g id="a_node20"><a xlink:href="../../d6/d5e/classxii_mesh_component.htm" target="_top" xlink:title=" ">
<polygon fill="white" stroke="black" points="729.5,-126.5 729.5,-145.5 840.5,-145.5 840.5,-126.5 729.5,-126.5"/>
<text text-anchor="middle" x="785" y="-133.5" font-family="Helvetica,sans-Serif" font-size="10.00">xiiMeshComponent</text>
</a>
</g>
</g>
<!-- Node17&#45;&gt;Node20 -->
<g id="edge19" class="edge">
<title>Node17&#45;&gt;Node20</title>
<path fill="none" stroke="midnightblue" d="M653.67,-198.91C658.66,-196.92 663.51,-194.63 668,-192 687.81,-180.42 684.05,-166.32 704,-155 711.82,-150.56 720.64,-147.16 729.49,-144.55"/>
<polygon fill="midnightblue" stroke="midnightblue" points="652.19,-195.72 643.96,-202.39 654.55,-202.31 652.19,-195.72"/>
</g>
<!-- Node21 -->
<g id="node21" class="node">
<title>Node21</title>
<g id="a_node21"><a xlink:href="../../dd/df8/classxii_gizmo_component.htm" target="_top" xlink:title=" ">
<polygon fill="white" stroke="black" points="902,-126.5 902,-145.5 1018,-145.5 1018,-126.5 902,-126.5"/>
<text text-anchor="middle" x="960" y="-133.5" font-family="Helvetica,sans-Serif" font-size="10.00">xiiGizmoComponent</text>
</a>
</g>
</g>
<!-- Node20&#45;&gt;Node21 -->
<g id="edge20" class="edge">
<title>Node20&#45;&gt;Node21</title>
<path fill="none" stroke="midnightblue" d="M850.99,-136C867.73,-136 885.63,-136 901.93,-136"/>
<polygon fill="midnightblue" stroke="midnightblue" points="850.74,-132.5 840.74,-136 850.74,-139.5 850.74,-132.5"/>
</g>
</g>
</svg>
