<?xml version="1.0" encoding="UTF-8" standalone="no"?>
<!DOCTYPE svg PUBLIC "-//W3C//DTD SVG 1.1//EN"
 "http://www.w3.org/Graphics/SVG/1.1/DTD/svg11.dtd">
<!-- Generated by graphviz version 2.43.0 (0)
 -->
<!-- Title: xiiEnumerationMenuAction Pages: 1 -->
<svg width="1108pt" height="142pt"
 viewBox="0.00 0.00 1108.00 142.00" xmlns="http://www.w3.org/2000/svg" xmlns:xlink="http://www.w3.org/1999/xlink">
<g id="graph0" class="graph" transform="scale(1 1) rotate(0) translate(4 138)">
<title>xiiEnumerationMenuAction</title>
<polygon fill="white" stroke="transparent" points="-4,4 -4,-138 1104,-138 1104,4 -4,4"/>
<!-- Node1 -->
<g id="node1" class="node">
<title>Node1</title>
<g id="a_node1"><a xlink:title=" ">
<polygon fill="#bfbfbf" stroke="black" points="753,-57.5 753,-76.5 902,-76.5 902,-57.5 753,-57.5"/>
<text text-anchor="middle" x="827.5" y="-64.5" font-family="Helvetica,sans-Serif" font-size="10.00">xiiEnumerationMenuAction</text>
</a>
</g>
</g>
<!-- Node8 -->
<g id="node8" class="node">
<title>Node8</title>
<g id="a_node8"><a xlink:href="../../dc/d4c/classxii_material_model_action.htm" target="_top" xlink:title=" ">
<polygon fill="white" stroke="black" points="954,-114.5 954,-133.5 1084,-133.5 1084,-114.5 954,-114.5"/>
<text text-anchor="middle" x="1019" y="-121.5" font-family="Helvetica,sans-Serif" font-size="10.00">xiiMaterialModelAction</text>
</a>
</g>
</g>
<!-- Node1&#45;&gt;Node8 -->
<g id="edge7" class="edge">
<title>Node1&#45;&gt;Node8</title>
<path fill="none" stroke="midnightblue" d="M863.54,-80.17C884.89,-87.94 912.82,-97.66 938,-105 949.65,-108.4 962.38,-111.63 974.2,-114.44"/>
<polygon fill="midnightblue" stroke="midnightblue" points="864.52,-76.8 853.93,-76.64 862.11,-83.38 864.52,-76.8"/>
</g>
<!-- Node9 -->
<g id="node9" class="node">
<title>Node9</title>
<g id="a_node9"><a xlink:href="../../da/d8f/classxii_perspective_action.htm" target="_top" xlink:title=" ">
<polygon fill="white" stroke="black" points="961,-76.5 961,-95.5 1077,-95.5 1077,-76.5 961,-76.5"/>
<text text-anchor="middle" x="1019" y="-83.5" font-family="Helvetica,sans-Serif" font-size="10.00">xiiPerspectiveAction</text>
</a>
</g>
</g>
<!-- Node1&#45;&gt;Node9 -->
<g id="edge8" class="edge">
<title>Node1&#45;&gt;Node9</title>
<path fill="none" stroke="midnightblue" d="M912.22,-75.39C928.69,-77.05 945.61,-78.74 960.96,-80.28"/>
<polygon fill="midnightblue" stroke="midnightblue" points="912.34,-71.89 902.04,-74.37 911.64,-78.85 912.34,-71.89"/>
</g>
<!-- Node10 -->
<g id="node10" class="node">
<title>Node10</title>
<g id="a_node10"><a xlink:href="../../d9/d17/classxii_render_mode_action.htm" target="_top" xlink:title=" ">
<polygon fill="white" stroke="black" points="958.5,-38.5 958.5,-57.5 1079.5,-57.5 1079.5,-38.5 958.5,-38.5"/>
<text text-anchor="middle" x="1019" y="-45.5" font-family="Helvetica,sans-Serif" font-size="10.00">xiiRenderModeAction</text>
</a>
</g>
</g>
<!-- Node1&#45;&gt;Node10 -->
<g id="edge9" class="edge">
<title>Node1&#45;&gt;Node10</title>
<path fill="none" stroke="midnightblue" d="M912.17,-58.61C927.7,-57.05 943.64,-55.46 958.28,-53.99"/>
<polygon fill="midnightblue" stroke="midnightblue" points="911.64,-55.15 902.04,-59.63 912.34,-62.11 911.64,-55.15"/>
</g>
<!-- Node11 -->
<g id="node11" class="node">
<title>Node11</title>
<g id="a_node11"><a xlink:href="../../d2/db8/classxii_texture_channel_mode_action.htm" target="_top" xlink:title=" ">
<polygon fill="white" stroke="black" points="938,-0.5 938,-19.5 1100,-19.5 1100,-0.5 938,-0.5"/>
<text text-anchor="middle" x="1019" y="-7.5" font-family="Helvetica,sans-Serif" font-size="10.00">xiiTextureChannelModeAction</text>
</a>
</g>
</g>
<!-- Node1&#45;&gt;Node11 -->
<g id="edge10" class="edge">
<title>Node1&#45;&gt;Node11</title>
<path fill="none" stroke="midnightblue" d="M863.54,-53.83C884.89,-46.06 912.82,-36.34 938,-29 949.65,-25.6 962.38,-22.37 974.2,-19.56"/>
<polygon fill="midnightblue" stroke="midnightblue" points="862.11,-50.62 853.93,-57.36 864.52,-57.2 862.11,-50.62"/>
</g>
<!-- Node2 -->
<g id="node2" class="node">
<title>Node2</title>
<g id="a_node2"><a xlink:href="../../de/da6/classxii_dynamic_menu_action.htm" target="_top" xlink:title=" ">
<polygon fill="white" stroke="black" points="587,-57.5 587,-76.5 717,-76.5 717,-57.5 587,-57.5"/>
<text text-anchor="middle" x="652" y="-64.5" font-family="Helvetica,sans-Serif" font-size="10.00">xiiDynamicMenuAction</text>
</a>
</g>
</g>
<!-- Node2&#45;&gt;Node1 -->
<g id="edge1" class="edge">
<title>Node2&#45;&gt;Node1</title>
<path fill="none" stroke="midnightblue" d="M727.37,-67C735.86,-67 744.51,-67 752.99,-67"/>
<polygon fill="midnightblue" stroke="midnightblue" points="727.11,-63.5 717.11,-67 727.11,-70.5 727.11,-63.5"/>
</g>
<!-- Node3 -->
<g id="node3" class="node">
<title>Node3</title>
<g id="a_node3"><a xlink:href="../../d9/d0c/classxii_menu_action.htm" target="_top" xlink:title=" ">
<polygon fill="white" stroke="black" points="465,-57.5 465,-76.5 551,-76.5 551,-57.5 465,-57.5"/>
<text text-anchor="middle" x="508" y="-64.5" font-family="Helvetica,sans-Serif" font-size="10.00">xiiMenuAction</text>
</a>
</g>
</g>
<!-- Node3&#45;&gt;Node2 -->
<g id="edge2" class="edge">
<title>Node3&#45;&gt;Node2</title>
<path fill="none" stroke="midnightblue" d="M561.46,-67C569.73,-67 578.36,-67 586.85,-67"/>
<polygon fill="midnightblue" stroke="midnightblue" points="561.22,-63.5 551.22,-67 561.22,-70.5 561.22,-63.5"/>
</g>
<!-- Node4 -->
<g id="node4" class="node">
<title>Node4</title>
<g id="a_node4"><a xlink:href="../../d3/d7a/classxii_named_action.htm" target="_top" xlink:title=" ">
<polygon fill="white" stroke="black" points="334,-57.5 334,-76.5 429,-76.5 429,-57.5 334,-57.5"/>
<text text-anchor="middle" x="381.5" y="-64.5" font-family="Helvetica,sans-Serif" font-size="10.00">xiiNamedAction</text>
</a>
</g>
</g>
<!-- Node4&#45;&gt;Node3 -->
<g id="edge3" class="edge">
<title>Node4&#45;&gt;Node3</title>
<path fill="none" stroke="midnightblue" d="M439.26,-67C447.9,-67 456.69,-67 464.95,-67"/>
<polygon fill="midnightblue" stroke="midnightblue" points="439.21,-63.5 429.21,-67 439.21,-70.5 439.21,-63.5"/>
</g>
<!-- Node5 -->
<g id="node5" class="node">
<title>Node5</title>
<g id="a_node5"><a xlink:href="../../d8/d30/classxii_action.htm" target="_top" xlink:title=" ">
<polygon fill="white" stroke="black" points="239,-57.5 239,-76.5 298,-76.5 298,-57.5 239,-57.5"/>
<text text-anchor="middle" x="268.5" y="-64.5" font-family="Helvetica,sans-Serif" font-size="10.00">xiiAction</text>
</a>
</g>
</g>
<!-- Node5&#45;&gt;Node4 -->
<g id="edge4" class="edge">
<title>Node5&#45;&gt;Node4</title>
<path fill="none" stroke="midnightblue" d="M308.23,-67C316.53,-67 325.37,-67 333.93,-67"/>
<polygon fill="midnightblue" stroke="midnightblue" points="308.09,-63.5 298.09,-67 308.09,-70.5 308.09,-63.5"/>
</g>
<!-- Node6 -->
<g id="node6" class="node">
<title>Node6</title>
<g id="a_node6"><a xlink:href="../../dc/d71/classxii_reflected_class.htm" target="_top" xlink:title="All classes that should be dynamically reflectable, need to be derived from this base class.">
<polygon fill="white" stroke="black" points="102,-57.5 102,-76.5 203,-76.5 203,-57.5 102,-57.5"/>
<text text-anchor="middle" x="152.5" y="-64.5" font-family="Helvetica,sans-Serif" font-size="10.00">xiiReflectedClass</text>
</a>
</g>
</g>
<!-- Node6&#45;&gt;Node5 -->
<g id="edge5" class="edge">
<title>Node6&#45;&gt;Node5</title>
<path fill="none" stroke="midnightblue" d="M213.27,-67C222.22,-67 231.08,-67 238.96,-67"/>
<polygon fill="midnightblue" stroke="midnightblue" points="213.17,-63.5 203.17,-67 213.17,-70.5 213.17,-63.5"/>
</g>
<!-- Node7 -->
<g id="node7" class="node">
<title>Node7</title>
<g id="a_node7"><a xlink:href="../../d2/d38/classxii_no_base.htm" target="_top" xlink:title="Dummy type to pass to templates and macros that expect a base type for a class that has no base.">
<polygon fill="white" stroke="black" points="0,-57.5 0,-76.5 66,-76.5 66,-57.5 0,-57.5"/>
<text text-anchor="middle" x="33" y="-64.5" font-family="Helvetica,sans-Serif" font-size="10.00">xiiNoBase</text>
</a>
</g>
</g>
<!-- Node7&#45;&gt;Node6 -->
<g id="edge6" class="edge">
<title>Node7&#45;&gt;Node6</title>
<path fill="none" stroke="midnightblue" d="M76.27,-67C84.54,-67 93.29,-67 101.78,-67"/>
<polygon fill="midnightblue" stroke="midnightblue" points="76.11,-63.5 66.11,-67 76.11,-70.5 76.11,-63.5"/>
</g>
</g>
</svg>
