<?xml version="1.0" encoding="UTF-8" standalone="no"?>
<!DOCTYPE svg PUBLIC "-//W3C//DTD SVG 1.1//EN"
 "http://www.w3.org/Graphics/SVG/1.1/DTD/svg11.dtd">
<!-- Generated by graphviz version 2.43.0 (0)
 -->
<!-- Title: xiiEventMessage Pages: 1 -->
<svg width="675pt" height="409pt"
 viewBox="0.00 0.00 675.00 409.00" xmlns="http://www.w3.org/2000/svg" xmlns:xlink="http://www.w3.org/1999/xlink">
<g id="graph0" class="graph" transform="scale(1 1) rotate(0) translate(4 405)">
<title>xiiEventMessage</title>
<!-- Node1 -->
<g id="Node000001" class="node">
<title>Node1</title>
<g id="a_Node000001"><a xlink:title="Base class for all messages that are sent as &#39;events&#39;.">
<polygon fill="#999999" stroke="#666666" points="447,-216 347,-216 347,-197 447,-197 447,-216"/>
<text text-anchor="middle" x="397" y="-204" font-family="Helvetica,sans-Serif" font-size="10.00">xiiEventMessage</text>
</a>
</g>
</g>
<!-- Node5 -->
<g id="Node000005" class="node">
<title>Node5</title>
<g id="a_Node000005"><a xlink:href="../../da/d11/classxii_event_msg_set_power_input.htm" target="_top" xlink:title="This event is posted by xiiPowerConnectorComponent whenever the power input on a connector changes.">
<polygon fill="white" stroke="#666666" points="648.5,-401 501.5,-401 501.5,-382 648.5,-382 648.5,-401"/>
<text text-anchor="middle" x="575" y="-389" font-family="Helvetica,sans-Serif" font-size="10.00">xiiEventMsgSetPowerInput</text>
</a>
</g>
</g>
<!-- Node1&#45;&gt;Node5 -->
<g id="edge4_Node000001_Node000005" class="edge">
<title>Node1&#45;&gt;Node5</title>
<g id="a_edge4_Node000001_Node000005"><a xlink:title=" ">
<path fill="none" stroke="#63b8ff" d="M402.15,-226.42C410.67,-261.97 433.6,-336.13 483,-373.5 488.52,-377.68 494.76,-380.96 501.31,-383.53"/>
<polygon fill="#63b8ff" stroke="#63b8ff" points="405.49,-225.31 399.88,-216.33 398.66,-226.85 405.49,-225.31"/>
</a>
</g>
</g>
<!-- Node6 -->
<g id="Node000006" class="node">
<title>Node6</title>
<g id="a_Node000006"><a xlink:href="../../d4/d6a/structxii_msg_animation_reached_end.htm" target="_top" xlink:title="Sent when an animation reached its end (either forwards or backwards playing)">
<polygon fill="white" stroke="#666666" points="654.5,-364 495.5,-364 495.5,-345 654.5,-345 654.5,-364"/>
<text text-anchor="middle" x="575" y="-352" font-family="Helvetica,sans-Serif" font-size="10.00">xiiMsgAnimationReachedEnd</text>
</a>
</g>
</g>
<!-- Node1&#45;&gt;Node6 -->
<g id="edge5_Node000001_Node000006" class="edge">
<title>Node1&#45;&gt;Node6</title>
<g id="a_edge5_Node000001_Node000006"><a xlink:title=" ">
<path fill="none" stroke="#63b8ff" d="M404.89,-225.65C416.35,-254.58 442.19,-308.97 483,-336.5 487.94,-339.83 493.35,-342.58 499,-344.84"/>
<polygon fill="#63b8ff" stroke="#63b8ff" points="408.14,-224.35 401.32,-216.24 401.6,-226.83 408.14,-224.35"/>
</a>
</g>
</g>
<!-- Node7 -->
<g id="Node000007" class="node">
<title>Node7</title>
<g id="a_Node000007"><a xlink:href="../../dd/d7a/structxii_msg_blackboard_entry_changed.htm" target="_top" xlink:title=" ">
<polygon fill="white" stroke="#bfbfbf" points="661,-327 489,-327 489,-308 661,-308 661,-327"/>
<text text-anchor="middle" x="575" y="-315" font-family="Helvetica,sans-Serif" font-size="10.00">xiiMsgBlackboardEntryChanged</text>
</a>
</g>
</g>
<!-- Node1&#45;&gt;Node7 -->
<g id="edge6_Node000001_Node000007" class="edge">
<title>Node1&#45;&gt;Node7</title>
<g id="a_edge6_Node000001_Node000007"><a xlink:title=" ">
<path fill="none" stroke="#63b8ff" d="M409.4,-224.81C423.79,-246.29 450.62,-281.27 483,-299.5 489.03,-302.9 495.61,-305.66 502.37,-307.91"/>
<polygon fill="#63b8ff" stroke="#63b8ff" points="412.23,-222.74 403.85,-216.26 406.36,-226.55 412.23,-222.74"/>
</a>
</g>
</g>
<!-- Node8 -->
<g id="Node000008" class="node">
<title>Node8</title>
<g id="a_Node000008"><a xlink:href="../../dd/d19/structxii_msg_damage.htm" target="_top" xlink:title=" ">
<polygon fill="white" stroke="#bfbfbf" points="620,-290 530,-290 530,-271 620,-271 620,-290"/>
<text text-anchor="middle" x="575" y="-278" font-family="Helvetica,sans-Serif" font-size="10.00">xiiMsgDamage</text>
</a>
</g>
</g>
<!-- Node1&#45;&gt;Node8 -->
<g id="edge7_Node000001_Node000008" class="edge">
<title>Node1&#45;&gt;Node8</title>
<g id="a_edge7_Node000001_Node000008"><a xlink:title=" ">
<path fill="none" stroke="#63b8ff" d="M417.53,-222.57C434,-235.3 458.72,-252.55 483,-262.5 497.75,-268.55 514.7,-272.61 529.95,-275.32"/>
<polygon fill="#63b8ff" stroke="#63b8ff" points="419.29,-219.5 409.28,-216.03 414.95,-224.99 419.29,-219.5"/>
</a>
</g>
</g>
<!-- Node9 -->
<g id="Node000009" class="node">
<title>Node9</title>
<g id="a_Node000009"><a xlink:href="../../d1/df2/structxii_msg_generic_event.htm" target="_top" xlink:title="For use in scripts to signal a custom event that some game event has occurred.">
<polygon fill="white" stroke="#666666" points="632,-253 518,-253 518,-234 632,-234 632,-253"/>
<text text-anchor="middle" x="575" y="-241" font-family="Helvetica,sans-Serif" font-size="10.00">xiiMsgGenericEvent</text>
</a>
</g>
</g>
<!-- Node1&#45;&gt;Node9 -->
<g id="edge8_Node000001_Node000009" class="edge">
<title>Node1&#45;&gt;Node9</title>
<g id="a_edge8_Node000001_Node000009"><a xlink:title=" ">
<path fill="none" stroke="#63b8ff" d="M449.77,-218.29C460.73,-220.72 472.24,-223.23 483,-225.5 496.4,-228.32 510.93,-231.25 524.36,-233.91"/>
<polygon fill="#63b8ff" stroke="#63b8ff" points="450.41,-214.84 439.89,-216.08 448.89,-221.68 450.41,-214.84"/>
</a>
</g>
</g>
<!-- Node10 -->
<g id="Node000010" class="node">
<title>Node10</title>
<g id="a_Node000010"><a xlink:href="../../d7/daa/structxii_msg_input_action_triggered.htm" target="_top" xlink:title="xiiInputComponent raises this event when it detects input">
<polygon fill="white" stroke="#666666" points="649.5,-216 500.5,-216 500.5,-197 649.5,-197 649.5,-216"/>
<text text-anchor="middle" x="575" y="-204" font-family="Helvetica,sans-Serif" font-size="10.00">xiiMsgInputActionTriggered</text>
</a>
</g>
</g>
<!-- Node1&#45;&gt;Node10 -->
<g id="edge9_Node000001_Node000010" class="edge">
<title>Node1&#45;&gt;Node10</title>
<g id="a_edge9_Node000001_Node000010"><a xlink:title=" ">
<path fill="none" stroke="#63b8ff" d="M457.32,-206.5C471.09,-206.5 485.91,-206.5 500.22,-206.5"/>
<polygon fill="#63b8ff" stroke="#63b8ff" points="457.03,-203 447.03,-206.5 457.03,-210 457.03,-203"/>
</a>
</g>
</g>
<!-- Node11 -->
<g id="Node000011" class="node">
<title>Node11</title>
<g id="a_Node000011"><a xlink:href="../../dd/d55/structxii_msg_path_changed.htm" target="_top" xlink:title=" ">
<polygon fill="white" stroke="#bfbfbf" points="631.5,-179 518.5,-179 518.5,-160 631.5,-160 631.5,-179"/>
<text text-anchor="middle" x="575" y="-167" font-family="Helvetica,sans-Serif" font-size="10.00">xiiMsgPathChanged</text>
</a>
</g>
</g>
<!-- Node1&#45;&gt;Node11 -->
<g id="edge10_Node000001_Node000011" class="edge">
<title>Node1&#45;&gt;Node11</title>
<g id="a_edge10_Node000001_Node000011"><a xlink:title=" ">
<path fill="none" stroke="#63b8ff" d="M449.77,-194.71C460.73,-192.28 472.24,-189.77 483,-187.5 496.4,-184.68 510.93,-181.75 524.36,-179.09"/>
<polygon fill="#63b8ff" stroke="#63b8ff" points="448.89,-191.32 439.89,-196.92 450.41,-198.16 448.89,-191.32"/>
</a>
</g>
</g>
<!-- Node12 -->
<g id="Node000012" class="node">
<title>Node12</title>
<g id="a_Node000012"><a xlink:href="../../d9/dba/structxii_msg_physics_joint_broke.htm" target="_top" xlink:title=" ">
<polygon fill="white" stroke="#bfbfbf" points="642.5,-142 507.5,-142 507.5,-123 642.5,-123 642.5,-142"/>
<text text-anchor="middle" x="575" y="-130" font-family="Helvetica,sans-Serif" font-size="10.00">xiiMsgPhysicsJointBroke</text>
</a>
</g>
</g>
<!-- Node1&#45;&gt;Node12 -->
<g id="edge11_Node000001_Node000012" class="edge">
<title>Node1&#45;&gt;Node12</title>
<g id="a_edge11_Node000001_Node000012"><a xlink:title=" ">
<path fill="none" stroke="#63b8ff" d="M417.53,-190.43C434,-177.7 458.72,-160.45 483,-150.5 491.35,-147.08 500.39,-144.3 509.44,-142.03"/>
<polygon fill="#63b8ff" stroke="#63b8ff" points="414.95,-188.01 409.28,-196.97 419.29,-193.5 414.95,-188.01"/>
</a>
</g>
</g>
<!-- Node13 -->
<g id="Node000013" class="node">
<title>Node13</title>
<g id="a_Node000013"><a xlink:href="../../d9/daa/structxii_msg_sensor_detected_objects_changed.htm" target="_top" xlink:title=" ">
<polygon fill="white" stroke="#bfbfbf" points="656.5,-104.5 493.5,-104.5 493.5,-74.5 656.5,-74.5 656.5,-104.5"/>
<text text-anchor="start" x="501.5" y="-92.5" font-family="Helvetica,sans-Serif" font-size="10.00">xiiMsgSensorDetectedObjects</text>
<text text-anchor="middle" x="575" y="-81.5" font-family="Helvetica,sans-Serif" font-size="10.00">Changed</text>
</a>
</g>
</g>
<!-- Node1&#45;&gt;Node13 -->
<g id="edge12_Node000001_Node000013" class="edge">
<title>Node1&#45;&gt;Node13</title>
<g id="a_edge12_Node000001_Node000013"><a xlink:title=" ">
<path fill="none" stroke="#63b8ff" d="M409.6,-188.53C424.18,-167.39 451.21,-132.73 483,-113.5 488.73,-110.03 494.96,-107.06 501.38,-104.51"/>
<polygon fill="#63b8ff" stroke="#63b8ff" points="406.62,-186.68 403.96,-196.94 412.44,-190.58 406.62,-186.68"/>
</a>
</g>
</g>
<!-- Node14 -->
<g id="Node000014" class="node">
<title>Node14</title>
<g id="a_Node000014"><a xlink:href="../../d7/d80/structxii_msg_state_machine_state_changed.htm" target="_top" xlink:title="Message that is sent by xiiStateMachineState_SendMsg once the state is entered.">
<polygon fill="white" stroke="#666666" points="667,-56 483,-56 483,-37 667,-37 667,-56"/>
<text text-anchor="middle" x="575" y="-44" font-family="Helvetica,sans-Serif" font-size="10.00">xiiMsgStateMachineStateChanged</text>
</a>
</g>
</g>
<!-- Node1&#45;&gt;Node14 -->
<g id="edge13_Node000001_Node000014" class="edge">
<title>Node1&#45;&gt;Node14</title>
<g id="a_edge13_Node000001_Node000014"><a xlink:title=" ">
<path fill="none" stroke="#63b8ff" d="M404.01,-187.12C414.64,-156.22 439.83,-96.13 483,-65.5 488.4,-61.67 494.4,-58.58 500.67,-56.09"/>
<polygon fill="#63b8ff" stroke="#63b8ff" points="400.64,-186.15 400.85,-196.74 407.29,-188.34 400.64,-186.15"/>
</a>
</g>
</g>
<!-- Node15 -->
<g id="Node000015" class="node">
<title>Node15</title>
<g id="a_Node000015"><a xlink:href="../../d8/df9/structxii_msg_trigger_triggered.htm" target="_top" xlink:title="Sent when something enters or leaves a trigger.">
<polygon fill="white" stroke="#666666" points="638.5,-19 511.5,-19 511.5,0 638.5,0 638.5,-19"/>
<text text-anchor="middle" x="575" y="-7" font-family="Helvetica,sans-Serif" font-size="10.00">xiiMsgTriggerTriggered</text>
</a>
</g>
</g>
<!-- Node1&#45;&gt;Node15 -->
<g id="edge14_Node000001_Node000015" class="edge">
<title>Node1&#45;&gt;Node15</title>
<g id="a_edge14_Node000001_Node000015"><a xlink:title=" ">
<path fill="none" stroke="#63b8ff" d="M401.39,-186.74C408.89,-149.34 430.59,-68.29 483,-27.5 491.26,-21.07 501.19,-16.75 511.42,-13.87"/>
<polygon fill="#63b8ff" stroke="#63b8ff" points="397.89,-186.38 399.49,-196.86 404.77,-187.67 397.89,-186.38"/>
</a>
</g>
</g>
<!-- Node2 -->
<g id="Node000002" class="node">
<title>Node2</title>
<g id="a_Node000002"><a xlink:href="../../d9/d55/classxii_message.htm" target="_top" xlink:title="Base class for all message types. Each message type has it&#39;s own id which is used to dispatch message...">
<polygon fill="white" stroke="#666666" points="311,-216 239,-216 239,-197 311,-197 311,-216"/>
<text text-anchor="middle" x="275" y="-204" font-family="Helvetica,sans-Serif" font-size="10.00">xiiMessage</text>
</a>
</g>
</g>
<!-- Node2&#45;&gt;Node1 -->
<g id="edge1_Node000001_Node000002" class="edge">
<title>Node2&#45;&gt;Node1</title>
<g id="a_edge1_Node000001_Node000002"><a xlink:title=" ">
<path fill="none" stroke="#63b8ff" d="M321.06,-206.5C329.49,-206.5 338.33,-206.5 346.88,-206.5"/>
<polygon fill="#63b8ff" stroke="#63b8ff" points="321.03,-203 311.03,-206.5 321.03,-210 321.03,-203"/>
</a>
</g>
</g>
<!-- Node3 -->
<g id="Node000003" class="node">
<title>Node3</title>
<g id="a_Node000003"><a xlink:href="../../dc/d71/classxii_reflected_class.htm" target="_top" xlink:title="All classes that should be dynamically reflectable, need to be derived from this base class.">
<polygon fill="white" stroke="#666666" points="203,-216 102,-216 102,-197 203,-197 203,-216"/>
<text text-anchor="middle" x="152.5" y="-204" font-family="Helvetica,sans-Serif" font-size="10.00">xiiReflectedClass</text>
</a>
</g>
</g>
<!-- Node3&#45;&gt;Node2 -->
<g id="edge2_Node000002_Node000003" class="edge">
<title>Node3&#45;&gt;Node2</title>
<g id="a_edge2_Node000002_Node000003"><a xlink:title=" ">
<path fill="none" stroke="#63b8ff" d="M213.36,-206.5C222.06,-206.5 230.76,-206.5 238.75,-206.5"/>
<polygon fill="#63b8ff" stroke="#63b8ff" points="213.21,-203 203.21,-206.5 213.21,-210 213.21,-203"/>
</a>
</g>
</g>
<!-- Node4 -->
<g id="Node000004" class="node">
<title>Node4</title>
<g id="a_Node000004"><a xlink:href="../../d2/d38/classxii_no_base.htm" target="_top" xlink:title="Dummy type to pass to templates and macros that expect a base type for a class that has no base.">
<polygon fill="white" stroke="#666666" points="66,-216 0,-216 0,-197 66,-197 66,-216"/>
<text text-anchor="middle" x="33" y="-204" font-family="Helvetica,sans-Serif" font-size="10.00">xiiNoBase</text>
</a>
</g>
</g>
<!-- Node4&#45;&gt;Node3 -->
<g id="edge3_Node000003_Node000004" class="edge">
<title>Node4&#45;&gt;Node3</title>
<g id="a_edge3_Node000003_Node000004"><a xlink:title=" ">
<path fill="none" stroke="#63b8ff" d="M76.27,-206.5C84.54,-206.5 93.29,-206.5 101.78,-206.5"/>
<polygon fill="#63b8ff" stroke="#63b8ff" points="76.11,-203 66.11,-206.5 76.11,-210 76.11,-203"/>
</a>
</g>
</g>
</g>
</svg>
