<?xml version="1.0" encoding="UTF-8" standalone="no"?>
<!DOCTYPE svg PUBLIC "-//W3C//DTD SVG 1.1//EN"
 "http://www.w3.org/Graphics/SVG/1.1/DTD/svg11.dtd">
<!-- Generated by graphviz version 2.43.0 (0)
 -->
<!-- Title: xiiProfileConfigData Pages: 1 -->
<svg width="403pt" height="207pt"
 viewBox="0.00 0.00 403.00 207.00" xmlns="http://www.w3.org/2000/svg" xmlns:xlink="http://www.w3.org/1999/xlink">
<g id="graph0" class="graph" transform="scale(1 1) rotate(0) translate(4 203)">
<title>xiiProfileConfigData</title>
<polygon fill="white" stroke="transparent" points="-4,4 -4,-203 399,-203 399,4 -4,4"/>
<!-- Node1 -->
<g id="node1" class="node">
<title>Node1</title>
<g id="a_node1"><a xlink:title="Base class for configuration objects that store e.g. asset transform settings or runtime configuratio...">
<polygon fill="#bfbfbf" stroke="black" points="171,-67.5 171,-86.5 284,-86.5 284,-67.5 171,-67.5"/>
<text text-anchor="middle" x="227.5" y="-74.5" font-family="Helvetica,sans-Serif" font-size="10.00">xiiProfileConfigData</text>
</a>
</g>
</g>
<!-- Node4 -->
<g id="node4" class="node">
<title>Node4</title>
<g id="a_node4"><a xlink:href="../../db/ddd/classxii_render_pipeline_profile_config.htm" target="_top" xlink:title=" ">
<polygon fill="white" stroke="black" points="0,-0.5 0,-30.5 133,-30.5 133,-0.5 0,-0.5"/>
<text text-anchor="start" x="8" y="-18.5" font-family="Helvetica,sans-Serif" font-size="10.00">xiiRenderPipelineProfile</text>
<text text-anchor="middle" x="66.5" y="-7.5" font-family="Helvetica,sans-Serif" font-size="10.00">Config</text>
</a>
</g>
</g>
<!-- Node1&#45;&gt;Node4 -->
<g id="edge3" class="edge">
<title>Node1&#45;&gt;Node4</title>
<path fill="none" stroke="midnightblue" d="M194.96,-63.98C168.79,-54.3 131.96,-40.69 104.44,-30.52"/>
<polygon fill="midnightblue" stroke="midnightblue" points="193.84,-67.29 204.43,-67.48 196.27,-60.73 193.84,-67.29"/>
</g>
<!-- Node5 -->
<g id="node5" class="node">
<title>Node5</title>
<g id="a_node5"><a xlink:href="../../d8/db7/classxii_texture_asset_profile_config.htm" target="_top" xlink:title=" ">
<polygon fill="white" stroke="black" points="151,-6 151,-25 304,-25 304,-6 151,-6"/>
<text text-anchor="middle" x="227.5" y="-13" font-family="Helvetica,sans-Serif" font-size="10.00">xiiTextureAssetProfileConfig</text>
</a>
</g>
</g>
<!-- Node1&#45;&gt;Node5 -->
<g id="edge4" class="edge">
<title>Node1&#45;&gt;Node5</title>
<path fill="none" stroke="midnightblue" d="M227.5,-57.32C227.5,-46.5 227.5,-33.4 227.5,-25.01"/>
<polygon fill="midnightblue" stroke="midnightblue" points="224,-57.48 227.5,-67.48 231,-57.48 224,-57.48"/>
</g>
<!-- Node6 -->
<g id="node6" class="node">
<title>Node6</title>
<g id="a_node6"><a xlink:href="../../da/d83/classxii_x_r_config.htm" target="_top" xlink:title=" ">
<polygon fill="white" stroke="black" points="322,-6 322,-25 395,-25 395,-6 322,-6"/>
<text text-anchor="middle" x="358.5" y="-13" font-family="Helvetica,sans-Serif" font-size="10.00">xiiXRConfig</text>
</a>
</g>
</g>
<!-- Node1&#45;&gt;Node6 -->
<g id="edge5" class="edge">
<title>Node1&#45;&gt;Node6</title>
<path fill="none" stroke="midnightblue" d="M255.4,-63.33C280.83,-51.78 317.7,-35.03 339.77,-25.01"/>
<polygon fill="midnightblue" stroke="midnightblue" points="253.93,-60.15 246.27,-67.48 256.82,-66.53 253.93,-60.15"/>
</g>
<!-- Node2 -->
<g id="node2" class="node">
<title>Node2</title>
<g id="a_node2"><a xlink:href="../../dc/d71/classxii_reflected_class.htm" target="_top" xlink:title="All classes that should be dynamically reflectable, need to be derived from this base class.">
<polygon fill="white" stroke="black" points="177,-123.5 177,-142.5 278,-142.5 278,-123.5 177,-123.5"/>
<text text-anchor="middle" x="227.5" y="-130.5" font-family="Helvetica,sans-Serif" font-size="10.00">xiiReflectedClass</text>
</a>
</g>
</g>
<!-- Node2&#45;&gt;Node1 -->
<g id="edge1" class="edge">
<title>Node2&#45;&gt;Node1</title>
<path fill="none" stroke="midnightblue" d="M227.5,-112.8C227.5,-103.91 227.5,-93.78 227.5,-86.75"/>
<polygon fill="midnightblue" stroke="midnightblue" points="224,-113.08 227.5,-123.08 231,-113.08 224,-113.08"/>
</g>
<!-- Node3 -->
<g id="node3" class="node">
<title>Node3</title>
<g id="a_node3"><a xlink:href="../../d2/d38/classxii_no_base.htm" target="_top" xlink:title="Dummy type to pass to templates and macros that expect a base type for a class that has no base.">
<polygon fill="white" stroke="black" points="194.5,-179.5 194.5,-198.5 260.5,-198.5 260.5,-179.5 194.5,-179.5"/>
<text text-anchor="middle" x="227.5" y="-186.5" font-family="Helvetica,sans-Serif" font-size="10.00">xiiNoBase</text>
</a>
</g>
</g>
<!-- Node3&#45;&gt;Node2 -->
<g id="edge2" class="edge">
<title>Node3&#45;&gt;Node2</title>
<path fill="none" stroke="midnightblue" d="M227.5,-168.8C227.5,-159.91 227.5,-149.78 227.5,-142.75"/>
<polygon fill="midnightblue" stroke="midnightblue" points="224,-169.08 227.5,-179.08 231,-169.08 224,-169.08"/>
</g>
</g>
</svg>
