<?xml version="1.0" encoding="UTF-8" standalone="no"?>
<!DOCTYPE svg PUBLIC "-//W3C//DTD SVG 1.1//EN"
 "http://www.w3.org/Graphics/SVG/1.1/DTD/svg11.dtd">
<!-- Generated by graphviz version 2.43.0 (0)
 -->
<!-- Title: xiiQtDocumentWindow Pages: 1 -->
<svg width="1128pt" height="587pt"
 viewBox="0.00 0.00 1128.00 586.50" xmlns="http://www.w3.org/2000/svg" xmlns:xlink="http://www.w3.org/1999/xlink">
<g id="graph0" class="graph" transform="scale(1 1) rotate(0) translate(4 582.5)">
<title>xiiQtDocumentWindow</title>
<polygon fill="white" stroke="transparent" points="-4,4 -4,-582.5 1124,-582.5 1124,4 -4,4"/>
<!-- Node1 -->
<g id="node1" class="node">
<title>Node1</title>
<g id="a_node1"><a xlink:title="Base class for all document windows. Handles the most basic document window management.">
<polygon fill="#bfbfbf" stroke="black" points="123,-269.5 123,-288.5 252,-288.5 252,-269.5 123,-269.5"/>
<text text-anchor="middle" x="187.5" y="-276.5" font-family="Helvetica,sans-Serif" font-size="10.00">xiiQtDocumentWindow</text>
</a>
</g>
</g>
<!-- Node3 -->
<g id="node3" class="node">
<title>Node3</title>
<g id="a_node3"><a xlink:href="../../d1/d18/classxii_qt_animation_graph_asset_document_window.htm" target="_top" xlink:title=" ">
<polygon fill="white" stroke="black" points="307.5,-548 307.5,-578 453.5,-578 453.5,-548 307.5,-548"/>
<text text-anchor="start" x="315.5" y="-566" font-family="Helvetica,sans-Serif" font-size="10.00">xiiQtAnimationGraphAsset</text>
<text text-anchor="middle" x="380.5" y="-555" font-family="Helvetica,sans-Serif" font-size="10.00">DocumentWindow</text>
</a>
</g>
</g>
<!-- Node1&#45;&gt;Node3 -->
<g id="edge2" class="edge">
<title>Node1&#45;&gt;Node3</title>
<path fill="none" stroke="midnightblue" d="M190.15,-298.79C195.28,-347.15 215.24,-472.18 288,-538 293.62,-543.08 300.17,-547.14 307.14,-550.39"/>
<polygon fill="midnightblue" stroke="midnightblue" points="193.62,-298.33 189.19,-288.71 186.66,-299 193.62,-298.33"/>
</g>
<!-- Node4 -->
<g id="node4" class="node">
<title>Node4</title>
<g id="a_node4"><a xlink:href="../../d6/ddc/classxii_qt_blackboard_template_asset_document_window.htm" target="_top" xlink:title=" ">
<polygon fill="white" stroke="black" points="297,-499 297,-529 464,-529 464,-499 297,-499"/>
<text text-anchor="start" x="305" y="-517" font-family="Helvetica,sans-Serif" font-size="10.00">xiiQtBlackboardTemplateAsset</text>
<text text-anchor="middle" x="380.5" y="-506" font-family="Helvetica,sans-Serif" font-size="10.00">DocumentWindow</text>
</a>
</g>
</g>
<!-- Node1&#45;&gt;Node4 -->
<g id="edge3" class="edge">
<title>Node1&#45;&gt;Node4</title>
<path fill="none" stroke="midnightblue" d="M192.1,-298.64C200.77,-340.27 226.82,-437.73 288,-489 292.54,-492.81 297.62,-496.04 302.99,-498.78"/>
<polygon fill="midnightblue" stroke="midnightblue" points="195.5,-297.81 190.14,-288.68 188.63,-299.17 195.5,-297.81"/>
</g>
<!-- Node5 -->
<g id="node5" class="node">
<title>Node5</title>
<g id="a_node5"><a xlink:href="../../db/d17/classxii_qt_collection_asset_document_window.htm" target="_top" xlink:title=" ">
<polygon fill="white" stroke="black" points="297.5,-450 297.5,-480 463.5,-480 463.5,-450 297.5,-450"/>
<text text-anchor="start" x="305.5" y="-468" font-family="Helvetica,sans-Serif" font-size="10.00">xiiQtCollectionAssetDocument</text>
<text text-anchor="middle" x="380.5" y="-457" font-family="Helvetica,sans-Serif" font-size="10.00">Window</text>
</a>
</g>
</g>
<!-- Node1&#45;&gt;Node5 -->
<g id="edge4" class="edge">
<title>Node1&#45;&gt;Node5</title>
<path fill="none" stroke="midnightblue" d="M195.06,-298.4C207.57,-332.42 238.13,-402.72 288,-440 293.14,-443.85 298.84,-447.1 304.81,-449.85"/>
<polygon fill="midnightblue" stroke="midnightblue" points="198.27,-296.98 191.63,-288.72 191.67,-299.32 198.27,-296.98"/>
</g>
<!-- Node6 -->
<g id="node6" class="node">
<title>Node6</title>
<g id="a_node6"><a xlink:href="../../db/d22/classxii_qt_color_gradient_asset_document_window.htm" target="_top" xlink:title=" ">
<polygon fill="white" stroke="black" points="288,-401 288,-431 473,-431 473,-401 288,-401"/>
<text text-anchor="start" x="296" y="-419" font-family="Helvetica,sans-Serif" font-size="10.00">xiiQtColorGradientAssetDocument</text>
<text text-anchor="middle" x="380.5" y="-408" font-family="Helvetica,sans-Serif" font-size="10.00">Window</text>
</a>
</g>
</g>
<!-- Node1&#45;&gt;Node6 -->
<g id="edge5" class="edge">
<title>Node1&#45;&gt;Node6</title>
<path fill="none" stroke="midnightblue" d="M199.81,-297.33C216.17,-322.3 248.81,-366.67 288,-391 294.16,-394.82 300.9,-398.07 307.85,-400.82"/>
<polygon fill="midnightblue" stroke="midnightblue" points="202.69,-295.34 194.36,-288.79 196.79,-299.11 202.69,-295.34"/>
</g>
<!-- Node7 -->
<g id="node7" class="node">
<title>Node7</title>
<g id="a_node7"><a xlink:href="../../d2/d23/classxii_qt_curve1_d_asset_document_window.htm" target="_top" xlink:title=" ">
<polygon fill="white" stroke="black" points="301,-352 301,-382 460,-382 460,-352 301,-352"/>
<text text-anchor="start" x="309" y="-370" font-family="Helvetica,sans-Serif" font-size="10.00">xiiQtCurve1DAssetDocument</text>
<text text-anchor="middle" x="380.5" y="-359" font-family="Helvetica,sans-Serif" font-size="10.00">Window</text>
</a>
</g>
</g>
<!-- Node1&#45;&gt;Node7 -->
<g id="edge6" class="edge">
<title>Node1&#45;&gt;Node7</title>
<path fill="none" stroke="midnightblue" d="M209.12,-294.64C228.56,-308.75 258.96,-329.19 288,-342 296.44,-345.72 305.56,-349.01 314.67,-351.88"/>
<polygon fill="midnightblue" stroke="midnightblue" points="211.13,-291.78 201,-288.66 206.97,-297.41 211.13,-291.78"/>
</g>
<!-- Node8 -->
<g id="node8" class="node">
<title>Node8</title>
<g id="a_node8"><a xlink:href="../../d0/d97/classxii_qt_engine_document_window.htm" target="_top" xlink:title="Base class for all document windows that need a connection to the engine process, and might want to r...">
<polygon fill="white" stroke="black" points="299.5,-313.5 299.5,-332.5 461.5,-332.5 461.5,-313.5 299.5,-313.5"/>
<text text-anchor="middle" x="380.5" y="-320.5" font-family="Helvetica,sans-Serif" font-size="10.00">xiiQtEngineDocumentWindow</text>
</a>
</g>
</g>
<!-- Node1&#45;&gt;Node8 -->
<g id="edge7" class="edge">
<title>Node1&#45;&gt;Node8</title>
<path fill="none" stroke="midnightblue" d="M237,-290.92C253.2,-294.84 271.36,-299.18 288,-303 303.21,-306.5 319.88,-310.18 334.78,-313.43"/>
<polygon fill="midnightblue" stroke="midnightblue" points="237.75,-287.5 227.2,-288.54 236.09,-294.3 237.75,-287.5"/>
</g>
<!-- Node22 -->
<g id="node22" class="node">
<title>Node22</title>
<g id="a_node22"><a xlink:href="../../d1/d5e/classxii_qt_image_data_asset_document_window.htm" target="_top" xlink:title=" ">
<polygon fill="white" stroke="black" points="295,-264 295,-294 466,-294 466,-264 295,-264"/>
<text text-anchor="start" x="303" y="-282" font-family="Helvetica,sans-Serif" font-size="10.00">xiiQtImageDataAssetDocument</text>
<text text-anchor="middle" x="380.5" y="-271" font-family="Helvetica,sans-Serif" font-size="10.00">Window</text>
</a>
</g>
</g>
<!-- Node1&#45;&gt;Node22 -->
<g id="edge21" class="edge">
<title>Node1&#45;&gt;Node22</title>
<path fill="none" stroke="midnightblue" d="M262.19,-279C272.86,-279 283.9,-279 294.76,-279"/>
<polygon fill="midnightblue" stroke="midnightblue" points="262.1,-275.5 252.1,-279 262.1,-282.5 262.1,-275.5"/>
</g>
<!-- Node23 -->
<g id="node23" class="node">
<title>Node23</title>
<g id="a_node23"><a xlink:href="../../d9/d42/classxii_qt_l_u_t_asset_document_window.htm" target="_top" xlink:title=" ">
<polygon fill="white" stroke="black" points="293.5,-225.5 293.5,-244.5 467.5,-244.5 467.5,-225.5 293.5,-225.5"/>
<text text-anchor="middle" x="380.5" y="-232.5" font-family="Helvetica,sans-Serif" font-size="10.00">xiiQtLUTAssetDocumentWindow</text>
</a>
</g>
</g>
<!-- Node1&#45;&gt;Node23 -->
<g id="edge22" class="edge">
<title>Node1&#45;&gt;Node23</title>
<path fill="none" stroke="midnightblue" d="M234.87,-266.93C251.58,-262.69 270.6,-257.99 288,-254 302.07,-250.77 317.42,-247.49 331.46,-244.59"/>
<polygon fill="midnightblue" stroke="midnightblue" points="233.63,-263.63 224.8,-269.49 235.36,-270.41 233.63,-263.63"/>
</g>
<!-- Node24 -->
<g id="node24" class="node">
<title>Node24</title>
<g id="a_node24"><a xlink:href="../../dc/dc1/classxii_qt_render_pipeline_asset_document_window.htm" target="_top" xlink:title=" ">
<polygon fill="white" stroke="black" points="310.5,-176 310.5,-206 450.5,-206 450.5,-176 310.5,-176"/>
<text text-anchor="start" x="318.5" y="-194" font-family="Helvetica,sans-Serif" font-size="10.00">xiiQtRenderPipelineAsset</text>
<text text-anchor="middle" x="380.5" y="-183" font-family="Helvetica,sans-Serif" font-size="10.00">DocumentWindow</text>
</a>
</g>
</g>
<!-- Node1&#45;&gt;Node24 -->
<g id="edge23" class="edge">
<title>Node1&#45;&gt;Node24</title>
<path fill="none" stroke="midnightblue" d="M209.12,-263.36C228.56,-249.25 258.96,-228.81 288,-216 296.44,-212.28 305.56,-208.99 314.67,-206.12"/>
<polygon fill="midnightblue" stroke="midnightblue" points="206.97,-260.59 201,-269.34 211.13,-266.22 206.97,-260.59"/>
</g>
<!-- Node25 -->
<g id="node25" class="node">
<title>Node25</title>
<g id="a_node25"><a xlink:href="../../df/dc9/classxii_qt_settings_tab.htm" target="_top" xlink:title=" ">
<polygon fill="white" stroke="black" points="332.5,-137.5 332.5,-156.5 428.5,-156.5 428.5,-137.5 332.5,-137.5"/>
<text text-anchor="middle" x="380.5" y="-144.5" font-family="Helvetica,sans-Serif" font-size="10.00">xiiQtSettingsTab</text>
</a>
</g>
</g>
<!-- Node1&#45;&gt;Node25 -->
<g id="edge24" class="edge">
<title>Node1&#45;&gt;Node25</title>
<path fill="none" stroke="midnightblue" d="M199.32,-260.54C215.3,-235 247.73,-189.42 288,-166 301.32,-158.25 317.36,-153.64 332.26,-150.9"/>
<polygon fill="midnightblue" stroke="midnightblue" points="196.22,-258.89 194.02,-269.25 202.2,-262.53 196.22,-258.89"/>
</g>
<!-- Node26 -->
<g id="node26" class="node">
<title>Node26</title>
<g id="a_node26"><a xlink:href="../../de/d29/classxii_qt_state_machine_asset_document_window.htm" target="_top" xlink:title=" ">
<polygon fill="white" stroke="black" points="288.5,-88 288.5,-118 472.5,-118 472.5,-88 288.5,-88"/>
<text text-anchor="start" x="296.5" y="-106" font-family="Helvetica,sans-Serif" font-size="10.00">xiiQtStateMachineAssetDocument</text>
<text text-anchor="middle" x="380.5" y="-95" font-family="Helvetica,sans-Serif" font-size="10.00">Window</text>
</a>
</g>
</g>
<!-- Node1&#45;&gt;Node26 -->
<g id="edge25" class="edge">
<title>Node1&#45;&gt;Node26</title>
<path fill="none" stroke="midnightblue" d="M195.77,-259.92C209.03,-227.69 240.28,-162.61 288,-128 293.33,-124.13 299.23,-120.86 305.39,-118.1"/>
<polygon fill="midnightblue" stroke="midnightblue" points="192.4,-258.91 191.96,-269.5 198.9,-261.49 192.4,-258.91"/>
</g>
<!-- Node27 -->
<g id="node27" class="node">
<title>Node27</title>
<g id="a_node27"><a xlink:href="../../df/d8e/classxii_qt_surface_asset_document_window.htm" target="_top" xlink:title=" ">
<polygon fill="white" stroke="black" points="303.5,-39 303.5,-69 457.5,-69 457.5,-39 303.5,-39"/>
<text text-anchor="start" x="311.5" y="-57" font-family="Helvetica,sans-Serif" font-size="10.00">xiiQtSurfaceAssetDocument</text>
<text text-anchor="middle" x="380.5" y="-46" font-family="Helvetica,sans-Serif" font-size="10.00">Window</text>
</a>
</g>
</g>
<!-- Node1&#45;&gt;Node27 -->
<g id="edge26" class="edge">
<title>Node1&#45;&gt;Node27</title>
<path fill="none" stroke="midnightblue" d="M192.51,-259.32C201.8,-218.92 228.68,-126.34 288,-78 292.58,-74.26 297.69,-71.11 303.07,-68.43"/>
<polygon fill="midnightblue" stroke="midnightblue" points="189.06,-258.74 190.35,-269.25 195.9,-260.23 189.06,-258.74"/>
</g>
<!-- Node28 -->
<g id="node28" class="node">
<title>Node28</title>
<g id="a_node28"><a xlink:href="../../d6/d0e/classxii_qt_visual_script_window.htm" target="_top" xlink:title=" ">
<polygon fill="white" stroke="black" points="312,-0.5 312,-19.5 449,-19.5 449,-0.5 312,-0.5"/>
<text text-anchor="middle" x="380.5" y="-7.5" font-family="Helvetica,sans-Serif" font-size="10.00">xiiQtVisualScriptWindow</text>
</a>
</g>
</g>
<!-- Node1&#45;&gt;Node28 -->
<g id="edge27" class="edge">
<title>Node1&#45;&gt;Node28</title>
<path fill="none" stroke="midnightblue" d="M190.17,-259.3C195.31,-211.74 215.28,-90.05 288,-29 294.96,-23.16 303.25,-18.96 311.96,-15.97"/>
<polygon fill="midnightblue" stroke="midnightblue" points="186.67,-259.19 189.18,-269.48 193.63,-259.87 186.67,-259.19"/>
</g>
<!-- Node2 -->
<g id="node2" class="node">
<title>Node2</title>
<g id="a_node2"><a xlink:title=" ">
<polygon fill="white" stroke="#bfbfbf" points="0,-269.5 0,-288.5 87,-288.5 87,-269.5 0,-269.5"/>
<text text-anchor="middle" x="43.5" y="-276.5" font-family="Helvetica,sans-Serif" font-size="10.00">QMainWindow</text>
</a>
</g>
</g>
<!-- Node2&#45;&gt;Node1 -->
<g id="edge1" class="edge">
<title>Node2&#45;&gt;Node1</title>
<path fill="none" stroke="midnightblue" d="M97.13,-279C105.53,-279 114.3,-279 122.92,-279"/>
<polygon fill="midnightblue" stroke="midnightblue" points="97.1,-275.5 87.1,-279 97.1,-282.5 97.1,-275.5"/>
</g>
<!-- Node9 -->
<g id="node9" class="node">
<title>Node9</title>
<g id="a_node9"><a xlink:href="../../df/d23/classxii_qt_animated_mesh_asset_document_window.htm" target="_top" xlink:title=" ">
<polygon fill="white" stroke="black" points="509,-483 509,-513 700,-513 700,-483 509,-483"/>
<text text-anchor="start" x="517" y="-501" font-family="Helvetica,sans-Serif" font-size="10.00">xiiQtAnimatedMeshAssetDocument</text>
<text text-anchor="middle" x="604.5" y="-490" font-family="Helvetica,sans-Serif" font-size="10.00">Window</text>
</a>
</g>
</g>
<!-- Node8&#45;&gt;Node9 -->
<g id="edge8" class="edge">
<title>Node8&#45;&gt;Node9</title>
<path fill="none" stroke="midnightblue" d="M468.26,-338.03C469.91,-339.26 471.49,-340.58 473,-342 517.03,-383.32 466.1,-430.51 509,-473 512.86,-476.82 517.23,-480.08 521.92,-482.85"/>
<polygon fill="midnightblue" stroke="midnightblue" points="469.85,-334.9 459.51,-332.57 466.14,-340.83 469.85,-334.9"/>
</g>
<!-- Node10 -->
<g id="node10" class="node">
<title>Node10</title>
<g id="a_node10"><a xlink:href="../../df/dd8/classxii_qt_animation_clip_asset_document_window.htm" target="_top" xlink:title=" ">
<polygon fill="white" stroke="black" points="511.5,-434 511.5,-464 697.5,-464 697.5,-434 511.5,-434"/>
<text text-anchor="start" x="519.5" y="-452" font-family="Helvetica,sans-Serif" font-size="10.00">xiiQtAnimationClipAssetDocument</text>
<text text-anchor="middle" x="604.5" y="-441" font-family="Helvetica,sans-Serif" font-size="10.00">Window</text>
</a>
</g>
</g>
<!-- Node8&#45;&gt;Node10 -->
<g id="edge9" class="edge">
<title>Node8&#45;&gt;Node10</title>
<path fill="none" stroke="midnightblue" d="M466.58,-337.43C468.81,-338.83 470.96,-340.35 473,-342 503.93,-367.06 478.76,-398.12 509,-424 513.51,-427.86 518.56,-431.14 523.91,-433.91"/>
<polygon fill="midnightblue" stroke="midnightblue" points="468.05,-334.25 457.58,-332.63 464.75,-340.42 468.05,-334.25"/>
</g>
<!-- Node11 -->
<g id="node11" class="node">
<title>Node11</title>
<g id="a_node11"><a xlink:href="../../d6/dcc/classxii_qt_decal_asset_document_window.htm" target="_top" xlink:title=" ">
<polygon fill="white" stroke="black" points="512.5,-395.5 512.5,-414.5 696.5,-414.5 696.5,-395.5 512.5,-395.5"/>
<text text-anchor="middle" x="604.5" y="-402.5" font-family="Helvetica,sans-Serif" font-size="10.00">xiiQtDecalAssetDocumentWindow</text>
</a>
</g>
</g>
<!-- Node8&#45;&gt;Node11 -->
<g id="edge10" class="edge">
<title>Node8&#45;&gt;Node11</title>
<path fill="none" stroke="midnightblue" d="M461.68,-336.18C465.61,-337.89 469.41,-339.82 473,-342 494.61,-355.1 487.35,-372.97 509,-386 515.45,-389.88 522.56,-392.99 529.88,-395.47"/>
<polygon fill="midnightblue" stroke="midnightblue" points="462.9,-332.9 452.31,-332.57 460.39,-339.43 462.9,-332.9"/>
</g>
<!-- Node12 -->
<g id="node12" class="node">
<title>Node12</title>
<g id="a_node12"><a xlink:href="../../db/dd7/classxii_qt_game_object_document_window.htm" target="_top" xlink:title=" ">
<polygon fill="white" stroke="black" points="509.5,-357.5 509.5,-376.5 699.5,-376.5 699.5,-357.5 509.5,-357.5"/>
<text text-anchor="middle" x="604.5" y="-364.5" font-family="Helvetica,sans-Serif" font-size="10.00">xiiQtGameObjectDocumentWindow</text>
</a>
</g>
</g>
<!-- Node8&#45;&gt;Node12 -->
<g id="edge11" class="edge">
<title>Node8&#45;&gt;Node12</title>
<path fill="none" stroke="midnightblue" d="M439.56,-334.51C475.62,-341.65 521.41,-350.73 555.42,-357.47"/>
<polygon fill="midnightblue" stroke="midnightblue" points="440.16,-331.06 429.67,-332.55 438.8,-337.92 440.16,-331.06"/>
</g>
<!-- Node17 -->
<g id="node17" class="node">
<title>Node17</title>
<g id="a_node17"><a xlink:href="../../df/d84/classxii_qt_material_asset_document_window.htm" target="_top" xlink:title=" ">
<polygon fill="white" stroke="black" points="525.5,-308 525.5,-338 683.5,-338 683.5,-308 525.5,-308"/>
<text text-anchor="start" x="533.5" y="-326" font-family="Helvetica,sans-Serif" font-size="10.00">xiiQtMaterialAssetDocument</text>
<text text-anchor="middle" x="604.5" y="-315" font-family="Helvetica,sans-Serif" font-size="10.00">Window</text>
</a>
</g>
</g>
<!-- Node8&#45;&gt;Node17 -->
<g id="edge16" class="edge">
<title>Node8&#45;&gt;Node17</title>
<path fill="none" stroke="midnightblue" d="M471.97,-323C489.66,-323 508.08,-323 525.33,-323"/>
<polygon fill="midnightblue" stroke="midnightblue" points="471.65,-319.5 461.65,-323 471.65,-326.5 471.65,-319.5"/>
</g>
<!-- Node18 -->
<g id="node18" class="node">
<title>Node18</title>
<g id="a_node18"><a xlink:href="../../d3/dca/classxii_qt_mesh_asset_document_window.htm" target="_top" xlink:title=" ">
<polygon fill="white" stroke="black" points="513.5,-269.5 513.5,-288.5 695.5,-288.5 695.5,-269.5 513.5,-269.5"/>
<text text-anchor="middle" x="604.5" y="-276.5" font-family="Helvetica,sans-Serif" font-size="10.00">xiiQtMeshAssetDocumentWindow</text>
</a>
</g>
</g>
<!-- Node8&#45;&gt;Node18 -->
<g id="edge17" class="edge">
<title>Node8&#45;&gt;Node18</title>
<path fill="none" stroke="midnightblue" d="M439.56,-311.49C475.62,-304.35 521.41,-295.27 555.42,-288.53"/>
<polygon fill="midnightblue" stroke="midnightblue" points="438.8,-308.08 429.67,-313.45 440.16,-314.94 438.8,-308.08"/>
</g>
<!-- Node19 -->
<g id="node19" class="node">
<title>Node19</title>
<g id="a_node19"><a xlink:href="../../dd/dfe/classxii_qt_skeleton_asset_document_window.htm" target="_top" xlink:title=" ">
<polygon fill="white" stroke="black" points="525,-220 525,-250 684,-250 684,-220 525,-220"/>
<text text-anchor="start" x="533" y="-238" font-family="Helvetica,sans-Serif" font-size="10.00">xiiQtSkeletonAssetDocument</text>
<text text-anchor="middle" x="604.5" y="-227" font-family="Helvetica,sans-Serif" font-size="10.00">Window</text>
</a>
</g>
</g>
<!-- Node8&#45;&gt;Node19 -->
<g id="edge18" class="edge">
<title>Node8&#45;&gt;Node19</title>
<path fill="none" stroke="midnightblue" d="M458.99,-309.99C463.87,-307.98 468.59,-305.67 473,-303 494.32,-290.09 487.97,-273.37 509,-260 515.02,-256.18 521.6,-252.93 528.41,-250.19"/>
<polygon fill="midnightblue" stroke="midnightblue" points="457.62,-306.76 449.43,-313.48 460.02,-313.34 457.62,-306.76"/>
</g>
<!-- Node20 -->
<g id="node20" class="node">
<title>Node20</title>
<g id="a_node20"><a xlink:href="../../dd/db8/classxii_qt_texture_asset_document_window.htm" target="_top" xlink:title=" ">
<polygon fill="white" stroke="black" points="528,-171 528,-201 681,-201 681,-171 528,-171"/>
<text text-anchor="start" x="536" y="-189" font-family="Helvetica,sans-Serif" font-size="10.00">xiiQtTextureAssetDocument</text>
<text text-anchor="middle" x="604.5" y="-178" font-family="Helvetica,sans-Serif" font-size="10.00">Window</text>
</a>
</g>
</g>
<!-- Node8&#45;&gt;Node20 -->
<g id="edge19" class="edge">
<title>Node8&#45;&gt;Node20</title>
<path fill="none" stroke="midnightblue" d="M465.37,-308.58C468.05,-306.9 470.61,-305.05 473,-303 506.66,-274.17 475.83,-239.39 509,-210 514.57,-205.06 521.02,-201.11 527.88,-197.95"/>
<polygon fill="midnightblue" stroke="midnightblue" points="463.62,-305.55 456.45,-313.35 466.92,-311.72 463.62,-305.55"/>
</g>
<!-- Node21 -->
<g id="node21" class="node">
<title>Node21</title>
<g id="a_node21"><a xlink:href="../../d3/dd6/classxii_qt_texture_cube_asset_document_window.htm" target="_top" xlink:title=" ">
<polygon fill="white" stroke="black" points="515.5,-122 515.5,-152 693.5,-152 693.5,-122 515.5,-122"/>
<text text-anchor="start" x="523.5" y="-140" font-family="Helvetica,sans-Serif" font-size="10.00">xiiQtTextureCubeAssetDocument</text>
<text text-anchor="middle" x="604.5" y="-129" font-family="Helvetica,sans-Serif" font-size="10.00">Window</text>
</a>
</g>
</g>
<!-- Node8&#45;&gt;Node21 -->
<g id="edge20" class="edge">
<title>Node8&#45;&gt;Node21</title>
<path fill="none" stroke="midnightblue" d="M466.97,-308.05C469.09,-306.51 471.11,-304.83 473,-303 519.79,-257.73 462.97,-207.05 509,-161 512.35,-157.65 516.1,-154.74 520.12,-152.22"/>
<polygon fill="midnightblue" stroke="midnightblue" points="465.04,-305.12 458.33,-313.32 468.69,-311.1 465.04,-305.12"/>
</g>
<!-- Node13 -->
<g id="node13" class="node">
<title>Node13</title>
<g id="a_node13"><a xlink:href="../../d0/d8d/classxii_qt_property_anim_asset_document_window.htm" target="_top" xlink:title=" ">
<polygon fill="white" stroke="black" points="736,-374 736,-404 920,-404 920,-374 736,-374"/>
<text text-anchor="start" x="744" y="-392" font-family="Helvetica,sans-Serif" font-size="10.00">xiiQtPropertyAnimAssetDocument</text>
<text text-anchor="middle" x="828" y="-381" font-family="Helvetica,sans-Serif" font-size="10.00">Window</text>
</a>
</g>
</g>
<!-- Node12&#45;&gt;Node13 -->
<g id="edge12" class="edge">
<title>Node12&#45;&gt;Node13</title>
<path fill="none" stroke="midnightblue" d="M709.94,-377.37C718.65,-378.24 727.41,-379.11 736,-379.96"/>
<polygon fill="midnightblue" stroke="midnightblue" points="710.05,-373.87 699.76,-376.36 709.36,-380.83 710.05,-373.87"/>
</g>
<!-- Node14 -->
<g id="node14" class="node">
<title>Node14</title>
<g id="a_node14"><a xlink:href="../../dc/d3c/classxii_qt_scene_document_window_base.htm" target="_top" xlink:title=" ">
<polygon fill="white" stroke="black" points="737,-335.5 737,-354.5 919,-354.5 919,-335.5 737,-335.5"/>
<text text-anchor="middle" x="828" y="-342.5" font-family="Helvetica,sans-Serif" font-size="10.00">xiiQtSceneDocumentWindowBase</text>
</a>
</g>
</g>
<!-- Node12&#45;&gt;Node14 -->
<g id="edge13" class="edge">
<title>Node12&#45;&gt;Node14</title>
<path fill="none" stroke="midnightblue" d="M709.85,-356.64C718.82,-355.74 727.85,-354.85 736.7,-353.97"/>
<polygon fill="midnightblue" stroke="midnightblue" points="709.36,-353.17 699.76,-357.64 710.05,-360.13 709.36,-353.17"/>
</g>
<!-- Node15 -->
<g id="node15" class="node">
<title>Node15</title>
<g id="a_node15"><a xlink:href="../../d7/d61/classxii_qt_scene2_document_window.htm" target="_top" xlink:title=" ">
<polygon fill="white" stroke="black" points="956,-354.5 956,-373.5 1120,-373.5 1120,-354.5 956,-354.5"/>
<text text-anchor="middle" x="1038" y="-361.5" font-family="Helvetica,sans-Serif" font-size="10.00">xiiQtScene2DocumentWindow</text>
</a>
</g>
</g>
<!-- Node14&#45;&gt;Node15 -->
<g id="edge14" class="edge">
<title>Node14&#45;&gt;Node15</title>
<path fill="none" stroke="midnightblue" d="M929.06,-354.14C937.98,-354.96 946.94,-355.77 955.68,-356.57"/>
<polygon fill="midnightblue" stroke="midnightblue" points="929.3,-350.65 919.02,-353.22 928.66,-357.62 929.3,-350.65"/>
</g>
<!-- Node16 -->
<g id="node16" class="node">
<title>Node16</title>
<g id="a_node16"><a xlink:href="../../df/d7c/classxii_qt_scene_document_window.htm" target="_top" xlink:title=" ">
<polygon fill="white" stroke="black" points="959,-316.5 959,-335.5 1117,-335.5 1117,-316.5 959,-316.5"/>
<text text-anchor="middle" x="1038" y="-323.5" font-family="Helvetica,sans-Serif" font-size="10.00">xiiQtSceneDocumentWindow</text>
</a>
</g>
</g>
<!-- Node14&#45;&gt;Node16 -->
<g id="edge15" class="edge">
<title>Node14&#45;&gt;Node16</title>
<path fill="none" stroke="midnightblue" d="M929.03,-335.86C939.07,-334.95 949.16,-334.02 958.92,-333.13"/>
<polygon fill="midnightblue" stroke="midnightblue" points="928.66,-332.38 919.02,-336.78 929.3,-339.35 928.66,-332.38"/>
</g>
</g>
</svg>
