<?xml version="1.0" encoding="UTF-8" standalone="no"?>
<!DOCTYPE svg PUBLIC "-//W3C//DTD SVG 1.1//EN"
 "http://www.w3.org/Graphics/SVG/1.1/DTD/svg11.dtd">
<!-- Generated by graphviz version 2.43.0 (0)
 -->
<!-- Title: xiiAbstractSetProperty Pages: 1 -->
<svg width="691pt" height="297pt"
 viewBox="0.00 0.00 691.00 296.50" xmlns="http://www.w3.org/2000/svg" xmlns:xlink="http://www.w3.org/1999/xlink">
<g id="graph0" class="graph" transform="scale(1 1) rotate(0) translate(4 292.5)">
<title>xiiAbstractSetProperty</title>
<polygon fill="white" stroke="transparent" points="-4,4 -4,-292.5 687,-292.5 687,4 -4,4"/>
<!-- Node1 -->
<g id="node1" class="node">
<title>Node1</title>
<g id="a_node1"><a xlink:title="The base class for a property that represents a set of values.">
<polygon fill="#bfbfbf" stroke="black" points="146,-121 146,-140 272,-140 272,-121 146,-121"/>
<text text-anchor="middle" x="209" y="-128" font-family="Helvetica,sans-Serif" font-size="10.00">xiiAbstractSetProperty</text>
</a>
</g>
</g>
<!-- Node3 -->
<g id="node3" class="node">
<title>Node3</title>
<g id="a_node3"><a xlink:href="../../df/d18/classxii_typed_set_property.htm" target="_top" xlink:title=" ">
<polygon fill="white" stroke="black" points="308,-247 308,-288 496,-288 496,-247 308,-247"/>
<text text-anchor="start" x="316" y="-276" font-family="Helvetica,sans-Serif" font-size="10.00">xiiTypedSetProperty</text>
<text text-anchor="start" x="316" y="-265" font-family="Helvetica,sans-Serif" font-size="10.00">&lt; xiiTypeTraits&lt; xiiString</text>
<text text-anchor="middle" x="402" y="-254" font-family="Helvetica,sans-Serif" font-size="10.00">View &gt;::NonConstReferenceType &gt;</text>
</a>
</g>
</g>
<!-- Node1&#45;&gt;Node3 -->
<g id="edge2" class="edge">
<title>Node1&#45;&gt;Node3</title>
<path fill="none" stroke="midnightblue" d="M221.89,-148.43C238.48,-172.11 270.76,-213.59 308,-237.5 313.43,-240.98 319.29,-244.09 325.34,-246.86"/>
<polygon fill="midnightblue" stroke="midnightblue" points="224.67,-146.3 216.14,-140.02 218.9,-150.25 224.67,-146.3"/>
</g>
<!-- Node5 -->
<g id="node5" class="node">
<title>Node5</title>
<g id="a_node5"><a xlink:href="../../df/d18/classxii_typed_set_property.htm" target="_top" xlink:title=" ">
<polygon fill="white" stroke="black" points="320,-187 320,-228 484,-228 484,-187 320,-187"/>
<text text-anchor="start" x="328" y="-216" font-family="Helvetica,sans-Serif" font-size="10.00">xiiTypedSetProperty</text>
<text text-anchor="start" x="328" y="-205" font-family="Helvetica,sans-Serif" font-size="10.00">&lt; xiiTypeTraits&lt; Type</text>
<text text-anchor="middle" x="402" y="-194" font-family="Helvetica,sans-Serif" font-size="10.00"> &gt;::NonConstReferenceType &gt;</text>
</a>
</g>
</g>
<!-- Node1&#45;&gt;Node5 -->
<g id="edge4" class="edge">
<title>Node1&#45;&gt;Node5</title>
<path fill="none" stroke="midnightblue" d="M238.03,-144.73C257.42,-154.31 283.96,-166.89 308,-176.5 317.01,-180.1 326.61,-183.64 336.11,-186.95"/>
<polygon fill="midnightblue" stroke="midnightblue" points="239.37,-141.49 228.86,-140.16 236.25,-147.75 239.37,-141.49"/>
</g>
<!-- Node7 -->
<g id="node7" class="node">
<title>Node7</title>
<g id="a_node7"><a xlink:href="../../df/d18/classxii_typed_set_property.htm" target="_top" xlink:title=" ">
<polygon fill="white" stroke="black" points="345,-137.5 345,-167.5 459,-167.5 459,-137.5 345,-137.5"/>
<text text-anchor="start" x="353" y="-155.5" font-family="Helvetica,sans-Serif" font-size="10.00">xiiTypedSetProperty</text>
<text text-anchor="middle" x="402" y="-144.5" font-family="Helvetica,sans-Serif" font-size="10.00">&lt; xiiStringView &gt;</text>
</a>
</g>
</g>
<!-- Node1&#45;&gt;Node7 -->
<g id="edge6" class="edge">
<title>Node1&#45;&gt;Node7</title>
<path fill="none" stroke="midnightblue" d="M282.06,-138.8C302.81,-141.19 325.14,-143.76 344.79,-146.03"/>
<polygon fill="midnightblue" stroke="midnightblue" points="282.35,-135.31 272.01,-137.64 281.55,-142.26 282.35,-135.31"/>
</g>
<!-- Node9 -->
<g id="node9" class="node">
<title>Node9</title>
<g id="a_node9"><a xlink:href="../../da/dae/classxii_phantom_set_property.htm" target="_top" xlink:title=" ">
<polygon fill="white" stroke="black" points="337.5,-99 337.5,-118 466.5,-118 466.5,-99 337.5,-99"/>
<text text-anchor="middle" x="402" y="-106" font-family="Helvetica,sans-Serif" font-size="10.00">xiiPhantomSetProperty</text>
</a>
</g>
</g>
<!-- Node1&#45;&gt;Node9 -->
<g id="edge8" class="edge">
<title>Node1&#45;&gt;Node9</title>
<path fill="none" stroke="midnightblue" d="M281.98,-122.21C300.17,-120.11 319.58,-117.88 337.33,-115.83"/>
<polygon fill="midnightblue" stroke="midnightblue" points="281.55,-118.74 272.01,-123.36 282.35,-125.69 281.55,-118.74"/>
</g>
<!-- Node10 -->
<g id="node10" class="node">
<title>Node10</title>
<g id="a_node10"><a xlink:href="../../df/d18/classxii_typed_set_property.htm" target="_top" xlink:title="Do not cast into this class or any of its derived classes, use xiiAbstractSetProperty instead.">
<polygon fill="white" stroke="black" points="345,-49.5 345,-79.5 459,-79.5 459,-49.5 345,-49.5"/>
<text text-anchor="start" x="353" y="-67.5" font-family="Helvetica,sans-Serif" font-size="10.00">xiiTypedSetProperty</text>
<text text-anchor="middle" x="402" y="-56.5" font-family="Helvetica,sans-Serif" font-size="10.00">&lt; Type &gt;</text>
</a>
</g>
</g>
<!-- Node1&#45;&gt;Node10 -->
<g id="edge9" class="edge">
<title>Node1&#45;&gt;Node10</title>
<path fill="none" stroke="midnightblue" d="M239.86,-116.78C259.07,-108.26 284.71,-97.46 308,-89.5 319.71,-85.5 332.42,-81.72 344.57,-78.37"/>
<polygon fill="midnightblue" stroke="midnightblue" points="238.41,-113.6 230.72,-120.88 241.27,-119.99 238.41,-113.6"/>
</g>
<!-- Node12 -->
<g id="node12" class="node">
<title>Node12</title>
<g id="a_node12"><a xlink:href="../../db/d44/classxii_typed_set_property_3_01const_01char_01_5_01_4.htm" target="_top" xlink:title="Specialization of xiiTypedArrayProperty to retain the pointer in const char*.">
<polygon fill="white" stroke="black" points="345,-0.5 345,-30.5 459,-30.5 459,-0.5 345,-0.5"/>
<text text-anchor="start" x="353" y="-18.5" font-family="Helvetica,sans-Serif" font-size="10.00">xiiTypedSetProperty</text>
<text text-anchor="middle" x="402" y="-7.5" font-family="Helvetica,sans-Serif" font-size="10.00">&lt; const char * &gt;</text>
</a>
</g>
</g>
<!-- Node1&#45;&gt;Node12 -->
<g id="edge11" class="edge">
<title>Node1&#45;&gt;Node12</title>
<path fill="none" stroke="midnightblue" d="M224.1,-112.91C241.61,-92.25 273.42,-58.41 308,-39.5 319.26,-33.34 332.17,-28.71 344.7,-25.26"/>
<polygon fill="midnightblue" stroke="midnightblue" points="221.19,-110.94 217.51,-120.88 226.58,-115.41 221.19,-110.94"/>
</g>
<!-- Node2 -->
<g id="node2" class="node">
<title>Node2</title>
<g id="a_node2"><a xlink:href="../../da/d25/classxii_abstract_property.htm" target="_top" xlink:title="This is the base interface for all properties in the reflection system. It provides enough informatio...">
<polygon fill="white" stroke="black" points="0,-121 0,-140 110,-140 110,-121 0,-121"/>
<text text-anchor="middle" x="55" y="-128" font-family="Helvetica,sans-Serif" font-size="10.00">xiiAbstractProperty</text>
</a>
</g>
</g>
<!-- Node2&#45;&gt;Node1 -->
<g id="edge1" class="edge">
<title>Node2&#45;&gt;Node1</title>
<path fill="none" stroke="midnightblue" d="M120.24,-130.5C128.72,-130.5 137.41,-130.5 145.86,-130.5"/>
<polygon fill="midnightblue" stroke="midnightblue" points="120.02,-127 110.02,-130.5 120.02,-134 120.02,-127"/>
</g>
<!-- Node4 -->
<g id="node4" class="node">
<title>Node4</title>
<g id="a_node4"><a xlink:href="../../dc/d4a/classxii_member_set_property_3_01_class_00_01xii_tag_set_00_01xii_string_view_01_4.htm" target="_top" xlink:title=" ">
<polygon fill="white" stroke="black" points="532,-247 532,-288 683,-288 683,-247 532,-247"/>
<text text-anchor="start" x="540" y="-276" font-family="Helvetica,sans-Serif" font-size="10.00">xiiMemberSetProperty</text>
<text text-anchor="start" x="540" y="-265" font-family="Helvetica,sans-Serif" font-size="10.00">&lt; Class, xiiTagSet, xiiString</text>
<text text-anchor="middle" x="607.5" y="-254" font-family="Helvetica,sans-Serif" font-size="10.00">View &gt;</text>
</a>
</g>
</g>
<!-- Node3&#45;&gt;Node4 -->
<g id="edge3" class="edge">
<title>Node3&#45;&gt;Node4</title>
<path fill="none" stroke="midnightblue" d="M506.2,-267.5C514.81,-267.5 523.39,-267.5 531.72,-267.5"/>
<polygon fill="midnightblue" stroke="midnightblue" points="506.11,-264 496.11,-267.5 506.11,-271 506.11,-264"/>
</g>
<!-- Node6 -->
<g id="node6" class="node">
<title>Node6</title>
<g id="a_node6"><a xlink:href="../../de/dd3/classxii_member_set_property.htm" target="_top" xlink:title=" ">
<polygon fill="white" stroke="black" points="534,-192.5 534,-222.5 681,-222.5 681,-192.5 534,-192.5"/>
<text text-anchor="start" x="542" y="-210.5" font-family="Helvetica,sans-Serif" font-size="10.00">xiiMemberSetProperty</text>
<text text-anchor="middle" x="607.5" y="-199.5" font-family="Helvetica,sans-Serif" font-size="10.00">&lt; Class, Container, Type &gt;</text>
</a>
</g>
</g>
<!-- Node5&#45;&gt;Node6 -->
<g id="edge5" class="edge">
<title>Node5&#45;&gt;Node6</title>
<path fill="none" stroke="midnightblue" d="M494.09,-207.5C507.34,-207.5 520.84,-207.5 533.67,-207.5"/>
<polygon fill="midnightblue" stroke="midnightblue" points="494.01,-204 484.01,-207.5 494.01,-211 494.01,-204"/>
</g>
<!-- Node8 -->
<g id="node8" class="node">
<title>Node8</title>
<g id="a_node8"><a xlink:href="../../d5/d00/classxii_accessor_set_property_3_01_class_00_01xii_string_view_00_01const_01xii_tag_set_01_6_01_4.htm" target="_top" xlink:title=" ">
<polygon fill="white" stroke="black" points="543,-132 543,-173 672,-173 672,-132 543,-132"/>
<text text-anchor="start" x="551" y="-161" font-family="Helvetica,sans-Serif" font-size="10.00">xiiAccessorSetProperty</text>
<text text-anchor="start" x="551" y="-150" font-family="Helvetica,sans-Serif" font-size="10.00">&lt; Class, xiiStringView,</text>
<text text-anchor="middle" x="607.5" y="-139" font-family="Helvetica,sans-Serif" font-size="10.00"> const xiiTagSet &amp; &gt;</text>
</a>
</g>
</g>
<!-- Node7&#45;&gt;Node8 -->
<g id="edge7" class="edge">
<title>Node7&#45;&gt;Node8</title>
<path fill="none" stroke="midnightblue" d="M469.38,-152.5C492.91,-152.5 519.32,-152.5 542.64,-152.5"/>
<polygon fill="midnightblue" stroke="midnightblue" points="469.15,-149 459.15,-152.5 469.15,-156 469.15,-149"/>
</g>
<!-- Node11 -->
<g id="node11" class="node">
<title>Node11</title>
<g id="a_node11"><a xlink:href="../../d4/d4e/classxii_accessor_set_property.htm" target="_top" xlink:title=" ">
<polygon fill="white" stroke="black" points="534,-49.5 534,-79.5 681,-79.5 681,-49.5 534,-49.5"/>
<text text-anchor="start" x="542" y="-67.5" font-family="Helvetica,sans-Serif" font-size="10.00">xiiAccessorSetProperty</text>
<text text-anchor="middle" x="607.5" y="-56.5" font-family="Helvetica,sans-Serif" font-size="10.00">&lt; Class, Type, Container &gt;</text>
</a>
</g>
</g>
<!-- Node10&#45;&gt;Node11 -->
<g id="edge10" class="edge">
<title>Node10&#45;&gt;Node11</title>
<path fill="none" stroke="midnightblue" d="M469.37,-64.5C489.96,-64.5 512.75,-64.5 533.75,-64.5"/>
<polygon fill="midnightblue" stroke="midnightblue" points="469.15,-61 459.15,-64.5 469.15,-68 469.15,-61"/>
</g>
</g>
</svg>
