<?xml version="1.0" encoding="UTF-8" standalone="no"?>
<!DOCTYPE svg PUBLIC "-//W3C//DTD SVG 1.1//EN"
 "http://www.w3.org/Graphics/SVG/1.1/DTD/svg11.dtd">
<!-- Generated by graphviz version 2.43.0 (0)
 -->
<!-- Title: xiiAbstractSetProperty Pages: 1 -->
<svg width="691pt" height="296pt"
 viewBox="0.00 0.00 691.00 295.50" xmlns="http://www.w3.org/2000/svg" xmlns:xlink="http://www.w3.org/1999/xlink">
<g id="graph0" class="graph" transform="scale(1 1) rotate(0) translate(4 291.5)">
<title>xiiAbstractSetProperty</title>
<!-- Node1 -->
<g id="Node000001" class="node">
<title>Node1</title>
<g id="a_Node000001"><a xlink:title="The base class for a property that represents a set of values.">
<polygon fill="#999999" stroke="#666666" points="272,-139.5 146,-139.5 146,-120.5 272,-120.5 272,-139.5"/>
<text text-anchor="middle" x="209" y="-127.5" font-family="Helvetica,sans-Serif" font-size="10.00">xiiAbstractSetProperty</text>
</a>
</g>
</g>
<!-- Node3 -->
<g id="Node000003" class="node">
<title>Node3</title>
<g id="a_Node000003"><a xlink:href="../../df/d18/classxii_typed_set_property.htm" target="_top" xlink:title=" ">
<polygon fill="white" stroke="#666666" points="459,-282 345,-282 345,-252 459,-252 459,-282"/>
<text text-anchor="start" x="353" y="-270" font-family="Helvetica,sans-Serif" font-size="10.00">xiiTypedSetProperty</text>
<text text-anchor="middle" x="402" y="-259" font-family="Helvetica,sans-Serif" font-size="10.00">&lt; xiiStringView &gt;</text>
</a>
</g>
</g>
<!-- Node1&#45;&gt;Node3 -->
<g id="edge2_Node000001_Node000003" class="edge">
<title>Node1&#45;&gt;Node3</title>
<g id="a_edge2_Node000001_Node000003"><a xlink:title=" ">
<path fill="none" stroke="#63b8ff" d="M220.74,-148.2C236.59,-173.42 268.65,-218.63 308,-243 319.06,-249.85 332.01,-254.75 344.68,-258.26"/>
<polygon fill="#63b8ff" stroke="#63b8ff" points="223.69,-146.31 215.48,-139.6 217.71,-149.96 223.69,-146.31"/>
</a>
</g>
</g>
<!-- Node5 -->
<g id="Node000005" class="node">
<title>Node5</title>
<g id="a_Node000005"><a xlink:href="../../df/d18/classxii_typed_set_property.htm" target="_top" xlink:title=" ">
<polygon fill="white" stroke="#666666" points="484,-233.5 320,-233.5 320,-192.5 484,-192.5 484,-233.5"/>
<text text-anchor="start" x="328" y="-221.5" font-family="Helvetica,sans-Serif" font-size="10.00">xiiTypedSetProperty</text>
<text text-anchor="start" x="328" y="-210.5" font-family="Helvetica,sans-Serif" font-size="10.00">&lt; xiiTypeTraits&lt; Type</text>
<text text-anchor="middle" x="402" y="-199.5" font-family="Helvetica,sans-Serif" font-size="10.00"> &gt;::NonConstReferenceType &gt;</text>
</a>
</g>
</g>
<!-- Node1&#45;&gt;Node5 -->
<g id="edge4_Node000001_Node000005" class="edge">
<title>Node1&#45;&gt;Node5</title>
<g id="a_edge4_Node000001_Node000005"><a xlink:title=" ">
<path fill="none" stroke="#63b8ff" d="M233.9,-144.95C253.34,-156.67 281.74,-172.81 308,-184 315,-186.98 322.41,-189.82 329.88,-192.46"/>
<polygon fill="#63b8ff" stroke="#63b8ff" points="235.49,-141.82 225.13,-139.6 231.84,-147.8 235.49,-141.82"/>
</a>
</g>
</g>
<!-- Node7 -->
<g id="Node000007" class="node">
<title>Node7</title>
<g id="a_Node000007"><a xlink:href="../../df/d18/classxii_typed_set_property.htm" target="_top" xlink:title=" ">
<polygon fill="white" stroke="#666666" points="496,-174.5 308,-174.5 308,-133.5 496,-133.5 496,-174.5"/>
<text text-anchor="start" x="316" y="-162.5" font-family="Helvetica,sans-Serif" font-size="10.00">xiiTypedSetProperty</text>
<text text-anchor="start" x="316" y="-151.5" font-family="Helvetica,sans-Serif" font-size="10.00">&lt; xiiTypeTraits&lt; xiiString</text>
<text text-anchor="middle" x="402" y="-140.5" font-family="Helvetica,sans-Serif" font-size="10.00">View &gt;::NonConstReferenceType &gt;</text>
</a>
</g>
</g>
<!-- Node1&#45;&gt;Node7 -->
<g id="edge6_Node000001_Node000007" class="edge">
<title>Node1&#45;&gt;Node7</title>
<g id="a_edge6_Node000001_Node000007"><a xlink:title=" ">
<path fill="none" stroke="#63b8ff" d="M282.1,-139.06C290.48,-140.11 299.12,-141.2 307.74,-142.28"/>
<polygon fill="#63b8ff" stroke="#63b8ff" points="282.37,-135.57 272.01,-137.79 281.5,-142.51 282.37,-135.57"/>
</a>
</g>
</g>
<!-- Node9 -->
<g id="Node000009" class="node">
<title>Node9</title>
<g id="a_Node000009"><a xlink:href="../../da/dae/classxii_phantom_set_property.htm" target="_top" xlink:title=" ">
<polygon fill="white" stroke="#bfbfbf" points="466.5,-115.5 337.5,-115.5 337.5,-96.5 466.5,-96.5 466.5,-115.5"/>
<text text-anchor="middle" x="402" y="-103.5" font-family="Helvetica,sans-Serif" font-size="10.00">xiiPhantomSetProperty</text>
</a>
</g>
</g>
<!-- Node1&#45;&gt;Node9 -->
<g id="edge8_Node000001_Node000009" class="edge">
<title>Node1&#45;&gt;Node9</title>
<g id="a_edge8_Node000001_Node000009"><a xlink:title=" ">
<path fill="none" stroke="#63b8ff" d="M281.98,-120.96C300.17,-118.67 319.58,-116.23 337.33,-114"/>
<polygon fill="#63b8ff" stroke="#63b8ff" points="281.5,-117.49 272.01,-122.21 282.37,-124.43 281.5,-117.49"/>
</a>
</g>
</g>
<!-- Node10 -->
<g id="Node000010" class="node">
<title>Node10</title>
<g id="a_Node000010"><a xlink:href="../../df/d18/classxii_typed_set_property.htm" target="_top" xlink:title="Do not cast into this class or any of its derived classes, use xiiAbstractSetProperty instead.">
<polygon fill="white" stroke="#666666" points="459,-78 345,-78 345,-48 459,-48 459,-78"/>
<text text-anchor="start" x="353" y="-66" font-family="Helvetica,sans-Serif" font-size="10.00">xiiTypedSetProperty</text>
<text text-anchor="middle" x="402" y="-55" font-family="Helvetica,sans-Serif" font-size="10.00">&lt; Type &gt;</text>
</a>
</g>
</g>
<!-- Node1&#45;&gt;Node10 -->
<g id="edge9_Node000001_Node000010" class="edge">
<title>Node1&#45;&gt;Node10</title>
<g id="a_edge9_Node000001_Node000010"><a xlink:title=" ">
<path fill="none" stroke="#63b8ff" d="M238.3,-116.13C257.62,-107.03 283.97,-95.31 308,-87 319.82,-82.91 332.7,-79.16 344.99,-75.9"/>
<polygon fill="#63b8ff" stroke="#63b8ff" points="236.67,-113.03 229.16,-120.49 239.69,-119.35 236.67,-113.03"/>
</a>
</g>
</g>
<!-- Node12 -->
<g id="Node000012" class="node">
<title>Node12</title>
<g id="a_Node000012"><a xlink:href="../../db/d44/classxii_typed_set_property_3_01const_01char_01_5_01_4.htm" target="_top" xlink:title="Specialization of xiiTypedArrayProperty to retain the pointer in const char*.">
<polygon fill="white" stroke="#666666" points="459,-30 345,-30 345,0 459,0 459,-30"/>
<text text-anchor="start" x="353" y="-18" font-family="Helvetica,sans-Serif" font-size="10.00">xiiTypedSetProperty</text>
<text text-anchor="middle" x="402" y="-7" font-family="Helvetica,sans-Serif" font-size="10.00">&lt; const char * &gt;</text>
</a>
</g>
</g>
<!-- Node1&#45;&gt;Node12 -->
<g id="edge11_Node000001_Node000012" class="edge">
<title>Node1&#45;&gt;Node12</title>
<g id="a_edge11_Node000001_Node000012"><a xlink:title=" ">
<path fill="none" stroke="#63b8ff" d="M224.1,-112.41C241.61,-91.75 273.42,-57.91 308,-39 319.26,-32.84 332.17,-28.21 344.7,-24.76"/>
<polygon fill="#63b8ff" stroke="#63b8ff" points="221.19,-110.44 217.51,-120.38 226.58,-114.91 221.19,-110.44"/>
</a>
</g>
</g>
<!-- Node2 -->
<g id="Node000002" class="node">
<title>Node2</title>
<g id="a_Node000002"><a xlink:href="../../da/d25/classxii_abstract_property.htm" target="_top" xlink:title="This is the base interface for all properties in the reflection system. It provides enough informatio...">
<polygon fill="white" stroke="#666666" points="110,-139.5 0,-139.5 0,-120.5 110,-120.5 110,-139.5"/>
<text text-anchor="middle" x="55" y="-127.5" font-family="Helvetica,sans-Serif" font-size="10.00">xiiAbstractProperty</text>
</a>
</g>
</g>
<!-- Node2&#45;&gt;Node1 -->
<g id="edge1_Node000001_Node000002" class="edge">
<title>Node2&#45;&gt;Node1</title>
<g id="a_edge1_Node000001_Node000002"><a xlink:title=" ">
<path fill="none" stroke="#63b8ff" d="M120.24,-130C128.72,-130 137.41,-130 145.86,-130"/>
<polygon fill="#63b8ff" stroke="#63b8ff" points="120.02,-126.5 110.02,-130 120.02,-133.5 120.02,-126.5"/>
</a>
</g>
</g>
<!-- Node4 -->
<g id="Node000004" class="node">
<title>Node4</title>
<g id="a_Node000004"><a xlink:href="../../d5/d00/classxii_accessor_set_property_3_01_class_00_01xii_string_view_00_01const_01xii_tag_set_01_6_01_4.htm" target="_top" xlink:title=" ">
<polygon fill="white" stroke="#bfbfbf" points="672,-287.5 543,-287.5 543,-246.5 672,-246.5 672,-287.5"/>
<text text-anchor="start" x="551" y="-275.5" font-family="Helvetica,sans-Serif" font-size="10.00">xiiAccessorSetProperty</text>
<text text-anchor="start" x="551" y="-264.5" font-family="Helvetica,sans-Serif" font-size="10.00">&lt; Class, xiiStringView,</text>
<text text-anchor="middle" x="607.5" y="-253.5" font-family="Helvetica,sans-Serif" font-size="10.00"> const xiiTagSet &amp; &gt;</text>
</a>
</g>
</g>
<!-- Node3&#45;&gt;Node4 -->
<g id="edge3_Node000003_Node000004" class="edge">
<title>Node3&#45;&gt;Node4</title>
<g id="a_edge3_Node000003_Node000004"><a xlink:title=" ">
<path fill="none" stroke="#63b8ff" d="M469.38,-267C492.91,-267 519.32,-267 542.64,-267"/>
<polygon fill="#63b8ff" stroke="#63b8ff" points="469.15,-263.5 459.15,-267 469.15,-270.5 469.15,-263.5"/>
</a>
</g>
</g>
<!-- Node6 -->
<g id="Node000006" class="node">
<title>Node6</title>
<g id="a_Node000006"><a xlink:href="../../de/dd3/classxii_member_set_property.htm" target="_top" xlink:title=" ">
<polygon fill="white" stroke="#bfbfbf" points="681,-228 534,-228 534,-198 681,-198 681,-228"/>
<text text-anchor="start" x="542" y="-216" font-family="Helvetica,sans-Serif" font-size="10.00">xiiMemberSetProperty</text>
<text text-anchor="middle" x="607.5" y="-205" font-family="Helvetica,sans-Serif" font-size="10.00">&lt; Class, Container, Type &gt;</text>
</a>
</g>
</g>
<!-- Node5&#45;&gt;Node6 -->
<g id="edge5_Node000005_Node000006" class="edge">
<title>Node5&#45;&gt;Node6</title>
<g id="a_edge5_Node000005_Node000006"><a xlink:title=" ">
<path fill="none" stroke="#63b8ff" d="M494.09,-213C507.34,-213 520.84,-213 533.67,-213"/>
<polygon fill="#63b8ff" stroke="#63b8ff" points="494.01,-209.5 484.01,-213 494.01,-216.5 494.01,-209.5"/>
</a>
</g>
</g>
<!-- Node8 -->
<g id="Node000008" class="node">
<title>Node8</title>
<g id="a_Node000008"><a xlink:href="../../dc/d4a/classxii_member_set_property_3_01_class_00_01xii_tag_set_00_01xii_string_view_01_4.htm" target="_top" xlink:title=" ">
<polygon fill="white" stroke="#bfbfbf" points="683,-174.5 532,-174.5 532,-133.5 683,-133.5 683,-174.5"/>
<text text-anchor="start" x="540" y="-162.5" font-family="Helvetica,sans-Serif" font-size="10.00">xiiMemberSetProperty</text>
<text text-anchor="start" x="540" y="-151.5" font-family="Helvetica,sans-Serif" font-size="10.00">&lt; Class, xiiTagSet, xiiString</text>
<text text-anchor="middle" x="607.5" y="-140.5" font-family="Helvetica,sans-Serif" font-size="10.00">View &gt;</text>
</a>
</g>
</g>
<!-- Node7&#45;&gt;Node8 -->
<g id="edge7_Node000007_Node000008" class="edge">
<title>Node7&#45;&gt;Node8</title>
<g id="a_edge7_Node000007_Node000008"><a xlink:title=" ">
<path fill="none" stroke="#63b8ff" d="M506.2,-154C514.81,-154 523.39,-154 531.72,-154"/>
<polygon fill="#63b8ff" stroke="#63b8ff" points="506.11,-150.5 496.11,-154 506.11,-157.5 506.11,-150.5"/>
</a>
</g>
</g>
<!-- Node11 -->
<g id="Node000011" class="node">
<title>Node11</title>
<g id="a_Node000011"><a xlink:href="../../d4/d4e/classxii_accessor_set_property.htm" target="_top" xlink:title=" ">
<polygon fill="white" stroke="#bfbfbf" points="681,-78 534,-78 534,-48 681,-48 681,-78"/>
<text text-anchor="start" x="542" y="-66" font-family="Helvetica,sans-Serif" font-size="10.00">xiiAccessorSetProperty</text>
<text text-anchor="middle" x="607.5" y="-55" font-family="Helvetica,sans-Serif" font-size="10.00">&lt; Class, Type, Container &gt;</text>
</a>
</g>
</g>
<!-- Node10&#45;&gt;Node11 -->
<g id="edge10_Node000010_Node000011" class="edge">
<title>Node10&#45;&gt;Node11</title>
<g id="a_edge10_Node000010_Node000011"><a xlink:title=" ">
<path fill="none" stroke="#63b8ff" d="M469.37,-63C489.96,-63 512.75,-63 533.75,-63"/>
<polygon fill="#63b8ff" stroke="#63b8ff" points="469.15,-59.5 459.15,-63 469.15,-66.5 469.15,-59.5"/>
</a>
</g>
</g>
</g>
</svg>
