<?xml version="1.0" encoding="UTF-8" standalone="no"?>
<!DOCTYPE svg PUBLIC "-//W3C//DTD SVG 1.1//EN"
 "http://www.w3.org/Graphics/SVG/1.1/DTD/svg11.dtd">
<!-- Generated by graphviz version 2.43.0 (0)
 -->
<!-- Title: xiiQtButtonProxy Pages: 1 -->
<svg width="108pt" height="192pt"
 viewBox="0.00 0.00 108.00 192.00" xmlns="http://www.w3.org/2000/svg" xmlns:xlink="http://www.w3.org/1999/xlink">
<g id="graph0" class="graph" transform="scale(1 1) rotate(0) translate(4 188)">
<title>xiiQtButtonProxy</title>
<!-- Node1 -->
<g id="Node000001" class="node">
<title>Node1</title>
<g id="a_Node000001"><a xlink:title=" ">
<polygon fill="#999999" stroke="#666666" points="100,-19 0,-19 0,0 100,0 100,-19"/>
<text text-anchor="middle" x="50" y="-7" font-family="Helvetica,sans-Serif" font-size="10.00">xiiQtButtonProxy</text>
</a>
</g>
</g>
<!-- Node2 -->
<g id="Node000002" class="node">
<title>Node2</title>
<g id="a_Node000002"><a xlink:href="../../d9/d4f/classxii_qt_action_proxy.html" target="_top" xlink:title=" ">
<polygon fill="white" stroke="#bfbfbf" points="99,-74 1,-74 1,-55 99,-55 99,-74"/>
<text text-anchor="middle" x="50" y="-62" font-family="Helvetica,sans-Serif" font-size="10.00">xiiQtActionProxy</text>
</a>
</g>
</g>
<!-- Node2&#45;&gt;Node1 -->
<g id="edge1_Node000001_Node000002" class="edge">
<title>Node2&#45;&gt;Node1</title>
<g id="a_edge1_Node000001_Node000002"><a xlink:title=" ">
<path fill="none" stroke="#63b8ff" d="M50,-44.66C50,-35.93 50,-25.99 50,-19.09"/>
<polygon fill="#63b8ff" stroke="#63b8ff" points="46.5,-44.75 50,-54.75 53.5,-44.75 46.5,-44.75"/>
</a>
</g>
</g>
<!-- Node3 -->
<g id="Node000003" class="node">
<title>Node3</title>
<g id="a_Node000003"><a xlink:href="../../d7/da8/classxii_qt_proxy.html" target="_top" xlink:title="Glue class that maps xiiActions to QActions. QActions are only created if the xiiAction is actually m...">
<polygon fill="white" stroke="#666666" points="84,-129 16,-129 16,-110 84,-110 84,-129"/>
<text text-anchor="middle" x="50" y="-117" font-family="Helvetica,sans-Serif" font-size="10.00">xiiQtProxy</text>
</a>
</g>
</g>
<!-- Node3&#45;&gt;Node2 -->
<g id="edge2_Node000002_Node000003" class="edge">
<title>Node3&#45;&gt;Node2</title>
<g id="a_edge2_Node000002_Node000003"><a xlink:title=" ">
<path fill="none" stroke="#63b8ff" d="M50,-99.66C50,-90.93 50,-80.99 50,-74.09"/>
<polygon fill="#63b8ff" stroke="#63b8ff" points="46.5,-99.75 50,-109.75 53.5,-99.75 46.5,-99.75"/>
</a>
</g>
</g>
<!-- Node4 -->
<g id="Node000004" class="node">
<title>Node4</title>
<g id="a_Node000004"><a xlink:title=" ">
<polygon fill="white" stroke="#bfbfbf" points="78,-184 22,-184 22,-165 78,-165 78,-184"/>
<text text-anchor="middle" x="50" y="-172" font-family="Helvetica,sans-Serif" font-size="10.00">QObject</text>
</a>
</g>
</g>
<!-- Node4&#45;&gt;Node3 -->
<g id="edge3_Node000003_Node000004" class="edge">
<title>Node4&#45;&gt;Node3</title>
<g id="a_edge3_Node000003_Node000004"><a xlink:title=" ">
<path fill="none" stroke="#63b8ff" d="M50,-154.66C50,-145.93 50,-135.99 50,-129.09"/>
<polygon fill="#63b8ff" stroke="#63b8ff" points="46.5,-154.75 50,-164.75 53.5,-154.75 46.5,-154.75"/>
</a>
</g>
</g>
</g>
</svg>
