<?xml version="1.0" encoding="UTF-8" standalone="no"?>
<!DOCTYPE svg PUBLIC "-//W3C//DTD SVG 1.1//EN"
 "http://www.w3.org/Graphics/SVG/1.1/DTD/svg11.dtd">
<!-- Generated by graphviz version 2.43.0 (0)
 -->
<!-- Title: xiiQtGameObjectViewWidget Pages: 1 -->
<svg width="167pt" height="196pt"
 viewBox="0.00 0.00 167.00 196.00" xmlns="http://www.w3.org/2000/svg" xmlns:xlink="http://www.w3.org/1999/xlink">
<g id="graph0" class="graph" transform="scale(1 1) rotate(0) translate(4 192)">
<title>xiiQtGameObjectViewWidget</title>
<polygon fill="white" stroke="transparent" points="-4,4 -4,-192 163,-192 163,4 -4,4"/>
<!-- Node1 -->
<g id="node1" class="node">
<title>Node1</title>
<g id="a_node1"><a xlink:title=" ">
<polygon fill="#bfbfbf" stroke="black" points="0,-56.5 0,-75.5 159,-75.5 159,-56.5 0,-56.5"/>
<text text-anchor="middle" x="79.5" y="-63.5" font-family="Helvetica,sans-Serif" font-size="10.00">xiiQtGameObjectViewWidget</text>
</a>
</g>
</g>
<!-- Node4 -->
<g id="node4" class="node">
<title>Node4</title>
<g id="a_node4"><a xlink:href="../../d1/db1/classxii_qt_scene_view_widget.htm" target="_top" xlink:title=" ">
<polygon fill="white" stroke="black" points="15.5,-0.5 15.5,-19.5 143.5,-19.5 143.5,-0.5 15.5,-0.5"/>
<text text-anchor="middle" x="79.5" y="-7.5" font-family="Helvetica,sans-Serif" font-size="10.00">xiiQtSceneViewWidget</text>
</a>
</g>
</g>
<!-- Node1&#45;&gt;Node4 -->
<g id="edge3" class="edge">
<title>Node1&#45;&gt;Node4</title>
<path fill="none" stroke="midnightblue" d="M79.5,-45.8C79.5,-36.91 79.5,-26.78 79.5,-19.75"/>
<polygon fill="midnightblue" stroke="midnightblue" points="76,-46.08 79.5,-56.08 83,-46.08 76,-46.08"/>
</g>
<!-- Node2 -->
<g id="node2" class="node">
<title>Node2</title>
<g id="a_node2"><a xlink:href="../../d3/d93/classxii_qt_engine_view_widget.htm" target="_top" xlink:title="Base class for views that show engine output.">
<polygon fill="white" stroke="black" points="14,-112.5 14,-131.5 145,-131.5 145,-112.5 14,-112.5"/>
<text text-anchor="middle" x="79.5" y="-119.5" font-family="Helvetica,sans-Serif" font-size="10.00">xiiQtEngineViewWidget</text>
</a>
</g>
</g>
<!-- Node2&#45;&gt;Node1 -->
<g id="edge1" class="edge">
<title>Node2&#45;&gt;Node1</title>
<path fill="none" stroke="midnightblue" d="M79.5,-101.8C79.5,-92.91 79.5,-82.78 79.5,-75.75"/>
<polygon fill="midnightblue" stroke="midnightblue" points="76,-102.08 79.5,-112.08 83,-102.08 76,-102.08"/>
</g>
<!-- Node3 -->
<g id="node3" class="node">
<title>Node3</title>
<g id="a_node3"><a xlink:title=" ">
<polygon fill="white" stroke="#bfbfbf" points="50,-168.5 50,-187.5 109,-187.5 109,-168.5 50,-168.5"/>
<text text-anchor="middle" x="79.5" y="-175.5" font-family="Helvetica,sans-Serif" font-size="10.00">QWidget</text>
</a>
</g>
</g>
<!-- Node3&#45;&gt;Node2 -->
<g id="edge2" class="edge">
<title>Node3&#45;&gt;Node2</title>
<path fill="none" stroke="midnightblue" d="M79.5,-157.8C79.5,-148.91 79.5,-138.78 79.5,-131.75"/>
<polygon fill="midnightblue" stroke="midnightblue" points="76,-158.08 79.5,-168.08 83,-158.08 76,-158.08"/>
</g>
</g>
</svg>
