<?xml version="1.0" encoding="UTF-8" standalone="no"?>
<!DOCTYPE svg PUBLIC "-//W3C//DTD SVG 1.1//EN"
 "http://www.w3.org/Graphics/SVG/1.1/DTD/svg11.dtd">
<!-- Generated by graphviz version 2.43.0 (0)
 -->
<!-- Title: xiiPropertyAnimComponent::Binding Pages: 1 -->
<svg width="536pt" height="110pt"
 viewBox="0.00 0.00 536.00 110.00" xmlns="http://www.w3.org/2000/svg" xmlns:xlink="http://www.w3.org/1999/xlink">
<g id="graph0" class="graph" transform="scale(1 1) rotate(0) translate(4 106)">
<title>xiiPropertyAnimComponent::Binding</title>
<!-- Node1 -->
<g id="Node000001" class="node">
<title>Node1</title>
<g id="a_Node000001"><a xlink:title=" ">
<polygon fill="#999999" stroke="#666666" points="152,-78 0,-78 0,-48 152,-48 152,-78"/>
<text text-anchor="start" x="8" y="-66" font-family="Helvetica,sans-Serif" font-size="10.00">xiiPropertyAnimComponent</text>
<text text-anchor="middle" x="76" y="-55" font-family="Helvetica,sans-Serif" font-size="10.00">::Binding</text>
</a>
</g>
</g>
<!-- Node2 -->
<g id="Node000002" class="node">
<title>Node2</title>
<g id="a_Node000002"><a xlink:href="../../d0/d38/structxii_property_anim_component_1_1_color_binding.htm" target="_top" xlink:title=" ">
<polygon fill="white" stroke="#bfbfbf" points="340,-102 188,-102 188,-72 340,-72 340,-102"/>
<text text-anchor="start" x="196" y="-90" font-family="Helvetica,sans-Serif" font-size="10.00">xiiPropertyAnimComponent</text>
<text text-anchor="middle" x="264" y="-79" font-family="Helvetica,sans-Serif" font-size="10.00">::ColorBinding</text>
</a>
</g>
</g>
<!-- Node1&#45;&gt;Node2 -->
<g id="edge1_Node000001_Node000002" class="edge">
<title>Node1&#45;&gt;Node2</title>
<g id="a_edge1_Node000001_Node000002"><a xlink:title=" ">
<path fill="none" stroke="#63b8ff" d="M162.15,-73.99C170.74,-75.1 179.43,-76.22 187.9,-77.31"/>
<polygon fill="#63b8ff" stroke="#63b8ff" points="162.48,-70.5 152.12,-72.69 161.59,-77.44 162.48,-70.5"/>
</a>
</g>
</g>
<!-- Node3 -->
<g id="Node000003" class="node">
<title>Node3</title>
<g id="a_Node000003"><a xlink:href="../../d3/dae/structxii_property_anim_component_1_1_float_binding.htm" target="_top" xlink:title=" ">
<polygon fill="white" stroke="#bfbfbf" points="340,-54 188,-54 188,-24 340,-24 340,-54"/>
<text text-anchor="start" x="196" y="-42" font-family="Helvetica,sans-Serif" font-size="10.00">xiiPropertyAnimComponent</text>
<text text-anchor="middle" x="264" y="-31" font-family="Helvetica,sans-Serif" font-size="10.00">::FloatBinding</text>
</a>
</g>
</g>
<!-- Node1&#45;&gt;Node3 -->
<g id="edge2_Node000001_Node000003" class="edge">
<title>Node1&#45;&gt;Node3</title>
<g id="a_edge2_Node000001_Node000003"><a xlink:title=" ">
<path fill="none" stroke="#63b8ff" d="M162.15,-52.01C170.74,-50.9 179.43,-49.78 187.9,-48.69"/>
<polygon fill="#63b8ff" stroke="#63b8ff" points="161.59,-48.56 152.12,-53.31 162.48,-55.5 161.59,-48.56"/>
</a>
</g>
</g>
<!-- Node4 -->
<g id="Node000004" class="node">
<title>Node4</title>
<g id="a_Node000004"><a xlink:href="../../d3/dc4/structxii_property_anim_component_1_1_component_float_binding.htm" target="_top" xlink:title=" ">
<polygon fill="white" stroke="#bfbfbf" points="528,-78 376,-78 376,-48 528,-48 528,-78"/>
<text text-anchor="start" x="384" y="-66" font-family="Helvetica,sans-Serif" font-size="10.00">xiiPropertyAnimComponent</text>
<text text-anchor="middle" x="452" y="-55" font-family="Helvetica,sans-Serif" font-size="10.00">::ComponentFloatBinding</text>
</a>
</g>
</g>
<!-- Node3&#45;&gt;Node4 -->
<g id="edge3_Node000003_Node000004" class="edge">
<title>Node3&#45;&gt;Node4</title>
<g id="a_edge3_Node000003_Node000004"><a xlink:title=" ">
<path fill="none" stroke="#63b8ff" d="M350.15,-49.99C358.74,-51.1 367.43,-52.22 375.9,-53.31"/>
<polygon fill="#63b8ff" stroke="#63b8ff" points="350.48,-46.5 340.12,-48.69 349.59,-53.44 350.48,-46.5"/>
</a>
</g>
</g>
<!-- Node5 -->
<g id="Node000005" class="node">
<title>Node5</title>
<g id="a_Node000005"><a xlink:href="../../d5/d48/structxii_property_anim_component_1_1_game_object_binding.htm" target="_top" xlink:title=" ">
<polygon fill="white" stroke="#bfbfbf" points="528,-30 376,-30 376,0 528,0 528,-30"/>
<text text-anchor="start" x="384" y="-18" font-family="Helvetica,sans-Serif" font-size="10.00">xiiPropertyAnimComponent</text>
<text text-anchor="middle" x="452" y="-7" font-family="Helvetica,sans-Serif" font-size="10.00">::GameObjectBinding</text>
</a>
</g>
</g>
<!-- Node3&#45;&gt;Node5 -->
<g id="edge4_Node000003_Node000005" class="edge">
<title>Node3&#45;&gt;Node5</title>
<g id="a_edge4_Node000003_Node000005"><a xlink:title=" ">
<path fill="none" stroke="#63b8ff" d="M350.15,-28.01C358.74,-26.9 367.43,-25.78 375.9,-24.69"/>
<polygon fill="#63b8ff" stroke="#63b8ff" points="349.59,-24.56 340.12,-29.31 350.48,-31.5 349.59,-24.56"/>
</a>
</g>
</g>
</g>
</svg>
