<?xml version="1.0" encoding="UTF-8" standalone="no"?>
<!DOCTYPE svg PUBLIC "-//W3C//DTD SVG 1.1//EN"
 "http://www.w3.org/Graphics/SVG/1.1/DTD/svg11.dtd">
<!-- Generated by graphviz version 2.43.0 (0)
 -->
<!-- Title: xiiAbstractEnumerationProperty Pages: 1 -->
<!--zoomable 186 -->
<svg id="main" version="1.1" xmlns="http://www.w3.org/2000/svg" xmlns:xlink="http://www.w3.org/1999/xlink" xml:space="preserve" onload="init(evt)">
<style type="text/css"><![CDATA[
.edge:hover path { stroke: red; }
.edge:hover polygon { stroke: red; fill: red; }
]]></style>
<script type="text/javascript"><![CDATA[
var edges = document.getElementsByTagName('g');
if (edges && edges.length) {
  for (var i=0;i<edges.length;i++) {
    if (edges[i].id.substr(0,4)=='edge') {
      edges[i].setAttribute('class','edge');
    }
  }
}
]]></script>
        <defs>
                <circle id="rim" cx="0" cy="0" r="7"/>
                <circle id="rim2" cx="0" cy="0" r="3.5"/>
                <g id="zoomPlus">
                        <use xlink:href="#rim" fill="#404040">
                                <set attributeName="fill" to="#808080" begin="zoomplus.mouseover" end="zoomplus.mouseout"/>
                        </use>
                        <path d="M-4,0h8M0,-4v8" fill="none" stroke="white" stroke-width="1.5" pointer-events="none"/>
                </g>
                <g id="zoomMin">
                        <use xlink:href="#rim" fill="#404040">
                                <set attributeName="fill" to="#808080" begin="zoomminus.mouseover" end="zoomminus.mouseout"/>
                        </use>
                        <path d="M-4,0h8" fill="none" stroke="white" stroke-width="1.5" pointer-events="none"/>
                </g>
                <g id="dirArrow">
                        <path fill="none" stroke="white" stroke-width="1.5" d="M0,-3.0v7 M-2.5,-0.5L0,-3.0L2.5,-0.5"/>
                </g>
               <g id="resetDef">
                       <use xlink:href="#rim2" fill="#404040">
                               <set attributeName="fill" to="#808080" begin="reset.mouseover" end="reset.mouseout"/>
                       </use>
               </g>
        </defs>

<script type="text/javascript">
var viewWidth = 862;
var viewHeight = 186;
var sectionId = 'dynsection-0';
</script>
<script xlink:href="../../svgpan.js"/>
<svg id="graph" class="graph">
<g id="viewport">
<title>xiiAbstractEnumerationProperty</title>
<polygon fill="white" stroke="transparent" points="-4,4 -4,-182 858,-182 858,4 -4,4"/>
<!-- Node1 -->
<g id="node1" class="node">
<title>Node1</title>
<g id="a_node1"><a xlink:title="The base class for enum and bitflags member properties.">
<polygon fill="#bfbfbf" stroke="black" points="333,-79 333,-98 506,-98 506,-79 333,-79"/>
<text text-anchor="middle" x="419.5" y="-86" font-family="Helvetica,sans-Serif" font-size="10.00">xiiAbstractEnumerationProperty</text>
</a>
</g>
</g>
<!-- Node4 -->
<g id="node4" class="node">
<title>Node4</title>
<g id="a_node4"><a xlink:href="../../dc/d9b/classxii_typed_enum_property.htm" target="_top" xlink:title="[internal] Base class for enum / bitflags properties that already defines the type.">
<polygon fill="white" stroke="black" points="542,-73.5 542,-103.5 668,-103.5 668,-73.5 542,-73.5"/>
<text text-anchor="start" x="550" y="-91.5" font-family="Helvetica,sans-Serif" font-size="10.00">xiiTypedEnumProperty</text>
<text text-anchor="middle" x="605" y="-80.5" font-family="Helvetica,sans-Serif" font-size="10.00">&lt; EnumType &gt;</text>
</a>
</g>
</g>
<!-- Node1&#45;&gt;Node4 -->
<g id="edge3" class="edge">
<title>Node1&#45;&gt;Node4</title>
<path fill="none" stroke="midnightblue" d="M516.26,-88.5C524.93,-88.5 533.56,-88.5 541.82,-88.5"/>
<polygon fill="midnightblue" stroke="midnightblue" points="516.07,-85 506.07,-88.5 516.07,-92 516.07,-85"/>
</g>
<!-- Node2 -->
<g id="node2" class="node">
<title>Node2</title>
<g id="a_node2"><a xlink:href="../../dd/d67/classxii_abstract_member_property.htm" target="_top" xlink:title="This is the base class for all properties that are members of a class. It provides more information a...">
<polygon fill="white" stroke="black" points="146,-79 146,-98 297,-98 297,-79 146,-79"/>
<text text-anchor="middle" x="221.5" y="-86" font-family="Helvetica,sans-Serif" font-size="10.00">xiiAbstractMemberProperty</text>
</a>
</g>
</g>
<!-- Node2&#45;&gt;Node1 -->
<g id="edge1" class="edge">
<title>Node2&#45;&gt;Node1</title>
<path fill="none" stroke="midnightblue" d="M307.39,-88.5C315.85,-88.5 324.44,-88.5 332.9,-88.5"/>
<polygon fill="midnightblue" stroke="midnightblue" points="307.16,-85 297.16,-88.5 307.16,-92 307.16,-85"/>
</g>
<!-- Node3 -->
<g id="node3" class="node">
<title>Node3</title>
<g id="a_node3"><a xlink:href="../../da/d25/classxii_abstract_property.htm" target="_top" xlink:title="This is the base interface for all properties in the reflection system. It provides enough informatio...">
<polygon fill="white" stroke="black" points="0,-79 0,-98 110,-98 110,-79 0,-79"/>
<text text-anchor="middle" x="55" y="-86" font-family="Helvetica,sans-Serif" font-size="10.00">xiiAbstractProperty</text>
</a>
</g>
</g>
<!-- Node3&#45;&gt;Node2 -->
<g id="edge2" class="edge">
<title>Node3&#45;&gt;Node2</title>
<path fill="none" stroke="midnightblue" d="M120.4,-88.5C128.79,-88.5 137.44,-88.5 145.98,-88.5"/>
<polygon fill="midnightblue" stroke="midnightblue" points="120.32,-85 110.32,-88.5 120.32,-92 120.32,-85"/>
</g>
<!-- Node5 -->
<g id="node5" class="node">
<title>Node5</title>
<g id="a_node5"><a xlink:href="../../d6/d60/classxii_bitflags_accessor_property.htm" target="_top" xlink:title="[internal] An implementation of xiiTypedEnumProperty that uses custom getter / setter functions to ac...">
<polygon fill="white" stroke="black" points="704,-147.5 704,-177.5 854,-177.5 854,-147.5 704,-147.5"/>
<text text-anchor="start" x="712" y="-165.5" font-family="Helvetica,sans-Serif" font-size="10.00">xiiBitflagsAccessorProperty</text>
<text text-anchor="middle" x="779" y="-154.5" font-family="Helvetica,sans-Serif" font-size="10.00">&lt; Class, EnumType, Type &gt;</text>
</a>
</g>
</g>
<!-- Node4&#45;&gt;Node5 -->
<g id="edge4" class="edge">
<title>Node4&#45;&gt;Node5</title>
<path fill="none" stroke="midnightblue" d="M641.77,-108.47C660.06,-118.24 682.87,-129.75 704,-138.5 711.61,-141.65 719.8,-144.67 727.85,-147.43"/>
<polygon fill="midnightblue" stroke="midnightblue" points="643.37,-105.36 632.91,-103.69 640.05,-111.52 643.37,-105.36"/>
</g>
<!-- Node6 -->
<g id="node6" class="node">
<title>Node6</title>
<g id="a_node6"><a xlink:href="../../d1/d27/classxii_bitflags_member_property.htm" target="_top" xlink:title="[internal] An implementation of xiiTypedEnumProperty that accesses the bitflags property data directl...">
<polygon fill="white" stroke="black" points="704,-98.5 704,-128.5 854,-128.5 854,-98.5 704,-98.5"/>
<text text-anchor="start" x="712" y="-116.5" font-family="Helvetica,sans-Serif" font-size="10.00">xiiBitflagsMemberProperty</text>
<text text-anchor="middle" x="779" y="-105.5" font-family="Helvetica,sans-Serif" font-size="10.00">&lt; Class, EnumType, Type &gt;</text>
</a>
</g>
</g>
<!-- Node4&#45;&gt;Node6 -->
<g id="edge5" class="edge">
<title>Node4&#45;&gt;Node6</title>
<path fill="none" stroke="midnightblue" d="M678.05,-98.97C686.62,-100.22 695.38,-101.49 703.98,-102.74"/>
<polygon fill="midnightblue" stroke="midnightblue" points="678.5,-95.5 668.1,-97.53 677.49,-102.43 678.5,-95.5"/>
</g>
<!-- Node7 -->
<g id="node7" class="node">
<title>Node7</title>
<g id="a_node7"><a xlink:href="../../dd/d56/classxii_enum_accessor_property.htm" target="_top" xlink:title="[internal] An implementation of xiiTypedEnumProperty that uses custom getter / setter functions to ac...">
<polygon fill="white" stroke="black" points="704,-49.5 704,-79.5 854,-79.5 854,-49.5 704,-49.5"/>
<text text-anchor="start" x="712" y="-67.5" font-family="Helvetica,sans-Serif" font-size="10.00">xiiEnumAccessorProperty</text>
<text text-anchor="middle" x="779" y="-56.5" font-family="Helvetica,sans-Serif" font-size="10.00">&lt; Class, EnumType, Type &gt;</text>
</a>
</g>
</g>
<!-- Node4&#45;&gt;Node7 -->
<g id="edge6" class="edge">
<title>Node4&#45;&gt;Node7</title>
<path fill="none" stroke="midnightblue" d="M678.05,-78.45C686.62,-77.25 695.38,-76.03 703.98,-74.83"/>
<polygon fill="midnightblue" stroke="midnightblue" points="677.52,-74.99 668.1,-79.84 678.48,-81.92 677.52,-74.99"/>
</g>
<!-- Node8 -->
<g id="node8" class="node">
<title>Node8</title>
<g id="a_node8"><a xlink:href="../../d7/d14/classxii_enum_member_property.htm" target="_top" xlink:title="[internal] An implementation of xiiTypedEnumProperty that accesses the enum property data directly.">
<polygon fill="white" stroke="black" points="704,-0.5 704,-30.5 854,-30.5 854,-0.5 704,-0.5"/>
<text text-anchor="start" x="712" y="-18.5" font-family="Helvetica,sans-Serif" font-size="10.00">xiiEnumMemberProperty</text>
<text text-anchor="middle" x="779" y="-7.5" font-family="Helvetica,sans-Serif" font-size="10.00">&lt; Class, EnumType, Type &gt;</text>
</a>
</g>
</g>
<!-- Node4&#45;&gt;Node8 -->
<g id="edge7" class="edge">
<title>Node4&#45;&gt;Node8</title>
<path fill="none" stroke="midnightblue" d="M642.45,-68.64C660.64,-59.15 683.16,-48.03 704,-39.5 711.62,-36.38 719.82,-33.38 727.87,-30.63"/>
<polygon fill="midnightblue" stroke="midnightblue" points="640.58,-65.67 633.37,-73.43 643.84,-71.86 640.58,-65.67"/>
</g>
</g>
</svg>
        <g id="navigator" transform="translate(0 0)" fill="#404254">
                <rect fill="#f2f5e9" fill-opacity="0.5" stroke="#606060" stroke-width=".5" x="0" y="0" width="60" height="60"/>
                <use id="zoomplus" xlink:href="#zoomPlus" x="17" y="9" onmousedown="handleZoom(evt,'in')"/>
                <use id="zoomminus" xlink:href="#zoomMin" x="42" y="9" onmousedown="handleZoom(evt,'out')"/>
                <use id="reset" xlink:href="#resetDef" x="30" y="36" onmousedown="handleReset()"/>
                <g id="arrowUp" xlink:href="#dirArrow" transform="translate(30 24)" onmousedown="handlePan(0,-1)">
                  <use xlink:href="#rim" fill="#404040">
                        <set attributeName="fill" to="#808080" begin="arrowUp.mouseover" end="arrowUp.mouseout"/>
                  </use>
                  <path fill="none" stroke="white" stroke-width="1.5" d="M0,-3.0v7 M-2.5,-0.5L0,-3.0L2.5,-0.5"/>
                </g>
                <g id="arrowRight" xlink:href="#dirArrow" transform="rotate(90) translate(36 -43)" onmousedown="handlePan(1,0)">
                  <use xlink:href="#rim" fill="#404040">
                        <set attributeName="fill" to="#808080" begin="arrowRight.mouseover" end="arrowRight.mouseout"/>
                  </use>
                  <path fill="none" stroke="white" stroke-width="1.5" d="M0,-3.0v7 M-2.5,-0.5L0,-3.0L2.5,-0.5"/>
                </g>
                <g id="arrowDown" xlink:href="#dirArrow" transform="rotate(180) translate(-30 -48)" onmousedown="handlePan(0,1)">
                  <use xlink:href="#rim" fill="#404040">
                        <set attributeName="fill" to="#808080" begin="arrowDown.mouseover" end="arrowDown.mouseout"/>
                  </use>
                  <path fill="none" stroke="white" stroke-width="1.5" d="M0,-3.0v7 M-2.5,-0.5L0,-3.0L2.5,-0.5"/>
                </g>
                <g id="arrowLeft" xlink:href="#dirArrow" transform="rotate(270) translate(-36 17)" onmousedown="handlePan(-1,0)">
                  <use xlink:href="#rim" fill="#404040">
                        <set attributeName="fill" to="#808080" begin="arrowLeft.mouseover" end="arrowLeft.mouseout"/>
                  </use>
                  <path fill="none" stroke="white" stroke-width="1.5" d="M0,-3.0v7 M-2.5,-0.5L0,-3.0L2.5,-0.5"/>
                </g>
        </g>
        <svg viewBox="0 0 15 15" width="100%" height="30px" preserveAspectRatio="xMaxYMin meet">
         <g id="arrow_out" transform="scale(0.3 0.3)">
          <a xlink:href="classxii_abstract_enumeration_property__inherit__graph_org.svg" target="_base">
           <rect id="button" ry="5" rx="5" y="6" x="6" height="38" width="38"
                fill="#f2f5e9" fill-opacity="0.5" stroke="#606060" stroke-width="1.0"/>
           <path id="arrow"
             d="M 11.500037,31.436501 C 11.940474,20.09759 22.043105,11.32322 32.158766,21.979434 L 37.068811,17.246167 C 37.068811,17.246167 37.088388,32 37.088388,32 L 22.160133,31.978069 C 22.160133,31.978069 26.997745,27.140456 26.997745,27.140456 C 18.528582,18.264221 13.291696,25.230495 11.500037,31.436501 z"
             style="fill:#404040;"/>
          </a>
         </g>
        </svg>
</svg>
