<?xml version="1.0" encoding="UTF-8" standalone="no"?>
<!DOCTYPE svg PUBLIC "-//W3C//DTD SVG 1.1//EN"
 "http://www.w3.org/Graphics/SVG/1.1/DTD/svg11.dtd">
<!-- Generated by graphviz version 2.43.0 (0)
 -->
<!-- Title: xiiObjectAccessorBase Pages: 1 -->
<svg width="435pt" height="207pt"
 viewBox="0.00 0.00 435.00 207.00" xmlns="http://www.w3.org/2000/svg" xmlns:xlink="http://www.w3.org/1999/xlink">
<g id="graph0" class="graph" transform="scale(1 1) rotate(0) translate(4 203)">
<title>xiiObjectAccessorBase</title>
<polygon fill="white" stroke="transparent" points="-4,4 -4,-203 431,-203 431,4 -4,4"/>
<!-- Node1 -->
<g id="node1" class="node">
<title>Node1</title>
<g id="a_node1"><a xlink:title=" ">
<polygon fill="#bfbfbf" stroke="black" points="187,-179.5 187,-198.5 315,-198.5 315,-179.5 187,-179.5"/>
<text text-anchor="middle" x="251" y="-186.5" font-family="Helvetica,sans-Serif" font-size="10.00">xiiObjectAccessorBase</text>
</a>
</g>
</g>
<!-- Node2 -->
<g id="node2" class="node">
<title>Node2</title>
<g id="a_node2"><a xlink:href="../../d8/d91/classxii_object_direct_accessor.htm" target="_top" xlink:title=" ">
<polygon fill="white" stroke="black" points="102.5,-123.5 102.5,-142.5 235.5,-142.5 235.5,-123.5 102.5,-123.5"/>
<text text-anchor="middle" x="169" y="-130.5" font-family="Helvetica,sans-Serif" font-size="10.00">xiiObjectDirectAccessor</text>
</a>
</g>
</g>
<!-- Node1&#45;&gt;Node2 -->
<g id="edge1" class="edge">
<title>Node1&#45;&gt;Node2</title>
<path fill="none" stroke="midnightblue" d="M229.17,-173.62C214.19,-163.76 194.8,-150.99 182.14,-142.65"/>
<polygon fill="midnightblue" stroke="midnightblue" points="227.55,-176.75 237.83,-179.32 231.4,-170.9 227.55,-176.75"/>
</g>
<!-- Node6 -->
<g id="node6" class="node">
<title>Node6</title>
<g id="a_node6"><a xlink:href="../../dc/da0/classxii_object_proxy_accessor.htm" target="_top" xlink:title=" ">
<polygon fill="white" stroke="black" points="268.5,-123.5 268.5,-142.5 399.5,-142.5 399.5,-123.5 268.5,-123.5"/>
<text text-anchor="middle" x="334" y="-130.5" font-family="Helvetica,sans-Serif" font-size="10.00">xiiObjectProxyAccessor</text>
</a>
</g>
</g>
<!-- Node1&#45;&gt;Node6 -->
<g id="edge5" class="edge">
<title>Node1&#45;&gt;Node6</title>
<path fill="none" stroke="midnightblue" d="M273.1,-173.62C288.26,-163.76 307.88,-150.99 320.7,-142.65"/>
<polygon fill="midnightblue" stroke="midnightblue" points="270.81,-170.94 264.34,-179.32 274.63,-176.8 270.81,-170.94"/>
</g>
<!-- Node3 -->
<g id="node3" class="node">
<title>Node3</title>
<g id="a_node3"><a xlink:href="../../d0/d29/classxii_object_command_accessor.htm" target="_top" xlink:title=" ">
<polygon fill="white" stroke="black" points="85,-62 85,-81 239,-81 239,-62 85,-62"/>
<text text-anchor="middle" x="162" y="-69" font-family="Helvetica,sans-Serif" font-size="10.00">xiiObjectCommandAccessor</text>
</a>
</g>
</g>
<!-- Node2&#45;&gt;Node3 -->
<g id="edge2" class="edge">
<title>Node2&#45;&gt;Node3</title>
<path fill="none" stroke="midnightblue" d="M166.8,-113.32C165.53,-102.5 163.99,-89.4 163,-81.01"/>
<polygon fill="midnightblue" stroke="midnightblue" points="163.35,-113.95 168,-123.48 170.3,-113.13 163.35,-113.95"/>
</g>
<!-- Node4 -->
<g id="node4" class="node">
<title>Node4</title>
<g id="a_node4"><a xlink:href="../../d5/d84/classxii_node_command_accessor.htm" target="_top" xlink:title=" ">
<polygon fill="white" stroke="black" points="0,-0.5 0,-19.5 148,-19.5 148,-0.5 0,-0.5"/>
<text text-anchor="middle" x="74" y="-7.5" font-family="Helvetica,sans-Serif" font-size="10.00">xiiNodeCommandAccessor</text>
</a>
</g>
</g>
<!-- Node3&#45;&gt;Node4 -->
<g id="edge3" class="edge">
<title>Node3&#45;&gt;Node4</title>
<path fill="none" stroke="midnightblue" d="M140.72,-56.11C123.8,-44.67 100.69,-29.05 86.58,-19.51"/>
<polygon fill="midnightblue" stroke="midnightblue" points="139.15,-59.27 149.39,-61.98 143.07,-53.47 139.15,-59.27"/>
</g>
<!-- Node5 -->
<g id="node5" class="node">
<title>Node5</title>
<g id="a_node5"><a xlink:href="../../db/d68/classxii_property_anim_object_accessor.htm" target="_top" xlink:title=" ">
<polygon fill="white" stroke="black" points="166,-0.5 166,-19.5 336,-19.5 336,-0.5 166,-0.5"/>
<text text-anchor="middle" x="251" y="-7.5" font-family="Helvetica,sans-Serif" font-size="10.00">xiiPropertyAnimObjectAccessor</text>
</a>
</g>
</g>
<!-- Node3&#45;&gt;Node5 -->
<g id="edge4" class="edge">
<title>Node3&#45;&gt;Node5</title>
<path fill="none" stroke="midnightblue" d="M183.52,-56.11C200.64,-44.67 224.01,-29.05 238.27,-19.51"/>
<polygon fill="midnightblue" stroke="midnightblue" points="181.12,-53.51 174.75,-61.98 185.01,-59.33 181.12,-53.51"/>
</g>
<!-- Node7 -->
<g id="node7" class="node">
<title>Node7</title>
<g id="a_node7"><a xlink:href="../../d5/ded/classxii_exposed_parameter_command_accessor.htm" target="_top" xlink:title=" ">
<polygon fill="white" stroke="black" points="257,-56.5 257,-86.5 427,-86.5 427,-56.5 257,-56.5"/>
<text text-anchor="start" x="265" y="-74.5" font-family="Helvetica,sans-Serif" font-size="10.00">xiiExposedParameterCommand</text>
<text text-anchor="middle" x="342" y="-63.5" font-family="Helvetica,sans-Serif" font-size="10.00">Accessor</text>
</a>
</g>
</g>
<!-- Node6&#45;&gt;Node7 -->
<g id="edge6" class="edge">
<title>Node6&#45;&gt;Node7</title>
<path fill="none" stroke="midnightblue" d="M336.48,-113.53C337.66,-104.81 339.03,-94.59 340.11,-86.52"/>
<polygon fill="midnightblue" stroke="midnightblue" points="333.01,-113.1 335.15,-123.48 339.95,-114.03 333.01,-113.1"/>
</g>
</g>
</svg>
