<?xml version="1.0" encoding="UTF-8" standalone="no"?>
<!DOCTYPE svg PUBLIC "-//W3C//DTD SVG 1.1//EN"
 "http://www.w3.org/Graphics/SVG/1.1/DTD/svg11.dtd">
<!-- Generated by graphviz version 2.43.0 (0)
 -->
<!-- Title: xiiObjectAccessorBase Pages: 1 -->
<svg width="435pt" height="203pt"
 viewBox="0.00 0.00 435.00 203.00" xmlns="http://www.w3.org/2000/svg" xmlns:xlink="http://www.w3.org/1999/xlink">

<svg id="main" version="1.1" xmlns="http://www.w3.org/2000/svg" xmlns:xlink="http://www.w3.org/1999/xlink" xml:space="preserve" onload="init(evt)">
<style type="text/css"><![CDATA[
.node, .edge {opacity: 0.7;}
.node.selected, .edge.selected {opacity: 1;}
.edge:hover path { stroke: red; }
.edge:hover polygon { stroke: red; fill: red; }
]]></style>
<script type="application/ecmascript" xlink:href="../../svg.min.js"/>
<svg id="graph" class="graph">
<g id="graph0" class="graph" transform="scale(1 1) rotate(0) translate(4 199)">
<title>xiiObjectAccessorBase</title>
<!-- Node1 -->
<g id="Node000001" class="node">
<title>Node1</title>
<g id="a_Node000001"><a xlink:title=" ">
<polygon fill="#999999" stroke="#666666" points="315,-195 187,-195 187,-176 315,-176 315,-195"/>
<text text-anchor="middle" x="251" y="-183" font-family="Helvetica,sans-Serif" font-size="10.00">xiiObjectAccessorBase</text>
</a>
</g>
</g>
<!-- Node2 -->
<g id="Node000002" class="node">
<title>Node2</title>
<g id="a_Node000002"><a xlink:href="../../d8/d91/classxii_object_direct_accessor.htm" target="_top" xlink:title=" ">
<polygon fill="white" stroke="#bfbfbf" points="235.5,-140 102.5,-140 102.5,-121 235.5,-121 235.5,-140"/>
<text text-anchor="middle" x="169" y="-128" font-family="Helvetica,sans-Serif" font-size="10.00">xiiObjectDirectAccessor</text>
</a>
</g>
</g>
<!-- Node1&#45;&gt;Node2 -->
<g id="edge1_Node000001_Node000002" class="edge">
<title>Node1&#45;&gt;Node2</title>
<g id="a_edge1_Node000001_Node000002"><a xlink:title=" ">
<path fill="none" stroke="#63b8ff" d="M229.22,-170.42C214.34,-160.81 195.09,-148.37 182.41,-140.17"/>
<polygon fill="#63b8ff" stroke="#63b8ff" points="227.53,-173.5 237.83,-175.98 231.33,-167.62 227.53,-173.5"/>
</a>
</g>
</g>
<!-- Node6 -->
<g id="Node000006" class="node">
<title>Node6</title>
<g id="a_Node000006"><a xlink:href="../../dc/da0/classxii_object_proxy_accessor.htm" target="_top" xlink:title=" ">
<polygon fill="white" stroke="#bfbfbf" points="399.5,-140 268.5,-140 268.5,-121 399.5,-121 399.5,-140"/>
<text text-anchor="middle" x="334" y="-128" font-family="Helvetica,sans-Serif" font-size="10.00">xiiObjectProxyAccessor</text>
</a>
</g>
</g>
<!-- Node1&#45;&gt;Node6 -->
<g id="edge5_Node000001_Node000006" class="edge">
<title>Node1&#45;&gt;Node6</title>
<g id="a_edge5_Node000001_Node000006"><a xlink:title=" ">
<path fill="none" stroke="#63b8ff" d="M273.04,-170.42C288.11,-160.81 307.59,-148.37 320.42,-140.17"/>
<polygon fill="#63b8ff" stroke="#63b8ff" points="270.88,-167.65 264.34,-175.98 274.65,-173.55 270.88,-167.65"/>
</a>
</g>
</g>
<!-- Node3 -->
<g id="Node000003" class="node">
<title>Node3</title>
<g id="a_Node000003"><a xlink:href="../../d0/d29/classxii_object_command_accessor.htm" target="_top" xlink:title=" ">
<polygon fill="white" stroke="#bfbfbf" points="239,-79.5 85,-79.5 85,-60.5 239,-60.5 239,-79.5"/>
<text text-anchor="middle" x="162" y="-67.5" font-family="Helvetica,sans-Serif" font-size="10.00">xiiObjectCommandAccessor</text>
</a>
</g>
</g>
<!-- Node2&#45;&gt;Node3 -->
<g id="edge2_Node000002_Node000003" class="edge">
<title>Node2&#45;&gt;Node3</title>
<g id="a_edge2_Node000002_Node000003"><a xlink:title=" ">
<path fill="none" stroke="#63b8ff" d="M166.75,-110.66C165.5,-100.24 164.01,-87.8 163.04,-79.67"/>
<polygon fill="#63b8ff" stroke="#63b8ff" points="163.3,-111.35 167.97,-120.87 170.25,-110.52 163.3,-111.35"/>
</a>
</g>
</g>
<!-- Node4 -->
<g id="Node000004" class="node">
<title>Node4</title>
<g id="a_Node000004"><a xlink:href="../../d5/d84/classxii_node_command_accessor.htm" target="_top" xlink:title=" ">
<polygon fill="white" stroke="#bfbfbf" points="148,-19 0,-19 0,0 148,0 148,-19"/>
<text text-anchor="middle" x="74" y="-7" font-family="Helvetica,sans-Serif" font-size="10.00">xiiNodeCommandAccessor</text>
</a>
</g>
</g>
<!-- Node3&#45;&gt;Node4 -->
<g id="edge3_Node000003_Node000004" class="edge">
<title>Node3&#45;&gt;Node4</title>
<g id="a_edge3_Node000003_Node000004"><a xlink:title=" ">
<path fill="none" stroke="#63b8ff" d="M140.43,-54.66C123.71,-43.55 101.1,-28.51 87.04,-19.17"/>
<polygon fill="#63b8ff" stroke="#63b8ff" points="138.75,-57.75 149.02,-60.37 142.63,-51.92 138.75,-57.75"/>
</a>
</g>
</g>
<!-- Node5 -->
<g id="Node000005" class="node">
<title>Node5</title>
<g id="a_Node000005"><a xlink:href="../../db/d68/classxii_property_anim_object_accessor.htm" target="_top" xlink:title=" ">
<polygon fill="white" stroke="#bfbfbf" points="336,-19 166,-19 166,0 336,0 336,-19"/>
<text text-anchor="middle" x="251" y="-7" font-family="Helvetica,sans-Serif" font-size="10.00">xiiPropertyAnimObjectAccessor</text>
</a>
</g>
</g>
<!-- Node3&#45;&gt;Node5 -->
<g id="edge4_Node000003_Node000005" class="edge">
<title>Node3&#45;&gt;Node5</title>
<g id="a_edge4_Node000003_Node000005"><a xlink:title=" ">
<path fill="none" stroke="#63b8ff" d="M183.82,-54.66C200.73,-43.55 223.59,-28.51 237.81,-19.17"/>
<polygon fill="#63b8ff" stroke="#63b8ff" points="181.57,-51.95 175.13,-60.37 185.41,-57.8 181.57,-51.95"/>
</a>
</g>
</g>
<!-- Node7 -->
<g id="Node000007" class="node">
<title>Node7</title>
<g id="a_Node000007"><a xlink:href="../../d5/ded/classxii_exposed_parameter_command_accessor.htm" target="_top" xlink:title=" ">
<polygon fill="white" stroke="#bfbfbf" points="427,-85 257,-85 257,-55 427,-55 427,-85"/>
<text text-anchor="start" x="265" y="-73" font-family="Helvetica,sans-Serif" font-size="10.00">xiiExposedParameterCommand</text>
<text text-anchor="middle" x="342" y="-62" font-family="Helvetica,sans-Serif" font-size="10.00">Accessor</text>
</a>
</g>
</g>
<!-- Node6&#45;&gt;Node7 -->
<g id="edge6_Node000006_Node000007" class="edge">
<title>Node6&#45;&gt;Node7</title>
<g id="a_edge6_Node000006_Node000007"><a xlink:title=" ">
<path fill="none" stroke="#63b8ff" d="M336.54,-110.93C337.68,-102.58 339.01,-92.87 340.07,-85.11"/>
<polygon fill="#63b8ff" stroke="#63b8ff" points="333.07,-110.49 335.18,-120.87 340,-111.43 333.07,-110.49"/>
</a>
</g>
</g>
</g>
</svg>
</svg>

<style type='text/css'>
<![CDATA[
[data-mouse-over-selected='false'] { opacity: 0.7; }
[data-mouse-over-selected='true']  { opacity: 1.0; }
]]>
</style>
<script type="application/ecmascript"><![CDATA[
document.addEventListener('DOMContentLoaded', (event) => {
  highlightEdges();
  highlightAdjacentNodes();
});
]]></script>
</svg>
