<?xml version="1.0" encoding="UTF-8" standalone="no"?>
<!DOCTYPE svg PUBLIC "-//W3C//DTD SVG 1.1//EN"
 "http://www.w3.org/Graphics/SVG/1.1/DTD/svg11.dtd">
<!-- Generated by graphviz version 2.43.0 (0)
 -->
<!-- Title: xiiGALBuffer Pages: 1 -->
<svg width="490pt" height="357pt"
 viewBox="0.00 0.00 490.00 357.00" xmlns="http://www.w3.org/2000/svg" xmlns:xlink="http://www.w3.org/1999/xlink">
<g id="graph0" class="graph" transform="scale(1 1) rotate(0) translate(4 353)">
<title>xiiGALBuffer</title>
<!-- Node1 -->
<g id="Node000001" class="node">
<title>Node1</title>
<g id="a_Node000001"><a xlink:title="Interface that defines methods to manipulate a buffer object.">
<polygon fill="#999999" stroke="#666666" points="282.5,-74 205.5,-74 205.5,-55 282.5,-55 282.5,-74"/>
<text text-anchor="middle" x="244" y="-62" font-family="Helvetica,sans-Serif" font-size="10.00">xiiGALBuffer</text>
</a>
</g>
</g>
<!-- Node9 -->
<g id="Node000009" class="node">
<title>Node9</title>
<g id="a_Node000009"><a xlink:href="../../d6/d02/classxii_g_a_l_buffer_d3_d11.htm" target="_top" xlink:title=" ">
<polygon fill="white" stroke="#bfbfbf" points="110,-19 0,-19 0,0 110,0 110,-19"/>
<text text-anchor="middle" x="55" y="-7" font-family="Helvetica,sans-Serif" font-size="10.00">xiiGALBufferD3D11</text>
</a>
</g>
</g>
<!-- Node1&#45;&gt;Node9 -->
<g id="edge8_Node000001_Node000009" class="edge">
<title>Node1&#45;&gt;Node9</title>
<g id="a_edge8_Node000001_Node000009"><a xlink:title=" ">
<path fill="none" stroke="#63b8ff" d="M203.65,-52.18C168.3,-42.27 117.7,-28.08 85.6,-19.08"/>
<polygon fill="#63b8ff" stroke="#63b8ff" points="203.06,-55.65 213.63,-54.98 204.95,-48.91 203.06,-55.65"/>
</a>
</g>
</g>
<!-- Node10 -->
<g id="Node000010" class="node">
<title>Node10</title>
<g id="a_Node000010"><a xlink:href="../../d2/da9/classxii_g_a_l_buffer_d3_d12.htm" target="_top" xlink:title=" ">
<polygon fill="white" stroke="#bfbfbf" points="238,-19 128,-19 128,0 238,0 238,-19"/>
<text text-anchor="middle" x="183" y="-7" font-family="Helvetica,sans-Serif" font-size="10.00">xiiGALBufferD3D12</text>
</a>
</g>
</g>
<!-- Node1&#45;&gt;Node10 -->
<g id="edge9_Node000001_Node000010" class="edge">
<title>Node1&#45;&gt;Node10</title>
<g id="a_edge9_Node000001_Node000010"><a xlink:title=" ">
<path fill="none" stroke="#63b8ff" d="M226.53,-48.32C215.66,-38.87 202.06,-27.06 192.98,-19.17"/>
<polygon fill="#63b8ff" stroke="#63b8ff" points="224.35,-51.07 234.2,-54.98 228.95,-45.78 224.35,-51.07"/>
</a>
</g>
</g>
<!-- Node11 -->
<g id="Node000011" class="node">
<title>Node11</title>
<g id="a_Node000011"><a xlink:href="../../dc/db5/classxii_g_a_l_buffer_null.htm" target="_top" xlink:title=" ">
<polygon fill="white" stroke="#bfbfbf" points="353.5,-19 256.5,-19 256.5,0 353.5,0 353.5,-19"/>
<text text-anchor="middle" x="305" y="-7" font-family="Helvetica,sans-Serif" font-size="10.00">xiiGALBufferNull</text>
</a>
</g>
</g>
<!-- Node1&#45;&gt;Node11 -->
<g id="edge10_Node000001_Node000011" class="edge">
<title>Node1&#45;&gt;Node11</title>
<g id="a_edge10_Node000001_Node000011"><a xlink:title=" ">
<path fill="none" stroke="#63b8ff" d="M261.47,-48.32C272.34,-38.87 285.94,-27.06 295.02,-19.17"/>
<polygon fill="#63b8ff" stroke="#63b8ff" points="259.05,-45.78 253.8,-54.98 263.65,-51.07 259.05,-45.78"/>
</a>
</g>
</g>
<!-- Node12 -->
<g id="Node000012" class="node">
<title>Node12</title>
<g id="a_Node000012"><a xlink:href="../../d4/d0b/classxii_g_a_l_buffer_vulkan.htm" target="_top" xlink:title=" ">
<polygon fill="white" stroke="#bfbfbf" points="482,-19 372,-19 372,0 482,0 482,-19"/>
<text text-anchor="middle" x="427" y="-7" font-family="Helvetica,sans-Serif" font-size="10.00">xiiGALBufferVulkan</text>
</a>
</g>
</g>
<!-- Node1&#45;&gt;Node12 -->
<g id="edge11_Node000001_Node000012" class="edge">
<title>Node1&#45;&gt;Node12</title>
<g id="a_edge11_Node000001_Node000012"><a xlink:title=" ">
<path fill="none" stroke="#63b8ff" d="M283.07,-52.18C317.3,-42.27 366.29,-28.08 397.37,-19.08"/>
<polygon fill="#63b8ff" stroke="#63b8ff" points="282.03,-48.84 273.4,-54.98 283.98,-55.56 282.03,-48.84"/>
</a>
</g>
</g>
<!-- Node2 -->
<g id="Node000002" class="node">
<title>Node2</title>
<g id="a_Node000002"><a xlink:href="../../d4/d2d/classxii_g_a_l_resource.htm" target="_top" xlink:title="Base class for all GAL resources (textures, buffers, etc).">
<polygon fill="white" stroke="#666666" points="290.5,-129 197.5,-129 197.5,-110 290.5,-110 290.5,-129"/>
<text text-anchor="middle" x="244" y="-117" font-family="Helvetica,sans-Serif" font-size="10.00">xiiGALResource</text>
</a>
</g>
</g>
<!-- Node2&#45;&gt;Node1 -->
<g id="edge1_Node000001_Node000002" class="edge">
<title>Node2&#45;&gt;Node1</title>
<g id="a_edge1_Node000001_Node000002"><a xlink:title=" ">
<path fill="none" stroke="#63b8ff" d="M244,-99.66C244,-90.93 244,-80.99 244,-74.09"/>
<polygon fill="#63b8ff" stroke="#63b8ff" points="240.5,-99.75 244,-109.75 247.5,-99.75 240.5,-99.75"/>
</a>
</g>
</g>
<!-- Node3 -->
<g id="Node000003" class="node">
<title>Node3</title>
<g id="a_Node000003"><a xlink:href="../../d5/d12/classxii_g_a_l_device_object.htm" target="_top" xlink:title="Base Graphics Abstraction Layer Object.">
<polygon fill="white" stroke="#666666" points="300.5,-184 187.5,-184 187.5,-165 300.5,-165 300.5,-184"/>
<text text-anchor="middle" x="244" y="-172" font-family="Helvetica,sans-Serif" font-size="10.00">xiiGALDeviceObject</text>
</a>
</g>
</g>
<!-- Node3&#45;&gt;Node2 -->
<g id="edge2_Node000002_Node000003" class="edge">
<title>Node3&#45;&gt;Node2</title>
<g id="a_edge2_Node000002_Node000003"><a xlink:title=" ">
<path fill="none" stroke="#63b8ff" d="M244,-154.66C244,-145.93 244,-135.99 244,-129.09"/>
<polygon fill="#63b8ff" stroke="#63b8ff" points="240.5,-154.75 244,-164.75 247.5,-154.75 240.5,-154.75"/>
</a>
</g>
</g>
<!-- Node4 -->
<g id="Node000004" class="node">
<title>Node4</title>
<g id="a_Node000004"><a xlink:href="../../d3/dda/classxii_g_a_l_object.htm" target="_top" xlink:title="Base Graphics Abstraction Layer Object.">
<polygon fill="white" stroke="#666666" points="284,-239 204,-239 204,-220 284,-220 284,-239"/>
<text text-anchor="middle" x="244" y="-227" font-family="Helvetica,sans-Serif" font-size="10.00">xiiGALObject</text>
</a>
</g>
</g>
<!-- Node4&#45;&gt;Node3 -->
<g id="edge3_Node000003_Node000004" class="edge">
<title>Node4&#45;&gt;Node3</title>
<g id="a_edge3_Node000003_Node000004"><a xlink:title=" ">
<path fill="none" stroke="#63b8ff" d="M244,-209.66C244,-200.93 244,-190.99 244,-184.09"/>
<polygon fill="#63b8ff" stroke="#63b8ff" points="240.5,-209.75 244,-219.75 247.5,-209.75 240.5,-209.75"/>
</a>
</g>
</g>
<!-- Node5 -->
<g id="Node000005" class="node">
<title>Node5</title>
<g id="a_Node000005"><a xlink:href="../../dc/d71/classxii_reflected_class.htm" target="_top" xlink:title="All classes that should be dynamically reflectable, need to be derived from this base class.">
<polygon fill="white" stroke="#666666" points="238.5,-294 137.5,-294 137.5,-275 238.5,-275 238.5,-294"/>
<text text-anchor="middle" x="188" y="-282" font-family="Helvetica,sans-Serif" font-size="10.00">xiiReflectedClass</text>
</a>
</g>
</g>
<!-- Node5&#45;&gt;Node4 -->
<g id="edge4_Node000004_Node000005" class="edge">
<title>Node5&#45;&gt;Node4</title>
<g id="a_edge4_Node000004_Node000005"><a xlink:title=" ">
<path fill="none" stroke="#63b8ff" d="M204.33,-268.04C214.26,-258.64 226.59,-246.98 234.84,-239.17"/>
<polygon fill="#63b8ff" stroke="#63b8ff" points="201.85,-265.57 197,-274.98 206.67,-270.65 201.85,-265.57"/>
</a>
</g>
</g>
<!-- Node6 -->
<g id="Node000006" class="node">
<title>Node6</title>
<g id="a_Node000006"><a xlink:href="../../d2/d38/classxii_no_base.htm" target="_top" xlink:title="Dummy type to pass to templates and macros that expect a base type for a class that has no base.">
<polygon fill="white" stroke="#666666" points="221,-349 155,-349 155,-330 221,-330 221,-349"/>
<text text-anchor="middle" x="188" y="-337" font-family="Helvetica,sans-Serif" font-size="10.00">xiiNoBase</text>
</a>
</g>
</g>
<!-- Node6&#45;&gt;Node5 -->
<g id="edge5_Node000005_Node000006" class="edge">
<title>Node6&#45;&gt;Node5</title>
<g id="a_edge5_Node000005_Node000006"><a xlink:title=" ">
<path fill="none" stroke="#63b8ff" d="M188,-319.66C188,-310.93 188,-300.99 188,-294.09"/>
<polygon fill="#63b8ff" stroke="#63b8ff" points="184.5,-319.75 188,-329.75 191.5,-319.75 184.5,-319.75"/>
</a>
</g>
</g>
<!-- Node7 -->
<g id="Node000007" class="node">
<title>Node7</title>
<g id="a_Node000007"><a xlink:href="../../d3/dd0/classxii_ref_counted.htm" target="_top" xlink:title="Base class for reference counted objects.">
<polygon fill="white" stroke="#666666" points="343,-294 257,-294 257,-275 343,-275 343,-294"/>
<text text-anchor="middle" x="300" y="-282" font-family="Helvetica,sans-Serif" font-size="10.00">xiiRefCounted</text>
</a>
</g>
</g>
<!-- Node7&#45;&gt;Node4 -->
<g id="edge6_Node000004_Node000007" class="edge">
<title>Node7&#45;&gt;Node4</title>
<g id="a_edge6_Node000004_Node000007"><a xlink:title=" ">
<path fill="none" stroke="#63b8ff" d="M283.67,-268.04C273.74,-258.64 261.41,-246.98 253.16,-239.17"/>
<polygon fill="#63b8ff" stroke="#63b8ff" points="281.33,-270.65 291,-274.98 286.15,-265.57 281.33,-270.65"/>
</a>
</g>
</g>
<!-- Node8 -->
<g id="Node000008" class="node">
<title>Node8</title>
<g id="a_Node000008"><a xlink:href="../../d7/df4/classxii_ref_counting_impl.htm" target="_top" xlink:title=" ">
<polygon fill="white" stroke="#bfbfbf" points="355,-349 245,-349 245,-330 355,-330 355,-349"/>
<text text-anchor="middle" x="300" y="-337" font-family="Helvetica,sans-Serif" font-size="10.00">xiiRefCountingImpl</text>
</a>
</g>
</g>
<!-- Node8&#45;&gt;Node7 -->
<g id="edge7_Node000007_Node000008" class="edge">
<title>Node8&#45;&gt;Node7</title>
<g id="a_edge7_Node000007_Node000008"><a xlink:title=" ">
<path fill="none" stroke="#63b8ff" d="M300,-319.66C300,-310.93 300,-300.99 300,-294.09"/>
<polygon fill="#63b8ff" stroke="#63b8ff" points="296.5,-319.75 300,-329.75 303.5,-319.75 296.5,-319.75"/>
</a>
</g>
</g>
</g>
</svg>
