<?xml version="1.0" encoding="UTF-8" standalone="no"?>
<!DOCTYPE svg PUBLIC "-//W3C//DTD SVG 1.1//EN"
 "http://www.w3.org/Graphics/SVG/1.1/DTD/svg11.dtd">
<!-- Generated by graphviz version 2.43.0 (0)
 -->
<!-- Title: xiiTagSetWidgetAttribute Pages: 1 -->
<svg width="161pt" height="252pt"
 viewBox="0.00 0.00 161.00 252.00" xmlns="http://www.w3.org/2000/svg" xmlns:xlink="http://www.w3.org/1999/xlink">
<g id="graph0" class="graph" transform="scale(1 1) rotate(0) translate(4 248)">
<title>xiiTagSetWidgetAttribute</title>
<polygon fill="white" stroke="transparent" points="-4,4 -4,-248 157,-248 157,4 -4,4"/>
<!-- Node1 -->
<g id="node1" class="node">
<title>Node1</title>
<g id="a_node1"><a xlink:title="Add this attribute to a tag set member property to make it use the tag set editor and define the cate...">
<polygon fill="#bfbfbf" stroke="black" points="7.5,-0.5 7.5,-19.5 145.5,-19.5 145.5,-0.5 7.5,-0.5"/>
<text text-anchor="middle" x="76.5" y="-7.5" font-family="Helvetica,sans-Serif" font-size="10.00">xiiTagSetWidgetAttribute</text>
</a>
</g>
</g>
<!-- Node2 -->
<g id="node2" class="node">
<title>Node2</title>
<g id="a_node2"><a xlink:href="../../d3/d24/classxii_container_widget_attribute.htm" target="_top" xlink:title="Derive from this class if you want to define an attribute that replaces the property widget of contai...">
<polygon fill="white" stroke="black" points="0,-56.5 0,-75.5 153,-75.5 153,-56.5 0,-56.5"/>
<text text-anchor="middle" x="76.5" y="-63.5" font-family="Helvetica,sans-Serif" font-size="10.00">xiiContainerWidgetAttribute</text>
</a>
</g>
</g>
<!-- Node2&#45;&gt;Node1 -->
<g id="edge1" class="edge">
<title>Node2&#45;&gt;Node1</title>
<path fill="none" stroke="midnightblue" d="M76.5,-45.8C76.5,-36.91 76.5,-26.78 76.5,-19.75"/>
<polygon fill="midnightblue" stroke="midnightblue" points="73,-46.08 76.5,-56.08 80,-46.08 73,-46.08"/>
</g>
<!-- Node3 -->
<g id="node3" class="node">
<title>Node3</title>
<g id="a_node3"><a xlink:href="../../d5/df0/classxii_property_attribute.htm" target="_top" xlink:title="Base class of all attributes can be used to decorate a RTTI property.">
<polygon fill="white" stroke="black" points="20,-112.5 20,-131.5 133,-131.5 133,-112.5 20,-112.5"/>
<text text-anchor="middle" x="76.5" y="-119.5" font-family="Helvetica,sans-Serif" font-size="10.00">xiiPropertyAttribute</text>
</a>
</g>
</g>
<!-- Node3&#45;&gt;Node2 -->
<g id="edge2" class="edge">
<title>Node3&#45;&gt;Node2</title>
<path fill="none" stroke="midnightblue" d="M76.5,-101.8C76.5,-92.91 76.5,-82.78 76.5,-75.75"/>
<polygon fill="midnightblue" stroke="midnightblue" points="73,-102.08 76.5,-112.08 80,-102.08 73,-102.08"/>
</g>
<!-- Node4 -->
<g id="node4" class="node">
<title>Node4</title>
<g id="a_node4"><a xlink:href="../../dc/d71/classxii_reflected_class.htm" target="_top" xlink:title="All classes that should be dynamically reflectable, need to be derived from this base class.">
<polygon fill="white" stroke="black" points="26,-168.5 26,-187.5 127,-187.5 127,-168.5 26,-168.5"/>
<text text-anchor="middle" x="76.5" y="-175.5" font-family="Helvetica,sans-Serif" font-size="10.00">xiiReflectedClass</text>
</a>
</g>
</g>
<!-- Node4&#45;&gt;Node3 -->
<g id="edge3" class="edge">
<title>Node4&#45;&gt;Node3</title>
<path fill="none" stroke="midnightblue" d="M76.5,-157.8C76.5,-148.91 76.5,-138.78 76.5,-131.75"/>
<polygon fill="midnightblue" stroke="midnightblue" points="73,-158.08 76.5,-168.08 80,-158.08 73,-158.08"/>
</g>
<!-- Node5 -->
<g id="node5" class="node">
<title>Node5</title>
<g id="a_node5"><a xlink:href="../../d2/d38/classxii_no_base.htm" target="_top" xlink:title="Dummy type to pass to templates and macros that expect a base type for a class that has no base.">
<polygon fill="white" stroke="black" points="43.5,-224.5 43.5,-243.5 109.5,-243.5 109.5,-224.5 43.5,-224.5"/>
<text text-anchor="middle" x="76.5" y="-231.5" font-family="Helvetica,sans-Serif" font-size="10.00">xiiNoBase</text>
</a>
</g>
</g>
<!-- Node5&#45;&gt;Node4 -->
<g id="edge4" class="edge">
<title>Node5&#45;&gt;Node4</title>
<path fill="none" stroke="midnightblue" d="M76.5,-213.8C76.5,-204.91 76.5,-194.78 76.5,-187.75"/>
<polygon fill="midnightblue" stroke="midnightblue" points="73,-214.08 76.5,-224.08 80,-214.08 73,-214.08"/>
</g>
</g>
</svg>
