<?xml version="1.0" encoding="UTF-8" standalone="no"?>
<!DOCTYPE svg PUBLIC "-//W3C//DTD SVG 1.1//EN"
 "http://www.w3.org/Graphics/SVG/1.1/DTD/svg11.dtd">
<!-- Generated by graphviz version 2.43.0 (0)
 -->
<!-- Title: xiiImageConversionStep Pages: 1 -->
<svg width="939pt" height="1491pt"
 viewBox="0.00 0.00 939.00 1491.00" xmlns="http://www.w3.org/2000/svg" xmlns:xlink="http://www.w3.org/1999/xlink">
<g id="graph0" class="graph" transform="scale(1 1) rotate(0) translate(4 1487)">
<title>xiiImageConversionStep</title>
<!-- Node1 -->
<g id="Node000001" class="node">
<title>Node1</title>
<g id="a_Node000001"><a xlink:title="Interface for a single image conversion step.">
<polygon fill="#999999" stroke="#666666" points="470,-1045.5 334,-1045.5 334,-1026.5 470,-1026.5 470,-1045.5"/>
<text text-anchor="middle" x="402" y="-1033.5" font-family="Helvetica,sans-Serif" font-size="10.00">xiiImageConversionStep</text>
</a>
</g>
</g>
<!-- Node4 -->
<g id="Node000004" class="node">
<title>Node4</title>
<g id="a_Node000004"><a xlink:href="../../d1/d20/classxii_image_conversion_step_compress_blocks.html" target="_top" xlink:title="Interface for a single image conversion step where the source format is uncompressed and the target f...">
<polygon fill="white" stroke="#666666" points="697,-1435 512,-1435 512,-1405 697,-1405 697,-1435"/>
<text text-anchor="start" x="520" y="-1423" font-family="Helvetica,sans-Serif" font-size="10.00">xiiImageConversionStepCompress</text>
<text text-anchor="middle" x="604.5" y="-1412" font-family="Helvetica,sans-Serif" font-size="10.00">Blocks</text>
</a>
</g>
</g>
<!-- Node1&#45;&gt;Node4 -->
<g id="edge3_Node000001_Node000004" class="edge">
<title>Node1&#45;&gt;Node4</title>
<g id="a_edge3_Node000001_Node000004"><a xlink:title=" ">
<path fill="none" stroke="#63b8ff" d="M412.83,-1054.84C447.54,-1121.31 563.91,-1344.18 595.52,-1404.71"/>
<polygon fill="#63b8ff" stroke="#63b8ff" points="415.89,-1053.12 408.16,-1045.88 409.68,-1056.36 415.89,-1053.12"/>
</a>
</g>
</g>
<!-- Node7 -->
<g id="Node000007" class="node">
<title>Node7</title>
<g id="a_Node000007"><a xlink:href="../../d0/dbc/classxii_image_conversion_step_decompress_blocks.html" target="_top" xlink:title="Interface for a single image conversion step where the source format is compressed and the target for...">
<polygon fill="white" stroke="#666666" points="703,-1219 506,-1219 506,-1189 703,-1189 703,-1219"/>
<text text-anchor="start" x="514" y="-1207" font-family="Helvetica,sans-Serif" font-size="10.00">xiiImageConversionStepDecompress</text>
<text text-anchor="middle" x="604.5" y="-1196" font-family="Helvetica,sans-Serif" font-size="10.00">Blocks</text>
</a>
</g>
</g>
<!-- Node1&#45;&gt;Node7 -->
<g id="edge6_Node000001_Node000007" class="edge">
<title>Node1&#45;&gt;Node7</title>
<g id="a_edge6_Node000001_Node000007"><a xlink:title=" ">
<path fill="none" stroke="#63b8ff" d="M422.27,-1052.15C460.96,-1084.57 547.64,-1157.19 585.37,-1188.81"/>
<polygon fill="#63b8ff" stroke="#63b8ff" points="424.27,-1049.25 414.35,-1045.51 419.77,-1054.62 424.27,-1049.25"/>
</a>
</g>
</g>
<!-- Node15 -->
<g id="Node000015" class="node">
<title>Node15</title>
<g id="a_Node000015"><a xlink:href="../../d2/d0f/classxii_image_conversion_step_deplanarize.html" target="_top" xlink:title="Interface for a single image conversion step from a planar to a linear format.">
<polygon fill="white" stroke="#666666" points="701.5,-1045.5 507.5,-1045.5 507.5,-1026.5 701.5,-1026.5 701.5,-1045.5"/>
<text text-anchor="middle" x="604.5" y="-1033.5" font-family="Helvetica,sans-Serif" font-size="10.00">xiiImageConversionStepDeplanarize</text>
</a>
</g>
</g>
<!-- Node1&#45;&gt;Node15 -->
<g id="edge14_Node000001_Node000015" class="edge">
<title>Node1&#45;&gt;Node15</title>
<g id="a_edge14_Node000001_Node000015"><a xlink:title=" ">
<path fill="none" stroke="#63b8ff" d="M480.28,-1036C489.11,-1036 498.2,-1036 507.24,-1036"/>
<polygon fill="#63b8ff" stroke="#63b8ff" points="480.04,-1032.5 470.04,-1036 480.04,-1039.5 480.04,-1032.5"/>
</a>
</g>
</g>
<!-- Node17 -->
<g id="Node000017" class="node">
<title>Node17</title>
<g id="a_Node000017"><a xlink:href="../../df/d45/classxii_image_conversion_step_linear.html" target="_top" xlink:title="Interface for a single image conversion step where both the source and target format are uncompressed...">
<polygon fill="white" stroke="#666666" points="687.5,-542.5 521.5,-542.5 521.5,-523.5 687.5,-523.5 687.5,-542.5"/>
<text text-anchor="middle" x="604.5" y="-530.5" font-family="Helvetica,sans-Serif" font-size="10.00">xiiImageConversionStepLinear</text>
</a>
</g>
</g>
<!-- Node1&#45;&gt;Node17 -->
<g id="edge16_Node000001_Node000017" class="edge">
<title>Node1&#45;&gt;Node17</title>
<g id="a_edge16_Node000001_Node000017"><a xlink:title=" ">
<path fill="none" stroke="#63b8ff" d="M410.61,-1016.92C443.79,-933.66 575.35,-603.63 599.63,-542.7"/>
<polygon fill="#63b8ff" stroke="#63b8ff" points="407.28,-1015.82 406.83,-1026.4 413.78,-1018.41 407.28,-1015.82"/>
</a>
</g>
</g>
<!-- Node38 -->
<g id="Node000038" class="node">
<title>Node38</title>
<g id="a_Node000038"><a xlink:href="../../da/db4/classxii_image_conversion_step_planarize.html" target="_top" xlink:title="Interface for a single image conversion step from a linear to a planar format.">
<polygon fill="white" stroke="#666666" points="695,-265.5 514,-265.5 514,-246.5 695,-246.5 695,-265.5"/>
<text text-anchor="middle" x="604.5" y="-253.5" font-family="Helvetica,sans-Serif" font-size="10.00">xiiImageConversionStepPlanarize</text>
</a>
</g>
</g>
<!-- Node1&#45;&gt;Node38 -->
<g id="edge37_Node000001_Node000038" class="edge">
<title>Node1&#45;&gt;Node38</title>
<g id="a_edge37_Node000001_Node000038"><a xlink:title=" ">
<path fill="none" stroke="#63b8ff" d="M405.69,-1016.24C415.41,-946.57 451.12,-706.26 506,-514 534.39,-414.54 584.28,-299.25 599.18,-265.64"/>
<polygon fill="#63b8ff" stroke="#63b8ff" points="402.2,-1015.87 404.3,-1026.25 409.14,-1016.82 402.2,-1015.87"/>
</a>
</g>
</g>
<!-- Node2 -->
<g id="Node000002" class="node">
<title>Node2</title>
<g id="a_Node000002"><a xlink:href="../../dc/d54/classxii_enumerable.html" target="_top" xlink:title=" ">
<polygon fill="white" stroke="#666666" points="298,-1051 102,-1051 102,-1021 298,-1021 298,-1051"/>
<text text-anchor="start" x="110" y="-1039" font-family="Helvetica,sans-Serif" font-size="10.00">xiiEnumerable&lt; xiiImageConversion</text>
<text text-anchor="middle" x="200" y="-1028" font-family="Helvetica,sans-Serif" font-size="10.00">Step &gt;</text>
</a>
</g>
</g>
<!-- Node2&#45;&gt;Node1 -->
<g id="edge1_Node000001_Node000002" class="edge">
<title>Node2&#45;&gt;Node1</title>
<g id="a_edge1_Node000001_Node000002"><a xlink:title=" ">
<path fill="none" stroke="#63b8ff" d="M308.31,-1036C317.02,-1036 325.66,-1036 333.95,-1036"/>
<polygon fill="#63b8ff" stroke="#63b8ff" points="308.07,-1032.5 298.07,-1036 308.07,-1039.5 308.07,-1032.5"/>
</a>
</g>
</g>
<!-- Node3 -->
<g id="Node000003" class="node">
<title>Node3</title>
<g id="a_Node000003"><a xlink:href="../../d2/d38/classxii_no_base.html" target="_top" xlink:title="Dummy type to pass to templates and macros that expect a base type for a class that has no base.">
<polygon fill="white" stroke="#666666" points="66,-1045.5 0,-1045.5 0,-1026.5 66,-1026.5 66,-1045.5"/>
<text text-anchor="middle" x="33" y="-1033.5" font-family="Helvetica,sans-Serif" font-size="10.00">xiiNoBase</text>
</a>
</g>
</g>
<!-- Node3&#45;&gt;Node2 -->
<g id="edge2_Node000002_Node000003" class="edge">
<title>Node3&#45;&gt;Node2</title>
<g id="a_edge2_Node000002_Node000003"><a xlink:title=" ">
<path fill="none" stroke="#63b8ff" d="M76.26,-1036C84.23,-1036 92.86,-1036 101.72,-1036"/>
<polygon fill="#63b8ff" stroke="#63b8ff" points="76.21,-1032.5 66.21,-1036 76.21,-1039.5 76.21,-1032.5"/>
</a>
</g>
</g>
<!-- Node5 -->
<g id="Node000005" class="node">
<title>Node5</title>
<g id="a_Node000005"><a xlink:title=" ">
<polygon fill="white" stroke="#bfbfbf" points="892,-1483 778,-1483 778,-1453 892,-1453 892,-1483"/>
<text text-anchor="start" x="786" y="-1471" font-family="Helvetica,sans-Serif" font-size="10.00">xiiImageConversion</text>
<text text-anchor="middle" x="835" y="-1460" font-family="Helvetica,sans-Serif" font-size="10.00">_CompressBC4</text>
</a>
</g>
</g>
<!-- Node4&#45;&gt;Node5 -->
<g id="edge4_Node000004_Node000005" class="edge">
<title>Node4&#45;&gt;Node5</title>
<g id="a_edge4_Node000004_Node000005"><a xlink:title=" ">
<path fill="none" stroke="#63b8ff" d="M687.21,-1437.17C717.23,-1443.47 750.52,-1450.46 777.8,-1456.19"/>
<polygon fill="#63b8ff" stroke="#63b8ff" points="687.68,-1433.69 677.17,-1435.06 686.24,-1440.54 687.68,-1433.69"/>
</a>
</g>
</g>
<!-- Node6 -->
<g id="Node000006" class="node">
<title>Node6</title>
<g id="a_Node000006"><a xlink:title=" ">
<polygon fill="white" stroke="#bfbfbf" points="892,-1435 778,-1435 778,-1405 892,-1405 892,-1435"/>
<text text-anchor="start" x="786" y="-1423" font-family="Helvetica,sans-Serif" font-size="10.00">xiiImageConversion</text>
<text text-anchor="middle" x="835" y="-1412" font-family="Helvetica,sans-Serif" font-size="10.00">_CompressBC5</text>
</a>
</g>
</g>
<!-- Node4&#45;&gt;Node6 -->
<g id="edge5_Node000004_Node000006" class="edge">
<title>Node4&#45;&gt;Node6</title>
<g id="a_edge5_Node000004_Node000006"><a xlink:title=" ">
<path fill="none" stroke="#63b8ff" d="M707.44,-1420C731.64,-1420 756.59,-1420 777.87,-1420"/>
<polygon fill="#63b8ff" stroke="#63b8ff" points="707.12,-1416.5 697.12,-1420 707.12,-1423.5 707.12,-1416.5"/>
</a>
</g>
</g>
<!-- Node8 -->
<g id="Node000008" class="node">
<title>Node8</title>
<g id="a_Node000008"><a xlink:title=" ">
<polygon fill="white" stroke="#bfbfbf" points="892,-1387 778,-1387 778,-1357 892,-1357 892,-1387"/>
<text text-anchor="start" x="786" y="-1375" font-family="Helvetica,sans-Serif" font-size="10.00">xiiImageConversion</text>
<text text-anchor="middle" x="835" y="-1364" font-family="Helvetica,sans-Serif" font-size="10.00">_BC1_RGBA</text>
</a>
</g>
</g>
<!-- Node7&#45;&gt;Node8 -->
<g id="edge7_Node000007_Node000008" class="edge">
<title>Node7&#45;&gt;Node8</title>
<g id="a_edge7_Node000007_Node000008"><a xlink:title=" ">
<path fill="none" stroke="#63b8ff" d="M620.84,-1227.7C642.99,-1259.95 687.01,-1317.16 739,-1348 750.71,-1354.94 764.37,-1359.89 777.63,-1363.41"/>
<polygon fill="#63b8ff" stroke="#63b8ff" points="623.68,-1225.65 615.19,-1219.31 617.87,-1229.56 623.68,-1225.65"/>
</a>
</g>
</g>
<!-- Node9 -->
<g id="Node000009" class="node">
<title>Node9</title>
<g id="a_Node000009"><a xlink:title=" ">
<polygon fill="white" stroke="#bfbfbf" points="892,-1339 778,-1339 778,-1309 892,-1309 892,-1339"/>
<text text-anchor="start" x="786" y="-1327" font-family="Helvetica,sans-Serif" font-size="10.00">xiiImageConversion</text>
<text text-anchor="middle" x="835" y="-1316" font-family="Helvetica,sans-Serif" font-size="10.00">_BC2_RGBA</text>
</a>
</g>
</g>
<!-- Node7&#45;&gt;Node9 -->
<g id="edge8_Node000007_Node000009" class="edge">
<title>Node7&#45;&gt;Node9</title>
<g id="a_edge8_Node000007_Node000009"><a xlink:title=" ">
<path fill="none" stroke="#63b8ff" d="M629.97,-1226C655.47,-1247.8 697.43,-1280.66 739,-1300 751.03,-1305.6 764.55,-1310.01 777.53,-1313.44"/>
<polygon fill="#63b8ff" stroke="#63b8ff" points="632.14,-1223.24 622.3,-1219.34 627.56,-1228.53 632.14,-1223.24"/>
</a>
</g>
</g>
<!-- Node10 -->
<g id="Node000010" class="node">
<title>Node10</title>
<g id="a_Node000010"><a xlink:title=" ">
<polygon fill="white" stroke="#bfbfbf" points="892,-1291 778,-1291 778,-1261 892,-1261 892,-1291"/>
<text text-anchor="start" x="786" y="-1279" font-family="Helvetica,sans-Serif" font-size="10.00">xiiImageConversion</text>
<text text-anchor="middle" x="835" y="-1268" font-family="Helvetica,sans-Serif" font-size="10.00">_BC3_RGBA</text>
</a>
</g>
</g>
<!-- Node7&#45;&gt;Node10 -->
<g id="edge9_Node000007_Node000010" class="edge">
<title>Node7&#45;&gt;Node10</title>
<g id="a_edge9_Node000007_Node000010"><a xlink:title=" ">
<path fill="none" stroke="#63b8ff" d="M653.97,-1222.72C679.14,-1232.11 710.51,-1243.3 739,-1252 751.53,-1255.82 765.11,-1259.52 777.99,-1262.82"/>
<polygon fill="#63b8ff" stroke="#63b8ff" points="654.89,-1219.33 644.3,-1219.09 652.43,-1225.88 654.89,-1219.33"/>
</a>
</g>
</g>
<!-- Node11 -->
<g id="Node000011" class="node">
<title>Node11</title>
<g id="a_Node000011"><a xlink:title=" ">
<polygon fill="white" stroke="#bfbfbf" points="892,-1243 778,-1243 778,-1213 892,-1213 892,-1243"/>
<text text-anchor="start" x="786" y="-1231" font-family="Helvetica,sans-Serif" font-size="10.00">xiiImageConversion</text>
<text text-anchor="middle" x="835" y="-1220" font-family="Helvetica,sans-Serif" font-size="10.00">_BC4_R</text>
</a>
</g>
</g>
<!-- Node7&#45;&gt;Node11 -->
<g id="edge10_Node000007_Node000011" class="edge">
<title>Node7&#45;&gt;Node11</title>
<g id="a_edge10_Node000007_Node000011"><a xlink:title=" ">
<path fill="none" stroke="#63b8ff" d="M713.31,-1215.32C735.69,-1217.67 758.4,-1220.06 777.99,-1222.12"/>
<polygon fill="#63b8ff" stroke="#63b8ff" points="713.38,-1211.81 703.07,-1214.25 712.65,-1218.77 713.38,-1211.81"/>
</a>
</g>
</g>
<!-- Node12 -->
<g id="Node000012" class="node">
<title>Node12</title>
<g id="a_Node000012"><a xlink:title=" ">
<polygon fill="white" stroke="#bfbfbf" points="892,-1195 778,-1195 778,-1165 892,-1165 892,-1195"/>
<text text-anchor="start" x="786" y="-1183" font-family="Helvetica,sans-Serif" font-size="10.00">xiiImageConversion</text>
<text text-anchor="middle" x="835" y="-1172" font-family="Helvetica,sans-Serif" font-size="10.00">_BC5_RG</text>
</a>
</g>
</g>
<!-- Node7&#45;&gt;Node12 -->
<g id="edge11_Node000007_Node000012" class="edge">
<title>Node7&#45;&gt;Node12</title>
<g id="a_edge11_Node000007_Node000012"><a xlink:title=" ">
<path fill="none" stroke="#63b8ff" d="M713.31,-1192.68C735.69,-1190.33 758.4,-1187.94 777.99,-1185.88"/>
<polygon fill="#63b8ff" stroke="#63b8ff" points="712.65,-1189.23 703.07,-1193.75 713.38,-1196.19 712.65,-1189.23"/>
</a>
</g>
</g>
<!-- Node13 -->
<g id="Node000013" class="node">
<title>Node13</title>
<g id="a_Node000013"><a xlink:title=" ">
<polygon fill="white" stroke="#bfbfbf" points="892,-1147 778,-1147 778,-1117 892,-1117 892,-1147"/>
<text text-anchor="start" x="786" y="-1135" font-family="Helvetica,sans-Serif" font-size="10.00">xiiImageConversion</text>
<text text-anchor="middle" x="835" y="-1124" font-family="Helvetica,sans-Serif" font-size="10.00">_BC6_RGB</text>
</a>
</g>
</g>
<!-- Node7&#45;&gt;Node13 -->
<g id="edge12_Node000007_Node000013" class="edge">
<title>Node7&#45;&gt;Node13</title>
<g id="a_edge12_Node000007_Node000013"><a xlink:title=" ">
<path fill="none" stroke="#63b8ff" d="M653.97,-1185.28C679.14,-1175.89 710.51,-1164.7 739,-1156 751.53,-1152.18 765.11,-1148.48 777.99,-1145.18"/>
<polygon fill="#63b8ff" stroke="#63b8ff" points="652.43,-1182.12 644.3,-1188.91 654.89,-1188.67 652.43,-1182.12"/>
</a>
</g>
</g>
<!-- Node14 -->
<g id="Node000014" class="node">
<title>Node14</title>
<g id="a_Node000014"><a xlink:title=" ">
<polygon fill="white" stroke="#bfbfbf" points="892,-1099 778,-1099 778,-1069 892,-1069 892,-1099"/>
<text text-anchor="start" x="786" y="-1087" font-family="Helvetica,sans-Serif" font-size="10.00">xiiImageConversion</text>
<text text-anchor="middle" x="835" y="-1076" font-family="Helvetica,sans-Serif" font-size="10.00">_BC7_RGBA</text>
</a>
</g>
</g>
<!-- Node7&#45;&gt;Node14 -->
<g id="edge13_Node000007_Node000014" class="edge">
<title>Node7&#45;&gt;Node14</title>
<g id="a_edge13_Node000007_Node000014"><a xlink:title=" ">
<path fill="none" stroke="#63b8ff" d="M629.97,-1182C655.47,-1160.2 697.43,-1127.34 739,-1108 751.03,-1102.4 764.55,-1097.99 777.53,-1094.56"/>
<polygon fill="#63b8ff" stroke="#63b8ff" points="627.56,-1179.47 622.3,-1188.66 632.14,-1184.76 627.56,-1179.47"/>
</a>
</g>
</g>
<!-- Node16 -->
<g id="Node000016" class="node">
<title>Node16</title>
<g id="a_Node000016"><a xlink:title=" ">
<polygon fill="white" stroke="#bfbfbf" points="892,-1051 778,-1051 778,-1021 892,-1021 892,-1051"/>
<text text-anchor="start" x="786" y="-1039" font-family="Helvetica,sans-Serif" font-size="10.00">xiiImageConversion</text>
<text text-anchor="middle" x="835" y="-1028" font-family="Helvetica,sans-Serif" font-size="10.00">_NV12_sRGB</text>
</a>
</g>
</g>
<!-- Node15&#45;&gt;Node16 -->
<g id="edge15_Node000015_Node000016" class="edge">
<title>Node15&#45;&gt;Node16</title>
<g id="a_edge15_Node000015_Node000016"><a xlink:title=" ">
<path fill="none" stroke="#63b8ff" d="M711.84,-1036C734.68,-1036 757.94,-1036 777.95,-1036"/>
<polygon fill="#63b8ff" stroke="#63b8ff" points="711.74,-1032.5 701.74,-1036 711.74,-1039.5 711.74,-1032.5"/>
</a>
</g>
</g>
<!-- Node18 -->
<g id="Node000018" class="node">
<title>Node18</title>
<g id="a_Node000018"><a xlink:title=" ">
<polygon fill="white" stroke="#bfbfbf" points="927.5,-1002.5 742.5,-1002.5 742.5,-961.5 927.5,-961.5 927.5,-1002.5"/>
<text text-anchor="start" x="750.5" y="-990.5" font-family="Helvetica,sans-Serif" font-size="10.00">xiiImageConversionStep</text>
<text text-anchor="start" x="750.5" y="-979.5" font-family="Helvetica,sans-Serif" font-size="10.00">_Compress16bpp&lt; compressFunc,</text>
<text text-anchor="middle" x="835" y="-968.5" font-family="Helvetica,sans-Serif" font-size="10.00"> templateTargetFormat &gt;</text>
</a>
</g>
</g>
<!-- Node17&#45;&gt;Node18 -->
<g id="edge17_Node000017_Node000018" class="edge">
<title>Node17&#45;&gt;Node18</title>
<g id="a_edge17_Node000017_Node000018"><a xlink:title=" ">
<path fill="none" stroke="#8b1a1a" d="M605.73,-552.8C607.6,-619.16 622.74,-836.04 739,-952 742.55,-955.54 746.52,-958.67 750.76,-961.42"/>
<polygon fill="#8b1a1a" stroke="#8b1a1a" points="609.22,-552.45 605.52,-542.53 602.23,-552.6 609.22,-552.45"/>
</a>
</g>
</g>
<!-- Node19 -->
<g id="Node000019" class="node">
<title>Node19</title>
<g id="a_Node000019"><a xlink:title=" ">
<polygon fill="white" stroke="#bfbfbf" points="926.5,-943.5 743.5,-943.5 743.5,-902.5 926.5,-902.5 926.5,-943.5"/>
<text text-anchor="start" x="751.5" y="-931.5" font-family="Helvetica,sans-Serif" font-size="10.00">xiiImageConversionStep</text>
<text text-anchor="start" x="751.5" y="-920.5" font-family="Helvetica,sans-Serif" font-size="10.00">_Decompress16bpp&lt; decompress</text>
<text text-anchor="middle" x="835" y="-909.5" font-family="Helvetica,sans-Serif" font-size="10.00">Func, templateSourceFormat &gt;</text>
</a>
</g>
</g>
<!-- Node17&#45;&gt;Node19 -->
<g id="edge18_Node000017_Node000019" class="edge">
<title>Node17&#45;&gt;Node19</title>
<g id="a_edge18_Node000017_Node000019"><a xlink:title=" ">
<path fill="none" stroke="#8b1a1a" d="M606.92,-552.74C612.3,-612.89 636.72,-795.63 739,-893 742.63,-896.46 746.66,-899.52 750.95,-902.23"/>
<polygon fill="#8b1a1a" stroke="#8b1a1a" points="610.4,-552.38 606.1,-542.7 603.42,-552.95 610.4,-552.38"/>
</a>
</g>
</g>
<!-- Node20 -->
<g id="Node000020" class="node">
<title>Node20</title>
<g id="a_Node000020"><a xlink:title=" ">
<polygon fill="white" stroke="#bfbfbf" points="892,-884 778,-884 778,-854 892,-854 892,-884"/>
<text text-anchor="start" x="786" y="-872" font-family="Helvetica,sans-Serif" font-size="10.00">xiiImageConversion</text>
<text text-anchor="middle" x="835" y="-861" font-family="Helvetica,sans-Serif" font-size="10.00">_BGRX_BGRA</text>
</a>
</g>
</g>
<!-- Node17&#45;&gt;Node20 -->
<g id="edge19_Node000017_Node000020" class="edge">
<title>Node17&#45;&gt;Node20</title>
<g id="a_edge19_Node000017_Node000020"><a xlink:title=" ">
<path fill="none" stroke="#63b8ff" d="M607.92,-552.87C615.74,-608.19 645.53,-765.15 739,-845 749.86,-854.28 763.83,-860.06 777.69,-863.63"/>
<polygon fill="#63b8ff" stroke="#63b8ff" points="611.35,-552.13 606.57,-542.67 604.41,-553.05 611.35,-552.13"/>
</a>
</g>
</g>
<!-- Node21 -->
<g id="Node000021" class="node">
<title>Node21</title>
<g id="a_Node000021"><a xlink:title=" ">
<polygon fill="white" stroke="#bfbfbf" points="892,-836 778,-836 778,-806 892,-806 892,-836"/>
<text text-anchor="start" x="786" y="-824" font-family="Helvetica,sans-Serif" font-size="10.00">xiiImageConversion</text>
<text text-anchor="middle" x="835" y="-813" font-family="Helvetica,sans-Serif" font-size="10.00">_DiscardChannels</text>
</a>
</g>
</g>
<!-- Node17&#45;&gt;Node21 -->
<g id="edge20_Node000017_Node000021" class="edge">
<title>Node17&#45;&gt;Node21</title>
<g id="a_edge20_Node000017_Node000021"><a xlink:title=" ">
<path fill="none" stroke="#63b8ff" d="M609.57,-552.74C620.8,-602.04 656.98,-731.34 739,-797 750.02,-805.82 763.88,-811.45 777.58,-815.02"/>
<polygon fill="#63b8ff" stroke="#63b8ff" points="612.94,-551.76 607.39,-542.74 606.1,-553.26 612.94,-551.76"/>
</a>
</g>
</g>
<!-- Node22 -->
<g id="Node000022" class="node">
<title>Node22</title>
<g id="a_Node000022"><a xlink:title=" ">
<polygon fill="white" stroke="#bfbfbf" points="892,-788 778,-788 778,-758 892,-758 892,-788"/>
<text text-anchor="start" x="786" y="-776" font-family="Helvetica,sans-Serif" font-size="10.00">xiiImageConversion</text>
<text text-anchor="middle" x="835" y="-765" font-family="Helvetica,sans-Serif" font-size="10.00">_F16_F32</text>
</a>
</g>
</g>
<!-- Node17&#45;&gt;Node22 -->
<g id="edge21_Node000017_Node000022" class="edge">
<title>Node17&#45;&gt;Node22</title>
<g id="a_edge21_Node000017_Node000022"><a xlink:title=" ">
<path fill="none" stroke="#63b8ff" d="M611.74,-552.25C626.56,-594.75 668.01,-696.99 739,-749 750.25,-757.24 764.04,-762.67 777.59,-766.24"/>
<polygon fill="#63b8ff" stroke="#63b8ff" points="614.99,-550.93 608.48,-542.58 608.36,-553.17 614.99,-550.93"/>
</a>
</g>
</g>
<!-- Node23 -->
<g id="Node000023" class="node">
<title>Node23</title>
<g id="a_Node000023"><a xlink:title=" ">
<polygon fill="white" stroke="#bfbfbf" points="892,-740 778,-740 778,-710 892,-710 892,-740"/>
<text text-anchor="start" x="786" y="-728" font-family="Helvetica,sans-Serif" font-size="10.00">xiiImageConversion</text>
<text text-anchor="middle" x="835" y="-717" font-family="Helvetica,sans-Serif" font-size="10.00">_F32_F16</text>
</a>
</g>
</g>
<!-- Node17&#45;&gt;Node23 -->
<g id="edge22_Node000017_Node000023" class="edge">
<title>Node17&#45;&gt;Node23</title>
<g id="a_edge22_Node000017_Node000023"><a xlink:title=" ">
<path fill="none" stroke="#63b8ff" d="M615.08,-551.95C633.84,-587.06 678.9,-662.19 739,-701 750.58,-708.47 764.34,-713.62 777.74,-717.17"/>
<polygon fill="#63b8ff" stroke="#63b8ff" points="618.03,-550.04 610.3,-542.8 611.83,-553.28 618.03,-550.04"/>
</a>
</g>
</g>
<!-- Node24 -->
<g id="Node000024" class="node">
<title>Node24</title>
<g id="a_Node000024"><a xlink:title=" ">
<polygon fill="white" stroke="#bfbfbf" points="892,-692 778,-692 778,-662 892,-662 892,-692"/>
<text text-anchor="start" x="786" y="-680" font-family="Helvetica,sans-Serif" font-size="10.00">xiiImageConversion</text>
<text text-anchor="middle" x="835" y="-669" font-family="Helvetica,sans-Serif" font-size="10.00">_F32_S8</text>
</a>
</g>
</g>
<!-- Node17&#45;&gt;Node24 -->
<g id="edge23_Node000017_Node000024" class="edge">
<title>Node17&#45;&gt;Node24</title>
<g id="a_edge23_Node000017_Node000024"><a xlink:title=" ">
<path fill="none" stroke="#63b8ff" d="M619.87,-550.48C642.45,-576.77 688.88,-626.28 739,-653 750.86,-659.32 764.45,-664.03 777.56,-667.51"/>
<polygon fill="#63b8ff" stroke="#63b8ff" points="622.52,-548.2 613.4,-542.81 617.17,-552.71 622.52,-548.2"/>
</a>
</g>
</g>
<!-- Node25 -->
<g id="Node000025" class="node">
<title>Node25</title>
<g id="a_Node000025"><a xlink:title=" ">
<polygon fill="white" stroke="#bfbfbf" points="892,-644 778,-644 778,-614 892,-614 892,-644"/>
<text text-anchor="start" x="786" y="-632" font-family="Helvetica,sans-Serif" font-size="10.00">xiiImageConversion</text>
<text text-anchor="middle" x="835" y="-621" font-family="Helvetica,sans-Serif" font-size="10.00">_F32_U16</text>
</a>
</g>
</g>
<!-- Node17&#45;&gt;Node25 -->
<g id="edge24_Node000017_Node000025" class="edge">
<title>Node17&#45;&gt;Node25</title>
<g id="a_edge24_Node000017_Node000025"><a xlink:title=" ">
<path fill="none" stroke="#63b8ff" d="M629.3,-548.18C655.35,-564.24 698.78,-589.35 739,-605 751.29,-609.78 764.84,-613.87 777.77,-617.24"/>
<polygon fill="#63b8ff" stroke="#63b8ff" points="630.86,-545.03 620.52,-542.71 627.16,-550.97 630.86,-545.03"/>
</a>
</g>
</g>
<!-- Node26 -->
<g id="Node000026" class="node">
<title>Node26</title>
<g id="a_Node000026"><a xlink:title=" ">
<polygon fill="white" stroke="#bfbfbf" points="892,-596 778,-596 778,-566 892,-566 892,-596"/>
<text text-anchor="start" x="786" y="-584" font-family="Helvetica,sans-Serif" font-size="10.00">xiiImageConversion</text>
<text text-anchor="middle" x="835" y="-573" font-family="Helvetica,sans-Serif" font-size="10.00">_F32_U8</text>
</a>
</g>
</g>
<!-- Node17&#45;&gt;Node26 -->
<g id="edge25_Node000017_Node000026" class="edge">
<title>Node17&#45;&gt;Node26</title>
<g id="a_edge25_Node000017_Node000026"><a xlink:title=" ">
<path fill="none" stroke="#63b8ff" d="M661.08,-544.68C696.49,-552.11 742.21,-561.72 777.74,-569.18"/>
<polygon fill="#63b8ff" stroke="#63b8ff" points="661.42,-541.17 650.92,-542.54 659.98,-548.02 661.42,-541.17"/>
</a>
</g>
</g>
<!-- Node27 -->
<g id="Node000027" class="node">
<title>Node27</title>
<g id="a_Node000027"><a xlink:title=" ">
<polygon fill="white" stroke="#bfbfbf" points="892,-548 778,-548 778,-518 892,-518 892,-548"/>
<text text-anchor="start" x="786" y="-536" font-family="Helvetica,sans-Serif" font-size="10.00">xiiImageConversion</text>
<text text-anchor="middle" x="835" y="-525" font-family="Helvetica,sans-Serif" font-size="10.00">_F32_sRGB</text>
</a>
</g>
</g>
<!-- Node17&#45;&gt;Node27 -->
<g id="edge26_Node000017_Node000027" class="edge">
<title>Node17&#45;&gt;Node27</title>
<g id="a_edge26_Node000017_Node000027"><a xlink:title=" ">
<path fill="none" stroke="#63b8ff" d="M697.96,-533C725.04,-533 753.82,-533 777.91,-533"/>
<polygon fill="#63b8ff" stroke="#63b8ff" points="697.67,-529.5 687.67,-533 697.67,-536.5 697.67,-529.5"/>
</a>
</g>
</g>
<!-- Node28 -->
<g id="Node000028" class="node">
<title>Node28</title>
<g id="a_Node000028"><a xlink:title=" ">
<polygon fill="white" stroke="#bfbfbf" points="900,-500 770,-500 770,-470 900,-470 900,-500"/>
<text text-anchor="start" x="778" y="-488" font-family="Helvetica,sans-Serif" font-size="10.00">xiiImageConversion</text>
<text text-anchor="middle" x="835" y="-477" font-family="Helvetica,sans-Serif" font-size="10.00">_FLOAT_to_R11G11B10</text>
</a>
</g>
</g>
<!-- Node17&#45;&gt;Node28 -->
<g id="edge27_Node000017_Node000028" class="edge">
<title>Node17&#45;&gt;Node28</title>
<g id="a_edge27_Node000017_Node000028"><a xlink:title=" ">
<path fill="none" stroke="#63b8ff" d="M660.79,-521.38C693.6,-514.49 735.35,-505.72 769.63,-498.52"/>
<polygon fill="#63b8ff" stroke="#63b8ff" points="659.98,-517.98 650.92,-523.46 661.42,-524.83 659.98,-517.98"/>
</a>
</g>
</g>
<!-- Node29 -->
<g id="Node000029" class="node">
<title>Node29</title>
<g id="a_Node000029"><a xlink:title=" ">
<polygon fill="white" stroke="#bfbfbf" points="892,-452 778,-452 778,-422 892,-422 892,-452"/>
<text text-anchor="start" x="786" y="-440" font-family="Helvetica,sans-Serif" font-size="10.00">xiiImageConversion</text>
<text text-anchor="middle" x="835" y="-429" font-family="Helvetica,sans-Serif" font-size="10.00">_Pad_To_RGBA_F32</text>
</a>
</g>
</g>
<!-- Node17&#45;&gt;Node29 -->
<g id="edge28_Node000017_Node000029" class="edge">
<title>Node17&#45;&gt;Node29</title>
<g id="a_edge28_Node000017_Node000029"><a xlink:title=" ">
<path fill="none" stroke="#63b8ff" d="M629.3,-517.82C655.35,-501.76 698.78,-476.65 739,-461 751.29,-456.22 764.84,-452.13 777.77,-448.76"/>
<polygon fill="#63b8ff" stroke="#63b8ff" points="627.16,-515.03 620.52,-523.29 630.86,-520.97 627.16,-515.03"/>
</a>
</g>
</g>
<!-- Node30 -->
<g id="Node000030" class="node">
<title>Node30</title>
<g id="a_Node000030"><a xlink:title=" ">
<polygon fill="white" stroke="#bfbfbf" points="892,-404 778,-404 778,-374 892,-374 892,-404"/>
<text text-anchor="start" x="786" y="-392" font-family="Helvetica,sans-Serif" font-size="10.00">xiiImageConversion</text>
<text text-anchor="middle" x="835" y="-381" font-family="Helvetica,sans-Serif" font-size="10.00">_Pad_To_RGBA_U8</text>
</a>
</g>
</g>
<!-- Node17&#45;&gt;Node30 -->
<g id="edge29_Node000017_Node000030" class="edge">
<title>Node17&#45;&gt;Node30</title>
<g id="a_edge29_Node000017_Node000030"><a xlink:title=" ">
<path fill="none" stroke="#63b8ff" d="M619.87,-515.52C642.45,-489.23 688.88,-439.72 739,-413 750.86,-406.68 764.45,-401.97 777.56,-398.49"/>
<polygon fill="#63b8ff" stroke="#63b8ff" points="617.17,-513.29 613.4,-523.19 622.52,-517.8 617.17,-513.29"/>
</a>
</g>
</g>
<!-- Node31 -->
<g id="Node000031" class="node">
<title>Node31</title>
<g id="a_Node000031"><a xlink:title=" ">
<polygon fill="white" stroke="#bfbfbf" points="900,-356 770,-356 770,-326 900,-326 900,-356"/>
<text text-anchor="start" x="778" y="-344" font-family="Helvetica,sans-Serif" font-size="10.00">xiiImageConversion</text>
<text text-anchor="middle" x="835" y="-333" font-family="Helvetica,sans-Serif" font-size="10.00">_R11G11B10_to_FLOAT</text>
</a>
</g>
</g>
<!-- Node17&#45;&gt;Node31 -->
<g id="edge30_Node000017_Node000031" class="edge">
<title>Node17&#45;&gt;Node31</title>
<g id="a_edge30_Node000017_Node000031"><a xlink:title=" ">
<path fill="none" stroke="#63b8ff" d="M615.08,-514.05C633.84,-478.94 678.9,-403.81 739,-365 748.29,-359 758.99,-354.5 769.78,-351.13"/>
<polygon fill="#63b8ff" stroke="#63b8ff" points="611.83,-512.72 610.3,-523.2 618.03,-515.96 611.83,-512.72"/>
</a>
</g>
</g>
<!-- Node32 -->
<g id="Node000032" class="node">
<title>Node32</title>
<g id="a_Node000032"><a xlink:title=" ">
<polygon fill="white" stroke="#bfbfbf" points="897.5,-308 772.5,-308 772.5,-278 897.5,-278 897.5,-308"/>
<text text-anchor="start" x="780.5" y="-296" font-family="Helvetica,sans-Serif" font-size="10.00">xiiImageConversion</text>
<text text-anchor="middle" x="835" y="-285" font-family="Helvetica,sans-Serif" font-size="10.00">_R11G11B10_to_HALF</text>
</a>
</g>
</g>
<!-- Node17&#45;&gt;Node32 -->
<g id="edge31_Node000017_Node000032" class="edge">
<title>Node17&#45;&gt;Node32</title>
<g id="a_edge31_Node000017_Node000032"><a xlink:title=" ">
<path fill="none" stroke="#63b8ff" d="M611.74,-513.75C626.56,-471.25 668.01,-369.01 739,-317 748.74,-309.86 760.39,-304.84 772.13,-301.3"/>
<polygon fill="#63b8ff" stroke="#63b8ff" points="608.36,-512.83 608.48,-523.42 614.99,-515.07 608.36,-512.83"/>
</a>
</g>
</g>
<!-- Node33 -->
<g id="Node000033" class="node">
<title>Node33</title>
<g id="a_Node000033"><a xlink:title=" ">
<polygon fill="white" stroke="#bfbfbf" points="892,-260 778,-260 778,-230 892,-230 892,-260"/>
<text text-anchor="start" x="786" y="-248" font-family="Helvetica,sans-Serif" font-size="10.00">xiiImageConversion</text>
<text text-anchor="middle" x="835" y="-237" font-family="Helvetica,sans-Serif" font-size="10.00">_S8_F32</text>
</a>
</g>
</g>
<!-- Node17&#45;&gt;Node33 -->
<g id="edge32_Node000017_Node000033" class="edge">
<title>Node17&#45;&gt;Node33</title>
<g id="a_edge32_Node000017_Node000033"><a xlink:title=" ">
<path fill="none" stroke="#63b8ff" d="M609.57,-513.26C620.8,-463.96 656.98,-334.66 739,-269 750.02,-260.18 763.88,-254.55 777.58,-250.98"/>
<polygon fill="#63b8ff" stroke="#63b8ff" points="606.1,-512.74 607.39,-523.26 612.94,-514.24 606.1,-512.74"/>
</a>
</g>
</g>
<!-- Node34 -->
<g id="Node000034" class="node">
<title>Node34</title>
<g id="a_Node000034"><a xlink:title=" ">
<polygon fill="white" stroke="#bfbfbf" points="892,-212 778,-212 778,-182 892,-182 892,-212"/>
<text text-anchor="start" x="786" y="-200" font-family="Helvetica,sans-Serif" font-size="10.00">xiiImageConversion</text>
<text text-anchor="middle" x="835" y="-189" font-family="Helvetica,sans-Serif" font-size="10.00">_U16_F32</text>
</a>
</g>
</g>
<!-- Node17&#45;&gt;Node34 -->
<g id="edge33_Node000017_Node000034" class="edge">
<title>Node17&#45;&gt;Node34</title>
<g id="a_edge33_Node000017_Node000034"><a xlink:title=" ">
<path fill="none" stroke="#63b8ff" d="M612.5,-514.02C636.42,-449.53 714.81,-241.66 739,-221 749.86,-211.72 763.83,-205.94 777.69,-202.37"/>
<polygon fill="#63b8ff" stroke="#63b8ff" points="609.21,-512.81 609.03,-523.4 615.78,-515.24 609.21,-512.81"/>
</a>
</g>
</g>
<!-- Node35 -->
<g id="Node000035" class="node">
<title>Node35</title>
<g id="a_Node000035"><a xlink:title=" ">
<polygon fill="white" stroke="#bfbfbf" points="892,-164 778,-164 778,-134 892,-134 892,-164"/>
<text text-anchor="start" x="786" y="-152" font-family="Helvetica,sans-Serif" font-size="10.00">xiiImageConversion</text>
<text text-anchor="middle" x="835" y="-141" font-family="Helvetica,sans-Serif" font-size="10.00">_U8_F32</text>
</a>
</g>
</g>
<!-- Node17&#45;&gt;Node35 -->
<g id="edge34_Node000017_Node000035" class="edge">
<title>Node17&#45;&gt;Node35</title>
<g id="a_edge34_Node000017_Node000035"><a xlink:title=" ">
<path fill="none" stroke="#63b8ff" d="M612.93,-513.63C629.39,-470.62 670.09,-363.83 703,-274 719.4,-229.25 703.74,-205.06 739,-173 749.7,-163.27 763.77,-157.36 777.78,-153.8"/>
<polygon fill="#63b8ff" stroke="#63b8ff" points="609.59,-512.55 609.28,-523.14 616.13,-515.06 609.59,-512.55"/>
</a>
</g>
</g>
<!-- Node36 -->
<g id="Node000036" class="node">
<title>Node36</title>
<g id="a_Node000036"><a xlink:title=" ">
<polygon fill="white" stroke="#bfbfbf" points="892,-116 778,-116 778,-86 892,-86 892,-116"/>
<text text-anchor="start" x="786" y="-104" font-family="Helvetica,sans-Serif" font-size="10.00">xiiImageConversion</text>
<text text-anchor="middle" x="835" y="-93" font-family="Helvetica,sans-Serif" font-size="10.00">_sRGB_F32</text>
</a>
</g>
</g>
<!-- Node17&#45;&gt;Node36 -->
<g id="edge35_Node000017_Node000036" class="edge">
<title>Node17&#45;&gt;Node36</title>
<g id="a_edge35_Node000017_Node000036"><a xlink:title=" ">
<path fill="none" stroke="#63b8ff" d="M613.63,-513.87C631.51,-471.33 674.86,-365.44 703,-274 723.04,-208.89 691.08,-173.42 739,-125 749.29,-114.6 763.39,-108.48 777.57,-104.94"/>
<polygon fill="#63b8ff" stroke="#63b8ff" points="610.33,-512.7 609.66,-523.27 616.78,-515.42 610.33,-512.7"/>
</a>
</g>
</g>
<!-- Node37 -->
<g id="Node000037" class="node">
<title>Node37</title>
<g id="a_Node000037"><a xlink:title=" ">
<polygon fill="white" stroke="#bfbfbf" points="931,-67.5 739,-67.5 739,-48.5 931,-48.5 931,-67.5"/>
<text text-anchor="middle" x="835" y="-55.5" font-family="Helvetica,sans-Serif" font-size="10.00">xiiImageSwizzleConversion32_2103</text>
</a>
</g>
</g>
<!-- Node17&#45;&gt;Node37 -->
<g id="edge36_Node000017_Node000037" class="edge">
<title>Node17&#45;&gt;Node37</title>
<g id="a_edge36_Node000017_Node000037"><a xlink:title=" ">
<path fill="none" stroke="#63b8ff" d="M614.01,-513.98C632.66,-471.67 677.45,-366.2 703,-274 726.77,-188.23 676.59,-140.46 739,-77 742.66,-73.28 746.82,-70.19 751.31,-67.62"/>
<polygon fill="#63b8ff" stroke="#63b8ff" points="610.72,-512.77 609.87,-523.33 617.12,-515.61 610.72,-512.77"/>
</a>
</g>
</g>
<!-- Node39 -->
<g id="Node000039" class="node">
<title>Node39</title>
<g id="a_Node000039"><a xlink:title=" ">
<polygon fill="white" stroke="#bfbfbf" points="892,-30 778,-30 778,0 892,0 892,-30"/>
<text text-anchor="start" x="786" y="-18" font-family="Helvetica,sans-Serif" font-size="10.00">xiiImageConversion</text>
<text text-anchor="middle" x="835" y="-7" font-family="Helvetica,sans-Serif" font-size="10.00">_sRGB_NV12</text>
</a>
</g>
</g>
<!-- Node38&#45;&gt;Node39 -->
<g id="edge38_Node000038_Node000039" class="edge">
<title>Node38&#45;&gt;Node39</title>
<g id="a_edge38_Node000038_Node000039"><a xlink:title=" ">
<path fill="none" stroke="#63b8ff" d="M611.72,-236.67C626.48,-193.96 667.83,-91.26 739,-39 750.24,-30.74 764.03,-25.31 777.58,-21.75"/>
<polygon fill="#63b8ff" stroke="#63b8ff" points="608.32,-235.79 608.46,-246.38 614.96,-238.01 608.32,-235.79"/>
</a>
</g>
</g>
</g>
</svg>
