<?xml version="1.0" encoding="UTF-8" standalone="no"?>
<!DOCTYPE svg PUBLIC "-//W3C//DTD SVG 1.1//EN"
 "http://www.w3.org/Graphics/SVG/1.1/DTD/svg11.dtd">
<!-- Generated by graphviz version 2.43.0 (0)
 -->
<!-- Title: xiiImageConversionStep Pages: 1 -->
<!--zoomable 1522 -->
<svg id="main" version="1.1" xmlns="http://www.w3.org/2000/svg" xmlns:xlink="http://www.w3.org/1999/xlink" xml:space="preserve" onload="init(evt)">
<style type="text/css"><![CDATA[
.edge:hover path { stroke: red; }
.edge:hover polygon { stroke: red; fill: red; }
]]></style>
<script type="text/javascript"><![CDATA[
var edges = document.getElementsByTagName('g');
if (edges && edges.length) {
  for (var i=0;i<edges.length;i++) {
    if (edges[i].id.substr(0,4)=='edge') {
      edges[i].setAttribute('class','edge');
    }
  }
}
]]></script>
        <defs>
                <circle id="rim" cx="0" cy="0" r="7"/>
                <circle id="rim2" cx="0" cy="0" r="3.5"/>
                <g id="zoomPlus">
                        <use xlink:href="#rim" fill="#404040">
                                <set attributeName="fill" to="#808080" begin="zoomplus.mouseover" end="zoomplus.mouseout"/>
                        </use>
                        <path d="M-4,0h8M0,-4v8" fill="none" stroke="white" stroke-width="1.5" pointer-events="none"/>
                </g>
                <g id="zoomMin">
                        <use xlink:href="#rim" fill="#404040">
                                <set attributeName="fill" to="#808080" begin="zoomminus.mouseover" end="zoomminus.mouseout"/>
                        </use>
                        <path d="M-4,0h8" fill="none" stroke="white" stroke-width="1.5" pointer-events="none"/>
                </g>
                <g id="dirArrow">
                        <path fill="none" stroke="white" stroke-width="1.5" d="M0,-3.0v7 M-2.5,-0.5L0,-3.0L2.5,-0.5"/>
                </g>
               <g id="resetDef">
                       <use xlink:href="#rim2" fill="#404040">
                               <set attributeName="fill" to="#808080" begin="reset.mouseover" end="reset.mouseout"/>
                       </use>
               </g>
        </defs>

<script type="text/javascript">
var viewWidth = 939;
var viewHeight = 1522;
var sectionId = 'dynsection-0';
</script>
<script xlink:href="../../svgpan.js"/>
<svg id="graph" class="graph">
<g id="viewport">
<title>xiiImageConversionStep</title>
<polygon fill="white" stroke="transparent" points="-4,4 -4,-1518 935,-1518 935,4 -4,4"/>
<!-- Node1 -->
<g id="node1" class="node">
<title>Node1</title>
<g id="a_node1"><a xlink:title="Interface for a single image conversion step.">
<polygon fill="#bfbfbf" stroke="black" points="334,-1048 334,-1067 470,-1067 470,-1048 334,-1048"/>
<text text-anchor="middle" x="402" y="-1055" font-family="Helvetica,sans-Serif" font-size="10.00">xiiImageConversionStep</text>
</a>
</g>
</g>
<!-- Node4 -->
<g id="node4" class="node">
<title>Node4</title>
<g id="a_node4"><a xlink:href="../../d1/d20/classxii_image_conversion_step_compress_blocks.htm" target="_top" xlink:title="Interface for a single image conversion step where the source format is uncompressed and the target f...">
<polygon fill="white" stroke="black" points="512,-1434.5 512,-1464.5 697,-1464.5 697,-1434.5 512,-1434.5"/>
<text text-anchor="start" x="520" y="-1452.5" font-family="Helvetica,sans-Serif" font-size="10.00">xiiImageConversionStepCompress</text>
<text text-anchor="middle" x="604.5" y="-1441.5" font-family="Helvetica,sans-Serif" font-size="10.00">Blocks</text>
</a>
</g>
</g>
<!-- Node1&#45;&gt;Node4 -->
<g id="edge3" class="edge">
<title>Node1&#45;&gt;Node4</title>
<path fill="none" stroke="midnightblue" d="M412.59,-1076.24C447.06,-1143.63 564.31,-1372.87 595.71,-1434.27"/>
<polygon fill="midnightblue" stroke="midnightblue" points="415.63,-1074.5 407.96,-1067.19 409.39,-1077.69 415.63,-1074.5"/>
</g>
<!-- Node7 -->
<g id="node7" class="node">
<title>Node7</title>
<g id="a_node7"><a xlink:href="../../d0/dbc/classxii_image_conversion_step_decompress_blocks.htm" target="_top" xlink:title="Interface for a single image conversion step where the source format is compressed and the target for...">
<polygon fill="white" stroke="black" points="506,-1213.5 506,-1243.5 703,-1243.5 703,-1213.5 506,-1213.5"/>
<text text-anchor="start" x="514" y="-1231.5" font-family="Helvetica,sans-Serif" font-size="10.00">xiiImageConversionStepDecompress</text>
<text text-anchor="middle" x="604.5" y="-1220.5" font-family="Helvetica,sans-Serif" font-size="10.00">Blocks</text>
</a>
</g>
</g>
<!-- Node1&#45;&gt;Node7 -->
<g id="edge6" class="edge">
<title>Node1&#45;&gt;Node7</title>
<path fill="none" stroke="midnightblue" d="M422.29,-1073.95C461.1,-1107.05 548.11,-1181.26 585.67,-1213.29"/>
<polygon fill="midnightblue" stroke="midnightblue" points="424.23,-1071.01 414.35,-1067.18 419.69,-1076.34 424.23,-1071.01"/>
</g>
<!-- Node15 -->
<g id="node15" class="node">
<title>Node15</title>
<g id="a_node15"><a xlink:href="../../d2/d0f/classxii_image_conversion_step_deplanarize.htm" target="_top" xlink:title="Interface for a single image conversion step from a planar to a linear format.">
<polygon fill="white" stroke="black" points="507.5,-1048 507.5,-1067 701.5,-1067 701.5,-1048 507.5,-1048"/>
<text text-anchor="middle" x="604.5" y="-1055" font-family="Helvetica,sans-Serif" font-size="10.00">xiiImageConversionStepDeplanarize</text>
</a>
</g>
</g>
<!-- Node1&#45;&gt;Node15 -->
<g id="edge14" class="edge">
<title>Node1&#45;&gt;Node15</title>
<path fill="none" stroke="midnightblue" d="M480.28,-1057.5C489.11,-1057.5 498.2,-1057.5 507.24,-1057.5"/>
<polygon fill="midnightblue" stroke="midnightblue" points="480.04,-1054 470.04,-1057.5 480.04,-1061 480.04,-1054"/>
</g>
<!-- Node17 -->
<g id="node17" class="node">
<title>Node17</title>
<g id="a_node17"><a xlink:href="../../df/d45/classxii_image_conversion_step_linear.htm" target="_top" xlink:title="Interface for a single image conversion step where both the source and target format are uncompressed...">
<polygon fill="white" stroke="black" points="521.5,-535 521.5,-554 687.5,-554 687.5,-535 521.5,-535"/>
<text text-anchor="middle" x="604.5" y="-542" font-family="Helvetica,sans-Serif" font-size="10.00">xiiImageConversionStepLinear</text>
</a>
</g>
</g>
<!-- Node1&#45;&gt;Node17 -->
<g id="edge16" class="edge">
<title>Node1&#45;&gt;Node17</title>
<path fill="none" stroke="midnightblue" d="M410.5,-1038.3C443.53,-953.81 575.32,-616.6 599.63,-554.39"/>
<polygon fill="midnightblue" stroke="midnightblue" points="407.21,-1037.12 406.83,-1047.71 413.73,-1039.67 407.21,-1037.12"/>
</g>
<!-- Node38 -->
<g id="node38" class="node">
<title>Node38</title>
<g id="a_node38"><a xlink:href="../../da/db4/classxii_image_conversion_step_planarize.htm" target="_top" xlink:title="Interface for a single image conversion step from a linear to a planar format.">
<polygon fill="white" stroke="black" points="514,-252 514,-271 695,-271 695,-252 514,-252"/>
<text text-anchor="middle" x="604.5" y="-259" font-family="Helvetica,sans-Serif" font-size="10.00">xiiImageConversionStepPlanarize</text>
</a>
</g>
</g>
<!-- Node1&#45;&gt;Node38 -->
<g id="edge37" class="edge">
<title>Node1&#45;&gt;Node38</title>
<path fill="none" stroke="midnightblue" d="M405.63,-1037.84C415.28,-967.49 451.07,-722.04 506,-525.5 534.41,-423.86 584.29,-305.79 599.18,-271.38"/>
<polygon fill="midnightblue" stroke="midnightblue" points="402.14,-1037.54 404.26,-1047.92 409.07,-1038.48 402.14,-1037.54"/>
</g>
<!-- Node2 -->
<g id="node2" class="node">
<title>Node2</title>
<g id="a_node2"><a xlink:href="../../dc/d54/classxii_enumerable.htm" target="_top" xlink:title=" ">
<polygon fill="white" stroke="black" points="102,-1042.5 102,-1072.5 298,-1072.5 298,-1042.5 102,-1042.5"/>
<text text-anchor="start" x="110" y="-1060.5" font-family="Helvetica,sans-Serif" font-size="10.00">xiiEnumerable&lt; xiiImageConversion</text>
<text text-anchor="middle" x="200" y="-1049.5" font-family="Helvetica,sans-Serif" font-size="10.00">Step &gt;</text>
</a>
</g>
</g>
<!-- Node2&#45;&gt;Node1 -->
<g id="edge1" class="edge">
<title>Node2&#45;&gt;Node1</title>
<path fill="none" stroke="midnightblue" d="M308.31,-1057.5C317.02,-1057.5 325.66,-1057.5 333.95,-1057.5"/>
<polygon fill="midnightblue" stroke="midnightblue" points="308.07,-1054 298.07,-1057.5 308.07,-1061 308.07,-1054"/>
</g>
<!-- Node3 -->
<g id="node3" class="node">
<title>Node3</title>
<g id="a_node3"><a xlink:href="../../d2/d38/classxii_no_base.htm" target="_top" xlink:title="Dummy type to pass to templates and macros that expect a base type for a class that has no base.">
<polygon fill="white" stroke="black" points="0,-1048 0,-1067 66,-1067 66,-1048 0,-1048"/>
<text text-anchor="middle" x="33" y="-1055" font-family="Helvetica,sans-Serif" font-size="10.00">xiiNoBase</text>
</a>
</g>
</g>
<!-- Node3&#45;&gt;Node2 -->
<g id="edge2" class="edge">
<title>Node3&#45;&gt;Node2</title>
<path fill="none" stroke="midnightblue" d="M76.26,-1057.5C84.23,-1057.5 92.86,-1057.5 101.72,-1057.5"/>
<polygon fill="midnightblue" stroke="midnightblue" points="76.21,-1054 66.21,-1057.5 76.21,-1061 76.21,-1054"/>
</g>
<!-- Node5 -->
<g id="node5" class="node">
<title>Node5</title>
<g id="a_node5"><a xlink:title=" ">
<polygon fill="white" stroke="#bfbfbf" points="778,-1483.5 778,-1513.5 892,-1513.5 892,-1483.5 778,-1483.5"/>
<text text-anchor="start" x="786" y="-1501.5" font-family="Helvetica,sans-Serif" font-size="10.00">xiiImageConversion</text>
<text text-anchor="middle" x="835" y="-1490.5" font-family="Helvetica,sans-Serif" font-size="10.00">_CompressBC4</text>
</a>
</g>
</g>
<!-- Node4&#45;&gt;Node5 -->
<g id="edge4" class="edge">
<title>Node4&#45;&gt;Node5</title>
<path fill="none" stroke="midnightblue" d="M685.77,-1466.71C716.16,-1473.23 750.07,-1480.5 777.79,-1486.45"/>
<polygon fill="midnightblue" stroke="midnightblue" points="686.12,-1463.21 675.61,-1464.53 684.65,-1470.05 686.12,-1463.21"/>
</g>
<!-- Node6 -->
<g id="node6" class="node">
<title>Node6</title>
<g id="a_node6"><a xlink:title=" ">
<polygon fill="white" stroke="#bfbfbf" points="778,-1434.5 778,-1464.5 892,-1464.5 892,-1434.5 778,-1434.5"/>
<text text-anchor="start" x="786" y="-1452.5" font-family="Helvetica,sans-Serif" font-size="10.00">xiiImageConversion</text>
<text text-anchor="middle" x="835" y="-1441.5" font-family="Helvetica,sans-Serif" font-size="10.00">_CompressBC5</text>
</a>
</g>
</g>
<!-- Node4&#45;&gt;Node6 -->
<g id="edge5" class="edge">
<title>Node4&#45;&gt;Node6</title>
<path fill="none" stroke="midnightblue" d="M707.44,-1449.5C731.64,-1449.5 756.59,-1449.5 777.87,-1449.5"/>
<polygon fill="midnightblue" stroke="midnightblue" points="707.12,-1446 697.12,-1449.5 707.12,-1453 707.12,-1446"/>
</g>
<!-- Node8 -->
<g id="node8" class="node">
<title>Node8</title>
<g id="a_node8"><a xlink:title=" ">
<polygon fill="white" stroke="#bfbfbf" points="778,-1385.5 778,-1415.5 892,-1415.5 892,-1385.5 778,-1385.5"/>
<text text-anchor="start" x="786" y="-1403.5" font-family="Helvetica,sans-Serif" font-size="10.00">xiiImageConversion</text>
<text text-anchor="middle" x="835" y="-1392.5" font-family="Helvetica,sans-Serif" font-size="10.00">_BC1_RGBA</text>
</a>
</g>
</g>
<!-- Node7&#45;&gt;Node8 -->
<g id="edge7" class="edge">
<title>Node7&#45;&gt;Node8</title>
<path fill="none" stroke="midnightblue" d="M620.34,-1252.36C642.19,-1285.42 686.17,-1344.68 739,-1376.5 750.66,-1383.52 764.31,-1388.5 777.56,-1392.02"/>
<polygon fill="midnightblue" stroke="midnightblue" points="623.16,-1250.26 614.78,-1243.77 617.28,-1254.07 623.16,-1250.26"/>
</g>
<!-- Node9 -->
<g id="node9" class="node">
<title>Node9</title>
<g id="a_node9"><a xlink:title=" ">
<polygon fill="white" stroke="#bfbfbf" points="778,-1336.5 778,-1366.5 892,-1366.5 892,-1336.5 778,-1336.5"/>
<text text-anchor="start" x="786" y="-1354.5" font-family="Helvetica,sans-Serif" font-size="10.00">xiiImageConversion</text>
<text text-anchor="middle" x="835" y="-1343.5" font-family="Helvetica,sans-Serif" font-size="10.00">_BC2_RGBA</text>
</a>
</g>
</g>
<!-- Node7&#45;&gt;Node9 -->
<g id="edge8" class="edge">
<title>Node7&#45;&gt;Node9</title>
<path fill="none" stroke="midnightblue" d="M629,-1250.46C654.3,-1272.97 696.65,-1307.42 739,-1327.5 751.14,-1333.26 764.84,-1337.75 777.97,-1341.2"/>
<polygon fill="midnightblue" stroke="midnightblue" points="631.17,-1247.71 621.4,-1243.61 626.48,-1252.91 631.17,-1247.71"/>
</g>
<!-- Node10 -->
<g id="node10" class="node">
<title>Node10</title>
<g id="a_node10"><a xlink:title=" ">
<polygon fill="white" stroke="#bfbfbf" points="778,-1287.5 778,-1317.5 892,-1317.5 892,-1287.5 778,-1287.5"/>
<text text-anchor="start" x="786" y="-1305.5" font-family="Helvetica,sans-Serif" font-size="10.00">xiiImageConversion</text>
<text text-anchor="middle" x="835" y="-1294.5" font-family="Helvetica,sans-Serif" font-size="10.00">_BC3_RGBA</text>
</a>
</g>
</g>
<!-- Node7&#45;&gt;Node10 -->
<g id="edge9" class="edge">
<title>Node7&#45;&gt;Node10</title>
<path fill="none" stroke="midnightblue" d="M651.66,-1247.23C677.17,-1257.22 709.57,-1269.3 739,-1278.5 751.5,-1282.41 765.08,-1286.14 777.95,-1289.44"/>
<polygon fill="midnightblue" stroke="midnightblue" points="652.82,-1243.93 642.24,-1243.52 650.25,-1250.44 652.82,-1243.93"/>
</g>
<!-- Node11 -->
<g id="node11" class="node">
<title>Node11</title>
<g id="a_node11"><a xlink:title=" ">
<polygon fill="white" stroke="#bfbfbf" points="778,-1238.5 778,-1268.5 892,-1268.5 892,-1238.5 778,-1238.5"/>
<text text-anchor="start" x="786" y="-1256.5" font-family="Helvetica,sans-Serif" font-size="10.00">xiiImageConversion</text>
<text text-anchor="middle" x="835" y="-1245.5" font-family="Helvetica,sans-Serif" font-size="10.00">_BC4_R</text>
</a>
</g>
</g>
<!-- Node7&#45;&gt;Node11 -->
<g id="edge10" class="edge">
<title>Node7&#45;&gt;Node11</title>
<path fill="none" stroke="midnightblue" d="M713.01,-1240.26C735.49,-1242.72 758.31,-1245.22 777.99,-1247.37"/>
<polygon fill="midnightblue" stroke="midnightblue" points="713.39,-1236.78 703.07,-1239.17 712.63,-1243.74 713.39,-1236.78"/>
</g>
<!-- Node12 -->
<g id="node12" class="node">
<title>Node12</title>
<g id="a_node12"><a xlink:title=" ">
<polygon fill="white" stroke="#bfbfbf" points="778,-1189.5 778,-1219.5 892,-1219.5 892,-1189.5 778,-1189.5"/>
<text text-anchor="start" x="786" y="-1207.5" font-family="Helvetica,sans-Serif" font-size="10.00">xiiImageConversion</text>
<text text-anchor="middle" x="835" y="-1196.5" font-family="Helvetica,sans-Serif" font-size="10.00">_BC5_RG</text>
</a>
</g>
</g>
<!-- Node7&#45;&gt;Node12 -->
<g id="edge11" class="edge">
<title>Node7&#45;&gt;Node12</title>
<path fill="none" stroke="midnightblue" d="M713.31,-1217.18C735.69,-1214.83 758.4,-1212.44 777.99,-1210.38"/>
<polygon fill="midnightblue" stroke="midnightblue" points="712.65,-1213.73 703.07,-1218.25 713.38,-1220.69 712.65,-1213.73"/>
</g>
<!-- Node13 -->
<g id="node13" class="node">
<title>Node13</title>
<g id="a_node13"><a xlink:title=" ">
<polygon fill="white" stroke="#bfbfbf" points="778,-1140.5 778,-1170.5 892,-1170.5 892,-1140.5 778,-1140.5"/>
<text text-anchor="start" x="786" y="-1158.5" font-family="Helvetica,sans-Serif" font-size="10.00">xiiImageConversion</text>
<text text-anchor="middle" x="835" y="-1147.5" font-family="Helvetica,sans-Serif" font-size="10.00">_BC6_RGB</text>
</a>
</g>
</g>
<!-- Node7&#45;&gt;Node13 -->
<g id="edge12" class="edge">
<title>Node7&#45;&gt;Node13</title>
<path fill="none" stroke="midnightblue" d="M654.29,-1209.79C679.42,-1200.46 710.66,-1189.31 739,-1180.5 751.46,-1176.63 764.96,-1172.84 777.76,-1169.43"/>
<polygon fill="midnightblue" stroke="midnightblue" points="652.76,-1206.63 644.62,-1213.41 655.22,-1213.18 652.76,-1206.63"/>
</g>
<!-- Node14 -->
<g id="node14" class="node">
<title>Node14</title>
<g id="a_node14"><a xlink:title=" ">
<polygon fill="white" stroke="#bfbfbf" points="778,-1091.5 778,-1121.5 892,-1121.5 892,-1091.5 778,-1091.5"/>
<text text-anchor="start" x="786" y="-1109.5" font-family="Helvetica,sans-Serif" font-size="10.00">xiiImageConversion</text>
<text text-anchor="middle" x="835" y="-1098.5" font-family="Helvetica,sans-Serif" font-size="10.00">_BC7_RGBA</text>
</a>
</g>
</g>
<!-- Node7&#45;&gt;Node14 -->
<g id="edge13" class="edge">
<title>Node7&#45;&gt;Node14</title>
<path fill="none" stroke="midnightblue" d="M629.54,-1206.72C654.99,-1184.75 697.19,-1151.33 739,-1131.5 751.02,-1125.8 764.53,-1121.25 777.52,-1117.68"/>
<polygon fill="midnightblue" stroke="midnightblue" points="627.11,-1204.2 621.89,-1213.42 631.72,-1209.46 627.11,-1204.2"/>
</g>
<!-- Node16 -->
<g id="node16" class="node">
<title>Node16</title>
<g id="a_node16"><a xlink:title=" ">
<polygon fill="white" stroke="#bfbfbf" points="778,-1042.5 778,-1072.5 892,-1072.5 892,-1042.5 778,-1042.5"/>
<text text-anchor="start" x="786" y="-1060.5" font-family="Helvetica,sans-Serif" font-size="10.00">xiiImageConversion</text>
<text text-anchor="middle" x="835" y="-1049.5" font-family="Helvetica,sans-Serif" font-size="10.00">_NV12_sRGB</text>
</a>
</g>
</g>
<!-- Node15&#45;&gt;Node16 -->
<g id="edge15" class="edge">
<title>Node15&#45;&gt;Node16</title>
<path fill="none" stroke="midnightblue" d="M711.84,-1057.5C734.68,-1057.5 757.94,-1057.5 777.95,-1057.5"/>
<polygon fill="midnightblue" stroke="midnightblue" points="711.74,-1054 701.74,-1057.5 711.74,-1061 711.74,-1054"/>
</g>
<!-- Node18 -->
<g id="node18" class="node">
<title>Node18</title>
<g id="a_node18"><a xlink:title=" ">
<polygon fill="white" stroke="#bfbfbf" points="742.5,-982 742.5,-1023 927.5,-1023 927.5,-982 742.5,-982"/>
<text text-anchor="start" x="750.5" y="-1011" font-family="Helvetica,sans-Serif" font-size="10.00">xiiImageConversionStep</text>
<text text-anchor="start" x="750.5" y="-1000" font-family="Helvetica,sans-Serif" font-size="10.00">_Compress16bpp&lt; compressFunc,</text>
<text text-anchor="middle" x="835" y="-989" font-family="Helvetica,sans-Serif" font-size="10.00"> templateTargetFormat &gt;</text>
</a>
</g>
</g>
<!-- Node17&#45;&gt;Node18 -->
<g id="edge17" class="edge">
<title>Node17&#45;&gt;Node18</title>
<path fill="none" stroke="#8b1a1a" d="M605.58,-564.3C606.93,-631.55 620.58,-853.67 739,-972.5 742.54,-976.05 746.5,-979.19 750.73,-981.95"/>
<polygon fill="#8b1a1a" stroke="#8b1a1a" points="609.08,-564.18 605.45,-554.23 602.08,-564.27 609.08,-564.18"/>
</g>
<!-- Node19 -->
<g id="node19" class="node">
<title>Node19</title>
<g id="a_node19"><a xlink:title=" ">
<polygon fill="white" stroke="#bfbfbf" points="743.5,-922 743.5,-963 926.5,-963 926.5,-922 743.5,-922"/>
<text text-anchor="start" x="751.5" y="-951" font-family="Helvetica,sans-Serif" font-size="10.00">xiiImageConversionStep</text>
<text text-anchor="start" x="751.5" y="-940" font-family="Helvetica,sans-Serif" font-size="10.00">_Decompress16bpp&lt; decompress</text>
<text text-anchor="middle" x="835" y="-929" font-family="Helvetica,sans-Serif" font-size="10.00">Func, templateSourceFormat &gt;</text>
</a>
</g>
</g>
<!-- Node17&#45;&gt;Node19 -->
<g id="edge18" class="edge">
<title>Node17&#45;&gt;Node19</title>
<path fill="none" stroke="#8b1a1a" d="M606.8,-564.17C611.86,-624.91 635.52,-811.43 739,-911.5 743.12,-915.48 747.75,-918.95 752.7,-921.97"/>
<polygon fill="#8b1a1a" stroke="#8b1a1a" points="610.27,-563.76 606.03,-554.05 603.29,-564.29 610.27,-563.76"/>
</g>
<!-- Node20 -->
<g id="node20" class="node">
<title>Node20</title>
<g id="a_node20"><a xlink:title=" ">
<polygon fill="white" stroke="#bfbfbf" points="778,-872.5 778,-902.5 892,-902.5 892,-872.5 778,-872.5"/>
<text text-anchor="start" x="786" y="-890.5" font-family="Helvetica,sans-Serif" font-size="10.00">xiiImageConversion</text>
<text text-anchor="middle" x="835" y="-879.5" font-family="Helvetica,sans-Serif" font-size="10.00">_BGRX_BGRA</text>
</a>
</g>
</g>
<!-- Node17&#45;&gt;Node20 -->
<g id="edge19" class="edge">
<title>Node17&#45;&gt;Node20</title>
<path fill="none" stroke="midnightblue" d="M607.73,-563.97C615.18,-619.55 644.28,-780.2 739,-862.5 749.81,-871.9 763.76,-877.82 777.62,-881.53"/>
<polygon fill="midnightblue" stroke="midnightblue" points="611.21,-563.53 606.49,-554.04 604.26,-564.4 611.21,-563.53"/>
</g>
<!-- Node21 -->
<g id="node21" class="node">
<title>Node21</title>
<g id="a_node21"><a xlink:title=" ">
<polygon fill="white" stroke="#bfbfbf" points="778,-823.5 778,-853.5 892,-853.5 892,-823.5 778,-823.5"/>
<text text-anchor="start" x="786" y="-841.5" font-family="Helvetica,sans-Serif" font-size="10.00">xiiImageConversion</text>
<text text-anchor="middle" x="835" y="-830.5" font-family="Helvetica,sans-Serif" font-size="10.00">_DiscardChannels</text>
</a>
</g>
</g>
<!-- Node17&#45;&gt;Node21 -->
<g id="edge20" class="edge">
<title>Node17&#45;&gt;Node21</title>
<path fill="none" stroke="midnightblue" d="M609.41,-564.21C620.37,-614.07 656.13,-745.98 739,-813.5 749.97,-822.44 763.82,-828.21 777.52,-831.93"/>
<polygon fill="midnightblue" stroke="midnightblue" points="612.78,-563.19 607.29,-554.13 605.93,-564.63 612.78,-563.19"/>
</g>
<!-- Node22 -->
<g id="node22" class="node">
<title>Node22</title>
<g id="a_node22"><a xlink:title=" ">
<polygon fill="white" stroke="#bfbfbf" points="778,-774.5 778,-804.5 892,-804.5 892,-774.5 778,-774.5"/>
<text text-anchor="start" x="786" y="-792.5" font-family="Helvetica,sans-Serif" font-size="10.00">xiiImageConversion</text>
<text text-anchor="middle" x="835" y="-781.5" font-family="Helvetica,sans-Serif" font-size="10.00">_F16_F32</text>
</a>
</g>
</g>
<!-- Node17&#45;&gt;Node22 -->
<g id="edge21" class="edge">
<title>Node17&#45;&gt;Node22</title>
<path fill="none" stroke="midnightblue" d="M611.58,-563.77C626.17,-606.79 667.39,-711.03 739,-764.5 750.21,-772.87 763.98,-778.44 777.53,-782.15"/>
<polygon fill="midnightblue" stroke="midnightblue" points="614.89,-562.63 608.44,-554.22 608.24,-564.82 614.89,-562.63"/>
</g>
<!-- Node23 -->
<g id="node23" class="node">
<title>Node23</title>
<g id="a_node23"><a xlink:title=" ">
<polygon fill="white" stroke="#bfbfbf" points="778,-725.5 778,-755.5 892,-755.5 892,-725.5 778,-725.5"/>
<text text-anchor="start" x="786" y="-743.5" font-family="Helvetica,sans-Serif" font-size="10.00">xiiImageConversion</text>
<text text-anchor="middle" x="835" y="-732.5" font-family="Helvetica,sans-Serif" font-size="10.00">_F32_F16</text>
</a>
</g>
</g>
<!-- Node17&#45;&gt;Node23 -->
<g id="edge22" class="edge">
<title>Node17&#45;&gt;Node23</title>
<path fill="none" stroke="midnightblue" d="M614.76,-563.23C633.27,-598.66 678.32,-675.51 739,-715.5 750.54,-723.1 764.28,-728.39 777.68,-732.08"/>
<polygon fill="midnightblue" stroke="midnightblue" points="617.73,-561.34 610.07,-554.02 611.49,-564.52 617.73,-561.34"/>
</g>
<!-- Node24 -->
<g id="node24" class="node">
<title>Node24</title>
<g id="a_node24"><a xlink:title=" ">
<polygon fill="white" stroke="#bfbfbf" points="778,-676.5 778,-706.5 892,-706.5 892,-676.5 778,-676.5"/>
<text text-anchor="start" x="786" y="-694.5" font-family="Helvetica,sans-Serif" font-size="10.00">xiiImageConversion</text>
<text text-anchor="middle" x="835" y="-683.5" font-family="Helvetica,sans-Serif" font-size="10.00">_F32_S8</text>
</a>
</g>
</g>
<!-- Node17&#45;&gt;Node24 -->
<g id="edge23" class="edge">
<title>Node17&#45;&gt;Node24</title>
<path fill="none" stroke="midnightblue" d="M619.5,-561.82C641.92,-588.38 688.5,-638.98 739,-666.5 750.83,-672.95 764.41,-677.79 777.52,-681.42"/>
<polygon fill="midnightblue" stroke="midnightblue" points="622.18,-559.56 613.1,-554.1 616.79,-564.03 622.18,-559.56"/>
</g>
<!-- Node25 -->
<g id="node25" class="node">
<title>Node25</title>
<g id="a_node25"><a xlink:title=" ">
<polygon fill="white" stroke="#bfbfbf" points="778,-627.5 778,-657.5 892,-657.5 892,-627.5 778,-627.5"/>
<text text-anchor="start" x="786" y="-645.5" font-family="Helvetica,sans-Serif" font-size="10.00">xiiImageConversion</text>
<text text-anchor="middle" x="835" y="-634.5" font-family="Helvetica,sans-Serif" font-size="10.00">_F32_U16</text>
</a>
</g>
</g>
<!-- Node17&#45;&gt;Node25 -->
<g id="edge24" class="edge">
<title>Node17&#45;&gt;Node25</title>
<path fill="none" stroke="midnightblue" d="M628.87,-559.57C654.88,-575.79 698.56,-601.4 739,-617.5 751.28,-622.39 764.83,-626.61 777.76,-630.12"/>
<polygon fill="midnightblue" stroke="midnightblue" points="630.46,-556.43 620.13,-554.06 626.72,-562.35 630.46,-556.43"/>
</g>
<!-- Node26 -->
<g id="node26" class="node">
<title>Node26</title>
<g id="a_node26"><a xlink:title=" ">
<polygon fill="white" stroke="#bfbfbf" points="778,-578.5 778,-608.5 892,-608.5 892,-578.5 778,-578.5"/>
<text text-anchor="start" x="786" y="-596.5" font-family="Helvetica,sans-Serif" font-size="10.00">xiiImageConversion</text>
<text text-anchor="middle" x="835" y="-585.5" font-family="Helvetica,sans-Serif" font-size="10.00">_F32_U8</text>
</a>
</g>
</g>
<!-- Node17&#45;&gt;Node26 -->
<g id="edge25" class="edge">
<title>Node17&#45;&gt;Node26</title>
<path fill="none" stroke="midnightblue" d="M660.01,-556.19C695.52,-563.81 741.75,-573.72 777.63,-581.41"/>
<polygon fill="midnightblue" stroke="midnightblue" points="660.34,-552.68 649.83,-554.01 658.87,-559.52 660.34,-552.68"/>
</g>
<!-- Node27 -->
<g id="node27" class="node">
<title>Node27</title>
<g id="a_node27"><a xlink:title=" ">
<polygon fill="white" stroke="#bfbfbf" points="778,-529.5 778,-559.5 892,-559.5 892,-529.5 778,-529.5"/>
<text text-anchor="start" x="786" y="-547.5" font-family="Helvetica,sans-Serif" font-size="10.00">xiiImageConversion</text>
<text text-anchor="middle" x="835" y="-536.5" font-family="Helvetica,sans-Serif" font-size="10.00">_F32_sRGB</text>
</a>
</g>
</g>
<!-- Node17&#45;&gt;Node27 -->
<g id="edge26" class="edge">
<title>Node17&#45;&gt;Node27</title>
<path fill="none" stroke="midnightblue" d="M697.96,-544.5C725.04,-544.5 753.82,-544.5 777.91,-544.5"/>
<polygon fill="midnightblue" stroke="midnightblue" points="697.67,-541 687.67,-544.5 697.67,-548 697.67,-541"/>
</g>
<!-- Node28 -->
<g id="node28" class="node">
<title>Node28</title>
<g id="a_node28"><a xlink:title=" ">
<polygon fill="white" stroke="#bfbfbf" points="770,-480.5 770,-510.5 900,-510.5 900,-480.5 770,-480.5"/>
<text text-anchor="start" x="778" y="-498.5" font-family="Helvetica,sans-Serif" font-size="10.00">xiiImageConversion</text>
<text text-anchor="middle" x="835" y="-487.5" font-family="Helvetica,sans-Serif" font-size="10.00">_FLOAT_to_R11G11B10</text>
</a>
</g>
</g>
<!-- Node17&#45;&gt;Node28 -->
<g id="edge27" class="edge">
<title>Node17&#45;&gt;Node28</title>
<path fill="none" stroke="midnightblue" d="M659.77,-532.86C692.82,-525.78 735.21,-516.68 769.91,-509.24"/>
<polygon fill="midnightblue" stroke="midnightblue" points="658.87,-529.48 649.83,-534.99 660.34,-536.32 658.87,-529.48"/>
</g>
<!-- Node29 -->
<g id="node29" class="node">
<title>Node29</title>
<g id="a_node29"><a xlink:title=" ">
<polygon fill="white" stroke="#bfbfbf" points="778,-431.5 778,-461.5 892,-461.5 892,-431.5 778,-431.5"/>
<text text-anchor="start" x="786" y="-449.5" font-family="Helvetica,sans-Serif" font-size="10.00">xiiImageConversion</text>
<text text-anchor="middle" x="835" y="-438.5" font-family="Helvetica,sans-Serif" font-size="10.00">_Pad_To_RGBA_F32</text>
</a>
</g>
</g>
<!-- Node17&#45;&gt;Node29 -->
<g id="edge28" class="edge">
<title>Node17&#45;&gt;Node29</title>
<path fill="none" stroke="midnightblue" d="M628.39,-529.39C654.29,-512.89 698.18,-486.65 739,-470.5 751.34,-465.62 764.98,-461.48 777.98,-458.09"/>
<polygon fill="midnightblue" stroke="midnightblue" points="626.21,-526.63 619.71,-535 630.01,-532.52 626.21,-526.63"/>
</g>
<!-- Node30 -->
<g id="node30" class="node">
<title>Node30</title>
<g id="a_node30"><a xlink:title=" ">
<polygon fill="white" stroke="#bfbfbf" points="778,-382.5 778,-412.5 892,-412.5 892,-382.5 778,-382.5"/>
<text text-anchor="start" x="786" y="-400.5" font-family="Helvetica,sans-Serif" font-size="10.00">xiiImageConversion</text>
<text text-anchor="middle" x="835" y="-389.5" font-family="Helvetica,sans-Serif" font-size="10.00">_Pad_To_RGBA_U8</text>
</a>
</g>
</g>
<!-- Node17&#45;&gt;Node30 -->
<g id="edge29" class="edge">
<title>Node17&#45;&gt;Node30</title>
<path fill="none" stroke="midnightblue" d="M619.44,-526.97C641.76,-500.1 688.23,-448.97 739,-421.5 750.82,-415.1 764.39,-410.37 777.51,-406.88"/>
<polygon fill="midnightblue" stroke="midnightblue" points="616.67,-524.82 613.06,-534.78 622.1,-529.25 616.67,-524.82"/>
</g>
<!-- Node31 -->
<g id="node31" class="node">
<title>Node31</title>
<g id="a_node31"><a xlink:title=" ">
<polygon fill="white" stroke="#bfbfbf" points="770,-333.5 770,-363.5 900,-363.5 900,-333.5 770,-333.5"/>
<text text-anchor="start" x="778" y="-351.5" font-family="Helvetica,sans-Serif" font-size="10.00">xiiImageConversion</text>
<text text-anchor="middle" x="835" y="-340.5" font-family="Helvetica,sans-Serif" font-size="10.00">_R11G11B10_to_FLOAT</text>
</a>
</g>
</g>
<!-- Node17&#45;&gt;Node31 -->
<g id="edge30" class="edge">
<title>Node17&#45;&gt;Node31</title>
<path fill="none" stroke="midnightblue" d="M614.7,-525.6C633.09,-489.87 677.96,-412.42 739,-372.5 748.25,-366.45 758.93,-361.92 769.72,-358.54"/>
<polygon fill="midnightblue" stroke="midnightblue" points="611.39,-524.38 610.03,-534.89 617.65,-527.53 611.39,-524.38"/>
</g>
<!-- Node32 -->
<g id="node32" class="node">
<title>Node32</title>
<g id="a_node32"><a xlink:title=" ">
<polygon fill="white" stroke="#bfbfbf" points="772.5,-284.5 772.5,-314.5 897.5,-314.5 897.5,-284.5 772.5,-284.5"/>
<text text-anchor="start" x="780.5" y="-302.5" font-family="Helvetica,sans-Serif" font-size="10.00">xiiImageConversion</text>
<text text-anchor="middle" x="835" y="-291.5" font-family="Helvetica,sans-Serif" font-size="10.00">_R11G11B10_to_HALF</text>
</a>
</g>
</g>
<!-- Node17&#45;&gt;Node32 -->
<g id="edge31" class="edge">
<title>Node17&#45;&gt;Node32</title>
<path fill="none" stroke="midnightblue" d="M611.52,-525.09C625.98,-481.78 666.94,-376.87 739,-323.5 748.71,-316.31 760.34,-311.27 772.08,-307.72"/>
<polygon fill="midnightblue" stroke="midnightblue" points="608.15,-524.11 608.41,-534.71 614.81,-526.27 608.15,-524.11"/>
</g>
<!-- Node33 -->
<g id="node33" class="node">
<title>Node33</title>
<g id="a_node33"><a xlink:title=" ">
<polygon fill="white" stroke="#bfbfbf" points="778,-235.5 778,-265.5 892,-265.5 892,-235.5 778,-235.5"/>
<text text-anchor="start" x="786" y="-253.5" font-family="Helvetica,sans-Serif" font-size="10.00">xiiImageConversion</text>
<text text-anchor="middle" x="835" y="-242.5" font-family="Helvetica,sans-Serif" font-size="10.00">_S8_F32</text>
</a>
</g>
</g>
<!-- Node17&#45;&gt;Node33 -->
<g id="edge32" class="edge">
<title>Node17&#45;&gt;Node33</title>
<path fill="none" stroke="midnightblue" d="M609.28,-524.98C620.01,-475.08 655.43,-342.02 739,-274.5 749.98,-265.63 763.83,-259.98 777.53,-256.41"/>
<polygon fill="midnightblue" stroke="midnightblue" points="605.85,-524.31 607.26,-534.81 612.7,-525.72 605.85,-524.31"/>
</g>
<!-- Node34 -->
<g id="node34" class="node">
<title>Node34</title>
<g id="a_node34"><a xlink:title=" ">
<polygon fill="white" stroke="#bfbfbf" points="778,-186.5 778,-216.5 892,-216.5 892,-186.5 778,-186.5"/>
<text text-anchor="start" x="786" y="-204.5" font-family="Helvetica,sans-Serif" font-size="10.00">xiiImageConversion</text>
<text text-anchor="middle" x="835" y="-193.5" font-family="Helvetica,sans-Serif" font-size="10.00">_U16_F32</text>
</a>
</g>
</g>
<!-- Node17&#45;&gt;Node34 -->
<g id="edge33" class="edge">
<title>Node17&#45;&gt;Node34</title>
<path fill="none" stroke="midnightblue" d="M612.47,-525.1C636.3,-459.17 714.44,-246.65 739,-225.5 749.83,-216.18 763.78,-210.39 777.64,-206.82"/>
<polygon fill="midnightblue" stroke="midnightblue" points="609.11,-524.09 609.01,-534.69 615.69,-526.47 609.11,-524.09"/>
</g>
<!-- Node35 -->
<g id="node35" class="node">
<title>Node35</title>
<g id="a_node35"><a xlink:title=" ">
<polygon fill="white" stroke="#bfbfbf" points="778,-137.5 778,-167.5 892,-167.5 892,-137.5 778,-137.5"/>
<text text-anchor="start" x="786" y="-155.5" font-family="Helvetica,sans-Serif" font-size="10.00">xiiImageConversion</text>
<text text-anchor="middle" x="835" y="-144.5" font-family="Helvetica,sans-Serif" font-size="10.00">_U8_F32</text>
</a>
</g>
</g>
<!-- Node17&#45;&gt;Node35 -->
<g id="edge34" class="edge">
<title>Node17&#45;&gt;Node35</title>
<path fill="none" stroke="midnightblue" d="M612.72,-525.37C629.07,-481.94 670.08,-372.53 703,-280.5 719.47,-234.44 702.96,-209.57 739,-176.5 749.65,-166.72 763.71,-160.79 777.73,-157.23"/>
<polygon fill="midnightblue" stroke="midnightblue" points="609.36,-524.34 609.11,-534.94 615.91,-526.81 609.36,-524.34"/>
</g>
<!-- Node36 -->
<g id="node36" class="node">
<title>Node36</title>
<g id="a_node36"><a xlink:title=" ">
<polygon fill="white" stroke="#bfbfbf" points="778,-88.5 778,-118.5 892,-118.5 892,-88.5 778,-88.5"/>
<text text-anchor="start" x="786" y="-106.5" font-family="Helvetica,sans-Serif" font-size="10.00">xiiImageConversion</text>
<text text-anchor="middle" x="835" y="-95.5" font-family="Helvetica,sans-Serif" font-size="10.00">_sRGB_F32</text>
</a>
</g>
</g>
<!-- Node17&#45;&gt;Node36 -->
<g id="edge35" class="edge">
<title>Node17&#45;&gt;Node36</title>
<path fill="none" stroke="midnightblue" d="M613.53,-525.27C631.36,-482.08 674.89,-373.86 703,-280.5 723.14,-213.61 690.01,-177.3 739,-127.5 749.26,-117.07 763.35,-110.94 777.53,-107.4"/>
<polygon fill="midnightblue" stroke="midnightblue" points="610.27,-524 609.67,-534.58 616.73,-526.68 610.27,-524"/>
</g>
<!-- Node37 -->
<g id="node37" class="node">
<title>Node37</title>
<g id="a_node37"><a xlink:title=" ">
<polygon fill="white" stroke="#bfbfbf" points="739,-50 739,-69 931,-69 931,-50 739,-50"/>
<text text-anchor="middle" x="835" y="-57" font-family="Helvetica,sans-Serif" font-size="10.00">xiiImageSwizzleConversion32_2103</text>
</a>
</g>
</g>
<!-- Node17&#45;&gt;Node37 -->
<g id="edge36" class="edge">
<title>Node17&#45;&gt;Node37</title>
<path fill="none" stroke="midnightblue" d="M613.91,-525.37C632.49,-482.4 677.46,-374.59 703,-280.5 726.89,-192.49 675.2,-143.66 739,-78.5 742.65,-74.77 746.81,-71.67 751.3,-69.1"/>
<polygon fill="midnightblue" stroke="midnightblue" points="610.66,-524.07 609.87,-534.64 617.07,-526.87 610.66,-524.07"/>
</g>
<!-- Node39 -->
<g id="node39" class="node">
<title>Node39</title>
<g id="a_node39"><a xlink:title=" ">
<polygon fill="white" stroke="#bfbfbf" points="778,-0.5 778,-30.5 892,-30.5 892,-0.5 778,-0.5"/>
<text text-anchor="start" x="786" y="-18.5" font-family="Helvetica,sans-Serif" font-size="10.00">xiiImageConversion</text>
<text text-anchor="middle" x="835" y="-7.5" font-family="Helvetica,sans-Serif" font-size="10.00">_sRGB_NV12</text>
</a>
</g>
</g>
<!-- Node38&#45;&gt;Node39 -->
<g id="edge38" class="edge">
<title>Node38&#45;&gt;Node39</title>
<path fill="none" stroke="midnightblue" d="M611.55,-242.14C626.09,-198.93 667.2,-94.22 739,-40.5 750.2,-32.12 763.97,-26.55 777.52,-22.84"/>
<polygon fill="midnightblue" stroke="midnightblue" points="608.2,-241.14 608.43,-251.73 614.86,-243.31 608.2,-241.14"/>
</g>
</g>
</svg>
        <g id="navigator" transform="translate(0 0)" fill="#404254">
                <rect fill="#f2f5e9" fill-opacity="0.5" stroke="#606060" stroke-width=".5" x="0" y="0" width="60" height="60"/>
                <use id="zoomplus" xlink:href="#zoomPlus" x="17" y="9" onmousedown="handleZoom(evt,'in')"/>
                <use id="zoomminus" xlink:href="#zoomMin" x="42" y="9" onmousedown="handleZoom(evt,'out')"/>
                <use id="reset" xlink:href="#resetDef" x="30" y="36" onmousedown="handleReset()"/>
                <g id="arrowUp" xlink:href="#dirArrow" transform="translate(30 24)" onmousedown="handlePan(0,-1)">
                  <use xlink:href="#rim" fill="#404040">
                        <set attributeName="fill" to="#808080" begin="arrowUp.mouseover" end="arrowUp.mouseout"/>
                  </use>
                  <path fill="none" stroke="white" stroke-width="1.5" d="M0,-3.0v7 M-2.5,-0.5L0,-3.0L2.5,-0.5"/>
                </g>
                <g id="arrowRight" xlink:href="#dirArrow" transform="rotate(90) translate(36 -43)" onmousedown="handlePan(1,0)">
                  <use xlink:href="#rim" fill="#404040">
                        <set attributeName="fill" to="#808080" begin="arrowRight.mouseover" end="arrowRight.mouseout"/>
                  </use>
                  <path fill="none" stroke="white" stroke-width="1.5" d="M0,-3.0v7 M-2.5,-0.5L0,-3.0L2.5,-0.5"/>
                </g>
                <g id="arrowDown" xlink:href="#dirArrow" transform="rotate(180) translate(-30 -48)" onmousedown="handlePan(0,1)">
                  <use xlink:href="#rim" fill="#404040">
                        <set attributeName="fill" to="#808080" begin="arrowDown.mouseover" end="arrowDown.mouseout"/>
                  </use>
                  <path fill="none" stroke="white" stroke-width="1.5" d="M0,-3.0v7 M-2.5,-0.5L0,-3.0L2.5,-0.5"/>
                </g>
                <g id="arrowLeft" xlink:href="#dirArrow" transform="rotate(270) translate(-36 17)" onmousedown="handlePan(-1,0)">
                  <use xlink:href="#rim" fill="#404040">
                        <set attributeName="fill" to="#808080" begin="arrowLeft.mouseover" end="arrowLeft.mouseout"/>
                  </use>
                  <path fill="none" stroke="white" stroke-width="1.5" d="M0,-3.0v7 M-2.5,-0.5L0,-3.0L2.5,-0.5"/>
                </g>
        </g>
        <svg viewBox="0 0 15 15" width="100%" height="30px" preserveAspectRatio="xMaxYMin meet">
         <g id="arrow_out" transform="scale(0.3 0.3)">
          <a xlink:href="classxii_image_conversion_step__inherit__graph_org.svg" target="_base">
           <rect id="button" ry="5" rx="5" y="6" x="6" height="38" width="38"
                fill="#f2f5e9" fill-opacity="0.5" stroke="#606060" stroke-width="1.0"/>
           <path id="arrow"
             d="M 11.500037,31.436501 C 11.940474,20.09759 22.043105,11.32322 32.158766,21.979434 L 37.068811,17.246167 C 37.068811,17.246167 37.088388,32 37.088388,32 L 22.160133,31.978069 C 22.160133,31.978069 26.997745,27.140456 26.997745,27.140456 C 18.528582,18.264221 13.291696,25.230495 11.500037,31.436501 z"
             style="fill:#404040;"/>
          </a>
         </g>
        </svg>
</svg>
