<?xml version="1.0" encoding="UTF-8" standalone="no"?>
<!DOCTYPE svg PUBLIC "-//W3C//DTD SVG 1.1//EN"
 "http://www.w3.org/Graphics/SVG/1.1/DTD/svg11.dtd">
<!-- Generated by graphviz version 2.43.0 (0)
 -->
<!-- Title: xiiDynamicArrayBase&lt; T &gt; Pages: 1 -->
<svg width="749pt" height="158pt"
 viewBox="0.00 0.00 749.00 158.00" xmlns="http://www.w3.org/2000/svg" xmlns:xlink="http://www.w3.org/1999/xlink">
<g id="graph0" class="graph" transform="scale(1 1) rotate(0) translate(4 154)">
<title>xiiDynamicArrayBase&lt; T &gt;</title>
<!-- Node1 -->
<g id="Node000001" class="node">
<title>Node1</title>
<g id="a_Node000001"><a xlink:title="Implementation of a dynamically growing array.">
<polygon fill="#999999" stroke="#666666" points="345,-72.5 194,-72.5 194,-53.5 345,-53.5 345,-72.5"/>
<text text-anchor="middle" x="269.5" y="-60.5" font-family="Helvetica,sans-Serif" font-size="10.00">xiiDynamicArrayBase&lt; T &gt;</text>
</a>
</g>
</g>
<!-- Node3 -->
<g id="Node000003" class="node">
<title>Node3</title>
<g id="a_Node000003"><a xlink:href="../../dc/da4/classxii_dynamic_array.html" target="_top" xlink:title=" ">
<polygon fill="white" stroke="#666666" points="547,-126 383,-126 383,-96 547,-96 547,-126"/>
<text text-anchor="start" x="391" y="-114" font-family="Helvetica,sans-Serif" font-size="10.00">xiiDynamicArray&lt; T,</text>
<text text-anchor="middle" x="465" y="-103" font-family="Helvetica,sans-Serif" font-size="10.00"> xiiDefaultAllocatorWrapper &gt;</text>
</a>
</g>
</g>
<!-- Node1&#45;&gt;Node3 -->
<g id="edge2_Node000001_Node000003" class="edge">
<title>Node1&#45;&gt;Node3</title>
<g id="a_edge2_Node000001_Node000003"><a xlink:title=" ">
<path fill="none" stroke="#63b8ff" d="M319.02,-75.04C344.56,-81.37 376.13,-89.2 403.28,-95.94"/>
<polygon fill="#63b8ff" stroke="#63b8ff" points="319.74,-71.61 309.19,-72.6 318.06,-78.4 319.74,-71.61"/>
</a>
</g>
</g>
<!-- Node6 -->
<g id="Node000006" class="node">
<title>Node6</title>
<g id="a_Node000006"><a xlink:href="../../dc/da4/classxii_dynamic_array.html" target="_top" xlink:title=" ">
<polygon fill="white" stroke="#666666" points="549,-78 381,-78 381,-48 549,-48 549,-78"/>
<text text-anchor="start" x="389" y="-66" font-family="Helvetica,sans-Serif" font-size="10.00">xiiDynamicArray&lt; xiiData</text>
<text text-anchor="middle" x="465" y="-55" font-family="Helvetica,sans-Serif" font-size="10.00">Block&lt; T, BlockSizeInByte &gt; &gt;</text>
</a>
</g>
</g>
<!-- Node1&#45;&gt;Node6 -->
<g id="edge5_Node000001_Node000006" class="edge">
<title>Node1&#45;&gt;Node6</title>
<g id="a_edge5_Node000001_Node000006"><a xlink:title=" ">
<path fill="none" stroke="#63b8ff" d="M355.29,-63C363.76,-63 372.35,-63 380.81,-63"/>
<polygon fill="#63b8ff" stroke="#63b8ff" points="355.04,-59.5 345.04,-63 355.04,-66.5 355.04,-59.5"/>
</a>
</g>
</g>
<!-- Node7 -->
<g id="Node000007" class="node">
<title>Node7</title>
<g id="a_Node000007"><a xlink:href="../../dc/da4/classxii_dynamic_array.html" target="_top" xlink:title=" ">
<polygon fill="white" stroke="#666666" points="524.5,-30 405.5,-30 405.5,0 524.5,0 524.5,-30"/>
<text text-anchor="start" x="413.5" y="-18" font-family="Helvetica,sans-Serif" font-size="10.00">xiiDynamicArray&lt; T,</text>
<text text-anchor="middle" x="465" y="-7" font-family="Helvetica,sans-Serif" font-size="10.00"> AllocatorWrapper &gt;</text>
</a>
</g>
</g>
<!-- Node1&#45;&gt;Node7 -->
<g id="edge6_Node000001_Node000007" class="edge">
<title>Node1&#45;&gt;Node7</title>
<g id="a_edge6_Node000001_Node000007"><a xlink:title=" ">
<path fill="none" stroke="#63b8ff" d="M319.23,-50.91C345.33,-44.44 377.67,-36.42 405.16,-29.6"/>
<polygon fill="#63b8ff" stroke="#63b8ff" points="318.06,-47.6 309.19,-53.4 319.74,-54.39 318.06,-47.6"/>
</a>
</g>
</g>
<!-- Node2 -->
<g id="Node000002" class="node">
<title>Node2</title>
<g id="a_Node000002"><a xlink:href="../../da/d4c/classxii_array_base.html" target="_top" xlink:title=" ">
<polygon fill="white" stroke="#666666" points="158,-78 0,-78 0,-48 158,-48 158,-78"/>
<text text-anchor="start" x="8" y="-66" font-family="Helvetica,sans-Serif" font-size="10.00">xiiArrayBase&lt; T, xiiDynamic</text>
<text text-anchor="middle" x="79" y="-55" font-family="Helvetica,sans-Serif" font-size="10.00">ArrayBase&lt; T &gt; &gt;</text>
</a>
</g>
</g>
<!-- Node2&#45;&gt;Node1 -->
<g id="edge1_Node000001_Node000002" class="edge">
<title>Node2&#45;&gt;Node1</title>
<g id="a_edge1_Node000001_Node000002"><a xlink:title=" ">
<path fill="none" stroke="#63b8ff" d="M168.1,-63C176.71,-63 185.4,-63 193.86,-63"/>
<polygon fill="#63b8ff" stroke="#63b8ff" points="168.03,-59.5 158.03,-63 168.03,-66.5 168.03,-59.5"/>
</a>
</g>
</g>
<!-- Node4 -->
<g id="Node000004" class="node">
<title>Node4</title>
<g id="a_Node000004"><a xlink:href="../../dc/da9/classxii_hybrid_array.html" target="_top" xlink:title=" ">
<polygon fill="white" stroke="#666666" points="741,-150 585,-150 585,-120 741,-120 741,-150"/>
<text text-anchor="start" x="593" y="-138" font-family="Helvetica,sans-Serif" font-size="10.00">xiiHybridArray&lt; xiiTreeNode</text>
<text text-anchor="middle" x="663" y="-127" font-family="Helvetica,sans-Serif" font-size="10.00">&lt; T &gt; *, 8 &gt;</text>
</a>
</g>
</g>
<!-- Node3&#45;&gt;Node4 -->
<g id="edge3_Node000003_Node000004" class="edge">
<title>Node3&#45;&gt;Node4</title>
<g id="a_edge3_Node000003_Node000004"><a xlink:title=" ">
<path fill="none" stroke="#63b8ff" d="M557.1,-122.16C566.33,-123.29 575.64,-124.43 584.7,-125.54"/>
<polygon fill="#63b8ff" stroke="#63b8ff" points="557.49,-118.68 547.14,-120.93 556.64,-125.62 557.49,-118.68"/>
</a>
</g>
</g>
<!-- Node5 -->
<g id="Node000005" class="node">
<title>Node5</title>
<g id="a_Node000005"><a xlink:href="../../dc/da9/classxii_hybrid_array.html" target="_top" xlink:title="A hybrid array uses in&#45;place storage to handle the first few elements without any allocation....">
<polygon fill="white" stroke="#666666" points="734,-102 592,-102 592,-72 734,-72 734,-102"/>
<text text-anchor="start" x="600" y="-90" font-family="Helvetica,sans-Serif" font-size="10.00">xiiHybridArray&lt; T,</text>
<text text-anchor="middle" x="663" y="-79" font-family="Helvetica,sans-Serif" font-size="10.00"> Size, AllocatorWrapper &gt;</text>
</a>
</g>
</g>
<!-- Node3&#45;&gt;Node5 -->
<g id="edge4_Node000003_Node000005" class="edge">
<title>Node3&#45;&gt;Node5</title>
<g id="a_edge4_Node000003_Node000005"><a xlink:title=" ">
<path fill="none" stroke="#63b8ff" d="M557.29,-99.82C568.91,-98.4 580.65,-96.96 591.86,-95.59"/>
<polygon fill="#63b8ff" stroke="#63b8ff" points="556.64,-96.38 547.14,-101.07 557.49,-103.32 556.64,-96.38"/>
</a>
</g>
</g>
</g>
</svg>
