<?xml version="1.0" encoding="UTF-8" standalone="no"?>
<!DOCTYPE svg PUBLIC "-//W3C//DTD SVG 1.1//EN"
 "http://www.w3.org/Graphics/SVG/1.1/DTD/svg11.dtd">
<!-- Generated by graphviz version 2.43.0 (0)
 -->
<!-- Title: xiiPropertyAnimComponent::FloatBinding Pages: 1 -->
<svg width="536pt" height="88pt"
 viewBox="0.00 0.00 536.00 88.00" xmlns="http://www.w3.org/2000/svg" xmlns:xlink="http://www.w3.org/1999/xlink">
<g id="graph0" class="graph" transform="scale(1 1) rotate(0) translate(4 84)">
<title>xiiPropertyAnimComponent::FloatBinding</title>
<polygon fill="white" stroke="transparent" points="-4,4 -4,-84 532,-84 532,4 -4,4"/>
<!-- Node1 -->
<g id="node1" class="node">
<title>Node1</title>
<g id="a_node1"><a xlink:title=" ">
<polygon fill="#bfbfbf" stroke="black" points="188,-24.5 188,-54.5 340,-54.5 340,-24.5 188,-24.5"/>
<text text-anchor="start" x="196" y="-42.5" font-family="Helvetica,sans-Serif" font-size="10.00">xiiPropertyAnimComponent</text>
<text text-anchor="middle" x="264" y="-31.5" font-family="Helvetica,sans-Serif" font-size="10.00">::FloatBinding</text>
</a>
</g>
</g>
<!-- Node3 -->
<g id="node3" class="node">
<title>Node3</title>
<g id="a_node3"><a xlink:href="../../d3/dc4/structxii_property_anim_component_1_1_component_float_binding.htm" target="_top" xlink:title=" ">
<polygon fill="white" stroke="black" points="376,-49.5 376,-79.5 528,-79.5 528,-49.5 376,-49.5"/>
<text text-anchor="start" x="384" y="-67.5" font-family="Helvetica,sans-Serif" font-size="10.00">xiiPropertyAnimComponent</text>
<text text-anchor="middle" x="452" y="-56.5" font-family="Helvetica,sans-Serif" font-size="10.00">::ComponentFloatBinding</text>
</a>
</g>
</g>
<!-- Node1&#45;&gt;Node3 -->
<g id="edge2" class="edge">
<title>Node1&#45;&gt;Node3</title>
<path fill="none" stroke="midnightblue" d="M350.15,-50.94C358.74,-52.1 367.43,-53.27 375.9,-54.41"/>
<polygon fill="midnightblue" stroke="midnightblue" points="350.49,-47.46 340.12,-49.6 349.56,-54.4 350.49,-47.46"/>
</g>
<!-- Node4 -->
<g id="node4" class="node">
<title>Node4</title>
<g id="a_node4"><a xlink:href="../../d5/d48/structxii_property_anim_component_1_1_game_object_binding.htm" target="_top" xlink:title=" ">
<polygon fill="white" stroke="black" points="376,-0.5 376,-30.5 528,-30.5 528,-0.5 376,-0.5"/>
<text text-anchor="start" x="384" y="-18.5" font-family="Helvetica,sans-Serif" font-size="10.00">xiiPropertyAnimComponent</text>
<text text-anchor="middle" x="452" y="-7.5" font-family="Helvetica,sans-Serif" font-size="10.00">::GameObjectBinding</text>
</a>
</g>
</g>
<!-- Node1&#45;&gt;Node4 -->
<g id="edge3" class="edge">
<title>Node1&#45;&gt;Node4</title>
<path fill="none" stroke="midnightblue" d="M350.15,-28.51C358.74,-27.4 367.43,-26.28 375.9,-25.19"/>
<polygon fill="midnightblue" stroke="midnightblue" points="349.59,-25.06 340.12,-29.81 350.48,-32 349.59,-25.06"/>
</g>
<!-- Node2 -->
<g id="node2" class="node">
<title>Node2</title>
<g id="a_node2"><a xlink:href="../../de/d35/structxii_property_anim_component_1_1_binding.htm" target="_top" xlink:title=" ">
<polygon fill="white" stroke="black" points="0,-24.5 0,-54.5 152,-54.5 152,-24.5 0,-24.5"/>
<text text-anchor="start" x="8" y="-42.5" font-family="Helvetica,sans-Serif" font-size="10.00">xiiPropertyAnimComponent</text>
<text text-anchor="middle" x="76" y="-31.5" font-family="Helvetica,sans-Serif" font-size="10.00">::Binding</text>
</a>
</g>
</g>
<!-- Node2&#45;&gt;Node1 -->
<g id="edge1" class="edge">
<title>Node2&#45;&gt;Node1</title>
<path fill="none" stroke="midnightblue" d="M162.15,-39.5C170.74,-39.5 179.43,-39.5 187.9,-39.5"/>
<polygon fill="midnightblue" stroke="midnightblue" points="162.12,-36 152.12,-39.5 162.12,-43 162.12,-36"/>
</g>
</g>
</svg>
