<?xml version="1.0" encoding="UTF-8" standalone="no"?>
<!DOCTYPE svg PUBLIC "-//W3C//DTD SVG 1.1//EN"
 "http://www.w3.org/Graphics/SVG/1.1/DTD/svg11.dtd">
<!-- Generated by graphviz version 2.43.0 (0)
 -->
<!-- Title: xiiAllocatorBase Pages: 1 -->
<svg width="891pt" height="223pt"
 viewBox="0.00 0.00 891.00 222.50" xmlns="http://www.w3.org/2000/svg" xmlns:xlink="http://www.w3.org/1999/xlink">
<g id="graph0" class="graph" transform="scale(1 1) rotate(0) translate(4 218.5)">
<title>xiiAllocatorBase</title>
<polygon fill="white" stroke="transparent" points="-4,4 -4,-218.5 887,-218.5 887,4 -4,4"/>
<!-- Node1 -->
<g id="node1" class="node">
<title>Node1</title>
<g id="a_node1"><a xlink:title="Base class for all memory allocators.">
<polygon fill="#bfbfbf" stroke="black" points="0,-71.5 0,-90.5 96,-90.5 96,-71.5 0,-71.5"/>
<text text-anchor="middle" x="48" y="-78.5" font-family="Helvetica,sans-Serif" font-size="10.00">xiiAllocatorBase</text>
</a>
</g>
</g>
<!-- Node2 -->
<g id="node2" class="node">
<title>Node2</title>
<g id="a_node2"><a xlink:href="../../d4/deb/classxii_internal_1_1xii_allocator_impl.htm" target="_top" xlink:title=" ">
<polygon fill="white" stroke="black" points="132,-60.5 132,-101.5 263,-101.5 263,-60.5 132,-60.5"/>
<text text-anchor="start" x="140" y="-89.5" font-family="Helvetica,sans-Serif" font-size="10.00">xiiInternal::xiiAllocator</text>
<text text-anchor="start" x="140" y="-78.5" font-family="Helvetica,sans-Serif" font-size="10.00">Impl&lt; AllocationPolicy,</text>
<text text-anchor="middle" x="197.5" y="-67.5" font-family="Helvetica,sans-Serif" font-size="10.00"> TrackingMode &gt;</text>
</a>
</g>
</g>
<!-- Node1&#45;&gt;Node2 -->
<g id="edge1" class="edge">
<title>Node1&#45;&gt;Node2</title>
<path fill="none" stroke="midnightblue" d="M106.16,-81C114.58,-81 123.3,-81 131.85,-81"/>
<polygon fill="midnightblue" stroke="midnightblue" points="106.08,-77.5 96.08,-81 106.08,-84.5 106.08,-77.5"/>
</g>
<!-- Node3 -->
<g id="node3" class="node">
<title>Node3</title>
<g id="a_node3"><a xlink:href="../../d9/dcd/classxii_internal_1_1xii_allocator_mixin_reallocate.htm" target="_top" xlink:title=" ">
<polygon fill="white" stroke="black" points="299,-140 299,-214 493,-214 493,-140 299,-140"/>
<text text-anchor="start" x="307" y="-202" font-family="Helvetica,sans-Serif" font-size="10.00">xiiInternal::xiiAllocator</text>
<text text-anchor="start" x="307" y="-191" font-family="Helvetica,sans-Serif" font-size="10.00">MixinReallocate&lt; AllocationPolicy,</text>
<text text-anchor="start" x="307" y="-180" font-family="Helvetica,sans-Serif" font-size="10.00"> xiiAllocatorTrackingMode::Default,</text>
<text text-anchor="start" x="307" y="-169" font-family="Helvetica,sans-Serif" font-size="10.00"> xiiHasReallocate&lt; AllocationPolicy,</text>
<text text-anchor="start" x="307" y="-158" font-family="Helvetica,sans-Serif" font-size="10.00"> void *(AllocationPolicy::*)(void *,</text>
<text text-anchor="middle" x="396" y="-147" font-family="Helvetica,sans-Serif" font-size="10.00"> size_t, size_t, size_t)&gt;::value &gt;</text>
</a>
</g>
</g>
<!-- Node2&#45;&gt;Node3 -->
<g id="edge2" class="edge">
<title>Node2&#45;&gt;Node3</title>
<path fill="none" stroke="midnightblue" d="M249.79,-106.06C270.98,-116.41 295.99,-128.63 319.22,-139.98"/>
<polygon fill="midnightblue" stroke="midnightblue" points="251.18,-102.84 240.65,-101.59 248.1,-109.13 251.18,-102.84"/>
</g>
<!-- Node5 -->
<g id="node5" class="node">
<title>Node5</title>
<g id="a_node5"><a xlink:href="../../d9/dcd/classxii_internal_1_1xii_allocator_mixin_reallocate.htm" target="_top" xlink:title=" ">
<polygon fill="white" stroke="black" points="302,-60.5 302,-101.5 490,-101.5 490,-60.5 302,-60.5"/>
<text text-anchor="start" x="310" y="-89.5" font-family="Helvetica,sans-Serif" font-size="10.00">xiiInternal::xiiAllocator</text>
<text text-anchor="start" x="310" y="-78.5" font-family="Helvetica,sans-Serif" font-size="10.00">MixinReallocate&lt; AllocationPolicy,</text>
<text text-anchor="middle" x="396" y="-67.5" font-family="Helvetica,sans-Serif" font-size="10.00"> TrackingMode, HasReallocate &gt;</text>
</a>
</g>
</g>
<!-- Node2&#45;&gt;Node5 -->
<g id="edge4" class="edge">
<title>Node2&#45;&gt;Node5</title>
<path fill="none" stroke="midnightblue" d="M273.16,-81C282.55,-81 292.24,-81 301.87,-81"/>
<polygon fill="midnightblue" stroke="midnightblue" points="273.11,-77.5 263.11,-81 273.11,-84.5 273.11,-77.5"/>
</g>
<!-- Node10 -->
<g id="node10" class="node">
<title>Node10</title>
<g id="a_node10"><a xlink:href="../../d8/dee/classxii_internal_1_1xii_allocator_mixin_reallocate_3_01_allocation_policy_00_01_tracking_mode_00_01true_01_4.htm" target="_top" xlink:title=" ">
<polygon fill="white" stroke="black" points="302,-0.5 302,-41.5 490,-41.5 490,-0.5 302,-0.5"/>
<text text-anchor="start" x="310" y="-29.5" font-family="Helvetica,sans-Serif" font-size="10.00">xiiInternal::xiiAllocator</text>
<text text-anchor="start" x="310" y="-18.5" font-family="Helvetica,sans-Serif" font-size="10.00">MixinReallocate&lt; AllocationPolicy,</text>
<text text-anchor="middle" x="396" y="-7.5" font-family="Helvetica,sans-Serif" font-size="10.00"> TrackingMode, true &gt;</text>
</a>
</g>
</g>
<!-- Node2&#45;&gt;Node10 -->
<g id="edge9" class="edge">
<title>Node2&#45;&gt;Node10</title>
<path fill="none" stroke="midnightblue" d="M272.96,-58.26C290.93,-52.78 310.03,-46.95 327.65,-41.56"/>
<polygon fill="midnightblue" stroke="midnightblue" points="271.66,-55 263.11,-61.27 273.7,-61.7 271.66,-55"/>
</g>
<!-- Node4 -->
<g id="node4" class="node">
<title>Node4</title>
<g id="a_node4"><a xlink:href="../../df/dbd/classxii_allocator.htm" target="_top" xlink:title="Policy based allocator implementation of the xiiAllocatorBase interface.">
<polygon fill="white" stroke="black" points="568.5,-172 568.5,-202 700.5,-202 700.5,-172 568.5,-172"/>
<text text-anchor="start" x="576.5" y="-190" font-family="Helvetica,sans-Serif" font-size="10.00">xiiAllocator&lt; Allocation</text>
<text text-anchor="middle" x="634.5" y="-179" font-family="Helvetica,sans-Serif" font-size="10.00">Policy, TrackingMode &gt;</text>
</a>
</g>
</g>
<!-- Node3&#45;&gt;Node4 -->
<g id="edge3" class="edge">
<title>Node3&#45;&gt;Node4</title>
<path fill="none" stroke="midnightblue" d="M503.35,-181.5C525.55,-182.44 548.32,-183.4 568.48,-184.25"/>
<polygon fill="midnightblue" stroke="midnightblue" points="503.33,-177.99 493.19,-181.07 503.04,-184.99 503.33,-177.99"/>
</g>
<!-- Node6 -->
<g id="node6" class="node">
<title>Node6</title>
<g id="a_node6"><a xlink:href="../../df/dbd/classxii_allocator.htm" target="_top" xlink:title=" ">
<polygon fill="white" stroke="black" points="529,-111.5 529,-152.5 740,-152.5 740,-111.5 529,-111.5"/>
<text text-anchor="start" x="537" y="-140.5" font-family="Helvetica,sans-Serif" font-size="10.00">xiiAllocator&lt; xiiMemoryPolicies</text>
<text text-anchor="start" x="537" y="-129.5" font-family="Helvetica,sans-Serif" font-size="10.00">::xiiHeapAllocation, xiiAllocatorTracking</text>
<text text-anchor="middle" x="634.5" y="-118.5" font-family="Helvetica,sans-Serif" font-size="10.00">Mode::DoNotTrack &gt;</text>
</a>
</g>
</g>
<!-- Node5&#45;&gt;Node6 -->
<g id="edge5" class="edge">
<title>Node5&#45;&gt;Node6</title>
<path fill="none" stroke="midnightblue" d="M500.18,-103.25C512.79,-105.97 525.63,-108.74 538.12,-111.43"/>
<polygon fill="midnightblue" stroke="midnightblue" points="500.64,-99.77 490.13,-101.08 499.17,-106.61 500.64,-99.77"/>
</g>
<!-- Node7 -->
<g id="node7" class="node">
<title>Node7</title>
<g id="a_node7"><a xlink:href="../../df/dbd/classxii_allocator.htm" target="_top" xlink:title=" ">
<polygon fill="white" stroke="black" points="548,-51.5 548,-92.5 721,-92.5 721,-51.5 548,-51.5"/>
<text text-anchor="start" x="556" y="-80.5" font-family="Helvetica,sans-Serif" font-size="10.00">xiiAllocator&lt; xiiMemoryPolicies</text>
<text text-anchor="start" x="556" y="-69.5" font-family="Helvetica,sans-Serif" font-size="10.00">::xiiStackAllocation, xiiAllocator</text>
<text text-anchor="middle" x="634.5" y="-58.5" font-family="Helvetica,sans-Serif" font-size="10.00">TrackingMode::Default &gt;</text>
</a>
</g>
</g>
<!-- Node5&#45;&gt;Node7 -->
<g id="edge6" class="edge">
<title>Node5&#45;&gt;Node7</title>
<path fill="none" stroke="midnightblue" d="M500.45,-77.06C516.25,-76.46 532.41,-75.85 547.77,-75.26"/>
<polygon fill="midnightblue" stroke="midnightblue" points="499.99,-73.58 490.13,-77.46 500.26,-80.57 499.99,-73.58"/>
</g>
<!-- Node9 -->
<g id="node9" class="node">
<title>Node9</title>
<g id="a_node9"><a xlink:href="../../df/dbd/classxii_allocator.htm" target="_top" xlink:title=" ">
<polygon fill="white" stroke="black" points="548,-2 548,-32 721,-32 721,-2 548,-2"/>
<text text-anchor="start" x="556" y="-20" font-family="Helvetica,sans-Serif" font-size="10.00">xiiAllocator&lt; xiiMemoryPolicies</text>
<text text-anchor="middle" x="634.5" y="-9" font-family="Helvetica,sans-Serif" font-size="10.00">::xiiProxyAllocation &gt;</text>
</a>
</g>
</g>
<!-- Node5&#45;&gt;Node9 -->
<g id="edge8" class="edge">
<title>Node5&#45;&gt;Node9</title>
<path fill="none" stroke="midnightblue" d="M473.6,-57.63C491.71,-52.31 511,-46.81 529,-42 541.71,-38.61 555.34,-35.18 568.42,-32.01"/>
<polygon fill="midnightblue" stroke="midnightblue" points="472.56,-54.29 463.96,-60.48 474.54,-61 472.56,-54.29"/>
</g>
<!-- Node8 -->
<g id="node8" class="node">
<title>Node8</title>
<g id="a_node8"><a xlink:href="../../de/d0e/classxii_stack_allocator.htm" target="_top" xlink:title=" ">
<polygon fill="white" stroke="black" points="776,-57 776,-87 883,-87 883,-57 776,-57"/>
<text text-anchor="start" x="784" y="-75" font-family="Helvetica,sans-Serif" font-size="10.00">xiiStackAllocator&lt;</text>
<text text-anchor="middle" x="829.5" y="-64" font-family="Helvetica,sans-Serif" font-size="10.00"> TrackingMode &gt;</text>
</a>
</g>
</g>
<!-- Node7&#45;&gt;Node8 -->
<g id="edge7" class="edge">
<title>Node7&#45;&gt;Node8</title>
<path fill="none" stroke="midnightblue" d="M731.35,-72C746.71,-72 762.1,-72 775.95,-72"/>
<polygon fill="midnightblue" stroke="midnightblue" points="731.28,-68.5 721.28,-72 731.28,-75.5 731.28,-68.5"/>
</g>
</g>
</svg>
