<?xml version="1.0" encoding="UTF-8" standalone="no"?>
<!DOCTYPE svg PUBLIC "-//W3C//DTD SVG 1.1//EN"
 "http://www.w3.org/Graphics/SVG/1.1/DTD/svg11.dtd">
<!-- Generated by graphviz version 2.43.0 (0)
 -->
<!-- Title: xiiGameApplicationBase Pages: 1 -->
<svg width="503pt" height="192pt"
 viewBox="0.00 0.00 503.00 192.00" xmlns="http://www.w3.org/2000/svg" xmlns:xlink="http://www.w3.org/1999/xlink">
<g id="graph0" class="graph" transform="scale(1 1) rotate(0) translate(4 188)">
<title>xiiGameApplicationBase</title>
<!-- Node1 -->
<g id="Node000001" class="node">
<title>Node1</title>
<g id="a_Node000001"><a xlink:title=" ">
<polygon fill="#999999" stroke="#666666" points="327,-129 190,-129 190,-110 327,-110 327,-129"/>
<text text-anchor="middle" x="258.5" y="-117" font-family="Helvetica,sans-Serif" font-size="10.00">xiiGameApplicationBase</text>
</a>
</g>
</g>
<!-- Node3 -->
<g id="Node000003" class="node">
<title>Node3</title>
<g id="a_Node000003"><a xlink:href="../../d1/ded/classxii_game_application.html" target="_top" xlink:title="The base class for all typical game applications made with xiiEngine.">
<polygon fill="white" stroke="#666666" points="315,-74 202,-74 202,-55 315,-55 315,-74"/>
<text text-anchor="middle" x="258.5" y="-62" font-family="Helvetica,sans-Serif" font-size="10.00">xiiGameApplication</text>
</a>
</g>
</g>
<!-- Node1&#45;&gt;Node3 -->
<g id="edge2_Node000001_Node000003" class="edge">
<title>Node1&#45;&gt;Node3</title>
<g id="a_edge2_Node000001_Node000003"><a xlink:title=" ">
<path fill="none" stroke="#63b8ff" d="M258.5,-99.66C258.5,-90.93 258.5,-80.99 258.5,-74.09"/>
<polygon fill="#63b8ff" stroke="#63b8ff" points="255,-99.75 258.5,-109.75 262,-99.75 255,-99.75"/>
</a>
</g>
</g>
<!-- Node2 -->
<g id="Node000002" class="node">
<title>Node2</title>
<g id="a_Node000002"><a xlink:href="../../dd/d2b/classxii_application.html" target="_top" xlink:title="Base class to be used by applications based on XII.">
<polygon fill="white" stroke="#666666" points="300,-184 217,-184 217,-165 300,-165 300,-184"/>
<text text-anchor="middle" x="258.5" y="-172" font-family="Helvetica,sans-Serif" font-size="10.00">xiiApplication</text>
</a>
</g>
</g>
<!-- Node2&#45;&gt;Node1 -->
<g id="edge1_Node000001_Node000002" class="edge">
<title>Node2&#45;&gt;Node1</title>
<g id="a_edge1_Node000001_Node000002"><a xlink:title=" ">
<path fill="none" stroke="#63b8ff" d="M258.5,-154.66C258.5,-145.93 258.5,-135.99 258.5,-129.09"/>
<polygon fill="#63b8ff" stroke="#63b8ff" points="255,-154.75 258.5,-164.75 262,-154.75 255,-154.75"/>
</a>
</g>
</g>
<!-- Node4 -->
<g id="Node000004" class="node">
<title>Node4</title>
<g id="a_Node000004"><a xlink:href="../../d6/d7b/classxii_engine_process_game_application.html" target="_top" xlink:title=" ">
<polygon fill="white" stroke="#bfbfbf" points="183,-19 0,-19 0,0 183,0 183,-19"/>
<text text-anchor="middle" x="91.5" y="-7" font-family="Helvetica,sans-Serif" font-size="10.00">xiiEngineProcessGameApplication</text>
</a>
</g>
</g>
<!-- Node3&#45;&gt;Node4 -->
<g id="edge3_Node000003_Node000004" class="edge">
<title>Node3&#45;&gt;Node4</title>
<g id="a_edge3_Node000003_Node000004"><a xlink:title=" ">
<path fill="none" stroke="#63b8ff" d="M222.04,-51.93C190.84,-42.03 146.66,-28.01 118.54,-19.08"/>
<polygon fill="#63b8ff" stroke="#63b8ff" points="221.08,-55.3 231.67,-54.98 223.2,-48.62 221.08,-55.3"/>
</a>
</g>
</g>
<!-- Node5 -->
<g id="Node000005" class="node">
<title>Node5</title>
<g id="a_Node000005"><a xlink:href="../../d7/d9e/classxii_player_application.html" target="_top" xlink:title=" ">
<polygon fill="white" stroke="#bfbfbf" points="315.5,-19 201.5,-19 201.5,0 315.5,0 315.5,-19"/>
<text text-anchor="middle" x="258.5" y="-7" font-family="Helvetica,sans-Serif" font-size="10.00">xiiPlayerApplication</text>
</a>
</g>
</g>
<!-- Node3&#45;&gt;Node5 -->
<g id="edge4_Node000003_Node000005" class="edge">
<title>Node3&#45;&gt;Node5</title>
<g id="a_edge4_Node000003_Node000005"><a xlink:title=" ">
<path fill="none" stroke="#63b8ff" d="M258.5,-44.66C258.5,-35.93 258.5,-25.99 258.5,-19.09"/>
<polygon fill="#63b8ff" stroke="#63b8ff" points="255,-44.75 258.5,-54.75 262,-44.75 255,-44.75"/>
</a>
</g>
</g>
<!-- Node6 -->
<g id="Node000006" class="node">
<title>Node6</title>
<g id="a_Node000006"><a xlink:href="../../d1/df8/classxii_shader_compiler_application.html" target="_top" xlink:title=" ">
<polygon fill="white" stroke="#bfbfbf" points="495,-19 334,-19 334,0 495,0 495,-19"/>
<text text-anchor="middle" x="414.5" y="-7" font-family="Helvetica,sans-Serif" font-size="10.00">xiiShaderCompilerApplication</text>
</a>
</g>
</g>
<!-- Node3&#45;&gt;Node6 -->
<g id="edge5_Node000003_Node000006" class="edge">
<title>Node3&#45;&gt;Node6</title>
<g id="a_edge5_Node000003_Node000006"><a xlink:title=" ">
<path fill="none" stroke="#63b8ff" d="M293.32,-51.67C322.41,-41.79 363.2,-27.93 389.24,-19.08"/>
<polygon fill="#63b8ff" stroke="#63b8ff" points="291.91,-48.45 283.56,-54.98 294.16,-55.08 291.91,-48.45"/>
</a>
</g>
</g>
</g>
</svg>
