<?xml version="1.0" encoding="UTF-8" standalone="no"?>
<!DOCTYPE svg PUBLIC "-//W3C//DTD SVG 1.1//EN"
 "http://www.w3.org/Graphics/SVG/1.1/DTD/svg11.dtd">
<!-- Generated by graphviz version 2.43.0 (0)
 -->
<!-- Title: xiiGALTopLevelAS Pages: 1 -->
<svg width="960pt" height="138pt"
 viewBox="0.00 0.00 960.00 138.00" xmlns="http://www.w3.org/2000/svg" xmlns:xlink="http://www.w3.org/1999/xlink">
<g id="graph0" class="graph" transform="scale(1 1) rotate(0) translate(4 134)">
<title>xiiGALTopLevelAS</title>
<!-- Node1 -->
<g id="Node000001" class="node">
<title>Node1</title>
<g id="a_Node000001"><a xlink:title="Interface that defines methods to manipulate a top level acceleration structure (TLAS) object.">
<polygon fill="#999999" stroke="#666666" points="780,-74 677,-74 677,-55 780,-55 780,-74"/>
<text text-anchor="middle" x="728.5" y="-62" font-family="Helvetica,sans-Serif" font-size="10.00">xiiGALTopLevelAS</text>
</a>
</g>
</g>
<!-- Node9 -->
<g id="Node000009" class="node">
<title>Node9</title>
<g id="a_Node000009"><a xlink:href="../../d3/d64/classxii_g_a_l_top_level_a_s_d3_d11.htm" target="_top" xlink:title=" ">
<polygon fill="white" stroke="#bfbfbf" points="952,-130 816,-130 816,-111 952,-111 952,-130"/>
<text text-anchor="middle" x="884" y="-118" font-family="Helvetica,sans-Serif" font-size="10.00">xiiGALTopLevelASD3D11</text>
</a>
</g>
</g>
<!-- Node1&#45;&gt;Node9 -->
<g id="edge8_Node000001_Node000009" class="edge">
<title>Node1&#45;&gt;Node9</title>
<g id="a_edge8_Node000001_Node000009"><a xlink:title=" ">
<path fill="none" stroke="#63b8ff" d="M758.26,-78.45C774.89,-86.17 796.34,-95.59 816,-102.5 824.75,-105.58 834.3,-108.43 843.37,-110.92"/>
<polygon fill="#63b8ff" stroke="#63b8ff" points="759.62,-75.22 749.08,-74.12 756.64,-81.55 759.62,-75.22"/>
</a>
</g>
</g>
<!-- Node10 -->
<g id="Node000010" class="node">
<title>Node10</title>
<g id="a_Node000010"><a xlink:href="../../d9/dd8/classxii_g_a_l_top_level_a_s_d3_d12.htm" target="_top" xlink:title=" ">
<polygon fill="white" stroke="#bfbfbf" points="952,-93 816,-93 816,-74 952,-74 952,-93"/>
<text text-anchor="middle" x="884" y="-81" font-family="Helvetica,sans-Serif" font-size="10.00">xiiGALTopLevelASD3D12</text>
</a>
</g>
</g>
<!-- Node1&#45;&gt;Node10 -->
<g id="edge9_Node000001_Node000010" class="edge">
<title>Node1&#45;&gt;Node10</title>
<g id="a_edge9_Node000001_Node000010"><a xlink:title=" ">
<path fill="none" stroke="#63b8ff" d="M790.3,-72.03C798.72,-73.07 807.41,-74.14 815.94,-75.2"/>
<polygon fill="#63b8ff" stroke="#63b8ff" points="790.54,-68.53 780.19,-70.77 789.68,-75.48 790.54,-68.53"/>
</a>
</g>
</g>
<!-- Node11 -->
<g id="Node000011" class="node">
<title>Node11</title>
<g id="a_Node000011"><a xlink:href="../../d6/d71/classxii_g_a_l_top_level_a_s_null.htm" target="_top" xlink:title=" ">
<polygon fill="white" stroke="#bfbfbf" points="945,-56 823,-56 823,-37 945,-37 945,-56"/>
<text text-anchor="middle" x="884" y="-44" font-family="Helvetica,sans-Serif" font-size="10.00">xiiGALTopLevelASNull</text>
</a>
</g>
</g>
<!-- Node1&#45;&gt;Node11 -->
<g id="edge10_Node000001_Node000011" class="edge">
<title>Node1&#45;&gt;Node11</title>
<g id="a_edge10_Node000001_Node000011"><a xlink:title=" ">
<path fill="none" stroke="#63b8ff" d="M790.27,-57.37C800.97,-56.12 812.09,-54.82 822.76,-53.56"/>
<polygon fill="#63b8ff" stroke="#63b8ff" points="789.71,-53.92 780.19,-58.56 790.53,-60.87 789.71,-53.92"/>
</a>
</g>
</g>
<!-- Node12 -->
<g id="Node000012" class="node">
<title>Node12</title>
<g id="a_Node000012"><a xlink:href="../../da/daa/classxii_g_a_l_top_level_a_s_vulkan.htm" target="_top" xlink:title=" ">
<polygon fill="white" stroke="#bfbfbf" points="951.5,-19 816.5,-19 816.5,0 951.5,0 951.5,-19"/>
<text text-anchor="middle" x="884" y="-7" font-family="Helvetica,sans-Serif" font-size="10.00">xiiGALTopLevelASVulkan</text>
</a>
</g>
</g>
<!-- Node1&#45;&gt;Node12 -->
<g id="edge11_Node000001_Node000012" class="edge">
<title>Node1&#45;&gt;Node12</title>
<g id="a_edge11_Node000001_Node000012"><a xlink:title=" ">
<path fill="none" stroke="#63b8ff" d="M758.96,-50.67C775.5,-43.21 796.65,-34.2 816,-27.5 824.88,-24.43 834.57,-21.55 843.75,-19.05"/>
<polygon fill="#63b8ff" stroke="#63b8ff" points="757.45,-47.51 749.8,-54.85 760.35,-53.88 757.45,-47.51"/>
</a>
</g>
</g>
<!-- Node2 -->
<g id="Node000002" class="node">
<title>Node2</title>
<g id="a_Node000002"><a xlink:href="../../d4/d2d/classxii_g_a_l_resource.htm" target="_top" xlink:title="Base class for all GAL resources (textures, buffers, etc).">
<polygon fill="white" stroke="#666666" points="641,-74 548,-74 548,-55 641,-55 641,-74"/>
<text text-anchor="middle" x="594.5" y="-62" font-family="Helvetica,sans-Serif" font-size="10.00">xiiGALResource</text>
</a>
</g>
</g>
<!-- Node2&#45;&gt;Node1 -->
<g id="edge1_Node000001_Node000002" class="edge">
<title>Node2&#45;&gt;Node1</title>
<g id="a_edge1_Node000001_Node000002"><a xlink:title=" ">
<path fill="none" stroke="#63b8ff" d="M651.43,-64.5C659.86,-64.5 668.51,-64.5 676.82,-64.5"/>
<polygon fill="#63b8ff" stroke="#63b8ff" points="651.3,-61 641.3,-64.5 651.3,-68 651.3,-61"/>
</a>
</g>
</g>
<!-- Node3 -->
<g id="Node000003" class="node">
<title>Node3</title>
<g id="a_Node000003"><a xlink:href="../../d5/d12/classxii_g_a_l_device_object.htm" target="_top" xlink:title="Base Graphics Abstraction Layer Object.">
<polygon fill="white" stroke="#666666" points="512,-74 399,-74 399,-55 512,-55 512,-74"/>
<text text-anchor="middle" x="455.5" y="-62" font-family="Helvetica,sans-Serif" font-size="10.00">xiiGALDeviceObject</text>
</a>
</g>
</g>
<!-- Node3&#45;&gt;Node2 -->
<g id="edge2_Node000002_Node000003" class="edge">
<title>Node3&#45;&gt;Node2</title>
<g id="a_edge2_Node000002_Node000003"><a xlink:title=" ">
<path fill="none" stroke="#63b8ff" d="M522.32,-64.5C530.97,-64.5 539.67,-64.5 547.88,-64.5"/>
<polygon fill="#63b8ff" stroke="#63b8ff" points="522.22,-61 512.22,-64.5 522.22,-68 522.22,-61"/>
</a>
</g>
</g>
<!-- Node4 -->
<g id="Node000004" class="node">
<title>Node4</title>
<g id="a_Node000004"><a xlink:href="../../d3/dda/classxii_g_a_l_object.htm" target="_top" xlink:title="Base Graphics Abstraction Layer Object.">
<polygon fill="white" stroke="#666666" points="363,-74 283,-74 283,-55 363,-55 363,-74"/>
<text text-anchor="middle" x="323" y="-62" font-family="Helvetica,sans-Serif" font-size="10.00">xiiGALObject</text>
</a>
</g>
</g>
<!-- Node4&#45;&gt;Node3 -->
<g id="edge3_Node000003_Node000004" class="edge">
<title>Node4&#45;&gt;Node3</title>
<g id="a_edge3_Node000003_Node000004"><a xlink:title=" ">
<path fill="none" stroke="#63b8ff" d="M373.19,-64.5C381.61,-64.5 390.4,-64.5 398.97,-64.5"/>
<polygon fill="#63b8ff" stroke="#63b8ff" points="373.15,-61 363.15,-64.5 373.15,-68 373.15,-61"/>
</a>
</g>
</g>
<!-- Node5 -->
<g id="Node000005" class="node">
<title>Node5</title>
<g id="a_Node000005"><a xlink:href="../../dc/d71/classxii_reflected_class.htm" target="_top" xlink:title="All classes that should be dynamically reflectable, need to be derived from this base class.">
<polygon fill="white" stroke="#666666" points="247,-93 146,-93 146,-74 247,-74 247,-93"/>
<text text-anchor="middle" x="196.5" y="-81" font-family="Helvetica,sans-Serif" font-size="10.00">xiiReflectedClass</text>
</a>
</g>
</g>
<!-- Node5&#45;&gt;Node4 -->
<g id="edge4_Node000004_Node000005" class="edge">
<title>Node5&#45;&gt;Node4</title>
<g id="a_edge4_Node000004_Node000005"><a xlink:title=" ">
<path fill="none" stroke="#63b8ff" d="M256.96,-74.43C265.79,-73.08 274.69,-71.72 282.96,-70.46"/>
<polygon fill="#63b8ff" stroke="#63b8ff" points="256.42,-70.97 247.06,-75.94 257.48,-77.89 256.42,-70.97"/>
</a>
</g>
</g>
<!-- Node6 -->
<g id="Node000006" class="node">
<title>Node6</title>
<g id="a_Node000006"><a xlink:href="../../d2/d38/classxii_no_base.htm" target="_top" xlink:title="Dummy type to pass to templates and macros that expect a base type for a class that has no base.">
<polygon fill="white" stroke="#666666" points="88,-93 22,-93 22,-74 88,-74 88,-93"/>
<text text-anchor="middle" x="55" y="-81" font-family="Helvetica,sans-Serif" font-size="10.00">xiiNoBase</text>
</a>
</g>
</g>
<!-- Node6&#45;&gt;Node5 -->
<g id="edge5_Node000005_Node000006" class="edge">
<title>Node6&#45;&gt;Node5</title>
<g id="a_edge5_Node000005_Node000006"><a xlink:title=" ">
<path fill="none" stroke="#63b8ff" d="M98.06,-83.5C113.12,-83.5 130.23,-83.5 145.87,-83.5"/>
<polygon fill="#63b8ff" stroke="#63b8ff" points="98,-80 88,-83.5 98,-87 98,-80"/>
</a>
</g>
</g>
<!-- Node7 -->
<g id="Node000007" class="node">
<title>Node7</title>
<g id="a_Node000007"><a xlink:href="../../d3/dd0/classxii_ref_counted.htm" target="_top" xlink:title="Base class for reference counted objects.">
<polygon fill="white" stroke="#666666" points="239.5,-56 153.5,-56 153.5,-37 239.5,-37 239.5,-56"/>
<text text-anchor="middle" x="196.5" y="-44" font-family="Helvetica,sans-Serif" font-size="10.00">xiiRefCounted</text>
</a>
</g>
</g>
<!-- Node7&#45;&gt;Node4 -->
<g id="edge6_Node000004_Node000007" class="edge">
<title>Node7&#45;&gt;Node4</title>
<g id="a_edge6_Node000004_Node000007"><a xlink:title=" ">
<path fill="none" stroke="#63b8ff" d="M249.68,-54.04C260.78,-55.65 272.32,-57.32 282.83,-58.84"/>
<polygon fill="#63b8ff" stroke="#63b8ff" points="250.05,-50.56 239.65,-52.59 249.05,-57.49 250.05,-50.56"/>
</a>
</g>
</g>
<!-- Node8 -->
<g id="Node000008" class="node">
<title>Node8</title>
<g id="a_Node000008"><a xlink:href="../../d7/df4/classxii_ref_counting_impl.htm" target="_top" xlink:title=" ">
<polygon fill="white" stroke="#bfbfbf" points="110,-56 0,-56 0,-37 110,-37 110,-56"/>
<text text-anchor="middle" x="55" y="-44" font-family="Helvetica,sans-Serif" font-size="10.00">xiiRefCountingImpl</text>
</a>
</g>
</g>
<!-- Node8&#45;&gt;Node7 -->
<g id="edge7_Node000007_Node000008" class="edge">
<title>Node8&#45;&gt;Node7</title>
<g id="a_edge7_Node000007_Node000008"><a xlink:title=" ">
<path fill="none" stroke="#63b8ff" d="M120.45,-46.5C131.57,-46.5 142.86,-46.5 153.19,-46.5"/>
<polygon fill="#63b8ff" stroke="#63b8ff" points="120.33,-43 110.33,-46.5 120.33,-50 120.33,-43"/>
</a>
</g>
</g>
</g>
</svg>
