<?xml version="1.0" encoding="UTF-8" standalone="no"?>
<!DOCTYPE svg PUBLIC "-//W3C//DTD SVG 1.1//EN"
 "http://www.w3.org/Graphics/SVG/1.1/DTD/svg11.dtd">
<!-- Generated by graphviz version 2.43.0 (0)
 -->
<!-- Title: xiiThisIsAString Pages: 1 -->
<svg width="627pt" height="271pt"
 viewBox="0.00 0.00 627.00 270.50" xmlns="http://www.w3.org/2000/svg" xmlns:xlink="http://www.w3.org/1999/xlink">
<g id="graph0" class="graph" transform="scale(1 1) rotate(0) translate(4 266.5)">
<title>xiiThisIsAString</title>
<!-- Node1 -->
<g id="Node000001" class="node">
<title>Node1</title>
<g id="a_Node000001"><a xlink:title="Base class which marks a class as containing string data.">
<polygon fill="#999999" stroke="#666666" points="92,-77 0,-77 0,-58 92,-58 92,-77"/>
<text text-anchor="middle" x="46" y="-65" font-family="Helvetica,sans-Serif" font-size="10.00">xiiThisIsAString</text>
</a>
</g>
</g>
<!-- Node2 -->
<g id="Node000002" class="node">
<title>Node2</title>
<g id="a_Node000002"><a xlink:href="../../d2/d29/structxii_string_base.htm" target="_top" xlink:title=" ">
<polygon fill="white" stroke="#666666" points="267.5,-152.5 130.5,-152.5 130.5,-122.5 267.5,-122.5 267.5,-152.5"/>
<text text-anchor="start" x="138.5" y="-140.5" font-family="Helvetica,sans-Serif" font-size="10.00">xiiStringBase&lt; xiiHybrid</text>
<text text-anchor="middle" x="199" y="-129.5" font-family="Helvetica,sans-Serif" font-size="10.00">StringBase&lt; Size &gt; &gt;</text>
</a>
</g>
</g>
<!-- Node1&#45;&gt;Node2 -->
<g id="edge1_Node000001_Node000002" class="edge">
<title>Node1&#45;&gt;Node2</title>
<g id="a_edge1_Node000001_Node000002"><a xlink:title=" ">
<path fill="none" stroke="#63b8ff" d="M70.4,-82.34C86.26,-92 107.91,-104.45 128,-113.5 135.03,-116.67 142.61,-119.67 150.09,-122.41"/>
<polygon fill="#63b8ff" stroke="#63b8ff" points="72.13,-79.29 61.79,-77.01 68.46,-85.25 72.13,-79.29"/>
</a>
</g>
</g>
<!-- Node10 -->
<g id="Node000010" class="node">
<title>Node10</title>
<g id="a_Node000010"><a xlink:href="../../d2/d29/structxii_string_base.htm" target="_top" xlink:title=" ">
<polygon fill="white" stroke="#666666" points="265.5,-104.5 132.5,-104.5 132.5,-74.5 265.5,-74.5 265.5,-104.5"/>
<text text-anchor="start" x="140.5" y="-92.5" font-family="Helvetica,sans-Serif" font-size="10.00">xiiStringBase&lt; xiiString</text>
<text text-anchor="middle" x="199" y="-81.5" font-family="Helvetica,sans-Serif" font-size="10.00">Builder &gt;</text>
</a>
</g>
</g>
<!-- Node1&#45;&gt;Node10 -->
<g id="edge9_Node000001_Node000010" class="edge">
<title>Node1&#45;&gt;Node10</title>
<g id="a_edge9_Node000001_Node000010"><a xlink:title=" ">
<path fill="none" stroke="#63b8ff" d="M102.28,-75.55C112.06,-76.98 122.32,-78.47 132.35,-79.94"/>
<polygon fill="#63b8ff" stroke="#63b8ff" points="102.71,-72.08 92.3,-74.1 101.7,-79.01 102.71,-72.08"/>
</a>
</g>
</g>
<!-- Node12 -->
<g id="Node000012" class="node">
<title>Node12</title>
<g id="a_Node000012"><a xlink:href="../../d2/d29/structxii_string_base.htm" target="_top" xlink:title="Base class for strings, which implements all read&#45;only string functions.">
<polygon fill="white" stroke="#666666" points="270,-56 128,-56 128,-37 270,-37 270,-56"/>
<text text-anchor="middle" x="199" y="-44" font-family="Helvetica,sans-Serif" font-size="10.00">xiiStringBase&lt; Derived &gt;</text>
</a>
</g>
</g>
<!-- Node1&#45;&gt;Node12 -->
<g id="edge11_Node000001_Node000012" class="edge">
<title>Node1&#45;&gt;Node12</title>
<g id="a_edge11_Node000001_Node000012"><a xlink:title=" ">
<path fill="none" stroke="#63b8ff" d="M102.44,-59.79C111.26,-58.56 120.47,-57.28 129.55,-56.02"/>
<polygon fill="#63b8ff" stroke="#63b8ff" points="101.73,-56.36 92.3,-61.2 102.69,-63.29 101.73,-56.36"/>
</a>
</g>
</g>
<!-- Node13 -->
<g id="Node000013" class="node">
<title>Node13</title>
<g id="a_Node000013"><a xlink:href="../../da/d9d/structxii_string_view.htm" target="_top" xlink:title="xiiStringView represent a read&#45;only sub&#45;string of a larger string, as it can store a dedicated string...">
<polygon fill="white" stroke="#666666" points="239.5,-19 158.5,-19 158.5,0 239.5,0 239.5,-19"/>
<text text-anchor="middle" x="199" y="-7" font-family="Helvetica,sans-Serif" font-size="10.00">xiiStringView</text>
</a>
</g>
</g>
<!-- Node1&#45;&gt;Node13 -->
<g id="edge12_Node000001_Node000013" class="edge">
<title>Node1&#45;&gt;Node13</title>
<g id="a_edge12_Node000001_Node000013"><a xlink:title=" ">
<path fill="none" stroke="#63b8ff" d="M72.95,-52.97C88.55,-44.67 109,-34.55 128,-27.5 137.65,-23.92 148.3,-20.79 158.32,-18.18"/>
<polygon fill="#63b8ff" stroke="#63b8ff" points="71.05,-50.01 63.92,-57.85 74.38,-56.17 71.05,-50.01"/>
</a>
</g>
</g>
<!-- Node3 -->
<g id="Node000003" class="node">
<title>Node3</title>
<g id="a_Node000003"><a xlink:href="../../df/d4f/structxii_hybrid_string_base.htm" target="_top" xlink:title="A string class for storing and passing around strings.">
<polygon fill="white" stroke="#666666" points="419,-152.5 306,-152.5 306,-122.5 419,-122.5 419,-152.5"/>
<text text-anchor="start" x="314" y="-140.5" font-family="Helvetica,sans-Serif" font-size="10.00">xiiHybridStringBase</text>
<text text-anchor="middle" x="362.5" y="-129.5" font-family="Helvetica,sans-Serif" font-size="10.00">&lt; Size &gt;</text>
</a>
</g>
</g>
<!-- Node2&#45;&gt;Node3 -->
<g id="edge2_Node000002_Node000003" class="edge">
<title>Node2&#45;&gt;Node3</title>
<g id="a_edge2_Node000002_Node000003"><a xlink:title=" ">
<path fill="none" stroke="#63b8ff" d="M277.82,-137.5C287.32,-137.5 296.88,-137.5 305.96,-137.5"/>
<polygon fill="#63b8ff" stroke="#63b8ff" points="277.55,-134 267.55,-137.5 277.55,-141 277.55,-134"/>
</a>
</g>
</g>
<!-- Node4 -->
<g id="Node000004" class="node">
<title>Node4</title>
<g id="a_Node000004"><a xlink:href="../../df/dfb/structxii_hybrid_string.htm" target="_top" xlink:title=" ">
<polygon fill="white" stroke="#666666" points="619,-262.5 455,-262.5 455,-232.5 619,-232.5 619,-262.5"/>
<text text-anchor="start" x="463" y="-250.5" font-family="Helvetica,sans-Serif" font-size="10.00">xiiHybridString&lt; 32,</text>
<text text-anchor="middle" x="537" y="-239.5" font-family="Helvetica,sans-Serif" font-size="10.00"> xiiDefaultAllocatorWrapper &gt;</text>
</a>
</g>
</g>
<!-- Node3&#45;&gt;Node4 -->
<g id="edge3_Node000003_Node000004" class="edge">
<title>Node3&#45;&gt;Node4</title>
<g id="a_edge3_Node000003_Node000004"><a xlink:title=" ">
<path fill="none" stroke="#63b8ff" d="M382.22,-160.28C399.31,-179.69 426.22,-206.97 455,-223.5 460.98,-226.93 467.49,-229.91 474.14,-232.49"/>
<polygon fill="#63b8ff" stroke="#63b8ff" points="384.7,-157.8 375.52,-152.5 379.4,-162.37 384.7,-157.8"/>
</a>
</g>
</g>
<!-- Node5 -->
<g id="Node000005" class="node">
<title>Node5</title>
<g id="a_Node000005"><a xlink:href="../../df/dfb/structxii_hybrid_string.htm" target="_top" xlink:title=" ">
<polygon fill="white" stroke="#666666" points="614.5,-214.5 459.5,-214.5 459.5,-184.5 614.5,-184.5 614.5,-214.5"/>
<text text-anchor="start" x="467.5" y="-202.5" font-family="Helvetica,sans-Serif" font-size="10.00">xiiHybridString&lt; 32U,</text>
<text text-anchor="middle" x="537" y="-191.5" font-family="Helvetica,sans-Serif" font-size="10.00"> xiiStaticAllocatorWrapper &gt;</text>
</a>
</g>
</g>
<!-- Node3&#45;&gt;Node5 -->
<g id="edge4_Node000003_Node000005" class="edge">
<title>Node3&#45;&gt;Node5</title>
<g id="a_edge4_Node000003_Node000005"><a xlink:title=" ">
<path fill="none" stroke="#63b8ff" d="M407.06,-156.69C422.11,-163.03 439.17,-169.89 455,-175.5 463.71,-178.59 473.04,-181.61 482.15,-184.41"/>
<polygon fill="#63b8ff" stroke="#63b8ff" points="408.06,-153.32 397.49,-152.62 405.32,-159.76 408.06,-153.32"/>
</a>
</g>
</g>
<!-- Node6 -->
<g id="Node000006" class="node">
<title>Node6</title>
<g id="a_Node000006"><a xlink:href="../../df/dfb/structxii_hybrid_string.htm" target="_top" xlink:title=" ">
<polygon fill="white" stroke="#666666" points="605.5,-166 468.5,-166 468.5,-147 605.5,-147 605.5,-166"/>
<text text-anchor="middle" x="537" y="-154" font-family="Helvetica,sans-Serif" font-size="10.00">xiiHybridString&lt; 128U &gt;</text>
</a>
</g>
</g>
<!-- Node3&#45;&gt;Node6 -->
<g id="edge5_Node000003_Node000006" class="edge">
<title>Node3&#45;&gt;Node6</title>
<g id="a_edge5_Node000003_Node000006"><a xlink:title=" ">
<path fill="none" stroke="#63b8ff" d="M429.12,-144.73C441.91,-146.14 455.34,-147.62 468.2,-149.03"/>
<polygon fill="#63b8ff" stroke="#63b8ff" points="429.35,-141.23 419.03,-143.62 428.59,-148.19 429.35,-141.23"/>
</a>
</g>
</g>
<!-- Node7 -->
<g id="Node000007" class="node">
<title>Node7</title>
<g id="a_Node000007"><a xlink:href="../../df/dfb/structxii_hybrid_string.htm" target="_top" xlink:title=" ">
<polygon fill="white" stroke="#666666" points="602.5,-129 471.5,-129 471.5,-110 602.5,-110 602.5,-129"/>
<text text-anchor="middle" x="537" y="-117" font-family="Helvetica,sans-Serif" font-size="10.00">xiiHybridString&lt; 32U &gt;</text>
</a>
</g>
</g>
<!-- Node3&#45;&gt;Node7 -->
<g id="edge6_Node000003_Node000007" class="edge">
<title>Node3&#45;&gt;Node7</title>
<g id="a_edge6_Node000003_Node000007"><a xlink:title=" ">
<path fill="none" stroke="#63b8ff" d="M429.37,-130.63C443.1,-129.19 457.57,-127.68 471.26,-126.26"/>
<polygon fill="#63b8ff" stroke="#63b8ff" points="428.61,-127.19 419.03,-131.71 429.34,-134.15 428.61,-127.19"/>
</a>
</g>
</g>
<!-- Node8 -->
<g id="Node000008" class="node">
<title>Node8</title>
<g id="a_Node000008"><a xlink:href="../../df/dfb/structxii_hybrid_string.htm" target="_top" xlink:title=" ">
<polygon fill="white" stroke="#666666" points="599,-92 475,-92 475,-73 599,-73 599,-92"/>
<text text-anchor="middle" x="537" y="-80" font-family="Helvetica,sans-Serif" font-size="10.00">xiiHybridString&lt; 64 &gt;</text>
</a>
</g>
</g>
<!-- Node3&#45;&gt;Node8 -->
<g id="edge7_Node000003_Node000008" class="edge">
<title>Node3&#45;&gt;Node8</title>
<g id="a_edge7_Node000003_Node000008"><a xlink:title=" ">
<path fill="none" stroke="#63b8ff" d="M407.73,-118.61C422.59,-112.66 439.36,-106.38 455,-101.5 466.31,-97.97 478.68,-94.75 490.28,-92.01"/>
<polygon fill="#63b8ff" stroke="#63b8ff" points="406.22,-115.44 398.27,-122.45 408.85,-121.93 406.22,-115.44"/>
</a>
</g>
</g>
<!-- Node9 -->
<g id="Node000009" class="node">
<title>Node9</title>
<g id="a_Node000009"><a xlink:href="../../df/dfb/structxii_hybrid_string.htm" target="_top" xlink:title=" ">
<polygon fill="white" stroke="#666666" points="599,-54.5 475,-54.5 475,-24.5 599,-24.5 599,-54.5"/>
<text text-anchor="start" x="483" y="-42.5" font-family="Helvetica,sans-Serif" font-size="10.00">xiiHybridString&lt; Size,</text>
<text text-anchor="middle" x="537" y="-31.5" font-family="Helvetica,sans-Serif" font-size="10.00"> AllocatorWrapper &gt;</text>
</a>
</g>
</g>
<!-- Node3&#45;&gt;Node9 -->
<g id="edge8_Node000003_Node000009" class="edge">
<title>Node3&#45;&gt;Node9</title>
<g id="a_edge8_Node000003_Node000009"><a xlink:title=" ">
<path fill="none" stroke="#63b8ff" d="M406.73,-117.23C411.04,-114.54 415.21,-111.62 419,-108.5 438.77,-92.22 433.75,-77.79 455,-63.5 461.09,-59.41 467.88,-56 474.88,-53.16"/>
<polygon fill="#63b8ff" stroke="#63b8ff" points="404.66,-114.39 397.77,-122.44 408.17,-120.44 404.66,-114.39"/>
</a>
</g>
</g>
<!-- Node11 -->
<g id="Node000011" class="node">
<title>Node11</title>
<g id="a_Node000011"><a xlink:href="../../d4/dbb/classxii_string_builder.htm" target="_top" xlink:title="xiiStringBuilder is a class that is meant for creating and modifying strings.">
<polygon fill="white" stroke="#666666" points="408.5,-99 316.5,-99 316.5,-80 408.5,-80 408.5,-99"/>
<text text-anchor="middle" x="362.5" y="-87" font-family="Helvetica,sans-Serif" font-size="10.00">xiiStringBuilder</text>
</a>
</g>
</g>
<!-- Node10&#45;&gt;Node11 -->
<g id="edge10_Node000010_Node000011" class="edge">
<title>Node10&#45;&gt;Node11</title>
<g id="a_edge10_Node000010_Node000011"><a xlink:title=" ">
<path fill="none" stroke="#63b8ff" d="M275.7,-89.5C289.52,-89.5 303.55,-89.5 316.14,-89.5"/>
<polygon fill="#63b8ff" stroke="#63b8ff" points="275.69,-86 265.69,-89.5 275.69,-93 275.69,-86"/>
</a>
</g>
</g>
</g>
</svg>
