<?xml version="1.0" encoding="UTF-8" standalone="no"?>
<!DOCTYPE svg PUBLIC "-//W3C//DTD SVG 1.1//EN"
 "http://www.w3.org/Graphics/SVG/1.1/DTD/svg11.dtd">
<!-- Generated by graphviz version 2.43.0 (0)
 -->
<!-- Title: xiiRenderPipelineNodePin Pages: 1 -->
<svg width="363pt" height="116pt"
 viewBox="0.00 0.00 363.00 115.50" xmlns="http://www.w3.org/2000/svg" xmlns:xlink="http://www.w3.org/1999/xlink">
<g id="graph0" class="graph" transform="scale(1 1) rotate(0) translate(4 111.5)">
<title>xiiRenderPipelineNodePin</title>
<polygon fill="white" stroke="transparent" points="-4,4 -4,-111.5 359,-111.5 359,4 -4,4"/>
<!-- Node1 -->
<g id="node1" class="node">
<title>Node1</title>
<g id="a_node1"><a xlink:title=" ">
<polygon fill="#bfbfbf" stroke="black" points="0,-50 0,-69 143,-69 143,-50 0,-50"/>
<text text-anchor="middle" x="71.5" y="-57" font-family="Helvetica,sans-Serif" font-size="10.00">xiiRenderPipelineNodePin</text>
</a>
</g>
</g>
<!-- Node2 -->
<g id="node2" class="node">
<title>Node2</title>
<g id="a_node2"><a xlink:href="../../d4/d12/structxii_render_pipeline_node_input_pin.htm" target="_top" xlink:title=" ">
<polygon fill="white" stroke="black" points="183.5,-88 183.5,-107 350.5,-107 350.5,-88 183.5,-88"/>
<text text-anchor="middle" x="267" y="-95" font-family="Helvetica,sans-Serif" font-size="10.00">xiiRenderPipelineNodeInputPin</text>
</a>
</g>
</g>
<!-- Node1&#45;&gt;Node2 -->
<g id="edge1" class="edge">
<title>Node1&#45;&gt;Node2</title>
<path fill="none" stroke="midnightblue" d="M131.25,-71.04C158.85,-76.46 191.35,-82.84 217.52,-87.98"/>
<polygon fill="midnightblue" stroke="midnightblue" points="131.82,-67.58 121.33,-69.09 130.47,-74.45 131.82,-67.58"/>
</g>
<!-- Node3 -->
<g id="node3" class="node">
<title>Node3</title>
<g id="a_node3"><a xlink:href="../../d7/d3c/structxii_render_pipeline_node_output_pin.htm" target="_top" xlink:title=" ">
<polygon fill="white" stroke="black" points="179,-50 179,-69 355,-69 355,-50 179,-50"/>
<text text-anchor="middle" x="267" y="-57" font-family="Helvetica,sans-Serif" font-size="10.00">xiiRenderPipelineNodeOutputPin</text>
</a>
</g>
</g>
<!-- Node1&#45;&gt;Node3 -->
<g id="edge2" class="edge">
<title>Node1&#45;&gt;Node3</title>
<path fill="none" stroke="midnightblue" d="M153.31,-59.5C161.7,-59.5 170.26,-59.5 178.71,-59.5"/>
<polygon fill="midnightblue" stroke="midnightblue" points="153.18,-56 143.18,-59.5 153.18,-63 153.18,-56"/>
</g>
<!-- Node4 -->
<g id="node4" class="node">
<title>Node4</title>
<g id="a_node4"><a xlink:href="../../d8/ded/structxii_render_pipeline_node_pass_throug_pin.htm" target="_top" xlink:title=" ">
<polygon fill="white" stroke="black" points="192.5,-0.5 192.5,-30.5 341.5,-30.5 341.5,-0.5 192.5,-0.5"/>
<text text-anchor="start" x="200.5" y="-18.5" font-family="Helvetica,sans-Serif" font-size="10.00">xiiRenderPipelineNodePass</text>
<text text-anchor="middle" x="267" y="-7.5" font-family="Helvetica,sans-Serif" font-size="10.00">ThrougPin</text>
</a>
</g>
</g>
<!-- Node1&#45;&gt;Node4 -->
<g id="edge3" class="edge">
<title>Node1&#45;&gt;Node4</title>
<path fill="none" stroke="midnightblue" d="M124.45,-47.69C147.6,-42.42 175.14,-36.16 199.75,-30.57"/>
<polygon fill="midnightblue" stroke="midnightblue" points="123.46,-44.32 114.49,-49.95 125.01,-51.15 123.46,-44.32"/>
</g>
</g>
</svg>
