<?xml version="1.0" encoding="UTF-8" standalone="no"?>
<!DOCTYPE svg PUBLIC "-//W3C//DTD SVG 1.1//EN"
 "http://www.w3.org/Graphics/SVG/1.1/DTD/svg11.dtd">
<!-- Generated by graphviz version 2.43.0 (0)
 -->
<!-- Title: xiiQtDocumentTreeModelAdapter Pages: 1 -->
<svg width="536pt" height="252pt"
 viewBox="0.00 0.00 536.00 252.00" xmlns="http://www.w3.org/2000/svg" xmlns:xlink="http://www.w3.org/1999/xlink">
<g id="graph0" class="graph" transform="scale(1 1) rotate(0) translate(4 248)">
<title>xiiQtDocumentTreeModelAdapter</title>
<polygon fill="white" stroke="transparent" points="-4,4 -4,-248 532,-248 532,4 -4,4"/>
<!-- Node1 -->
<g id="node1" class="node">
<title>Node1</title>
<g id="a_node1"><a xlink:title="Adapter that defines data for specific type in the xiiQtDocumentTreeModel.">
<polygon fill="#bfbfbf" stroke="black" points="98,-168.5 98,-187.5 277,-187.5 277,-168.5 98,-168.5"/>
<text text-anchor="middle" x="187.5" y="-175.5" font-family="Helvetica,sans-Serif" font-size="10.00">xiiQtDocumentTreeModelAdapter</text>
</a>
</g>
</g>
<!-- Node3 -->
<g id="node3" class="node">
<title>Node3</title>
<g id="a_node3"><a xlink:href="../../d6/d97/classxii_qt_dummy_adapter.htm" target="_top" xlink:title="Convenience class that returns the typename as Qt::DisplayRole. Use this for testing or for the docum...">
<polygon fill="white" stroke="black" points="0,-112.5 0,-131.5 117,-131.5 117,-112.5 0,-112.5"/>
<text text-anchor="middle" x="58.5" y="-119.5" font-family="Helvetica,sans-Serif" font-size="10.00">xiiQtDummyAdapter</text>
</a>
</g>
</g>
<!-- Node1&#45;&gt;Node3 -->
<g id="edge2" class="edge">
<title>Node1&#45;&gt;Node3</title>
<path fill="none" stroke="midnightblue" d="M157.65,-164.5C133.46,-154.38 100.04,-140.39 78.84,-131.52"/>
<polygon fill="midnightblue" stroke="midnightblue" points="156.48,-167.81 167.06,-168.44 159.19,-161.35 156.48,-167.81"/>
</g>
<!-- Node4 -->
<g id="node4" class="node">
<title>Node4</title>
<g id="a_node4"><a xlink:href="../../d8/dc3/classxii_qt_layer_adapter.htm" target="_top" xlink:title="Custom adapter for layers, used in xiiQtLayerPanel.">
<polygon fill="white" stroke="black" points="135,-112.5 135,-131.5 240,-131.5 240,-112.5 135,-112.5"/>
<text text-anchor="middle" x="187.5" y="-119.5" font-family="Helvetica,sans-Serif" font-size="10.00">xiiQtLayerAdapter</text>
</a>
</g>
</g>
<!-- Node1&#45;&gt;Node4 -->
<g id="edge3" class="edge">
<title>Node1&#45;&gt;Node4</title>
<path fill="none" stroke="midnightblue" d="M187.5,-157.8C187.5,-148.91 187.5,-138.78 187.5,-131.75"/>
<polygon fill="midnightblue" stroke="midnightblue" points="184,-158.08 187.5,-168.08 191,-158.08 184,-158.08"/>
</g>
<!-- Node5 -->
<g id="node5" class="node">
<title>Node5</title>
<g id="a_node5"><a xlink:href="../../d2/d9c/classxii_qt_named_adapter.htm" target="_top" xlink:title="Convenience class that implements getting the name via a property on the object.">
<polygon fill="white" stroke="black" points="258,-112.5 258,-131.5 371,-131.5 371,-112.5 258,-112.5"/>
<text text-anchor="middle" x="314.5" y="-119.5" font-family="Helvetica,sans-Serif" font-size="10.00">xiiQtNamedAdapter</text>
</a>
</g>
</g>
<!-- Node1&#45;&gt;Node5 -->
<g id="edge4" class="edge">
<title>Node1&#45;&gt;Node5</title>
<path fill="none" stroke="midnightblue" d="M216.89,-164.5C240.7,-154.38 273.61,-140.39 294.47,-131.52"/>
<polygon fill="midnightblue" stroke="midnightblue" points="215.46,-161.31 207.62,-168.44 218.2,-167.75 215.46,-161.31"/>
</g>
<!-- Node2 -->
<g id="node2" class="node">
<title>Node2</title>
<g id="a_node2"><a xlink:title=" ">
<polygon fill="white" stroke="#bfbfbf" points="159.5,-224.5 159.5,-243.5 215.5,-243.5 215.5,-224.5 159.5,-224.5"/>
<text text-anchor="middle" x="187.5" y="-231.5" font-family="Helvetica,sans-Serif" font-size="10.00">QObject</text>
</a>
</g>
</g>
<!-- Node2&#45;&gt;Node1 -->
<g id="edge1" class="edge">
<title>Node2&#45;&gt;Node1</title>
<path fill="none" stroke="midnightblue" d="M187.5,-213.8C187.5,-204.91 187.5,-194.78 187.5,-187.75"/>
<polygon fill="midnightblue" stroke="midnightblue" points="184,-214.08 187.5,-224.08 191,-214.08 184,-214.08"/>
</g>
<!-- Node6 -->
<g id="node6" class="node">
<title>Node6</title>
<g id="a_node6"><a xlink:href="../../d9/d68/classxii_qt_joint_adapter.htm" target="_top" xlink:title=" ">
<polygon fill="white" stroke="black" points="198.5,-56.5 198.5,-75.5 298.5,-75.5 298.5,-56.5 198.5,-56.5"/>
<text text-anchor="middle" x="248.5" y="-63.5" font-family="Helvetica,sans-Serif" font-size="10.00">xiiQtJointAdapter</text>
</a>
</g>
</g>
<!-- Node5&#45;&gt;Node6 -->
<g id="edge5" class="edge">
<title>Node5&#45;&gt;Node6</title>
<path fill="none" stroke="midnightblue" d="M295.95,-105.82C284.12,-96.15 269.21,-83.95 259.3,-75.83"/>
<polygon fill="midnightblue" stroke="midnightblue" points="293.94,-108.7 303.9,-112.32 298.37,-103.28 293.94,-108.7"/>
</g>
<!-- Node7 -->
<g id="node7" class="node">
<title>Node7</title>
<g id="a_node7"><a xlink:href="../../de/d29/classxii_qt_nameable_adapter.htm" target="_top" xlink:title="Convenience class that implements setting the name via a property on the object.">
<polygon fill="white" stroke="black" points="316.5,-56.5 316.5,-75.5 444.5,-75.5 444.5,-56.5 316.5,-56.5"/>
<text text-anchor="middle" x="380.5" y="-63.5" font-family="Helvetica,sans-Serif" font-size="10.00">xiiQtNameableAdapter</text>
</a>
</g>
</g>
<!-- Node5&#45;&gt;Node7 -->
<g id="edge6" class="edge">
<title>Node5&#45;&gt;Node7</title>
<path fill="none" stroke="midnightblue" d="M333.05,-105.82C344.88,-96.15 359.79,-83.95 369.7,-75.83"/>
<polygon fill="midnightblue" stroke="midnightblue" points="330.63,-103.28 325.1,-112.32 335.06,-108.7 330.63,-103.28"/>
</g>
<!-- Node8 -->
<g id="node8" class="node">
<title>Node8</title>
<g id="a_node8"><a xlink:title=" ">
<polygon fill="white" stroke="#bfbfbf" points="234.5,-0.5 234.5,-19.5 370.5,-19.5 370.5,-0.5 234.5,-0.5"/>
<text text-anchor="middle" x="302.5" y="-7.5" font-family="Helvetica,sans-Serif" font-size="10.00">xiiQtAssetConfigAdapter</text>
</a>
</g>
</g>
<!-- Node7&#45;&gt;Node8 -->
<g id="edge7" class="edge">
<title>Node7&#45;&gt;Node8</title>
<path fill="none" stroke="midnightblue" d="M359.73,-50.62C345.48,-40.76 327.04,-27.99 315,-19.65"/>
<polygon fill="midnightblue" stroke="midnightblue" points="357.75,-53.51 367.97,-56.32 361.74,-47.75 357.75,-53.51"/>
</g>
<!-- Node9 -->
<g id="node9" class="node">
<title>Node9</title>
<g id="a_node9"><a xlink:href="../../d5/d21/classxii_qt_game_object_adapter.htm" target="_top" xlink:title=" ">
<polygon fill="white" stroke="black" points="389,-0.5 389,-19.5 528,-19.5 528,-0.5 389,-0.5"/>
<text text-anchor="middle" x="458.5" y="-7.5" font-family="Helvetica,sans-Serif" font-size="10.00">xiiQtGameObjectAdapter</text>
</a>
</g>
</g>
<!-- Node7&#45;&gt;Node9 -->
<g id="edge8" class="edge">
<title>Node7&#45;&gt;Node9</title>
<path fill="none" stroke="midnightblue" d="M401.27,-50.62C415.52,-40.76 433.96,-27.99 446,-19.65"/>
<polygon fill="midnightblue" stroke="midnightblue" points="399.26,-47.75 393.03,-56.32 403.25,-53.51 399.26,-47.75"/>
</g>
</g>
</svg>
