<?xml version="1.0" encoding="UTF-8" standalone="no"?>
<!DOCTYPE svg PUBLIC "-//W3C//DTD SVG 1.1//EN"
 "http://www.w3.org/Graphics/SVG/1.1/DTD/svg11.dtd">
<!-- Generated by graphviz version 2.43.0 (0)
 -->
<!-- Title: xiiQtDocumentTreeModelAdapter Pages: 1 -->
<svg width="536pt" height="247pt"
 viewBox="0.00 0.00 536.00 247.00" xmlns="http://www.w3.org/2000/svg" xmlns:xlink="http://www.w3.org/1999/xlink">
<g id="graph0" class="graph" transform="scale(1 1) rotate(0) translate(4 243)">
<title>xiiQtDocumentTreeModelAdapter</title>
<!-- Node1 -->
<g id="Node000001" class="node">
<title>Node1</title>
<g id="a_Node000001"><a xlink:title="Adapter that defines data for specific type in the xiiQtDocumentTreeModel.">
<polygon fill="#999999" stroke="#666666" points="277,-184 98,-184 98,-165 277,-165 277,-184"/>
<text text-anchor="middle" x="187.5" y="-172" font-family="Helvetica,sans-Serif" font-size="10.00">xiiQtDocumentTreeModelAdapter</text>
</a>
</g>
</g>
<!-- Node3 -->
<g id="Node000003" class="node">
<title>Node3</title>
<g id="a_Node000003"><a xlink:href="../../d6/d97/classxii_qt_dummy_adapter.html" target="_top" xlink:title="Convenience class that returns the typename as Qt::DisplayRole. Use this for testing or for the docum...">
<polygon fill="white" stroke="#666666" points="117,-129 0,-129 0,-110 117,-110 117,-129"/>
<text text-anchor="middle" x="58.5" y="-117" font-family="Helvetica,sans-Serif" font-size="10.00">xiiQtDummyAdapter</text>
</a>
</g>
</g>
<!-- Node1&#45;&gt;Node3 -->
<g id="edge2_Node000001_Node000003" class="edge">
<title>Node1&#45;&gt;Node3</title>
<g id="a_edge2_Node000001_Node000003"><a xlink:title=" ">
<path fill="none" stroke="#63b8ff" d="M157.46,-161.16C133.58,-151.35 100.78,-137.87 79.6,-129.17"/>
<polygon fill="#63b8ff" stroke="#63b8ff" points="156.19,-164.42 166.77,-164.98 158.85,-157.95 156.19,-164.42"/>
</a>
</g>
</g>
<!-- Node4 -->
<g id="Node000004" class="node">
<title>Node4</title>
<g id="a_Node000004"><a xlink:href="../../d8/dc3/classxii_qt_layer_adapter.html" target="_top" xlink:title="Custom adapter for layers, used in xiiQtLayerPanel.">
<polygon fill="white" stroke="#666666" points="240,-129 135,-129 135,-110 240,-110 240,-129"/>
<text text-anchor="middle" x="187.5" y="-117" font-family="Helvetica,sans-Serif" font-size="10.00">xiiQtLayerAdapter</text>
</a>
</g>
</g>
<!-- Node1&#45;&gt;Node4 -->
<g id="edge3_Node000001_Node000004" class="edge">
<title>Node1&#45;&gt;Node4</title>
<g id="a_edge3_Node000001_Node000004"><a xlink:title=" ">
<path fill="none" stroke="#63b8ff" d="M187.5,-154.66C187.5,-145.93 187.5,-135.99 187.5,-129.09"/>
<polygon fill="#63b8ff" stroke="#63b8ff" points="184,-154.75 187.5,-164.75 191,-154.75 184,-154.75"/>
</a>
</g>
</g>
<!-- Node5 -->
<g id="Node000005" class="node">
<title>Node5</title>
<g id="a_Node000005"><a xlink:href="../../d2/d9c/classxii_qt_named_adapter.html" target="_top" xlink:title="Convenience class that implements getting the name via a property on the object.">
<polygon fill="white" stroke="#666666" points="371,-129 258,-129 258,-110 371,-110 371,-129"/>
<text text-anchor="middle" x="314.5" y="-117" font-family="Helvetica,sans-Serif" font-size="10.00">xiiQtNamedAdapter</text>
</a>
</g>
</g>
<!-- Node1&#45;&gt;Node5 -->
<g id="edge4_Node000001_Node000005" class="edge">
<title>Node1&#45;&gt;Node5</title>
<g id="a_edge4_Node000001_Node000005"><a xlink:title=" ">
<path fill="none" stroke="#63b8ff" d="M217.38,-161.03C240.87,-151.23 272.97,-137.83 293.72,-129.17"/>
<polygon fill="#63b8ff" stroke="#63b8ff" points="215.79,-157.9 207.9,-164.98 218.48,-164.36 215.79,-157.9"/>
</a>
</g>
</g>
<!-- Node2 -->
<g id="Node000002" class="node">
<title>Node2</title>
<g id="a_Node000002"><a xlink:title=" ">
<polygon fill="white" stroke="#bfbfbf" points="215.5,-239 159.5,-239 159.5,-220 215.5,-220 215.5,-239"/>
<text text-anchor="middle" x="187.5" y="-227" font-family="Helvetica,sans-Serif" font-size="10.00">QObject</text>
</a>
</g>
</g>
<!-- Node2&#45;&gt;Node1 -->
<g id="edge1_Node000001_Node000002" class="edge">
<title>Node2&#45;&gt;Node1</title>
<g id="a_edge1_Node000001_Node000002"><a xlink:title=" ">
<path fill="none" stroke="#63b8ff" d="M187.5,-209.66C187.5,-200.93 187.5,-190.99 187.5,-184.09"/>
<polygon fill="#63b8ff" stroke="#63b8ff" points="184,-209.75 187.5,-219.75 191,-209.75 184,-209.75"/>
</a>
</g>
</g>
<!-- Node6 -->
<g id="Node000006" class="node">
<title>Node6</title>
<g id="a_Node000006"><a xlink:href="../../d9/d68/classxii_qt_joint_adapter.html" target="_top" xlink:title=" ">
<polygon fill="white" stroke="#bfbfbf" points="298.5,-74 198.5,-74 198.5,-55 298.5,-55 298.5,-74"/>
<text text-anchor="middle" x="248.5" y="-62" font-family="Helvetica,sans-Serif" font-size="10.00">xiiQtJointAdapter</text>
</a>
</g>
</g>
<!-- Node5&#45;&gt;Node6 -->
<g id="edge5_Node000005_Node000006" class="edge">
<title>Node5&#45;&gt;Node6</title>
<g id="a_edge5_Node000005_Node000006"><a xlink:title=" ">
<path fill="none" stroke="#63b8ff" d="M295.95,-103.6C284.12,-94.11 269.21,-82.13 259.3,-74.17"/>
<polygon fill="#63b8ff" stroke="#63b8ff" points="293.91,-106.45 303.9,-109.98 298.29,-100.99 293.91,-106.45"/>
</a>
</g>
</g>
<!-- Node7 -->
<g id="Node000007" class="node">
<title>Node7</title>
<g id="a_Node000007"><a xlink:href="../../de/d29/classxii_qt_nameable_adapter.html" target="_top" xlink:title="Convenience class that implements setting the name via a property on the object.">
<polygon fill="white" stroke="#666666" points="444.5,-74 316.5,-74 316.5,-55 444.5,-55 444.5,-74"/>
<text text-anchor="middle" x="380.5" y="-62" font-family="Helvetica,sans-Serif" font-size="10.00">xiiQtNameableAdapter</text>
</a>
</g>
</g>
<!-- Node5&#45;&gt;Node7 -->
<g id="edge6_Node000005_Node000007" class="edge">
<title>Node5&#45;&gt;Node7</title>
<g id="a_edge6_Node000005_Node000007"><a xlink:title=" ">
<path fill="none" stroke="#63b8ff" d="M333.05,-103.6C344.88,-94.11 359.79,-82.13 369.7,-74.17"/>
<polygon fill="#63b8ff" stroke="#63b8ff" points="330.71,-100.99 325.1,-109.98 335.09,-106.45 330.71,-100.99"/>
</a>
</g>
</g>
<!-- Node8 -->
<g id="Node000008" class="node">
<title>Node8</title>
<g id="a_Node000008"><a xlink:title=" ">
<polygon fill="white" stroke="#bfbfbf" points="370.5,-19 234.5,-19 234.5,0 370.5,0 370.5,-19"/>
<text text-anchor="middle" x="302.5" y="-7" font-family="Helvetica,sans-Serif" font-size="10.00">xiiQtAssetConfigAdapter</text>
</a>
</g>
</g>
<!-- Node7&#45;&gt;Node8 -->
<g id="edge7_Node000007_Node000008" class="edge">
<title>Node7&#45;&gt;Node8</title>
<g id="a_edge7_Node000007_Node000008"><a xlink:title=" ">
<path fill="none" stroke="#63b8ff" d="M359.38,-49.15C345.29,-39.57 327.21,-27.29 315.26,-19.17"/>
<polygon fill="#63b8ff" stroke="#63b8ff" points="357.73,-52.26 367.97,-54.98 361.66,-46.47 357.73,-52.26"/>
</a>
</g>
</g>
<!-- Node9 -->
<g id="Node000009" class="node">
<title>Node9</title>
<g id="a_Node000009"><a xlink:href="../../d5/d21/classxii_qt_game_object_adapter.html" target="_top" xlink:title=" ">
<polygon fill="white" stroke="#bfbfbf" points="528,-19 389,-19 389,0 528,0 528,-19"/>
<text text-anchor="middle" x="458.5" y="-7" font-family="Helvetica,sans-Serif" font-size="10.00">xiiQtGameObjectAdapter</text>
</a>
</g>
</g>
<!-- Node7&#45;&gt;Node9 -->
<g id="edge8_Node000007_Node000009" class="edge">
<title>Node7&#45;&gt;Node9</title>
<g id="a_edge8_Node000007_Node000009"><a xlink:title=" ">
<path fill="none" stroke="#63b8ff" d="M401.62,-49.15C415.71,-39.57 433.79,-27.29 445.74,-19.17"/>
<polygon fill="#63b8ff" stroke="#63b8ff" points="399.34,-46.47 393.03,-54.98 403.27,-52.26 399.34,-46.47"/>
</a>
</g>
</g>
</g>
</svg>
