<?xml version="1.0" encoding="UTF-8" standalone="no"?>
<!DOCTYPE svg PUBLIC "-//W3C//DTD SVG 1.1//EN"
 "http://www.w3.org/Graphics/SVG/1.1/DTD/svg11.dtd">
<!-- Generated by graphviz version 2.43.0 (0)
 -->
<!-- Title: xiiTranslatorStorage Pages: 1 -->
<svg width="473pt" height="137pt"
 viewBox="0.00 0.00 472.50 137.00" xmlns="http://www.w3.org/2000/svg" xmlns:xlink="http://www.w3.org/1999/xlink">
<g id="graph0" class="graph" transform="scale(1 1) rotate(0) translate(4 133)">
<title>xiiTranslatorStorage</title>
<!-- Node1 -->
<g id="Node000001" class="node">
<title>Node1</title>
<g id="a_Node000001"><a xlink:title="Can store translated strings and all translation requests will come from that storage....">
<polygon fill="#999999" stroke="#666666" points="265,-74 151,-74 151,-55 265,-55 265,-74"/>
<text text-anchor="middle" x="208" y="-62" font-family="Helvetica,sans-Serif" font-size="10.00">xiiTranslatorStorage</text>
</a>
</g>
</g>
<!-- Node3 -->
<g id="Node000003" class="node">
<title>Node3</title>
<g id="a_Node000003"><a xlink:href="../../d6/dff/classxii_translator_from_files.htm" target="_top" xlink:title="Loads translations from files. Each translator can have different search paths, but the files to be l...">
<polygon fill="white" stroke="#666666" points="124,-19 0,-19 0,0 124,0 124,-19"/>
<text text-anchor="middle" x="62" y="-7" font-family="Helvetica,sans-Serif" font-size="10.00">xiiTranslatorFromFiles</text>
</a>
</g>
</g>
<!-- Node1&#45;&gt;Node3 -->
<g id="edge2_Node000001_Node000003" class="edge">
<title>Node1&#45;&gt;Node3</title>
<g id="a_edge2_Node000001_Node000003"><a xlink:title=" ">
<path fill="none" stroke="#63b8ff" d="M175.08,-51.55C147.97,-41.71 110.17,-27.98 85.88,-19.17"/>
<polygon fill="#63b8ff" stroke="#63b8ff" points="173.95,-54.86 184.54,-54.98 176.34,-48.28 173.95,-54.86"/>
</a>
</g>
</g>
<!-- Node4 -->
<g id="Node000004" class="node">
<title>Node4</title>
<g id="a_Node000004"><a xlink:href="../../db/d93/classxii_translator_log_missing.htm" target="_top" xlink:title="Outputs a &#39;Missing Translation&#39; warning the first time a string translation is requested....">
<polygon fill="white" stroke="#666666" points="273.5,-19 142.5,-19 142.5,0 273.5,0 273.5,-19"/>
<text text-anchor="middle" x="208" y="-7" font-family="Helvetica,sans-Serif" font-size="10.00">xiiTranslatorLogMissing</text>
</a>
</g>
</g>
<!-- Node1&#45;&gt;Node4 -->
<g id="edge3_Node000001_Node000004" class="edge">
<title>Node1&#45;&gt;Node4</title>
<g id="a_edge3_Node000001_Node000004"><a xlink:title=" ">
<path fill="none" stroke="#63b8ff" d="M208,-44.66C208,-35.93 208,-25.99 208,-19.09"/>
<polygon fill="#63b8ff" stroke="#63b8ff" points="204.5,-44.75 208,-54.75 211.5,-44.75 204.5,-44.75"/>
</a>
</g>
</g>
<!-- Node5 -->
<g id="Node000005" class="node">
<title>Node5</title>
<g id="a_Node000005"><a xlink:href="../../d8/db6/classxii_translator_make_more_readable.htm" target="_top" xlink:title="Returns the same string that is passed into it, but strips off class names and separates the text at ...">
<polygon fill="white" stroke="#666666" points="464.5,-19 291.5,-19 291.5,0 464.5,0 464.5,-19"/>
<text text-anchor="middle" x="378" y="-7" font-family="Helvetica,sans-Serif" font-size="10.00">xiiTranslatorMakeMoreReadable</text>
</a>
</g>
</g>
<!-- Node1&#45;&gt;Node5 -->
<g id="edge4_Node000001_Node000005" class="edge">
<title>Node1&#45;&gt;Node5</title>
<g id="a_edge4_Node000001_Node000005"><a xlink:title=" ">
<path fill="none" stroke="#63b8ff" d="M245.12,-51.93C276.87,-42.03 321.85,-28.01 350.47,-19.08"/>
<polygon fill="#63b8ff" stroke="#63b8ff" points="243.82,-48.67 235.31,-54.98 245.9,-55.35 243.82,-48.67"/>
</a>
</g>
</g>
<!-- Node2 -->
<g id="Node000002" class="node">
<title>Node2</title>
<g id="a_Node000002"><a xlink:href="../../d5/d99/classxii_translator.htm" target="_top" xlink:title="Base class to translate one string into another.">
<polygon fill="white" stroke="#666666" points="246.5,-129 169.5,-129 169.5,-110 246.5,-110 246.5,-129"/>
<text text-anchor="middle" x="208" y="-117" font-family="Helvetica,sans-Serif" font-size="10.00">xiiTranslator</text>
</a>
</g>
</g>
<!-- Node2&#45;&gt;Node1 -->
<g id="edge1_Node000001_Node000002" class="edge">
<title>Node2&#45;&gt;Node1</title>
<g id="a_edge1_Node000001_Node000002"><a xlink:title=" ">
<path fill="none" stroke="#63b8ff" d="M208,-99.66C208,-90.93 208,-80.99 208,-74.09"/>
<polygon fill="#63b8ff" stroke="#63b8ff" points="204.5,-99.75 208,-109.75 211.5,-99.75 204.5,-99.75"/>
</a>
</g>
</g>
</g>
</svg>
