<?xml version="1.0" encoding="UTF-8" standalone="no"?>
<!DOCTYPE svg PUBLIC "-//W3C//DTD SVG 1.1//EN"
 "http://www.w3.org/Graphics/SVG/1.1/DTD/svg11.dtd">
<!-- Generated by graphviz version 2.43.0 (0)
 -->
<!-- Title: xiiTranslatorStorage Pages: 1 -->
<svg width="473pt" height="140pt"
 viewBox="0.00 0.00 472.50 140.00" xmlns="http://www.w3.org/2000/svg" xmlns:xlink="http://www.w3.org/1999/xlink">
<g id="graph0" class="graph" transform="scale(1 1) rotate(0) translate(4 136)">
<title>xiiTranslatorStorage</title>
<polygon fill="white" stroke="transparent" points="-4,4 -4,-136 468.5,-136 468.5,4 -4,4"/>
<!-- Node1 -->
<g id="node1" class="node">
<title>Node1</title>
<g id="a_node1"><a xlink:title="Can store translated strings and all translation requests will come from that storage....">
<polygon fill="#bfbfbf" stroke="black" points="151,-56.5 151,-75.5 265,-75.5 265,-56.5 151,-56.5"/>
<text text-anchor="middle" x="208" y="-63.5" font-family="Helvetica,sans-Serif" font-size="10.00">xiiTranslatorStorage</text>
</a>
</g>
</g>
<!-- Node3 -->
<g id="node3" class="node">
<title>Node3</title>
<g id="a_node3"><a xlink:href="../../d6/dff/classxii_translator_from_files.htm" target="_top" xlink:title="Loads translations from files. Each translator can have different search paths, but the files to be l...">
<polygon fill="white" stroke="black" points="0,-0.5 0,-19.5 124,-19.5 124,-0.5 0,-0.5"/>
<text text-anchor="middle" x="62" y="-7.5" font-family="Helvetica,sans-Serif" font-size="10.00">xiiTranslatorFromFiles</text>
</a>
</g>
</g>
<!-- Node1&#45;&gt;Node3 -->
<g id="edge2" class="edge">
<title>Node1&#45;&gt;Node3</title>
<path fill="none" stroke="midnightblue" d="M175.3,-52.91C147.85,-42.75 109.33,-28.51 85.03,-19.52"/>
<polygon fill="midnightblue" stroke="midnightblue" points="174.27,-56.26 184.87,-56.44 176.7,-49.69 174.27,-56.26"/>
</g>
<!-- Node4 -->
<g id="node4" class="node">
<title>Node4</title>
<g id="a_node4"><a xlink:href="../../db/d93/classxii_translator_log_missing.htm" target="_top" xlink:title="Outputs a &#39;Missing Translation&#39; warning the first time a string translation is requested....">
<polygon fill="white" stroke="black" points="142.5,-0.5 142.5,-19.5 273.5,-19.5 273.5,-0.5 142.5,-0.5"/>
<text text-anchor="middle" x="208" y="-7.5" font-family="Helvetica,sans-Serif" font-size="10.00">xiiTranslatorLogMissing</text>
</a>
</g>
</g>
<!-- Node1&#45;&gt;Node4 -->
<g id="edge3" class="edge">
<title>Node1&#45;&gt;Node4</title>
<path fill="none" stroke="midnightblue" d="M208,-45.8C208,-36.91 208,-26.78 208,-19.75"/>
<polygon fill="midnightblue" stroke="midnightblue" points="204.5,-46.08 208,-56.08 211.5,-46.08 204.5,-46.08"/>
</g>
<!-- Node5 -->
<g id="node5" class="node">
<title>Node5</title>
<g id="a_node5"><a xlink:href="../../d8/db6/classxii_translator_make_more_readable.htm" target="_top" xlink:title="Returns the same string that is passed into it, but strips off class names and separates the text at ...">
<polygon fill="white" stroke="black" points="291.5,-0.5 291.5,-19.5 464.5,-19.5 464.5,-0.5 291.5,-0.5"/>
<text text-anchor="middle" x="378" y="-7.5" font-family="Helvetica,sans-Serif" font-size="10.00">xiiTranslatorMakeMoreReadable</text>
</a>
</g>
</g>
<!-- Node1&#45;&gt;Node5 -->
<g id="edge4" class="edge">
<title>Node1&#45;&gt;Node5</title>
<path fill="none" stroke="midnightblue" d="M244.82,-53.3C276.85,-43.13 322.52,-28.62 351.19,-19.52"/>
<polygon fill="midnightblue" stroke="midnightblue" points="243.41,-50.08 234.94,-56.44 245.53,-56.75 243.41,-50.08"/>
</g>
<!-- Node2 -->
<g id="node2" class="node">
<title>Node2</title>
<g id="a_node2"><a xlink:href="../../d5/d99/classxii_translator.htm" target="_top" xlink:title="Base class to translate one string into another.">
<polygon fill="white" stroke="black" points="169.5,-112.5 169.5,-131.5 246.5,-131.5 246.5,-112.5 169.5,-112.5"/>
<text text-anchor="middle" x="208" y="-119.5" font-family="Helvetica,sans-Serif" font-size="10.00">xiiTranslator</text>
</a>
</g>
</g>
<!-- Node2&#45;&gt;Node1 -->
<g id="edge1" class="edge">
<title>Node2&#45;&gt;Node1</title>
<path fill="none" stroke="midnightblue" d="M208,-101.8C208,-92.91 208,-82.78 208,-75.75"/>
<polygon fill="midnightblue" stroke="midnightblue" points="204.5,-102.08 208,-112.08 211.5,-102.08 204.5,-102.08"/>
</g>
</g>
</svg>
