<?xml version="1.0" encoding="UTF-8" standalone="no"?>
<!DOCTYPE svg PUBLIC "-//W3C//DTD SVG 1.1//EN"
 "http://www.w3.org/Graphics/SVG/1.1/DTD/svg11.dtd">
<!-- Generated by graphviz version 2.43.0 (0)
 -->
<!-- Title: xiiQtDynamicStringEnumPropertyWidget Pages: 1 -->
<svg width="189pt" height="203pt"
 viewBox="0.00 0.00 189.00 203.00" xmlns="http://www.w3.org/2000/svg" xmlns:xlink="http://www.w3.org/1999/xlink">
<g id="graph0" class="graph" transform="scale(1 1) rotate(0) translate(4 199)">
<title>xiiQtDynamicStringEnumPropertyWidget</title>
<!-- Node1 -->
<g id="Node000001" class="node">
<title>Node1</title>
<g id="a_Node000001"><a xlink:title=" ">
<polygon fill="#999999" stroke="#666666" points="181,-30 0,-30 0,0 181,0 181,-30"/>
<text text-anchor="start" x="8" y="-18" font-family="Helvetica,sans-Serif" font-size="10.00">xiiQtDynamicStringEnumProperty</text>
<text text-anchor="middle" x="90.5" y="-7" font-family="Helvetica,sans-Serif" font-size="10.00">Widget</text>
</a>
</g>
</g>
<!-- Node2 -->
<g id="Node000002" class="node">
<title>Node2</title>
<g id="a_Node000002"><a xlink:href="../../d5/db2/classxii_qt_standard_property_widget.html" target="_top" xlink:title="Base class for most &#39;simple&#39; property type widgets. Implements some of the standard functionality.">
<polygon fill="white" stroke="#666666" points="170,-85 11,-85 11,-66 170,-66 170,-85"/>
<text text-anchor="middle" x="90.5" y="-73" font-family="Helvetica,sans-Serif" font-size="10.00">xiiQtStandardPropertyWidget</text>
</a>
</g>
</g>
<!-- Node2&#45;&gt;Node1 -->
<g id="edge1_Node000001_Node000002" class="edge">
<title>Node2&#45;&gt;Node1</title>
<g id="a_edge1_Node000001_Node000002"><a xlink:title=" ">
<path fill="none" stroke="#63b8ff" d="M90.5,-55.65C90.5,-47.36 90.5,-37.78 90.5,-30.11"/>
<polygon fill="#63b8ff" stroke="#63b8ff" points="87,-55.87 90.5,-65.87 94,-55.87 87,-55.87"/>
</a>
</g>
</g>
<!-- Node3 -->
<g id="Node000003" class="node">
<title>Node3</title>
<g id="a_Node000003"><a xlink:href="../../d9/d80/classxii_qt_property_widget.html" target="_top" xlink:title="Base class for all property widgets.">
<polygon fill="white" stroke="#666666" points="148.5,-140 32.5,-140 32.5,-121 148.5,-121 148.5,-140"/>
<text text-anchor="middle" x="90.5" y="-128" font-family="Helvetica,sans-Serif" font-size="10.00">xiiQtPropertyWidget</text>
</a>
</g>
</g>
<!-- Node3&#45;&gt;Node2 -->
<g id="edge2_Node000002_Node000003" class="edge">
<title>Node3&#45;&gt;Node2</title>
<g id="a_edge2_Node000002_Node000003"><a xlink:title=" ">
<path fill="none" stroke="#63b8ff" d="M90.5,-110.66C90.5,-101.93 90.5,-91.99 90.5,-85.09"/>
<polygon fill="#63b8ff" stroke="#63b8ff" points="87,-110.75 90.5,-120.75 94,-110.75 87,-110.75"/>
</a>
</g>
</g>
<!-- Node4 -->
<g id="Node000004" class="node">
<title>Node4</title>
<g id="a_Node000004"><a xlink:title=" ">
<polygon fill="white" stroke="#bfbfbf" points="120,-195 61,-195 61,-176 120,-176 120,-195"/>
<text text-anchor="middle" x="90.5" y="-183" font-family="Helvetica,sans-Serif" font-size="10.00">QWidget</text>
</a>
</g>
</g>
<!-- Node4&#45;&gt;Node3 -->
<g id="edge3_Node000003_Node000004" class="edge">
<title>Node4&#45;&gt;Node3</title>
<g id="a_edge3_Node000003_Node000004"><a xlink:title=" ">
<path fill="none" stroke="#63b8ff" d="M90.5,-165.66C90.5,-156.93 90.5,-146.99 90.5,-140.09"/>
<polygon fill="#63b8ff" stroke="#63b8ff" points="87,-165.75 90.5,-175.75 94,-165.75 87,-165.75"/>
</a>
</g>
</g>
</g>
</svg>
