<?xml version="1.0" encoding="UTF-8" standalone="no"?>
<!DOCTYPE svg PUBLIC "-//W3C//DTD SVG 1.1//EN"
 "http://www.w3.org/Graphics/SVG/1.1/DTD/svg11.dtd">
<!-- Generated by graphviz version 2.43.0 (0)
 -->
<!-- Title: xiiAbstractConstantProperty Pages: 1 -->
<svg width="326pt" height="218pt"
 viewBox="0.00 0.00 325.50 218.00" xmlns="http://www.w3.org/2000/svg" xmlns:xlink="http://www.w3.org/1999/xlink">
<g id="graph0" class="graph" transform="scale(1 1) rotate(0) translate(4 214)">
<title>xiiAbstractConstantProperty</title>
<polygon fill="white" stroke="transparent" points="-4,4 -4,-214 321.5,-214 321.5,4 -4,4"/>
<!-- Node1 -->
<g id="node1" class="node">
<title>Node1</title>
<g id="a_node1"><a xlink:title="This is the base class for all constant properties that are stored inside the RTTI data.">
<polygon fill="#bfbfbf" stroke="black" points="85.5,-134.5 85.5,-153.5 239.5,-153.5 239.5,-134.5 85.5,-134.5"/>
<text text-anchor="middle" x="162.5" y="-141.5" font-family="Helvetica,sans-Serif" font-size="10.00">xiiAbstractConstantProperty</text>
</a>
</g>
</g>
<!-- Node3 -->
<g id="node3" class="node">
<title>Node3</title>
<g id="a_node3"><a xlink:href="../../d0/d47/classxii_phantom_constant_property.htm" target="_top" xlink:title=" ">
<polygon fill="white" stroke="black" points="0,-73 0,-92 157,-92 157,-73 0,-73"/>
<text text-anchor="middle" x="78.5" y="-80" font-family="Helvetica,sans-Serif" font-size="10.00">xiiPhantomConstantProperty</text>
</a>
</g>
</g>
<!-- Node1&#45;&gt;Node3 -->
<g id="edge2" class="edge">
<title>Node1&#45;&gt;Node3</title>
<path fill="none" stroke="midnightblue" d="M142.19,-128.61C126.03,-117.17 103.98,-101.55 90.51,-92.01"/>
<polygon fill="midnightblue" stroke="midnightblue" points="140.28,-131.55 150.46,-134.48 144.33,-125.84 140.28,-131.55"/>
</g>
<!-- Node4 -->
<g id="node4" class="node">
<title>Node4</title>
<g id="a_node4"><a xlink:href="../../d3/de4/classxii_typed_constant_property.htm" target="_top" xlink:title="The base class for all typed member properties. Ie. once the type of a property is determined,...">
<polygon fill="white" stroke="black" points="175.5,-67.5 175.5,-97.5 317.5,-97.5 317.5,-67.5 175.5,-67.5"/>
<text text-anchor="start" x="183.5" y="-85.5" font-family="Helvetica,sans-Serif" font-size="10.00">xiiTypedConstantProperty</text>
<text text-anchor="middle" x="246.5" y="-74.5" font-family="Helvetica,sans-Serif" font-size="10.00">&lt; Type &gt;</text>
</a>
</g>
</g>
<!-- Node1&#45;&gt;Node4 -->
<g id="edge3" class="edge">
<title>Node1&#45;&gt;Node4</title>
<path fill="none" stroke="midnightblue" d="M183.02,-128.47C196.32,-119.05 213.55,-106.84 226.7,-97.52"/>
<polygon fill="midnightblue" stroke="midnightblue" points="180.67,-125.84 174.54,-134.48 184.72,-131.55 180.67,-125.84"/>
</g>
<!-- Node2 -->
<g id="node2" class="node">
<title>Node2</title>
<g id="a_node2"><a xlink:href="../../da/d25/classxii_abstract_property.htm" target="_top" xlink:title="This is the base interface for all properties in the reflection system. It provides enough informatio...">
<polygon fill="white" stroke="black" points="107.5,-190.5 107.5,-209.5 217.5,-209.5 217.5,-190.5 107.5,-190.5"/>
<text text-anchor="middle" x="162.5" y="-197.5" font-family="Helvetica,sans-Serif" font-size="10.00">xiiAbstractProperty</text>
</a>
</g>
</g>
<!-- Node2&#45;&gt;Node1 -->
<g id="edge1" class="edge">
<title>Node2&#45;&gt;Node1</title>
<path fill="none" stroke="midnightblue" d="M162.5,-179.8C162.5,-170.91 162.5,-160.78 162.5,-153.75"/>
<polygon fill="midnightblue" stroke="midnightblue" points="159,-180.08 162.5,-190.08 166,-180.08 159,-180.08"/>
</g>
<!-- Node5 -->
<g id="node5" class="node">
<title>Node5</title>
<g id="a_node5"><a xlink:href="../../dd/d56/classxii_constant_property.htm" target="_top" xlink:title="[internal] An implementation of xiiTypedConstantProperty that accesses the property data directly.">
<polygon fill="white" stroke="black" points="190,-0.5 190,-30.5 303,-30.5 303,-0.5 190,-0.5"/>
<text text-anchor="start" x="198" y="-18.5" font-family="Helvetica,sans-Serif" font-size="10.00">xiiConstantProperty</text>
<text text-anchor="middle" x="246.5" y="-7.5" font-family="Helvetica,sans-Serif" font-size="10.00">&lt; Type &gt;</text>
</a>
</g>
</g>
<!-- Node4&#45;&gt;Node5 -->
<g id="edge4" class="edge">
<title>Node4&#45;&gt;Node5</title>
<path fill="none" stroke="midnightblue" d="M246.5,-57.11C246.5,-48.15 246.5,-38.32 246.5,-30.58"/>
<polygon fill="midnightblue" stroke="midnightblue" points="243,-57.4 246.5,-67.4 250,-57.4 243,-57.4"/>
</g>
</g>
</svg>
