<?xml version="1.0" encoding="UTF-8" standalone="no"?>
<!DOCTYPE svg PUBLIC "-//W3C//DTD SVG 1.1//EN"
 "http://www.w3.org/Graphics/SVG/1.1/DTD/svg11.dtd">
<!-- Generated by graphviz version 2.43.0 (0)
 -->
<!-- Title: xiiAssetDocumentGenerator Pages: 1 -->
<!--zoomable 340 -->
<svg id="main" version="1.1" xmlns="http://www.w3.org/2000/svg" xmlns:xlink="http://www.w3.org/1999/xlink" xml:space="preserve" onload="init(evt)">
<style type="text/css"><![CDATA[
.edge:hover path { stroke: red; }
.edge:hover polygon { stroke: red; fill: red; }
]]></style>
<script type="text/javascript"><![CDATA[
var edges = document.getElementsByTagName('g');
if (edges && edges.length) {
  for (var i=0;i<edges.length;i++) {
    if (edges[i].id.substr(0,4)=='edge') {
      edges[i].setAttribute('class','edge');
    }
  }
}
]]></script>
        <defs>
                <circle id="rim" cx="0" cy="0" r="7"/>
                <circle id="rim2" cx="0" cy="0" r="3.5"/>
                <g id="zoomPlus">
                        <use xlink:href="#rim" fill="#404040">
                                <set attributeName="fill" to="#808080" begin="zoomplus.mouseover" end="zoomplus.mouseout"/>
                        </use>
                        <path d="M-4,0h8M0,-4v8" fill="none" stroke="white" stroke-width="1.5" pointer-events="none"/>
                </g>
                <g id="zoomMin">
                        <use xlink:href="#rim" fill="#404040">
                                <set attributeName="fill" to="#808080" begin="zoomminus.mouseover" end="zoomminus.mouseout"/>
                        </use>
                        <path d="M-4,0h8" fill="none" stroke="white" stroke-width="1.5" pointer-events="none"/>
                </g>
                <g id="dirArrow">
                        <path fill="none" stroke="white" stroke-width="1.5" d="M0,-3.0v7 M-2.5,-0.5L0,-3.0L2.5,-0.5"/>
                </g>
               <g id="resetDef">
                       <use xlink:href="#rim2" fill="#404040">
                               <set attributeName="fill" to="#808080" begin="reset.mouseover" end="reset.mouseout"/>
                       </use>
               </g>
        </defs>

<script type="text/javascript">
var viewWidth = 629;
var viewHeight = 340;
var sectionId = 'dynsection-0';
</script>
<script xlink:href="../../svgpan.js"/>
<svg id="graph" class="graph">
<g id="viewport">
<title>xiiAssetDocumentGenerator</title>
<polygon fill="white" stroke="transparent" points="-4,4 -4,-336 625,-336 625,4 -4,4"/>
<!-- Node1 -->
<g id="node1" class="node">
<title>Node1</title>
<g id="a_node1"><a xlink:title="Provides functionality for importing files as asset documents.">
<polygon fill="#bfbfbf" stroke="black" points="239,-157 239,-176 394,-176 394,-157 239,-157"/>
<text text-anchor="middle" x="316.5" y="-164" font-family="Helvetica,sans-Serif" font-size="10.00">xiiAssetDocumentGenerator</text>
</a>
</g>
</g>
<!-- Node4 -->
<g id="node4" class="node">
<title>Node4</title>
<g id="a_node4"><a xlink:href="../../d4/dd5/classxii_animated_mesh_asset_document_generator.htm" target="_top" xlink:title=" ">
<polygon fill="white" stroke="black" points="436,-301.5 436,-331.5 615,-331.5 615,-301.5 436,-301.5"/>
<text text-anchor="start" x="444" y="-319.5" font-family="Helvetica,sans-Serif" font-size="10.00">xiiAnimatedMeshAssetDocument</text>
<text text-anchor="middle" x="525.5" y="-308.5" font-family="Helvetica,sans-Serif" font-size="10.00">Generator</text>
</a>
</g>
</g>
<!-- Node1&#45;&gt;Node4 -->
<g id="edge3" class="edge">
<title>Node1&#45;&gt;Node4</title>
<path fill="none" stroke="midnightblue" d="M328.68,-184.84C346.56,-212.53 384.25,-264.74 430,-292.5 435.64,-295.92 441.76,-298.86 448.08,-301.38"/>
<polygon fill="midnightblue" stroke="midnightblue" points="331.5,-182.74 323.21,-176.14 325.58,-186.47 331.5,-182.74"/>
</g>
<!-- Node5 -->
<g id="node5" class="node">
<title>Node5</title>
<g id="a_node5"><a xlink:href="../../d4/d85/classxii_animation_clip_asset_document_generator.htm" target="_top" xlink:title=" ">
<polygon fill="white" stroke="black" points="438,-252.5 438,-282.5 613,-282.5 613,-252.5 438,-252.5"/>
<text text-anchor="start" x="446" y="-270.5" font-family="Helvetica,sans-Serif" font-size="10.00">xiiAnimationClipAssetDocument</text>
<text text-anchor="middle" x="525.5" y="-259.5" font-family="Helvetica,sans-Serif" font-size="10.00">Generator</text>
</a>
</g>
</g>
<!-- Node1&#45;&gt;Node5 -->
<g id="edge4" class="edge">
<title>Node1&#45;&gt;Node5</title>
<path fill="none" stroke="midnightblue" d="M336.87,-182.59C358.38,-199.7 394.73,-226.48 430,-242.5 438.34,-246.29 447.37,-249.59 456.43,-252.45"/>
<polygon fill="midnightblue" stroke="midnightblue" points="338.84,-179.68 328.87,-176.11 334.44,-185.12 338.84,-179.68"/>
</g>
<!-- Node6 -->
<g id="node6" class="node">
<title>Node6</title>
<g id="a_node6"><a xlink:href="../../db/d08/classxii_decal_asset_document_generator.htm" target="_top" xlink:title=" ">
<polygon fill="white" stroke="black" points="434.5,-214 434.5,-233 616.5,-233 616.5,-214 434.5,-214"/>
<text text-anchor="middle" x="525.5" y="-221" font-family="Helvetica,sans-Serif" font-size="10.00">xiiDecalAssetDocumentGenerator</text>
</a>
</g>
</g>
<!-- Node1&#45;&gt;Node6 -->
<g id="edge5" class="edge">
<title>Node1&#45;&gt;Node6</title>
<path fill="none" stroke="midnightblue" d="M352.28,-179.53C374.33,-187.47 403.58,-197.41 430,-204.5 443.09,-208.01 457.36,-211.2 470.75,-213.93"/>
<polygon fill="midnightblue" stroke="midnightblue" points="353.28,-176.17 342.69,-176.04 350.89,-182.74 353.28,-176.17"/>
</g>
<!-- Node7 -->
<g id="node7" class="node">
<title>Node7</title>
<g id="a_node7"><a xlink:href="../../df/da3/classxii_l_u_t_asset_document_generator.htm" target="_top" xlink:title=" ">
<polygon fill="white" stroke="black" points="439,-176 439,-195 612,-195 612,-176 439,-176"/>
<text text-anchor="middle" x="525.5" y="-183" font-family="Helvetica,sans-Serif" font-size="10.00">xiiLUTAssetDocumentGenerator</text>
</a>
</g>
</g>
<!-- Node1&#45;&gt;Node7 -->
<g id="edge6" class="edge">
<title>Node1&#45;&gt;Node7</title>
<path fill="none" stroke="midnightblue" d="M404.59,-174.49C415.9,-175.53 427.49,-176.6 438.78,-177.63"/>
<polygon fill="midnightblue" stroke="midnightblue" points="404.56,-170.98 394.28,-173.55 403.92,-177.95 404.56,-170.98"/>
</g>
<!-- Node8 -->
<g id="node8" class="node">
<title>Node8</title>
<g id="a_node8"><a xlink:href="../../de/d61/classxii_mesh_asset_document_generator.htm" target="_top" xlink:title=" ">
<polygon fill="white" stroke="black" points="435,-138 435,-157 616,-157 616,-138 435,-138"/>
<text text-anchor="middle" x="525.5" y="-145" font-family="Helvetica,sans-Serif" font-size="10.00">xiiMeshAssetDocumentGenerator</text>
</a>
</g>
</g>
<!-- Node1&#45;&gt;Node8 -->
<g id="edge7" class="edge">
<title>Node1&#45;&gt;Node8</title>
<path fill="none" stroke="midnightblue" d="M404.31,-158.53C414.43,-157.6 424.76,-156.66 434.91,-155.72"/>
<polygon fill="midnightblue" stroke="midnightblue" points="403.92,-155.05 394.28,-159.45 404.56,-162.02 403.92,-155.05"/>
</g>
<!-- Node9 -->
<g id="node9" class="node">
<title>Node9</title>
<g id="a_node9"><a xlink:href="../../db/d3c/classxii_skeleton_asset_document_generator.htm" target="_top" xlink:title=" ">
<polygon fill="white" stroke="black" points="451.5,-88.5 451.5,-118.5 599.5,-118.5 599.5,-88.5 451.5,-88.5"/>
<text text-anchor="start" x="459.5" y="-106.5" font-family="Helvetica,sans-Serif" font-size="10.00">xiiSkeletonAssetDocument</text>
<text text-anchor="middle" x="525.5" y="-95.5" font-family="Helvetica,sans-Serif" font-size="10.00">Generator</text>
</a>
</g>
</g>
<!-- Node1&#45;&gt;Node9 -->
<g id="edge8" class="edge">
<title>Node1&#45;&gt;Node9</title>
<path fill="none" stroke="midnightblue" d="M353.74,-153.57C375.69,-145.91 404.32,-136.22 430,-128.5 441.29,-125.1 453.42,-121.71 465.1,-118.56"/>
<polygon fill="midnightblue" stroke="midnightblue" points="352.44,-150.32 344.16,-156.93 354.75,-156.92 352.44,-150.32"/>
</g>
<!-- Node10 -->
<g id="node10" class="node">
<title>Node10</title>
<g id="a_node10"><a xlink:href="../../d9/dfd/classxii_texture_asset_document_generator.htm" target="_top" xlink:title=" ">
<polygon fill="white" stroke="black" points="430,-50 430,-69 621,-69 621,-50 430,-50"/>
<text text-anchor="middle" x="525.5" y="-57" font-family="Helvetica,sans-Serif" font-size="10.00">xiiTextureAssetDocumentGenerator</text>
</a>
</g>
</g>
<!-- Node1&#45;&gt;Node10 -->
<g id="edge9" class="edge">
<title>Node1&#45;&gt;Node10</title>
<path fill="none" stroke="midnightblue" d="M333.95,-149.48C354.49,-129.29 391.62,-96.16 430,-78.5 438.44,-74.62 447.66,-71.53 456.93,-69.07"/>
<polygon fill="midnightblue" stroke="midnightblue" points="331.27,-147.22 326.69,-156.77 336.23,-152.16 331.27,-147.22"/>
</g>
<!-- Node11 -->
<g id="node11" class="node">
<title>Node11</title>
<g id="a_node11"><a xlink:href="../../da/de8/classxii_texture_cube_asset_document_generator.htm" target="_top" xlink:title=" ">
<polygon fill="white" stroke="black" points="442,-0.5 442,-30.5 609,-30.5 609,-0.5 442,-0.5"/>
<text text-anchor="start" x="450" y="-18.5" font-family="Helvetica,sans-Serif" font-size="10.00">xiiTextureCubeAssetDocument</text>
<text text-anchor="middle" x="525.5" y="-7.5" font-family="Helvetica,sans-Serif" font-size="10.00">Generator</text>
</a>
</g>
</g>
<!-- Node1&#45;&gt;Node11 -->
<g id="edge10" class="edge">
<title>Node1&#45;&gt;Node11</title>
<path fill="none" stroke="midnightblue" d="M328.72,-148.22C346.64,-120.6 384.39,-68.48 430,-40.5 436.36,-36.6 443.33,-33.29 450.51,-30.5"/>
<polygon fill="midnightblue" stroke="midnightblue" points="325.62,-146.57 323.23,-156.89 331.54,-150.31 325.62,-146.57"/>
</g>
<!-- Node2 -->
<g id="node2" class="node">
<title>Node2</title>
<g id="a_node2"><a xlink:href="../../dc/d71/classxii_reflected_class.htm" target="_top" xlink:title="All classes that should be dynamically reflectable, need to be derived from this base class.">
<polygon fill="white" stroke="black" points="102,-157 102,-176 203,-176 203,-157 102,-157"/>
<text text-anchor="middle" x="152.5" y="-164" font-family="Helvetica,sans-Serif" font-size="10.00">xiiReflectedClass</text>
</a>
</g>
</g>
<!-- Node2&#45;&gt;Node1 -->
<g id="edge1" class="edge">
<title>Node2&#45;&gt;Node1</title>
<path fill="none" stroke="midnightblue" d="M213.67,-166.5C221.9,-166.5 230.45,-166.5 238.93,-166.5"/>
<polygon fill="midnightblue" stroke="midnightblue" points="213.43,-163 203.43,-166.5 213.43,-170 213.43,-163"/>
</g>
<!-- Node3 -->
<g id="node3" class="node">
<title>Node3</title>
<g id="a_node3"><a xlink:href="../../d2/d38/classxii_no_base.htm" target="_top" xlink:title="Dummy type to pass to templates and macros that expect a base type for a class that has no base.">
<polygon fill="white" stroke="black" points="0,-157 0,-176 66,-176 66,-157 0,-157"/>
<text text-anchor="middle" x="33" y="-164" font-family="Helvetica,sans-Serif" font-size="10.00">xiiNoBase</text>
</a>
</g>
</g>
<!-- Node3&#45;&gt;Node2 -->
<g id="edge2" class="edge">
<title>Node3&#45;&gt;Node2</title>
<path fill="none" stroke="midnightblue" d="M76.27,-166.5C84.54,-166.5 93.29,-166.5 101.78,-166.5"/>
<polygon fill="midnightblue" stroke="midnightblue" points="76.11,-163 66.11,-166.5 76.11,-170 76.11,-163"/>
</g>
</g>
</svg>
        <g id="navigator" transform="translate(0 0)" fill="#404254">
                <rect fill="#f2f5e9" fill-opacity="0.5" stroke="#606060" stroke-width=".5" x="0" y="0" width="60" height="60"/>
                <use id="zoomplus" xlink:href="#zoomPlus" x="17" y="9" onmousedown="handleZoom(evt,'in')"/>
                <use id="zoomminus" xlink:href="#zoomMin" x="42" y="9" onmousedown="handleZoom(evt,'out')"/>
                <use id="reset" xlink:href="#resetDef" x="30" y="36" onmousedown="handleReset()"/>
                <g id="arrowUp" xlink:href="#dirArrow" transform="translate(30 24)" onmousedown="handlePan(0,-1)">
                  <use xlink:href="#rim" fill="#404040">
                        <set attributeName="fill" to="#808080" begin="arrowUp.mouseover" end="arrowUp.mouseout"/>
                  </use>
                  <path fill="none" stroke="white" stroke-width="1.5" d="M0,-3.0v7 M-2.5,-0.5L0,-3.0L2.5,-0.5"/>
                </g>
                <g id="arrowRight" xlink:href="#dirArrow" transform="rotate(90) translate(36 -43)" onmousedown="handlePan(1,0)">
                  <use xlink:href="#rim" fill="#404040">
                        <set attributeName="fill" to="#808080" begin="arrowRight.mouseover" end="arrowRight.mouseout"/>
                  </use>
                  <path fill="none" stroke="white" stroke-width="1.5" d="M0,-3.0v7 M-2.5,-0.5L0,-3.0L2.5,-0.5"/>
                </g>
                <g id="arrowDown" xlink:href="#dirArrow" transform="rotate(180) translate(-30 -48)" onmousedown="handlePan(0,1)">
                  <use xlink:href="#rim" fill="#404040">
                        <set attributeName="fill" to="#808080" begin="arrowDown.mouseover" end="arrowDown.mouseout"/>
                  </use>
                  <path fill="none" stroke="white" stroke-width="1.5" d="M0,-3.0v7 M-2.5,-0.5L0,-3.0L2.5,-0.5"/>
                </g>
                <g id="arrowLeft" xlink:href="#dirArrow" transform="rotate(270) translate(-36 17)" onmousedown="handlePan(-1,0)">
                  <use xlink:href="#rim" fill="#404040">
                        <set attributeName="fill" to="#808080" begin="arrowLeft.mouseover" end="arrowLeft.mouseout"/>
                  </use>
                  <path fill="none" stroke="white" stroke-width="1.5" d="M0,-3.0v7 M-2.5,-0.5L0,-3.0L2.5,-0.5"/>
                </g>
        </g>
        <svg viewBox="0 0 15 15" width="100%" height="30px" preserveAspectRatio="xMaxYMin meet">
         <g id="arrow_out" transform="scale(0.3 0.3)">
          <a xlink:href="classxii_asset_document_generator__inherit__graph_org.svg" target="_base">
           <rect id="button" ry="5" rx="5" y="6" x="6" height="38" width="38"
                fill="#f2f5e9" fill-opacity="0.5" stroke="#606060" stroke-width="1.0"/>
           <path id="arrow"
             d="M 11.500037,31.436501 C 11.940474,20.09759 22.043105,11.32322 32.158766,21.979434 L 37.068811,17.246167 C 37.068811,17.246167 37.088388,32 37.088388,32 L 22.160133,31.978069 C 22.160133,31.978069 26.997745,27.140456 26.997745,27.140456 C 18.528582,18.264221 13.291696,25.230495 11.500037,31.436501 z"
             style="fill:#404040;"/>
          </a>
         </g>
        </svg>
</svg>
