<?xml version="1.0" encoding="UTF-8" standalone="no"?>
<!DOCTYPE svg PUBLIC "-//W3C//DTD SVG 1.1//EN"
 "http://www.w3.org/Graphics/SVG/1.1/DTD/svg11.dtd">
<!-- Generated by graphviz version 2.43.0 (0)
 -->
<!-- Title: xiiAssetDocumentGenerator Pages: 1 -->
<!--zoomable 332 -->

<svg id="main" version="1.1" xmlns="http://www.w3.org/2000/svg" xmlns:xlink="http://www.w3.org/1999/xlink" xml:space="preserve" onload="init(evt)">
<style type="text/css"><![CDATA[
.node, .edge {opacity: 0.7;}
.node.selected, .edge.selected {opacity: 1;}
.edge:hover path { stroke: red; }
.edge:hover polygon { stroke: red; fill: red; }
]]></style>

<defs>
  <circle id="rim" cx="0" cy="0" r="7"/>
  <circle id="rim2" cx="0" cy="0" r="3.5"/>
  <g id="zoomPlus">
    <use xlink:href="#rim" fill="#404040"><set attributeName="fill" to="#808080" begin="zoomplus.mouseover" end="zoomplus.mouseout"/></use>
    <path d="M-4,0h8M0,-4v8" fill="none" stroke="white" stroke-width="1.5" pointer-events="none"/>
  </g>
  <g id="zoomMin">
    <use xlink:href="#rim" fill="#404040"><set attributeName="fill" to="#808080" begin="zoomminus.mouseover" end="zoomminus.mouseout"/></use>
    <path d="M-4,0h8" fill="none" stroke="white" stroke-width="1.5" pointer-events="none"/>
  </g>
  <g id="arrowUp" transform="translate(30 24)">
    <use xlink:href="#rim"/>
    <path pointer-events="none" fill="none" stroke="white" stroke-width="1.5" d="M0,-3.0v7 M-2.5,-0.5L0,-3.0L2.5,-0.5"/>
  </g>
  <g id="arrowRight" transform="rotate(90) translate(36 -43)">
    <use xlink:href="#rim"/>
    <path pointer-events="none" fill="none" stroke="white" stroke-width="1.5" d="M0,-3.0v7 M-2.5,-0.5L0,-3.0L2.5,-0.5"/>
  </g>
  <g id="arrowDown" transform="rotate(180) translate(-30 -48)">
    <use xlink:href="#rim"/>
    <path pointer-events="none" fill="none" stroke="white" stroke-width="1.5" d="M0,-3.0v7 M-2.5,-0.5L0,-3.0L2.5,-0.5"/>
  </g>
  <g id="arrowLeft" transform="rotate(270) translate(-36 17)">
    <use xlink:href="#rim"/>
    <path pointer-events="none" fill="none" stroke="white" stroke-width="1.5" d="M0,-3.0v7 M-2.5,-0.5L0,-3.0L2.5,-0.5"/>
  </g>
  <g id="resetDef">
    <use xlink:href="#rim2" fill="#404040"><set attributeName="fill" to="#808080" begin="reset.mouseover" end="reset.mouseout"/></use>
  </g>
</defs>
<script type="application/ecmascript">
var viewWidth = 629;
var viewHeight = 332;
var sectionId = 'dynsection-0';
</script>
<script type="application/ecmascript" xlink:href="../../svg.min.js"/>
<svg id="graph" class="graph">
<g id="viewport">
<title>xiiAssetDocumentGenerator</title>
<!-- Node1 -->
<g id="Node000001" class="node">
<title>Node1</title>
<g id="a_Node000001"><a xlink:title="Provides functionality for importing files as asset documents.">
<polygon fill="#999999" stroke="#666666" points="394,-171.5 239,-171.5 239,-152.5 394,-152.5 394,-171.5"/>
<text text-anchor="middle" x="316.5" y="-159.5" font-family="Helvetica,sans-Serif" font-size="10.00">xiiAssetDocumentGenerator</text>
</a>
</g>
</g>
<!-- Node4 -->
<g id="Node000004" class="node">
<title>Node4</title>
<g id="a_Node000004"><a xlink:href="../../d4/dd5/classxii_animated_mesh_asset_document_generator.html" target="_top" xlink:title=" ">
<polygon fill="white" stroke="#bfbfbf" points="615,-324 436,-324 436,-294 615,-294 615,-324"/>
<text text-anchor="start" x="444" y="-312" font-family="Helvetica,sans-Serif" font-size="10.00">xiiAnimatedMeshAssetDocument</text>
<text text-anchor="middle" x="525.5" y="-301" font-family="Helvetica,sans-Serif" font-size="10.00">Generator</text>
</a>
</g>
</g>
<!-- Node1&#45;&gt;Node4 -->
<g id="edge3_Node000001_Node000004" class="edge">
<title>Node1&#45;&gt;Node4</title>
<g id="a_edge3_Node000001_Node000004"><a xlink:title=" ">
<path fill="none" stroke="#63b8ff" d="M329.06,-180.29C347.18,-207.42 384.91,-258.01 430,-285 435.66,-288.39 441.8,-291.3 448.12,-293.81"/>
<polygon fill="#63b8ff" stroke="#63b8ff" points="331.88,-178.22 323.49,-171.75 326.02,-182.04 331.88,-178.22"/>
</a>
</g>
</g>
<!-- Node5 -->
<g id="Node000005" class="node">
<title>Node5</title>
<g id="a_Node000005"><a xlink:href="../../d4/d85/classxii_animation_clip_asset_document_generator.html" target="_top" xlink:title=" ">
<polygon fill="white" stroke="#bfbfbf" points="613,-276 438,-276 438,-246 613,-246 613,-276"/>
<text text-anchor="start" x="446" y="-264" font-family="Helvetica,sans-Serif" font-size="10.00">xiiAnimationClipAssetDocument</text>
<text text-anchor="middle" x="525.5" y="-253" font-family="Helvetica,sans-Serif" font-size="10.00">Generator</text>
</a>
</g>
</g>
<!-- Node1&#45;&gt;Node5 -->
<g id="edge4_Node000001_Node000005" class="edge">
<title>Node1&#45;&gt;Node5</title>
<g id="a_edge4_Node000001_Node000005"><a xlink:title=" ">
<path fill="none" stroke="#63b8ff" d="M336.88,-177.93C358.39,-194.86 394.75,-221.33 430,-237 437.66,-240.4 445.88,-243.39 454.18,-245.99"/>
<polygon fill="#63b8ff" stroke="#63b8ff" points="338.87,-175.04 328.87,-171.52 334.49,-180.5 338.87,-175.04"/>
</a>
</g>
</g>
<!-- Node6 -->
<g id="Node000006" class="node">
<title>Node6</title>
<g id="a_Node000006"><a xlink:href="../../db/d08/classxii_decal_asset_document_generator.html" target="_top" xlink:title=" ">
<polygon fill="white" stroke="#bfbfbf" points="616.5,-227.5 434.5,-227.5 434.5,-208.5 616.5,-208.5 616.5,-227.5"/>
<text text-anchor="middle" x="525.5" y="-215.5" font-family="Helvetica,sans-Serif" font-size="10.00">xiiDecalAssetDocumentGenerator</text>
</a>
</g>
</g>
<!-- Node1&#45;&gt;Node6 -->
<g id="edge5_Node000001_Node000006" class="edge">
<title>Node1&#45;&gt;Node6</title>
<g id="a_edge5_Node000001_Node000006"><a xlink:title=" ">
<path fill="none" stroke="#63b8ff" d="M352.25,-175.12C374.29,-183.09 403.55,-193.05 430,-200 442.03,-203.16 455.07,-206.01 467.5,-208.45"/>
<polygon fill="#63b8ff" stroke="#63b8ff" points="353.26,-171.76 342.67,-171.61 350.85,-178.33 353.26,-171.76"/>
</a>
</g>
</g>
<!-- Node7 -->
<g id="Node000007" class="node">
<title>Node7</title>
<g id="a_Node000007"><a xlink:href="../../df/da3/classxii_l_u_t_asset_document_generator.html" target="_top" xlink:title=" ">
<polygon fill="white" stroke="#bfbfbf" points="612,-190.5 439,-190.5 439,-171.5 612,-171.5 612,-190.5"/>
<text text-anchor="middle" x="525.5" y="-178.5" font-family="Helvetica,sans-Serif" font-size="10.00">xiiLUTAssetDocumentGenerator</text>
</a>
</g>
</g>
<!-- Node1&#45;&gt;Node7 -->
<g id="edge6_Node000001_Node000007" class="edge">
<title>Node1&#45;&gt;Node7</title>
<g id="a_edge6_Node000001_Node000007"><a xlink:title=" ">
<path fill="none" stroke="#63b8ff" d="M404.59,-169.99C415.9,-171.03 427.49,-172.1 438.78,-173.13"/>
<polygon fill="#63b8ff" stroke="#63b8ff" points="404.56,-166.48 394.28,-169.05 403.92,-173.45 404.56,-166.48"/>
</a>
</g>
</g>
<!-- Node8 -->
<g id="Node000008" class="node">
<title>Node8</title>
<g id="a_Node000008"><a xlink:href="../../de/d61/classxii_mesh_asset_document_generator.html" target="_top" xlink:title=" ">
<polygon fill="white" stroke="#bfbfbf" points="616,-153.5 435,-153.5 435,-134.5 616,-134.5 616,-153.5"/>
<text text-anchor="middle" x="525.5" y="-141.5" font-family="Helvetica,sans-Serif" font-size="10.00">xiiMeshAssetDocumentGenerator</text>
</a>
</g>
</g>
<!-- Node1&#45;&gt;Node8 -->
<g id="edge7_Node000001_Node000008" class="edge">
<title>Node1&#45;&gt;Node8</title>
<g id="a_edge7_Node000001_Node000008"><a xlink:title=" ">
<path fill="none" stroke="#63b8ff" d="M404.31,-154.45C414.43,-153.57 424.76,-152.67 434.91,-151.79"/>
<polygon fill="#63b8ff" stroke="#63b8ff" points="403.94,-150.97 394.28,-155.32 404.55,-157.94 403.94,-150.97"/>
</a>
</g>
</g>
<!-- Node9 -->
<g id="Node000009" class="node">
<title>Node9</title>
<g id="a_Node000009"><a xlink:href="../../db/d3c/classxii_skeleton_asset_document_generator.html" target="_top" xlink:title=" ">
<polygon fill="white" stroke="#bfbfbf" points="599.5,-116 451.5,-116 451.5,-86 599.5,-86 599.5,-116"/>
<text text-anchor="start" x="459.5" y="-104" font-family="Helvetica,sans-Serif" font-size="10.00">xiiSkeletonAssetDocument</text>
<text text-anchor="middle" x="525.5" y="-93" font-family="Helvetica,sans-Serif" font-size="10.00">Generator</text>
</a>
</g>
</g>
<!-- Node1&#45;&gt;Node9 -->
<g id="edge8_Node000001_Node000009" class="edge">
<title>Node1&#45;&gt;Node9</title>
<g id="a_edge8_Node000001_Node000009"><a xlink:title=" ">
<path fill="none" stroke="#63b8ff" d="M354.18,-149.23C376.07,-141.78 404.49,-132.42 430,-125 440.56,-121.93 451.86,-118.86 462.83,-116.01"/>
<polygon fill="#63b8ff" stroke="#63b8ff" points="352.94,-145.95 344.62,-152.5 355.21,-152.57 352.94,-145.95"/>
</a>
</g>
</g>
<!-- Node10 -->
<g id="Node000010" class="node">
<title>Node10</title>
<g id="a_Node000010"><a xlink:href="../../d9/dfd/classxii_texture_asset_document_generator.html" target="_top" xlink:title=" ">
<polygon fill="white" stroke="#bfbfbf" points="621,-67.5 430,-67.5 430,-48.5 621,-48.5 621,-67.5"/>
<text text-anchor="middle" x="525.5" y="-55.5" font-family="Helvetica,sans-Serif" font-size="10.00">xiiTextureAssetDocumentGenerator</text>
</a>
</g>
</g>
<!-- Node1&#45;&gt;Node10 -->
<g id="edge9_Node000001_Node000010" class="edge">
<title>Node1&#45;&gt;Node10</title>
<g id="a_edge9_Node000001_Node000010"><a xlink:title=" ">
<path fill="none" stroke="#63b8ff" d="M334.39,-145.28C355.11,-125.77 392.16,-94.02 430,-77 438.62,-73.12 448.04,-70.03 457.49,-67.56"/>
<polygon fill="#63b8ff" stroke="#63b8ff" points="331.83,-142.88 327.04,-152.33 336.68,-147.93 331.83,-142.88"/>
</a>
</g>
</g>
<!-- Node11 -->
<g id="Node000011" class="node">
<title>Node11</title>
<g id="a_Node000011"><a xlink:href="../../da/de8/classxii_texture_cube_asset_document_generator.html" target="_top" xlink:title=" ">
<polygon fill="white" stroke="#bfbfbf" points="609,-30 442,-30 442,0 609,0 609,-30"/>
<text text-anchor="start" x="450" y="-18" font-family="Helvetica,sans-Serif" font-size="10.00">xiiTextureCubeAssetDocument</text>
<text text-anchor="middle" x="525.5" y="-7" font-family="Helvetica,sans-Serif" font-size="10.00">Generator</text>
</a>
</g>
</g>
<!-- Node1&#45;&gt;Node11 -->
<g id="edge10_Node000001_Node000011" class="edge">
<title>Node1&#45;&gt;Node11</title>
<g id="a_edge10_Node000001_Node000011"><a xlink:title=" ">
<path fill="none" stroke="#63b8ff" d="M329.06,-143.71C347.18,-116.58 384.91,-65.99 430,-39 435.66,-35.61 441.8,-32.7 448.12,-30.19"/>
<polygon fill="#63b8ff" stroke="#63b8ff" points="326.02,-141.96 323.49,-152.25 331.88,-145.78 326.02,-141.96"/>
</a>
</g>
</g>
<!-- Node2 -->
<g id="Node000002" class="node">
<title>Node2</title>
<g id="a_Node000002"><a xlink:href="../../dc/d71/classxii_reflected_class.html" target="_top" xlink:title="All classes that should be dynamically reflectable, need to be derived from this base class.">
<polygon fill="white" stroke="#666666" points="203,-171.5 102,-171.5 102,-152.5 203,-152.5 203,-171.5"/>
<text text-anchor="middle" x="152.5" y="-159.5" font-family="Helvetica,sans-Serif" font-size="10.00">xiiReflectedClass</text>
</a>
</g>
</g>
<!-- Node2&#45;&gt;Node1 -->
<g id="edge1_Node000001_Node000002" class="edge">
<title>Node2&#45;&gt;Node1</title>
<g id="a_edge1_Node000001_Node000002"><a xlink:title=" ">
<path fill="none" stroke="#63b8ff" d="M213.67,-162C221.9,-162 230.45,-162 238.93,-162"/>
<polygon fill="#63b8ff" stroke="#63b8ff" points="213.43,-158.5 203.43,-162 213.43,-165.5 213.43,-158.5"/>
</a>
</g>
</g>
<!-- Node3 -->
<g id="Node000003" class="node">
<title>Node3</title>
<g id="a_Node000003"><a xlink:href="../../d2/d38/classxii_no_base.html" target="_top" xlink:title="Dummy type to pass to templates and macros that expect a base type for a class that has no base.">
<polygon fill="white" stroke="#666666" points="66,-171.5 0,-171.5 0,-152.5 66,-152.5 66,-171.5"/>
<text text-anchor="middle" x="33" y="-159.5" font-family="Helvetica,sans-Serif" font-size="10.00">xiiNoBase</text>
</a>
</g>
</g>
<!-- Node3&#45;&gt;Node2 -->
<g id="edge2_Node000002_Node000003" class="edge">
<title>Node3&#45;&gt;Node2</title>
<g id="a_edge2_Node000002_Node000003"><a xlink:title=" ">
<path fill="none" stroke="#63b8ff" d="M76.27,-162C84.54,-162 93.29,-162 101.78,-162"/>
<polygon fill="#63b8ff" stroke="#63b8ff" points="76.11,-158.5 66.11,-162 76.11,-165.5 76.11,-158.5"/>
</a>
</g>
</g>
</g>
</svg>

<g id="navigator" transform="translate(0 0)" fill="#404254">
  <rect fill="#f2f5e9" fill-opacity="0.5" stroke="#606060" stroke-width=".5" x="0" y="0" width="60" height="60"/>
  <use id="zoomplus" xlink:href="#zoomPlus" x="17" y="9" onmousedown="handleZoom(evt,'in')"/>
  <use id="zoomminus" xlink:href="#zoomMin" x="42" y="9" onmousedown="handleZoom(evt,'out')"/>
  <use id="reset" xlink:href="#resetDef" x="30" y="36" onmousedown="handleReset()"/>
   <use id="arrowup" xlink:href="#arrowUp" x="0" y="0" onmousedown="handlePan(0,-1)"/>
  <use id="arrowright" xlink:href="#arrowRight" x="0" y="0" onmousedown="handlePan(1,0)"/>
  <use id="arrowdown" xlink:href="#arrowDown" x="0" y="0" onmousedown="handlePan(0,1)"/>
  <use id="arrowleft" xlink:href="#arrowLeft" x="0" y="0" onmousedown="handlePan(-1,0)"/>
</g>
<svg viewBox="0 0 15 15" width="100%" height="30px" preserveAspectRatio="xMaxYMin meet">
 <g id="arrow_out" transform="scale(0.3 0.3)">
  <a xlink:href="classxii_asset_document_generator__inherit__graph_org.svg" target="_base">
   <rect id="button" ry="5" rx="5" y="6" x="6" height="38" width="38"
        fill="#f2f5e9" fill-opacity="0.5" stroke="#606060" stroke-width="1.0"/>
   <path id="arrow"
     d="M 11.500037,31.436501 C 11.940474,20.09759 22.043105,11.32322 32.158766,21.979434 L 37.068811,17.246167 C 37.068811,17.246167 37.088388,32 37.088388,32 L 22.160133,31.978069 C 22.160133,31.978069 26.997745,27.140456 26.997745,27.140456 C 18.528582,18.264221 13.291696,25.230495 11.500037,31.436501 z"
     style="fill:#404040;"/>
  </a>
 </g>
</svg>

<style type='text/css'>
<![CDATA[
[data-mouse-over-selected='false'] { opacity: 0.7; }
[data-mouse-over-selected='true']  { opacity: 1.0; }
]]>
</style>
<script type="application/ecmascript"><![CDATA[
document.addEventListener('DOMContentLoaded', (event) => {
  highlightEdges();
  highlightAdjacentNodes();
});
]]></script>
</svg>
