<?xml version="1.0" encoding="UTF-8" standalone="no"?>
<!DOCTYPE svg PUBLIC "-//W3C//DTD SVG 1.1//EN"
 "http://www.w3.org/Graphics/SVG/1.1/DTD/svg11.dtd">
<!-- Generated by graphviz version 2.43.0 (0)
 -->
<!-- Title: xiiEditorEngineMsg Pages: 1 -->
<svg width="717pt" height="759pt"
 viewBox="0.00 0.00 717.00 758.50" xmlns="http://www.w3.org/2000/svg" xmlns:xlink="http://www.w3.org/1999/xlink">
<g id="graph0" class="graph" transform="scale(1 1) rotate(0) translate(4 754.5)">
<title>xiiEditorEngineMsg</title>
<polygon fill="white" stroke="transparent" points="-4,4 -4,-754.5 713,-754.5 713,4 -4,4"/>
<!-- Node1 -->
<g id="node1" class="node">
<title>Node1</title>
<g id="a_node1"><a xlink:title="Base class for all messages between editor and engine that are not bound to any document.">
<polygon fill="#bfbfbf" stroke="black" points="385,-366 385,-385 495,-385 495,-366 385,-366"/>
<text text-anchor="middle" x="440" y="-373" font-family="Helvetica,sans-Serif" font-size="10.00">xiiEditorEngineMsg</text>
</a>
</g>
</g>
<!-- Node5 -->
<g id="node5" class="node">
<title>Node5</title>
<g id="a_node5"><a xlink:href="../../d9/d88/classxii_c_var_msg_to_editor.htm" target="_top" xlink:title=" ">
<polygon fill="white" stroke="black" points="565,-731 565,-750 675,-750 675,-731 565,-731"/>
<text text-anchor="middle" x="620" y="-738" font-family="Helvetica,sans-Serif" font-size="10.00">xiiCVarMsgToEditor</text>
</a>
</g>
</g>
<!-- Node1&#45;&gt;Node5 -->
<g id="edge4" class="edge">
<title>Node1&#45;&gt;Node5</title>
<path fill="none" stroke="midnightblue" d="M443.42,-395.23C451.94,-461.61 482.72,-675.2 531,-721.5 540.14,-730.26 552.3,-735.38 564.66,-738.29"/>
<polygon fill="midnightblue" stroke="midnightblue" points="446.88,-394.74 442.16,-385.25 439.94,-395.61 446.88,-394.74"/>
</g>
<!-- Node6 -->
<g id="node6" class="node">
<title>Node6</title>
<g id="a_node6"><a xlink:href="../../d0/ddb/classxii_change_c_var_msg_to_engine.htm" target="_top" xlink:title=" ">
<polygon fill="white" stroke="black" points="544,-693 544,-712 696,-712 696,-693 544,-693"/>
<text text-anchor="middle" x="620" y="-700" font-family="Helvetica,sans-Serif" font-size="10.00">xiiChangeCVarMsgToEngine</text>
</a>
</g>
</g>
<!-- Node1&#45;&gt;Node6 -->
<g id="edge5" class="edge">
<title>Node1&#45;&gt;Node6</title>
<path fill="none" stroke="midnightblue" d="M440.37,-395.08C439.74,-449.59 445.91,-604.3 531,-683.5 535,-687.23 539.56,-690.29 544.44,-692.8"/>
<polygon fill="midnightblue" stroke="midnightblue" points="443.87,-395.1 440.58,-385.03 436.87,-394.95 443.87,-395.1"/>
</g>
<!-- Node7 -->
<g id="node7" class="node">
<title>Node7</title>
<g id="a_node7"><a xlink:href="../../d1/d6e/classxii_console_cmd_msg_to_engine.htm" target="_top" xlink:title=" ">
<polygon fill="white" stroke="black" points="543,-655 543,-674 697,-674 697,-655 543,-655"/>
<text text-anchor="middle" x="620" y="-662" font-family="Helvetica,sans-Serif" font-size="10.00">xiiConsoleCmdMsgToEngine</text>
</a>
</g>
</g>
<!-- Node1&#45;&gt;Node7 -->
<g id="edge6" class="edge">
<title>Node1&#45;&gt;Node7</title>
<path fill="none" stroke="midnightblue" d="M441.31,-395.31C443.23,-445.39 455.57,-577.88 531,-645.5 535.19,-649.26 539.94,-652.33 545.01,-654.84"/>
<polygon fill="midnightblue" stroke="midnightblue" points="444.81,-395.07 441.03,-385.17 437.81,-395.27 444.81,-395.07"/>
</g>
<!-- Node8 -->
<g id="node8" class="node">
<title>Node8</title>
<g id="a_node8"><a xlink:href="../../dd/df3/classxii_console_cmd_result_msg_to_editor.htm" target="_top" xlink:title=" ">
<polygon fill="white" stroke="black" points="544,-605.5 544,-635.5 696,-635.5 696,-605.5 544,-605.5"/>
<text text-anchor="start" x="552" y="-623.5" font-family="Helvetica,sans-Serif" font-size="10.00">xiiConsoleCmdResultMsgTo</text>
<text text-anchor="middle" x="620" y="-612.5" font-family="Helvetica,sans-Serif" font-size="10.00">Editor</text>
</a>
</g>
</g>
<!-- Node1&#45;&gt;Node8 -->
<g id="edge7" class="edge">
<title>Node1&#45;&gt;Node8</title>
<path fill="none" stroke="midnightblue" d="M443.2,-395.23C449.1,-438.4 469.24,-541.77 531,-596.5 534.91,-599.97 539.28,-602.94 543.91,-605.48"/>
<polygon fill="midnightblue" stroke="midnightblue" points="446.66,-394.66 441.95,-385.17 439.72,-395.53 446.66,-394.66"/>
</g>
<!-- Node9 -->
<g id="node9" class="node">
<title>Node9</title>
<g id="a_node9"><a xlink:href="../../db/d2f/classxii_dynamic_string_enum_msg_to_editor.htm" target="_top" xlink:title=" ">
<polygon fill="white" stroke="black" points="540.5,-556.5 540.5,-586.5 699.5,-586.5 699.5,-556.5 540.5,-556.5"/>
<text text-anchor="start" x="548.5" y="-574.5" font-family="Helvetica,sans-Serif" font-size="10.00">xiiDynamicStringEnumMsgTo</text>
<text text-anchor="middle" x="620" y="-563.5" font-family="Helvetica,sans-Serif" font-size="10.00">Editor</text>
</a>
</g>
</g>
<!-- Node1&#45;&gt;Node9 -->
<g id="edge8" class="edge">
<title>Node1&#45;&gt;Node9</title>
<path fill="none" stroke="midnightblue" d="M445.8,-395.04C455.57,-430.64 481.18,-506.08 531,-546.5 535.81,-550.4 541.2,-553.7 546.87,-556.48"/>
<polygon fill="midnightblue" stroke="midnightblue" points="449.19,-394.15 443.27,-385.36 442.41,-395.92 449.19,-394.15"/>
</g>
<!-- Node10 -->
<g id="node10" class="node">
<title>Node10</title>
<g id="a_node10"><a xlink:href="../../d8/d4e/classxii_global_settings_msg_to_engine.htm" target="_top" xlink:title=" ">
<polygon fill="white" stroke="black" points="538,-518 538,-537 702,-537 702,-518 538,-518"/>
<text text-anchor="middle" x="620" y="-525" font-family="Helvetica,sans-Serif" font-size="10.00">xiiGlobalSettingsMsgToEngine</text>
</a>
</g>
</g>
<!-- Node1&#45;&gt;Node10 -->
<g id="edge9" class="edge">
<title>Node1&#45;&gt;Node10</title>
<path fill="none" stroke="midnightblue" d="M448.37,-394.58C460.76,-423.96 488.62,-479.86 531,-508.5 536.7,-512.35 543.04,-515.44 549.63,-517.91"/>
<polygon fill="midnightblue" stroke="midnightblue" points="451.51,-393.01 444.51,-385.06 445.03,-395.64 451.51,-393.01"/>
</g>
<!-- Node11 -->
<g id="node11" class="node">
<title>Node11</title>
<g id="a_node11"><a xlink:href="../../d4/d90/classxii_log_msg_to_editor.htm" target="_top" xlink:title=" ">
<polygon fill="white" stroke="black" points="567.5,-480 567.5,-499 672.5,-499 672.5,-480 567.5,-480"/>
<text text-anchor="middle" x="620" y="-487" font-family="Helvetica,sans-Serif" font-size="10.00">xiiLogMsgToEditor</text>
</a>
</g>
</g>
<!-- Node1&#45;&gt;Node11 -->
<g id="edge10" class="edge">
<title>Node1&#45;&gt;Node11</title>
<path fill="none" stroke="midnightblue" d="M452.84,-393.47C468.19,-415.25 497.04,-451.39 531,-470.5 542.03,-476.71 554.89,-480.89 567.32,-483.71"/>
<polygon fill="midnightblue" stroke="midnightblue" points="455.66,-391.38 447.12,-385.11 449.88,-395.34 455.66,-391.38"/>
</g>
<!-- Node12 -->
<g id="node12" class="node">
<title>Node12</title>
<g id="a_node12"><a xlink:href="../../dd/d15/classxii_long_op_progress_msg.htm" target="_top" xlink:title=" ">
<polygon fill="white" stroke="black" points="556,-442 556,-461 684,-461 684,-442 556,-442"/>
<text text-anchor="middle" x="620" y="-449" font-family="Helvetica,sans-Serif" font-size="10.00">xiiLongOpProgressMsg</text>
</a>
</g>
</g>
<!-- Node1&#45;&gt;Node12 -->
<g id="edge11" class="edge">
<title>Node1&#45;&gt;Node12</title>
<path fill="none" stroke="midnightblue" d="M461.35,-391.35C478.88,-404.26 505.35,-422 531,-432.5 540.4,-436.35 550.7,-439.47 560.84,-441.98"/>
<polygon fill="midnightblue" stroke="midnightblue" points="463.14,-388.32 453.05,-385.11 458.94,-393.91 463.14,-388.32"/>
</g>
<!-- Node13 -->
<g id="node13" class="node">
<title>Node13</title>
<g id="a_node13"><a xlink:href="../../da/d43/classxii_long_op_replication_msg.htm" target="_top" xlink:title=" ">
<polygon fill="white" stroke="black" points="550,-404 550,-423 690,-423 690,-404 550,-404"/>
<text text-anchor="middle" x="620" y="-411" font-family="Helvetica,sans-Serif" font-size="10.00">xiiLongOpReplicationMsg</text>
</a>
</g>
</g>
<!-- Node1&#45;&gt;Node13 -->
<g id="edge12" class="edge">
<title>Node1&#45;&gt;Node13</title>
<path fill="none" stroke="midnightblue" d="M495.72,-387.18C520.96,-392.57 550.55,-398.89 574.41,-403.98"/>
<polygon fill="midnightblue" stroke="midnightblue" points="496.43,-383.75 485.92,-385.09 494.97,-390.6 496.43,-383.75"/>
</g>
<!-- Node14 -->
<g id="node14" class="node">
<title>Node14</title>
<g id="a_node14"><a xlink:href="../../db/da4/classxii_long_op_result_msg.htm" target="_top" xlink:title=" ">
<polygon fill="white" stroke="black" points="562,-366 562,-385 678,-385 678,-366 562,-366"/>
<text text-anchor="middle" x="620" y="-373" font-family="Helvetica,sans-Serif" font-size="10.00">xiiLongOpResultMsg</text>
</a>
</g>
</g>
<!-- Node1&#45;&gt;Node14 -->
<g id="edge13" class="edge">
<title>Node1&#45;&gt;Node14</title>
<path fill="none" stroke="midnightblue" d="M505.45,-375.5C523.91,-375.5 543.89,-375.5 561.88,-375.5"/>
<polygon fill="midnightblue" stroke="midnightblue" points="505.37,-372 495.37,-375.5 505.37,-379 505.37,-372"/>
</g>
<!-- Node15 -->
<g id="node15" class="node">
<title>Node15</title>
<g id="a_node15"><a xlink:href="../../d3/daf/classxii_project_ready_msg_to_editor.htm" target="_top" xlink:title=" ">
<polygon fill="white" stroke="black" points="544,-328 544,-347 696,-347 696,-328 544,-328"/>
<text text-anchor="middle" x="620" y="-335" font-family="Helvetica,sans-Serif" font-size="10.00">xiiProjectReadyMsgToEditor</text>
</a>
</g>
</g>
<!-- Node1&#45;&gt;Node15 -->
<g id="edge14" class="edge">
<title>Node1&#45;&gt;Node15</title>
<path fill="none" stroke="midnightblue" d="M495.72,-363.82C520.96,-358.43 550.55,-352.11 574.41,-347.02"/>
<polygon fill="midnightblue" stroke="midnightblue" points="494.97,-360.4 485.92,-365.91 496.43,-367.25 494.97,-360.4"/>
</g>
<!-- Node16 -->
<g id="node16" class="node">
<title>Node16</title>
<g id="a_node16"><a xlink:href="../../d7/dc7/classxii_reload_resource_msg_to_engine.htm" target="_top" xlink:title=" ">
<polygon fill="white" stroke="black" points="534.5,-290 534.5,-309 705.5,-309 705.5,-290 534.5,-290"/>
<text text-anchor="middle" x="620" y="-297" font-family="Helvetica,sans-Serif" font-size="10.00">xiiReloadResourceMsgToEngine</text>
</a>
</g>
</g>
<!-- Node1&#45;&gt;Node16 -->
<g id="edge15" class="edge">
<title>Node1&#45;&gt;Node16</title>
<path fill="none" stroke="midnightblue" d="M461.35,-359.65C478.88,-346.74 505.35,-329 531,-318.5 540.4,-314.65 550.7,-311.53 560.84,-309.02"/>
<polygon fill="midnightblue" stroke="midnightblue" points="458.94,-357.09 453.05,-365.89 463.14,-362.68 458.94,-357.09"/>
</g>
<!-- Node17 -->
<g id="node17" class="node">
<title>Node17</title>
<g id="a_node17"><a xlink:href="../../dc/d0c/classxii_resource_update_msg_to_engine.htm" target="_top" xlink:title=" ">
<polygon fill="white" stroke="black" points="533.5,-252 533.5,-271 706.5,-271 706.5,-252 533.5,-252"/>
<text text-anchor="middle" x="620" y="-259" font-family="Helvetica,sans-Serif" font-size="10.00">xiiResourceUpdateMsgToEngine</text>
</a>
</g>
</g>
<!-- Node1&#45;&gt;Node17 -->
<g id="edge16" class="edge">
<title>Node1&#45;&gt;Node17</title>
<path fill="none" stroke="midnightblue" d="M452.84,-357.53C468.19,-335.75 497.04,-299.61 531,-280.5 537.95,-276.59 545.62,-273.49 553.45,-271.02"/>
<polygon fill="midnightblue" stroke="midnightblue" points="449.88,-355.66 447.12,-365.89 455.66,-359.62 449.88,-355.66"/>
</g>
<!-- Node18 -->
<g id="node18" class="node">
<title>Node18</title>
<g id="a_node18"><a xlink:href="../../d6/d94/classxii_restore_resource_msg_to_engine.htm" target="_top" xlink:title=" ">
<polygon fill="white" stroke="black" points="532.5,-214 532.5,-233 707.5,-233 707.5,-214 532.5,-214"/>
<text text-anchor="middle" x="620" y="-221" font-family="Helvetica,sans-Serif" font-size="10.00">xiiRestoreResourceMsgToEngine</text>
</a>
</g>
</g>
<!-- Node1&#45;&gt;Node18 -->
<g id="edge17" class="edge">
<title>Node1&#45;&gt;Node18</title>
<path fill="none" stroke="midnightblue" d="M448.37,-356.42C460.76,-327.04 488.62,-271.14 531,-242.5 536.7,-238.65 543.04,-235.56 549.63,-233.09"/>
<polygon fill="midnightblue" stroke="midnightblue" points="445.03,-355.36 444.51,-365.94 451.51,-357.99 445.03,-355.36"/>
</g>
<!-- Node19 -->
<g id="node19" class="node">
<title>Node19</title>
<g id="a_node19"><a xlink:href="../../d2/dde/classxii_save_profiling_response_to_editor.htm" target="_top" xlink:title=" ">
<polygon fill="white" stroke="black" points="550,-164.5 550,-194.5 690,-194.5 690,-164.5 550,-164.5"/>
<text text-anchor="start" x="558" y="-182.5" font-family="Helvetica,sans-Serif" font-size="10.00">xiiSaveProfilingResponse</text>
<text text-anchor="middle" x="620" y="-171.5" font-family="Helvetica,sans-Serif" font-size="10.00">ToEditor</text>
</a>
</g>
</g>
<!-- Node1&#45;&gt;Node19 -->
<g id="edge18" class="edge">
<title>Node1&#45;&gt;Node19</title>
<path fill="none" stroke="midnightblue" d="M445.8,-355.96C455.57,-320.36 481.18,-244.92 531,-204.5 536.67,-199.9 543.15,-196.14 549.96,-193.08"/>
<polygon fill="midnightblue" stroke="midnightblue" points="442.41,-355.08 443.27,-365.64 449.19,-356.85 442.41,-355.08"/>
</g>
<!-- Node20 -->
<g id="node20" class="node">
<title>Node20</title>
<g id="a_node20"><a xlink:href="../../d7/d88/classxii_setup_project_msg_to_engine.htm" target="_top" xlink:title=" ">
<polygon fill="white" stroke="black" points="543,-126 543,-145 697,-145 697,-126 543,-126"/>
<text text-anchor="middle" x="620" y="-133" font-family="Helvetica,sans-Serif" font-size="10.00">xiiSetupProjectMsgToEngine</text>
</a>
</g>
</g>
<!-- Node1&#45;&gt;Node20 -->
<g id="edge19" class="edge">
<title>Node1&#45;&gt;Node20</title>
<path fill="none" stroke="midnightblue" d="M442.99,-355.52C448.46,-311.86 467.8,-207.56 531,-154.5 535.55,-150.68 540.69,-147.58 546.14,-145.06"/>
<polygon fill="midnightblue" stroke="midnightblue" points="439.49,-355.37 441.84,-365.7 446.44,-356.16 439.49,-355.37"/>
</g>
<!-- Node21 -->
<g id="node21" class="node">
<title>Node21</title>
<g id="a_node21"><a xlink:href="../../d7/df2/classxii_shutdown_process_msg_to_engine.htm" target="_top" xlink:title="Sent to remote processes to shut them down. Local processes are simply killed through QProcess::close...">
<polygon fill="white" stroke="black" points="531,-88 531,-107 709,-107 709,-88 531,-88"/>
<text text-anchor="middle" x="620" y="-95" font-family="Helvetica,sans-Serif" font-size="10.00">xiiShutdownProcessMsgToEngine</text>
</a>
</g>
</g>
<!-- Node1&#45;&gt;Node21 -->
<g id="edge20" class="edge">
<title>Node1&#45;&gt;Node21</title>
<path fill="none" stroke="midnightblue" d="M441.63,-355.85C444.29,-307.28 458.23,-180.9 531,-116.5 535.33,-112.67 540.25,-109.55 545.49,-107.01"/>
<polygon fill="midnightblue" stroke="midnightblue" points="438.12,-355.81 441.18,-365.95 445.12,-356.12 438.12,-355.81"/>
</g>
<!-- Node22 -->
<g id="node22" class="node">
<title>Node22</title>
<g id="a_node22"><a xlink:href="../../db/d07/classxii_simple_config_msg_to_engine.htm" target="_top" xlink:title=" ">
<polygon fill="white" stroke="black" points="541.5,-50 541.5,-69 698.5,-69 698.5,-50 541.5,-50"/>
<text text-anchor="middle" x="620" y="-57" font-family="Helvetica,sans-Serif" font-size="10.00">xiiSimpleConfigMsgToEngine</text>
</a>
</g>
</g>
<!-- Node1&#45;&gt;Node22 -->
<g id="edge21" class="edge">
<title>Node1&#45;&gt;Node22</title>
<path fill="none" stroke="midnightblue" d="M440.62,-355.55C440.74,-302.03 448.87,-154.19 531,-78.5 535.14,-74.69 539.85,-71.57 544.9,-69.03"/>
<polygon fill="midnightblue" stroke="midnightblue" points="437.12,-355.77 440.69,-365.75 444.12,-355.72 437.12,-355.77"/>
</g>
<!-- Node23 -->
<g id="node23" class="node">
<title>Node23</title>
<g id="a_node23"><a xlink:href="../../dc/d1f/classxii_update_reflection_type_msg_to_editor.htm" target="_top" xlink:title=" ">
<polygon fill="white" stroke="black" points="542.5,-0.5 542.5,-30.5 697.5,-30.5 697.5,-0.5 542.5,-0.5"/>
<text text-anchor="start" x="550.5" y="-18.5" font-family="Helvetica,sans-Serif" font-size="10.00">xiiUpdateReflectionTypeMsg</text>
<text text-anchor="middle" x="620" y="-7.5" font-family="Helvetica,sans-Serif" font-size="10.00">ToEditor</text>
</a>
</g>
</g>
<!-- Node1&#45;&gt;Node23 -->
<g id="edge22" class="edge">
<title>Node1&#45;&gt;Node23</title>
<path fill="none" stroke="midnightblue" d="M443.74,-355.67C453.08,-290.82 485.63,-86.52 531,-40.5 534.79,-36.65 539.13,-33.39 543.8,-30.62"/>
<polygon fill="midnightblue" stroke="midnightblue" points="440.24,-355.39 442.31,-365.78 447.18,-356.37 440.24,-355.39"/>
</g>
<!-- Node2 -->
<g id="node2" class="node">
<title>Node2</title>
<g id="a_node2"><a xlink:href="../../d4/d06/classxii_process_message.htm" target="_top" xlink:title="Base class for IPC messages transmitted by xiiIpcChannel.">
<polygon fill="white" stroke="black" points="239,-366 239,-385 349,-385 349,-366 239,-366"/>
<text text-anchor="middle" x="294" y="-373" font-family="Helvetica,sans-Serif" font-size="10.00">xiiProcessMessage</text>
</a>
</g>
</g>
<!-- Node2&#45;&gt;Node1 -->
<g id="edge1" class="edge">
<title>Node2&#45;&gt;Node1</title>
<path fill="none" stroke="midnightblue" d="M359.27,-375.5C367.75,-375.5 376.38,-375.5 384.67,-375.5"/>
<polygon fill="midnightblue" stroke="midnightblue" points="359.03,-372 349.03,-375.5 359.03,-379 359.03,-372"/>
</g>
<!-- Node3 -->
<g id="node3" class="node">
<title>Node3</title>
<g id="a_node3"><a xlink:href="../../dc/d71/classxii_reflected_class.htm" target="_top" xlink:title="All classes that should be dynamically reflectable, need to be derived from this base class.">
<polygon fill="white" stroke="black" points="102,-366 102,-385 203,-385 203,-366 102,-366"/>
<text text-anchor="middle" x="152.5" y="-373" font-family="Helvetica,sans-Serif" font-size="10.00">xiiReflectedClass</text>
</a>
</g>
</g>
<!-- Node3&#45;&gt;Node2 -->
<g id="edge2" class="edge">
<title>Node3&#45;&gt;Node2</title>
<path fill="none" stroke="midnightblue" d="M213.3,-375.5C221.78,-375.5 230.47,-375.5 238.85,-375.5"/>
<polygon fill="midnightblue" stroke="midnightblue" points="213.08,-372 203.08,-375.5 213.08,-379 213.08,-372"/>
</g>
<!-- Node4 -->
<g id="node4" class="node">
<title>Node4</title>
<g id="a_node4"><a xlink:href="../../d2/d38/classxii_no_base.htm" target="_top" xlink:title="Dummy type to pass to templates and macros that expect a base type for a class that has no base.">
<polygon fill="white" stroke="black" points="0,-366 0,-385 66,-385 66,-366 0,-366"/>
<text text-anchor="middle" x="33" y="-373" font-family="Helvetica,sans-Serif" font-size="10.00">xiiNoBase</text>
</a>
</g>
</g>
<!-- Node4&#45;&gt;Node3 -->
<g id="edge3" class="edge">
<title>Node4&#45;&gt;Node3</title>
<path fill="none" stroke="midnightblue" d="M76.27,-375.5C84.54,-375.5 93.29,-375.5 101.78,-375.5"/>
<polygon fill="midnightblue" stroke="midnightblue" points="76.11,-372 66.11,-375.5 76.11,-379 76.11,-372"/>
</g>
</g>
</svg>
