<?xml version="1.0" encoding="UTF-8" standalone="no"?>
<!DOCTYPE svg PUBLIC "-//W3C//DTD SVG 1.1//EN"
 "http://www.w3.org/Graphics/SVG/1.1/DTD/svg11.dtd">
<!-- Generated by graphviz version 2.43.0 (0)
 -->
<!-- Title: xiiGALSwapChain Pages: 1 -->
<svg width="589pt" height="302pt"
 viewBox="0.00 0.00 588.50 302.00" xmlns="http://www.w3.org/2000/svg" xmlns:xlink="http://www.w3.org/1999/xlink">
<g id="graph0" class="graph" transform="scale(1 1) rotate(0) translate(4 298)">
<title>xiiGALSwapChain</title>
<!-- Node1 -->
<g id="Node000001" class="node">
<title>Node1</title>
<g id="a_Node000001"><a xlink:title="Interface that defines methods to manipulate a swap chain object.">
<polygon fill="#999999" stroke="#666666" points="344.5,-74 242.5,-74 242.5,-55 344.5,-55 344.5,-74"/>
<text text-anchor="middle" x="293.5" y="-62" font-family="Helvetica,sans-Serif" font-size="10.00">xiiGALSwapChain</text>
</a>
</g>
</g>
<!-- Node8 -->
<g id="Node000008" class="node">
<title>Node8</title>
<g id="a_Node000008"><a xlink:href="../../da/d7f/classxii_g_a_l_swap_chain_d3_d11.html" target="_top" xlink:title=" ">
<polygon fill="white" stroke="#bfbfbf" points="135,-19 0,-19 0,0 135,0 135,-19"/>
<text text-anchor="middle" x="67.5" y="-7" font-family="Helvetica,sans-Serif" font-size="10.00">xiiGALSwapChainD3D11</text>
</a>
</g>
</g>
<!-- Node1&#45;&gt;Node8 -->
<g id="edge7_Node000001_Node000008" class="edge">
<title>Node1&#45;&gt;Node8</title>
<g id="a_edge7_Node000001_Node000008"><a xlink:title=" ">
<path fill="none" stroke="#63b8ff" d="M247.41,-52.69C205.06,-42.76 143.14,-28.24 104.1,-19.08"/>
<polygon fill="#63b8ff" stroke="#63b8ff" points="246.65,-56.11 257.19,-54.98 248.25,-49.29 246.65,-56.11"/>
</a>
</g>
</g>
<!-- Node9 -->
<g id="Node000009" class="node">
<title>Node9</title>
<g id="a_Node000009"><a xlink:href="../../df/d02/classxii_g_a_l_swap_chain_d3_d12.html" target="_top" xlink:title=" ">
<polygon fill="white" stroke="#bfbfbf" points="288,-19 153,-19 153,0 288,0 288,-19"/>
<text text-anchor="middle" x="220.5" y="-7" font-family="Helvetica,sans-Serif" font-size="10.00">xiiGALSwapChainD3D12</text>
</a>
</g>
</g>
<!-- Node1&#45;&gt;Node9 -->
<g id="edge8_Node000001_Node000009" class="edge">
<title>Node1&#45;&gt;Node9</title>
<g id="a_edge8_Node000001_Node000009"><a xlink:title=" ">
<path fill="none" stroke="#63b8ff" d="M273.36,-48.88C260.22,-39.34 243.52,-27.21 232.44,-19.17"/>
<polygon fill="#63b8ff" stroke="#63b8ff" points="271.62,-51.94 281.77,-54.98 275.74,-46.28 271.62,-51.94"/>
</a>
</g>
</g>
<!-- Node10 -->
<g id="Node000010" class="node">
<title>Node10</title>
<g id="a_Node000010"><a xlink:href="../../d0/dd0/classxii_g_a_l_swap_chain_null.html" target="_top" xlink:title=" ">
<polygon fill="white" stroke="#bfbfbf" points="428.5,-19 306.5,-19 306.5,0 428.5,0 428.5,-19"/>
<text text-anchor="middle" x="367.5" y="-7" font-family="Helvetica,sans-Serif" font-size="10.00">xiiGALSwapChainNull</text>
</a>
</g>
</g>
<!-- Node1&#45;&gt;Node10 -->
<g id="edge9_Node000001_Node000010" class="edge">
<title>Node1&#45;&gt;Node10</title>
<g id="a_edge9_Node000001_Node000010"><a xlink:title=" ">
<path fill="none" stroke="#63b8ff" d="M313.53,-49.15C326.91,-39.57 344.06,-27.29 355.39,-19.17"/>
<polygon fill="#63b8ff" stroke="#63b8ff" points="311.48,-46.32 305.39,-54.98 315.56,-52.01 311.48,-46.32"/>
</a>
</g>
</g>
<!-- Node11 -->
<g id="Node000011" class="node">
<title>Node11</title>
<g id="a_Node000011"><a xlink:href="../../d5/dfb/classxii_g_a_l_swap_chain_vulkan.html" target="_top" xlink:title=" ">
<polygon fill="white" stroke="#bfbfbf" points="580.5,-19 446.5,-19 446.5,0 580.5,0 580.5,-19"/>
<text text-anchor="middle" x="513.5" y="-7" font-family="Helvetica,sans-Serif" font-size="10.00">xiiGALSwapChainVulkan</text>
</a>
</g>
</g>
<!-- Node1&#45;&gt;Node11 -->
<g id="edge10_Node000001_Node000011" class="edge">
<title>Node1&#45;&gt;Node11</title>
<g id="a_edge10_Node000001_Node000011"><a xlink:title=" ">
<path fill="none" stroke="#63b8ff" d="M338.63,-52.63C379.84,-42.7 439.95,-28.22 477.88,-19.08"/>
<polygon fill="#63b8ff" stroke="#63b8ff" points="337.75,-49.24 328.85,-54.98 339.39,-56.05 337.75,-49.24"/>
</a>
</g>
</g>
<!-- Node2 -->
<g id="Node000002" class="node">
<title>Node2</title>
<g id="a_Node000002"><a xlink:href="../../d5/d12/classxii_g_a_l_device_object.html" target="_top" xlink:title="Base Graphics Abstraction Layer Object.">
<polygon fill="white" stroke="#666666" points="350,-129 237,-129 237,-110 350,-110 350,-129"/>
<text text-anchor="middle" x="293.5" y="-117" font-family="Helvetica,sans-Serif" font-size="10.00">xiiGALDeviceObject</text>
</a>
</g>
</g>
<!-- Node2&#45;&gt;Node1 -->
<g id="edge1_Node000001_Node000002" class="edge">
<title>Node2&#45;&gt;Node1</title>
<g id="a_edge1_Node000001_Node000002"><a xlink:title=" ">
<path fill="none" stroke="#63b8ff" d="M293.5,-99.66C293.5,-90.93 293.5,-80.99 293.5,-74.09"/>
<polygon fill="#63b8ff" stroke="#63b8ff" points="290,-99.75 293.5,-109.75 297,-99.75 290,-99.75"/>
</a>
</g>
</g>
<!-- Node3 -->
<g id="Node000003" class="node">
<title>Node3</title>
<g id="a_Node000003"><a xlink:href="../../d3/dda/classxii_g_a_l_object.html" target="_top" xlink:title="Base Graphics Abstraction Layer Object.">
<polygon fill="white" stroke="#666666" points="333.5,-184 253.5,-184 253.5,-165 333.5,-165 333.5,-184"/>
<text text-anchor="middle" x="293.5" y="-172" font-family="Helvetica,sans-Serif" font-size="10.00">xiiGALObject</text>
</a>
</g>
</g>
<!-- Node3&#45;&gt;Node2 -->
<g id="edge2_Node000002_Node000003" class="edge">
<title>Node3&#45;&gt;Node2</title>
<g id="a_edge2_Node000002_Node000003"><a xlink:title=" ">
<path fill="none" stroke="#63b8ff" d="M293.5,-154.66C293.5,-145.93 293.5,-135.99 293.5,-129.09"/>
<polygon fill="#63b8ff" stroke="#63b8ff" points="290,-154.75 293.5,-164.75 297,-154.75 290,-154.75"/>
</a>
</g>
</g>
<!-- Node4 -->
<g id="Node000004" class="node">
<title>Node4</title>
<g id="a_Node000004"><a xlink:href="../../dc/d71/classxii_reflected_class.html" target="_top" xlink:title="All classes that should be dynamically reflectable, need to be derived from this base class.">
<polygon fill="white" stroke="#666666" points="288,-239 187,-239 187,-220 288,-220 288,-239"/>
<text text-anchor="middle" x="237.5" y="-227" font-family="Helvetica,sans-Serif" font-size="10.00">xiiReflectedClass</text>
</a>
</g>
</g>
<!-- Node4&#45;&gt;Node3 -->
<g id="edge3_Node000003_Node000004" class="edge">
<title>Node4&#45;&gt;Node3</title>
<g id="a_edge3_Node000003_Node000004"><a xlink:title=" ">
<path fill="none" stroke="#63b8ff" d="M253.83,-213.04C263.76,-203.64 276.09,-191.98 284.34,-184.17"/>
<polygon fill="#63b8ff" stroke="#63b8ff" points="251.35,-210.57 246.5,-219.98 256.17,-215.65 251.35,-210.57"/>
</a>
</g>
</g>
<!-- Node5 -->
<g id="Node000005" class="node">
<title>Node5</title>
<g id="a_Node000005"><a xlink:href="../../d2/d38/classxii_no_base.html" target="_top" xlink:title="Dummy type to pass to templates and macros that expect a base type for a class that has no base.">
<polygon fill="white" stroke="#666666" points="270.5,-294 204.5,-294 204.5,-275 270.5,-275 270.5,-294"/>
<text text-anchor="middle" x="237.5" y="-282" font-family="Helvetica,sans-Serif" font-size="10.00">xiiNoBase</text>
</a>
</g>
</g>
<!-- Node5&#45;&gt;Node4 -->
<g id="edge4_Node000004_Node000005" class="edge">
<title>Node5&#45;&gt;Node4</title>
<g id="a_edge4_Node000004_Node000005"><a xlink:title=" ">
<path fill="none" stroke="#63b8ff" d="M237.5,-264.66C237.5,-255.93 237.5,-245.99 237.5,-239.09"/>
<polygon fill="#63b8ff" stroke="#63b8ff" points="234,-264.75 237.5,-274.75 241,-264.75 234,-264.75"/>
</a>
</g>
</g>
<!-- Node6 -->
<g id="Node000006" class="node">
<title>Node6</title>
<g id="a_Node000006"><a xlink:href="../../d3/dd0/classxii_ref_counted.html" target="_top" xlink:title="Base class for reference counted objects.">
<polygon fill="white" stroke="#666666" points="392.5,-239 306.5,-239 306.5,-220 392.5,-220 392.5,-239"/>
<text text-anchor="middle" x="349.5" y="-227" font-family="Helvetica,sans-Serif" font-size="10.00">xiiRefCounted</text>
</a>
</g>
</g>
<!-- Node6&#45;&gt;Node3 -->
<g id="edge5_Node000003_Node000006" class="edge">
<title>Node6&#45;&gt;Node3</title>
<g id="a_edge5_Node000003_Node000006"><a xlink:title=" ">
<path fill="none" stroke="#63b8ff" d="M333.17,-213.04C323.24,-203.64 310.91,-191.98 302.66,-184.17"/>
<polygon fill="#63b8ff" stroke="#63b8ff" points="330.83,-215.65 340.5,-219.98 335.65,-210.57 330.83,-215.65"/>
</a>
</g>
</g>
<!-- Node7 -->
<g id="Node000007" class="node">
<title>Node7</title>
<g id="a_Node000007"><a xlink:href="../../d7/df4/classxii_ref_counting_impl.html" target="_top" xlink:title=" ">
<polygon fill="white" stroke="#bfbfbf" points="404.5,-294 294.5,-294 294.5,-275 404.5,-275 404.5,-294"/>
<text text-anchor="middle" x="349.5" y="-282" font-family="Helvetica,sans-Serif" font-size="10.00">xiiRefCountingImpl</text>
</a>
</g>
</g>
<!-- Node7&#45;&gt;Node6 -->
<g id="edge6_Node000006_Node000007" class="edge">
<title>Node7&#45;&gt;Node6</title>
<g id="a_edge6_Node000006_Node000007"><a xlink:title=" ">
<path fill="none" stroke="#63b8ff" d="M349.5,-264.66C349.5,-255.93 349.5,-245.99 349.5,-239.09"/>
<polygon fill="#63b8ff" stroke="#63b8ff" points="346,-264.75 349.5,-274.75 353,-264.75 346,-264.75"/>
</a>
</g>
</g>
</g>
</svg>
