<?xml version="1.0" encoding="UTF-8" standalone="no"?>
<!DOCTYPE svg PUBLIC "-//W3C//DTD SVG 1.1//EN"
 "http://www.w3.org/Graphics/SVG/1.1/DTD/svg11.dtd">
<!-- Generated by graphviz version 2.43.0 (0)
 -->
<!-- Title: xiiQtAssetBrowserPanel Pages: 1 -->
<svg width="272pt" height="137pt"
 viewBox="0.00 0.00 272.00 137.00" xmlns="http://www.w3.org/2000/svg" xmlns:xlink="http://www.w3.org/1999/xlink">
<g id="graph0" class="graph" transform="scale(1 1) rotate(0) translate(4 133)">
<title>xiiQtAssetBrowserPanel</title>
<!-- Node1 -->
<g id="Node000001" class="node">
<title>Node1</title>
<g id="a_Node000001"><a xlink:title="The application wide panel that shows and asset browser.">
<polygon fill="#999999" stroke="#666666" points="197,-19 64,-19 64,0 197,0 197,-19"/>
<text text-anchor="middle" x="130.5" y="-7" font-family="Helvetica,sans-Serif" font-size="10.00">xiiQtAssetBrowserPanel</text>
</a>
</g>
</g>
<!-- Node2 -->
<g id="Node000002" class="node">
<title>Node2</title>
<g id="a_Node000002"><a xlink:href="../../d8/dc3/classxii_qt_application_panel.html" target="_top" xlink:title="Base class for all panels that are supposed to be application wide (not tied to some document).">
<polygon fill="white" stroke="#666666" points="121,-74 0,-74 0,-55 121,-55 121,-74"/>
<text text-anchor="middle" x="60.5" y="-62" font-family="Helvetica,sans-Serif" font-size="10.00">xiiQtApplicationPanel</text>
</a>
</g>
</g>
<!-- Node2&#45;&gt;Node1 -->
<g id="edge1_Node000001_Node000002" class="edge">
<title>Node2&#45;&gt;Node1</title>
<g id="a_edge1_Node000001_Node000002"><a xlink:title=" ">
<path fill="none" stroke="#63b8ff" d="M79.81,-48.88C92.41,-39.34 108.43,-27.21 119.05,-19.17"/>
<polygon fill="#63b8ff" stroke="#63b8ff" points="77.61,-46.16 71.75,-54.98 81.83,-51.74 77.61,-46.16"/>
</a>
</g>
</g>
<!-- Node3 -->
<g id="Node000003" class="node">
<title>Node3</title>
<g id="a_Node000003"><a xlink:title=" ">
<polygon fill="white" stroke="#bfbfbf" points="113.5,-129 7.5,-129 7.5,-110 113.5,-110 113.5,-129"/>
<text text-anchor="middle" x="60.5" y="-117" font-family="Helvetica,sans-Serif" font-size="10.00">ads::CDockWidget</text>
</a>
</g>
</g>
<!-- Node3&#45;&gt;Node2 -->
<g id="edge2_Node000002_Node000003" class="edge">
<title>Node3&#45;&gt;Node2</title>
<g id="a_edge2_Node000002_Node000003"><a xlink:title=" ">
<path fill="none" stroke="#63b8ff" d="M60.5,-99.66C60.5,-90.93 60.5,-80.99 60.5,-74.09"/>
<polygon fill="#63b8ff" stroke="#63b8ff" points="57,-99.75 60.5,-109.75 64,-99.75 57,-99.75"/>
</a>
</g>
</g>
<!-- Node4 -->
<g id="Node000004" class="node">
<title>Node4</title>
<g id="a_Node000004"><a xlink:title=" ">
<polygon fill="white" stroke="#bfbfbf" points="264,-74 139,-74 139,-55 264,-55 264,-74"/>
<text text-anchor="middle" x="201.5" y="-62" font-family="Helvetica,sans-Serif" font-size="10.00">Ui_AssetBrowserPanel</text>
</a>
</g>
</g>
<!-- Node4&#45;&gt;Node1 -->
<g id="edge3_Node000001_Node000004" class="edge">
<title>Node4&#45;&gt;Node1</title>
<g id="a_edge3_Node000001_Node000004"><a xlink:title=" ">
<path fill="none" stroke="#63b8ff" d="M181.91,-48.88C169.13,-39.34 152.89,-27.21 142.11,-19.17"/>
<polygon fill="#63b8ff" stroke="#63b8ff" points="179.99,-51.81 190.09,-54.98 184.17,-46.2 179.99,-51.81"/>
</a>
</g>
</g>
</g>
</svg>
