<?xml version="1.0" encoding="UTF-8" standalone="no"?>
<!DOCTYPE svg PUBLIC "-//W3C//DTD SVG 1.1//EN"
 "http://www.w3.org/Graphics/SVG/1.1/DTD/svg11.dtd">
<!-- Generated by graphviz version 2.43.0 (0)
 -->
<!-- Title: xiiQtFilePropertyWidget Pages: 1 -->
<svg width="167pt" height="192pt"
 viewBox="0.00 0.00 167.00 192.00" xmlns="http://www.w3.org/2000/svg" xmlns:xlink="http://www.w3.org/1999/xlink">
<g id="graph0" class="graph" transform="scale(1 1) rotate(0) translate(4 188)">
<title>xiiQtFilePropertyWidget</title>
<!-- Node1 -->
<g id="Node000001" class="node">
<title>Node1</title>
<g id="a_Node000001"><a xlink:title=" ">
<polygon fill="#999999" stroke="#666666" points="146,-19 13,-19 13,0 146,0 146,-19"/>
<text text-anchor="middle" x="79.5" y="-7" font-family="Helvetica,sans-Serif" font-size="10.00">xiiQtFilePropertyWidget</text>
</a>
</g>
</g>
<!-- Node2 -->
<g id="Node000002" class="node">
<title>Node2</title>
<g id="a_Node000002"><a xlink:href="../../d5/db2/classxii_qt_standard_property_widget.html" target="_top" xlink:title="Base class for most &#39;simple&#39; property type widgets. Implements some of the standard functionality.">
<polygon fill="white" stroke="#666666" points="159,-74 0,-74 0,-55 159,-55 159,-74"/>
<text text-anchor="middle" x="79.5" y="-62" font-family="Helvetica,sans-Serif" font-size="10.00">xiiQtStandardPropertyWidget</text>
</a>
</g>
</g>
<!-- Node2&#45;&gt;Node1 -->
<g id="edge1_Node000001_Node000002" class="edge">
<title>Node2&#45;&gt;Node1</title>
<g id="a_edge1_Node000001_Node000002"><a xlink:title=" ">
<path fill="none" stroke="#63b8ff" d="M79.5,-44.66C79.5,-35.93 79.5,-25.99 79.5,-19.09"/>
<polygon fill="#63b8ff" stroke="#63b8ff" points="76,-44.75 79.5,-54.75 83,-44.75 76,-44.75"/>
</a>
</g>
</g>
<!-- Node3 -->
<g id="Node000003" class="node">
<title>Node3</title>
<g id="a_Node000003"><a xlink:href="../../d9/d80/classxii_qt_property_widget.html" target="_top" xlink:title="Base class for all property widgets.">
<polygon fill="white" stroke="#666666" points="137.5,-129 21.5,-129 21.5,-110 137.5,-110 137.5,-129"/>
<text text-anchor="middle" x="79.5" y="-117" font-family="Helvetica,sans-Serif" font-size="10.00">xiiQtPropertyWidget</text>
</a>
</g>
</g>
<!-- Node3&#45;&gt;Node2 -->
<g id="edge2_Node000002_Node000003" class="edge">
<title>Node3&#45;&gt;Node2</title>
<g id="a_edge2_Node000002_Node000003"><a xlink:title=" ">
<path fill="none" stroke="#63b8ff" d="M79.5,-99.66C79.5,-90.93 79.5,-80.99 79.5,-74.09"/>
<polygon fill="#63b8ff" stroke="#63b8ff" points="76,-99.75 79.5,-109.75 83,-99.75 76,-99.75"/>
</a>
</g>
</g>
<!-- Node4 -->
<g id="Node000004" class="node">
<title>Node4</title>
<g id="a_Node000004"><a xlink:title=" ">
<polygon fill="white" stroke="#bfbfbf" points="109,-184 50,-184 50,-165 109,-165 109,-184"/>
<text text-anchor="middle" x="79.5" y="-172" font-family="Helvetica,sans-Serif" font-size="10.00">QWidget</text>
</a>
</g>
</g>
<!-- Node4&#45;&gt;Node3 -->
<g id="edge3_Node000003_Node000004" class="edge">
<title>Node4&#45;&gt;Node3</title>
<g id="a_edge3_Node000003_Node000004"><a xlink:title=" ">
<path fill="none" stroke="#63b8ff" d="M79.5,-154.66C79.5,-145.93 79.5,-135.99 79.5,-129.09"/>
<polygon fill="#63b8ff" stroke="#63b8ff" points="76,-154.75 79.5,-164.75 83,-154.75 76,-154.75"/>
</a>
</g>
</g>
</g>
</svg>
