<?xml version="1.0" encoding="UTF-8" standalone="no"?>
<!DOCTYPE svg PUBLIC "-//W3C//DTD SVG 1.1//EN"
 "http://www.w3.org/Graphics/SVG/1.1/DTD/svg11.dtd">
<!-- Generated by graphviz version 2.43.0 (0)
 -->
<!-- Title: xiiVisualShaderAction Pages: 1 -->
<svg width="131pt" height="308pt"
 viewBox="0.00 0.00 131.00 308.00" xmlns="http://www.w3.org/2000/svg" xmlns:xlink="http://www.w3.org/1999/xlink">
<g id="graph0" class="graph" transform="scale(1 1) rotate(0) translate(4 304)">
<title>xiiVisualShaderAction</title>
<polygon fill="white" stroke="transparent" points="-4,4 -4,-304 127,-304 127,4 -4,4"/>
<!-- Node1 -->
<g id="node1" class="node">
<title>Node1</title>
<g id="a_node1"><a xlink:title=" ">
<polygon fill="#bfbfbf" stroke="black" points="0,-0.5 0,-19.5 123,-19.5 123,-0.5 0,-0.5"/>
<text text-anchor="middle" x="61.5" y="-7.5" font-family="Helvetica,sans-Serif" font-size="10.00">xiiVisualShaderAction</text>
</a>
</g>
</g>
<!-- Node2 -->
<g id="node2" class="node">
<title>Node2</title>
<g id="a_node2"><a xlink:href="../../dc/ddb/classxii_button_action.htm" target="_top" xlink:title=" ">
<polygon fill="white" stroke="black" points="15.5,-56.5 15.5,-75.5 107.5,-75.5 107.5,-56.5 15.5,-56.5"/>
<text text-anchor="middle" x="61.5" y="-63.5" font-family="Helvetica,sans-Serif" font-size="10.00">xiiButtonAction</text>
</a>
</g>
</g>
<!-- Node2&#45;&gt;Node1 -->
<g id="edge1" class="edge">
<title>Node2&#45;&gt;Node1</title>
<path fill="none" stroke="midnightblue" d="M61.5,-45.8C61.5,-36.91 61.5,-26.78 61.5,-19.75"/>
<polygon fill="midnightblue" stroke="midnightblue" points="58,-46.08 61.5,-56.08 65,-46.08 58,-46.08"/>
</g>
<!-- Node3 -->
<g id="node3" class="node">
<title>Node3</title>
<g id="a_node3"><a xlink:href="../../d3/d7a/classxii_named_action.htm" target="_top" xlink:title=" ">
<polygon fill="white" stroke="black" points="14,-112.5 14,-131.5 109,-131.5 109,-112.5 14,-112.5"/>
<text text-anchor="middle" x="61.5" y="-119.5" font-family="Helvetica,sans-Serif" font-size="10.00">xiiNamedAction</text>
</a>
</g>
</g>
<!-- Node3&#45;&gt;Node2 -->
<g id="edge2" class="edge">
<title>Node3&#45;&gt;Node2</title>
<path fill="none" stroke="midnightblue" d="M61.5,-101.8C61.5,-92.91 61.5,-82.78 61.5,-75.75"/>
<polygon fill="midnightblue" stroke="midnightblue" points="58,-102.08 61.5,-112.08 65,-102.08 58,-102.08"/>
</g>
<!-- Node4 -->
<g id="node4" class="node">
<title>Node4</title>
<g id="a_node4"><a xlink:href="../../d8/d30/classxii_action.htm" target="_top" xlink:title=" ">
<polygon fill="white" stroke="black" points="32,-168.5 32,-187.5 91,-187.5 91,-168.5 32,-168.5"/>
<text text-anchor="middle" x="61.5" y="-175.5" font-family="Helvetica,sans-Serif" font-size="10.00">xiiAction</text>
</a>
</g>
</g>
<!-- Node4&#45;&gt;Node3 -->
<g id="edge3" class="edge">
<title>Node4&#45;&gt;Node3</title>
<path fill="none" stroke="midnightblue" d="M61.5,-157.8C61.5,-148.91 61.5,-138.78 61.5,-131.75"/>
<polygon fill="midnightblue" stroke="midnightblue" points="58,-158.08 61.5,-168.08 65,-158.08 58,-158.08"/>
</g>
<!-- Node5 -->
<g id="node5" class="node">
<title>Node5</title>
<g id="a_node5"><a xlink:href="../../dc/d71/classxii_reflected_class.htm" target="_top" xlink:title="All classes that should be dynamically reflectable, need to be derived from this base class.">
<polygon fill="white" stroke="black" points="11,-224.5 11,-243.5 112,-243.5 112,-224.5 11,-224.5"/>
<text text-anchor="middle" x="61.5" y="-231.5" font-family="Helvetica,sans-Serif" font-size="10.00">xiiReflectedClass</text>
</a>
</g>
</g>
<!-- Node5&#45;&gt;Node4 -->
<g id="edge4" class="edge">
<title>Node5&#45;&gt;Node4</title>
<path fill="none" stroke="midnightblue" d="M61.5,-213.8C61.5,-204.91 61.5,-194.78 61.5,-187.75"/>
<polygon fill="midnightblue" stroke="midnightblue" points="58,-214.08 61.5,-224.08 65,-214.08 58,-214.08"/>
</g>
<!-- Node6 -->
<g id="node6" class="node">
<title>Node6</title>
<g id="a_node6"><a xlink:href="../../d2/d38/classxii_no_base.htm" target="_top" xlink:title="Dummy type to pass to templates and macros that expect a base type for a class that has no base.">
<polygon fill="white" stroke="black" points="28.5,-280.5 28.5,-299.5 94.5,-299.5 94.5,-280.5 28.5,-280.5"/>
<text text-anchor="middle" x="61.5" y="-287.5" font-family="Helvetica,sans-Serif" font-size="10.00">xiiNoBase</text>
</a>
</g>
</g>
<!-- Node6&#45;&gt;Node5 -->
<g id="edge5" class="edge">
<title>Node6&#45;&gt;Node5</title>
<path fill="none" stroke="midnightblue" d="M61.5,-269.8C61.5,-260.91 61.5,-250.78 61.5,-243.75"/>
<polygon fill="midnightblue" stroke="midnightblue" points="58,-270.08 61.5,-280.08 65,-270.08 58,-270.08"/>
</g>
</g>
</svg>
