<?xml version="1.0" encoding="UTF-8" standalone="no"?>
<!DOCTYPE svg PUBLIC "-//W3C//DTD SVG 1.1//EN"
 "http://www.w3.org/Graphics/SVG/1.1/DTD/svg11.dtd">
<!-- Generated by graphviz version 2.43.0 (0)
 -->
<!-- Title: xiiDirectionalLightComponent Pages: 1 -->
<svg width="170pt" height="308pt"
 viewBox="0.00 0.00 170.00 308.00" xmlns="http://www.w3.org/2000/svg" xmlns:xlink="http://www.w3.org/1999/xlink">
<g id="graph0" class="graph" transform="scale(1 1) rotate(0) translate(4 304)">
<title>xiiDirectionalLightComponent</title>
<polygon fill="white" stroke="transparent" points="-4,4 -4,-304 166,-304 166,4 -4,4"/>
<!-- Node1 -->
<g id="node1" class="node">
<title>Node1</title>
<g id="a_node1"><a xlink:title="The standard directional light component. This component represents directional lights.">
<polygon fill="#bfbfbf" stroke="black" points="0,-0.5 0,-19.5 162,-19.5 162,-0.5 0,-0.5"/>
<text text-anchor="middle" x="81" y="-7.5" font-family="Helvetica,sans-Serif" font-size="10.00">xiiDirectionalLightComponent</text>
</a>
</g>
</g>
<!-- Node2 -->
<g id="node2" class="node">
<title>Node2</title>
<g id="a_node2"><a xlink:href="../../dd/de7/classxii_light_component.htm" target="_top" xlink:title="Base class for all xii light components containing shared properties.">
<polygon fill="white" stroke="black" points="26.5,-56.5 26.5,-75.5 135.5,-75.5 135.5,-56.5 26.5,-56.5"/>
<text text-anchor="middle" x="81" y="-63.5" font-family="Helvetica,sans-Serif" font-size="10.00">xiiLightComponent</text>
</a>
</g>
</g>
<!-- Node2&#45;&gt;Node1 -->
<g id="edge1" class="edge">
<title>Node2&#45;&gt;Node1</title>
<path fill="none" stroke="midnightblue" d="M81,-45.8C81,-36.91 81,-26.78 81,-19.75"/>
<polygon fill="midnightblue" stroke="midnightblue" points="77.5,-46.08 81,-56.08 84.5,-46.08 77.5,-46.08"/>
</g>
<!-- Node3 -->
<g id="node3" class="node">
<title>Node3</title>
<g id="a_node3"><a xlink:href="../../d2/d2b/classxii_render_component.htm" target="_top" xlink:title=" ">
<polygon fill="white" stroke="black" points="21.5,-112.5 21.5,-131.5 140.5,-131.5 140.5,-112.5 21.5,-112.5"/>
<text text-anchor="middle" x="81" y="-119.5" font-family="Helvetica,sans-Serif" font-size="10.00">xiiRenderComponent</text>
</a>
</g>
</g>
<!-- Node3&#45;&gt;Node2 -->
<g id="edge2" class="edge">
<title>Node3&#45;&gt;Node2</title>
<path fill="none" stroke="midnightblue" d="M81,-101.8C81,-92.91 81,-82.78 81,-75.75"/>
<polygon fill="midnightblue" stroke="midnightblue" points="77.5,-102.08 81,-112.08 84.5,-102.08 77.5,-102.08"/>
</g>
<!-- Node4 -->
<g id="node4" class="node">
<title>Node4</title>
<g id="a_node4"><a xlink:href="../../db/d60/classxii_component.htm" target="_top" xlink:title="Base class of all component types.">
<polygon fill="white" stroke="black" points="38.5,-168.5 38.5,-187.5 123.5,-187.5 123.5,-168.5 38.5,-168.5"/>
<text text-anchor="middle" x="81" y="-175.5" font-family="Helvetica,sans-Serif" font-size="10.00">xiiComponent</text>
</a>
</g>
</g>
<!-- Node4&#45;&gt;Node3 -->
<g id="edge3" class="edge">
<title>Node4&#45;&gt;Node3</title>
<path fill="none" stroke="midnightblue" d="M81,-157.8C81,-148.91 81,-138.78 81,-131.75"/>
<polygon fill="midnightblue" stroke="midnightblue" points="77.5,-158.08 81,-168.08 84.5,-158.08 77.5,-158.08"/>
</g>
<!-- Node5 -->
<g id="node5" class="node">
<title>Node5</title>
<g id="a_node5"><a xlink:href="../../dc/d71/classxii_reflected_class.htm" target="_top" xlink:title="All classes that should be dynamically reflectable, need to be derived from this base class.">
<polygon fill="white" stroke="black" points="30.5,-224.5 30.5,-243.5 131.5,-243.5 131.5,-224.5 30.5,-224.5"/>
<text text-anchor="middle" x="81" y="-231.5" font-family="Helvetica,sans-Serif" font-size="10.00">xiiReflectedClass</text>
</a>
</g>
</g>
<!-- Node5&#45;&gt;Node4 -->
<g id="edge4" class="edge">
<title>Node5&#45;&gt;Node4</title>
<path fill="none" stroke="midnightblue" d="M81,-213.8C81,-204.91 81,-194.78 81,-187.75"/>
<polygon fill="midnightblue" stroke="midnightblue" points="77.5,-214.08 81,-224.08 84.5,-214.08 77.5,-214.08"/>
</g>
<!-- Node6 -->
<g id="node6" class="node">
<title>Node6</title>
<g id="a_node6"><a xlink:href="../../d2/d38/classxii_no_base.htm" target="_top" xlink:title="Dummy type to pass to templates and macros that expect a base type for a class that has no base.">
<polygon fill="white" stroke="black" points="48,-280.5 48,-299.5 114,-299.5 114,-280.5 48,-280.5"/>
<text text-anchor="middle" x="81" y="-287.5" font-family="Helvetica,sans-Serif" font-size="10.00">xiiNoBase</text>
</a>
</g>
</g>
<!-- Node6&#45;&gt;Node5 -->
<g id="edge5" class="edge">
<title>Node6&#45;&gt;Node5</title>
<path fill="none" stroke="midnightblue" d="M81,-269.8C81,-260.91 81,-250.78 81,-243.75"/>
<polygon fill="midnightblue" stroke="midnightblue" points="77.5,-270.08 81,-280.08 84.5,-270.08 77.5,-270.08"/>
</g>
</g>
</svg>
