<?xml version="1.0" encoding="UTF-8" standalone="no"?>
<!DOCTYPE svg PUBLIC "-//W3C//DTD SVG 1.1//EN"
 "http://www.w3.org/Graphics/SVG/1.1/DTD/svg11.dtd">
<!-- Generated by graphviz version 2.43.0 (0)
 -->
<!-- Title: xiiToggleWorldSpaceGizmo Pages: 1 -->
<svg width="157pt" height="364pt"
 viewBox="0.00 0.00 157.00 364.00" xmlns="http://www.w3.org/2000/svg" xmlns:xlink="http://www.w3.org/1999/xlink">
<g id="graph0" class="graph" transform="scale(1 1) rotate(0) translate(4 360)">
<title>xiiToggleWorldSpaceGizmo</title>
<polygon fill="white" stroke="transparent" points="-4,4 -4,-360 153,-360 153,4 -4,4"/>
<!-- Node1 -->
<g id="node1" class="node">
<title>Node1</title>
<g id="a_node1"><a xlink:title=" ">
<polygon fill="#bfbfbf" stroke="black" points="0,-0.5 0,-19.5 149,-19.5 149,-0.5 0,-0.5"/>
<text text-anchor="middle" x="74.5" y="-7.5" font-family="Helvetica,sans-Serif" font-size="10.00">xiiToggleWorldSpaceGizmo</text>
</a>
</g>
</g>
<!-- Node2 -->
<g id="node2" class="node">
<title>Node2</title>
<g id="a_node2"><a xlink:href="../../d9/d72/classxii_gizmo_action.htm" target="_top" xlink:title=" ">
<polygon fill="white" stroke="black" points="29,-56.5 29,-75.5 120,-75.5 120,-56.5 29,-56.5"/>
<text text-anchor="middle" x="74.5" y="-63.5" font-family="Helvetica,sans-Serif" font-size="10.00">xiiGizmoAction</text>
</a>
</g>
</g>
<!-- Node2&#45;&gt;Node1 -->
<g id="edge1" class="edge">
<title>Node2&#45;&gt;Node1</title>
<path fill="none" stroke="midnightblue" d="M74.5,-45.8C74.5,-36.91 74.5,-26.78 74.5,-19.75"/>
<polygon fill="midnightblue" stroke="midnightblue" points="71,-46.08 74.5,-56.08 78,-46.08 71,-46.08"/>
</g>
<!-- Node3 -->
<g id="node3" class="node">
<title>Node3</title>
<g id="a_node3"><a xlink:href="../../dc/ddb/classxii_button_action.htm" target="_top" xlink:title=" ">
<polygon fill="white" stroke="black" points="28.5,-112.5 28.5,-131.5 120.5,-131.5 120.5,-112.5 28.5,-112.5"/>
<text text-anchor="middle" x="74.5" y="-119.5" font-family="Helvetica,sans-Serif" font-size="10.00">xiiButtonAction</text>
</a>
</g>
</g>
<!-- Node3&#45;&gt;Node2 -->
<g id="edge2" class="edge">
<title>Node3&#45;&gt;Node2</title>
<path fill="none" stroke="midnightblue" d="M74.5,-101.8C74.5,-92.91 74.5,-82.78 74.5,-75.75"/>
<polygon fill="midnightblue" stroke="midnightblue" points="71,-102.08 74.5,-112.08 78,-102.08 71,-102.08"/>
</g>
<!-- Node4 -->
<g id="node4" class="node">
<title>Node4</title>
<g id="a_node4"><a xlink:href="../../d3/d7a/classxii_named_action.htm" target="_top" xlink:title=" ">
<polygon fill="white" stroke="black" points="27,-168.5 27,-187.5 122,-187.5 122,-168.5 27,-168.5"/>
<text text-anchor="middle" x="74.5" y="-175.5" font-family="Helvetica,sans-Serif" font-size="10.00">xiiNamedAction</text>
</a>
</g>
</g>
<!-- Node4&#45;&gt;Node3 -->
<g id="edge3" class="edge">
<title>Node4&#45;&gt;Node3</title>
<path fill="none" stroke="midnightblue" d="M74.5,-157.8C74.5,-148.91 74.5,-138.78 74.5,-131.75"/>
<polygon fill="midnightblue" stroke="midnightblue" points="71,-158.08 74.5,-168.08 78,-158.08 71,-158.08"/>
</g>
<!-- Node5 -->
<g id="node5" class="node">
<title>Node5</title>
<g id="a_node5"><a xlink:href="../../d8/d30/classxii_action.htm" target="_top" xlink:title=" ">
<polygon fill="white" stroke="black" points="45,-224.5 45,-243.5 104,-243.5 104,-224.5 45,-224.5"/>
<text text-anchor="middle" x="74.5" y="-231.5" font-family="Helvetica,sans-Serif" font-size="10.00">xiiAction</text>
</a>
</g>
</g>
<!-- Node5&#45;&gt;Node4 -->
<g id="edge4" class="edge">
<title>Node5&#45;&gt;Node4</title>
<path fill="none" stroke="midnightblue" d="M74.5,-213.8C74.5,-204.91 74.5,-194.78 74.5,-187.75"/>
<polygon fill="midnightblue" stroke="midnightblue" points="71,-214.08 74.5,-224.08 78,-214.08 71,-214.08"/>
</g>
<!-- Node6 -->
<g id="node6" class="node">
<title>Node6</title>
<g id="a_node6"><a xlink:href="../../dc/d71/classxii_reflected_class.htm" target="_top" xlink:title="All classes that should be dynamically reflectable, need to be derived from this base class.">
<polygon fill="white" stroke="black" points="24,-280.5 24,-299.5 125,-299.5 125,-280.5 24,-280.5"/>
<text text-anchor="middle" x="74.5" y="-287.5" font-family="Helvetica,sans-Serif" font-size="10.00">xiiReflectedClass</text>
</a>
</g>
</g>
<!-- Node6&#45;&gt;Node5 -->
<g id="edge5" class="edge">
<title>Node6&#45;&gt;Node5</title>
<path fill="none" stroke="midnightblue" d="M74.5,-269.8C74.5,-260.91 74.5,-250.78 74.5,-243.75"/>
<polygon fill="midnightblue" stroke="midnightblue" points="71,-270.08 74.5,-280.08 78,-270.08 71,-270.08"/>
</g>
<!-- Node7 -->
<g id="node7" class="node">
<title>Node7</title>
<g id="a_node7"><a xlink:href="../../d2/d38/classxii_no_base.htm" target="_top" xlink:title="Dummy type to pass to templates and macros that expect a base type for a class that has no base.">
<polygon fill="white" stroke="black" points="41.5,-336.5 41.5,-355.5 107.5,-355.5 107.5,-336.5 41.5,-336.5"/>
<text text-anchor="middle" x="74.5" y="-343.5" font-family="Helvetica,sans-Serif" font-size="10.00">xiiNoBase</text>
</a>
</g>
</g>
<!-- Node7&#45;&gt;Node6 -->
<g id="edge6" class="edge">
<title>Node7&#45;&gt;Node6</title>
<path fill="none" stroke="midnightblue" d="M74.5,-325.8C74.5,-316.91 74.5,-306.78 74.5,-299.75"/>
<polygon fill="midnightblue" stroke="midnightblue" points="71,-326.08 74.5,-336.08 78,-326.08 71,-326.08"/>
</g>
</g>
</svg>
