<?xml version="1.0" encoding="UTF-8" standalone="no"?>
<!DOCTYPE svg PUBLIC "-//W3C//DTD SVG 1.1//EN"
 "http://www.w3.org/Graphics/SVG/1.1/DTD/svg11.dtd">
<!-- Generated by graphviz version 2.43.0 (0)
 -->
<!-- Title: xiiSceneExportModifier Pages: 1 -->
<svg width="586pt" height="137pt"
 viewBox="0.00 0.00 586.00 137.00" xmlns="http://www.w3.org/2000/svg" xmlns:xlink="http://www.w3.org/1999/xlink">
<g id="graph0" class="graph" transform="scale(1 1) rotate(0) translate(4 133)">
<title>xiiSceneExportModifier</title>
<polygon fill="white" stroke="transparent" points="-4,4 -4,-133 582,-133 582,4 -4,4"/>
<!-- Node1 -->
<g id="node1" class="node">
<title>Node1</title>
<g id="a_node1"><a xlink:title=" ">
<polygon fill="#bfbfbf" stroke="black" points="239,-55 239,-74 368,-74 368,-55 239,-55"/>
<text text-anchor="middle" x="303.5" y="-62" font-family="Helvetica,sans-Serif" font-size="10.00">xiiSceneExportModifier</text>
</a>
</g>
</g>
<!-- Node4 -->
<g id="node4" class="node">
<title>Node4</title>
<g id="a_node4"><a xlink:href="../../d4/d15/classxii_scene_export_modifier___remove_comment_components.htm" target="_top" xlink:title=" ">
<polygon fill="white" stroke="black" points="405,-98.5 405,-128.5 577,-128.5 577,-98.5 405,-98.5"/>
<text text-anchor="start" x="413" y="-116.5" font-family="Helvetica,sans-Serif" font-size="10.00">xiiSceneExportModifier</text>
<text text-anchor="middle" x="491" y="-105.5" font-family="Helvetica,sans-Serif" font-size="10.00">_RemoveCommentComponents</text>
</a>
</g>
</g>
<!-- Node1&#45;&gt;Node4 -->
<g id="edge3" class="edge">
<title>Node1&#45;&gt;Node4</title>
<path fill="none" stroke="midnightblue" d="M350.65,-76.69C375.6,-83.28 406.63,-91.48 433.07,-98.46"/>
<polygon fill="midnightblue" stroke="midnightblue" points="351.27,-73.23 340.71,-74.06 349.48,-80 351.27,-73.23"/>
</g>
<!-- Node5 -->
<g id="node5" class="node">
<title>Node5</title>
<g id="a_node5"><a xlink:href="../../d1/dc2/classxii_scene_export_modifier___remove_path_node_components.htm" target="_top" xlink:title=" ">
<polygon fill="white" stroke="black" points="406,-49.5 406,-79.5 576,-79.5 576,-49.5 406,-49.5"/>
<text text-anchor="start" x="414" y="-67.5" font-family="Helvetica,sans-Serif" font-size="10.00">xiiSceneExportModifier</text>
<text text-anchor="middle" x="491" y="-56.5" font-family="Helvetica,sans-Serif" font-size="10.00">_RemovePathNodeComponents</text>
</a>
</g>
</g>
<!-- Node1&#45;&gt;Node5 -->
<g id="edge4" class="edge">
<title>Node1&#45;&gt;Node5</title>
<path fill="none" stroke="midnightblue" d="M378.21,-64.5C387.29,-64.5 396.63,-64.5 405.85,-64.5"/>
<polygon fill="midnightblue" stroke="midnightblue" points="378.08,-61 368.08,-64.5 378.08,-68 378.08,-61"/>
</g>
<!-- Node6 -->
<g id="node6" class="node">
<title>Node6</title>
<g id="a_node6"><a xlink:href="../../d3/d65/classxii_scene_export_modifier___remove_shape_icon_components.htm" target="_top" xlink:title=" ">
<polygon fill="white" stroke="black" points="404,-0.5 404,-30.5 578,-30.5 578,-0.5 404,-0.5"/>
<text text-anchor="start" x="412" y="-18.5" font-family="Helvetica,sans-Serif" font-size="10.00">xiiSceneExportModifier</text>
<text text-anchor="middle" x="491" y="-7.5" font-family="Helvetica,sans-Serif" font-size="10.00">_RemoveShapeIconComponents</text>
</a>
</g>
</g>
<!-- Node1&#45;&gt;Node6 -->
<g id="edge5" class="edge">
<title>Node1&#45;&gt;Node6</title>
<path fill="none" stroke="midnightblue" d="M350.65,-52.31C375.6,-45.72 406.63,-37.52 433.07,-30.54"/>
<polygon fill="midnightblue" stroke="midnightblue" points="349.48,-49 340.71,-54.94 351.27,-55.77 349.48,-49"/>
</g>
<!-- Node2 -->
<g id="node2" class="node">
<title>Node2</title>
<g id="a_node2"><a xlink:href="../../dc/d71/classxii_reflected_class.htm" target="_top" xlink:title="All classes that should be dynamically reflectable, need to be derived from this base class.">
<polygon fill="white" stroke="black" points="102,-55 102,-74 203,-74 203,-55 102,-55"/>
<text text-anchor="middle" x="152.5" y="-62" font-family="Helvetica,sans-Serif" font-size="10.00">xiiReflectedClass</text>
</a>
</g>
</g>
<!-- Node2&#45;&gt;Node1 -->
<g id="edge1" class="edge">
<title>Node2&#45;&gt;Node1</title>
<path fill="none" stroke="midnightblue" d="M213.22,-64.5C221.63,-64.5 230.3,-64.5 238.79,-64.5"/>
<polygon fill="midnightblue" stroke="midnightblue" points="213.11,-61 203.11,-64.5 213.11,-68 213.11,-61"/>
</g>
<!-- Node3 -->
<g id="node3" class="node">
<title>Node3</title>
<g id="a_node3"><a xlink:href="../../d2/d38/classxii_no_base.htm" target="_top" xlink:title="Dummy type to pass to templates and macros that expect a base type for a class that has no base.">
<polygon fill="white" stroke="black" points="0,-55 0,-74 66,-74 66,-55 0,-55"/>
<text text-anchor="middle" x="33" y="-62" font-family="Helvetica,sans-Serif" font-size="10.00">xiiNoBase</text>
</a>
</g>
</g>
<!-- Node3&#45;&gt;Node2 -->
<g id="edge2" class="edge">
<title>Node3&#45;&gt;Node2</title>
<path fill="none" stroke="midnightblue" d="M76.27,-64.5C84.54,-64.5 93.29,-64.5 101.78,-64.5"/>
<polygon fill="midnightblue" stroke="midnightblue" points="76.11,-61 66.11,-64.5 76.11,-68 76.11,-61"/>
</g>
</g>
</svg>
