<?xml version="1.0" encoding="UTF-8" standalone="no"?>
<!DOCTYPE svg PUBLIC "-//W3C//DTD SVG 1.1//EN"
 "http://www.w3.org/Graphics/SVG/1.1/DTD/svg11.dtd">
<!-- Generated by graphviz version 2.43.0 (0)
 -->
<!-- Title: xiiGraphPatch Pages: 1 -->
<svg width="637pt" height="1526pt"
 viewBox="0.00 0.00 637.00 1526.00" xmlns="http://www.w3.org/2000/svg" xmlns:xlink="http://www.w3.org/1999/xlink">
<g id="graph0" class="graph" transform="scale(1 1) rotate(0) translate(4 1522)">
<title>xiiGraphPatch</title>
<polygon fill="white" stroke="transparent" points="-4,4 -4,-1522 633,-1522 633,4 -4,4"/>
<!-- Node1 -->
<g id="node1" class="node">
<title>Node1</title>
<g id="a_node1"><a xlink:title="Patch base class for xiiAbstractObjectGraph patches.">
<polygon fill="#bfbfbf" stroke="black" points="315,-763.5 315,-782.5 399,-782.5 399,-763.5 315,-763.5"/>
<text text-anchor="middle" x="357" y="-770.5" font-family="Helvetica,sans-Serif" font-size="10.00">xiiGraphPatch</text>
</a>
</g>
</g>
<!-- Node4 -->
<g id="node4" class="node">
<title>Node4</title>
<g id="a_node4"><a xlink:title=" ">
<polygon fill="white" stroke="#bfbfbf" points="462.5,-1498.5 462.5,-1517.5 601.5,-1517.5 601.5,-1498.5 462.5,-1498.5"/>
<text text-anchor="middle" x="532" y="-1505.5" font-family="Helvetica,sans-Serif" font-size="10.00">xiiAlphaControlPoint_1_2</text>
</a>
</g>
</g>
<!-- Node1&#45;&gt;Node4 -->
<g id="edge3" class="edge">
<title>Node1&#45;&gt;Node4</title>
<path fill="none" stroke="midnightblue" d="M358.75,-792.88C363.11,-903.11 386.59,-1436.11 435,-1489 442.34,-1497.02 452.01,-1502.22 462.39,-1505.5"/>
<polygon fill="midnightblue" stroke="midnightblue" points="362.24,-792.42 358.35,-782.56 355.24,-792.69 362.24,-792.42"/>
</g>
<!-- Node5 -->
<g id="node5" class="node">
<title>Node5</title>
<g id="a_node5"><a xlink:title=" ">
<polygon fill="white" stroke="#bfbfbf" points="451,-1460.5 451,-1479.5 613,-1479.5 613,-1460.5 451,-1460.5"/>
<text text-anchor="middle" x="532" y="-1467.5" font-family="Helvetica,sans-Serif" font-size="10.00">xiiBlackboardComponent_2_3</text>
</a>
</g>
</g>
<!-- Node1&#45;&gt;Node5 -->
<g id="edge4" class="edge">
<title>Node1&#45;&gt;Node5</title>
<path fill="none" stroke="midnightblue" d="M358.88,-792.83C363.77,-899.41 389.12,-1401.18 435,-1451 439.49,-1455.87 444.84,-1459.7 450.68,-1462.7"/>
<polygon fill="midnightblue" stroke="midnightblue" points="362.37,-792.63 358.42,-782.8 355.38,-792.94 362.37,-792.63"/>
</g>
<!-- Node6 -->
<g id="node6" class="node">
<title>Node6</title>
<g id="a_node6"><a xlink:title=" ">
<polygon fill="white" stroke="#bfbfbf" points="446,-1422.5 446,-1441.5 618,-1441.5 618,-1422.5 446,-1422.5"/>
<text text-anchor="middle" x="532" y="-1429.5" font-family="Helvetica,sans-Serif" font-size="10.00">xiiCameraComponentPatch_4_5</text>
</a>
</g>
</g>
<!-- Node1&#45;&gt;Node6 -->
<g id="edge5" class="edge">
<title>Node1&#45;&gt;Node6</title>
<path fill="none" stroke="midnightblue" d="M359.03,-792.99C364.5,-896.25 391.68,-1366.28 435,-1413 438.47,-1416.74 442.44,-1419.86 446.75,-1422.46"/>
<polygon fill="midnightblue" stroke="midnightblue" points="362.51,-792.53 358.49,-782.73 355.52,-792.9 362.51,-792.53"/>
</g>
<!-- Node7 -->
<g id="node7" class="node">
<title>Node7</title>
<g id="a_node7"><a xlink:title=" ">
<polygon fill="white" stroke="#bfbfbf" points="446,-1384.5 446,-1403.5 618,-1403.5 618,-1384.5 446,-1384.5"/>
<text text-anchor="middle" x="532" y="-1391.5" font-family="Helvetica,sans-Serif" font-size="10.00">xiiCameraComponentPatch_8_9</text>
</a>
</g>
</g>
<!-- Node1&#45;&gt;Node7 -->
<g id="edge6" class="edge">
<title>Node1&#45;&gt;Node7</title>
<path fill="none" stroke="midnightblue" d="M357.57,-792.79C355.93,-886.89 353.88,-1288.15 435,-1375 438.48,-1378.72 442.46,-1381.84 446.78,-1384.43"/>
<polygon fill="midnightblue" stroke="midnightblue" points="361.07,-792.73 357.76,-782.66 354.07,-792.59 361.07,-792.73"/>
</g>
<!-- Node8 -->
<g id="node8" class="node">
<title>Node8</title>
<g id="a_node8"><a xlink:title=" ">
<polygon fill="white" stroke="#bfbfbf" points="463.5,-1346.5 463.5,-1365.5 600.5,-1365.5 600.5,-1346.5 463.5,-1346.5"/>
<text text-anchor="middle" x="532" y="-1353.5" font-family="Helvetica,sans-Serif" font-size="10.00">xiiColorControlPoint_1_2</text>
</a>
</g>
</g>
<!-- Node1&#45;&gt;Node8 -->
<g id="edge7" class="edge">
<title>Node1&#45;&gt;Node8</title>
<path fill="none" stroke="midnightblue" d="M357.75,-792.97C357.07,-883.71 358.97,-1256.29 435,-1337 442.57,-1345.04 452.49,-1350.22 463.07,-1353.48"/>
<polygon fill="midnightblue" stroke="midnightblue" points="361.25,-792.95 357.85,-782.92 354.26,-792.88 361.25,-792.95"/>
</g>
<!-- Node9 -->
<g id="node9" class="node">
<title>Node9</title>
<g id="a_node9"><a xlink:title=" ">
<polygon fill="white" stroke="#bfbfbf" points="459,-1297 459,-1327 605,-1327 605,-1297 459,-1297"/>
<text text-anchor="start" x="467" y="-1315" font-family="Helvetica,sans-Serif" font-size="10.00">xiiColorGradientAssetData</text>
<text text-anchor="middle" x="532" y="-1304" font-family="Helvetica,sans-Serif" font-size="10.00">Patch_1_2</text>
</a>
</g>
</g>
<!-- Node1&#45;&gt;Node9 -->
<g id="edge8" class="edge">
<title>Node1&#45;&gt;Node9</title>
<path fill="none" stroke="midnightblue" d="M358.16,-792.97C359.25,-878.4 367.8,-1212.27 435,-1287 441.45,-1294.17 449.67,-1299.4 458.58,-1303.2"/>
<polygon fill="midnightblue" stroke="midnightblue" points="361.66,-792.77 358.05,-782.81 354.66,-792.85 361.66,-792.77"/>
</g>
<!-- Node10 -->
<g id="node10" class="node">
<title>Node10</title>
<g id="a_node10"><a xlink:title=" ">
<polygon fill="white" stroke="#bfbfbf" points="460.5,-1258.5 460.5,-1277.5 603.5,-1277.5 603.5,-1258.5 460.5,-1258.5"/>
<text text-anchor="middle" x="532" y="-1265.5" font-family="Helvetica,sans-Serif" font-size="10.00">xiiCurve1DAssetData_1_2</text>
</a>
</g>
</g>
<!-- Node1&#45;&gt;Node10 -->
<g id="edge9" class="edge">
<title>Node1&#45;&gt;Node10</title>
<path fill="none" stroke="midnightblue" d="M358.31,-792.86C359.99,-874.39 370.57,-1182.27 435,-1249 441.96,-1256.21 450.82,-1261.11 460.32,-1264.37"/>
<polygon fill="midnightblue" stroke="midnightblue" points="361.8,-792.46 358.12,-782.53 354.8,-792.59 361.8,-792.46"/>
</g>
<!-- Node11 -->
<g id="node11" class="node">
<title>Node11</title>
<g id="a_node11"><a xlink:title=" ">
<polygon fill="white" stroke="#bfbfbf" points="442.5,-1220.5 442.5,-1239.5 621.5,-1239.5 621.5,-1220.5 442.5,-1220.5"/>
<text text-anchor="middle" x="532" y="-1227.5" font-family="Helvetica,sans-Serif" font-size="10.00">xiiCurve1DControlPointPatch_1_2</text>
</a>
</g>
</g>
<!-- Node1&#45;&gt;Node11 -->
<g id="edge10" class="edge">
<title>Node1&#45;&gt;Node11</title>
<path fill="none" stroke="midnightblue" d="M358.61,-792.74C361.4,-869.96 375.54,-1150.25 435,-1211 438.68,-1214.76 442.88,-1217.89 447.42,-1220.49"/>
<polygon fill="midnightblue" stroke="midnightblue" points="362.1,-792.39 358.26,-782.51 355.1,-792.62 362.1,-792.39"/>
</g>
<!-- Node12 -->
<g id="node12" class="node">
<title>Node12</title>
<g id="a_node12"><a xlink:title=" ">
<polygon fill="white" stroke="#bfbfbf" points="455.5,-1182.5 455.5,-1201.5 608.5,-1201.5 608.5,-1182.5 455.5,-1182.5"/>
<text text-anchor="middle" x="532" y="-1189.5" font-family="Helvetica,sans-Serif" font-size="10.00">xiiCurve1DControlPoint_2_3</text>
</a>
</g>
</g>
<!-- Node1&#45;&gt;Node12 -->
<g id="edge11" class="edge">
<title>Node1&#45;&gt;Node12</title>
<path fill="none" stroke="midnightblue" d="M358.97,-792.89C362.97,-865.97 380.56,-1118.27 435,-1173 440.75,-1178.78 447.72,-1183.06 455.25,-1186.2"/>
<polygon fill="midnightblue" stroke="midnightblue" points="362.46,-792.56 358.45,-782.76 355.47,-792.92 362.46,-792.56"/>
</g>
<!-- Node13 -->
<g id="node13" class="node">
<title>Node13</title>
<g id="a_node13"><a xlink:title=" ">
<polygon fill="white" stroke="#bfbfbf" points="455.5,-1144.5 455.5,-1163.5 608.5,-1163.5 608.5,-1144.5 455.5,-1144.5"/>
<text text-anchor="middle" x="532" y="-1151.5" font-family="Helvetica,sans-Serif" font-size="10.00">xiiCurve1DControlPoint_3_4</text>
</a>
</g>
</g>
<!-- Node1&#45;&gt;Node13 -->
<g id="edge12" class="edge">
<title>Node1&#45;&gt;Node13</title>
<path fill="none" stroke="midnightblue" d="M359.4,-792.73C364.65,-861.07 385.48,-1086.17 435,-1135 440.81,-1140.73 447.81,-1144.97 455.36,-1148.09"/>
<polygon fill="midnightblue" stroke="midnightblue" points="362.87,-792.22 358.64,-782.51 355.89,-792.74 362.87,-792.22"/>
</g>
<!-- Node14 -->
<g id="node14" class="node">
<title>Node14</title>
<g id="a_node14"><a xlink:title=" ">
<polygon fill="white" stroke="#bfbfbf" points="455.5,-1106.5 455.5,-1125.5 608.5,-1125.5 608.5,-1106.5 455.5,-1106.5"/>
<text text-anchor="middle" x="532" y="-1113.5" font-family="Helvetica,sans-Serif" font-size="10.00">xiiCurve1DControlPoint_4_5</text>
</a>
</g>
</g>
<!-- Node1&#45;&gt;Node14 -->
<g id="edge13" class="edge">
<title>Node1&#45;&gt;Node14</title>
<path fill="none" stroke="midnightblue" d="M359.97,-793.11C366.64,-857.07 390.5,-1054.15 435,-1097 440.87,-1102.66 447.92,-1106.86 455.49,-1109.96"/>
<polygon fill="midnightblue" stroke="midnightblue" points="363.41,-792.38 358.92,-782.78 356.45,-793.08 363.41,-792.38"/>
</g>
<!-- Node15 -->
<g id="node15" class="node">
<title>Node15</title>
<g id="a_node15"><a xlink:title=" ">
<polygon fill="white" stroke="#bfbfbf" points="460.5,-1068.5 460.5,-1087.5 603.5,-1087.5 603.5,-1068.5 460.5,-1068.5"/>
<text text-anchor="middle" x="532" y="-1075.5" font-family="Helvetica,sans-Serif" font-size="10.00">xiiCurve1DDataPatch_1_2</text>
</a>
</g>
</g>
<!-- Node1&#45;&gt;Node15 -->
<g id="edge14" class="edge">
<title>Node1&#45;&gt;Node15</title>
<path fill="none" stroke="midnightblue" d="M360.58,-792.63C368.65,-851.03 395.29,-1021.89 435,-1059 442.2,-1065.73 451.06,-1070.38 460.47,-1073.56"/>
<polygon fill="midnightblue" stroke="midnightblue" points="364.02,-791.97 359.21,-782.53 357.09,-792.9 364.02,-791.97"/>
</g>
<!-- Node16 -->
<g id="node16" class="node">
<title>Node16</title>
<g id="a_node16"><a xlink:title=" ">
<polygon fill="white" stroke="#bfbfbf" points="474,-1030.5 474,-1049.5 590,-1049.5 590,-1030.5 474,-1030.5"/>
<text text-anchor="middle" x="532" y="-1037.5" font-family="Helvetica,sans-Serif" font-size="10.00">xiiCurve1DData_2_3</text>
</a>
</g>
</g>
<!-- Node1&#45;&gt;Node16 -->
<g id="edge15" class="edge">
<title>Node1&#45;&gt;Node16</title>
<path fill="none" stroke="midnightblue" d="M357.79,-792.77C358.43,-839.97 367.03,-959.86 435,-1021 445.61,-1030.54 459.59,-1035.87 473.59,-1038.72"/>
<polygon fill="midnightblue" stroke="midnightblue" points="361.29,-792.64 357.76,-782.65 354.29,-792.66 361.29,-792.64"/>
</g>
<!-- Node17 -->
<g id="node17" class="node">
<title>Node17</title>
<g id="a_node17"><a xlink:title=" ">
<polygon fill="white" stroke="#bfbfbf" points="464.5,-992.5 464.5,-1011.5 599.5,-1011.5 599.5,-992.5 464.5,-992.5"/>
<text text-anchor="middle" x="532" y="-999.5" font-family="Helvetica,sans-Serif" font-size="10.00">xiiDecalComponent_6_7</text>
</a>
</g>
</g>
<!-- Node1&#45;&gt;Node17 -->
<g id="edge16" class="edge">
<title>Node1&#45;&gt;Node17</title>
<path fill="none" stroke="midnightblue" d="M359.07,-792.85C362.48,-834.88 376.6,-933.07 435,-983 443.39,-990.18 453.71,-994.93 464.44,-998.04"/>
<polygon fill="midnightblue" stroke="midnightblue" points="362.56,-792.52 358.38,-782.79 355.58,-793 362.56,-792.52"/>
</g>
<!-- Node18 -->
<g id="node18" class="node">
<title>Node18</title>
<g id="a_node18"><a xlink:title=" ">
<polygon fill="white" stroke="#bfbfbf" points="442,-954.5 442,-973.5 622,-973.5 622,-954.5 442,-954.5"/>
<text text-anchor="middle" x="532" y="-961.5" font-family="Helvetica,sans-Serif" font-size="10.00">xiiFakeRopeComponentPatch_2_3</text>
</a>
</g>
</g>
<!-- Node1&#45;&gt;Node18 -->
<g id="edge17" class="edge">
<title>Node1&#45;&gt;Node18</title>
<path fill="none" stroke="midnightblue" d="M360.89,-792.94C367.26,-829.25 386.05,-906.01 435,-945 439.78,-948.81 445.12,-951.93 450.76,-954.46"/>
<polygon fill="midnightblue" stroke="midnightblue" points="364.28,-791.98 359.23,-782.67 357.37,-793.1 364.28,-791.98"/>
</g>
<!-- Node19 -->
<g id="node19" class="node">
<title>Node19</title>
<g id="a_node19"><a xlink:title=" ">
<polygon fill="white" stroke="#bfbfbf" points="453,-916.5 453,-935.5 611,-935.5 611,-916.5 453,-916.5"/>
<text text-anchor="middle" x="532" y="-923.5" font-family="Helvetica,sans-Serif" font-size="10.00">xiiInputComponentPatch_1_2</text>
</a>
</g>
</g>
<!-- Node1&#45;&gt;Node19 -->
<g id="edge18" class="edge">
<title>Node1&#45;&gt;Node19</title>
<path fill="none" stroke="midnightblue" d="M363.41,-792.26C372.79,-821.91 395,-878.3 435,-907 440.38,-910.86 446.36,-913.99 452.61,-916.51"/>
<polygon fill="midnightblue" stroke="midnightblue" points="366.75,-791.22 360.52,-782.65 360.05,-793.24 366.75,-791.22"/>
</g>
<!-- Node20 -->
<g id="node20" class="node">
<title>Node20</title>
<g id="a_node20"><a xlink:title=" ">
<polygon fill="white" stroke="#bfbfbf" points="455,-878.5 455,-897.5 609,-897.5 609,-878.5 455,-878.5"/>
<text text-anchor="middle" x="532" y="-885.5" font-family="Helvetica,sans-Serif" font-size="10.00">xiiIntensityControlPoint_1_2</text>
</a>
</g>
</g>
<!-- Node1&#45;&gt;Node20 -->
<g id="edge19" class="edge">
<title>Node1&#45;&gt;Node20</title>
<path fill="none" stroke="midnightblue" d="M367.72,-791.86C380.19,-814.03 403.95,-850.17 435,-869 441.39,-872.88 448.42,-875.98 455.68,-878.47"/>
<polygon fill="midnightblue" stroke="midnightblue" points="370.64,-789.9 362.81,-782.77 364.49,-793.23 370.64,-789.9"/>
</g>
<!-- Node21 -->
<g id="node21" class="node">
<title>Node21</title>
<g id="a_node21"><a xlink:title=" ">
<polygon fill="white" stroke="#bfbfbf" points="459,-829 459,-859 605,-859 605,-829 459,-829"/>
<text text-anchor="start" x="467" y="-847" font-family="Helvetica,sans-Serif" font-size="10.00">xiiMaterialAssetProperties</text>
<text text-anchor="middle" x="532" y="-836" font-family="Helvetica,sans-Serif" font-size="10.00">Patch_1_2</text>
</a>
</g>
</g>
<!-- Node1&#45;&gt;Node21 -->
<g id="edge20" class="edge">
<title>Node1&#45;&gt;Node21</title>
<path fill="none" stroke="midnightblue" d="M379.46,-788.55C394.41,-798.75 415.14,-811.69 435,-820 443.08,-823.38 451.75,-826.37 460.46,-828.99"/>
<polygon fill="midnightblue" stroke="midnightblue" points="381.17,-785.47 370.97,-782.62 377.16,-791.21 381.17,-785.47"/>
</g>
<!-- Node22 -->
<g id="node22" class="node">
<title>Node22</title>
<g id="a_node22"><a xlink:title=" ">
<polygon fill="white" stroke="#bfbfbf" points="459,-780 459,-810 605,-810 605,-780 459,-780"/>
<text text-anchor="start" x="467" y="-798" font-family="Helvetica,sans-Serif" font-size="10.00">xiiMaterialAssetProperties</text>
<text text-anchor="middle" x="532" y="-787" font-family="Helvetica,sans-Serif" font-size="10.00">Patch_2_3</text>
</a>
</g>
</g>
<!-- Node1&#45;&gt;Node22 -->
<g id="edge21" class="edge">
<title>Node1&#45;&gt;Node22</title>
<path fill="none" stroke="midnightblue" d="M409.79,-779.59C425.19,-781.54 442.35,-783.73 458.8,-785.82"/>
<polygon fill="midnightblue" stroke="midnightblue" points="409.8,-776.06 399.44,-778.27 408.92,-783 409.8,-776.06"/>
</g>
<!-- Node23 -->
<g id="node23" class="node">
<title>Node23</title>
<g id="a_node23"><a xlink:title=" ">
<polygon fill="white" stroke="#bfbfbf" points="442,-741.5 442,-760.5 622,-760.5 622,-741.5 442,-741.5"/>
<text text-anchor="middle" x="532" y="-748.5" font-family="Helvetica,sans-Serif" font-size="10.00">xiiMeshAssetPropertiesPatch_1_2</text>
</a>
</g>
</g>
<!-- Node1&#45;&gt;Node23 -->
<g id="edge22" class="edge">
<title>Node1&#45;&gt;Node23</title>
<path fill="none" stroke="midnightblue" d="M409.73,-766.42C424.3,-764.57 440.44,-762.52 456.06,-760.53"/>
<polygon fill="midnightblue" stroke="midnightblue" points="408.92,-763 399.44,-767.73 409.8,-769.94 408.92,-763"/>
</g>
<!-- Node24 -->
<g id="node24" class="node">
<title>Node24</title>
<g id="a_node24"><a xlink:title=" ">
<polygon fill="white" stroke="#bfbfbf" points="442,-703.5 442,-722.5 622,-722.5 622,-703.5 442,-703.5"/>
<text text-anchor="middle" x="532" y="-710.5" font-family="Helvetica,sans-Serif" font-size="10.00">xiiMeshAssetPropertiesPatch_2_3</text>
</a>
</g>
</g>
<!-- Node1&#45;&gt;Node24 -->
<g id="edge23" class="edge">
<title>Node1&#45;&gt;Node24</title>
<path fill="none" stroke="midnightblue" d="M381.69,-758.03C396.51,-749.28 416.28,-738.67 435,-732 445.72,-728.18 457.41,-725.06 468.82,-722.53"/>
<polygon fill="midnightblue" stroke="midnightblue" points="379.48,-755.29 372.73,-763.46 383.1,-761.27 379.48,-755.29"/>
</g>
<!-- Node25 -->
<g id="node25" class="node">
<title>Node25</title>
<g id="a_node25"><a xlink:title=" ">
<polygon fill="white" stroke="#bfbfbf" points="442.5,-665.5 442.5,-684.5 621.5,-684.5 621.5,-665.5 442.5,-665.5"/>
<text text-anchor="middle" x="532" y="-672.5" font-family="Helvetica,sans-Serif" font-size="10.00">xiiProjectileComponentPatch_1_2</text>
</a>
</g>
</g>
<!-- Node1&#45;&gt;Node25 -->
<g id="edge24" class="edge">
<title>Node1&#45;&gt;Node25</title>
<path fill="none" stroke="midnightblue" d="M370.17,-755.28C383.76,-736.93 407.51,-708.9 435,-694 442.17,-690.11 450.03,-687.02 458.06,-684.55"/>
<polygon fill="midnightblue" stroke="midnightblue" points="367.32,-753.25 364.34,-763.41 373.01,-757.33 367.32,-753.25"/>
</g>
<!-- Node26 -->
<g id="node26" class="node">
<title>Node26</title>
<g id="a_node26"><a xlink:title=" ">
<polygon fill="white" stroke="#bfbfbf" points="442.5,-627.5 442.5,-646.5 621.5,-646.5 621.5,-627.5 442.5,-627.5"/>
<text text-anchor="middle" x="532" y="-634.5" font-family="Helvetica,sans-Serif" font-size="10.00">xiiProjectileComponentPatch_5_6</text>
</a>
</g>
</g>
<!-- Node1&#45;&gt;Node26 -->
<g id="edge25" class="edge">
<title>Node1&#45;&gt;Node26</title>
<path fill="none" stroke="midnightblue" d="M365.03,-753.91C375.8,-727.46 399.02,-680.2 435,-656 440.64,-652.21 446.86,-649.14 453.34,-646.65"/>
<polygon fill="midnightblue" stroke="midnightblue" points="361.76,-752.65 361.39,-763.24 368.28,-755.19 361.76,-752.65"/>
</g>
<!-- Node27 -->
<g id="node27" class="node">
<title>Node27</title>
<g id="a_node27"><a xlink:title=" ">
<polygon fill="white" stroke="#bfbfbf" points="449,-578 449,-608 615,-608 615,-578 449,-578"/>
<text text-anchor="start" x="457" y="-596" font-family="Helvetica,sans-Serif" font-size="10.00">xiiReflectedPropertyDescriptor</text>
<text text-anchor="middle" x="532" y="-585" font-family="Helvetica,sans-Serif" font-size="10.00">Patch_1_2</text>
</a>
</g>
</g>
<!-- Node1&#45;&gt;Node27 -->
<g id="edge26" class="edge">
<title>Node1&#45;&gt;Node27</title>
<path fill="none" stroke="midnightblue" d="M362.16,-753.42C370.23,-720.35 391.21,-653.58 435,-618 439.68,-614.2 444.87,-610.97 450.35,-608.23"/>
<polygon fill="midnightblue" stroke="midnightblue" points="358.73,-752.72 359.9,-763.25 365.55,-754.29 358.73,-752.72"/>
</g>
<!-- Node28 -->
<g id="node28" class="node">
<title>Node28</title>
<g id="a_node28"><a xlink:title=" ">
<polygon fill="white" stroke="#bfbfbf" points="452,-539.5 452,-558.5 612,-558.5 612,-539.5 452,-539.5"/>
<text text-anchor="middle" x="532" y="-546.5" font-family="Helvetica,sans-Serif" font-size="10.00">xiiRotorComponentPatch_1_2</text>
</a>
</g>
</g>
<!-- Node1&#45;&gt;Node28 -->
<g id="edge27" class="edge">
<title>Node1&#45;&gt;Node28</title>
<path fill="none" stroke="midnightblue" d="M359.26,-753.35C363.01,-712.15 377.76,-616.55 435,-568 440.05,-563.71 445.79,-560.29 451.9,-557.57"/>
<polygon fill="midnightblue" stroke="midnightblue" points="355.76,-753.2 358.47,-763.44 362.74,-753.74 355.76,-753.2"/>
</g>
<!-- Node29 -->
<g id="node29" class="node">
<title>Node29</title>
<g id="a_node29"><a xlink:title=" ">
<polygon fill="white" stroke="#bfbfbf" points="453,-501.5 453,-520.5 611,-520.5 611,-501.5 453,-501.5"/>
<text text-anchor="middle" x="532" y="-508.5" font-family="Helvetica,sans-Serif" font-size="10.00">xiiShaderBaseTypePatch_1_2</text>
</a>
</g>
</g>
<!-- Node1&#45;&gt;Node29 -->
<g id="edge28" class="edge">
<title>Node1&#45;&gt;Node29</title>
<path fill="none" stroke="midnightblue" d="M357.94,-753C358.96,-706.31 368.4,-589.56 435,-530 440.19,-525.36 446.18,-521.71 452.59,-518.87"/>
<polygon fill="midnightblue" stroke="midnightblue" points="354.44,-753.25 357.83,-763.29 361.44,-753.32 354.44,-753.25"/>
</g>
<!-- Node30 -->
<g id="node30" class="node">
<title>Node30</title>
<g id="a_node30"><a xlink:title=" ">
<polygon fill="white" stroke="#bfbfbf" points="465,-463.5 465,-482.5 599,-482.5 599,-463.5 465,-463.5"/>
<text text-anchor="middle" x="532" y="-470.5" font-family="Helvetica,sans-Serif" font-size="10.00">xiiShaderTypePatch_1_2</text>
</a>
</g>
</g>
<!-- Node1&#45;&gt;Node30 -->
<g id="edge29" class="edge">
<title>Node1&#45;&gt;Node30</title>
<path fill="none" stroke="midnightblue" d="M360.69,-753.32C368.97,-695.57 395.94,-528.34 435,-492 443.33,-484.25 453.88,-479.25 464.91,-476.1"/>
<polygon fill="midnightblue" stroke="midnightblue" points="357.2,-752.95 359.28,-763.34 364.14,-753.93 357.2,-752.95"/>
</g>
<!-- Node31 -->
<g id="node31" class="node">
<title>Node31</title>
<g id="a_node31"><a xlink:title=" ">
<polygon fill="white" stroke="#bfbfbf" points="451.5,-425.5 451.5,-444.5 612.5,-444.5 612.5,-425.5 451.5,-425.5"/>
<text text-anchor="middle" x="532" y="-432.5" font-family="Helvetica,sans-Serif" font-size="10.00">xiiSliderComponentPatch_1_2</text>
</a>
</g>
</g>
<!-- Node1&#45;&gt;Node31 -->
<g id="edge30" class="edge">
<title>Node1&#45;&gt;Node31</title>
<path fill="none" stroke="midnightblue" d="M360.01,-753.2C366.83,-690.22 391.07,-496.14 435,-454 439.78,-449.41 445.33,-445.78 451.31,-442.92"/>
<polygon fill="midnightblue" stroke="midnightblue" points="356.51,-753.06 358.94,-763.37 363.47,-753.79 356.51,-753.06"/>
</g>
<!-- Node32 -->
<g id="node32" class="node">
<title>Node32</title>
<g id="a_node32"><a xlink:title=" ">
<polygon fill="white" stroke="#bfbfbf" points="449,-387.5 449,-406.5 615,-406.5 615,-387.5 449,-387.5"/>
<text text-anchor="middle" x="532" y="-394.5" font-family="Helvetica,sans-Serif" font-size="10.00">xiiSpawnComponentPatch_1_2</text>
</a>
</g>
</g>
<!-- Node1&#45;&gt;Node32 -->
<g id="edge31" class="edge">
<title>Node1&#45;&gt;Node32</title>
<path fill="none" stroke="midnightblue" d="M359.48,-753.1C364.92,-685.16 386.17,-464.01 435,-416 439.12,-411.95 443.84,-408.64 448.92,-405.95"/>
<polygon fill="midnightblue" stroke="midnightblue" points="355.97,-753.04 358.69,-763.28 362.95,-753.58 355.97,-753.04"/>
</g>
<!-- Node33 -->
<g id="node33" class="node">
<title>Node33</title>
<g id="a_node33"><a xlink:title=" ">
<polygon fill="white" stroke="#bfbfbf" points="451.5,-338 451.5,-368 612.5,-368 612.5,-338 451.5,-338"/>
<text text-anchor="start" x="459.5" y="-356" font-family="Helvetica,sans-Serif" font-size="10.00">xiiSurfaceResourceDescriptor</text>
<text text-anchor="middle" x="532" y="-345" font-family="Helvetica,sans-Serif" font-size="10.00">Patch_1_2</text>
</a>
</g>
</g>
<!-- Node1&#45;&gt;Node33 -->
<g id="edge32" class="edge">
<title>Node1&#45;&gt;Node33</title>
<path fill="none" stroke="midnightblue" d="M359.15,-753.01C363.7,-680.62 382.88,-433.47 435,-378 439.72,-372.98 445.3,-368.92 451.37,-365.64"/>
<polygon fill="midnightblue" stroke="midnightblue" points="355.63,-753.22 358.52,-763.42 362.62,-753.65 355.63,-753.22"/>
</g>
<!-- Node34 -->
<g id="node34" class="node">
<title>Node34</title>
<g id="a_node34"><a xlink:title=" ">
<polygon fill="white" stroke="#bfbfbf" points="461.5,-289 461.5,-319 602.5,-319 602.5,-289 461.5,-289"/>
<text text-anchor="start" x="469.5" y="-307" font-family="Helvetica,sans-Serif" font-size="10.00">xiiTextureAssetProperties</text>
<text text-anchor="middle" x="532" y="-296" font-family="Helvetica,sans-Serif" font-size="10.00">Patch_2_3</text>
</a>
</g>
</g>
<!-- Node1&#45;&gt;Node34 -->
<g id="edge33" class="edge">
<title>Node1&#45;&gt;Node34</title>
<path fill="none" stroke="midnightblue" d="M358.65,-753.03C361.6,-674.92 376.25,-391.24 435,-328 442.13,-320.32 451.32,-314.94 461.17,-311.2"/>
<polygon fill="midnightblue" stroke="midnightblue" points="355.14,-753.26 358.28,-763.38 362.14,-753.51 355.14,-753.26"/>
</g>
<!-- Node35 -->
<g id="node35" class="node">
<title>Node35</title>
<g id="a_node35"><a xlink:title=" ">
<polygon fill="white" stroke="#bfbfbf" points="461.5,-240 461.5,-270 602.5,-270 602.5,-240 461.5,-240"/>
<text text-anchor="start" x="469.5" y="-258" font-family="Helvetica,sans-Serif" font-size="10.00">xiiTextureAssetProperties</text>
<text text-anchor="middle" x="532" y="-247" font-family="Helvetica,sans-Serif" font-size="10.00">Patch_3_4</text>
</a>
</g>
</g>
<!-- Node1&#45;&gt;Node35 -->
<g id="edge34" class="edge">
<title>Node1&#45;&gt;Node35</title>
<path fill="none" stroke="midnightblue" d="M358.27,-753C359.83,-669.55 370,-350.15 435,-279 442.07,-271.26 451.22,-265.85 461.06,-262.09"/>
<polygon fill="midnightblue" stroke="midnightblue" points="354.77,-753.1 358.11,-763.16 361.77,-753.22 354.77,-753.1"/>
</g>
<!-- Node36 -->
<g id="node36" class="node">
<title>Node36</title>
<g id="a_node36"><a xlink:title=" ">
<polygon fill="white" stroke="#bfbfbf" points="461.5,-191 461.5,-221 602.5,-221 602.5,-191 461.5,-191"/>
<text text-anchor="start" x="469.5" y="-209" font-family="Helvetica,sans-Serif" font-size="10.00">xiiTextureAssetProperties</text>
<text text-anchor="middle" x="532" y="-198" font-family="Helvetica,sans-Serif" font-size="10.00">Patch_4_5</text>
</a>
</g>
</g>
<!-- Node1&#45;&gt;Node36 -->
<g id="edge35" class="edge">
<title>Node1&#45;&gt;Node36</title>
<path fill="none" stroke="midnightblue" d="M357.96,-753.32C358.2,-665.37 363.64,-309.21 435,-230 442.13,-222.09 451.44,-216.6 461.45,-212.83"/>
<polygon fill="midnightblue" stroke="midnightblue" points="354.46,-753.49 357.96,-763.49 361.46,-753.49 354.46,-753.49"/>
</g>
<!-- Node37 -->
<g id="node37" class="node">
<title>Node37</title>
<g id="a_node37"><a xlink:title=" ">
<polygon fill="white" stroke="#bfbfbf" points="438,-152.5 438,-171.5 626,-171.5 626,-152.5 438,-152.5"/>
<text text-anchor="middle" x="532" y="-159.5" font-family="Helvetica,sans-Serif" font-size="10.00">xiiTextureCubeAssetProperties_2_3</text>
</a>
</g>
</g>
<!-- Node1&#45;&gt;Node37 -->
<g id="edge36" class="edge">
<title>Node1&#45;&gt;Node37</title>
<path fill="none" stroke="midnightblue" d="M357.62,-753.25C356.22,-660.18 355.19,-266.26 435,-181 438.48,-177.28 442.47,-174.17 446.79,-171.58"/>
<polygon fill="midnightblue" stroke="midnightblue" points="354.12,-753.56 357.79,-763.5 361.12,-753.44 354.12,-753.56"/>
</g>
<!-- Node38 -->
<g id="node38" class="node">
<title>Node38</title>
<g id="a_node38"><a xlink:title=" ">
<polygon fill="white" stroke="#bfbfbf" points="435,-114.5 435,-133.5 629,-133.5 629,-114.5 435,-114.5"/>
<text text-anchor="middle" x="532" y="-121.5" font-family="Helvetica,sans-Serif" font-size="10.00">xiiTimedDeathComponentPatch_1_2</text>
</a>
</g>
</g>
<!-- Node1&#45;&gt;Node38 -->
<g id="edge37" class="edge">
<title>Node1&#45;&gt;Node38</title>
<path fill="none" stroke="midnightblue" d="M359.05,-753.32C364.64,-651.67 392.31,-188.96 435,-143 438.47,-139.27 442.44,-136.15 446.76,-133.55"/>
<polygon fill="midnightblue" stroke="midnightblue" points="355.55,-753.25 358.5,-763.42 362.54,-753.63 355.55,-753.25"/>
</g>
<!-- Node39 -->
<g id="node39" class="node">
<title>Node39</title>
<g id="a_node39"><a xlink:title=" ">
<polygon fill="white" stroke="#bfbfbf" points="441,-76.5 441,-95.5 623,-95.5 623,-76.5 441,-76.5"/>
<text text-anchor="middle" x="532" y="-83.5" font-family="Helvetica,sans-Serif" font-size="10.00">xiiTransformComponentPatch_1_2</text>
</a>
</g>
</g>
<!-- Node1&#45;&gt;Node39 -->
<g id="edge38" class="edge">
<title>Node1&#45;&gt;Node39</title>
<path fill="none" stroke="midnightblue" d="M358.91,-753.14C363.95,-647.45 389.8,-154 435,-105 438.46,-101.25 442.42,-98.12 446.73,-95.52"/>
<polygon fill="midnightblue" stroke="midnightblue" points="355.41,-753.19 358.43,-763.35 362.4,-753.52 355.41,-753.19"/>
</g>
<!-- Node40 -->
<g id="node40" class="node">
<title>Node40</title>
<g id="a_node40"><a xlink:title=" ">
<polygon fill="white" stroke="#bfbfbf" points="441,-38.5 441,-57.5 623,-57.5 623,-38.5 441,-38.5"/>
<text text-anchor="middle" x="532" y="-45.5" font-family="Helvetica,sans-Serif" font-size="10.00">xiiTransformComponentPatch_2_3</text>
</a>
</g>
</g>
<!-- Node1&#45;&gt;Node40 -->
<g id="edge39" class="edge">
<title>Node1&#45;&gt;Node40</title>
<path fill="none" stroke="midnightblue" d="M358.79,-753.05C363.29,-643.59 387.27,-119.06 435,-67 438.33,-63.37 442.14,-60.32 446.27,-57.76"/>
<polygon fill="midnightblue" stroke="midnightblue" points="355.28,-753.18 358.37,-763.32 362.27,-753.47 355.28,-753.18"/>
</g>
<!-- Node41 -->
<g id="node41" class="node">
<title>Node41</title>
<g id="a_node41"><a xlink:title=" ">
<polygon fill="white" stroke="#bfbfbf" points="484.5,-0.5 484.5,-19.5 579.5,-19.5 579.5,-0.5 484.5,-0.5"/>
<text text-anchor="middle" x="532" y="-7.5" font-family="Helvetica,sans-Serif" font-size="10.00">xiiVRConfig_1_2</text>
</a>
</g>
</g>
<!-- Node1&#45;&gt;Node41 -->
<g id="edge40" class="edge">
<title>Node1&#45;&gt;Node41</title>
<path fill="none" stroke="midnightblue" d="M358.67,-753.05C362.65,-640.1 384.72,-84.14 435,-29 447.36,-15.44 466.38,-9.94 484.24,-8.11"/>
<polygon fill="midnightblue" stroke="midnightblue" points="355.16,-753.21 358.32,-763.33 362.16,-753.46 355.16,-753.21"/>
</g>
<!-- Node2 -->
<g id="node2" class="node">
<title>Node2</title>
<g id="a_node2"><a xlink:href="../../dc/d54/classxii_enumerable.htm" target="_top" xlink:title=" ">
<polygon fill="white" stroke="black" points="102,-763.5 102,-782.5 279,-782.5 279,-763.5 102,-763.5"/>
<text text-anchor="middle" x="190.5" y="-770.5" font-family="Helvetica,sans-Serif" font-size="10.00">xiiEnumerable&lt; xiiGraphPatch &gt;</text>
</a>
</g>
</g>
<!-- Node2&#45;&gt;Node1 -->
<g id="edge1" class="edge">
<title>Node2&#45;&gt;Node1</title>
<path fill="none" stroke="midnightblue" d="M289.18,-773C298.09,-773 306.74,-773 314.71,-773"/>
<polygon fill="midnightblue" stroke="midnightblue" points="289.05,-769.5 279.05,-773 289.05,-776.5 289.05,-769.5"/>
</g>
<!-- Node3 -->
<g id="node3" class="node">
<title>Node3</title>
<g id="a_node3"><a xlink:href="../../d2/d38/classxii_no_base.htm" target="_top" xlink:title="Dummy type to pass to templates and macros that expect a base type for a class that has no base.">
<polygon fill="white" stroke="black" points="0,-763.5 0,-782.5 66,-782.5 66,-763.5 0,-763.5"/>
<text text-anchor="middle" x="33" y="-770.5" font-family="Helvetica,sans-Serif" font-size="10.00">xiiNoBase</text>
</a>
</g>
</g>
<!-- Node3&#45;&gt;Node2 -->
<g id="edge2" class="edge">
<title>Node3&#45;&gt;Node2</title>
<path fill="none" stroke="midnightblue" d="M76.34,-773C84.35,-773 93,-773 101.81,-773"/>
<polygon fill="midnightblue" stroke="midnightblue" points="76.22,-769.5 66.22,-773 76.22,-776.5 76.22,-769.5"/>
</g>
</g>
</svg>
