<?xml version="1.0" encoding="UTF-8" standalone="no"?>
<!DOCTYPE svg PUBLIC "-//W3C//DTD SVG 1.1//EN"
 "http://www.w3.org/Graphics/SVG/1.1/DTD/svg11.dtd">
<!-- Generated by graphviz version 2.43.0 (0)
 -->
<!-- Title: xiiAction Pages: 1 -->
<svg width="1193pt" height="878pt"
 viewBox="0.00 0.00 1193.00 878.00" xmlns="http://www.w3.org/2000/svg" xmlns:xlink="http://www.w3.org/1999/xlink">
<g id="graph0" class="graph" transform="scale(1 1) rotate(0) translate(4 874)">
<title>xiiAction</title>
<!-- Node1 -->
<g id="Node000001" class="node">
<title>Node1</title>
<g id="a_Node000001"><a xlink:title=" ">
<polygon fill="#999999" stroke="#666666" points="298,-148 239,-148 239,-129 298,-129 298,-148"/>
<text text-anchor="middle" x="268.5" y="-136" font-family="Helvetica,sans-Serif" font-size="10.00">xiiAction</text>
</a>
</g>
</g>
<!-- Node4 -->
<g id="Node000004" class="node">
<title>Node4</title>
<g id="a_Node000004"><a xlink:href="../../d4/db0/classxii_category_action.htm" target="_top" xlink:title=" ">
<polygon fill="white" stroke="#bfbfbf" points="438,-167 334,-167 334,-148 438,-148 438,-167"/>
<text text-anchor="middle" x="386" y="-155" font-family="Helvetica,sans-Serif" font-size="10.00">xiiCategoryAction</text>
</a>
</g>
</g>
<!-- Node1&#45;&gt;Node4 -->
<g id="edge3_Node000001_Node000004" class="edge">
<title>Node1&#45;&gt;Node4</title>
<g id="a_edge3_Node000001_Node000004"><a xlink:title=" ">
<path fill="none" stroke="#63b8ff" d="M308.12,-144.85C316.36,-146.21 325.2,-147.66 333.83,-149.08"/>
<polygon fill="#63b8ff" stroke="#63b8ff" points="308.49,-141.37 298.05,-143.2 307.35,-148.27 308.49,-141.37"/>
</a>
</g>
</g>
<!-- Node5 -->
<g id="Node000005" class="node">
<title>Node5</title>
<g id="a_Node000005"><a xlink:href="../../d3/d7a/classxii_named_action.htm" target="_top" xlink:title=" ">
<polygon fill="white" stroke="#bfbfbf" points="433.5,-130 338.5,-130 338.5,-111 433.5,-111 433.5,-130"/>
<text text-anchor="middle" x="386" y="-118" font-family="Helvetica,sans-Serif" font-size="10.00">xiiNamedAction</text>
</a>
</g>
</g>
<!-- Node1&#45;&gt;Node5 -->
<g id="edge4_Node000001_Node000005" class="edge">
<title>Node1&#45;&gt;Node5</title>
<g id="a_edge4_Node000001_Node000005"><a xlink:title=" ">
<path fill="none" stroke="#63b8ff" d="M308.17,-132.47C317.85,-130.96 328.33,-129.33 338.35,-127.77"/>
<polygon fill="#63b8ff" stroke="#63b8ff" points="307.39,-129.05 298.05,-134.05 308.47,-135.97 307.39,-129.05"/>
</a>
</g>
</g>
<!-- Node2 -->
<g id="Node000002" class="node">
<title>Node2</title>
<g id="a_Node000002"><a xlink:href="../../dc/d71/classxii_reflected_class.htm" target="_top" xlink:title="All classes that should be dynamically reflectable, need to be derived from this base class.">
<polygon fill="white" stroke="#666666" points="203,-148 102,-148 102,-129 203,-129 203,-148"/>
<text text-anchor="middle" x="152.5" y="-136" font-family="Helvetica,sans-Serif" font-size="10.00">xiiReflectedClass</text>
</a>
</g>
</g>
<!-- Node2&#45;&gt;Node1 -->
<g id="edge1_Node000001_Node000002" class="edge">
<title>Node2&#45;&gt;Node1</title>
<g id="a_edge1_Node000001_Node000002"><a xlink:title=" ">
<path fill="none" stroke="#63b8ff" d="M213.27,-138.5C222.22,-138.5 231.08,-138.5 238.96,-138.5"/>
<polygon fill="#63b8ff" stroke="#63b8ff" points="213.17,-135 203.17,-138.5 213.17,-142 213.17,-135"/>
</a>
</g>
</g>
<!-- Node3 -->
<g id="Node000003" class="node">
<title>Node3</title>
<g id="a_Node000003"><a xlink:href="../../d2/d38/classxii_no_base.htm" target="_top" xlink:title="Dummy type to pass to templates and macros that expect a base type for a class that has no base.">
<polygon fill="white" stroke="#666666" points="66,-148 0,-148 0,-129 66,-129 66,-148"/>
<text text-anchor="middle" x="33" y="-136" font-family="Helvetica,sans-Serif" font-size="10.00">xiiNoBase</text>
</a>
</g>
</g>
<!-- Node3&#45;&gt;Node2 -->
<g id="edge2_Node000002_Node000003" class="edge">
<title>Node3&#45;&gt;Node2</title>
<g id="a_edge2_Node000002_Node000003"><a xlink:title=" ">
<path fill="none" stroke="#63b8ff" d="M76.27,-138.5C84.54,-138.5 93.29,-138.5 101.78,-138.5"/>
<polygon fill="#63b8ff" stroke="#63b8ff" points="76.11,-135 66.11,-138.5 76.11,-142 76.11,-135"/>
</a>
</g>
</g>
<!-- Node6 -->
<g id="Node000006" class="node">
<title>Node6</title>
<g id="a_Node000006"><a xlink:href="../../dc/ddb/classxii_button_action.htm" target="_top" xlink:title=" ">
<polygon fill="white" stroke="#bfbfbf" points="566,-500 474,-500 474,-481 566,-481 566,-500"/>
<text text-anchor="middle" x="520" y="-488" font-family="Helvetica,sans-Serif" font-size="10.00">xiiButtonAction</text>
</a>
</g>
</g>
<!-- Node5&#45;&gt;Node6 -->
<g id="edge5_Node000005_Node000006" class="edge">
<title>Node5&#45;&gt;Node6</title>
<g id="a_edge5_Node000005_Node000006"><a xlink:title=" ">
<path fill="none" stroke="#63b8ff" d="M434.17,-135.75C435.54,-136.91 436.82,-138.16 438,-139.5 485.04,-193.08 512.54,-429.64 517.99,-480.74"/>
<polygon fill="#63b8ff" stroke="#63b8ff" points="435.87,-132.67 425.61,-130.02 431.98,-138.49 435.87,-132.67"/>
</a>
</g>
</g>
<!-- Node28 -->
<g id="Node000028" class="node">
<title>Node28</title>
<g id="a_Node000028"><a xlink:href="../../d9/d0c/classxii_menu_action.htm" target="_top" xlink:title=" ">
<polygon fill="white" stroke="#bfbfbf" points="563,-130 477,-130 477,-111 563,-111 563,-130"/>
<text text-anchor="middle" x="520" y="-118" font-family="Helvetica,sans-Serif" font-size="10.00">xiiMenuAction</text>
</a>
</g>
</g>
<!-- Node5&#45;&gt;Node28 -->
<g id="edge27_Node000005_Node000028" class="edge">
<title>Node5&#45;&gt;Node28</title>
<g id="a_edge27_Node000005_Node000028"><a xlink:title=" ">
<path fill="none" stroke="#63b8ff" d="M443.63,-120.5C454.77,-120.5 466.28,-120.5 476.84,-120.5"/>
<polygon fill="#63b8ff" stroke="#63b8ff" points="443.54,-117 433.54,-120.5 443.54,-124 443.54,-117"/>
</a>
</g>
</g>
<!-- Node40 -->
<g id="Node000040" class="node">
<title>Node40</title>
<g id="a_Node000040"><a xlink:href="../../d0/df6/classxii_slider_action.htm" target="_top" xlink:title=" ">
<polygon fill="white" stroke="#bfbfbf" points="563.5,-75 476.5,-75 476.5,-56 563.5,-56 563.5,-75"/>
<text text-anchor="middle" x="520" y="-63" font-family="Helvetica,sans-Serif" font-size="10.00">xiiSliderAction</text>
</a>
</g>
</g>
<!-- Node5&#45;&gt;Node40 -->
<g id="edge39_Node000005_Node000040" class="edge">
<title>Node5&#45;&gt;Node40</title>
<g id="a_edge39_Node000005_Node000040"><a xlink:title=" ">
<path fill="none" stroke="#63b8ff" d="M419.29,-107.05C442.98,-97.17 474.61,-84 495.83,-75.16"/>
<polygon fill="#63b8ff" stroke="#63b8ff" points="417.88,-103.84 409.99,-110.92 420.57,-110.3 417.88,-103.84"/>
</a>
</g>
</g>
<!-- Node7 -->
<g id="Node000007" class="node">
<title>Node7</title>
<g id="a_Node000007"><a xlink:href="../../d4/d8a/classxii_asset_action.htm" target="_top" xlink:title=" ">
<polygon fill="white" stroke="#bfbfbf" points="730,-870 644,-870 644,-851 730,-851 730,-870"/>
<text text-anchor="middle" x="687" y="-858" font-family="Helvetica,sans-Serif" font-size="10.00">xiiAssetAction</text>
</a>
</g>
</g>
<!-- Node6&#45;&gt;Node7 -->
<g id="edge6_Node000006_Node000007" class="edge">
<title>Node6&#45;&gt;Node7</title>
<g id="a_edge6_Node000006_Node000007"><a xlink:title=" ">
<path fill="none" stroke="#63b8ff" d="M522.78,-510.11C529.26,-577.05 553.75,-794.97 602,-842.5 612.94,-853.28 628.68,-858.3 643.58,-860.45"/>
<polygon fill="#63b8ff" stroke="#63b8ff" points="526.26,-509.7 521.84,-500.07 519.29,-510.36 526.26,-509.7"/>
</a>
</g>
</g>
<!-- Node8 -->
<g id="Node000008" class="node">
<title>Node8</title>
<g id="a_Node000008"><a xlink:href="../../d1/d96/classxii_common_asset_action.htm" target="_top" xlink:title=" ">
<polygon fill="white" stroke="#bfbfbf" points="752.5,-833 621.5,-833 621.5,-814 752.5,-814 752.5,-833"/>
<text text-anchor="middle" x="687" y="-821" font-family="Helvetica,sans-Serif" font-size="10.00">xiiCommonAssetAction</text>
</a>
</g>
</g>
<!-- Node6&#45;&gt;Node8 -->
<g id="edge7_Node000006_Node000008" class="edge">
<title>Node6&#45;&gt;Node8</title>
<g id="a_edge7_Node000006_Node000008"><a xlink:title=" ">
<path fill="none" stroke="#63b8ff" d="M523.34,-510.04C531.17,-572.19 558.48,-763.71 602,-805.5 607.49,-810.77 614.12,-814.65 621.23,-817.49"/>
<polygon fill="#63b8ff" stroke="#63b8ff" points="526.8,-509.5 522.1,-500 519.85,-510.36 526.8,-509.5"/>
</a>
</g>
</g>
<!-- Node9 -->
<g id="Node000009" class="node">
<title>Node9</title>
<g id="a_Node000009"><a xlink:href="../../d5/d9a/classxii_document_action.htm" target="_top" xlink:title="Standard document actions.">
<polygon fill="white" stroke="#666666" points="742,-796 632,-796 632,-777 742,-777 742,-796"/>
<text text-anchor="middle" x="687" y="-784" font-family="Helvetica,sans-Serif" font-size="10.00">xiiDocumentAction</text>
</a>
</g>
</g>
<!-- Node6&#45;&gt;Node9 -->
<g id="edge8_Node000006_Node000009" class="edge">
<title>Node6&#45;&gt;Node9</title>
<g id="a_edge8_Node000006_Node000009"><a xlink:title=" ">
<path fill="none" stroke="#63b8ff" d="M520.38,-510.16C519.93,-561.04 526.2,-698 602,-768.5 610.19,-776.12 620.79,-780.82 631.69,-783.65"/>
<polygon fill="#63b8ff" stroke="#63b8ff" points="523.88,-510.22 520.57,-500.15 516.88,-510.09 523.88,-510.22"/>
</a>
</g>
</g>
<!-- Node10 -->
<g id="Node000010" class="node">
<title>Node10</title>
<g id="a_Node000010"><a xlink:href="../../db/dba/classxii_edit_action.htm" target="_top" xlink:title=" ">
<polygon fill="white" stroke="#bfbfbf" points="726,-759 648,-759 648,-740 726,-740 726,-759"/>
<text text-anchor="middle" x="687" y="-747" font-family="Helvetica,sans-Serif" font-size="10.00">xiiEditAction</text>
</a>
</g>
</g>
<!-- Node6&#45;&gt;Node10 -->
<g id="edge9_Node000006_Node000010" class="edge">
<title>Node6&#45;&gt;Node10</title>
<g id="a_edge9_Node000006_Node000010"><a xlink:title=" ">
<path fill="none" stroke="#63b8ff" d="M521.42,-510.29C523.52,-556.52 535.52,-672.15 602,-731.5 614.46,-742.62 632.1,-747.46 647.99,-749.38"/>
<polygon fill="#63b8ff" stroke="#63b8ff" points="524.91,-509.99 521.07,-500.11 517.91,-510.23 524.91,-509.99"/>
</a>
</g>
</g>
<!-- Node11 -->
<g id="Node000011" class="node">
<title>Node11</title>
<g id="a_Node000011"><a xlink:href="../../dc/d44/classxii_game_object_context_action.htm" target="_top" xlink:title=" ">
<polygon fill="white" stroke="#bfbfbf" points="766,-722 608,-722 608,-703 766,-703 766,-722"/>
<text text-anchor="middle" x="687" y="-710" font-family="Helvetica,sans-Serif" font-size="10.00">xiiGameObjectContextAction</text>
</a>
</g>
</g>
<!-- Node6&#45;&gt;Node11 -->
<g id="edge10_Node000006_Node000011" class="edge">
<title>Node6&#45;&gt;Node11</title>
<g id="a_edge10_Node000006_Node000011"><a xlink:title=" ">
<path fill="none" stroke="#63b8ff" d="M522.83,-510.59C527.69,-551.81 544.82,-646.14 602,-694.5 605.99,-697.87 610.45,-700.66 615.19,-702.95"/>
<polygon fill="#63b8ff" stroke="#63b8ff" points="526.29,-510.03 521.75,-500.45 519.32,-510.76 526.29,-510.03"/>
</a>
</g>
</g>
<!-- Node12 -->
<g id="Node000012" class="node">
<title>Node12</title>
<g id="a_Node000012"><a xlink:href="../../da/d2c/classxii_game_object_document_action.htm" target="_top" xlink:title=" ">
<polygon fill="white" stroke="#bfbfbf" points="772,-685 602,-685 602,-666 772,-666 772,-685"/>
<text text-anchor="middle" x="687" y="-673" font-family="Helvetica,sans-Serif" font-size="10.00">xiiGameObjectDocumentAction</text>
</a>
</g>
</g>
<!-- Node6&#45;&gt;Node12 -->
<g id="edge11_Node000006_Node000012" class="edge">
<title>Node6&#45;&gt;Node12</title>
<g id="a_edge11_Node000006_Node000012"><a xlink:title=" ">
<path fill="none" stroke="#63b8ff" d="M524.72,-510.32C532.45,-545.72 553.73,-619.64 602,-657.5 606.34,-660.91 611.18,-663.7 616.29,-666"/>
<polygon fill="#63b8ff" stroke="#63b8ff" points="528.1,-509.37 522.67,-500.28 521.24,-510.77 528.1,-509.37"/>
</a>
</g>
</g>
<!-- Node13 -->
<g id="Node000013" class="node">
<title>Node13</title>
<g id="a_Node000013"><a xlink:href="../../d1/db0/classxii_game_object_selection_action.htm" target="_top" xlink:title=" ">
<polygon fill="white" stroke="#bfbfbf" points="769.5,-648 604.5,-648 604.5,-629 769.5,-629 769.5,-648"/>
<text text-anchor="middle" x="687" y="-636" font-family="Helvetica,sans-Serif" font-size="10.00">xiiGameObjectSelectionAction</text>
</a>
</g>
</g>
<!-- Node6&#45;&gt;Node13 -->
<g id="edge12_Node000006_Node000013" class="edge">
<title>Node6&#45;&gt;Node13</title>
<g id="a_edge12_Node000006_Node000013"><a xlink:title=" ">
<path fill="none" stroke="#63b8ff" d="M527.5,-509.94C538.22,-538.84 562.44,-592.72 602,-620.5 606.76,-623.84 612.02,-626.59 617.51,-628.83"/>
<polygon fill="#63b8ff" stroke="#63b8ff" points="530.69,-508.45 524.05,-500.19 524.09,-510.79 530.69,-508.45"/>
</a>
</g>
</g>
<!-- Node14 -->
<g id="Node000014" class="node">
<title>Node14</title>
<g id="a_Node000014"><a xlink:href="../../d9/d72/classxii_gizmo_action.htm" target="_top" xlink:title=" ">
<polygon fill="white" stroke="#bfbfbf" points="732.5,-611 641.5,-611 641.5,-592 732.5,-592 732.5,-611"/>
<text text-anchor="middle" x="687" y="-599" font-family="Helvetica,sans-Serif" font-size="10.00">xiiGizmoAction</text>
</a>
</g>
</g>
<!-- Node6&#45;&gt;Node14 -->
<g id="edge13_Node000006_Node000014" class="edge">
<title>Node6&#45;&gt;Node14</title>
<g id="a_edge13_Node000006_Node000014"><a xlink:title=" ">
<path fill="none" stroke="#63b8ff" d="M531.88,-509.02C545.48,-530.44 570.81,-565.11 602,-583.5 613.82,-590.47 627.99,-594.75 641.3,-597.38"/>
<polygon fill="#63b8ff" stroke="#63b8ff" points="534.69,-506.91 526.48,-500.21 528.73,-510.57 534.69,-506.91"/>
</a>
</g>
</g>
<!-- Node16 -->
<g id="Node000016" class="node">
<title>Node16</title>
<g id="a_Node000016"><a xlink:href="../../d8/d13/classxii_help_actions.htm" target="_top" xlink:title=" ">
<polygon fill="white" stroke="#bfbfbf" points="730.5,-574 643.5,-574 643.5,-555 730.5,-555 730.5,-574"/>
<text text-anchor="middle" x="687" y="-562" font-family="Helvetica,sans-Serif" font-size="10.00">xiiHelpActions</text>
</a>
</g>
</g>
<!-- Node6&#45;&gt;Node16 -->
<g id="edge15_Node000006_Node000016" class="edge">
<title>Node6&#45;&gt;Node16</title>
<g id="a_edge15_Node000006_Node000016"><a xlink:title=" ">
<path fill="none" stroke="#63b8ff" d="M539.79,-506.72C555.44,-519.39 578.83,-536.48 602,-546.5 614.87,-552.06 629.61,-555.97 643.12,-558.68"/>
<polygon fill="#63b8ff" stroke="#63b8ff" points="541.88,-503.9 531.95,-500.21 537.41,-509.29 541.88,-503.9"/>
</a>
</g>
</g>
<!-- Node17 -->
<g id="Node000017" class="node">
<title>Node17</title>
<g id="a_Node000017"><a xlink:href="../../d4/d67/classxii_layer_action.htm" target="_top" xlink:title=" ">
<polygon fill="white" stroke="#bfbfbf" points="730,-537 644,-537 644,-518 730,-518 730,-537"/>
<text text-anchor="middle" x="687" y="-525" font-family="Helvetica,sans-Serif" font-size="10.00">xiiLayerAction</text>
</a>
</g>
</g>
<!-- Node6&#45;&gt;Node17 -->
<g id="edge16_Node000006_Node000017" class="edge">
<title>Node6&#45;&gt;Node17</title>
<g id="a_edge16_Node000006_Node000017"><a xlink:title=" ">
<path fill="none" stroke="#63b8ff" d="M570.98,-502.38C581.23,-504.78 591.96,-507.25 602,-509.5 615.53,-512.54 630.32,-515.74 643.66,-518.59"/>
<polygon fill="#63b8ff" stroke="#63b8ff" points="571.46,-498.9 560.93,-500.03 569.87,-505.72 571.46,-498.9"/>
</a>
</g>
</g>
<!-- Node18 -->
<g id="Node000018" class="node">
<title>Node18</title>
<g id="a_Node000018"><a xlink:href="../../d4/d6c/classxii_project_action.htm" target="_top" xlink:title=" ">
<polygon fill="white" stroke="#bfbfbf" points="733.5,-500 640.5,-500 640.5,-481 733.5,-481 733.5,-500"/>
<text text-anchor="middle" x="687" y="-488" font-family="Helvetica,sans-Serif" font-size="10.00">xiiProjectAction</text>
</a>
</g>
</g>
<!-- Node6&#45;&gt;Node18 -->
<g id="edge17_Node000006_Node000018" class="edge">
<title>Node6&#45;&gt;Node18</title>
<g id="a_edge17_Node000006_Node000018"><a xlink:title=" ">
<path fill="none" stroke="#63b8ff" d="M576.1,-490.5C596.97,-490.5 620.49,-490.5 640.39,-490.5"/>
<polygon fill="#63b8ff" stroke="#63b8ff" points="576.09,-487 566.09,-490.5 576.09,-494 576.09,-487"/>
</a>
</g>
</g>
<!-- Node19 -->
<g id="Node000019" class="node">
<title>Node19</title>
<g id="a_Node000019"><a xlink:href="../../dc/dcb/classxii_quad_view_action.htm" target="_top" xlink:title=" ">
<polygon fill="white" stroke="#bfbfbf" points="741.5,-463 632.5,-463 632.5,-444 741.5,-444 741.5,-463"/>
<text text-anchor="middle" x="687" y="-451" font-family="Helvetica,sans-Serif" font-size="10.00">xiiQuadViewAction</text>
</a>
</g>
</g>
<!-- Node6&#45;&gt;Node19 -->
<g id="edge18_Node000006_Node000019" class="edge">
<title>Node6&#45;&gt;Node19</title>
<g id="a_edge18_Node000006_Node000019"><a xlink:title=" ">
<path fill="none" stroke="#63b8ff" d="M573.27,-478.78C595.86,-473.71 621.97,-467.86 643.37,-463.06"/>
<polygon fill="#63b8ff" stroke="#63b8ff" points="572.48,-475.37 563.49,-480.97 574.02,-482.2 572.48,-475.37"/>
</a>
</g>
</g>
<!-- Node20 -->
<g id="Node000020" class="node">
<title>Node20</title>
<g id="a_Node000020"><a xlink:href="../../d8/dda/classxii_scene_action.htm" target="_top" xlink:title=" ">
<polygon fill="white" stroke="#bfbfbf" points="731.5,-426 642.5,-426 642.5,-407 731.5,-407 731.5,-426"/>
<text text-anchor="middle" x="687" y="-414" font-family="Helvetica,sans-Serif" font-size="10.00">xiiSceneAction</text>
</a>
</g>
</g>
<!-- Node6&#45;&gt;Node20 -->
<g id="edge19_Node000006_Node000020" class="edge">
<title>Node6&#45;&gt;Node20</title>
<g id="a_edge19_Node000006_Node000020"><a xlink:title=" ">
<path fill="none" stroke="#63b8ff" d="M540.14,-474.44C555.83,-462.06 579.11,-445.44 602,-435.5 614.62,-430.02 629.02,-426.03 642.28,-423.16"/>
<polygon fill="#63b8ff" stroke="#63b8ff" points="537.84,-471.8 532.26,-480.81 542.24,-477.25 537.84,-471.8"/>
</a>
</g>
</g>
<!-- Node21 -->
<g id="Node000021" class="node">
<title>Node21</title>
<g id="a_Node000021"><a xlink:href="../../d2/d40/classxii_selection_action.htm" target="_top" xlink:title=" ">
<polygon fill="white" stroke="#bfbfbf" points="739,-389 635,-389 635,-370 739,-370 739,-389"/>
<text text-anchor="middle" x="687" y="-377" font-family="Helvetica,sans-Serif" font-size="10.00">xiiSelectionAction</text>
</a>
</g>
</g>
<!-- Node6&#45;&gt;Node21 -->
<g id="edge20_Node000006_Node000021" class="edge">
<title>Node6&#45;&gt;Node21</title>
<g id="a_edge20_Node000006_Node000021"><a xlink:title=" ">
<path fill="none" stroke="#63b8ff" d="M531.97,-472.24C545.65,-451.11 571.05,-416.87 602,-398.5 611.9,-392.62 623.44,-388.56 634.75,-385.76"/>
<polygon fill="#63b8ff" stroke="#63b8ff" points="528.87,-470.59 526.53,-480.93 534.8,-474.31 528.87,-470.59"/>
</a>
</g>
</g>
<!-- Node22 -->
<g id="Node000022" class="node">
<title>Node22</title>
<g id="a_Node000022"><a xlink:href="../../d3/dc7/classxii_skeleton_action.htm" target="_top" xlink:title=" ">
<polygon fill="white" stroke="#bfbfbf" points="737.5,-352 636.5,-352 636.5,-333 737.5,-333 737.5,-352"/>
<text text-anchor="middle" x="687" y="-340" font-family="Helvetica,sans-Serif" font-size="10.00">xiiSkeletonAction</text>
</a>
</g>
</g>
<!-- Node6&#45;&gt;Node22 -->
<g id="edge21_Node000006_Node000022" class="edge">
<title>Node6&#45;&gt;Node22</title>
<g id="a_edge21_Node000006_Node000022"><a xlink:title=" ">
<path fill="none" stroke="#63b8ff" d="M527.59,-471.26C538.41,-442.65 562.77,-389.28 602,-361.5 612,-354.41 624.22,-349.92 636.2,-347.08"/>
<polygon fill="#63b8ff" stroke="#63b8ff" points="524.21,-470.32 524.1,-480.91 530.79,-472.7 524.21,-470.32"/>
</a>
</g>
</g>
<!-- Node23 -->
<g id="Node000023" class="node">
<title>Node23</title>
<g id="a_Node000023"><a xlink:href="../../d4/dcc/classxii_transform_gizmo_action.htm" target="_top" xlink:title=" ">
<polygon fill="white" stroke="#bfbfbf" points="757,-315 617,-315 617,-296 757,-296 757,-315"/>
<text text-anchor="middle" x="687" y="-303" font-family="Helvetica,sans-Serif" font-size="10.00">xiiTransformGizmoAction</text>
</a>
</g>
</g>
<!-- Node6&#45;&gt;Node23 -->
<g id="edge22_Node000006_Node000023" class="edge">
<title>Node6&#45;&gt;Node23</title>
<g id="a_edge22_Node000006_Node000023"><a xlink:title=" ">
<path fill="none" stroke="#63b8ff" d="M524.8,-470.85C532.66,-435.74 554.13,-362.4 602,-324.5 606.81,-320.69 612.23,-317.62 617.94,-315.14"/>
<polygon fill="#63b8ff" stroke="#63b8ff" points="521.34,-470.3 522.71,-480.81 528.19,-471.74 521.34,-470.3"/>
</a>
</g>
</g>
<!-- Node24 -->
<g id="Node000024" class="node">
<title>Node24</title>
<g id="a_Node000024"><a xlink:href="../../df/d89/classxii_translate_gizmo_action.htm" target="_top" xlink:title=" ">
<polygon fill="white" stroke="#bfbfbf" points="754.5,-278 619.5,-278 619.5,-259 754.5,-259 754.5,-278"/>
<text text-anchor="middle" x="687" y="-266" font-family="Helvetica,sans-Serif" font-size="10.00">xiiTranslateGizmoAction</text>
</a>
</g>
</g>
<!-- Node6&#45;&gt;Node24 -->
<g id="edge23_Node000006_Node000024" class="edge">
<title>Node6&#45;&gt;Node24</title>
<g id="a_edge23_Node000006_Node000024"><a xlink:title=" ">
<path fill="none" stroke="#63b8ff" d="M522.9,-470.56C527.92,-429.63 545.29,-335.93 602,-287.5 607.12,-283.13 613.03,-279.71 619.3,-277.04"/>
<polygon fill="#63b8ff" stroke="#63b8ff" points="519.41,-470.3 521.79,-480.62 526.37,-471.07 519.41,-470.3"/>
</a>
</g>
</g>
<!-- Node25 -->
<g id="Node000025" class="node">
<title>Node25</title>
<g id="a_Node000025"><a xlink:href="../../d4/d48/classxii_view_action.htm" target="_top" xlink:title=" ">
<polygon fill="white" stroke="#bfbfbf" points="728.5,-241 645.5,-241 645.5,-222 728.5,-222 728.5,-241"/>
<text text-anchor="middle" x="687" y="-229" font-family="Helvetica,sans-Serif" font-size="10.00">xiiViewAction</text>
</a>
</g>
</g>
<!-- Node6&#45;&gt;Node25 -->
<g id="edge24_Node000006_Node000025" class="edge">
<title>Node6&#45;&gt;Node25</title>
<g id="a_edge24_Node000006_Node000025"><a xlink:title=" ">
<path fill="none" stroke="#63b8ff" d="M521.49,-470.84C523.75,-424.9 536.07,-309.96 602,-250.5 613.77,-239.89 630.19,-234.8 645.4,-232.49"/>
<polygon fill="#63b8ff" stroke="#63b8ff" points="517.99,-470.83 521.11,-480.95 524.98,-471.09 517.99,-470.83"/>
</a>
</g>
</g>
<!-- Node26 -->
<g id="Node000026" class="node">
<title>Node26</title>
<g id="a_Node000026"><a xlink:href="../../d6/da3/classxii_view_light_button_action.htm" target="_top" xlink:title=" ">
<polygon fill="white" stroke="#bfbfbf" points="757,-204 617,-204 617,-185 757,-185 757,-204"/>
<text text-anchor="middle" x="687" y="-192" font-family="Helvetica,sans-Serif" font-size="10.00">xiiViewLightButtonAction</text>
</a>
</g>
</g>
<!-- Node6&#45;&gt;Node26 -->
<g id="edge25_Node000006_Node000026" class="edge">
<title>Node6&#45;&gt;Node26</title>
<g id="a_edge25_Node000006_Node000026"><a xlink:title=" ">
<path fill="none" stroke="#63b8ff" d="M520.45,-470.64C520.2,-419.8 526.97,-284.01 602,-213.5 606.36,-209.4 611.41,-206.12 616.82,-203.51"/>
<polygon fill="#63b8ff" stroke="#63b8ff" points="516.96,-470.96 520.61,-480.9 523.96,-470.85 516.96,-470.96"/>
</a>
</g>
</g>
<!-- Node27 -->
<g id="Node000027" class="node">
<title>Node27</title>
<g id="a_Node000027"><a xlink:href="../../d1/d7d/classxii_visual_shader_action.htm" target="_top" xlink:title=" ">
<polygon fill="white" stroke="#bfbfbf" points="748.5,-167 625.5,-167 625.5,-148 748.5,-148 748.5,-167"/>
<text text-anchor="middle" x="687" y="-155" font-family="Helvetica,sans-Serif" font-size="10.00">xiiVisualShaderAction</text>
</a>
</g>
</g>
<!-- Node6&#45;&gt;Node27 -->
<g id="edge26_Node000006_Node000027" class="edge">
<title>Node6&#45;&gt;Node27</title>
<g id="a_edge26_Node000006_Node000027"><a xlink:title=" ">
<path fill="none" stroke="#63b8ff" d="M523.42,-470.63C531.41,-408.31 558.93,-218.3 602,-176.5 608.55,-170.15 616.74,-165.74 625.43,-162.72"/>
<polygon fill="#63b8ff" stroke="#63b8ff" points="519.93,-470.36 522.16,-480.72 526.87,-471.23 519.93,-470.36"/>
</a>
</g>
</g>
<!-- Node15 -->
<g id="Node000015" class="node">
<title>Node15</title>
<g id="a_Node000015"><a xlink:href="../../df/dfa/classxii_toggle_world_space_gizmo.htm" target="_top" xlink:title=" ">
<polygon fill="white" stroke="#bfbfbf" points="972,-611 823,-611 823,-592 972,-592 972,-611"/>
<text text-anchor="middle" x="897.5" y="-599" font-family="Helvetica,sans-Serif" font-size="10.00">xiiToggleWorldSpaceGizmo</text>
</a>
</g>
</g>
<!-- Node14&#45;&gt;Node15 -->
<g id="edge14_Node000014_Node000015" class="edge">
<title>Node14&#45;&gt;Node15</title>
<g id="a_edge14_Node000014_Node000015"><a xlink:title=" ">
<path fill="none" stroke="#63b8ff" d="M742.89,-601.5C767.31,-601.5 796.44,-601.5 822.73,-601.5"/>
<polygon fill="#63b8ff" stroke="#63b8ff" points="742.73,-598 732.73,-601.5 742.73,-605 742.73,-598"/>
</a>
</g>
</g>
<!-- Node29 -->
<g id="Node000029" class="node">
<title>Node29</title>
<g id="a_Node000029"><a xlink:href="../../de/da6/classxii_dynamic_menu_action.htm" target="_top" xlink:title=" ">
<polygon fill="white" stroke="#bfbfbf" points="752,-130 622,-130 622,-111 752,-111 752,-130"/>
<text text-anchor="middle" x="687" y="-118" font-family="Helvetica,sans-Serif" font-size="10.00">xiiDynamicMenuAction</text>
</a>
</g>
</g>
<!-- Node28&#45;&gt;Node29 -->
<g id="edge28_Node000028_Node000029" class="edge">
<title>Node28&#45;&gt;Node29</title>
<g id="a_edge28_Node000028_Node000029"><a xlink:title=" ">
<path fill="none" stroke="#63b8ff" d="M573.43,-120.5C588.82,-120.5 605.83,-120.5 621.86,-120.5"/>
<polygon fill="#63b8ff" stroke="#63b8ff" points="573.06,-117 563.06,-120.5 573.06,-124 573.06,-117"/>
</a>
</g>
</g>
<!-- Node30 -->
<g id="Node000030" class="node">
<title>Node30</title>
<g id="a_Node000030"><a xlink:href="../../dc/d2e/classxii_application_panels_menu_action.htm" target="_top" xlink:title=" ">
<polygon fill="white" stroke="#bfbfbf" points="968.5,-215.5 826.5,-215.5 826.5,-185.5 968.5,-185.5 968.5,-215.5"/>
<text text-anchor="start" x="834.5" y="-203.5" font-family="Helvetica,sans-Serif" font-size="10.00">xiiApplicationPanelsMenu</text>
<text text-anchor="middle" x="897.5" y="-192.5" font-family="Helvetica,sans-Serif" font-size="10.00">Action</text>
</a>
</g>
</g>
<!-- Node29&#45;&gt;Node30 -->
<g id="edge29_Node000029_Node000030" class="edge">
<title>Node29&#45;&gt;Node30</title>
<g id="a_edge29_Node000029_Node000030"><a xlink:title=" ">
<path fill="none" stroke="#63b8ff" d="M759.39,-133.54C763.76,-135.28 768,-137.26 772,-139.5 792.02,-150.72 788.23,-164.86 808,-176.5 813.76,-179.89 820.02,-182.82 826.44,-185.34"/>
<polygon fill="#63b8ff" stroke="#63b8ff" points="760.24,-130.13 749.65,-130.09 757.9,-136.73 760.24,-130.13"/>
</a>
</g>
</g>
<!-- Node31 -->
<g id="Node000031" class="node">
<title>Node31</title>
<g id="a_Node000031"><a xlink:href="../../d9/d2d/classxii_dynamic_action_and_menu_action.htm" target="_top" xlink:title=" ">
<polygon fill="white" stroke="#bfbfbf" points="987,-167 808,-167 808,-148 987,-148 987,-167"/>
<text text-anchor="middle" x="897.5" y="-155" font-family="Helvetica,sans-Serif" font-size="10.00">xiiDynamicActionAndMenuAction</text>
</a>
</g>
</g>
<!-- Node29&#45;&gt;Node31 -->
<g id="edge30_Node000029_Node000031" class="edge">
<title>Node29&#45;&gt;Node31</title>
<g id="a_edge30_Node000029_Node000031"><a xlink:title=" ">
<path fill="none" stroke="#63b8ff" d="M751.75,-131.81C780.82,-136.97 814.86,-143.01 842.63,-147.94"/>
<polygon fill="#63b8ff" stroke="#63b8ff" points="752.15,-128.33 741.69,-130.03 750.93,-135.22 752.15,-128.33"/>
</a>
</g>
</g>
<!-- Node33 -->
<g id="Node000033" class="node">
<title>Node33</title>
<g id="a_Node000033"><a xlink:href="../../da/dec/classxii_enumeration_menu_action.htm" target="_top" xlink:title=" ">
<polygon fill="white" stroke="#bfbfbf" points="972,-130 823,-130 823,-111 972,-111 972,-130"/>
<text text-anchor="middle" x="897.5" y="-118" font-family="Helvetica,sans-Serif" font-size="10.00">xiiEnumerationMenuAction</text>
</a>
</g>
</g>
<!-- Node29&#45;&gt;Node33 -->
<g id="edge32_Node000029_Node000033" class="edge">
<title>Node29&#45;&gt;Node33</title>
<g id="a_edge32_Node000029_Node000033"><a xlink:title=" ">
<path fill="none" stroke="#63b8ff" d="M762.4,-120.5C782.09,-120.5 803.33,-120.5 822.97,-120.5"/>
<polygon fill="#63b8ff" stroke="#63b8ff" points="762.26,-117 752.26,-120.5 762.26,-124 762.26,-117"/>
</a>
</g>
</g>
<!-- Node38 -->
<g id="Node000038" class="node">
<title>Node38</title>
<g id="a_Node000038"><a xlink:href="../../d4/d45/classxii_recent_documents_menu_action.htm" target="_top" xlink:title=" ">
<polygon fill="white" stroke="#bfbfbf" points="985.5,-93 809.5,-93 809.5,-74 985.5,-74 985.5,-93"/>
<text text-anchor="middle" x="897.5" y="-81" font-family="Helvetica,sans-Serif" font-size="10.00">xiiRecentDocumentsMenuAction</text>
</a>
</g>
</g>
<!-- Node29&#45;&gt;Node38 -->
<g id="edge37_Node000029_Node000038" class="edge">
<title>Node29&#45;&gt;Node38</title>
<g id="a_edge37_Node000029_Node000038"><a xlink:title=" ">
<path fill="none" stroke="#63b8ff" d="M751.75,-109.19C780.82,-104.03 814.86,-97.99 842.63,-93.06"/>
<polygon fill="#63b8ff" stroke="#63b8ff" points="750.93,-105.78 741.69,-110.97 752.15,-112.67 750.93,-105.78"/>
</a>
</g>
</g>
<!-- Node39 -->
<g id="Node000039" class="node">
<title>Node39</title>
<g id="a_Node000039"><a xlink:href="../../da/dbc/classxii_recent_projects_menu_action.htm" target="_top" xlink:title=" ">
<polygon fill="white" stroke="#bfbfbf" points="977,-56 818,-56 818,-37 977,-37 977,-56"/>
<text text-anchor="middle" x="897.5" y="-44" font-family="Helvetica,sans-Serif" font-size="10.00">xiiRecentProjectsMenuAction</text>
</a>
</g>
</g>
<!-- Node29&#45;&gt;Node39 -->
<g id="edge38_Node000029_Node000039" class="edge">
<title>Node29&#45;&gt;Node39</title>
<g id="a_edge38_Node000029_Node000039"><a xlink:title=" ">
<path fill="none" stroke="#63b8ff" d="M759.39,-107.46C763.76,-105.72 768,-103.74 772,-101.5 792.02,-90.28 787.86,-75.5 808,-64.5 814.19,-61.12 820.94,-58.37 827.86,-56.13"/>
<polygon fill="#63b8ff" stroke="#63b8ff" points="757.9,-104.27 749.65,-110.91 760.24,-110.87 757.9,-104.27"/>
</a>
</g>
</g>
<!-- Node32 -->
<g id="Node000032" class="node">
<title>Node32</title>
<g id="a_Node000032"><a xlink:href="../../db/d47/classxii_command_history_action.htm" target="_top" xlink:title=" ">
<polygon fill="white" stroke="#bfbfbf" points="1176.5,-204 1031.5,-204 1031.5,-185 1176.5,-185 1176.5,-204"/>
<text text-anchor="middle" x="1104" y="-192" font-family="Helvetica,sans-Serif" font-size="10.00">xiiCommandHistoryAction</text>
</a>
</g>
</g>
<!-- Node31&#45;&gt;Node32 -->
<g id="edge31_Node000031_Node000032" class="edge">
<title>Node31&#45;&gt;Node32</title>
<g id="a_edge31_Node000031_Node000032"><a xlink:title=" ">
<path fill="none" stroke="#63b8ff" d="M961.03,-168.81C989.54,-173.97 1022.93,-180.01 1050.16,-184.94"/>
<polygon fill="#63b8ff" stroke="#63b8ff" points="961.63,-165.36 951.16,-167.03 960.38,-172.25 961.63,-165.36"/>
</a>
</g>
</g>
<!-- Node34 -->
<g id="Node000034" class="node">
<title>Node34</title>
<g id="a_Node000034"><a xlink:href="../../dc/d4c/classxii_material_model_action.htm" target="_top" xlink:title=" ">
<polygon fill="white" stroke="#bfbfbf" points="1169,-167 1039,-167 1039,-148 1169,-148 1169,-167"/>
<text text-anchor="middle" x="1104" y="-155" font-family="Helvetica,sans-Serif" font-size="10.00">xiiMaterialModelAction</text>
</a>
</g>
</g>
<!-- Node33&#45;&gt;Node34 -->
<g id="edge33_Node000033_Node000034" class="edge">
<title>Node33&#45;&gt;Node34</title>
<g id="a_edge33_Node000033_Node000034"><a xlink:title=" ">
<path fill="none" stroke="#63b8ff" d="M961.03,-131.81C989.54,-136.97 1022.93,-143.01 1050.16,-147.94"/>
<polygon fill="#63b8ff" stroke="#63b8ff" points="961.63,-128.36 951.16,-130.03 960.38,-135.25 961.63,-128.36"/>
</a>
</g>
</g>
<!-- Node35 -->
<g id="Node000035" class="node">
<title>Node35</title>
<g id="a_Node000035"><a xlink:href="../../da/d8f/classxii_perspective_action.htm" target="_top" xlink:title=" ">
<polygon fill="white" stroke="#bfbfbf" points="1162,-130 1046,-130 1046,-111 1162,-111 1162,-130"/>
<text text-anchor="middle" x="1104" y="-118" font-family="Helvetica,sans-Serif" font-size="10.00">xiiPerspectiveAction</text>
</a>
</g>
</g>
<!-- Node33&#45;&gt;Node35 -->
<g id="edge34_Node000033_Node000035" class="edge">
<title>Node33&#45;&gt;Node35</title>
<g id="a_edge34_Node000033_Node000035"><a xlink:title=" ">
<path fill="none" stroke="#63b8ff" d="M982.11,-120.5C1003.53,-120.5 1026.07,-120.5 1045.81,-120.5"/>
<polygon fill="#63b8ff" stroke="#63b8ff" points="982.04,-117 972.04,-120.5 982.04,-124 982.04,-117"/>
</a>
</g>
</g>
<!-- Node36 -->
<g id="Node000036" class="node">
<title>Node36</title>
<g id="a_Node000036"><a xlink:href="../../d9/d17/classxii_render_mode_action.htm" target="_top" xlink:title=" ">
<polygon fill="white" stroke="#bfbfbf" points="1164.5,-93 1043.5,-93 1043.5,-74 1164.5,-74 1164.5,-93"/>
<text text-anchor="middle" x="1104" y="-81" font-family="Helvetica,sans-Serif" font-size="10.00">xiiRenderModeAction</text>
</a>
</g>
</g>
<!-- Node33&#45;&gt;Node36 -->
<g id="edge35_Node000033_Node000036" class="edge">
<title>Node33&#45;&gt;Node36</title>
<g id="a_edge35_Node000033_Node000036"><a xlink:title=" ">
<path fill="none" stroke="#63b8ff" d="M961.03,-109.19C989.54,-104.03 1022.93,-97.99 1050.16,-93.06"/>
<polygon fill="#63b8ff" stroke="#63b8ff" points="960.38,-105.75 951.16,-110.97 961.63,-112.64 960.38,-105.75"/>
</a>
</g>
</g>
<!-- Node37 -->
<g id="Node000037" class="node">
<title>Node37</title>
<g id="a_Node000037"><a xlink:href="../../d2/db8/classxii_texture_channel_mode_action.htm" target="_top" xlink:title=" ">
<polygon fill="white" stroke="#bfbfbf" points="1185,-56 1023,-56 1023,-37 1185,-37 1185,-56"/>
<text text-anchor="middle" x="1104" y="-44" font-family="Helvetica,sans-Serif" font-size="10.00">xiiTextureChannelModeAction</text>
</a>
</g>
</g>
<!-- Node33&#45;&gt;Node37 -->
<g id="edge36_Node000033_Node000037" class="edge">
<title>Node33&#45;&gt;Node37</title>
<g id="a_edge36_Node000033_Node000037"><a xlink:title=" ">
<path fill="none" stroke="#63b8ff" d="M973.87,-107.61C978.42,-105.83 982.84,-103.8 987,-101.5 1007.08,-90.39 1002.98,-75.7 1023,-64.5 1029.09,-61.09 1035.78,-58.33 1042.61,-56.09"/>
<polygon fill="#63b8ff" stroke="#63b8ff" points="972.66,-104.32 964.37,-110.92 974.97,-110.93 972.66,-104.32"/>
</a>
</g>
</g>
<!-- Node41 -->
<g id="Node000041" class="node">
<title>Node41</title>
<g id="a_Node000041"><a xlink:href="../../da/d4a/classxii_camera_speed_slider_action.htm" target="_top" xlink:title=" ">
<polygon fill="white" stroke="#bfbfbf" points="764.5,-93 609.5,-93 609.5,-74 764.5,-74 764.5,-93"/>
<text text-anchor="middle" x="687" y="-81" font-family="Helvetica,sans-Serif" font-size="10.00">xiiCameraSpeedSliderAction</text>
</a>
</g>
</g>
<!-- Node40&#45;&gt;Node41 -->
<g id="edge40_Node000040_Node000041" class="edge">
<title>Node40&#45;&gt;Node41</title>
<g id="a_edge40_Node000040_Node000041"><a xlink:title=" ">
<path fill="none" stroke="#63b8ff" d="M574.02,-71.28C585.31,-72.52 597.44,-73.84 609.41,-75.14"/>
<polygon fill="#63b8ff" stroke="#63b8ff" points="574.24,-67.79 563.92,-70.18 573.48,-74.75 574.24,-67.79"/>
</a>
</g>
</g>
<!-- Node42 -->
<g id="Node000042" class="node">
<title>Node42</title>
<g id="a_Node000042"><a xlink:href="../../dd/d7a/classxii_texture_lod_slider_action.htm" target="_top" xlink:title=" ">
<polygon fill="white" stroke="#bfbfbf" points="757,-56 617,-56 617,-37 757,-37 757,-56"/>
<text text-anchor="middle" x="687" y="-44" font-family="Helvetica,sans-Serif" font-size="10.00">xiiTextureLodSliderAction</text>
</a>
</g>
</g>
<!-- Node40&#45;&gt;Node42 -->
<g id="edge41_Node000040_Node000042" class="edge">
<title>Node40&#45;&gt;Node42</title>
<g id="a_edge41_Node000040_Node000042"><a xlink:title=" ">
<path fill="none" stroke="#63b8ff" d="M574.05,-59.39C587.65,-57.82 602.48,-56.12 616.77,-54.47"/>
<polygon fill="#63b8ff" stroke="#63b8ff" points="573.46,-55.94 563.92,-60.56 574.26,-62.89 573.46,-55.94"/>
</a>
</g>
</g>
<!-- Node43 -->
<g id="Node000043" class="node">
<title>Node43</title>
<g id="a_Node000043"><a xlink:href="../../d3/d59/classxii_view_light_slider_action.htm" target="_top" xlink:title=" ">
<polygon fill="white" stroke="#bfbfbf" points="754.5,-19 619.5,-19 619.5,0 754.5,0 754.5,-19"/>
<text text-anchor="middle" x="687" y="-7" font-family="Helvetica,sans-Serif" font-size="10.00">xiiViewLightSliderAction</text>
</a>
</g>
</g>
<!-- Node40&#45;&gt;Node43 -->
<g id="edge42_Node000040_Node000043" class="edge">
<title>Node40&#45;&gt;Node43</title>
<g id="a_edge42_Node000040_Node000043"><a xlink:title=" ">
<path fill="none" stroke="#63b8ff" d="M547.54,-51.17C563.06,-43.28 583.23,-33.82 602,-27.5 611.75,-24.22 622.35,-21.39 632.63,-19.02"/>
<polygon fill="#63b8ff" stroke="#63b8ff" points="545.8,-48.13 538.53,-55.85 549.02,-54.35 545.8,-48.13"/>
</a>
</g>
</g>
</g>
</svg>
