<?xml version="1.0" encoding="UTF-8" standalone="no"?>
<!DOCTYPE svg PUBLIC "-//W3C//DTD SVG 1.1//EN"
 "http://www.w3.org/Graphics/SVG/1.1/DTD/svg11.dtd">
<!-- Generated by graphviz version 2.43.0 (0)
 -->
<!-- Title: xiiGALDepthStencilStateD3D12 Pages: 1 -->
<svg width="226pt" height="308pt"
 viewBox="0.00 0.00 225.50 308.00" xmlns="http://www.w3.org/2000/svg" xmlns:xlink="http://www.w3.org/1999/xlink">
<g id="graph0" class="graph" transform="scale(1 1) rotate(0) translate(4 304)">
<title>xiiGALDepthStencilStateD3D12</title>
<polygon fill="white" stroke="transparent" points="-4,4 -4,-304 221.5,-304 221.5,4 -4,4"/>
<!-- Node1 -->
<g id="node1" class="node">
<title>Node1</title>
<g id="a_node1"><a xlink:title=" ">
<polygon fill="#bfbfbf" stroke="black" points="22,-0.5 22,-19.5 191,-19.5 191,-0.5 22,-0.5"/>
<text text-anchor="middle" x="106.5" y="-7.5" font-family="Helvetica,sans-Serif" font-size="10.00">xiiGALDepthStencilStateD3D12</text>
</a>
</g>
</g>
<!-- Node2 -->
<g id="node2" class="node">
<title>Node2</title>
<g id="a_node2"><a xlink:href="../../d7/d17/classxii_g_a_l_depth_stencil_state.htm" target="_top" xlink:title="Interface that defines methods to manipulate a depth stencil state object.">
<polygon fill="white" stroke="black" points="38.5,-56.5 38.5,-75.5 174.5,-75.5 174.5,-56.5 38.5,-56.5"/>
<text text-anchor="middle" x="106.5" y="-63.5" font-family="Helvetica,sans-Serif" font-size="10.00">xiiGALDepthStencilState</text>
</a>
</g>
</g>
<!-- Node2&#45;&gt;Node1 -->
<g id="edge1" class="edge">
<title>Node2&#45;&gt;Node1</title>
<path fill="none" stroke="midnightblue" d="M106.5,-45.8C106.5,-36.91 106.5,-26.78 106.5,-19.75"/>
<polygon fill="midnightblue" stroke="midnightblue" points="103,-46.08 106.5,-56.08 110,-46.08 103,-46.08"/>
</g>
<!-- Node3 -->
<g id="node3" class="node">
<title>Node3</title>
<g id="a_node3"><a xlink:href="../../d5/d12/classxii_g_a_l_device_object.htm" target="_top" xlink:title="Base Graphics Abstraction Layer Object.">
<polygon fill="white" stroke="black" points="50,-112.5 50,-131.5 163,-131.5 163,-112.5 50,-112.5"/>
<text text-anchor="middle" x="106.5" y="-119.5" font-family="Helvetica,sans-Serif" font-size="10.00">xiiGALDeviceObject</text>
</a>
</g>
</g>
<!-- Node3&#45;&gt;Node2 -->
<g id="edge2" class="edge">
<title>Node3&#45;&gt;Node2</title>
<path fill="none" stroke="midnightblue" d="M106.5,-101.8C106.5,-92.91 106.5,-82.78 106.5,-75.75"/>
<polygon fill="midnightblue" stroke="midnightblue" points="103,-102.08 106.5,-112.08 110,-102.08 103,-102.08"/>
</g>
<!-- Node4 -->
<g id="node4" class="node">
<title>Node4</title>
<g id="a_node4"><a xlink:href="../../d3/dda/classxii_g_a_l_object.htm" target="_top" xlink:title="Base Graphics Abstraction Layer Object.">
<polygon fill="white" stroke="black" points="66.5,-168.5 66.5,-187.5 146.5,-187.5 146.5,-168.5 66.5,-168.5"/>
<text text-anchor="middle" x="106.5" y="-175.5" font-family="Helvetica,sans-Serif" font-size="10.00">xiiGALObject</text>
</a>
</g>
</g>
<!-- Node4&#45;&gt;Node3 -->
<g id="edge3" class="edge">
<title>Node4&#45;&gt;Node3</title>
<path fill="none" stroke="midnightblue" d="M106.5,-157.8C106.5,-148.91 106.5,-138.78 106.5,-131.75"/>
<polygon fill="midnightblue" stroke="midnightblue" points="103,-158.08 106.5,-168.08 110,-158.08 103,-158.08"/>
</g>
<!-- Node5 -->
<g id="node5" class="node">
<title>Node5</title>
<g id="a_node5"><a xlink:href="../../dc/d71/classxii_reflected_class.htm" target="_top" xlink:title="All classes that should be dynamically reflectable, need to be derived from this base class.">
<polygon fill="white" stroke="black" points="0,-224.5 0,-243.5 101,-243.5 101,-224.5 0,-224.5"/>
<text text-anchor="middle" x="50.5" y="-231.5" font-family="Helvetica,sans-Serif" font-size="10.00">xiiReflectedClass</text>
</a>
</g>
</g>
<!-- Node5&#45;&gt;Node4 -->
<g id="edge4" class="edge">
<title>Node5&#45;&gt;Node4</title>
<path fill="none" stroke="midnightblue" d="M66.83,-217.25C76.76,-207.67 89.09,-195.79 97.34,-187.83"/>
<polygon fill="midnightblue" stroke="midnightblue" points="64.27,-214.86 59.5,-224.32 69.13,-219.9 64.27,-214.86"/>
</g>
<!-- Node6 -->
<g id="node6" class="node">
<title>Node6</title>
<g id="a_node6"><a xlink:href="../../d2/d38/classxii_no_base.htm" target="_top" xlink:title="Dummy type to pass to templates and macros that expect a base type for a class that has no base.">
<polygon fill="white" stroke="black" points="17.5,-280.5 17.5,-299.5 83.5,-299.5 83.5,-280.5 17.5,-280.5"/>
<text text-anchor="middle" x="50.5" y="-287.5" font-family="Helvetica,sans-Serif" font-size="10.00">xiiNoBase</text>
</a>
</g>
</g>
<!-- Node6&#45;&gt;Node5 -->
<g id="edge5" class="edge">
<title>Node6&#45;&gt;Node5</title>
<path fill="none" stroke="midnightblue" d="M50.5,-269.8C50.5,-260.91 50.5,-250.78 50.5,-243.75"/>
<polygon fill="midnightblue" stroke="midnightblue" points="47,-270.08 50.5,-280.08 54,-270.08 47,-270.08"/>
</g>
<!-- Node7 -->
<g id="node7" class="node">
<title>Node7</title>
<g id="a_node7"><a xlink:href="../../d3/dd0/classxii_ref_counted.htm" target="_top" xlink:title="Base class for reference counted objects.">
<polygon fill="white" stroke="black" points="119.5,-224.5 119.5,-243.5 205.5,-243.5 205.5,-224.5 119.5,-224.5"/>
<text text-anchor="middle" x="162.5" y="-231.5" font-family="Helvetica,sans-Serif" font-size="10.00">xiiRefCounted</text>
</a>
</g>
</g>
<!-- Node7&#45;&gt;Node4 -->
<g id="edge6" class="edge">
<title>Node7&#45;&gt;Node4</title>
<path fill="none" stroke="midnightblue" d="M146.17,-217.25C136.24,-207.67 123.91,-195.79 115.66,-187.83"/>
<polygon fill="midnightblue" stroke="midnightblue" points="143.87,-219.9 153.5,-224.32 148.73,-214.86 143.87,-219.9"/>
</g>
<!-- Node8 -->
<g id="node8" class="node">
<title>Node8</title>
<g id="a_node8"><a xlink:href="../../d7/df4/classxii_ref_counting_impl.htm" target="_top" xlink:title=" ">
<polygon fill="white" stroke="black" points="107.5,-280.5 107.5,-299.5 217.5,-299.5 217.5,-280.5 107.5,-280.5"/>
<text text-anchor="middle" x="162.5" y="-287.5" font-family="Helvetica,sans-Serif" font-size="10.00">xiiRefCountingImpl</text>
</a>
</g>
</g>
<!-- Node8&#45;&gt;Node7 -->
<g id="edge7" class="edge">
<title>Node8&#45;&gt;Node7</title>
<path fill="none" stroke="midnightblue" d="M162.5,-269.8C162.5,-260.91 162.5,-250.78 162.5,-243.75"/>
<polygon fill="midnightblue" stroke="midnightblue" points="159,-270.08 162.5,-280.08 166,-270.08 159,-270.08"/>
</g>
</g>
</svg>
