<?xml version="1.0" encoding="UTF-8" standalone="no"?>
<!DOCTYPE svg PUBLIC "-//W3C//DTD SVG 1.1//EN"
 "http://www.w3.org/Graphics/SVG/1.1/DTD/svg11.dtd">
<!-- Generated by graphviz version 2.43.0 (0)
 -->
<!-- Title: xiiTextureCubeAssetDocument Pages: 1 -->
<svg width="196pt" height="319pt"
 viewBox="0.00 0.00 196.00 319.00" xmlns="http://www.w3.org/2000/svg" xmlns:xlink="http://www.w3.org/1999/xlink">
<g id="graph0" class="graph" transform="scale(1 1) rotate(0) translate(4 315)">
<title>xiiTextureCubeAssetDocument</title>
<polygon fill="white" stroke="transparent" points="-4,4 -4,-315 192,-315 192,4 -4,4"/>
<!-- Node1 -->
<g id="node1" class="node">
<title>Node1</title>
<g id="a_node1"><a xlink:title=" ">
<polygon fill="#bfbfbf" stroke="black" points="10.5,-0.5 10.5,-19.5 177.5,-19.5 177.5,-0.5 10.5,-0.5"/>
<text text-anchor="middle" x="94" y="-7.5" font-family="Helvetica,sans-Serif" font-size="10.00">xiiTextureCubeAssetDocument</text>
</a>
</g>
</g>
<!-- Node2 -->
<g id="node2" class="node">
<title>Node2</title>
<g id="a_node2"><a xlink:href="../../d4/d60/classxii_simple_asset_document.htm" target="_top" xlink:title=" ">
<polygon fill="white" stroke="black" points="0,-56.5 0,-86.5 188,-86.5 188,-56.5 0,-56.5"/>
<text text-anchor="start" x="8" y="-74.5" font-family="Helvetica,sans-Serif" font-size="10.00">xiiSimpleAssetDocument</text>
<text text-anchor="middle" x="94" y="-63.5" font-family="Helvetica,sans-Serif" font-size="10.00">&lt; xiiTextureCubeAssetProperties &gt;</text>
</a>
</g>
</g>
<!-- Node2&#45;&gt;Node1 -->
<g id="edge1" class="edge">
<title>Node2&#45;&gt;Node1</title>
<path fill="none" stroke="midnightblue" d="M94,-46.29C94,-36.86 94,-26.65 94,-19.66"/>
<polygon fill="midnightblue" stroke="midnightblue" points="90.5,-46.4 94,-56.4 97.5,-46.4 90.5,-46.4"/>
</g>
<!-- Node3 -->
<g id="node3" class="node">
<title>Node3</title>
<g id="a_node3"><a xlink:href="../../d7/dd5/classxii_asset_document.htm" target="_top" xlink:title=" ">
<polygon fill="white" stroke="black" points="41,-123.5 41,-142.5 147,-142.5 147,-123.5 41,-123.5"/>
<text text-anchor="middle" x="94" y="-130.5" font-family="Helvetica,sans-Serif" font-size="10.00">xiiAssetDocument</text>
</a>
</g>
</g>
<!-- Node3&#45;&gt;Node2 -->
<g id="edge2" class="edge">
<title>Node3&#45;&gt;Node2</title>
<path fill="none" stroke="midnightblue" d="M94,-113.23C94,-104.59 94,-94.5 94,-86.52"/>
<polygon fill="midnightblue" stroke="midnightblue" points="90.5,-113.48 94,-123.48 97.5,-113.48 90.5,-113.48"/>
</g>
<!-- Node4 -->
<g id="node4" class="node">
<title>Node4</title>
<g id="a_node4"><a xlink:href="../../d8/da9/classxii_document.htm" target="_top" xlink:title=" ">
<polygon fill="white" stroke="black" points="54.5,-179.5 54.5,-198.5 133.5,-198.5 133.5,-179.5 54.5,-179.5"/>
<text text-anchor="middle" x="94" y="-186.5" font-family="Helvetica,sans-Serif" font-size="10.00">xiiDocument</text>
</a>
</g>
</g>
<!-- Node4&#45;&gt;Node3 -->
<g id="edge3" class="edge">
<title>Node4&#45;&gt;Node3</title>
<path fill="none" stroke="midnightblue" d="M94,-168.8C94,-159.91 94,-149.78 94,-142.75"/>
<polygon fill="midnightblue" stroke="midnightblue" points="90.5,-169.08 94,-179.08 97.5,-169.08 90.5,-169.08"/>
</g>
<!-- Node5 -->
<g id="node5" class="node">
<title>Node5</title>
<g id="a_node5"><a xlink:href="../../dc/d71/classxii_reflected_class.htm" target="_top" xlink:title="All classes that should be dynamically reflectable, need to be derived from this base class.">
<polygon fill="white" stroke="black" points="43.5,-235.5 43.5,-254.5 144.5,-254.5 144.5,-235.5 43.5,-235.5"/>
<text text-anchor="middle" x="94" y="-242.5" font-family="Helvetica,sans-Serif" font-size="10.00">xiiReflectedClass</text>
</a>
</g>
</g>
<!-- Node5&#45;&gt;Node4 -->
<g id="edge4" class="edge">
<title>Node5&#45;&gt;Node4</title>
<path fill="none" stroke="midnightblue" d="M94,-224.8C94,-215.91 94,-205.78 94,-198.75"/>
<polygon fill="midnightblue" stroke="midnightblue" points="90.5,-225.08 94,-235.08 97.5,-225.08 90.5,-225.08"/>
</g>
<!-- Node6 -->
<g id="node6" class="node">
<title>Node6</title>
<g id="a_node6"><a xlink:href="../../d2/d38/classxii_no_base.htm" target="_top" xlink:title="Dummy type to pass to templates and macros that expect a base type for a class that has no base.">
<polygon fill="white" stroke="black" points="61,-291.5 61,-310.5 127,-310.5 127,-291.5 61,-291.5"/>
<text text-anchor="middle" x="94" y="-298.5" font-family="Helvetica,sans-Serif" font-size="10.00">xiiNoBase</text>
</a>
</g>
</g>
<!-- Node6&#45;&gt;Node5 -->
<g id="edge5" class="edge">
<title>Node6&#45;&gt;Node5</title>
<path fill="none" stroke="midnightblue" d="M94,-280.8C94,-271.91 94,-261.78 94,-254.75"/>
<polygon fill="midnightblue" stroke="midnightblue" points="90.5,-281.08 94,-291.08 97.5,-281.08 90.5,-281.08"/>
</g>
</g>
</svg>
