<?xml version="1.0" encoding="UTF-8" standalone="no"?>
<!DOCTYPE svg PUBLIC "-//W3C//DTD SVG 1.1//EN"
 "http://www.w3.org/Graphics/SVG/1.1/DTD/svg11.dtd">
<!-- Generated by graphviz version 2.43.0 (0)
 -->
<!-- Title: xiiGALShaderResourceVariableD3D12 Pages: 1 -->
<svg width="226pt" height="258pt"
 viewBox="0.00 0.00 225.50 258.00" xmlns="http://www.w3.org/2000/svg" xmlns:xlink="http://www.w3.org/1999/xlink">
<g id="graph0" class="graph" transform="scale(1 1) rotate(0) translate(4 254)">
<title>xiiGALShaderResourceVariableD3D12</title>
<!-- Node1 -->
<g id="Node000001" class="node">
<title>Node1</title>
<g id="a_Node000001"><a xlink:title=" ">
<polygon fill="#999999" stroke="#666666" points="190,-30 23,-30 23,0 190,0 190,-30"/>
<text text-anchor="start" x="31" y="-18" font-family="Helvetica,sans-Serif" font-size="10.00">xiiGALShaderResourceVariable</text>
<text text-anchor="middle" x="106.5" y="-7" font-family="Helvetica,sans-Serif" font-size="10.00">D3D12</text>
</a>
</g>
</g>
<!-- Node2 -->
<g id="Node000002" class="node">
<title>Node2</title>
<g id="a_Node000002"><a xlink:href="../../de/df6/classxii_g_a_l_shader_resource_variable.html" target="_top" xlink:title="Interface that defines methods to manipulate a shader resource variable object.">
<polygon fill="white" stroke="#666666" points="190,-85 23,-85 23,-66 190,-66 190,-85"/>
<text text-anchor="middle" x="106.5" y="-73" font-family="Helvetica,sans-Serif" font-size="10.00">xiiGALShaderResourceVariable</text>
</a>
</g>
</g>
<!-- Node2&#45;&gt;Node1 -->
<g id="edge1_Node000001_Node000002" class="edge">
<title>Node2&#45;&gt;Node1</title>
<g id="a_edge1_Node000001_Node000002"><a xlink:title=" ">
<path fill="none" stroke="#63b8ff" d="M106.5,-55.65C106.5,-47.36 106.5,-37.78 106.5,-30.11"/>
<polygon fill="#63b8ff" stroke="#63b8ff" points="103,-55.87 106.5,-65.87 110,-55.87 103,-55.87"/>
</a>
</g>
</g>
<!-- Node3 -->
<g id="Node000003" class="node">
<title>Node3</title>
<g id="a_Node000003"><a xlink:href="../../d3/dda/classxii_g_a_l_object.html" target="_top" xlink:title="Base Graphics Abstraction Layer Object.">
<polygon fill="white" stroke="#666666" points="146.5,-140 66.5,-140 66.5,-121 146.5,-121 146.5,-140"/>
<text text-anchor="middle" x="106.5" y="-128" font-family="Helvetica,sans-Serif" font-size="10.00">xiiGALObject</text>
</a>
</g>
</g>
<!-- Node3&#45;&gt;Node2 -->
<g id="edge2_Node000002_Node000003" class="edge">
<title>Node3&#45;&gt;Node2</title>
<g id="a_edge2_Node000002_Node000003"><a xlink:title=" ">
<path fill="none" stroke="#63b8ff" d="M106.5,-110.66C106.5,-101.93 106.5,-91.99 106.5,-85.09"/>
<polygon fill="#63b8ff" stroke="#63b8ff" points="103,-110.75 106.5,-120.75 110,-110.75 103,-110.75"/>
</a>
</g>
</g>
<!-- Node4 -->
<g id="Node000004" class="node">
<title>Node4</title>
<g id="a_Node000004"><a xlink:href="../../dc/d71/classxii_reflected_class.html" target="_top" xlink:title="All classes that should be dynamically reflectable, need to be derived from this base class.">
<polygon fill="white" stroke="#666666" points="101,-195 0,-195 0,-176 101,-176 101,-195"/>
<text text-anchor="middle" x="50.5" y="-183" font-family="Helvetica,sans-Serif" font-size="10.00">xiiReflectedClass</text>
</a>
</g>
</g>
<!-- Node4&#45;&gt;Node3 -->
<g id="edge3_Node000003_Node000004" class="edge">
<title>Node4&#45;&gt;Node3</title>
<g id="a_edge3_Node000003_Node000004"><a xlink:title=" ">
<path fill="none" stroke="#63b8ff" d="M66.83,-169.04C76.76,-159.64 89.09,-147.98 97.34,-140.17"/>
<polygon fill="#63b8ff" stroke="#63b8ff" points="64.35,-166.57 59.5,-175.98 69.17,-171.65 64.35,-166.57"/>
</a>
</g>
</g>
<!-- Node5 -->
<g id="Node000005" class="node">
<title>Node5</title>
<g id="a_Node000005"><a xlink:href="../../d2/d38/classxii_no_base.html" target="_top" xlink:title="Dummy type to pass to templates and macros that expect a base type for a class that has no base.">
<polygon fill="white" stroke="#666666" points="83.5,-250 17.5,-250 17.5,-231 83.5,-231 83.5,-250"/>
<text text-anchor="middle" x="50.5" y="-238" font-family="Helvetica,sans-Serif" font-size="10.00">xiiNoBase</text>
</a>
</g>
</g>
<!-- Node5&#45;&gt;Node4 -->
<g id="edge4_Node000004_Node000005" class="edge">
<title>Node5&#45;&gt;Node4</title>
<g id="a_edge4_Node000004_Node000005"><a xlink:title=" ">
<path fill="none" stroke="#63b8ff" d="M50.5,-220.66C50.5,-211.93 50.5,-201.99 50.5,-195.09"/>
<polygon fill="#63b8ff" stroke="#63b8ff" points="47,-220.75 50.5,-230.75 54,-220.75 47,-220.75"/>
</a>
</g>
</g>
<!-- Node6 -->
<g id="Node000006" class="node">
<title>Node6</title>
<g id="a_Node000006"><a xlink:href="../../d3/dd0/classxii_ref_counted.html" target="_top" xlink:title="Base class for reference counted objects.">
<polygon fill="white" stroke="#666666" points="205.5,-195 119.5,-195 119.5,-176 205.5,-176 205.5,-195"/>
<text text-anchor="middle" x="162.5" y="-183" font-family="Helvetica,sans-Serif" font-size="10.00">xiiRefCounted</text>
</a>
</g>
</g>
<!-- Node6&#45;&gt;Node3 -->
<g id="edge5_Node000003_Node000006" class="edge">
<title>Node6&#45;&gt;Node3</title>
<g id="a_edge5_Node000003_Node000006"><a xlink:title=" ">
<path fill="none" stroke="#63b8ff" d="M146.17,-169.04C136.24,-159.64 123.91,-147.98 115.66,-140.17"/>
<polygon fill="#63b8ff" stroke="#63b8ff" points="143.83,-171.65 153.5,-175.98 148.65,-166.57 143.83,-171.65"/>
</a>
</g>
</g>
<!-- Node7 -->
<g id="Node000007" class="node">
<title>Node7</title>
<g id="a_Node000007"><a xlink:href="../../d7/df4/classxii_ref_counting_impl.html" target="_top" xlink:title=" ">
<polygon fill="white" stroke="#bfbfbf" points="217.5,-250 107.5,-250 107.5,-231 217.5,-231 217.5,-250"/>
<text text-anchor="middle" x="162.5" y="-238" font-family="Helvetica,sans-Serif" font-size="10.00">xiiRefCountingImpl</text>
</a>
</g>
</g>
<!-- Node7&#45;&gt;Node6 -->
<g id="edge6_Node000006_Node000007" class="edge">
<title>Node7&#45;&gt;Node6</title>
<g id="a_edge6_Node000006_Node000007"><a xlink:title=" ">
<path fill="none" stroke="#63b8ff" d="M162.5,-220.66C162.5,-211.93 162.5,-201.99 162.5,-195.09"/>
<polygon fill="#63b8ff" stroke="#63b8ff" points="159,-220.75 162.5,-230.75 166,-220.75 159,-220.75"/>
</a>
</g>
</g>
</g>
</svg>
