<?xml version="1.0" encoding="UTF-8" standalone="no"?>
<!DOCTYPE svg PUBLIC "-//W3C//DTD SVG 1.1//EN"
 "http://www.w3.org/Graphics/SVG/1.1/DTD/svg11.dtd">
<!-- Generated by graphviz version 2.43.0 (0)
 -->
<!-- Title: xiiGALTexture Pages: 1 -->
<svg width="514pt" height="364pt"
 viewBox="0.00 0.00 514.00 364.00" xmlns="http://www.w3.org/2000/svg" xmlns:xlink="http://www.w3.org/1999/xlink">
<g id="graph0" class="graph" transform="scale(1 1) rotate(0) translate(4 360)">
<title>xiiGALTexture</title>
<polygon fill="white" stroke="transparent" points="-4,4 -4,-360 510,-360 510,4 -4,4"/>
<!-- Node1 -->
<g id="node1" class="node">
<title>Node1</title>
<g id="a_node1"><a xlink:title="Interface that defines methods to manipulate a texture object.">
<polygon fill="#bfbfbf" stroke="black" points="214.5,-56.5 214.5,-75.5 297.5,-75.5 297.5,-56.5 214.5,-56.5"/>
<text text-anchor="middle" x="256" y="-63.5" font-family="Helvetica,sans-Serif" font-size="10.00">xiiGALTexture</text>
</a>
</g>
</g>
<!-- Node9 -->
<g id="node9" class="node">
<title>Node9</title>
<g id="a_node9"><a xlink:href="../../d5/d37/classxii_g_a_l_texture_d3_d11.htm" target="_top" xlink:title=" ">
<polygon fill="white" stroke="black" points="0,-0.5 0,-19.5 116,-19.5 116,-0.5 0,-0.5"/>
<text text-anchor="middle" x="58" y="-7.5" font-family="Helvetica,sans-Serif" font-size="10.00">xiiGALTextureD3D11</text>
</a>
</g>
</g>
<!-- Node1&#45;&gt;Node9 -->
<g id="edge8" class="edge">
<title>Node1&#45;&gt;Node9</title>
<path fill="none" stroke="midnightblue" d="M214.56,-53.7C177.19,-43.51 123.06,-28.74 89.23,-19.52"/>
<polygon fill="midnightblue" stroke="midnightblue" points="214.06,-57.19 224.63,-56.44 215.9,-50.44 214.06,-57.19"/>
</g>
<!-- Node10 -->
<g id="node10" class="node">
<title>Node10</title>
<g id="a_node10"><a xlink:href="../../d7/db5/classxii_g_a_l_texture_d3_d12.htm" target="_top" xlink:title=" ">
<polygon fill="white" stroke="black" points="134,-0.5 134,-19.5 250,-19.5 250,-0.5 134,-0.5"/>
<text text-anchor="middle" x="192" y="-7.5" font-family="Helvetica,sans-Serif" font-size="10.00">xiiGALTextureD3D12</text>
</a>
</g>
</g>
<!-- Node1&#45;&gt;Node10 -->
<g id="edge9" class="edge">
<title>Node1&#45;&gt;Node10</title>
<path fill="none" stroke="midnightblue" d="M238.01,-49.82C226.54,-40.15 212.09,-27.95 202.47,-19.83"/>
<polygon fill="midnightblue" stroke="midnightblue" points="235.82,-52.55 245.72,-56.32 240.33,-47.2 235.82,-52.55"/>
</g>
<!-- Node11 -->
<g id="node11" class="node">
<title>Node11</title>
<g id="a_node11"><a xlink:href="../../dc/d91/classxii_g_a_l_texture_null.htm" target="_top" xlink:title=" ">
<polygon fill="white" stroke="black" points="268.5,-0.5 268.5,-19.5 371.5,-19.5 371.5,-0.5 268.5,-0.5"/>
<text text-anchor="middle" x="320" y="-7.5" font-family="Helvetica,sans-Serif" font-size="10.00">xiiGALTextureNull</text>
</a>
</g>
</g>
<!-- Node1&#45;&gt;Node11 -->
<g id="edge10" class="edge">
<title>Node1&#45;&gt;Node11</title>
<path fill="none" stroke="midnightblue" d="M273.99,-49.82C285.46,-40.15 299.91,-27.95 309.53,-19.83"/>
<polygon fill="midnightblue" stroke="midnightblue" points="271.67,-47.2 266.28,-56.32 276.18,-52.55 271.67,-47.2"/>
</g>
<!-- Node12 -->
<g id="node12" class="node">
<title>Node12</title>
<g id="a_node12"><a xlink:href="../../d7/d2e/classxii_g_a_l_texture_vulkan.htm" target="_top" xlink:title=" ">
<polygon fill="white" stroke="black" points="390,-0.5 390,-19.5 506,-19.5 506,-0.5 390,-0.5"/>
<text text-anchor="middle" x="448" y="-7.5" font-family="Helvetica,sans-Serif" font-size="10.00">xiiGALTextureVulkan</text>
</a>
</g>
</g>
<!-- Node1&#45;&gt;Node12 -->
<g id="edge11" class="edge">
<title>Node1&#45;&gt;Node12</title>
<path fill="none" stroke="midnightblue" d="M296.18,-53.7C332.42,-43.51 384.91,-28.74 417.72,-19.52"/>
<polygon fill="midnightblue" stroke="midnightblue" points="295.1,-50.37 286.42,-56.44 297,-57.11 295.1,-50.37"/>
</g>
<!-- Node2 -->
<g id="node2" class="node">
<title>Node2</title>
<g id="a_node2"><a xlink:href="../../d4/d2d/classxii_g_a_l_resource.htm" target="_top" xlink:title="Base class for all GAL resources (textures, buffers, etc).">
<polygon fill="white" stroke="black" points="209.5,-112.5 209.5,-131.5 302.5,-131.5 302.5,-112.5 209.5,-112.5"/>
<text text-anchor="middle" x="256" y="-119.5" font-family="Helvetica,sans-Serif" font-size="10.00">xiiGALResource</text>
</a>
</g>
</g>
<!-- Node2&#45;&gt;Node1 -->
<g id="edge1" class="edge">
<title>Node2&#45;&gt;Node1</title>
<path fill="none" stroke="midnightblue" d="M256,-101.8C256,-92.91 256,-82.78 256,-75.75"/>
<polygon fill="midnightblue" stroke="midnightblue" points="252.5,-102.08 256,-112.08 259.5,-102.08 252.5,-102.08"/>
</g>
<!-- Node3 -->
<g id="node3" class="node">
<title>Node3</title>
<g id="a_node3"><a xlink:href="../../d5/d12/classxii_g_a_l_device_object.htm" target="_top" xlink:title="Base Graphics Abstraction Layer Object.">
<polygon fill="white" stroke="black" points="199.5,-168.5 199.5,-187.5 312.5,-187.5 312.5,-168.5 199.5,-168.5"/>
<text text-anchor="middle" x="256" y="-175.5" font-family="Helvetica,sans-Serif" font-size="10.00">xiiGALDeviceObject</text>
</a>
</g>
</g>
<!-- Node3&#45;&gt;Node2 -->
<g id="edge2" class="edge">
<title>Node3&#45;&gt;Node2</title>
<path fill="none" stroke="midnightblue" d="M256,-157.8C256,-148.91 256,-138.78 256,-131.75"/>
<polygon fill="midnightblue" stroke="midnightblue" points="252.5,-158.08 256,-168.08 259.5,-158.08 252.5,-158.08"/>
</g>
<!-- Node4 -->
<g id="node4" class="node">
<title>Node4</title>
<g id="a_node4"><a xlink:href="../../d3/dda/classxii_g_a_l_object.htm" target="_top" xlink:title="Base Graphics Abstraction Layer Object.">
<polygon fill="white" stroke="black" points="216,-224.5 216,-243.5 296,-243.5 296,-224.5 216,-224.5"/>
<text text-anchor="middle" x="256" y="-231.5" font-family="Helvetica,sans-Serif" font-size="10.00">xiiGALObject</text>
</a>
</g>
</g>
<!-- Node4&#45;&gt;Node3 -->
<g id="edge3" class="edge">
<title>Node4&#45;&gt;Node3</title>
<path fill="none" stroke="midnightblue" d="M256,-213.8C256,-204.91 256,-194.78 256,-187.75"/>
<polygon fill="midnightblue" stroke="midnightblue" points="252.5,-214.08 256,-224.08 259.5,-214.08 252.5,-214.08"/>
</g>
<!-- Node5 -->
<g id="node5" class="node">
<title>Node5</title>
<g id="a_node5"><a xlink:href="../../dc/d71/classxii_reflected_class.htm" target="_top" xlink:title="All classes that should be dynamically reflectable, need to be derived from this base class.">
<polygon fill="white" stroke="black" points="149.5,-280.5 149.5,-299.5 250.5,-299.5 250.5,-280.5 149.5,-280.5"/>
<text text-anchor="middle" x="200" y="-287.5" font-family="Helvetica,sans-Serif" font-size="10.00">xiiReflectedClass</text>
</a>
</g>
</g>
<!-- Node5&#45;&gt;Node4 -->
<g id="edge4" class="edge">
<title>Node5&#45;&gt;Node4</title>
<path fill="none" stroke="midnightblue" d="M216.33,-273.25C226.26,-263.67 238.59,-251.79 246.84,-243.83"/>
<polygon fill="midnightblue" stroke="midnightblue" points="213.77,-270.86 209,-280.32 218.63,-275.9 213.77,-270.86"/>
</g>
<!-- Node6 -->
<g id="node6" class="node">
<title>Node6</title>
<g id="a_node6"><a xlink:href="../../d2/d38/classxii_no_base.htm" target="_top" xlink:title="Dummy type to pass to templates and macros that expect a base type for a class that has no base.">
<polygon fill="white" stroke="black" points="167,-336.5 167,-355.5 233,-355.5 233,-336.5 167,-336.5"/>
<text text-anchor="middle" x="200" y="-343.5" font-family="Helvetica,sans-Serif" font-size="10.00">xiiNoBase</text>
</a>
</g>
</g>
<!-- Node6&#45;&gt;Node5 -->
<g id="edge5" class="edge">
<title>Node6&#45;&gt;Node5</title>
<path fill="none" stroke="midnightblue" d="M200,-325.8C200,-316.91 200,-306.78 200,-299.75"/>
<polygon fill="midnightblue" stroke="midnightblue" points="196.5,-326.08 200,-336.08 203.5,-326.08 196.5,-326.08"/>
</g>
<!-- Node7 -->
<g id="node7" class="node">
<title>Node7</title>
<g id="a_node7"><a xlink:href="../../d3/dd0/classxii_ref_counted.htm" target="_top" xlink:title="Base class for reference counted objects.">
<polygon fill="white" stroke="black" points="269,-280.5 269,-299.5 355,-299.5 355,-280.5 269,-280.5"/>
<text text-anchor="middle" x="312" y="-287.5" font-family="Helvetica,sans-Serif" font-size="10.00">xiiRefCounted</text>
</a>
</g>
</g>
<!-- Node7&#45;&gt;Node4 -->
<g id="edge6" class="edge">
<title>Node7&#45;&gt;Node4</title>
<path fill="none" stroke="midnightblue" d="M295.67,-273.25C285.74,-263.67 273.41,-251.79 265.16,-243.83"/>
<polygon fill="midnightblue" stroke="midnightblue" points="293.37,-275.9 303,-280.32 298.23,-270.86 293.37,-275.9"/>
</g>
<!-- Node8 -->
<g id="node8" class="node">
<title>Node8</title>
<g id="a_node8"><a xlink:href="../../d7/df4/classxii_ref_counting_impl.htm" target="_top" xlink:title=" ">
<polygon fill="white" stroke="black" points="257,-336.5 257,-355.5 367,-355.5 367,-336.5 257,-336.5"/>
<text text-anchor="middle" x="312" y="-343.5" font-family="Helvetica,sans-Serif" font-size="10.00">xiiRefCountingImpl</text>
</a>
</g>
</g>
<!-- Node8&#45;&gt;Node7 -->
<g id="edge7" class="edge">
<title>Node8&#45;&gt;Node7</title>
<path fill="none" stroke="midnightblue" d="M312,-325.8C312,-316.91 312,-306.78 312,-299.75"/>
<polygon fill="midnightblue" stroke="midnightblue" points="308.5,-326.08 312,-336.08 315.5,-326.08 308.5,-326.08"/>
</g>
</g>
</svg>
