<?xml version="1.0" encoding="UTF-8" standalone="no"?>
<!DOCTYPE svg PUBLIC "-//W3C//DTD SVG 1.1//EN"
 "http://www.w3.org/Graphics/SVG/1.1/DTD/svg11.dtd">
<!-- Generated by graphviz version 2.43.0 (0)
 -->
<!-- Title: xiiAnimatedMeshAssetDocumentManager Pages: 1 -->
<svg width="187pt" height="263pt"
 viewBox="0.00 0.00 187.00 263.00" xmlns="http://www.w3.org/2000/svg" xmlns:xlink="http://www.w3.org/1999/xlink">
<g id="graph0" class="graph" transform="scale(1 1) rotate(0) translate(4 259)">
<title>xiiAnimatedMeshAssetDocumentManager</title>
<polygon fill="white" stroke="transparent" points="-4,4 -4,-259 183,-259 183,4 -4,4"/>
<!-- Node1 -->
<g id="node1" class="node">
<title>Node1</title>
<g id="a_node1"><a xlink:title=" ">
<polygon fill="#bfbfbf" stroke="black" points="0,-0.5 0,-30.5 179,-30.5 179,-0.5 0,-0.5"/>
<text text-anchor="start" x="8" y="-18.5" font-family="Helvetica,sans-Serif" font-size="10.00">xiiAnimatedMeshAssetDocument</text>
<text text-anchor="middle" x="89.5" y="-7.5" font-family="Helvetica,sans-Serif" font-size="10.00">Manager</text>
</a>
</g>
</g>
<!-- Node2 -->
<g id="node2" class="node">
<title>Node2</title>
<g id="a_node2"><a xlink:href="../../d4/da4/classxii_asset_document_manager.htm" target="_top" xlink:title=" ">
<polygon fill="white" stroke="black" points="15,-67.5 15,-86.5 164,-86.5 164,-67.5 15,-67.5"/>
<text text-anchor="middle" x="89.5" y="-74.5" font-family="Helvetica,sans-Serif" font-size="10.00">xiiAssetDocumentManager</text>
</a>
</g>
</g>
<!-- Node2&#45;&gt;Node1 -->
<g id="edge1" class="edge">
<title>Node2&#45;&gt;Node1</title>
<path fill="none" stroke="midnightblue" d="M89.5,-57.23C89.5,-48.59 89.5,-38.5 89.5,-30.52"/>
<polygon fill="midnightblue" stroke="midnightblue" points="86,-57.48 89.5,-67.48 93,-57.48 86,-57.48"/>
</g>
<!-- Node3 -->
<g id="node3" class="node">
<title>Node3</title>
<g id="a_node3"><a xlink:href="../../d8/d34/classxii_document_manager.htm" target="_top" xlink:title=" ">
<polygon fill="white" stroke="black" points="28.5,-123.5 28.5,-142.5 150.5,-142.5 150.5,-123.5 28.5,-123.5"/>
<text text-anchor="middle" x="89.5" y="-130.5" font-family="Helvetica,sans-Serif" font-size="10.00">xiiDocumentManager</text>
</a>
</g>
</g>
<!-- Node3&#45;&gt;Node2 -->
<g id="edge2" class="edge">
<title>Node3&#45;&gt;Node2</title>
<path fill="none" stroke="midnightblue" d="M89.5,-112.8C89.5,-103.91 89.5,-93.78 89.5,-86.75"/>
<polygon fill="midnightblue" stroke="midnightblue" points="86,-113.08 89.5,-123.08 93,-113.08 86,-113.08"/>
</g>
<!-- Node4 -->
<g id="node4" class="node">
<title>Node4</title>
<g id="a_node4"><a xlink:href="../../dc/d71/classxii_reflected_class.htm" target="_top" xlink:title="All classes that should be dynamically reflectable, need to be derived from this base class.">
<polygon fill="white" stroke="black" points="39,-179.5 39,-198.5 140,-198.5 140,-179.5 39,-179.5"/>
<text text-anchor="middle" x="89.5" y="-186.5" font-family="Helvetica,sans-Serif" font-size="10.00">xiiReflectedClass</text>
</a>
</g>
</g>
<!-- Node4&#45;&gt;Node3 -->
<g id="edge3" class="edge">
<title>Node4&#45;&gt;Node3</title>
<path fill="none" stroke="midnightblue" d="M89.5,-168.8C89.5,-159.91 89.5,-149.78 89.5,-142.75"/>
<polygon fill="midnightblue" stroke="midnightblue" points="86,-169.08 89.5,-179.08 93,-169.08 86,-169.08"/>
</g>
<!-- Node5 -->
<g id="node5" class="node">
<title>Node5</title>
<g id="a_node5"><a xlink:href="../../d2/d38/classxii_no_base.htm" target="_top" xlink:title="Dummy type to pass to templates and macros that expect a base type for a class that has no base.">
<polygon fill="white" stroke="black" points="56.5,-235.5 56.5,-254.5 122.5,-254.5 122.5,-235.5 56.5,-235.5"/>
<text text-anchor="middle" x="89.5" y="-242.5" font-family="Helvetica,sans-Serif" font-size="10.00">xiiNoBase</text>
</a>
</g>
</g>
<!-- Node5&#45;&gt;Node4 -->
<g id="edge4" class="edge">
<title>Node5&#45;&gt;Node4</title>
<path fill="none" stroke="midnightblue" d="M89.5,-224.8C89.5,-215.91 89.5,-205.78 89.5,-198.75"/>
<polygon fill="midnightblue" stroke="midnightblue" points="86,-225.08 89.5,-235.08 93,-225.08 86,-225.08"/>
</g>
</g>
</svg>
