<?xml version="1.0" encoding="UTF-8" standalone="no"?>
<!DOCTYPE svg PUBLIC "-//W3C//DTD SVG 1.1//EN"
 "http://www.w3.org/Graphics/SVG/1.1/DTD/svg11.dtd">
<!-- Generated by graphviz version 2.43.0 (0)
 -->
<!-- Title: xiiDocumentObjectMirror Pages: 1 -->
<svg width="313pt" height="151pt"
 viewBox="0.00 0.00 312.50 151.00" xmlns="http://www.w3.org/2000/svg" xmlns:xlink="http://www.w3.org/1999/xlink">
<g id="graph0" class="graph" transform="scale(1 1) rotate(0) translate(4 147)">
<title>xiiDocumentObjectMirror</title>
<polygon fill="white" stroke="transparent" points="-4,4 -4,-147 308.5,-147 308.5,4 -4,4"/>
<!-- Node1 -->
<g id="node1" class="node">
<title>Node1</title>
<g id="a_node1"><a xlink:title=" ">
<polygon fill="#bfbfbf" stroke="black" points="88.5,-123.5 88.5,-142.5 228.5,-142.5 228.5,-123.5 88.5,-123.5"/>
<text text-anchor="middle" x="158.5" y="-130.5" font-family="Helvetica,sans-Serif" font-size="10.00">xiiDocumentObjectMirror</text>
</a>
</g>
</g>
<!-- Node2 -->
<g id="node2" class="node">
<title>Node2</title>
<g id="a_node2"><a xlink:href="../../d2/d16/classxii_i_p_c_object_mirror_editor.htm" target="_top" xlink:title="An object mirror that mirrors across IPC to the engine process.">
<polygon fill="white" stroke="black" points="14.5,-67.5 14.5,-86.5 148.5,-86.5 148.5,-67.5 14.5,-67.5"/>
<text text-anchor="middle" x="81.5" y="-74.5" font-family="Helvetica,sans-Serif" font-size="10.00">xiiIPCObjectMirrorEditor</text>
</a>
</g>
</g>
<!-- Node1&#45;&gt;Node2 -->
<g id="edge1" class="edge">
<title>Node1&#45;&gt;Node2</title>
<path fill="none" stroke="midnightblue" d="M137.6,-117.34C123.59,-107.52 105.62,-94.91 93.84,-86.65"/>
<polygon fill="midnightblue" stroke="midnightblue" points="135.93,-120.45 146.13,-123.32 139.95,-114.72 135.93,-120.45"/>
</g>
<!-- Node4 -->
<g id="node4" class="node">
<title>Node4</title>
<g id="a_node4"><a xlink:href="../../d2/d8f/classxii_i_p_c_object_mirror_engine.htm" target="_top" xlink:title="An object mirror that mirrors across IPC to the engine process.">
<polygon fill="white" stroke="black" points="166.5,-67.5 166.5,-86.5 304.5,-86.5 304.5,-67.5 166.5,-67.5"/>
<text text-anchor="middle" x="235.5" y="-74.5" font-family="Helvetica,sans-Serif" font-size="10.00">xiiIPCObjectMirrorEngine</text>
</a>
</g>
</g>
<!-- Node1&#45;&gt;Node4 -->
<g id="edge3" class="edge">
<title>Node1&#45;&gt;Node4</title>
<path fill="none" stroke="midnightblue" d="M179.4,-117.34C193.41,-107.52 211.38,-94.91 223.16,-86.65"/>
<polygon fill="midnightblue" stroke="midnightblue" points="177.05,-114.72 170.87,-123.32 181.07,-120.45 177.05,-114.72"/>
</g>
<!-- Node3 -->
<g id="node3" class="node">
<title>Node3</title>
<g id="a_node3"><a xlink:href="../../dc/dc9/classxii_render_pipeline_object_mirror_editor.htm" target="_top" xlink:title="This custom mirror additionally sends over the connection meta data as properties to the engine side ...">
<polygon fill="white" stroke="black" points="0,-0.5 0,-30.5 163,-30.5 163,-0.5 0,-0.5"/>
<text text-anchor="start" x="8" y="-18.5" font-family="Helvetica,sans-Serif" font-size="10.00">xiiRenderPipelineObjectMirror</text>
<text text-anchor="middle" x="81.5" y="-7.5" font-family="Helvetica,sans-Serif" font-size="10.00">Editor</text>
</a>
</g>
</g>
<!-- Node2&#45;&gt;Node3 -->
<g id="edge2" class="edge">
<title>Node2&#45;&gt;Node3</title>
<path fill="none" stroke="midnightblue" d="M81.5,-57.23C81.5,-48.59 81.5,-38.5 81.5,-30.52"/>
<polygon fill="midnightblue" stroke="midnightblue" points="78,-57.48 81.5,-67.48 85,-57.48 78,-57.48"/>
</g>
</g>
</svg>
