<?xml version="1.0" encoding="UTF-8" standalone="no"?>
<!DOCTYPE svg PUBLIC "-//W3C//DTD SVG 1.1//EN"
 "http://www.w3.org/Graphics/SVG/1.1/DTD/svg11.dtd">
<!-- Generated by graphviz version 2.43.0 (0)
 -->
<!-- Title: xiiAbstractMemberProperty Pages: 1 -->
<svg width="862pt" height="324pt"
 viewBox="0.00 0.00 862.00 323.50" xmlns="http://www.w3.org/2000/svg" xmlns:xlink="http://www.w3.org/1999/xlink">
<g id="graph0" class="graph" transform="scale(1 1) rotate(0) translate(4 319.5)">
<title>xiiAbstractMemberProperty</title>
<polygon fill="white" stroke="transparent" points="-4,4 -4,-319.5 858,-319.5 858,4 -4,4"/>
<!-- Node1 -->
<g id="node1" class="node">
<title>Node1</title>
<g id="a_node1"><a xlink:title="This is the base class for all properties that are members of a class. It provides more information a...">
<polygon fill="#bfbfbf" stroke="black" points="146,-137 146,-156 297,-156 297,-137 146,-137"/>
<text text-anchor="middle" x="221.5" y="-144" font-family="Helvetica,sans-Serif" font-size="10.00">xiiAbstractMemberProperty</text>
</a>
</g>
</g>
<!-- Node3 -->
<g id="node3" class="node">
<title>Node3</title>
<g id="a_node3"><a xlink:href="../../df/ddc/classxii_typed_member_property.htm" target="_top" xlink:title=" ">
<polygon fill="white" stroke="black" points="337.5,-274 337.5,-315 501.5,-315 501.5,-274 337.5,-274"/>
<text text-anchor="start" x="345.5" y="-303" font-family="Helvetica,sans-Serif" font-size="10.00">xiiTypedMemberProperty</text>
<text text-anchor="start" x="345.5" y="-292" font-family="Helvetica,sans-Serif" font-size="10.00">&lt; xiiTypeTraits&lt; Type</text>
<text text-anchor="middle" x="419.5" y="-281" font-family="Helvetica,sans-Serif" font-size="10.00"> &gt;::NonConstReferenceType &gt;</text>
</a>
</g>
</g>
<!-- Node1&#45;&gt;Node3 -->
<g id="edge2" class="edge">
<title>Node1&#45;&gt;Node3</title>
<path fill="none" stroke="midnightblue" d="M235.05,-164.65C253.65,-190.29 290.91,-237.06 333,-264.5 338.27,-267.94 343.98,-271.03 349.87,-273.81"/>
<polygon fill="midnightblue" stroke="midnightblue" points="237.71,-162.35 229.07,-156.23 232.01,-166.41 237.71,-162.35"/>
</g>
<!-- Node5 -->
<g id="node5" class="node">
<title>Node5</title>
<g id="a_node5"><a xlink:href="../../df/ddc/classxii_typed_member_property.htm" target="_top" xlink:title=" ">
<polygon fill="white" stroke="black" points="350,-224.5 350,-254.5 489,-254.5 489,-224.5 350,-224.5"/>
<text text-anchor="start" x="358" y="-242.5" font-family="Helvetica,sans-Serif" font-size="10.00">xiiTypedMemberProperty</text>
<text text-anchor="middle" x="419.5" y="-231.5" font-family="Helvetica,sans-Serif" font-size="10.00">&lt; xiiColor &gt;</text>
</a>
</g>
</g>
<!-- Node1&#45;&gt;Node5 -->
<g id="edge4" class="edge">
<title>Node1&#45;&gt;Node5</title>
<path fill="none" stroke="midnightblue" d="M243.45,-162.13C264.95,-177.54 299.87,-200.87 333,-215.5 340.47,-218.8 348.52,-221.76 356.58,-224.39"/>
<polygon fill="midnightblue" stroke="midnightblue" points="245.24,-159.1 235.1,-156.05 241.12,-164.77 245.24,-159.1"/>
</g>
<!-- Node6 -->
<g id="node6" class="node">
<title>Node6</title>
<g id="a_node6"><a xlink:href="../../df/ddc/classxii_typed_member_property.htm" target="_top" xlink:title=" ">
<polygon fill="white" stroke="black" points="350,-175.5 350,-205.5 489,-205.5 489,-175.5 350,-175.5"/>
<text text-anchor="start" x="358" y="-193.5" font-family="Helvetica,sans-Serif" font-size="10.00">xiiTypedMemberProperty</text>
<text text-anchor="middle" x="419.5" y="-182.5" font-family="Helvetica,sans-Serif" font-size="10.00">&lt; xiiColorGammaUB &gt;</text>
</a>
</g>
</g>
<!-- Node1&#45;&gt;Node6 -->
<g id="edge5" class="edge">
<title>Node1&#45;&gt;Node6</title>
<path fill="none" stroke="midnightblue" d="M274.81,-158.24C298.32,-163.52 326.35,-169.81 351.39,-175.43"/>
<polygon fill="midnightblue" stroke="midnightblue" points="275.55,-154.82 265.03,-156.05 274.02,-161.65 275.55,-154.82"/>
</g>
<!-- Node7 -->
<g id="node7" class="node">
<title>Node7</title>
<g id="a_node7"><a xlink:href="../../d6/dfe/classxii_abstract_enumeration_property.htm" target="_top" xlink:title="The base class for enum and bitflags member properties.">
<polygon fill="white" stroke="black" points="333,-137 333,-156 506,-156 506,-137 333,-137"/>
<text text-anchor="middle" x="419.5" y="-144" font-family="Helvetica,sans-Serif" font-size="10.00">xiiAbstractEnumerationProperty</text>
</a>
</g>
</g>
<!-- Node1&#45;&gt;Node7 -->
<g id="edge6" class="edge">
<title>Node1&#45;&gt;Node7</title>
<path fill="none" stroke="midnightblue" d="M307.39,-146.5C315.85,-146.5 324.44,-146.5 332.9,-146.5"/>
<polygon fill="midnightblue" stroke="midnightblue" points="307.16,-143 297.16,-146.5 307.16,-150 307.16,-143"/>
</g>
<!-- Node13 -->
<g id="node13" class="node">
<title>Node13</title>
<g id="a_node13"><a xlink:href="../../db/db0/classxii_phantom_member_property.htm" target="_top" xlink:title=" ">
<polygon fill="white" stroke="black" points="342.5,-99 342.5,-118 496.5,-118 496.5,-99 342.5,-99"/>
<text text-anchor="middle" x="419.5" y="-106" font-family="Helvetica,sans-Serif" font-size="10.00">xiiPhantomMemberProperty</text>
</a>
</g>
</g>
<!-- Node1&#45;&gt;Node13 -->
<g id="edge12" class="edge">
<title>Node1&#45;&gt;Node13</title>
<path fill="none" stroke="midnightblue" d="M281.76,-135.01C309.73,-129.59 342.71,-123.19 369.27,-118.04"/>
<polygon fill="midnightblue" stroke="midnightblue" points="280.86,-131.62 271.71,-136.96 282.19,-138.49 280.86,-131.62"/>
</g>
<!-- Node14 -->
<g id="node14" class="node">
<title>Node14</title>
<g id="a_node14"><a xlink:href="../../df/ddc/classxii_typed_member_property.htm" target="_top" xlink:title="The base class for all typed member properties. I.e. once the type of a property is determined,...">
<polygon fill="white" stroke="black" points="350,-49.5 350,-79.5 489,-79.5 489,-49.5 350,-49.5"/>
<text text-anchor="start" x="358" y="-67.5" font-family="Helvetica,sans-Serif" font-size="10.00">xiiTypedMemberProperty</text>
<text text-anchor="middle" x="419.5" y="-56.5" font-family="Helvetica,sans-Serif" font-size="10.00">&lt; Type &gt;</text>
</a>
</g>
</g>
<!-- Node1&#45;&gt;Node14 -->
<g id="edge13" class="edge">
<title>Node1&#45;&gt;Node14</title>
<path fill="none" stroke="midnightblue" d="M247.2,-132.01C269.18,-119.55 302.48,-101.7 333,-89.5 342.05,-85.88 351.82,-82.53 361.41,-79.54"/>
<polygon fill="midnightblue" stroke="midnightblue" points="245.45,-128.98 238.51,-136.99 248.93,-135.06 245.45,-128.98"/>
</g>
<!-- Node16 -->
<g id="node16" class="node">
<title>Node16</title>
<g id="a_node16"><a xlink:href="../../dd/d54/classxii_typed_member_property_3_01const_01char_01_5_01_4.htm" target="_top" xlink:title="Specialization of xiiTypedMemberProperty for const char*.">
<polygon fill="white" stroke="black" points="350,-0.5 350,-30.5 489,-30.5 489,-0.5 350,-0.5"/>
<text text-anchor="start" x="358" y="-18.5" font-family="Helvetica,sans-Serif" font-size="10.00">xiiTypedMemberProperty</text>
<text text-anchor="middle" x="419.5" y="-7.5" font-family="Helvetica,sans-Serif" font-size="10.00">&lt; const char * &gt;</text>
</a>
</g>
</g>
<!-- Node1&#45;&gt;Node16 -->
<g id="edge15" class="edge">
<title>Node1&#45;&gt;Node16</title>
<path fill="none" stroke="midnightblue" d="M236.04,-128.73C255.11,-104.92 292.14,-62.97 333,-39.5 338.88,-36.12 345.27,-33.19 351.81,-30.66"/>
<polygon fill="midnightblue" stroke="midnightblue" points="233.06,-126.86 229.64,-136.89 238.57,-131.18 233.06,-126.86"/>
</g>
<!-- Node2 -->
<g id="node2" class="node">
<title>Node2</title>
<g id="a_node2"><a xlink:href="../../da/d25/classxii_abstract_property.htm" target="_top" xlink:title="This is the base interface for all properties in the reflection system. It provides enough informatio...">
<polygon fill="white" stroke="black" points="0,-137 0,-156 110,-156 110,-137 0,-137"/>
<text text-anchor="middle" x="55" y="-144" font-family="Helvetica,sans-Serif" font-size="10.00">xiiAbstractProperty</text>
</a>
</g>
</g>
<!-- Node2&#45;&gt;Node1 -->
<g id="edge1" class="edge">
<title>Node2&#45;&gt;Node1</title>
<path fill="none" stroke="midnightblue" d="M120.4,-146.5C128.79,-146.5 137.44,-146.5 145.98,-146.5"/>
<polygon fill="midnightblue" stroke="midnightblue" points="120.32,-143 110.32,-146.5 120.32,-150 120.32,-143"/>
</g>
<!-- Node4 -->
<g id="node4" class="node">
<title>Node4</title>
<g id="a_node4"><a xlink:href="../../d4/dfb/classxii_accessor_property.htm" target="_top" xlink:title="[internal] An implementation of xiiTypedMemberProperty that uses custom getter / setter functions to ...">
<polygon fill="white" stroke="black" points="548.5,-279.5 548.5,-309.5 661.5,-309.5 661.5,-279.5 548.5,-279.5"/>
<text text-anchor="start" x="556.5" y="-297.5" font-family="Helvetica,sans-Serif" font-size="10.00">xiiAccessorProperty</text>
<text text-anchor="middle" x="605" y="-286.5" font-family="Helvetica,sans-Serif" font-size="10.00">&lt; Class, Type &gt;</text>
</a>
</g>
</g>
<!-- Node3&#45;&gt;Node4 -->
<g id="edge3" class="edge">
<title>Node3&#45;&gt;Node4</title>
<path fill="none" stroke="midnightblue" d="M511.58,-294.5C524.16,-294.5 536.75,-294.5 548.42,-294.5"/>
<polygon fill="midnightblue" stroke="midnightblue" points="511.52,-291 501.52,-294.5 511.52,-298 511.52,-291"/>
</g>
<!-- Node8 -->
<g id="node8" class="node">
<title>Node8</title>
<g id="a_node8"><a xlink:href="../../dc/d9b/classxii_typed_enum_property.htm" target="_top" xlink:title="[internal] Base class for enum / bitflags properties that already defines the type.">
<polygon fill="white" stroke="black" points="542,-131.5 542,-161.5 668,-161.5 668,-131.5 542,-131.5"/>
<text text-anchor="start" x="550" y="-149.5" font-family="Helvetica,sans-Serif" font-size="10.00">xiiTypedEnumProperty</text>
<text text-anchor="middle" x="605" y="-138.5" font-family="Helvetica,sans-Serif" font-size="10.00">&lt; EnumType &gt;</text>
</a>
</g>
</g>
<!-- Node7&#45;&gt;Node8 -->
<g id="edge7" class="edge">
<title>Node7&#45;&gt;Node8</title>
<path fill="none" stroke="midnightblue" d="M516.26,-146.5C524.93,-146.5 533.56,-146.5 541.82,-146.5"/>
<polygon fill="midnightblue" stroke="midnightblue" points="516.07,-143 506.07,-146.5 516.07,-150 516.07,-143"/>
</g>
<!-- Node9 -->
<g id="node9" class="node">
<title>Node9</title>
<g id="a_node9"><a xlink:href="../../d6/d60/classxii_bitflags_accessor_property.htm" target="_top" xlink:title="[internal] An implementation of xiiTypedEnumProperty that uses custom getter / setter functions to ac...">
<polygon fill="white" stroke="black" points="704,-205.5 704,-235.5 854,-235.5 854,-205.5 704,-205.5"/>
<text text-anchor="start" x="712" y="-223.5" font-family="Helvetica,sans-Serif" font-size="10.00">xiiBitflagsAccessorProperty</text>
<text text-anchor="middle" x="779" y="-212.5" font-family="Helvetica,sans-Serif" font-size="10.00">&lt; Class, EnumType, Type &gt;</text>
</a>
</g>
</g>
<!-- Node8&#45;&gt;Node9 -->
<g id="edge8" class="edge">
<title>Node8&#45;&gt;Node9</title>
<path fill="none" stroke="midnightblue" d="M642.89,-166.46C661.02,-175.87 683.37,-186.9 704,-195.5 712.39,-198.99 721.45,-202.37 730.27,-205.45"/>
<polygon fill="midnightblue" stroke="midnightblue" points="644.31,-163.25 633.82,-161.7 641.05,-169.45 644.31,-163.25"/>
</g>
<!-- Node10 -->
<g id="node10" class="node">
<title>Node10</title>
<g id="a_node10"><a xlink:href="../../d1/d27/classxii_bitflags_member_property.htm" target="_top" xlink:title="[internal] An implementation of xiiTypedEnumProperty that accesses the bitflags property data directl...">
<polygon fill="white" stroke="black" points="704,-156.5 704,-186.5 854,-186.5 854,-156.5 704,-156.5"/>
<text text-anchor="start" x="712" y="-174.5" font-family="Helvetica,sans-Serif" font-size="10.00">xiiBitflagsMemberProperty</text>
<text text-anchor="middle" x="779" y="-163.5" font-family="Helvetica,sans-Serif" font-size="10.00">&lt; Class, EnumType, Type &gt;</text>
</a>
</g>
</g>
<!-- Node8&#45;&gt;Node10 -->
<g id="edge9" class="edge">
<title>Node8&#45;&gt;Node10</title>
<path fill="none" stroke="midnightblue" d="M678.05,-156.97C686.62,-158.22 695.38,-159.49 703.98,-160.74"/>
<polygon fill="midnightblue" stroke="midnightblue" points="678.5,-153.5 668.1,-155.53 677.49,-160.43 678.5,-153.5"/>
</g>
<!-- Node11 -->
<g id="node11" class="node">
<title>Node11</title>
<g id="a_node11"><a xlink:href="../../dd/d56/classxii_enum_accessor_property.htm" target="_top" xlink:title="[internal] An implementation of xiiTypedEnumProperty that uses custom getter / setter functions to ac...">
<polygon fill="white" stroke="black" points="704,-107.5 704,-137.5 854,-137.5 854,-107.5 704,-107.5"/>
<text text-anchor="start" x="712" y="-125.5" font-family="Helvetica,sans-Serif" font-size="10.00">xiiEnumAccessorProperty</text>
<text text-anchor="middle" x="779" y="-114.5" font-family="Helvetica,sans-Serif" font-size="10.00">&lt; Class, EnumType, Type &gt;</text>
</a>
</g>
</g>
<!-- Node8&#45;&gt;Node11 -->
<g id="edge10" class="edge">
<title>Node8&#45;&gt;Node11</title>
<path fill="none" stroke="midnightblue" d="M678.05,-136.45C686.62,-135.25 695.38,-134.03 703.98,-132.83"/>
<polygon fill="midnightblue" stroke="midnightblue" points="677.52,-132.99 668.1,-137.84 678.48,-139.92 677.52,-132.99"/>
</g>
<!-- Node12 -->
<g id="node12" class="node">
<title>Node12</title>
<g id="a_node12"><a xlink:href="../../d7/d14/classxii_enum_member_property.htm" target="_top" xlink:title="[internal] An implementation of xiiTypedEnumProperty that accesses the enum property data directly.">
<polygon fill="white" stroke="black" points="704,-58.5 704,-88.5 854,-88.5 854,-58.5 704,-58.5"/>
<text text-anchor="start" x="712" y="-76.5" font-family="Helvetica,sans-Serif" font-size="10.00">xiiEnumMemberProperty</text>
<text text-anchor="middle" x="779" y="-65.5" font-family="Helvetica,sans-Serif" font-size="10.00">&lt; Class, EnumType, Type &gt;</text>
</a>
</g>
</g>
<!-- Node8&#45;&gt;Node12 -->
<g id="edge11" class="edge">
<title>Node8&#45;&gt;Node12</title>
<path fill="none" stroke="midnightblue" d="M642.45,-126.64C660.64,-117.15 683.16,-106.03 704,-97.5 711.62,-94.38 719.82,-91.38 727.87,-88.63"/>
<polygon fill="midnightblue" stroke="midnightblue" points="640.58,-123.67 633.37,-131.43 643.84,-129.86 640.58,-123.67"/>
</g>
<!-- Node15 -->
<g id="node15" class="node">
<title>Node15</title>
<g id="a_node15"><a xlink:href="../../d0/d56/classxii_member_property.htm" target="_top" xlink:title="[internal] An implementation of xiiTypedMemberProperty that accesses the property data directly.">
<polygon fill="white" stroke="black" points="545.5,-49.5 545.5,-79.5 664.5,-79.5 664.5,-49.5 545.5,-49.5"/>
<text text-anchor="start" x="553.5" y="-67.5" font-family="Helvetica,sans-Serif" font-size="10.00">xiiMemberProperty&lt;</text>
<text text-anchor="middle" x="605" y="-56.5" font-family="Helvetica,sans-Serif" font-size="10.00"> Class, Type &gt;</text>
</a>
</g>
</g>
<!-- Node14&#45;&gt;Node15 -->
<g id="edge14" class="edge">
<title>Node14&#45;&gt;Node15</title>
<path fill="none" stroke="midnightblue" d="M499.19,-64.5C514.7,-64.5 530.71,-64.5 545.42,-64.5"/>
<polygon fill="midnightblue" stroke="midnightblue" points="499.09,-61 489.09,-64.5 499.09,-68 499.09,-61"/>
</g>
</g>
</svg>
