<?xml version="1.0" encoding="UTF-8" standalone="no"?>
<!DOCTYPE svg PUBLIC "-//W3C//DTD SVG 1.1//EN"
 "http://www.w3.org/Graphics/SVG/1.1/DTD/svg11.dtd">
<!-- Generated by graphviz version 2.43.0 (0)
 -->
<!-- Title: xiiAbstractMemberProperty Pages: 1 -->
<!--zoomable 317 -->

<svg id="main" version="1.1" xmlns="http://www.w3.org/2000/svg" xmlns:xlink="http://www.w3.org/1999/xlink" xml:space="preserve" onload="init(evt)">
<style type="text/css"><![CDATA[
.node, .edge {opacity: 0.7;}
.node.selected, .edge.selected {opacity: 1;}
.edge:hover path { stroke: red; }
.edge:hover polygon { stroke: red; fill: red; }
]]></style>

<defs>
  <circle id="rim" cx="0" cy="0" r="7"/>
  <circle id="rim2" cx="0" cy="0" r="3.5"/>
  <g id="zoomPlus">
    <use xlink:href="#rim" fill="#404040"><set attributeName="fill" to="#808080" begin="zoomplus.mouseover" end="zoomplus.mouseout"/></use>
    <path d="M-4,0h8M0,-4v8" fill="none" stroke="white" stroke-width="1.5" pointer-events="none"/>
  </g>
  <g id="zoomMin">
    <use xlink:href="#rim" fill="#404040"><set attributeName="fill" to="#808080" begin="zoomminus.mouseover" end="zoomminus.mouseout"/></use>
    <path d="M-4,0h8" fill="none" stroke="white" stroke-width="1.5" pointer-events="none"/>
  </g>
  <g id="arrowUp" transform="translate(30 24)">
    <use xlink:href="#rim"/>
    <path pointer-events="none" fill="none" stroke="white" stroke-width="1.5" d="M0,-3.0v7 M-2.5,-0.5L0,-3.0L2.5,-0.5"/>
  </g>
  <g id="arrowRight" transform="rotate(90) translate(36 -43)">
    <use xlink:href="#rim"/>
    <path pointer-events="none" fill="none" stroke="white" stroke-width="1.5" d="M0,-3.0v7 M-2.5,-0.5L0,-3.0L2.5,-0.5"/>
  </g>
  <g id="arrowDown" transform="rotate(180) translate(-30 -48)">
    <use xlink:href="#rim"/>
    <path pointer-events="none" fill="none" stroke="white" stroke-width="1.5" d="M0,-3.0v7 M-2.5,-0.5L0,-3.0L2.5,-0.5"/>
  </g>
  <g id="arrowLeft" transform="rotate(270) translate(-36 17)">
    <use xlink:href="#rim"/>
    <path pointer-events="none" fill="none" stroke="white" stroke-width="1.5" d="M0,-3.0v7 M-2.5,-0.5L0,-3.0L2.5,-0.5"/>
  </g>
  <g id="resetDef">
    <use xlink:href="#rim2" fill="#404040"><set attributeName="fill" to="#808080" begin="reset.mouseover" end="reset.mouseout"/></use>
  </g>
</defs>
<script type="application/ecmascript">
var viewWidth = 862;
var viewHeight = 317;
var sectionId = 'dynsection-0';
</script>
<script type="application/ecmascript" xlink:href="../../svg.min.js"/>
<svg id="graph" class="graph">
<g id="viewport">
<title>xiiAbstractMemberProperty</title>
<!-- Node1 -->
<g id="Node000001" class="node">
<title>Node1</title>
<g id="a_Node000001"><a xlink:title="This is the base class for all properties that are members of a class. It provides more information a...">
<polygon fill="#999999" stroke="#666666" points="297,-152.5 146,-152.5 146,-133.5 297,-133.5 297,-152.5"/>
<text text-anchor="middle" x="221.5" y="-140.5" font-family="Helvetica,sans-Serif" font-size="10.00">xiiAbstractMemberProperty</text>
</a>
</g>
</g>
<!-- Node3 -->
<g id="Node000003" class="node">
<title>Node3</title>
<g id="a_Node000003"><a xlink:href="../../df/ddc/classxii_typed_member_property.html" target="_top" xlink:title=" ">
<polygon fill="white" stroke="#666666" points="501.5,-308.5 337.5,-308.5 337.5,-267.5 501.5,-267.5 501.5,-308.5"/>
<text text-anchor="start" x="345.5" y="-296.5" font-family="Helvetica,sans-Serif" font-size="10.00">xiiTypedMemberProperty</text>
<text text-anchor="start" x="345.5" y="-285.5" font-family="Helvetica,sans-Serif" font-size="10.00">&lt; xiiTypeTraits&lt; Type</text>
<text text-anchor="middle" x="419.5" y="-274.5" font-family="Helvetica,sans-Serif" font-size="10.00"> &gt;::NonConstReferenceType &gt;</text>
</a>
</g>
</g>
<!-- Node1&#45;&gt;Node3 -->
<g id="edge2_Node000001_Node000003" class="edge">
<title>Node1&#45;&gt;Node3</title>
<g id="a_edge2_Node000001_Node000003"><a xlink:title=" ">
<path fill="none" stroke="#63b8ff" d="M235.44,-161.05C254.26,-186.1 291.52,-231.33 333,-258 338.43,-261.49 344.31,-264.63 350.36,-267.44"/>
<polygon fill="#63b8ff" stroke="#63b8ff" points="238.11,-158.78 229.36,-152.8 232.48,-162.93 238.11,-158.78"/>
</a>
</g>
</g>
<!-- Node5 -->
<g id="Node000005" class="node">
<title>Node5</title>
<g id="a_Node000005"><a xlink:href="../../df/ddc/classxii_typed_member_property.html" target="_top" xlink:title=" ">
<polygon fill="white" stroke="#666666" points="489,-249 350,-249 350,-219 489,-219 489,-249"/>
<text text-anchor="start" x="358" y="-237" font-family="Helvetica,sans-Serif" font-size="10.00">xiiTypedMemberProperty</text>
<text text-anchor="middle" x="419.5" y="-226" font-family="Helvetica,sans-Serif" font-size="10.00">&lt; xiiColor &gt;</text>
</a>
</g>
</g>
<!-- Node1&#45;&gt;Node5 -->
<g id="edge4_Node000001_Node000005" class="edge">
<title>Node1&#45;&gt;Node5</title>
<g id="a_edge4_Node000001_Node000005"><a xlink:title=" ">
<path fill="none" stroke="#63b8ff" d="M244.23,-158.63C265.85,-173.57 300.4,-195.86 333,-210 340.64,-213.31 348.86,-216.3 357.07,-218.94"/>
<polygon fill="#63b8ff" stroke="#63b8ff" points="246,-155.6 235.8,-152.72 241.98,-161.33 246,-155.6"/>
</a>
</g>
</g>
<!-- Node6 -->
<g id="Node000006" class="node">
<title>Node6</title>
<g id="a_Node000006"><a xlink:href="../../df/ddc/classxii_typed_member_property.html" target="_top" xlink:title=" ">
<polygon fill="white" stroke="#666666" points="489,-201 350,-201 350,-171 489,-171 489,-201"/>
<text text-anchor="start" x="358" y="-189" font-family="Helvetica,sans-Serif" font-size="10.00">xiiTypedMemberProperty</text>
<text text-anchor="middle" x="419.5" y="-178" font-family="Helvetica,sans-Serif" font-size="10.00">&lt; xiiColorGammaUB &gt;</text>
</a>
</g>
</g>
<!-- Node1&#45;&gt;Node6 -->
<g id="edge5_Node000001_Node000006" class="edge">
<title>Node1&#45;&gt;Node6</title>
<g id="a_edge5_Node000001_Node000006"><a xlink:title=" ">
<path fill="none" stroke="#63b8ff" d="M275.87,-154.71C298.75,-159.73 325.77,-165.66 350.1,-170.99"/>
<polygon fill="#63b8ff" stroke="#63b8ff" points="276.52,-151.27 266,-152.54 275.02,-158.1 276.52,-151.27"/>
</a>
</g>
</g>
<!-- Node7 -->
<g id="Node000007" class="node">
<title>Node7</title>
<g id="a_Node000007"><a xlink:href="../../d6/dfe/classxii_abstract_enumeration_property.html" target="_top" xlink:title="The base class for enum and bitflags member properties.">
<polygon fill="white" stroke="#666666" points="506,-152.5 333,-152.5 333,-133.5 506,-133.5 506,-152.5"/>
<text text-anchor="middle" x="419.5" y="-140.5" font-family="Helvetica,sans-Serif" font-size="10.00">xiiAbstractEnumerationProperty</text>
</a>
</g>
</g>
<!-- Node1&#45;&gt;Node7 -->
<g id="edge6_Node000001_Node000007" class="edge">
<title>Node1&#45;&gt;Node7</title>
<g id="a_edge6_Node000001_Node000007"><a xlink:title=" ">
<path fill="none" stroke="#63b8ff" d="M307.39,-143C315.85,-143 324.44,-143 332.9,-143"/>
<polygon fill="#63b8ff" stroke="#63b8ff" points="307.16,-139.5 297.16,-143 307.16,-146.5 307.16,-139.5"/>
</a>
</g>
</g>
<!-- Node13 -->
<g id="Node000013" class="node">
<title>Node13</title>
<g id="a_Node000013"><a xlink:href="../../db/db0/classxii_phantom_member_property.html" target="_top" xlink:title=" ">
<polygon fill="white" stroke="#bfbfbf" points="496.5,-115.5 342.5,-115.5 342.5,-96.5 496.5,-96.5 496.5,-115.5"/>
<text text-anchor="middle" x="419.5" y="-103.5" font-family="Helvetica,sans-Serif" font-size="10.00">xiiPhantomMemberProperty</text>
</a>
</g>
</g>
<!-- Node1&#45;&gt;Node13 -->
<g id="edge12_Node000001_Node000013" class="edge">
<title>Node1&#45;&gt;Node13</title>
<g id="a_edge12_Node000001_Node000013"><a xlink:title=" ">
<path fill="none" stroke="#63b8ff" d="M283.14,-131.55C310.31,-126.42 341.98,-120.44 367.86,-115.56"/>
<polygon fill="#63b8ff" stroke="#63b8ff" points="282.15,-128.18 272.97,-133.47 283.45,-135.06 282.15,-128.18"/>
</a>
</g>
</g>
<!-- Node14 -->
<g id="Node000014" class="node">
<title>Node14</title>
<g id="a_Node000014"><a xlink:href="../../df/ddc/classxii_typed_member_property.html" target="_top" xlink:title="The base class for all typed member properties. I.e. once the type of a property is determined,...">
<polygon fill="white" stroke="#666666" points="489,-78 350,-78 350,-48 489,-48 489,-78"/>
<text text-anchor="start" x="358" y="-66" font-family="Helvetica,sans-Serif" font-size="10.00">xiiTypedMemberProperty</text>
<text text-anchor="middle" x="419.5" y="-55" font-family="Helvetica,sans-Serif" font-size="10.00">&lt; Type &gt;</text>
</a>
</g>
</g>
<!-- Node1&#45;&gt;Node14 -->
<g id="edge13_Node000001_Node000014" class="edge">
<title>Node1&#45;&gt;Node14</title>
<g id="a_edge13_Node000001_Node000014"><a xlink:title=" ">
<path fill="none" stroke="#63b8ff" d="M247.88,-128.34C269.86,-116.08 302.8,-98.76 333,-87 341.33,-83.76 350.28,-80.75 359.13,-78.04"/>
<polygon fill="#63b8ff" stroke="#63b8ff" points="245.87,-125.45 238.88,-133.42 249.31,-131.55 245.87,-125.45"/>
</a>
</g>
</g>
<!-- Node16 -->
<g id="Node000016" class="node">
<title>Node16</title>
<g id="a_Node000016"><a xlink:href="../../dd/d54/classxii_typed_member_property_3_01const_01char_01_5_01_4.html" target="_top" xlink:title="Specialization of xiiTypedMemberProperty for const char*.">
<polygon fill="white" stroke="#666666" points="489,-30 350,-30 350,0 489,0 489,-30"/>
<text text-anchor="start" x="358" y="-18" font-family="Helvetica,sans-Serif" font-size="10.00">xiiTypedMemberProperty</text>
<text text-anchor="middle" x="419.5" y="-7" font-family="Helvetica,sans-Serif" font-size="10.00">&lt; const char * &gt;</text>
</a>
</g>
</g>
<!-- Node1&#45;&gt;Node16 -->
<g id="edge15_Node000001_Node000016" class="edge">
<title>Node1&#45;&gt;Node16</title>
<g id="a_edge15_Node000001_Node000016"><a xlink:title=" ">
<path fill="none" stroke="#63b8ff" d="M236.44,-125.39C255.72,-102.22 292.73,-61.76 333,-39 339.04,-35.59 345.6,-32.63 352.31,-30.08"/>
<polygon fill="#63b8ff" stroke="#63b8ff" points="233.56,-123.39 229.95,-133.36 238.98,-127.82 233.56,-123.39"/>
</a>
</g>
</g>
<!-- Node2 -->
<g id="Node000002" class="node">
<title>Node2</title>
<g id="a_Node000002"><a xlink:href="../../da/d25/classxii_abstract_property.html" target="_top" xlink:title="This is the base interface for all properties in the reflection system. It provides enough informatio...">
<polygon fill="white" stroke="#666666" points="110,-152.5 0,-152.5 0,-133.5 110,-133.5 110,-152.5"/>
<text text-anchor="middle" x="55" y="-140.5" font-family="Helvetica,sans-Serif" font-size="10.00">xiiAbstractProperty</text>
</a>
</g>
</g>
<!-- Node2&#45;&gt;Node1 -->
<g id="edge1_Node000001_Node000002" class="edge">
<title>Node2&#45;&gt;Node1</title>
<g id="a_edge1_Node000001_Node000002"><a xlink:title=" ">
<path fill="none" stroke="#63b8ff" d="M120.4,-143C128.79,-143 137.44,-143 145.98,-143"/>
<polygon fill="#63b8ff" stroke="#63b8ff" points="120.32,-139.5 110.32,-143 120.32,-146.5 120.32,-139.5"/>
</a>
</g>
</g>
<!-- Node4 -->
<g id="Node000004" class="node">
<title>Node4</title>
<g id="a_Node000004"><a xlink:href="../../d4/dfb/classxii_accessor_property.html" target="_top" xlink:title="[internal] An implementation of xiiTypedMemberProperty that uses custom getter / setter functions to ...">
<polygon fill="white" stroke="#666666" points="661.5,-303 548.5,-303 548.5,-273 661.5,-273 661.5,-303"/>
<text text-anchor="start" x="556.5" y="-291" font-family="Helvetica,sans-Serif" font-size="10.00">xiiAccessorProperty</text>
<text text-anchor="middle" x="605" y="-280" font-family="Helvetica,sans-Serif" font-size="10.00">&lt; Class, Type &gt;</text>
</a>
</g>
</g>
<!-- Node3&#45;&gt;Node4 -->
<g id="edge3_Node000003_Node000004" class="edge">
<title>Node3&#45;&gt;Node4</title>
<g id="a_edge3_Node000003_Node000004"><a xlink:title=" ">
<path fill="none" stroke="#63b8ff" d="M511.58,-288C524.16,-288 536.75,-288 548.42,-288"/>
<polygon fill="#63b8ff" stroke="#63b8ff" points="511.52,-284.5 501.52,-288 511.52,-291.5 511.52,-284.5"/>
</a>
</g>
</g>
<!-- Node8 -->
<g id="Node000008" class="node">
<title>Node8</title>
<g id="a_Node000008"><a xlink:href="../../dc/d9b/classxii_typed_enum_property.html" target="_top" xlink:title="[internal] Base class for enum / bitflags properties that already defines the type.">
<polygon fill="white" stroke="#666666" points="668,-158 542,-158 542,-128 668,-128 668,-158"/>
<text text-anchor="start" x="550" y="-146" font-family="Helvetica,sans-Serif" font-size="10.00">xiiTypedEnumProperty</text>
<text text-anchor="middle" x="605" y="-135" font-family="Helvetica,sans-Serif" font-size="10.00">&lt; EnumType &gt;</text>
</a>
</g>
</g>
<!-- Node7&#45;&gt;Node8 -->
<g id="edge7_Node000007_Node000008" class="edge">
<title>Node7&#45;&gt;Node8</title>
<g id="a_edge7_Node000007_Node000008"><a xlink:title=" ">
<path fill="none" stroke="#63b8ff" d="M516.26,-143C524.93,-143 533.56,-143 541.82,-143"/>
<polygon fill="#63b8ff" stroke="#63b8ff" points="516.07,-139.5 506.07,-143 516.07,-146.5 516.07,-139.5"/>
</a>
</g>
</g>
<!-- Node9 -->
<g id="Node000009" class="node">
<title>Node9</title>
<g id="a_Node000009"><a xlink:href="../../d6/d60/classxii_bitflags_accessor_property.html" target="_top" xlink:title="[internal] An implementation of xiiTypedEnumProperty that uses custom getter / setter functions to ac...">
<polygon fill="white" stroke="#666666" points="854,-230 704,-230 704,-200 854,-200 854,-230"/>
<text text-anchor="start" x="712" y="-218" font-family="Helvetica,sans-Serif" font-size="10.00">xiiBitflagsAccessorProperty</text>
<text text-anchor="middle" x="779" y="-207" font-family="Helvetica,sans-Serif" font-size="10.00">&lt; Class, EnumType, Type &gt;</text>
</a>
</g>
</g>
<!-- Node8&#45;&gt;Node9 -->
<g id="edge8_Node000008_Node000009" class="edge">
<title>Node8&#45;&gt;Node9</title>
<g id="a_edge8_Node000008_Node000009"><a xlink:title=" ">
<path fill="none" stroke="#63b8ff" d="M643.28,-162.81C661.34,-172.01 683.51,-182.71 704,-191 711.76,-194.14 720.11,-197.17 728.29,-199.95"/>
<polygon fill="#63b8ff" stroke="#63b8ff" points="644.74,-159.62 634.24,-158.16 641.54,-165.85 644.74,-159.62"/>
</a>
</g>
</g>
<!-- Node10 -->
<g id="Node000010" class="node">
<title>Node10</title>
<g id="a_Node000010"><a xlink:href="../../d1/d27/classxii_bitflags_member_property.html" target="_top" xlink:title="[internal] An implementation of xiiTypedEnumProperty that accesses the bitflags property data directl...">
<polygon fill="white" stroke="#666666" points="854,-182 704,-182 704,-152 854,-152 854,-182"/>
<text text-anchor="start" x="712" y="-170" font-family="Helvetica,sans-Serif" font-size="10.00">xiiBitflagsMemberProperty</text>
<text text-anchor="middle" x="779" y="-159" font-family="Helvetica,sans-Serif" font-size="10.00">&lt; Class, EnumType, Type &gt;</text>
</a>
</g>
</g>
<!-- Node8&#45;&gt;Node10 -->
<g id="edge9_Node000008_Node000010" class="edge">
<title>Node8&#45;&gt;Node10</title>
<g id="a_edge9_Node000008_Node000010"><a xlink:title=" ">
<path fill="none" stroke="#63b8ff" d="M678.05,-153.05C686.62,-154.25 695.38,-155.47 703.98,-156.67"/>
<polygon fill="#63b8ff" stroke="#63b8ff" points="678.48,-149.58 668.1,-151.66 677.52,-156.51 678.48,-149.58"/>
</a>
</g>
</g>
<!-- Node11 -->
<g id="Node000011" class="node">
<title>Node11</title>
<g id="a_Node000011"><a xlink:href="../../dd/d56/classxii_enum_accessor_property.html" target="_top" xlink:title="[internal] An implementation of xiiTypedEnumProperty that uses custom getter / setter functions to ac...">
<polygon fill="white" stroke="#666666" points="854,-134 704,-134 704,-104 854,-104 854,-134"/>
<text text-anchor="start" x="712" y="-122" font-family="Helvetica,sans-Serif" font-size="10.00">xiiEnumAccessorProperty</text>
<text text-anchor="middle" x="779" y="-111" font-family="Helvetica,sans-Serif" font-size="10.00">&lt; Class, EnumType, Type &gt;</text>
</a>
</g>
</g>
<!-- Node8&#45;&gt;Node11 -->
<g id="edge10_Node000008_Node000011" class="edge">
<title>Node8&#45;&gt;Node11</title>
<g id="a_edge10_Node000008_Node000011"><a xlink:title=" ">
<path fill="none" stroke="#63b8ff" d="M678.05,-132.95C686.62,-131.75 695.38,-130.53 703.98,-129.33"/>
<polygon fill="#63b8ff" stroke="#63b8ff" points="677.52,-129.49 668.1,-134.34 678.48,-136.42 677.52,-129.49"/>
</a>
</g>
</g>
<!-- Node12 -->
<g id="Node000012" class="node">
<title>Node12</title>
<g id="a_Node000012"><a xlink:href="../../d7/d14/classxii_enum_member_property.html" target="_top" xlink:title="[internal] An implementation of xiiTypedEnumProperty that accesses the enum property data directly.">
<polygon fill="white" stroke="#666666" points="854,-86 704,-86 704,-56 854,-56 854,-86"/>
<text text-anchor="start" x="712" y="-74" font-family="Helvetica,sans-Serif" font-size="10.00">xiiEnumMemberProperty</text>
<text text-anchor="middle" x="779" y="-63" font-family="Helvetica,sans-Serif" font-size="10.00">&lt; Class, EnumType, Type &gt;</text>
</a>
</g>
</g>
<!-- Node8&#45;&gt;Node12 -->
<g id="edge11_Node000008_Node000012" class="edge">
<title>Node8&#45;&gt;Node12</title>
<g id="a_edge11_Node000008_Node000012"><a xlink:title=" ">
<path fill="none" stroke="#63b8ff" d="M643.28,-123.19C661.34,-113.99 683.51,-103.29 704,-95 711.76,-91.86 720.11,-88.83 728.29,-86.05"/>
<polygon fill="#63b8ff" stroke="#63b8ff" points="641.54,-120.15 634.24,-127.84 644.74,-126.38 641.54,-120.15"/>
</a>
</g>
</g>
<!-- Node15 -->
<g id="Node000015" class="node">
<title>Node15</title>
<g id="a_Node000015"><a xlink:href="../../d0/d56/classxii_member_property.html" target="_top" xlink:title="[internal] An implementation of xiiTypedMemberProperty that accesses the property data directly.">
<polygon fill="white" stroke="#666666" points="664.5,-78 545.5,-78 545.5,-48 664.5,-48 664.5,-78"/>
<text text-anchor="start" x="553.5" y="-66" font-family="Helvetica,sans-Serif" font-size="10.00">xiiMemberProperty&lt;</text>
<text text-anchor="middle" x="605" y="-55" font-family="Helvetica,sans-Serif" font-size="10.00"> Class, Type &gt;</text>
</a>
</g>
</g>
<!-- Node14&#45;&gt;Node15 -->
<g id="edge14_Node000014_Node000015" class="edge">
<title>Node14&#45;&gt;Node15</title>
<g id="a_edge14_Node000014_Node000015"><a xlink:title=" ">
<path fill="none" stroke="#63b8ff" d="M499.19,-63C514.7,-63 530.71,-63 545.42,-63"/>
<polygon fill="#63b8ff" stroke="#63b8ff" points="499.09,-59.5 489.09,-63 499.09,-66.5 499.09,-59.5"/>
</a>
</g>
</g>
</g>
</svg>

<g id="navigator" transform="translate(0 0)" fill="#404254">
  <rect fill="#f2f5e9" fill-opacity="0.5" stroke="#606060" stroke-width=".5" x="0" y="0" width="60" height="60"/>
  <use id="zoomplus" xlink:href="#zoomPlus" x="17" y="9" onmousedown="handleZoom(evt,'in')"/>
  <use id="zoomminus" xlink:href="#zoomMin" x="42" y="9" onmousedown="handleZoom(evt,'out')"/>
  <use id="reset" xlink:href="#resetDef" x="30" y="36" onmousedown="handleReset()"/>
   <use id="arrowup" xlink:href="#arrowUp" x="0" y="0" onmousedown="handlePan(0,-1)"/>
  <use id="arrowright" xlink:href="#arrowRight" x="0" y="0" onmousedown="handlePan(1,0)"/>
  <use id="arrowdown" xlink:href="#arrowDown" x="0" y="0" onmousedown="handlePan(0,1)"/>
  <use id="arrowleft" xlink:href="#arrowLeft" x="0" y="0" onmousedown="handlePan(-1,0)"/>
</g>
<svg viewBox="0 0 15 15" width="100%" height="30px" preserveAspectRatio="xMaxYMin meet">
 <g id="arrow_out" transform="scale(0.3 0.3)">
  <a xlink:href="classxii_abstract_member_property__inherit__graph_org.svg" target="_base">
   <rect id="button" ry="5" rx="5" y="6" x="6" height="38" width="38"
        fill="#f2f5e9" fill-opacity="0.5" stroke="#606060" stroke-width="1.0"/>
   <path id="arrow"
     d="M 11.500037,31.436501 C 11.940474,20.09759 22.043105,11.32322 32.158766,21.979434 L 37.068811,17.246167 C 37.068811,17.246167 37.088388,32 37.088388,32 L 22.160133,31.978069 C 22.160133,31.978069 26.997745,27.140456 26.997745,27.140456 C 18.528582,18.264221 13.291696,25.230495 11.500037,31.436501 z"
     style="fill:#404040;"/>
  </a>
 </g>
</svg>

<style type='text/css'>
<![CDATA[
[data-mouse-over-selected='false'] { opacity: 0.7; }
[data-mouse-over-selected='true']  { opacity: 1.0; }
]]>
</style>
<script type="application/ecmascript"><![CDATA[
document.addEventListener('DOMContentLoaded', (event) => {
  highlightEdges();
  highlightAdjacentNodes();
});
]]></script>
</svg>
