<?xml version="1.0" encoding="UTF-8" standalone="no"?>
<!DOCTYPE svg PUBLIC "-//W3C//DTD SVG 1.1//EN"
 "http://www.w3.org/Graphics/SVG/1.1/DTD/svg11.dtd">
<!-- Generated by graphviz version 2.43.0 (0)
 -->
<!-- Title: xiiLocalBlackboardComponent Pages: 1 -->
<svg width="173pt" height="252pt"
 viewBox="0.00 0.00 173.00 252.00" xmlns="http://www.w3.org/2000/svg" xmlns:xlink="http://www.w3.org/1999/xlink">
<g id="graph0" class="graph" transform="scale(1 1) rotate(0) translate(4 248)">
<title>xiiLocalBlackboardComponent</title>
<polygon fill="white" stroke="transparent" points="-4,4 -4,-248 169,-248 169,4 -4,4"/>
<!-- Node1 -->
<g id="node1" class="node">
<title>Node1</title>
<g id="a_node1"><a xlink:title="This component creates its own xiiBlackboard, and thus locally holds state.">
<polygon fill="#bfbfbf" stroke="black" points="0,-0.5 0,-19.5 165,-19.5 165,-0.5 0,-0.5"/>
<text text-anchor="middle" x="82.5" y="-7.5" font-family="Helvetica,sans-Serif" font-size="10.00">xiiLocalBlackboardComponent</text>
</a>
</g>
</g>
<!-- Node2 -->
<g id="node2" class="node">
<title>Node2</title>
<g id="a_node2"><a xlink:href="../../d1/d4e/classxii_blackboard_component.htm" target="_top" xlink:title="This base component represents an xiiBlackboard, which can be used to share state between multiple co...">
<polygon fill="white" stroke="black" points="12.5,-56.5 12.5,-75.5 152.5,-75.5 152.5,-56.5 12.5,-56.5"/>
<text text-anchor="middle" x="82.5" y="-63.5" font-family="Helvetica,sans-Serif" font-size="10.00">xiiBlackboardComponent</text>
</a>
</g>
</g>
<!-- Node2&#45;&gt;Node1 -->
<g id="edge1" class="edge">
<title>Node2&#45;&gt;Node1</title>
<path fill="none" stroke="midnightblue" d="M82.5,-45.8C82.5,-36.91 82.5,-26.78 82.5,-19.75"/>
<polygon fill="midnightblue" stroke="midnightblue" points="79,-46.08 82.5,-56.08 86,-46.08 79,-46.08"/>
</g>
<!-- Node3 -->
<g id="node3" class="node">
<title>Node3</title>
<g id="a_node3"><a xlink:href="../../db/d60/classxii_component.htm" target="_top" xlink:title="Base class of all component types.">
<polygon fill="white" stroke="black" points="40,-112.5 40,-131.5 125,-131.5 125,-112.5 40,-112.5"/>
<text text-anchor="middle" x="82.5" y="-119.5" font-family="Helvetica,sans-Serif" font-size="10.00">xiiComponent</text>
</a>
</g>
</g>
<!-- Node3&#45;&gt;Node2 -->
<g id="edge2" class="edge">
<title>Node3&#45;&gt;Node2</title>
<path fill="none" stroke="midnightblue" d="M82.5,-101.8C82.5,-92.91 82.5,-82.78 82.5,-75.75"/>
<polygon fill="midnightblue" stroke="midnightblue" points="79,-102.08 82.5,-112.08 86,-102.08 79,-102.08"/>
</g>
<!-- Node4 -->
<g id="node4" class="node">
<title>Node4</title>
<g id="a_node4"><a xlink:href="../../dc/d71/classxii_reflected_class.htm" target="_top" xlink:title="All classes that should be dynamically reflectable, need to be derived from this base class.">
<polygon fill="white" stroke="black" points="32,-168.5 32,-187.5 133,-187.5 133,-168.5 32,-168.5"/>
<text text-anchor="middle" x="82.5" y="-175.5" font-family="Helvetica,sans-Serif" font-size="10.00">xiiReflectedClass</text>
</a>
</g>
</g>
<!-- Node4&#45;&gt;Node3 -->
<g id="edge3" class="edge">
<title>Node4&#45;&gt;Node3</title>
<path fill="none" stroke="midnightblue" d="M82.5,-157.8C82.5,-148.91 82.5,-138.78 82.5,-131.75"/>
<polygon fill="midnightblue" stroke="midnightblue" points="79,-158.08 82.5,-168.08 86,-158.08 79,-158.08"/>
</g>
<!-- Node5 -->
<g id="node5" class="node">
<title>Node5</title>
<g id="a_node5"><a xlink:href="../../d2/d38/classxii_no_base.htm" target="_top" xlink:title="Dummy type to pass to templates and macros that expect a base type for a class that has no base.">
<polygon fill="white" stroke="black" points="49.5,-224.5 49.5,-243.5 115.5,-243.5 115.5,-224.5 49.5,-224.5"/>
<text text-anchor="middle" x="82.5" y="-231.5" font-family="Helvetica,sans-Serif" font-size="10.00">xiiNoBase</text>
</a>
</g>
</g>
<!-- Node5&#45;&gt;Node4 -->
<g id="edge4" class="edge">
<title>Node5&#45;&gt;Node4</title>
<path fill="none" stroke="midnightblue" d="M82.5,-213.8C82.5,-204.91 82.5,-194.78 82.5,-187.75"/>
<polygon fill="midnightblue" stroke="midnightblue" points="79,-214.08 82.5,-224.08 86,-214.08 79,-214.08"/>
</g>
</g>
</svg>
