<?xml version="1.0" encoding="UTF-8" standalone="no"?>
<!DOCTYPE svg PUBLIC "-//W3C//DTD SVG 1.1//EN"
 "http://www.w3.org/Graphics/SVG/1.1/DTD/svg11.dtd">
<!-- Generated by graphviz version 2.43.0 (0)
 -->
<!-- Title: xiiInternal::xiiAllocatorImpl&lt; AllocationPolicy, TrackingMode &gt; Pages: 1 -->
<!--zoomable 223 -->
<svg id="main" version="1.1" xmlns="http://www.w3.org/2000/svg" xmlns:xlink="http://www.w3.org/1999/xlink" xml:space="preserve" onload="init(evt)">
<style type="text/css"><![CDATA[
.edge:hover path { stroke: red; }
.edge:hover polygon { stroke: red; fill: red; }
]]></style>
<script type="text/javascript"><![CDATA[
var edges = document.getElementsByTagName('g');
if (edges && edges.length) {
  for (var i=0;i<edges.length;i++) {
    if (edges[i].id.substr(0,4)=='edge') {
      edges[i].setAttribute('class','edge');
    }
  }
}
]]></script>
        <defs>
                <circle id="rim" cx="0" cy="0" r="7"/>
                <circle id="rim2" cx="0" cy="0" r="3.5"/>
                <g id="zoomPlus">
                        <use xlink:href="#rim" fill="#404040">
                                <set attributeName="fill" to="#808080" begin="zoomplus.mouseover" end="zoomplus.mouseout"/>
                        </use>
                        <path d="M-4,0h8M0,-4v8" fill="none" stroke="white" stroke-width="1.5" pointer-events="none"/>
                </g>
                <g id="zoomMin">
                        <use xlink:href="#rim" fill="#404040">
                                <set attributeName="fill" to="#808080" begin="zoomminus.mouseover" end="zoomminus.mouseout"/>
                        </use>
                        <path d="M-4,0h8" fill="none" stroke="white" stroke-width="1.5" pointer-events="none"/>
                </g>
                <g id="dirArrow">
                        <path fill="none" stroke="white" stroke-width="1.5" d="M0,-3.0v7 M-2.5,-0.5L0,-3.0L2.5,-0.5"/>
                </g>
               <g id="resetDef">
                       <use xlink:href="#rim2" fill="#404040">
                               <set attributeName="fill" to="#808080" begin="reset.mouseover" end="reset.mouseout"/>
                       </use>
               </g>
        </defs>

<script type="text/javascript">
var viewWidth = 891;
var viewHeight = 223;
var sectionId = 'dynsection-0';
</script>
<script xlink:href="../../svgpan.js"/>
<svg id="graph" class="graph">
<g id="viewport">
<title>xiiInternal::xiiAllocatorImpl&lt; AllocationPolicy, TrackingMode &gt;</title>
<polygon fill="white" stroke="transparent" points="-4,4 -4,-218.5 887,-218.5 887,4 -4,4"/>
<!-- Node1 -->
<g id="node1" class="node">
<title>Node1</title>
<g id="a_node1"><a xlink:title=" ">
<polygon fill="#bfbfbf" stroke="black" points="132,-60.5 132,-101.5 263,-101.5 263,-60.5 132,-60.5"/>
<text text-anchor="start" x="140" y="-89.5" font-family="Helvetica,sans-Serif" font-size="10.00">xiiInternal::xiiAllocator</text>
<text text-anchor="start" x="140" y="-78.5" font-family="Helvetica,sans-Serif" font-size="10.00">Impl&lt; AllocationPolicy,</text>
<text text-anchor="middle" x="197.5" y="-67.5" font-family="Helvetica,sans-Serif" font-size="10.00"> TrackingMode &gt;</text>
</a>
</g>
</g>
<!-- Node3 -->
<g id="node3" class="node">
<title>Node3</title>
<g id="a_node3"><a xlink:href="../../d9/dcd/classxii_internal_1_1xii_allocator_mixin_reallocate.htm" target="_top" xlink:title=" ">
<polygon fill="white" stroke="black" points="299,-140 299,-214 493,-214 493,-140 299,-140"/>
<text text-anchor="start" x="307" y="-202" font-family="Helvetica,sans-Serif" font-size="10.00">xiiInternal::xiiAllocator</text>
<text text-anchor="start" x="307" y="-191" font-family="Helvetica,sans-Serif" font-size="10.00">MixinReallocate&lt; AllocationPolicy,</text>
<text text-anchor="start" x="307" y="-180" font-family="Helvetica,sans-Serif" font-size="10.00"> xiiAllocatorTrackingMode::Default,</text>
<text text-anchor="start" x="307" y="-169" font-family="Helvetica,sans-Serif" font-size="10.00"> xiiHasReallocate&lt; AllocationPolicy,</text>
<text text-anchor="start" x="307" y="-158" font-family="Helvetica,sans-Serif" font-size="10.00"> void *(AllocationPolicy::*)(void *,</text>
<text text-anchor="middle" x="396" y="-147" font-family="Helvetica,sans-Serif" font-size="10.00"> size_t, size_t, size_t)&gt;::value &gt;</text>
</a>
</g>
</g>
<!-- Node1&#45;&gt;Node3 -->
<g id="edge2" class="edge">
<title>Node1&#45;&gt;Node3</title>
<path fill="none" stroke="midnightblue" d="M249.79,-106.06C270.98,-116.41 295.99,-128.63 319.22,-139.98"/>
<polygon fill="midnightblue" stroke="midnightblue" points="251.18,-102.84 240.65,-101.59 248.1,-109.13 251.18,-102.84"/>
</g>
<!-- Node5 -->
<g id="node5" class="node">
<title>Node5</title>
<g id="a_node5"><a xlink:href="../../d9/dcd/classxii_internal_1_1xii_allocator_mixin_reallocate.htm" target="_top" xlink:title=" ">
<polygon fill="white" stroke="black" points="302,-60.5 302,-101.5 490,-101.5 490,-60.5 302,-60.5"/>
<text text-anchor="start" x="310" y="-89.5" font-family="Helvetica,sans-Serif" font-size="10.00">xiiInternal::xiiAllocator</text>
<text text-anchor="start" x="310" y="-78.5" font-family="Helvetica,sans-Serif" font-size="10.00">MixinReallocate&lt; AllocationPolicy,</text>
<text text-anchor="middle" x="396" y="-67.5" font-family="Helvetica,sans-Serif" font-size="10.00"> TrackingMode, HasReallocate &gt;</text>
</a>
</g>
</g>
<!-- Node1&#45;&gt;Node5 -->
<g id="edge4" class="edge">
<title>Node1&#45;&gt;Node5</title>
<path fill="none" stroke="midnightblue" d="M273.16,-81C282.55,-81 292.24,-81 301.87,-81"/>
<polygon fill="midnightblue" stroke="midnightblue" points="273.11,-77.5 263.11,-81 273.11,-84.5 273.11,-77.5"/>
</g>
<!-- Node10 -->
<g id="node10" class="node">
<title>Node10</title>
<g id="a_node10"><a xlink:href="../../d8/dee/classxii_internal_1_1xii_allocator_mixin_reallocate_3_01_allocation_policy_00_01_tracking_mode_00_01true_01_4.htm" target="_top" xlink:title=" ">
<polygon fill="white" stroke="black" points="302,-0.5 302,-41.5 490,-41.5 490,-0.5 302,-0.5"/>
<text text-anchor="start" x="310" y="-29.5" font-family="Helvetica,sans-Serif" font-size="10.00">xiiInternal::xiiAllocator</text>
<text text-anchor="start" x="310" y="-18.5" font-family="Helvetica,sans-Serif" font-size="10.00">MixinReallocate&lt; AllocationPolicy,</text>
<text text-anchor="middle" x="396" y="-7.5" font-family="Helvetica,sans-Serif" font-size="10.00"> TrackingMode, true &gt;</text>
</a>
</g>
</g>
<!-- Node1&#45;&gt;Node10 -->
<g id="edge9" class="edge">
<title>Node1&#45;&gt;Node10</title>
<path fill="none" stroke="midnightblue" d="M272.96,-58.26C290.93,-52.78 310.03,-46.95 327.65,-41.56"/>
<polygon fill="midnightblue" stroke="midnightblue" points="271.66,-55 263.11,-61.27 273.7,-61.7 271.66,-55"/>
</g>
<!-- Node2 -->
<g id="node2" class="node">
<title>Node2</title>
<g id="a_node2"><a xlink:href="../../d5/d66/classxii_allocator_base.htm" target="_top" xlink:title="Base class for all memory allocators.">
<polygon fill="white" stroke="black" points="0,-71.5 0,-90.5 96,-90.5 96,-71.5 0,-71.5"/>
<text text-anchor="middle" x="48" y="-78.5" font-family="Helvetica,sans-Serif" font-size="10.00">xiiAllocatorBase</text>
</a>
</g>
</g>
<!-- Node2&#45;&gt;Node1 -->
<g id="edge1" class="edge">
<title>Node2&#45;&gt;Node1</title>
<path fill="none" stroke="midnightblue" d="M106.16,-81C114.58,-81 123.3,-81 131.85,-81"/>
<polygon fill="midnightblue" stroke="midnightblue" points="106.08,-77.5 96.08,-81 106.08,-84.5 106.08,-77.5"/>
</g>
<!-- Node4 -->
<g id="node4" class="node">
<title>Node4</title>
<g id="a_node4"><a xlink:href="../../df/dbd/classxii_allocator.htm" target="_top" xlink:title="Policy based allocator implementation of the xiiAllocatorBase interface.">
<polygon fill="white" stroke="black" points="568.5,-172 568.5,-202 700.5,-202 700.5,-172 568.5,-172"/>
<text text-anchor="start" x="576.5" y="-190" font-family="Helvetica,sans-Serif" font-size="10.00">xiiAllocator&lt; Allocation</text>
<text text-anchor="middle" x="634.5" y="-179" font-family="Helvetica,sans-Serif" font-size="10.00">Policy, TrackingMode &gt;</text>
</a>
</g>
</g>
<!-- Node3&#45;&gt;Node4 -->
<g id="edge3" class="edge">
<title>Node3&#45;&gt;Node4</title>
<path fill="none" stroke="midnightblue" d="M503.35,-181.5C525.55,-182.44 548.32,-183.4 568.48,-184.25"/>
<polygon fill="midnightblue" stroke="midnightblue" points="503.33,-177.99 493.19,-181.07 503.04,-184.99 503.33,-177.99"/>
</g>
<!-- Node6 -->
<g id="node6" class="node">
<title>Node6</title>
<g id="a_node6"><a xlink:href="../../df/dbd/classxii_allocator.htm" target="_top" xlink:title=" ">
<polygon fill="white" stroke="black" points="529,-111.5 529,-152.5 740,-152.5 740,-111.5 529,-111.5"/>
<text text-anchor="start" x="537" y="-140.5" font-family="Helvetica,sans-Serif" font-size="10.00">xiiAllocator&lt; xiiMemoryPolicies</text>
<text text-anchor="start" x="537" y="-129.5" font-family="Helvetica,sans-Serif" font-size="10.00">::xiiHeapAllocation, xiiAllocatorTracking</text>
<text text-anchor="middle" x="634.5" y="-118.5" font-family="Helvetica,sans-Serif" font-size="10.00">Mode::DoNotTrack &gt;</text>
</a>
</g>
</g>
<!-- Node5&#45;&gt;Node6 -->
<g id="edge5" class="edge">
<title>Node5&#45;&gt;Node6</title>
<path fill="none" stroke="midnightblue" d="M500.18,-103.25C512.79,-105.97 525.63,-108.74 538.12,-111.43"/>
<polygon fill="midnightblue" stroke="midnightblue" points="500.64,-99.77 490.13,-101.08 499.17,-106.61 500.64,-99.77"/>
</g>
<!-- Node7 -->
<g id="node7" class="node">
<title>Node7</title>
<g id="a_node7"><a xlink:href="../../df/dbd/classxii_allocator.htm" target="_top" xlink:title=" ">
<polygon fill="white" stroke="black" points="548,-51.5 548,-92.5 721,-92.5 721,-51.5 548,-51.5"/>
<text text-anchor="start" x="556" y="-80.5" font-family="Helvetica,sans-Serif" font-size="10.00">xiiAllocator&lt; xiiMemoryPolicies</text>
<text text-anchor="start" x="556" y="-69.5" font-family="Helvetica,sans-Serif" font-size="10.00">::xiiStackAllocation, xiiAllocator</text>
<text text-anchor="middle" x="634.5" y="-58.5" font-family="Helvetica,sans-Serif" font-size="10.00">TrackingMode::Default &gt;</text>
</a>
</g>
</g>
<!-- Node5&#45;&gt;Node7 -->
<g id="edge6" class="edge">
<title>Node5&#45;&gt;Node7</title>
<path fill="none" stroke="midnightblue" d="M500.45,-77.06C516.25,-76.46 532.41,-75.85 547.77,-75.26"/>
<polygon fill="midnightblue" stroke="midnightblue" points="499.99,-73.58 490.13,-77.46 500.26,-80.57 499.99,-73.58"/>
</g>
<!-- Node9 -->
<g id="node9" class="node">
<title>Node9</title>
<g id="a_node9"><a xlink:href="../../df/dbd/classxii_allocator.htm" target="_top" xlink:title=" ">
<polygon fill="white" stroke="black" points="548,-2 548,-32 721,-32 721,-2 548,-2"/>
<text text-anchor="start" x="556" y="-20" font-family="Helvetica,sans-Serif" font-size="10.00">xiiAllocator&lt; xiiMemoryPolicies</text>
<text text-anchor="middle" x="634.5" y="-9" font-family="Helvetica,sans-Serif" font-size="10.00">::xiiProxyAllocation &gt;</text>
</a>
</g>
</g>
<!-- Node5&#45;&gt;Node9 -->
<g id="edge8" class="edge">
<title>Node5&#45;&gt;Node9</title>
<path fill="none" stroke="midnightblue" d="M473.6,-57.63C491.71,-52.31 511,-46.81 529,-42 541.71,-38.61 555.34,-35.18 568.42,-32.01"/>
<polygon fill="midnightblue" stroke="midnightblue" points="472.56,-54.29 463.96,-60.48 474.54,-61 472.56,-54.29"/>
</g>
<!-- Node8 -->
<g id="node8" class="node">
<title>Node8</title>
<g id="a_node8"><a xlink:href="../../de/d0e/classxii_stack_allocator.htm" target="_top" xlink:title=" ">
<polygon fill="white" stroke="black" points="776,-57 776,-87 883,-87 883,-57 776,-57"/>
<text text-anchor="start" x="784" y="-75" font-family="Helvetica,sans-Serif" font-size="10.00">xiiStackAllocator&lt;</text>
<text text-anchor="middle" x="829.5" y="-64" font-family="Helvetica,sans-Serif" font-size="10.00"> TrackingMode &gt;</text>
</a>
</g>
</g>
<!-- Node7&#45;&gt;Node8 -->
<g id="edge7" class="edge">
<title>Node7&#45;&gt;Node8</title>
<path fill="none" stroke="midnightblue" d="M731.35,-72C746.71,-72 762.1,-72 775.95,-72"/>
<polygon fill="midnightblue" stroke="midnightblue" points="731.28,-68.5 721.28,-72 731.28,-75.5 731.28,-68.5"/>
</g>
</g>
</svg>
        <g id="navigator" transform="translate(0 0)" fill="#404254">
                <rect fill="#f2f5e9" fill-opacity="0.5" stroke="#606060" stroke-width=".5" x="0" y="0" width="60" height="60"/>
                <use id="zoomplus" xlink:href="#zoomPlus" x="17" y="9" onmousedown="handleZoom(evt,'in')"/>
                <use id="zoomminus" xlink:href="#zoomMin" x="42" y="9" onmousedown="handleZoom(evt,'out')"/>
                <use id="reset" xlink:href="#resetDef" x="30" y="36" onmousedown="handleReset()"/>
                <g id="arrowUp" xlink:href="#dirArrow" transform="translate(30 24)" onmousedown="handlePan(0,-1)">
                  <use xlink:href="#rim" fill="#404040">
                        <set attributeName="fill" to="#808080" begin="arrowUp.mouseover" end="arrowUp.mouseout"/>
                  </use>
                  <path fill="none" stroke="white" stroke-width="1.5" d="M0,-3.0v7 M-2.5,-0.5L0,-3.0L2.5,-0.5"/>
                </g>
                <g id="arrowRight" xlink:href="#dirArrow" transform="rotate(90) translate(36 -43)" onmousedown="handlePan(1,0)">
                  <use xlink:href="#rim" fill="#404040">
                        <set attributeName="fill" to="#808080" begin="arrowRight.mouseover" end="arrowRight.mouseout"/>
                  </use>
                  <path fill="none" stroke="white" stroke-width="1.5" d="M0,-3.0v7 M-2.5,-0.5L0,-3.0L2.5,-0.5"/>
                </g>
                <g id="arrowDown" xlink:href="#dirArrow" transform="rotate(180) translate(-30 -48)" onmousedown="handlePan(0,1)">
                  <use xlink:href="#rim" fill="#404040">
                        <set attributeName="fill" to="#808080" begin="arrowDown.mouseover" end="arrowDown.mouseout"/>
                  </use>
                  <path fill="none" stroke="white" stroke-width="1.5" d="M0,-3.0v7 M-2.5,-0.5L0,-3.0L2.5,-0.5"/>
                </g>
                <g id="arrowLeft" xlink:href="#dirArrow" transform="rotate(270) translate(-36 17)" onmousedown="handlePan(-1,0)">
                  <use xlink:href="#rim" fill="#404040">
                        <set attributeName="fill" to="#808080" begin="arrowLeft.mouseover" end="arrowLeft.mouseout"/>
                  </use>
                  <path fill="none" stroke="white" stroke-width="1.5" d="M0,-3.0v7 M-2.5,-0.5L0,-3.0L2.5,-0.5"/>
                </g>
        </g>
        <svg viewBox="0 0 15 15" width="100%" height="30px" preserveAspectRatio="xMaxYMin meet">
         <g id="arrow_out" transform="scale(0.3 0.3)">
          <a xlink:href="classxii_internal_1_1xii_allocator_impl__inherit__graph_org.svg" target="_base">
           <rect id="button" ry="5" rx="5" y="6" x="6" height="38" width="38"
                fill="#f2f5e9" fill-opacity="0.5" stroke="#606060" stroke-width="1.0"/>
           <path id="arrow"
             d="M 11.500037,31.436501 C 11.940474,20.09759 22.043105,11.32322 32.158766,21.979434 L 37.068811,17.246167 C 37.068811,17.246167 37.088388,32 37.088388,32 L 22.160133,31.978069 C 22.160133,31.978069 26.997745,27.140456 26.997745,27.140456 C 18.528582,18.264221 13.291696,25.230495 11.500037,31.436501 z"
             style="fill:#404040;"/>
          </a>
         </g>
        </svg>
</svg>
