<?xml version="1.0" encoding="UTF-8" standalone="no"?>
<!DOCTYPE svg PUBLIC "-//W3C//DTD SVG 1.1//EN"
 "http://www.w3.org/Graphics/SVG/1.1/DTD/svg11.dtd">
<!-- Generated by graphviz version 2.43.0 (0)
 -->
<!-- Title: xiiMemoryStreamStorageInterface Pages: 1 -->
<svg width="602pt" height="187pt"
 viewBox="0.00 0.00 602.00 186.50" xmlns="http://www.w3.org/2000/svg" xmlns:xlink="http://www.w3.org/1999/xlink">
<g id="graph0" class="graph" transform="scale(1 1) rotate(0) translate(4 182.5)">
<title>xiiMemoryStreamStorageInterface</title>
<polygon fill="white" stroke="transparent" points="-4,4 -4,-182.5 598,-182.5 598,4 -4,4"/>
<!-- Node1 -->
<g id="node1" class="node">
<title>Node1</title>
<g id="a_node1"><a xlink:title="Instances of this class act as storage for memory streams.">
<polygon fill="#bfbfbf" stroke="black" points="0,-77 0,-96 185,-96 185,-77 0,-77"/>
<text text-anchor="middle" x="92.5" y="-84" font-family="Helvetica,sans-Serif" font-size="10.00">xiiMemoryStreamStorageInterface</text>
</a>
</g>
</g>
<!-- Node2 -->
<g id="node2" class="node">
<title>Node2</title>
<g id="a_node2"><a xlink:href="../../d4/d1e/classxii_memory_stream_container_storage.htm" target="_top" xlink:title=" ">
<polygon fill="white" stroke="black" points="234,-137 234,-178 386,-178 386,-137 234,-137"/>
<text text-anchor="start" x="242" y="-166" font-family="Helvetica,sans-Serif" font-size="10.00">xiiMemoryStreamContainer</text>
<text text-anchor="start" x="242" y="-155" font-family="Helvetica,sans-Serif" font-size="10.00">Storage&lt; xiiHybridArray</text>
<text text-anchor="middle" x="310" y="-144" font-family="Helvetica,sans-Serif" font-size="10.00">&lt; xiiUInt8, 256 &gt; &gt;</text>
</a>
</g>
</g>
<!-- Node1&#45;&gt;Node2 -->
<g id="edge1" class="edge">
<title>Node1&#45;&gt;Node2</title>
<path fill="none" stroke="midnightblue" d="M132.36,-99.3C164.1,-109.76 209.59,-124.75 246.45,-136.89"/>
<polygon fill="midnightblue" stroke="midnightblue" points="133.16,-95.88 122.56,-96.08 130.97,-102.53 133.16,-95.88"/>
</g>
<!-- Node4 -->
<g id="node4" class="node">
<title>Node4</title>
<g id="a_node4"><a xlink:href="../../dc/df7/classxii_default_memory_stream_storage.htm" target="_top" xlink:title="The default implementation for memory stream storage.">
<polygon fill="white" stroke="black" points="221,-99 221,-118 399,-118 399,-99 221,-99"/>
<text text-anchor="middle" x="310" y="-106" font-family="Helvetica,sans-Serif" font-size="10.00">xiiDefaultMemoryStreamStorage</text>
</a>
</g>
</g>
<!-- Node1&#45;&gt;Node4 -->
<g id="edge3" class="edge">
<title>Node1&#45;&gt;Node4</title>
<path fill="none" stroke="midnightblue" d="M195.21,-96.88C203.76,-97.76 212.37,-98.63 220.81,-99.5"/>
<polygon fill="midnightblue" stroke="midnightblue" points="195.51,-93.4 185.2,-95.86 194.8,-100.36 195.51,-93.4"/>
</g>
<!-- Node5 -->
<g id="node5" class="node">
<title>Node5</title>
<g id="a_node5"><a xlink:href="../../d4/d1e/classxii_memory_stream_container_storage.htm" target="_top" xlink:title="Templated implementation of xiiMemoryStreamStorageInterface that adapts most standard XII containers ...">
<polygon fill="white" stroke="black" points="234,-49.5 234,-79.5 386,-79.5 386,-49.5 234,-49.5"/>
<text text-anchor="start" x="242" y="-67.5" font-family="Helvetica,sans-Serif" font-size="10.00">xiiMemoryStreamContainer</text>
<text text-anchor="middle" x="310" y="-56.5" font-family="Helvetica,sans-Serif" font-size="10.00">Storage&lt; CONTAINER &gt;</text>
</a>
</g>
</g>
<!-- Node1&#45;&gt;Node5 -->
<g id="edge4" class="edge">
<title>Node1&#45;&gt;Node5</title>
<path fill="none" stroke="midnightblue" d="M195.17,-76.12C208.24,-74.79 221.43,-73.44 233.97,-72.16"/>
<polygon fill="midnightblue" stroke="midnightblue" points="194.8,-72.64 185.2,-77.14 195.51,-79.6 194.8,-72.64"/>
</g>
<!-- Node6 -->
<g id="node6" class="node">
<title>Node6</title>
<g id="a_node6"><a xlink:href="../../dd/d1a/classxii_memory_stream_container_wrapper_storage.htm" target="_top" xlink:title="Wrapper around an existing container to implement xiiMemoryStreamStorageInterface.">
<polygon fill="white" stroke="black" points="222.5,-0.5 222.5,-30.5 397.5,-30.5 397.5,-0.5 222.5,-0.5"/>
<text text-anchor="start" x="230.5" y="-18.5" font-family="Helvetica,sans-Serif" font-size="10.00">xiiMemoryStreamContainer</text>
<text text-anchor="middle" x="310" y="-7.5" font-family="Helvetica,sans-Serif" font-size="10.00">WrapperStorage&lt; CONTAINER &gt;</text>
</a>
</g>
</g>
<!-- Node1&#45;&gt;Node6 -->
<g id="edge5" class="edge">
<title>Node1&#45;&gt;Node6</title>
<path fill="none" stroke="midnightblue" d="M127.84,-73.38C153.38,-63.8 189.16,-50.75 221,-40.5 231.58,-37.09 242.96,-33.68 253.9,-30.52"/>
<polygon fill="midnightblue" stroke="midnightblue" points="126.37,-70.19 118.24,-76.99 128.84,-76.74 126.37,-70.19"/>
</g>
<!-- Node3 -->
<g id="node3" class="node">
<title>Node3</title>
<g id="a_node3"><a xlink:href="../../d5/d12/classxii_contiguous_memory_stream_storage.htm" target="_top" xlink:title=" ">
<polygon fill="white" stroke="black" points="435,-142.5 435,-172.5 594,-172.5 594,-142.5 435,-142.5"/>
<text text-anchor="start" x="443" y="-160.5" font-family="Helvetica,sans-Serif" font-size="10.00">xiiContiguousMemoryStream</text>
<text text-anchor="middle" x="514.5" y="-149.5" font-family="Helvetica,sans-Serif" font-size="10.00">Storage</text>
</a>
</g>
</g>
<!-- Node2&#45;&gt;Node3 -->
<g id="edge2" class="edge">
<title>Node2&#45;&gt;Node3</title>
<path fill="none" stroke="midnightblue" d="M396.27,-157.5C409.03,-157.5 422.15,-157.5 434.78,-157.5"/>
<polygon fill="midnightblue" stroke="midnightblue" points="396.12,-154 386.12,-157.5 396.12,-161 396.12,-154"/>
</g>
</g>
</svg>
