<?xml version="1.0" encoding="UTF-8" standalone="no"?>
<!DOCTYPE svg PUBLIC "-//W3C//DTD SVG 1.1//EN"
 "http://www.w3.org/Graphics/SVG/1.1/DTD/svg11.dtd">
<!-- Generated by graphviz version 2.43.0 (0)
 -->
<!-- Title: xiiAllocator&lt; AllocationPolicy, TrackingMode &gt; Pages: 1 -->
<svg width="669pt" height="83pt"
 viewBox="0.00 0.00 669.00 83.00" xmlns="http://www.w3.org/2000/svg" xmlns:xlink="http://www.w3.org/1999/xlink">
<g id="graph0" class="graph" transform="scale(1 1) rotate(0) translate(4 79)">
<title>xiiAllocator&lt; AllocationPolicy, TrackingMode &gt;</title>
<polygon fill="white" stroke="transparent" points="-4,4 -4,-79 665,-79 665,4 -4,4"/>
<!-- Node1 -->
<g id="node1" class="node">
<title>Node1</title>
<g id="a_node1"><a xlink:title="Policy based allocator implementation of the xiiAllocatorBase interface.">
<polygon fill="#bfbfbf" stroke="black" points="529,-22.5 529,-52.5 661,-52.5 661,-22.5 529,-22.5"/>
<text text-anchor="start" x="537" y="-40.5" font-family="Helvetica,sans-Serif" font-size="10.00">xiiAllocator&lt; Allocation</text>
<text text-anchor="middle" x="595" y="-29.5" font-family="Helvetica,sans-Serif" font-size="10.00">Policy, TrackingMode &gt;</text>
</a>
</g>
</g>
<!-- Node2 -->
<g id="node2" class="node">
<title>Node2</title>
<g id="a_node2"><a xlink:href="../../d9/dcd/classxii_internal_1_1xii_allocator_mixin_reallocate.htm" target="_top" xlink:title=" ">
<polygon fill="white" stroke="black" points="299,-0.5 299,-74.5 493,-74.5 493,-0.5 299,-0.5"/>
<text text-anchor="start" x="307" y="-62.5" font-family="Helvetica,sans-Serif" font-size="10.00">xiiInternal::xiiAllocator</text>
<text text-anchor="start" x="307" y="-51.5" font-family="Helvetica,sans-Serif" font-size="10.00">MixinReallocate&lt; AllocationPolicy,</text>
<text text-anchor="start" x="307" y="-40.5" font-family="Helvetica,sans-Serif" font-size="10.00"> xiiAllocatorTrackingMode::Default,</text>
<text text-anchor="start" x="307" y="-29.5" font-family="Helvetica,sans-Serif" font-size="10.00"> xiiHasReallocate&lt; AllocationPolicy,</text>
<text text-anchor="start" x="307" y="-18.5" font-family="Helvetica,sans-Serif" font-size="10.00"> void *(AllocationPolicy::*)(void *,</text>
<text text-anchor="middle" x="396" y="-7.5" font-family="Helvetica,sans-Serif" font-size="10.00"> size_t, size_t, size_t)&gt;::value &gt;</text>
</a>
</g>
</g>
<!-- Node2&#45;&gt;Node1 -->
<g id="edge1" class="edge">
<title>Node2&#45;&gt;Node1</title>
<path fill="none" stroke="midnightblue" d="M503.41,-37.5C512.09,-37.5 520.69,-37.5 528.93,-37.5"/>
<polygon fill="midnightblue" stroke="midnightblue" points="503.19,-34 493.19,-37.5 503.19,-41 503.19,-34"/>
</g>
<!-- Node3 -->
<g id="node3" class="node">
<title>Node3</title>
<g id="a_node3"><a xlink:href="../../d4/deb/classxii_internal_1_1xii_allocator_impl.htm" target="_top" xlink:title=" ">
<polygon fill="white" stroke="black" points="132,-17 132,-58 263,-58 263,-17 132,-17"/>
<text text-anchor="start" x="140" y="-46" font-family="Helvetica,sans-Serif" font-size="10.00">xiiInternal::xiiAllocator</text>
<text text-anchor="start" x="140" y="-35" font-family="Helvetica,sans-Serif" font-size="10.00">Impl&lt; AllocationPolicy,</text>
<text text-anchor="middle" x="197.5" y="-24" font-family="Helvetica,sans-Serif" font-size="10.00"> TrackingMode &gt;</text>
</a>
</g>
</g>
<!-- Node3&#45;&gt;Node2 -->
<g id="edge2" class="edge">
<title>Node3&#45;&gt;Node2</title>
<path fill="none" stroke="midnightblue" d="M273.16,-37.5C281.51,-37.5 290.11,-37.5 298.68,-37.5"/>
<polygon fill="midnightblue" stroke="midnightblue" points="273.11,-34 263.11,-37.5 273.11,-41 273.11,-34"/>
</g>
<!-- Node4 -->
<g id="node4" class="node">
<title>Node4</title>
<g id="a_node4"><a xlink:href="../../d5/d66/classxii_allocator_base.htm" target="_top" xlink:title="Base class for all memory allocators.">
<polygon fill="white" stroke="black" points="0,-28 0,-47 96,-47 96,-28 0,-28"/>
<text text-anchor="middle" x="48" y="-35" font-family="Helvetica,sans-Serif" font-size="10.00">xiiAllocatorBase</text>
</a>
</g>
</g>
<!-- Node4&#45;&gt;Node3 -->
<g id="edge3" class="edge">
<title>Node4&#45;&gt;Node3</title>
<path fill="none" stroke="midnightblue" d="M106.16,-37.5C114.58,-37.5 123.3,-37.5 131.85,-37.5"/>
<polygon fill="midnightblue" stroke="midnightblue" points="106.08,-34 96.08,-37.5 106.08,-41 106.08,-34"/>
</g>
</g>
</svg>
