<?xml version="1.0" encoding="UTF-8" standalone="no"?>
<!DOCTYPE svg PUBLIC "-//W3C//DTD SVG 1.1//EN"
 "http://www.w3.org/Graphics/SVG/1.1/DTD/svg11.dtd">
<!-- Generated by graphviz version 2.43.0 (0)
 -->
<!-- Title: xiiAllocator&lt; AllocationPolicy, TrackingMode &gt; Pages: 1 -->
<!--zoomable 83 -->
<svg id="main" version="1.1" xmlns="http://www.w3.org/2000/svg" xmlns:xlink="http://www.w3.org/1999/xlink" xml:space="preserve" onload="init(evt)">
<style type="text/css"><![CDATA[
.edge:hover path { stroke: red; }
.edge:hover polygon { stroke: red; fill: red; }
]]></style>
<script type="text/javascript"><![CDATA[
var edges = document.getElementsByTagName('g');
if (edges && edges.length) {
  for (var i=0;i<edges.length;i++) {
    if (edges[i].id.substr(0,4)=='edge') {
      edges[i].setAttribute('class','edge');
    }
  }
}
]]></script>
        <defs>
                <circle id="rim" cx="0" cy="0" r="7"/>
                <circle id="rim2" cx="0" cy="0" r="3.5"/>
                <g id="zoomPlus">
                        <use xlink:href="#rim" fill="#404040">
                                <set attributeName="fill" to="#808080" begin="zoomplus.mouseover" end="zoomplus.mouseout"/>
                        </use>
                        <path d="M-4,0h8M0,-4v8" fill="none" stroke="white" stroke-width="1.5" pointer-events="none"/>
                </g>
                <g id="zoomMin">
                        <use xlink:href="#rim" fill="#404040">
                                <set attributeName="fill" to="#808080" begin="zoomminus.mouseover" end="zoomminus.mouseout"/>
                        </use>
                        <path d="M-4,0h8" fill="none" stroke="white" stroke-width="1.5" pointer-events="none"/>
                </g>
                <g id="dirArrow">
                        <path fill="none" stroke="white" stroke-width="1.5" d="M0,-3.0v7 M-2.5,-0.5L0,-3.0L2.5,-0.5"/>
                </g>
               <g id="resetDef">
                       <use xlink:href="#rim2" fill="#404040">
                               <set attributeName="fill" to="#808080" begin="reset.mouseover" end="reset.mouseout"/>
                       </use>
               </g>
        </defs>

<script type="text/javascript">
var viewWidth = 669;
var viewHeight = 83;
var sectionId = 'dynsection-0';
</script>
<script xlink:href="../../svgpan.js"/>
<svg id="graph" class="graph">
<g id="viewport">
<title>xiiAllocator&lt; AllocationPolicy, TrackingMode &gt;</title>
<polygon fill="white" stroke="transparent" points="-4,4 -4,-79 665,-79 665,4 -4,4"/>
<!-- Node1 -->
<g id="node1" class="node">
<title>Node1</title>
<g id="a_node1"><a xlink:title="Policy based allocator implementation of the xiiAllocatorBase interface.">
<polygon fill="#bfbfbf" stroke="black" points="529,-22.5 529,-52.5 661,-52.5 661,-22.5 529,-22.5"/>
<text text-anchor="start" x="537" y="-40.5" font-family="Helvetica,sans-Serif" font-size="10.00">xiiAllocator&lt; Allocation</text>
<text text-anchor="middle" x="595" y="-29.5" font-family="Helvetica,sans-Serif" font-size="10.00">Policy, TrackingMode &gt;</text>
</a>
</g>
</g>
<!-- Node2 -->
<g id="node2" class="node">
<title>Node2</title>
<g id="a_node2"><a xlink:href="../../d9/dcd/classxii_internal_1_1xii_allocator_mixin_reallocate.htm" target="_top" xlink:title=" ">
<polygon fill="white" stroke="black" points="299,-0.5 299,-74.5 493,-74.5 493,-0.5 299,-0.5"/>
<text text-anchor="start" x="307" y="-62.5" font-family="Helvetica,sans-Serif" font-size="10.00">xiiInternal::xiiAllocator</text>
<text text-anchor="start" x="307" y="-51.5" font-family="Helvetica,sans-Serif" font-size="10.00">MixinReallocate&lt; AllocationPolicy,</text>
<text text-anchor="start" x="307" y="-40.5" font-family="Helvetica,sans-Serif" font-size="10.00"> xiiAllocatorTrackingMode::Default,</text>
<text text-anchor="start" x="307" y="-29.5" font-family="Helvetica,sans-Serif" font-size="10.00"> xiiHasReallocate&lt; AllocationPolicy,</text>
<text text-anchor="start" x="307" y="-18.5" font-family="Helvetica,sans-Serif" font-size="10.00"> void *(AllocationPolicy::*)(void *,</text>
<text text-anchor="middle" x="396" y="-7.5" font-family="Helvetica,sans-Serif" font-size="10.00"> size_t, size_t, size_t)&gt;::value &gt;</text>
</a>
</g>
</g>
<!-- Node2&#45;&gt;Node1 -->
<g id="edge1" class="edge">
<title>Node2&#45;&gt;Node1</title>
<path fill="none" stroke="midnightblue" d="M503.41,-37.5C512.09,-37.5 520.69,-37.5 528.93,-37.5"/>
<polygon fill="midnightblue" stroke="midnightblue" points="503.19,-34 493.19,-37.5 503.19,-41 503.19,-34"/>
</g>
<!-- Node3 -->
<g id="node3" class="node">
<title>Node3</title>
<g id="a_node3"><a xlink:href="../../d4/deb/classxii_internal_1_1xii_allocator_impl.htm" target="_top" xlink:title=" ">
<polygon fill="white" stroke="black" points="132,-17 132,-58 263,-58 263,-17 132,-17"/>
<text text-anchor="start" x="140" y="-46" font-family="Helvetica,sans-Serif" font-size="10.00">xiiInternal::xiiAllocator</text>
<text text-anchor="start" x="140" y="-35" font-family="Helvetica,sans-Serif" font-size="10.00">Impl&lt; AllocationPolicy,</text>
<text text-anchor="middle" x="197.5" y="-24" font-family="Helvetica,sans-Serif" font-size="10.00"> TrackingMode &gt;</text>
</a>
</g>
</g>
<!-- Node3&#45;&gt;Node2 -->
<g id="edge2" class="edge">
<title>Node3&#45;&gt;Node2</title>
<path fill="none" stroke="midnightblue" d="M273.16,-37.5C281.51,-37.5 290.11,-37.5 298.68,-37.5"/>
<polygon fill="midnightblue" stroke="midnightblue" points="273.11,-34 263.11,-37.5 273.11,-41 273.11,-34"/>
</g>
<!-- Node4 -->
<g id="node4" class="node">
<title>Node4</title>
<g id="a_node4"><a xlink:href="../../d5/d66/classxii_allocator_base.htm" target="_top" xlink:title="Base class for all memory allocators.">
<polygon fill="white" stroke="black" points="0,-28 0,-47 96,-47 96,-28 0,-28"/>
<text text-anchor="middle" x="48" y="-35" font-family="Helvetica,sans-Serif" font-size="10.00">xiiAllocatorBase</text>
</a>
</g>
</g>
<!-- Node4&#45;&gt;Node3 -->
<g id="edge3" class="edge">
<title>Node4&#45;&gt;Node3</title>
<path fill="none" stroke="midnightblue" d="M106.16,-37.5C114.58,-37.5 123.3,-37.5 131.85,-37.5"/>
<polygon fill="midnightblue" stroke="midnightblue" points="106.08,-34 96.08,-37.5 106.08,-41 106.08,-34"/>
</g>
</g>
</svg>
        <g id="navigator" transform="translate(0 0)" fill="#404254">
                <rect fill="#f2f5e9" fill-opacity="0.5" stroke="#606060" stroke-width=".5" x="0" y="0" width="60" height="60"/>
                <use id="zoomplus" xlink:href="#zoomPlus" x="17" y="9" onmousedown="handleZoom(evt,'in')"/>
                <use id="zoomminus" xlink:href="#zoomMin" x="42" y="9" onmousedown="handleZoom(evt,'out')"/>
                <use id="reset" xlink:href="#resetDef" x="30" y="36" onmousedown="handleReset()"/>
                <g id="arrowUp" xlink:href="#dirArrow" transform="translate(30 24)" onmousedown="handlePan(0,-1)">
                  <use xlink:href="#rim" fill="#404040">
                        <set attributeName="fill" to="#808080" begin="arrowUp.mouseover" end="arrowUp.mouseout"/>
                  </use>
                  <path fill="none" stroke="white" stroke-width="1.5" d="M0,-3.0v7 M-2.5,-0.5L0,-3.0L2.5,-0.5"/>
                </g>
                <g id="arrowRight" xlink:href="#dirArrow" transform="rotate(90) translate(36 -43)" onmousedown="handlePan(1,0)">
                  <use xlink:href="#rim" fill="#404040">
                        <set attributeName="fill" to="#808080" begin="arrowRight.mouseover" end="arrowRight.mouseout"/>
                  </use>
                  <path fill="none" stroke="white" stroke-width="1.5" d="M0,-3.0v7 M-2.5,-0.5L0,-3.0L2.5,-0.5"/>
                </g>
                <g id="arrowDown" xlink:href="#dirArrow" transform="rotate(180) translate(-30 -48)" onmousedown="handlePan(0,1)">
                  <use xlink:href="#rim" fill="#404040">
                        <set attributeName="fill" to="#808080" begin="arrowDown.mouseover" end="arrowDown.mouseout"/>
                  </use>
                  <path fill="none" stroke="white" stroke-width="1.5" d="M0,-3.0v7 M-2.5,-0.5L0,-3.0L2.5,-0.5"/>
                </g>
                <g id="arrowLeft" xlink:href="#dirArrow" transform="rotate(270) translate(-36 17)" onmousedown="handlePan(-1,0)">
                  <use xlink:href="#rim" fill="#404040">
                        <set attributeName="fill" to="#808080" begin="arrowLeft.mouseover" end="arrowLeft.mouseout"/>
                  </use>
                  <path fill="none" stroke="white" stroke-width="1.5" d="M0,-3.0v7 M-2.5,-0.5L0,-3.0L2.5,-0.5"/>
                </g>
        </g>
        <svg viewBox="0 0 15 15" width="100%" height="30px" preserveAspectRatio="xMaxYMin meet">
         <g id="arrow_out" transform="scale(0.3 0.3)">
          <a xlink:href="classxii_allocator__inherit__graph_org.svg" target="_base">
           <rect id="button" ry="5" rx="5" y="6" x="6" height="38" width="38"
                fill="#f2f5e9" fill-opacity="0.5" stroke="#606060" stroke-width="1.0"/>
           <path id="arrow"
             d="M 11.500037,31.436501 C 11.940474,20.09759 22.043105,11.32322 32.158766,21.979434 L 37.068811,17.246167 C 37.068811,17.246167 37.088388,32 37.088388,32 L 22.160133,31.978069 C 22.160133,31.978069 26.997745,27.140456 26.997745,27.140456 C 18.528582,18.264221 13.291696,25.230495 11.500037,31.436501 z"
             style="fill:#404040;"/>
          </a>
         </g>
        </svg>
</svg>
