<?xml version="1.0" encoding="UTF-8" standalone="no"?>
<!DOCTYPE svg PUBLIC "-//W3C//DTD SVG 1.1//EN"
 "http://www.w3.org/Graphics/SVG/1.1/DTD/svg11.dtd">
<!-- Generated by graphviz version 2.43.0 (0)
 -->
<!-- Title: xiiEventMsgSetPowerInput Pages: 1 -->
<svg width="155pt" height="252pt"
 viewBox="0.00 0.00 155.00 252.00" xmlns="http://www.w3.org/2000/svg" xmlns:xlink="http://www.w3.org/1999/xlink">
<g id="graph0" class="graph" transform="scale(1 1) rotate(0) translate(4 248)">
<title>xiiEventMsgSetPowerInput</title>
<polygon fill="white" stroke="transparent" points="-4,4 -4,-248 151,-248 151,4 -4,4"/>
<!-- Node1 -->
<g id="node1" class="node">
<title>Node1</title>
<g id="a_node1"><a xlink:title="This event is posted by xiiPowerConnectorComponent whenever the power input on a connector changes.">
<polygon fill="#bfbfbf" stroke="black" points="0,-0.5 0,-19.5 147,-19.5 147,-0.5 0,-0.5"/>
<text text-anchor="middle" x="73.5" y="-7.5" font-family="Helvetica,sans-Serif" font-size="10.00">xiiEventMsgSetPowerInput</text>
</a>
</g>
</g>
<!-- Node2 -->
<g id="node2" class="node">
<title>Node2</title>
<g id="a_node2"><a xlink:href="../../d6/de3/structxii_event_message.htm" target="_top" xlink:title="Base class for all messages that are sent as &#39;events&#39;.">
<polygon fill="white" stroke="black" points="23.5,-56.5 23.5,-75.5 123.5,-75.5 123.5,-56.5 23.5,-56.5"/>
<text text-anchor="middle" x="73.5" y="-63.5" font-family="Helvetica,sans-Serif" font-size="10.00">xiiEventMessage</text>
</a>
</g>
</g>
<!-- Node2&#45;&gt;Node1 -->
<g id="edge1" class="edge">
<title>Node2&#45;&gt;Node1</title>
<path fill="none" stroke="midnightblue" d="M73.5,-45.8C73.5,-36.91 73.5,-26.78 73.5,-19.75"/>
<polygon fill="midnightblue" stroke="midnightblue" points="70,-46.08 73.5,-56.08 77,-46.08 70,-46.08"/>
</g>
<!-- Node3 -->
<g id="node3" class="node">
<title>Node3</title>
<g id="a_node3"><a xlink:href="../../d9/d55/classxii_message.htm" target="_top" xlink:title="Base class for all message types. Each message type has it&#39;s own id which is used to dispatch message...">
<polygon fill="white" stroke="black" points="37.5,-112.5 37.5,-131.5 109.5,-131.5 109.5,-112.5 37.5,-112.5"/>
<text text-anchor="middle" x="73.5" y="-119.5" font-family="Helvetica,sans-Serif" font-size="10.00">xiiMessage</text>
</a>
</g>
</g>
<!-- Node3&#45;&gt;Node2 -->
<g id="edge2" class="edge">
<title>Node3&#45;&gt;Node2</title>
<path fill="none" stroke="midnightblue" d="M73.5,-101.8C73.5,-92.91 73.5,-82.78 73.5,-75.75"/>
<polygon fill="midnightblue" stroke="midnightblue" points="70,-102.08 73.5,-112.08 77,-102.08 70,-102.08"/>
</g>
<!-- Node4 -->
<g id="node4" class="node">
<title>Node4</title>
<g id="a_node4"><a xlink:href="../../dc/d71/classxii_reflected_class.htm" target="_top" xlink:title="All classes that should be dynamically reflectable, need to be derived from this base class.">
<polygon fill="white" stroke="black" points="23,-168.5 23,-187.5 124,-187.5 124,-168.5 23,-168.5"/>
<text text-anchor="middle" x="73.5" y="-175.5" font-family="Helvetica,sans-Serif" font-size="10.00">xiiReflectedClass</text>
</a>
</g>
</g>
<!-- Node4&#45;&gt;Node3 -->
<g id="edge3" class="edge">
<title>Node4&#45;&gt;Node3</title>
<path fill="none" stroke="midnightblue" d="M73.5,-157.8C73.5,-148.91 73.5,-138.78 73.5,-131.75"/>
<polygon fill="midnightblue" stroke="midnightblue" points="70,-158.08 73.5,-168.08 77,-158.08 70,-158.08"/>
</g>
<!-- Node5 -->
<g id="node5" class="node">
<title>Node5</title>
<g id="a_node5"><a xlink:href="../../d2/d38/classxii_no_base.htm" target="_top" xlink:title="Dummy type to pass to templates and macros that expect a base type for a class that has no base.">
<polygon fill="white" stroke="black" points="40.5,-224.5 40.5,-243.5 106.5,-243.5 106.5,-224.5 40.5,-224.5"/>
<text text-anchor="middle" x="73.5" y="-231.5" font-family="Helvetica,sans-Serif" font-size="10.00">xiiNoBase</text>
</a>
</g>
</g>
<!-- Node5&#45;&gt;Node4 -->
<g id="edge4" class="edge">
<title>Node5&#45;&gt;Node4</title>
<path fill="none" stroke="midnightblue" d="M73.5,-213.8C73.5,-204.91 73.5,-194.78 73.5,-187.75"/>
<polygon fill="midnightblue" stroke="midnightblue" points="70,-214.08 73.5,-224.08 77,-214.08 70,-214.08"/>
</g>
</g>
</svg>
