<?xml version="1.0" encoding="UTF-8" standalone="no"?>
<!DOCTYPE svg PUBLIC "-//W3C//DTD SVG 1.1//EN"
 "http://www.w3.org/Graphics/SVG/1.1/DTD/svg11.dtd">
<!-- Generated by graphviz version 2.43.0 (0)
 -->
<!-- Title: xiiQtApplicationPanel Pages: 1 -->
<svg width="440pt" height="180pt"
 viewBox="0.00 0.00 440.00 180.00" xmlns="http://www.w3.org/2000/svg" xmlns:xlink="http://www.w3.org/1999/xlink">
<g id="graph0" class="graph" transform="scale(1 1) rotate(0) translate(4 176)">
<title>xiiQtApplicationPanel</title>
<polygon fill="white" stroke="transparent" points="-4,4 -4,-176 436,-176 436,4 -4,4"/>
<!-- Node1 -->
<g id="node1" class="node">
<title>Node1</title>
<g id="a_node1"><a xlink:title="Base class for all panels that are supposed to be application wide (not tied to some document).">
<polygon fill="#bfbfbf" stroke="black" points="142,-76.5 142,-95.5 263,-95.5 263,-76.5 142,-76.5"/>
<text text-anchor="middle" x="202.5" y="-83.5" font-family="Helvetica,sans-Serif" font-size="10.00">xiiQtApplicationPanel</text>
</a>
</g>
</g>
<!-- Node3 -->
<g id="node3" class="node">
<title>Node3</title>
<g id="a_node3"><a xlink:href="../../d1/d7d/classxii_qt_asset_browser_panel.htm" target="_top" xlink:title="The application wide panel that shows and asset browser.">
<polygon fill="white" stroke="black" points="299,-152.5 299,-171.5 432,-171.5 432,-152.5 299,-152.5"/>
<text text-anchor="middle" x="365.5" y="-159.5" font-family="Helvetica,sans-Serif" font-size="10.00">xiiQtAssetBrowserPanel</text>
</a>
</g>
</g>
<!-- Node1&#45;&gt;Node3 -->
<g id="edge2" class="edge">
<title>Node1&#45;&gt;Node3</title>
<path fill="none" stroke="midnightblue" d="M225.58,-101.4C244.39,-113.98 272.52,-131.49 299,-143 307.36,-146.64 316.62,-149.8 325.48,-152.46"/>
<polygon fill="midnightblue" stroke="midnightblue" points="227.37,-98.39 217.13,-95.67 223.44,-104.18 227.37,-98.39"/>
</g>
<!-- Node4 -->
<g id="node4" class="node">
<title>Node4</title>
<g id="a_node4"><a xlink:href="../../d5/d36/classxii_qt_asset_curator_panel.htm" target="_top" xlink:title=" ">
<polygon fill="white" stroke="black" points="301,-114.5 301,-133.5 430,-133.5 430,-114.5 301,-114.5"/>
<text text-anchor="middle" x="365.5" y="-121.5" font-family="Helvetica,sans-Serif" font-size="10.00">xiiQtAssetCuratorPanel</text>
</a>
</g>
</g>
<!-- Node1&#45;&gt;Node4 -->
<g id="edge3" class="edge">
<title>Node1&#45;&gt;Node4</title>
<path fill="none" stroke="midnightblue" d="M253.9,-97.9C276.53,-103.24 302.87,-109.45 324.17,-114.48"/>
<polygon fill="midnightblue" stroke="midnightblue" points="254.66,-94.48 244.13,-95.59 253.06,-101.29 254.66,-94.48"/>
</g>
<!-- Node5 -->
<g id="node5" class="node">
<title>Node5</title>
<g id="a_node5"><a xlink:href="../../d1/dab/classxii_qt_c_var_panel.htm" target="_top" xlink:title=" ">
<polygon fill="white" stroke="black" points="321,-76.5 321,-95.5 410,-95.5 410,-76.5 321,-76.5"/>
<text text-anchor="middle" x="365.5" y="-83.5" font-family="Helvetica,sans-Serif" font-size="10.00">xiiQtCVarPanel</text>
</a>
</g>
</g>
<!-- Node1&#45;&gt;Node5 -->
<g id="edge4" class="edge">
<title>Node1&#45;&gt;Node5</title>
<path fill="none" stroke="midnightblue" d="M273.8,-86C289.7,-86 306.15,-86 320.6,-86"/>
<polygon fill="midnightblue" stroke="midnightblue" points="273.45,-82.5 263.45,-86 273.45,-89.5 273.45,-82.5"/>
</g>
<!-- Node6 -->
<g id="node6" class="node">
<title>Node6</title>
<g id="a_node6"><a xlink:href="../../d8/dd0/classxii_qt_log_panel.htm" target="_top" xlink:title="The application wide panel that shows the engine log output and the editor log output.">
<polygon fill="white" stroke="black" points="324,-38.5 324,-57.5 407,-57.5 407,-38.5 324,-38.5"/>
<text text-anchor="middle" x="365.5" y="-45.5" font-family="Helvetica,sans-Serif" font-size="10.00">xiiQtLogPanel</text>
</a>
</g>
</g>
<!-- Node1&#45;&gt;Node6 -->
<g id="edge5" class="edge">
<title>Node1&#45;&gt;Node6</title>
<path fill="none" stroke="midnightblue" d="M253.9,-74.1C276.53,-68.76 302.87,-62.55 324.17,-57.52"/>
<polygon fill="midnightblue" stroke="midnightblue" points="253.06,-70.71 244.13,-76.41 254.66,-77.52 253.06,-70.71"/>
</g>
<!-- Node7 -->
<g id="node7" class="node">
<title>Node7</title>
<g id="a_node7"><a xlink:href="../../dc/d51/classxii_qt_long_ops_panel.htm" target="_top" xlink:title="This panel listens to events from xiiLongOpControllerManager and displays all currently known long op...">
<polygon fill="white" stroke="black" points="311.5,-0.5 311.5,-19.5 419.5,-19.5 419.5,-0.5 311.5,-0.5"/>
<text text-anchor="middle" x="365.5" y="-7.5" font-family="Helvetica,sans-Serif" font-size="10.00">xiiQtLongOpsPanel</text>
</a>
</g>
</g>
<!-- Node1&#45;&gt;Node7 -->
<g id="edge6" class="edge">
<title>Node1&#45;&gt;Node7</title>
<path fill="none" stroke="midnightblue" d="M225.58,-70.6C244.39,-58.02 272.52,-40.51 299,-29 307.36,-25.36 316.62,-22.2 325.48,-19.54"/>
<polygon fill="midnightblue" stroke="midnightblue" points="223.44,-67.82 217.13,-76.33 227.37,-73.61 223.44,-67.82"/>
</g>
<!-- Node2 -->
<g id="node2" class="node">
<title>Node2</title>
<g id="a_node2"><a xlink:title=" ">
<polygon fill="white" stroke="#bfbfbf" points="0,-76.5 0,-95.5 106,-95.5 106,-76.5 0,-76.5"/>
<text text-anchor="middle" x="53" y="-83.5" font-family="Helvetica,sans-Serif" font-size="10.00">ads::CDockWidget</text>
</a>
</g>
</g>
<!-- Node2&#45;&gt;Node1 -->
<g id="edge1" class="edge">
<title>Node2&#45;&gt;Node1</title>
<path fill="none" stroke="midnightblue" d="M116.24,-86C124.74,-86 133.45,-86 141.91,-86"/>
<polygon fill="midnightblue" stroke="midnightblue" points="116,-82.5 106,-86 116,-89.5 116,-82.5"/>
</g>
</g>
</svg>
