<?xml version="1.0" encoding="UTF-8" standalone="no"?>
<!DOCTYPE svg PUBLIC "-//W3C//DTD SVG 1.1//EN"
 "http://www.w3.org/Graphics/SVG/1.1/DTD/svg11.dtd">
<!-- Generated by graphviz version 2.43.0 (0)
 -->
<!-- Title: xiiGALResource Pages: 1 -->
<!--zoomable 598 -->
<svg id="main" version="1.1" xmlns="http://www.w3.org/2000/svg" xmlns:xlink="http://www.w3.org/1999/xlink" xml:space="preserve" onload="init(evt)">
<style type="text/css"><![CDATA[
.edge:hover path { stroke: red; }
.edge:hover polygon { stroke: red; fill: red; }
]]></style>
<script type="text/javascript"><![CDATA[
var edges = document.getElementsByTagName('g');
if (edges && edges.length) {
  for (var i=0;i<edges.length;i++) {
    if (edges[i].id.substr(0,4)=='edge') {
      edges[i].setAttribute('class','edge');
    }
  }
}
]]></script>
        <defs>
                <circle id="rim" cx="0" cy="0" r="7"/>
                <circle id="rim2" cx="0" cy="0" r="3.5"/>
                <g id="zoomPlus">
                        <use xlink:href="#rim" fill="#404040">
                                <set attributeName="fill" to="#808080" begin="zoomplus.mouseover" end="zoomplus.mouseout"/>
                        </use>
                        <path d="M-4,0h8M0,-4v8" fill="none" stroke="white" stroke-width="1.5" pointer-events="none"/>
                </g>
                <g id="zoomMin">
                        <use xlink:href="#rim" fill="#404040">
                                <set attributeName="fill" to="#808080" begin="zoomminus.mouseover" end="zoomminus.mouseout"/>
                        </use>
                        <path d="M-4,0h8" fill="none" stroke="white" stroke-width="1.5" pointer-events="none"/>
                </g>
                <g id="dirArrow">
                        <path fill="none" stroke="white" stroke-width="1.5" d="M0,-3.0v7 M-2.5,-0.5L0,-3.0L2.5,-0.5"/>
                </g>
               <g id="resetDef">
                       <use xlink:href="#rim2" fill="#404040">
                               <set attributeName="fill" to="#808080" begin="reset.mouseover" end="reset.mouseout"/>
                       </use>
               </g>
        </defs>

<script type="text/javascript">
var viewWidth = 1000;
var viewHeight = 598;
var sectionId = 'dynsection-0';
</script>
<script xlink:href="../../svgpan.js"/>
<svg id="graph" class="graph">
<g id="viewport">
<title>xiiGALResource</title>
<polygon fill="white" stroke="transparent" points="-4,4 -4,-594 996,-594 996,4 -4,4"/>
<!-- Node1 -->
<g id="node1" class="node">
<title>Node1</title>
<g id="a_node1"><a xlink:title="Base class for all GAL resources (textures, buffers, etc).">
<polygon fill="#bfbfbf" stroke="black" points="548,-285.5 548,-304.5 641,-304.5 641,-285.5 548,-285.5"/>
<text text-anchor="middle" x="594.5" y="-292.5" font-family="Helvetica,sans-Serif" font-size="10.00">xiiGALResource</text>
</a>
</g>
</g>
<!-- Node8 -->
<g id="node8" class="node">
<title>Node8</title>
<g id="a_node8"><a xlink:href="../../dc/d29/classxii_g_a_l_bottom_level_a_s.htm" target="_top" xlink:title="Interface that defines methods to manipulate a bottom level acceleration structure (BLAS) object.">
<polygon fill="white" stroke="black" points="677,-494.5 677,-513.5 800,-513.5 800,-494.5 677,-494.5"/>
<text text-anchor="middle" x="738.5" y="-501.5" font-family="Helvetica,sans-Serif" font-size="10.00">xiiGALBottomLevelAS</text>
</a>
</g>
</g>
<!-- Node1&#45;&gt;Node8 -->
<g id="edge7" class="edge">
<title>Node1&#45;&gt;Node8</title>
<path fill="none" stroke="midnightblue" d="M607.6,-312.81C636.52,-355.37 708.9,-461.9 730.99,-494.42"/>
<polygon fill="midnightblue" stroke="midnightblue" points="610.49,-310.83 601.97,-304.52 604.7,-314.76 610.49,-310.83"/>
</g>
<!-- Node13 -->
<g id="node13" class="node">
<title>Node13</title>
<g id="a_node13"><a xlink:href="../../da/d03/classxii_g_a_l_buffer.htm" target="_top" xlink:title="Interface that defines methods to manipulate a buffer object.">
<polygon fill="white" stroke="black" points="700,-342.5 700,-361.5 777,-361.5 777,-342.5 700,-342.5"/>
<text text-anchor="middle" x="738.5" y="-349.5" font-family="Helvetica,sans-Serif" font-size="10.00">xiiGALBuffer</text>
</a>
</g>
</g>
<!-- Node1&#45;&gt;Node13 -->
<g id="edge12" class="edge">
<title>Node1&#45;&gt;Node13</title>
<path fill="none" stroke="midnightblue" d="M628.74,-308.34C654.78,-318.8 690.38,-333.09 713.65,-342.43"/>
<polygon fill="midnightblue" stroke="midnightblue" points="629.85,-305.02 619.27,-304.54 627.24,-311.51 629.85,-305.02"/>
</g>
<!-- Node18 -->
<g id="node18" class="node">
<title>Node18</title>
<g id="a_node18"><a xlink:href="../../d3/d9a/classxii_g_a_l_texture.htm" target="_top" xlink:title="Interface that defines methods to manipulate a texture object.">
<polygon fill="white" stroke="black" points="697,-228.5 697,-247.5 780,-247.5 780,-228.5 697,-228.5"/>
<text text-anchor="middle" x="738.5" y="-235.5" font-family="Helvetica,sans-Serif" font-size="10.00">xiiGALTexture</text>
</a>
</g>
</g>
<!-- Node1&#45;&gt;Node18 -->
<g id="edge17" class="edge">
<title>Node1&#45;&gt;Node18</title>
<path fill="none" stroke="midnightblue" d="M628.74,-281.66C654.78,-271.2 690.38,-256.91 713.65,-247.57"/>
<polygon fill="midnightblue" stroke="midnightblue" points="627.24,-278.49 619.27,-285.46 629.85,-284.98 627.24,-278.49"/>
</g>
<!-- Node23 -->
<g id="node23" class="node">
<title>Node23</title>
<g id="a_node23"><a xlink:href="../../de/de7/classxii_g_a_l_top_level_a_s.htm" target="_top" xlink:title="Interface that defines methods to manipulate a top level acceleration structure (TLAS) object.">
<polygon fill="white" stroke="black" points="687,-76.5 687,-95.5 790,-95.5 790,-76.5 687,-76.5"/>
<text text-anchor="middle" x="738.5" y="-83.5" font-family="Helvetica,sans-Serif" font-size="10.00">xiiGALTopLevelAS</text>
</a>
</g>
</g>
<!-- Node1&#45;&gt;Node23 -->
<g id="edge22" class="edge">
<title>Node1&#45;&gt;Node23</title>
<path fill="none" stroke="midnightblue" d="M607.6,-277.19C636.52,-234.63 708.9,-128.1 730.99,-95.58"/>
<polygon fill="midnightblue" stroke="midnightblue" points="604.7,-275.24 601.97,-285.48 610.49,-279.17 604.7,-275.24"/>
</g>
<!-- Node2 -->
<g id="node2" class="node">
<title>Node2</title>
<g id="a_node2"><a xlink:href="../../d5/d12/classxii_g_a_l_device_object.htm" target="_top" xlink:title="Base Graphics Abstraction Layer Object.">
<polygon fill="white" stroke="black" points="399,-285.5 399,-304.5 512,-304.5 512,-285.5 399,-285.5"/>
<text text-anchor="middle" x="455.5" y="-292.5" font-family="Helvetica,sans-Serif" font-size="10.00">xiiGALDeviceObject</text>
</a>
</g>
</g>
<!-- Node2&#45;&gt;Node1 -->
<g id="edge1" class="edge">
<title>Node2&#45;&gt;Node1</title>
<path fill="none" stroke="midnightblue" d="M522.32,-295C530.97,-295 539.67,-295 547.88,-295"/>
<polygon fill="midnightblue" stroke="midnightblue" points="522.22,-291.5 512.22,-295 522.22,-298.5 522.22,-291.5"/>
</g>
<!-- Node3 -->
<g id="node3" class="node">
<title>Node3</title>
<g id="a_node3"><a xlink:href="../../d3/dda/classxii_g_a_l_object.htm" target="_top" xlink:title="Base Graphics Abstraction Layer Object.">
<polygon fill="white" stroke="black" points="283,-285.5 283,-304.5 363,-304.5 363,-285.5 283,-285.5"/>
<text text-anchor="middle" x="323" y="-292.5" font-family="Helvetica,sans-Serif" font-size="10.00">xiiGALObject</text>
</a>
</g>
</g>
<!-- Node3&#45;&gt;Node2 -->
<g id="edge2" class="edge">
<title>Node3&#45;&gt;Node2</title>
<path fill="none" stroke="midnightblue" d="M373.19,-295C381.61,-295 390.4,-295 398.97,-295"/>
<polygon fill="midnightblue" stroke="midnightblue" points="373.15,-291.5 363.15,-295 373.15,-298.5 373.15,-291.5"/>
</g>
<!-- Node4 -->
<g id="node4" class="node">
<title>Node4</title>
<g id="a_node4"><a xlink:href="../../dc/d71/classxii_reflected_class.htm" target="_top" xlink:title="All classes that should be dynamically reflectable, need to be derived from this base class.">
<polygon fill="white" stroke="black" points="146,-304.5 146,-323.5 247,-323.5 247,-304.5 146,-304.5"/>
<text text-anchor="middle" x="196.5" y="-311.5" font-family="Helvetica,sans-Serif" font-size="10.00">xiiReflectedClass</text>
</a>
</g>
</g>
<!-- Node4&#45;&gt;Node3 -->
<g id="edge3" class="edge">
<title>Node4&#45;&gt;Node3</title>
<path fill="none" stroke="midnightblue" d="M256.96,-304.93C265.79,-303.58 274.69,-302.22 282.96,-300.96"/>
<polygon fill="midnightblue" stroke="midnightblue" points="256.42,-301.47 247.06,-306.44 257.48,-308.39 256.42,-301.47"/>
</g>
<!-- Node5 -->
<g id="node5" class="node">
<title>Node5</title>
<g id="a_node5"><a xlink:href="../../d2/d38/classxii_no_base.htm" target="_top" xlink:title="Dummy type to pass to templates and macros that expect a base type for a class that has no base.">
<polygon fill="white" stroke="black" points="22,-304.5 22,-323.5 88,-323.5 88,-304.5 22,-304.5"/>
<text text-anchor="middle" x="55" y="-311.5" font-family="Helvetica,sans-Serif" font-size="10.00">xiiNoBase</text>
</a>
</g>
</g>
<!-- Node5&#45;&gt;Node4 -->
<g id="edge4" class="edge">
<title>Node5&#45;&gt;Node4</title>
<path fill="none" stroke="midnightblue" d="M98.06,-314C113.12,-314 130.23,-314 145.87,-314"/>
<polygon fill="midnightblue" stroke="midnightblue" points="98,-310.5 88,-314 98,-317.5 98,-310.5"/>
</g>
<!-- Node6 -->
<g id="node6" class="node">
<title>Node6</title>
<g id="a_node6"><a xlink:href="../../d3/dd0/classxii_ref_counted.htm" target="_top" xlink:title="Base class for reference counted objects.">
<polygon fill="white" stroke="black" points="153.5,-266.5 153.5,-285.5 239.5,-285.5 239.5,-266.5 153.5,-266.5"/>
<text text-anchor="middle" x="196.5" y="-273.5" font-family="Helvetica,sans-Serif" font-size="10.00">xiiRefCounted</text>
</a>
</g>
</g>
<!-- Node6&#45;&gt;Node3 -->
<g id="edge5" class="edge">
<title>Node6&#45;&gt;Node3</title>
<path fill="none" stroke="midnightblue" d="M249.68,-283.96C260.78,-285.66 272.32,-287.42 282.83,-289.02"/>
<polygon fill="midnightblue" stroke="midnightblue" points="250.06,-280.48 239.65,-282.43 249.01,-287.4 250.06,-280.48"/>
</g>
<!-- Node7 -->
<g id="node7" class="node">
<title>Node7</title>
<g id="a_node7"><a xlink:href="../../d7/df4/classxii_ref_counting_impl.htm" target="_top" xlink:title=" ">
<polygon fill="white" stroke="black" points="0,-266.5 0,-285.5 110,-285.5 110,-266.5 0,-266.5"/>
<text text-anchor="middle" x="55" y="-273.5" font-family="Helvetica,sans-Serif" font-size="10.00">xiiRefCountingImpl</text>
</a>
</g>
</g>
<!-- Node7&#45;&gt;Node6 -->
<g id="edge6" class="edge">
<title>Node7&#45;&gt;Node6</title>
<path fill="none" stroke="midnightblue" d="M120.45,-276C131.57,-276 142.86,-276 153.19,-276"/>
<polygon fill="midnightblue" stroke="midnightblue" points="120.33,-272.5 110.33,-276 120.33,-279.5 120.33,-272.5"/>
</g>
<!-- Node9 -->
<g id="node9" class="node">
<title>Node9</title>
<g id="a_node9"><a xlink:href="../../df/d5f/classxii_g_a_l_bottom_level_a_s_d3_d11.htm" target="_top" xlink:title=" ">
<polygon fill="white" stroke="black" points="836,-570.5 836,-589.5 992,-589.5 992,-570.5 836,-570.5"/>
<text text-anchor="middle" x="914" y="-577.5" font-family="Helvetica,sans-Serif" font-size="10.00">xiiGALBottomLevelASD3D11</text>
</a>
</g>
</g>
<!-- Node8&#45;&gt;Node9 -->
<g id="edge8" class="edge">
<title>Node8&#45;&gt;Node9</title>
<path fill="none" stroke="midnightblue" d="M761.39,-519.45C780.34,-532.2 808.91,-549.94 836,-561 845.18,-564.75 855.28,-567.89 865.07,-570.47"/>
<polygon fill="midnightblue" stroke="midnightblue" points="763.13,-516.4 752.9,-513.64 759.18,-522.18 763.13,-516.4"/>
</g>
<!-- Node10 -->
<g id="node10" class="node">
<title>Node10</title>
<g id="a_node10"><a xlink:href="../../de/d3f/classxii_g_a_l_bottom_level_a_s_d3_d12.htm" target="_top" xlink:title=" ">
<polygon fill="white" stroke="black" points="836,-532.5 836,-551.5 992,-551.5 992,-532.5 836,-532.5"/>
<text text-anchor="middle" x="914" y="-539.5" font-family="Helvetica,sans-Serif" font-size="10.00">xiiGALBottomLevelASD3D12</text>
</a>
</g>
</g>
<!-- Node8&#45;&gt;Node10 -->
<g id="edge9" class="edge">
<title>Node8&#45;&gt;Node10</title>
<path fill="none" stroke="midnightblue" d="M793.16,-515.75C817.69,-521.13 846.38,-527.41 869.53,-532.48"/>
<polygon fill="midnightblue" stroke="midnightblue" points="793.8,-512.31 783.28,-513.59 792.3,-519.15 793.8,-512.31"/>
</g>
<!-- Node11 -->
<g id="node11" class="node">
<title>Node11</title>
<g id="a_node11"><a xlink:href="../../db/d71/classxii_g_a_l_bottom_level_a_s_null.htm" target="_top" xlink:title=" ">
<polygon fill="white" stroke="black" points="842.5,-494.5 842.5,-513.5 985.5,-513.5 985.5,-494.5 842.5,-494.5"/>
<text text-anchor="middle" x="914" y="-501.5" font-family="Helvetica,sans-Serif" font-size="10.00">xiiGALBottomLevelASNull</text>
</a>
</g>
</g>
<!-- Node8&#45;&gt;Node11 -->
<g id="edge10" class="edge">
<title>Node8&#45;&gt;Node11</title>
<path fill="none" stroke="midnightblue" d="M810.19,-504C820.77,-504 831.67,-504 842.24,-504"/>
<polygon fill="midnightblue" stroke="midnightblue" points="810.18,-500.5 800.18,-504 810.18,-507.5 810.18,-500.5"/>
</g>
<!-- Node12 -->
<g id="node12" class="node">
<title>Node12</title>
<g id="a_node12"><a xlink:href="../../db/dce/classxii_g_a_l_bottom_level_a_s_vulkan.htm" target="_top" xlink:title=" ">
<polygon fill="white" stroke="black" points="836.5,-456.5 836.5,-475.5 991.5,-475.5 991.5,-456.5 836.5,-456.5"/>
<text text-anchor="middle" x="914" y="-463.5" font-family="Helvetica,sans-Serif" font-size="10.00">xiiGALBottomLevelASVulkan</text>
</a>
</g>
</g>
<!-- Node8&#45;&gt;Node12 -->
<g id="edge11" class="edge">
<title>Node8&#45;&gt;Node12</title>
<path fill="none" stroke="midnightblue" d="M793.16,-492.25C817.69,-486.87 846.38,-480.59 869.53,-475.52"/>
<polygon fill="midnightblue" stroke="midnightblue" points="792.3,-488.85 783.28,-494.41 793.8,-495.69 792.3,-488.85"/>
</g>
<!-- Node14 -->
<g id="node14" class="node">
<title>Node14</title>
<g id="a_node14"><a xlink:href="../../d6/d02/classxii_g_a_l_buffer_d3_d11.htm" target="_top" xlink:title=" ">
<polygon fill="white" stroke="black" points="859,-418.5 859,-437.5 969,-437.5 969,-418.5 859,-418.5"/>
<text text-anchor="middle" x="914" y="-425.5" font-family="Helvetica,sans-Serif" font-size="10.00">xiiGALBufferD3D11</text>
</a>
</g>
</g>
<!-- Node13&#45;&gt;Node14 -->
<g id="edge13" class="edge">
<title>Node13&#45;&gt;Node14</title>
<path fill="none" stroke="midnightblue" d="M761.39,-367.45C780.34,-380.2 808.91,-397.94 836,-409 845.18,-412.75 855.28,-415.89 865.07,-418.47"/>
<polygon fill="midnightblue" stroke="midnightblue" points="763.13,-364.4 752.9,-361.64 759.18,-370.18 763.13,-364.4"/>
</g>
<!-- Node15 -->
<g id="node15" class="node">
<title>Node15</title>
<g id="a_node15"><a xlink:href="../../d2/da9/classxii_g_a_l_buffer_d3_d12.htm" target="_top" xlink:title=" ">
<polygon fill="white" stroke="black" points="859,-380.5 859,-399.5 969,-399.5 969,-380.5 859,-380.5"/>
<text text-anchor="middle" x="914" y="-387.5" font-family="Helvetica,sans-Serif" font-size="10.00">xiiGALBufferD3D12</text>
</a>
</g>
</g>
<!-- Node13&#45;&gt;Node15 -->
<g id="edge14" class="edge">
<title>Node13&#45;&gt;Node15</title>
<path fill="none" stroke="midnightblue" d="M787.08,-362.42C812.87,-368.07 844.51,-375 869.62,-380.5"/>
<polygon fill="midnightblue" stroke="midnightblue" points="787.66,-358.97 777.15,-360.25 786.17,-365.8 787.66,-358.97"/>
</g>
<!-- Node16 -->
<g id="node16" class="node">
<title>Node16</title>
<g id="a_node16"><a xlink:href="../../dc/db5/classxii_g_a_l_buffer_null.htm" target="_top" xlink:title=" ">
<polygon fill="white" stroke="black" points="865.5,-342.5 865.5,-361.5 962.5,-361.5 962.5,-342.5 865.5,-342.5"/>
<text text-anchor="middle" x="914" y="-349.5" font-family="Helvetica,sans-Serif" font-size="10.00">xiiGALBufferNull</text>
</a>
</g>
</g>
<!-- Node13&#45;&gt;Node16 -->
<g id="edge15" class="edge">
<title>Node13&#45;&gt;Node16</title>
<path fill="none" stroke="midnightblue" d="M787.24,-352C811.61,-352 841.16,-352 865.5,-352"/>
<polygon fill="midnightblue" stroke="midnightblue" points="787.15,-348.5 777.15,-352 787.15,-355.5 787.15,-348.5"/>
</g>
<!-- Node17 -->
<g id="node17" class="node">
<title>Node17</title>
<g id="a_node17"><a xlink:href="../../d4/d0b/classxii_g_a_l_buffer_vulkan.htm" target="_top" xlink:title=" ">
<polygon fill="white" stroke="black" points="859,-304.5 859,-323.5 969,-323.5 969,-304.5 859,-304.5"/>
<text text-anchor="middle" x="914" y="-311.5" font-family="Helvetica,sans-Serif" font-size="10.00">xiiGALBufferVulkan</text>
</a>
</g>
</g>
<!-- Node13&#45;&gt;Node17 -->
<g id="edge16" class="edge">
<title>Node13&#45;&gt;Node17</title>
<path fill="none" stroke="midnightblue" d="M787.08,-341.58C812.87,-335.93 844.51,-329 869.62,-323.5"/>
<polygon fill="midnightblue" stroke="midnightblue" points="786.17,-338.2 777.15,-343.75 787.66,-345.03 786.17,-338.2"/>
</g>
<!-- Node19 -->
<g id="node19" class="node">
<title>Node19</title>
<g id="a_node19"><a xlink:href="../../d5/d37/classxii_g_a_l_texture_d3_d11.htm" target="_top" xlink:title=" ">
<polygon fill="white" stroke="black" points="856,-266.5 856,-285.5 972,-285.5 972,-266.5 856,-266.5"/>
<text text-anchor="middle" x="914" y="-273.5" font-family="Helvetica,sans-Serif" font-size="10.00">xiiGALTextureD3D11</text>
</a>
</g>
</g>
<!-- Node18&#45;&gt;Node19 -->
<g id="edge18" class="edge">
<title>Node18&#45;&gt;Node19</title>
<path fill="none" stroke="midnightblue" d="M790.27,-249.12C815.42,-254.63 845.47,-261.21 869.54,-266.48"/>
<polygon fill="midnightblue" stroke="midnightblue" points="790.7,-245.63 780.18,-246.91 789.2,-252.47 790.7,-245.63"/>
</g>
<!-- Node20 -->
<g id="node20" class="node">
<title>Node20</title>
<g id="a_node20"><a xlink:href="../../d7/db5/classxii_g_a_l_texture_d3_d12.htm" target="_top" xlink:title=" ">
<polygon fill="white" stroke="black" points="856,-228.5 856,-247.5 972,-247.5 972,-228.5 856,-228.5"/>
<text text-anchor="middle" x="914" y="-235.5" font-family="Helvetica,sans-Serif" font-size="10.00">xiiGALTextureD3D12</text>
</a>
</g>
</g>
<!-- Node18&#45;&gt;Node20 -->
<g id="edge19" class="edge">
<title>Node18&#45;&gt;Node20</title>
<path fill="none" stroke="midnightblue" d="M790.29,-238C810.84,-238 834.67,-238 855.83,-238"/>
<polygon fill="midnightblue" stroke="midnightblue" points="790.18,-234.5 780.18,-238 790.18,-241.5 790.18,-234.5"/>
</g>
<!-- Node21 -->
<g id="node21" class="node">
<title>Node21</title>
<g id="a_node21"><a xlink:href="../../dc/d91/classxii_g_a_l_texture_null.htm" target="_top" xlink:title=" ">
<polygon fill="white" stroke="black" points="862.5,-190.5 862.5,-209.5 965.5,-209.5 965.5,-190.5 862.5,-190.5"/>
<text text-anchor="middle" x="914" y="-197.5" font-family="Helvetica,sans-Serif" font-size="10.00">xiiGALTextureNull</text>
</a>
</g>
</g>
<!-- Node18&#45;&gt;Node21 -->
<g id="edge20" class="edge">
<title>Node18&#45;&gt;Node21</title>
<path fill="none" stroke="midnightblue" d="M790.27,-226.88C815.42,-221.37 845.47,-214.79 869.54,-209.52"/>
<polygon fill="midnightblue" stroke="midnightblue" points="789.2,-223.53 780.18,-229.09 790.7,-230.37 789.2,-223.53"/>
</g>
<!-- Node22 -->
<g id="node22" class="node">
<title>Node22</title>
<g id="a_node22"><a xlink:href="../../d7/d2e/classxii_g_a_l_texture_vulkan.htm" target="_top" xlink:title=" ">
<polygon fill="white" stroke="black" points="856,-152.5 856,-171.5 972,-171.5 972,-152.5 856,-152.5"/>
<text text-anchor="middle" x="914" y="-159.5" font-family="Helvetica,sans-Serif" font-size="10.00">xiiGALTextureVulkan</text>
</a>
</g>
</g>
<!-- Node18&#45;&gt;Node22 -->
<g id="edge21" class="edge">
<title>Node18&#45;&gt;Node22</title>
<path fill="none" stroke="midnightblue" d="M761.39,-222.55C780.34,-209.8 808.91,-192.06 836,-181 845.18,-177.25 855.28,-174.11 865.07,-171.53"/>
<polygon fill="midnightblue" stroke="midnightblue" points="759.18,-219.82 752.9,-228.36 763.13,-225.6 759.18,-219.82"/>
</g>
<!-- Node24 -->
<g id="node24" class="node">
<title>Node24</title>
<g id="a_node24"><a xlink:href="../../d3/d64/classxii_g_a_l_top_level_a_s_d3_d11.htm" target="_top" xlink:title=" ">
<polygon fill="white" stroke="black" points="846,-114.5 846,-133.5 982,-133.5 982,-114.5 846,-114.5"/>
<text text-anchor="middle" x="914" y="-121.5" font-family="Helvetica,sans-Serif" font-size="10.00">xiiGALTopLevelASD3D11</text>
</a>
</g>
</g>
<!-- Node23&#45;&gt;Node24 -->
<g id="edge23" class="edge">
<title>Node23&#45;&gt;Node24</title>
<path fill="none" stroke="midnightblue" d="M793.16,-97.75C817.69,-103.13 846.38,-109.41 869.53,-114.48"/>
<polygon fill="midnightblue" stroke="midnightblue" points="793.8,-94.31 783.28,-95.59 792.3,-101.15 793.8,-94.31"/>
</g>
<!-- Node25 -->
<g id="node25" class="node">
<title>Node25</title>
<g id="a_node25"><a xlink:href="../../d9/dd8/classxii_g_a_l_top_level_a_s_d3_d12.htm" target="_top" xlink:title=" ">
<polygon fill="white" stroke="black" points="846,-76.5 846,-95.5 982,-95.5 982,-76.5 846,-76.5"/>
<text text-anchor="middle" x="914" y="-83.5" font-family="Helvetica,sans-Serif" font-size="10.00">xiiGALTopLevelASD3D12</text>
</a>
</g>
</g>
<!-- Node23&#45;&gt;Node25 -->
<g id="edge24" class="edge">
<title>Node23&#45;&gt;Node25</title>
<path fill="none" stroke="midnightblue" d="M800.16,-86C814.92,-86 830.79,-86 845.83,-86"/>
<polygon fill="midnightblue" stroke="midnightblue" points="800.15,-82.5 790.15,-86 800.15,-89.5 800.15,-82.5"/>
</g>
<!-- Node26 -->
<g id="node26" class="node">
<title>Node26</title>
<g id="a_node26"><a xlink:href="../../d6/d71/classxii_g_a_l_top_level_a_s_null.htm" target="_top" xlink:title=" ">
<polygon fill="white" stroke="black" points="853,-38.5 853,-57.5 975,-57.5 975,-38.5 853,-38.5"/>
<text text-anchor="middle" x="914" y="-45.5" font-family="Helvetica,sans-Serif" font-size="10.00">xiiGALTopLevelASNull</text>
</a>
</g>
</g>
<!-- Node23&#45;&gt;Node26 -->
<g id="edge25" class="edge">
<title>Node23&#45;&gt;Node26</title>
<path fill="none" stroke="midnightblue" d="M793.16,-74.25C817.69,-68.87 846.38,-62.59 869.53,-57.52"/>
<polygon fill="midnightblue" stroke="midnightblue" points="792.3,-70.85 783.28,-76.41 793.8,-77.69 792.3,-70.85"/>
</g>
<!-- Node27 -->
<g id="node27" class="node">
<title>Node27</title>
<g id="a_node27"><a xlink:href="../../da/daa/classxii_g_a_l_top_level_a_s_vulkan.htm" target="_top" xlink:title=" ">
<polygon fill="white" stroke="black" points="846.5,-0.5 846.5,-19.5 981.5,-19.5 981.5,-0.5 846.5,-0.5"/>
<text text-anchor="middle" x="914" y="-7.5" font-family="Helvetica,sans-Serif" font-size="10.00">xiiGALTopLevelASVulkan</text>
</a>
</g>
</g>
<!-- Node23&#45;&gt;Node27 -->
<g id="edge26" class="edge">
<title>Node23&#45;&gt;Node27</title>
<path fill="none" stroke="midnightblue" d="M761.39,-70.55C780.34,-57.8 808.91,-40.06 836,-29 845.18,-25.25 855.28,-22.11 865.07,-19.53"/>
<polygon fill="midnightblue" stroke="midnightblue" points="759.18,-67.82 752.9,-76.36 763.13,-73.6 759.18,-67.82"/>
</g>
</g>
</svg>
        <g id="navigator" transform="translate(0 0)" fill="#404254">
                <rect fill="#f2f5e9" fill-opacity="0.5" stroke="#606060" stroke-width=".5" x="0" y="0" width="60" height="60"/>
                <use id="zoomplus" xlink:href="#zoomPlus" x="17" y="9" onmousedown="handleZoom(evt,'in')"/>
                <use id="zoomminus" xlink:href="#zoomMin" x="42" y="9" onmousedown="handleZoom(evt,'out')"/>
                <use id="reset" xlink:href="#resetDef" x="30" y="36" onmousedown="handleReset()"/>
                <g id="arrowUp" xlink:href="#dirArrow" transform="translate(30 24)" onmousedown="handlePan(0,-1)">
                  <use xlink:href="#rim" fill="#404040">
                        <set attributeName="fill" to="#808080" begin="arrowUp.mouseover" end="arrowUp.mouseout"/>
                  </use>
                  <path fill="none" stroke="white" stroke-width="1.5" d="M0,-3.0v7 M-2.5,-0.5L0,-3.0L2.5,-0.5"/>
                </g>
                <g id="arrowRight" xlink:href="#dirArrow" transform="rotate(90) translate(36 -43)" onmousedown="handlePan(1,0)">
                  <use xlink:href="#rim" fill="#404040">
                        <set attributeName="fill" to="#808080" begin="arrowRight.mouseover" end="arrowRight.mouseout"/>
                  </use>
                  <path fill="none" stroke="white" stroke-width="1.5" d="M0,-3.0v7 M-2.5,-0.5L0,-3.0L2.5,-0.5"/>
                </g>
                <g id="arrowDown" xlink:href="#dirArrow" transform="rotate(180) translate(-30 -48)" onmousedown="handlePan(0,1)">
                  <use xlink:href="#rim" fill="#404040">
                        <set attributeName="fill" to="#808080" begin="arrowDown.mouseover" end="arrowDown.mouseout"/>
                  </use>
                  <path fill="none" stroke="white" stroke-width="1.5" d="M0,-3.0v7 M-2.5,-0.5L0,-3.0L2.5,-0.5"/>
                </g>
                <g id="arrowLeft" xlink:href="#dirArrow" transform="rotate(270) translate(-36 17)" onmousedown="handlePan(-1,0)">
                  <use xlink:href="#rim" fill="#404040">
                        <set attributeName="fill" to="#808080" begin="arrowLeft.mouseover" end="arrowLeft.mouseout"/>
                  </use>
                  <path fill="none" stroke="white" stroke-width="1.5" d="M0,-3.0v7 M-2.5,-0.5L0,-3.0L2.5,-0.5"/>
                </g>
        </g>
        <svg viewBox="0 0 15 15" width="100%" height="30px" preserveAspectRatio="xMaxYMin meet">
         <g id="arrow_out" transform="scale(0.3 0.3)">
          <a xlink:href="classxii_g_a_l_resource__inherit__graph_org.svg" target="_base">
           <rect id="button" ry="5" rx="5" y="6" x="6" height="38" width="38"
                fill="#f2f5e9" fill-opacity="0.5" stroke="#606060" stroke-width="1.0"/>
           <path id="arrow"
             d="M 11.500037,31.436501 C 11.940474,20.09759 22.043105,11.32322 32.158766,21.979434 L 37.068811,17.246167 C 37.068811,17.246167 37.088388,32 37.088388,32 L 22.160133,31.978069 C 22.160133,31.978069 26.997745,27.140456 26.997745,27.140456 C 18.528582,18.264221 13.291696,25.230495 11.500037,31.436501 z"
             style="fill:#404040;"/>
          </a>
         </g>
        </svg>
</svg>
