<?xml version="1.0" encoding="UTF-8" standalone="no"?>
<!DOCTYPE svg PUBLIC "-//W3C//DTD SVG 1.1//EN"
 "http://www.w3.org/Graphics/SVG/1.1/DTD/svg11.dtd">
<!-- Generated by graphviz version 2.43.0 (0)
 -->
<!-- Title: xiiGALResource Pages: 1 -->
<svg width="1000pt" height="582pt"
 viewBox="0.00 0.00 1000.00 582.00" xmlns="http://www.w3.org/2000/svg" xmlns:xlink="http://www.w3.org/1999/xlink">
<g id="graph0" class="graph" transform="scale(1 1) rotate(0) translate(4 578)">
<title>xiiGALResource</title>
<!-- Node1 -->
<g id="Node000001" class="node">
<title>Node1</title>
<g id="a_Node000001"><a xlink:title="Base class for all GAL resources (textures, buffers, etc).">
<polygon fill="#999999" stroke="#666666" points="641,-296 548,-296 548,-277 641,-277 641,-296"/>
<text text-anchor="middle" x="594.5" y="-284" font-family="Helvetica,sans-Serif" font-size="10.00">xiiGALResource</text>
</a>
</g>
</g>
<!-- Node8 -->
<g id="Node000008" class="node">
<title>Node8</title>
<g id="a_Node000008"><a xlink:href="../../dc/d29/classxii_g_a_l_bottom_level_a_s.htm" target="_top" xlink:title="Interface that defines methods to manipulate a bottom level acceleration structure (BLAS) object.">
<polygon fill="white" stroke="#666666" points="800,-500 677,-500 677,-481 800,-481 800,-500"/>
<text text-anchor="middle" x="738.5" y="-488" font-family="Helvetica,sans-Serif" font-size="10.00">xiiGALBottomLevelAS</text>
</a>
</g>
</g>
<!-- Node1&#45;&gt;Node8 -->
<g id="edge7_Node000001_Node000008" class="edge">
<title>Node1&#45;&gt;Node8</title>
<g id="a_edge7_Node000001_Node000008"><a xlink:title=" ">
<path fill="none" stroke="#63b8ff" d="M607.98,-304.43C637.02,-346.15 708.34,-448.62 730.69,-480.72"/>
<polygon fill="#63b8ff" stroke="#63b8ff" points="610.74,-302.27 602.16,-296.07 605,-306.27 610.74,-302.27"/>
</a>
</g>
</g>
<!-- Node13 -->
<g id="Node000013" class="node">
<title>Node13</title>
<g id="a_Node000013"><a xlink:href="../../da/d03/classxii_g_a_l_buffer.htm" target="_top" xlink:title="Interface that defines methods to manipulate a buffer object.">
<polygon fill="white" stroke="#666666" points="777,-352 700,-352 700,-333 777,-333 777,-352"/>
<text text-anchor="middle" x="738.5" y="-340" font-family="Helvetica,sans-Serif" font-size="10.00">xiiGALBuffer</text>
</a>
</g>
</g>
<!-- Node1&#45;&gt;Node13 -->
<g id="edge12_Node000001_Node000013" class="edge">
<title>Node1&#45;&gt;Node13</title>
<g id="a_edge12_Node000001_Node000013"><a xlink:title=" ">
<path fill="none" stroke="#63b8ff" d="M629.34,-299.85C655.24,-310.06 690.31,-323.89 713.41,-333"/>
<polygon fill="#63b8ff" stroke="#63b8ff" points="630.5,-296.54 619.91,-296.13 627.93,-303.05 630.5,-296.54"/>
</a>
</g>
</g>
<!-- Node18 -->
<g id="Node000018" class="node">
<title>Node18</title>
<g id="a_Node000018"><a xlink:href="../../d3/d9a/classxii_g_a_l_texture.htm" target="_top" xlink:title="Interface that defines methods to manipulate a texture object.">
<polygon fill="white" stroke="#666666" points="780,-241 697,-241 697,-222 780,-222 780,-241"/>
<text text-anchor="middle" x="738.5" y="-229" font-family="Helvetica,sans-Serif" font-size="10.00">xiiGALTexture</text>
</a>
</g>
</g>
<!-- Node1&#45;&gt;Node18 -->
<g id="edge17_Node000001_Node000018" class="edge">
<title>Node1&#45;&gt;Node18</title>
<g id="a_edge17_Node000001_Node000018"><a xlink:title=" ">
<path fill="none" stroke="#63b8ff" d="M629.89,-273.18C655.42,-263.29 689.64,-250.04 712.57,-241.16"/>
<polygon fill="#63b8ff" stroke="#63b8ff" points="628.3,-270.04 620.23,-276.92 630.82,-276.57 628.3,-270.04"/>
</a>
</g>
</g>
<!-- Node23 -->
<g id="Node000023" class="node">
<title>Node23</title>
<g id="a_Node000023"><a xlink:href="../../de/de7/classxii_g_a_l_top_level_a_s.htm" target="_top" xlink:title="Interface that defines methods to manipulate a top level acceleration structure (TLAS) object.">
<polygon fill="white" stroke="#666666" points="790,-93 687,-93 687,-74 790,-74 790,-93"/>
<text text-anchor="middle" x="738.5" y="-81" font-family="Helvetica,sans-Serif" font-size="10.00">xiiGALTopLevelAS</text>
</a>
</g>
</g>
<!-- Node1&#45;&gt;Node23 -->
<g id="edge22_Node000001_Node000023" class="edge">
<title>Node1&#45;&gt;Node23</title>
<g id="a_edge22_Node000001_Node000023"><a xlink:title=" ">
<path fill="none" stroke="#63b8ff" d="M607.98,-268.66C637.02,-227.14 708.34,-125.18 730.69,-93.23"/>
<polygon fill="#63b8ff" stroke="#63b8ff" points="605.02,-266.78 602.16,-276.98 610.76,-270.79 605.02,-266.78"/>
</a>
</g>
</g>
<!-- Node2 -->
<g id="Node000002" class="node">
<title>Node2</title>
<g id="a_Node000002"><a xlink:href="../../d5/d12/classxii_g_a_l_device_object.htm" target="_top" xlink:title="Base Graphics Abstraction Layer Object.">
<polygon fill="white" stroke="#666666" points="512,-296 399,-296 399,-277 512,-277 512,-296"/>
<text text-anchor="middle" x="455.5" y="-284" font-family="Helvetica,sans-Serif" font-size="10.00">xiiGALDeviceObject</text>
</a>
</g>
</g>
<!-- Node2&#45;&gt;Node1 -->
<g id="edge1_Node000001_Node000002" class="edge">
<title>Node2&#45;&gt;Node1</title>
<g id="a_edge1_Node000001_Node000002"><a xlink:title=" ">
<path fill="none" stroke="#63b8ff" d="M522.32,-286.5C530.97,-286.5 539.67,-286.5 547.88,-286.5"/>
<polygon fill="#63b8ff" stroke="#63b8ff" points="522.22,-283 512.22,-286.5 522.22,-290 522.22,-283"/>
</a>
</g>
</g>
<!-- Node3 -->
<g id="Node000003" class="node">
<title>Node3</title>
<g id="a_Node000003"><a xlink:href="../../d3/dda/classxii_g_a_l_object.htm" target="_top" xlink:title="Base Graphics Abstraction Layer Object.">
<polygon fill="white" stroke="#666666" points="363,-296 283,-296 283,-277 363,-277 363,-296"/>
<text text-anchor="middle" x="323" y="-284" font-family="Helvetica,sans-Serif" font-size="10.00">xiiGALObject</text>
</a>
</g>
</g>
<!-- Node3&#45;&gt;Node2 -->
<g id="edge2_Node000002_Node000003" class="edge">
<title>Node3&#45;&gt;Node2</title>
<g id="a_edge2_Node000002_Node000003"><a xlink:title=" ">
<path fill="none" stroke="#63b8ff" d="M373.19,-286.5C381.61,-286.5 390.4,-286.5 398.97,-286.5"/>
<polygon fill="#63b8ff" stroke="#63b8ff" points="373.15,-283 363.15,-286.5 373.15,-290 373.15,-283"/>
</a>
</g>
</g>
<!-- Node4 -->
<g id="Node000004" class="node">
<title>Node4</title>
<g id="a_Node000004"><a xlink:href="../../dc/d71/classxii_reflected_class.htm" target="_top" xlink:title="All classes that should be dynamically reflectable, need to be derived from this base class.">
<polygon fill="white" stroke="#666666" points="247,-315 146,-315 146,-296 247,-296 247,-315"/>
<text text-anchor="middle" x="196.5" y="-303" font-family="Helvetica,sans-Serif" font-size="10.00">xiiReflectedClass</text>
</a>
</g>
</g>
<!-- Node4&#45;&gt;Node3 -->
<g id="edge3_Node000003_Node000004" class="edge">
<title>Node4&#45;&gt;Node3</title>
<g id="a_edge3_Node000003_Node000004"><a xlink:title=" ">
<path fill="none" stroke="#63b8ff" d="M256.96,-296.43C265.79,-295.08 274.69,-293.72 282.96,-292.46"/>
<polygon fill="#63b8ff" stroke="#63b8ff" points="256.42,-292.97 247.06,-297.94 257.48,-299.89 256.42,-292.97"/>
</a>
</g>
</g>
<!-- Node5 -->
<g id="Node000005" class="node">
<title>Node5</title>
<g id="a_Node000005"><a xlink:href="../../d2/d38/classxii_no_base.htm" target="_top" xlink:title="Dummy type to pass to templates and macros that expect a base type for a class that has no base.">
<polygon fill="white" stroke="#666666" points="88,-315 22,-315 22,-296 88,-296 88,-315"/>
<text text-anchor="middle" x="55" y="-303" font-family="Helvetica,sans-Serif" font-size="10.00">xiiNoBase</text>
</a>
</g>
</g>
<!-- Node5&#45;&gt;Node4 -->
<g id="edge4_Node000004_Node000005" class="edge">
<title>Node5&#45;&gt;Node4</title>
<g id="a_edge4_Node000004_Node000005"><a xlink:title=" ">
<path fill="none" stroke="#63b8ff" d="M98.06,-305.5C113.12,-305.5 130.23,-305.5 145.87,-305.5"/>
<polygon fill="#63b8ff" stroke="#63b8ff" points="98,-302 88,-305.5 98,-309 98,-302"/>
</a>
</g>
</g>
<!-- Node6 -->
<g id="Node000006" class="node">
<title>Node6</title>
<g id="a_Node000006"><a xlink:href="../../d3/dd0/classxii_ref_counted.htm" target="_top" xlink:title="Base class for reference counted objects.">
<polygon fill="white" stroke="#666666" points="239.5,-278 153.5,-278 153.5,-259 239.5,-259 239.5,-278"/>
<text text-anchor="middle" x="196.5" y="-266" font-family="Helvetica,sans-Serif" font-size="10.00">xiiRefCounted</text>
</a>
</g>
</g>
<!-- Node6&#45;&gt;Node3 -->
<g id="edge5_Node000003_Node000006" class="edge">
<title>Node6&#45;&gt;Node3</title>
<g id="a_edge5_Node000003_Node000006"><a xlink:title=" ">
<path fill="none" stroke="#63b8ff" d="M249.68,-276.04C260.78,-277.65 272.32,-279.32 282.83,-280.84"/>
<polygon fill="#63b8ff" stroke="#63b8ff" points="250.05,-272.56 239.65,-274.59 249.05,-279.49 250.05,-272.56"/>
</a>
</g>
</g>
<!-- Node7 -->
<g id="Node000007" class="node">
<title>Node7</title>
<g id="a_Node000007"><a xlink:href="../../d7/df4/classxii_ref_counting_impl.htm" target="_top" xlink:title=" ">
<polygon fill="white" stroke="#bfbfbf" points="110,-278 0,-278 0,-259 110,-259 110,-278"/>
<text text-anchor="middle" x="55" y="-266" font-family="Helvetica,sans-Serif" font-size="10.00">xiiRefCountingImpl</text>
</a>
</g>
</g>
<!-- Node7&#45;&gt;Node6 -->
<g id="edge6_Node000006_Node000007" class="edge">
<title>Node7&#45;&gt;Node6</title>
<g id="a_edge6_Node000006_Node000007"><a xlink:title=" ">
<path fill="none" stroke="#63b8ff" d="M120.45,-268.5C131.57,-268.5 142.86,-268.5 153.19,-268.5"/>
<polygon fill="#63b8ff" stroke="#63b8ff" points="120.33,-265 110.33,-268.5 120.33,-272 120.33,-265"/>
</a>
</g>
</g>
<!-- Node9 -->
<g id="Node000009" class="node">
<title>Node9</title>
<g id="a_Node000009"><a xlink:href="../../df/d5f/classxii_g_a_l_bottom_level_a_s_d3_d11.htm" target="_top" xlink:title=" ">
<polygon fill="white" stroke="#bfbfbf" points="992,-574 836,-574 836,-555 992,-555 992,-574"/>
<text text-anchor="middle" x="914" y="-562" font-family="Helvetica,sans-Serif" font-size="10.00">xiiGALBottomLevelASD3D11</text>
</a>
</g>
</g>
<!-- Node8&#45;&gt;Node9 -->
<g id="edge8_Node000008_Node000009" class="edge">
<title>Node8&#45;&gt;Node9</title>
<g id="a_edge8_Node000008_Node000009"><a xlink:title=" ">
<path fill="none" stroke="#63b8ff" d="M761.39,-505.74C780.36,-518.31 808.92,-535.76 836,-546.5 844.42,-549.84 853.62,-552.66 862.63,-554.99"/>
<polygon fill="#63b8ff" stroke="#63b8ff" points="763.15,-502.71 752.91,-500.02 759.24,-508.51 763.15,-502.71"/>
</a>
</g>
</g>
<!-- Node10 -->
<g id="Node000010" class="node">
<title>Node10</title>
<g id="a_Node000010"><a xlink:href="../../de/d3f/classxii_g_a_l_bottom_level_a_s_d3_d12.htm" target="_top" xlink:title=" ">
<polygon fill="white" stroke="#bfbfbf" points="992,-537 836,-537 836,-518 992,-518 992,-537"/>
<text text-anchor="middle" x="914" y="-525" font-family="Helvetica,sans-Serif" font-size="10.00">xiiGALBottomLevelASD3D12</text>
</a>
</g>
</g>
<!-- Node8&#45;&gt;Node10 -->
<g id="edge9_Node000008_Node000010" class="edge">
<title>Node8&#45;&gt;Node10</title>
<g id="a_edge9_Node000008_Node000010"><a xlink:title=" ">
<path fill="none" stroke="#63b8ff" d="M794.14,-502.15C817.97,-507.23 845.57,-513.12 868.17,-517.94"/>
<polygon fill="#63b8ff" stroke="#63b8ff" points="794.69,-498.69 784.18,-500.03 793.23,-505.54 794.69,-498.69"/>
</a>
</g>
</g>
<!-- Node11 -->
<g id="Node000011" class="node">
<title>Node11</title>
<g id="a_Node000011"><a xlink:href="../../db/d71/classxii_g_a_l_bottom_level_a_s_null.htm" target="_top" xlink:title=" ">
<polygon fill="white" stroke="#bfbfbf" points="985.5,-500 842.5,-500 842.5,-481 985.5,-481 985.5,-500"/>
<text text-anchor="middle" x="914" y="-488" font-family="Helvetica,sans-Serif" font-size="10.00">xiiGALBottomLevelASNull</text>
</a>
</g>
</g>
<!-- Node8&#45;&gt;Node11 -->
<g id="edge10_Node000008_Node000011" class="edge">
<title>Node8&#45;&gt;Node11</title>
<g id="a_edge10_Node000008_Node000011"><a xlink:title=" ">
<path fill="none" stroke="#63b8ff" d="M810.19,-490.5C820.77,-490.5 831.67,-490.5 842.24,-490.5"/>
<polygon fill="#63b8ff" stroke="#63b8ff" points="810.18,-487 800.18,-490.5 810.18,-494 810.18,-487"/>
</a>
</g>
</g>
<!-- Node12 -->
<g id="Node000012" class="node">
<title>Node12</title>
<g id="a_Node000012"><a xlink:href="../../db/dce/classxii_g_a_l_bottom_level_a_s_vulkan.htm" target="_top" xlink:title=" ">
<polygon fill="white" stroke="#bfbfbf" points="991.5,-463 836.5,-463 836.5,-444 991.5,-444 991.5,-463"/>
<text text-anchor="middle" x="914" y="-451" font-family="Helvetica,sans-Serif" font-size="10.00">xiiGALBottomLevelASVulkan</text>
</a>
</g>
</g>
<!-- Node8&#45;&gt;Node12 -->
<g id="edge11_Node000008_Node000012" class="edge">
<title>Node8&#45;&gt;Node12</title>
<g id="a_edge11_Node000008_Node000012"><a xlink:title=" ">
<path fill="none" stroke="#63b8ff" d="M794.14,-478.85C817.97,-473.77 845.57,-467.88 868.17,-463.06"/>
<polygon fill="#63b8ff" stroke="#63b8ff" points="793.23,-475.46 784.18,-480.97 794.69,-482.31 793.23,-475.46"/>
</a>
</g>
</g>
<!-- Node14 -->
<g id="Node000014" class="node">
<title>Node14</title>
<g id="a_Node000014"><a xlink:href="../../d6/d02/classxii_g_a_l_buffer_d3_d11.htm" target="_top" xlink:title=" ">
<polygon fill="white" stroke="#bfbfbf" points="969,-426 859,-426 859,-407 969,-407 969,-426"/>
<text text-anchor="middle" x="914" y="-414" font-family="Helvetica,sans-Serif" font-size="10.00">xiiGALBufferD3D11</text>
</a>
</g>
</g>
<!-- Node13&#45;&gt;Node14 -->
<g id="edge13_Node000013_Node000014" class="edge">
<title>Node13&#45;&gt;Node14</title>
<g id="a_edge13_Node000013_Node000014"><a xlink:title=" ">
<path fill="none" stroke="#63b8ff" d="M761.39,-357.74C780.36,-370.31 808.92,-387.76 836,-398.5 844.42,-401.84 853.62,-404.66 862.63,-406.99"/>
<polygon fill="#63b8ff" stroke="#63b8ff" points="763.15,-354.71 752.91,-352.02 759.24,-360.51 763.15,-354.71"/>
</a>
</g>
</g>
<!-- Node15 -->
<g id="Node000015" class="node">
<title>Node15</title>
<g id="a_Node000015"><a xlink:href="../../d2/da9/classxii_g_a_l_buffer_d3_d12.htm" target="_top" xlink:title=" ">
<polygon fill="white" stroke="#bfbfbf" points="969,-389 859,-389 859,-370 969,-370 969,-389"/>
<text text-anchor="middle" x="914" y="-377" font-family="Helvetica,sans-Serif" font-size="10.00">xiiGALBufferD3D12</text>
</a>
</g>
</g>
<!-- Node13&#45;&gt;Node15 -->
<g id="edge14_Node000013_Node000015" class="edge">
<title>Node13&#45;&gt;Node15</title>
<g id="a_edge14_Node000013_Node000015"><a xlink:title=" ">
<path fill="none" stroke="#63b8ff" d="M786.93,-352.61C812.32,-358.03 843.41,-364.66 868.36,-369.98"/>
<polygon fill="#63b8ff" stroke="#63b8ff" points="787.66,-349.19 777.15,-350.53 786.2,-356.04 787.66,-349.19"/>
</a>
</g>
</g>
<!-- Node16 -->
<g id="Node000016" class="node">
<title>Node16</title>
<g id="a_Node000016"><a xlink:href="../../dc/db5/classxii_g_a_l_buffer_null.htm" target="_top" xlink:title=" ">
<polygon fill="white" stroke="#bfbfbf" points="962.5,-352 865.5,-352 865.5,-333 962.5,-333 962.5,-352"/>
<text text-anchor="middle" x="914" y="-340" font-family="Helvetica,sans-Serif" font-size="10.00">xiiGALBufferNull</text>
</a>
</g>
</g>
<!-- Node13&#45;&gt;Node16 -->
<g id="edge15_Node000013_Node000016" class="edge">
<title>Node13&#45;&gt;Node16</title>
<g id="a_edge15_Node000013_Node000016"><a xlink:title=" ">
<path fill="none" stroke="#63b8ff" d="M787.24,-342.5C811.61,-342.5 841.16,-342.5 865.5,-342.5"/>
<polygon fill="#63b8ff" stroke="#63b8ff" points="787.15,-339 777.15,-342.5 787.15,-346 787.15,-339"/>
</a>
</g>
</g>
<!-- Node17 -->
<g id="Node000017" class="node">
<title>Node17</title>
<g id="a_Node000017"><a xlink:href="../../d4/d0b/classxii_g_a_l_buffer_vulkan.htm" target="_top" xlink:title=" ">
<polygon fill="white" stroke="#bfbfbf" points="969,-315 859,-315 859,-296 969,-296 969,-315"/>
<text text-anchor="middle" x="914" y="-303" font-family="Helvetica,sans-Serif" font-size="10.00">xiiGALBufferVulkan</text>
</a>
</g>
</g>
<!-- Node13&#45;&gt;Node17 -->
<g id="edge16_Node000013_Node000017" class="edge">
<title>Node13&#45;&gt;Node17</title>
<g id="a_edge16_Node000013_Node000017"><a xlink:title=" ">
<path fill="none" stroke="#63b8ff" d="M786.93,-332.39C812.32,-326.97 843.41,-320.34 868.36,-315.02"/>
<polygon fill="#63b8ff" stroke="#63b8ff" points="786.2,-328.96 777.15,-334.47 787.66,-335.81 786.2,-328.96"/>
</a>
</g>
</g>
<!-- Node19 -->
<g id="Node000019" class="node">
<title>Node19</title>
<g id="a_Node000019"><a xlink:href="../../d5/d37/classxii_g_a_l_texture_d3_d11.htm" target="_top" xlink:title=" ">
<polygon fill="white" stroke="#bfbfbf" points="972,-278 856,-278 856,-259 972,-259 972,-278"/>
<text text-anchor="middle" x="914" y="-266" font-family="Helvetica,sans-Serif" font-size="10.00">xiiGALTextureD3D11</text>
</a>
</g>
</g>
<!-- Node18&#45;&gt;Node19 -->
<g id="edge18_Node000018_Node000019" class="edge">
<title>Node18&#45;&gt;Node19</title>
<g id="a_edge18_Node000018_Node000019"><a xlink:title=" ">
<path fill="none" stroke="#63b8ff" d="M790.11,-242.29C814.87,-247.57 844.4,-253.87 868.31,-258.97"/>
<polygon fill="#63b8ff" stroke="#63b8ff" points="790.69,-238.84 780.18,-240.17 789.23,-245.68 790.69,-238.84"/>
</a>
</g>
</g>
<!-- Node20 -->
<g id="Node000020" class="node">
<title>Node20</title>
<g id="a_Node000020"><a xlink:href="../../d7/db5/classxii_g_a_l_texture_d3_d12.htm" target="_top" xlink:title=" ">
<polygon fill="white" stroke="#bfbfbf" points="972,-241 856,-241 856,-222 972,-222 972,-241"/>
<text text-anchor="middle" x="914" y="-229" font-family="Helvetica,sans-Serif" font-size="10.00">xiiGALTextureD3D12</text>
</a>
</g>
</g>
<!-- Node18&#45;&gt;Node20 -->
<g id="edge19_Node000018_Node000020" class="edge">
<title>Node18&#45;&gt;Node20</title>
<g id="a_edge19_Node000018_Node000020"><a xlink:title=" ">
<path fill="none" stroke="#63b8ff" d="M790.29,-231.5C810.84,-231.5 834.67,-231.5 855.83,-231.5"/>
<polygon fill="#63b8ff" stroke="#63b8ff" points="790.18,-228 780.18,-231.5 790.18,-235 790.18,-228"/>
</a>
</g>
</g>
<!-- Node21 -->
<g id="Node000021" class="node">
<title>Node21</title>
<g id="a_Node000021"><a xlink:href="../../dc/d91/classxii_g_a_l_texture_null.htm" target="_top" xlink:title=" ">
<polygon fill="white" stroke="#bfbfbf" points="965.5,-204 862.5,-204 862.5,-185 965.5,-185 965.5,-204"/>
<text text-anchor="middle" x="914" y="-192" font-family="Helvetica,sans-Serif" font-size="10.00">xiiGALTextureNull</text>
</a>
</g>
</g>
<!-- Node18&#45;&gt;Node21 -->
<g id="edge20_Node000018_Node000021" class="edge">
<title>Node18&#45;&gt;Node21</title>
<g id="a_edge20_Node000018_Node000021"><a xlink:title=" ">
<path fill="none" stroke="#63b8ff" d="M790.11,-220.71C814.87,-215.43 844.4,-209.13 868.31,-204.03"/>
<polygon fill="#63b8ff" stroke="#63b8ff" points="789.23,-217.32 780.18,-222.83 790.69,-224.16 789.23,-217.32"/>
</a>
</g>
</g>
<!-- Node22 -->
<g id="Node000022" class="node">
<title>Node22</title>
<g id="a_Node000022"><a xlink:href="../../d7/d2e/classxii_g_a_l_texture_vulkan.htm" target="_top" xlink:title=" ">
<polygon fill="white" stroke="#bfbfbf" points="972,-167 856,-167 856,-148 972,-148 972,-167"/>
<text text-anchor="middle" x="914" y="-155" font-family="Helvetica,sans-Serif" font-size="10.00">xiiGALTextureVulkan</text>
</a>
</g>
</g>
<!-- Node18&#45;&gt;Node22 -->
<g id="edge21_Node000018_Node000022" class="edge">
<title>Node18&#45;&gt;Node22</title>
<g id="a_edge21_Node000018_Node000022"><a xlink:title=" ">
<path fill="none" stroke="#63b8ff" d="M761.39,-216.26C780.36,-203.69 808.92,-186.24 836,-175.5 844.42,-172.16 853.62,-169.34 862.63,-167.01"/>
<polygon fill="#63b8ff" stroke="#63b8ff" points="759.24,-213.49 752.91,-221.98 763.15,-219.29 759.24,-213.49"/>
</a>
</g>
</g>
<!-- Node24 -->
<g id="Node000024" class="node">
<title>Node24</title>
<g id="a_Node000024"><a xlink:href="../../d3/d64/classxii_g_a_l_top_level_a_s_d3_d11.htm" target="_top" xlink:title=" ">
<polygon fill="white" stroke="#bfbfbf" points="982,-130 846,-130 846,-111 982,-111 982,-130"/>
<text text-anchor="middle" x="914" y="-118" font-family="Helvetica,sans-Serif" font-size="10.00">xiiGALTopLevelASD3D11</text>
</a>
</g>
</g>
<!-- Node23&#45;&gt;Node24 -->
<g id="edge23_Node000023_Node000024" class="edge">
<title>Node23&#45;&gt;Node24</title>
<g id="a_edge23_Node000023_Node000024"><a xlink:title=" ">
<path fill="none" stroke="#63b8ff" d="M794.14,-95.15C817.97,-100.23 845.57,-106.12 868.17,-110.94"/>
<polygon fill="#63b8ff" stroke="#63b8ff" points="794.69,-91.69 784.18,-93.03 793.23,-98.54 794.69,-91.69"/>
</a>
</g>
</g>
<!-- Node25 -->
<g id="Node000025" class="node">
<title>Node25</title>
<g id="a_Node000025"><a xlink:href="../../d9/dd8/classxii_g_a_l_top_level_a_s_d3_d12.htm" target="_top" xlink:title=" ">
<polygon fill="white" stroke="#bfbfbf" points="982,-93 846,-93 846,-74 982,-74 982,-93"/>
<text text-anchor="middle" x="914" y="-81" font-family="Helvetica,sans-Serif" font-size="10.00">xiiGALTopLevelASD3D12</text>
</a>
</g>
</g>
<!-- Node23&#45;&gt;Node25 -->
<g id="edge24_Node000023_Node000025" class="edge">
<title>Node23&#45;&gt;Node25</title>
<g id="a_edge24_Node000023_Node000025"><a xlink:title=" ">
<path fill="none" stroke="#63b8ff" d="M800.16,-83.5C814.92,-83.5 830.79,-83.5 845.83,-83.5"/>
<polygon fill="#63b8ff" stroke="#63b8ff" points="800.15,-80 790.15,-83.5 800.15,-87 800.15,-80"/>
</a>
</g>
</g>
<!-- Node26 -->
<g id="Node000026" class="node">
<title>Node26</title>
<g id="a_Node000026"><a xlink:href="../../d6/d71/classxii_g_a_l_top_level_a_s_null.htm" target="_top" xlink:title=" ">
<polygon fill="white" stroke="#bfbfbf" points="975,-56 853,-56 853,-37 975,-37 975,-56"/>
<text text-anchor="middle" x="914" y="-44" font-family="Helvetica,sans-Serif" font-size="10.00">xiiGALTopLevelASNull</text>
</a>
</g>
</g>
<!-- Node23&#45;&gt;Node26 -->
<g id="edge25_Node000023_Node000026" class="edge">
<title>Node23&#45;&gt;Node26</title>
<g id="a_edge25_Node000023_Node000026"><a xlink:title=" ">
<path fill="none" stroke="#63b8ff" d="M794.14,-71.85C817.97,-66.77 845.57,-60.88 868.17,-56.06"/>
<polygon fill="#63b8ff" stroke="#63b8ff" points="793.23,-68.46 784.18,-73.97 794.69,-75.31 793.23,-68.46"/>
</a>
</g>
</g>
<!-- Node27 -->
<g id="Node000027" class="node">
<title>Node27</title>
<g id="a_Node000027"><a xlink:href="../../da/daa/classxii_g_a_l_top_level_a_s_vulkan.htm" target="_top" xlink:title=" ">
<polygon fill="white" stroke="#bfbfbf" points="981.5,-19 846.5,-19 846.5,0 981.5,0 981.5,-19"/>
<text text-anchor="middle" x="914" y="-7" font-family="Helvetica,sans-Serif" font-size="10.00">xiiGALTopLevelASVulkan</text>
</a>
</g>
</g>
<!-- Node23&#45;&gt;Node27 -->
<g id="edge26_Node000023_Node000027" class="edge">
<title>Node23&#45;&gt;Node27</title>
<g id="a_edge26_Node000023_Node000027"><a xlink:title=" ">
<path fill="none" stroke="#63b8ff" d="M761.39,-68.26C780.36,-55.69 808.92,-38.24 836,-27.5 844.42,-24.16 853.62,-21.34 862.63,-19.01"/>
<polygon fill="#63b8ff" stroke="#63b8ff" points="759.24,-65.49 752.91,-73.98 763.15,-71.29 759.24,-65.49"/>
</a>
</g>
</g>
</g>
</svg>
