<?xml version="1.0" encoding="UTF-8" standalone="no"?>
<!DOCTYPE svg PUBLIC "-//W3C//DTD SVG 1.1//EN"
 "http://www.w3.org/Graphics/SVG/1.1/DTD/svg11.dtd">
<!-- Generated by graphviz version 2.43.0 (0)
 -->
<!-- Title: xiiCurve1DAssetDocumentManager Pages: 1 -->
<svg width="199pt" height="252pt"
 viewBox="0.00 0.00 199.00 252.00" xmlns="http://www.w3.org/2000/svg" xmlns:xlink="http://www.w3.org/1999/xlink">
<g id="graph0" class="graph" transform="scale(1 1) rotate(0) translate(4 248)">
<title>xiiCurve1DAssetDocumentManager</title>
<polygon fill="white" stroke="transparent" points="-4,4 -4,-248 195,-248 195,4 -4,4"/>
<!-- Node1 -->
<g id="node1" class="node">
<title>Node1</title>
<g id="a_node1"><a xlink:title=" ">
<polygon fill="#bfbfbf" stroke="black" points="0,-0.5 0,-19.5 191,-19.5 191,-0.5 0,-0.5"/>
<text text-anchor="middle" x="95.5" y="-7.5" font-family="Helvetica,sans-Serif" font-size="10.00">xiiCurve1DAssetDocumentManager</text>
</a>
</g>
</g>
<!-- Node2 -->
<g id="node2" class="node">
<title>Node2</title>
<g id="a_node2"><a xlink:href="../../d4/da4/classxii_asset_document_manager.htm" target="_top" xlink:title=" ">
<polygon fill="white" stroke="black" points="21,-56.5 21,-75.5 170,-75.5 170,-56.5 21,-56.5"/>
<text text-anchor="middle" x="95.5" y="-63.5" font-family="Helvetica,sans-Serif" font-size="10.00">xiiAssetDocumentManager</text>
</a>
</g>
</g>
<!-- Node2&#45;&gt;Node1 -->
<g id="edge1" class="edge">
<title>Node2&#45;&gt;Node1</title>
<path fill="none" stroke="midnightblue" d="M95.5,-45.8C95.5,-36.91 95.5,-26.78 95.5,-19.75"/>
<polygon fill="midnightblue" stroke="midnightblue" points="92,-46.08 95.5,-56.08 99,-46.08 92,-46.08"/>
</g>
<!-- Node3 -->
<g id="node3" class="node">
<title>Node3</title>
<g id="a_node3"><a xlink:href="../../d8/d34/classxii_document_manager.htm" target="_top" xlink:title=" ">
<polygon fill="white" stroke="black" points="34.5,-112.5 34.5,-131.5 156.5,-131.5 156.5,-112.5 34.5,-112.5"/>
<text text-anchor="middle" x="95.5" y="-119.5" font-family="Helvetica,sans-Serif" font-size="10.00">xiiDocumentManager</text>
</a>
</g>
</g>
<!-- Node3&#45;&gt;Node2 -->
<g id="edge2" class="edge">
<title>Node3&#45;&gt;Node2</title>
<path fill="none" stroke="midnightblue" d="M95.5,-101.8C95.5,-92.91 95.5,-82.78 95.5,-75.75"/>
<polygon fill="midnightblue" stroke="midnightblue" points="92,-102.08 95.5,-112.08 99,-102.08 92,-102.08"/>
</g>
<!-- Node4 -->
<g id="node4" class="node">
<title>Node4</title>
<g id="a_node4"><a xlink:href="../../dc/d71/classxii_reflected_class.htm" target="_top" xlink:title="All classes that should be dynamically reflectable, need to be derived from this base class.">
<polygon fill="white" stroke="black" points="45,-168.5 45,-187.5 146,-187.5 146,-168.5 45,-168.5"/>
<text text-anchor="middle" x="95.5" y="-175.5" font-family="Helvetica,sans-Serif" font-size="10.00">xiiReflectedClass</text>
</a>
</g>
</g>
<!-- Node4&#45;&gt;Node3 -->
<g id="edge3" class="edge">
<title>Node4&#45;&gt;Node3</title>
<path fill="none" stroke="midnightblue" d="M95.5,-157.8C95.5,-148.91 95.5,-138.78 95.5,-131.75"/>
<polygon fill="midnightblue" stroke="midnightblue" points="92,-158.08 95.5,-168.08 99,-158.08 92,-158.08"/>
</g>
<!-- Node5 -->
<g id="node5" class="node">
<title>Node5</title>
<g id="a_node5"><a xlink:href="../../d2/d38/classxii_no_base.htm" target="_top" xlink:title="Dummy type to pass to templates and macros that expect a base type for a class that has no base.">
<polygon fill="white" stroke="black" points="62.5,-224.5 62.5,-243.5 128.5,-243.5 128.5,-224.5 62.5,-224.5"/>
<text text-anchor="middle" x="95.5" y="-231.5" font-family="Helvetica,sans-Serif" font-size="10.00">xiiNoBase</text>
</a>
</g>
</g>
<!-- Node5&#45;&gt;Node4 -->
<g id="edge4" class="edge">
<title>Node5&#45;&gt;Node4</title>
<path fill="none" stroke="midnightblue" d="M95.5,-213.8C95.5,-204.91 95.5,-194.78 95.5,-187.75"/>
<polygon fill="midnightblue" stroke="midnightblue" points="92,-214.08 95.5,-224.08 99,-214.08 92,-214.08"/>
</g>
</g>
</svg>
