<?xml version="1.0" encoding="UTF-8" standalone="no"?>
<!DOCTYPE svg PUBLIC "-//W3C//DTD SVG 1.1//EN"
 "http://www.w3.org/Graphics/SVG/1.1/DTD/svg11.dtd">
<!-- Generated by graphviz version 2.43.0 (0)
 -->
<!-- Title: xiiGALShaderResourceVariable Pages: 1 -->
<!--zoomable 172 -->

<svg id="main" version="1.1" xmlns="http://www.w3.org/2000/svg" xmlns:xlink="http://www.w3.org/1999/xlink" xml:space="preserve" onload="init(evt)">
<style type="text/css"><![CDATA[
.node, .edge {opacity: 0.7;}
.node.selected, .edge.selected {opacity: 1;}
.edge:hover path { stroke: red; }
.edge:hover polygon { stroke: red; fill: red; }
]]></style>

<defs>
  <circle id="rim" cx="0" cy="0" r="7"/>
  <circle id="rim2" cx="0" cy="0" r="3.5"/>
  <g id="zoomPlus">
    <use xlink:href="#rim" fill="#404040"><set attributeName="fill" to="#808080" begin="zoomplus.mouseover" end="zoomplus.mouseout"/></use>
    <path d="M-4,0h8M0,-4v8" fill="none" stroke="white" stroke-width="1.5" pointer-events="none"/>
  </g>
  <g id="zoomMin">
    <use xlink:href="#rim" fill="#404040"><set attributeName="fill" to="#808080" begin="zoomminus.mouseover" end="zoomminus.mouseout"/></use>
    <path d="M-4,0h8" fill="none" stroke="white" stroke-width="1.5" pointer-events="none"/>
  </g>
  <g id="arrowUp" transform="translate(30 24)">
    <use xlink:href="#rim"/>
    <path pointer-events="none" fill="none" stroke="white" stroke-width="1.5" d="M0,-3.0v7 M-2.5,-0.5L0,-3.0L2.5,-0.5"/>
  </g>
  <g id="arrowRight" transform="rotate(90) translate(36 -43)">
    <use xlink:href="#rim"/>
    <path pointer-events="none" fill="none" stroke="white" stroke-width="1.5" d="M0,-3.0v7 M-2.5,-0.5L0,-3.0L2.5,-0.5"/>
  </g>
  <g id="arrowDown" transform="rotate(180) translate(-30 -48)">
    <use xlink:href="#rim"/>
    <path pointer-events="none" fill="none" stroke="white" stroke-width="1.5" d="M0,-3.0v7 M-2.5,-0.5L0,-3.0L2.5,-0.5"/>
  </g>
  <g id="arrowLeft" transform="rotate(270) translate(-36 17)">
    <use xlink:href="#rim"/>
    <path pointer-events="none" fill="none" stroke="white" stroke-width="1.5" d="M0,-3.0v7 M-2.5,-0.5L0,-3.0L2.5,-0.5"/>
  </g>
  <g id="resetDef">
    <use xlink:href="#rim2" fill="#404040"><set attributeName="fill" to="#808080" begin="reset.mouseover" end="reset.mouseout"/></use>
  </g>
</defs>
<script type="application/ecmascript">
var viewWidth = 796;
var viewHeight = 172;
var sectionId = 'dynsection-0';
</script>
<script type="application/ecmascript" xlink:href="../../svg.min.js"/>
<svg id="graph" class="graph">
<g id="viewport">
<title>xiiGALShaderResourceVariable</title>
<!-- Node1 -->
<g id="Node000001" class="node">
<title>Node1</title>
<g id="a_Node000001"><a xlink:title="Interface that defines methods to manipulate a shader resource variable object.">
<polygon fill="#999999" stroke="#666666" points="566,-88.5 399,-88.5 399,-69.5 566,-69.5 566,-88.5"/>
<text text-anchor="middle" x="482.5" y="-76.5" font-family="Helvetica,sans-Serif" font-size="10.00">xiiGALShaderResourceVariable</text>
</a>
</g>
</g>
<!-- Node7 -->
<g id="Node000007" class="node">
<title>Node7</title>
<g id="a_Node000007"><a xlink:href="../../d5/d4a/classxii_g_a_l_shader_resource_variable_d3_d11.html" target="_top" xlink:title=" ">
<polygon fill="white" stroke="#bfbfbf" points="778.5,-164 611.5,-164 611.5,-134 778.5,-134 778.5,-164"/>
<text text-anchor="start" x="619.5" y="-152" font-family="Helvetica,sans-Serif" font-size="10.00">xiiGALShaderResourceVariable</text>
<text text-anchor="middle" x="695" y="-141" font-family="Helvetica,sans-Serif" font-size="10.00">D3D11</text>
</a>
</g>
</g>
<!-- Node1&#45;&gt;Node7 -->
<g id="edge6_Node000001_Node000007" class="edge">
<title>Node1&#45;&gt;Node7</title>
<g id="a_edge6_Node000001_Node000007"><a xlink:title=" ">
<path fill="none" stroke="#63b8ff" d="M515.45,-92.56C539.1,-102.31 572.24,-115.38 602,-125 611.74,-128.15 622.16,-131.18 632.35,-133.97"/>
<polygon fill="#63b8ff" stroke="#63b8ff" points="516.52,-89.21 505.94,-88.6 513.83,-95.67 516.52,-89.21"/>
</a>
</g>
</g>
<!-- Node8 -->
<g id="Node000008" class="node">
<title>Node8</title>
<g id="a_Node000008"><a xlink:href="../../d6/d4b/classxii_g_a_l_shader_resource_variable_d3_d12.html" target="_top" xlink:title=" ">
<polygon fill="white" stroke="#bfbfbf" points="778.5,-116 611.5,-116 611.5,-86 778.5,-86 778.5,-116"/>
<text text-anchor="start" x="619.5" y="-104" font-family="Helvetica,sans-Serif" font-size="10.00">xiiGALShaderResourceVariable</text>
<text text-anchor="middle" x="695" y="-93" font-family="Helvetica,sans-Serif" font-size="10.00">D3D12</text>
</a>
</g>
</g>
<!-- Node1&#45;&gt;Node8 -->
<g id="edge7_Node000001_Node000008" class="edge">
<title>Node1&#45;&gt;Node8</title>
<g id="a_edge7_Node000001_Node000008"><a xlink:title=" ">
<path fill="none" stroke="#63b8ff" d="M576.27,-88.7C587.94,-89.91 599.81,-91.16 611.3,-92.36"/>
<polygon fill="#63b8ff" stroke="#63b8ff" points="576.4,-85.19 566.09,-87.63 575.67,-92.15 576.4,-85.19"/>
</a>
</g>
</g>
<!-- Node9 -->
<g id="Node000009" class="node">
<title>Node9</title>
<g id="a_Node000009"><a xlink:href="../../d0/df8/classxii_g_a_l_shader_resource_variable_null.html" target="_top" xlink:title=" ">
<polygon fill="white" stroke="#bfbfbf" points="788,-67.5 602,-67.5 602,-48.5 788,-48.5 788,-67.5"/>
<text text-anchor="middle" x="695" y="-55.5" font-family="Helvetica,sans-Serif" font-size="10.00">xiiGALShaderResourceVariableNull</text>
</a>
</g>
</g>
<!-- Node1&#45;&gt;Node9 -->
<g id="edge8_Node000001_Node000009" class="edge">
<title>Node1&#45;&gt;Node9</title>
<g id="a_edge8_Node000001_Node000009"><a xlink:title=" ">
<path fill="none" stroke="#63b8ff" d="M576.08,-69.76C584.65,-68.91 593.33,-68.04 601.9,-67.19"/>
<polygon fill="#63b8ff" stroke="#63b8ff" points="575.69,-66.29 566.09,-70.76 576.39,-73.25 575.69,-66.29"/>
</a>
</g>
</g>
<!-- Node10 -->
<g id="Node000010" class="node">
<title>Node10</title>
<g id="a_Node000010"><a xlink:href="../../d3/d2c/classxii_g_a_l_shader_resource_variable_vulkan.html" target="_top" xlink:title=" ">
<polygon fill="white" stroke="#bfbfbf" points="778.5,-30 611.5,-30 611.5,0 778.5,0 778.5,-30"/>
<text text-anchor="start" x="619.5" y="-18" font-family="Helvetica,sans-Serif" font-size="10.00">xiiGALShaderResourceVariable</text>
<text text-anchor="middle" x="695" y="-7" font-family="Helvetica,sans-Serif" font-size="10.00">Vulkan</text>
</a>
</g>
</g>
<!-- Node1&#45;&gt;Node10 -->
<g id="edge9_Node000001_Node000010" class="edge">
<title>Node1&#45;&gt;Node10</title>
<g id="a_edge9_Node000001_Node000010"><a xlink:title=" ">
<path fill="none" stroke="#63b8ff" d="M519.66,-66.06C543.02,-57.88 574.15,-47.32 602,-39 612.28,-35.93 623.27,-32.87 633.95,-30.01"/>
<polygon fill="#63b8ff" stroke="#63b8ff" points="518.42,-62.78 510.15,-69.4 520.75,-69.38 518.42,-62.78"/>
</a>
</g>
</g>
<!-- Node2 -->
<g id="Node000002" class="node">
<title>Node2</title>
<g id="a_Node000002"><a xlink:href="../../d3/dda/classxii_g_a_l_object.html" target="_top" xlink:title="Base Graphics Abstraction Layer Object.">
<polygon fill="white" stroke="#666666" points="363,-88.5 283,-88.5 283,-69.5 363,-69.5 363,-88.5"/>
<text text-anchor="middle" x="323" y="-76.5" font-family="Helvetica,sans-Serif" font-size="10.00">xiiGALObject</text>
</a>
</g>
</g>
<!-- Node2&#45;&gt;Node1 -->
<g id="edge1_Node000001_Node000002" class="edge">
<title>Node2&#45;&gt;Node1</title>
<g id="a_edge1_Node000001_Node000002"><a xlink:title=" ">
<path fill="none" stroke="#63b8ff" d="M373.4,-79C381.59,-79 390.26,-79 398.99,-79"/>
<polygon fill="#63b8ff" stroke="#63b8ff" points="373.34,-75.5 363.34,-79 373.34,-82.5 373.34,-75.5"/>
</a>
</g>
</g>
<!-- Node3 -->
<g id="Node000003" class="node">
<title>Node3</title>
<g id="a_Node000003"><a xlink:href="../../dc/d71/classxii_reflected_class.html" target="_top" xlink:title="All classes that should be dynamically reflectable, need to be derived from this base class.">
<polygon fill="white" stroke="#666666" points="247,-107.5 146,-107.5 146,-88.5 247,-88.5 247,-107.5"/>
<text text-anchor="middle" x="196.5" y="-95.5" font-family="Helvetica,sans-Serif" font-size="10.00">xiiReflectedClass</text>
</a>
</g>
</g>
<!-- Node3&#45;&gt;Node2 -->
<g id="edge2_Node000002_Node000003" class="edge">
<title>Node3&#45;&gt;Node2</title>
<g id="a_edge2_Node000002_Node000003"><a xlink:title=" ">
<path fill="none" stroke="#63b8ff" d="M256.96,-88.93C265.79,-87.58 274.69,-86.22 282.96,-84.96"/>
<polygon fill="#63b8ff" stroke="#63b8ff" points="256.42,-85.47 247.06,-90.44 257.48,-92.39 256.42,-85.47"/>
</a>
</g>
</g>
<!-- Node4 -->
<g id="Node000004" class="node">
<title>Node4</title>
<g id="a_Node000004"><a xlink:href="../../d2/d38/classxii_no_base.html" target="_top" xlink:title="Dummy type to pass to templates and macros that expect a base type for a class that has no base.">
<polygon fill="white" stroke="#666666" points="88,-107.5 22,-107.5 22,-88.5 88,-88.5 88,-107.5"/>
<text text-anchor="middle" x="55" y="-95.5" font-family="Helvetica,sans-Serif" font-size="10.00">xiiNoBase</text>
</a>
</g>
</g>
<!-- Node4&#45;&gt;Node3 -->
<g id="edge3_Node000003_Node000004" class="edge">
<title>Node4&#45;&gt;Node3</title>
<g id="a_edge3_Node000003_Node000004"><a xlink:title=" ">
<path fill="none" stroke="#63b8ff" d="M98.06,-98C113.12,-98 130.23,-98 145.87,-98"/>
<polygon fill="#63b8ff" stroke="#63b8ff" points="98,-94.5 88,-98 98,-101.5 98,-94.5"/>
</a>
</g>
</g>
<!-- Node5 -->
<g id="Node000005" class="node">
<title>Node5</title>
<g id="a_Node000005"><a xlink:href="../../d3/dd0/classxii_ref_counted.html" target="_top" xlink:title="Base class for reference counted objects.">
<polygon fill="white" stroke="#666666" points="239.5,-70.5 153.5,-70.5 153.5,-51.5 239.5,-51.5 239.5,-70.5"/>
<text text-anchor="middle" x="196.5" y="-58.5" font-family="Helvetica,sans-Serif" font-size="10.00">xiiRefCounted</text>
</a>
</g>
</g>
<!-- Node5&#45;&gt;Node2 -->
<g id="edge4_Node000002_Node000005" class="edge">
<title>Node5&#45;&gt;Node2</title>
<g id="a_edge4_Node000002_Node000005"><a xlink:title=" ">
<path fill="none" stroke="#63b8ff" d="M249.68,-68.54C260.78,-70.15 272.32,-71.82 282.83,-73.34"/>
<polygon fill="#63b8ff" stroke="#63b8ff" points="250.05,-65.06 239.65,-67.09 249.05,-71.99 250.05,-65.06"/>
</a>
</g>
</g>
<!-- Node6 -->
<g id="Node000006" class="node">
<title>Node6</title>
<g id="a_Node000006"><a xlink:href="../../d7/df4/classxii_ref_counting_impl.html" target="_top" xlink:title=" ">
<polygon fill="white" stroke="#bfbfbf" points="110,-70.5 0,-70.5 0,-51.5 110,-51.5 110,-70.5"/>
<text text-anchor="middle" x="55" y="-58.5" font-family="Helvetica,sans-Serif" font-size="10.00">xiiRefCountingImpl</text>
</a>
</g>
</g>
<!-- Node6&#45;&gt;Node5 -->
<g id="edge5_Node000005_Node000006" class="edge">
<title>Node6&#45;&gt;Node5</title>
<g id="a_edge5_Node000005_Node000006"><a xlink:title=" ">
<path fill="none" stroke="#63b8ff" d="M120.45,-61C131.57,-61 142.86,-61 153.19,-61"/>
<polygon fill="#63b8ff" stroke="#63b8ff" points="120.33,-57.5 110.33,-61 120.33,-64.5 120.33,-57.5"/>
</a>
</g>
</g>
</g>
</svg>

<g id="navigator" transform="translate(0 0)" fill="#404254">
  <rect fill="#f2f5e9" fill-opacity="0.5" stroke="#606060" stroke-width=".5" x="0" y="0" width="60" height="60"/>
  <use id="zoomplus" xlink:href="#zoomPlus" x="17" y="9" onmousedown="handleZoom(evt,'in')"/>
  <use id="zoomminus" xlink:href="#zoomMin" x="42" y="9" onmousedown="handleZoom(evt,'out')"/>
  <use id="reset" xlink:href="#resetDef" x="30" y="36" onmousedown="handleReset()"/>
   <use id="arrowup" xlink:href="#arrowUp" x="0" y="0" onmousedown="handlePan(0,-1)"/>
  <use id="arrowright" xlink:href="#arrowRight" x="0" y="0" onmousedown="handlePan(1,0)"/>
  <use id="arrowdown" xlink:href="#arrowDown" x="0" y="0" onmousedown="handlePan(0,1)"/>
  <use id="arrowleft" xlink:href="#arrowLeft" x="0" y="0" onmousedown="handlePan(-1,0)"/>
</g>
<svg viewBox="0 0 15 15" width="100%" height="30px" preserveAspectRatio="xMaxYMin meet">
 <g id="arrow_out" transform="scale(0.3 0.3)">
  <a xlink:href="classxii_g_a_l_shader_resource_variable__inherit__graph_org.svg" target="_base">
   <rect id="button" ry="5" rx="5" y="6" x="6" height="38" width="38"
        fill="#f2f5e9" fill-opacity="0.5" stroke="#606060" stroke-width="1.0"/>
   <path id="arrow"
     d="M 11.500037,31.436501 C 11.940474,20.09759 22.043105,11.32322 32.158766,21.979434 L 37.068811,17.246167 C 37.068811,17.246167 37.088388,32 37.088388,32 L 22.160133,31.978069 C 22.160133,31.978069 26.997745,27.140456 26.997745,27.140456 C 18.528582,18.264221 13.291696,25.230495 11.500037,31.436501 z"
     style="fill:#404040;"/>
  </a>
 </g>
</svg>

<style type='text/css'>
<![CDATA[
[data-mouse-over-selected='false'] { opacity: 0.7; }
[data-mouse-over-selected='true']  { opacity: 1.0; }
]]>
</style>
<script type="application/ecmascript"><![CDATA[
document.addEventListener('DOMContentLoaded', (event) => {
  highlightEdges();
  highlightAdjacentNodes();
});
]]></script>
</svg>
