<?xml version="1.0" encoding="UTF-8" standalone="no"?>
<!DOCTYPE svg PUBLIC "-//W3C//DTD SVG 1.1//EN"
 "http://www.w3.org/Graphics/SVG/1.1/DTD/svg11.dtd">
<!-- Generated by graphviz version 2.43.0 (0)
 -->
<!-- Title: xiiConsoleFunction&lt; R &gt; Pages: 1 -->
<svg width="157pt" height="207pt"
 viewBox="0.00 0.00 157.00 207.00" xmlns="http://www.w3.org/2000/svg" xmlns:xlink="http://www.w3.org/1999/xlink">
<g id="graph0" class="graph" transform="scale(1 1) rotate(0) translate(4 203)">
<title>xiiConsoleFunction&lt; R &gt;</title>
<polygon fill="white" stroke="transparent" points="-4,4 -4,-203 153,-203 153,4 -4,4"/>
<!-- Node1 -->
<g id="node1" class="node">
<title>Node1</title>
<g id="a_node1"><a xlink:title="Implements the functionality of xiiConsoleFunctionBase for functions with different parameter types....">
<polygon fill="#bfbfbf" stroke="black" points="5.5,-0.5 5.5,-19.5 143.5,-19.5 143.5,-0.5 5.5,-0.5"/>
<text text-anchor="middle" x="74.5" y="-7.5" font-family="Helvetica,sans-Serif" font-size="10.00">xiiConsoleFunction&lt; R &gt;</text>
</a>
</g>
</g>
<!-- Node2 -->
<g id="node2" class="node">
<title>Node2</title>
<g id="a_node2"><a xlink:href="../../de/d74/classxii_console_function_base.htm" target="_top" xlink:title="Base class for all types of xiiConsoleFunction, represents functions to be exposed to xiiConsole.">
<polygon fill="white" stroke="black" points="8,-56.5 8,-75.5 141,-75.5 141,-56.5 8,-56.5"/>
<text text-anchor="middle" x="74.5" y="-63.5" font-family="Helvetica,sans-Serif" font-size="10.00">xiiConsoleFunctionBase</text>
</a>
</g>
</g>
<!-- Node2&#45;&gt;Node1 -->
<g id="edge1" class="edge">
<title>Node2&#45;&gt;Node1</title>
<path fill="none" stroke="midnightblue" d="M74.5,-45.8C74.5,-36.91 74.5,-26.78 74.5,-19.75"/>
<polygon fill="midnightblue" stroke="midnightblue" points="71,-46.08 74.5,-56.08 78,-46.08 71,-46.08"/>
</g>
<!-- Node3 -->
<g id="node3" class="node">
<title>Node3</title>
<g id="a_node3"><a xlink:href="../../dc/d54/classxii_enumerable.htm" target="_top" xlink:title=" ">
<polygon fill="white" stroke="black" points="0,-112.5 0,-142.5 149,-142.5 149,-112.5 0,-112.5"/>
<text text-anchor="start" x="8" y="-130.5" font-family="Helvetica,sans-Serif" font-size="10.00">xiiEnumerable&lt; xiiConsole</text>
<text text-anchor="middle" x="74.5" y="-119.5" font-family="Helvetica,sans-Serif" font-size="10.00">FunctionBase &gt;</text>
</a>
</g>
</g>
<!-- Node3&#45;&gt;Node2 -->
<g id="edge2" class="edge">
<title>Node3&#45;&gt;Node2</title>
<path fill="none" stroke="midnightblue" d="M74.5,-102.29C74.5,-92.86 74.5,-82.65 74.5,-75.66"/>
<polygon fill="midnightblue" stroke="midnightblue" points="71,-102.4 74.5,-112.4 78,-102.4 71,-102.4"/>
</g>
<!-- Node4 -->
<g id="node4" class="node">
<title>Node4</title>
<g id="a_node4"><a xlink:href="../../d2/d38/classxii_no_base.htm" target="_top" xlink:title="Dummy type to pass to templates and macros that expect a base type for a class that has no base.">
<polygon fill="white" stroke="black" points="41.5,-179.5 41.5,-198.5 107.5,-198.5 107.5,-179.5 41.5,-179.5"/>
<text text-anchor="middle" x="74.5" y="-186.5" font-family="Helvetica,sans-Serif" font-size="10.00">xiiNoBase</text>
</a>
</g>
</g>
<!-- Node4&#45;&gt;Node3 -->
<g id="edge3" class="edge">
<title>Node4&#45;&gt;Node3</title>
<path fill="none" stroke="midnightblue" d="M74.5,-169.23C74.5,-160.59 74.5,-150.5 74.5,-142.52"/>
<polygon fill="midnightblue" stroke="midnightblue" points="71,-169.48 74.5,-179.48 78,-169.48 71,-169.48"/>
</g>
</g>
</svg>
