<?xml version="1.0" encoding="UTF-8" standalone="no"?>
<!DOCTYPE svg PUBLIC "-//W3C//DTD SVG 1.1//EN"
 "http://www.w3.org/Graphics/SVG/1.1/DTD/svg11.dtd">
<!-- Generated by graphviz version 2.43.0 (0)
 -->
<!-- Title: xiiDataDirectoryReader Pages: 1 -->
<svg width="717pt" height="86pt"
 viewBox="0.00 0.00 717.00 86.00" xmlns="http://www.w3.org/2000/svg" xmlns:xlink="http://www.w3.org/1999/xlink">
<g id="graph0" class="graph" transform="scale(1 1) rotate(0) translate(4 82)">
<title>xiiDataDirectoryReader</title>
<!-- Node1 -->
<g id="Node000001" class="node">
<title>Node1</title>
<g id="a_Node000001"><a xlink:title="A base class for readers that handle reading from a (virtual) file inside a data directory.">
<polygon fill="#999999" stroke="#666666" points="352,-48.5 221,-48.5 221,-29.5 352,-29.5 352,-48.5"/>
<text text-anchor="middle" x="286.5" y="-36.5" font-family="Helvetica,sans-Serif" font-size="10.00">xiiDataDirectoryReader</text>
</a>
</g>
</g>
<!-- Node3 -->
<g id="Node000003" class="node">
<title>Node3</title>
<g id="a_Node000003"><a xlink:href="../../db/d24/classxii_data_directory_1_1_archive_reader_common.html" target="_top" xlink:title=" ">
<polygon fill="white" stroke="#bfbfbf" points="527,-78 388,-78 388,-48 527,-48 527,-78"/>
<text text-anchor="start" x="396" y="-66" font-family="Helvetica,sans-Serif" font-size="10.00">xiiDataDirectory::Archive</text>
<text text-anchor="middle" x="457.5" y="-55" font-family="Helvetica,sans-Serif" font-size="10.00">ReaderCommon</text>
</a>
</g>
</g>
<!-- Node1&#45;&gt;Node3 -->
<g id="edge2_Node000001_Node000003" class="edge">
<title>Node1&#45;&gt;Node3</title>
<g id="a_edge2_Node000001_Node000003"><a xlink:title=" ">
<path fill="none" stroke="#63b8ff" d="M362.28,-49.62C370.8,-50.83 379.45,-52.06 387.89,-53.26"/>
<polygon fill="#63b8ff" stroke="#63b8ff" points="362.75,-46.15 352.36,-48.21 361.77,-53.08 362.75,-46.15"/>
</a>
</g>
</g>
<!-- Node5 -->
<g id="Node000005" class="node">
<title>Node5</title>
<g id="a_Node000005"><a xlink:href="../../da/d76/classxii_data_directory_1_1_folder_reader.html" target="_top" xlink:title="Handles reading from ordinary files.">
<polygon fill="white" stroke="#666666" points="523.5,-30 391.5,-30 391.5,0 523.5,0 523.5,-30"/>
<text text-anchor="start" x="399.5" y="-18" font-family="Helvetica,sans-Serif" font-size="10.00">xiiDataDirectory::Folder</text>
<text text-anchor="middle" x="457.5" y="-7" font-family="Helvetica,sans-Serif" font-size="10.00">Reader</text>
</a>
</g>
</g>
<!-- Node1&#45;&gt;Node5 -->
<g id="edge4_Node000001_Node000005" class="edge">
<title>Node1&#45;&gt;Node5</title>
<g id="a_edge4_Node000001_Node000005"><a xlink:title=" ">
<path fill="none" stroke="#63b8ff" d="M362.32,-28.37C371.97,-27 381.78,-25.61 391.26,-24.27"/>
<polygon fill="#63b8ff" stroke="#63b8ff" points="361.77,-24.92 352.36,-29.79 362.75,-31.85 361.77,-24.92"/>
</a>
</g>
</g>
<!-- Node2 -->
<g id="Node000002" class="node">
<title>Node2</title>
<g id="a_Node000002"><a xlink:href="../../d5/d39/classxii_data_directory_reader_writer_base.html" target="_top" xlink:title="This is the base class for all data directory readers/writers.">
<polygon fill="white" stroke="#666666" points="185,-48.5 0,-48.5 0,-29.5 185,-29.5 185,-48.5"/>
<text text-anchor="middle" x="92.5" y="-36.5" font-family="Helvetica,sans-Serif" font-size="10.00">xiiDataDirectoryReaderWriterBase</text>
</a>
</g>
</g>
<!-- Node2&#45;&gt;Node1 -->
<g id="edge1_Node000001_Node000002" class="edge">
<title>Node2&#45;&gt;Node1</title>
<g id="a_edge1_Node000001_Node000002"><a xlink:title=" ">
<path fill="none" stroke="#63b8ff" d="M195.19,-39C203.87,-39 212.48,-39 220.74,-39"/>
<polygon fill="#63b8ff" stroke="#63b8ff" points="195,-35.5 185,-39 195,-42.5 195,-35.5"/>
</a>
</g>
</g>
<!-- Node4 -->
<g id="Node000004" class="node">
<title>Node4</title>
<g id="a_Node000004"><a xlink:href="../../dd/d1d/classxii_data_directory_1_1_archive_reader_uncompressed.html" target="_top" xlink:title=" ">
<polygon fill="white" stroke="#bfbfbf" points="705.5,-78 566.5,-78 566.5,-48 705.5,-48 705.5,-78"/>
<text text-anchor="start" x="574.5" y="-66" font-family="Helvetica,sans-Serif" font-size="10.00">xiiDataDirectory::Archive</text>
<text text-anchor="middle" x="636" y="-55" font-family="Helvetica,sans-Serif" font-size="10.00">ReaderUncompressed</text>
</a>
</g>
</g>
<!-- Node3&#45;&gt;Node4 -->
<g id="edge3_Node000003_Node000004" class="edge">
<title>Node3&#45;&gt;Node4</title>
<g id="a_edge3_Node000003_Node000004"><a xlink:title=" ">
<path fill="none" stroke="#63b8ff" d="M537.3,-63C547.02,-63 556.89,-63 566.44,-63"/>
<polygon fill="#63b8ff" stroke="#63b8ff" points="537.24,-59.5 527.24,-63 537.24,-66.5 537.24,-59.5"/>
</a>
</g>
</g>
<!-- Node6 -->
<g id="Node000006" class="node">
<title>Node6</title>
<g id="a_Node000006"><a xlink:href="../../d4/d69/classxii_data_directory_1_1_fileserve_data_directory_reader.html" target="_top" xlink:title=" ">
<polygon fill="white" stroke="#bfbfbf" points="709,-30 563,-30 563,0 709,0 709,-30"/>
<text text-anchor="start" x="571" y="-18" font-family="Helvetica,sans-Serif" font-size="10.00">xiiDataDirectory::Fileserve</text>
<text text-anchor="middle" x="636" y="-7" font-family="Helvetica,sans-Serif" font-size="10.00">DataDirectoryReader</text>
</a>
</g>
</g>
<!-- Node5&#45;&gt;Node6 -->
<g id="edge5_Node000005_Node000006" class="edge">
<title>Node5&#45;&gt;Node6</title>
<g id="a_edge5_Node000005_Node000006"><a xlink:title=" ">
<path fill="none" stroke="#63b8ff" d="M534.02,-15C543.6,-15 553.39,-15 562.92,-15"/>
<polygon fill="#63b8ff" stroke="#63b8ff" points="533.72,-11.5 523.72,-15 533.72,-18.5 533.72,-11.5"/>
</a>
</g>
</g>
</g>
</svg>
