<?xml version="1.0" encoding="UTF-8" standalone="no"?>
<!DOCTYPE svg PUBLIC "-//W3C//DTD SVG 1.1//EN"
 "http://www.w3.org/Graphics/SVG/1.1/DTD/svg11.dtd">
<!-- Generated by graphviz version 2.43.0 (0)
 -->
<!-- Title: xiiMeshComponentBase Pages: 1 -->
<svg width="473pt" height="364pt"
 viewBox="0.00 0.00 473.00 364.00" xmlns="http://www.w3.org/2000/svg" xmlns:xlink="http://www.w3.org/1999/xlink">
<g id="graph0" class="graph" transform="scale(1 1) rotate(0) translate(4 360)">
<title>xiiMeshComponentBase</title>
<polygon fill="white" stroke="transparent" points="-4,4 -4,-360 469,-360 469,4 -4,4"/>
<!-- Node1 -->
<g id="node1" class="node">
<title>Node1</title>
<g id="a_node1"><a xlink:title=" ">
<polygon fill="#bfbfbf" stroke="black" points="187.5,-112.5 187.5,-131.5 322.5,-131.5 322.5,-112.5 187.5,-112.5"/>
<text text-anchor="middle" x="255" y="-119.5" font-family="Helvetica,sans-Serif" font-size="10.00">xiiMeshComponentBase</text>
</a>
</g>
</g>
<!-- Node6 -->
<g id="node6" class="node">
<title>Node6</title>
<g id="a_node6"><a xlink:href="../../d4/d85/classxii_animated_mesh_component.htm" target="_top" xlink:title=" ">
<polygon fill="white" stroke="black" points="0,-56.5 0,-75.5 158,-75.5 158,-56.5 0,-56.5"/>
<text text-anchor="middle" x="79" y="-63.5" font-family="Helvetica,sans-Serif" font-size="10.00">xiiAnimatedMeshComponent</text>
</a>
</g>
</g>
<!-- Node1&#45;&gt;Node6 -->
<g id="edge5" class="edge">
<title>Node1&#45;&gt;Node6</title>
<path fill="none" stroke="midnightblue" d="M217.31,-109.44C184.13,-99.26 136.57,-84.66 106.76,-75.52"/>
<polygon fill="midnightblue" stroke="midnightblue" points="216.53,-112.86 227.11,-112.44 218.58,-106.16 216.53,-112.86"/>
</g>
<!-- Node7 -->
<g id="node7" class="node">
<title>Node7</title>
<g id="a_node7"><a xlink:href="../../d7/d73/classxii_instanced_mesh_component.htm" target="_top" xlink:title=" ">
<polygon fill="white" stroke="black" points="176,-56.5 176,-75.5 334,-75.5 334,-56.5 176,-56.5"/>
<text text-anchor="middle" x="255" y="-63.5" font-family="Helvetica,sans-Serif" font-size="10.00">xiiInstancedMeshComponent</text>
</a>
</g>
</g>
<!-- Node1&#45;&gt;Node7 -->
<g id="edge6" class="edge">
<title>Node1&#45;&gt;Node7</title>
<path fill="none" stroke="midnightblue" d="M255,-101.8C255,-92.91 255,-82.78 255,-75.75"/>
<polygon fill="midnightblue" stroke="midnightblue" points="251.5,-102.08 255,-112.08 258.5,-102.08 251.5,-102.08"/>
</g>
<!-- Node8 -->
<g id="node8" class="node">
<title>Node8</title>
<g id="a_node8"><a xlink:href="../../d6/d5e/classxii_mesh_component.htm" target="_top" xlink:title=" ">
<polygon fill="white" stroke="black" points="351.5,-56.5 351.5,-75.5 462.5,-75.5 462.5,-56.5 351.5,-56.5"/>
<text text-anchor="middle" x="407" y="-63.5" font-family="Helvetica,sans-Serif" font-size="10.00">xiiMeshComponent</text>
</a>
</g>
</g>
<!-- Node1&#45;&gt;Node8 -->
<g id="edge7" class="edge">
<title>Node1&#45;&gt;Node8</title>
<path fill="none" stroke="midnightblue" d="M288.67,-109.04C317.27,-98.88 357.61,-84.55 383.03,-75.52"/>
<polygon fill="midnightblue" stroke="midnightblue" points="287.34,-105.8 279.08,-112.44 289.68,-112.39 287.34,-105.8"/>
</g>
<!-- Node2 -->
<g id="node2" class="node">
<title>Node2</title>
<g id="a_node2"><a xlink:href="../../d2/d2b/classxii_render_component.htm" target="_top" xlink:title=" ">
<polygon fill="white" stroke="black" points="195.5,-168.5 195.5,-187.5 314.5,-187.5 314.5,-168.5 195.5,-168.5"/>
<text text-anchor="middle" x="255" y="-175.5" font-family="Helvetica,sans-Serif" font-size="10.00">xiiRenderComponent</text>
</a>
</g>
</g>
<!-- Node2&#45;&gt;Node1 -->
<g id="edge1" class="edge">
<title>Node2&#45;&gt;Node1</title>
<path fill="none" stroke="midnightblue" d="M255,-157.8C255,-148.91 255,-138.78 255,-131.75"/>
<polygon fill="midnightblue" stroke="midnightblue" points="251.5,-158.08 255,-168.08 258.5,-158.08 251.5,-158.08"/>
</g>
<!-- Node3 -->
<g id="node3" class="node">
<title>Node3</title>
<g id="a_node3"><a xlink:href="../../db/d60/classxii_component.htm" target="_top" xlink:title="Base class of all component types.">
<polygon fill="white" stroke="black" points="212.5,-224.5 212.5,-243.5 297.5,-243.5 297.5,-224.5 212.5,-224.5"/>
<text text-anchor="middle" x="255" y="-231.5" font-family="Helvetica,sans-Serif" font-size="10.00">xiiComponent</text>
</a>
</g>
</g>
<!-- Node3&#45;&gt;Node2 -->
<g id="edge2" class="edge">
<title>Node3&#45;&gt;Node2</title>
<path fill="none" stroke="midnightblue" d="M255,-213.8C255,-204.91 255,-194.78 255,-187.75"/>
<polygon fill="midnightblue" stroke="midnightblue" points="251.5,-214.08 255,-224.08 258.5,-214.08 251.5,-214.08"/>
</g>
<!-- Node4 -->
<g id="node4" class="node">
<title>Node4</title>
<g id="a_node4"><a xlink:href="../../dc/d71/classxii_reflected_class.htm" target="_top" xlink:title="All classes that should be dynamically reflectable, need to be derived from this base class.">
<polygon fill="white" stroke="black" points="204.5,-280.5 204.5,-299.5 305.5,-299.5 305.5,-280.5 204.5,-280.5"/>
<text text-anchor="middle" x="255" y="-287.5" font-family="Helvetica,sans-Serif" font-size="10.00">xiiReflectedClass</text>
</a>
</g>
</g>
<!-- Node4&#45;&gt;Node3 -->
<g id="edge3" class="edge">
<title>Node4&#45;&gt;Node3</title>
<path fill="none" stroke="midnightblue" d="M255,-269.8C255,-260.91 255,-250.78 255,-243.75"/>
<polygon fill="midnightblue" stroke="midnightblue" points="251.5,-270.08 255,-280.08 258.5,-270.08 251.5,-270.08"/>
</g>
<!-- Node5 -->
<g id="node5" class="node">
<title>Node5</title>
<g id="a_node5"><a xlink:href="../../d2/d38/classxii_no_base.htm" target="_top" xlink:title="Dummy type to pass to templates and macros that expect a base type for a class that has no base.">
<polygon fill="white" stroke="black" points="222,-336.5 222,-355.5 288,-355.5 288,-336.5 222,-336.5"/>
<text text-anchor="middle" x="255" y="-343.5" font-family="Helvetica,sans-Serif" font-size="10.00">xiiNoBase</text>
</a>
</g>
</g>
<!-- Node5&#45;&gt;Node4 -->
<g id="edge4" class="edge">
<title>Node5&#45;&gt;Node4</title>
<path fill="none" stroke="midnightblue" d="M255,-325.8C255,-316.91 255,-306.78 255,-299.75"/>
<polygon fill="midnightblue" stroke="midnightblue" points="251.5,-326.08 255,-336.08 258.5,-326.08 251.5,-326.08"/>
</g>
<!-- Node9 -->
<g id="node9" class="node">
<title>Node9</title>
<g id="a_node9"><a xlink:href="../../dd/df8/classxii_gizmo_component.htm" target="_top" xlink:title=" ">
<polygon fill="white" stroke="black" points="349,-0.5 349,-19.5 465,-19.5 465,-0.5 349,-0.5"/>
<text text-anchor="middle" x="407" y="-7.5" font-family="Helvetica,sans-Serif" font-size="10.00">xiiGizmoComponent</text>
</a>
</g>
</g>
<!-- Node8&#45;&gt;Node9 -->
<g id="edge8" class="edge">
<title>Node8&#45;&gt;Node9</title>
<path fill="none" stroke="midnightblue" d="M407,-45.8C407,-36.91 407,-26.78 407,-19.75"/>
<polygon fill="midnightblue" stroke="midnightblue" points="403.5,-46.08 407,-56.08 410.5,-46.08 403.5,-46.08"/>
</g>
</g>
</svg>
