<?xml version="1.0" encoding="UTF-8" standalone="no"?>
<!DOCTYPE svg PUBLIC "-//W3C//DTD SVG 1.1//EN"
 "http://www.w3.org/Graphics/SVG/1.1/DTD/svg11.dtd">
<!-- Generated by graphviz version 2.43.0 (0)
 -->
<!-- Title: xiiFrameDataProviderBase Pages: 1 -->
<!--zoomable 176 -->
<svg id="main" version="1.1" xmlns="http://www.w3.org/2000/svg" xmlns:xlink="http://www.w3.org/1999/xlink" xml:space="preserve" onload="init(evt)">
<style type="text/css"><![CDATA[
.edge:hover path { stroke: red; }
.edge:hover polygon { stroke: red; fill: red; }
]]></style>
<script type="text/javascript"><![CDATA[
var edges = document.getElementsByTagName('g');
if (edges && edges.length) {
  for (var i=0;i<edges.length;i++) {
    if (edges[i].id.substr(0,4)=='edge') {
      edges[i].setAttribute('class','edge');
    }
  }
}
]]></script>
        <defs>
                <circle id="rim" cx="0" cy="0" r="7"/>
                <circle id="rim2" cx="0" cy="0" r="3.5"/>
                <g id="zoomPlus">
                        <use xlink:href="#rim" fill="#404040">
                                <set attributeName="fill" to="#808080" begin="zoomplus.mouseover" end="zoomplus.mouseout"/>
                        </use>
                        <path d="M-4,0h8M0,-4v8" fill="none" stroke="white" stroke-width="1.5" pointer-events="none"/>
                </g>
                <g id="zoomMin">
                        <use xlink:href="#rim" fill="#404040">
                                <set attributeName="fill" to="#808080" begin="zoomminus.mouseover" end="zoomminus.mouseout"/>
                        </use>
                        <path d="M-4,0h8" fill="none" stroke="white" stroke-width="1.5" pointer-events="none"/>
                </g>
                <g id="dirArrow">
                        <path fill="none" stroke="white" stroke-width="1.5" d="M0,-3.0v7 M-2.5,-0.5L0,-3.0L2.5,-0.5"/>
                </g>
               <g id="resetDef">
                       <use xlink:href="#rim2" fill="#404040">
                               <set attributeName="fill" to="#808080" begin="reset.mouseover" end="reset.mouseout"/>
                       </use>
               </g>
        </defs>

<script type="text/javascript">
var viewWidth = 759;
var viewHeight = 176;
var sectionId = 'dynsection-0';
</script>
<script xlink:href="../../svgpan.js"/>
<svg id="graph" class="graph">
<g id="viewport">
<title>xiiFrameDataProviderBase</title>
<polygon fill="white" stroke="transparent" points="-4,4 -4,-171.5 755,-171.5 755,4 -4,4"/>
<!-- Node1 -->
<g id="node1" class="node">
<title>Node1</title>
<g id="a_node1"><a xlink:title=" ">
<polygon fill="#bfbfbf" stroke="black" points="239,-68.5 239,-87.5 386,-87.5 386,-68.5 239,-68.5"/>
<text text-anchor="middle" x="312.5" y="-75.5" font-family="Helvetica,sans-Serif" font-size="10.00">xiiFrameDataProviderBase</text>
</a>
</g>
</g>
<!-- Node4 -->
<g id="node4" class="node">
<title>Node4</title>
<g id="a_node4"><a xlink:href="../../df/de9/classxii_frame_data_provider.htm" target="_top" xlink:title=" ">
<polygon fill="white" stroke="black" points="427,-137 427,-167 569,-167 569,-137 427,-137"/>
<text text-anchor="start" x="435" y="-155" font-family="Helvetica,sans-Serif" font-size="10.00">xiiFrameDataProvider</text>
<text text-anchor="middle" x="498" y="-144" font-family="Helvetica,sans-Serif" font-size="10.00">&lt; xiiClusteredDataGPU &gt;</text>
</a>
</g>
</g>
<!-- Node1&#45;&gt;Node4 -->
<g id="edge3" class="edge">
<title>Node1&#45;&gt;Node4</title>
<path fill="none" stroke="midnightblue" d="M342.53,-92.09C364.18,-102.36 394.63,-116.29 422,-127 430.82,-130.45 440.33,-133.86 449.53,-136.99"/>
<polygon fill="midnightblue" stroke="midnightblue" points="343.77,-88.8 333.24,-87.65 340.75,-95.12 343.77,-88.8"/>
</g>
<!-- Node6 -->
<g id="node6" class="node">
<title>Node6</title>
<g id="a_node6"><a xlink:href="../../df/de9/classxii_frame_data_provider.htm" target="_top" xlink:title=" ">
<polygon fill="white" stroke="black" points="436.5,-88 436.5,-118 559.5,-118 559.5,-88 436.5,-88"/>
<text text-anchor="start" x="444.5" y="-106" font-family="Helvetica,sans-Serif" font-size="10.00">xiiFrameDataProvider</text>
<text text-anchor="middle" x="498" y="-95" font-family="Helvetica,sans-Serif" font-size="10.00">&lt; xiiInstanceData &gt;</text>
</a>
</g>
</g>
<!-- Node1&#45;&gt;Node6 -->
<g id="edge5" class="edge">
<title>Node1&#45;&gt;Node6</title>
<path fill="none" stroke="midnightblue" d="M393.71,-88.93C408,-90.87 422.66,-92.87 436.29,-94.73"/>
<polygon fill="midnightblue" stroke="midnightblue" points="393.78,-85.4 383.4,-87.52 392.83,-92.34 393.78,-85.4"/>
</g>
<!-- Node8 -->
<g id="node8" class="node">
<title>Node8</title>
<g id="a_node8"><a xlink:href="../../df/de9/classxii_frame_data_provider.htm" target="_top" xlink:title=" ">
<polygon fill="white" stroke="black" points="426,-39 426,-69 570,-69 570,-39 426,-39"/>
<text text-anchor="start" x="434" y="-57" font-family="Helvetica,sans-Serif" font-size="10.00">xiiFrameDataProvider</text>
<text text-anchor="middle" x="498" y="-46" font-family="Helvetica,sans-Serif" font-size="10.00">&lt; xiiSimplifiedDataGPU &gt;</text>
</a>
</g>
</g>
<!-- Node1&#45;&gt;Node8 -->
<g id="edge7" class="edge">
<title>Node1&#45;&gt;Node8</title>
<path fill="none" stroke="midnightblue" d="M395.95,-67.22C405.95,-65.91 416.09,-64.58 425.9,-63.3"/>
<polygon fill="midnightblue" stroke="midnightblue" points="395.49,-63.75 386.02,-68.51 396.39,-70.69 395.49,-63.75"/>
</g>
<!-- Node10 -->
<g id="node10" class="node">
<title>Node10</title>
<g id="a_node10"><a xlink:href="../../df/de9/classxii_frame_data_provider.htm" target="_top" xlink:title=" ">
<polygon fill="white" stroke="black" points="422,-0.5 422,-19.5 574,-19.5 574,-0.5 422,-0.5"/>
<text text-anchor="middle" x="498" y="-7.5" font-family="Helvetica,sans-Serif" font-size="10.00">xiiFrameDataProvider&lt; T &gt;</text>
</a>
</g>
</g>
<!-- Node1&#45;&gt;Node10 -->
<g id="edge9" class="edge">
<title>Node1&#45;&gt;Node10</title>
<path fill="none" stroke="midnightblue" d="M341.13,-63.89C362.73,-53.26 393.74,-38.87 422,-29 432.14,-25.46 443.27,-22.27 453.78,-19.57"/>
<polygon fill="midnightblue" stroke="midnightblue" points="339.3,-60.89 331.91,-68.48 342.42,-67.16 339.3,-60.89"/>
</g>
<!-- Node2 -->
<g id="node2" class="node">
<title>Node2</title>
<g id="a_node2"><a xlink:href="../../dc/d71/classxii_reflected_class.htm" target="_top" xlink:title="All classes that should be dynamically reflectable, need to be derived from this base class.">
<polygon fill="white" stroke="black" points="102,-68.5 102,-87.5 203,-87.5 203,-68.5 102,-68.5"/>
<text text-anchor="middle" x="152.5" y="-75.5" font-family="Helvetica,sans-Serif" font-size="10.00">xiiReflectedClass</text>
</a>
</g>
</g>
<!-- Node2&#45;&gt;Node1 -->
<g id="edge1" class="edge">
<title>Node2&#45;&gt;Node1</title>
<path fill="none" stroke="midnightblue" d="M213.16,-78C221.59,-78 230.33,-78 238.97,-78"/>
<polygon fill="midnightblue" stroke="midnightblue" points="213.06,-74.5 203.06,-78 213.06,-81.5 213.06,-74.5"/>
</g>
<!-- Node3 -->
<g id="node3" class="node">
<title>Node3</title>
<g id="a_node3"><a xlink:href="../../d2/d38/classxii_no_base.htm" target="_top" xlink:title="Dummy type to pass to templates and macros that expect a base type for a class that has no base.">
<polygon fill="white" stroke="black" points="0,-68.5 0,-87.5 66,-87.5 66,-68.5 0,-68.5"/>
<text text-anchor="middle" x="33" y="-75.5" font-family="Helvetica,sans-Serif" font-size="10.00">xiiNoBase</text>
</a>
</g>
</g>
<!-- Node3&#45;&gt;Node2 -->
<g id="edge2" class="edge">
<title>Node3&#45;&gt;Node2</title>
<path fill="none" stroke="midnightblue" d="M76.27,-78C84.54,-78 93.29,-78 101.78,-78"/>
<polygon fill="midnightblue" stroke="midnightblue" points="76.11,-74.5 66.11,-78 76.11,-81.5 76.11,-74.5"/>
</g>
<!-- Node5 -->
<g id="node5" class="node">
<title>Node5</title>
<g id="a_node5"><a xlink:href="../../d8/da4/classxii_clustered_data_provider.htm" target="_top" xlink:title=" ">
<polygon fill="white" stroke="black" points="611,-142.5 611,-161.5 750,-161.5 750,-142.5 611,-142.5"/>
<text text-anchor="middle" x="680.5" y="-149.5" font-family="Helvetica,sans-Serif" font-size="10.00">xiiClusteredDataProvider</text>
</a>
</g>
</g>
<!-- Node4&#45;&gt;Node5 -->
<g id="edge4" class="edge">
<title>Node4&#45;&gt;Node5</title>
<path fill="none" stroke="midnightblue" d="M579.15,-152C589.77,-152 600.58,-152 610.98,-152"/>
<polygon fill="midnightblue" stroke="midnightblue" points="579.04,-148.5 569.04,-152 579.04,-155.5 579.04,-148.5"/>
</g>
<!-- Node7 -->
<g id="node7" class="node">
<title>Node7</title>
<g id="a_node7"><a xlink:href="../../dd/d7a/classxii_instance_data_provider.htm" target="_top" xlink:title=" ">
<polygon fill="white" stroke="black" points="613.5,-93.5 613.5,-112.5 747.5,-112.5 747.5,-93.5 613.5,-93.5"/>
<text text-anchor="middle" x="680.5" y="-100.5" font-family="Helvetica,sans-Serif" font-size="10.00">xiiInstanceDataProvider</text>
</a>
</g>
</g>
<!-- Node6&#45;&gt;Node7 -->
<g id="edge6" class="edge">
<title>Node6&#45;&gt;Node7</title>
<path fill="none" stroke="midnightblue" d="M569.91,-103C584.26,-103 599.3,-103 613.47,-103"/>
<polygon fill="midnightblue" stroke="midnightblue" points="569.61,-99.5 559.61,-103 569.61,-106.5 569.61,-99.5"/>
</g>
<!-- Node9 -->
<g id="node9" class="node">
<title>Node9</title>
<g id="a_node9"><a xlink:href="../../d4/de4/classxii_simplified_data_provider.htm" target="_top" xlink:title=" ">
<polygon fill="white" stroke="black" points="610,-44.5 610,-63.5 751,-63.5 751,-44.5 610,-44.5"/>
<text text-anchor="middle" x="680.5" y="-51.5" font-family="Helvetica,sans-Serif" font-size="10.00">xiiSimplifiedDataProvider</text>
</a>
</g>
</g>
<!-- Node8&#45;&gt;Node9 -->
<g id="edge8" class="edge">
<title>Node8&#45;&gt;Node9</title>
<path fill="none" stroke="midnightblue" d="M580.32,-54C590.22,-54 600.26,-54 609.96,-54"/>
<polygon fill="midnightblue" stroke="midnightblue" points="580.08,-50.5 570.08,-54 580.08,-57.5 580.08,-50.5"/>
</g>
</g>
</svg>
        <g id="navigator" transform="translate(0 0)" fill="#404254">
                <rect fill="#f2f5e9" fill-opacity="0.5" stroke="#606060" stroke-width=".5" x="0" y="0" width="60" height="60"/>
                <use id="zoomplus" xlink:href="#zoomPlus" x="17" y="9" onmousedown="handleZoom(evt,'in')"/>
                <use id="zoomminus" xlink:href="#zoomMin" x="42" y="9" onmousedown="handleZoom(evt,'out')"/>
                <use id="reset" xlink:href="#resetDef" x="30" y="36" onmousedown="handleReset()"/>
                <g id="arrowUp" xlink:href="#dirArrow" transform="translate(30 24)" onmousedown="handlePan(0,-1)">
                  <use xlink:href="#rim" fill="#404040">
                        <set attributeName="fill" to="#808080" begin="arrowUp.mouseover" end="arrowUp.mouseout"/>
                  </use>
                  <path fill="none" stroke="white" stroke-width="1.5" d="M0,-3.0v7 M-2.5,-0.5L0,-3.0L2.5,-0.5"/>
                </g>
                <g id="arrowRight" xlink:href="#dirArrow" transform="rotate(90) translate(36 -43)" onmousedown="handlePan(1,0)">
                  <use xlink:href="#rim" fill="#404040">
                        <set attributeName="fill" to="#808080" begin="arrowRight.mouseover" end="arrowRight.mouseout"/>
                  </use>
                  <path fill="none" stroke="white" stroke-width="1.5" d="M0,-3.0v7 M-2.5,-0.5L0,-3.0L2.5,-0.5"/>
                </g>
                <g id="arrowDown" xlink:href="#dirArrow" transform="rotate(180) translate(-30 -48)" onmousedown="handlePan(0,1)">
                  <use xlink:href="#rim" fill="#404040">
                        <set attributeName="fill" to="#808080" begin="arrowDown.mouseover" end="arrowDown.mouseout"/>
                  </use>
                  <path fill="none" stroke="white" stroke-width="1.5" d="M0,-3.0v7 M-2.5,-0.5L0,-3.0L2.5,-0.5"/>
                </g>
                <g id="arrowLeft" xlink:href="#dirArrow" transform="rotate(270) translate(-36 17)" onmousedown="handlePan(-1,0)">
                  <use xlink:href="#rim" fill="#404040">
                        <set attributeName="fill" to="#808080" begin="arrowLeft.mouseover" end="arrowLeft.mouseout"/>
                  </use>
                  <path fill="none" stroke="white" stroke-width="1.5" d="M0,-3.0v7 M-2.5,-0.5L0,-3.0L2.5,-0.5"/>
                </g>
        </g>
        <svg viewBox="0 0 15 15" width="100%" height="30px" preserveAspectRatio="xMaxYMin meet">
         <g id="arrow_out" transform="scale(0.3 0.3)">
          <a xlink:href="classxii_frame_data_provider_base__inherit__graph_org.svg" target="_base">
           <rect id="button" ry="5" rx="5" y="6" x="6" height="38" width="38"
                fill="#f2f5e9" fill-opacity="0.5" stroke="#606060" stroke-width="1.0"/>
           <path id="arrow"
             d="M 11.500037,31.436501 C 11.940474,20.09759 22.043105,11.32322 32.158766,21.979434 L 37.068811,17.246167 C 37.068811,17.246167 37.088388,32 37.088388,32 L 22.160133,31.978069 C 22.160133,31.978069 26.997745,27.140456 26.997745,27.140456 C 18.528582,18.264221 13.291696,25.230495 11.500037,31.436501 z"
             style="fill:#404040;"/>
          </a>
         </g>
        </svg>
</svg>
