<?xml version="1.0" encoding="UTF-8" standalone="no"?>
<!DOCTYPE svg PUBLIC "-//W3C//DTD SVG 1.1//EN"
 "http://www.w3.org/Graphics/SVG/1.1/DTD/svg11.dtd">
<!-- Generated by graphviz version 2.43.0 (0)
 -->
<!-- Title: xiiFrameDataProviderBase Pages: 1 -->
<svg width="759pt" height="172pt"
 viewBox="0.00 0.00 759.00 171.50" xmlns="http://www.w3.org/2000/svg" xmlns:xlink="http://www.w3.org/1999/xlink">
<g id="graph0" class="graph" transform="scale(1 1) rotate(0) translate(4 167.5)">
<title>xiiFrameDataProviderBase</title>
<!-- Node1 -->
<g id="Node000001" class="node">
<title>Node1</title>
<g id="a_Node000001"><a xlink:title=" ">
<polygon fill="#999999" stroke="#666666" points="386,-86 239,-86 239,-67 386,-67 386,-86"/>
<text text-anchor="middle" x="312.5" y="-74" font-family="Helvetica,sans-Serif" font-size="10.00">xiiFrameDataProviderBase</text>
</a>
</g>
</g>
<!-- Node4 -->
<g id="Node000004" class="node">
<title>Node4</title>
<g id="a_Node000004"><a xlink:href="../../df/de9/classxii_frame_data_provider.html" target="_top" xlink:title=" ">
<polygon fill="white" stroke="#bfbfbf" points="569,-163.5 427,-163.5 427,-133.5 569,-133.5 569,-163.5"/>
<text text-anchor="start" x="435" y="-151.5" font-family="Helvetica,sans-Serif" font-size="10.00">xiiFrameDataProvider</text>
<text text-anchor="middle" x="498" y="-140.5" font-family="Helvetica,sans-Serif" font-size="10.00">&lt; xiiClusteredDataGPU &gt;</text>
</a>
</g>
</g>
<!-- Node1&#45;&gt;Node4 -->
<g id="edge3_Node000001_Node000004" class="edge">
<title>Node1&#45;&gt;Node4</title>
<g id="a_edge3_Node000001_Node000004"><a xlink:title=" ">
<path fill="none" stroke="#63b8ff" d="M342.92,-90.54C364.54,-100.6 394.78,-114.16 422,-124.5 430.18,-127.61 438.96,-130.66 447.52,-133.49"/>
<polygon fill="#63b8ff" stroke="#63b8ff" points="344.17,-87.26 333.63,-86.18 341.2,-93.59 344.17,-87.26"/>
</a>
</g>
</g>
<!-- Node6 -->
<g id="Node000006" class="node">
<title>Node6</title>
<g id="a_Node000006"><a xlink:href="../../df/de9/classxii_frame_data_provider.html" target="_top" xlink:title=" ">
<polygon fill="white" stroke="#bfbfbf" points="559.5,-115.5 436.5,-115.5 436.5,-85.5 559.5,-85.5 559.5,-115.5"/>
<text text-anchor="start" x="444.5" y="-103.5" font-family="Helvetica,sans-Serif" font-size="10.00">xiiFrameDataProvider</text>
<text text-anchor="middle" x="498" y="-92.5" font-family="Helvetica,sans-Serif" font-size="10.00">&lt; xiiInstanceData &gt;</text>
</a>
</g>
</g>
<!-- Node1&#45;&gt;Node6 -->
<g id="edge5_Node000001_Node000006" class="edge">
<title>Node1&#45;&gt;Node6</title>
<g id="a_edge5_Node000001_Node000006"><a xlink:title=" ">
<path fill="none" stroke="#63b8ff" d="M396.25,-87.32C409.71,-89.08 423.43,-90.88 436.24,-92.55"/>
<polygon fill="#63b8ff" stroke="#63b8ff" points="396.39,-83.81 386.02,-85.99 395.49,-90.75 396.39,-83.81"/>
</a>
</g>
</g>
<!-- Node8 -->
<g id="Node000008" class="node">
<title>Node8</title>
<g id="a_Node000008"><a xlink:href="../../df/de9/classxii_frame_data_provider.html" target="_top" xlink:title=" ">
<polygon fill="white" stroke="#bfbfbf" points="570,-67.5 426,-67.5 426,-37.5 570,-37.5 570,-67.5"/>
<text text-anchor="start" x="434" y="-55.5" font-family="Helvetica,sans-Serif" font-size="10.00">xiiFrameDataProvider</text>
<text text-anchor="middle" x="498" y="-44.5" font-family="Helvetica,sans-Serif" font-size="10.00">&lt; xiiSimplifiedDataGPU &gt;</text>
</a>
</g>
</g>
<!-- Node1&#45;&gt;Node8 -->
<g id="edge7_Node000001_Node000008" class="edge">
<title>Node1&#45;&gt;Node8</title>
<g id="a_edge7_Node000001_Node000008"><a xlink:title=" ">
<path fill="none" stroke="#63b8ff" d="M395.95,-65.72C405.95,-64.41 416.09,-63.08 425.9,-61.8"/>
<polygon fill="#63b8ff" stroke="#63b8ff" points="395.49,-62.25 386.02,-67.01 396.39,-69.19 395.49,-62.25"/>
</a>
</g>
</g>
<!-- Node10 -->
<g id="Node000010" class="node">
<title>Node10</title>
<g id="a_Node000010"><a xlink:href="../../df/de9/classxii_frame_data_provider.html" target="_top" xlink:title=" ">
<polygon fill="white" stroke="#bfbfbf" points="574,-19 422,-19 422,0 574,0 574,-19"/>
<text text-anchor="middle" x="498" y="-7" font-family="Helvetica,sans-Serif" font-size="10.00">xiiFrameDataProvider&lt; T &gt;</text>
</a>
</g>
</g>
<!-- Node1&#45;&gt;Node10 -->
<g id="edge9_Node000001_Node000010" class="edge">
<title>Node1&#45;&gt;Node10</title>
<g id="a_edge9_Node000001_Node000010"><a xlink:title=" ">
<path fill="none" stroke="#63b8ff" d="M341.94,-62.33C363.53,-51.98 394.14,-38.11 422,-28.5 432.28,-24.95 443.57,-21.75 454.19,-19.02"/>
<polygon fill="#63b8ff" stroke="#63b8ff" points="340.17,-59.3 332.7,-66.82 343.23,-65.6 340.17,-59.3"/>
</a>
</g>
</g>
<!-- Node2 -->
<g id="Node000002" class="node">
<title>Node2</title>
<g id="a_Node000002"><a xlink:href="../../dc/d71/classxii_reflected_class.html" target="_top" xlink:title="All classes that should be dynamically reflectable, need to be derived from this base class.">
<polygon fill="white" stroke="#666666" points="203,-86 102,-86 102,-67 203,-67 203,-86"/>
<text text-anchor="middle" x="152.5" y="-74" font-family="Helvetica,sans-Serif" font-size="10.00">xiiReflectedClass</text>
</a>
</g>
</g>
<!-- Node2&#45;&gt;Node1 -->
<g id="edge1_Node000001_Node000002" class="edge">
<title>Node2&#45;&gt;Node1</title>
<g id="a_edge1_Node000001_Node000002"><a xlink:title=" ">
<path fill="none" stroke="#63b8ff" d="M213.16,-76.5C221.59,-76.5 230.33,-76.5 238.97,-76.5"/>
<polygon fill="#63b8ff" stroke="#63b8ff" points="213.06,-73 203.06,-76.5 213.06,-80 213.06,-73"/>
</a>
</g>
</g>
<!-- Node3 -->
<g id="Node000003" class="node">
<title>Node3</title>
<g id="a_Node000003"><a xlink:href="../../d2/d38/classxii_no_base.html" target="_top" xlink:title="Dummy type to pass to templates and macros that expect a base type for a class that has no base.">
<polygon fill="white" stroke="#666666" points="66,-86 0,-86 0,-67 66,-67 66,-86"/>
<text text-anchor="middle" x="33" y="-74" font-family="Helvetica,sans-Serif" font-size="10.00">xiiNoBase</text>
</a>
</g>
</g>
<!-- Node3&#45;&gt;Node2 -->
<g id="edge2_Node000002_Node000003" class="edge">
<title>Node3&#45;&gt;Node2</title>
<g id="a_edge2_Node000002_Node000003"><a xlink:title=" ">
<path fill="none" stroke="#63b8ff" d="M76.27,-76.5C84.54,-76.5 93.29,-76.5 101.78,-76.5"/>
<polygon fill="#63b8ff" stroke="#63b8ff" points="76.11,-73 66.11,-76.5 76.11,-80 76.11,-73"/>
</a>
</g>
</g>
<!-- Node5 -->
<g id="Node000005" class="node">
<title>Node5</title>
<g id="a_Node000005"><a xlink:href="../../d8/da4/classxii_clustered_data_provider.html" target="_top" xlink:title=" ">
<polygon fill="white" stroke="#bfbfbf" points="750,-158 611,-158 611,-139 750,-139 750,-158"/>
<text text-anchor="middle" x="680.5" y="-146" font-family="Helvetica,sans-Serif" font-size="10.00">xiiClusteredDataProvider</text>
</a>
</g>
</g>
<!-- Node4&#45;&gt;Node5 -->
<g id="edge4_Node000004_Node000005" class="edge">
<title>Node4&#45;&gt;Node5</title>
<g id="a_edge4_Node000004_Node000005"><a xlink:title=" ">
<path fill="none" stroke="#63b8ff" d="M579.15,-148.5C589.77,-148.5 600.58,-148.5 610.98,-148.5"/>
<polygon fill="#63b8ff" stroke="#63b8ff" points="579.04,-145 569.04,-148.5 579.04,-152 579.04,-145"/>
</a>
</g>
</g>
<!-- Node7 -->
<g id="Node000007" class="node">
<title>Node7</title>
<g id="a_Node000007"><a xlink:href="../../dd/d7a/classxii_instance_data_provider.html" target="_top" xlink:title=" ">
<polygon fill="white" stroke="#bfbfbf" points="747.5,-110 613.5,-110 613.5,-91 747.5,-91 747.5,-110"/>
<text text-anchor="middle" x="680.5" y="-98" font-family="Helvetica,sans-Serif" font-size="10.00">xiiInstanceDataProvider</text>
</a>
</g>
</g>
<!-- Node6&#45;&gt;Node7 -->
<g id="edge6_Node000006_Node000007" class="edge">
<title>Node6&#45;&gt;Node7</title>
<g id="a_edge6_Node000006_Node000007"><a xlink:title=" ">
<path fill="none" stroke="#63b8ff" d="M569.91,-100.5C584.26,-100.5 599.3,-100.5 613.47,-100.5"/>
<polygon fill="#63b8ff" stroke="#63b8ff" points="569.61,-97 559.61,-100.5 569.61,-104 569.61,-97"/>
</a>
</g>
</g>
<!-- Node9 -->
<g id="Node000009" class="node">
<title>Node9</title>
<g id="a_Node000009"><a xlink:href="../../d4/de4/classxii_simplified_data_provider.html" target="_top" xlink:title=" ">
<polygon fill="white" stroke="#bfbfbf" points="751,-62 610,-62 610,-43 751,-43 751,-62"/>
<text text-anchor="middle" x="680.5" y="-50" font-family="Helvetica,sans-Serif" font-size="10.00">xiiSimplifiedDataProvider</text>
</a>
</g>
</g>
<!-- Node8&#45;&gt;Node9 -->
<g id="edge8_Node000008_Node000009" class="edge">
<title>Node8&#45;&gt;Node9</title>
<g id="a_edge8_Node000008_Node000009"><a xlink:title=" ">
<path fill="none" stroke="#63b8ff" d="M580.32,-52.5C590.22,-52.5 600.26,-52.5 609.96,-52.5"/>
<polygon fill="#63b8ff" stroke="#63b8ff" points="580.08,-49 570.08,-52.5 580.08,-56 580.08,-49"/>
</a>
</g>
</g>
</g>
</svg>
