<?xml version="1.0" encoding="UTF-8" standalone="no"?>
<!DOCTYPE svg PUBLIC "-//W3C//DTD SVG 1.1//EN"
 "http://www.w3.org/Graphics/SVG/1.1/DTD/svg11.dtd">
<!-- Generated by graphviz version 2.43.0 (0)
 -->
<!-- Title: /home/runner/work/XII/XII/Source/Engine/Foundation/System/Implementation Pages: 1 -->
<!--zoomable 94 -->

<svg id="main" version="1.1" xmlns="http://www.w3.org/2000/svg" xmlns:xlink="http://www.w3.org/1999/xlink" xml:space="preserve" onload="init(evt)">
<style type="text/css"><![CDATA[
.node, .edge {opacity: 0.7;}
.node.selected, .edge.selected {opacity: 1;}
.edge:hover path { stroke: red; }
.edge:hover polygon { stroke: red; fill: red; }
]]></style>

<defs>
  <circle id="rim" cx="0" cy="0" r="7"/>
  <circle id="rim2" cx="0" cy="0" r="3.5"/>
  <g id="zoomPlus">
    <use xlink:href="#rim" fill="#404040"><set attributeName="fill" to="#808080" begin="zoomplus.mouseover" end="zoomplus.mouseout"/></use>
    <path d="M-4,0h8M0,-4v8" fill="none" stroke="white" stroke-width="1.5" pointer-events="none"/>
  </g>
  <g id="zoomMin">
    <use xlink:href="#rim" fill="#404040"><set attributeName="fill" to="#808080" begin="zoomminus.mouseover" end="zoomminus.mouseout"/></use>
    <path d="M-4,0h8" fill="none" stroke="white" stroke-width="1.5" pointer-events="none"/>
  </g>
  <g id="arrowUp" transform="translate(30 24)">
    <use xlink:href="#rim"/>
    <path pointer-events="none" fill="none" stroke="white" stroke-width="1.5" d="M0,-3.0v7 M-2.5,-0.5L0,-3.0L2.5,-0.5"/>
  </g>
  <g id="arrowRight" transform="rotate(90) translate(36 -43)">
    <use xlink:href="#rim"/>
    <path pointer-events="none" fill="none" stroke="white" stroke-width="1.5" d="M0,-3.0v7 M-2.5,-0.5L0,-3.0L2.5,-0.5"/>
  </g>
  <g id="arrowDown" transform="rotate(180) translate(-30 -48)">
    <use xlink:href="#rim"/>
    <path pointer-events="none" fill="none" stroke="white" stroke-width="1.5" d="M0,-3.0v7 M-2.5,-0.5L0,-3.0L2.5,-0.5"/>
  </g>
  <g id="arrowLeft" transform="rotate(270) translate(-36 17)">
    <use xlink:href="#rim"/>
    <path pointer-events="none" fill="none" stroke="white" stroke-width="1.5" d="M0,-3.0v7 M-2.5,-0.5L0,-3.0L2.5,-0.5"/>
  </g>
  <g id="resetDef">
    <use xlink:href="#rim2" fill="#404040"><set attributeName="fill" to="#808080" begin="reset.mouseover" end="reset.mouseout"/></use>
  </g>
</defs>
<script type="application/ecmascript">
var viewWidth = 580;
var viewHeight = 94;
var sectionId = 'dynsection-0';
</script>
<script type="application/ecmascript" xlink:href="svg.min.js"/>
<svg id="graph" class="graph">
<g id="viewport">
<title>/home/runner/work/XII/XII/Source/Engine/Foundation/System/Implementation</title>
<g id="clust1" class="cluster">
<title>clusterdir_93ea1dc105d79df7757252ae41d4400e</title>
<g id="a_clust1"><a xlink:href="dir_93ea1dc105d79df7757252ae41d4400e.htm" target="_top" xlink:title="System">
<polygon fill="#edf0f7" stroke="#7f7f7f" stroke-dasharray="5,2" points="8,-8 8,-78 564,-78 564,-8 8,-8"/>
<text text-anchor="middle" x="286" y="-66" font-family="Helvetica,sans-Serif" font-size="10.00">System</text>
</a>
</g>
</g>
<g id="clust2" class="cluster">
<title>clusterdir_f794a5464cdd7c796ca802b0cf288ca7</title>
<g id="a_clust2"><a xlink:href="dir_f794a5464cdd7c796ca802b0cf288ca7.htm" target="_top">
<polygon fill="#edf0f7" stroke="#404040" stroke-width="2" points="16,-16 16,-51 556,-51 556,-16 16,-16"/>
</a>
</g>
</g>
<!-- dir_f794a5464cdd7c796ca802b0cf288ca7 -->
<g id="node1" class="node">
<title>dir_f794a5464cdd7c796ca802b0cf288ca7</title>
<text text-anchor="middle" x="500" y="-31" font-family="Helvetica,sans-Serif" font-size="10.00">Implementation</text>
</g>
<!-- dir_aedccbd4ea348e06dae9ad5b9364a13a -->
<g id="node2" class="node">
<title>dir_aedccbd4ea348e06dae9ad5b9364a13a</title>
<g id="a_node2"><a xlink:href="dir_aedccbd4ea348e06dae9ad5b9364a13a.htm" target="_top" xlink:title="Android">
<polygon fill="#a2b4d6" stroke="#404040" points="434,-43 380,-43 380,-24 434,-24 434,-43"/>
<text text-anchor="middle" x="407" y="-31" font-family="Helvetica,sans-Serif" font-size="10.00">Android</text>
</a>
</g>
</g>
<!-- dir_7349ba9a4fdaa3eec97fd88102063d27 -->
<g id="node3" class="node">
<title>dir_7349ba9a4fdaa3eec97fd88102063d27</title>
<g id="a_node3"><a xlink:href="dir_7349ba9a4fdaa3eec97fd88102063d27.htm" target="_top" xlink:title="NoImpl">
<polygon fill="#a2b4d6" stroke="#404040" points="362,-43 310,-43 310,-24 362,-24 362,-43"/>
<text text-anchor="middle" x="336" y="-31" font-family="Helvetica,sans-Serif" font-size="10.00">NoImpl</text>
</a>
</g>
</g>
<!-- dir_81dabe9939b3aa91b4ce4f0e725ffa0c -->
<g id="node4" class="node">
<title>dir_81dabe9939b3aa91b4ce4f0e725ffa0c</title>
<g id="a_node4"><a xlink:href="dir_81dabe9939b3aa91b4ce4f0e725ffa0c.htm" target="_top" xlink:title="OSX">
<polygon fill="#a2b4d6" stroke="#404040" points="291.5,-43 254.5,-43 254.5,-24 291.5,-24 291.5,-43"/>
<text text-anchor="middle" x="273" y="-31" font-family="Helvetica,sans-Serif" font-size="10.00">OSX</text>
</a>
</g>
</g>
<!-- dir_79f0f40dc0a8b22eed8af84653c41c60 -->
<g id="node5" class="node">
<title>dir_79f0f40dc0a8b22eed8af84653c41c60</title>
<g id="a_node5"><a xlink:href="dir_79f0f40dc0a8b22eed8af84653c41c60.htm" target="_top" xlink:title="other">
<polygon fill="#a2b4d6" stroke="#404040" points="236,-43 194,-43 194,-24 236,-24 236,-43"/>
<text text-anchor="middle" x="215" y="-31" font-family="Helvetica,sans-Serif" font-size="10.00">other</text>
</a>
</g>
</g>
<!-- dir_b342b897904f051269c296e3c59158c5 -->
<g id="node6" class="node">
<title>dir_b342b897904f051269c296e3c59158c5</title>
<g id="a_node6"><a xlink:href="dir_b342b897904f051269c296e3c59158c5.htm" target="_top" xlink:title="Posix">
<polygon fill="#a2b4d6" stroke="#404040" points="175.5,-43 132.5,-43 132.5,-24 175.5,-24 175.5,-43"/>
<text text-anchor="middle" x="154" y="-31" font-family="Helvetica,sans-Serif" font-size="10.00">Posix</text>
</a>
</g>
</g>
<!-- dir_d33ee697392e4d28af3ae73baa919988 -->
<g id="node7" class="node">
<title>dir_d33ee697392e4d28af3ae73baa919988</title>
<g id="a_node7"><a xlink:href="dir_d33ee697392e4d28af3ae73baa919988.htm" target="_top" xlink:title="uwp">
<polygon fill="#a2b4d6" stroke="#404040" points="114.5,-43 77.5,-43 77.5,-24 114.5,-24 114.5,-43"/>
<text text-anchor="middle" x="96" y="-31" font-family="Helvetica,sans-Serif" font-size="10.00">uwp</text>
</a>
</g>
</g>
<!-- dir_e30f03732e66a59b2c3b7eb9894859b8 -->
<g id="node8" class="node">
<title>dir_e30f03732e66a59b2c3b7eb9894859b8</title>
<g id="a_node8"><a xlink:href="dir_e30f03732e66a59b2c3b7eb9894859b8.htm" target="_top" xlink:title="Win">
<polygon fill="#a2b4d6" stroke="#404040" points="59.5,-43 24.5,-43 24.5,-24 59.5,-24 59.5,-43"/>
<text text-anchor="middle" x="42" y="-31" font-family="Helvetica,sans-Serif" font-size="10.00">Win</text>
</a>
</g>
</g>
</g>
</svg>

<g id="navigator" transform="translate(0 0)" fill="#404254">
  <rect fill="#f2f5e9" fill-opacity="0.5" stroke="#606060" stroke-width=".5" x="0" y="0" width="60" height="60"/>
  <use id="zoomplus" xlink:href="#zoomPlus" x="17" y="9" onmousedown="handleZoom(evt,'in')"/>
  <use id="zoomminus" xlink:href="#zoomMin" x="42" y="9" onmousedown="handleZoom(evt,'out')"/>
  <use id="reset" xlink:href="#resetDef" x="30" y="36" onmousedown="handleReset()"/>
   <use id="arrowup" xlink:href="#arrowUp" x="0" y="0" onmousedown="handlePan(0,-1)"/>
  <use id="arrowright" xlink:href="#arrowRight" x="0" y="0" onmousedown="handlePan(1,0)"/>
  <use id="arrowdown" xlink:href="#arrowDown" x="0" y="0" onmousedown="handlePan(0,1)"/>
  <use id="arrowleft" xlink:href="#arrowLeft" x="0" y="0" onmousedown="handlePan(-1,0)"/>
</g>
<svg viewBox="0 0 15 15" width="100%" height="30px" preserveAspectRatio="xMaxYMin meet">
 <g id="arrow_out" transform="scale(0.3 0.3)">
  <a xlink:href="dir_f794a5464cdd7c796ca802b0cf288ca7_dep_org.svg" target="_base">
   <rect id="button" ry="5" rx="5" y="6" x="6" height="38" width="38"
        fill="#f2f5e9" fill-opacity="0.5" stroke="#606060" stroke-width="1.0"/>
   <path id="arrow"
     d="M 11.500037,31.436501 C 11.940474,20.09759 22.043105,11.32322 32.158766,21.979434 L 37.068811,17.246167 C 37.068811,17.246167 37.088388,32 37.088388,32 L 22.160133,31.978069 C 22.160133,31.978069 26.997745,27.140456 26.997745,27.140456 C 18.528582,18.264221 13.291696,25.230495 11.500037,31.436501 z"
     style="fill:#404040;"/>
  </a>
 </g>
</svg>

<style type='text/css'>
<![CDATA[
[data-mouse-over-selected='false'] { opacity: 0.7; }
[data-mouse-over-selected='true']  { opacity: 1.0; }
]]>
</style>
<script type="application/ecmascript"><![CDATA[
document.addEventListener('DOMContentLoaded', (event) => {
  highlightEdges();
  highlightAdjacentNodes();
});
]]></script>
</svg>
