<?xml version="1.0" encoding="UTF-8" standalone="no"?>
<!DOCTYPE svg PUBLIC "-//W3C//DTD SVG 1.1//EN"
 "http://www.w3.org/Graphics/SVG/1.1/DTD/svg11.dtd">
<!-- Generated by graphviz version 2.43.0 (0)
 -->
<!-- Title: /home/runner/work/XII/XII/Source/Engine/Core Pages: 1 -->
<!--zoomable 94 -->

<svg id="main" version="1.1" xmlns="http://www.w3.org/2000/svg" xmlns:xlink="http://www.w3.org/1999/xlink" xml:space="preserve" onload="init(evt)">
<style type="text/css"><![CDATA[
.node, .edge {opacity: 0.7;}
.node.selected, .edge.selected {opacity: 1;}
.edge:hover path { stroke: red; }
.edge:hover polygon { stroke: red; fill: red; }
]]></style>

<defs>
  <circle id="rim" cx="0" cy="0" r="7"/>
  <circle id="rim2" cx="0" cy="0" r="3.5"/>
  <g id="zoomPlus">
    <use xlink:href="#rim" fill="#404040"><set attributeName="fill" to="#808080" begin="zoomplus.mouseover" end="zoomplus.mouseout"/></use>
    <path d="M-4,0h8M0,-4v8" fill="none" stroke="white" stroke-width="1.5" pointer-events="none"/>
  </g>
  <g id="zoomMin">
    <use xlink:href="#rim" fill="#404040"><set attributeName="fill" to="#808080" begin="zoomminus.mouseover" end="zoomminus.mouseout"/></use>
    <path d="M-4,0h8" fill="none" stroke="white" stroke-width="1.5" pointer-events="none"/>
  </g>
  <g id="arrowUp" transform="translate(30 24)">
    <use xlink:href="#rim"/>
    <path pointer-events="none" fill="none" stroke="white" stroke-width="1.5" d="M0,-3.0v7 M-2.5,-0.5L0,-3.0L2.5,-0.5"/>
  </g>
  <g id="arrowRight" transform="rotate(90) translate(36 -43)">
    <use xlink:href="#rim"/>
    <path pointer-events="none" fill="none" stroke="white" stroke-width="1.5" d="M0,-3.0v7 M-2.5,-0.5L0,-3.0L2.5,-0.5"/>
  </g>
  <g id="arrowDown" transform="rotate(180) translate(-30 -48)">
    <use xlink:href="#rim"/>
    <path pointer-events="none" fill="none" stroke="white" stroke-width="1.5" d="M0,-3.0v7 M-2.5,-0.5L0,-3.0L2.5,-0.5"/>
  </g>
  <g id="arrowLeft" transform="rotate(270) translate(-36 17)">
    <use xlink:href="#rim"/>
    <path pointer-events="none" fill="none" stroke="white" stroke-width="1.5" d="M0,-3.0v7 M-2.5,-0.5L0,-3.0L2.5,-0.5"/>
  </g>
  <g id="resetDef">
    <use xlink:href="#rim2" fill="#404040"><set attributeName="fill" to="#808080" begin="reset.mouseover" end="reset.mouseout"/></use>
  </g>
</defs>
<script type="application/ecmascript">
var viewWidth = 1669;
var viewHeight = 94;
var sectionId = 'dynsection-0';
</script>
<script type="application/ecmascript" xlink:href="svg.min.js"/>
<svg id="graph" class="graph">
<g id="viewport">
<title>/home/runner/work/XII/XII/Source/Engine/Core</title>
<g id="clust1" class="cluster">
<title>clusterdir_e321052006a51284e67389ab20037e7c</title>
<g id="a_clust1"><a xlink:href="dir_e321052006a51284e67389ab20037e7c.html" target="_top" xlink:title="Engine">
<polygon fill="#daedff" stroke="#7f7f7f" stroke-dasharray="5,2" points="8,-8 8,-78 1653,-78 1653,-8 8,-8"/>
<text text-anchor="middle" x="830.5" y="-66" font-family="Helvetica,sans-Serif" font-size="10.00">Engine</text>
</a>
</g>
</g>
<g id="clust2" class="cluster">
<title>clusterdir_6934db396743bb3844d563c7fa1f32a7</title>
<g id="a_clust2"><a xlink:href="dir_6934db396743bb3844d563c7fa1f32a7.html" target="_top">
<polygon fill="#daedff" stroke="#404040" stroke-width="2" points="16,-16 16,-51 1645,-51 1645,-16 16,-16"/>
</a>
</g>
</g>
<!-- dir_6934db396743bb3844d563c7fa1f32a7 -->
<g id="node1" class="node">
<title>dir_6934db396743bb3844d563c7fa1f32a7</title>
<text text-anchor="middle" x="1617" y="-31" font-family="Helvetica,sans-Serif" font-size="10.00">Core</text>
</g>
<!-- dir_ea218a7f75483f56a23a71040375eb8e -->
<g id="node2" class="node">
<title>dir_ea218a7f75483f56a23a71040375eb8e</title>
<g id="a_node2"><a xlink:href="dir_ea218a7f75483f56a23a71040375eb8e.html" target="_top" xlink:title="ActorSystem">
<polygon fill="#4ea9ff" stroke="#404040" points="1579.5,-43 1500.5,-43 1500.5,-24 1579.5,-24 1579.5,-43"/>
<text text-anchor="middle" x="1540" y="-31" font-family="Helvetica,sans-Serif" font-size="10.00">ActorSystem</text>
</a>
</g>
</g>
<!-- dir_eb032126d0edbc66078e1c4cbd74f70f -->
<g id="node3" class="node">
<title>dir_eb032126d0edbc66078e1c4cbd74f70f</title>
<g id="a_node3"><a xlink:href="dir_eb032126d0edbc66078e1c4cbd74f70f.html" target="_top" xlink:title="Collection">
<polygon fill="#4ea9ff" stroke="#404040" points="1482.5,-43 1417.5,-43 1417.5,-24 1482.5,-24 1482.5,-43"/>
<text text-anchor="middle" x="1450" y="-31" font-family="Helvetica,sans-Serif" font-size="10.00">Collection</text>
</a>
</g>
</g>
<!-- dir_0b0abcf44cb9f994c9a9713aa2ed69f9 -->
<g id="node4" class="node">
<title>dir_0b0abcf44cb9f994c9a9713aa2ed69f9</title>
<g id="a_node4"><a xlink:href="dir_0b0abcf44cb9f994c9a9713aa2ed69f9.html" target="_top" xlink:title="Configuration">
<polygon fill="#4ea9ff" stroke="#404040" points="1399,-43 1317,-43 1317,-24 1399,-24 1399,-43"/>
<text text-anchor="middle" x="1358" y="-31" font-family="Helvetica,sans-Serif" font-size="10.00">Configuration</text>
</a>
</g>
</g>
<!-- dir_56fa0063f4bed6319ff51d21f7cd8ae3 -->
<g id="node5" class="node">
<title>dir_56fa0063f4bed6319ff51d21f7cd8ae3</title>
<g id="a_node5"><a xlink:href="dir_56fa0063f4bed6319ff51d21f7cd8ae3.html" target="_top" xlink:title="Console">
<polygon fill="#4ea9ff" stroke="#404040" points="1299,-43 1243,-43 1243,-24 1299,-24 1299,-43"/>
<text text-anchor="middle" x="1271" y="-31" font-family="Helvetica,sans-Serif" font-size="10.00">Console</text>
</a>
</g>
</g>
<!-- dir_254479a168dcc51760e14017f4d538a0 -->
<g id="node6" class="node">
<title>dir_254479a168dcc51760e14017f4d538a0</title>
<g id="a_node6"><a xlink:href="dir_254479a168dcc51760e14017f4d538a0.html" target="_top" xlink:title="Curves">
<polygon fill="#4ea9ff" stroke="#404040" points="1225,-43 1175,-43 1175,-24 1225,-24 1225,-43"/>
<text text-anchor="middle" x="1200" y="-31" font-family="Helvetica,sans-Serif" font-size="10.00">Curves</text>
</a>
</g>
</g>
<!-- dir_2531e25a4cc06c1bfeb9788b204a1f9e -->
<g id="node7" class="node">
<title>dir_2531e25a4cc06c1bfeb9788b204a1f9e</title>
<g id="a_node7"><a xlink:href="dir_2531e25a4cc06c1bfeb9788b204a1f9e.html" target="_top" xlink:title="GameApplication">
<polygon fill="#4ea9ff" stroke="#404040" points="1156.5,-43 1055.5,-43 1055.5,-24 1156.5,-24 1156.5,-43"/>
<text text-anchor="middle" x="1106" y="-31" font-family="Helvetica,sans-Serif" font-size="10.00">GameApplication</text>
</a>
</g>
</g>
<!-- dir_1543f45e62c0c28d049cdce5f81c71ba -->
<g id="node8" class="node">
<title>dir_1543f45e62c0c28d049cdce5f81c71ba</title>
<g id="a_node8"><a xlink:href="dir_1543f45e62c0c28d049cdce5f81c71ba.html" target="_top" xlink:title="GameState">
<polygon fill="#4ea9ff" stroke="#404040" points="1037.5,-43 966.5,-43 966.5,-24 1037.5,-24 1037.5,-43"/>
<text text-anchor="middle" x="1002" y="-31" font-family="Helvetica,sans-Serif" font-size="10.00">GameState</text>
</a>
</g>
</g>
<!-- dir_a2d4ff41669675fa7cc22453d86e2f07 -->
<g id="node9" class="node">
<title>dir_a2d4ff41669675fa7cc22453d86e2f07</title>
<g id="a_node9"><a xlink:href="dir_a2d4ff41669675fa7cc22453d86e2f07.html" target="_top" xlink:title="Graphics">
<polygon fill="#4ea9ff" stroke="#404040" points="948.5,-43 889.5,-43 889.5,-24 948.5,-24 948.5,-43"/>
<text text-anchor="middle" x="919" y="-31" font-family="Helvetica,sans-Serif" font-size="10.00">Graphics</text>
</a>
</g>
</g>
<!-- dir_c4fec11ccf1e859a90dd25bc0dca3b53 -->
<g id="node10" class="node">
<title>dir_c4fec11ccf1e859a90dd25bc0dca3b53</title>
<g id="a_node10"><a xlink:href="dir_c4fec11ccf1e859a90dd25bc0dca3b53.html" target="_top" xlink:title="Input">
<polygon fill="#4ea9ff" stroke="#404040" points="871.5,-43 830.5,-43 830.5,-24 871.5,-24 871.5,-43"/>
<text text-anchor="middle" x="851" y="-31" font-family="Helvetica,sans-Serif" font-size="10.00">Input</text>
</a>
</g>
</g>
<!-- dir_97639a66b975f4162d134f9cd1034ac2 -->
<g id="node11" class="node">
<title>dir_97639a66b975f4162d134f9cd1034ac2</title>
<g id="a_node11"><a xlink:href="dir_97639a66b975f4162d134f9cd1034ac2.html" target="_top" xlink:title="Interfaces">
<polygon fill="#4ea9ff" stroke="#404040" points="812.5,-43 747.5,-43 747.5,-24 812.5,-24 812.5,-43"/>
<text text-anchor="middle" x="780" y="-31" font-family="Helvetica,sans-Serif" font-size="10.00">Interfaces</text>
</a>
</g>
</g>
<!-- dir_12478662bf20fd57bf53afe281564b61 -->
<g id="node12" class="node">
<title>dir_12478662bf20fd57bf53afe281564b61</title>
<g id="a_node12"><a xlink:href="dir_12478662bf20fd57bf53afe281564b61.html" target="_top" xlink:title="Messages">
<polygon fill="#4ea9ff" stroke="#404040" points="729.5,-43 664.5,-43 664.5,-24 729.5,-24 729.5,-43"/>
<text text-anchor="middle" x="697" y="-31" font-family="Helvetica,sans-Serif" font-size="10.00">Messages</text>
</a>
</g>
</g>
<!-- dir_6073e562708e13ea6d978834bc061e75 -->
<g id="node13" class="node">
<title>dir_6073e562708e13ea6d978834bc061e75</title>
<g id="a_node13"><a xlink:href="dir_6073e562708e13ea6d978834bc061e75.html" target="_top" xlink:title="Physics">
<polygon fill="#4ea9ff" stroke="#404040" points="646.5,-43 593.5,-43 593.5,-24 646.5,-24 646.5,-43"/>
<text text-anchor="middle" x="620" y="-31" font-family="Helvetica,sans-Serif" font-size="10.00">Physics</text>
</a>
</g>
</g>
<!-- dir_e31cc69ba5279b208ef6a36718c2812f -->
<g id="node14" class="node">
<title>dir_e31cc69ba5279b208ef6a36718c2812f</title>
<g id="a_node14"><a xlink:href="dir_e31cc69ba5279b208ef6a36718c2812f.html" target="_top" xlink:title="Prefabs">
<polygon fill="#4ea9ff" stroke="#404040" points="575.5,-43 522.5,-43 522.5,-24 575.5,-24 575.5,-43"/>
<text text-anchor="middle" x="549" y="-31" font-family="Helvetica,sans-Serif" font-size="10.00">Prefabs</text>
</a>
</g>
</g>
<!-- dir_465e751dc9a119aafd96522176525a33 -->
<g id="node15" class="node">
<title>dir_465e751dc9a119aafd96522176525a33</title>
<g id="a_node15"><a xlink:href="dir_465e751dc9a119aafd96522176525a33.html" target="_top" xlink:title="ResourceManager">
<polygon fill="#4ea9ff" stroke="#404040" points="504,-43 400,-43 400,-24 504,-24 504,-43"/>
<text text-anchor="middle" x="452" y="-31" font-family="Helvetica,sans-Serif" font-size="10.00">ResourceManager</text>
</a>
</g>
</g>
<!-- dir_70e182252ab10e0c60d3707841f060a7 -->
<g id="node16" class="node">
<title>dir_70e182252ab10e0c60d3707841f060a7</title>
<g id="a_node16"><a xlink:href="dir_70e182252ab10e0c60d3707841f060a7.html" target="_top" xlink:title="Scripting">
<polygon fill="#4ea9ff" stroke="#404040" points="381.5,-43 322.5,-43 322.5,-24 381.5,-24 381.5,-43"/>
<text text-anchor="middle" x="352" y="-31" font-family="Helvetica,sans-Serif" font-size="10.00">Scripting</text>
</a>
</g>
</g>
<!-- dir_010ee2ae163492535281bbc566e65bb8 -->
<g id="node17" class="node">
<title>dir_010ee2ae163492535281bbc566e65bb8</title>
<g id="a_node17"><a xlink:href="dir_010ee2ae163492535281bbc566e65bb8.html" target="_top" xlink:title="System">
<polygon fill="#4ea9ff" stroke="#404040" points="304.5,-43 251.5,-43 251.5,-24 304.5,-24 304.5,-43"/>
<text text-anchor="middle" x="278" y="-31" font-family="Helvetica,sans-Serif" font-size="10.00">System</text>
</a>
</g>
</g>
<!-- dir_adebcc6adcff8ac19ff9e173a546d91f -->
<g id="node18" class="node">
<title>dir_adebcc6adcff8ac19ff9e173a546d91f</title>
<g id="a_node18"><a xlink:href="dir_adebcc6adcff8ac19ff9e173a546d91f.html" target="_top" xlink:title="Utils">
<polygon fill="#4ea9ff" stroke="#404040" points="233.5,-43 194.5,-43 194.5,-24 233.5,-24 233.5,-43"/>
<text text-anchor="middle" x="214" y="-31" font-family="Helvetica,sans-Serif" font-size="10.00">Utils</text>
</a>
</g>
</g>
<!-- dir_ab754377d544640af55d8a4d89e9b622 -->
<g id="node19" class="node">
<title>dir_ab754377d544640af55d8a4d89e9b622</title>
<g id="a_node19"><a xlink:href="dir_ab754377d544640af55d8a4d89e9b622.html" target="_top" xlink:title="World">
<polygon fill="#4ea9ff" stroke="#404040" points="176,-43 132,-43 132,-24 176,-24 176,-43"/>
<text text-anchor="middle" x="154" y="-31" font-family="Helvetica,sans-Serif" font-size="10.00">World</text>
</a>
</g>
</g>
<!-- dir_ac36a49678fc8f5ae5ae78fbab96677b -->
<g id="node20" class="node">
<title>dir_ac36a49678fc8f5ae5ae78fbab96677b</title>
<g id="a_node20"><a xlink:href="dir_ac36a49678fc8f5ae5ae78fbab96677b.html" target="_top" xlink:title="WorldSerializer">
<polygon fill="#4ea9ff" stroke="#404040" points="114,-43 24,-43 24,-24 114,-24 114,-43"/>
<text text-anchor="middle" x="69" y="-31" font-family="Helvetica,sans-Serif" font-size="10.00">WorldSerializer</text>
</a>
</g>
</g>
</g>
</svg>

<g id="navigator" transform="translate(0 0)" fill="#404254">
  <rect fill="#f2f5e9" fill-opacity="0.5" stroke="#606060" stroke-width=".5" x="0" y="0" width="60" height="60"/>
  <use id="zoomplus" xlink:href="#zoomPlus" x="17" y="9" onmousedown="handleZoom(evt,'in')"/>
  <use id="zoomminus" xlink:href="#zoomMin" x="42" y="9" onmousedown="handleZoom(evt,'out')"/>
  <use id="reset" xlink:href="#resetDef" x="30" y="36" onmousedown="handleReset()"/>
   <use id="arrowup" xlink:href="#arrowUp" x="0" y="0" onmousedown="handlePan(0,-1)"/>
  <use id="arrowright" xlink:href="#arrowRight" x="0" y="0" onmousedown="handlePan(1,0)"/>
  <use id="arrowdown" xlink:href="#arrowDown" x="0" y="0" onmousedown="handlePan(0,1)"/>
  <use id="arrowleft" xlink:href="#arrowLeft" x="0" y="0" onmousedown="handlePan(-1,0)"/>
</g>
<svg viewBox="0 0 15 15" width="100%" height="30px" preserveAspectRatio="xMaxYMin meet">
 <g id="arrow_out" transform="scale(0.3 0.3)">
  <a xlink:href="dir_6934db396743bb3844d563c7fa1f32a7_dep_org.svg" target="_base">
   <rect id="button" ry="5" rx="5" y="6" x="6" height="38" width="38"
        fill="#f2f5e9" fill-opacity="0.5" stroke="#606060" stroke-width="1.0"/>
   <path id="arrow"
     d="M 11.500037,31.436501 C 11.940474,20.09759 22.043105,11.32322 32.158766,21.979434 L 37.068811,17.246167 C 37.068811,17.246167 37.088388,32 37.088388,32 L 22.160133,31.978069 C 22.160133,31.978069 26.997745,27.140456 26.997745,27.140456 C 18.528582,18.264221 13.291696,25.230495 11.500037,31.436501 z"
     style="fill:#404040;"/>
  </a>
 </g>
</svg>

<style type='text/css'>
<![CDATA[
[data-mouse-over-selected='false'] { opacity: 0.7; }
[data-mouse-over-selected='true']  { opacity: 1.0; }
]]>
</style>
<script type="application/ecmascript"><![CDATA[
document.addEventListener('DOMContentLoaded', (event) => {
  highlightEdges();
  highlightAdjacentNodes();
});
]]></script>
</svg>
