<?xml version="1.0" encoding="UTF-8" standalone="no"?>
<!DOCTYPE svg PUBLIC "-//W3C//DTD SVG 1.1//EN"
 "http://www.w3.org/Graphics/SVG/1.1/DTD/svg11.dtd">
<!-- Generated by graphviz version 2.43.0 (0)
 -->
<!-- Title: /home/runner/work/XII/XII/Source/Editor/EditorEngineProcessFramework Pages: 1 -->
<!--zoomable 94 -->

<svg id="main" version="1.1" xmlns="http://www.w3.org/2000/svg" xmlns:xlink="http://www.w3.org/1999/xlink" xml:space="preserve" onload="init(evt)">
<style type="text/css"><![CDATA[
.node, .edge {opacity: 0.7;}
.node.selected, .edge.selected {opacity: 1;}
.edge:hover path { stroke: red; }
.edge:hover polygon { stroke: red; fill: red; }
]]></style>

<defs>
  <circle id="rim" cx="0" cy="0" r="7"/>
  <circle id="rim2" cx="0" cy="0" r="3.5"/>
  <g id="zoomPlus">
    <use xlink:href="#rim" fill="#404040"><set attributeName="fill" to="#808080" begin="zoomplus.mouseover" end="zoomplus.mouseout"/></use>
    <path d="M-4,0h8M0,-4v8" fill="none" stroke="white" stroke-width="1.5" pointer-events="none"/>
  </g>
  <g id="zoomMin">
    <use xlink:href="#rim" fill="#404040"><set attributeName="fill" to="#808080" begin="zoomminus.mouseover" end="zoomminus.mouseout"/></use>
    <path d="M-4,0h8" fill="none" stroke="white" stroke-width="1.5" pointer-events="none"/>
  </g>
  <g id="arrowUp" transform="translate(30 24)">
    <use xlink:href="#rim"/>
    <path pointer-events="none" fill="none" stroke="white" stroke-width="1.5" d="M0,-3.0v7 M-2.5,-0.5L0,-3.0L2.5,-0.5"/>
  </g>
  <g id="arrowRight" transform="rotate(90) translate(36 -43)">
    <use xlink:href="#rim"/>
    <path pointer-events="none" fill="none" stroke="white" stroke-width="1.5" d="M0,-3.0v7 M-2.5,-0.5L0,-3.0L2.5,-0.5"/>
  </g>
  <g id="arrowDown" transform="rotate(180) translate(-30 -48)">
    <use xlink:href="#rim"/>
    <path pointer-events="none" fill="none" stroke="white" stroke-width="1.5" d="M0,-3.0v7 M-2.5,-0.5L0,-3.0L2.5,-0.5"/>
  </g>
  <g id="arrowLeft" transform="rotate(270) translate(-36 17)">
    <use xlink:href="#rim"/>
    <path pointer-events="none" fill="none" stroke="white" stroke-width="1.5" d="M0,-3.0v7 M-2.5,-0.5L0,-3.0L2.5,-0.5"/>
  </g>
  <g id="resetDef">
    <use xlink:href="#rim2" fill="#404040"><set attributeName="fill" to="#808080" begin="reset.mouseover" end="reset.mouseout"/></use>
  </g>
</defs>
<script type="application/ecmascript">
var viewWidth = 753;
var viewHeight = 94;
var sectionId = 'dynsection-0';
</script>
<script type="application/ecmascript" xlink:href="svg.min.js"/>
<svg id="graph" class="graph">
<g id="viewport">
<title>/home/runner/work/XII/XII/Source/Editor/EditorEngineProcessFramework</title>
<g id="clust1" class="cluster">
<title>clusterdir_6b4bf1df3614588897d8c8b2dbbde39b</title>
<g id="a_clust1"><a xlink:href="dir_6b4bf1df3614588897d8c8b2dbbde39b.htm" target="_top" xlink:title="Editor">
<polygon fill="#edf0f7" stroke="#7f7f7f" stroke-dasharray="5,2" points="8,-8 8,-78 737,-78 737,-8 8,-8"/>
<text text-anchor="middle" x="372.5" y="-66" font-family="Helvetica,sans-Serif" font-size="10.00">Editor</text>
</a>
</g>
</g>
<g id="clust2" class="cluster">
<title>clusterdir_ee679ceec96dd89b093fe21e05baa175</title>
<g id="a_clust2"><a xlink:href="dir_ee679ceec96dd89b093fe21e05baa175.htm" target="_top">
<polygon fill="#edf0f7" stroke="#404040" stroke-width="2" points="16,-16 16,-51 729,-51 729,-16 16,-16"/>
</a>
</g>
</g>
<!-- dir_ee679ceec96dd89b093fe21e05baa175 -->
<g id="node1" class="node">
<title>dir_ee679ceec96dd89b093fe21e05baa175</title>
<text text-anchor="middle" x="636" y="-31" font-family="Helvetica,sans-Serif" font-size="10.00">EditorEngineProcessFramework</text>
</g>
<!-- dir_ad516dcbcc7ab99007a16fae4b60e65d -->
<g id="node2" class="node">
<title>dir_ad516dcbcc7ab99007a16fae4b60e65d</title>
<g id="a_node2"><a xlink:href="dir_ad516dcbcc7ab99007a16fae4b60e65d.htm" target="_top" xlink:title="EngineProcess">
<polygon fill="#a2b4d6" stroke="#404040" points="532.5,-43 445.5,-43 445.5,-24 532.5,-24 532.5,-43"/>
<text text-anchor="middle" x="489" y="-31" font-family="Helvetica,sans-Serif" font-size="10.00">EngineProcess</text>
</a>
</g>
</g>
<!-- dir_682448b90fdfe69d878858b882b5a986 -->
<g id="node3" class="node">
<title>dir_682448b90fdfe69d878858b882b5a986</title>
<g id="a_node3"><a xlink:href="dir_682448b90fdfe69d878858b882b5a986.htm" target="_top" xlink:title="Gizmos">
<polygon fill="#a2b4d6" stroke="#404040" points="427.5,-43 374.5,-43 374.5,-24 427.5,-24 427.5,-43"/>
<text text-anchor="middle" x="401" y="-31" font-family="Helvetica,sans-Serif" font-size="10.00">Gizmos</text>
</a>
</g>
</g>
<!-- dir_ffab4b4e4f96872595c256e2b1fa074c -->
<g id="node4" class="node">
<title>dir_ffab4b4e4f96872595c256e2b1fa074c</title>
<g id="a_node4"><a xlink:href="dir_ffab4b4e4f96872595c256e2b1fa074c.htm" target="_top" xlink:title="IPC">
<polygon fill="#a2b4d6" stroke="#404040" points="356,-43 324,-43 324,-24 356,-24 356,-43"/>
<text text-anchor="middle" x="340" y="-31" font-family="Helvetica,sans-Serif" font-size="10.00">IPC</text>
</a>
</g>
</g>
<!-- dir_6b14e03cc81483090ab12a8bb2f32d3a -->
<g id="node5" class="node">
<title>dir_6b14e03cc81483090ab12a8bb2f32d3a</title>
<g id="a_node5"><a xlink:href="dir_6b14e03cc81483090ab12a8bb2f32d3a.htm" target="_top" xlink:title="LongOps">
<polygon fill="#a2b4d6" stroke="#404040" points="305.5,-43 246.5,-43 246.5,-24 305.5,-24 305.5,-43"/>
<text text-anchor="middle" x="276" y="-31" font-family="Helvetica,sans-Serif" font-size="10.00">LongOps</text>
</a>
</g>
</g>
<!-- dir_e7b021dc6b8e61cbbbf0250d4cd1d929 -->
<g id="node6" class="node">
<title>dir_e7b021dc6b8e61cbbbf0250d4cd1d929</title>
<g id="a_node6"><a xlink:href="dir_e7b021dc6b8e61cbbbf0250d4cd1d929.htm" target="_top" xlink:title="PickingRenderPass">
<polygon fill="#a2b4d6" stroke="#404040" points="228,-43 120,-43 120,-24 228,-24 228,-43"/>
<text text-anchor="middle" x="174" y="-31" font-family="Helvetica,sans-Serif" font-size="10.00">PickingRenderPass</text>
</a>
</g>
</g>
<!-- dir_58117a5ddf813f4044ea97892cfcc889 -->
<g id="node7" class="node">
<title>dir_58117a5ddf813f4044ea97892cfcc889</title>
<g id="a_node7"><a xlink:href="dir_58117a5ddf813f4044ea97892cfcc889.htm" target="_top" xlink:title="SceneExport">
<polygon fill="#a2b4d6" stroke="#404040" points="101.5,-43 24.5,-43 24.5,-24 101.5,-24 101.5,-43"/>
<text text-anchor="middle" x="63" y="-31" font-family="Helvetica,sans-Serif" font-size="10.00">SceneExport</text>
</a>
</g>
</g>
</g>
</svg>

<g id="navigator" transform="translate(0 0)" fill="#404254">
  <rect fill="#f2f5e9" fill-opacity="0.5" stroke="#606060" stroke-width=".5" x="0" y="0" width="60" height="60"/>
  <use id="zoomplus" xlink:href="#zoomPlus" x="17" y="9" onmousedown="handleZoom(evt,'in')"/>
  <use id="zoomminus" xlink:href="#zoomMin" x="42" y="9" onmousedown="handleZoom(evt,'out')"/>
  <use id="reset" xlink:href="#resetDef" x="30" y="36" onmousedown="handleReset()"/>
   <use id="arrowup" xlink:href="#arrowUp" x="0" y="0" onmousedown="handlePan(0,-1)"/>
  <use id="arrowright" xlink:href="#arrowRight" x="0" y="0" onmousedown="handlePan(1,0)"/>
  <use id="arrowdown" xlink:href="#arrowDown" x="0" y="0" onmousedown="handlePan(0,1)"/>
  <use id="arrowleft" xlink:href="#arrowLeft" x="0" y="0" onmousedown="handlePan(-1,0)"/>
</g>
<svg viewBox="0 0 15 15" width="100%" height="30px" preserveAspectRatio="xMaxYMin meet">
 <g id="arrow_out" transform="scale(0.3 0.3)">
  <a xlink:href="dir_ee679ceec96dd89b093fe21e05baa175_dep_org.svg" target="_base">
   <rect id="button" ry="5" rx="5" y="6" x="6" height="38" width="38"
        fill="#f2f5e9" fill-opacity="0.5" stroke="#606060" stroke-width="1.0"/>
   <path id="arrow"
     d="M 11.500037,31.436501 C 11.940474,20.09759 22.043105,11.32322 32.158766,21.979434 L 37.068811,17.246167 C 37.068811,17.246167 37.088388,32 37.088388,32 L 22.160133,31.978069 C 22.160133,31.978069 26.997745,27.140456 26.997745,27.140456 C 18.528582,18.264221 13.291696,25.230495 11.500037,31.436501 z"
     style="fill:#404040;"/>
  </a>
 </g>
</svg>

<style type='text/css'>
<![CDATA[
[data-mouse-over-selected='false'] { opacity: 0.7; }
[data-mouse-over-selected='true']  { opacity: 1.0; }
]]>
</style>
<script type="application/ecmascript"><![CDATA[
document.addEventListener('DOMContentLoaded', (event) => {
  highlightEdges();
  highlightAdjacentNodes();
});
]]></script>
</svg>
