<?xml version="1.0" encoding="UTF-8" standalone="no"?>
<!DOCTYPE svg PUBLIC "-//W3C//DTD SVG 1.1//EN"
 "http://www.w3.org/Graphics/SVG/1.1/DTD/svg11.dtd">
<!-- Generated by graphviz version 2.43.0 (0)
 -->
<!-- Title: /home/runner/work/XII/XII/Source/Tools Pages: 1 -->
<!--zoomable 94 -->

<svg id="main" version="1.1" xmlns="http://www.w3.org/2000/svg" xmlns:xlink="http://www.w3.org/1999/xlink" xml:space="preserve" onload="init(evt)">
<style type="text/css"><![CDATA[
.node, .edge {opacity: 0.7;}
.node.selected, .edge.selected {opacity: 1;}
.edge:hover path { stroke: red; }
.edge:hover polygon { stroke: red; fill: red; }
]]></style>

<defs>
  <circle id="rim" cx="0" cy="0" r="7"/>
  <circle id="rim2" cx="0" cy="0" r="3.5"/>
  <g id="zoomPlus">
    <use xlink:href="#rim" fill="#404040"><set attributeName="fill" to="#808080" begin="zoomplus.mouseover" end="zoomplus.mouseout"/></use>
    <path d="M-4,0h8M0,-4v8" fill="none" stroke="white" stroke-width="1.5" pointer-events="none"/>
  </g>
  <g id="zoomMin">
    <use xlink:href="#rim" fill="#404040"><set attributeName="fill" to="#808080" begin="zoomminus.mouseover" end="zoomminus.mouseout"/></use>
    <path d="M-4,0h8" fill="none" stroke="white" stroke-width="1.5" pointer-events="none"/>
  </g>
  <g id="arrowUp" transform="translate(30 24)">
    <use xlink:href="#rim"/>
    <path pointer-events="none" fill="none" stroke="white" stroke-width="1.5" d="M0,-3.0v7 M-2.5,-0.5L0,-3.0L2.5,-0.5"/>
  </g>
  <g id="arrowRight" transform="rotate(90) translate(36 -43)">
    <use xlink:href="#rim"/>
    <path pointer-events="none" fill="none" stroke="white" stroke-width="1.5" d="M0,-3.0v7 M-2.5,-0.5L0,-3.0L2.5,-0.5"/>
  </g>
  <g id="arrowDown" transform="rotate(180) translate(-30 -48)">
    <use xlink:href="#rim"/>
    <path pointer-events="none" fill="none" stroke="white" stroke-width="1.5" d="M0,-3.0v7 M-2.5,-0.5L0,-3.0L2.5,-0.5"/>
  </g>
  <g id="arrowLeft" transform="rotate(270) translate(-36 17)">
    <use xlink:href="#rim"/>
    <path pointer-events="none" fill="none" stroke="white" stroke-width="1.5" d="M0,-3.0v7 M-2.5,-0.5L0,-3.0L2.5,-0.5"/>
  </g>
  <g id="resetDef">
    <use xlink:href="#rim2" fill="#404040"><set attributeName="fill" to="#808080" begin="reset.mouseover" end="reset.mouseout"/></use>
  </g>
</defs>
<script type="application/ecmascript">
var viewWidth = 1393;
var viewHeight = 94;
var sectionId = 'dynsection-0';
</script>
<script type="application/ecmascript" xlink:href="svg.min.js"/>
<svg id="graph" class="graph">
<g id="viewport">
<title>/home/runner/work/XII/XII/Source/Tools</title>
<g id="clust1" class="cluster">
<title>clusterdir_b5a1c4ecfca018ad24b729e213296d41</title>
<g id="a_clust1"><a xlink:href="dir_b5a1c4ecfca018ad24b729e213296d41.html" target="_top" xlink:title="Source">
<polygon fill="#daedff" stroke="#7f7f7f" stroke-dasharray="5,2" points="8,-8 8,-78 1377,-78 1377,-8 8,-8"/>
<text text-anchor="middle" x="692.5" y="-66" font-family="Helvetica,sans-Serif" font-size="10.00">Source</text>
</a>
</g>
</g>
<g id="clust2" class="cluster">
<title>clusterdir_64f53f8da7bf780a58c32bb848e7873b</title>
<g id="a_clust2"><a xlink:href="dir_64f53f8da7bf780a58c32bb848e7873b.html" target="_top">
<polygon fill="#daedff" stroke="#404040" stroke-width="2" points="16,-16 16,-51 1369,-51 1369,-16 16,-16"/>
</a>
</g>
</g>
<!-- dir_64f53f8da7bf780a58c32bb848e7873b -->
<g id="node1" class="node">
<title>dir_64f53f8da7bf780a58c32bb848e7873b</title>
<text text-anchor="middle" x="1340" y="-31" font-family="Helvetica,sans-Serif" font-size="10.00">Tools</text>
</g>
<!-- dir_61cb4dac24f52bed109f6a9aff8b9cf8 -->
<g id="node2" class="node">
<title>dir_61cb4dac24f52bed109f6a9aff8b9cf8</title>
<g id="a_node2"><a xlink:href="dir_61cb4dac24f52bed109f6a9aff8b9cf8.html" target="_top" xlink:title="ArchiveTool">
<polygon fill="#4ea9ff" stroke="#404040" points="1301.5,-43 1228.5,-43 1228.5,-24 1301.5,-24 1301.5,-43"/>
<text text-anchor="middle" x="1265" y="-31" font-family="Helvetica,sans-Serif" font-size="10.00">ArchiveTool</text>
</a>
</g>
</g>
<!-- dir_f7b73c9567781c8b32d72fcddf1fca66 -->
<g id="node3" class="node">
<title>dir_f7b73c9567781c8b32d72fcddf1fca66</title>
<g id="a_node3"><a xlink:href="dir_f7b73c9567781c8b32d72fcddf1fca66.html" target="_top" xlink:title="DependencyAnalysis">
<polygon fill="#4ea9ff" stroke="#404040" points="1210.5,-43 1091.5,-43 1091.5,-24 1210.5,-24 1210.5,-43"/>
<text text-anchor="middle" x="1151" y="-31" font-family="Helvetica,sans-Serif" font-size="10.00">DependencyAnalysis</text>
</a>
</g>
</g>
<!-- dir_4dc30fe2cd4f0d46203e15bcdc56975d -->
<g id="node4" class="node">
<title>dir_4dc30fe2cd4f0d46203e15bcdc56975d</title>
<g id="a_node4"><a xlink:href="dir_4dc30fe2cd4f0d46203e15bcdc56975d.html" target="_top" xlink:title="Fileserve">
<polygon fill="#4ea9ff" stroke="#404040" points="1073.5,-43 1012.5,-43 1012.5,-24 1073.5,-24 1073.5,-43"/>
<text text-anchor="middle" x="1043" y="-31" font-family="Helvetica,sans-Serif" font-size="10.00">Fileserve</text>
</a>
</g>
</g>
<!-- dir_4a15ae81f2e2d0e61feaddbfecb12243 -->
<g id="node5" class="node">
<title>dir_4a15ae81f2e2d0e61feaddbfecb12243</title>
<g id="a_node5"><a xlink:href="dir_4a15ae81f2e2d0e61feaddbfecb12243.html" target="_top" xlink:title="GdbProxy">
<polygon fill="#4ea9ff" stroke="#404040" points="994,-43 930,-43 930,-24 994,-24 994,-43"/>
<text text-anchor="middle" x="962" y="-31" font-family="Helvetica,sans-Serif" font-size="10.00">GdbProxy</text>
</a>
</g>
</g>
<!-- dir_65e98a516f25c452b14616108e1e49d0 -->
<g id="node6" class="node">
<title>dir_65e98a516f25c452b14616108e1e49d0</title>
<g id="a_node6"><a xlink:href="dir_65e98a516f25c452b14616108e1e49d0.html" target="_top" xlink:title="HeaderCheck">
<polygon fill="#4ea9ff" stroke="#404040" points="912,-43 830,-43 830,-24 912,-24 912,-43"/>
<text text-anchor="middle" x="871" y="-31" font-family="Helvetica,sans-Serif" font-size="10.00">HeaderCheck</text>
</a>
</g>
</g>
<!-- dir_272f0b6b597cb90f95be13de72c1c31b -->
<g id="node7" class="node">
<title>dir_272f0b6b597cb90f95be13de72c1c31b</title>
<g id="a_node7"><a xlink:href="dir_272f0b6b597cb90f95be13de72c1c31b.html" target="_top" xlink:title="HeaderTool">
<polygon fill="#4ea9ff" stroke="#404040" points="811.5,-43 740.5,-43 740.5,-24 811.5,-24 811.5,-43"/>
<text text-anchor="middle" x="776" y="-31" font-family="Helvetica,sans-Serif" font-size="10.00">HeaderTool</text>
</a>
</g>
</g>
<!-- dir_c198a3aa5a1869f53e2dd91c1aab06ed -->
<g id="node8" class="node">
<title>dir_c198a3aa5a1869f53e2dd91c1aab06ed</title>
<g id="a_node8"><a xlink:href="dir_c198a3aa5a1869f53e2dd91c1aab06ed.html" target="_top" xlink:title="Inspector">
<polygon fill="#4ea9ff" stroke="#404040" points="722,-43 660,-43 660,-24 722,-24 722,-43"/>
<text text-anchor="middle" x="691" y="-31" font-family="Helvetica,sans-Serif" font-size="10.00">Inspector</text>
</a>
</g>
</g>
<!-- dir_4b5bc41f7c4cbfc8ca80bdea56300f1d -->
<g id="node9" class="node">
<title>dir_4b5bc41f7c4cbfc8ca80bdea56300f1d</title>
<g id="a_node9"><a xlink:href="dir_4b5bc41f7c4cbfc8ca80bdea56300f1d.html" target="_top" xlink:title="Libs">
<polygon fill="#4ea9ff" stroke="#404040" points="642,-43 606,-43 606,-24 642,-24 642,-43"/>
<text text-anchor="middle" x="624" y="-31" font-family="Helvetica,sans-Serif" font-size="10.00">Libs</text>
</a>
</g>
</g>
<!-- dir_4ccdbb9e5e41ec9494305856248fc877 -->
<g id="node10" class="node">
<title>dir_4ccdbb9e5e41ec9494305856248fc877</title>
<g id="a_node10"><a xlink:href="dir_4ccdbb9e5e41ec9494305856248fc877.html" target="_top" xlink:title="MiniDumpTool">
<polygon fill="#4ea9ff" stroke="#404040" points="588,-43 502,-43 502,-24 588,-24 588,-43"/>
<text text-anchor="middle" x="545" y="-31" font-family="Helvetica,sans-Serif" font-size="10.00">MiniDumpTool</text>
</a>
</g>
</g>
<!-- dir_73b0b635e820b3bbf3d4f57dca23e499 -->
<g id="node11" class="node">
<title>dir_73b0b635e820b3bbf3d4f57dca23e499</title>
<g id="a_node11"><a xlink:href="dir_73b0b635e820b3bbf3d4f57dca23e499.html" target="_top" xlink:title="Player">
<polygon fill="#4ea9ff" stroke="#404040" points="483.5,-43 436.5,-43 436.5,-24 483.5,-24 483.5,-43"/>
<text text-anchor="middle" x="460" y="-31" font-family="Helvetica,sans-Serif" font-size="10.00">Player</text>
</a>
</g>
</g>
<!-- dir_6003ca27f2a9c04e54ada584c98eb45c -->
<g id="node12" class="node">
<title>dir_6003ca27f2a9c04e54ada584c98eb45c</title>
<g id="a_node12"><a xlink:href="dir_6003ca27f2a9c04e54ada584c98eb45c.html" target="_top" xlink:title="ShaderCompilerTool">
<polygon fill="#4ea9ff" stroke="#404040" points="418,-43 304,-43 304,-24 418,-24 418,-43"/>
<text text-anchor="middle" x="361" y="-31" font-family="Helvetica,sans-Serif" font-size="10.00">ShaderCompilerTool</text>
</a>
</g>
</g>
<!-- dir_6696597a47c2663dc6d48f3faa583d78 -->
<g id="node13" class="node">
<title>dir_6696597a47c2663dc6d48f3faa583d78</title>
<g id="a_node13"><a xlink:href="dir_6696597a47c2663dc6d48f3faa583d78.html" target="_top" xlink:title="StackResolver">
<polygon fill="#4ea9ff" stroke="#404040" points="286,-43 200,-43 200,-24 286,-24 286,-43"/>
<text text-anchor="middle" x="243" y="-31" font-family="Helvetica,sans-Serif" font-size="10.00">StackResolver</text>
</a>
</g>
</g>
<!-- dir_ea4816af061afb17f86c6924f6d2bc0d -->
<g id="node14" class="node">
<title>dir_ea4816af061afb17f86c6924f6d2bc0d</title>
<g id="a_node14"><a xlink:href="dir_ea4816af061afb17f86c6924f6d2bc0d.html" target="_top" xlink:title="StaticLinkUtil">
<polygon fill="#4ea9ff" stroke="#404040" points="182,-43 100,-43 100,-24 182,-24 182,-43"/>
<text text-anchor="middle" x="141" y="-31" font-family="Helvetica,sans-Serif" font-size="10.00">StaticLinkUtil</text>
</a>
</g>
</g>
<!-- dir_f08a1c3857d42051bede881011fd0e1a -->
<g id="node15" class="node">
<title>dir_f08a1c3857d42051bede881011fd0e1a</title>
<g id="a_node15"><a xlink:href="dir_f08a1c3857d42051bede881011fd0e1a.html" target="_top" xlink:title="TexConv">
<polygon fill="#4ea9ff" stroke="#404040" points="82,-43 24,-43 24,-24 82,-24 82,-43"/>
<text text-anchor="middle" x="53" y="-31" font-family="Helvetica,sans-Serif" font-size="10.00">TexConv</text>
</a>
</g>
</g>
</g>
</svg>

<g id="navigator" transform="translate(0 0)" fill="#404254">
  <rect fill="#f2f5e9" fill-opacity="0.5" stroke="#606060" stroke-width=".5" x="0" y="0" width="60" height="60"/>
  <use id="zoomplus" xlink:href="#zoomPlus" x="17" y="9" onmousedown="handleZoom(evt,'in')"/>
  <use id="zoomminus" xlink:href="#zoomMin" x="42" y="9" onmousedown="handleZoom(evt,'out')"/>
  <use id="reset" xlink:href="#resetDef" x="30" y="36" onmousedown="handleReset()"/>
   <use id="arrowup" xlink:href="#arrowUp" x="0" y="0" onmousedown="handlePan(0,-1)"/>
  <use id="arrowright" xlink:href="#arrowRight" x="0" y="0" onmousedown="handlePan(1,0)"/>
  <use id="arrowdown" xlink:href="#arrowDown" x="0" y="0" onmousedown="handlePan(0,1)"/>
  <use id="arrowleft" xlink:href="#arrowLeft" x="0" y="0" onmousedown="handlePan(-1,0)"/>
</g>
<svg viewBox="0 0 15 15" width="100%" height="30px" preserveAspectRatio="xMaxYMin meet">
 <g id="arrow_out" transform="scale(0.3 0.3)">
  <a xlink:href="dir_64f53f8da7bf780a58c32bb848e7873b_dep_org.svg" target="_base">
   <rect id="button" ry="5" rx="5" y="6" x="6" height="38" width="38"
        fill="#f2f5e9" fill-opacity="0.5" stroke="#606060" stroke-width="1.0"/>
   <path id="arrow"
     d="M 11.500037,31.436501 C 11.940474,20.09759 22.043105,11.32322 32.158766,21.979434 L 37.068811,17.246167 C 37.068811,17.246167 37.088388,32 37.088388,32 L 22.160133,31.978069 C 22.160133,31.978069 26.997745,27.140456 26.997745,27.140456 C 18.528582,18.264221 13.291696,25.230495 11.500037,31.436501 z"
     style="fill:#404040;"/>
  </a>
 </g>
</svg>

<style type='text/css'>
<![CDATA[
[data-mouse-over-selected='false'] { opacity: 0.7; }
[data-mouse-over-selected='true']  { opacity: 1.0; }
]]>
</style>
<script type="application/ecmascript"><![CDATA[
document.addEventListener('DOMContentLoaded', (event) => {
  highlightEdges();
  highlightAdjacentNodes();
});
]]></script>
</svg>
