<?xml version="1.0" encoding="UTF-8" standalone="no"?>
<!DOCTYPE svg PUBLIC "-//W3C//DTD SVG 1.1//EN"
 "http://www.w3.org/Graphics/SVG/1.1/DTD/svg11.dtd">
<!-- Generated by graphviz version 2.43.0 (0)
 -->
<!-- Title: /home/runner/work/XII/XII/Source/EnginePlugins Pages: 1 -->
<!--zoomable 94 -->

<svg id="main" version="1.1" xmlns="http://www.w3.org/2000/svg" xmlns:xlink="http://www.w3.org/1999/xlink" xml:space="preserve" onload="init(evt)">
<style type="text/css"><![CDATA[
.node, .edge {opacity: 0.7;}
.node.selected, .edge.selected {opacity: 1;}
.edge:hover path { stroke: red; }
.edge:hover polygon { stroke: red; fill: red; }
]]></style>

<defs>
  <circle id="rim" cx="0" cy="0" r="7"/>
  <circle id="rim2" cx="0" cy="0" r="3.5"/>
  <g id="zoomPlus">
    <use xlink:href="#rim" fill="#404040"><set attributeName="fill" to="#808080" begin="zoomplus.mouseover" end="zoomplus.mouseout"/></use>
    <path d="M-4,0h8M0,-4v8" fill="none" stroke="white" stroke-width="1.5" pointer-events="none"/>
  </g>
  <g id="zoomMin">
    <use xlink:href="#rim" fill="#404040"><set attributeName="fill" to="#808080" begin="zoomminus.mouseover" end="zoomminus.mouseout"/></use>
    <path d="M-4,0h8" fill="none" stroke="white" stroke-width="1.5" pointer-events="none"/>
  </g>
  <g id="arrowUp" transform="translate(30 24)">
    <use xlink:href="#rim"/>
    <path pointer-events="none" fill="none" stroke="white" stroke-width="1.5" d="M0,-3.0v7 M-2.5,-0.5L0,-3.0L2.5,-0.5"/>
  </g>
  <g id="arrowRight" transform="rotate(90) translate(36 -43)">
    <use xlink:href="#rim"/>
    <path pointer-events="none" fill="none" stroke="white" stroke-width="1.5" d="M0,-3.0v7 M-2.5,-0.5L0,-3.0L2.5,-0.5"/>
  </g>
  <g id="arrowDown" transform="rotate(180) translate(-30 -48)">
    <use xlink:href="#rim"/>
    <path pointer-events="none" fill="none" stroke="white" stroke-width="1.5" d="M0,-3.0v7 M-2.5,-0.5L0,-3.0L2.5,-0.5"/>
  </g>
  <g id="arrowLeft" transform="rotate(270) translate(-36 17)">
    <use xlink:href="#rim"/>
    <path pointer-events="none" fill="none" stroke="white" stroke-width="1.5" d="M0,-3.0v7 M-2.5,-0.5L0,-3.0L2.5,-0.5"/>
  </g>
  <g id="resetDef">
    <use xlink:href="#rim2" fill="#404040"><set attributeName="fill" to="#808080" begin="reset.mouseover" end="reset.mouseout"/></use>
  </g>
</defs>
<script type="application/ecmascript">
var viewWidth = 894;
var viewHeight = 94;
var sectionId = 'dynsection-0';
</script>
<script type="application/ecmascript" xlink:href="svg.min.js"/>
<svg id="graph" class="graph">
<g id="viewport">
<title>/home/runner/work/XII/XII/Source/EnginePlugins</title>
<g id="clust1" class="cluster">
<title>clusterdir_b5a1c4ecfca018ad24b729e213296d41</title>
<g id="a_clust1"><a xlink:href="dir_b5a1c4ecfca018ad24b729e213296d41.html" target="_top" xlink:title="Source">
<polygon fill="#daedff" stroke="#7f7f7f" stroke-dasharray="5,2" points="8,-8 8,-78 878,-78 878,-8 8,-8"/>
<text text-anchor="middle" x="443" y="-66" font-family="Helvetica,sans-Serif" font-size="10.00">Source</text>
</a>
</g>
</g>
<g id="clust2" class="cluster">
<title>clusterdir_260e93b09b1f607a5a2893957a57de87</title>
<g id="a_clust2"><a xlink:href="dir_260e93b09b1f607a5a2893957a57de87.html" target="_top">
<polygon fill="#daedff" stroke="#404040" stroke-width="2" points="16,-16 16,-51 870,-51 870,-16 16,-16"/>
</a>
</g>
</g>
<!-- dir_260e93b09b1f607a5a2893957a57de87 -->
<g id="node1" class="node">
<title>dir_260e93b09b1f607a5a2893957a57de87</title>
<text text-anchor="middle" x="819" y="-31" font-family="Helvetica,sans-Serif" font-size="10.00">EnginePlugins</text>
</g>
<!-- dir_59f823122312de184123bb1b5b46dd04 -->
<g id="node2" class="node">
<title>dir_59f823122312de184123bb1b5b46dd04</title>
<g id="a_node2"><a xlink:href="dir_59f823122312de184123bb1b5b46dd04.html" target="_top" xlink:title="FileservePlugin">
<polygon fill="#4ea9ff" stroke="#404040" points="758.5,-43 667.5,-43 667.5,-24 758.5,-24 758.5,-43"/>
<text text-anchor="middle" x="713" y="-31" font-family="Helvetica,sans-Serif" font-size="10.00">FileservePlugin</text>
</a>
</g>
</g>
<!-- dir_c65d1ee8825573b08177e70ce85de1c0 -->
<g id="node3" class="node">
<title>dir_c65d1ee8825573b08177e70ce85de1c0</title>
<g id="a_node3"><a xlink:href="dir_c65d1ee8825573b08177e70ce85de1c0.html" target="_top" xlink:title="GameComponentsPlugin">
<polygon fill="#4ea9ff" stroke="#404040" points="649.5,-43 512.5,-43 512.5,-24 649.5,-24 649.5,-43"/>
<text text-anchor="middle" x="581" y="-31" font-family="Helvetica,sans-Serif" font-size="10.00">GameComponentsPlugin</text>
</a>
</g>
</g>
<!-- dir_9e6424392b1b33589e26bc3d9c8256bd -->
<g id="node4" class="node">
<title>dir_9e6424392b1b33589e26bc3d9c8256bd</title>
<g id="a_node4"><a xlink:href="dir_9e6424392b1b33589e26bc3d9c8256bd.html" target="_top" xlink:title="InspectorPlugin">
<polygon fill="#4ea9ff" stroke="#404040" points="494,-43 402,-43 402,-24 494,-24 494,-43"/>
<text text-anchor="middle" x="448" y="-31" font-family="Helvetica,sans-Serif" font-size="10.00">InspectorPlugin</text>
</a>
</g>
</g>
<!-- dir_1ce68432cfabdced67b293c16b441b3f -->
<g id="node5" class="node">
<title>dir_1ce68432cfabdced67b293c16b441b3f</title>
<g id="a_node5"><a xlink:href="dir_1ce68432cfabdced67b293c16b441b3f.html" target="_top" xlink:title="RenderDocPlugin">
<polygon fill="#4ea9ff" stroke="#404040" points="384,-43 284,-43 284,-24 384,-24 384,-43"/>
<text text-anchor="middle" x="334" y="-31" font-family="Helvetica,sans-Serif" font-size="10.00">RenderDocPlugin</text>
</a>
</g>
</g>
<!-- dir_3266bd805ee584df34f5341cedfb8b04 -->
<g id="node6" class="node">
<title>dir_3266bd805ee584df34f5341cedfb8b04</title>
<g id="a_node6"><a xlink:href="dir_3266bd805ee584df34f5341cedfb8b04.html" target="_top" xlink:title="VisualScriptPlugin">
<polygon fill="#4ea9ff" stroke="#404040" points="266,-43 162,-43 162,-24 266,-24 266,-43"/>
<text text-anchor="middle" x="214" y="-31" font-family="Helvetica,sans-Serif" font-size="10.00">VisualScriptPlugin</text>
</a>
</g>
</g>
<!-- dir_8f48b1a0ad3996fc4d9823e045fb43fc -->
<g id="node7" class="node">
<title>dir_8f48b1a0ad3996fc4d9823e045fb43fc</title>
<g id="a_node7"><a xlink:href="dir_8f48b1a0ad3996fc4d9823e045fb43fc.html" target="_top" xlink:title="XBoxControllerPlugin">
<polygon fill="#4ea9ff" stroke="#404040" points="144,-43 24,-43 24,-24 144,-24 144,-43"/>
<text text-anchor="middle" x="84" y="-31" font-family="Helvetica,sans-Serif" font-size="10.00">XBoxControllerPlugin</text>
</a>
</g>
</g>
</g>
</svg>

<g id="navigator" transform="translate(0 0)" fill="#404254">
  <rect fill="#f2f5e9" fill-opacity="0.5" stroke="#606060" stroke-width=".5" x="0" y="0" width="60" height="60"/>
  <use id="zoomplus" xlink:href="#zoomPlus" x="17" y="9" onmousedown="handleZoom(evt,'in')"/>
  <use id="zoomminus" xlink:href="#zoomMin" x="42" y="9" onmousedown="handleZoom(evt,'out')"/>
  <use id="reset" xlink:href="#resetDef" x="30" y="36" onmousedown="handleReset()"/>
   <use id="arrowup" xlink:href="#arrowUp" x="0" y="0" onmousedown="handlePan(0,-1)"/>
  <use id="arrowright" xlink:href="#arrowRight" x="0" y="0" onmousedown="handlePan(1,0)"/>
  <use id="arrowdown" xlink:href="#arrowDown" x="0" y="0" onmousedown="handlePan(0,1)"/>
  <use id="arrowleft" xlink:href="#arrowLeft" x="0" y="0" onmousedown="handlePan(-1,0)"/>
</g>
<svg viewBox="0 0 15 15" width="100%" height="30px" preserveAspectRatio="xMaxYMin meet">
 <g id="arrow_out" transform="scale(0.3 0.3)">
  <a xlink:href="dir_260e93b09b1f607a5a2893957a57de87_dep_org.svg" target="_base">
   <rect id="button" ry="5" rx="5" y="6" x="6" height="38" width="38"
        fill="#f2f5e9" fill-opacity="0.5" stroke="#606060" stroke-width="1.0"/>
   <path id="arrow"
     d="M 11.500037,31.436501 C 11.940474,20.09759 22.043105,11.32322 32.158766,21.979434 L 37.068811,17.246167 C 37.068811,17.246167 37.088388,32 37.088388,32 L 22.160133,31.978069 C 22.160133,31.978069 26.997745,27.140456 26.997745,27.140456 C 18.528582,18.264221 13.291696,25.230495 11.500037,31.436501 z"
     style="fill:#404040;"/>
  </a>
 </g>
</svg>

<style type='text/css'>
<![CDATA[
[data-mouse-over-selected='false'] { opacity: 0.7; }
[data-mouse-over-selected='true']  { opacity: 1.0; }
]]>
</style>
<script type="application/ecmascript"><![CDATA[
document.addEventListener('DOMContentLoaded', (event) => {
  highlightEdges();
  highlightAdjacentNodes();
});
]]></script>
</svg>
