<?xml version="1.0" encoding="UTF-8" standalone="no"?>
<!DOCTYPE svg PUBLIC "-//W3C//DTD SVG 1.1//EN"
 "http://www.w3.org/Graphics/SVG/1.1/DTD/svg11.dtd">
<!-- Generated by graphviz version 2.43.0 (0)
 -->
<!-- Title: Graphical Class Hierarchy Pages: 1 -->
<svg width="872pt" height="60pt"
 viewBox="0.00 0.00 872.00 60.00" xmlns="http://www.w3.org/2000/svg" xmlns:xlink="http://www.w3.org/1999/xlink">
<g id="graph0" class="graph" transform="scale(1 1) rotate(0) translate(4 56)">
<title>Graphical Class Hierarchy</title>
<!-- Node0 -->
<g id="Node000000" class="node">
<title>Node0</title>
<g id="a_Node000000"><a xlink:href="da/d4c/classxii_array_base.html" target="_top" xlink:title=" ">
<polygon fill="white" stroke="#666666" points="197,-52 0,-52 0,0 197,0 197,-52"/>
<text text-anchor="start" x="8" y="-40" font-family="Helvetica,sans-Serif" font-size="10.00">xiiArrayBase&lt; xiiAnimPose</text>
<text text-anchor="start" x="8" y="-29" font-family="Helvetica,sans-Serif" font-size="10.00">GeneratorCommandRestPose,</text>
<text text-anchor="start" x="8" y="-18" font-family="Helvetica,sans-Serif" font-size="10.00"> xiiDynamicArrayBase&lt; xiiAnimPose</text>
<text text-anchor="middle" x="98.5" y="-7" font-family="Helvetica,sans-Serif" font-size="10.00">GeneratorCommandRestPose &gt; &gt;</text>
</a>
</g>
</g>
<!-- Node1 -->
<g id="Node000001" class="node">
<title>Node1</title>
<g id="a_Node000001"><a xlink:href="d2/dea/classxii_dynamic_array_base.html" target="_top" xlink:title=" ">
<polygon fill="white" stroke="#666666" points="421,-46.5 233,-46.5 233,-5.5 421,-5.5 421,-46.5"/>
<text text-anchor="start" x="241" y="-34.5" font-family="Helvetica,sans-Serif" font-size="10.00">xiiDynamicArrayBase</text>
<text text-anchor="start" x="241" y="-23.5" font-family="Helvetica,sans-Serif" font-size="10.00">&lt; xiiAnimPoseGeneratorCommand</text>
<text text-anchor="middle" x="327" y="-12.5" font-family="Helvetica,sans-Serif" font-size="10.00">RestPose &gt;</text>
</a>
</g>
</g>
<!-- Node0&#45;&gt;Node1 -->
<g id="edge714_Node000000_Node000001" class="edge">
<title>Node0&#45;&gt;Node1</title>
<g id="a_edge714_Node000000_Node000001"><a xlink:title=" ">
<path fill="none" stroke="#63b8ff" d="M207.24,-26C215.83,-26 224.45,-26 232.92,-26"/>
<polygon fill="#63b8ff" stroke="#63b8ff" points="207.2,-22.5 197.2,-26 207.2,-29.5 207.2,-22.5"/>
</a>
</g>
</g>
<!-- Node2 -->
<g id="Node000002" class="node">
<title>Node2</title>
<g id="a_Node000002"><a xlink:href="dc/da4/classxii_dynamic_array.html" target="_top" xlink:title=" ">
<polygon fill="white" stroke="#666666" points="644,-46.5 457,-46.5 457,-5.5 644,-5.5 644,-46.5"/>
<text text-anchor="start" x="465" y="-34.5" font-family="Helvetica,sans-Serif" font-size="10.00">xiiDynamicArray&lt; xiiAnim</text>
<text text-anchor="start" x="465" y="-23.5" font-family="Helvetica,sans-Serif" font-size="10.00">PoseGeneratorCommandRestPose,</text>
<text text-anchor="middle" x="550.5" y="-12.5" font-family="Helvetica,sans-Serif" font-size="10.00"> xiiDefaultAllocatorWrapper &gt;</text>
</a>
</g>
</g>
<!-- Node1&#45;&gt;Node2 -->
<g id="edge715_Node000001_Node000002" class="edge">
<title>Node1&#45;&gt;Node2</title>
<g id="a_edge715_Node000001_Node000002"><a xlink:title=" ">
<path fill="none" stroke="#63b8ff" d="M431.5,-26C439.9,-26 448.35,-26 456.67,-26"/>
<polygon fill="#63b8ff" stroke="#63b8ff" points="431.29,-22.5 421.29,-26 431.29,-29.5 431.29,-22.5"/>
</a>
</g>
</g>
<!-- Node3 -->
<g id="Node000003" class="node">
<title>Node3</title>
<g id="a_Node000003"><a xlink:href="dc/da9/classxii_hybrid_array.html" target="_top" xlink:title=" ">
<polygon fill="white" stroke="#666666" points="864,-41 680,-41 680,-11 864,-11 864,-41"/>
<text text-anchor="start" x="688" y="-29" font-family="Helvetica,sans-Serif" font-size="10.00">xiiHybridArray&lt; xiiAnimPose</text>
<text text-anchor="middle" x="772" y="-18" font-family="Helvetica,sans-Serif" font-size="10.00">GeneratorCommandRestPose, 1 &gt;</text>
</a>
</g>
</g>
<!-- Node2&#45;&gt;Node3 -->
<g id="edge716_Node000002_Node000003" class="edge">
<title>Node2&#45;&gt;Node3</title>
<g id="a_edge716_Node000002_Node000003"><a xlink:title=" ">
<path fill="none" stroke="#63b8ff" d="M654.29,-26C662.86,-26 671.49,-26 679.96,-26"/>
<polygon fill="#63b8ff" stroke="#63b8ff" points="654.27,-22.5 644.27,-26 654.27,-29.5 654.27,-22.5"/>
</a>
</g>
</g>
</g>
</svg>
