<?xml version="1.0" encoding="UTF-8" standalone="no"?>
<!DOCTYPE svg PUBLIC "-//W3C//DTD SVG 1.1//EN"
 "http://www.w3.org/Graphics/SVG/1.1/DTD/svg11.dtd">
<!-- Generated by graphviz version 2.43.0 (0)
 -->
<!-- Title: Graphical Class Hierarchy Pages: 1 -->
<svg width="593pt" height="98pt"
 viewBox="0.00 0.00 593.00 97.50" xmlns="http://www.w3.org/2000/svg" xmlns:xlink="http://www.w3.org/1999/xlink">
<g id="graph0" class="graph" transform="scale(1 1) rotate(0) translate(4 93.5)">
<title>Graphical Class Hierarchy</title>
<!-- Node0 -->
<g id="Node000000" class="node">
<title>Node0</title>
<g id="a_Node000000"><a xlink:href="da/d4c/classxii_array_base.htm" target="_top" xlink:title=" ">
<polygon fill="white" stroke="#666666" points="236,-57 0,-57 0,-27 236,-27 236,-57"/>
<text text-anchor="start" x="8" y="-45" font-family="Helvetica,sans-Serif" font-size="10.00">xiiArrayBase&lt; xiiSimdBSphere,</text>
<text text-anchor="middle" x="118" y="-34" font-family="Helvetica,sans-Serif" font-size="10.00"> xiiDynamicArrayBase&lt; xiiSimdBSphere &gt; &gt;</text>
</a>
</g>
</g>
<!-- Node1 -->
<g id="Node000001" class="node">
<title>Node1</title>
<g id="a_Node000001"><a xlink:href="d2/dea/classxii_dynamic_array_base.htm" target="_top" xlink:title=" ">
<polygon fill="white" stroke="#666666" points="394,-57 272,-57 272,-27 394,-27 394,-57"/>
<text text-anchor="start" x="280" y="-45" font-family="Helvetica,sans-Serif" font-size="10.00">xiiDynamicArrayBase</text>
<text text-anchor="middle" x="333" y="-34" font-family="Helvetica,sans-Serif" font-size="10.00">&lt; xiiSimdBSphere &gt;</text>
</a>
</g>
</g>
<!-- Node0&#45;&gt;Node1 -->
<g id="edge1208_Node000000_Node000001" class="edge">
<title>Node0&#45;&gt;Node1</title>
<g id="a_edge1208_Node000000_Node000001"><a xlink:title=" ">
<path fill="none" stroke="#63b8ff" d="M246.19,-42C255.06,-42 263.74,-42 271.96,-42"/>
<polygon fill="#63b8ff" stroke="#63b8ff" points="246.09,-38.5 236.09,-42 246.09,-45.5 246.09,-38.5"/>
</a>
</g>
</g>
<!-- Node2 -->
<g id="Node000002" class="node">
<title>Node2</title>
<g id="a_Node000002"><a xlink:href="dc/da4/classxii_dynamic_array.htm" target="_top" xlink:title=" ">
<polygon fill="white" stroke="#666666" points="585,-89.5 430,-89.5 430,-48.5 585,-48.5 585,-89.5"/>
<text text-anchor="start" x="438" y="-77.5" font-family="Helvetica,sans-Serif" font-size="10.00">xiiDynamicArray&lt; xiiSimd</text>
<text text-anchor="start" x="438" y="-66.5" font-family="Helvetica,sans-Serif" font-size="10.00">BSphere, xiiAlignedAllocator</text>
<text text-anchor="middle" x="507.5" y="-55.5" font-family="Helvetica,sans-Serif" font-size="10.00">Wrapper &gt;</text>
</a>
</g>
</g>
<!-- Node1&#45;&gt;Node2 -->
<g id="edge1209_Node000001_Node000002" class="edge">
<title>Node1&#45;&gt;Node2</title>
<g id="a_edge1209_Node000001_Node000002"><a xlink:title=" ">
<path fill="none" stroke="#63b8ff" d="M404.42,-53.02C412.79,-54.33 421.37,-55.68 429.83,-57"/>
<polygon fill="#63b8ff" stroke="#63b8ff" points="404.75,-49.53 394.33,-51.44 403.67,-56.45 404.75,-49.53"/>
</a>
</g>
</g>
<!-- Node3 -->
<g id="Node000003" class="node">
<title>Node3</title>
<g id="a_Node000003"><a xlink:href="dc/da4/classxii_dynamic_array.htm" target="_top" xlink:title=" ">
<polygon fill="white" stroke="#666666" points="580.5,-30 434.5,-30 434.5,0 580.5,0 580.5,-30"/>
<text text-anchor="start" x="442.5" y="-18" font-family="Helvetica,sans-Serif" font-size="10.00">xiiDynamicArray&lt; xiiSimd</text>
<text text-anchor="middle" x="507.5" y="-7" font-family="Helvetica,sans-Serif" font-size="10.00">BSphere &gt;</text>
</a>
</g>
</g>
<!-- Node1&#45;&gt;Node3 -->
<g id="edge1210_Node000001_Node000003" class="edge">
<title>Node1&#45;&gt;Node3</title>
<g id="a_edge1210_Node000001_Node000003"><a xlink:title=" ">
<path fill="none" stroke="#63b8ff" d="M404.47,-30.97C414.33,-29.43 424.46,-27.84 434.35,-26.29"/>
<polygon fill="#63b8ff" stroke="#63b8ff" points="403.67,-27.55 394.33,-32.56 404.75,-34.47 403.67,-27.55"/>
</a>
</g>
</g>
</g>
</svg>
