<?xml version="1.0" encoding="UTF-8" standalone="no"?>
<!DOCTYPE svg PUBLIC "-//W3C//DTD SVG 1.1//EN"
 "http://www.w3.org/Graphics/SVG/1.1/DTD/svg11.dtd">
<!-- Generated by graphviz version 2.43.0 (0)
 -->
<!-- Title: Graphical Class Hierarchy Pages: 1 -->
<svg width="256pt" height="64pt"
 viewBox="0.00 0.00 256.00 64.00" xmlns="http://www.w3.org/2000/svg" xmlns:xlink="http://www.w3.org/1999/xlink">
<g id="graph0" class="graph" transform="scale(1 1) rotate(0) translate(4 60)">
<title>Graphical Class Hierarchy</title>
<!-- Node0 -->
<g id="Node000000" class="node">
<title>Node0</title>
<g id="a_Node000000"><a xlink:title=" ">
<polygon fill="#e0e0e0" stroke="#999999" points="60,-37 0,-37 0,-18 60,-18 60,-37"/>
<text text-anchor="middle" x="30" y="-25" font-family="Helvetica,sans-Serif" font-size="10.00">QToolBar</text>
</a>
</g>
</g>
<!-- Node1 -->
<g id="Node000001" class="node">
<title>Node1</title>
<g id="a_Node000001"><a xlink:href="d3/de4/classxii_qt_time_scrubber_toolbar.htm" target="_top" xlink:title=" ">
<polygon fill="white" stroke="#666666" points="243.5,-56 100.5,-56 100.5,-37 243.5,-37 243.5,-56"/>
<text text-anchor="middle" x="172" y="-44" font-family="Helvetica,sans-Serif" font-size="10.00">xiiQtTimeScrubberToolbar</text>
</a>
</g>
</g>
<!-- Node0&#45;&gt;Node1 -->
<g id="edge211_Node000000_Node000001" class="edge">
<title>Node0&#45;&gt;Node1</title>
<g id="a_edge211_Node000000_Node000001"><a xlink:title=" ">
<path fill="none" stroke="#63b8ff" d="M69.99,-32.79C79.59,-34.09 90.16,-35.53 100.73,-36.96"/>
<polygon fill="#63b8ff" stroke="#63b8ff" points="70.39,-29.31 60.01,-31.44 69.45,-36.25 70.39,-29.31"/>
</a>
</g>
</g>
<!-- Node2 -->
<g id="Node000002" class="node">
<title>Node2</title>
<g id="a_Node000002"><a xlink:href="d9/d34/classxii_qt_tool_bar_action_map_view.htm" target="_top" xlink:title=" ">
<polygon fill="white" stroke="#666666" points="248,-19 96,-19 96,0 248,0 248,-19"/>
<text text-anchor="middle" x="172" y="-7" font-family="Helvetica,sans-Serif" font-size="10.00">xiiQtToolBarActionMapView</text>
</a>
</g>
</g>
<!-- Node0&#45;&gt;Node2 -->
<g id="edge212_Node000000_Node000002" class="edge">
<title>Node0&#45;&gt;Node2</title>
<g id="a_edge212_Node000000_Node000002"><a xlink:title=" ">
<path fill="none" stroke="#63b8ff" d="M70.2,-22.46C78.6,-21.38 87.73,-20.21 96.96,-19.02"/>
<polygon fill="#63b8ff" stroke="#63b8ff" points="69.48,-19.02 60.01,-23.77 70.37,-25.97 69.48,-19.02"/>
</a>
</g>
</g>
</g>
</svg>
