<?xml version="1.0" encoding="UTF-8" standalone="no"?>
<!DOCTYPE svg PUBLIC "-//W3C//DTD SVG 1.1//EN"
 "http://www.w3.org/Graphics/SVG/1.1/DTD/svg11.dtd">
<!-- Generated by graphviz version 2.43.0 (0)
 -->
<!-- Title: Graphical Class Hierarchy Pages: 1 -->
<svg width="617pt" height="60pt"
 viewBox="0.00 0.00 617.00 60.00" xmlns="http://www.w3.org/2000/svg" xmlns:xlink="http://www.w3.org/1999/xlink">
<g id="graph0" class="graph" transform="scale(1 1) rotate(0) translate(4 56)">
<title>Graphical Class Hierarchy</title>
<!-- Node0 -->
<g id="Node000000" class="node">
<title>Node0</title>
<g id="a_Node000000"><a xlink:href="da/d4c/classxii_array_base.html" target="_top" xlink:title=" ">
<polygon fill="white" stroke="#666666" points="218,-52 0,-52 0,0 218,0 218,-52"/>
<text text-anchor="start" x="8" y="-40" font-family="Helvetica,sans-Serif" font-size="10.00">xiiArrayBase&lt; xiiGatherObjects</text>
<text text-anchor="start" x="8" y="-29" font-family="Helvetica,sans-Serif" font-size="10.00">OfTypeMsgInterDoc::Result,</text>
<text text-anchor="start" x="8" y="-18" font-family="Helvetica,sans-Serif" font-size="10.00"> xiiDynamicArrayBase&lt; xiiGatherObjects</text>
<text text-anchor="middle" x="109" y="-7" font-family="Helvetica,sans-Serif" font-size="10.00">OfTypeMsgInterDoc::Result &gt; &gt;</text>
</a>
</g>
</g>
<!-- Node1 -->
<g id="Node000001" class="node">
<title>Node1</title>
<g id="a_Node000001"><a xlink:href="d2/dea/classxii_dynamic_array_base.html" target="_top" xlink:title=" ">
<polygon fill="white" stroke="#666666" points="418,-46.5 254,-46.5 254,-5.5 418,-5.5 418,-46.5"/>
<text text-anchor="start" x="262" y="-34.5" font-family="Helvetica,sans-Serif" font-size="10.00">xiiDynamicArrayBase</text>
<text text-anchor="start" x="262" y="-23.5" font-family="Helvetica,sans-Serif" font-size="10.00">&lt; xiiGatherObjectsOfTypeMsg</text>
<text text-anchor="middle" x="336" y="-12.5" font-family="Helvetica,sans-Serif" font-size="10.00">InterDoc::Result &gt;</text>
</a>
</g>
</g>
<!-- Node0&#45;&gt;Node1 -->
<g id="edge981_Node000000_Node000001" class="edge">
<title>Node0&#45;&gt;Node1</title>
<g id="a_edge981_Node000000_Node000001"><a xlink:title=" ">
<path fill="none" stroke="#63b8ff" d="M228.38,-26C237.04,-26 245.64,-26 254,-26"/>
<polygon fill="#63b8ff" stroke="#63b8ff" points="228.22,-22.5 218.22,-26 228.22,-29.5 228.22,-22.5"/>
</a>
</g>
</g>
<!-- Node2 -->
<g id="Node000002" class="node">
<title>Node2</title>
<g id="a_Node000002"><a xlink:href="dc/da4/classxii_dynamic_array.html" target="_top" xlink:title=" ">
<polygon fill="white" stroke="#666666" points="609,-46.5 454,-46.5 454,-5.5 609,-5.5 609,-46.5"/>
<text text-anchor="start" x="462" y="-34.5" font-family="Helvetica,sans-Serif" font-size="10.00">xiiDynamicArray&lt; xiiGather</text>
<text text-anchor="start" x="462" y="-23.5" font-family="Helvetica,sans-Serif" font-size="10.00">ObjectsOfTypeMsgInterDoc</text>
<text text-anchor="middle" x="531.5" y="-12.5" font-family="Helvetica,sans-Serif" font-size="10.00">::Result &gt;</text>
</a>
</g>
</g>
<!-- Node1&#45;&gt;Node2 -->
<g id="edge982_Node000001_Node000002" class="edge">
<title>Node1&#45;&gt;Node2</title>
<g id="a_edge982_Node000001_Node000002"><a xlink:title=" ">
<path fill="none" stroke="#63b8ff" d="M428.23,-26C436.79,-26 445.41,-26 453.81,-26"/>
<polygon fill="#63b8ff" stroke="#63b8ff" points="428.22,-22.5 418.22,-26 428.22,-29.5 428.22,-22.5"/>
</a>
</g>
</g>
</g>
</svg>
