<?xml version="1.0" encoding="UTF-8" standalone="no"?>
<!DOCTYPE svg PUBLIC "-//W3C//DTD SVG 1.1//EN"
 "http://www.w3.org/Graphics/SVG/1.1/DTD/svg11.dtd">
<!-- Generated by graphviz version 2.43.0 (0)
 -->
<!-- Title: Graphical Class Hierarchy Pages: 1 -->
<svg width="922pt" height="49pt"
 viewBox="0.00 0.00 922.00 49.00" xmlns="http://www.w3.org/2000/svg" xmlns:xlink="http://www.w3.org/1999/xlink">
<g id="graph0" class="graph" transform="scale(1 1) rotate(0) translate(4 45)">
<title>Graphical Class Hierarchy</title>
<!-- Node0 -->
<g id="Node000000" class="node">
<title>Node0</title>
<g id="a_Node000000"><a xlink:href="da/d4c/classxii_array_base.htm" target="_top" xlink:title=" ">
<polygon fill="white" stroke="#666666" points="269,-41 0,-41 0,0 269,0 269,-41"/>
<text text-anchor="start" x="8" y="-29" font-family="Helvetica,sans-Serif" font-size="10.00">xiiArrayBase&lt; xiiAnimGraph</text>
<text text-anchor="start" x="8" y="-18" font-family="Helvetica,sans-Serif" font-size="10.00">PinDataBoneWeights, xiiDynamic</text>
<text text-anchor="middle" x="134.5" y="-7" font-family="Helvetica,sans-Serif" font-size="10.00">ArrayBase&lt; xiiAnimGraphPinDataBoneWeights &gt; &gt;</text>
</a>
</g>
</g>
<!-- Node1 -->
<g id="Node000001" class="node">
<title>Node1</title>
<g id="a_Node000001"><a xlink:href="d2/dea/classxii_dynamic_array_base.htm" target="_top" xlink:title=" ">
<polygon fill="white" stroke="#666666" points="513,-35.5 305,-35.5 305,-5.5 513,-5.5 513,-35.5"/>
<text text-anchor="start" x="313" y="-23.5" font-family="Helvetica,sans-Serif" font-size="10.00">xiiDynamicArrayBase</text>
<text text-anchor="middle" x="409" y="-12.5" font-family="Helvetica,sans-Serif" font-size="10.00">&lt; xiiAnimGraphPinDataBoneWeights &gt;</text>
</a>
</g>
</g>
<!-- Node0&#45;&gt;Node1 -->
<g id="edge656_Node000000_Node000001" class="edge">
<title>Node0&#45;&gt;Node1</title>
<g id="a_edge656_Node000000_Node000001"><a xlink:title=" ">
<path fill="none" stroke="#63b8ff" d="M279.46,-20.5C288.06,-20.5 296.62,-20.5 305,-20.5"/>
<polygon fill="#63b8ff" stroke="#63b8ff" points="279.36,-17 269.36,-20.5 279.36,-24 279.36,-17"/>
</a>
</g>
</g>
<!-- Node2 -->
<g id="Node000002" class="node">
<title>Node2</title>
<g id="a_Node000002"><a xlink:href="dc/da4/classxii_dynamic_array.htm" target="_top" xlink:title=" ">
<polygon fill="white" stroke="#666666" points="713,-41 549,-41 549,0 713,0 713,-41"/>
<text text-anchor="start" x="557" y="-29" font-family="Helvetica,sans-Serif" font-size="10.00">xiiDynamicArray&lt; xiiAnim</text>
<text text-anchor="start" x="557" y="-18" font-family="Helvetica,sans-Serif" font-size="10.00">GraphPinDataBoneWeights,</text>
<text text-anchor="middle" x="631" y="-7" font-family="Helvetica,sans-Serif" font-size="10.00"> xiiDefaultAllocatorWrapper &gt;</text>
</a>
</g>
</g>
<!-- Node1&#45;&gt;Node2 -->
<g id="edge657_Node000001_Node000002" class="edge">
<title>Node1&#45;&gt;Node2</title>
<g id="a_edge657_Node000001_Node000002"><a xlink:title=" ">
<path fill="none" stroke="#63b8ff" d="M523.33,-20.5C531.92,-20.5 540.49,-20.5 548.83,-20.5"/>
<polygon fill="#63b8ff" stroke="#63b8ff" points="523.24,-17 513.24,-20.5 523.24,-24 523.24,-17"/>
</a>
</g>
</g>
<!-- Node3 -->
<g id="Node000003" class="node">
<title>Node3</title>
<g id="a_Node000003"><a xlink:href="dc/da9/classxii_hybrid_array.htm" target="_top" xlink:title=" ">
<polygon fill="white" stroke="#666666" points="914,-35.5 749,-35.5 749,-5.5 914,-5.5 914,-35.5"/>
<text text-anchor="start" x="757" y="-23.5" font-family="Helvetica,sans-Serif" font-size="10.00">xiiHybridArray&lt; xiiAnimGraph</text>
<text text-anchor="middle" x="831.5" y="-12.5" font-family="Helvetica,sans-Serif" font-size="10.00">PinDataBoneWeights, 4 &gt;</text>
</a>
</g>
</g>
<!-- Node2&#45;&gt;Node3 -->
<g id="edge658_Node000002_Node000003" class="edge">
<title>Node2&#45;&gt;Node3</title>
<g id="a_edge658_Node000002_Node000003"><a xlink:title=" ">
<path fill="none" stroke="#63b8ff" d="M723.04,-20.5C731.62,-20.5 740.28,-20.5 748.77,-20.5"/>
<polygon fill="#63b8ff" stroke="#63b8ff" points="723.02,-17 713.02,-20.5 723.02,-24 723.02,-17"/>
</a>
</g>
</g>
</g>
</svg>
