<?xml version="1.0" encoding="UTF-8" standalone="no"?>
<!DOCTYPE svg PUBLIC "-//W3C//DTD SVG 1.1//EN"
 "http://www.w3.org/Graphics/SVG/1.1/DTD/svg11.dtd">
<!-- Generated by graphviz version 2.43.0 (0)
 -->
<!-- Title: Graphical Class Hierarchy Pages: 1 -->
<svg width="749pt" height="49pt"
 viewBox="0.00 0.00 749.00 49.00" xmlns="http://www.w3.org/2000/svg" xmlns:xlink="http://www.w3.org/1999/xlink">
<g id="graph0" class="graph" transform="scale(1 1) rotate(0) translate(4 45)">
<title>Graphical Class Hierarchy</title>
<!-- Node0 -->
<g id="Node000000" class="node">
<title>Node0</title>
<g id="a_Node000000"><a xlink:href="da/d4c/classxii_array_base.htm" target="_top" xlink:title=" ">
<polygon fill="white" stroke="#666666" points="208,-41 0,-41 0,0 208,0 208,-41"/>
<text text-anchor="start" x="8" y="-29" font-family="Helvetica,sans-Serif" font-size="10.00">xiiArrayBase&lt; const</text>
<text text-anchor="start" x="8" y="-18" font-family="Helvetica,sans-Serif" font-size="10.00"> xiiRenderData *, xiiDynamic</text>
<text text-anchor="middle" x="104" y="-7" font-family="Helvetica,sans-Serif" font-size="10.00">ArrayBase&lt; const xiiRenderData * &gt; &gt;</text>
</a>
</g>
</g>
<!-- Node1 -->
<g id="Node000001" class="node">
<title>Node1</title>
<g id="a_Node000001"><a xlink:href="d2/dea/classxii_dynamic_array_base.htm" target="_top" xlink:title=" ">
<polygon fill="white" stroke="#666666" points="390,-35.5 244,-35.5 244,-5.5 390,-5.5 390,-35.5"/>
<text text-anchor="start" x="252" y="-23.5" font-family="Helvetica,sans-Serif" font-size="10.00">xiiDynamicArrayBase</text>
<text text-anchor="middle" x="317" y="-12.5" font-family="Helvetica,sans-Serif" font-size="10.00">&lt; const xiiRenderData * &gt;</text>
</a>
</g>
</g>
<!-- Node0&#45;&gt;Node1 -->
<g id="edge447_Node000000_Node000001" class="edge">
<title>Node0&#45;&gt;Node1</title>
<g id="a_edge447_Node000000_Node000001"><a xlink:title=" ">
<path fill="none" stroke="#63b8ff" d="M218.26,-20.5C226.97,-20.5 235.6,-20.5 243.92,-20.5"/>
<polygon fill="#63b8ff" stroke="#63b8ff" points="218.03,-17 208.03,-20.5 218.03,-24 218.03,-17"/>
</a>
</g>
</g>
<!-- Node2 -->
<g id="Node000002" class="node">
<title>Node2</title>
<g id="a_Node000002"><a xlink:href="dc/da4/classxii_dynamic_array.htm" target="_top" xlink:title=" ">
<polygon fill="white" stroke="#666666" points="578,-41 426,-41 426,0 578,0 578,-41"/>
<text text-anchor="start" x="434" y="-29" font-family="Helvetica,sans-Serif" font-size="10.00">xiiDynamicArray&lt; const</text>
<text text-anchor="start" x="434" y="-18" font-family="Helvetica,sans-Serif" font-size="10.00"> xiiRenderData *, xiiDefault</text>
<text text-anchor="middle" x="502" y="-7" font-family="Helvetica,sans-Serif" font-size="10.00">AllocatorWrapper &gt;</text>
</a>
</g>
</g>
<!-- Node1&#45;&gt;Node2 -->
<g id="edge448_Node000001_Node000002" class="edge">
<title>Node1&#45;&gt;Node2</title>
<g id="a_edge448_Node000001_Node000002"><a xlink:title=" ">
<path fill="none" stroke="#63b8ff" d="M400.11,-20.5C408.73,-20.5 417.46,-20.5 425.99,-20.5"/>
<polygon fill="#63b8ff" stroke="#63b8ff" points="400.06,-17 390.06,-20.5 400.06,-24 400.06,-17"/>
</a>
</g>
</g>
<!-- Node3 -->
<g id="Node000003" class="node">
<title>Node3</title>
<g id="a_Node000003"><a xlink:href="dc/da9/classxii_hybrid_array.htm" target="_top" xlink:title=" ">
<polygon fill="white" stroke="#666666" points="741,-35.5 614,-35.5 614,-5.5 741,-5.5 741,-35.5"/>
<text text-anchor="start" x="622" y="-23.5" font-family="Helvetica,sans-Serif" font-size="10.00">xiiHybridArray&lt; const</text>
<text text-anchor="middle" x="677.5" y="-12.5" font-family="Helvetica,sans-Serif" font-size="10.00"> xiiRenderData *, 16 &gt;</text>
</a>
</g>
</g>
<!-- Node2&#45;&gt;Node3 -->
<g id="edge449_Node000002_Node000003" class="edge">
<title>Node2&#45;&gt;Node3</title>
<g id="a_edge449_Node000002_Node000003"><a xlink:title=" ">
<path fill="none" stroke="#63b8ff" d="M588.19,-20.5C596.81,-20.5 605.46,-20.5 613.78,-20.5"/>
<polygon fill="#63b8ff" stroke="#63b8ff" points="588.09,-17 578.09,-20.5 588.09,-24 588.09,-17"/>
</a>
</g>
</g>
</g>
</svg>
