<?xml version="1.0" encoding="UTF-8" standalone="no"?>
<!DOCTYPE svg PUBLIC "-//W3C//DTD SVG 1.1//EN"
 "http://www.w3.org/Graphics/SVG/1.1/DTD/svg11.dtd">
<!-- Generated by graphviz version 2.43.0 (0)
 -->
<!-- Title: Graphical Class Hierarchy Pages: 1 -->
<svg width="742pt" height="76pt"
 viewBox="0.00 0.00 742.00 75.50" xmlns="http://www.w3.org/2000/svg" xmlns:xlink="http://www.w3.org/1999/xlink">
<g id="graph0" class="graph" transform="scale(1 1) rotate(0) translate(4 71.5)">
<title>Graphical Class Hierarchy</title>
<!-- Node0 -->
<g id="Node000000" class="node">
<title>Node0</title>
<g id="a_Node000000"><a xlink:href="da/d4c/classxii_array_base.html" target="_top" xlink:title=" ">
<polygon fill="white" stroke="#666666" points="152,-56.5 0,-56.5 0,-15.5 152,-15.5 152,-56.5"/>
<text text-anchor="start" x="8" y="-44.5" font-family="Helvetica,sans-Serif" font-size="10.00">xiiArrayBase&lt; xiiDocument</text>
<text text-anchor="start" x="8" y="-33.5" font-family="Helvetica,sans-Serif" font-size="10.00"> *, xiiDynamicArrayBase</text>
<text text-anchor="middle" x="76" y="-22.5" font-family="Helvetica,sans-Serif" font-size="10.00">&lt; xiiDocument * &gt; &gt;</text>
</a>
</g>
</g>
<!-- Node1 -->
<g id="Node000001" class="node">
<title>Node1</title>
<g id="a_Node000001"><a xlink:href="d2/dea/classxii_dynamic_array_base.html" target="_top" xlink:title=" ">
<polygon fill="white" stroke="#666666" points="310,-51 188,-51 188,-21 310,-21 310,-51"/>
<text text-anchor="start" x="196" y="-39" font-family="Helvetica,sans-Serif" font-size="10.00">xiiDynamicArrayBase</text>
<text text-anchor="middle" x="249" y="-28" font-family="Helvetica,sans-Serif" font-size="10.00">&lt; xiiDocument * &gt;</text>
</a>
</g>
</g>
<!-- Node0&#45;&gt;Node1 -->
<g id="edge801_Node000000_Node000001" class="edge">
<title>Node0&#45;&gt;Node1</title>
<g id="a_edge801_Node000000_Node000001"><a xlink:title=" ">
<path fill="none" stroke="#63b8ff" d="M162.19,-36C170.9,-36 179.6,-36 187.95,-36"/>
<polygon fill="#63b8ff" stroke="#63b8ff" points="162,-32.5 152,-36 162,-39.5 162,-32.5"/>
</a>
</g>
</g>
<!-- Node2 -->
<g id="Node000002" class="node">
<title>Node2</title>
<g id="a_Node000002"><a xlink:href="dc/da4/classxii_dynamic_array.html" target="_top" xlink:title=" ">
<polygon fill="white" stroke="#666666" points="537,-67.5 346,-67.5 346,-48.5 537,-48.5 537,-67.5"/>
<text text-anchor="middle" x="441.5" y="-55.5" font-family="Helvetica,sans-Serif" font-size="10.00">xiiDynamicArray&lt; xiiDocument * &gt;</text>
</a>
</g>
</g>
<!-- Node1&#45;&gt;Node2 -->
<g id="edge802_Node000001_Node000002" class="edge">
<title>Node1&#45;&gt;Node2</title>
<g id="a_edge802_Node000001_Node000002"><a xlink:title=" ">
<path fill="none" stroke="#63b8ff" d="M320.22,-44.11C332.55,-45.53 345.49,-47.03 358.13,-48.49"/>
<polygon fill="#63b8ff" stroke="#63b8ff" points="320.35,-40.6 310.01,-42.93 319.55,-47.55 320.35,-40.6"/>
</a>
</g>
</g>
<!-- Node3 -->
<g id="Node000003" class="node">
<title>Node3</title>
<g id="a_Node000003"><a xlink:href="dc/da4/classxii_dynamic_array.html" target="_top" xlink:title=" ">
<polygon fill="white" stroke="#666666" points="529,-30 354,-30 354,0 529,0 529,-30"/>
<text text-anchor="start" x="362" y="-18" font-family="Helvetica,sans-Serif" font-size="10.00">xiiDynamicArray&lt; xiiDocument</text>
<text text-anchor="middle" x="441.5" y="-7" font-family="Helvetica,sans-Serif" font-size="10.00"> *, xiiDefaultAllocatorWrapper &gt;</text>
</a>
</g>
</g>
<!-- Node1&#45;&gt;Node3 -->
<g id="edge803_Node000001_Node000003" class="edge">
<title>Node1&#45;&gt;Node3</title>
<g id="a_edge803_Node000001_Node000003"><a xlink:title=" ">
<path fill="none" stroke="#63b8ff" d="M320,-28.28C331.05,-27.07 342.59,-25.79 353.96,-24.54"/>
<polygon fill="#63b8ff" stroke="#63b8ff" points="319.57,-24.81 310.01,-29.38 320.34,-31.77 319.57,-24.81"/>
</a>
</g>
</g>
<!-- Node4 -->
<g id="Node000004" class="node">
<title>Node4</title>
<g id="a_Node000004"><a xlink:href="dc/da9/classxii_hybrid_array.html" target="_top" xlink:title=" ">
<polygon fill="white" stroke="#666666" points="734,-30 573,-30 573,0 734,0 734,-30"/>
<text text-anchor="start" x="581" y="-18" font-family="Helvetica,sans-Serif" font-size="10.00">xiiHybridArray&lt; xiiDocument</text>
<text text-anchor="middle" x="653.5" y="-7" font-family="Helvetica,sans-Serif" font-size="10.00"> *, 32 &gt;</text>
</a>
</g>
</g>
<!-- Node3&#45;&gt;Node4 -->
<g id="edge804_Node000003_Node000004" class="edge">
<title>Node3&#45;&gt;Node4</title>
<g id="a_edge804_Node000003_Node000004"><a xlink:title=" ">
<path fill="none" stroke="#63b8ff" d="M539.36,-15C550.56,-15 561.88,-15 572.81,-15"/>
<polygon fill="#63b8ff" stroke="#63b8ff" points="539.13,-11.5 529.13,-15 539.13,-18.5 539.13,-11.5"/>
</a>
</g>
</g>
</g>
</svg>
