<?xml version="1.0" encoding="UTF-8" standalone="no"?>
<!DOCTYPE svg PUBLIC "-//W3C//DTD SVG 1.1//EN"
 "http://www.w3.org/Graphics/SVG/1.1/DTD/svg11.dtd">
<!-- Generated by graphviz version 2.43.0 (0)
 -->
<!-- Title: Graphical Class Hierarchy Pages: 1 -->
<svg width="406pt" height="142pt"
 viewBox="0.00 0.00 406.00 142.00" xmlns="http://www.w3.org/2000/svg" xmlns:xlink="http://www.w3.org/1999/xlink">
<g id="graph0" class="graph" transform="scale(1 1) rotate(0) translate(4 138)">
<title>Graphical Class Hierarchy</title>
<polygon fill="white" stroke="transparent" points="-4,4 -4,-138 402,-138 402,4 -4,4"/>
<!-- Node407 -->
<g id="node1" class="node">
<title>Node407</title>
<g id="a_node1"><a xlink:title=" ">
<polygon fill="white" stroke="#bfbfbf" points="0,-57.5 0,-76.5 83,-76.5 83,-57.5 0,-57.5"/>
<text text-anchor="middle" x="41.5" y="-64.5" font-family="Helvetica,sans-Serif" font-size="10.00">QDockWidget</text>
</a>
</g>
</g>
<!-- Node0 -->
<g id="node2" class="node">
<title>Node0</title>
<g id="a_node2"><a xlink:href="d4/dca/classxii_qt_document_panel.htm" target="_top" xlink:title=" ">
<polygon fill="white" stroke="black" points="119,-57.5 119,-76.5 235,-76.5 235,-57.5 119,-57.5"/>
<text text-anchor="middle" x="177" y="-64.5" font-family="Helvetica,sans-Serif" font-size="10.00">xiiQtDocumentPanel</text>
</a>
</g>
</g>
<!-- Node407&#45;&gt;Node0 -->
<g id="edge1" class="edge">
<title>Node407&#45;&gt;Node0</title>
<path fill="none" stroke="midnightblue" d="M93.51,-67C101.77,-67 110.37,-67 118.76,-67"/>
<polygon fill="midnightblue" stroke="midnightblue" points="93.28,-63.5 83.28,-67 93.28,-70.5 93.28,-63.5"/>
</g>
<!-- Node1 -->
<g id="node3" class="node">
<title>Node1</title>
<g id="a_node3"><a xlink:href="d2/dac/classxii_qt_game_object_panel.htm" target="_top" xlink:title=" ">
<polygon fill="white" stroke="black" points="271,-114.5 271,-133.5 398,-133.5 398,-114.5 271,-114.5"/>
<text text-anchor="middle" x="334.5" y="-121.5" font-family="Helvetica,sans-Serif" font-size="10.00">xiiQtGameObjectPanel</text>
</a>
</g>
</g>
<!-- Node0&#45;&gt;Node1 -->
<g id="edge2" class="edge">
<title>Node0&#45;&gt;Node1</title>
<path fill="none" stroke="midnightblue" d="M209.33,-80.65C227.24,-88.24 250.2,-97.61 271,-105 280.3,-108.3 290.49,-111.56 299.9,-114.41"/>
<polygon fill="midnightblue" stroke="midnightblue" points="210.52,-77.35 199.95,-76.64 207.77,-83.79 210.52,-77.35"/>
</g>
<!-- Node2 -->
<g id="node4" class="node">
<title>Node2</title>
<g id="a_node4"><a xlink:href="d4/d81/classxii_qt_layer_panel.htm" target="_top" xlink:title=" ">
<polygon fill="white" stroke="black" points="288,-76.5 288,-95.5 381,-95.5 381,-76.5 288,-76.5"/>
<text text-anchor="middle" x="334.5" y="-83.5" font-family="Helvetica,sans-Serif" font-size="10.00">xiiQtLayerPanel</text>
</a>
</g>
</g>
<!-- Node0&#45;&gt;Node2 -->
<g id="edge3" class="edge">
<title>Node0&#45;&gt;Node2</title>
<path fill="none" stroke="midnightblue" d="M245.32,-75.23C259.62,-76.97 274.4,-78.78 287.67,-80.4"/>
<polygon fill="midnightblue" stroke="midnightblue" points="245.37,-71.71 235.02,-73.97 244.52,-78.65 245.37,-71.71"/>
</g>
<!-- Node3 -->
<g id="node5" class="node">
<title>Node3</title>
<g id="a_node5"><a xlink:href="d1/d58/classxii_qt_scenegraph_panel.htm" target="_top" xlink:title=" ">
<polygon fill="white" stroke="black" points="273,-38.5 273,-57.5 396,-57.5 396,-38.5 273,-38.5"/>
<text text-anchor="middle" x="334.5" y="-45.5" font-family="Helvetica,sans-Serif" font-size="10.00">xiiQtScenegraphPanel</text>
</a>
</g>
</g>
<!-- Node0&#45;&gt;Node3 -->
<g id="edge4" class="edge">
<title>Node0&#45;&gt;Node3</title>
<path fill="none" stroke="midnightblue" d="M244.96,-58.82C254.22,-57.69 263.69,-56.53 272.83,-55.41"/>
<polygon fill="midnightblue" stroke="midnightblue" points="244.52,-55.35 235.02,-60.03 245.37,-62.29 244.52,-55.35"/>
</g>
<!-- Node4 -->
<g id="node6" class="node">
<title>Node4</title>
<g id="a_node6"><a xlink:href="d8/d86/classxii_qt_skeleton_panel.htm" target="_top" xlink:title=" ">
<polygon fill="white" stroke="black" points="280.5,-0.5 280.5,-19.5 388.5,-19.5 388.5,-0.5 280.5,-0.5"/>
<text text-anchor="middle" x="334.5" y="-7.5" font-family="Helvetica,sans-Serif" font-size="10.00">xiiQtSkeletonPanel</text>
</a>
</g>
</g>
<!-- Node0&#45;&gt;Node4 -->
<g id="edge5" class="edge">
<title>Node0&#45;&gt;Node4</title>
<path fill="none" stroke="midnightblue" d="M209.33,-53.35C227.24,-45.76 250.2,-36.39 271,-29 280.3,-25.7 290.49,-22.44 299.9,-19.59"/>
<polygon fill="midnightblue" stroke="midnightblue" points="207.77,-50.21 199.95,-57.36 210.52,-56.65 207.77,-50.21"/>
</g>
</g>
</svg>
