<?xml version="1.0" encoding="UTF-8" standalone="no"?>
<!DOCTYPE svg PUBLIC "-//W3C//DTD SVG 1.1//EN"
 "http://www.w3.org/Graphics/SVG/1.1/DTD/svg11.dtd">
<!-- Generated by graphviz version 2.43.0 (0)
 -->
<!-- Title: Graphical Class Hierarchy Pages: 1 -->
<svg width="253pt" height="64pt"
 viewBox="0.00 0.00 253.00 64.00" xmlns="http://www.w3.org/2000/svg" xmlns:xlink="http://www.w3.org/1999/xlink">
<g id="graph0" class="graph" transform="scale(1 1) rotate(0) translate(4 60)">
<title>Graphical Class Hierarchy</title>
<!-- Node0 -->
<g id="Node000000" class="node">
<title>Node0</title>
<g id="a_Node000000"><a xlink:href="da/d04/structxii_trait_int.htm" target="_top" xlink:title="Type traits.">
<polygon fill="white" stroke="#666666" points="91,-37 0,-37 0,-18 91,-18 91,-37"/>
<text text-anchor="middle" x="45.5" y="-25" font-family="Helvetica,sans-Serif" font-size="10.00">xiiTraitInt&lt; v &gt;</text>
</a>
</g>
</g>
<!-- Node1 -->
<g id="Node000001" class="node">
<title>Node1</title>
<g id="a_Node000001"><a xlink:href="d4/d92/structxii_is_pod_type_3_01_t_01_5_01_4.htm" target="_top" xlink:title="Pointers are POD types.">
<polygon fill="white" stroke="#666666" points="243,-56 129,-56 129,-37 243,-37 243,-56"/>
<text text-anchor="middle" x="186" y="-44" font-family="Helvetica,sans-Serif" font-size="10.00">xiiIsPodType&lt; T * &gt;</text>
</a>
</g>
</g>
<!-- Node0&#45;&gt;Node1 -->
<g id="edge3318_Node000000_Node000001" class="edge">
<title>Node0&#45;&gt;Node1</title>
<g id="a_edge3318_Node000000_Node000001"><a xlink:title=" ">
<path fill="none" stroke="#63b8ff" d="M101.16,-35C110.26,-36.25 119.7,-37.54 128.83,-38.79"/>
<polygon fill="#63b8ff" stroke="#63b8ff" points="101.47,-31.51 91.08,-33.62 100.52,-38.44 101.47,-31.51"/>
</a>
</g>
</g>
<!-- Node2 -->
<g id="Node000002" class="node">
<title>Node2</title>
<g id="a_Node000002"><a xlink:href="de/dc4/structxii_is_pod_type_3_01_t_0f_n_0e_4.htm" target="_top" xlink:title="arrays are POD types">
<polygon fill="white" stroke="#666666" points="245,-19 127,-19 127,0 245,0 245,-19"/>
<text text-anchor="middle" x="186" y="-7" font-family="Helvetica,sans-Serif" font-size="10.00">xiiIsPodType&lt; T[N]&gt;</text>
</a>
</g>
</g>
<!-- Node0&#45;&gt;Node2 -->
<g id="edge3319_Node000000_Node000002" class="edge">
<title>Node0&#45;&gt;Node2</title>
<g id="a_edge3319_Node000000_Node000002"><a xlink:title=" ">
<path fill="none" stroke="#63b8ff" d="M101.18,-20.39C109.61,-19.3 118.34,-18.16 126.84,-17.06"/>
<polygon fill="#63b8ff" stroke="#63b8ff" points="100.55,-16.95 91.08,-21.71 101.45,-23.89 100.55,-16.95"/>
</a>
</g>
</g>
</g>
</svg>
