<?xml version="1.0" encoding="UTF-8" standalone="no"?>
<!DOCTYPE svg PUBLIC "-//W3C//DTD SVG 1.1//EN"
 "http://www.w3.org/Graphics/SVG/1.1/DTD/svg11.dtd">
<!-- Generated by graphviz version 2.43.0 (0)
 -->
<!-- Title: Graphical Class Hierarchy Pages: 1 -->
<svg width="521pt" height="49pt"
 viewBox="0.00 0.00 521.00 49.00" xmlns="http://www.w3.org/2000/svg" xmlns:xlink="http://www.w3.org/1999/xlink">
<g id="graph0" class="graph" transform="scale(1 1) rotate(0) translate(4 45)">
<title>Graphical Class Hierarchy</title>
<!-- Node0 -->
<g id="Node000000" class="node">
<title>Node0</title>
<g id="a_Node000000"><a xlink:href="da/d4c/classxii_array_base.htm" target="_top" xlink:title=" ">
<polygon fill="white" stroke="#666666" points="167,-41 0,-41 0,0 167,0 167,-41"/>
<text text-anchor="start" x="8" y="-29" font-family="Helvetica,sans-Serif" font-size="10.00">xiiArrayBase&lt; xiiLayerContext</text>
<text text-anchor="start" x="8" y="-18" font-family="Helvetica,sans-Serif" font-size="10.00"> *, xiiDynamicArrayBase&lt;</text>
<text text-anchor="middle" x="83.5" y="-7" font-family="Helvetica,sans-Serif" font-size="10.00"> xiiLayerContext * &gt; &gt;</text>
</a>
</g>
</g>
<!-- Node1 -->
<g id="Node000001" class="node">
<title>Node1</title>
<g id="a_Node000001"><a xlink:href="d2/dea/classxii_dynamic_array_base.htm" target="_top" xlink:title=" ">
<polygon fill="white" stroke="#666666" points="328,-35.5 203,-35.5 203,-5.5 328,-5.5 328,-35.5"/>
<text text-anchor="start" x="211" y="-23.5" font-family="Helvetica,sans-Serif" font-size="10.00">xiiDynamicArrayBase</text>
<text text-anchor="middle" x="265.5" y="-12.5" font-family="Helvetica,sans-Serif" font-size="10.00">&lt; xiiLayerContext * &gt;</text>
</a>
</g>
</g>
<!-- Node0&#45;&gt;Node1 -->
<g id="edge988_Node000000_Node000001" class="edge">
<title>Node0&#45;&gt;Node1</title>
<g id="a_edge988_Node000000_Node000001"><a xlink:title=" ">
<path fill="none" stroke="#63b8ff" d="M177.28,-20.5C185.94,-20.5 194.57,-20.5 202.83,-20.5"/>
<polygon fill="#63b8ff" stroke="#63b8ff" points="177.12,-17 167.12,-20.5 177.12,-24 177.12,-17"/>
</a>
</g>
</g>
<!-- Node2 -->
<g id="Node000002" class="node">
<title>Node2</title>
<g id="a_Node000002"><a xlink:href="dc/da4/classxii_dynamic_array.htm" target="_top" xlink:title=" ">
<polygon fill="white" stroke="#666666" points="513,-35.5 364,-35.5 364,-5.5 513,-5.5 513,-35.5"/>
<text text-anchor="start" x="372" y="-23.5" font-family="Helvetica,sans-Serif" font-size="10.00">xiiDynamicArray&lt; xiiLayer</text>
<text text-anchor="middle" x="438.5" y="-12.5" font-family="Helvetica,sans-Serif" font-size="10.00">Context * &gt;</text>
</a>
</g>
</g>
<!-- Node1&#45;&gt;Node2 -->
<g id="edge989_Node000001_Node000002" class="edge">
<title>Node1&#45;&gt;Node2</title>
<g id="a_edge989_Node000001_Node000002"><a xlink:title=" ">
<path fill="none" stroke="#63b8ff" d="M338.41,-20.5C346.84,-20.5 355.46,-20.5 363.91,-20.5"/>
<polygon fill="#63b8ff" stroke="#63b8ff" points="338.23,-17 328.23,-20.5 338.23,-24 338.23,-17"/>
</a>
</g>
</g>
</g>
</svg>
