<?xml version="1.0" encoding="UTF-8" standalone="no"?>
<!DOCTYPE svg PUBLIC "-//W3C//DTD SVG 1.1//EN"
 "http://www.w3.org/Graphics/SVG/1.1/DTD/svg11.dtd">
<!-- Generated by graphviz version 2.43.0 (0)
 -->
<!-- Title: Graphical Class Hierarchy Pages: 1 -->
<svg width="780pt" height="60pt"
 viewBox="0.00 0.00 780.00 60.00" xmlns="http://www.w3.org/2000/svg" xmlns:xlink="http://www.w3.org/1999/xlink">
<g id="graph0" class="graph" transform="scale(1 1) rotate(0) translate(4 56)">
<title>Graphical Class Hierarchy</title>
<!-- Node0 -->
<g id="Node000000" class="node">
<title>Node0</title>
<g id="a_Node000000"><a xlink:href="da/d4c/classxii_array_base.html" target="_top" xlink:title=" ">
<polygon fill="white" stroke="#666666" points="192,-52 0,-52 0,0 192,0 192,-52"/>
<text text-anchor="start" x="8" y="-40" font-family="Helvetica,sans-Serif" font-size="10.00">xiiArrayBase&lt; xiiStandard</text>
<text text-anchor="start" x="8" y="-29" font-family="Helvetica,sans-Serif" font-size="10.00">JSONWriter::JSONState,</text>
<text text-anchor="start" x="8" y="-18" font-family="Helvetica,sans-Serif" font-size="10.00"> xiiDynamicArrayBase&lt; xiiStandard</text>
<text text-anchor="middle" x="96" y="-7" font-family="Helvetica,sans-Serif" font-size="10.00">JSONWriter::JSONState &gt; &gt;</text>
</a>
</g>
</g>
<!-- Node1 -->
<g id="Node000001" class="node">
<title>Node1</title>
<g id="a_Node000001"><a xlink:href="d2/dea/classxii_dynamic_array_base.html" target="_top" xlink:title=" ">
<polygon fill="white" stroke="#666666" points="365,-46.5 228,-46.5 228,-5.5 365,-5.5 365,-46.5"/>
<text text-anchor="start" x="236" y="-34.5" font-family="Helvetica,sans-Serif" font-size="10.00">xiiDynamicArrayBase</text>
<text text-anchor="start" x="236" y="-23.5" font-family="Helvetica,sans-Serif" font-size="10.00">&lt; xiiStandardJSONWriter</text>
<text text-anchor="middle" x="296.5" y="-12.5" font-family="Helvetica,sans-Serif" font-size="10.00">::JSONState &gt;</text>
</a>
</g>
</g>
<!-- Node0&#45;&gt;Node1 -->
<g id="edge1262_Node000000_Node000001" class="edge">
<title>Node0&#45;&gt;Node1</title>
<g id="a_edge1262_Node000000_Node000001"><a xlink:title=" ">
<path fill="none" stroke="#63b8ff" d="M202.34,-26C210.99,-26 219.57,-26 227.83,-26"/>
<polygon fill="#63b8ff" stroke="#63b8ff" points="202.18,-22.5 192.18,-26 202.18,-29.5 202.18,-22.5"/>
</a>
</g>
</g>
<!-- Node2 -->
<g id="Node000002" class="node">
<title>Node2</title>
<g id="a_Node000002"><a xlink:href="dc/da4/classxii_dynamic_array.html" target="_top" xlink:title=" ">
<polygon fill="white" stroke="#666666" points="581,-46.5 401,-46.5 401,-5.5 581,-5.5 581,-46.5"/>
<text text-anchor="start" x="409" y="-34.5" font-family="Helvetica,sans-Serif" font-size="10.00">xiiDynamicArray&lt; xiiStandard</text>
<text text-anchor="start" x="409" y="-23.5" font-family="Helvetica,sans-Serif" font-size="10.00">JSONWriter::JSONState, xiiDefault</text>
<text text-anchor="middle" x="491" y="-12.5" font-family="Helvetica,sans-Serif" font-size="10.00">AllocatorWrapper &gt;</text>
</a>
</g>
</g>
<!-- Node1&#45;&gt;Node2 -->
<g id="edge1263_Node000001_Node000002" class="edge">
<title>Node1&#45;&gt;Node2</title>
<g id="a_edge1263_Node000001_Node000002"><a xlink:title=" ">
<path fill="none" stroke="#63b8ff" d="M375.28,-26C383.73,-26 392.37,-26 400.94,-26"/>
<polygon fill="#63b8ff" stroke="#63b8ff" points="375.1,-22.5 365.1,-26 375.1,-29.5 375.1,-22.5"/>
</a>
</g>
</g>
<!-- Node3 -->
<g id="Node000003" class="node">
<title>Node3</title>
<g id="a_Node000003"><a xlink:href="dc/da9/classxii_hybrid_array.html" target="_top" xlink:title=" ">
<polygon fill="white" stroke="#666666" points="772,-41 617,-41 617,-11 772,-11 772,-41"/>
<text text-anchor="start" x="625" y="-29" font-family="Helvetica,sans-Serif" font-size="10.00">xiiHybridArray&lt; xiiStandard</text>
<text text-anchor="middle" x="694.5" y="-18" font-family="Helvetica,sans-Serif" font-size="10.00">JSONWriter::JSONState, 16 &gt;</text>
</a>
</g>
</g>
<!-- Node2&#45;&gt;Node3 -->
<g id="edge1264_Node000002_Node000003" class="edge">
<title>Node2&#45;&gt;Node3</title>
<g id="a_edge1264_Node000002_Node000003"><a xlink:title=" ">
<path fill="none" stroke="#63b8ff" d="M591.33,-26C599.93,-26 608.55,-26 616.92,-26"/>
<polygon fill="#63b8ff" stroke="#63b8ff" points="591.26,-22.5 581.26,-26 591.26,-29.5 591.26,-22.5"/>
</a>
</g>
</g>
</g>
</svg>
