<?xml version="1.0" encoding="UTF-8" standalone="no"?>
<!DOCTYPE svg PUBLIC "-//W3C//DTD SVG 1.1//EN"
 "http://www.w3.org/Graphics/SVG/1.1/DTD/svg11.dtd">
<!-- Generated by graphviz version 2.43.0 (0)
 -->
<!-- Title: Graphical Class Hierarchy Pages: 1 -->
<svg width="317pt" height="27pt"
 viewBox="0.00 0.00 317.00 27.00" xmlns="http://www.w3.org/2000/svg" xmlns:xlink="http://www.w3.org/1999/xlink">
<g id="graph0" class="graph" transform="scale(1 1) rotate(0) translate(4 23)">
<title>Graphical Class Hierarchy</title>
<!-- Node0 -->
<g id="Node000000" class="node">
<title>Node0</title>
<g id="a_Node000000"><a xlink:href="d0/d25/classxii_image_header.html" target="_top" xlink:title="A class containing image meta data, such as format and dimensions.">
<polygon fill="white" stroke="#666666" points="95,-19 0,-19 0,0 95,0 95,-19"/>
<text text-anchor="middle" x="47.5" y="-7" font-family="Helvetica,sans-Serif" font-size="10.00">xiiImageHeader</text>
</a>
</g>
</g>
<!-- Node1 -->
<g id="Node000001" class="node">
<title>Node1</title>
<g id="a_Node000001"><a xlink:href="d6/d21/classxii_image_view.html" target="_top" xlink:title="A class referencing image data and holding metadata about the image.">
<polygon fill="white" stroke="#666666" points="214,-19 131,-19 131,0 214,0 214,-19"/>
<text text-anchor="middle" x="172.5" y="-7" font-family="Helvetica,sans-Serif" font-size="10.00">xiiImageView</text>
</a>
</g>
</g>
<!-- Node0&#45;&gt;Node1 -->
<g id="edge2020_Node000000_Node000001" class="edge">
<title>Node0&#45;&gt;Node1</title>
<g id="a_edge2020_Node000000_Node000001"><a xlink:title=" ">
<path fill="none" stroke="darkgreen" d="M105.13,-9.5C113.85,-9.5 122.7,-9.5 130.98,-9.5"/>
<polygon fill="darkgreen" stroke="darkgreen" points="105,-6 95,-9.5 105,-13 105,-6"/>
</a>
</g>
</g>
<!-- Node2 -->
<g id="Node000002" class="node">
<title>Node2</title>
<g id="a_Node000002"><a xlink:href="d4/d6a/classxii_image.html" target="_top" xlink:title="A class containing image data and associated meta data.">
<polygon fill="white" stroke="#666666" points="309,-19 250,-19 250,0 309,0 309,-19"/>
<text text-anchor="middle" x="279.5" y="-7" font-family="Helvetica,sans-Serif" font-size="10.00">xiiImage</text>
</a>
</g>
</g>
<!-- Node1&#45;&gt;Node2 -->
<g id="edge2021_Node000001_Node000002" class="edge">
<title>Node1&#45;&gt;Node2</title>
<g id="a_edge2021_Node000001_Node000002"><a xlink:title=" ">
<path fill="none" stroke="#63b8ff" d="M224.27,-9.5C233.02,-9.5 241.82,-9.5 249.72,-9.5"/>
<polygon fill="#63b8ff" stroke="#63b8ff" points="224.1,-6 214.1,-9.5 224.1,-13 224.1,-6"/>
</a>
</g>
</g>
</g>
</svg>
