<?xml version="1.0" encoding="UTF-8" standalone="no"?>
<!DOCTYPE svg PUBLIC "-//W3C//DTD SVG 1.1//EN"
 "http://www.w3.org/Graphics/SVG/1.1/DTD/svg11.dtd">
<!-- Generated by graphviz version 2.43.0 (0)
 -->
<!-- Title: Graphical Class Hierarchy Pages: 1 -->
<svg width="794pt" height="49pt"
 viewBox="0.00 0.00 794.00 49.00" xmlns="http://www.w3.org/2000/svg" xmlns:xlink="http://www.w3.org/1999/xlink">
<g id="graph0" class="graph" transform="scale(1 1) rotate(0) translate(4 45)">
<title>Graphical Class Hierarchy</title>
<!-- Node0 -->
<g id="Node000000" class="node">
<title>Node0</title>
<g id="a_Node000000"><a xlink:href="da/d4c/classxii_array_base.html" target="_top" xlink:title=" ">
<polygon fill="white" stroke="#666666" points="186,-41 0,-41 0,0 186,0 186,-41"/>
<text text-anchor="start" x="8" y="-29" font-family="Helvetica,sans-Serif" font-size="10.00">xiiArrayBase&lt; xiiGALVertex</text>
<text text-anchor="start" x="8" y="-18" font-family="Helvetica,sans-Serif" font-size="10.00">InputLayout, xiiDynamicArrayBase</text>
<text text-anchor="middle" x="93" y="-7" font-family="Helvetica,sans-Serif" font-size="10.00">&lt; xiiGALVertexInputLayout &gt; &gt;</text>
</a>
</g>
</g>
<!-- Node1 -->
<g id="Node000001" class="node">
<title>Node1</title>
<g id="a_Node000001"><a xlink:href="d2/dea/classxii_dynamic_array_base.html" target="_top" xlink:title=" ">
<polygon fill="white" stroke="#666666" points="381,-35.5 222,-35.5 222,-5.5 381,-5.5 381,-35.5"/>
<text text-anchor="start" x="230" y="-23.5" font-family="Helvetica,sans-Serif" font-size="10.00">xiiDynamicArrayBase</text>
<text text-anchor="middle" x="301.5" y="-12.5" font-family="Helvetica,sans-Serif" font-size="10.00">&lt; xiiGALVertexInputLayout &gt;</text>
</a>
</g>
</g>
<!-- Node0&#45;&gt;Node1 -->
<g id="edge960_Node000000_Node000001" class="edge">
<title>Node0&#45;&gt;Node1</title>
<g id="a_edge960_Node000000_Node000001"><a xlink:title=" ">
<path fill="none" stroke="#63b8ff" d="M196.18,-20.5C204.81,-20.5 213.44,-20.5 221.85,-20.5"/>
<polygon fill="#63b8ff" stroke="#63b8ff" points="196.08,-17 186.08,-20.5 196.08,-24 196.08,-17"/>
</a>
</g>
</g>
<!-- Node2 -->
<g id="Node000002" class="node">
<title>Node2</title>
<g id="a_Node000002"><a xlink:href="dc/da4/classxii_dynamic_array.html" target="_top" xlink:title=" ">
<polygon fill="white" stroke="#666666" points="589,-41 417,-41 417,0 589,0 589,-41"/>
<text text-anchor="start" x="425" y="-29" font-family="Helvetica,sans-Serif" font-size="10.00">xiiDynamicArray&lt; xiiGALVertex</text>
<text text-anchor="start" x="425" y="-18" font-family="Helvetica,sans-Serif" font-size="10.00">InputLayout, xiiDefaultAllocator</text>
<text text-anchor="middle" x="503" y="-7" font-family="Helvetica,sans-Serif" font-size="10.00">Wrapper &gt;</text>
</a>
</g>
</g>
<!-- Node1&#45;&gt;Node2 -->
<g id="edge961_Node000001_Node000002" class="edge">
<title>Node1&#45;&gt;Node2</title>
<g id="a_edge961_Node000001_Node000002"><a xlink:title=" ">
<path fill="none" stroke="#63b8ff" d="M391.08,-20.5C399.67,-20.5 408.37,-20.5 416.93,-20.5"/>
<polygon fill="#63b8ff" stroke="#63b8ff" points="391.06,-17 381.06,-20.5 391.06,-24 391.06,-17"/>
</a>
</g>
</g>
<!-- Node3 -->
<g id="Node000003" class="node">
<title>Node3</title>
<g id="a_Node000003"><a xlink:href="dc/da9/classxii_hybrid_array.html" target="_top" xlink:title=" ">
<polygon fill="white" stroke="#666666" points="786,-35.5 625,-35.5 625,-5.5 786,-5.5 786,-35.5"/>
<text text-anchor="start" x="633" y="-23.5" font-family="Helvetica,sans-Serif" font-size="10.00">xiiHybridArray&lt; xiiGALVertex</text>
<text text-anchor="middle" x="705.5" y="-12.5" font-family="Helvetica,sans-Serif" font-size="10.00">InputLayout, 8U &gt;</text>
</a>
</g>
</g>
<!-- Node2&#45;&gt;Node3 -->
<g id="edge962_Node000002_Node000003" class="edge">
<title>Node2&#45;&gt;Node3</title>
<g id="a_edge962_Node000002_Node000003"><a xlink:title=" ">
<path fill="none" stroke="#63b8ff" d="M599.08,-20.5C607.67,-20.5 616.32,-20.5 624.76,-20.5"/>
<polygon fill="#63b8ff" stroke="#63b8ff" points="599.03,-17 589.03,-20.5 599.03,-24 599.03,-17"/>
</a>
</g>
</g>
</g>
</svg>
