<?xml version="1.0" encoding="UTF-8" standalone="no"?>
<!DOCTYPE svg PUBLIC "-//W3C//DTD SVG 1.1//EN"
 "http://www.w3.org/Graphics/SVG/1.1/DTD/svg11.dtd">
<!-- Generated by graphviz version 2.43.0 (0)
 -->
<!-- Title: Graphical Class Hierarchy Pages: 1 -->
<svg width="579pt" height="49pt"
 viewBox="0.00 0.00 579.00 49.00" xmlns="http://www.w3.org/2000/svg" xmlns:xlink="http://www.w3.org/1999/xlink">
<g id="graph0" class="graph" transform="scale(1 1) rotate(0) translate(4 45)">
<title>Graphical Class Hierarchy</title>
<!-- Node0 -->
<g id="Node000000" class="node">
<title>Node0</title>
<g id="a_Node000000"><a xlink:href="da/d4c/classxii_array_base.html" target="_top" xlink:title=" ">
<polygon fill="white" stroke="#666666" points="182,-41 0,-41 0,0 182,0 182,-41"/>
<text text-anchor="start" x="8" y="-29" font-family="Helvetica,sans-Serif" font-size="10.00">xiiArrayBase&lt; vk::QueueFamily</text>
<text text-anchor="start" x="8" y="-18" font-family="Helvetica,sans-Serif" font-size="10.00">Properties, xiiDynamicArrayBase</text>
<text text-anchor="middle" x="91" y="-7" font-family="Helvetica,sans-Serif" font-size="10.00">&lt; vk::QueueFamilyProperties &gt; &gt;</text>
</a>
</g>
</g>
<!-- Node1 -->
<g id="Node000001" class="node">
<title>Node1</title>
<g id="a_Node000001"><a xlink:href="d2/dea/classxii_dynamic_array_base.html" target="_top" xlink:title=" ">
<polygon fill="white" stroke="#666666" points="388,-35.5 218,-35.5 218,-5.5 388,-5.5 388,-35.5"/>
<text text-anchor="start" x="226" y="-23.5" font-family="Helvetica,sans-Serif" font-size="10.00">xiiDynamicArrayBase</text>
<text text-anchor="middle" x="303" y="-12.5" font-family="Helvetica,sans-Serif" font-size="10.00">&lt; vk::QueueFamilyProperties &gt;</text>
</a>
</g>
</g>
<!-- Node0&#45;&gt;Node1 -->
<g id="edge639_Node000000_Node000001" class="edge">
<title>Node0&#45;&gt;Node1</title>
<g id="a_edge639_Node000000_Node000001"><a xlink:title=" ">
<path fill="none" stroke="#63b8ff" d="M192.54,-20.5C200.99,-20.5 209.47,-20.5 217.78,-20.5"/>
<polygon fill="#63b8ff" stroke="#63b8ff" points="192.28,-17 182.28,-20.5 192.28,-24 192.28,-17"/>
</a>
</g>
</g>
<!-- Node2 -->
<g id="Node000002" class="node">
<title>Node2</title>
<g id="a_Node000002"><a xlink:href="dc/da4/classxii_dynamic_array.html" target="_top" xlink:title=" ">
<polygon fill="white" stroke="#666666" points="571,-35.5 424,-35.5 424,-5.5 571,-5.5 571,-35.5"/>
<text text-anchor="start" x="432" y="-23.5" font-family="Helvetica,sans-Serif" font-size="10.00">xiiDynamicArray&lt; vk</text>
<text text-anchor="middle" x="497.5" y="-12.5" font-family="Helvetica,sans-Serif" font-size="10.00">::QueueFamilyProperties &gt;</text>
</a>
</g>
</g>
<!-- Node1&#45;&gt;Node2 -->
<g id="edge640_Node000001_Node000002" class="edge">
<title>Node1&#45;&gt;Node2</title>
<g id="a_edge640_Node000001_Node000002"><a xlink:title=" ">
<path fill="none" stroke="#63b8ff" d="M398.27,-20.5C406.91,-20.5 415.57,-20.5 423.97,-20.5"/>
<polygon fill="#63b8ff" stroke="#63b8ff" points="398.15,-17 388.15,-20.5 398.15,-24 398.15,-17"/>
</a>
</g>
</g>
</g>
</svg>
