<?xml version="1.0" encoding="UTF-8" standalone="no"?>
<!DOCTYPE svg PUBLIC "-//W3C//DTD SVG 1.1//EN"
 "http://www.w3.org/Graphics/SVG/1.1/DTD/svg11.dtd">
<!-- Generated by graphviz version 2.43.0 (0)
 -->
<!-- Title: Graphical Class Hierarchy Pages: 1 -->
<svg width="256pt" height="66pt"
 viewBox="0.00 0.00 256.00 66.00" xmlns="http://www.w3.org/2000/svg" xmlns:xlink="http://www.w3.org/1999/xlink">
<g id="graph0" class="graph" transform="scale(1 1) rotate(0) translate(4 62)">
<title>Graphical Class Hierarchy</title>
<polygon fill="white" stroke="transparent" points="-4,4 -4,-62 252,-62 252,4 -4,4"/>
<!-- Node517 -->
<g id="node1" class="node">
<title>Node517</title>
<g id="a_node1"><a xlink:title=" ">
<polygon fill="white" stroke="#bfbfbf" points="0,-19.5 0,-38.5 60,-38.5 60,-19.5 0,-19.5"/>
<text text-anchor="middle" x="30" y="-26.5" font-family="Helvetica,sans-Serif" font-size="10.00">QToolBar</text>
</a>
</g>
</g>
<!-- Node0 -->
<g id="node2" class="node">
<title>Node0</title>
<g id="a_node2"><a xlink:href="d3/de4/classxii_qt_time_scrubber_toolbar.htm" target="_top" xlink:title=" ">
<polygon fill="white" stroke="black" points="100.5,-38.5 100.5,-57.5 243.5,-57.5 243.5,-38.5 100.5,-38.5"/>
<text text-anchor="middle" x="172" y="-45.5" font-family="Helvetica,sans-Serif" font-size="10.00">xiiQtTimeScrubberToolbar</text>
</a>
</g>
</g>
<!-- Node517&#45;&gt;Node0 -->
<g id="edge1" class="edge">
<title>Node517&#45;&gt;Node0</title>
<path fill="none" stroke="midnightblue" d="M69.99,-34.29C79.59,-35.59 90.16,-37.03 100.73,-38.46"/>
<polygon fill="midnightblue" stroke="midnightblue" points="70.39,-30.81 60.01,-32.94 69.45,-37.75 70.39,-30.81"/>
</g>
<!-- Node519 -->
<g id="node3" class="node">
<title>Node519</title>
<g id="a_node3"><a xlink:href="d9/d34/classxii_qt_tool_bar_action_map_view.htm" target="_top" xlink:title=" ">
<polygon fill="white" stroke="black" points="96,-0.5 96,-19.5 248,-19.5 248,-0.5 96,-0.5"/>
<text text-anchor="middle" x="172" y="-7.5" font-family="Helvetica,sans-Serif" font-size="10.00">xiiQtToolBarActionMapView</text>
</a>
</g>
</g>
<!-- Node517&#45;&gt;Node519 -->
<g id="edge2" class="edge">
<title>Node517&#45;&gt;Node519</title>
<path fill="none" stroke="midnightblue" d="M69.99,-23.71C79.59,-22.41 90.16,-20.97 100.73,-19.54"/>
<polygon fill="midnightblue" stroke="midnightblue" points="69.45,-20.25 60.01,-25.06 70.39,-27.19 69.45,-20.25"/>
</g>
</g>
</svg>
