<?xml version="1.0" encoding="UTF-8" standalone="no"?>
<!DOCTYPE svg PUBLIC "-//W3C//DTD SVG 1.1//EN"
 "http://www.w3.org/Graphics/SVG/1.1/DTD/svg11.dtd">
<!-- Generated by graphviz version 2.43.0 (0)
 -->
<!-- Title: Graphical Class Hierarchy Pages: 1 -->
<svg width="253pt" height="66pt"
 viewBox="0.00 0.00 253.00 66.00" xmlns="http://www.w3.org/2000/svg" xmlns:xlink="http://www.w3.org/1999/xlink">
<g id="graph0" class="graph" transform="scale(1 1) rotate(0) translate(4 62)">
<title>Graphical Class Hierarchy</title>
<polygon fill="white" stroke="transparent" points="-4,4 -4,-62 249,-62 249,4 -4,4"/>
<!-- Node0 -->
<g id="node1" class="node">
<title>Node0</title>
<g id="a_node1"><a xlink:href="da/d04/structxii_trait_int.htm" target="_top" xlink:title="Type traits.">
<polygon fill="white" stroke="black" points="0,-19.5 0,-38.5 91,-38.5 91,-19.5 0,-19.5"/>
<text text-anchor="middle" x="45.5" y="-26.5" font-family="Helvetica,sans-Serif" font-size="10.00">xiiTraitInt&lt; v &gt;</text>
</a>
</g>
</g>
<!-- Node1 -->
<g id="node2" class="node">
<title>Node1</title>
<g id="a_node2"><a xlink:href="d4/d92/structxii_is_pod_type_3_01_t_01_5_01_4.htm" target="_top" xlink:title="Pointers are POD types.">
<polygon fill="white" stroke="black" points="129,-38.5 129,-57.5 243,-57.5 243,-38.5 129,-38.5"/>
<text text-anchor="middle" x="186" y="-45.5" font-family="Helvetica,sans-Serif" font-size="10.00">xiiIsPodType&lt; T * &gt;</text>
</a>
</g>
</g>
<!-- Node0&#45;&gt;Node1 -->
<g id="edge1" class="edge">
<title>Node0&#45;&gt;Node1</title>
<path fill="none" stroke="midnightblue" d="M101.16,-36.5C110.26,-37.75 119.7,-39.04 128.83,-40.29"/>
<polygon fill="midnightblue" stroke="midnightblue" points="101.47,-33.01 91.08,-35.12 100.52,-39.94 101.47,-33.01"/>
</g>
<!-- Node2 -->
<g id="node3" class="node">
<title>Node2</title>
<g id="a_node3"><a xlink:href="de/dc4/structxii_is_pod_type_3_01_t_0f_n_0e_4.htm" target="_top" xlink:title="arrays are POD types">
<polygon fill="white" stroke="black" points="127,-0.5 127,-19.5 245,-19.5 245,-0.5 127,-0.5"/>
<text text-anchor="middle" x="186" y="-7.5" font-family="Helvetica,sans-Serif" font-size="10.00">xiiIsPodType&lt; T[N]&gt;</text>
</a>
</g>
</g>
<!-- Node0&#45;&gt;Node2 -->
<g id="edge2" class="edge">
<title>Node0&#45;&gt;Node2</title>
<path fill="none" stroke="midnightblue" d="M101.18,-21.5C109.61,-20.34 118.34,-19.14 126.84,-17.98"/>
<polygon fill="midnightblue" stroke="midnightblue" points="100.52,-18.06 91.08,-22.88 101.47,-24.99 100.52,-18.06"/>
</g>
</g>
</svg>
