<?xml version="1.0" encoding="UTF-8" standalone="no"?>
<!DOCTYPE svg PUBLIC "-//W3C//DTD SVG 1.1//EN"
 "http://www.w3.org/Graphics/SVG/1.1/DTD/svg11.dtd">
<!-- Generated by graphviz version 2.43.0 (0)
 -->
<!-- Title: Graphical Class Hierarchy Pages: 1 -->
<svg width="686pt" height="100pt"
 viewBox="0.00 0.00 686.00 99.50" xmlns="http://www.w3.org/2000/svg" xmlns:xlink="http://www.w3.org/1999/xlink">
<g id="graph0" class="graph" transform="scale(1 1) rotate(0) translate(4 95.5)">
<title>Graphical Class Hierarchy</title>
<!-- Node0 -->
<g id="Node000000" class="node">
<title>Node0</title>
<g id="a_Node000000"><a xlink:href="da/d4c/classxii_array_base.html" target="_top" xlink:title=" ">
<polygon fill="white" stroke="#666666" points="137,-51 0,-51 0,-10 137,-10 137,-51"/>
<text text-anchor="start" x="8" y="-39" font-family="Helvetica,sans-Serif" font-size="10.00">xiiArrayBase&lt; xiiUInt64,</text>
<text text-anchor="start" x="8" y="-28" font-family="Helvetica,sans-Serif" font-size="10.00"> xiiDynamicArrayBase&lt;</text>
<text text-anchor="middle" x="68.5" y="-17" font-family="Helvetica,sans-Serif" font-size="10.00"> xiiUInt64 &gt; &gt;</text>
</a>
</g>
</g>
<!-- Node1 -->
<g id="Node000001" class="node">
<title>Node1</title>
<g id="a_Node000001"><a xlink:href="d2/dea/classxii_dynamic_array_base.html" target="_top" xlink:title=" ">
<polygon fill="white" stroke="#666666" points="295,-45.5 173,-45.5 173,-15.5 295,-15.5 295,-45.5"/>
<text text-anchor="start" x="181" y="-33.5" font-family="Helvetica,sans-Serif" font-size="10.00">xiiDynamicArrayBase</text>
<text text-anchor="middle" x="234" y="-22.5" font-family="Helvetica,sans-Serif" font-size="10.00">&lt; xiiUInt64 &gt;</text>
</a>
</g>
</g>
<!-- Node0&#45;&gt;Node1 -->
<g id="edge1301_Node000000_Node000001" class="edge">
<title>Node0&#45;&gt;Node1</title>
<g id="a_edge1301_Node000000_Node000001"><a xlink:title=" ">
<path fill="none" stroke="#63b8ff" d="M147.69,-30.5C156.15,-30.5 164.66,-30.5 172.86,-30.5"/>
<polygon fill="#63b8ff" stroke="#63b8ff" points="147.42,-27 137.42,-30.5 147.42,-34 147.42,-27"/>
</a>
</g>
</g>
<!-- Node2 -->
<g id="Node000002" class="node">
<title>Node2</title>
<g id="a_Node000002"><a xlink:href="dc/da4/classxii_dynamic_array.html" target="_top" xlink:title=" ">
<polygon fill="white" stroke="#666666" points="495.5,-67.5 331.5,-67.5 331.5,-37.5 495.5,-37.5 495.5,-67.5"/>
<text text-anchor="start" x="339.5" y="-55.5" font-family="Helvetica,sans-Serif" font-size="10.00">xiiDynamicArray&lt; xiiUInt64,</text>
<text text-anchor="middle" x="413.5" y="-44.5" font-family="Helvetica,sans-Serif" font-size="10.00"> xiiDefaultAllocatorWrapper &gt;</text>
</a>
</g>
</g>
<!-- Node1&#45;&gt;Node2 -->
<g id="edge1302_Node000001_Node000002" class="edge">
<title>Node1&#45;&gt;Node2</title>
<g id="a_edge1302_Node000001_Node000002"><a xlink:title=" ">
<path fill="none" stroke="#63b8ff" d="M305.09,-39.19C313.72,-40.26 322.6,-41.36 331.38,-42.45"/>
<polygon fill="#63b8ff" stroke="#63b8ff" points="305.45,-35.7 295.09,-37.95 304.59,-42.65 305.45,-35.7"/>
</a>
</g>
</g>
<!-- Node5 -->
<g id="Node000005" class="node">
<title>Node5</title>
<g id="a_Node000005"><a xlink:href="dc/da4/classxii_dynamic_array.html" target="_top" xlink:title=" ">
<polygon fill="white" stroke="#666666" points="496,-19 331,-19 331,0 496,0 496,-19"/>
<text text-anchor="middle" x="413.5" y="-7" font-family="Helvetica,sans-Serif" font-size="10.00">xiiDynamicArray&lt; xiiUInt64 &gt;</text>
</a>
</g>
</g>
<!-- Node1&#45;&gt;Node5 -->
<g id="edge1305_Node000001_Node000005" class="edge">
<title>Node1&#45;&gt;Node5</title>
<g id="a_edge1305_Node000001_Node000005"><a xlink:title=" ">
<path fill="none" stroke="#63b8ff" d="M305.27,-22.19C314.05,-21.15 323.09,-20.08 332.01,-19.02"/>
<polygon fill="#63b8ff" stroke="#63b8ff" points="304.61,-18.74 295.09,-23.39 305.44,-25.69 304.61,-18.74"/>
</a>
</g>
</g>
<!-- Node3 -->
<g id="Node000003" class="node">
<title>Node3</title>
<g id="a_Node000003"><a xlink:href="dc/da9/classxii_hybrid_array.html" target="_top" xlink:title=" ">
<polygon fill="white" stroke="#666666" points="678,-91.5 532,-91.5 532,-61.5 678,-61.5 678,-91.5"/>
<text text-anchor="start" x="540" y="-79.5" font-family="Helvetica,sans-Serif" font-size="10.00">xiiHybridArray&lt; xiiUInt64,</text>
<text text-anchor="middle" x="605" y="-68.5" font-family="Helvetica,sans-Serif" font-size="10.00"> 16 &gt;</text>
</a>
</g>
</g>
<!-- Node2&#45;&gt;Node3 -->
<g id="edge1303_Node000002_Node000003" class="edge">
<title>Node2&#45;&gt;Node3</title>
<g id="a_edge1303_Node000002_Node000003"><a xlink:title=" ">
<path fill="none" stroke="#63b8ff" d="M505.63,-64.04C514.46,-65.16 523.34,-66.28 531.95,-67.37"/>
<polygon fill="#63b8ff" stroke="#63b8ff" points="506.05,-60.57 495.69,-62.78 505.17,-67.51 506.05,-60.57"/>
</a>
</g>
</g>
<!-- Node4 -->
<g id="Node000004" class="node">
<title>Node4</title>
<g id="a_Node000004"><a xlink:href="dc/da9/classxii_hybrid_array.html" target="_top" xlink:title=" ">
<polygon fill="white" stroke="#666666" points="678,-43.5 532,-43.5 532,-13.5 678,-13.5 678,-43.5"/>
<text text-anchor="start" x="540" y="-31.5" font-family="Helvetica,sans-Serif" font-size="10.00">xiiHybridArray&lt; xiiUInt64,</text>
<text text-anchor="middle" x="605" y="-20.5" font-family="Helvetica,sans-Serif" font-size="10.00"> 64 &gt;</text>
</a>
</g>
</g>
<!-- Node2&#45;&gt;Node4 -->
<g id="edge1304_Node000002_Node000004" class="edge">
<title>Node2&#45;&gt;Node4</title>
<g id="a_edge1304_Node000002_Node000004"><a xlink:title=" ">
<path fill="none" stroke="#63b8ff" d="M505.63,-40.96C514.46,-39.84 523.34,-38.72 531.95,-37.63"/>
<polygon fill="#63b8ff" stroke="#63b8ff" points="505.17,-37.49 495.69,-42.22 506.05,-44.43 505.17,-37.49"/>
</a>
</g>
</g>
</g>
</svg>
