<?xml version="1.0" encoding="UTF-8" standalone="no"?>
<!DOCTYPE svg PUBLIC "-//W3C//DTD SVG 1.1//EN"
 "http://www.w3.org/Graphics/SVG/1.1/DTD/svg11.dtd">
<!-- Generated by graphviz version 2.43.0 (0)
 -->
<!-- Title: Graphical Class Hierarchy Pages: 1 -->
<svg width="349pt" height="66pt"
 viewBox="0.00 0.00 349.00 66.00" xmlns="http://www.w3.org/2000/svg" xmlns:xlink="http://www.w3.org/1999/xlink">
<g id="graph0" class="graph" transform="scale(1 1) rotate(0) translate(4 62)">
<title>Graphical Class Hierarchy</title>
<polygon fill="white" stroke="transparent" points="-4,4 -4,-62 345,-62 345,4 -4,4"/>
<!-- Node0 -->
<g id="node1" class="node">
<title>Node0</title>
<g id="a_node1"><a xlink:href="d7/d4b/classxii_window_output_target_base.htm" target="_top" xlink:title="Base class for window output targets.">
<polygon fill="white" stroke="black" points="0,-19.5 0,-38.5 155,-38.5 155,-19.5 0,-19.5"/>
<text text-anchor="middle" x="77.5" y="-26.5" font-family="Helvetica,sans-Serif" font-size="10.00">xiiWindowOutputTargetBase</text>
</a>
</g>
</g>
<!-- Node1 -->
<g id="node2" class="node">
<title>Node1</title>
<g id="a_node2"><a xlink:href="d9/d8d/classxii_window_output_target_g_a_l.htm" target="_top" xlink:title="Creates a swapchain and keeps it up to date with the window.">
<polygon fill="white" stroke="black" points="191,-38.5 191,-57.5 341,-57.5 341,-38.5 191,-38.5"/>
<text text-anchor="middle" x="266" y="-45.5" font-family="Helvetica,sans-Serif" font-size="10.00">xiiWindowOutputTargetGAL</text>
</a>
</g>
</g>
<!-- Node0&#45;&gt;Node1 -->
<g id="edge1" class="edge">
<title>Node0&#45;&gt;Node1</title>
<path fill="none" stroke="midnightblue" d="M165.15,-37.83C173.7,-38.7 182.33,-39.58 190.74,-40.43"/>
<polygon fill="midnightblue" stroke="midnightblue" points="165.47,-34.34 155.16,-36.81 164.76,-41.31 165.47,-34.34"/>
</g>
<!-- Node2 -->
<g id="node3" class="node">
<title>Node2</title>
<g id="a_node3"><a xlink:href="dd/d5f/classxii_window_output_target_x_r.htm" target="_top" xlink:title="XR Window output target base implementation. Optionally wraps a companion window output target.">
<polygon fill="white" stroke="black" points="194,-0.5 194,-19.5 338,-19.5 338,-0.5 194,-0.5"/>
<text text-anchor="middle" x="266" y="-7.5" font-family="Helvetica,sans-Serif" font-size="10.00">xiiWindowOutputTargetXR</text>
</a>
</g>
</g>
<!-- Node0&#45;&gt;Node2 -->
<g id="edge2" class="edge">
<title>Node0&#45;&gt;Node2</title>
<path fill="none" stroke="midnightblue" d="M165.4,-20.15C174.89,-19.18 184.46,-18.2 193.73,-17.26"/>
<polygon fill="midnightblue" stroke="midnightblue" points="164.76,-16.69 155.16,-21.19 165.47,-23.66 164.76,-16.69"/>
</g>
</g>
</svg>
