<?xml version="1.0" encoding="UTF-8" standalone="no"?>
<!DOCTYPE svg PUBLIC "-//W3C//DTD SVG 1.1//EN"
 "http://www.w3.org/Graphics/SVG/1.1/DTD/svg11.dtd">
<!-- Generated by graphviz version 2.43.0 (0)
 -->
<!-- Title: Graphical Class Hierarchy Pages: 1 -->
<svg width="307pt" height="78pt"
 viewBox="0.00 0.00 307.00 77.50" xmlns="http://www.w3.org/2000/svg" xmlns:xlink="http://www.w3.org/1999/xlink">
<g id="graph0" class="graph" transform="scale(1 1) rotate(0) translate(4 73.5)">
<title>Graphical Class Hierarchy</title>
<polygon fill="white" stroke="transparent" points="-4,4 -4,-73.5 303,-73.5 303,4 -4,4"/>
<!-- Node0 -->
<g id="node1" class="node">
<title>Node0</title>
<g id="a_node1"><a xlink:href="dd/dc3/classxii_list_base.htm" target="_top" xlink:title="A List&#45;class, similar to STL::list.">
<polygon fill="white" stroke="black" points="0,-22.5 0,-41.5 98,-41.5 98,-22.5 0,-22.5"/>
<text text-anchor="middle" x="49" y="-29.5" font-family="Helvetica,sans-Serif" font-size="10.00">xiiListBase&lt; T &gt;</text>
</a>
</g>
</g>
<!-- Node1 -->
<g id="node2" class="node">
<title>Node1</title>
<g id="a_node2"><a xlink:href="df/d73/classxii_list.htm" target="_top" xlink:title=" ">
<polygon fill="white" stroke="black" points="152.5,-39 152.5,-69 280.5,-69 280.5,-39 152.5,-39"/>
<text text-anchor="start" x="160.5" y="-57" font-family="Helvetica,sans-Serif" font-size="10.00">xiiList&lt; xiiTaskSystem</text>
<text text-anchor="middle" x="216.5" y="-46" font-family="Helvetica,sans-Serif" font-size="10.00">::TaskData &gt;</text>
</a>
</g>
</g>
<!-- Node0&#45;&gt;Node1 -->
<g id="edge1" class="edge">
<title>Node0&#45;&gt;Node1</title>
<path fill="none" stroke="midnightblue" d="M108.45,-39.77C122.66,-41.66 137.92,-43.69 152.33,-45.6"/>
<polygon fill="midnightblue" stroke="midnightblue" points="108.69,-36.27 98.31,-38.42 107.77,-43.21 108.69,-36.27"/>
</g>
<!-- Node2 -->
<g id="node3" class="node">
<title>Node2</title>
<g id="a_node3"><a xlink:href="df/d73/classxii_list.htm" target="_top" xlink:title=" ">
<polygon fill="white" stroke="black" points="134,-0.5 134,-19.5 299,-19.5 299,-0.5 134,-0.5"/>
<text text-anchor="middle" x="216.5" y="-7.5" font-family="Helvetica,sans-Serif" font-size="10.00">xiiList&lt; T, AllocatorWrapper &gt;</text>
</a>
</g>
</g>
<!-- Node0&#45;&gt;Node2 -->
<g id="edge2" class="edge">
<title>Node0&#45;&gt;Node2</title>
<path fill="none" stroke="midnightblue" d="M108.55,-24.22C119.94,-22.7 131.99,-21.1 143.75,-19.54"/>
<polygon fill="midnightblue" stroke="midnightblue" points="107.77,-20.79 98.31,-25.58 108.69,-27.73 107.77,-20.79"/>
</g>
</g>
</svg>
