<?xml version="1.0" encoding="UTF-8" standalone="no"?>
<!DOCTYPE svg PUBLIC "-//W3C//DTD SVG 1.1//EN"
 "http://www.w3.org/Graphics/SVG/1.1/DTD/svg11.dtd">
<!-- Generated by graphviz version 2.43.0 (0)
 -->
<!-- Title: Graphical Class Hierarchy Pages: 1 -->
<svg width="324pt" height="101pt"
 viewBox="0.00 0.00 324.00 101.00" xmlns="http://www.w3.org/2000/svg" xmlns:xlink="http://www.w3.org/1999/xlink">
<g id="graph0" class="graph" transform="scale(1 1) rotate(0) translate(4 97)">
<title>Graphical Class Hierarchy</title>
<!-- Node0 -->
<g id="Node000000" class="node">
<title>Node0</title>
<g id="a_Node000000"><a xlink:href="db/dd0/structxii_variance_type_base_double.html" target="_top" xlink:title=" ">
<polygon fill="white" stroke="#666666" points="152,-56 0,-56 0,-37 152,-37 152,-56"/>
<text text-anchor="middle" x="76" y="-44" font-family="Helvetica,sans-Serif" font-size="10.00">xiiVarianceTypeBaseDouble</text>
</a>
</g>
</g>
<!-- Node1 -->
<g id="Node000001" class="node">
<title>Node1</title>
<g id="a_Node000001"><a xlink:href="dc/dad/structxii_variance_type_angled.html" target="_top" xlink:title=" ">
<polygon fill="white" stroke="#666666" points="315.5,-93 188.5,-93 188.5,-74 315.5,-74 315.5,-93"/>
<text text-anchor="middle" x="252" y="-81" font-family="Helvetica,sans-Serif" font-size="10.00">xiiVarianceTypeAngled</text>
</a>
</g>
</g>
<!-- Node0&#45;&gt;Node1 -->
<g id="edge3383_Node000000_Node000001" class="edge">
<title>Node0&#45;&gt;Node1</title>
<g id="a_edge3383_Node000000_Node000001"><a xlink:title=" ">
<path fill="none" stroke="#63b8ff" d="M131.8,-58.15C155.7,-63.23 183.37,-69.12 206.04,-73.94"/>
<polygon fill="#63b8ff" stroke="#63b8ff" points="132.32,-54.68 121.81,-56.03 130.86,-61.53 132.32,-54.68"/>
</a>
</g>
</g>
<!-- Node2 -->
<g id="Node000002" class="node">
<title>Node2</title>
<g id="a_Node000002"><a xlink:href="dc/db3/structxii_variance_type_double.html" target="_top" xlink:title=" ">
<polygon fill="white" stroke="#666666" points="316,-56 188,-56 188,-37 316,-37 316,-56"/>
<text text-anchor="middle" x="252" y="-44" font-family="Helvetica,sans-Serif" font-size="10.00">xiiVarianceTypeDouble</text>
</a>
</g>
</g>
<!-- Node0&#45;&gt;Node2 -->
<g id="edge3384_Node000000_Node000002" class="edge">
<title>Node0&#45;&gt;Node2</title>
<g id="a_edge3384_Node000000_Node000002"><a xlink:title=" ">
<path fill="none" stroke="#63b8ff" d="M162.2,-46.5C170.86,-46.5 179.55,-46.5 187.92,-46.5"/>
<polygon fill="#63b8ff" stroke="#63b8ff" points="162.05,-43 152.05,-46.5 162.05,-50 162.05,-43"/>
</a>
</g>
</g>
<!-- Node3 -->
<g id="Node000003" class="node">
<title>Node3</title>
<g id="a_Node000003"><a xlink:href="dd/dbd/structxii_variance_type_time.html" target="_top" xlink:title=" ">
<polygon fill="white" stroke="#666666" points="311,-19 193,-19 193,0 311,0 311,-19"/>
<text text-anchor="middle" x="252" y="-7" font-family="Helvetica,sans-Serif" font-size="10.00">xiiVarianceTypeTime</text>
</a>
</g>
</g>
<!-- Node0&#45;&gt;Node3 -->
<g id="edge3385_Node000000_Node000003" class="edge">
<title>Node0&#45;&gt;Node3</title>
<g id="a_edge3385_Node000000_Node000003"><a xlink:title=" ">
<path fill="none" stroke="#63b8ff" d="M131.8,-34.85C155.7,-29.77 183.37,-23.88 206.04,-19.06"/>
<polygon fill="#63b8ff" stroke="#63b8ff" points="130.86,-31.47 121.81,-36.97 132.32,-38.32 130.86,-31.47"/>
</a>
</g>
</g>
</g>
</svg>
