<?xml version="1.0" encoding="UTF-8" standalone="no"?>
<!DOCTYPE svg PUBLIC "-//W3C//DTD SVG 1.1//EN"
 "http://www.w3.org/Graphics/SVG/1.1/DTD/svg11.dtd">
<!-- Generated by graphviz version 2.43.0 (0)
 -->
<!-- Title: Graphical Class Hierarchy Pages: 1 -->
<svg width="427pt" height="98pt"
 viewBox="0.00 0.00 427.00 97.50" xmlns="http://www.w3.org/2000/svg" xmlns:xlink="http://www.w3.org/1999/xlink">
<g id="graph0" class="graph" transform="scale(1 1) rotate(0) translate(4 93.5)">
<title>Graphical Class Hierarchy</title>
<!-- Node0 -->
<g id="Node000000" class="node">
<title>Node0</title>
<g id="a_Node000000"><a xlink:href="d0/d92/classxii_small_array_base.htm" target="_top" xlink:title=" ">
<polygon fill="white" stroke="#666666" points="154,-62.5 0,-62.5 0,-21.5 154,-21.5 154,-62.5"/>
<text text-anchor="start" x="8" y="-50.5" font-family="Helvetica,sans-Serif" font-size="10.00">xiiSmallArrayBase&lt;</text>
<text text-anchor="start" x="8" y="-39.5" font-family="Helvetica,sans-Serif" font-size="10.00"> xiiAbstractMessageHandler</text>
<text text-anchor="middle" x="77" y="-28.5" font-family="Helvetica,sans-Serif" font-size="10.00"> *, Size &gt;</text>
</a>
</g>
</g>
<!-- Node1 -->
<g id="Node000001" class="node">
<title>Node1</title>
<g id="a_Node000001"><a xlink:href="d6/d1f/classxii_small_array.htm" target="_top" xlink:title=" ">
<polygon fill="white" stroke="#666666" points="386.5,-89.5 222.5,-89.5 222.5,-48.5 386.5,-48.5 386.5,-89.5"/>
<text text-anchor="start" x="230.5" y="-77.5" font-family="Helvetica,sans-Serif" font-size="10.00">xiiSmallArray&lt; xiiAbstract</text>
<text text-anchor="start" x="230.5" y="-66.5" font-family="Helvetica,sans-Serif" font-size="10.00">MessageHandler *, 1, xiiStatic</text>
<text text-anchor="middle" x="304.5" y="-55.5" font-family="Helvetica,sans-Serif" font-size="10.00">AllocatorWrapper &gt;</text>
</a>
</g>
</g>
<!-- Node0&#45;&gt;Node1 -->
<g id="edge3255_Node000000_Node000001" class="edge">
<title>Node0&#45;&gt;Node1</title>
<g id="a_edge3255_Node000000_Node000001"><a xlink:title=" ">
<path fill="none" stroke="#63b8ff" d="M164.21,-52.32C183.32,-54.61 203.5,-57.03 222.4,-59.29"/>
<polygon fill="#63b8ff" stroke="#63b8ff" points="164.37,-48.82 154.03,-51.1 163.54,-55.77 164.37,-48.82"/>
</a>
</g>
</g>
<!-- Node2 -->
<g id="Node000002" class="node">
<title>Node2</title>
<g id="a_Node000002"><a xlink:href="d6/d1f/classxii_small_array.htm" target="_top" xlink:title=" ">
<polygon fill="white" stroke="#666666" points="419,-30 190,-30 190,0 419,0 419,-30"/>
<text text-anchor="start" x="198" y="-18" font-family="Helvetica,sans-Serif" font-size="10.00">xiiSmallArray&lt; xiiAbstract</text>
<text text-anchor="middle" x="304.5" y="-7" font-family="Helvetica,sans-Serif" font-size="10.00">MessageHandler *, NumInplaceFunctions &gt;</text>
</a>
</g>
</g>
<!-- Node0&#45;&gt;Node2 -->
<g id="edge3256_Node000000_Node000002" class="edge">
<title>Node0&#45;&gt;Node2</title>
<g id="a_edge3256_Node000000_Node000002"><a xlink:title=" ">
<path fill="none" stroke="#63b8ff" d="M164.14,-31.69C172.52,-30.68 181.11,-29.65 189.71,-28.62"/>
<polygon fill="#63b8ff" stroke="#63b8ff" points="163.54,-28.23 154.03,-32.9 164.37,-35.18 163.54,-28.23"/>
</a>
</g>
</g>
</g>
</svg>
