<?xml version="1.0" encoding="UTF-8" standalone="no"?>
<!DOCTYPE svg PUBLIC "-//W3C//DTD SVG 1.1//EN"
 "http://www.w3.org/Graphics/SVG/1.1/DTD/svg11.dtd">
<!-- Generated by graphviz version 2.43.0 (0)
 -->
<!-- Title: Graphical Class Hierarchy Pages: 1 -->
<svg width="356pt" height="347pt"
 viewBox="0.00 0.00 356.00 346.50" xmlns="http://www.w3.org/2000/svg" xmlns:xlink="http://www.w3.org/1999/xlink">
<g id="graph0" class="graph" transform="scale(1 1) rotate(0) translate(4 342.5)">
<title>Graphical Class Hierarchy</title>
<!-- Node0 -->
<g id="Node000000" class="node">
<title>Node0</title>
<g id="a_Node000000"><a xlink:href="d7/da4/structxii_expression_a_s_t_1_1_node.htm" target="_top" xlink:title=" ">
<polygon fill="white" stroke="#666666" points="131,-179 0,-179 0,-160 131,-160 131,-179"/>
<text text-anchor="middle" x="65.5" y="-167" font-family="Helvetica,sans-Serif" font-size="10.00">xiiExpressionAST::Node</text>
</a>
</g>
</g>
<!-- Node1 -->
<g id="Node000001" class="node">
<title>Node1</title>
<g id="a_Node000001"><a xlink:href="d2/da4/structxii_expression_a_s_t_1_1_binary_operator.htm" target="_top" xlink:title=" ">
<polygon fill="white" stroke="#666666" points="326,-338.5 189,-338.5 189,-308.5 326,-308.5 326,-338.5"/>
<text text-anchor="start" x="197" y="-326.5" font-family="Helvetica,sans-Serif" font-size="10.00">xiiExpressionAST::Binary</text>
<text text-anchor="middle" x="257.5" y="-315.5" font-family="Helvetica,sans-Serif" font-size="10.00">Operator</text>
</a>
</g>
</g>
<!-- Node0&#45;&gt;Node1 -->
<g id="edge1682_Node000000_Node000001" class="edge">
<title>Node0&#45;&gt;Node1</title>
<g id="a_edge1682_Node000000_Node000001"><a xlink:title=" ">
<path fill="none" stroke="#63b8ff" d="M75.86,-188.32C91.01,-216.82 123.64,-270.64 167,-299.5 173.7,-303.96 181.19,-307.59 188.92,-310.55"/>
<polygon fill="#63b8ff" stroke="#63b8ff" points="78.78,-186.35 71.08,-179.06 72.56,-189.56 78.78,-186.35"/>
</a>
</g>
</g>
<!-- Node2 -->
<g id="Node000002" class="node">
<title>Node2</title>
<g id="a_Node000002"><a xlink:href="da/dcc/structxii_expression_a_s_t_1_1_constant.htm" target="_top" xlink:title=" ">
<polygon fill="white" stroke="#666666" points="332,-290 183,-290 183,-271 332,-271 332,-290"/>
<text text-anchor="middle" x="257.5" y="-278" font-family="Helvetica,sans-Serif" font-size="10.00">xiiExpressionAST::Constant</text>
</a>
</g>
</g>
<!-- Node0&#45;&gt;Node2 -->
<g id="edge1683_Node000000_Node000002" class="edge">
<title>Node0&#45;&gt;Node2</title>
<g id="a_edge1683_Node000000_Node000002"><a xlink:title=" ">
<path fill="none" stroke="#63b8ff" d="M80.29,-187.19C97.97,-208.56 130.72,-243.96 167,-262.5 173.63,-265.89 180.85,-268.64 188.21,-270.88"/>
<polygon fill="#63b8ff" stroke="#63b8ff" points="82.87,-184.81 73.87,-179.23 77.43,-189.21 82.87,-184.81"/>
</a>
</g>
</g>
<!-- Node3 -->
<g id="Node000003" class="node">
<title>Node3</title>
<g id="a_Node000003"><a xlink:href="d2/d5c/structxii_expression_a_s_t_1_1_constructor_call.htm" target="_top" xlink:title=" ">
<polygon fill="white" stroke="#666666" points="348,-253 167,-253 167,-234 348,-234 348,-253"/>
<text text-anchor="middle" x="257.5" y="-241" font-family="Helvetica,sans-Serif" font-size="10.00">xiiExpressionAST::ConstructorCall</text>
</a>
</g>
</g>
<!-- Node0&#45;&gt;Node3 -->
<g id="edge1684_Node000000_Node000003" class="edge">
<title>Node0&#45;&gt;Node3</title>
<g id="a_edge1684_Node000000_Node000003"><a xlink:title=" ">
<path fill="none" stroke="#63b8ff" d="M89.04,-184.75C108.79,-197.44 138.69,-215.06 167,-225.5 176.07,-228.85 185.9,-231.62 195.61,-233.9"/>
<polygon fill="#63b8ff" stroke="#63b8ff" points="90.75,-181.68 80.47,-179.14 86.92,-187.54 90.75,-181.68"/>
</a>
</g>
</g>
<!-- Node4 -->
<g id="Node000004" class="node">
<title>Node4</title>
<g id="a_Node000004"><a xlink:href="db/d29/structxii_expression_a_s_t_1_1_function_call.htm" target="_top" xlink:title=" ">
<polygon fill="white" stroke="#666666" points="340.5,-216 174.5,-216 174.5,-197 340.5,-197 340.5,-216"/>
<text text-anchor="middle" x="257.5" y="-204" font-family="Helvetica,sans-Serif" font-size="10.00">xiiExpressionAST::FunctionCall</text>
</a>
</g>
</g>
<!-- Node0&#45;&gt;Node4 -->
<g id="edge1685_Node000000_Node000004" class="edge">
<title>Node0&#45;&gt;Node4</title>
<g id="a_edge1685_Node000000_Node000004"><a xlink:title=" ">
<path fill="none" stroke="#63b8ff" d="M125.29,-180.95C151.62,-186.08 182.32,-192.06 207.41,-196.94"/>
<polygon fill="#63b8ff" stroke="#63b8ff" points="125.91,-177.5 115.43,-179.03 124.58,-184.38 125.91,-177.5"/>
</a>
</g>
</g>
<!-- Node5 -->
<g id="Node000005" class="node">
<title>Node5</title>
<g id="a_Node000005"><a xlink:href="d0/d81/structxii_expression_a_s_t_1_1_input.htm" target="_top" xlink:title=" ">
<polygon fill="white" stroke="#666666" points="323,-179 192,-179 192,-160 323,-160 323,-179"/>
<text text-anchor="middle" x="257.5" y="-167" font-family="Helvetica,sans-Serif" font-size="10.00">xiiExpressionAST::Input</text>
</a>
</g>
</g>
<!-- Node0&#45;&gt;Node5 -->
<g id="edge1686_Node000000_Node000005" class="edge">
<title>Node0&#45;&gt;Node5</title>
<g id="a_edge1686_Node000000_Node000005"><a xlink:title=" ">
<path fill="none" stroke="#63b8ff" d="M141.34,-169.5C158.01,-169.5 175.54,-169.5 191.77,-169.5"/>
<polygon fill="#63b8ff" stroke="#63b8ff" points="141.09,-166 131.09,-169.5 141.09,-173 141.09,-166"/>
</a>
</g>
</g>
<!-- Node6 -->
<g id="Node000006" class="node">
<title>Node6</title>
<g id="a_Node000006"><a xlink:href="d8/d81/structxii_expression_a_s_t_1_1_output.htm" target="_top" xlink:title=" ">
<polygon fill="white" stroke="#666666" points="327,-142 188,-142 188,-123 327,-123 327,-142"/>
<text text-anchor="middle" x="257.5" y="-130" font-family="Helvetica,sans-Serif" font-size="10.00">xiiExpressionAST::Output</text>
</a>
</g>
</g>
<!-- Node0&#45;&gt;Node6 -->
<g id="edge1687_Node000000_Node000006" class="edge">
<title>Node0&#45;&gt;Node6</title>
<g id="a_edge1687_Node000000_Node000006"><a xlink:title=" ">
<path fill="none" stroke="#63b8ff" d="M125.29,-158.05C151.62,-152.92 182.32,-146.94 207.41,-142.06"/>
<polygon fill="#63b8ff" stroke="#63b8ff" points="124.58,-154.62 115.43,-159.97 125.91,-161.5 124.58,-154.62"/>
</a>
</g>
</g>
<!-- Node7 -->
<g id="Node000007" class="node">
<title>Node7</title>
<g id="a_Node000007"><a xlink:href="d6/da0/structxii_expression_a_s_t_1_1_swizzle.htm" target="_top" xlink:title=" ">
<polygon fill="white" stroke="#666666" points="329,-105 186,-105 186,-86 329,-86 329,-105"/>
<text text-anchor="middle" x="257.5" y="-93" font-family="Helvetica,sans-Serif" font-size="10.00">xiiExpressionAST::Swizzle</text>
</a>
</g>
</g>
<!-- Node0&#45;&gt;Node7 -->
<g id="edge1688_Node000000_Node000007" class="edge">
<title>Node0&#45;&gt;Node7</title>
<g id="a_edge1688_Node000000_Node000007"><a xlink:title=" ">
<path fill="none" stroke="#63b8ff" d="M89.45,-154.41C109.25,-142.02 138.99,-124.88 167,-114.5 177.28,-110.69 188.52,-107.55 199.45,-105.01"/>
<polygon fill="#63b8ff" stroke="#63b8ff" points="87.4,-151.56 80.84,-159.89 91.15,-157.47 87.4,-151.56"/>
</a>
</g>
</g>
<!-- Node8 -->
<g id="Node000008" class="node">
<title>Node8</title>
<g id="a_Node000008"><a xlink:href="d7/d32/structxii_expression_a_s_t_1_1_ternary_operator.htm" target="_top" xlink:title=" ">
<polygon fill="white" stroke="#666666" points="328.5,-67.5 186.5,-67.5 186.5,-37.5 328.5,-37.5 328.5,-67.5"/>
<text text-anchor="start" x="194.5" y="-55.5" font-family="Helvetica,sans-Serif" font-size="10.00">xiiExpressionAST::Ternary</text>
<text text-anchor="middle" x="257.5" y="-44.5" font-family="Helvetica,sans-Serif" font-size="10.00">Operator</text>
</a>
</g>
</g>
<!-- Node0&#45;&gt;Node8 -->
<g id="edge1689_Node000000_Node000008" class="edge">
<title>Node0&#45;&gt;Node8</title>
<g id="a_edge1689_Node000000_Node000008"><a xlink:title=" ">
<path fill="none" stroke="#63b8ff" d="M80.84,-152.12C98.86,-131.39 131.74,-97.08 167,-77.5 173.91,-73.66 181.46,-70.38 189.14,-67.58"/>
<polygon fill="#63b8ff" stroke="#63b8ff" points="78.08,-149.96 74.27,-159.84 83.42,-154.5 78.08,-149.96"/>
</a>
</g>
</g>
<!-- Node9 -->
<g id="Node000009" class="node">
<title>Node9</title>
<g id="a_Node000009"><a xlink:href="dd/d1d/structxii_expression_a_s_t_1_1_unary_operator.htm" target="_top" xlink:title=" ">
<polygon fill="white" stroke="#666666" points="346.5,-19 168.5,-19 168.5,0 346.5,0 346.5,-19"/>
<text text-anchor="middle" x="257.5" y="-7" font-family="Helvetica,sans-Serif" font-size="10.00">xiiExpressionAST::UnaryOperator</text>
</a>
</g>
</g>
<!-- Node0&#45;&gt;Node9 -->
<g id="edge1690_Node000000_Node000009" class="edge">
<title>Node0&#45;&gt;Node9</title>
<g id="a_edge1690_Node000000_Node000009"><a xlink:title=" ">
<path fill="none" stroke="#63b8ff" d="M74.45,-150.5C88.38,-119.68 120.25,-59.16 167,-28.5 172.84,-24.67 179.32,-21.59 186.05,-19.12"/>
<polygon fill="#63b8ff" stroke="#63b8ff" points="71.22,-149.17 70.42,-159.73 77.63,-151.97 71.22,-149.17"/>
</a>
</g>
</g>
</g>
</svg>
