<?xml version="1.0" encoding="UTF-8" standalone="no"?>
<!DOCTYPE svg PUBLIC "-//W3C//DTD SVG 1.1//EN"
 "http://www.w3.org/Graphics/SVG/1.1/DTD/svg11.dtd">
<!-- Generated by graphviz version 2.43.0 (0)
 -->
<!-- Title: Graphical Class Hierarchy Pages: 1 -->
<svg width="864pt" height="60pt"
 viewBox="0.00 0.00 864.00 60.00" xmlns="http://www.w3.org/2000/svg" xmlns:xlink="http://www.w3.org/1999/xlink">
<g id="graph0" class="graph" transform="scale(1 1) rotate(0) translate(4 56)">
<title>Graphical Class Hierarchy</title>
<!-- Node0 -->
<g id="Node000000" class="node">
<title>Node0</title>
<g id="a_Node000000"><a xlink:href="da/d4c/classxii_array_base.html" target="_top" xlink:title=" ">
<polygon fill="white" stroke="#666666" points="221,-52 0,-52 0,0 221,0 221,-52"/>
<text text-anchor="start" x="8" y="-40" font-family="Helvetica,sans-Serif" font-size="10.00">xiiArrayBase&lt; xiiApplication</text>
<text text-anchor="start" x="8" y="-29" font-family="Helvetica,sans-Serif" font-size="10.00">FileSystemConfig::DataDirConfig,</text>
<text text-anchor="start" x="8" y="-18" font-family="Helvetica,sans-Serif" font-size="10.00"> xiiDynamicArrayBase&lt; xiiApplicationFile</text>
<text text-anchor="middle" x="110.5" y="-7" font-family="Helvetica,sans-Serif" font-size="10.00">SystemConfig::DataDirConfig &gt; &gt;</text>
</a>
</g>
</g>
<!-- Node1 -->
<g id="Node000001" class="node">
<title>Node1</title>
<g id="a_Node000001"><a xlink:href="d2/dea/classxii_dynamic_array_base.html" target="_top" xlink:title=" ">
<polygon fill="white" stroke="#666666" points="406,-46.5 257,-46.5 257,-5.5 406,-5.5 406,-46.5"/>
<text text-anchor="start" x="265" y="-34.5" font-family="Helvetica,sans-Serif" font-size="10.00">xiiDynamicArrayBase</text>
<text text-anchor="start" x="265" y="-23.5" font-family="Helvetica,sans-Serif" font-size="10.00">&lt; xiiApplicationFileSystem</text>
<text text-anchor="middle" x="331.5" y="-12.5" font-family="Helvetica,sans-Serif" font-size="10.00">Config::DataDirConfig &gt;</text>
</a>
</g>
</g>
<!-- Node0&#45;&gt;Node1 -->
<g id="edge723_Node000000_Node000001" class="edge">
<title>Node0&#45;&gt;Node1</title>
<g id="a_edge723_Node000000_Node000001"><a xlink:title=" ">
<path fill="none" stroke="#63b8ff" d="M231.27,-26C240,-26 248.64,-26 256.97,-26"/>
<polygon fill="#63b8ff" stroke="#63b8ff" points="231,-22.5 221,-26 231,-29.5 231,-22.5"/>
</a>
</g>
</g>
<!-- Node2 -->
<g id="Node000002" class="node">
<title>Node2</title>
<g id="a_Node000002"><a xlink:href="dc/da4/classxii_dynamic_array.html" target="_top" xlink:title=" ">
<polygon fill="white" stroke="#666666" points="621,-46.5 442,-46.5 442,-5.5 621,-5.5 621,-46.5"/>
<text text-anchor="start" x="450" y="-34.5" font-family="Helvetica,sans-Serif" font-size="10.00">xiiDynamicArray&lt; xiiApplication</text>
<text text-anchor="start" x="450" y="-23.5" font-family="Helvetica,sans-Serif" font-size="10.00">FileSystemConfig::DataDirConfig,</text>
<text text-anchor="middle" x="531.5" y="-12.5" font-family="Helvetica,sans-Serif" font-size="10.00"> xiiDefaultAllocatorWrapper &gt;</text>
</a>
</g>
</g>
<!-- Node1&#45;&gt;Node2 -->
<g id="edge724_Node000001_Node000002" class="edge">
<title>Node1&#45;&gt;Node2</title>
<g id="a_edge724_Node000001_Node000002"><a xlink:title=" ">
<path fill="none" stroke="#63b8ff" d="M416.44,-26C424.89,-26 433.49,-26 441.99,-26"/>
<polygon fill="#63b8ff" stroke="#63b8ff" points="416.23,-22.5 406.23,-26 416.23,-29.5 416.23,-22.5"/>
</a>
</g>
</g>
<!-- Node3 -->
<g id="Node000003" class="node">
<title>Node3</title>
<g id="a_Node000003"><a xlink:href="dc/da9/classxii_hybrid_array.html" target="_top" xlink:title=" ">
<polygon fill="white" stroke="#666666" points="856,-41 657,-41 657,-11 856,-11 856,-41"/>
<text text-anchor="start" x="665" y="-29" font-family="Helvetica,sans-Serif" font-size="10.00">xiiHybridArray&lt; xiiApplication</text>
<text text-anchor="middle" x="756.5" y="-18" font-family="Helvetica,sans-Serif" font-size="10.00">FileSystemConfig::DataDirConfig, 4 &gt;</text>
</a>
</g>
</g>
<!-- Node2&#45;&gt;Node3 -->
<g id="edge725_Node000002_Node000003" class="edge">
<title>Node2&#45;&gt;Node3</title>
<g id="a_edge725_Node000002_Node000003"><a xlink:title=" ">
<path fill="none" stroke="#63b8ff" d="M631.46,-26C639.86,-26 648.36,-26 656.76,-26"/>
<polygon fill="#63b8ff" stroke="#63b8ff" points="631.28,-22.5 621.28,-26 631.28,-29.5 631.28,-22.5"/>
</a>
</g>
</g>
</g>
</svg>
