<?xml version="1.0" encoding="UTF-8" standalone="no"?>
<!DOCTYPE svg PUBLIC "-//W3C//DTD SVG 1.1//EN"
 "http://www.w3.org/Graphics/SVG/1.1/DTD/svg11.dtd">
<!-- Generated by graphviz version 2.43.0 (0)
 -->
<!-- Title: Graphical Class Hierarchy Pages: 1 -->
<svg width="766pt" height="49pt"
 viewBox="0.00 0.00 766.00 49.00" xmlns="http://www.w3.org/2000/svg" xmlns:xlink="http://www.w3.org/1999/xlink">
<g id="graph0" class="graph" transform="scale(1 1) rotate(0) translate(4 45)">
<title>Graphical Class Hierarchy</title>
<!-- Node0 -->
<g id="Node000000" class="node">
<title>Node0</title>
<g id="a_Node000000"><a xlink:href="da/d4c/classxii_array_base.html" target="_top" xlink:title=" ">
<polygon fill="white" stroke="#666666" points="175,-41 0,-41 0,0 175,0 175,-41"/>
<text text-anchor="start" x="8" y="-29" font-family="Helvetica,sans-Serif" font-size="10.00">xiiArrayBase&lt; xiiEditorInput</text>
<text text-anchor="start" x="8" y="-18" font-family="Helvetica,sans-Serif" font-size="10.00">Context *, xiiDynamicArrayBase</text>
<text text-anchor="middle" x="87.5" y="-7" font-family="Helvetica,sans-Serif" font-size="10.00">&lt; xiiEditorInputContext * &gt; &gt;</text>
</a>
</g>
</g>
<!-- Node1 -->
<g id="Node000001" class="node">
<title>Node1</title>
<g id="a_Node000001"><a xlink:href="d2/dea/classxii_dynamic_array_base.html" target="_top" xlink:title=" ">
<polygon fill="white" stroke="#666666" points="362,-35.5 211,-35.5 211,-5.5 362,-5.5 362,-35.5"/>
<text text-anchor="start" x="219" y="-23.5" font-family="Helvetica,sans-Serif" font-size="10.00">xiiDynamicArrayBase</text>
<text text-anchor="middle" x="286.5" y="-12.5" font-family="Helvetica,sans-Serif" font-size="10.00">&lt; xiiEditorInputContext * &gt;</text>
</a>
</g>
</g>
<!-- Node0&#45;&gt;Node1 -->
<g id="edge862_Node000000_Node000001" class="edge">
<title>Node0&#45;&gt;Node1</title>
<g id="a_edge862_Node000000_Node000001"><a xlink:title=" ">
<path fill="none" stroke="#63b8ff" d="M185.25,-20.5C193.84,-20.5 202.44,-20.5 210.8,-20.5"/>
<polygon fill="#63b8ff" stroke="#63b8ff" points="185.19,-17 175.19,-20.5 185.19,-24 185.19,-17"/>
</a>
</g>
</g>
<!-- Node2 -->
<g id="Node000002" class="node">
<title>Node2</title>
<g id="a_Node000002"><a xlink:href="dc/da4/classxii_dynamic_array.html" target="_top" xlink:title=" ">
<polygon fill="white" stroke="#666666" points="583,-41 398,-41 398,0 583,0 583,-41"/>
<text text-anchor="start" x="406" y="-29" font-family="Helvetica,sans-Serif" font-size="10.00">xiiDynamicArray&lt; xiiEditor</text>
<text text-anchor="start" x="406" y="-18" font-family="Helvetica,sans-Serif" font-size="10.00">InputContext *, xiiDefaultAllocator</text>
<text text-anchor="middle" x="490.5" y="-7" font-family="Helvetica,sans-Serif" font-size="10.00">Wrapper &gt;</text>
</a>
</g>
</g>
<!-- Node1&#45;&gt;Node2 -->
<g id="edge863_Node000001_Node000002" class="edge">
<title>Node1&#45;&gt;Node2</title>
<g id="a_edge863_Node000001_Node000002"><a xlink:title=" ">
<path fill="none" stroke="#63b8ff" d="M372.29,-20.5C380.68,-20.5 389.23,-20.5 397.69,-20.5"/>
<polygon fill="#63b8ff" stroke="#63b8ff" points="372.14,-17 362.14,-20.5 372.14,-24 372.14,-17"/>
</a>
</g>
</g>
<!-- Node3 -->
<g id="Node000003" class="node">
<title>Node3</title>
<g id="a_Node000003"><a xlink:href="dc/da9/classxii_hybrid_array.html" target="_top" xlink:title=" ">
<polygon fill="white" stroke="#666666" points="758,-35.5 619,-35.5 619,-5.5 758,-5.5 758,-35.5"/>
<text text-anchor="start" x="627" y="-23.5" font-family="Helvetica,sans-Serif" font-size="10.00">xiiHybridArray&lt; xiiEditor</text>
<text text-anchor="middle" x="688.5" y="-12.5" font-family="Helvetica,sans-Serif" font-size="10.00">InputContext *, 8 &gt;</text>
</a>
</g>
</g>
<!-- Node2&#45;&gt;Node3 -->
<g id="edge864_Node000002_Node000003" class="edge">
<title>Node2&#45;&gt;Node3</title>
<g id="a_edge864_Node000002_Node000003"><a xlink:title=" ">
<path fill="none" stroke="#63b8ff" d="M593.29,-20.5C601.89,-20.5 610.46,-20.5 618.72,-20.5"/>
<polygon fill="#63b8ff" stroke="#63b8ff" points="593.19,-17 583.19,-20.5 593.19,-24 593.19,-17"/>
</a>
</g>
</g>
</g>
</svg>
