<?xml version="1.0" encoding="UTF-8" standalone="no"?>
<!DOCTYPE svg PUBLIC "-//W3C//DTD SVG 1.1//EN"
 "http://www.w3.org/Graphics/SVG/1.1/DTD/svg11.dtd">
<!-- Generated by graphviz version 2.43.0 (0)
 -->
<!-- Title: Graphical Class Hierarchy Pages: 1 -->
<svg width="664pt" height="60pt"
 viewBox="0.00 0.00 664.00 60.00" xmlns="http://www.w3.org/2000/svg" xmlns:xlink="http://www.w3.org/1999/xlink">
<g id="graph0" class="graph" transform="scale(1 1) rotate(0) translate(4 56)">
<title>Graphical Class Hierarchy</title>
<!-- Node0 -->
<g id="Node000000" class="node">
<title>Node0</title>
<g id="a_Node000000"><a xlink:href="da/d4c/classxii_array_base.html" target="_top" xlink:title=" ">
<polygon fill="white" stroke="#666666" points="236,-52 0,-52 0,0 236,0 236,-52"/>
<text text-anchor="start" x="8" y="-40" font-family="Helvetica,sans-Serif" font-size="10.00">xiiArrayBase&lt; xiiWorldModule</text>
<text text-anchor="start" x="8" y="-29" font-family="Helvetica,sans-Serif" font-size="10.00">::UpdateFunctionDesc, xiiDynamic</text>
<text text-anchor="start" x="8" y="-18" font-family="Helvetica,sans-Serif" font-size="10.00">ArrayBase&lt; xiiWorldModule::UpdateFunction</text>
<text text-anchor="middle" x="118" y="-7" font-family="Helvetica,sans-Serif" font-size="10.00">Desc &gt; &gt;</text>
</a>
</g>
</g>
<!-- Node1 -->
<g id="Node000001" class="node">
<title>Node1</title>
<g id="a_Node000001"><a xlink:href="d2/dea/classxii_dynamic_array_base.html" target="_top" xlink:title=" ">
<polygon fill="white" stroke="#666666" points="458,-46.5 272,-46.5 272,-5.5 458,-5.5 458,-46.5"/>
<text text-anchor="start" x="280" y="-34.5" font-family="Helvetica,sans-Serif" font-size="10.00">xiiDynamicArrayBase</text>
<text text-anchor="start" x="280" y="-23.5" font-family="Helvetica,sans-Serif" font-size="10.00">&lt; xiiWorldModule::UpdateFunction</text>
<text text-anchor="middle" x="365" y="-12.5" font-family="Helvetica,sans-Serif" font-size="10.00">Desc &gt;</text>
</a>
</g>
</g>
<!-- Node0&#45;&gt;Node1 -->
<g id="edge1444_Node000000_Node000001" class="edge">
<title>Node0&#45;&gt;Node1</title>
<g id="a_edge1444_Node000000_Node000001"><a xlink:title=" ">
<path fill="none" stroke="#63b8ff" d="M246.19,-26C254.77,-26 263.32,-26 271.67,-26"/>
<polygon fill="#63b8ff" stroke="#63b8ff" points="246.12,-22.5 236.12,-26 246.12,-29.5 246.12,-22.5"/>
</a>
</g>
</g>
<!-- Node2 -->
<g id="Node000002" class="node">
<title>Node2</title>
<g id="a_Node000002"><a xlink:href="dc/da4/classxii_dynamic_array.html" target="_top" xlink:title=" ">
<polygon fill="white" stroke="#666666" points="656,-46.5 494,-46.5 494,-5.5 656,-5.5 656,-46.5"/>
<text text-anchor="start" x="502" y="-34.5" font-family="Helvetica,sans-Serif" font-size="10.00">xiiDynamicArray&lt; xiiWorld</text>
<text text-anchor="start" x="502" y="-23.5" font-family="Helvetica,sans-Serif" font-size="10.00">Module::UpdateFunctionDesc,</text>
<text text-anchor="middle" x="575" y="-12.5" font-family="Helvetica,sans-Serif" font-size="10.00"> xiiLocalAllocatorWrapper &gt;</text>
</a>
</g>
</g>
<!-- Node1&#45;&gt;Node2 -->
<g id="edge1445_Node000001_Node000002" class="edge">
<title>Node1&#45;&gt;Node2</title>
<g id="a_edge1445_Node000001_Node000002"><a xlink:title=" ">
<path fill="none" stroke="#63b8ff" d="M468.26,-26C476.9,-26 485.56,-26 493.99,-26"/>
<polygon fill="#63b8ff" stroke="#63b8ff" points="468.14,-22.5 458.14,-26 468.14,-29.5 468.14,-22.5"/>
</a>
</g>
</g>
</g>
</svg>
