<?xml version="1.0" encoding="UTF-8" standalone="no"?>
<!DOCTYPE svg PUBLIC "-//W3C//DTD SVG 1.1//EN"
 "http://www.w3.org/Graphics/SVG/1.1/DTD/svg11.dtd">
<!-- Generated by graphviz version 2.43.0 (0)
 -->
<!-- Title: Graphical Class Hierarchy Pages: 1 -->
<svg width="663pt" height="49pt"
 viewBox="0.00 0.00 663.00 49.00" xmlns="http://www.w3.org/2000/svg" xmlns:xlink="http://www.w3.org/1999/xlink">
<g id="graph0" class="graph" transform="scale(1 1) rotate(0) translate(4 45)">
<title>Graphical Class Hierarchy</title>
<!-- Node0 -->
<g id="Node000000" class="node">
<title>Node0</title>
<g id="a_Node000000"><a xlink:href="da/d4c/classxii_array_base.html" target="_top" xlink:title=" ">
<polygon fill="white" stroke="#666666" points="219,-41 0,-41 0,0 219,0 219,-41"/>
<text text-anchor="start" x="8" y="-29" font-family="Helvetica,sans-Serif" font-size="10.00">xiiArrayBase&lt; xiiDGMLGraph</text>
<text text-anchor="start" x="8" y="-18" font-family="Helvetica,sans-Serif" font-size="10.00">::PropertyValue, xiiDynamicArray</text>
<text text-anchor="middle" x="109.5" y="-7" font-family="Helvetica,sans-Serif" font-size="10.00">Base&lt; xiiDGMLGraph::PropertyValue &gt; &gt;</text>
</a>
</g>
</g>
<!-- Node1 -->
<g id="Node000001" class="node">
<title>Node1</title>
<g id="a_Node000001"><a xlink:href="d2/dea/classxii_dynamic_array_base.html" target="_top" xlink:title=" ">
<polygon fill="white" stroke="#666666" points="439,-35.5 255,-35.5 255,-5.5 439,-5.5 439,-35.5"/>
<text text-anchor="start" x="263" y="-23.5" font-family="Helvetica,sans-Serif" font-size="10.00">xiiDynamicArrayBase</text>
<text text-anchor="middle" x="347" y="-12.5" font-family="Helvetica,sans-Serif" font-size="10.00">&lt; xiiDGMLGraph::PropertyValue &gt;</text>
</a>
</g>
</g>
<!-- Node0&#45;&gt;Node1 -->
<g id="edge799_Node000000_Node000001" class="edge">
<title>Node0&#45;&gt;Node1</title>
<g id="a_edge799_Node000000_Node000001"><a xlink:title=" ">
<path fill="none" stroke="#63b8ff" d="M229.37,-20.5C237.97,-20.5 246.56,-20.5 254.96,-20.5"/>
<polygon fill="#63b8ff" stroke="#63b8ff" points="229.29,-17 219.29,-20.5 229.29,-24 229.29,-17"/>
</a>
</g>
</g>
<!-- Node2 -->
<g id="Node000002" class="node">
<title>Node2</title>
<g id="a_Node000002"><a xlink:href="dc/da4/classxii_dynamic_array.html" target="_top" xlink:title=" ">
<polygon fill="white" stroke="#666666" points="655,-35.5 475,-35.5 475,-5.5 655,-5.5 655,-35.5"/>
<text text-anchor="start" x="483" y="-23.5" font-family="Helvetica,sans-Serif" font-size="10.00">xiiDynamicArray&lt; xiiDGMLGraph</text>
<text text-anchor="middle" x="565" y="-12.5" font-family="Helvetica,sans-Serif" font-size="10.00">::PropertyValue &gt;</text>
</a>
</g>
</g>
<!-- Node1&#45;&gt;Node2 -->
<g id="edge800_Node000001_Node000002" class="edge">
<title>Node1&#45;&gt;Node2</title>
<g id="a_edge800_Node000001_Node000002"><a xlink:title=" ">
<path fill="none" stroke="#63b8ff" d="M449.53,-20.5C457.96,-20.5 466.43,-20.5 474.76,-20.5"/>
<polygon fill="#63b8ff" stroke="#63b8ff" points="449.29,-17 439.29,-20.5 449.29,-24 449.29,-17"/>
</a>
</g>
</g>
</g>
</svg>
