<?xml version="1.0" encoding="UTF-8" standalone="no"?>
<!DOCTYPE svg PUBLIC "-//W3C//DTD SVG 1.1//EN"
 "http://www.w3.org/Graphics/SVG/1.1/DTD/svg11.dtd">
<!-- Generated by graphviz version 2.43.0 (0)
 -->
<!-- Title: Graphical Class Hierarchy Pages: 1 -->
<svg width="772pt" height="49pt"
 viewBox="0.00 0.00 772.00 49.00" xmlns="http://www.w3.org/2000/svg" xmlns:xlink="http://www.w3.org/1999/xlink">
<g id="graph0" class="graph" transform="scale(1 1) rotate(0) translate(4 45)">
<title>Graphical Class Hierarchy</title>
<!-- Node0 -->
<g id="Node000000" class="node">
<title>Node0</title>
<g id="a_Node000000"><a xlink:href="da/d4c/classxii_array_base.html" target="_top" xlink:title=" ">
<polygon fill="white" stroke="#666666" points="164,-41 0,-41 0,0 164,0 164,-41"/>
<text text-anchor="start" x="8" y="-29" font-family="Helvetica,sans-Serif" font-size="10.00">xiiArrayBase&lt; xiiGALSwap</text>
<text text-anchor="start" x="8" y="-18" font-family="Helvetica,sans-Serif" font-size="10.00">Chain *, xiiDynamicArrayBase</text>
<text text-anchor="middle" x="82" y="-7" font-family="Helvetica,sans-Serif" font-size="10.00">&lt; xiiGALSwapChain * &gt; &gt;</text>
</a>
</g>
</g>
<!-- Node1 -->
<g id="Node000001" class="node">
<title>Node1</title>
<g id="a_Node000001"><a xlink:href="d2/dea/classxii_dynamic_array_base.html" target="_top" xlink:title=" ">
<polygon fill="white" stroke="#666666" points="333,-35.5 200,-35.5 200,-5.5 333,-5.5 333,-35.5"/>
<text text-anchor="start" x="208" y="-23.5" font-family="Helvetica,sans-Serif" font-size="10.00">xiiDynamicArrayBase</text>
<text text-anchor="middle" x="266.5" y="-12.5" font-family="Helvetica,sans-Serif" font-size="10.00">&lt; xiiGALSwapChain * &gt;</text>
</a>
</g>
</g>
<!-- Node0&#45;&gt;Node1 -->
<g id="edge949_Node000000_Node000001" class="edge">
<title>Node0&#45;&gt;Node1</title>
<g id="a_edge949_Node000000_Node000001"><a xlink:title=" ">
<path fill="none" stroke="#63b8ff" d="M174.27,-20.5C182.94,-20.5 191.61,-20.5 199.96,-20.5"/>
<polygon fill="#63b8ff" stroke="#63b8ff" points="174.11,-17 164.11,-20.5 174.11,-24 174.11,-17"/>
</a>
</g>
</g>
<!-- Node2 -->
<g id="Node000002" class="node">
<title>Node2</title>
<g id="a_Node000002"><a xlink:href="dc/da4/classxii_dynamic_array.html" target="_top" xlink:title=" ">
<polygon fill="white" stroke="#666666" points="572,-35.5 369,-35.5 369,-5.5 572,-5.5 572,-35.5"/>
<text text-anchor="start" x="377" y="-23.5" font-family="Helvetica,sans-Serif" font-size="10.00">xiiDynamicArray&lt; xiiGALSwap</text>
<text text-anchor="middle" x="470.5" y="-12.5" font-family="Helvetica,sans-Serif" font-size="10.00">Chain *, xiiDefaultAllocatorWrapper &gt;</text>
</a>
</g>
</g>
<!-- Node1&#45;&gt;Node2 -->
<g id="edge950_Node000001_Node000002" class="edge">
<title>Node1&#45;&gt;Node2</title>
<g id="a_edge950_Node000001_Node000002"><a xlink:title=" ">
<path fill="none" stroke="#63b8ff" d="M343.13,-20.5C351.48,-20.5 360.08,-20.5 368.67,-20.5"/>
<polygon fill="#63b8ff" stroke="#63b8ff" points="343.08,-17 333.08,-20.5 343.08,-24 343.08,-17"/>
</a>
</g>
</g>
<!-- Node3 -->
<g id="Node000003" class="node">
<title>Node3</title>
<g id="a_Node000003"><a xlink:href="dc/da9/classxii_hybrid_array.html" target="_top" xlink:title=" ">
<polygon fill="white" stroke="#666666" points="764,-35.5 608,-35.5 608,-5.5 764,-5.5 764,-35.5"/>
<text text-anchor="start" x="616" y="-23.5" font-family="Helvetica,sans-Serif" font-size="10.00">xiiHybridArray&lt; xiiGALSwap</text>
<text text-anchor="middle" x="686" y="-12.5" font-family="Helvetica,sans-Serif" font-size="10.00">Chain *, 8U &gt;</text>
</a>
</g>
</g>
<!-- Node2&#45;&gt;Node3 -->
<g id="edge951_Node000002_Node000003" class="edge">
<title>Node2&#45;&gt;Node3</title>
<g id="a_edge951_Node000002_Node000003"><a xlink:title=" ">
<path fill="none" stroke="#63b8ff" d="M582.43,-20.5C591.05,-20.5 599.64,-20.5 607.96,-20.5"/>
<polygon fill="#63b8ff" stroke="#63b8ff" points="582.31,-17 572.31,-20.5 582.31,-24 582.31,-17"/>
</a>
</g>
</g>
</g>
</svg>
