<?xml version="1.0" encoding="UTF-8" standalone="no"?>
<!DOCTYPE svg PUBLIC "-//W3C//DTD SVG 1.1//EN"
 "http://www.w3.org/Graphics/SVG/1.1/DTD/svg11.dtd">
<!-- Generated by graphviz version 2.43.0 (0)
 -->
<!-- Title: Graphical Class Hierarchy Pages: 1 -->
<svg width="734pt" height="60pt"
 viewBox="0.00 0.00 734.00 60.00" xmlns="http://www.w3.org/2000/svg" xmlns:xlink="http://www.w3.org/1999/xlink">
<g id="graph0" class="graph" transform="scale(1 1) rotate(0) translate(4 56)">
<title>Graphical Class Hierarchy</title>
<!-- Node0 -->
<g id="Node000000" class="node">
<title>Node0</title>
<g id="a_Node000000"><a xlink:href="da/d4c/classxii_array_base.htm" target="_top" xlink:title=" ">
<polygon fill="white" stroke="#666666" points="260,-52 0,-52 0,0 260,0 260,-52"/>
<text text-anchor="start" x="8" y="-40" font-family="Helvetica,sans-Serif" font-size="10.00">xiiArrayBase&lt; xiiGALRayTracing</text>
<text text-anchor="start" x="8" y="-29" font-family="Helvetica,sans-Serif" font-size="10.00">TriangleHitShaderGroupDescription,</text>
<text text-anchor="start" x="8" y="-18" font-family="Helvetica,sans-Serif" font-size="10.00"> xiiDynamicArrayBase&lt; xiiGALRayTracingTriangle</text>
<text text-anchor="middle" x="130" y="-7" font-family="Helvetica,sans-Serif" font-size="10.00">HitShaderGroupDescription &gt; &gt;</text>
</a>
</g>
</g>
<!-- Node1 -->
<g id="Node000001" class="node">
<title>Node1</title>
<g id="a_Node000001"><a xlink:href="d2/dea/classxii_dynamic_array_base.htm" target="_top" xlink:title=" ">
<polygon fill="white" stroke="#666666" points="457,-46.5 296,-46.5 296,-5.5 457,-5.5 457,-46.5"/>
<text text-anchor="start" x="304" y="-34.5" font-family="Helvetica,sans-Serif" font-size="10.00">xiiDynamicArrayBase</text>
<text text-anchor="start" x="304" y="-23.5" font-family="Helvetica,sans-Serif" font-size="10.00">&lt; xiiGALRayTracingTriangle</text>
<text text-anchor="middle" x="376.5" y="-12.5" font-family="Helvetica,sans-Serif" font-size="10.00">HitShaderGroupDescription &gt;</text>
</a>
</g>
</g>
<!-- Node0&#45;&gt;Node1 -->
<g id="edge900_Node000000_Node000001" class="edge">
<title>Node0&#45;&gt;Node1</title>
<g id="a_edge900_Node000000_Node000001"><a xlink:title=" ">
<path fill="none" stroke="#63b8ff" d="M270.29,-26C278.97,-26 287.53,-26 295.8,-26"/>
<polygon fill="#63b8ff" stroke="#63b8ff" points="270.05,-22.5 260.05,-26 270.05,-29.5 270.05,-22.5"/>
</a>
</g>
</g>
<!-- Node2 -->
<g id="Node000002" class="node">
<title>Node2</title>
<g id="a_Node000002"><a xlink:href="dc/da4/classxii_dynamic_array.htm" target="_top" xlink:title=" ">
<polygon fill="white" stroke="#666666" points="726,-41 493,-41 493,-11 726,-11 726,-41"/>
<text text-anchor="start" x="501" y="-29" font-family="Helvetica,sans-Serif" font-size="10.00">xiiDynamicArray&lt; xiiGALRay</text>
<text text-anchor="middle" x="609.5" y="-18" font-family="Helvetica,sans-Serif" font-size="10.00">TracingTriangleHitShaderGroupDescription &gt;</text>
</a>
</g>
</g>
<!-- Node1&#45;&gt;Node2 -->
<g id="edge901_Node000001_Node000002" class="edge">
<title>Node1&#45;&gt;Node2</title>
<g id="a_edge901_Node000001_Node000002"><a xlink:title=" ">
<path fill="none" stroke="#63b8ff" d="M467.39,-26C475.73,-26 484.26,-26 492.79,-26"/>
<polygon fill="#63b8ff" stroke="#63b8ff" points="467.32,-22.5 457.32,-26 467.32,-29.5 467.32,-22.5"/>
</a>
</g>
</g>
</g>
</svg>
