<?xml version="1.0" encoding="UTF-8" standalone="no"?>
<!DOCTYPE svg PUBLIC "-//W3C//DTD SVG 1.1//EN"
 "http://www.w3.org/Graphics/SVG/1.1/DTD/svg11.dtd">
<!-- Generated by graphviz version 2.43.0 (0)
 -->
<!-- Title: Graphical Class Hierarchy Pages: 1 -->
<svg width="286pt" height="116pt"
 viewBox="0.00 0.00 286.00 116.00" xmlns="http://www.w3.org/2000/svg" xmlns:xlink="http://www.w3.org/1999/xlink">
<g id="graph0" class="graph" transform="scale(1 1) rotate(0) translate(4 112)">
<title>Graphical Class Hierarchy</title>
<polygon fill="white" stroke="transparent" points="-4,4 -4,-112 282,-112 282,4 -4,4"/>
<!-- Node0 -->
<g id="node1" class="node">
<title>Node0</title>
<g id="a_node1"><a xlink:href="d9/d91/classxii_image_filter.htm" target="_top" xlink:title="Represents a function used for filtering an image.">
<polygon fill="white" stroke="black" points="0,-44.5 0,-63.5 84,-63.5 84,-44.5 0,-44.5"/>
<text text-anchor="middle" x="42" y="-51.5" font-family="Helvetica,sans-Serif" font-size="10.00">xiiImageFilter</text>
</a>
</g>
</g>
<!-- Node1 -->
<g id="node2" class="node">
<title>Node1</title>
<g id="a_node2"><a xlink:href="dd/d3f/classxii_image_filter_box.htm" target="_top" xlink:title="Box filter.">
<polygon fill="white" stroke="black" points="147.5,-88.5 147.5,-107.5 250.5,-107.5 250.5,-88.5 147.5,-88.5"/>
<text text-anchor="middle" x="199" y="-95.5" font-family="Helvetica,sans-Serif" font-size="10.00">xiiImageFilterBox</text>
</a>
</g>
</g>
<!-- Node0&#45;&gt;Node1 -->
<g id="edge1" class="edge">
<title>Node0&#45;&gt;Node1</title>
<path fill="none" stroke="midnightblue" d="M80.32,-66.74C92.87,-70.86 106.98,-75.31 120,-79 131.67,-82.31 144.41,-85.56 156.15,-88.42"/>
<polygon fill="midnightblue" stroke="midnightblue" points="81.24,-63.36 70.65,-63.53 79.04,-70 81.24,-63.36"/>
</g>
<!-- Node2 -->
<g id="node3" class="node">
<title>Node2</title>
<g id="a_node3"><a xlink:href="d4/da5/classxii_image_filter_sinc_with_kaiser_window.htm" target="_top" xlink:title="Kaiser&#45;windowed sinc filter.">
<polygon fill="white" stroke="black" points="120,-39 120,-69 278,-69 278,-39 120,-39"/>
<text text-anchor="start" x="128" y="-57" font-family="Helvetica,sans-Serif" font-size="10.00">xiiImageFilterSincWithKaiser</text>
<text text-anchor="middle" x="199" y="-46" font-family="Helvetica,sans-Serif" font-size="10.00">Window</text>
</a>
</g>
</g>
<!-- Node0&#45;&gt;Node2 -->
<g id="edge2" class="edge">
<title>Node0&#45;&gt;Node2</title>
<path fill="none" stroke="midnightblue" d="M94.26,-54C102.47,-54 111.12,-54 119.79,-54"/>
<polygon fill="midnightblue" stroke="midnightblue" points="94.13,-50.5 84.13,-54 94.13,-57.5 94.13,-50.5"/>
</g>
<!-- Node3 -->
<g id="node4" class="node">
<title>Node3</title>
<g id="a_node4"><a xlink:href="d8/d87/classxii_image_filter_triangle.htm" target="_top" xlink:title="Triangle filter.">
<polygon fill="white" stroke="black" points="138,-0.5 138,-19.5 260,-19.5 260,-0.5 138,-0.5"/>
<text text-anchor="middle" x="199" y="-7.5" font-family="Helvetica,sans-Serif" font-size="10.00">xiiImageFilterTriangle</text>
</a>
</g>
</g>
<!-- Node0&#45;&gt;Node3 -->
<g id="edge3" class="edge">
<title>Node0&#45;&gt;Node3</title>
<path fill="none" stroke="midnightblue" d="M82.29,-41.33C94.35,-37.55 107.69,-33.49 120,-30 132.64,-26.41 146.52,-22.76 159.01,-19.58"/>
<polygon fill="midnightblue" stroke="midnightblue" points="81,-38.07 72.51,-44.41 83.1,-44.74 81,-38.07"/>
</g>
</g>
</svg>
