<?xml version="1.0" encoding="UTF-8" standalone="no"?>
<!DOCTYPE svg PUBLIC "-//W3C//DTD SVG 1.1//EN"
 "http://www.w3.org/Graphics/SVG/1.1/DTD/svg11.dtd">
<!-- Generated by graphviz version 2.43.0 (0)
 -->
<!-- Title: Graphical Class Hierarchy Pages: 1 -->
<svg width="808pt" height="60pt"
 viewBox="0.00 0.00 808.00 60.00" xmlns="http://www.w3.org/2000/svg" xmlns:xlink="http://www.w3.org/1999/xlink">
<g id="graph0" class="graph" transform="scale(1 1) rotate(0) translate(4 56)">
<title>Graphical Class Hierarchy</title>
<!-- Node0 -->
<g id="Node000000" class="node">
<title>Node0</title>
<g id="a_Node000000"><a xlink:href="da/d4c/classxii_array_base.htm" target="_top" xlink:title=" ">
<polygon fill="white" stroke="#666666" points="197,-52 0,-52 0,0 197,0 197,-52"/>
<text text-anchor="start" x="8" y="-40" font-family="Helvetica,sans-Serif" font-size="10.00">xiiArrayBase&lt; xiiUniquePtr</text>
<text text-anchor="start" x="8" y="-29" font-family="Helvetica,sans-Serif" font-size="10.00">&lt; xiiActorApiService &gt;,</text>
<text text-anchor="start" x="8" y="-18" font-family="Helvetica,sans-Serif" font-size="10.00"> xiiDynamicArrayBase&lt; xiiUniquePtr</text>
<text text-anchor="middle" x="98.5" y="-7" font-family="Helvetica,sans-Serif" font-size="10.00">&lt; xiiActorApiService &gt; &gt; &gt;</text>
</a>
</g>
</g>
<!-- Node1 -->
<g id="Node000001" class="node">
<title>Node1</title>
<g id="a_Node000001"><a xlink:href="d2/dea/classxii_dynamic_array_base.htm" target="_top" xlink:title=" ">
<polygon fill="white" stroke="#666666" points="385,-46.5 233,-46.5 233,-5.5 385,-5.5 385,-46.5"/>
<text text-anchor="start" x="241" y="-34.5" font-family="Helvetica,sans-Serif" font-size="10.00">xiiDynamicArrayBase</text>
<text text-anchor="start" x="241" y="-23.5" font-family="Helvetica,sans-Serif" font-size="10.00">&lt; xiiUniquePtr&lt; xiiActorApi</text>
<text text-anchor="middle" x="309" y="-12.5" font-family="Helvetica,sans-Serif" font-size="10.00">Service &gt; &gt;</text>
</a>
</g>
</g>
<!-- Node0&#45;&gt;Node1 -->
<g id="edge1334_Node000000_Node000001" class="edge">
<title>Node0&#45;&gt;Node1</title>
<g id="a_edge1334_Node000000_Node000001"><a xlink:title=" ">
<path fill="none" stroke="#63b8ff" d="M207.24,-26C215.94,-26 224.6,-26 232.99,-26"/>
<polygon fill="#63b8ff" stroke="#63b8ff" points="207.03,-22.5 197.03,-26 207.03,-29.5 207.03,-22.5"/>
</a>
</g>
</g>
<!-- Node2 -->
<g id="Node000002" class="node">
<title>Node2</title>
<g id="a_Node000002"><a xlink:href="dc/da4/classxii_dynamic_array.htm" target="_top" xlink:title=" ">
<polygon fill="white" stroke="#666666" points="599,-46.5 421,-46.5 421,-5.5 599,-5.5 599,-46.5"/>
<text text-anchor="start" x="429" y="-34.5" font-family="Helvetica,sans-Serif" font-size="10.00">xiiDynamicArray&lt; xiiUnique</text>
<text text-anchor="start" x="429" y="-23.5" font-family="Helvetica,sans-Serif" font-size="10.00">Ptr&lt; xiiActorApiService</text>
<text text-anchor="middle" x="510" y="-12.5" font-family="Helvetica,sans-Serif" font-size="10.00"> &gt;, xiiDefaultAllocatorWrapper &gt;</text>
</a>
</g>
</g>
<!-- Node1&#45;&gt;Node2 -->
<g id="edge1335_Node000001_Node000002" class="edge">
<title>Node1&#45;&gt;Node2</title>
<g id="a_edge1335_Node000001_Node000002"><a xlink:title=" ">
<path fill="none" stroke="#63b8ff" d="M395.45,-26C403.9,-26 412.49,-26 420.96,-26"/>
<polygon fill="#63b8ff" stroke="#63b8ff" points="395.23,-22.5 385.23,-26 395.23,-29.5 395.23,-22.5"/>
</a>
</g>
</g>
<!-- Node3 -->
<g id="Node000003" class="node">
<title>Node3</title>
<g id="a_Node000003"><a xlink:href="dc/da9/classxii_hybrid_array.htm" target="_top" xlink:title=" ">
<polygon fill="white" stroke="#666666" points="800,-41 635,-41 635,-11 800,-11 800,-41"/>
<text text-anchor="start" x="643" y="-29" font-family="Helvetica,sans-Serif" font-size="10.00">xiiHybridArray&lt; xiiUnique</text>
<text text-anchor="middle" x="717.5" y="-18" font-family="Helvetica,sans-Serif" font-size="10.00">Ptr&lt; xiiActorApiService &gt;, 8 &gt;</text>
</a>
</g>
</g>
<!-- Node2&#45;&gt;Node3 -->
<g id="edge1336_Node000002_Node000003" class="edge">
<title>Node2&#45;&gt;Node3</title>
<g id="a_edge1336_Node000002_Node000003"><a xlink:title=" ">
<path fill="none" stroke="#63b8ff" d="M609.11,-26C617.72,-26 626.37,-26 634.82,-26"/>
<polygon fill="#63b8ff" stroke="#63b8ff" points="609.04,-22.5 599.04,-26 609.04,-29.5 609.04,-22.5"/>
</a>
</g>
</g>
</g>
</svg>
