<?xml version="1.0" encoding="UTF-8" standalone="no"?>
<!DOCTYPE svg PUBLIC "-//W3C//DTD SVG 1.1//EN"
 "http://www.w3.org/Graphics/SVG/1.1/DTD/svg11.dtd">
<!-- Generated by graphviz version 2.43.0 (0)
 -->
<!-- Title: Graphical Class Hierarchy Pages: 1 -->
<svg width="763pt" height="49pt"
 viewBox="0.00 0.00 763.00 49.00" xmlns="http://www.w3.org/2000/svg" xmlns:xlink="http://www.w3.org/1999/xlink">
<g id="graph0" class="graph" transform="scale(1 1) rotate(0) translate(4 45)">
<title>Graphical Class Hierarchy</title>
<!-- Node0 -->
<g id="Node000000" class="node">
<title>Node0</title>
<g id="a_Node000000"><a xlink:href="da/d4c/classxii_array_base.htm" target="_top" xlink:title=" ">
<polygon fill="white" stroke="#666666" points="186,-41 0,-41 0,0 186,0 186,-41"/>
<text text-anchor="start" x="8" y="-29" font-family="Helvetica,sans-Serif" font-size="10.00">xiiArrayBase&lt; xiiExpression</text>
<text text-anchor="start" x="8" y="-18" font-family="Helvetica,sans-Serif" font-size="10.00">AST::Node *, xiiDynamicArrayBase</text>
<text text-anchor="middle" x="93" y="-7" font-family="Helvetica,sans-Serif" font-size="10.00">&lt; xiiExpressionAST::Node * &gt; &gt;</text>
</a>
</g>
</g>
<!-- Node1 -->
<g id="Node000001" class="node">
<title>Node1</title>
<g id="a_Node000001"><a xlink:href="d2/dea/classxii_dynamic_array_base.htm" target="_top" xlink:title=" ">
<polygon fill="white" stroke="#666666" points="344,-41 222,-41 222,0 344,0 344,-41"/>
<text text-anchor="start" x="230" y="-29" font-family="Helvetica,sans-Serif" font-size="10.00">xiiDynamicArrayBase</text>
<text text-anchor="start" x="230" y="-18" font-family="Helvetica,sans-Serif" font-size="10.00">&lt; xiiExpressionAST::</text>
<text text-anchor="middle" x="283" y="-7" font-family="Helvetica,sans-Serif" font-size="10.00">Node * &gt;</text>
</a>
</g>
</g>
<!-- Node0&#45;&gt;Node1 -->
<g id="edge853_Node000000_Node000001" class="edge">
<title>Node0&#45;&gt;Node1</title>
<g id="a_edge853_Node000000_Node000001"><a xlink:title=" ">
<path fill="none" stroke="#63b8ff" d="M196.35,-20.5C205.08,-20.5 213.71,-20.5 221.94,-20.5"/>
<polygon fill="#63b8ff" stroke="#63b8ff" points="196.07,-17 186.07,-20.5 196.07,-24 196.07,-17"/>
</a>
</g>
</g>
<!-- Node2 -->
<g id="Node000002" class="node">
<title>Node2</title>
<g id="a_Node000002"><a xlink:href="dc/da4/classxii_dynamic_array.htm" target="_top" xlink:title=" ">
<polygon fill="white" stroke="#666666" points="555,-41 380,-41 380,0 555,0 555,-41"/>
<text text-anchor="start" x="388" y="-29" font-family="Helvetica,sans-Serif" font-size="10.00">xiiDynamicArray&lt; xiiExpression</text>
<text text-anchor="start" x="388" y="-18" font-family="Helvetica,sans-Serif" font-size="10.00">AST::Node *, xiiDefaultAllocator</text>
<text text-anchor="middle" x="467.5" y="-7" font-family="Helvetica,sans-Serif" font-size="10.00">Wrapper &gt;</text>
</a>
</g>
</g>
<!-- Node1&#45;&gt;Node2 -->
<g id="edge854_Node000001_Node000002" class="edge">
<title>Node1&#45;&gt;Node2</title>
<g id="a_edge854_Node000001_Node000002"><a xlink:title=" ">
<path fill="none" stroke="#63b8ff" d="M354.09,-20.5C362.47,-20.5 371.1,-20.5 379.68,-20.5"/>
<polygon fill="#63b8ff" stroke="#63b8ff" points="354.01,-17 344.01,-20.5 354.01,-24 354.01,-17"/>
</a>
</g>
</g>
<!-- Node3 -->
<g id="Node000003" class="node">
<title>Node3</title>
<g id="a_Node000003"><a xlink:href="dc/da9/classxii_hybrid_array.htm" target="_top" xlink:title=" ">
<polygon fill="white" stroke="#666666" points="755,-35.5 591,-35.5 591,-5.5 755,-5.5 755,-35.5"/>
<text text-anchor="start" x="599" y="-23.5" font-family="Helvetica,sans-Serif" font-size="10.00">xiiHybridArray&lt; xiiExpression</text>
<text text-anchor="middle" x="673" y="-12.5" font-family="Helvetica,sans-Serif" font-size="10.00">AST::Node *, 64 &gt;</text>
</a>
</g>
</g>
<!-- Node2&#45;&gt;Node3 -->
<g id="edge855_Node000002_Node000003" class="edge">
<title>Node2&#45;&gt;Node3</title>
<g id="a_edge855_Node000002_Node000003"><a xlink:title=" ">
<path fill="none" stroke="#63b8ff" d="M565.19,-20.5C573.82,-20.5 582.5,-20.5 590.97,-20.5"/>
<polygon fill="#63b8ff" stroke="#63b8ff" points="565.1,-17 555.1,-20.5 565.1,-24 565.1,-17"/>
</a>
</g>
</g>
</g>
</svg>
