<?xml version="1.0" encoding="UTF-8" standalone="no"?>
<!DOCTYPE svg PUBLIC "-//W3C//DTD SVG 1.1//EN"
 "http://www.w3.org/Graphics/SVG/1.1/DTD/svg11.dtd">
<!-- Generated by graphviz version 2.43.0 (0)
 -->
<!-- Title: Graphical Class Hierarchy Pages: 1 -->
<svg width="521pt" height="72pt"
 viewBox="0.00 0.00 521.00 71.50" xmlns="http://www.w3.org/2000/svg" xmlns:xlink="http://www.w3.org/1999/xlink">
<g id="graph0" class="graph" transform="scale(1 1) rotate(0) translate(4 67.5)">
<title>Graphical Class Hierarchy</title>
<polygon fill="white" stroke="transparent" points="-4,4 -4,-67.5 517,-67.5 517,4 -4,4"/>
<!-- Node0 -->
<g id="node1" class="node">
<title>Node0</title>
<g id="a_node1"><a xlink:href="d3/da7/classxii_document_object_mirror.htm" target="_top" xlink:title=" ">
<polygon fill="white" stroke="black" points="0,-19.5 0,-38.5 140,-38.5 140,-19.5 0,-19.5"/>
<text text-anchor="middle" x="70" y="-26.5" font-family="Helvetica,sans-Serif" font-size="10.00">xiiDocumentObjectMirror</text>
</a>
</g>
</g>
<!-- Node1 -->
<g id="node2" class="node">
<title>Node1</title>
<g id="a_node2"><a xlink:href="d2/d16/classxii_i_p_c_object_mirror_editor.htm" target="_top" xlink:title="An object mirror that mirrors across IPC to the engine process.">
<polygon fill="white" stroke="black" points="178,-38.5 178,-57.5 312,-57.5 312,-38.5 178,-38.5"/>
<text text-anchor="middle" x="245" y="-45.5" font-family="Helvetica,sans-Serif" font-size="10.00">xiiIPCObjectMirrorEditor</text>
</a>
</g>
</g>
<!-- Node0&#45;&gt;Node1 -->
<g id="edge1" class="edge">
<title>Node0&#45;&gt;Node1</title>
<path fill="none" stroke="midnightblue" d="M150.34,-37.71C159.59,-38.73 168.95,-39.76 177.99,-40.75"/>
<polygon fill="midnightblue" stroke="midnightblue" points="150.69,-34.23 140.37,-36.62 149.93,-41.19 150.69,-34.23"/>
</g>
<!-- Node3 -->
<g id="node4" class="node">
<title>Node3</title>
<g id="a_node4"><a xlink:href="d2/d8f/classxii_i_p_c_object_mirror_engine.htm" target="_top" xlink:title="An object mirror that mirrors across IPC to the engine process.">
<polygon fill="white" stroke="black" points="176,-0.5 176,-19.5 314,-19.5 314,-0.5 176,-0.5"/>
<text text-anchor="middle" x="245" y="-7.5" font-family="Helvetica,sans-Serif" font-size="10.00">xiiIPCObjectMirrorEngine</text>
</a>
</g>
</g>
<!-- Node0&#45;&gt;Node3 -->
<g id="edge3" class="edge">
<title>Node0&#45;&gt;Node3</title>
<path fill="none" stroke="midnightblue" d="M150.56,-20.26C158.98,-19.34 167.48,-18.4 175.74,-17.5"/>
<polygon fill="midnightblue" stroke="midnightblue" points="149.93,-16.81 140.37,-21.38 150.69,-23.77 149.93,-16.81"/>
</g>
<!-- Node2 -->
<g id="node3" class="node">
<title>Node2</title>
<g id="a_node3"><a xlink:href="dc/dc9/classxii_render_pipeline_object_mirror_editor.htm" target="_top" xlink:title="This custom mirror additionally sends over the connection meta data as properties to the engine side ...">
<polygon fill="white" stroke="black" points="350,-33 350,-63 513,-63 513,-33 350,-33"/>
<text text-anchor="start" x="358" y="-51" font-family="Helvetica,sans-Serif" font-size="10.00">xiiRenderPipelineObjectMirror</text>
<text text-anchor="middle" x="431.5" y="-40" font-family="Helvetica,sans-Serif" font-size="10.00">Editor</text>
</a>
</g>
</g>
<!-- Node1&#45;&gt;Node2 -->
<g id="edge2" class="edge">
<title>Node1&#45;&gt;Node2</title>
<path fill="none" stroke="midnightblue" d="M322.23,-48C331.3,-48 340.59,-48 349.73,-48"/>
<polygon fill="midnightblue" stroke="midnightblue" points="322.09,-44.5 312.09,-48 322.09,-51.5 322.09,-44.5"/>
</g>
</g>
</svg>
