<?xml version="1.0" encoding="UTF-8" standalone="no"?>
<!DOCTYPE svg PUBLIC "-//W3C//DTD SVG 1.1//EN"
 "http://www.w3.org/Graphics/SVG/1.1/DTD/svg11.dtd">
<!-- Generated by graphviz version 2.43.0 (0)
 -->
<!-- Title: Graphical Class Hierarchy Pages: 1 -->
<svg width="717pt" height="97pt"
 viewBox="0.00 0.00 717.00 96.50" xmlns="http://www.w3.org/2000/svg" xmlns:xlink="http://www.w3.org/1999/xlink">
<g id="graph0" class="graph" transform="scale(1 1) rotate(0) translate(4 92.5)">
<title>Graphical Class Hierarchy</title>
<polygon fill="white" stroke="transparent" points="-4,4 -4,-92.5 713,-92.5 713,4 -4,4"/>
<!-- Node0 -->
<g id="node1" class="node">
<title>Node0</title>
<g id="a_node1"><a xlink:href="de/d12/classxii_object_accessor_base.htm" target="_top" xlink:title=" ">
<polygon fill="white" stroke="black" points="0,-28 0,-47 128,-47 128,-28 0,-28"/>
<text text-anchor="middle" x="64" y="-35" font-family="Helvetica,sans-Serif" font-size="10.00">xiiObjectAccessorBase</text>
</a>
</g>
</g>
<!-- Node1 -->
<g id="node2" class="node">
<title>Node1</title>
<g id="a_node2"><a xlink:href="d8/d91/classxii_object_direct_accessor.htm" target="_top" xlink:title=" ">
<polygon fill="white" stroke="black" points="164,-48 164,-67 297,-67 297,-48 164,-48"/>
<text text-anchor="middle" x="230.5" y="-55" font-family="Helvetica,sans-Serif" font-size="10.00">xiiObjectDirectAccessor</text>
</a>
</g>
</g>
<!-- Node0&#45;&gt;Node1 -->
<g id="edge1" class="edge">
<title>Node0&#45;&gt;Node1</title>
<path fill="none" stroke="midnightblue" d="M138.1,-46.39C146.66,-47.43 155.36,-48.49 163.81,-49.51"/>
<polygon fill="midnightblue" stroke="midnightblue" points="138.48,-42.91 128.13,-45.18 137.63,-49.86 138.48,-42.91"/>
</g>
<!-- Node5 -->
<g id="node6" class="node">
<title>Node5</title>
<g id="a_node6"><a xlink:href="dc/da0/classxii_object_proxy_accessor.htm" target="_top" xlink:title=" ">
<polygon fill="white" stroke="black" points="165,-9 165,-28 296,-28 296,-9 165,-9"/>
<text text-anchor="middle" x="230.5" y="-16" font-family="Helvetica,sans-Serif" font-size="10.00">xiiObjectProxyAccessor</text>
</a>
</g>
</g>
<!-- Node0&#45;&gt;Node5 -->
<g id="edge5" class="edge">
<title>Node0&#45;&gt;Node5</title>
<path fill="none" stroke="midnightblue" d="M138.12,-29.05C147.05,-28.02 156.12,-26.98 164.91,-25.96"/>
<polygon fill="midnightblue" stroke="midnightblue" points="137.66,-25.58 128.13,-30.21 138.47,-32.54 137.66,-25.58"/>
</g>
<!-- Node2 -->
<g id="node3" class="node">
<title>Node2</title>
<g id="a_node3"><a xlink:href="d0/d29/classxii_object_command_accessor.htm" target="_top" xlink:title=" ">
<polygon fill="white" stroke="black" points="341,-50 341,-69 495,-69 495,-50 341,-50"/>
<text text-anchor="middle" x="418" y="-57" font-family="Helvetica,sans-Serif" font-size="10.00">xiiObjectCommandAccessor</text>
</a>
</g>
</g>
<!-- Node1&#45;&gt;Node2 -->
<g id="edge2" class="edge">
<title>Node1&#45;&gt;Node2</title>
<path fill="none" stroke="midnightblue" d="M307.26,-58.32C318.38,-58.44 329.84,-58.56 340.97,-58.68"/>
<polygon fill="midnightblue" stroke="midnightblue" points="307.2,-54.82 297.16,-58.21 307.12,-61.82 307.2,-54.82"/>
</g>
<!-- Node3 -->
<g id="node4" class="node">
<title>Node3</title>
<g id="a_node4"><a xlink:href="d5/d84/classxii_node_command_accessor.htm" target="_top" xlink:title=" ">
<polygon fill="white" stroke="black" points="550,-69 550,-88 698,-88 698,-69 550,-69"/>
<text text-anchor="middle" x="624" y="-76" font-family="Helvetica,sans-Serif" font-size="10.00">xiiNodeCommandAccessor</text>
</a>
</g>
</g>
<!-- Node2&#45;&gt;Node3 -->
<g id="edge3" class="edge">
<title>Node2&#45;&gt;Node3</title>
<path fill="none" stroke="midnightblue" d="M505.41,-67.55C520.22,-68.93 535.47,-70.35 549.88,-71.69"/>
<polygon fill="midnightblue" stroke="midnightblue" points="505.53,-64.04 495.25,-66.6 504.88,-71.01 505.53,-64.04"/>
</g>
<!-- Node4 -->
<g id="node5" class="node">
<title>Node4</title>
<g id="a_node5"><a xlink:href="db/d68/classxii_property_anim_object_accessor.htm" target="_top" xlink:title=" ">
<polygon fill="white" stroke="black" points="539,-31 539,-50 709,-50 709,-31 539,-31"/>
<text text-anchor="middle" x="624" y="-38" font-family="Helvetica,sans-Serif" font-size="10.00">xiiPropertyAnimObjectAccessor</text>
</a>
</g>
</g>
<!-- Node2&#45;&gt;Node4 -->
<g id="edge4" class="edge">
<title>Node2&#45;&gt;Node4</title>
<path fill="none" stroke="midnightblue" d="M505.38,-51.45C516.51,-50.42 527.88,-49.36 538.97,-48.33"/>
<polygon fill="midnightblue" stroke="midnightblue" points="504.88,-47.99 495.25,-52.4 505.53,-54.96 504.88,-47.99"/>
</g>
<!-- Node6 -->
<g id="node7" class="node">
<title>Node6</title>
<g id="a_node7"><a xlink:href="d5/ded/classxii_exposed_parameter_command_accessor.htm" target="_top" xlink:title=" ">
<polygon fill="white" stroke="black" points="333,-0.5 333,-30.5 503,-30.5 503,-0.5 333,-0.5"/>
<text text-anchor="start" x="341" y="-18.5" font-family="Helvetica,sans-Serif" font-size="10.00">xiiExposedParameterCommand</text>
<text text-anchor="middle" x="418" y="-7.5" font-family="Helvetica,sans-Serif" font-size="10.00">Accessor</text>
</a>
</g>
</g>
<!-- Node5&#45;&gt;Node6 -->
<g id="edge6" class="edge">
<title>Node5&#45;&gt;Node6</title>
<path fill="none" stroke="midnightblue" d="M306.23,-17.29C314.94,-17.15 323.88,-17.01 332.71,-16.86"/>
<polygon fill="midnightblue" stroke="midnightblue" points="306.06,-13.79 296.12,-17.45 306.17,-20.79 306.06,-13.79"/>
</g>
</g>
</svg>
