<?xml version="1.0" encoding="UTF-8" standalone="no"?>
<!DOCTYPE svg PUBLIC "-//W3C//DTD SVG 1.1//EN"
 "http://www.w3.org/Graphics/SVG/1.1/DTD/svg11.dtd">
<!-- Generated by graphviz version 2.43.0 (0)
 -->
<!-- Title: Graphical Class Hierarchy Pages: 1 -->
<svg width="460pt" height="64pt"
 viewBox="0.00 0.00 460.00 64.00" xmlns="http://www.w3.org/2000/svg" xmlns:xlink="http://www.w3.org/1999/xlink">
<g id="graph0" class="graph" transform="scale(1 1) rotate(0) translate(4 60)">
<title>Graphical Class Hierarchy</title>
<!-- Node0 -->
<g id="Node000000" class="node">
<title>Node0</title>
<g id="a_Node000000"><a xlink:title=" ">
<polygon fill="#e0e0e0" stroke="#999999" points="68,-37 0,-37 0,-18 68,-18 68,-37"/>
<text text-anchor="middle" x="34" y="-25" font-family="Helvetica,sans-Serif" font-size="10.00">QTreeView</text>
</a>
</g>
</g>
<!-- Node1 -->
<g id="Node000001" class="node">
<title>Node1</title>
<g id="a_Node000001"><a xlink:href="d9/daa/classxii_qt_item_view.htm" target="_top" xlink:title=" ">
<polygon fill="white" stroke="#666666" points="273.5,-56 112.5,-56 112.5,-37 273.5,-37 273.5,-56"/>
<text text-anchor="middle" x="193" y="-44" font-family="Helvetica,sans-Serif" font-size="10.00">xiiQtItemView&lt; QTreeView &gt;</text>
</a>
</g>
</g>
<!-- Node0&#45;&gt;Node1 -->
<g id="edge218_Node000000_Node000001" class="edge">
<title>Node0&#45;&gt;Node1</title>
<g id="a_edge218_Node000000_Node000001"><a xlink:title=" ">
<path fill="none" stroke="#63b8ff" d="M78.33,-32.74C89.2,-34.06 101.2,-35.51 113.21,-36.96"/>
<polygon fill="#63b8ff" stroke="#63b8ff" points="78.64,-29.26 68.3,-31.53 77.8,-36.21 78.64,-29.26"/>
</a>
</g>
</g>
<!-- Node3 -->
<g id="Node000003" class="node">
<title>Node3</title>
<g id="a_Node000003"><a xlink:href="dc/d30/classxii_qt_property_anim_asset_tree_view.htm" target="_top" xlink:title=" ">
<polygon fill="white" stroke="#666666" points="282,-19 104,-19 104,0 282,0 282,-19"/>
<text text-anchor="middle" x="193" y="-7" font-family="Helvetica,sans-Serif" font-size="10.00">xiiQtPropertyAnimAssetTreeView</text>
</a>
</g>
</g>
<!-- Node0&#45;&gt;Node3 -->
<g id="edge220_Node000000_Node000003" class="edge">
<title>Node0&#45;&gt;Node3</title>
<g id="a_edge220_Node000000_Node000003"><a xlink:title=" ">
<path fill="none" stroke="#63b8ff" d="M78.33,-22.53C87.93,-21.43 98.41,-20.23 109,-19.02"/>
<polygon fill="#63b8ff" stroke="#63b8ff" points="77.83,-19.07 68.3,-23.68 78.63,-26.02 77.83,-19.07"/>
</a>
</g>
</g>
<!-- Node2 -->
<g id="Node000002" class="node">
<title>Node2</title>
<g id="a_Node000002"><a xlink:href="d4/dc1/classxii_qt_document_tree_view.htm" target="_top" xlink:title=" ">
<polygon fill="white" stroke="#666666" points="452,-56 318,-56 318,-37 452,-37 452,-56"/>
<text text-anchor="middle" x="385" y="-44" font-family="Helvetica,sans-Serif" font-size="10.00">xiiQtDocumentTreeView</text>
</a>
</g>
</g>
<!-- Node1&#45;&gt;Node2 -->
<g id="edge219_Node000001_Node000002" class="edge">
<title>Node1&#45;&gt;Node2</title>
<g id="a_edge219_Node000001_Node000002"><a xlink:title=" ">
<path fill="none" stroke="#63b8ff" d="M283.82,-46.5C295.33,-46.5 306.94,-46.5 317.97,-46.5"/>
<polygon fill="#63b8ff" stroke="#63b8ff" points="283.75,-43 273.75,-46.5 283.75,-50 283.75,-43"/>
</a>
</g>
</g>
</g>
</svg>
