<?xml version="1.0" encoding="UTF-8" standalone="no"?>
<!DOCTYPE svg PUBLIC "-//W3C//DTD SVG 1.1//EN"
 "http://www.w3.org/Graphics/SVG/1.1/DTD/svg11.dtd">
<!-- Generated by graphviz version 2.43.0 (0)
 -->
<!-- Title: Graphical Class Hierarchy Pages: 1 -->
<svg width="425pt" height="61pt"
 viewBox="0.00 0.00 425.00 61.00" xmlns="http://www.w3.org/2000/svg" xmlns:xlink="http://www.w3.org/1999/xlink">
<g id="graph0" class="graph" transform="scale(1 1) rotate(0) translate(4 57)">
<title>Graphical Class Hierarchy</title>
<polygon fill="white" stroke="transparent" points="-4,4 -4,-57 421,-57 421,4 -4,4"/>
<!-- Node0 -->
<g id="node1" class="node">
<title>Node0</title>
<g id="a_node1"><a xlink:href="da/d4c/classxii_array_base.htm" target="_top" xlink:title=" ">
<polygon fill="white" stroke="black" points="0,-0.5 0,-52.5 194,-52.5 194,-0.5 0,-0.5"/>
<text text-anchor="start" x="8" y="-40.5" font-family="Helvetica,sans-Serif" font-size="10.00">xiiArrayBase&lt; xiiGALCommand</text>
<text text-anchor="start" x="8" y="-29.5" font-family="Helvetica,sans-Serif" font-size="10.00">QueueProperties, xiiStaticArray</text>
<text text-anchor="start" x="8" y="-18.5" font-family="Helvetica,sans-Serif" font-size="10.00">&lt; xiiGALCommandQueueProperties,</text>
<text text-anchor="middle" x="97" y="-7.5" font-family="Helvetica,sans-Serif" font-size="10.00"> Capacity &gt; &gt;</text>
</a>
</g>
</g>
<!-- Node1 -->
<g id="node2" class="node">
<title>Node1</title>
<g id="a_node2"><a xlink:href="d9/d25/classxii_static_array.htm" target="_top" xlink:title=" ">
<polygon fill="white" stroke="black" points="230,-6 230,-47 417,-47 417,-6 230,-6"/>
<text text-anchor="start" x="238" y="-35" font-family="Helvetica,sans-Serif" font-size="10.00">xiiStaticArray&lt; xiiGALCommand</text>
<text text-anchor="start" x="238" y="-24" font-family="Helvetica,sans-Serif" font-size="10.00">QueueProperties, XII_GAL</text>
<text text-anchor="middle" x="323.5" y="-13" font-family="Helvetica,sans-Serif" font-size="10.00">_MAX_ADAPTER_QUEUE_COUNT &gt;</text>
</a>
</g>
</g>
<!-- Node0&#45;&gt;Node1 -->
<g id="edge1" class="edge">
<title>Node0&#45;&gt;Node1</title>
<path fill="none" stroke="midnightblue" d="M204.45,-26.5C212.89,-26.5 221.38,-26.5 229.72,-26.5"/>
<polygon fill="midnightblue" stroke="midnightblue" points="204.19,-23 194.19,-26.5 204.19,-30 204.19,-23"/>
</g>
</g>
</svg>
