<?xml version="1.0" encoding="UTF-8" standalone="no"?>
<!DOCTYPE svg PUBLIC "-//W3C//DTD SVG 1.1//EN"
 "http://www.w3.org/Graphics/SVG/1.1/DTD/svg11.dtd">
<!-- Generated by graphviz version 2.43.0 (0)
 -->
<!-- Title: Graphical Class Hierarchy Pages: 1 -->
<svg width="802pt" height="60pt"
 viewBox="0.00 0.00 802.00 60.00" xmlns="http://www.w3.org/2000/svg" xmlns:xlink="http://www.w3.org/1999/xlink">
<g id="graph0" class="graph" transform="scale(1 1) rotate(0) translate(4 56)">
<title>Graphical Class Hierarchy</title>
<!-- Node0 -->
<g id="Node000000" class="node">
<title>Node0</title>
<g id="a_Node000000"><a xlink:href="da/d4c/classxii_array_base.html" target="_top" xlink:title=" ">
<polygon fill="white" stroke="#666666" points="191,-52 0,-52 0,0 191,0 191,-52"/>
<text text-anchor="start" x="8" y="-40" font-family="Helvetica,sans-Serif" font-size="10.00">xiiArrayBase&lt; xiiDynamic</text>
<text text-anchor="start" x="8" y="-29" font-family="Helvetica,sans-Serif" font-size="10.00">MenuAction::Item, xiiDynamic</text>
<text text-anchor="start" x="8" y="-18" font-family="Helvetica,sans-Serif" font-size="10.00">ArrayBase&lt; xiiDynamicMenuAction</text>
<text text-anchor="middle" x="95.5" y="-7" font-family="Helvetica,sans-Serif" font-size="10.00">::Item &gt; &gt;</text>
</a>
</g>
</g>
<!-- Node1 -->
<g id="Node000001" class="node">
<title>Node1</title>
<g id="a_Node000001"><a xlink:href="d2/dea/classxii_dynamic_array_base.html" target="_top" xlink:title=" ">
<polygon fill="white" stroke="#666666" points="368,-46.5 227,-46.5 227,-5.5 368,-5.5 368,-46.5"/>
<text text-anchor="start" x="235" y="-34.5" font-family="Helvetica,sans-Serif" font-size="10.00">xiiDynamicArrayBase</text>
<text text-anchor="start" x="235" y="-23.5" font-family="Helvetica,sans-Serif" font-size="10.00">&lt; xiiDynamicMenuAction</text>
<text text-anchor="middle" x="297.5" y="-12.5" font-family="Helvetica,sans-Serif" font-size="10.00">::Item &gt;</text>
</a>
</g>
</g>
<!-- Node0&#45;&gt;Node1 -->
<g id="edge849_Node000000_Node000001" class="edge">
<title>Node0&#45;&gt;Node1</title>
<g id="a_edge849_Node000000_Node000001"><a xlink:title=" ">
<path fill="none" stroke="#63b8ff" d="M201.37,-26C210.01,-26 218.6,-26 226.88,-26"/>
<polygon fill="#63b8ff" stroke="#63b8ff" points="201.23,-22.5 191.23,-26 201.23,-29.5 201.23,-22.5"/>
</a>
</g>
</g>
<!-- Node2 -->
<g id="Node000002" class="node">
<title>Node2</title>
<g id="a_Node000002"><a xlink:href="dc/da4/classxii_dynamic_array.html" target="_top" xlink:title=" ">
<polygon fill="white" stroke="#666666" points="604,-46.5 404,-46.5 404,-5.5 604,-5.5 604,-46.5"/>
<text text-anchor="start" x="412" y="-34.5" font-family="Helvetica,sans-Serif" font-size="10.00">xiiDynamicArray&lt; xiiDynamic</text>
<text text-anchor="start" x="412" y="-23.5" font-family="Helvetica,sans-Serif" font-size="10.00">MenuAction::Item, xiiDefaultAllocator</text>
<text text-anchor="middle" x="504" y="-12.5" font-family="Helvetica,sans-Serif" font-size="10.00">Wrapper &gt;</text>
</a>
</g>
</g>
<!-- Node1&#45;&gt;Node2 -->
<g id="edge850_Node000001_Node000002" class="edge">
<title>Node1&#45;&gt;Node2</title>
<g id="a_edge850_Node000001_Node000002"><a xlink:title=" ">
<path fill="none" stroke="#63b8ff" d="M378.2,-26C386.65,-26 395.31,-26 403.95,-26"/>
<polygon fill="#63b8ff" stroke="#63b8ff" points="378.02,-22.5 368.02,-26 378.02,-29.5 378.02,-22.5"/>
</a>
</g>
</g>
<!-- Node3 -->
<g id="Node000003" class="node">
<title>Node3</title>
<g id="a_Node000003"><a xlink:href="dc/da9/classxii_hybrid_array.html" target="_top" xlink:title=" ">
<polygon fill="white" stroke="#666666" points="794,-41 640,-41 640,-11 794,-11 794,-41"/>
<text text-anchor="start" x="648" y="-29" font-family="Helvetica,sans-Serif" font-size="10.00">xiiHybridArray&lt; xiiDynamic</text>
<text text-anchor="middle" x="717" y="-18" font-family="Helvetica,sans-Serif" font-size="10.00">MenuAction::Item, 16 &gt;</text>
</a>
</g>
</g>
<!-- Node2&#45;&gt;Node3 -->
<g id="edge851_Node000002_Node000003" class="edge">
<title>Node2&#45;&gt;Node3</title>
<g id="a_edge851_Node000002_Node000003"><a xlink:title=" ">
<path fill="none" stroke="#63b8ff" d="M614.14,-26C622.77,-26 631.37,-26 639.7,-26"/>
<polygon fill="#63b8ff" stroke="#63b8ff" points="614.01,-22.5 604.01,-26 614.01,-29.5 614.01,-22.5"/>
</a>
</g>
</g>
</g>
</svg>
