<?xml version="1.0" encoding="UTF-8" standalone="no"?>
<!DOCTYPE svg PUBLIC "-//W3C//DTD SVG 1.1//EN"
 "http://www.w3.org/Graphics/SVG/1.1/DTD/svg11.dtd">
<!-- Generated by graphviz version 2.43.0 (0)
 -->
<!-- Title: Graphical Class Hierarchy Pages: 1 -->
<svg width="985pt" height="49pt"
 viewBox="0.00 0.00 985.00 49.00" xmlns="http://www.w3.org/2000/svg" xmlns:xlink="http://www.w3.org/1999/xlink">
<g id="graph0" class="graph" transform="scale(1 1) rotate(0) translate(4 45)">
<title>Graphical Class Hierarchy</title>
<!-- Node0 -->
<g id="Node000000" class="node">
<title>Node0</title>
<g id="a_Node000000"><a xlink:href="da/d4c/classxii_array_base.html" target="_top" xlink:title=" ">
<polygon fill="white" stroke="#666666" points="295,-41 0,-41 0,0 295,0 295,-41"/>
<text text-anchor="start" x="8" y="-29" font-family="Helvetica,sans-Serif" font-size="10.00">xiiArrayBase&lt; xiiGALAttachment</text>
<text text-anchor="start" x="8" y="-18" font-family="Helvetica,sans-Serif" font-size="10.00">ReferenceDescription, xiiDynamic</text>
<text text-anchor="middle" x="147.5" y="-7" font-family="Helvetica,sans-Serif" font-size="10.00">ArrayBase&lt; xiiGALAttachmentReferenceDescription &gt; &gt;</text>
</a>
</g>
</g>
<!-- Node1 -->
<g id="Node000001" class="node">
<title>Node1</title>
<g id="a_Node000001"><a xlink:href="d2/dea/classxii_dynamic_array_base.html" target="_top" xlink:title=" ">
<polygon fill="white" stroke="#666666" points="498,-41 331,-41 331,0 498,0 498,-41"/>
<text text-anchor="start" x="339" y="-29" font-family="Helvetica,sans-Serif" font-size="10.00">xiiDynamicArrayBase</text>
<text text-anchor="start" x="339" y="-18" font-family="Helvetica,sans-Serif" font-size="10.00">&lt; xiiGALAttachmentReference</text>
<text text-anchor="middle" x="414.5" y="-7" font-family="Helvetica,sans-Serif" font-size="10.00">Description &gt;</text>
</a>
</g>
</g>
<!-- Node0&#45;&gt;Node1 -->
<g id="edge904_Node000000_Node000001" class="edge">
<title>Node0&#45;&gt;Node1</title>
<g id="a_edge904_Node000000_Node000001"><a xlink:title=" ">
<path fill="none" stroke="#63b8ff" d="M305.57,-20.5C314.23,-20.5 322.75,-20.5 330.97,-20.5"/>
<polygon fill="#63b8ff" stroke="#63b8ff" points="305.34,-17 295.34,-20.5 305.34,-24 305.34,-17"/>
</a>
</g>
</g>
<!-- Node2 -->
<g id="Node000002" class="node">
<title>Node2</title>
<g id="a_Node000002"><a xlink:href="dc/da4/classxii_dynamic_array.html" target="_top" xlink:title=" ">
<polygon fill="white" stroke="#666666" points="753,-41 534,-41 534,0 753,0 753,-41"/>
<text text-anchor="start" x="542" y="-29" font-family="Helvetica,sans-Serif" font-size="10.00">xiiDynamicArray&lt; xiiGALAttachment</text>
<text text-anchor="start" x="542" y="-18" font-family="Helvetica,sans-Serif" font-size="10.00">ReferenceDescription, xiiDefaultAllocator</text>
<text text-anchor="middle" x="643.5" y="-7" font-family="Helvetica,sans-Serif" font-size="10.00">Wrapper &gt;</text>
</a>
</g>
</g>
<!-- Node1&#45;&gt;Node2 -->
<g id="edge905_Node000001_Node000002" class="edge">
<title>Node1&#45;&gt;Node2</title>
<g id="a_edge905_Node000001_Node000002"><a xlink:title=" ">
<path fill="none" stroke="#63b8ff" d="M508.31,-20.5C516.77,-20.5 525.38,-20.5 533.95,-20.5"/>
<polygon fill="#63b8ff" stroke="#63b8ff" points="508.09,-17 498.09,-20.5 508.09,-24 508.09,-17"/>
</a>
</g>
</g>
<!-- Node3 -->
<g id="Node000003" class="node">
<title>Node3</title>
<g id="a_Node000003"><a xlink:href="dc/da9/classxii_hybrid_array.html" target="_top" xlink:title=" ">
<polygon fill="white" stroke="#666666" points="977,-35.5 789,-35.5 789,-5.5 977,-5.5 977,-35.5"/>
<text text-anchor="start" x="797" y="-23.5" font-family="Helvetica,sans-Serif" font-size="10.00">xiiHybridArray&lt; xiiGALAttachment</text>
<text text-anchor="middle" x="883" y="-12.5" font-family="Helvetica,sans-Serif" font-size="10.00">ReferenceDescription, 16U &gt;</text>
</a>
</g>
</g>
<!-- Node2&#45;&gt;Node3 -->
<g id="edge906_Node000002_Node000003" class="edge">
<title>Node2&#45;&gt;Node3</title>
<g id="a_edge906_Node000002_Node000003"><a xlink:title=" ">
<path fill="none" stroke="#63b8ff" d="M763.19,-20.5C771.73,-20.5 780.28,-20.5 788.64,-20.5"/>
<polygon fill="#63b8ff" stroke="#63b8ff" points="763.17,-17 753.17,-20.5 763.17,-24 763.17,-17"/>
</a>
</g>
</g>
</g>
</svg>
