<?xml version="1.0" encoding="UTF-8" standalone="no"?>
<!DOCTYPE svg PUBLIC "-//W3C//DTD SVG 1.1//EN"
 "http://www.w3.org/Graphics/SVG/1.1/DTD/svg11.dtd">
<!-- Generated by graphviz version 2.43.0 (0)
 -->
<!-- Title: Graphical Class Hierarchy Pages: 1 -->
<svg width="792pt" height="49pt"
 viewBox="0.00 0.00 792.00 49.00" xmlns="http://www.w3.org/2000/svg" xmlns:xlink="http://www.w3.org/1999/xlink">
<g id="graph0" class="graph" transform="scale(1 1) rotate(0) translate(4 45)">
<title>Graphical Class Hierarchy</title>
<!-- Node0 -->
<g id="Node000000" class="node">
<title>Node0</title>
<g id="a_Node000000"><a xlink:href="da/d4c/classxii_array_base.htm" target="_top" xlink:title=" ">
<polygon fill="white" stroke="#666666" points="192,-41 0,-41 0,0 192,0 192,-41"/>
<text text-anchor="start" x="8" y="-29" font-family="Helvetica,sans-Serif" font-size="10.00">xiiArrayBase&lt; xiiMaterial</text>
<text text-anchor="start" x="8" y="-18" font-family="Helvetica,sans-Serif" font-size="10.00">ResourceSlot, xiiDynamicArrayBase</text>
<text text-anchor="middle" x="96" y="-7" font-family="Helvetica,sans-Serif" font-size="10.00">&lt; xiiMaterialResourceSlot &gt; &gt;</text>
</a>
</g>
</g>
<!-- Node1 -->
<g id="Node000001" class="node">
<title>Node1</title>
<g id="a_Node000001"><a xlink:href="d2/dea/classxii_dynamic_array_base.htm" target="_top" xlink:title=" ">
<polygon fill="white" stroke="#666666" points="383,-35.5 228,-35.5 228,-5.5 383,-5.5 383,-35.5"/>
<text text-anchor="start" x="236" y="-23.5" font-family="Helvetica,sans-Serif" font-size="10.00">xiiDynamicArrayBase</text>
<text text-anchor="middle" x="305.5" y="-12.5" font-family="Helvetica,sans-Serif" font-size="10.00">&lt; xiiMaterialResourceSlot &gt;</text>
</a>
</g>
</g>
<!-- Node0&#45;&gt;Node1 -->
<g id="edge1007_Node000000_Node000001" class="edge">
<title>Node0&#45;&gt;Node1</title>
<g id="a_edge1007_Node000000_Node000001"><a xlink:title=" ">
<path fill="none" stroke="#63b8ff" d="M202.34,-20.5C210.94,-20.5 219.53,-20.5 227.86,-20.5"/>
<polygon fill="#63b8ff" stroke="#63b8ff" points="202.25,-17 192.25,-20.5 202.25,-24 202.25,-17"/>
</a>
</g>
</g>
<!-- Node2 -->
<g id="Node000002" class="node">
<title>Node2</title>
<g id="a_Node000002"><a xlink:href="dc/da4/classxii_dynamic_array.htm" target="_top" xlink:title=" ">
<polygon fill="white" stroke="#666666" points="597,-41 419,-41 419,0 597,0 597,-41"/>
<text text-anchor="start" x="427" y="-29" font-family="Helvetica,sans-Serif" font-size="10.00">xiiDynamicArray&lt; xiiMaterial</text>
<text text-anchor="start" x="427" y="-18" font-family="Helvetica,sans-Serif" font-size="10.00">ResourceSlot, xiiDefaultAllocator</text>
<text text-anchor="middle" x="508" y="-7" font-family="Helvetica,sans-Serif" font-size="10.00">Wrapper &gt;</text>
</a>
</g>
</g>
<!-- Node1&#45;&gt;Node2 -->
<g id="edge1008_Node000001_Node000002" class="edge">
<title>Node1&#45;&gt;Node2</title>
<g id="a_edge1008_Node000001_Node000002"><a xlink:title=" ">
<path fill="none" stroke="#63b8ff" d="M393.42,-20.5C401.9,-20.5 410.5,-20.5 418.99,-20.5"/>
<polygon fill="#63b8ff" stroke="#63b8ff" points="393.16,-17 383.16,-20.5 393.16,-24 393.16,-17"/>
</a>
</g>
</g>
<!-- Node3 -->
<g id="Node000003" class="node">
<title>Node3</title>
<g id="a_Node000003"><a xlink:href="dc/da9/classxii_hybrid_array.htm" target="_top" xlink:title=" ">
<polygon fill="white" stroke="#666666" points="784,-35.5 633,-35.5 633,-5.5 784,-5.5 784,-35.5"/>
<text text-anchor="start" x="641" y="-23.5" font-family="Helvetica,sans-Serif" font-size="10.00">xiiHybridArray&lt; xiiMaterial</text>
<text text-anchor="middle" x="708.5" y="-12.5" font-family="Helvetica,sans-Serif" font-size="10.00">ResourceSlot, 8 &gt;</text>
</a>
</g>
</g>
<!-- Node2&#45;&gt;Node3 -->
<g id="edge1009_Node000002_Node000003" class="edge">
<title>Node2&#45;&gt;Node3</title>
<g id="a_edge1009_Node000002_Node000003"><a xlink:title=" ">
<path fill="none" stroke="#63b8ff" d="M607.3,-20.5C615.91,-20.5 624.52,-20.5 632.89,-20.5"/>
<polygon fill="#63b8ff" stroke="#63b8ff" points="607.22,-17 597.22,-20.5 607.22,-24 607.22,-17"/>
</a>
</g>
</g>
</g>
</svg>
