<?xml version="1.0" encoding="UTF-8" standalone="no"?>
<!DOCTYPE svg PUBLIC "-//W3C//DTD SVG 1.1//EN"
 "http://www.w3.org/Graphics/SVG/1.1/DTD/svg11.dtd">
<!-- Generated by graphviz version 2.43.0 (0)
 -->
<!-- Title: Graphical Class Hierarchy Pages: 1 -->
<svg width="737pt" height="49pt"
 viewBox="0.00 0.00 737.00 49.00" xmlns="http://www.w3.org/2000/svg" xmlns:xlink="http://www.w3.org/1999/xlink">
<g id="graph0" class="graph" transform="scale(1 1) rotate(0) translate(4 45)">
<title>Graphical Class Hierarchy</title>
<!-- Node0 -->
<g id="Node000000" class="node">
<title>Node0</title>
<g id="a_Node000000"><a xlink:href="da/d4c/classxii_array_base.html" target="_top" xlink:title=" ">
<polygon fill="white" stroke="#666666" points="170,-41 0,-41 0,0 170,0 170,-41"/>
<text text-anchor="start" x="8" y="-29" font-family="Helvetica,sans-Serif" font-size="10.00">xiiArrayBase&lt; xiiPluginInit</text>
<text text-anchor="start" x="8" y="-18" font-family="Helvetica,sans-Serif" font-size="10.00">Callback, xiiDynamicArrayBase</text>
<text text-anchor="middle" x="85" y="-7" font-family="Helvetica,sans-Serif" font-size="10.00">&lt; xiiPluginInitCallback &gt; &gt;</text>
</a>
</g>
</g>
<!-- Node1 -->
<g id="Node000001" class="node">
<title>Node1</title>
<g id="a_Node000001"><a xlink:href="d2/dea/classxii_dynamic_array_base.html" target="_top" xlink:title=" ">
<polygon fill="white" stroke="#666666" points="345,-35.5 206,-35.5 206,-5.5 345,-5.5 345,-35.5"/>
<text text-anchor="start" x="214" y="-23.5" font-family="Helvetica,sans-Serif" font-size="10.00">xiiDynamicArrayBase</text>
<text text-anchor="middle" x="275.5" y="-12.5" font-family="Helvetica,sans-Serif" font-size="10.00">&lt; xiiPluginInitCallback &gt;</text>
</a>
</g>
</g>
<!-- Node0&#45;&gt;Node1 -->
<g id="edge1062_Node000000_Node000001" class="edge">
<title>Node0&#45;&gt;Node1</title>
<g id="a_edge1062_Node000000_Node000001"><a xlink:title=" ">
<path fill="none" stroke="#63b8ff" d="M180.19,-20.5C188.85,-20.5 197.5,-20.5 205.86,-20.5"/>
<polygon fill="#63b8ff" stroke="#63b8ff" points="180.05,-17 170.05,-20.5 180.05,-24 180.05,-17"/>
</a>
</g>
</g>
<!-- Node2 -->
<g id="Node000002" class="node">
<title>Node2</title>
<g id="a_Node000002"><a xlink:href="dc/da4/classxii_dynamic_array.html" target="_top" xlink:title=" ">
<polygon fill="white" stroke="#666666" points="553,-41 381,-41 381,0 553,0 553,-41"/>
<text text-anchor="start" x="389" y="-29" font-family="Helvetica,sans-Serif" font-size="10.00">xiiDynamicArray&lt; xiiPlugin</text>
<text text-anchor="start" x="389" y="-18" font-family="Helvetica,sans-Serif" font-size="10.00">InitCallback, xiiDefaultAllocator</text>
<text text-anchor="middle" x="467" y="-7" font-family="Helvetica,sans-Serif" font-size="10.00">Wrapper &gt;</text>
</a>
</g>
</g>
<!-- Node1&#45;&gt;Node2 -->
<g id="edge1063_Node000001_Node000002" class="edge">
<title>Node1&#45;&gt;Node2</title>
<g id="a_edge1063_Node000001_Node000002"><a xlink:title=" ">
<path fill="none" stroke="#63b8ff" d="M355.32,-20.5C363.71,-20.5 372.27,-20.5 380.74,-20.5"/>
<polygon fill="#63b8ff" stroke="#63b8ff" points="355.18,-17 345.18,-20.5 355.18,-24 355.18,-17"/>
</a>
</g>
</g>
<!-- Node3 -->
<g id="Node000003" class="node">
<title>Node3</title>
<g id="a_Node000003"><a xlink:href="dc/da9/classxii_hybrid_array.html" target="_top" xlink:title=" ">
<polygon fill="white" stroke="#666666" points="729,-35.5 589,-35.5 589,-5.5 729,-5.5 729,-35.5"/>
<text text-anchor="start" x="597" y="-23.5" font-family="Helvetica,sans-Serif" font-size="10.00">xiiHybridArray&lt; xiiPlugin</text>
<text text-anchor="middle" x="659" y="-12.5" font-family="Helvetica,sans-Serif" font-size="10.00">InitCallback, 2 &gt;</text>
</a>
</g>
</g>
<!-- Node2&#45;&gt;Node3 -->
<g id="edge1064_Node000002_Node000003" class="edge">
<title>Node2&#45;&gt;Node3</title>
<g id="a_edge1064_Node000002_Node000003"><a xlink:title=" ">
<path fill="none" stroke="#63b8ff" d="M563.38,-20.5C572,-20.5 580.61,-20.5 588.94,-20.5"/>
<polygon fill="#63b8ff" stroke="#63b8ff" points="563.27,-17 553.27,-20.5 563.27,-24 563.27,-17"/>
</a>
</g>
</g>
</g>
</svg>
