<?xml version="1.0" encoding="UTF-8" standalone="no"?>
<!DOCTYPE svg PUBLIC "-//W3C//DTD SVG 1.1//EN"
 "http://www.w3.org/Graphics/SVG/1.1/DTD/svg11.dtd">
<!-- Generated by graphviz version 2.43.0 (0)
 -->
<!-- Title: Graphical Class Hierarchy Pages: 1 -->
<svg width="802pt" height="49pt"
 viewBox="0.00 0.00 802.00 49.00" xmlns="http://www.w3.org/2000/svg" xmlns:xlink="http://www.w3.org/1999/xlink">
<g id="graph0" class="graph" transform="scale(1 1) rotate(0) translate(4 45)">
<title>Graphical Class Hierarchy</title>
<!-- Node0 -->
<g id="Node000000" class="node">
<title>Node0</title>
<g id="a_Node000000"><a xlink:href="da/d4c/classxii_array_base.html" target="_top" xlink:title=" ">
<polygon fill="white" stroke="#666666" points="194,-41 0,-41 0,0 194,0 194,-41"/>
<text text-anchor="start" x="8" y="-29" font-family="Helvetica,sans-Serif" font-size="10.00">xiiArrayBase&lt; xiiCurve1D</text>
<text text-anchor="start" x="8" y="-18" font-family="Helvetica,sans-Serif" font-size="10.00">::ControlPoint, xiiDynamicArray</text>
<text text-anchor="middle" x="97" y="-7" font-family="Helvetica,sans-Serif" font-size="10.00">Base&lt; xiiCurve1D::ControlPoint &gt; &gt;</text>
</a>
</g>
</g>
<!-- Node1 -->
<g id="Node000001" class="node">
<title>Node1</title>
<g id="a_Node000001"><a xlink:href="d2/dea/classxii_dynamic_array_base.html" target="_top" xlink:title=" ">
<polygon fill="white" stroke="#666666" points="389,-35.5 230,-35.5 230,-5.5 389,-5.5 389,-35.5"/>
<text text-anchor="start" x="238" y="-23.5" font-family="Helvetica,sans-Serif" font-size="10.00">xiiDynamicArrayBase</text>
<text text-anchor="middle" x="309.5" y="-12.5" font-family="Helvetica,sans-Serif" font-size="10.00">&lt; xiiCurve1D::ControlPoint &gt;</text>
</a>
</g>
</g>
<!-- Node0&#45;&gt;Node1 -->
<g id="edge793_Node000000_Node000001" class="edge">
<title>Node0&#45;&gt;Node1</title>
<g id="a_edge793_Node000000_Node000001"><a xlink:title=" ">
<path fill="none" stroke="#63b8ff" d="M204.19,-20.5C212.87,-20.5 221.54,-20.5 229.97,-20.5"/>
<polygon fill="#63b8ff" stroke="#63b8ff" points="204.01,-17 194.01,-20.5 204.01,-24 204.01,-17"/>
</a>
</g>
</g>
<!-- Node2 -->
<g id="Node000002" class="node">
<title>Node2</title>
<g id="a_Node000002"><a xlink:href="dc/da4/classxii_dynamic_array.html" target="_top" xlink:title=" ">
<polygon fill="white" stroke="#666666" points="613,-41 425,-41 425,0 613,0 613,-41"/>
<text text-anchor="start" x="433" y="-29" font-family="Helvetica,sans-Serif" font-size="10.00">xiiDynamicArray&lt; xiiCurve1</text>
<text text-anchor="start" x="433" y="-18" font-family="Helvetica,sans-Serif" font-size="10.00">D::ControlPoint, xiiDefaultAllocator</text>
<text text-anchor="middle" x="519" y="-7" font-family="Helvetica,sans-Serif" font-size="10.00">Wrapper &gt;</text>
</a>
</g>
</g>
<!-- Node1&#45;&gt;Node2 -->
<g id="edge794_Node000001_Node000002" class="edge">
<title>Node1&#45;&gt;Node2</title>
<g id="a_edge794_Node000001_Node000002"><a xlink:title=" ">
<path fill="none" stroke="#63b8ff" d="M399.38,-20.5C407.76,-20.5 416.27,-20.5 424.68,-20.5"/>
<polygon fill="#63b8ff" stroke="#63b8ff" points="399.24,-17 389.24,-20.5 399.24,-24 399.24,-17"/>
</a>
</g>
</g>
<!-- Node3 -->
<g id="Node000003" class="node">
<title>Node3</title>
<g id="a_Node000003"><a xlink:href="dc/da9/classxii_hybrid_array.html" target="_top" xlink:title=" ">
<polygon fill="white" stroke="#666666" points="794,-35.5 649,-35.5 649,-5.5 794,-5.5 794,-35.5"/>
<text text-anchor="start" x="657" y="-23.5" font-family="Helvetica,sans-Serif" font-size="10.00">xiiHybridArray&lt; xiiCurve1</text>
<text text-anchor="middle" x="721.5" y="-12.5" font-family="Helvetica,sans-Serif" font-size="10.00">D::ControlPoint, 8 &gt;</text>
</a>
</g>
</g>
<!-- Node2&#45;&gt;Node3 -->
<g id="edge795_Node000002_Node000003" class="edge">
<title>Node2&#45;&gt;Node3</title>
<g id="a_edge795_Node000002_Node000003"><a xlink:title=" ">
<path fill="none" stroke="#63b8ff" d="M623.32,-20.5C631.93,-20.5 640.52,-20.5 648.82,-20.5"/>
<polygon fill="#63b8ff" stroke="#63b8ff" points="623.21,-17 613.21,-20.5 623.21,-24 623.21,-17"/>
</a>
</g>
</g>
</g>
</svg>
