<?xml version="1.0" encoding="UTF-8" standalone="no"?>
<!DOCTYPE svg PUBLIC "-//W3C//DTD SVG 1.1//EN"
 "http://www.w3.org/Graphics/SVG/1.1/DTD/svg11.dtd">
<!-- Generated by graphviz version 2.43.0 (0)
 -->
<!-- Title: Graphical Class Hierarchy Pages: 1 -->
<svg width="808pt" height="278pt"
 viewBox="0.00 0.00 808.00 278.00" xmlns="http://www.w3.org/2000/svg" xmlns:xlink="http://www.w3.org/1999/xlink">
<g id="graph0" class="graph" transform="scale(1 1) rotate(0) translate(4 274)">
<title>Graphical Class Hierarchy</title>
<!-- Node0 -->
<g id="Node000000" class="node">
<title>Node0</title>
<g id="a_Node000000"><a xlink:href="da/d4c/classxii_array_base.htm" target="_top" xlink:title=" ">
<polygon fill="white" stroke="#666666" points="232,-126 0,-126 0,-96 232,-96 232,-126"/>
<text text-anchor="start" x="8" y="-114" font-family="Helvetica,sans-Serif" font-size="10.00">xiiArrayBase&lt; xiiHybridString,</text>
<text text-anchor="middle" x="116" y="-103" font-family="Helvetica,sans-Serif" font-size="10.00"> xiiDynamicArrayBase&lt; xiiHybridString &gt; &gt;</text>
</a>
</g>
</g>
<!-- Node1 -->
<g id="Node000001" class="node">
<title>Node1</title>
<g id="a_Node000001"><a xlink:href="d2/dea/classxii_dynamic_array_base.htm" target="_top" xlink:title=" ">
<polygon fill="white" stroke="#666666" points="390,-126 268,-126 268,-96 390,-96 390,-126"/>
<text text-anchor="start" x="276" y="-114" font-family="Helvetica,sans-Serif" font-size="10.00">xiiDynamicArrayBase</text>
<text text-anchor="middle" x="329" y="-103" font-family="Helvetica,sans-Serif" font-size="10.00">&lt; xiiHybridString &gt;</text>
</a>
</g>
</g>
<!-- Node0&#45;&gt;Node1 -->
<g id="edge961_Node000000_Node000001" class="edge">
<title>Node0&#45;&gt;Node1</title>
<g id="a_edge961_Node000000_Node000001"><a xlink:title=" ">
<path fill="none" stroke="#63b8ff" d="M242.14,-111C251,-111 259.67,-111 267.89,-111"/>
<polygon fill="#63b8ff" stroke="#63b8ff" points="242.07,-107.5 232.07,-111 242.07,-114.5 242.07,-107.5"/>
</a>
</g>
</g>
<!-- Node2 -->
<g id="Node000002" class="node">
<title>Node2</title>
<g id="a_Node000002"><a xlink:href="dc/da4/classxii_dynamic_array.htm" target="_top" xlink:title=" ">
<polygon fill="white" stroke="#666666" points="621,-150 426,-150 426,-120 621,-120 621,-150"/>
<text text-anchor="start" x="434" y="-138" font-family="Helvetica,sans-Serif" font-size="10.00">xiiDynamicArray&lt; xiiHybrid</text>
<text text-anchor="middle" x="523.5" y="-127" font-family="Helvetica,sans-Serif" font-size="10.00">String, xiiDefaultAllocatorWrapper &gt;</text>
</a>
</g>
</g>
<!-- Node1&#45;&gt;Node2 -->
<g id="edge962_Node000001_Node000002" class="edge">
<title>Node1&#45;&gt;Node2</title>
<g id="a_edge962_Node000001_Node000002"><a xlink:title=" ">
<path fill="none" stroke="#63b8ff" d="M400.15,-119.75C408.5,-120.79 417.14,-121.86 425.79,-122.94"/>
<polygon fill="#63b8ff" stroke="#63b8ff" points="400.47,-116.26 390.12,-118.5 399.61,-123.21 400.47,-116.26"/>
</a>
</g>
</g>
<!-- Node9 -->
<g id="Node000009" class="node">
<title>Node9</title>
<g id="a_Node000009"><a xlink:href="dc/da4/classxii_dynamic_array.htm" target="_top" xlink:title=" ">
<polygon fill="white" stroke="#666666" points="600.5,-102 446.5,-102 446.5,-72 600.5,-72 600.5,-102"/>
<text text-anchor="start" x="454.5" y="-90" font-family="Helvetica,sans-Serif" font-size="10.00">xiiDynamicArray&lt; xiiHybrid</text>
<text text-anchor="middle" x="523.5" y="-79" font-family="Helvetica,sans-Serif" font-size="10.00">String &gt;</text>
</a>
</g>
</g>
<!-- Node1&#45;&gt;Node9 -->
<g id="edge969_Node000001_Node000009" class="edge">
<title>Node1&#45;&gt;Node9</title>
<g id="a_edge969_Node000001_Node000009"><a xlink:title=" ">
<path fill="none" stroke="#63b8ff" d="M400.29,-102.24C415.22,-100.38 431.05,-98.4 446.2,-96.51"/>
<polygon fill="#63b8ff" stroke="#63b8ff" points="399.61,-98.79 390.12,-103.5 400.47,-105.74 399.61,-98.79"/>
</a>
</g>
</g>
<!-- Node3 -->
<g id="Node000003" class="node">
<title>Node3</title>
<g id="a_Node000003"><a xlink:href="dc/da9/classxii_hybrid_array.htm" target="_top" xlink:title=" ">
<polygon fill="white" stroke="#666666" points="800,-270 657,-270 657,-240 800,-240 800,-270"/>
<text text-anchor="start" x="665" y="-258" font-family="Helvetica,sans-Serif" font-size="10.00">xiiHybridArray&lt; xiiHybrid</text>
<text text-anchor="middle" x="728.5" y="-247" font-family="Helvetica,sans-Serif" font-size="10.00">String, 2 &gt;</text>
</a>
</g>
</g>
<!-- Node2&#45;&gt;Node3 -->
<g id="edge963_Node000002_Node000003" class="edge">
<title>Node2&#45;&gt;Node3</title>
<g id="a_edge963_Node000002_Node000003"><a xlink:title=" ">
<path fill="none" stroke="#63b8ff" d="M549.53,-156.68C575.12,-177.95 616.71,-210.15 657,-231 663.32,-234.27 670.17,-237.24 677.04,-239.89"/>
<polygon fill="#63b8ff" stroke="#63b8ff" points="551.72,-153.94 541.81,-150.18 547.21,-159.3 551.72,-153.94"/>
</a>
</g>
</g>
<!-- Node4 -->
<g id="Node000004" class="node">
<title>Node4</title>
<g id="a_Node000004"><a xlink:href="dc/da9/classxii_hybrid_array.htm" target="_top" xlink:title=" ">
<polygon fill="white" stroke="#666666" points="800,-222 657,-222 657,-192 800,-192 800,-222"/>
<text text-anchor="start" x="665" y="-210" font-family="Helvetica,sans-Serif" font-size="10.00">xiiHybridArray&lt; xiiHybrid</text>
<text text-anchor="middle" x="728.5" y="-199" font-family="Helvetica,sans-Serif" font-size="10.00">String, 16 &gt;</text>
</a>
</g>
</g>
<!-- Node2&#45;&gt;Node4 -->
<g id="edge964_Node000002_Node000004" class="edge">
<title>Node2&#45;&gt;Node4</title>
<g id="a_edge964_Node000002_Node000004"><a xlink:title=" ">
<path fill="none" stroke="#63b8ff" d="M574.84,-153.5C599.56,-162.51 629.79,-173.44 657,-183 665.29,-185.91 674.16,-188.97 682.7,-191.9"/>
<polygon fill="#63b8ff" stroke="#63b8ff" points="575.91,-150.16 565.31,-150.02 573.51,-156.74 575.91,-150.16"/>
</a>
</g>
</g>
<!-- Node5 -->
<g id="Node000005" class="node">
<title>Node5</title>
<g id="a_Node000005"><a xlink:href="dc/da9/classxii_hybrid_array.htm" target="_top" xlink:title=" ">
<polygon fill="white" stroke="#666666" points="800,-174 657,-174 657,-144 800,-144 800,-174"/>
<text text-anchor="start" x="665" y="-162" font-family="Helvetica,sans-Serif" font-size="10.00">xiiHybridArray&lt; xiiHybrid</text>
<text text-anchor="middle" x="728.5" y="-151" font-family="Helvetica,sans-Serif" font-size="10.00">String, 1 &gt;</text>
</a>
</g>
</g>
<!-- Node2&#45;&gt;Node5 -->
<g id="edge965_Node000002_Node000005" class="edge">
<title>Node2&#45;&gt;Node5</title>
<g id="a_edge965_Node000002_Node000005"><a xlink:title=" ">
<path fill="none" stroke="#63b8ff" d="M631.42,-147.64C640.08,-148.66 648.68,-149.68 656.98,-150.66"/>
<polygon fill="#63b8ff" stroke="#63b8ff" points="631.59,-144.14 621.24,-146.44 630.76,-151.09 631.59,-144.14"/>
</a>
</g>
</g>
<!-- Node6 -->
<g id="Node000006" class="node">
<title>Node6</title>
<g id="a_Node000006"><a xlink:href="dc/da9/classxii_hybrid_array.htm" target="_top" xlink:title=" ">
<polygon fill="white" stroke="#666666" points="800,-126 657,-126 657,-96 800,-96 800,-126"/>
<text text-anchor="start" x="665" y="-114" font-family="Helvetica,sans-Serif" font-size="10.00">xiiHybridArray&lt; xiiHybrid</text>
<text text-anchor="middle" x="728.5" y="-103" font-family="Helvetica,sans-Serif" font-size="10.00">String, 8 &gt;</text>
</a>
</g>
</g>
<!-- Node2&#45;&gt;Node6 -->
<g id="edge966_Node000002_Node000006" class="edge">
<title>Node2&#45;&gt;Node6</title>
<g id="a_edge966_Node000002_Node000006"><a xlink:title=" ">
<path fill="none" stroke="#63b8ff" d="M631.42,-122.36C640.08,-121.34 648.68,-120.32 656.98,-119.34"/>
<polygon fill="#63b8ff" stroke="#63b8ff" points="630.76,-118.91 621.24,-123.56 631.59,-125.86 630.76,-118.91"/>
</a>
</g>
</g>
<!-- Node7 -->
<g id="Node000007" class="node">
<title>Node7</title>
<g id="a_Node000007"><a xlink:href="dc/da9/classxii_hybrid_array.htm" target="_top" xlink:title=" ">
<polygon fill="white" stroke="#666666" points="800,-78 657,-78 657,-48 800,-48 800,-78"/>
<text text-anchor="start" x="665" y="-66" font-family="Helvetica,sans-Serif" font-size="10.00">xiiHybridArray&lt; xiiHybrid</text>
<text text-anchor="middle" x="728.5" y="-55" font-family="Helvetica,sans-Serif" font-size="10.00">String, 4 &gt;</text>
</a>
</g>
</g>
<!-- Node2&#45;&gt;Node7 -->
<g id="edge967_Node000002_Node000007" class="edge">
<title>Node2&#45;&gt;Node7</title>
<g id="a_edge967_Node000002_Node000007"><a xlink:title=" ">
<path fill="none" stroke="#63b8ff" d="M606.48,-116.72C611.46,-114.97 616.33,-113.06 621,-111 638.59,-103.23 639.75,-95.5 657,-87 663.61,-83.74 670.77,-80.74 677.91,-78.05"/>
<polygon fill="#63b8ff" stroke="#63b8ff" points="605.22,-113.46 596.83,-119.92 607.42,-120.1 605.22,-113.46"/>
</a>
</g>
</g>
<!-- Node8 -->
<g id="Node000008" class="node">
<title>Node8</title>
<g id="a_Node000008"><a xlink:href="dc/da9/classxii_hybrid_array.htm" target="_top" xlink:title=" ">
<polygon fill="white" stroke="#666666" points="800,-30 657,-30 657,0 800,0 800,-30"/>
<text text-anchor="start" x="665" y="-18" font-family="Helvetica,sans-Serif" font-size="10.00">xiiHybridArray&lt; xiiHybrid</text>
<text text-anchor="middle" x="728.5" y="-7" font-family="Helvetica,sans-Serif" font-size="10.00">String, 6 &gt;</text>
</a>
</g>
</g>
<!-- Node2&#45;&gt;Node8 -->
<g id="edge968_Node000002_Node000008" class="edge">
<title>Node2&#45;&gt;Node8</title>
<g id="a_edge968_Node000002_Node000008"><a xlink:title=" ">
<path fill="none" stroke="#63b8ff" d="M615.98,-114.68C617.71,-113.52 619.38,-112.3 621,-111 648.92,-88.63 630.05,-62.53 657,-39 660.9,-35.6 665.3,-32.67 669.95,-30.16"/>
<polygon fill="#63b8ff" stroke="#63b8ff" points="613.81,-111.89 606.95,-119.97 617.35,-117.94 613.81,-111.89"/>
</a>
</g>
</g>
</g>
</svg>
