<?xml version="1.0" encoding="UTF-8" standalone="no"?>
<!DOCTYPE svg PUBLIC "-//W3C//DTD SVG 1.1//EN"
 "http://www.w3.org/Graphics/SVG/1.1/DTD/svg11.dtd">
<!-- Generated by graphviz version 2.43.0 (0)
 -->
<!-- Title: Graphical Class Hierarchy Pages: 1 -->
<svg width="331pt" height="372pt"
 viewBox="0.00 0.00 331.00 371.50" xmlns="http://www.w3.org/2000/svg" xmlns:xlink="http://www.w3.org/1999/xlink">
<g id="graph0" class="graph" transform="scale(1 1) rotate(0) translate(4 367.5)">
<title>Graphical Class Hierarchy</title>
<!-- Node0 -->
<g id="Node000000" class="node">
<title>Node0</title>
<g id="a_Node000000"><a xlink:href="d3/db6/classxii_visualizer_adapter.htm" target="_top" xlink:title="Base class for the editor side code that sets up a &#39;visualizer&#39; for object properties.">
<polygon fill="white" stroke="#666666" points="115,-185 0,-185 0,-166 115,-166 115,-185"/>
<text text-anchor="middle" x="57.5" y="-173" font-family="Helvetica,sans-Serif" font-size="10.00">xiiVisualizerAdapter</text>
</a>
</g>
</g>
<!-- Node1 -->
<g id="Node000001" class="node">
<title>Node1</title>
<g id="a_Node000001"><a xlink:href="d0/d64/classxii_box_reflection_probe_visualizer_adapter.htm" target="_top" xlink:title=" ">
<polygon fill="white" stroke="#666666" points="323,-363.5 151,-363.5 151,-333.5 323,-333.5 323,-363.5"/>
<text text-anchor="start" x="159" y="-351.5" font-family="Helvetica,sans-Serif" font-size="10.00">xiiBoxReflectionProbeVisualizer</text>
<text text-anchor="middle" x="237" y="-340.5" font-family="Helvetica,sans-Serif" font-size="10.00">Adapter</text>
</a>
</g>
</g>
<!-- Node0&#45;&gt;Node1 -->
<g id="edge3338_Node000000_Node000001" class="edge">
<title>Node0&#45;&gt;Node1</title>
<g id="a_edge3338_Node000000_Node000001"><a xlink:title=" ">
<path fill="none" stroke="#63b8ff" d="M65.15,-194.74C77.16,-226.62 105.54,-290.28 151,-324.5 155.53,-327.91 160.53,-330.84 165.77,-333.35"/>
<polygon fill="#63b8ff" stroke="#63b8ff" points="68.4,-193.44 61.7,-185.23 61.82,-195.83 68.4,-193.44"/>
</a>
</g>
</g>
<!-- Node2 -->
<g id="Node000002" class="node">
<title>Node2</title>
<g id="a_Node000002"><a xlink:href="db/d5a/classxii_box_visualizer_adapter.htm" target="_top" xlink:title=" ">
<polygon fill="white" stroke="#666666" points="304,-315 170,-315 170,-296 304,-296 304,-315"/>
<text text-anchor="middle" x="237" y="-303" font-family="Helvetica,sans-Serif" font-size="10.00">xiiBoxVisualizerAdapter</text>
</a>
</g>
</g>
<!-- Node0&#45;&gt;Node2 -->
<g id="edge3339_Node000000_Node000002" class="edge">
<title>Node0&#45;&gt;Node2</title>
<g id="a_edge3339_Node000000_Node000002"><a xlink:title=" ">
<path fill="none" stroke="#63b8ff" d="M68.47,-194.12C83.07,-219.46 112.72,-264.32 151,-287.5 156.81,-291.02 163.2,-293.85 169.79,-296.14"/>
<polygon fill="#63b8ff" stroke="#63b8ff" points="71.4,-192.18 63.47,-185.15 65.29,-195.59 71.4,-192.18"/>
</a>
</g>
</g>
<!-- Node3 -->
<g id="Node000003" class="node">
<title>Node3</title>
<g id="a_Node000003"><a xlink:href="da/d15/classxii_camera_visualizer_adapter.htm" target="_top" xlink:title=" ">
<polygon fill="white" stroke="#666666" points="313.5,-278 160.5,-278 160.5,-259 313.5,-259 313.5,-278"/>
<text text-anchor="middle" x="237" y="-266" font-family="Helvetica,sans-Serif" font-size="10.00">xiiCameraVisualizerAdapter</text>
</a>
</g>
</g>
<!-- Node0&#45;&gt;Node3 -->
<g id="edge3340_Node000000_Node000003" class="edge">
<title>Node0&#45;&gt;Node3</title>
<g id="a_edge3340_Node000000_Node000003"><a xlink:title=" ">
<path fill="none" stroke="#63b8ff" d="M74.2,-192.25C91.39,-209.54 120.58,-235.99 151,-250.5 158.22,-253.94 166.09,-256.73 174.03,-258.99"/>
<polygon fill="#63b8ff" stroke="#63b8ff" points="76.66,-189.76 67.19,-185.02 71.64,-194.64 76.66,-189.76"/>
</a>
</g>
</g>
<!-- Node4 -->
<g id="Node000004" class="node">
<title>Node4</title>
<g id="a_Node000004"><a xlink:href="d0/d9f/classxii_capsule_visualizer_adapter.htm" target="_top" xlink:title=" ">
<polygon fill="white" stroke="#666666" points="314,-241 160,-241 160,-222 314,-222 314,-241"/>
<text text-anchor="middle" x="237" y="-229" font-family="Helvetica,sans-Serif" font-size="10.00">xiiCapsuleVisualizerAdapter</text>
</a>
</g>
</g>
<!-- Node0&#45;&gt;Node4 -->
<g id="edge3341_Node000000_Node000004" class="edge">
<title>Node0&#45;&gt;Node4</title>
<g id="a_edge3341_Node000000_Node000004"><a xlink:title=" ">
<path fill="none" stroke="#63b8ff" d="M88.02,-189.23C105.94,-197.16 129.44,-206.85 151,-213.5 161.38,-216.7 172.64,-219.53 183.47,-221.93"/>
<polygon fill="#63b8ff" stroke="#63b8ff" points="89.24,-185.94 78.68,-185.04 86.37,-192.33 89.24,-185.94"/>
</a>
</g>
</g>
<!-- Node5 -->
<g id="Node000005" class="node">
<title>Node5</title>
<g id="a_Node000005"><a xlink:href="d0/dc6/classxii_cone_visualizer_adapter.htm" target="_top" xlink:title=" ">
<polygon fill="white" stroke="#666666" points="307,-204 167,-204 167,-185 307,-185 307,-204"/>
<text text-anchor="middle" x="237" y="-192" font-family="Helvetica,sans-Serif" font-size="10.00">xiiConeVisualizerAdapter</text>
</a>
</g>
</g>
<!-- Node0&#45;&gt;Node5 -->
<g id="edge3342_Node000000_Node000005" class="edge">
<title>Node0&#45;&gt;Node5</title>
<g id="a_edge3342_Node000000_Node000005"><a xlink:title=" ">
<path fill="none" stroke="#63b8ff" d="M125.35,-182.66C138.91,-184.11 153.2,-185.64 166.83,-187.1"/>
<polygon fill="#63b8ff" stroke="#63b8ff" points="125.47,-179.15 115.15,-181.56 124.72,-186.11 125.47,-179.15"/>
</a>
</g>
</g>
<!-- Node6 -->
<g id="Node000006" class="node">
<title>Node6</title>
<g id="a_Node000006"><a xlink:href="df/d76/classxii_cylinder_visualizer_adapter.htm" target="_top" xlink:title=" ">
<polygon fill="white" stroke="#666666" points="314.5,-167 159.5,-167 159.5,-148 314.5,-148 314.5,-167"/>
<text text-anchor="middle" x="237" y="-155" font-family="Helvetica,sans-Serif" font-size="10.00">xiiCylinderVisualizerAdapter</text>
</a>
</g>
</g>
<!-- Node0&#45;&gt;Node6 -->
<g id="edge3343_Node000000_Node000006" class="edge">
<title>Node0&#45;&gt;Node6</title>
<g id="a_edge3343_Node000000_Node000006"><a xlink:title=" ">
<path fill="none" stroke="#63b8ff" d="M125.25,-168.73C136.42,-167.6 148.09,-166.41 159.49,-165.26"/>
<polygon fill="#63b8ff" stroke="#63b8ff" points="124.75,-165.26 115.15,-169.76 125.45,-172.23 124.75,-165.26"/>
</a>
</g>
</g>
<!-- Node7 -->
<g id="Node000007" class="node">
<title>Node7</title>
<g id="a_Node000007"><a xlink:href="d5/d85/classxii_direction_visualizer_adapter.htm" target="_top" xlink:title=" ">
<polygon fill="white" stroke="#666666" points="316.5,-130 157.5,-130 157.5,-111 316.5,-111 316.5,-130"/>
<text text-anchor="middle" x="237" y="-118" font-family="Helvetica,sans-Serif" font-size="10.00">xiiDirectionVisualizerAdapter</text>
</a>
</g>
</g>
<!-- Node0&#45;&gt;Node7 -->
<g id="edge3344_Node000000_Node000007" class="edge">
<title>Node0&#45;&gt;Node7</title>
<g id="a_edge3344_Node000000_Node000007"><a xlink:title=" ">
<path fill="none" stroke="#63b8ff" d="M89.53,-162.07C107.29,-154.72 130.14,-145.85 151,-139.5 162.57,-135.98 175.21,-132.8 187.12,-130.1"/>
<polygon fill="#63b8ff" stroke="#63b8ff" points="88.09,-158.87 80.22,-165.97 90.8,-165.33 88.09,-158.87"/>
</a>
</g>
</g>
<!-- Node8 -->
<g id="Node000008" class="node">
<title>Node8</title>
<g id="a_Node000008"><a xlink:href="d2/d6d/classxii_point_light_visualizer_adapter.htm" target="_top" xlink:title=" ">
<polygon fill="white" stroke="#666666" points="319,-93 155,-93 155,-74 319,-74 319,-93"/>
<text text-anchor="middle" x="237" y="-81" font-family="Helvetica,sans-Serif" font-size="10.00">xiiPointLightVisualizerAdapter</text>
</a>
</g>
</g>
<!-- Node0&#45;&gt;Node8 -->
<g id="edge3345_Node000000_Node000008" class="edge">
<title>Node0&#45;&gt;Node8</title>
<g id="a_edge3345_Node000000_Node000008"><a xlink:title=" ">
<path fill="none" stroke="#63b8ff" d="M74.88,-158.74C92.23,-141.97 121.2,-116.67 151,-102.5 159.19,-98.6 168.21,-95.49 177.23,-93"/>
<polygon fill="#63b8ff" stroke="#63b8ff" points="72.41,-156.26 67.76,-165.78 77.33,-161.24 72.41,-156.26"/>
</a>
</g>
</g>
<!-- Node9 -->
<g id="Node000009" class="node">
<title>Node9</title>
<g id="a_Node000009"><a xlink:href="d4/dc0/classxii_sphere_visualizer_adapter.htm" target="_top" xlink:title=" ">
<polygon fill="white" stroke="#666666" points="311.5,-56 162.5,-56 162.5,-37 311.5,-37 311.5,-56"/>
<text text-anchor="middle" x="237" y="-44" font-family="Helvetica,sans-Serif" font-size="10.00">xiiSphereVisualizerAdapter</text>
</a>
</g>
</g>
<!-- Node0&#45;&gt;Node9 -->
<g id="edge3346_Node000000_Node000009" class="edge">
<title>Node0&#45;&gt;Node9</title>
<g id="a_edge3346_Node000000_Node000009"><a xlink:title=" ">
<path fill="none" stroke="#63b8ff" d="M68.81,-156.9C83.63,-132.02 113.34,-88.37 151,-65.5 157.33,-61.65 164.36,-58.58 171.57,-56.13"/>
<polygon fill="#63b8ff" stroke="#63b8ff" points="65.69,-155.32 63.72,-165.73 71.75,-158.82 65.69,-155.32"/>
</a>
</g>
</g>
<!-- Node10 -->
<g id="Node000010" class="node">
<title>Node10</title>
<g id="a_Node000010"><a xlink:href="df/d8c/classxii_spot_light_visualizer_adapter.htm" target="_top" xlink:title=" ">
<polygon fill="white" stroke="#666666" points="317.5,-19 156.5,-19 156.5,0 317.5,0 317.5,-19"/>
<text text-anchor="middle" x="237" y="-7" font-family="Helvetica,sans-Serif" font-size="10.00">xiiSpotLightVisualizerAdapter</text>
</a>
</g>
</g>
<!-- Node0&#45;&gt;Node10 -->
<g id="edge3347_Node000000_Node000010" class="edge">
<title>Node0&#45;&gt;Node10</title>
<g id="a_edge3347_Node000000_Node000010"><a xlink:title=" ">
<path fill="none" stroke="#63b8ff" d="M65.02,-156.24C76.85,-124.38 104.96,-60.99 151,-28.5 156.44,-24.66 162.51,-21.59 168.85,-19.12"/>
<polygon fill="#63b8ff" stroke="#63b8ff" points="61.69,-155.15 61.63,-165.75 68.29,-157.5 61.69,-155.15"/>
</a>
</g>
</g>
</g>
</svg>
