<?xml version="1.0" encoding="UTF-8" standalone="no"?>
<!DOCTYPE svg PUBLIC "-//W3C//DTD SVG 1.1//EN"
 "http://www.w3.org/Graphics/SVG/1.1/DTD/svg11.dtd">
<!-- Generated by graphviz version 2.43.0 (0)
 -->
<!-- Title: Graphical Class Hierarchy Pages: 1 -->
<svg width="418pt" height="138pt"
 viewBox="0.00 0.00 418.00 138.00" xmlns="http://www.w3.org/2000/svg" xmlns:xlink="http://www.w3.org/1999/xlink">
<g id="graph0" class="graph" transform="scale(1 1) rotate(0) translate(4 134)">
<title>Graphical Class Hierarchy</title>
<!-- Node0 -->
<g id="Node000000" class="node">
<title>Node0</title>
<g id="a_Node000000"><a xlink:href="d4/d5e/classxii_stream_reader.htm" target="_top" xlink:title="Interface for binary in (read) streams.">
<polygon fill="white" stroke="#666666" points="98,-74 0,-74 0,-55 98,-55 98,-74"/>
<text text-anchor="middle" x="49" y="-62" font-family="Helvetica,sans-Serif" font-size="10.00">xiiStreamReader</text>
</a>
</g>
</g>
<!-- Node1 -->
<g id="Node000001" class="node">
<title>Node1</title>
<g id="a_Node000001"><a xlink:href="d9/dd4/classxii_chunk_stream_reader.htm" target="_top" xlink:title="Reader for the chunk format that xiiChunkStreamWriter writes.">
<polygon fill="white" stroke="#666666" points="278.5,-130 149.5,-130 149.5,-111 278.5,-111 278.5,-130"/>
<text text-anchor="middle" x="214" y="-118" font-family="Helvetica,sans-Serif" font-size="10.00">xiiChunkStreamReader</text>
</a>
</g>
</g>
<!-- Node0&#45;&gt;Node1 -->
<g id="edge3283_Node000000_Node000001" class="edge">
<title>Node0&#45;&gt;Node1</title>
<g id="a_edge3283_Node000000_Node000001"><a xlink:title=" ">
<path fill="none" stroke="#63b8ff" d="M77.61,-78.69C93.73,-86.54 114.65,-95.99 134,-102.5 143.6,-105.73 154.05,-108.56 164.11,-110.97"/>
<polygon fill="#63b8ff" stroke="#63b8ff" points="78.77,-75.35 68.25,-74.05 75.66,-81.63 78.77,-75.35"/>
</a>
</g>
</g>
<!-- Node2 -->
<g id="Node000002" class="node">
<title>Node2</title>
<g id="a_Node000002"><a xlink:href="d3/d1b/classxii_file_reader_base.htm" target="_top" xlink:title=" ">
<polygon fill="white" stroke="#666666" points="266,-93 162,-93 162,-74 266,-74 266,-93"/>
<text text-anchor="middle" x="214" y="-81" font-family="Helvetica,sans-Serif" font-size="10.00">xiiFileReaderBase</text>
</a>
</g>
</g>
<!-- Node0&#45;&gt;Node2 -->
<g id="edge3284_Node000000_Node000002" class="edge">
<title>Node0&#45;&gt;Node2</title>
<g id="a_edge3284_Node000000_Node000002"><a xlink:title=" ">
<path fill="none" stroke="#63b8ff" d="M108.15,-71.28C125.71,-73.33 144.85,-75.56 161.91,-77.55"/>
<polygon fill="#63b8ff" stroke="#63b8ff" points="108.36,-67.78 98.02,-70.1 107.55,-74.73 108.36,-67.78"/>
</a>
</g>
</g>
<!-- Node4 -->
<g id="Node000004" class="node">
<title>Node4</title>
<g id="a_Node000004"><a xlink:href="da/d51/classxii_memory_stream_reader.htm" target="_top" xlink:title="A reader which can access a memory stream.">
<polygon fill="white" stroke="#666666" points="283.5,-56 144.5,-56 144.5,-37 283.5,-37 283.5,-56"/>
<text text-anchor="middle" x="214" y="-44" font-family="Helvetica,sans-Serif" font-size="10.00">xiiMemoryStreamReader</text>
</a>
</g>
</g>
<!-- Node0&#45;&gt;Node4 -->
<g id="edge3286_Node000000_Node000004" class="edge">
<title>Node0&#45;&gt;Node4</title>
<g id="a_edge3286_Node000000_Node000004"><a xlink:title=" ">
<path fill="none" stroke="#63b8ff" d="M108.16,-58.08C119.92,-56.78 132.4,-55.4 144.49,-54.07"/>
<polygon fill="#63b8ff" stroke="#63b8ff" points="107.58,-54.62 98.02,-59.2 108.35,-61.58 107.58,-54.62"/>
</a>
</g>
</g>
<!-- Node5 -->
<g id="Node000005" class="node">
<title>Node5</title>
<g id="a_Node000005"><a xlink:href="d8/de5/classxii_raw_memory_stream_reader.htm" target="_top" xlink:title="Maps a raw chunk of memory to the xiiStreamReader interface.">
<polygon fill="white" stroke="#666666" points="294,-19 134,-19 134,0 294,0 294,-19"/>
<text text-anchor="middle" x="214" y="-7" font-family="Helvetica,sans-Serif" font-size="10.00">xiiRawMemoryStreamReader</text>
</a>
</g>
</g>
<!-- Node0&#45;&gt;Node5 -->
<g id="edge3287_Node000000_Node000005" class="edge">
<title>Node0&#45;&gt;Node5</title>
<g id="a_edge3287_Node000000_Node000005"><a xlink:title=" ">
<path fill="none" stroke="#63b8ff" d="M78.99,-50.64C94.96,-43.37 115.29,-34.71 134,-28.5 144.71,-24.95 156.44,-21.76 167.51,-19.05"/>
<polygon fill="#63b8ff" stroke="#63b8ff" points="77.27,-47.58 69.66,-54.95 80.21,-53.93 77.27,-47.58"/>
</a>
</g>
</g>
<!-- Node3 -->
<g id="Node000003" class="node">
<title>Node3</title>
<g id="a_Node000003"><a xlink:href="d6/de4/classxii_file_reader.htm" target="_top" xlink:title="The default class to use to read data from a file, implements the xiiStreamReader interface.">
<polygon fill="white" stroke="#666666" points="410,-93 330,-93 330,-74 410,-74 410,-93"/>
<text text-anchor="middle" x="370" y="-81" font-family="Helvetica,sans-Serif" font-size="10.00">xiiFileReader</text>
</a>
</g>
</g>
<!-- Node2&#45;&gt;Node3 -->
<g id="edge3285_Node000002_Node000003" class="edge">
<title>Node2&#45;&gt;Node3</title>
<g id="a_edge3285_Node000002_Node000003"><a xlink:title=" ">
<path fill="none" stroke="#63b8ff" d="M276.39,-83.5C294.33,-83.5 313.45,-83.5 329.63,-83.5"/>
<polygon fill="#63b8ff" stroke="#63b8ff" points="276.28,-80 266.28,-83.5 276.28,-87 276.28,-80"/>
</a>
</g>
</g>
</g>
</svg>
