<?xml version="1.0" encoding="UTF-8" standalone="no"?>
<!DOCTYPE svg PUBLIC "-//W3C//DTD SVG 1.1//EN"
 "http://www.w3.org/Graphics/SVG/1.1/DTD/svg11.dtd">
<!-- Generated by graphviz version 2.43.0 (0)
 -->
<!-- Title: Graphical Class Hierarchy Pages: 1 -->
<svg width="928pt" height="60pt"
 viewBox="0.00 0.00 928.00 60.00" xmlns="http://www.w3.org/2000/svg" xmlns:xlink="http://www.w3.org/1999/xlink">
<g id="graph0" class="graph" transform="scale(1 1) rotate(0) translate(4 56)">
<title>Graphical Class Hierarchy</title>
<!-- Node0 -->
<g id="Node000000" class="node">
<title>Node0</title>
<g id="a_Node000000"><a xlink:href="da/d4c/classxii_array_base.html" target="_top" xlink:title=" ">
<polygon fill="white" stroke="#666666" points="269,-52 0,-52 0,0 269,0 269,-52"/>
<text text-anchor="start" x="8" y="-40" font-family="Helvetica,sans-Serif" font-size="10.00">xiiArrayBase&lt; xiiHybridArray</text>
<text text-anchor="start" x="8" y="-29" font-family="Helvetica,sans-Serif" font-size="10.00">&lt; xiiSharedPtr&lt; xiiDefaultStateProvider</text>
<text text-anchor="start" x="8" y="-18" font-family="Helvetica,sans-Serif" font-size="10.00"> &gt;, 4 &gt;, xiiDynamicArrayBase&lt; xiiHybridArray</text>
<text text-anchor="middle" x="134.5" y="-7" font-family="Helvetica,sans-Serif" font-size="10.00">&lt; xiiSharedPtr&lt; xiiDefaultStateProvider &gt;, 4 &gt; &gt; &gt;</text>
</a>
</g>
</g>
<!-- Node1 -->
<g id="Node000001" class="node">
<title>Node1</title>
<g id="a_Node000001"><a xlink:href="d2/dea/classxii_dynamic_array_base.html" target="_top" xlink:title=" ">
<polygon fill="white" stroke="#666666" points="460,-52 305,-52 305,0 460,0 460,-52"/>
<text text-anchor="start" x="313" y="-40" font-family="Helvetica,sans-Serif" font-size="10.00">xiiDynamicArrayBase</text>
<text text-anchor="start" x="313" y="-29" font-family="Helvetica,sans-Serif" font-size="10.00">&lt; xiiHybridArray&lt; xiiShared</text>
<text text-anchor="start" x="313" y="-18" font-family="Helvetica,sans-Serif" font-size="10.00">Ptr&lt; xiiDefaultStateProvider</text>
<text text-anchor="middle" x="382.5" y="-7" font-family="Helvetica,sans-Serif" font-size="10.00"> &gt;, 4 &gt; &gt;</text>
</a>
</g>
</g>
<!-- Node0&#45;&gt;Node1 -->
<g id="edge995_Node000000_Node000001" class="edge">
<title>Node0&#45;&gt;Node1</title>
<g id="a_edge995_Node000000_Node000001"><a xlink:title=" ">
<path fill="none" stroke="#63b8ff" d="M279.52,-26C288.19,-26 296.7,-26 304.9,-26"/>
<polygon fill="#63b8ff" stroke="#63b8ff" points="279.3,-22.5 269.3,-26 279.3,-29.5 279.3,-22.5"/>
</a>
</g>
</g>
<!-- Node2 -->
<g id="Node000002" class="node">
<title>Node2</title>
<g id="a_Node000002"><a xlink:href="dc/da4/classxii_dynamic_array.html" target="_top" xlink:title=" ">
<polygon fill="white" stroke="#666666" points="711,-52 496,-52 496,0 711,0 711,-52"/>
<text text-anchor="start" x="504" y="-40" font-family="Helvetica,sans-Serif" font-size="10.00">xiiDynamicArray&lt; xiiHybrid</text>
<text text-anchor="start" x="504" y="-29" font-family="Helvetica,sans-Serif" font-size="10.00">Array&lt; xiiSharedPtr&lt; xiiDefault</text>
<text text-anchor="start" x="504" y="-18" font-family="Helvetica,sans-Serif" font-size="10.00">StateProvider &gt;, 4 &gt;, xiiDefaultAllocator</text>
<text text-anchor="middle" x="603.5" y="-7" font-family="Helvetica,sans-Serif" font-size="10.00">Wrapper &gt;</text>
</a>
</g>
</g>
<!-- Node1&#45;&gt;Node2 -->
<g id="edge996_Node000001_Node000002" class="edge">
<title>Node1&#45;&gt;Node2</title>
<g id="a_edge996_Node000001_Node000002"><a xlink:title=" ">
<path fill="none" stroke="#63b8ff" d="M470.27,-26C478.7,-26 487.32,-26 495.92,-26"/>
<polygon fill="#63b8ff" stroke="#63b8ff" points="470.1,-22.5 460.1,-26 470.1,-29.5 470.1,-22.5"/>
</a>
</g>
</g>
<!-- Node3 -->
<g id="Node000003" class="node">
<title>Node3</title>
<g id="a_Node000003"><a xlink:href="dc/da9/classxii_hybrid_array.html" target="_top" xlink:title=" ">
<polygon fill="white" stroke="#666666" points="920,-46.5 747,-46.5 747,-5.5 920,-5.5 920,-46.5"/>
<text text-anchor="start" x="755" y="-34.5" font-family="Helvetica,sans-Serif" font-size="10.00">xiiHybridArray&lt; xiiHybrid</text>
<text text-anchor="start" x="755" y="-23.5" font-family="Helvetica,sans-Serif" font-size="10.00">Array&lt; xiiSharedPtr&lt; xiiDefault</text>
<text text-anchor="middle" x="833.5" y="-12.5" font-family="Helvetica,sans-Serif" font-size="10.00">StateProvider &gt;, 4 &gt;, 1 &gt;</text>
</a>
</g>
</g>
<!-- Node2&#45;&gt;Node3 -->
<g id="edge997_Node000002_Node000003" class="edge">
<title>Node2&#45;&gt;Node3</title>
<g id="a_edge997_Node000002_Node000003"><a xlink:title=" ">
<path fill="none" stroke="#63b8ff" d="M721.24,-26C729.84,-26 738.41,-26 746.77,-26"/>
<polygon fill="#63b8ff" stroke="#63b8ff" points="721.16,-22.5 711.16,-26 721.16,-29.5 721.16,-22.5"/>
</a>
</g>
</g>
</g>
</svg>
