<?xml version="1.0" encoding="UTF-8" standalone="no"?>
<!DOCTYPE svg PUBLIC "-//W3C//DTD SVG 1.1//EN"
 "http://www.w3.org/Graphics/SVG/1.1/DTD/svg11.dtd">
<!-- Generated by graphviz version 2.43.0 (0)
 -->
<!-- Title: Graphical Class Hierarchy Pages: 1 -->
<svg width="705pt" height="60pt"
 viewBox="0.00 0.00 705.00 60.00" xmlns="http://www.w3.org/2000/svg" xmlns:xlink="http://www.w3.org/1999/xlink">
<g id="graph0" class="graph" transform="scale(1 1) rotate(0) translate(4 56)">
<title>Graphical Class Hierarchy</title>
<!-- Node0 -->
<g id="Node000000" class="node">
<title>Node0</title>
<g id="a_Node000000"><a xlink:href="da/d4c/classxii_array_base.htm" target="_top" xlink:title=" ">
<polygon fill="white" stroke="#666666" points="221,-52 0,-52 0,0 221,0 221,-52"/>
<text text-anchor="start" x="8" y="-40" font-family="Helvetica,sans-Serif" font-size="10.00">xiiArrayBase&lt; xiiGALRayTracing</text>
<text text-anchor="start" x="8" y="-29" font-family="Helvetica,sans-Serif" font-size="10.00">GeneralShaderGroupDescription,</text>
<text text-anchor="start" x="8" y="-18" font-family="Helvetica,sans-Serif" font-size="10.00"> xiiDynamicArrayBase&lt; xiiGALRayTracing</text>
<text text-anchor="middle" x="110.5" y="-7" font-family="Helvetica,sans-Serif" font-size="10.00">GeneralShaderGroupDescription &gt; &gt;</text>
</a>
</g>
</g>
<!-- Node1 -->
<g id="Node000001" class="node">
<title>Node1</title>
<g id="a_Node000001"><a xlink:href="d2/dea/classxii_dynamic_array_base.htm" target="_top" xlink:title=" ">
<polygon fill="white" stroke="#666666" points="442,-46.5 257,-46.5 257,-5.5 442,-5.5 442,-46.5"/>
<text text-anchor="start" x="265" y="-34.5" font-family="Helvetica,sans-Serif" font-size="10.00">xiiDynamicArrayBase</text>
<text text-anchor="start" x="265" y="-23.5" font-family="Helvetica,sans-Serif" font-size="10.00">&lt; xiiGALRayTracingGeneralShader</text>
<text text-anchor="middle" x="349.5" y="-12.5" font-family="Helvetica,sans-Serif" font-size="10.00">GroupDescription &gt;</text>
</a>
</g>
</g>
<!-- Node0&#45;&gt;Node1 -->
<g id="edge892_Node000000_Node000001" class="edge">
<title>Node0&#45;&gt;Node1</title>
<g id="a_edge892_Node000000_Node000001"><a xlink:title=" ">
<path fill="none" stroke="#63b8ff" d="M231.36,-26C239.91,-26 248.44,-26 256.8,-26"/>
<polygon fill="#63b8ff" stroke="#63b8ff" points="231.33,-22.5 221.33,-26 231.33,-29.5 231.33,-22.5"/>
</a>
</g>
</g>
<!-- Node2 -->
<g id="Node000002" class="node">
<title>Node2</title>
<g id="a_Node000002"><a xlink:href="dc/da4/classxii_dynamic_array.htm" target="_top" xlink:title=" ">
<polygon fill="white" stroke="#666666" points="697,-41 478,-41 478,-11 697,-11 697,-41"/>
<text text-anchor="start" x="486" y="-29" font-family="Helvetica,sans-Serif" font-size="10.00">xiiDynamicArray&lt; xiiGALRay</text>
<text text-anchor="middle" x="587.5" y="-18" font-family="Helvetica,sans-Serif" font-size="10.00">TracingGeneralShaderGroupDescription &gt;</text>
</a>
</g>
</g>
<!-- Node1&#45;&gt;Node2 -->
<g id="edge893_Node000001_Node000002" class="edge">
<title>Node1&#45;&gt;Node2</title>
<g id="a_edge893_Node000001_Node000002"><a xlink:title=" ">
<path fill="none" stroke="#63b8ff" d="M452.27,-26C460.68,-26 469.21,-26 477.67,-26"/>
<polygon fill="#63b8ff" stroke="#63b8ff" points="452.08,-22.5 442.08,-26 452.08,-29.5 452.08,-22.5"/>
</a>
</g>
</g>
</g>
</svg>
