<?xml version="1.0" encoding="UTF-8" standalone="no"?>
<!DOCTYPE svg PUBLIC "-//W3C//DTD SVG 1.1//EN"
 "http://www.w3.org/Graphics/SVG/1.1/DTD/svg11.dtd">
<!-- Generated by graphviz version 2.43.0 (0)
 -->
<!-- Title: Graphical Class Hierarchy Pages: 1 -->
<svg width="553pt" height="160pt"
 viewBox="0.00 0.00 553.00 160.00" xmlns="http://www.w3.org/2000/svg" xmlns:xlink="http://www.w3.org/1999/xlink">
<g id="graph0" class="graph" transform="scale(1 1) rotate(0) translate(4 156)">
<title>Graphical Class Hierarchy</title>
<polygon fill="white" stroke="transparent" points="-4,4 -4,-156 549,-156 549,4 -4,4"/>
<!-- Node0 -->
<g id="node1" class="node">
<title>Node0</title>
<g id="a_node1"><a xlink:href="d8/d84/classxii_abstract_message_handler.htm" target="_top" xlink:title="The base class for all message handlers that a type provides.">
<polygon fill="white" stroke="black" points="0,-66.5 0,-85.5 151,-85.5 151,-66.5 0,-66.5"/>
<text text-anchor="middle" x="75.5" y="-73.5" font-family="Helvetica,sans-Serif" font-size="10.00">xiiAbstractMessageHandler</text>
</a>
</g>
</g>
<!-- Node1 -->
<g id="node2" class="node">
<title>Node1</title>
<g id="a_node2"><a xlink:href="dd/db2/classxii_internal_1_1_message_handler_1_1_impl.htm" target="_top" xlink:title=" ">
<polygon fill="white" stroke="black" points="187,-110.5 187,-151.5 341,-151.5 341,-110.5 187,-110.5"/>
<text text-anchor="start" x="195" y="-139.5" font-family="Helvetica,sans-Serif" font-size="10.00">xiiInternal::MessageHandler</text>
<text text-anchor="start" x="195" y="-128.5" font-family="Helvetica,sans-Serif" font-size="10.00">&lt; bIsConst &gt;::Impl&lt; Class,</text>
<text text-anchor="middle" x="264" y="-117.5" font-family="Helvetica,sans-Serif" font-size="10.00"> MessageType, Method &gt;</text>
</a>
</g>
</g>
<!-- Node0&#45;&gt;Node1 -->
<g id="edge1" class="edge">
<title>Node0&#45;&gt;Node1</title>
<path fill="none" stroke="midnightblue" d="M118.7,-88.45C140.76,-94.95 168.32,-103.08 193.43,-110.48"/>
<polygon fill="midnightblue" stroke="midnightblue" points="119.57,-85.05 108.99,-85.58 117.59,-91.77 119.57,-85.05"/>
</g>
<!-- Node2 -->
<g id="node3" class="node">
<title>Node2</title>
<g id="a_node3"><a xlink:href="d4/dbc/classxii_internal_1_1_message_handler_3_01true_01_4_1_1_impl.htm" target="_top" xlink:title=" ">
<polygon fill="white" stroke="black" points="187,-61 187,-91 341,-91 341,-61 187,-61"/>
<text text-anchor="start" x="195" y="-79" font-family="Helvetica,sans-Serif" font-size="10.00">xiiInternal::MessageHandler</text>
<text text-anchor="middle" x="264" y="-68" font-family="Helvetica,sans-Serif" font-size="10.00">&lt; true &gt;::Impl</text>
</a>
</g>
</g>
<!-- Node0&#45;&gt;Node2 -->
<g id="edge2" class="edge">
<title>Node0&#45;&gt;Node2</title>
<path fill="none" stroke="midnightblue" d="M161.03,-76C169.61,-76 178.29,-76 186.78,-76"/>
<polygon fill="midnightblue" stroke="midnightblue" points="161.01,-72.5 151.01,-76 161.01,-79.5 161.01,-72.5"/>
</g>
<!-- Node3 -->
<g id="node4" class="node">
<title>Node3</title>
<g id="a_node4"><a xlink:href="d7/dda/classxii_script_message_handler.htm" target="_top" xlink:title=" ">
<polygon fill="white" stroke="black" points="195,-22.5 195,-41.5 333,-41.5 333,-22.5 195,-22.5"/>
<text text-anchor="middle" x="264" y="-29.5" font-family="Helvetica,sans-Serif" font-size="10.00">xiiScriptMessageHandler</text>
</a>
</g>
</g>
<!-- Node0&#45;&gt;Node3 -->
<g id="edge3" class="edge">
<title>Node0&#45;&gt;Node3</title>
<path fill="none" stroke="midnightblue" d="M126.84,-64.12C156.88,-57.04 194.52,-48.16 222.61,-41.53"/>
<polygon fill="midnightblue" stroke="midnightblue" points="125.9,-60.75 116.97,-66.45 127.5,-67.56 125.9,-60.75"/>
</g>
<!-- Node4 -->
<g id="node5" class="node">
<title>Node4</title>
<g id="a_node5"><a xlink:href="db/d31/classxii_script_coroutine_message_handler.htm" target="_top" xlink:title="A message handler that creates an instance of the given coroutine type and starts it immediately.">
<polygon fill="white" stroke="black" points="387.5,-39 387.5,-69 534.5,-69 534.5,-39 387.5,-39"/>
<text text-anchor="start" x="395.5" y="-57" font-family="Helvetica,sans-Serif" font-size="10.00">xiiScriptCoroutineMessage</text>
<text text-anchor="middle" x="461" y="-46" font-family="Helvetica,sans-Serif" font-size="10.00">Handler</text>
</a>
</g>
</g>
<!-- Node3&#45;&gt;Node4 -->
<g id="edge4" class="edge">
<title>Node3&#45;&gt;Node4</title>
<path fill="none" stroke="midnightblue" d="M343.15,-40.82C357.69,-42.46 372.83,-44.16 387.19,-45.79"/>
<polygon fill="midnightblue" stroke="midnightblue" points="343.53,-37.34 333.2,-39.69 342.75,-44.29 343.53,-37.34"/>
</g>
<!-- Node5 -->
<g id="node6" class="node">
<title>Node5</title>
<g id="a_node6"><a xlink:href="d2/de5/classxii_visual_script_message_handler.htm" target="_top" xlink:title=" ">
<polygon fill="white" stroke="black" points="377,-0.5 377,-19.5 545,-19.5 545,-0.5 377,-0.5"/>
<text text-anchor="middle" x="461" y="-7.5" font-family="Helvetica,sans-Serif" font-size="10.00">xiiVisualScriptMessageHandler</text>
</a>
</g>
</g>
<!-- Node3&#45;&gt;Node5 -->
<g id="edge5" class="edge">
<title>Node3&#45;&gt;Node5</title>
<path fill="none" stroke="midnightblue" d="M343.22,-23.18C354.25,-21.93 365.62,-20.65 376.74,-19.39"/>
<polygon fill="midnightblue" stroke="midnightblue" points="342.75,-19.71 333.2,-24.31 343.53,-26.66 342.75,-19.71"/>
</g>
</g>
</svg>
