<?xml version="1.0" encoding="UTF-8" standalone="no"?>
<!DOCTYPE svg PUBLIC "-//W3C//DTD SVG 1.1//EN"
 "http://www.w3.org/Graphics/SVG/1.1/DTD/svg11.dtd">
<!-- Generated by graphviz version 2.43.0 (0)
 -->
<!-- Title: Graphical Class Hierarchy Pages: 1 -->
<svg width="890pt" height="71pt"
 viewBox="0.00 0.00 890.00 71.00" xmlns="http://www.w3.org/2000/svg" xmlns:xlink="http://www.w3.org/1999/xlink">
<g id="graph0" class="graph" transform="scale(1 1) rotate(0) translate(4 67)">
<title>Graphical Class Hierarchy</title>
<!-- Node0 -->
<g id="Node000000" class="node">
<title>Node0</title>
<g id="a_Node000000"><a xlink:href="da/d4c/classxii_array_base.htm" target="_top" xlink:title=" ">
<polygon fill="white" stroke="#666666" points="212,-63 0,-63 0,0 212,0 212,-63"/>
<text text-anchor="start" x="8" y="-51" font-family="Helvetica,sans-Serif" font-size="10.00">xiiArrayBase&lt; xiiUniquePtr</text>
<text text-anchor="start" x="8" y="-40" font-family="Helvetica,sans-Serif" font-size="10.00">&lt; xiiDataDirectory::ArchiveReader</text>
<text text-anchor="start" x="8" y="-29" font-family="Helvetica,sans-Serif" font-size="10.00">Uncompressed &gt;, xiiDynamicArrayBase</text>
<text text-anchor="start" x="8" y="-18" font-family="Helvetica,sans-Serif" font-size="10.00">&lt; xiiUniquePtr&lt; xiiDataDirectory</text>
<text text-anchor="middle" x="106" y="-7" font-family="Helvetica,sans-Serif" font-size="10.00">::ArchiveReaderUncompressed &gt; &gt; &gt;</text>
</a>
</g>
</g>
<!-- Node1 -->
<g id="Node000001" class="node">
<title>Node1</title>
<g id="a_Node000001"><a xlink:href="d2/dea/classxii_dynamic_array_base.htm" target="_top" xlink:title=" ">
<polygon fill="white" stroke="#666666" points="437,-52 248,-52 248,-11 437,-11 437,-52"/>
<text text-anchor="start" x="256" y="-40" font-family="Helvetica,sans-Serif" font-size="10.00">xiiDynamicArrayBase</text>
<text text-anchor="start" x="256" y="-29" font-family="Helvetica,sans-Serif" font-size="10.00">&lt; xiiUniquePtr&lt; xiiDataDirectory</text>
<text text-anchor="middle" x="342.5" y="-18" font-family="Helvetica,sans-Serif" font-size="10.00">::ArchiveReaderUncompressed &gt; &gt;</text>
</a>
</g>
</g>
<!-- Node0&#45;&gt;Node1 -->
<g id="edge1342_Node000000_Node000001" class="edge">
<title>Node0&#45;&gt;Node1</title>
<g id="a_edge1342_Node000000_Node000001"><a xlink:title=" ">
<path fill="none" stroke="#63b8ff" d="M222.52,-31.5C230.95,-31.5 239.4,-31.5 247.68,-31.5"/>
<polygon fill="#63b8ff" stroke="#63b8ff" points="222.25,-28 212.25,-31.5 222.25,-35 222.25,-28"/>
</a>
</g>
</g>
<!-- Node2 -->
<g id="Node000002" class="node">
<title>Node2</title>
<g id="a_Node000002"><a xlink:href="dc/da4/classxii_dynamic_array.htm" target="_top" xlink:title=" ">
<polygon fill="white" stroke="#666666" points="651,-57.5 473,-57.5 473,-5.5 651,-5.5 651,-57.5"/>
<text text-anchor="start" x="481" y="-45.5" font-family="Helvetica,sans-Serif" font-size="10.00">xiiDynamicArray&lt; xiiUnique</text>
<text text-anchor="start" x="481" y="-34.5" font-family="Helvetica,sans-Serif" font-size="10.00">Ptr&lt; xiiDataDirectory::</text>
<text text-anchor="start" x="481" y="-23.5" font-family="Helvetica,sans-Serif" font-size="10.00">ArchiveReaderUncompressed</text>
<text text-anchor="middle" x="562" y="-12.5" font-family="Helvetica,sans-Serif" font-size="10.00"> &gt;, xiiDefaultAllocatorWrapper &gt;</text>
</a>
</g>
</g>
<!-- Node1&#45;&gt;Node2 -->
<g id="edge1343_Node000001_Node000002" class="edge">
<title>Node1&#45;&gt;Node2</title>
<g id="a_edge1343_Node000001_Node000002"><a xlink:title=" ">
<path fill="none" stroke="#63b8ff" d="M447.05,-31.5C455.64,-31.5 464.28,-31.5 472.74,-31.5"/>
<polygon fill="#63b8ff" stroke="#63b8ff" points="447,-28 437,-31.5 447,-35 447,-28"/>
</a>
</g>
</g>
<!-- Node3 -->
<g id="Node000003" class="node">
<title>Node3</title>
<g id="a_Node000003"><a xlink:href="dc/da9/classxii_hybrid_array.htm" target="_top" xlink:title=" ">
<polygon fill="white" stroke="#666666" points="882,-52 687,-52 687,-11 882,-11 882,-52"/>
<text text-anchor="start" x="695" y="-40" font-family="Helvetica,sans-Serif" font-size="10.00">xiiHybridArray&lt; xiiUnique</text>
<text text-anchor="start" x="695" y="-29" font-family="Helvetica,sans-Serif" font-size="10.00">Ptr&lt; xiiDataDirectory::</text>
<text text-anchor="middle" x="784.5" y="-18" font-family="Helvetica,sans-Serif" font-size="10.00">ArchiveReaderUncompressed &gt;, 4 &gt;</text>
</a>
</g>
</g>
<!-- Node2&#45;&gt;Node3 -->
<g id="edge1344_Node000002_Node000003" class="edge">
<title>Node2&#45;&gt;Node3</title>
<g id="a_edge1344_Node000002_Node000003"><a xlink:title=" ">
<path fill="none" stroke="#63b8ff" d="M661.37,-31.5C669.83,-31.5 678.4,-31.5 686.85,-31.5"/>
<polygon fill="#63b8ff" stroke="#63b8ff" points="661.1,-28 651.1,-31.5 661.1,-35 661.1,-28"/>
</a>
</g>
</g>
</g>
</svg>
