<?xml version="1.0" encoding="UTF-8" standalone="no"?>
<!DOCTYPE svg PUBLIC "-//W3C//DTD SVG 1.1//EN"
 "http://www.w3.org/Graphics/SVG/1.1/DTD/svg11.dtd">
<!-- Generated by graphviz version 2.43.0 (0)
 -->
<!-- Title: Graphical Class Hierarchy Pages: 1 -->
<svg width="551pt" height="83pt"
 viewBox="0.00 0.00 551.00 83.00" xmlns="http://www.w3.org/2000/svg" xmlns:xlink="http://www.w3.org/1999/xlink">
<g id="graph0" class="graph" transform="scale(1 1) rotate(0) translate(4 79)">
<title>Graphical Class Hierarchy</title>
<polygon fill="white" stroke="transparent" points="-4,4 -4,-79 547,-79 547,4 -4,4"/>
<!-- Node0 -->
<g id="node1" class="node">
<title>Node0</title>
<g id="a_node1"><a xlink:href="d9/d59/classxii_rtti_converter_context.htm" target="_top" xlink:title=" ">
<polygon fill="white" stroke="black" points="0,-28 0,-47 132,-47 132,-28 0,-28"/>
<text text-anchor="middle" x="66" y="-35" font-family="Helvetica,sans-Serif" font-size="10.00">xiiRttiConverterContext</text>
</a>
</g>
</g>
<!-- Node1 -->
<g id="node2" class="node">
<title>Node1</title>
<g id="a_node2"><a xlink:href="d3/d69/classxii_apply_native_property_changes_context.htm" target="_top" xlink:title="The xiiApplyNativePropertyChangesContext takes care of generating guids for native pointers that matc...">
<polygon fill="white" stroke="black" points="168,-44.5 168,-74.5 340,-74.5 340,-44.5 168,-44.5"/>
<text text-anchor="start" x="176" y="-62.5" font-family="Helvetica,sans-Serif" font-size="10.00">xiiApplyNativePropertyChanges</text>
<text text-anchor="middle" x="254" y="-51.5" font-family="Helvetica,sans-Serif" font-size="10.00">Context</text>
</a>
</g>
</g>
<!-- Node0&#45;&gt;Node1 -->
<g id="edge1" class="edge">
<title>Node0&#45;&gt;Node1</title>
<path fill="none" stroke="midnightblue" d="M142.19,-46.39C150.59,-47.39 159.2,-48.4 167.71,-49.41"/>
<polygon fill="midnightblue" stroke="midnightblue" points="142.4,-42.89 132.05,-45.19 141.57,-49.84 142.4,-42.89"/>
</g>
<!-- Node2 -->
<g id="node3" class="node">
<title>Node2</title>
<g id="a_node3"><a xlink:href="d2/d12/classxii_world_rtti_converter_context.htm" target="_top" xlink:title="The world rtti converter context tracks created objects and is capable of also handling components / ...">
<polygon fill="white" stroke="black" points="174,-6 174,-25 334,-25 334,-6 174,-6"/>
<text text-anchor="middle" x="254" y="-13" font-family="Helvetica,sans-Serif" font-size="10.00">xiiWorldRttiConverterContext</text>
</a>
</g>
</g>
<!-- Node0&#45;&gt;Node2 -->
<g id="edge2" class="edge">
<title>Node0&#45;&gt;Node2</title>
<path fill="none" stroke="midnightblue" d="M142.01,-28.63C152.51,-27.39 163.33,-26.11 173.9,-24.86"/>
<polygon fill="midnightblue" stroke="midnightblue" points="141.57,-25.16 132.05,-29.81 142.4,-32.11 141.57,-25.16"/>
</g>
<!-- Node3 -->
<g id="node4" class="node">
<title>Node3</title>
<g id="a_node4"><a xlink:href="d3/db7/classxii_render_pipeline_rtti_converter_context.htm" target="_top" xlink:title=" ">
<polygon fill="white" stroke="black" points="376,-0.5 376,-30.5 543,-30.5 543,-0.5 376,-0.5"/>
<text text-anchor="start" x="384" y="-18.5" font-family="Helvetica,sans-Serif" font-size="10.00">xiiRenderPipelineRttiConverter</text>
<text text-anchor="middle" x="459.5" y="-7.5" font-family="Helvetica,sans-Serif" font-size="10.00">Context</text>
</a>
</g>
</g>
<!-- Node2&#45;&gt;Node3 -->
<g id="edge3" class="edge">
<title>Node2&#45;&gt;Node3</title>
<path fill="none" stroke="midnightblue" d="M344.56,-15.5C354.94,-15.5 365.48,-15.5 375.76,-15.5"/>
<polygon fill="midnightblue" stroke="midnightblue" points="344.26,-12 334.26,-15.5 344.26,-19 344.26,-12"/>
</g>
</g>
</svg>
