<?xml version="1.0" encoding="UTF-8" standalone="no"?>
<!DOCTYPE svg PUBLIC "-//W3C//DTD SVG 1.1//EN"
 "http://www.w3.org/Graphics/SVG/1.1/DTD/svg11.dtd">
<!-- Generated by graphviz version 2.43.0 (0)
 -->
<!-- Title: Graphical Class Hierarchy Pages: 1 -->
<svg width="670pt" height="86pt"
 viewBox="0.00 0.00 670.00 86.00" xmlns="http://www.w3.org/2000/svg" xmlns:xlink="http://www.w3.org/1999/xlink">
<g id="graph0" class="graph" transform="scale(1 1) rotate(0) translate(4 82)">
<title>Graphical Class Hierarchy</title>
<!-- Node0 -->
<g id="Node000000" class="node">
<title>Node0</title>
<g id="a_Node000000"><a xlink:href="da/d4c/classxii_array_base.html" target="_top" xlink:title=" ">
<polygon fill="white" stroke="#666666" points="149,-59.5 0,-59.5 0,-18.5 149,-18.5 149,-59.5"/>
<text text-anchor="start" x="8" y="-47.5" font-family="Helvetica,sans-Serif" font-size="10.00">xiiArrayBase&lt; const</text>
<text text-anchor="start" x="8" y="-36.5" font-family="Helvetica,sans-Serif" font-size="10.00"> xiiRTTI *, xiiDynamicArray</text>
<text text-anchor="middle" x="74.5" y="-25.5" font-family="Helvetica,sans-Serif" font-size="10.00">Base&lt; const xiiRTTI * &gt; &gt;</text>
</a>
</g>
</g>
<!-- Node1 -->
<g id="Node000001" class="node">
<title>Node1</title>
<g id="a_Node000001"><a xlink:href="d2/dea/classxii_dynamic_array_base.html" target="_top" xlink:title=" ">
<polygon fill="white" stroke="#666666" points="307,-54 185,-54 185,-24 307,-24 307,-54"/>
<text text-anchor="start" x="193" y="-42" font-family="Helvetica,sans-Serif" font-size="10.00">xiiDynamicArrayBase</text>
<text text-anchor="middle" x="246" y="-31" font-family="Helvetica,sans-Serif" font-size="10.00">&lt; const xiiRTTI * &gt;</text>
</a>
</g>
</g>
<!-- Node0&#45;&gt;Node1 -->
<g id="edge458_Node000000_Node000001" class="edge">
<title>Node0&#45;&gt;Node1</title>
<g id="a_edge458_Node000000_Node000001"><a xlink:title=" ">
<path fill="none" stroke="#63b8ff" d="M159.41,-39C168,-39 176.6,-39 184.87,-39"/>
<polygon fill="#63b8ff" stroke="#63b8ff" points="159.35,-35.5 149.35,-39 159.35,-42.5 159.35,-35.5"/>
</a>
</g>
</g>
<!-- Node2 -->
<g id="Node000002" class="node">
<title>Node2</title>
<g id="a_Node000002"><a xlink:href="dc/da4/classxii_dynamic_array.html" target="_top" xlink:title=" ">
<polygon fill="white" stroke="#666666" points="501,-59.5 343,-59.5 343,-18.5 501,-18.5 501,-59.5"/>
<text text-anchor="start" x="351" y="-47.5" font-family="Helvetica,sans-Serif" font-size="10.00">xiiDynamicArray&lt; const</text>
<text text-anchor="start" x="351" y="-36.5" font-family="Helvetica,sans-Serif" font-size="10.00"> xiiRTTI *, xiiDefaultAllocator</text>
<text text-anchor="middle" x="422" y="-25.5" font-family="Helvetica,sans-Serif" font-size="10.00">Wrapper &gt;</text>
</a>
</g>
</g>
<!-- Node1&#45;&gt;Node2 -->
<g id="edge459_Node000001_Node000002" class="edge">
<title>Node1&#45;&gt;Node2</title>
<g id="a_edge459_Node000001_Node000002"><a xlink:title=" ">
<path fill="none" stroke="#63b8ff" d="M317.48,-39C325.87,-39 334.47,-39 342.96,-39"/>
<polygon fill="#63b8ff" stroke="#63b8ff" points="317.37,-35.5 307.37,-39 317.37,-42.5 317.37,-35.5"/>
</a>
</g>
</g>
<!-- Node3 -->
<g id="Node000003" class="node">
<title>Node3</title>
<g id="a_Node000003"><a xlink:href="dc/da9/classxii_hybrid_array.html" target="_top" xlink:title=" ">
<polygon fill="white" stroke="#666666" points="662,-78 537,-78 537,-48 662,-48 662,-78"/>
<text text-anchor="start" x="545" y="-66" font-family="Helvetica,sans-Serif" font-size="10.00">xiiHybridArray&lt; const</text>
<text text-anchor="middle" x="599.5" y="-55" font-family="Helvetica,sans-Serif" font-size="10.00"> xiiRTTI *, 16 &gt;</text>
</a>
</g>
</g>
<!-- Node2&#45;&gt;Node3 -->
<g id="edge460_Node000002_Node000003" class="edge">
<title>Node2&#45;&gt;Node3</title>
<g id="a_edge460_Node000002_Node000003"><a xlink:title=" ">
<path fill="none" stroke="#63b8ff" d="M511.39,-51.09C520.05,-52.27 528.69,-53.45 536.99,-54.59"/>
<polygon fill="#63b8ff" stroke="#63b8ff" points="511.64,-47.59 501.25,-49.7 510.69,-54.52 511.64,-47.59"/>
</a>
</g>
</g>
<!-- Node4 -->
<g id="Node000004" class="node">
<title>Node4</title>
<g id="a_Node000004"><a xlink:href="dc/da9/classxii_hybrid_array.html" target="_top" xlink:title=" ">
<polygon fill="white" stroke="#666666" points="662,-30 537,-30 537,0 662,0 662,-30"/>
<text text-anchor="start" x="545" y="-18" font-family="Helvetica,sans-Serif" font-size="10.00">xiiHybridArray&lt; const</text>
<text text-anchor="middle" x="599.5" y="-7" font-family="Helvetica,sans-Serif" font-size="10.00"> xiiRTTI *, 8 &gt;</text>
</a>
</g>
</g>
<!-- Node2&#45;&gt;Node4 -->
<g id="edge461_Node000002_Node000004" class="edge">
<title>Node2&#45;&gt;Node4</title>
<g id="a_edge461_Node000002_Node000004"><a xlink:title=" ">
<path fill="none" stroke="#63b8ff" d="M511.39,-26.91C520.05,-25.73 528.69,-24.55 536.99,-23.41"/>
<polygon fill="#63b8ff" stroke="#63b8ff" points="510.69,-23.48 501.25,-28.3 511.64,-30.41 510.69,-23.48"/>
</a>
</g>
</g>
</g>
</svg>
