<?xml version="1.0" encoding="UTF-8" standalone="no"?>
<!DOCTYPE svg PUBLIC "-//W3C//DTD SVG 1.1//EN"
 "http://www.w3.org/Graphics/SVG/1.1/DTD/svg11.dtd">
<!-- Generated by graphviz version 2.43.0 (0)
 -->
<!-- Title: Graphical Class Hierarchy Pages: 1 -->
<svg width="652pt" height="71pt"
 viewBox="0.00 0.00 652.00 71.00" xmlns="http://www.w3.org/2000/svg" xmlns:xlink="http://www.w3.org/1999/xlink">
<g id="graph0" class="graph" transform="scale(1 1) rotate(0) translate(4 67)">
<title>Graphical Class Hierarchy</title>
<!-- Node0 -->
<g id="Node000000" class="node">
<title>Node0</title>
<g id="a_Node000000"><a xlink:href="da/d4c/classxii_array_base.html" target="_top" xlink:title=" ">
<polygon fill="white" stroke="#666666" points="226,-63 0,-63 0,0 226,0 226,-63"/>
<text text-anchor="start" x="8" y="-51" font-family="Helvetica,sans-Serif" font-size="10.00">xiiArrayBase&lt; TempCluster</text>
<text text-anchor="start" x="8" y="-40" font-family="Helvetica,sans-Serif" font-size="10.00">&lt; xiiClusteredDataCPU::</text>
<text text-anchor="start" x="8" y="-29" font-family="Helvetica,sans-Serif" font-size="10.00">MAX_LIGHT_DATA &gt;, xiiDynamicArray</text>
<text text-anchor="start" x="8" y="-18" font-family="Helvetica,sans-Serif" font-size="10.00">Base&lt; TempCluster&lt; xiiClusteredDataCPU</text>
<text text-anchor="middle" x="113" y="-7" font-family="Helvetica,sans-Serif" font-size="10.00">::MAX_LIGHT_DATA &gt; &gt; &gt;</text>
</a>
</g>
</g>
<!-- Node1 -->
<g id="Node000001" class="node">
<title>Node1</title>
<g id="a_Node000001"><a xlink:href="d2/dea/classxii_dynamic_array_base.html" target="_top" xlink:title=" ">
<polygon fill="white" stroke="#666666" points="438,-52 262,-52 262,-11 438,-11 438,-52"/>
<text text-anchor="start" x="270" y="-40" font-family="Helvetica,sans-Serif" font-size="10.00">xiiDynamicArrayBase</text>
<text text-anchor="start" x="270" y="-29" font-family="Helvetica,sans-Serif" font-size="10.00">&lt; TempCluster&lt; xiiClustered</text>
<text text-anchor="middle" x="350" y="-18" font-family="Helvetica,sans-Serif" font-size="10.00">DataCPU::MAX_LIGHT_DATA &gt; &gt;</text>
</a>
</g>
</g>
<!-- Node0&#45;&gt;Node1 -->
<g id="edge607_Node000000_Node000001" class="edge">
<title>Node0&#45;&gt;Node1</title>
<g id="a_edge607_Node000000_Node000001"><a xlink:title=" ">
<path fill="none" stroke="#63b8ff" d="M236.4,-31.5C244.97,-31.5 253.5,-31.5 261.81,-31.5"/>
<polygon fill="#63b8ff" stroke="#63b8ff" points="236.34,-28 226.34,-31.5 236.34,-35 236.34,-28"/>
</a>
</g>
</g>
<!-- Node2 -->
<g id="Node000002" class="node">
<title>Node2</title>
<g id="a_Node000002"><a xlink:href="dc/da4/classxii_dynamic_array.html" target="_top" xlink:title=" ">
<polygon fill="white" stroke="#666666" points="644,-52 474,-52 474,-11 644,-11 644,-52"/>
<text text-anchor="start" x="482" y="-40" font-family="Helvetica,sans-Serif" font-size="10.00">xiiDynamicArray&lt; TempCluster</text>
<text text-anchor="start" x="482" y="-29" font-family="Helvetica,sans-Serif" font-size="10.00">&lt; xiiClusteredDataCPU::MAX</text>
<text text-anchor="middle" x="559" y="-18" font-family="Helvetica,sans-Serif" font-size="10.00">_LIGHT_DATA &gt; &gt;</text>
</a>
</g>
</g>
<!-- Node1&#45;&gt;Node2 -->
<g id="edge608_Node000001_Node000002" class="edge">
<title>Node1&#45;&gt;Node2</title>
<g id="a_edge608_Node000001_Node000002"><a xlink:title=" ">
<path fill="none" stroke="#63b8ff" d="M448.22,-31.5C456.8,-31.5 465.43,-31.5 473.89,-31.5"/>
<polygon fill="#63b8ff" stroke="#63b8ff" points="448.19,-28 438.19,-31.5 448.19,-35 448.19,-28"/>
</a>
</g>
</g>
</g>
</svg>
