<?xml version="1.0" encoding="UTF-8" standalone="no"?>
<!DOCTYPE svg PUBLIC "-//W3C//DTD SVG 1.1//EN"
 "http://www.w3.org/Graphics/SVG/1.1/DTD/svg11.dtd">
<!-- Generated by graphviz version 2.43.0 (0)
 -->
<!-- Title: Graphical Class Hierarchy Pages: 1 -->
<svg width="516pt" height="49pt"
 viewBox="0.00 0.00 516.00 49.00" xmlns="http://www.w3.org/2000/svg" xmlns:xlink="http://www.w3.org/1999/xlink">
<g id="graph0" class="graph" transform="scale(1 1) rotate(0) translate(4 45)">
<title>Graphical Class Hierarchy</title>
<!-- Node0 -->
<g id="Node000000" class="node">
<title>Node0</title>
<g id="a_Node000000"><a xlink:href="da/d4c/classxii_array_base.html" target="_top" xlink:title=" ">
<polygon fill="white" stroke="#666666" points="163,-41 0,-41 0,0 163,0 163,-41"/>
<text text-anchor="start" x="8" y="-29" font-family="Helvetica,sans-Serif" font-size="10.00">xiiArrayBase&lt; xiiGameObject</text>
<text text-anchor="start" x="8" y="-18" font-family="Helvetica,sans-Serif" font-size="10.00"> *, xiiDynamicArrayBase</text>
<text text-anchor="middle" x="81.5" y="-7" font-family="Helvetica,sans-Serif" font-size="10.00">&lt; xiiGameObject * &gt; &gt;</text>
</a>
</g>
</g>
<!-- Node1 -->
<g id="Node000001" class="node">
<title>Node1</title>
<g id="a_Node000001"><a xlink:href="d2/dea/classxii_dynamic_array_base.html" target="_top" xlink:title=" ">
<polygon fill="white" stroke="#666666" points="321,-35.5 199,-35.5 199,-5.5 321,-5.5 321,-35.5"/>
<text text-anchor="start" x="207" y="-23.5" font-family="Helvetica,sans-Serif" font-size="10.00">xiiDynamicArrayBase</text>
<text text-anchor="middle" x="260" y="-12.5" font-family="Helvetica,sans-Serif" font-size="10.00">&lt; xiiGameObject * &gt;</text>
</a>
</g>
</g>
<!-- Node0&#45;&gt;Node1 -->
<g id="edge977_Node000000_Node000001" class="edge">
<title>Node0&#45;&gt;Node1</title>
<g id="a_edge977_Node000000_Node000001"><a xlink:title=" ">
<path fill="none" stroke="#63b8ff" d="M173.23,-20.5C181.95,-20.5 190.64,-20.5 198.95,-20.5"/>
<polygon fill="#63b8ff" stroke="#63b8ff" points="173,-17 163,-20.5 173,-24 173,-17"/>
</a>
</g>
</g>
<!-- Node2 -->
<g id="Node000002" class="node">
<title>Node2</title>
<g id="a_Node000002"><a xlink:href="dc/da4/classxii_dynamic_array.html" target="_top" xlink:title=" ">
<polygon fill="white" stroke="#666666" points="508,-35.5 357,-35.5 357,-5.5 508,-5.5 508,-35.5"/>
<text text-anchor="start" x="365" y="-23.5" font-family="Helvetica,sans-Serif" font-size="10.00">xiiDynamicArray&lt; xiiGame</text>
<text text-anchor="middle" x="432.5" y="-12.5" font-family="Helvetica,sans-Serif" font-size="10.00">Object * &gt;</text>
</a>
</g>
</g>
<!-- Node1&#45;&gt;Node2 -->
<g id="edge978_Node000001_Node000002" class="edge">
<title>Node1&#45;&gt;Node2</title>
<g id="a_edge978_Node000001_Node000002"><a xlink:title=" ">
<path fill="none" stroke="#63b8ff" d="M331.32,-20.5C339.79,-20.5 348.46,-20.5 356.99,-20.5"/>
<polygon fill="#63b8ff" stroke="#63b8ff" points="331.11,-17 321.11,-20.5 331.11,-24 331.11,-17"/>
</a>
</g>
</g>
</g>
</svg>
