<?xml version="1.0" encoding="UTF-8" standalone="no"?>
<!DOCTYPE svg PUBLIC "-//W3C//DTD SVG 1.1//EN"
 "http://www.w3.org/Graphics/SVG/1.1/DTD/svg11.dtd">
<!-- Generated by graphviz version 2.43.0 (0)
 -->
<!-- Title: Graphical Class Hierarchy Pages: 1 -->
<svg width="906pt" height="71pt"
 viewBox="0.00 0.00 906.00 71.00" xmlns="http://www.w3.org/2000/svg" xmlns:xlink="http://www.w3.org/1999/xlink">
<g id="graph0" class="graph" transform="scale(1 1) rotate(0) translate(4 67)">
<title>Graphical Class Hierarchy</title>
<!-- Node0 -->
<g id="Node000000" class="node">
<title>Node0</title>
<g id="a_Node000000"><a xlink:href="da/d4c/classxii_array_base.htm" target="_top" xlink:title=" ">
<polygon fill="white" stroke="#666666" points="231,-63 0,-63 0,0 231,0 231,-63"/>
<text text-anchor="start" x="8" y="-51" font-family="Helvetica,sans-Serif" font-size="10.00">xiiArrayBase&lt; xiiUniquePtr</text>
<text text-anchor="start" x="8" y="-40" font-family="Helvetica,sans-Serif" font-size="10.00">&lt; xiiReflectionPool::Data</text>
<text text-anchor="start" x="8" y="-29" font-family="Helvetica,sans-Serif" font-size="10.00">::WorldReflectionData &gt;, xiiDynamic</text>
<text text-anchor="start" x="8" y="-18" font-family="Helvetica,sans-Serif" font-size="10.00">ArrayBase&lt; xiiUniquePtr&lt; xiiReflectionPool</text>
<text text-anchor="middle" x="115.5" y="-7" font-family="Helvetica,sans-Serif" font-size="10.00">::Data::WorldReflectionData &gt; &gt; &gt;</text>
</a>
</g>
</g>
<!-- Node1 -->
<g id="Node000001" class="node">
<title>Node1</title>
<g id="a_Node000001"><a xlink:href="d2/dea/classxii_dynamic_array_base.htm" target="_top" xlink:title=" ">
<polygon fill="white" stroke="#666666" points="462,-52 267,-52 267,-11 462,-11 462,-52"/>
<text text-anchor="start" x="275" y="-40" font-family="Helvetica,sans-Serif" font-size="10.00">xiiDynamicArrayBase</text>
<text text-anchor="start" x="275" y="-29" font-family="Helvetica,sans-Serif" font-size="10.00">&lt; xiiUniquePtr&lt; xiiReflection</text>
<text text-anchor="middle" x="364.5" y="-18" font-family="Helvetica,sans-Serif" font-size="10.00">Pool::Data::WorldReflectionData &gt; &gt;</text>
</a>
</g>
</g>
<!-- Node0&#45;&gt;Node1 -->
<g id="edge1354_Node000000_Node000001" class="edge">
<title>Node0&#45;&gt;Node1</title>
<g id="a_edge1354_Node000000_Node000001"><a xlink:title=" ">
<path fill="none" stroke="#63b8ff" d="M241.33,-31.5C249.86,-31.5 258.38,-31.5 266.73,-31.5"/>
<polygon fill="#63b8ff" stroke="#63b8ff" points="241.32,-28 231.32,-31.5 241.32,-35 241.32,-28"/>
</a>
</g>
</g>
<!-- Node2 -->
<g id="Node000002" class="node">
<title>Node2</title>
<g id="a_Node000002"><a xlink:href="dc/da4/classxii_dynamic_array.htm" target="_top" xlink:title=" ">
<polygon fill="white" stroke="#666666" points="676,-57.5 498,-57.5 498,-5.5 676,-5.5 676,-57.5"/>
<text text-anchor="start" x="506" y="-45.5" font-family="Helvetica,sans-Serif" font-size="10.00">xiiDynamicArray&lt; xiiUnique</text>
<text text-anchor="start" x="506" y="-34.5" font-family="Helvetica,sans-Serif" font-size="10.00">Ptr&lt; xiiReflectionPool</text>
<text text-anchor="start" x="506" y="-23.5" font-family="Helvetica,sans-Serif" font-size="10.00">::Data::WorldReflectionData</text>
<text text-anchor="middle" x="587" y="-12.5" font-family="Helvetica,sans-Serif" font-size="10.00"> &gt;, xiiDefaultAllocatorWrapper &gt;</text>
</a>
</g>
</g>
<!-- Node1&#45;&gt;Node2 -->
<g id="edge1355_Node000001_Node000002" class="edge">
<title>Node1&#45;&gt;Node2</title>
<g id="a_edge1355_Node000001_Node000002"><a xlink:title=" ">
<path fill="none" stroke="#63b8ff" d="M472.49,-31.5C480.93,-31.5 489.4,-31.5 497.7,-31.5"/>
<polygon fill="#63b8ff" stroke="#63b8ff" points="472.21,-28 462.21,-31.5 472.21,-35 472.21,-28"/>
</a>
</g>
</g>
<!-- Node3 -->
<g id="Node000003" class="node">
<title>Node3</title>
<g id="a_Node000003"><a xlink:href="dc/da9/classxii_hybrid_array.htm" target="_top" xlink:title=" ">
<polygon fill="white" stroke="#666666" points="898,-52 712,-52 712,-11 898,-11 898,-52"/>
<text text-anchor="start" x="720" y="-40" font-family="Helvetica,sans-Serif" font-size="10.00">xiiHybridArray&lt; xiiUnique</text>
<text text-anchor="start" x="720" y="-29" font-family="Helvetica,sans-Serif" font-size="10.00">Ptr&lt; xiiReflectionPool</text>
<text text-anchor="middle" x="805" y="-18" font-family="Helvetica,sans-Serif" font-size="10.00">::Data::WorldReflectionData &gt;, 2 &gt;</text>
</a>
</g>
</g>
<!-- Node2&#45;&gt;Node3 -->
<g id="edge1356_Node000002_Node000003" class="edge">
<title>Node2&#45;&gt;Node3</title>
<g id="a_edge1356_Node000002_Node000003"><a xlink:title=" ">
<path fill="none" stroke="#63b8ff" d="M686.17,-31.5C694.74,-31.5 703.39,-31.5 711.9,-31.5"/>
<polygon fill="#63b8ff" stroke="#63b8ff" points="686.17,-28 676.17,-31.5 686.17,-35 686.17,-28"/>
</a>
</g>
</g>
</g>
</svg>
