<?xml version="1.0" encoding="UTF-8" standalone="no"?>
<!DOCTYPE svg PUBLIC "-//W3C//DTD SVG 1.1//EN"
 "http://www.w3.org/Graphics/SVG/1.1/DTD/svg11.dtd">
<!-- Generated by graphviz version 2.43.0 (0)
 -->
<!-- Title: Graphical Class Hierarchy Pages: 1 -->
<svg width="919pt" height="49pt"
 viewBox="0.00 0.00 919.00 49.00" xmlns="http://www.w3.org/2000/svg" xmlns:xlink="http://www.w3.org/1999/xlink">
<g id="graph0" class="graph" transform="scale(1 1) rotate(0) translate(4 45)">
<title>Graphical Class Hierarchy</title>
<!-- Node0 -->
<g id="Node000000" class="node">
<title>Node0</title>
<g id="a_Node000000"><a xlink:href="da/d4c/classxii_array_base.htm" target="_top" xlink:title=" ">
<polygon fill="white" stroke="#666666" points="271,-41 0,-41 0,0 271,0 271,-41"/>
<text text-anchor="start" x="8" y="-29" font-family="Helvetica,sans-Serif" font-size="10.00">xiiArrayBase&lt; xiiAnimPose</text>
<text text-anchor="start" x="8" y="-18" font-family="Helvetica,sans-Serif" font-size="10.00">GeneratorCommandID, xiiDynamic</text>
<text text-anchor="middle" x="135.5" y="-7" font-family="Helvetica,sans-Serif" font-size="10.00">ArrayBase&lt; xiiAnimPoseGeneratorCommandID &gt; &gt;</text>
</a>
</g>
</g>
<!-- Node1 -->
<g id="Node000001" class="node">
<title>Node1</title>
<g id="a_Node000001"><a xlink:href="d2/dea/classxii_dynamic_array_base.htm" target="_top" xlink:title=" ">
<polygon fill="white" stroke="#666666" points="516,-35.5 307,-35.5 307,-5.5 516,-5.5 516,-35.5"/>
<text text-anchor="start" x="315" y="-23.5" font-family="Helvetica,sans-Serif" font-size="10.00">xiiDynamicArrayBase</text>
<text text-anchor="middle" x="411.5" y="-12.5" font-family="Helvetica,sans-Serif" font-size="10.00">&lt; xiiAnimPoseGeneratorCommandID &gt;</text>
</a>
</g>
</g>
<!-- Node0&#45;&gt;Node1 -->
<g id="edge668_Node000000_Node000001" class="edge">
<title>Node0&#45;&gt;Node1</title>
<g id="a_edge668_Node000000_Node000001"><a xlink:title=" ">
<path fill="none" stroke="#63b8ff" d="M281.25,-20.5C289.9,-20.5 298.5,-20.5 306.93,-20.5"/>
<polygon fill="#63b8ff" stroke="#63b8ff" points="281.09,-17 271.09,-20.5 281.09,-24 281.09,-17"/>
</a>
</g>
</g>
<!-- Node2 -->
<g id="Node000002" class="node">
<title>Node2</title>
<g id="a_Node000002"><a xlink:href="dc/da4/classxii_dynamic_array.htm" target="_top" xlink:title=" ">
<polygon fill="white" stroke="#666666" points="716,-41 552,-41 552,0 716,0 716,-41"/>
<text text-anchor="start" x="560" y="-29" font-family="Helvetica,sans-Serif" font-size="10.00">xiiDynamicArray&lt; xiiAnim</text>
<text text-anchor="start" x="560" y="-18" font-family="Helvetica,sans-Serif" font-size="10.00">PoseGeneratorCommandID,</text>
<text text-anchor="middle" x="634" y="-7" font-family="Helvetica,sans-Serif" font-size="10.00"> xiiDefaultAllocatorWrapper &gt;</text>
</a>
</g>
</g>
<!-- Node1&#45;&gt;Node2 -->
<g id="edge669_Node000001_Node000002" class="edge">
<title>Node1&#45;&gt;Node2</title>
<g id="a_edge669_Node000001_Node000002"><a xlink:title=" ">
<path fill="none" stroke="#63b8ff" d="M526.39,-20.5C534.99,-20.5 543.56,-20.5 551.89,-20.5"/>
<polygon fill="#63b8ff" stroke="#63b8ff" points="526.29,-17 516.29,-20.5 526.29,-24 526.29,-17"/>
</a>
</g>
</g>
<!-- Node3 -->
<g id="Node000003" class="node">
<title>Node3</title>
<g id="a_Node000003"><a xlink:href="dc/da9/classxii_hybrid_array.htm" target="_top" xlink:title=" ">
<polygon fill="white" stroke="#666666" points="911,-35.5 752,-35.5 752,-5.5 911,-5.5 911,-35.5"/>
<text text-anchor="start" x="760" y="-23.5" font-family="Helvetica,sans-Serif" font-size="10.00">xiiHybridArray&lt; xiiAnimPose</text>
<text text-anchor="middle" x="831.5" y="-12.5" font-family="Helvetica,sans-Serif" font-size="10.00">GeneratorCommandID, 4 &gt;</text>
</a>
</g>
</g>
<!-- Node2&#45;&gt;Node3 -->
<g id="edge670_Node000002_Node000003" class="edge">
<title>Node2&#45;&gt;Node3</title>
<g id="a_edge670_Node000002_Node000003"><a xlink:title=" ">
<path fill="none" stroke="#63b8ff" d="M726.47,-20.5C734.91,-20.5 743.42,-20.5 751.74,-20.5"/>
<polygon fill="#63b8ff" stroke="#63b8ff" points="726.21,-17 716.21,-20.5 726.21,-24 726.21,-17"/>
</a>
</g>
</g>
</g>
</svg>
