<?xml version="1.0" encoding="UTF-8" standalone="no"?>
<!DOCTYPE svg PUBLIC "-//W3C//DTD SVG 1.1//EN"
 "http://www.w3.org/Graphics/SVG/1.1/DTD/svg11.dtd">
<!-- Generated by graphviz version 2.43.0 (0)
 -->
<!-- Title: Graphical Class Hierarchy Pages: 1 -->
<svg width="1001pt" height="49pt"
 viewBox="0.00 0.00 1001.00 49.00" xmlns="http://www.w3.org/2000/svg" xmlns:xlink="http://www.w3.org/1999/xlink">
<g id="graph0" class="graph" transform="scale(1 1) rotate(0) translate(4 45)">
<title>Graphical Class Hierarchy</title>
<!-- Node0 -->
<g id="Node000000" class="node">
<title>Node0</title>
<g id="a_Node000000"><a xlink:href="da/d4c/classxii_array_base.htm" target="_top" xlink:title=" ">
<polygon fill="white" stroke="#666666" points="227,-41 0,-41 0,0 227,0 227,-41"/>
<text text-anchor="start" x="8" y="-29" font-family="Helvetica,sans-Serif" font-size="10.00">xiiArrayBase&lt; xiiGALBLASBounding</text>
<text text-anchor="start" x="8" y="-18" font-family="Helvetica,sans-Serif" font-size="10.00">BoxDescription, xiiDynamicArrayBase</text>
<text text-anchor="middle" x="113.5" y="-7" font-family="Helvetica,sans-Serif" font-size="10.00">&lt; xiiGALBLASBoundingBoxDescription &gt; &gt;</text>
</a>
</g>
</g>
<!-- Node1 -->
<g id="Node000001" class="node">
<title>Node1</title>
<g id="a_Node000001"><a xlink:href="d2/dea/classxii_dynamic_array_base.htm" target="_top" xlink:title=" ">
<polygon fill="white" stroke="#666666" points="479,-35.5 263,-35.5 263,-5.5 479,-5.5 479,-35.5"/>
<text text-anchor="start" x="271" y="-23.5" font-family="Helvetica,sans-Serif" font-size="10.00">xiiDynamicArrayBase</text>
<text text-anchor="middle" x="371" y="-12.5" font-family="Helvetica,sans-Serif" font-size="10.00">&lt; xiiGALBLASBoundingBoxDescription &gt;</text>
</a>
</g>
</g>
<!-- Node0&#45;&gt;Node1 -->
<g id="edge871_Node000000_Node000001" class="edge">
<title>Node0&#45;&gt;Node1</title>
<g id="a_edge871_Node000000_Node000001"><a xlink:title=" ">
<path fill="none" stroke="#63b8ff" d="M237.54,-20.5C245.95,-20.5 254.39,-20.5 262.71,-20.5"/>
<polygon fill="#63b8ff" stroke="#63b8ff" points="237.31,-17 227.31,-20.5 237.31,-24 237.31,-17"/>
</a>
</g>
</g>
<!-- Node2 -->
<g id="Node000002" class="node">
<title>Node2</title>
<g id="a_Node000002"><a xlink:href="dc/da4/classxii_dynamic_array.htm" target="_top" xlink:title=" ">
<polygon fill="white" stroke="#666666" points="756,-35.5 515,-35.5 515,-5.5 756,-5.5 756,-35.5"/>
<text text-anchor="start" x="523" y="-23.5" font-family="Helvetica,sans-Serif" font-size="10.00">xiiDynamicArray&lt; xiiGALBLASBounding</text>
<text text-anchor="middle" x="635.5" y="-12.5" font-family="Helvetica,sans-Serif" font-size="10.00">BoxDescription, xiiDefaultAllocatorWrapper &gt;</text>
</a>
</g>
</g>
<!-- Node1&#45;&gt;Node2 -->
<g id="edge872_Node000001_Node000002" class="edge">
<title>Node1&#45;&gt;Node2</title>
<g id="a_edge872_Node000001_Node000002"><a xlink:title=" ">
<path fill="none" stroke="#63b8ff" d="M489.41,-20.5C497.86,-20.5 506.39,-20.5 514.85,-20.5"/>
<polygon fill="#63b8ff" stroke="#63b8ff" points="489.15,-17 479.15,-20.5 489.15,-24 489.15,-17"/>
</a>
</g>
</g>
<!-- Node3 -->
<g id="Node000003" class="node">
<title>Node3</title>
<g id="a_Node000003"><a xlink:href="dc/da9/classxii_hybrid_array.htm" target="_top" xlink:title=" ">
<polygon fill="white" stroke="#666666" points="993,-35.5 792,-35.5 792,-5.5 993,-5.5 993,-35.5"/>
<text text-anchor="start" x="800" y="-23.5" font-family="Helvetica,sans-Serif" font-size="10.00">xiiHybridArray&lt; xiiGALBLASBounding</text>
<text text-anchor="middle" x="892.5" y="-12.5" font-family="Helvetica,sans-Serif" font-size="10.00">BoxDescription, 16U &gt;</text>
</a>
</g>
</g>
<!-- Node2&#45;&gt;Node3 -->
<g id="edge873_Node000002_Node000003" class="edge">
<title>Node2&#45;&gt;Node3</title>
<g id="a_edge873_Node000002_Node000003"><a xlink:title=" ">
<path fill="none" stroke="#63b8ff" d="M766.22,-20.5C774.79,-20.5 783.34,-20.5 791.73,-20.5"/>
<polygon fill="#63b8ff" stroke="#63b8ff" points="766.16,-17 756.16,-20.5 766.16,-24 766.16,-17"/>
</a>
</g>
</g>
</g>
</svg>
