<?xml version="1.0" encoding="UTF-8" standalone="no"?>
<!DOCTYPE svg PUBLIC "-//W3C//DTD SVG 1.1//EN"
 "http://www.w3.org/Graphics/SVG/1.1/DTD/svg11.dtd">
<!-- Generated by graphviz version 2.43.0 (0)
 -->
<!-- Title: Graphical Class Hierarchy Pages: 1 -->
<svg width="431pt" height="123pt"
 viewBox="0.00 0.00 431.00 123.00" xmlns="http://www.w3.org/2000/svg" xmlns:xlink="http://www.w3.org/1999/xlink">
<g id="graph0" class="graph" transform="scale(1 1) rotate(0) translate(4 119)">
<title>Graphical Class Hierarchy</title>
<polygon fill="white" stroke="transparent" points="-4,4 -4,-119 427,-119 427,4 -4,4"/>
<!-- Node441 -->
<g id="node1" class="node">
<title>Node441</title>
<g id="a_node1"><a xlink:title=" ">
<polygon fill="white" stroke="#bfbfbf" points="0,-57.5 0,-76.5 91,-76.5 91,-57.5 0,-57.5"/>
<text text-anchor="middle" x="45.5" y="-64.5" font-family="Helvetica,sans-Serif" font-size="10.00">QItemDelegate</text>
</a>
</g>
</g>
<!-- Node0 -->
<g id="node2" class="node">
<title>Node0</title>
<g id="a_node2"><a xlink:href="da/d52/classxii_folder_name_delegate.htm" target="_top" xlink:title="Custom delegate for the eqQtAssetBrowserFolderView to enable renaming folders. Does not do any model ...">
<polygon fill="white" stroke="black" points="127,-95.5 127,-114.5 259,-114.5 259,-95.5 127,-95.5"/>
<text text-anchor="middle" x="193" y="-102.5" font-family="Helvetica,sans-Serif" font-size="10.00">xiiFolderNameDelegate</text>
</a>
</g>
</g>
<!-- Node441&#45;&gt;Node0 -->
<g id="edge1" class="edge">
<title>Node441&#45;&gt;Node0</title>
<path fill="none" stroke="midnightblue" d="M93.15,-79.18C113.35,-84.46 136.65,-90.54 155.55,-95.48"/>
<polygon fill="midnightblue" stroke="midnightblue" points="93.78,-75.73 83.22,-76.59 92.01,-82.5 93.78,-75.73"/>
</g>
<!-- Node443 -->
<g id="node3" class="node">
<title>Node443</title>
<g id="a_node3"><a xlink:href="d4/d5a/classxii_qt_c_var_item_delegate.htm" target="_top" xlink:title=" ">
<polygon fill="white" stroke="black" points="128.5,-57.5 128.5,-76.5 257.5,-76.5 257.5,-57.5 128.5,-57.5"/>
<text text-anchor="middle" x="193" y="-64.5" font-family="Helvetica,sans-Serif" font-size="10.00">xiiQtCVarItemDelegate</text>
</a>
</g>
</g>
<!-- Node441&#45;&gt;Node443 -->
<g id="edge2" class="edge">
<title>Node441&#45;&gt;Node443</title>
<path fill="none" stroke="midnightblue" d="M101.44,-67C110.22,-67 119.36,-67 128.32,-67"/>
<polygon fill="midnightblue" stroke="midnightblue" points="101.34,-63.5 91.34,-67 101.34,-70.5 101.34,-63.5"/>
</g>
<!-- Node444 -->
<g id="node4" class="node">
<title>Node444</title>
<g id="a_node4"><a xlink:href="db/d03/classxii_qt_item_delegate.htm" target="_top" xlink:title="In combination with xiiQtItemView this delegate allows for receiving the full range of mouse input.">
<polygon fill="white" stroke="black" points="139.5,-19.5 139.5,-38.5 246.5,-38.5 246.5,-19.5 139.5,-19.5"/>
<text text-anchor="middle" x="193" y="-26.5" font-family="Helvetica,sans-Serif" font-size="10.00">xiiQtItemDelegate</text>
</a>
</g>
</g>
<!-- Node441&#45;&gt;Node444 -->
<g id="edge3" class="edge">
<title>Node441&#45;&gt;Node444</title>
<path fill="none" stroke="midnightblue" d="M93.15,-54.82C113.35,-49.54 136.65,-43.46 155.55,-38.52"/>
<polygon fill="midnightblue" stroke="midnightblue" points="92.01,-51.5 83.22,-57.41 93.78,-58.27 92.01,-51.5"/>
</g>
<!-- Node445 -->
<g id="node5" class="node">
<title>Node445</title>
<g id="a_node5"><a xlink:href="d3/d03/classxii_qt_icon_view_delegate.htm" target="_top" xlink:title=" ">
<polygon fill="white" stroke="black" points="295,-38.5 295,-57.5 423,-57.5 423,-38.5 295,-38.5"/>
<text text-anchor="middle" x="359" y="-45.5" font-family="Helvetica,sans-Serif" font-size="10.00">xiiQtIconViewDelegate</text>
</a>
</g>
</g>
<!-- Node444&#45;&gt;Node445 -->
<g id="edge4" class="edge">
<title>Node444&#45;&gt;Node445</title>
<path fill="none" stroke="midnightblue" d="M257.07,-36.31C269.51,-37.75 282.56,-39.26 295,-40.7"/>
<polygon fill="midnightblue" stroke="midnightblue" points="257.13,-32.79 246.79,-35.12 256.32,-39.74 257.13,-32.79"/>
</g>
<!-- Node446 -->
<g id="node6" class="node">
<title>Node446</title>
<g id="a_node6"><a xlink:href="d2/d32/classxii_qt_layer_delegate.htm" target="_top" xlink:title="Custom delegate for layers, used in xiiQtLayerPanel. Provides buttons to toggle the layer visible / l...">
<polygon fill="white" stroke="black" points="303.5,-0.5 303.5,-19.5 414.5,-19.5 414.5,-0.5 303.5,-0.5"/>
<text text-anchor="middle" x="359" y="-7.5" font-family="Helvetica,sans-Serif" font-size="10.00">xiiQtLayerDelegate</text>
</a>
</g>
</g>
<!-- Node444&#45;&gt;Node446 -->
<g id="edge5" class="edge">
<title>Node444&#45;&gt;Node446</title>
<path fill="none" stroke="midnightblue" d="M257.16,-21.68C272.39,-19.92 288.53,-18.05 303.33,-16.33"/>
<polygon fill="midnightblue" stroke="midnightblue" points="256.32,-18.26 246.79,-22.88 257.13,-25.21 256.32,-18.26"/>
</g>
</g>
</svg>
