<?xml version="1.0" encoding="UTF-8" standalone="no"?>
<!DOCTYPE svg PUBLIC "-//W3C//DTD SVG 1.1//EN"
 "http://www.w3.org/Graphics/SVG/1.1/DTD/svg11.dtd">
<!-- Generated by graphviz version 2.43.0 (0)
 -->
<!-- Title: Graphical Class Hierarchy Pages: 1 -->
<svg width="535pt" height="49pt"
 viewBox="0.00 0.00 535.00 49.00" xmlns="http://www.w3.org/2000/svg" xmlns:xlink="http://www.w3.org/1999/xlink">
<g id="graph0" class="graph" transform="scale(1 1) rotate(0) translate(4 45)">
<title>Graphical Class Hierarchy</title>
<!-- Node0 -->
<g id="Node000000" class="node">
<title>Node0</title>
<g id="a_Node000000"><a xlink:href="da/d4c/classxii_array_base.html" target="_top" xlink:title=" ">
<polygon fill="white" stroke="#666666" points="147,-41 0,-41 0,0 147,0 147,-41"/>
<text text-anchor="start" x="8" y="-29" font-family="Helvetica,sans-Serif" font-size="10.00">xiiArrayBase&lt; xiiResource</text>
<text text-anchor="start" x="8" y="-18" font-family="Helvetica,sans-Serif" font-size="10.00"> *, xiiDynamicArrayBase</text>
<text text-anchor="middle" x="73.5" y="-7" font-family="Helvetica,sans-Serif" font-size="10.00">&lt; xiiResource * &gt; &gt;</text>
</a>
</g>
</g>
<!-- Node1 -->
<g id="Node000001" class="node">
<title>Node1</title>
<g id="a_Node000001"><a xlink:href="d2/dea/classxii_dynamic_array_base.html" target="_top" xlink:title=" ">
<polygon fill="white" stroke="#666666" points="305,-35.5 183,-35.5 183,-5.5 305,-5.5 305,-35.5"/>
<text text-anchor="start" x="191" y="-23.5" font-family="Helvetica,sans-Serif" font-size="10.00">xiiDynamicArrayBase</text>
<text text-anchor="middle" x="244" y="-12.5" font-family="Helvetica,sans-Serif" font-size="10.00">&lt; xiiResource * &gt;</text>
</a>
</g>
</g>
<!-- Node0&#45;&gt;Node1 -->
<g id="edge1211_Node000000_Node000001" class="edge">
<title>Node0&#45;&gt;Node1</title>
<g id="a_edge1211_Node000000_Node000001"><a xlink:title=" ">
<path fill="none" stroke="#63b8ff" d="M157.46,-20.5C166.03,-20.5 174.62,-20.5 182.87,-20.5"/>
<polygon fill="#63b8ff" stroke="#63b8ff" points="157.43,-17 147.43,-20.5 157.43,-24 157.43,-17"/>
</a>
</g>
</g>
<!-- Node2 -->
<g id="Node000002" class="node">
<title>Node2</title>
<g id="a_Node000002"><a xlink:href="dc/da4/classxii_dynamic_array.html" target="_top" xlink:title=" ">
<polygon fill="white" stroke="#666666" points="527,-30 341,-30 341,-11 527,-11 527,-30"/>
<text text-anchor="middle" x="434" y="-18" font-family="Helvetica,sans-Serif" font-size="10.00">xiiDynamicArray&lt; xiiResource * &gt;</text>
</a>
</g>
</g>
<!-- Node1&#45;&gt;Node2 -->
<g id="edge1212_Node000001_Node000002" class="edge">
<title>Node1&#45;&gt;Node2</title>
<g id="a_edge1212_Node000001_Node000002"><a xlink:title=" ">
<path fill="none" stroke="#63b8ff" d="M315.05,-20.5C323.42,-20.5 332.06,-20.5 340.68,-20.5"/>
<polygon fill="#63b8ff" stroke="#63b8ff" points="315,-17 305,-20.5 315,-24 315,-17"/>
</a>
</g>
</g>
</g>
</svg>
