<?xml version="1.0" encoding="UTF-8" standalone="no"?>
<!DOCTYPE svg PUBLIC "-//W3C//DTD SVG 1.1//EN"
 "http://www.w3.org/Graphics/SVG/1.1/DTD/svg11.dtd">
<!-- Generated by graphviz version 2.43.0 (0)
 -->
<!-- Title: Graphical Class Hierarchy Pages: 1 -->
<svg width="603pt" height="49pt"
 viewBox="0.00 0.00 603.00 49.00" xmlns="http://www.w3.org/2000/svg" xmlns:xlink="http://www.w3.org/1999/xlink">
<g id="graph0" class="graph" transform="scale(1 1) rotate(0) translate(4 45)">
<title>Graphical Class Hierarchy</title>
<!-- Node0 -->
<g id="Node000000" class="node">
<title>Node0</title>
<g id="a_Node000000"><a xlink:href="da/d4c/classxii_array_base.html" target="_top" xlink:title=" ">
<polygon fill="white" stroke="#666666" points="241,-35.5 0,-35.5 0,-5.5 241,-5.5 241,-35.5"/>
<text text-anchor="start" x="8" y="-23.5" font-family="Helvetica,sans-Serif" font-size="10.00">xiiArrayBase&lt; xiiMat4Template,</text>
<text text-anchor="middle" x="120.5" y="-12.5" font-family="Helvetica,sans-Serif" font-size="10.00"> xiiDynamicArrayBase&lt; xiiMat4Template &gt; &gt;</text>
</a>
</g>
</g>
<!-- Node1 -->
<g id="Node000001" class="node">
<title>Node1</title>
<g id="a_Node000001"><a xlink:href="d2/dea/classxii_dynamic_array_base.html" target="_top" xlink:title=" ">
<polygon fill="white" stroke="#666666" points="399,-35.5 277,-35.5 277,-5.5 399,-5.5 399,-35.5"/>
<text text-anchor="start" x="285" y="-23.5" font-family="Helvetica,sans-Serif" font-size="10.00">xiiDynamicArrayBase</text>
<text text-anchor="middle" x="338" y="-12.5" font-family="Helvetica,sans-Serif" font-size="10.00">&lt; xiiMat4Template &gt;</text>
</a>
</g>
</g>
<!-- Node0&#45;&gt;Node1 -->
<g id="edge999_Node000000_Node000001" class="edge">
<title>Node0&#45;&gt;Node1</title>
<g id="a_edge999_Node000000_Node000001"><a xlink:title=" ">
<path fill="none" stroke="#63b8ff" d="M251.26,-20.5C260.08,-20.5 268.69,-20.5 276.85,-20.5"/>
<polygon fill="#63b8ff" stroke="#63b8ff" points="251.22,-17 241.22,-20.5 251.22,-24 251.22,-17"/>
</a>
</g>
</g>
<!-- Node2 -->
<g id="Node000002" class="node">
<title>Node2</title>
<g id="a_Node000002"><a xlink:href="dc/da4/classxii_dynamic_array.html" target="_top" xlink:title=" ">
<polygon fill="white" stroke="#666666" points="595,-41 435,-41 435,0 595,0 595,-41"/>
<text text-anchor="start" x="443" y="-29" font-family="Helvetica,sans-Serif" font-size="10.00">xiiDynamicArray&lt; xiiMat4</text>
<text text-anchor="start" x="443" y="-18" font-family="Helvetica,sans-Serif" font-size="10.00">Template, xiiAlignedAllocator</text>
<text text-anchor="middle" x="515" y="-7" font-family="Helvetica,sans-Serif" font-size="10.00">Wrapper &gt;</text>
</a>
</g>
</g>
<!-- Node1&#45;&gt;Node2 -->
<g id="edge1000_Node000001_Node000002" class="edge">
<title>Node1&#45;&gt;Node2</title>
<g id="a_edge1000_Node000001_Node000002"><a xlink:title=" ">
<path fill="none" stroke="#63b8ff" d="M409.32,-20.5C417.71,-20.5 426.31,-20.5 434.81,-20.5"/>
<polygon fill="#63b8ff" stroke="#63b8ff" points="409.23,-17 399.23,-20.5 409.23,-24 409.23,-17"/>
</a>
</g>
</g>
</g>
</svg>
