<?xml version="1.0" encoding="UTF-8" standalone="no"?>
<!DOCTYPE svg PUBLIC "-//W3C//DTD SVG 1.1//EN"
 "http://www.w3.org/Graphics/SVG/1.1/DTD/svg11.dtd">
<!-- Generated by graphviz version 2.43.0 (0)
 -->
<!-- Title: Graphical Class Hierarchy Pages: 1 -->
<svg width="804pt" height="60pt"
 viewBox="0.00 0.00 804.00 60.00" xmlns="http://www.w3.org/2000/svg" xmlns:xlink="http://www.w3.org/1999/xlink">
<g id="graph0" class="graph" transform="scale(1 1) rotate(0) translate(4 56)">
<title>Graphical Class Hierarchy</title>
<!-- Node0 -->
<g id="Node000000" class="node">
<title>Node0</title>
<g id="a_Node000000"><a xlink:href="da/d4c/classxii_array_base.html" target="_top" xlink:title=" ">
<polygon fill="white" stroke="#666666" points="204,-52 0,-52 0,0 204,0 204,-52"/>
<text text-anchor="start" x="8" y="-40" font-family="Helvetica,sans-Serif" font-size="10.00">xiiArrayBase&lt; xiiVisualScript</text>
<text text-anchor="start" x="8" y="-29" font-family="Helvetica,sans-Serif" font-size="10.00">Compiler::AstNode *, xiiDynamicArray</text>
<text text-anchor="start" x="8" y="-18" font-family="Helvetica,sans-Serif" font-size="10.00">Base&lt; xiiVisualScriptCompiler::</text>
<text text-anchor="middle" x="102" y="-7" font-family="Helvetica,sans-Serif" font-size="10.00">AstNode * &gt; &gt;</text>
</a>
</g>
</g>
<!-- Node1 -->
<g id="Node000001" class="node">
<title>Node1</title>
<g id="a_Node000001"><a xlink:href="d2/dea/classxii_dynamic_array_base.html" target="_top" xlink:title=" ">
<polygon fill="white" stroke="#666666" points="382,-46.5 240,-46.5 240,-5.5 382,-5.5 382,-46.5"/>
<text text-anchor="start" x="248" y="-34.5" font-family="Helvetica,sans-Serif" font-size="10.00">xiiDynamicArrayBase</text>
<text text-anchor="start" x="248" y="-23.5" font-family="Helvetica,sans-Serif" font-size="10.00">&lt; xiiVisualScriptCompiler</text>
<text text-anchor="middle" x="311" y="-12.5" font-family="Helvetica,sans-Serif" font-size="10.00">::AstNode * &gt;</text>
</a>
</g>
</g>
<!-- Node0&#45;&gt;Node1 -->
<g id="edge1398_Node000000_Node000001" class="edge">
<title>Node0&#45;&gt;Node1</title>
<g id="a_edge1398_Node000000_Node000001"><a xlink:title=" ">
<path fill="none" stroke="#63b8ff" d="M214.29,-26C222.97,-26 231.58,-26 239.87,-26"/>
<polygon fill="#63b8ff" stroke="#63b8ff" points="214.07,-22.5 204.07,-26 214.07,-29.5 214.07,-22.5"/>
</a>
</g>
</g>
<!-- Node2 -->
<g id="Node000002" class="node">
<title>Node2</title>
<g id="a_Node000002"><a xlink:href="dc/da4/classxii_dynamic_array.html" target="_top" xlink:title=" ">
<polygon fill="white" stroke="#666666" points="593,-46.5 418,-46.5 418,-5.5 593,-5.5 593,-46.5"/>
<text text-anchor="start" x="426" y="-34.5" font-family="Helvetica,sans-Serif" font-size="10.00">xiiDynamicArray&lt; xiiVisual</text>
<text text-anchor="start" x="426" y="-23.5" font-family="Helvetica,sans-Serif" font-size="10.00">ScriptCompiler::AstNode</text>
<text text-anchor="middle" x="505.5" y="-12.5" font-family="Helvetica,sans-Serif" font-size="10.00"> *, xiiDefaultAllocatorWrapper &gt;</text>
</a>
</g>
</g>
<!-- Node1&#45;&gt;Node2 -->
<g id="edge1399_Node000001_Node000002" class="edge">
<title>Node1&#45;&gt;Node2</title>
<g id="a_edge1399_Node000001_Node000002"><a xlink:title=" ">
<path fill="none" stroke="#63b8ff" d="M392.23,-26C400.67,-26 409.27,-26 417.78,-26"/>
<polygon fill="#63b8ff" stroke="#63b8ff" points="392.04,-22.5 382.04,-26 392.04,-29.5 392.04,-22.5"/>
</a>
</g>
</g>
<!-- Node3 -->
<g id="Node000003" class="node">
<title>Node3</title>
<g id="a_Node000003"><a xlink:href="dc/da9/classxii_hybrid_array.html" target="_top" xlink:title=" ">
<polygon fill="white" stroke="#666666" points="796,-41 629,-41 629,-11 796,-11 796,-41"/>
<text text-anchor="start" x="637" y="-29" font-family="Helvetica,sans-Serif" font-size="10.00">xiiHybridArray&lt; xiiVisual</text>
<text text-anchor="middle" x="712.5" y="-18" font-family="Helvetica,sans-Serif" font-size="10.00">ScriptCompiler::AstNode *, 8 &gt;</text>
</a>
</g>
</g>
<!-- Node2&#45;&gt;Node3 -->
<g id="edge1400_Node000002_Node000003" class="edge">
<title>Node2&#45;&gt;Node3</title>
<g id="a_edge1400_Node000002_Node000003"><a xlink:title=" ">
<path fill="none" stroke="#63b8ff" d="M603.15,-26C611.71,-26 620.33,-26 628.76,-26"/>
<polygon fill="#63b8ff" stroke="#63b8ff" points="603.14,-22.5 593.14,-26 603.14,-29.5 603.14,-22.5"/>
</a>
</g>
</g>
</g>
</svg>
