<?xml version="1.0" encoding="UTF-8" standalone="no"?>
<!DOCTYPE svg PUBLIC "-//W3C//DTD SVG 1.1//EN"
 "http://www.w3.org/Graphics/SVG/1.1/DTD/svg11.dtd">
<!-- Generated by graphviz version 2.43.0 (0)
 -->
<!-- Title: Graphical Class Hierarchy Pages: 1 -->
<svg width="827pt" height="60pt"
 viewBox="0.00 0.00 827.00 60.00" xmlns="http://www.w3.org/2000/svg" xmlns:xlink="http://www.w3.org/1999/xlink">
<g id="graph0" class="graph" transform="scale(1 1) rotate(0) translate(4 56)">
<title>Graphical Class Hierarchy</title>
<!-- Node0 -->
<g id="Node000000" class="node">
<title>Node0</title>
<g id="a_Node000000"><a xlink:href="da/d4c/classxii_array_base.htm" target="_top" xlink:title=" ">
<polygon fill="white" stroke="#666666" points="197,-52 0,-52 0,0 197,0 197,-52"/>
<text text-anchor="start" x="8" y="-40" font-family="Helvetica,sans-Serif" font-size="10.00">xiiArrayBase&lt; xiiSharedPtr</text>
<text text-anchor="start" x="8" y="-29" font-family="Helvetica,sans-Serif" font-size="10.00">&lt; xiiDefaultStateProvider</text>
<text text-anchor="start" x="8" y="-18" font-family="Helvetica,sans-Serif" font-size="10.00"> &gt;, xiiDynamicArrayBase&lt; xiiShared</text>
<text text-anchor="middle" x="98.5" y="-7" font-family="Helvetica,sans-Serif" font-size="10.00">Ptr&lt; xiiDefaultStateProvider &gt; &gt; &gt;</text>
</a>
</g>
</g>
<!-- Node1 -->
<g id="Node000001" class="node">
<title>Node1</title>
<g id="a_Node000001"><a xlink:href="d2/dea/classxii_dynamic_array_base.htm" target="_top" xlink:title=" ">
<polygon fill="white" stroke="#666666" points="379,-46.5 233,-46.5 233,-5.5 379,-5.5 379,-46.5"/>
<text text-anchor="start" x="241" y="-34.5" font-family="Helvetica,sans-Serif" font-size="10.00">xiiDynamicArrayBase</text>
<text text-anchor="start" x="241" y="-23.5" font-family="Helvetica,sans-Serif" font-size="10.00">&lt; xiiSharedPtr&lt; xiiDefault</text>
<text text-anchor="middle" x="306" y="-12.5" font-family="Helvetica,sans-Serif" font-size="10.00">StateProvider &gt; &gt;</text>
</a>
</g>
</g>
<!-- Node0&#45;&gt;Node1 -->
<g id="edge1200_Node000000_Node000001" class="edge">
<title>Node0&#45;&gt;Node1</title>
<g id="a_edge1200_Node000000_Node000001"><a xlink:title=" ">
<path fill="none" stroke="#63b8ff" d="M207.28,-26C215.91,-26 224.5,-26 232.79,-26"/>
<polygon fill="#63b8ff" stroke="#63b8ff" points="207.13,-22.5 197.13,-26 207.13,-29.5 207.13,-22.5"/>
</a>
</g>
</g>
<!-- Node2 -->
<g id="Node000002" class="node">
<title>Node2</title>
<g id="a_Node000002"><a xlink:href="dc/da4/classxii_dynamic_array.htm" target="_top" xlink:title=" ">
<polygon fill="white" stroke="#666666" points="593,-46.5 415,-46.5 415,-5.5 593,-5.5 593,-46.5"/>
<text text-anchor="start" x="423" y="-34.5" font-family="Helvetica,sans-Serif" font-size="10.00">xiiDynamicArray&lt; xiiShared</text>
<text text-anchor="start" x="423" y="-23.5" font-family="Helvetica,sans-Serif" font-size="10.00">Ptr&lt; xiiDefaultStateProvider</text>
<text text-anchor="middle" x="504" y="-12.5" font-family="Helvetica,sans-Serif" font-size="10.00"> &gt;, xiiDefaultAllocatorWrapper &gt;</text>
</a>
</g>
</g>
<!-- Node1&#45;&gt;Node2 -->
<g id="edge1201_Node000001_Node000002" class="edge">
<title>Node1&#45;&gt;Node2</title>
<g id="a_edge1201_Node000001_Node000002"><a xlink:title=" ">
<path fill="none" stroke="#63b8ff" d="M389.29,-26C397.69,-26 406.24,-26 414.7,-26"/>
<polygon fill="#63b8ff" stroke="#63b8ff" points="389.15,-22.5 379.15,-26 389.15,-29.5 389.15,-22.5"/>
</a>
</g>
</g>
<!-- Node3 -->
<g id="Node000003" class="node">
<title>Node3</title>
<g id="a_Node000003"><a xlink:href="dc/da9/classxii_hybrid_array.htm" target="_top" xlink:title=" ">
<polygon fill="white" stroke="#666666" points="819,-41 629,-41 629,-11 819,-11 819,-41"/>
<text text-anchor="start" x="637" y="-29" font-family="Helvetica,sans-Serif" font-size="10.00">xiiHybridArray&lt; xiiShared</text>
<text text-anchor="middle" x="724" y="-18" font-family="Helvetica,sans-Serif" font-size="10.00">Ptr&lt; xiiDefaultStateProvider &gt;, 4 &gt;</text>
</a>
</g>
</g>
<!-- Node2&#45;&gt;Node3 -->
<g id="edge1202_Node000002_Node000003" class="edge">
<title>Node2&#45;&gt;Node3</title>
<g id="a_edge1202_Node000002_Node000003"><a xlink:title=" ">
<path fill="none" stroke="#63b8ff" d="M603.08,-26C611.68,-26 620.37,-26 628.93,-26"/>
<polygon fill="#63b8ff" stroke="#63b8ff" points="603.04,-22.5 593.04,-26 603.04,-29.5 603.04,-22.5"/>
</a>
</g>
</g>
</g>
</svg>
