<?xml version="1.0" encoding="UTF-8" standalone="no"?>
<!DOCTYPE svg PUBLIC "-//W3C//DTD SVG 1.1//EN"
 "http://www.w3.org/Graphics/SVG/1.1/DTD/svg11.dtd">
<!-- Generated by graphviz version 2.43.0 (0)
 -->
<!-- Title: Graphical Class Hierarchy Pages: 1 -->
<svg width="986pt" height="49pt"
 viewBox="0.00 0.00 986.00 49.00" xmlns="http://www.w3.org/2000/svg" xmlns:xlink="http://www.w3.org/1999/xlink">
<g id="graph0" class="graph" transform="scale(1 1) rotate(0) translate(4 45)">
<title>Graphical Class Hierarchy</title>
<!-- Node0 -->
<g id="Node000000" class="node">
<title>Node0</title>
<g id="a_Node000000"><a xlink:href="da/d4c/classxii_array_base.html" target="_top" xlink:title=" ">
<polygon fill="white" stroke="#666666" points="288,-41 0,-41 0,0 288,0 288,-41"/>
<text text-anchor="start" x="8" y="-29" font-family="Helvetica,sans-Serif" font-size="10.00">xiiArrayBase&lt; xiiGALSubPass</text>
<text text-anchor="start" x="8" y="-18" font-family="Helvetica,sans-Serif" font-size="10.00">DependencyDescription, xiiDynamic</text>
<text text-anchor="middle" x="144" y="-7" font-family="Helvetica,sans-Serif" font-size="10.00">ArrayBase&lt; xiiGALSubPassDependencyDescription &gt; &gt;</text>
</a>
</g>
</g>
<!-- Node1 -->
<g id="Node000001" class="node">
<title>Node1</title>
<g id="a_Node000001"><a xlink:href="d2/dea/classxii_dynamic_array_base.html" target="_top" xlink:title=" ">
<polygon fill="white" stroke="#666666" points="551,-35.5 324,-35.5 324,-5.5 551,-5.5 551,-35.5"/>
<text text-anchor="start" x="332" y="-23.5" font-family="Helvetica,sans-Serif" font-size="10.00">xiiDynamicArrayBase</text>
<text text-anchor="middle" x="437.5" y="-12.5" font-family="Helvetica,sans-Serif" font-size="10.00">&lt; xiiGALSubPassDependencyDescription &gt;</text>
</a>
</g>
</g>
<!-- Node0&#45;&gt;Node1 -->
<g id="edge916_Node000000_Node000001" class="edge">
<title>Node0&#45;&gt;Node1</title>
<g id="a_edge916_Node000000_Node000001"><a xlink:title=" ">
<path fill="none" stroke="#63b8ff" d="M298.27,-20.5C306.85,-20.5 315.4,-20.5 323.79,-20.5"/>
<polygon fill="#63b8ff" stroke="#63b8ff" points="298.19,-17 288.19,-20.5 298.19,-24 298.19,-17"/>
</a>
</g>
</g>
<!-- Node2 -->
<g id="Node000002" class="node">
<title>Node2</title>
<g id="a_Node000002"><a xlink:href="dc/da4/classxii_dynamic_array.html" target="_top" xlink:title=" ">
<polygon fill="white" stroke="#666666" points="751,-41 587,-41 587,0 751,0 751,-41"/>
<text text-anchor="start" x="595" y="-29" font-family="Helvetica,sans-Serif" font-size="10.00">xiiDynamicArray&lt; xiiGALSub</text>
<text text-anchor="start" x="595" y="-18" font-family="Helvetica,sans-Serif" font-size="10.00">PassDependencyDescription,</text>
<text text-anchor="middle" x="669" y="-7" font-family="Helvetica,sans-Serif" font-size="10.00"> xiiDefaultAllocatorWrapper &gt;</text>
</a>
</g>
</g>
<!-- Node1&#45;&gt;Node2 -->
<g id="edge917_Node000001_Node000002" class="edge">
<title>Node1&#45;&gt;Node2</title>
<g id="a_edge917_Node000001_Node000002"><a xlink:title=" ">
<path fill="none" stroke="#63b8ff" d="M561.37,-20.5C569.99,-20.5 578.54,-20.5 586.84,-20.5"/>
<polygon fill="#63b8ff" stroke="#63b8ff" points="561.23,-17 551.23,-20.5 561.23,-24 561.23,-17"/>
</a>
</g>
</g>
<!-- Node3 -->
<g id="Node000003" class="node">
<title>Node3</title>
<g id="a_Node000003"><a xlink:href="dc/da9/classxii_hybrid_array.html" target="_top" xlink:title=" ">
<polygon fill="white" stroke="#666666" points="978,-35.5 787,-35.5 787,-5.5 978,-5.5 978,-35.5"/>
<text text-anchor="start" x="795" y="-23.5" font-family="Helvetica,sans-Serif" font-size="10.00">xiiHybridArray&lt; xiiGALSub</text>
<text text-anchor="middle" x="882.5" y="-12.5" font-family="Helvetica,sans-Serif" font-size="10.00">PassDependencyDescription, 16U &gt;</text>
</a>
</g>
</g>
<!-- Node2&#45;&gt;Node3 -->
<g id="edge918_Node000002_Node000003" class="edge">
<title>Node2&#45;&gt;Node3</title>
<g id="a_edge918_Node000002_Node000003"><a xlink:title=" ">
<path fill="none" stroke="#63b8ff" d="M761.36,-20.5C769.78,-20.5 778.32,-20.5 786.77,-20.5"/>
<polygon fill="#63b8ff" stroke="#63b8ff" points="761.17,-17 751.17,-20.5 761.17,-24 761.17,-17"/>
</a>
</g>
</g>
</g>
</svg>
