<?xml version="1.0" encoding="UTF-8" standalone="no"?>
<!DOCTYPE svg PUBLIC "-//W3C//DTD SVG 1.1//EN"
 "http://www.w3.org/Graphics/SVG/1.1/DTD/svg11.dtd">
<!-- Generated by graphviz version 2.43.0 (0)
 -->
<!-- Title: Graphical Class Hierarchy Pages: 1 -->
<svg width="396pt" height="278pt"
 viewBox="0.00 0.00 396.00 278.00" xmlns="http://www.w3.org/2000/svg" xmlns:xlink="http://www.w3.org/1999/xlink">
<g id="graph0" class="graph" transform="scale(1 1) rotate(0) translate(4 274)">
<title>Graphical Class Hierarchy</title>
<!-- Node0 -->
<g id="Node000000" class="node">
<title>Node0</title>
<g id="a_Node000000"><a xlink:href="d7/d05/structxii_anim_pose_generator_command.htm" target="_top" xlink:title="Base class for all pose generator commands.">
<polygon fill="white" stroke="#666666" points="176,-144.5 0,-144.5 0,-125.5 176,-125.5 176,-144.5"/>
<text text-anchor="middle" x="88" y="-132.5" font-family="Helvetica,sans-Serif" font-size="10.00">xiiAnimPoseGeneratorCommand</text>
</a>
</g>
</g>
<!-- Node1 -->
<g id="Node000001" class="node">
<title>Node1</title>
<g id="a_Node000001"><a xlink:href="d0/da5/structxii_anim_pose_generator_command_combine_poses.htm" target="_top" xlink:title="Combines all the local space poses that are given as input into one local pose.">
<polygon fill="white" stroke="#666666" points="388,-270 212,-270 212,-240 388,-240 388,-270"/>
<text text-anchor="start" x="220" y="-258" font-family="Helvetica,sans-Serif" font-size="10.00">xiiAnimPoseGeneratorCommand</text>
<text text-anchor="middle" x="300" y="-247" font-family="Helvetica,sans-Serif" font-size="10.00">CombinePoses</text>
</a>
</g>
</g>
<!-- Node0&#45;&gt;Node1 -->
<g id="edge381_Node000000_Node000001" class="edge">
<title>Node0&#45;&gt;Node1</title>
<g id="a_edge381_Node000000_Node000001"><a xlink:title=" ">
<path fill="none" stroke="#63b8ff" d="M105.94,-151.84C128.36,-173.22 169.97,-209.86 212,-231 218.72,-234.38 225.98,-237.33 233.34,-239.91"/>
<polygon fill="#63b8ff" stroke="#63b8ff" points="108.2,-149.16 98.58,-144.71 103.33,-154.19 108.2,-149.16"/>
</a>
</g>
</g>
<!-- Node2 -->
<g id="Node000002" class="node">
<title>Node2</title>
<g id="a_Node000002"><a xlink:href="d9/d66/structxii_anim_pose_generator_command_local_to_model_pose.htm" target="_top" xlink:title="Accepts a single input in local space and converts it to model space.">
<polygon fill="white" stroke="#666666" points="388,-222 212,-222 212,-192 388,-192 388,-222"/>
<text text-anchor="start" x="220" y="-210" font-family="Helvetica,sans-Serif" font-size="10.00">xiiAnimPoseGeneratorCommand</text>
<text text-anchor="middle" x="300" y="-199" font-family="Helvetica,sans-Serif" font-size="10.00">LocalToModelPose</text>
</a>
</g>
</g>
<!-- Node0&#45;&gt;Node2 -->
<g id="edge382_Node000000_Node000002" class="edge">
<title>Node0&#45;&gt;Node2</title>
<g id="a_edge382_Node000000_Node000002"><a xlink:title=" ">
<path fill="none" stroke="#63b8ff" d="M120.97,-148.52C145.6,-158.68 180.64,-172.59 212,-183 221.37,-186.11 231.39,-189.14 241.19,-191.95"/>
<polygon fill="#63b8ff" stroke="#63b8ff" points="121.99,-145.16 111.42,-144.55 119.31,-151.62 121.99,-145.16"/>
</a>
</g>
</g>
<!-- Node3 -->
<g id="Node000003" class="node">
<title>Node3</title>
<g id="a_Node000003"><a xlink:href="d4/d98/structxii_anim_pose_generator_command_model_pose_to_output.htm" target="_top" xlink:title="Accepts a single input command that outputs a model space pose and forwards it to the xiiGameObject f...">
<polygon fill="white" stroke="#666666" points="388,-174 212,-174 212,-144 388,-144 388,-174"/>
<text text-anchor="start" x="220" y="-162" font-family="Helvetica,sans-Serif" font-size="10.00">xiiAnimPoseGeneratorCommand</text>
<text text-anchor="middle" x="300" y="-151" font-family="Helvetica,sans-Serif" font-size="10.00">ModelPoseToOutput</text>
</a>
</g>
</g>
<!-- Node0&#45;&gt;Node3 -->
<g id="edge383_Node000000_Node000003" class="edge">
<title>Node0&#45;&gt;Node3</title>
<g id="a_edge383_Node000000_Node000003"><a xlink:title=" ">
<path fill="none" stroke="#63b8ff" d="M182.38,-145.67C192.12,-146.79 202,-147.91 211.67,-149.02"/>
<polygon fill="#63b8ff" stroke="#63b8ff" points="182.63,-142.18 172.3,-144.52 181.84,-149.13 182.63,-142.18"/>
</a>
</g>
</g>
<!-- Node4 -->
<g id="Node000004" class="node">
<title>Node4</title>
<g id="a_Node000004"><a xlink:href="d9/dc4/structxii_anim_pose_generator_command_rest_pose.htm" target="_top" xlink:title="Returns the rest pose (also often called &#39;bind pose&#39;).">
<polygon fill="white" stroke="#666666" points="388,-126 212,-126 212,-96 388,-96 388,-126"/>
<text text-anchor="start" x="220" y="-114" font-family="Helvetica,sans-Serif" font-size="10.00">xiiAnimPoseGeneratorCommand</text>
<text text-anchor="middle" x="300" y="-103" font-family="Helvetica,sans-Serif" font-size="10.00">RestPose</text>
</a>
</g>
</g>
<!-- Node0&#45;&gt;Node4 -->
<g id="edge384_Node000000_Node000004" class="edge">
<title>Node0&#45;&gt;Node4</title>
<g id="a_edge384_Node000000_Node000004"><a xlink:title=" ">
<path fill="none" stroke="#63b8ff" d="M182.38,-124.33C192.12,-123.21 202,-122.09 211.67,-120.98"/>
<polygon fill="#63b8ff" stroke="#63b8ff" points="181.84,-120.87 172.3,-125.48 182.63,-127.82 181.84,-120.87"/>
</a>
</g>
</g>
<!-- Node5 -->
<g id="Node000005" class="node">
<title>Node5</title>
<g id="a_Node000005"><a xlink:href="d0/d97/structxii_anim_pose_generator_command_sample_event_track.htm" target="_top" xlink:title="Samples the event track of an animation clip but doesn&#39;t generate an animation pose.">
<polygon fill="white" stroke="#666666" points="388,-78 212,-78 212,-48 388,-48 388,-78"/>
<text text-anchor="start" x="220" y="-66" font-family="Helvetica,sans-Serif" font-size="10.00">xiiAnimPoseGeneratorCommand</text>
<text text-anchor="middle" x="300" y="-55" font-family="Helvetica,sans-Serif" font-size="10.00">SampleEventTrack</text>
</a>
</g>
</g>
<!-- Node0&#45;&gt;Node5 -->
<g id="edge385_Node000000_Node000005" class="edge">
<title>Node0&#45;&gt;Node5</title>
<g id="a_edge385_Node000000_Node000005"><a xlink:title=" ">
<path fill="none" stroke="#63b8ff" d="M120.97,-121.48C145.6,-111.32 180.64,-97.41 212,-87 221.37,-83.89 231.39,-80.86 241.19,-78.05"/>
<polygon fill="#63b8ff" stroke="#63b8ff" points="119.31,-118.38 111.42,-125.45 121.99,-124.84 119.31,-118.38"/>
</a>
</g>
</g>
<!-- Node6 -->
<g id="Node000006" class="node">
<title>Node6</title>
<g id="a_Node000006"><a xlink:href="da/d76/structxii_anim_pose_generator_command_sample_track.htm" target="_top" xlink:title="Samples an animation clip at a given time and optionally also its event track.">
<polygon fill="white" stroke="#666666" points="388,-30 212,-30 212,0 388,0 388,-30"/>
<text text-anchor="start" x="220" y="-18" font-family="Helvetica,sans-Serif" font-size="10.00">xiiAnimPoseGeneratorCommand</text>
<text text-anchor="middle" x="300" y="-7" font-family="Helvetica,sans-Serif" font-size="10.00">SampleTrack</text>
</a>
</g>
</g>
<!-- Node0&#45;&gt;Node6 -->
<g id="edge386_Node000000_Node000006" class="edge">
<title>Node0&#45;&gt;Node6</title>
<g id="a_edge386_Node000000_Node000006"><a xlink:title=" ">
<path fill="none" stroke="#63b8ff" d="M105.94,-118.16C128.36,-96.78 169.97,-60.14 212,-39 218.72,-35.62 225.98,-32.67 233.34,-30.09"/>
<polygon fill="#63b8ff" stroke="#63b8ff" points="103.33,-115.81 98.58,-125.29 108.2,-120.84 103.33,-115.81"/>
</a>
</g>
</g>
</g>
</svg>
