<?xml version="1.0" encoding="UTF-8" standalone="no"?>
<!DOCTYPE svg PUBLIC "-//W3C//DTD SVG 1.1//EN"
 "http://www.w3.org/Graphics/SVG/1.1/DTD/svg11.dtd">
<!-- Generated by graphviz version 2.43.0 (0)
 -->
<!-- Title: Graphical Class Hierarchy Pages: 1 -->
<svg width="642pt" height="60pt"
 viewBox="0.00 0.00 642.00 60.00" xmlns="http://www.w3.org/2000/svg" xmlns:xlink="http://www.w3.org/1999/xlink">
<g id="graph0" class="graph" transform="scale(1 1) rotate(0) translate(4 56)">
<title>Graphical Class Hierarchy</title>
<!-- Node0 -->
<g id="Node000000" class="node">
<title>Node0</title>
<g id="a_Node000000"><a xlink:href="da/d4c/classxii_array_base.htm" target="_top" xlink:title=" ">
<polygon fill="white" stroke="#666666" points="197,-52 0,-52 0,0 197,0 197,-52"/>
<text text-anchor="start" x="8" y="-40" font-family="Helvetica,sans-Serif" font-size="10.00">xiiArrayBase&lt; xiiUniquePtr</text>
<text text-anchor="start" x="8" y="-29" font-family="Helvetica,sans-Serif" font-size="10.00">&lt; xiiScriptCoroutine &gt;,</text>
<text text-anchor="start" x="8" y="-18" font-family="Helvetica,sans-Serif" font-size="10.00"> xiiDynamicArrayBase&lt; xiiUniquePtr</text>
<text text-anchor="middle" x="98.5" y="-7" font-family="Helvetica,sans-Serif" font-size="10.00">&lt; xiiScriptCoroutine &gt; &gt; &gt;</text>
</a>
</g>
</g>
<!-- Node1 -->
<g id="Node000001" class="node">
<title>Node1</title>
<g id="a_Node000001"><a xlink:href="d2/dea/classxii_dynamic_array_base.htm" target="_top" xlink:title=" ">
<polygon fill="white" stroke="#666666" points="442,-41 233,-41 233,-11 442,-11 442,-41"/>
<text text-anchor="start" x="241" y="-29" font-family="Helvetica,sans-Serif" font-size="10.00">xiiDynamicArrayBase</text>
<text text-anchor="middle" x="337.5" y="-18" font-family="Helvetica,sans-Serif" font-size="10.00">&lt; xiiUniquePtr&lt; xiiScriptCoroutine &gt; &gt;</text>
</a>
</g>
</g>
<!-- Node0&#45;&gt;Node1 -->
<g id="edge1361_Node000000_Node000001" class="edge">
<title>Node0&#45;&gt;Node1</title>
<g id="a_edge1361_Node000000_Node000001"><a xlink:title=" ">
<path fill="none" stroke="#63b8ff" d="M207.5,-26C215.92,-26 224.42,-26 232.82,-26"/>
<polygon fill="#63b8ff" stroke="#63b8ff" points="207.27,-22.5 197.27,-26 207.27,-29.5 207.27,-22.5"/>
</a>
</g>
</g>
<!-- Node2 -->
<g id="Node000002" class="node">
<title>Node2</title>
<g id="a_Node000002"><a xlink:href="dc/da4/classxii_dynamic_array.htm" target="_top" xlink:title=" ">
<polygon fill="white" stroke="#666666" points="634,-41 478,-41 478,-11 634,-11 634,-41"/>
<text text-anchor="start" x="486" y="-29" font-family="Helvetica,sans-Serif" font-size="10.00">xiiDynamicArray&lt; xiiUnique</text>
<text text-anchor="middle" x="556" y="-18" font-family="Helvetica,sans-Serif" font-size="10.00">Ptr&lt; xiiScriptCoroutine &gt; &gt;</text>
</a>
</g>
</g>
<!-- Node1&#45;&gt;Node2 -->
<g id="edge1362_Node000001_Node000002" class="edge">
<title>Node1&#45;&gt;Node2</title>
<g id="a_edge1362_Node000001_Node000002"><a xlink:title=" ">
<path fill="none" stroke="#63b8ff" d="M452.39,-26C460.96,-26 469.49,-26 477.76,-26"/>
<polygon fill="#63b8ff" stroke="#63b8ff" points="452.31,-22.5 442.31,-26 452.31,-29.5 452.31,-22.5"/>
</a>
</g>
</g>
</g>
</svg>
