<?xml version="1.0" encoding="UTF-8" standalone="no"?>
<!DOCTYPE svg PUBLIC "-//W3C//DTD SVG 1.1//EN"
 "http://www.w3.org/Graphics/SVG/1.1/DTD/svg11.dtd">
<!-- Generated by graphviz version 2.43.0 (0)
 -->
<!-- Title: Graphical Class Hierarchy Pages: 1 -->
<svg width="829pt" height="49pt"
 viewBox="0.00 0.00 829.00 49.00" xmlns="http://www.w3.org/2000/svg" xmlns:xlink="http://www.w3.org/1999/xlink">
<g id="graph0" class="graph" transform="scale(1 1) rotate(0) translate(4 45)">
<title>Graphical Class Hierarchy</title>
<!-- Node0 -->
<g id="Node000000" class="node">
<title>Node0</title>
<g id="a_Node000000"><a xlink:href="da/d4c/classxii_array_base.html" target="_top" xlink:title=" ">
<polygon fill="white" stroke="#666666" points="175,-41 0,-41 0,0 175,0 175,-41"/>
<text text-anchor="start" x="8" y="-29" font-family="Helvetica,sans-Serif" font-size="10.00">xiiArrayBase&lt; xiiManipulator</text>
<text text-anchor="start" x="8" y="-18" font-family="Helvetica,sans-Serif" font-size="10.00">Adapter *, xiiDynamicArrayBase</text>
<text text-anchor="middle" x="87.5" y="-7" font-family="Helvetica,sans-Serif" font-size="10.00">&lt; xiiManipulatorAdapter * &gt; &gt;</text>
</a>
</g>
</g>
<!-- Node1 -->
<g id="Node000001" class="node">
<title>Node1</title>
<g id="a_Node000001"><a xlink:href="d2/dea/classxii_dynamic_array_base.html" target="_top" xlink:title=" ">
<polygon fill="white" stroke="#666666" points="367,-35.5 211,-35.5 211,-5.5 367,-5.5 367,-35.5"/>
<text text-anchor="start" x="219" y="-23.5" font-family="Helvetica,sans-Serif" font-size="10.00">xiiDynamicArrayBase</text>
<text text-anchor="middle" x="289" y="-12.5" font-family="Helvetica,sans-Serif" font-size="10.00">&lt; xiiManipulatorAdapter * &gt;</text>
</a>
</g>
</g>
<!-- Node0&#45;&gt;Node1 -->
<g id="edge996_Node000000_Node000001" class="edge">
<title>Node0&#45;&gt;Node1</title>
<g id="a_edge996_Node000000_Node000001"><a xlink:title=" ">
<path fill="none" stroke="#63b8ff" d="M185.2,-20.5C193.81,-20.5 202.44,-20.5 210.85,-20.5"/>
<polygon fill="#63b8ff" stroke="#63b8ff" points="185.13,-17 175.13,-20.5 185.13,-24 185.13,-17"/>
</a>
</g>
</g>
<!-- Node2 -->
<g id="Node000002" class="node">
<title>Node2</title>
<g id="a_Node000002"><a xlink:href="dc/da4/classxii_dynamic_array.html" target="_top" xlink:title=" ">
<polygon fill="white" stroke="#666666" points="616,-35.5 403,-35.5 403,-5.5 616,-5.5 616,-35.5"/>
<text text-anchor="start" x="411" y="-23.5" font-family="Helvetica,sans-Serif" font-size="10.00">xiiDynamicArray&lt; xiiManipulator</text>
<text text-anchor="middle" x="509.5" y="-12.5" font-family="Helvetica,sans-Serif" font-size="10.00">Adapter *, xiiDefaultAllocatorWrapper &gt;</text>
</a>
</g>
</g>
<!-- Node1&#45;&gt;Node2 -->
<g id="edge997_Node000001_Node000002" class="edge">
<title>Node1&#45;&gt;Node2</title>
<g id="a_edge997_Node000001_Node000002"><a xlink:title=" ">
<path fill="none" stroke="#63b8ff" d="M377.17,-20.5C385.56,-20.5 394.14,-20.5 402.68,-20.5"/>
<polygon fill="#63b8ff" stroke="#63b8ff" points="377.03,-17 367.03,-20.5 377.03,-24 377.03,-17"/>
</a>
</g>
</g>
<!-- Node3 -->
<g id="Node000003" class="node">
<title>Node3</title>
<g id="a_Node000003"><a xlink:href="dc/da9/classxii_hybrid_array.html" target="_top" xlink:title=" ">
<polygon fill="white" stroke="#666666" points="821,-35.5 652,-35.5 652,-5.5 821,-5.5 821,-35.5"/>
<text text-anchor="start" x="660" y="-23.5" font-family="Helvetica,sans-Serif" font-size="10.00">xiiHybridArray&lt; xiiManipulator</text>
<text text-anchor="middle" x="736.5" y="-12.5" font-family="Helvetica,sans-Serif" font-size="10.00">Adapter *, 8 &gt;</text>
</a>
</g>
</g>
<!-- Node2&#45;&gt;Node3 -->
<g id="edge998_Node000002_Node000003" class="edge">
<title>Node2&#45;&gt;Node3</title>
<g id="a_edge998_Node000002_Node000003"><a xlink:title=" ">
<path fill="none" stroke="#63b8ff" d="M626.21,-20.5C634.84,-20.5 643.44,-20.5 651.82,-20.5"/>
<polygon fill="#63b8ff" stroke="#63b8ff" points="626.08,-17 616.08,-20.5 626.08,-24 626.08,-17"/>
</a>
</g>
</g>
</g>
</svg>
