<?xml version="1.0" encoding="UTF-8" standalone="no"?>
<!DOCTYPE svg PUBLIC "-//W3C//DTD SVG 1.1//EN"
 "http://www.w3.org/Graphics/SVG/1.1/DTD/svg11.dtd">
<!-- Generated by graphviz version 2.43.0 (0)
 -->
<!-- Title: Graphical Class Hierarchy Pages: 1 -->
<svg width="945pt" height="60pt"
 viewBox="0.00 0.00 945.00 60.00" xmlns="http://www.w3.org/2000/svg" xmlns:xlink="http://www.w3.org/1999/xlink">
<g id="graph0" class="graph" transform="scale(1 1) rotate(0) translate(4 56)">
<title>Graphical Class Hierarchy</title>
<!-- Node0 -->
<g id="Node000000" class="node">
<title>Node0</title>
<g id="a_Node000000"><a xlink:href="da/d4c/classxii_array_base.htm" target="_top" xlink:title=" ">
<polygon fill="white" stroke="#666666" points="221,-52 0,-52 0,0 221,0 221,-52"/>
<text text-anchor="start" x="8" y="-40" font-family="Helvetica,sans-Serif" font-size="10.00">xiiArrayBase&lt; xiiUniquePtr</text>
<text text-anchor="start" x="8" y="-29" font-family="Helvetica,sans-Serif" font-size="10.00">&lt; class xiiBakedProbesComponent</text>
<text text-anchor="start" x="8" y="-18" font-family="Helvetica,sans-Serif" font-size="10.00"> &gt;, xiiDynamicArrayBase&lt; xiiUniquePtr</text>
<text text-anchor="middle" x="110.5" y="-7" font-family="Helvetica,sans-Serif" font-size="10.00">&lt; class xiiBakedProbesComponent &gt; &gt; &gt;</text>
</a>
</g>
</g>
<!-- Node1 -->
<g id="Node000001" class="node">
<title>Node1</title>
<g id="a_Node000001"><a xlink:href="d2/dea/classxii_dynamic_array_base.htm" target="_top" xlink:title=" ">
<polygon fill="white" stroke="#666666" points="430,-46.5 257,-46.5 257,-5.5 430,-5.5 430,-46.5"/>
<text text-anchor="start" x="265" y="-34.5" font-family="Helvetica,sans-Serif" font-size="10.00">xiiDynamicArrayBase</text>
<text text-anchor="start" x="265" y="-23.5" font-family="Helvetica,sans-Serif" font-size="10.00">&lt; xiiUniquePtr&lt; class</text>
<text text-anchor="middle" x="343.5" y="-12.5" font-family="Helvetica,sans-Serif" font-size="10.00"> xiiBakedProbesComponent &gt; &gt;</text>
</a>
</g>
</g>
<!-- Node0&#45;&gt;Node1 -->
<g id="edge1319_Node000000_Node000001" class="edge">
<title>Node0&#45;&gt;Node1</title>
<g id="a_edge1319_Node000000_Node000001"><a xlink:title=" ">
<path fill="none" stroke="#63b8ff" d="M231.37,-26C240,-26 248.59,-26 256.95,-26"/>
<polygon fill="#63b8ff" stroke="#63b8ff" points="231.25,-22.5 221.25,-26 231.25,-29.5 231.25,-22.5"/>
</a>
</g>
</g>
<!-- Node2 -->
<g id="Node000002" class="node">
<title>Node2</title>
<g id="a_Node000002"><a xlink:href="dc/da4/classxii_dynamic_array.htm" target="_top" xlink:title=" ">
<polygon fill="white" stroke="#666666" points="666,-46.5 466,-46.5 466,-5.5 666,-5.5 666,-46.5"/>
<text text-anchor="start" x="474" y="-34.5" font-family="Helvetica,sans-Serif" font-size="10.00">xiiDynamicArray&lt; xiiUnique</text>
<text text-anchor="start" x="474" y="-23.5" font-family="Helvetica,sans-Serif" font-size="10.00">Ptr&lt; class xiiBakedProbesComponent</text>
<text text-anchor="middle" x="566" y="-12.5" font-family="Helvetica,sans-Serif" font-size="10.00"> &gt;, xiiDefaultAllocatorWrapper &gt;</text>
</a>
</g>
</g>
<!-- Node1&#45;&gt;Node2 -->
<g id="edge1320_Node000001_Node000002" class="edge">
<title>Node1&#45;&gt;Node2</title>
<g id="a_edge1320_Node000001_Node000002"><a xlink:title=" ">
<path fill="none" stroke="#63b8ff" d="M440.33,-26C448.81,-26 457.4,-26 465.9,-26"/>
<polygon fill="#63b8ff" stroke="#63b8ff" points="440.07,-22.5 430.07,-26 440.07,-29.5 440.07,-22.5"/>
</a>
</g>
</g>
<!-- Node3 -->
<g id="Node000003" class="node">
<title>Node3</title>
<g id="a_Node000003"><a xlink:href="dc/da9/classxii_hybrid_array.htm" target="_top" xlink:title=" ">
<polygon fill="white" stroke="#666666" points="937,-41 702,-41 702,-11 937,-11 937,-41"/>
<text text-anchor="start" x="710" y="-29" font-family="Helvetica,sans-Serif" font-size="10.00">xiiHybridArray&lt; xiiUnique</text>
<text text-anchor="middle" x="819.5" y="-18" font-family="Helvetica,sans-Serif" font-size="10.00">Ptr&lt; class xiiBakedProbesComponent &gt;, 2 &gt;</text>
</a>
</g>
</g>
<!-- Node2&#45;&gt;Node3 -->
<g id="edge1321_Node000002_Node000003" class="edge">
<title>Node2&#45;&gt;Node3</title>
<g id="a_edge1321_Node000002_Node000003"><a xlink:title=" ">
<path fill="none" stroke="#63b8ff" d="M676.24,-26C684.65,-26 693.17,-26 701.63,-26"/>
<polygon fill="#63b8ff" stroke="#63b8ff" points="676.04,-22.5 666.04,-26 676.04,-29.5 676.04,-22.5"/>
</a>
</g>
</g>
</g>
</svg>
