<?xml version="1.0" encoding="UTF-8" standalone="no"?>
<!DOCTYPE svg PUBLIC "-//W3C//DTD SVG 1.1//EN"
 "http://www.w3.org/Graphics/SVG/1.1/DTD/svg11.dtd">
<!-- Generated by graphviz version 2.43.0 (0)
 -->
<!-- Title: Graphical Class Hierarchy Pages: 1 -->
<svg width="770pt" height="60pt"
 viewBox="0.00 0.00 770.00 60.00" xmlns="http://www.w3.org/2000/svg" xmlns:xlink="http://www.w3.org/1999/xlink">
<g id="graph0" class="graph" transform="scale(1 1) rotate(0) translate(4 56)">
<title>Graphical Class Hierarchy</title>
<!-- Node0 -->
<g id="Node000000" class="node">
<title>Node0</title>
<g id="a_Node000000"><a xlink:href="da/d4c/classxii_array_base.html" target="_top" xlink:title=" ">
<polygon fill="white" stroke="#666666" points="173,-52 0,-52 0,0 173,0 173,-52"/>
<text text-anchor="start" x="8" y="-40" font-family="Helvetica,sans-Serif" font-size="10.00">xiiArrayBase&lt; xiiProfiling</text>
<text text-anchor="start" x="8" y="-29" font-family="Helvetica,sans-Serif" font-size="10.00">System::ThreadInfo, xiiDynamic</text>
<text text-anchor="start" x="8" y="-18" font-family="Helvetica,sans-Serif" font-size="10.00">ArrayBase&lt; xiiProfilingSystem</text>
<text text-anchor="middle" x="86.5" y="-7" font-family="Helvetica,sans-Serif" font-size="10.00">::ThreadInfo &gt; &gt;</text>
</a>
</g>
</g>
<!-- Node1 -->
<g id="Node000001" class="node">
<title>Node1</title>
<g id="a_Node000001"><a xlink:href="d2/dea/classxii_dynamic_array_base.html" target="_top" xlink:title=" ">
<polygon fill="white" stroke="#666666" points="331,-46.5 209,-46.5 209,-5.5 331,-5.5 331,-46.5"/>
<text text-anchor="start" x="217" y="-34.5" font-family="Helvetica,sans-Serif" font-size="10.00">xiiDynamicArrayBase</text>
<text text-anchor="start" x="217" y="-23.5" font-family="Helvetica,sans-Serif" font-size="10.00">&lt; xiiProfilingSystem</text>
<text text-anchor="middle" x="270" y="-12.5" font-family="Helvetica,sans-Serif" font-size="10.00">::ThreadInfo &gt;</text>
</a>
</g>
</g>
<!-- Node0&#45;&gt;Node1 -->
<g id="edge1120_Node000000_Node000001" class="edge">
<title>Node0&#45;&gt;Node1</title>
<g id="a_edge1120_Node000000_Node000001"><a xlink:title=" ">
<path fill="none" stroke="#63b8ff" d="M183.36,-26C192,-26 200.58,-26 208.78,-26"/>
<polygon fill="#63b8ff" stroke="#63b8ff" points="183.2,-22.5 173.2,-26 183.2,-29.5 183.2,-22.5"/>
</a>
</g>
</g>
<!-- Node2 -->
<g id="Node000002" class="node">
<title>Node2</title>
<g id="a_Node000002"><a xlink:href="dc/da4/classxii_dynamic_array.html" target="_top" xlink:title=" ">
<polygon fill="white" stroke="#666666" points="576,-46.5 367,-46.5 367,-5.5 576,-5.5 576,-46.5"/>
<text text-anchor="start" x="375" y="-34.5" font-family="Helvetica,sans-Serif" font-size="10.00">xiiDynamicArray&lt; xiiProfiling</text>
<text text-anchor="start" x="375" y="-23.5" font-family="Helvetica,sans-Serif" font-size="10.00">System::ThreadInfo, xiiDefaultAllocator</text>
<text text-anchor="middle" x="471.5" y="-12.5" font-family="Helvetica,sans-Serif" font-size="10.00">Wrapper &gt;</text>
</a>
</g>
</g>
<!-- Node1&#45;&gt;Node2 -->
<g id="edge1121_Node000001_Node000002" class="edge">
<title>Node1&#45;&gt;Node2</title>
<g id="a_edge1121_Node000001_Node000002"><a xlink:title=" ">
<path fill="none" stroke="#63b8ff" d="M341.16,-26C349.53,-26 358.2,-26 366.92,-26"/>
<polygon fill="#63b8ff" stroke="#63b8ff" points="341.13,-22.5 331.13,-26 341.13,-29.5 341.13,-22.5"/>
</a>
</g>
</g>
<!-- Node3 -->
<g id="Node000003" class="node">
<title>Node3</title>
<g id="a_Node000003"><a xlink:href="dc/da9/classxii_hybrid_array.html" target="_top" xlink:title=" ">
<polygon fill="white" stroke="#666666" points="762,-41 612,-41 612,-11 762,-11 762,-41"/>
<text text-anchor="start" x="620" y="-29" font-family="Helvetica,sans-Serif" font-size="10.00">xiiHybridArray&lt; xiiProfiling</text>
<text text-anchor="middle" x="687" y="-18" font-family="Helvetica,sans-Serif" font-size="10.00">System::ThreadInfo, 16 &gt;</text>
</a>
</g>
</g>
<!-- Node2&#45;&gt;Node3 -->
<g id="edge1122_Node000002_Node000003" class="edge">
<title>Node2&#45;&gt;Node3</title>
<g id="a_edge1122_Node000002_Node000003"><a xlink:title=" ">
<path fill="none" stroke="#63b8ff" d="M586.34,-26C595.03,-26 603.66,-26 612,-26"/>
<polygon fill="#63b8ff" stroke="#63b8ff" points="586.12,-22.5 576.12,-26 586.12,-29.5 586.12,-22.5"/>
</a>
</g>
</g>
</g>
</svg>
