<?xml version="1.0" encoding="UTF-8" standalone="no"?>
<!DOCTYPE svg PUBLIC "-//W3C//DTD SVG 1.1//EN"
 "http://www.w3.org/Graphics/SVG/1.1/DTD/svg11.dtd">
<!-- Generated by graphviz version 2.43.0 (0)
 -->
<!-- Title: Graphical Class Hierarchy Pages: 1 -->
<svg width="777pt" height="60pt"
 viewBox="0.00 0.00 777.00 60.00" xmlns="http://www.w3.org/2000/svg" xmlns:xlink="http://www.w3.org/1999/xlink">
<g id="graph0" class="graph" transform="scale(1 1) rotate(0) translate(4 56)">
<title>Graphical Class Hierarchy</title>
<!-- Node0 -->
<g id="Node000000" class="node">
<title>Node0</title>
<g id="a_Node000000"><a xlink:href="da/d4c/classxii_array_base.html" target="_top" xlink:title=" ">
<polygon fill="white" stroke="#666666" points="185,-52 0,-52 0,0 185,0 185,-52"/>
<text text-anchor="start" x="8" y="-40" font-family="Helvetica,sans-Serif" font-size="10.00">xiiArrayBase&lt; xiiWorldModule</text>
<text text-anchor="start" x="8" y="-29" font-family="Helvetica,sans-Serif" font-size="10.00">Config::InterfaceImpl, xiiDynamic</text>
<text text-anchor="start" x="8" y="-18" font-family="Helvetica,sans-Serif" font-size="10.00">ArrayBase&lt; xiiWorldModuleConfig</text>
<text text-anchor="middle" x="92.5" y="-7" font-family="Helvetica,sans-Serif" font-size="10.00">::InterfaceImpl &gt; &gt;</text>
</a>
</g>
</g>
<!-- Node1 -->
<g id="Node000001" class="node">
<title>Node1</title>
<g id="a_Node000001"><a xlink:href="d2/dea/classxii_dynamic_array_base.html" target="_top" xlink:title=" ">
<polygon fill="white" stroke="#666666" points="355,-46.5 221,-46.5 221,-5.5 355,-5.5 355,-46.5"/>
<text text-anchor="start" x="229" y="-34.5" font-family="Helvetica,sans-Serif" font-size="10.00">xiiDynamicArrayBase</text>
<text text-anchor="start" x="229" y="-23.5" font-family="Helvetica,sans-Serif" font-size="10.00">&lt; xiiWorldModuleConfig</text>
<text text-anchor="middle" x="288" y="-12.5" font-family="Helvetica,sans-Serif" font-size="10.00">::InterfaceImpl &gt;</text>
</a>
</g>
</g>
<!-- Node0&#45;&gt;Node1 -->
<g id="edge1446_Node000000_Node000001" class="edge">
<title>Node0&#45;&gt;Node1</title>
<g id="a_edge1446_Node000000_Node000001"><a xlink:title=" ">
<path fill="none" stroke="#63b8ff" d="M195.3,-26C203.93,-26 212.51,-26 220.77,-26"/>
<polygon fill="#63b8ff" stroke="#63b8ff" points="195.15,-22.5 185.15,-26 195.15,-29.5 195.15,-22.5"/>
</a>
</g>
</g>
<!-- Node2 -->
<g id="Node000002" class="node">
<title>Node2</title>
<g id="a_Node000002"><a xlink:href="dc/da4/classxii_dynamic_array.html" target="_top" xlink:title=" ">
<polygon fill="white" stroke="#666666" points="555,-46.5 391,-46.5 391,-5.5 555,-5.5 555,-46.5"/>
<text text-anchor="start" x="399" y="-34.5" font-family="Helvetica,sans-Serif" font-size="10.00">xiiDynamicArray&lt; xiiWorld</text>
<text text-anchor="start" x="399" y="-23.5" font-family="Helvetica,sans-Serif" font-size="10.00">ModuleConfig::InterfaceImpl,</text>
<text text-anchor="middle" x="473" y="-12.5" font-family="Helvetica,sans-Serif" font-size="10.00"> xiiDefaultAllocatorWrapper &gt;</text>
</a>
</g>
</g>
<!-- Node1&#45;&gt;Node2 -->
<g id="edge1447_Node000001_Node000002" class="edge">
<title>Node1&#45;&gt;Node2</title>
<g id="a_edge1447_Node000001_Node000002"><a xlink:title=" ">
<path fill="none" stroke="#63b8ff" d="M365.23,-26C373.65,-26 382.24,-26 390.72,-26"/>
<polygon fill="#63b8ff" stroke="#63b8ff" points="365.07,-22.5 355.07,-26 365.07,-29.5 365.07,-22.5"/>
</a>
</g>
</g>
<!-- Node3 -->
<g id="Node000003" class="node">
<title>Node3</title>
<g id="a_Node000003"><a xlink:href="dc/da9/classxii_hybrid_array.html" target="_top" xlink:title=" ">
<polygon fill="white" stroke="#666666" points="769,-41 591,-41 591,-11 769,-11 769,-41"/>
<text text-anchor="start" x="599" y="-29" font-family="Helvetica,sans-Serif" font-size="10.00">xiiHybridArray&lt; xiiWorld</text>
<text text-anchor="middle" x="680" y="-18" font-family="Helvetica,sans-Serif" font-size="10.00">ModuleConfig::InterfaceImpl, 8 &gt;</text>
</a>
</g>
</g>
<!-- Node2&#45;&gt;Node3 -->
<g id="edge1448_Node000002_Node000003" class="edge">
<title>Node2&#45;&gt;Node3</title>
<g id="a_edge1448_Node000002_Node000003"><a xlink:title=" ">
<path fill="none" stroke="#63b8ff" d="M565.29,-26C573.77,-26 582.35,-26 590.8,-26"/>
<polygon fill="#63b8ff" stroke="#63b8ff" points="565.02,-22.5 555.02,-26 565.02,-29.5 565.02,-22.5"/>
</a>
</g>
</g>
</g>
</svg>
