<?xml version="1.0" encoding="UTF-8" standalone="no"?>
<!DOCTYPE svg PUBLIC "-//W3C//DTD SVG 1.1//EN"
 "http://www.w3.org/Graphics/SVG/1.1/DTD/svg11.dtd">
<!-- Generated by graphviz version 2.43.0 (0)
 -->
<!-- Title: Graphical Class Hierarchy Pages: 1 -->
<svg width="307pt" height="64pt"
 viewBox="0.00 0.00 307.00 64.00" xmlns="http://www.w3.org/2000/svg" xmlns:xlink="http://www.w3.org/1999/xlink">
<g id="graph0" class="graph" transform="scale(1 1) rotate(0) translate(4 60)">
<title>Graphical Class Hierarchy</title>
<!-- Node0 -->
<g id="Node000000" class="node">
<title>Node0</title>
<g id="a_Node000000"><a xlink:href="d2/d49/structxii_variance_type_base_float.html" target="_top" xlink:title=" ">
<polygon fill="white" stroke="#666666" points="142,-37 0,-37 0,-18 142,-18 142,-37"/>
<text text-anchor="middle" x="71" y="-25" font-family="Helvetica,sans-Serif" font-size="10.00">xiiVarianceTypeBaseFloat</text>
</a>
</g>
</g>
<!-- Node1 -->
<g id="Node000001" class="node">
<title>Node1</title>
<g id="a_Node000001"><a xlink:href="db/d67/structxii_variance_type_angle.html" target="_top" xlink:title=" ">
<polygon fill="white" stroke="#666666" points="299,-56 178,-56 178,-37 299,-37 299,-56"/>
<text text-anchor="middle" x="238.5" y="-44" font-family="Helvetica,sans-Serif" font-size="10.00">xiiVarianceTypeAngle</text>
</a>
</g>
</g>
<!-- Node0&#45;&gt;Node1 -->
<g id="edge3385_Node000000_Node000001" class="edge">
<title>Node0&#45;&gt;Node1</title>
<g id="a_edge3385_Node000000_Node000001"><a xlink:title=" ">
<path fill="none" stroke="#63b8ff" d="M152.28,-36.72C160.92,-37.71 169.59,-38.7 177.92,-39.66"/>
<polygon fill="#63b8ff" stroke="#63b8ff" points="152.52,-33.22 142.19,-35.56 151.72,-40.18 152.52,-33.22"/>
</a>
</g>
</g>
<!-- Node2 -->
<g id="Node000002" class="node">
<title>Node2</title>
<g id="a_Node000002"><a xlink:href="d5/d76/structxii_variance_type_float.html" target="_top" xlink:title=" ">
<polygon fill="white" stroke="#666666" points="297.5,-19 179.5,-19 179.5,0 297.5,0 297.5,-19"/>
<text text-anchor="middle" x="238.5" y="-7" font-family="Helvetica,sans-Serif" font-size="10.00">xiiVarianceTypeFloat</text>
</a>
</g>
</g>
<!-- Node0&#45;&gt;Node2 -->
<g id="edge3386_Node000000_Node000002" class="edge">
<title>Node0&#45;&gt;Node2</title>
<g id="a_edge3386_Node000000_Node000002"><a xlink:title=" ">
<path fill="none" stroke="#63b8ff" d="M152.15,-18.78C161.36,-17.78 170.62,-16.77 179.46,-15.81"/>
<polygon fill="#63b8ff" stroke="#63b8ff" points="151.75,-15.31 142.19,-19.87 152.51,-22.26 151.75,-15.31"/>
</a>
</g>
</g>
</g>
</svg>
