<?xml version="1.0" encoding="UTF-8" standalone="no"?>
<!DOCTYPE svg PUBLIC "-//W3C//DTD SVG 1.1//EN"
 "http://www.w3.org/Graphics/SVG/1.1/DTD/svg11.dtd">
<!-- Generated by graphviz version 2.43.0 (0)
 -->
<!-- Title: Graphical Class Hierarchy Pages: 1 -->
<svg width="685pt" height="49pt"
 viewBox="0.00 0.00 685.00 49.00" xmlns="http://www.w3.org/2000/svg" xmlns:xlink="http://www.w3.org/1999/xlink">
<g id="graph0" class="graph" transform="scale(1 1) rotate(0) translate(4 45)">
<title>Graphical Class Hierarchy</title>
<!-- Node0 -->
<g id="Node000000" class="node">
<title>Node0</title>
<g id="a_Node000000"><a xlink:href="da/d4c/classxii_array_base.htm" target="_top" xlink:title=" ">
<polygon fill="white" stroke="#666666" points="250,-41 0,-41 0,0 250,0 250,-41"/>
<text text-anchor="start" x="8" y="-29" font-family="Helvetica,sans-Serif" font-size="10.00">xiiArrayBase&lt; xiiReflected</text>
<text text-anchor="start" x="8" y="-18" font-family="Helvetica,sans-Serif" font-size="10.00">FunctionDescriptor, xiiDynamic</text>
<text text-anchor="middle" x="125" y="-7" font-family="Helvetica,sans-Serif" font-size="10.00">ArrayBase&lt; xiiReflectedFunctionDescriptor &gt; &gt;</text>
</a>
</g>
</g>
<!-- Node1 -->
<g id="Node000001" class="node">
<title>Node1</title>
<g id="a_Node000001"><a xlink:href="d2/dea/classxii_dynamic_array_base.htm" target="_top" xlink:title=" ">
<polygon fill="white" stroke="#666666" points="474,-35.5 286,-35.5 286,-5.5 474,-5.5 474,-35.5"/>
<text text-anchor="start" x="294" y="-23.5" font-family="Helvetica,sans-Serif" font-size="10.00">xiiDynamicArrayBase</text>
<text text-anchor="middle" x="380" y="-12.5" font-family="Helvetica,sans-Serif" font-size="10.00">&lt; xiiReflectedFunctionDescriptor &gt;</text>
</a>
</g>
</g>
<!-- Node0&#45;&gt;Node1 -->
<g id="edge1145_Node000000_Node000001" class="edge">
<title>Node0&#45;&gt;Node1</title>
<g id="a_edge1145_Node000000_Node000001"><a xlink:title=" ">
<path fill="none" stroke="#63b8ff" d="M260.4,-20.5C269,-20.5 277.56,-20.5 285.91,-20.5"/>
<polygon fill="#63b8ff" stroke="#63b8ff" points="260.28,-17 250.28,-20.5 260.28,-24 260.28,-17"/>
</a>
</g>
</g>
<!-- Node2 -->
<g id="Node000002" class="node">
<title>Node2</title>
<g id="a_Node000002"><a xlink:href="dc/da4/classxii_dynamic_array.htm" target="_top" xlink:title=" ">
<polygon fill="white" stroke="#666666" points="677,-35.5 510,-35.5 510,-5.5 677,-5.5 677,-35.5"/>
<text text-anchor="start" x="518" y="-23.5" font-family="Helvetica,sans-Serif" font-size="10.00">xiiDynamicArray&lt; xiiReflected</text>
<text text-anchor="middle" x="593.5" y="-12.5" font-family="Helvetica,sans-Serif" font-size="10.00">FunctionDescriptor &gt;</text>
</a>
</g>
</g>
<!-- Node1&#45;&gt;Node2 -->
<g id="edge1146_Node000001_Node000002" class="edge">
<title>Node1&#45;&gt;Node2</title>
<g id="a_edge1146_Node000001_Node000002"><a xlink:title=" ">
<path fill="none" stroke="#63b8ff" d="M484.12,-20.5C492.69,-20.5 501.29,-20.5 509.69,-20.5"/>
<polygon fill="#63b8ff" stroke="#63b8ff" points="484.07,-17 474.07,-20.5 484.07,-24 484.07,-17"/>
</a>
</g>
</g>
</g>
</svg>
