<?xml version="1.0" encoding="UTF-8" standalone="no"?>
<!DOCTYPE svg PUBLIC "-//W3C//DTD SVG 1.1//EN"
 "http://www.w3.org/Graphics/SVG/1.1/DTD/svg11.dtd">
<!-- Generated by graphviz version 2.43.0 (0)
 -->
<!-- Title: Graphical Class Hierarchy Pages: 1 -->
<svg width="696pt" height="71pt"
 viewBox="0.00 0.00 696.00 71.00" xmlns="http://www.w3.org/2000/svg" xmlns:xlink="http://www.w3.org/1999/xlink">
<g id="graph0" class="graph" transform="scale(1 1) rotate(0) translate(4 67)">
<title>Graphical Class Hierarchy</title>
<!-- Node0 -->
<g id="Node000000" class="node">
<title>Node0</title>
<g id="a_Node000000"><a xlink:href="da/d4c/classxii_array_base.html" target="_top" xlink:title=" ">
<polygon fill="white" stroke="#666666" points="239,-63 0,-63 0,0 239,0 239,-63"/>
<text text-anchor="start" x="8" y="-51" font-family="Helvetica,sans-Serif" font-size="10.00">xiiArrayBase&lt; xiiUniquePtr</text>
<text text-anchor="start" x="8" y="-40" font-family="Helvetica,sans-Serif" font-size="10.00">&lt; xiiLongOpControllerManager</text>
<text text-anchor="start" x="8" y="-29" font-family="Helvetica,sans-Serif" font-size="10.00">::ProxyOpInfo &gt;, xiiDynamicArrayBase</text>
<text text-anchor="start" x="8" y="-18" font-family="Helvetica,sans-Serif" font-size="10.00">&lt; xiiUniquePtr&lt; xiiLongOpControllerManager</text>
<text text-anchor="middle" x="119.5" y="-7" font-family="Helvetica,sans-Serif" font-size="10.00">::ProxyOpInfo &gt; &gt; &gt;</text>
</a>
</g>
</g>
<!-- Node1 -->
<g id="Node000001" class="node">
<title>Node1</title>
<g id="a_Node000001"><a xlink:href="d2/dea/classxii_dynamic_array_base.html" target="_top" xlink:title=" ">
<polygon fill="white" stroke="#666666" points="471,-52 275,-52 275,-11 471,-11 471,-52"/>
<text text-anchor="start" x="283" y="-40" font-family="Helvetica,sans-Serif" font-size="10.00">xiiDynamicArrayBase</text>
<text text-anchor="start" x="283" y="-29" font-family="Helvetica,sans-Serif" font-size="10.00">&lt; xiiUniquePtr&lt; xiiLongOpController</text>
<text text-anchor="middle" x="373" y="-18" font-family="Helvetica,sans-Serif" font-size="10.00">Manager::ProxyOpInfo &gt; &gt;</text>
</a>
</g>
</g>
<!-- Node0&#45;&gt;Node1 -->
<g id="edge1349_Node000000_Node000001" class="edge">
<title>Node0&#45;&gt;Node1</title>
<g id="a_edge1349_Node000000_Node000001"><a xlink:title=" ">
<path fill="none" stroke="#63b8ff" d="M249.35,-31.5C257.95,-31.5 266.54,-31.5 274.94,-31.5"/>
<polygon fill="#63b8ff" stroke="#63b8ff" points="249.25,-28 239.25,-31.5 249.25,-35 249.25,-28"/>
</a>
</g>
</g>
<!-- Node2 -->
<g id="Node000002" class="node">
<title>Node2</title>
<g id="a_Node000002"><a xlink:href="dc/da4/classxii_dynamic_array.html" target="_top" xlink:title=" ">
<polygon fill="white" stroke="#666666" points="688,-52 507,-52 507,-11 688,-11 688,-52"/>
<text text-anchor="start" x="515" y="-40" font-family="Helvetica,sans-Serif" font-size="10.00">xiiDynamicArray&lt; xiiUnique</text>
<text text-anchor="start" x="515" y="-29" font-family="Helvetica,sans-Serif" font-size="10.00">Ptr&lt; xiiLongOpControllerManager</text>
<text text-anchor="middle" x="597.5" y="-18" font-family="Helvetica,sans-Serif" font-size="10.00">::ProxyOpInfo &gt; &gt;</text>
</a>
</g>
</g>
<!-- Node1&#45;&gt;Node2 -->
<g id="edge1350_Node000001_Node000002" class="edge">
<title>Node1&#45;&gt;Node2</title>
<g id="a_edge1350_Node000001_Node000002"><a xlink:title=" ">
<path fill="none" stroke="#63b8ff" d="M481.27,-31.5C489.82,-31.5 498.39,-31.5 506.8,-31.5"/>
<polygon fill="#63b8ff" stroke="#63b8ff" points="481.27,-28 471.27,-31.5 481.27,-35 481.27,-28"/>
</a>
</g>
</g>
</g>
</svg>
