<?xml version="1.0" encoding="UTF-8" standalone="no"?>
<!DOCTYPE svg PUBLIC "-//W3C//DTD SVG 1.1//EN"
 "http://www.w3.org/Graphics/SVG/1.1/DTD/svg11.dtd">
<!-- Generated by graphviz version 2.43.0 (0)
 -->
<!-- Title: Graphical Class Hierarchy Pages: 1 -->
<svg width="589pt" height="280pt"
 viewBox="0.00 0.00 589.00 280.00" xmlns="http://www.w3.org/2000/svg" xmlns:xlink="http://www.w3.org/1999/xlink">
<g id="graph0" class="graph" transform="scale(1 1) rotate(0) translate(4 276)">
<title>Graphical Class Hierarchy</title>
<polygon fill="white" stroke="transparent" points="-4,4 -4,-276 585,-276 585,4 -4,4"/>
<!-- Node0 -->
<g id="node1" class="node">
<title>Node0</title>
<g id="a_node1"><a xlink:href="de/d39/classxii_script_coroutine.htm" target="_top" xlink:title="Base class of script coroutines.">
<polygon fill="white" stroke="black" points="0,-104.5 0,-123.5 104,-123.5 104,-104.5 0,-104.5"/>
<text text-anchor="middle" x="52" y="-111.5" font-family="Helvetica,sans-Serif" font-size="10.00">xiiScriptCoroutine</text>
</a>
</g>
</g>
<!-- Node1 -->
<g id="node2" class="node">
<title>Node1</title>
<g id="a_node2"><a xlink:href="d3/d2d/classxii_typed_script_coroutine.htm" target="_top" xlink:title=" ">
<polygon fill="white" stroke="black" points="204.5,-230.5 204.5,-271.5 349.5,-271.5 349.5,-230.5 204.5,-230.5"/>
<text text-anchor="start" x="212.5" y="-259.5" font-family="Helvetica,sans-Serif" font-size="10.00">xiiTypedScriptCoroutine</text>
<text text-anchor="start" x="212.5" y="-248.5" font-family="Helvetica,sans-Serif" font-size="10.00">&lt; xiiScriptCoroutine_Wait,</text>
<text text-anchor="middle" x="277" y="-237.5" font-family="Helvetica,sans-Serif" font-size="10.00"> xiiTime &gt;</text>
</a>
</g>
</g>
<!-- Node0&#45;&gt;Node1 -->
<g id="edge1" class="edge">
<title>Node0&#45;&gt;Node1</title>
<path fill="none" stroke="midnightblue" d="M62.72,-132.43C76.53,-156.71 104.18,-198.91 140,-221 159.24,-232.87 182.57,-240.07 204.43,-244.43"/>
<polygon fill="midnightblue" stroke="midnightblue" points="65.7,-130.59 57.82,-123.51 59.57,-133.96 65.7,-130.59"/>
</g>
<!-- Node3 -->
<g id="node4" class="node">
<title>Node3</title>
<g id="a_node4"><a xlink:href="d3/d2d/classxii_typed_script_coroutine.htm" target="_top" xlink:title=" ">
<polygon fill="white" stroke="black" points="140,-159 140,-211 414,-211 414,-159 140,-159"/>
<text text-anchor="start" x="148" y="-199" font-family="Helvetica,sans-Serif" font-size="10.00">xiiTypedScriptCoroutine</text>
<text text-anchor="start" x="148" y="-188" font-family="Helvetica,sans-Serif" font-size="10.00">&lt; xiiScriptCoroutine_TweenProperty,</text>
<text text-anchor="start" x="148" y="-177" font-family="Helvetica,sans-Serif" font-size="10.00"> xiiComponentHandle, xiiStringView,</text>
<text text-anchor="middle" x="277" y="-166" font-family="Helvetica,sans-Serif" font-size="10.00"> xiiVariant, xiiTime, xiiEnum&lt; xiiEasingFunction &gt; &gt;</text>
</a>
</g>
</g>
<!-- Node0&#45;&gt;Node3 -->
<g id="edge3" class="edge">
<title>Node0&#45;&gt;Node3</title>
<path fill="none" stroke="midnightblue" d="M84.17,-127.63C100.6,-134.53 121.19,-142.75 140,-149 150.31,-152.43 161.15,-155.75 172.02,-158.9"/>
<polygon fill="midnightblue" stroke="midnightblue" points="85.1,-124.22 74.53,-123.53 82.36,-130.67 85.1,-124.22"/>
</g>
<!-- Node5 -->
<g id="node6" class="node">
<title>Node5</title>
<g id="a_node6"><a xlink:href="d3/d2d/classxii_typed_script_coroutine.htm" target="_top" xlink:title=" ">
<polygon fill="white" stroke="black" points="166.5,-88 166.5,-140 387.5,-140 387.5,-88 166.5,-88"/>
<text text-anchor="start" x="174.5" y="-128" font-family="Helvetica,sans-Serif" font-size="10.00">xiiTypedScriptCoroutine</text>
<text text-anchor="start" x="174.5" y="-117" font-family="Helvetica,sans-Serif" font-size="10.00">&lt; xiiScriptCoroutine_MoveTo,</text>
<text text-anchor="start" x="174.5" y="-106" font-family="Helvetica,sans-Serif" font-size="10.00"> xiiGameObjectHandle, xiiVec3,</text>
<text text-anchor="middle" x="277" y="-95" font-family="Helvetica,sans-Serif" font-size="10.00"> xiiTime, xiiEnum&lt; xiiEasingFunction &gt; &gt;</text>
</a>
</g>
</g>
<!-- Node0&#45;&gt;Node5 -->
<g id="edge5" class="edge">
<title>Node0&#45;&gt;Node5</title>
<path fill="none" stroke="midnightblue" d="M114.5,-114C130.66,-114 148.58,-114 166.44,-114"/>
<polygon fill="midnightblue" stroke="midnightblue" points="114.16,-110.5 104.16,-114 114.16,-117.5 114.16,-110.5"/>
</g>
<!-- Node7 -->
<g id="node8" class="node">
<title>Node7</title>
<g id="a_node8"><a xlink:href="d3/d2d/classxii_typed_script_coroutine.htm" target="_top" xlink:title="Base class of coroutines which are implemented in C++ to allow automatic unpacking of the arguments f...">
<polygon fill="white" stroke="black" points="211,-39 211,-69 343,-69 343,-39 211,-39"/>
<text text-anchor="start" x="219" y="-57" font-family="Helvetica,sans-Serif" font-size="10.00">xiiTypedScriptCoroutine</text>
<text text-anchor="middle" x="277" y="-46" font-family="Helvetica,sans-Serif" font-size="10.00">&lt; Derived, Args &gt;</text>
</a>
</g>
</g>
<!-- Node0&#45;&gt;Node7 -->
<g id="edge7" class="edge">
<title>Node0&#45;&gt;Node7</title>
<path fill="none" stroke="midnightblue" d="M81.8,-100.22C98.48,-92.72 120.06,-83.81 140,-78 162.79,-71.36 188.29,-66.27 211,-62.52"/>
<polygon fill="midnightblue" stroke="midnightblue" points="80.23,-97.09 72.6,-104.44 83.15,-103.46 80.23,-97.09"/>
</g>
<!-- Node8 -->
<g id="node9" class="node">
<title>Node8</title>
<g id="a_node9"><a xlink:href="d8/d80/classxii_visual_script_coroutine.htm" target="_top" xlink:title=" ">
<polygon fill="white" stroke="black" points="210,-0.5 210,-19.5 344,-19.5 344,-0.5 210,-0.5"/>
<text text-anchor="middle" x="277" y="-7.5" font-family="Helvetica,sans-Serif" font-size="10.00">xiiVisualScriptCoroutine</text>
</a>
</g>
</g>
<!-- Node0&#45;&gt;Node8 -->
<g id="edge8" class="edge">
<title>Node0&#45;&gt;Node8</title>
<path fill="none" stroke="midnightblue" d="M65.66,-96.09C80.85,-76.11 108.27,-44.57 140,-29 161.4,-18.5 186.83,-13.3 209.88,-10.87"/>
<polygon fill="midnightblue" stroke="midnightblue" points="62.68,-94.23 59.57,-104.35 68.32,-98.38 62.68,-94.23"/>
</g>
<!-- Node2 -->
<g id="node3" class="node">
<title>Node2</title>
<g id="a_node3"><a xlink:href="d7/d7b/classxii_script_coroutine___wait.htm" target="_top" xlink:title=" ">
<polygon fill="white" stroke="black" points="450,-241.5 450,-260.5 581,-260.5 581,-241.5 450,-241.5"/>
<text text-anchor="middle" x="515.5" y="-248.5" font-family="Helvetica,sans-Serif" font-size="10.00">xiiScriptCoroutine_Wait</text>
</a>
</g>
</g>
<!-- Node1&#45;&gt;Node2 -->
<g id="edge2" class="edge">
<title>Node1&#45;&gt;Node2</title>
<path fill="none" stroke="midnightblue" d="M359.88,-251C389.36,-251 422.19,-251 449.98,-251"/>
<polygon fill="midnightblue" stroke="midnightblue" points="359.6,-247.5 349.6,-251 359.6,-254.5 359.6,-247.5"/>
</g>
<!-- Node4 -->
<g id="node5" class="node">
<title>Node4</title>
<g id="a_node5"><a xlink:href="d9/db7/classxii_script_coroutine___tween_property.htm" target="_top" xlink:title=" ">
<polygon fill="white" stroke="black" points="463.5,-170 463.5,-200 567.5,-200 567.5,-170 463.5,-170"/>
<text text-anchor="start" x="471.5" y="-188" font-family="Helvetica,sans-Serif" font-size="10.00">xiiScriptCoroutine</text>
<text text-anchor="middle" x="515.5" y="-177" font-family="Helvetica,sans-Serif" font-size="10.00">_TweenProperty</text>
</a>
</g>
</g>
<!-- Node3&#45;&gt;Node4 -->
<g id="edge4" class="edge">
<title>Node3&#45;&gt;Node4</title>
<path fill="none" stroke="midnightblue" d="M424.36,-185C438.19,-185 451.47,-185 463.4,-185"/>
<polygon fill="midnightblue" stroke="midnightblue" points="424.2,-181.5 414.2,-185 424.2,-188.5 424.2,-181.5"/>
</g>
<!-- Node6 -->
<g id="node7" class="node">
<title>Node6</title>
<g id="a_node7"><a xlink:href="db/d71/classxii_script_coroutine___move_to.htm" target="_top" xlink:title=" ">
<polygon fill="white" stroke="black" points="463.5,-99 463.5,-129 567.5,-129 567.5,-99 463.5,-99"/>
<text text-anchor="start" x="471.5" y="-117" font-family="Helvetica,sans-Serif" font-size="10.00">xiiScriptCoroutine</text>
<text text-anchor="middle" x="515.5" y="-106" font-family="Helvetica,sans-Serif" font-size="10.00">_MoveTo</text>
</a>
</g>
</g>
<!-- Node5&#45;&gt;Node6 -->
<g id="edge6" class="edge">
<title>Node5&#45;&gt;Node6</title>
<path fill="none" stroke="midnightblue" d="M397.85,-114C420.95,-114 443.97,-114 463.38,-114"/>
<polygon fill="midnightblue" stroke="midnightblue" points="397.6,-110.5 387.6,-114 397.6,-117.5 397.6,-110.5"/>
</g>
</g>
</svg>
