<?xml version="1.0" encoding="UTF-8" standalone="no"?>
<!DOCTYPE svg PUBLIC "-//W3C//DTD SVG 1.1//EN"
 "http://www.w3.org/Graphics/SVG/1.1/DTD/svg11.dtd">
<!-- Generated by graphviz version 2.43.0 (0)
 -->
<!-- Title: Graphical Class Hierarchy Pages: 1 -->
<svg width="325pt" height="135pt"
 viewBox="0.00 0.00 325.00 135.00" xmlns="http://www.w3.org/2000/svg" xmlns:xlink="http://www.w3.org/1999/xlink">
<g id="graph0" class="graph" transform="scale(1 1) rotate(0) translate(4 131)">
<title>Graphical Class Hierarchy</title>
<!-- Node0 -->
<g id="Node000000" class="node">
<title>Node0</title>
<g id="a_Node000000"><a xlink:href="d8/d2c/classxii_interval_scheduler_base.html" target="_top" xlink:title="Helper class to schedule work in intervals typically larger than the duration of one frame.">
<polygon fill="white" stroke="#666666" points="138,-62 0,-62 0,-43 138,-43 138,-62"/>
<text text-anchor="middle" x="69" y="-50" font-family="Helvetica,sans-Serif" font-size="10.00">xiiIntervalSchedulerBase</text>
</a>
</g>
</g>
<!-- Node1 -->
<g id="Node000001" class="node">
<title>Node1</title>
<g id="a_Node000001"><a xlink:href="db/d37/classxii_interval_scheduler.html" target="_top" xlink:title=" ">
<polygon fill="white" stroke="#666666" points="311,-127 180,-127 180,-86 311,-86 311,-127"/>
<text text-anchor="start" x="188" y="-115" font-family="Helvetica,sans-Serif" font-size="10.00">xiiIntervalScheduler</text>
<text text-anchor="start" x="188" y="-104" font-family="Helvetica,sans-Serif" font-size="10.00">&lt; xiiScriptWorldModule</text>
<text text-anchor="middle" x="245.5" y="-93" font-family="Helvetica,sans-Serif" font-size="10.00">::FunctionContext &gt;</text>
</a>
</g>
</g>
<!-- Node0&#45;&gt;Node1 -->
<g id="edge2023_Node000000_Node000001" class="edge">
<title>Node0&#45;&gt;Node1</title>
<g id="a_edge2023_Node000000_Node000001"><a xlink:title=" ">
<path fill="none" stroke="#63b8ff" d="M110.46,-65.02C131.01,-71.38 156.48,-79.26 179.69,-86.44"/>
<polygon fill="#63b8ff" stroke="#63b8ff" points="111.38,-61.64 100.8,-62.03 109.31,-68.33 111.38,-61.64"/>
</a>
</g>
</g>
<!-- Node2 -->
<g id="Node000002" class="node">
<title>Node2</title>
<g id="a_Node000002"><a xlink:href="db/d37/classxii_interval_scheduler.html" target="_top" xlink:title=" ">
<polygon fill="white" stroke="#666666" points="316.5,-67.5 174.5,-67.5 174.5,-37.5 316.5,-37.5 316.5,-67.5"/>
<text text-anchor="start" x="182.5" y="-55.5" font-family="Helvetica,sans-Serif" font-size="10.00">xiiIntervalScheduler</text>
<text text-anchor="middle" x="245.5" y="-44.5" font-family="Helvetica,sans-Serif" font-size="10.00">&lt; xiiComponentHandle &gt;</text>
</a>
</g>
</g>
<!-- Node0&#45;&gt;Node2 -->
<g id="edge2024_Node000000_Node000002" class="edge">
<title>Node0&#45;&gt;Node2</title>
<g id="a_edge2024_Node000000_Node000002"><a xlink:title=" ">
<path fill="none" stroke="#63b8ff" d="M148.31,-52.5C156.98,-52.5 165.76,-52.5 174.32,-52.5"/>
<polygon fill="#63b8ff" stroke="#63b8ff" points="148.22,-49 138.22,-52.5 148.22,-56 148.22,-49"/>
</a>
</g>
</g>
<!-- Node3 -->
<g id="Node000003" class="node">
<title>Node3</title>
<g id="a_Node000003"><a xlink:href="db/d37/classxii_interval_scheduler.html" target="_top" xlink:title=" ">
<polygon fill="white" stroke="#666666" points="317,-19 174,-19 174,0 317,0 317,-19"/>
<text text-anchor="middle" x="245.5" y="-7" font-family="Helvetica,sans-Serif" font-size="10.00">xiiIntervalScheduler&lt; T &gt;</text>
</a>
</g>
</g>
<!-- Node0&#45;&gt;Node3 -->
<g id="edge2025_Node000000_Node000003" class="edge">
<title>Node0&#45;&gt;Node3</title>
<g id="a_edge2025_Node000000_Node000003"><a xlink:title=" ">
<path fill="none" stroke="#63b8ff" d="M118.56,-40.53C146.13,-33.74 180.15,-25.36 205.88,-19.02"/>
<polygon fill="#63b8ff" stroke="#63b8ff" points="117.6,-37.17 108.73,-42.96 119.27,-43.96 117.6,-37.17"/>
</a>
</g>
</g>
</g>
</svg>
