<?xml version="1.0" encoding="UTF-8" standalone="no"?>
<!DOCTYPE svg PUBLIC "-//W3C//DTD SVG 1.1//EN"
 "http://www.w3.org/Graphics/SVG/1.1/DTD/svg11.dtd">
<!-- Generated by graphviz version 2.43.0 (0)
 -->
<!-- Title: Graphical Class Hierarchy Pages: 1 -->
<svg width="396pt" height="284pt"
 viewBox="0.00 0.00 396.00 284.00" xmlns="http://www.w3.org/2000/svg" xmlns:xlink="http://www.w3.org/1999/xlink">
<g id="graph0" class="graph" transform="scale(1 1) rotate(0) translate(4 280)">
<title>Graphical Class Hierarchy</title>
<polygon fill="white" stroke="transparent" points="-4,4 -4,-280 392,-280 392,4 -4,4"/>
<!-- Node0 -->
<g id="node1" class="node">
<title>Node0</title>
<g id="a_node1"><a xlink:href="d7/d05/structxii_anim_pose_generator_command.htm" target="_top" xlink:title="Base class for all pose generator commands.">
<polygon fill="white" stroke="black" points="0,-128 0,-147 176,-147 176,-128 0,-128"/>
<text text-anchor="middle" x="88" y="-135" font-family="Helvetica,sans-Serif" font-size="10.00">xiiAnimPoseGeneratorCommand</text>
</a>
</g>
</g>
<!-- Node1 -->
<g id="node2" class="node">
<title>Node1</title>
<g id="a_node2"><a xlink:href="d0/da5/structxii_anim_pose_generator_command_combine_poses.htm" target="_top" xlink:title="Combines all the local space poses that are given as input into one local pose.">
<polygon fill="white" stroke="black" points="212,-245.5 212,-275.5 388,-275.5 388,-245.5 212,-245.5"/>
<text text-anchor="start" x="220" y="-263.5" font-family="Helvetica,sans-Serif" font-size="10.00">xiiAnimPoseGeneratorCommand</text>
<text text-anchor="middle" x="300" y="-252.5" font-family="Helvetica,sans-Serif" font-size="10.00">CombinePoses</text>
</a>
</g>
</g>
<!-- Node0&#45;&gt;Node1 -->
<g id="edge1" class="edge">
<title>Node0&#45;&gt;Node1</title>
<path fill="none" stroke="midnightblue" d="M105.49,-154.56C127.71,-176.59 169.41,-214.68 212,-236.5 218.55,-239.86 225.63,-242.79 232.83,-245.34"/>
<polygon fill="midnightblue" stroke="midnightblue" points="107.75,-151.86 98.22,-147.23 102.78,-156.79 107.75,-151.86"/>
</g>
<!-- Node2 -->
<g id="node3" class="node">
<title>Node2</title>
<g id="a_node3"><a xlink:href="d9/d66/structxii_anim_pose_generator_command_local_to_model_pose.htm" target="_top" xlink:title="Accepts a single input in local space and converts it to model space.">
<polygon fill="white" stroke="black" points="212,-196.5 212,-226.5 388,-226.5 388,-196.5 212,-196.5"/>
<text text-anchor="start" x="220" y="-214.5" font-family="Helvetica,sans-Serif" font-size="10.00">xiiAnimPoseGeneratorCommand</text>
<text text-anchor="middle" x="300" y="-203.5" font-family="Helvetica,sans-Serif" font-size="10.00">LocalToModelPose</text>
</a>
</g>
</g>
<!-- Node0&#45;&gt;Node2 -->
<g id="edge2" class="edge">
<title>Node0&#45;&gt;Node2</title>
<path fill="none" stroke="midnightblue" d="M119.69,-151.14C144.34,-161.82 180.02,-176.63 212,-187.5 221.2,-190.63 231.04,-193.65 240.68,-196.43"/>
<polygon fill="midnightblue" stroke="midnightblue" points="121.05,-147.92 110.48,-147.13 118.25,-154.33 121.05,-147.92"/>
</g>
<!-- Node3 -->
<g id="node4" class="node">
<title>Node3</title>
<g id="a_node4"><a xlink:href="d4/d98/structxii_anim_pose_generator_command_model_pose_to_output.htm" target="_top" xlink:title="Accepts a single input command that outputs a model space pose and forwards it to the xiiGameObject f...">
<polygon fill="white" stroke="black" points="212,-147.5 212,-177.5 388,-177.5 388,-147.5 212,-147.5"/>
<text text-anchor="start" x="220" y="-165.5" font-family="Helvetica,sans-Serif" font-size="10.00">xiiAnimPoseGeneratorCommand</text>
<text text-anchor="middle" x="300" y="-154.5" font-family="Helvetica,sans-Serif" font-size="10.00">ModelPoseToOutput</text>
</a>
</g>
</g>
<!-- Node0&#45;&gt;Node3 -->
<g id="edge3" class="edge">
<title>Node0&#45;&gt;Node3</title>
<path fill="none" stroke="midnightblue" d="M178.94,-148.21C189.86,-149.51 201,-150.83 211.88,-152.13"/>
<polygon fill="midnightblue" stroke="midnightblue" points="179.33,-144.73 168.99,-147.02 178.51,-151.68 179.33,-144.73"/>
</g>
<!-- Node4 -->
<g id="node5" class="node">
<title>Node4</title>
<g id="a_node5"><a xlink:href="d9/dc4/structxii_anim_pose_generator_command_rest_pose.htm" target="_top" xlink:title="Returns the rest pose (also often called &#39;bind pose&#39;).">
<polygon fill="white" stroke="black" points="212,-98.5 212,-128.5 388,-128.5 388,-98.5 212,-98.5"/>
<text text-anchor="start" x="220" y="-116.5" font-family="Helvetica,sans-Serif" font-size="10.00">xiiAnimPoseGeneratorCommand</text>
<text text-anchor="middle" x="300" y="-105.5" font-family="Helvetica,sans-Serif" font-size="10.00">RestPose</text>
</a>
</g>
</g>
<!-- Node0&#45;&gt;Node4 -->
<g id="edge4" class="edge">
<title>Node0&#45;&gt;Node4</title>
<path fill="none" stroke="midnightblue" d="M182.38,-126.83C192.12,-125.71 202,-124.59 211.67,-123.48"/>
<polygon fill="midnightblue" stroke="midnightblue" points="181.84,-123.37 172.3,-127.98 182.63,-130.32 181.84,-123.37"/>
</g>
<!-- Node5 -->
<g id="node6" class="node">
<title>Node5</title>
<g id="a_node6"><a xlink:href="d0/d97/structxii_anim_pose_generator_command_sample_event_track.htm" target="_top" xlink:title="Samples the event track of an animation clip but doesn&#39;t generate an animation pose.">
<polygon fill="white" stroke="black" points="212,-49.5 212,-79.5 388,-79.5 388,-49.5 212,-49.5"/>
<text text-anchor="start" x="220" y="-67.5" font-family="Helvetica,sans-Serif" font-size="10.00">xiiAnimPoseGeneratorCommand</text>
<text text-anchor="middle" x="300" y="-56.5" font-family="Helvetica,sans-Serif" font-size="10.00">SampleEventTrack</text>
</a>
</g>
</g>
<!-- Node0&#45;&gt;Node5 -->
<g id="edge5" class="edge">
<title>Node0&#45;&gt;Node5</title>
<path fill="none" stroke="midnightblue" d="M121.45,-123.89C146.08,-113.79 180.89,-100.02 212,-89.5 222.12,-86.08 233.01,-82.71 243.53,-79.61"/>
<polygon fill="midnightblue" stroke="midnightblue" points="119.8,-120.79 111.89,-127.84 122.47,-127.26 119.8,-120.79"/>
</g>
<!-- Node6 -->
<g id="node7" class="node">
<title>Node6</title>
<g id="a_node7"><a xlink:href="da/d76/structxii_anim_pose_generator_command_sample_track.htm" target="_top" xlink:title="Samples an animation clip at a given time and optionally also its event track.">
<polygon fill="white" stroke="black" points="212,-0.5 212,-30.5 388,-30.5 388,-0.5 212,-0.5"/>
<text text-anchor="start" x="220" y="-18.5" font-family="Helvetica,sans-Serif" font-size="10.00">xiiAnimPoseGeneratorCommand</text>
<text text-anchor="middle" x="300" y="-7.5" font-family="Helvetica,sans-Serif" font-size="10.00">SampleTrack</text>
</a>
</g>
</g>
<!-- Node0&#45;&gt;Node6 -->
<g id="edge6" class="edge">
<title>Node0&#45;&gt;Node6</title>
<path fill="none" stroke="midnightblue" d="M105.94,-120.54C128.36,-99 169.97,-62.05 212,-40.5 219.41,-36.7 227.48,-33.4 235.62,-30.56"/>
<polygon fill="midnightblue" stroke="midnightblue" points="103.3,-118.23 98.58,-127.72 108.19,-123.24 103.3,-118.23"/>
</g>
</g>
</svg>
