<?xml version="1.0" encoding="UTF-8" standalone="no"?>
<!DOCTYPE svg PUBLIC "-//W3C//DTD SVG 1.1//EN"
 "http://www.w3.org/Graphics/SVG/1.1/DTD/svg11.dtd">
<!-- Generated by graphviz version 2.43.0 (0)
 -->
<!-- Title: Graphical Class Hierarchy Pages: 1 -->
<svg width="480pt" height="49pt"
 viewBox="0.00 0.00 480.00 49.00" xmlns="http://www.w3.org/2000/svg" xmlns:xlink="http://www.w3.org/1999/xlink">
<g id="graph0" class="graph" transform="scale(1 1) rotate(0) translate(4 45)">
<title>Graphical Class Hierarchy</title>
<!-- Node0 -->
<g id="Node000000" class="node">
<title>Node0</title>
<g id="a_Node000000"><a xlink:href="da/d4c/classxii_array_base.html" target="_top" xlink:title=" ">
<polygon fill="white" stroke="#666666" points="125,-41 0,-41 0,0 125,0 125,-41"/>
<text text-anchor="start" x="8" y="-29" font-family="Helvetica,sans-Serif" font-size="10.00">xiiArrayBase&lt; SurfInt,</text>
<text text-anchor="start" x="8" y="-18" font-family="Helvetica,sans-Serif" font-size="10.00"> xiiDynamicArrayBase</text>
<text text-anchor="middle" x="62.5" y="-7" font-family="Helvetica,sans-Serif" font-size="10.00">&lt; SurfInt &gt; &gt;</text>
</a>
</g>
</g>
<!-- Node1 -->
<g id="Node000001" class="node">
<title>Node1</title>
<g id="a_Node000001"><a xlink:href="d2/dea/classxii_dynamic_array_base.html" target="_top" xlink:title=" ">
<polygon fill="white" stroke="#666666" points="283,-35.5 161,-35.5 161,-5.5 283,-5.5 283,-35.5"/>
<text text-anchor="start" x="169" y="-23.5" font-family="Helvetica,sans-Serif" font-size="10.00">xiiDynamicArrayBase</text>
<text text-anchor="middle" x="222" y="-12.5" font-family="Helvetica,sans-Serif" font-size="10.00">&lt; SurfInt &gt;</text>
</a>
</g>
</g>
<!-- Node0&#45;&gt;Node1 -->
<g id="edge588_Node000000_Node000001" class="edge">
<title>Node0&#45;&gt;Node1</title>
<g id="a_edge588_Node000000_Node000001"><a xlink:title=" ">
<path fill="none" stroke="#63b8ff" d="M135.57,-20.5C144.05,-20.5 152.64,-20.5 160.93,-20.5"/>
<polygon fill="#63b8ff" stroke="#63b8ff" points="135.3,-17 125.3,-20.5 135.3,-24 135.3,-17"/>
</a>
</g>
</g>
<!-- Node2 -->
<g id="Node000002" class="node">
<title>Node2</title>
<g id="a_Node000002"><a xlink:href="dc/da4/classxii_dynamic_array.html" target="_top" xlink:title=" ">
<polygon fill="white" stroke="#666666" points="472,-30 319,-30 319,-11 472,-11 472,-30"/>
<text text-anchor="middle" x="395.5" y="-18" font-family="Helvetica,sans-Serif" font-size="10.00">xiiDynamicArray&lt; SurfInt &gt;</text>
</a>
</g>
</g>
<!-- Node1&#45;&gt;Node2 -->
<g id="edge589_Node000001_Node000002" class="edge">
<title>Node1&#45;&gt;Node2</title>
<g id="a_edge589_Node000001_Node000002"><a xlink:title=" ">
<path fill="none" stroke="#63b8ff" d="M293.56,-20.5C301.94,-20.5 310.51,-20.5 318.95,-20.5"/>
<polygon fill="#63b8ff" stroke="#63b8ff" points="293.46,-17 283.46,-20.5 293.46,-24 293.46,-17"/>
</a>
</g>
</g>
</g>
</svg>
