<?xml version="1.0" encoding="UTF-8" standalone="no"?>
<!DOCTYPE svg PUBLIC "-//W3C//DTD SVG 1.1//EN"
 "http://www.w3.org/Graphics/SVG/1.1/DTD/svg11.dtd">
<!-- Generated by graphviz version 2.43.0 (0)
 -->
<!-- Title: Graphical Class Hierarchy Pages: 1 -->
<svg width="975pt" height="60pt"
 viewBox="0.00 0.00 975.00 60.00" xmlns="http://www.w3.org/2000/svg" xmlns:xlink="http://www.w3.org/1999/xlink">
<g id="graph0" class="graph" transform="scale(1 1) rotate(0) translate(4 56)">
<title>Graphical Class Hierarchy</title>
<!-- Node0 -->
<g id="Node000000" class="node">
<title>Node0</title>
<g id="a_Node000000"><a xlink:href="da/d4c/classxii_array_base.html" target="_top" xlink:title=" ">
<polygon fill="white" stroke="#666666" points="246,-52 0,-52 0,0 246,0 246,-52"/>
<text text-anchor="start" x="8" y="-40" font-family="Helvetica,sans-Serif" font-size="10.00">xiiArrayBase&lt; xiiAnimPose</text>
<text text-anchor="start" x="8" y="-29" font-family="Helvetica,sans-Serif" font-size="10.00">GeneratorCommandCombinePoses,</text>
<text text-anchor="start" x="8" y="-18" font-family="Helvetica,sans-Serif" font-size="10.00"> xiiDynamicArrayBase&lt; xiiAnimPoseGenerator</text>
<text text-anchor="middle" x="123" y="-7" font-family="Helvetica,sans-Serif" font-size="10.00">CommandCombinePoses &gt; &gt;</text>
</a>
</g>
</g>
<!-- Node1 -->
<g id="Node000001" class="node">
<title>Node1</title>
<g id="a_Node000001"><a xlink:href="d2/dea/classxii_dynamic_array_base.html" target="_top" xlink:title=" ">
<polygon fill="white" stroke="#666666" points="470,-46.5 282,-46.5 282,-5.5 470,-5.5 470,-46.5"/>
<text text-anchor="start" x="290" y="-34.5" font-family="Helvetica,sans-Serif" font-size="10.00">xiiDynamicArrayBase</text>
<text text-anchor="start" x="290" y="-23.5" font-family="Helvetica,sans-Serif" font-size="10.00">&lt; xiiAnimPoseGeneratorCommand</text>
<text text-anchor="middle" x="376" y="-12.5" font-family="Helvetica,sans-Serif" font-size="10.00">CombinePoses &gt;</text>
</a>
</g>
</g>
<!-- Node0&#45;&gt;Node1 -->
<g id="edge696_Node000000_Node000001" class="edge">
<title>Node0&#45;&gt;Node1</title>
<g id="a_edge696_Node000000_Node000001"><a xlink:title=" ">
<path fill="none" stroke="#63b8ff" d="M256.29,-26C264.88,-26 273.44,-26 281.78,-26"/>
<polygon fill="#63b8ff" stroke="#63b8ff" points="256.19,-22.5 246.19,-26 256.19,-29.5 256.19,-22.5"/>
</a>
</g>
</g>
<!-- Node2 -->
<g id="Node000002" class="node">
<title>Node2</title>
<g id="a_Node000002"><a xlink:href="dc/da4/classxii_dynamic_array.html" target="_top" xlink:title=" ">
<polygon fill="white" stroke="#666666" points="720,-46.5 506,-46.5 506,-5.5 720,-5.5 720,-46.5"/>
<text text-anchor="start" x="514" y="-34.5" font-family="Helvetica,sans-Serif" font-size="10.00">xiiDynamicArray&lt; xiiAnim</text>
<text text-anchor="start" x="514" y="-23.5" font-family="Helvetica,sans-Serif" font-size="10.00">PoseGeneratorCommandCombinePoses,</text>
<text text-anchor="middle" x="613" y="-12.5" font-family="Helvetica,sans-Serif" font-size="10.00"> xiiDefaultAllocatorWrapper &gt;</text>
</a>
</g>
</g>
<!-- Node1&#45;&gt;Node2 -->
<g id="edge697_Node000001_Node000002" class="edge">
<title>Node1&#45;&gt;Node2</title>
<g id="a_edge697_Node000001_Node000002"><a xlink:title=" ">
<path fill="none" stroke="#63b8ff" d="M480.4,-26C488.8,-26 497.29,-26 505.71,-26"/>
<polygon fill="#63b8ff" stroke="#63b8ff" points="480.22,-22.5 470.22,-26 480.22,-29.5 480.22,-22.5"/>
</a>
</g>
</g>
<!-- Node3 -->
<g id="Node000003" class="node">
<title>Node3</title>
<g id="a_Node000003"><a xlink:href="dc/da9/classxii_hybrid_array.html" target="_top" xlink:title=" ">
<polygon fill="white" stroke="#666666" points="967,-41 756,-41 756,-11 967,-11 967,-41"/>
<text text-anchor="start" x="764" y="-29" font-family="Helvetica,sans-Serif" font-size="10.00">xiiHybridArray&lt; xiiAnimPose</text>
<text text-anchor="middle" x="861.5" y="-18" font-family="Helvetica,sans-Serif" font-size="10.00">GeneratorCommandCombinePoses, 1 &gt;</text>
</a>
</g>
</g>
<!-- Node2&#45;&gt;Node3 -->
<g id="edge698_Node000002_Node000003" class="edge">
<title>Node2&#45;&gt;Node3</title>
<g id="a_edge698_Node000002_Node000003"><a xlink:title=" ">
<path fill="none" stroke="#63b8ff" d="M730.54,-26C738.94,-26 747.37,-26 755.7,-26"/>
<polygon fill="#63b8ff" stroke="#63b8ff" points="730.33,-22.5 720.33,-26 730.33,-29.5 730.33,-22.5"/>
</a>
</g>
</g>
</g>
</svg>
