<?xml version="1.0" encoding="UTF-8" standalone="no"?>
<!DOCTYPE svg PUBLIC "-//W3C//DTD SVG 1.1//EN"
 "http://www.w3.org/Graphics/SVG/1.1/DTD/svg11.dtd">
<!-- Generated by graphviz version 2.43.0 (0)
 -->
<!-- Title: Graphical Class Hierarchy Pages: 1 -->
<svg width="521pt" height="70pt"
 viewBox="0.00 0.00 521.00 69.50" xmlns="http://www.w3.org/2000/svg" xmlns:xlink="http://www.w3.org/1999/xlink">
<g id="graph0" class="graph" transform="scale(1 1) rotate(0) translate(4 65.5)">
<title>Graphical Class Hierarchy</title>
<!-- Node0 -->
<g id="Node000000" class="node">
<title>Node0</title>
<g id="a_Node000000"><a xlink:href="d3/da7/classxii_document_object_mirror.htm" target="_top" xlink:title=" ">
<polygon fill="white" stroke="#666666" points="140,-37 0,-37 0,-18 140,-18 140,-37"/>
<text text-anchor="middle" x="70" y="-25" font-family="Helvetica,sans-Serif" font-size="10.00">xiiDocumentObjectMirror</text>
</a>
</g>
</g>
<!-- Node1 -->
<g id="Node000001" class="node">
<title>Node1</title>
<g id="a_Node000001"><a xlink:href="d2/d16/classxii_i_p_c_object_mirror_editor.htm" target="_top" xlink:title="An object mirror that mirrors across IPC to the engine process.">
<polygon fill="white" stroke="#666666" points="312,-56 178,-56 178,-37 312,-37 312,-56"/>
<text text-anchor="middle" x="245" y="-44" font-family="Helvetica,sans-Serif" font-size="10.00">xiiIPCObjectMirrorEditor</text>
</a>
</g>
</g>
<!-- Node0&#45;&gt;Node1 -->
<g id="edge1568_Node000000_Node000001" class="edge">
<title>Node0&#45;&gt;Node1</title>
<g id="a_edge1568_Node000000_Node000001"><a xlink:title=" ">
<path fill="none" stroke="#63b8ff" d="M150.34,-36.21C159.59,-37.23 168.95,-38.26 177.99,-39.25"/>
<polygon fill="#63b8ff" stroke="#63b8ff" points="150.69,-32.73 140.37,-35.12 149.93,-39.69 150.69,-32.73"/>
</a>
</g>
</g>
<!-- Node3 -->
<g id="Node000003" class="node">
<title>Node3</title>
<g id="a_Node000003"><a xlink:href="d2/d8f/classxii_i_p_c_object_mirror_engine.htm" target="_top" xlink:title="An object mirror that mirrors across IPC to the engine process.">
<polygon fill="white" stroke="#666666" points="314,-19 176,-19 176,0 314,0 314,-19"/>
<text text-anchor="middle" x="245" y="-7" font-family="Helvetica,sans-Serif" font-size="10.00">xiiIPCObjectMirrorEngine</text>
</a>
</g>
</g>
<!-- Node0&#45;&gt;Node3 -->
<g id="edge1570_Node000000_Node000003" class="edge">
<title>Node0&#45;&gt;Node3</title>
<g id="a_edge1570_Node000000_Node000003"><a xlink:title=" ">
<path fill="none" stroke="#63b8ff" d="M150.56,-19.22C158.98,-18.35 167.48,-17.46 175.74,-16.6"/>
<polygon fill="#63b8ff" stroke="#63b8ff" points="149.95,-15.77 140.37,-20.28 150.68,-22.73 149.95,-15.77"/>
</a>
</g>
</g>
<!-- Node2 -->
<g id="Node000002" class="node">
<title>Node2</title>
<g id="a_Node000002"><a xlink:href="dc/dc9/classxii_render_pipeline_object_mirror_editor.htm" target="_top" xlink:title="This custom mirror additionally sends over the connection meta data as properties to the engine side ...">
<polygon fill="white" stroke="#666666" points="513,-61.5 350,-61.5 350,-31.5 513,-31.5 513,-61.5"/>
<text text-anchor="start" x="358" y="-49.5" font-family="Helvetica,sans-Serif" font-size="10.00">xiiRenderPipelineObjectMirror</text>
<text text-anchor="middle" x="431.5" y="-38.5" font-family="Helvetica,sans-Serif" font-size="10.00">Editor</text>
</a>
</g>
</g>
<!-- Node1&#45;&gt;Node2 -->
<g id="edge1569_Node000001_Node000002" class="edge">
<title>Node1&#45;&gt;Node2</title>
<g id="a_edge1569_Node000001_Node000002"><a xlink:title=" ">
<path fill="none" stroke="#63b8ff" d="M322.23,-46.5C331.3,-46.5 340.59,-46.5 349.73,-46.5"/>
<polygon fill="#63b8ff" stroke="#63b8ff" points="322.09,-43 312.09,-46.5 322.09,-50 322.09,-43"/>
</a>
</g>
</g>
</g>
</svg>
