<?xml version="1.0" encoding="UTF-8" standalone="no"?>
<!DOCTYPE svg PUBLIC "-//W3C//DTD SVG 1.1//EN"
 "http://www.w3.org/Graphics/SVG/1.1/DTD/svg11.dtd">
<!-- Generated by graphviz version 2.43.0 (0)
 -->
<!-- Title: Graphical Class Hierarchy Pages: 1 -->
<svg width="649pt" height="134pt"
 viewBox="0.00 0.00 649.00 134.00" xmlns="http://www.w3.org/2000/svg" xmlns:xlink="http://www.w3.org/1999/xlink">
<g id="graph0" class="graph" transform="scale(1 1) rotate(0) translate(4 130)">
<title>Graphical Class Hierarchy</title>
<!-- Node0 -->
<g id="Node000000" class="node">
<title>Node0</title>
<g id="a_Node000000"><a xlink:href="da/d4c/classxii_array_base.htm" target="_top" xlink:title=" ">
<polygon fill="white" stroke="#666666" points="125,-83.5 0,-83.5 0,-42.5 125,-42.5 125,-83.5"/>
<text text-anchor="start" x="8" y="-71.5" font-family="Helvetica,sans-Serif" font-size="10.00">xiiArrayBase&lt; char,</text>
<text text-anchor="start" x="8" y="-60.5" font-family="Helvetica,sans-Serif" font-size="10.00"> xiiDynamicArrayBase</text>
<text text-anchor="middle" x="62.5" y="-49.5" font-family="Helvetica,sans-Serif" font-size="10.00">&lt; char &gt; &gt;</text>
</a>
</g>
</g>
<!-- Node1 -->
<g id="Node000001" class="node">
<title>Node1</title>
<g id="a_Node000001"><a xlink:href="d2/dea/classxii_dynamic_array_base.htm" target="_top" xlink:title=" ">
<polygon fill="white" stroke="#666666" points="283,-78 161,-78 161,-48 283,-48 283,-78"/>
<text text-anchor="start" x="169" y="-66" font-family="Helvetica,sans-Serif" font-size="10.00">xiiDynamicArrayBase</text>
<text text-anchor="middle" x="222" y="-55" font-family="Helvetica,sans-Serif" font-size="10.00">&lt; char &gt;</text>
</a>
</g>
</g>
<!-- Node0&#45;&gt;Node1 -->
<g id="edge412_Node000000_Node000001" class="edge">
<title>Node0&#45;&gt;Node1</title>
<g id="a_edge412_Node000000_Node000001"><a xlink:title=" ">
<path fill="none" stroke="#63b8ff" d="M135.57,-63C144.05,-63 152.64,-63 160.93,-63"/>
<polygon fill="#63b8ff" stroke="#63b8ff" points="135.3,-59.5 125.3,-63 135.3,-66.5 135.3,-59.5"/>
</a>
</g>
</g>
<!-- Node2 -->
<g id="Node000002" class="node">
<title>Node2</title>
<g id="a_Node000002"><a xlink:href="dc/da4/classxii_dynamic_array.htm" target="_top" xlink:title=" ">
<polygon fill="white" stroke="#666666" points="483,-78 319,-78 319,-48 483,-48 483,-78"/>
<text text-anchor="start" x="327" y="-66" font-family="Helvetica,sans-Serif" font-size="10.00">xiiDynamicArray&lt; char,</text>
<text text-anchor="middle" x="401" y="-55" font-family="Helvetica,sans-Serif" font-size="10.00"> xiiDefaultAllocatorWrapper &gt;</text>
</a>
</g>
</g>
<!-- Node1&#45;&gt;Node2 -->
<g id="edge413_Node000001_Node000002" class="edge">
<title>Node1&#45;&gt;Node2</title>
<g id="a_edge413_Node000001_Node000002"><a xlink:title=" ">
<path fill="none" stroke="#63b8ff" d="M293.47,-63C301.82,-63 310.4,-63 318.88,-63"/>
<polygon fill="#63b8ff" stroke="#63b8ff" points="293.42,-59.5 283.42,-63 293.42,-66.5 293.42,-59.5"/>
</a>
</g>
</g>
<!-- Node3 -->
<g id="Node000003" class="node">
<title>Node3</title>
<g id="a_Node000003"><a xlink:href="dc/da9/classxii_hybrid_array.htm" target="_top" xlink:title=" ">
<polygon fill="white" stroke="#666666" points="641,-126 519,-126 519,-96 641,-96 641,-126"/>
<text text-anchor="start" x="527" y="-114" font-family="Helvetica,sans-Serif" font-size="10.00">xiiHybridArray&lt; char,</text>
<text text-anchor="middle" x="580" y="-103" font-family="Helvetica,sans-Serif" font-size="10.00"> Size &gt;</text>
</a>
</g>
</g>
<!-- Node2&#45;&gt;Node3 -->
<g id="edge414_Node000002_Node000003" class="edge">
<title>Node2&#45;&gt;Node3</title>
<g id="a_edge414_Node000002_Node000003"><a xlink:title=" ">
<path fill="none" stroke="#63b8ff" d="M467.34,-80.72C485.85,-85.74 505.82,-91.15 523.68,-96"/>
<polygon fill="#63b8ff" stroke="#63b8ff" points="468.09,-77.3 457.52,-78.06 466.25,-84.05 468.09,-77.3"/>
</a>
</g>
</g>
<!-- Node4 -->
<g id="Node000004" class="node">
<title>Node4</title>
<g id="a_Node000004"><a xlink:href="dc/da9/classxii_hybrid_array.htm" target="_top" xlink:title=" ">
<polygon fill="white" stroke="#666666" points="641,-78 519,-78 519,-48 641,-48 641,-78"/>
<text text-anchor="start" x="527" y="-66" font-family="Helvetica,sans-Serif" font-size="10.00">xiiHybridArray&lt; char,</text>
<text text-anchor="middle" x="580" y="-55" font-family="Helvetica,sans-Serif" font-size="10.00"> 128 &gt;</text>
</a>
</g>
</g>
<!-- Node2&#45;&gt;Node4 -->
<g id="edge415_Node000002_Node000004" class="edge">
<title>Node2&#45;&gt;Node4</title>
<g id="a_edge415_Node000002_Node000004"><a xlink:title=" ">
<path fill="none" stroke="#63b8ff" d="M493.39,-63C502.04,-63 510.64,-63 518.88,-63"/>
<polygon fill="#63b8ff" stroke="#63b8ff" points="493.25,-59.5 483.25,-63 493.25,-66.5 493.25,-59.5"/>
</a>
</g>
</g>
<!-- Node5 -->
<g id="Node000005" class="node">
<title>Node5</title>
<g id="a_Node000005"><a xlink:href="dc/da9/classxii_hybrid_array.htm" target="_top" xlink:title=" ">
<polygon fill="white" stroke="#666666" points="641,-30 519,-30 519,0 641,0 641,-30"/>
<text text-anchor="start" x="527" y="-18" font-family="Helvetica,sans-Serif" font-size="10.00">xiiHybridArray&lt; char,</text>
<text text-anchor="middle" x="580" y="-7" font-family="Helvetica,sans-Serif" font-size="10.00"> BufferSize &gt;</text>
</a>
</g>
</g>
<!-- Node2&#45;&gt;Node5 -->
<g id="edge416_Node000002_Node000005" class="edge">
<title>Node2&#45;&gt;Node5</title>
<g id="a_edge416_Node000002_Node000005"><a xlink:title=" ">
<path fill="none" stroke="#63b8ff" d="M467.34,-45.28C485.85,-40.26 505.82,-34.85 523.68,-30"/>
<polygon fill="#63b8ff" stroke="#63b8ff" points="466.25,-41.95 457.52,-47.94 468.09,-48.7 466.25,-41.95"/>
</a>
</g>
</g>
</g>
</svg>
