<?xml version="1.0" encoding="UTF-8" standalone="no"?>
<!DOCTYPE svg PUBLIC "-//W3C//DTD SVG 1.1//EN"
 "http://www.w3.org/Graphics/SVG/1.1/DTD/svg11.dtd">
<!-- Generated by graphviz version 2.43.0 (0)
 -->
<!-- Title: Graphical Class Hierarchy Pages: 1 -->
<svg width="308pt" height="66pt"
 viewBox="0.00 0.00 308.00 66.00" xmlns="http://www.w3.org/2000/svg" xmlns:xlink="http://www.w3.org/1999/xlink">
<g id="graph0" class="graph" transform="scale(1 1) rotate(0) translate(4 62)">
<title>Graphical Class Hierarchy</title>
<polygon fill="white" stroke="transparent" points="-4,4 -4,-62 304,-62 304,4 -4,4"/>
<!-- Node0 -->
<g id="node1" class="node">
<title>Node0</title>
<g id="a_node1"><a xlink:href="d6/d91/classxii_long_op_manager.htm" target="_top" xlink:title="Base class with shared functionality for xiiLongOpControllerManager and xiiLongOpWorkerManager.">
<polygon fill="white" stroke="black" points="0,-19.5 0,-38.5 108,-38.5 108,-19.5 0,-19.5"/>
<text text-anchor="middle" x="54" y="-26.5" font-family="Helvetica,sans-Serif" font-size="10.00">xiiLongOpManager</text>
</a>
</g>
</g>
<!-- Node1 -->
<g id="node2" class="node">
<title>Node1</title>
<g id="a_node2"><a xlink:href="df/d2a/classxii_long_op_controller_manager.htm" target="_top" xlink:title="The LongOp controller is active in the editor process and manages which long ops are available,...">
<polygon fill="white" stroke="black" points="144,-38.5 144,-57.5 300,-57.5 300,-38.5 144,-38.5"/>
<text text-anchor="middle" x="222" y="-45.5" font-family="Helvetica,sans-Serif" font-size="10.00">xiiLongOpControllerManager</text>
</a>
</g>
</g>
<!-- Node0&#45;&gt;Node1 -->
<g id="edge1" class="edge">
<title>Node0&#45;&gt;Node1</title>
<path fill="none" stroke="midnightblue" d="M118.4,-36.26C126.71,-37.21 135.29,-38.19 143.79,-39.16"/>
<polygon fill="midnightblue" stroke="midnightblue" points="118.77,-32.78 108.44,-35.12 117.97,-39.73 118.77,-32.78"/>
</g>
<!-- Node2 -->
<g id="node3" class="node">
<title>Node2</title>
<g id="a_node3"><a xlink:href="dd/d8f/classxii_long_op_worker_manager.htm" target="_top" xlink:title="The LongOp worker manager is active in the engine process of the editor.">
<polygon fill="white" stroke="black" points="151,-0.5 151,-19.5 293,-19.5 293,-0.5 151,-0.5"/>
<text text-anchor="middle" x="222" y="-7.5" font-family="Helvetica,sans-Serif" font-size="10.00">xiiLongOpWorkerManager</text>
</a>
</g>
</g>
<!-- Node0&#45;&gt;Node2 -->
<g id="edge2" class="edge">
<title>Node0&#45;&gt;Node2</title>
<path fill="none" stroke="midnightblue" d="M118.47,-21.74C129.11,-20.52 140.2,-19.25 150.99,-18.01"/>
<polygon fill="midnightblue" stroke="midnightblue" points="117.97,-18.27 108.44,-22.88 118.77,-25.22 117.97,-18.27"/>
</g>
</g>
</svg>
