<?xml version="1.0" encoding="UTF-8" standalone="no"?>
<!DOCTYPE svg PUBLIC "-//W3C//DTD SVG 1.1//EN"
 "http://www.w3.org/Graphics/SVG/1.1/DTD/svg11.dtd">
<!-- Generated by graphviz version 2.43.0 (0)
 -->
<!-- Title: Graphical Class Hierarchy Pages: 1 -->
<svg width="242pt" height="64pt"
 viewBox="0.00 0.00 242.00 64.00" xmlns="http://www.w3.org/2000/svg" xmlns:xlink="http://www.w3.org/1999/xlink">
<g id="graph0" class="graph" transform="scale(1 1) rotate(0) translate(4 60)">
<title>Graphical Class Hierarchy</title>
<!-- Node0 -->
<g id="Node000000" class="node">
<title>Node0</title>
<g id="a_Node000000"><a xlink:title=" ">
<polygon fill="#e0e0e0" stroke="#999999" points="91,-37 0,-37 0,-18 91,-18 91,-37"/>
<text text-anchor="middle" x="45.5" y="-25" font-family="Helvetica,sans-Serif" font-size="10.00">QGraphicsView</text>
</a>
</g>
</g>
<!-- Node1 -->
<g id="Node000001" class="node">
<title>Node1</title>
<g id="a_Node000001"><a xlink:href="d5/d72/classxii_qt_graphics_view.htm" target="_top" xlink:title=" ">
<polygon fill="white" stroke="#666666" points="234,-56 127,-56 127,-37 234,-37 234,-56"/>
<text text-anchor="middle" x="180.5" y="-44" font-family="Helvetica,sans-Serif" font-size="10.00">xiiQtGraphicsView</text>
</a>
</g>
</g>
<!-- Node0&#45;&gt;Node1 -->
<g id="edge143_Node000000_Node000001" class="edge">
<title>Node0&#45;&gt;Node1</title>
<g id="a_edge143_Node000000_Node000001"><a xlink:title=" ">
<path fill="none" stroke="#63b8ff" d="M101.31,-35.33C109.77,-36.54 118.49,-37.78 126.91,-38.99"/>
<polygon fill="#63b8ff" stroke="#63b8ff" points="101.55,-31.83 91.16,-33.88 100.56,-38.76 101.55,-31.83"/>
</a>
</g>
</g>
<!-- Node2 -->
<g id="Node000002" class="node">
<title>Node2</title>
<g id="a_Node000002"><a xlink:href="d2/dfa/classxii_qt_node_view.htm" target="_top" xlink:title=" ">
<polygon fill="white" stroke="#666666" points="225,-19 136,-19 136,0 225,0 225,-19"/>
<text text-anchor="middle" x="180.5" y="-7" font-family="Helvetica,sans-Serif" font-size="10.00">xiiQtNodeView</text>
</a>
</g>
</g>
<!-- Node0&#45;&gt;Node2 -->
<g id="edge144_Node000000_Node000002" class="edge">
<title>Node0&#45;&gt;Node2</title>
<g id="a_edge144_Node000000_Node000002"><a xlink:title=" ">
<path fill="none" stroke="#63b8ff" d="M101.1,-20.11C112.6,-18.55 124.59,-16.93 135.64,-15.44"/>
<polygon fill="#63b8ff" stroke="#63b8ff" points="100.6,-16.65 91.16,-21.46 101.54,-23.58 100.6,-16.65"/>
</a>
</g>
</g>
</g>
</svg>
