<?xml version="1.0" encoding="UTF-8" standalone="no"?>
<!DOCTYPE svg PUBLIC "-//W3C//DTD SVG 1.1//EN"
 "http://www.w3.org/Graphics/SVG/1.1/DTD/svg11.dtd">
<!-- Generated by graphviz version 2.43.0 (0)
 -->
<!-- Title: Graphical Class Hierarchy Pages: 1 -->
<svg width="757pt" height="60pt"
 viewBox="0.00 0.00 757.00 60.00" xmlns="http://www.w3.org/2000/svg" xmlns:xlink="http://www.w3.org/1999/xlink">
<g id="graph0" class="graph" transform="scale(1 1) rotate(0) translate(4 56)">
<title>Graphical Class Hierarchy</title>
<!-- Node0 -->
<g id="Node000000" class="node">
<title>Node0</title>
<g id="a_Node000000"><a xlink:href="da/d4c/classxii_array_base.html" target="_top" xlink:title=" ">
<polygon fill="white" stroke="#666666" points="182,-52 0,-52 0,0 182,0 182,-52"/>
<text text-anchor="start" x="8" y="-40" font-family="Helvetica,sans-Serif" font-size="10.00">xiiArrayBase&lt; const</text>
<text text-anchor="start" x="8" y="-29" font-family="Helvetica,sans-Serif" font-size="10.00"> xiiAbstractProperty</text>
<text text-anchor="start" x="8" y="-18" font-family="Helvetica,sans-Serif" font-size="10.00"> *, xiiDynamicArrayBase</text>
<text text-anchor="middle" x="91" y="-7" font-family="Helvetica,sans-Serif" font-size="10.00">&lt; const xiiAbstractProperty * &gt; &gt;</text>
</a>
</g>
</g>
<!-- Node1 -->
<g id="Node000001" class="node">
<title>Node1</title>
<g id="a_Node000001"><a xlink:href="d2/dea/classxii_dynamic_array_base.html" target="_top" xlink:title=" ">
<polygon fill="white" stroke="#666666" points="388,-41 218,-41 218,-11 388,-11 388,-41"/>
<text text-anchor="start" x="226" y="-29" font-family="Helvetica,sans-Serif" font-size="10.00">xiiDynamicArrayBase</text>
<text text-anchor="middle" x="303" y="-18" font-family="Helvetica,sans-Serif" font-size="10.00">&lt; const xiiAbstractProperty * &gt;</text>
</a>
</g>
</g>
<!-- Node0&#45;&gt;Node1 -->
<g id="edge427_Node000000_Node000001" class="edge">
<title>Node0&#45;&gt;Node1</title>
<g id="a_edge427_Node000000_Node000001"><a xlink:title=" ">
<path fill="none" stroke="#63b8ff" d="M192.54,-26C200.99,-26 209.47,-26 217.78,-26"/>
<polygon fill="#63b8ff" stroke="#63b8ff" points="192.28,-22.5 182.28,-26 192.28,-29.5 192.28,-22.5"/>
</a>
</g>
</g>
<!-- Node2 -->
<g id="Node000002" class="node">
<title>Node2</title>
<g id="a_Node000002"><a xlink:href="dc/da4/classxii_dynamic_array.html" target="_top" xlink:title=" ">
<polygon fill="white" stroke="#666666" points="588,-46.5 424,-46.5 424,-5.5 588,-5.5 588,-46.5"/>
<text text-anchor="start" x="432" y="-34.5" font-family="Helvetica,sans-Serif" font-size="10.00">xiiDynamicArray&lt; const</text>
<text text-anchor="start" x="432" y="-23.5" font-family="Helvetica,sans-Serif" font-size="10.00"> xiiAbstractProperty *,</text>
<text text-anchor="middle" x="506" y="-12.5" font-family="Helvetica,sans-Serif" font-size="10.00"> xiiDefaultAllocatorWrapper &gt;</text>
</a>
</g>
</g>
<!-- Node1&#45;&gt;Node2 -->
<g id="edge428_Node000001_Node000002" class="edge">
<title>Node1&#45;&gt;Node2</title>
<g id="a_edge428_Node000001_Node000002"><a xlink:title=" ">
<path fill="none" stroke="#63b8ff" d="M398.12,-26C406.71,-26 415.37,-26 423.83,-26"/>
<polygon fill="#63b8ff" stroke="#63b8ff" points="398.08,-22.5 388.08,-26 398.08,-29.5 398.08,-22.5"/>
</a>
</g>
</g>
<!-- Node3 -->
<g id="Node000003" class="node">
<title>Node3</title>
<g id="a_Node000003"><a xlink:href="dc/da9/classxii_hybrid_array.html" target="_top" xlink:title=" ">
<polygon fill="white" stroke="#666666" points="749,-46.5 624,-46.5 624,-5.5 749,-5.5 749,-46.5"/>
<text text-anchor="start" x="632" y="-34.5" font-family="Helvetica,sans-Serif" font-size="10.00">xiiHybridArray&lt; const</text>
<text text-anchor="start" x="632" y="-23.5" font-family="Helvetica,sans-Serif" font-size="10.00"> xiiAbstractProperty</text>
<text text-anchor="middle" x="686.5" y="-12.5" font-family="Helvetica,sans-Serif" font-size="10.00"> *, 8 &gt;</text>
</a>
</g>
</g>
<!-- Node2&#45;&gt;Node3 -->
<g id="edge429_Node000002_Node000003" class="edge">
<title>Node2&#45;&gt;Node3</title>
<g id="a_edge429_Node000002_Node000003"><a xlink:title=" ">
<path fill="none" stroke="#63b8ff" d="M598.28,-26C606.92,-26 615.53,-26 623.79,-26"/>
<polygon fill="#63b8ff" stroke="#63b8ff" points="598.15,-22.5 588.15,-26 598.15,-29.5 598.15,-22.5"/>
</a>
</g>
</g>
</g>
</svg>
