<?xml version="1.0" encoding="UTF-8" standalone="no"?>
<!DOCTYPE svg PUBLIC "-//W3C//DTD SVG 1.1//EN"
 "http://www.w3.org/Graphics/SVG/1.1/DTD/svg11.dtd">
<!-- Generated by graphviz version 2.43.0 (0)
 -->
<!-- Title: Graphical Class Hierarchy Pages: 1 -->
<svg width="446pt" height="323pt"
 viewBox="0.00 0.00 446.00 323.00" xmlns="http://www.w3.org/2000/svg" xmlns:xlink="http://www.w3.org/1999/xlink">
<g id="graph0" class="graph" transform="scale(1 1) rotate(0) translate(4 319)">
<title>Graphical Class Hierarchy</title>
<!-- Node0 -->
<g id="Node000000" class="node">
<title>Node0</title>
<g id="a_Node000000"><a xlink:title=" ">
<polygon fill="#e0e0e0" stroke="#999999" points="110,-186 0,-186 0,-167 110,-167 110,-186"/>
<text text-anchor="middle" x="55" y="-174" font-family="Helvetica,sans-Serif" font-size="10.00">QGraphicsPathItem</text>
</a>
</g>
</g>
<!-- Node1 -->
<g id="Node000001" class="node">
<title>Node1</title>
<g id="a_Node000001"><a xlink:href="d0/dde/classxii_qt_connection.html" target="_top" xlink:title=" ">
<polygon fill="white" stroke="#666666" points="241,-278 146,-278 146,-259 241,-259 241,-278"/>
<text text-anchor="middle" x="193.5" y="-266" font-family="Helvetica,sans-Serif" font-size="10.00">xiiQtConnection</text>
</a>
</g>
</g>
<!-- Node0&#45;&gt;Node1 -->
<g id="edge124_Node000000_Node000001" class="edge">
<title>Node0&#45;&gt;Node1</title>
<g id="a_edge124_Node000000_Node000001"><a xlink:title=" ">
<path fill="none" stroke="#63b8ff" d="M78.83,-191.89C107.21,-211.01 154.75,-243.06 178.34,-258.96"/>
<polygon fill="#63b8ff" stroke="#63b8ff" points="80.6,-188.86 70.35,-186.17 76.69,-194.66 80.6,-188.86"/>
</a>
</g>
</g>
<!-- Node4 -->
<g id="Node000004" class="node">
<title>Node4</title>
<g id="a_Node000004"><a xlink:href="d2/dfd/classxii_qt_node.html" target="_top" xlink:title=" ">
<polygon fill="white" stroke="#666666" points="226,-186 161,-186 161,-167 226,-167 226,-186"/>
<text text-anchor="middle" x="193.5" y="-174" font-family="Helvetica,sans-Serif" font-size="10.00">xiiQtNode</text>
</a>
</g>
</g>
<!-- Node0&#45;&gt;Node4 -->
<g id="edge127_Node000000_Node000004" class="edge">
<title>Node0&#45;&gt;Node4</title>
<g id="a_edge127_Node000000_Node000004"><a xlink:title=" ">
<path fill="none" stroke="#63b8ff" d="M120.47,-176.5C134.47,-176.5 148.68,-176.5 160.75,-176.5"/>
<polygon fill="#63b8ff" stroke="#63b8ff" points="120.34,-173 110.34,-176.5 120.34,-180 120.34,-173"/>
</a>
</g>
</g>
<!-- Node9 -->
<g id="Node000009" class="node">
<title>Node9</title>
<g id="a_Node000009"><a xlink:href="d4/d6e/classxii_qt_pin.html" target="_top" xlink:title=" ">
<polygon fill="white" stroke="#666666" points="221,-75 166,-75 166,-56 221,-56 221,-75"/>
<text text-anchor="middle" x="193.5" y="-63" font-family="Helvetica,sans-Serif" font-size="10.00">xiiQtPin</text>
</a>
</g>
</g>
<!-- Node0&#45;&gt;Node9 -->
<g id="edge132_Node000000_Node000009" class="edge">
<title>Node0&#45;&gt;Node9</title>
<g id="a_edge132_Node000000_Node000009"><a xlink:title=" ">
<path fill="none" stroke="#63b8ff" d="M75.9,-160.31C104.72,-136.88 157.15,-94.24 180.61,-75.17"/>
<polygon fill="#63b8ff" stroke="#63b8ff" points="73.66,-157.62 68.11,-166.65 78.08,-163.06 73.66,-157.62"/>
</a>
</g>
</g>
<!-- Node2 -->
<g id="Node000002" class="node">
<title>Node2</title>
<g id="a_Node000002"><a xlink:href="d2/d6e/classxii_qt_state_machine_connection.html" target="_top" xlink:title=" ">
<polygon fill="white" stroke="#666666" points="438,-315 277,-315 277,-296 438,-296 438,-315"/>
<text text-anchor="middle" x="357.5" y="-303" font-family="Helvetica,sans-Serif" font-size="10.00">xiiQtStateMachineConnection</text>
</a>
</g>
</g>
<!-- Node1&#45;&gt;Node2 -->
<g id="edge125_Node000001_Node000002" class="edge">
<title>Node1&#45;&gt;Node2</title>
<g id="a_edge125_Node000001_Node000002"><a xlink:title=" ">
<path fill="none" stroke="#63b8ff" d="M245.44,-280.26C255.88,-282.66 266.79,-285.17 277,-287.5 289,-290.24 302.03,-293.2 314,-295.91"/>
<polygon fill="#63b8ff" stroke="#63b8ff" points="246.15,-276.83 235.62,-278 244.58,-283.66 246.15,-276.83"/>
</a>
</g>
</g>
<!-- Node3 -->
<g id="Node000003" class="node">
<title>Node3</title>
<g id="a_Node000003"><a xlink:href="dc/ded/classxii_qt_visual_script_connection.html" target="_top" xlink:title=" ">
<polygon fill="white" stroke="#666666" points="433.5,-278 281.5,-278 281.5,-259 433.5,-259 433.5,-278"/>
<text text-anchor="middle" x="357.5" y="-266" font-family="Helvetica,sans-Serif" font-size="10.00">xiiQtVisualScriptConnection</text>
</a>
</g>
</g>
<!-- Node1&#45;&gt;Node3 -->
<g id="edge126_Node000001_Node000003" class="edge">
<title>Node1&#45;&gt;Node3</title>
<g id="a_edge126_Node000001_Node000003"><a xlink:title=" ">
<path fill="none" stroke="#63b8ff" d="M251.59,-268.5C261.22,-268.5 271.35,-268.5 281.37,-268.5"/>
<polygon fill="#63b8ff" stroke="#63b8ff" points="251.36,-265 241.36,-268.5 251.36,-272 251.36,-265"/>
</a>
</g>
</g>
<!-- Node5 -->
<g id="Node000005" class="node">
<title>Node5</title>
<g id="a_Node000005"><a xlink:href="df/dc2/classxii_qt_animation_graph_node.html" target="_top" xlink:title=" ">
<polygon fill="white" stroke="#666666" points="430,-241 285,-241 285,-222 430,-222 430,-241"/>
<text text-anchor="middle" x="357.5" y="-229" font-family="Helvetica,sans-Serif" font-size="10.00">xiiQtAnimationGraphNode</text>
</a>
</g>
</g>
<!-- Node4&#45;&gt;Node5 -->
<g id="edge128_Node000004_Node000005" class="edge">
<title>Node4&#45;&gt;Node5</title>
<g id="a_edge128_Node000004_Node000005"><a xlink:title=" ">
<path fill="none" stroke="#63b8ff" d="M222.25,-190.61C238,-198.2 258.26,-207.24 277,-213.5 286.66,-216.73 297.18,-219.56 307.31,-221.97"/>
<polygon fill="#63b8ff" stroke="#63b8ff" points="223.6,-187.38 213.08,-186.12 220.52,-193.66 223.6,-187.38"/>
</a>
</g>
</g>
<!-- Node6 -->
<g id="Node000006" class="node">
<title>Node6</title>
<g id="a_Node000006"><a xlink:href="dd/d84/classxii_qt_state_machine_node.html" target="_top" xlink:title=" ">
<polygon fill="white" stroke="#666666" points="423.5,-204 291.5,-204 291.5,-185 423.5,-185 423.5,-204"/>
<text text-anchor="middle" x="357.5" y="-192" font-family="Helvetica,sans-Serif" font-size="10.00">xiiQtStateMachineNode</text>
</a>
</g>
</g>
<!-- Node4&#45;&gt;Node6 -->
<g id="edge129_Node000004_Node000006" class="edge">
<title>Node4&#45;&gt;Node6</title>
<g id="a_edge129_Node000004_Node000006"><a xlink:title=" ">
<path fill="none" stroke="#63b8ff" d="M236.17,-181.13C252.99,-183 272.81,-185.2 291.45,-187.27"/>
<polygon fill="#63b8ff" stroke="#63b8ff" points="236.45,-177.64 226.12,-180.01 235.67,-184.6 236.45,-177.64"/>
</a>
</g>
</g>
<!-- Node7 -->
<g id="Node000007" class="node">
<title>Node7</title>
<g id="a_Node000007"><a xlink:href="d0/d01/classxii_qt_visual_script_node.html" target="_top" xlink:title=" ">
<polygon fill="white" stroke="#666666" points="419,-167 296,-167 296,-148 419,-148 419,-167"/>
<text text-anchor="middle" x="357.5" y="-155" font-family="Helvetica,sans-Serif" font-size="10.00">xiiQtVisualScriptNode</text>
</a>
</g>
</g>
<!-- Node4&#45;&gt;Node7 -->
<g id="edge130_Node000004_Node000007" class="edge">
<title>Node4&#45;&gt;Node7</title>
<g id="a_edge130_Node000004_Node000007"><a xlink:title=" ">
<path fill="none" stroke="#63b8ff" d="M236.09,-171.62C254.23,-169.49 275.87,-166.96 295.77,-164.62"/>
<polygon fill="#63b8ff" stroke="#63b8ff" points="235.64,-168.15 226.12,-172.79 236.46,-175.1 235.64,-168.15"/>
</a>
</g>
</g>
<!-- Node8 -->
<g id="Node000008" class="node">
<title>Node8</title>
<g id="a_Node000008"><a xlink:href="dc/d68/classxii_qt_visual_shader_node.html" target="_top" xlink:title=" ">
<polygon fill="white" stroke="#666666" points="422,-130 293,-130 293,-111 422,-111 422,-130"/>
<text text-anchor="middle" x="357.5" y="-118" font-family="Helvetica,sans-Serif" font-size="10.00">xiiQtVisualShaderNode</text>
</a>
</g>
</g>
<!-- Node4&#45;&gt;Node8 -->
<g id="edge131_Node000004_Node000008" class="edge">
<title>Node4&#45;&gt;Node8</title>
<g id="a_edge131_Node000004_Node000008"><a xlink:title=" ">
<path fill="none" stroke="#63b8ff" d="M222.28,-162.47C238.04,-154.92 258.29,-145.87 277,-139.5 287.61,-135.89 299.25,-132.7 310.26,-130.01"/>
<polygon fill="#63b8ff" stroke="#63b8ff" points="220.56,-159.42 213.1,-166.95 223.62,-165.71 220.56,-159.42"/>
</a>
</g>
</g>
<!-- Node10 -->
<g id="Node000010" class="node">
<title>Node10</title>
<g id="a_Node000010"><a xlink:href="db/d56/classxii_qt_state_machine_pin.html" target="_top" xlink:title=" ">
<polygon fill="white" stroke="#666666" points="418.5,-93 296.5,-93 296.5,-74 418.5,-74 418.5,-93"/>
<text text-anchor="middle" x="357.5" y="-81" font-family="Helvetica,sans-Serif" font-size="10.00">xiiQtStateMachinePin</text>
</a>
</g>
</g>
<!-- Node9&#45;&gt;Node10 -->
<g id="edge133_Node000009_Node000010" class="edge">
<title>Node9&#45;&gt;Node10</title>
<g id="a_edge133_Node000009_Node000010"><a xlink:title=" ">
<path fill="none" stroke="#63b8ff" d="M231.39,-69.6C250.61,-71.73 274.59,-74.4 296.4,-76.82"/>
<polygon fill="#63b8ff" stroke="#63b8ff" points="231.58,-66.1 221.25,-68.47 230.8,-73.06 231.58,-66.1"/>
</a>
</g>
</g>
<!-- Node11 -->
<g id="Node000011" class="node">
<title>Node11</title>
<g id="a_Node000011"><a xlink:href="d2/d52/classxii_qt_visual_script_pin.html" target="_top" xlink:title=" ">
<polygon fill="white" stroke="#666666" points="414,-56 301,-56 301,-37 414,-37 414,-56"/>
<text text-anchor="middle" x="357.5" y="-44" font-family="Helvetica,sans-Serif" font-size="10.00">xiiQtVisualScriptPin</text>
</a>
</g>
</g>
<!-- Node9&#45;&gt;Node11 -->
<g id="edge134_Node000009_Node000011" class="edge">
<title>Node9&#45;&gt;Node11</title>
<g id="a_edge134_Node000009_Node000011"><a xlink:title=" ">
<path fill="none" stroke="#63b8ff" d="M231.44,-61.17C251.95,-58.76 277.88,-55.72 300.81,-53.03"/>
<polygon fill="#63b8ff" stroke="#63b8ff" points="230.78,-57.72 221.25,-62.36 231.59,-64.67 230.78,-57.72"/>
</a>
</g>
</g>
<!-- Node12 -->
<g id="Node000012" class="node">
<title>Node12</title>
<g id="a_Node000012"><a xlink:href="d8/dbc/classxii_qt_visual_shader_pin.html" target="_top" xlink:title=" ">
<polygon fill="white" stroke="#666666" points="417,-19 298,-19 298,0 417,0 417,-19"/>
<text text-anchor="middle" x="357.5" y="-7" font-family="Helvetica,sans-Serif" font-size="10.00">xiiQtVisualShaderPin</text>
</a>
</g>
</g>
<!-- Node9&#45;&gt;Node12 -->
<g id="edge135_Node000009_Node000012" class="edge">
<title>Node9&#45;&gt;Node12</title>
<g id="a_edge135_Node000009_Node000012"><a xlink:title=" ">
<path fill="none" stroke="#63b8ff" d="M222.28,-51.47C238.04,-43.92 258.29,-34.87 277,-28.5 287.61,-24.89 299.25,-21.7 310.26,-19.01"/>
<polygon fill="#63b8ff" stroke="#63b8ff" points="220.56,-48.42 213.1,-55.95 223.62,-54.71 220.56,-48.42"/>
</a>
</g>
</g>
</g>
</svg>
