<?xml version="1.0" encoding="UTF-8" standalone="no"?>
<!DOCTYPE svg PUBLIC "-//W3C//DTD SVG 1.1//EN"
 "http://www.w3.org/Graphics/SVG/1.1/DTD/svg11.dtd">
<!-- Generated by graphviz version 2.43.0 (0)
 -->
<!-- Title: Graphical Class Hierarchy Pages: 1 -->
<svg width="755pt" height="49pt"
 viewBox="0.00 0.00 755.00 49.00" xmlns="http://www.w3.org/2000/svg" xmlns:xlink="http://www.w3.org/1999/xlink">
<g id="graph0" class="graph" transform="scale(1 1) rotate(0) translate(4 45)">
<title>Graphical Class Hierarchy</title>
<!-- Node0 -->
<g id="Node000000" class="node">
<title>Node0</title>
<g id="a_Node000000"><a xlink:href="da/d4c/classxii_array_base.html" target="_top" xlink:title=" ">
<polygon fill="white" stroke="#666666" points="179,-41 0,-41 0,0 179,0 179,-41"/>
<text text-anchor="start" x="8" y="-29" font-family="Helvetica,sans-Serif" font-size="10.00">xiiArrayBase&lt; xiiProperty</text>
<text text-anchor="start" x="8" y="-18" font-family="Helvetica,sans-Serif" font-size="10.00">Attribute *, xiiDynamicArrayBase</text>
<text text-anchor="middle" x="89.5" y="-7" font-family="Helvetica,sans-Serif" font-size="10.00">&lt; xiiPropertyAttribute * &gt; &gt;</text>
</a>
</g>
</g>
<!-- Node1 -->
<g id="Node000001" class="node">
<title>Node1</title>
<g id="a_Node000001"><a xlink:href="d2/dea/classxii_dynamic_array_base.html" target="_top" xlink:title=" ">
<polygon fill="white" stroke="#666666" points="358,-35.5 215,-35.5 215,-5.5 358,-5.5 358,-35.5"/>
<text text-anchor="start" x="223" y="-23.5" font-family="Helvetica,sans-Serif" font-size="10.00">xiiDynamicArrayBase</text>
<text text-anchor="middle" x="286.5" y="-12.5" font-family="Helvetica,sans-Serif" font-size="10.00">&lt; xiiPropertyAttribute * &gt;</text>
</a>
</g>
</g>
<!-- Node0&#45;&gt;Node1 -->
<g id="edge1145_Node000000_Node000001" class="edge">
<title>Node0&#45;&gt;Node1</title>
<g id="a_edge1145_Node000000_Node000001"><a xlink:title=" ">
<path fill="none" stroke="#63b8ff" d="M189.28,-20.5C197.92,-20.5 206.54,-20.5 214.88,-20.5"/>
<polygon fill="#63b8ff" stroke="#63b8ff" points="189.16,-17 179.16,-20.5 189.16,-24 189.16,-17"/>
</a>
</g>
</g>
<!-- Node2 -->
<g id="Node000002" class="node">
<title>Node2</title>
<g id="a_Node000002"><a xlink:href="dc/da4/classxii_dynamic_array.html" target="_top" xlink:title=" ">
<polygon fill="white" stroke="#666666" points="559,-41 394,-41 394,0 559,0 559,-41"/>
<text text-anchor="start" x="402" y="-29" font-family="Helvetica,sans-Serif" font-size="10.00">xiiDynamicArray&lt; xiiProperty</text>
<text text-anchor="start" x="402" y="-18" font-family="Helvetica,sans-Serif" font-size="10.00">Attribute *, xiiDefaultAllocator</text>
<text text-anchor="middle" x="476.5" y="-7" font-family="Helvetica,sans-Serif" font-size="10.00">Wrapper &gt;</text>
</a>
</g>
</g>
<!-- Node1&#45;&gt;Node2 -->
<g id="edge1146_Node000001_Node000002" class="edge">
<title>Node1&#45;&gt;Node2</title>
<g id="a_edge1146_Node000001_Node000002"><a xlink:title=" ">
<path fill="none" stroke="#63b8ff" d="M368.27,-20.5C376.73,-20.5 385.34,-20.5 393.81,-20.5"/>
<polygon fill="#63b8ff" stroke="#63b8ff" points="368.04,-17 358.04,-20.5 368.04,-24 368.04,-17"/>
</a>
</g>
</g>
<!-- Node3 -->
<g id="Node000003" class="node">
<title>Node3</title>
<g id="a_Node000003"><a xlink:href="dc/da9/classxii_hybrid_array.html" target="_top" xlink:title=" ">
<polygon fill="white" stroke="#666666" points="747,-35.5 595,-35.5 595,-5.5 747,-5.5 747,-35.5"/>
<text text-anchor="start" x="603" y="-23.5" font-family="Helvetica,sans-Serif" font-size="10.00">xiiHybridArray&lt; xiiProperty</text>
<text text-anchor="middle" x="671" y="-12.5" font-family="Helvetica,sans-Serif" font-size="10.00">Attribute *, 2 &gt;</text>
</a>
</g>
</g>
<!-- Node2&#45;&gt;Node3 -->
<g id="edge1147_Node000002_Node000003" class="edge">
<title>Node2&#45;&gt;Node3</title>
<g id="a_edge1147_Node000002_Node000003"><a xlink:title=" ">
<path fill="none" stroke="#63b8ff" d="M569.22,-20.5C577.85,-20.5 586.52,-20.5 594.96,-20.5"/>
<polygon fill="#63b8ff" stroke="#63b8ff" points="569.14,-17 559.14,-20.5 569.14,-24 569.14,-17"/>
</a>
</g>
</g>
</g>
</svg>
