<?xml version="1.0" encoding="UTF-8" standalone="no"?>
<!DOCTYPE svg PUBLIC "-//W3C//DTD SVG 1.1//EN"
 "http://www.w3.org/Graphics/SVG/1.1/DTD/svg11.dtd">
<!-- Generated by graphviz version 2.43.0 (0)
 -->
<!-- Title: Graphical Class Hierarchy Pages: 1 -->
<svg width="331pt" height="382pt"
 viewBox="0.00 0.00 331.00 381.50" xmlns="http://www.w3.org/2000/svg" xmlns:xlink="http://www.w3.org/1999/xlink">
<g id="graph0" class="graph" transform="scale(1 1) rotate(0) translate(4 377.5)">
<title>Graphical Class Hierarchy</title>
<polygon fill="white" stroke="transparent" points="-4,4 -4,-377.5 327,-377.5 327,4 -4,4"/>
<!-- Node0 -->
<g id="node1" class="node">
<title>Node0</title>
<g id="a_node1"><a xlink:href="d3/db6/classxii_visualizer_adapter.htm" target="_top" xlink:title="Base class for the editor side code that sets up a &#39;visualizer&#39; for object properties.">
<polygon fill="white" stroke="black" points="0,-171.5 0,-190.5 115,-190.5 115,-171.5 0,-171.5"/>
<text text-anchor="middle" x="57.5" y="-178.5" font-family="Helvetica,sans-Serif" font-size="10.00">xiiVisualizerAdapter</text>
</a>
</g>
</g>
<!-- Node1 -->
<g id="node2" class="node">
<title>Node1</title>
<g id="a_node2"><a xlink:href="d0/d64/classxii_box_reflection_probe_visualizer_adapter.htm" target="_top" xlink:title=" ">
<polygon fill="white" stroke="black" points="151,-343 151,-373 323,-373 323,-343 151,-343"/>
<text text-anchor="start" x="159" y="-361" font-family="Helvetica,sans-Serif" font-size="10.00">xiiBoxReflectionProbeVisualizer</text>
<text text-anchor="middle" x="237" y="-350" font-family="Helvetica,sans-Serif" font-size="10.00">Adapter</text>
</a>
</g>
</g>
<!-- Node0&#45;&gt;Node1 -->
<g id="edge1" class="edge">
<title>Node0&#45;&gt;Node1</title>
<path fill="none" stroke="midnightblue" d="M64.91,-200.1C76.72,-232.39 105,-297.66 151,-333 156,-336.84 161.58,-340.09 167.42,-342.85"/>
<polygon fill="midnightblue" stroke="midnightblue" points="68.15,-198.78 61.53,-190.51 61.55,-201.11 68.15,-198.78"/>
</g>
<!-- Node2 -->
<g id="node3" class="node">
<title>Node2</title>
<g id="a_node3"><a xlink:href="db/d5a/classxii_box_visualizer_adapter.htm" target="_top" xlink:title=" ">
<polygon fill="white" stroke="black" points="170,-304.5 170,-323.5 304,-323.5 304,-304.5 170,-304.5"/>
<text text-anchor="middle" x="237" y="-311.5" font-family="Helvetica,sans-Serif" font-size="10.00">xiiBoxVisualizerAdapter</text>
</a>
</g>
</g>
<!-- Node0&#45;&gt;Node2 -->
<g id="edge2" class="edge">
<title>Node0&#45;&gt;Node2</title>
<path fill="none" stroke="midnightblue" d="M68.42,-199.89C82.96,-225.61 112.55,-271.19 151,-295 157.3,-298.9 164.3,-302.01 171.51,-304.47"/>
<polygon fill="midnightblue" stroke="midnightblue" points="71.31,-197.88 63.44,-190.79 65.17,-201.24 71.31,-197.88"/>
</g>
<!-- Node3 -->
<g id="node4" class="node">
<title>Node3</title>
<g id="a_node4"><a xlink:href="da/d15/classxii_camera_visualizer_adapter.htm" target="_top" xlink:title=" ">
<polygon fill="white" stroke="black" points="160.5,-266.5 160.5,-285.5 313.5,-285.5 313.5,-266.5 160.5,-266.5"/>
<text text-anchor="middle" x="237" y="-273.5" font-family="Helvetica,sans-Serif" font-size="10.00">xiiCameraVisualizerAdapter</text>
</a>
</g>
</g>
<!-- Node0&#45;&gt;Node3 -->
<g id="edge3" class="edge">
<title>Node0&#45;&gt;Node3</title>
<path fill="none" stroke="midnightblue" d="M74.19,-197.91C91.37,-215.39 120.55,-242.14 151,-257 158.88,-260.85 167.56,-263.92 176.26,-266.38"/>
<polygon fill="midnightblue" stroke="midnightblue" points="76.63,-195.4 67.18,-190.61 71.58,-200.25 76.63,-195.4"/>
</g>
<!-- Node4 -->
<g id="node5" class="node">
<title>Node4</title>
<g id="a_node5"><a xlink:href="d0/d9f/classxii_capsule_visualizer_adapter.htm" target="_top" xlink:title=" ">
<polygon fill="white" stroke="black" points="160,-228.5 160,-247.5 314,-247.5 314,-228.5 160,-228.5"/>
<text text-anchor="middle" x="237" y="-235.5" font-family="Helvetica,sans-Serif" font-size="10.00">xiiCapsuleVisualizerAdapter</text>
</a>
</g>
</g>
<!-- Node0&#45;&gt;Node4 -->
<g id="edge4" class="edge">
<title>Node0&#45;&gt;Node4</title>
<path fill="none" stroke="midnightblue" d="M88.4,-194.8C106.28,-202.67 129.62,-212.27 151,-219 162.39,-222.59 174.85,-225.77 186.63,-228.45"/>
<polygon fill="midnightblue" stroke="midnightblue" points="89.63,-191.51 79.07,-190.63 86.77,-197.9 89.63,-191.51"/>
</g>
<!-- Node5 -->
<g id="node6" class="node">
<title>Node5</title>
<g id="a_node6"><a xlink:href="d0/dc6/classxii_cone_visualizer_adapter.htm" target="_top" xlink:title=" ">
<polygon fill="white" stroke="black" points="167,-190.5 167,-209.5 307,-209.5 307,-190.5 167,-190.5"/>
<text text-anchor="middle" x="237" y="-197.5" font-family="Helvetica,sans-Serif" font-size="10.00">xiiConeVisualizerAdapter</text>
</a>
</g>
</g>
<!-- Node0&#45;&gt;Node5 -->
<g id="edge5" class="edge">
<title>Node0&#45;&gt;Node5</title>
<path fill="none" stroke="midnightblue" d="M125.35,-188.16C138.91,-189.61 153.2,-191.14 166.83,-192.6"/>
<polygon fill="midnightblue" stroke="midnightblue" points="125.47,-184.65 115.15,-187.06 124.72,-191.61 125.47,-184.65"/>
</g>
<!-- Node6 -->
<g id="node7" class="node">
<title>Node6</title>
<g id="a_node7"><a xlink:href="df/d76/classxii_cylinder_visualizer_adapter.htm" target="_top" xlink:title=" ">
<polygon fill="white" stroke="black" points="159.5,-152.5 159.5,-171.5 314.5,-171.5 314.5,-152.5 159.5,-152.5"/>
<text text-anchor="middle" x="237" y="-159.5" font-family="Helvetica,sans-Serif" font-size="10.00">xiiCylinderVisualizerAdapter</text>
</a>
</g>
</g>
<!-- Node0&#45;&gt;Node6 -->
<g id="edge6" class="edge">
<title>Node0&#45;&gt;Node6</title>
<path fill="none" stroke="midnightblue" d="M125.25,-173.85C136.42,-172.66 148.09,-171.41 159.49,-170.19"/>
<polygon fill="midnightblue" stroke="midnightblue" points="124.72,-170.39 115.15,-174.94 125.47,-177.35 124.72,-170.39"/>
</g>
<!-- Node7 -->
<g id="node8" class="node">
<title>Node7</title>
<g id="a_node8"><a xlink:href="d5/d85/classxii_direction_visualizer_adapter.htm" target="_top" xlink:title=" ">
<polygon fill="white" stroke="black" points="157.5,-114.5 157.5,-133.5 316.5,-133.5 316.5,-114.5 157.5,-114.5"/>
<text text-anchor="middle" x="237" y="-121.5" font-family="Helvetica,sans-Serif" font-size="10.00">xiiDirectionVisualizerAdapter</text>
</a>
</g>
</g>
<!-- Node0&#45;&gt;Node7 -->
<g id="edge7" class="edge">
<title>Node0&#45;&gt;Node7</title>
<path fill="none" stroke="midnightblue" d="M88.4,-167.2C106.28,-159.33 129.62,-149.73 151,-143 162.39,-139.41 174.85,-136.23 186.63,-133.55"/>
<polygon fill="midnightblue" stroke="midnightblue" points="86.77,-164.1 79.07,-171.37 89.63,-170.49 86.77,-164.1"/>
</g>
<!-- Node8 -->
<g id="node9" class="node">
<title>Node8</title>
<g id="a_node9"><a xlink:href="d2/d6d/classxii_point_light_visualizer_adapter.htm" target="_top" xlink:title=" ">
<polygon fill="white" stroke="black" points="155,-76.5 155,-95.5 319,-95.5 319,-76.5 155,-76.5"/>
<text text-anchor="middle" x="237" y="-83.5" font-family="Helvetica,sans-Serif" font-size="10.00">xiiPointLightVisualizerAdapter</text>
</a>
</g>
</g>
<!-- Node0&#45;&gt;Node8 -->
<g id="edge8" class="edge">
<title>Node0&#45;&gt;Node8</title>
<path fill="none" stroke="midnightblue" d="M74.19,-164.09C91.37,-146.61 120.55,-119.86 151,-105 158.88,-101.15 167.56,-98.08 176.26,-95.62"/>
<polygon fill="midnightblue" stroke="midnightblue" points="71.58,-161.75 67.18,-171.39 76.63,-166.6 71.58,-161.75"/>
</g>
<!-- Node9 -->
<g id="node10" class="node">
<title>Node9</title>
<g id="a_node10"><a xlink:href="d4/dc0/classxii_sphere_visualizer_adapter.htm" target="_top" xlink:title=" ">
<polygon fill="white" stroke="black" points="162.5,-38.5 162.5,-57.5 311.5,-57.5 311.5,-38.5 162.5,-38.5"/>
<text text-anchor="middle" x="237" y="-45.5" font-family="Helvetica,sans-Serif" font-size="10.00">xiiSphereVisualizerAdapter</text>
</a>
</g>
</g>
<!-- Node0&#45;&gt;Node9 -->
<g id="edge9" class="edge">
<title>Node0&#45;&gt;Node9</title>
<path fill="none" stroke="midnightblue" d="M68.42,-162.11C82.96,-136.39 112.55,-90.81 151,-67 157.3,-63.1 164.3,-59.99 171.51,-57.53"/>
<polygon fill="midnightblue" stroke="midnightblue" points="65.17,-160.76 63.44,-171.21 71.31,-164.12 65.17,-160.76"/>
</g>
<!-- Node10 -->
<g id="node11" class="node">
<title>Node10</title>
<g id="a_node11"><a xlink:href="df/d8c/classxii_spot_light_visualizer_adapter.htm" target="_top" xlink:title=" ">
<polygon fill="white" stroke="black" points="156.5,-0.5 156.5,-19.5 317.5,-19.5 317.5,-0.5 156.5,-0.5"/>
<text text-anchor="middle" x="237" y="-7.5" font-family="Helvetica,sans-Serif" font-size="10.00">xiiSpotLightVisualizerAdapter</text>
</a>
</g>
</g>
<!-- Node0&#45;&gt;Node10 -->
<g id="edge10" class="edge">
<title>Node0&#45;&gt;Node10</title>
<path fill="none" stroke="midnightblue" d="M64.66,-161.57C76.11,-128.79 103.86,-62.8 151,-29 156.41,-25.12 162.47,-22.02 168.79,-19.53"/>
<polygon fill="midnightblue" stroke="midnightblue" points="61.26,-160.72 61.4,-171.32 67.89,-162.94 61.26,-160.72"/>
</g>
</g>
</svg>
