<?xml version="1.0" encoding="UTF-8" standalone="no"?>
<!DOCTYPE svg PUBLIC "-//W3C//DTD SVG 1.1//EN"
 "http://www.w3.org/Graphics/SVG/1.1/DTD/svg11.dtd">
<!-- Generated by graphviz version 2.43.0 (0)
 -->
<!-- Title: Graphical Class Hierarchy Pages: 1 -->
<svg width="809pt" height="49pt"
 viewBox="0.00 0.00 809.00 49.00" xmlns="http://www.w3.org/2000/svg" xmlns:xlink="http://www.w3.org/1999/xlink">
<g id="graph0" class="graph" transform="scale(1 1) rotate(0) translate(4 45)">
<title>Graphical Class Hierarchy</title>
<!-- Node0 -->
<g id="Node000000" class="node">
<title>Node0</title>
<g id="a_Node000000"><a xlink:href="da/d4c/classxii_array_base.html" target="_top" xlink:title=" ">
<polygon fill="white" stroke="#666666" points="195,-41 0,-41 0,0 195,0 195,-41"/>
<text text-anchor="start" x="8" y="-29" font-family="Helvetica,sans-Serif" font-size="10.00">xiiArrayBase&lt; xiiQtEngine</text>
<text text-anchor="start" x="8" y="-18" font-family="Helvetica,sans-Serif" font-size="10.00">ViewWidget *, xiiDynamicArrayBase</text>
<text text-anchor="middle" x="97.5" y="-7" font-family="Helvetica,sans-Serif" font-size="10.00">&lt; xiiQtEngineViewWidget * &gt; &gt;</text>
</a>
</g>
</g>
<!-- Node1 -->
<g id="Node000001" class="node">
<title>Node1</title>
<g id="a_Node000001"><a xlink:href="d2/dea/classxii_dynamic_array_base.html" target="_top" xlink:title=" ">
<polygon fill="white" stroke="#666666" points="393,-35.5 231,-35.5 231,-5.5 393,-5.5 393,-35.5"/>
<text text-anchor="start" x="239" y="-23.5" font-family="Helvetica,sans-Serif" font-size="10.00">xiiDynamicArrayBase</text>
<text text-anchor="middle" x="312" y="-12.5" font-family="Helvetica,sans-Serif" font-size="10.00">&lt; xiiQtEngineViewWidget * &gt;</text>
</a>
</g>
</g>
<!-- Node0&#45;&gt;Node1 -->
<g id="edge1128_Node000000_Node000001" class="edge">
<title>Node0&#45;&gt;Node1</title>
<g id="a_edge1128_Node000000_Node000001"><a xlink:title=" ">
<path fill="none" stroke="#63b8ff" d="M205.22,-20.5C213.84,-20.5 222.46,-20.5 230.84,-20.5"/>
<polygon fill="#63b8ff" stroke="#63b8ff" points="205.11,-17 195.11,-20.5 205.11,-24 205.11,-17"/>
</a>
</g>
</g>
<!-- Node2 -->
<g id="Node000002" class="node">
<title>Node2</title>
<g id="a_Node000002"><a xlink:href="dc/da4/classxii_dynamic_array.html" target="_top" xlink:title=" ">
<polygon fill="white" stroke="#666666" points="610,-41 429,-41 429,0 610,0 610,-41"/>
<text text-anchor="start" x="437" y="-29" font-family="Helvetica,sans-Serif" font-size="10.00">xiiDynamicArray&lt; xiiQtEngine</text>
<text text-anchor="start" x="437" y="-18" font-family="Helvetica,sans-Serif" font-size="10.00">ViewWidget *, xiiDefaultAllocator</text>
<text text-anchor="middle" x="519.5" y="-7" font-family="Helvetica,sans-Serif" font-size="10.00">Wrapper &gt;</text>
</a>
</g>
</g>
<!-- Node1&#45;&gt;Node2 -->
<g id="edge1129_Node000001_Node000002" class="edge">
<title>Node1&#45;&gt;Node2</title>
<g id="a_edge1129_Node000001_Node000002"><a xlink:title=" ">
<path fill="none" stroke="#63b8ff" d="M403.29,-20.5C411.76,-20.5 420.34,-20.5 428.79,-20.5"/>
<polygon fill="#63b8ff" stroke="#63b8ff" points="403.04,-17 393.04,-20.5 403.04,-24 403.04,-17"/>
</a>
</g>
</g>
<!-- Node3 -->
<g id="Node000003" class="node">
<title>Node3</title>
<g id="a_Node000003"><a xlink:href="dc/da9/classxii_hybrid_array.html" target="_top" xlink:title=" ">
<polygon fill="white" stroke="#666666" points="801,-35.5 646,-35.5 646,-5.5 801,-5.5 801,-35.5"/>
<text text-anchor="start" x="654" y="-23.5" font-family="Helvetica,sans-Serif" font-size="10.00">xiiHybridArray&lt; xiiQtEngine</text>
<text text-anchor="middle" x="723.5" y="-12.5" font-family="Helvetica,sans-Serif" font-size="10.00">ViewWidget *, 4 &gt;</text>
</a>
</g>
</g>
<!-- Node2&#45;&gt;Node3 -->
<g id="edge1130_Node000002_Node000003" class="edge">
<title>Node2&#45;&gt;Node3</title>
<g id="a_edge1130_Node000002_Node000003"><a xlink:title=" ">
<path fill="none" stroke="#63b8ff" d="M620.36,-20.5C628.96,-20.5 637.58,-20.5 645.96,-20.5"/>
<polygon fill="#63b8ff" stroke="#63b8ff" points="620.28,-17 610.28,-20.5 620.28,-24 620.28,-17"/>
</a>
</g>
</g>
</g>
</svg>
