<?xml version="1.0" encoding="UTF-8" standalone="no"?>
<!DOCTYPE svg PUBLIC "-//W3C//DTD SVG 1.1//EN"
 "http://www.w3.org/Graphics/SVG/1.1/DTD/svg11.dtd">
<!-- Generated by graphviz version 2.43.0 (0)
 -->
<!-- Title: Graphical Class Hierarchy Pages: 1 -->
<svg width="757pt" height="49pt"
 viewBox="0.00 0.00 757.00 49.00" xmlns="http://www.w3.org/2000/svg" xmlns:xlink="http://www.w3.org/1999/xlink">
<g id="graph0" class="graph" transform="scale(1 1) rotate(0) translate(4 45)">
<title>Graphical Class Hierarchy</title>
<!-- Node0 -->
<g id="Node000000" class="node">
<title>Node0</title>
<g id="a_Node000000"><a xlink:href="da/d4c/classxii_array_base.html" target="_top" xlink:title=" ">
<polygon fill="white" stroke="#666666" points="145,-41 0,-41 0,0 145,0 145,-41"/>
<text text-anchor="start" x="8" y="-29" font-family="Helvetica,sans-Serif" font-size="10.00">xiiArrayBase&lt; FenceData,</text>
<text text-anchor="start" x="8" y="-18" font-family="Helvetica,sans-Serif" font-size="10.00"> xiiDynamicArrayBase&lt;</text>
<text text-anchor="middle" x="72.5" y="-7" font-family="Helvetica,sans-Serif" font-size="10.00"> FenceData &gt; &gt;</text>
</a>
</g>
</g>
<!-- Node1 -->
<g id="Node000001" class="node">
<title>Node1</title>
<g id="a_Node000001"><a xlink:href="d2/dea/classxii_dynamic_array_base.html" target="_top" xlink:title=" ">
<polygon fill="white" stroke="#666666" points="303,-35.5 181,-35.5 181,-5.5 303,-5.5 303,-35.5"/>
<text text-anchor="start" x="189" y="-23.5" font-family="Helvetica,sans-Serif" font-size="10.00">xiiDynamicArrayBase</text>
<text text-anchor="middle" x="242" y="-12.5" font-family="Helvetica,sans-Serif" font-size="10.00">&lt; FenceData &gt;</text>
</a>
</g>
</g>
<!-- Node0&#45;&gt;Node1 -->
<g id="edge496_Node000000_Node000001" class="edge">
<title>Node0&#45;&gt;Node1</title>
<g id="a_edge496_Node000000_Node000001"><a xlink:title=" ">
<path fill="none" stroke="#63b8ff" d="M155.13,-20.5C163.78,-20.5 172.45,-20.5 180.79,-20.5"/>
<polygon fill="#63b8ff" stroke="#63b8ff" points="155.02,-17 145.02,-20.5 155.02,-24 155.02,-17"/>
</a>
</g>
</g>
<!-- Node2 -->
<g id="Node000002" class="node">
<title>Node2</title>
<g id="a_Node000002"><a xlink:href="dc/da4/classxii_dynamic_array.html" target="_top" xlink:title=" ">
<polygon fill="white" stroke="#666666" points="503,-35.5 339,-35.5 339,-5.5 503,-5.5 503,-35.5"/>
<text text-anchor="start" x="347" y="-23.5" font-family="Helvetica,sans-Serif" font-size="10.00">xiiDynamicArray&lt; FenceData,</text>
<text text-anchor="middle" x="421" y="-12.5" font-family="Helvetica,sans-Serif" font-size="10.00"> xiiDefaultAllocatorWrapper &gt;</text>
</a>
</g>
</g>
<!-- Node1&#45;&gt;Node2 -->
<g id="edge497_Node000001_Node000002" class="edge">
<title>Node1&#45;&gt;Node2</title>
<g id="a_edge497_Node000001_Node000002"><a xlink:title=" ">
<path fill="none" stroke="#63b8ff" d="M313.47,-20.5C321.82,-20.5 330.4,-20.5 338.88,-20.5"/>
<polygon fill="#63b8ff" stroke="#63b8ff" points="313.42,-17 303.42,-20.5 313.42,-24 313.42,-17"/>
</a>
</g>
</g>
<!-- Node3 -->
<g id="Node000003" class="node">
<title>Node3</title>
<g id="a_Node000003"><a xlink:href="dc/da9/classxii_hybrid_array.html" target="_top" xlink:title=" ">
<polygon fill="white" stroke="#666666" points="749,-35.5 539,-35.5 539,-5.5 749,-5.5 749,-35.5"/>
<text text-anchor="start" x="547" y="-23.5" font-family="Helvetica,sans-Serif" font-size="10.00">xiiHybridArray&lt; FenceData,</text>
<text text-anchor="middle" x="644" y="-12.5" font-family="Helvetica,sans-Serif" font-size="10.00"> s_uiCommandAllocatorDesiredCount &gt;</text>
</a>
</g>
</g>
<!-- Node2&#45;&gt;Node3 -->
<g id="edge498_Node000002_Node000003" class="edge">
<title>Node2&#45;&gt;Node3</title>
<g id="a_edge498_Node000002_Node000003"><a xlink:title=" ">
<path fill="none" stroke="#63b8ff" d="M513.29,-20.5C521.77,-20.5 530.41,-20.5 538.99,-20.5"/>
<polygon fill="#63b8ff" stroke="#63b8ff" points="513.04,-17 503.04,-20.5 513.04,-24 513.04,-17"/>
</a>
</g>
</g>
</g>
</svg>
