<?xml version="1.0" encoding="UTF-8" standalone="no"?>
<!DOCTYPE svg PUBLIC "-//W3C//DTD SVG 1.1//EN"
 "http://www.w3.org/Graphics/SVG/1.1/DTD/svg11.dtd">
<!-- Generated by graphviz version 2.43.0 (0)
 -->
<!-- Title: Graphical Class Hierarchy Pages: 1 -->
<svg width="788pt" height="60pt"
 viewBox="0.00 0.00 788.00 60.00" xmlns="http://www.w3.org/2000/svg" xmlns:xlink="http://www.w3.org/1999/xlink">
<g id="graph0" class="graph" transform="scale(1 1) rotate(0) translate(4 56)">
<title>Graphical Class Hierarchy</title>
<!-- Node0 -->
<g id="Node000000" class="node">
<title>Node0</title>
<g id="a_Node000000"><a xlink:href="da/d4c/classxii_array_base.htm" target="_top" xlink:title=" ">
<polygon fill="white" stroke="#666666" points="203,-52 0,-52 0,0 203,0 203,-52"/>
<text text-anchor="start" x="8" y="-40" font-family="Helvetica,sans-Serif" font-size="10.00">xiiArrayBase&lt; xiiArrayPtr</text>
<text text-anchor="start" x="8" y="-29" font-family="Helvetica,sans-Serif" font-size="10.00">&lt; const ozz::math::SimdFloat4</text>
<text text-anchor="start" x="8" y="-18" font-family="Helvetica,sans-Serif" font-size="10.00"> &gt;, xiiDynamicArrayBase&lt; xiiArrayPtr</text>
<text text-anchor="middle" x="101.5" y="-7" font-family="Helvetica,sans-Serif" font-size="10.00">&lt; const ozz::math::SimdFloat4 &gt; &gt; &gt;</text>
</a>
</g>
</g>
<!-- Node1 -->
<g id="Node000001" class="node">
<title>Node1</title>
<g id="a_Node000001"><a xlink:href="d2/dea/classxii_dynamic_array_base.htm" target="_top" xlink:title=" ">
<polygon fill="white" stroke="#666666" points="391,-46.5 239,-46.5 239,-5.5 391,-5.5 391,-46.5"/>
<text text-anchor="start" x="247" y="-34.5" font-family="Helvetica,sans-Serif" font-size="10.00">xiiDynamicArrayBase</text>
<text text-anchor="start" x="247" y="-23.5" font-family="Helvetica,sans-Serif" font-size="10.00">&lt; xiiArrayPtr&lt; const</text>
<text text-anchor="middle" x="315" y="-12.5" font-family="Helvetica,sans-Serif" font-size="10.00"> ozz::math::SimdFloat4 &gt; &gt;</text>
</a>
</g>
</g>
<!-- Node0&#45;&gt;Node1 -->
<g id="edge700_Node000000_Node000001" class="edge">
<title>Node0&#45;&gt;Node1</title>
<g id="a_edge700_Node000000_Node000001"><a xlink:title=" ">
<path fill="none" stroke="#63b8ff" d="M213.45,-26C222.09,-26 230.68,-26 239,-26"/>
<polygon fill="#63b8ff" stroke="#63b8ff" points="213.29,-22.5 203.29,-26 213.29,-29.5 213.29,-22.5"/>
</a>
</g>
</g>
<!-- Node2 -->
<g id="Node000002" class="node">
<title>Node2</title>
<g id="a_Node000002"><a xlink:href="dc/da4/classxii_dynamic_array.htm" target="_top" xlink:title=" ">
<polygon fill="white" stroke="#666666" points="607,-46.5 427,-46.5 427,-5.5 607,-5.5 607,-46.5"/>
<text text-anchor="start" x="435" y="-34.5" font-family="Helvetica,sans-Serif" font-size="10.00">xiiDynamicArray&lt; xiiArray</text>
<text text-anchor="start" x="435" y="-23.5" font-family="Helvetica,sans-Serif" font-size="10.00">Ptr&lt; const ozz::math::SimdFloat4</text>
<text text-anchor="middle" x="517" y="-12.5" font-family="Helvetica,sans-Serif" font-size="10.00"> &gt;, xiiDefaultAllocatorWrapper &gt;</text>
</a>
</g>
</g>
<!-- Node1&#45;&gt;Node2 -->
<g id="edge701_Node000001_Node000002" class="edge">
<title>Node1&#45;&gt;Node2</title>
<g id="a_edge701_Node000001_Node000002"><a xlink:title=" ">
<path fill="none" stroke="#63b8ff" d="M401.24,-26C409.67,-26 418.24,-26 426.72,-26"/>
<polygon fill="#63b8ff" stroke="#63b8ff" points="401.04,-22.5 391.04,-26 401.04,-29.5 401.04,-22.5"/>
</a>
</g>
</g>
<!-- Node3 -->
<g id="Node000003" class="node">
<title>Node3</title>
<g id="a_Node000003"><a xlink:href="dc/da9/classxii_hybrid_array.htm" target="_top" xlink:title=" ">
<polygon fill="white" stroke="#666666" points="780,-46.5 643,-46.5 643,-5.5 780,-5.5 780,-46.5"/>
<text text-anchor="start" x="651" y="-34.5" font-family="Helvetica,sans-Serif" font-size="10.00">xiiHybridArray&lt; xiiArray</text>
<text text-anchor="start" x="651" y="-23.5" font-family="Helvetica,sans-Serif" font-size="10.00">Ptr&lt; const ozz::math::</text>
<text text-anchor="middle" x="711.5" y="-12.5" font-family="Helvetica,sans-Serif" font-size="10.00">SimdFloat4 &gt;, 4 &gt;</text>
</a>
</g>
</g>
<!-- Node2&#45;&gt;Node3 -->
<g id="edge702_Node000002_Node000003" class="edge">
<title>Node2&#45;&gt;Node3</title>
<g id="a_edge702_Node000002_Node000003"><a xlink:title=" ">
<path fill="none" stroke="#63b8ff" d="M617.35,-26C625.99,-26 634.6,-26 642.89,-26"/>
<polygon fill="#63b8ff" stroke="#63b8ff" points="617.21,-22.5 607.21,-26 617.21,-29.5 617.21,-22.5"/>
</a>
</g>
</g>
</g>
</svg>
