<?xml version="1.0" encoding="UTF-8" standalone="no"?>
<!DOCTYPE svg PUBLIC "-//W3C//DTD SVG 1.1//EN"
 "http://www.w3.org/Graphics/SVG/1.1/DTD/svg11.dtd">
<!-- Generated by graphviz version 2.43.0 (0)
 -->
<!-- Title: Graphical Class Hierarchy Pages: 1 -->
<svg width="631pt" height="180pt"
 viewBox="0.00 0.00 631.00 180.00" xmlns="http://www.w3.org/2000/svg" xmlns:xlink="http://www.w3.org/1999/xlink">
<g id="graph0" class="graph" transform="scale(1 1) rotate(0) translate(4 176)">
<title>Graphical Class Hierarchy</title>
<polygon fill="white" stroke="transparent" points="-4,4 -4,-176 627,-176 627,4 -4,4"/>
<!-- Node367 -->
<g id="node1" class="node">
<title>Node367</title>
<g id="a_node1"><a xlink:title=" ">
<polygon fill="white" stroke="#bfbfbf" points="0,-76.5 0,-95.5 117,-95.5 117,-76.5 0,-76.5"/>
<text text-anchor="middle" x="58.5" y="-83.5" font-family="Helvetica,sans-Serif" font-size="10.00">QAbstractItemModel</text>
</a>
</g>
</g>
<!-- Node0 -->
<g id="node2" class="node">
<title>Node0</title>
<g id="a_node2"><a xlink:href="d1/db4/classxii_qt_asset_browser_model.htm" target="_top" xlink:title="Model of the item view in the asset browser.">
<polygon fill="white" stroke="black" points="154.5,-152.5 154.5,-171.5 291.5,-171.5 291.5,-152.5 154.5,-152.5"/>
<text text-anchor="middle" x="223" y="-159.5" font-family="Helvetica,sans-Serif" font-size="10.00">xiiQtAssetBrowserModel</text>
</a>
</g>
</g>
<!-- Node367&#45;&gt;Node0 -->
<g id="edge1" class="edge">
<title>Node367&#45;&gt;Node0</title>
<path fill="none" stroke="midnightblue" d="M80.71,-101.31C99.08,-113.97 126.76,-131.65 153,-143 161.55,-146.7 171.02,-149.86 180.12,-152.48"/>
<polygon fill="midnightblue" stroke="midnightblue" points="82.68,-98.42 72.49,-95.54 78.67,-104.15 82.68,-98.42"/>
</g>
<!-- Node369 -->
<g id="node3" class="node">
<title>Node369</title>
<g id="a_node3"><a xlink:href="d1/d81/classxii_qt_c_var_model.htm" target="_top" xlink:title=" ">
<polygon fill="white" stroke="black" points="177,-114.5 177,-133.5 269,-133.5 269,-114.5 177,-114.5"/>
<text text-anchor="middle" x="223" y="-121.5" font-family="Helvetica,sans-Serif" font-size="10.00">xiiQtCVarModel</text>
</a>
</g>
</g>
<!-- Node367&#45;&gt;Node369 -->
<g id="edge2" class="edge">
<title>Node367&#45;&gt;Node369</title>
<path fill="none" stroke="midnightblue" d="M110.37,-97.9C133.21,-103.24 159.8,-109.45 181.29,-114.48"/>
<polygon fill="midnightblue" stroke="midnightblue" points="111.04,-94.46 100.51,-95.59 109.45,-101.27 111.04,-94.46"/>
</g>
<!-- Node370 -->
<g id="node4" class="node">
<title>Node370</title>
<g id="a_node4"><a xlink:href="d4/dfe/classxii_qt_document_tree_model.htm" target="_top" xlink:title="Model that maps a document to a qt tree model.">
<polygon fill="white" stroke="black" points="153,-76.5 153,-95.5 293,-95.5 293,-76.5 153,-76.5"/>
<text text-anchor="middle" x="223" y="-83.5" font-family="Helvetica,sans-Serif" font-size="10.00">xiiQtDocumentTreeModel</text>
</a>
</g>
</g>
<!-- Node367&#45;&gt;Node370 -->
<g id="edge3" class="edge">
<title>Node367&#45;&gt;Node370</title>
<path fill="none" stroke="midnightblue" d="M127.36,-86C135.76,-86 144.34,-86 152.76,-86"/>
<polygon fill="midnightblue" stroke="midnightblue" points="127.25,-82.5 117.25,-86 127.25,-89.5 127.25,-82.5"/>
</g>
<!-- Node374 -->
<g id="node8" class="node">
<title>Node374</title>
<g id="a_node8"><a xlink:href="d6/da0/classxii_qt_log_model.htm" target="_top" xlink:title="The Qt model that represents log output for a view.">
<polygon fill="white" stroke="black" points="179.5,-38.5 179.5,-57.5 266.5,-57.5 266.5,-38.5 179.5,-38.5"/>
<text text-anchor="middle" x="223" y="-45.5" font-family="Helvetica,sans-Serif" font-size="10.00">xiiQtLogModel</text>
</a>
</g>
</g>
<!-- Node367&#45;&gt;Node374 -->
<g id="edge7" class="edge">
<title>Node367&#45;&gt;Node374</title>
<path fill="none" stroke="midnightblue" d="M110.37,-74.1C133.21,-68.76 159.8,-62.55 181.29,-57.52"/>
<polygon fill="midnightblue" stroke="midnightblue" points="109.45,-70.73 100.51,-76.41 111.04,-77.54 109.45,-70.73"/>
</g>
<!-- Node375 -->
<g id="node9" class="node">
<title>Node375</title>
<g id="a_node9"><a xlink:href="d9/d91/classxii_qt_property_anim_model.htm" target="_top" xlink:title=" ">
<polygon fill="white" stroke="black" points="154.5,-0.5 154.5,-19.5 291.5,-19.5 291.5,-0.5 154.5,-0.5"/>
<text text-anchor="middle" x="223" y="-7.5" font-family="Helvetica,sans-Serif" font-size="10.00">xiiQtPropertyAnimModel</text>
</a>
</g>
</g>
<!-- Node367&#45;&gt;Node375 -->
<g id="edge8" class="edge">
<title>Node367&#45;&gt;Node375</title>
<path fill="none" stroke="midnightblue" d="M80.71,-70.69C99.08,-58.03 126.76,-40.35 153,-29 161.55,-25.3 171.02,-22.14 180.12,-19.52"/>
<polygon fill="midnightblue" stroke="midnightblue" points="78.67,-67.85 72.49,-76.46 82.68,-73.58 78.67,-67.85"/>
</g>
<!-- Node371 -->
<g id="node5" class="node">
<title>Node371</title>
<g id="a_node5"><a xlink:href="d6/d0a/classxii_qt_game_object_model.htm" target="_top" xlink:title=" ">
<polygon fill="white" stroke="black" points="329,-95.5 329,-114.5 460,-114.5 460,-95.5 329,-95.5"/>
<text text-anchor="middle" x="394.5" y="-102.5" font-family="Helvetica,sans-Serif" font-size="10.00">xiiQtGameObjectModel</text>
</a>
</g>
</g>
<!-- Node370&#45;&gt;Node371 -->
<g id="edge4" class="edge">
<title>Node370&#45;&gt;Node371</title>
<path fill="none" stroke="midnightblue" d="M303.38,-94.9C311.9,-95.85 320.49,-96.82 328.81,-97.75"/>
<polygon fill="midnightblue" stroke="midnightblue" points="303.76,-91.42 293.43,-93.78 302.98,-98.38 303.76,-91.42"/>
</g>
<!-- Node373 -->
<g id="node7" class="node">
<title>Node373</title>
<g id="a_node7"><a xlink:href="d1/d7c/classxii_qt_layer_model.htm" target="_top" xlink:title="Custom model for layers, used in xiiQtLayerPanel.">
<polygon fill="white" stroke="black" points="346,-57.5 346,-76.5 443,-76.5 443,-57.5 346,-57.5"/>
<text text-anchor="middle" x="394.5" y="-64.5" font-family="Helvetica,sans-Serif" font-size="10.00">xiiQtLayerModel</text>
</a>
</g>
</g>
<!-- Node370&#45;&gt;Node373 -->
<g id="edge6" class="edge">
<title>Node370&#45;&gt;Node373</title>
<path fill="none" stroke="midnightblue" d="M303.43,-77.1C317.96,-75.47 332.69,-73.82 345.92,-72.33"/>
<polygon fill="midnightblue" stroke="midnightblue" points="302.98,-73.62 293.43,-78.22 303.76,-80.58 302.98,-73.62"/>
</g>
<!-- Node372 -->
<g id="node6" class="node">
<title>Node372</title>
<g id="a_node6"><a xlink:href="da/d15/classxii_qt_scenegraph_model.htm" target="_top" xlink:title=" ">
<polygon fill="white" stroke="black" points="496,-95.5 496,-114.5 623,-114.5 623,-95.5 496,-95.5"/>
<text text-anchor="middle" x="559.5" y="-102.5" font-family="Helvetica,sans-Serif" font-size="10.00">xiiQtScenegraphModel</text>
</a>
</g>
</g>
<!-- Node371&#45;&gt;Node372 -->
<g id="edge5" class="edge">
<title>Node371&#45;&gt;Node372</title>
<path fill="none" stroke="midnightblue" d="M470.65,-105C479.12,-105 487.67,-105 495.96,-105"/>
<polygon fill="midnightblue" stroke="midnightblue" points="470.39,-101.5 460.39,-105 470.39,-108.5 470.39,-101.5"/>
</g>
</g>
</svg>
