<?xml version="1.0" encoding="UTF-8" standalone="no"?>
<!DOCTYPE svg PUBLIC "-//W3C//DTD SVG 1.1//EN"
 "http://www.w3.org/Graphics/SVG/1.1/DTD/svg11.dtd">
<!-- Generated by graphviz version 2.43.0 (0)
 -->
<!-- Title: Graphical Class Hierarchy Pages: 1 -->
<svg width="347pt" height="309pt"
 viewBox="0.00 0.00 347.00 309.00" xmlns="http://www.w3.org/2000/svg" xmlns:xlink="http://www.w3.org/1999/xlink">
<g id="graph0" class="graph" transform="scale(1 1) rotate(0) translate(4 305)">
<title>Graphical Class Hierarchy</title>
<!-- Node0 -->
<g id="Node000000" class="node">
<title>Node0</title>
<g id="a_Node000000"><a xlink:href="d5/d45/classxii_manipulator_adapter.htm" target="_top" xlink:title=" ">
<polygon fill="white" stroke="#666666" points="125,-168 0,-168 0,-149 125,-149 125,-168"/>
<text text-anchor="middle" x="62.5" y="-156" font-family="Helvetica,sans-Serif" font-size="10.00">xiiManipulatorAdapter</text>
</a>
</g>
</g>
<!-- Node1 -->
<g id="Node000001" class="node">
<title>Node1</title>
<g id="a_Node000001"><a xlink:href="d6/d00/classxii_bone_manipulator_adapter.htm" target="_top" xlink:title="Makes an array of xiiExposedBone properties editable in the viewport.">
<polygon fill="white" stroke="#666666" points="325,-301 175,-301 175,-282 325,-282 325,-301"/>
<text text-anchor="middle" x="250" y="-289" font-family="Helvetica,sans-Serif" font-size="10.00">xiiBoneManipulatorAdapter</text>
</a>
</g>
</g>
<!-- Node0&#45;&gt;Node1 -->
<g id="edge2014_Node000000_Node000001" class="edge">
<title>Node0&#45;&gt;Node1</title>
<g id="a_edge2014_Node000000_Node000001"><a xlink:title=" ">
<path fill="none" stroke="#63b8ff" d="M73.68,-176.92C89.04,-202.85 120.66,-249.61 161,-273.5 166.77,-276.92 173.08,-279.69 179.6,-281.95"/>
<polygon fill="#63b8ff" stroke="#63b8ff" points="76.63,-175.02 68.61,-168.1 70.56,-178.51 76.63,-175.02"/>
</a>
</g>
</g>
<!-- Node2 -->
<g id="Node000002" class="node">
<title>Node2</title>
<g id="a_Node000002"><a xlink:href="d5/d2a/classxii_box_manipulator_adapter.htm" target="_top" xlink:title=" ">
<polygon fill="white" stroke="#666666" points="322,-264 178,-264 178,-245 322,-245 322,-264"/>
<text text-anchor="middle" x="250" y="-252" font-family="Helvetica,sans-Serif" font-size="10.00">xiiBoxManipulatorAdapter</text>
</a>
</g>
</g>
<!-- Node0&#45;&gt;Node2 -->
<g id="edge2015_Node000000_Node000002" class="edge">
<title>Node0&#45;&gt;Node2</title>
<g id="a_edge2015_Node000000_Node000002"><a xlink:title=" ">
<path fill="none" stroke="#63b8ff" d="M79.79,-175.67C97.89,-193.68 128.83,-221.42 161,-236.5 168.34,-239.94 176.33,-242.73 184.41,-244.98"/>
<polygon fill="#63b8ff" stroke="#63b8ff" points="81.92,-172.84 72.42,-168.16 76.92,-177.75 81.92,-172.84"/>
</a>
</g>
</g>
<!-- Node3 -->
<g id="Node000003" class="node">
<title>Node3</title>
<g id="a_Node000003"><a xlink:href="d3/df6/classxii_capsule_manipulator_adapter.htm" target="_top" xlink:title=" ">
<polygon fill="white" stroke="#666666" points="332,-227 168,-227 168,-208 332,-208 332,-227"/>
<text text-anchor="middle" x="250" y="-215" font-family="Helvetica,sans-Serif" font-size="10.00">xiiCapsuleManipulatorAdapter</text>
</a>
</g>
</g>
<!-- Node0&#45;&gt;Node3 -->
<g id="edge2016_Node000000_Node000003" class="edge">
<title>Node0&#45;&gt;Node3</title>
<g id="a_edge2016_Node000000_Node000003"><a xlink:title=" ">
<path fill="none" stroke="#63b8ff" d="M92.31,-172.38C111.44,-181.15 137.29,-192.17 161,-199.5 171.43,-202.72 182.73,-205.53 193.66,-207.91"/>
<polygon fill="#63b8ff" stroke="#63b8ff" points="93.78,-169.2 83.24,-168.16 90.83,-175.55 93.78,-169.2"/>
</a>
</g>
</g>
<!-- Node4 -->
<g id="Node000004" class="node">
<title>Node4</title>
<g id="a_Node000004"><a xlink:href="da/d79/classxii_cone_angle_manipulator_adapter.htm" target="_top" xlink:title=" ">
<polygon fill="white" stroke="#666666" points="339,-190 161,-190 161,-171 339,-171 339,-190"/>
<text text-anchor="middle" x="250" y="-178" font-family="Helvetica,sans-Serif" font-size="10.00">xiiConeAngleManipulatorAdapter</text>
</a>
</g>
</g>
<!-- Node0&#45;&gt;Node4 -->
<g id="edge2017_Node000000_Node000004" class="edge">
<title>Node0&#45;&gt;Node4</title>
<g id="a_edge2017_Node000000_Node000004"><a xlink:title=" ">
<path fill="none" stroke="#63b8ff" d="M135.03,-166.98C146.1,-168.3 157.58,-169.66 168.82,-170.99"/>
<polygon fill="#63b8ff" stroke="#63b8ff" points="135.35,-163.5 125.01,-165.8 134.53,-170.45 135.35,-163.5"/>
</a>
</g>
</g>
<!-- Node5 -->
<g id="Node000005" class="node">
<title>Node5</title>
<g id="a_Node000005"><a xlink:href="de/da9/classxii_cone_length_manipulator_adapter.htm" target="_top" xlink:title=" ">
<polygon fill="white" stroke="#666666" points="322.5,-152.5 177.5,-152.5 177.5,-122.5 322.5,-122.5 322.5,-152.5"/>
<text text-anchor="start" x="185.5" y="-140.5" font-family="Helvetica,sans-Serif" font-size="10.00">xiiConeLengthManipulator</text>
<text text-anchor="middle" x="250" y="-129.5" font-family="Helvetica,sans-Serif" font-size="10.00">Adapter</text>
</a>
</g>
</g>
<!-- Node0&#45;&gt;Node5 -->
<g id="edge2018_Node000000_Node000005" class="edge">
<title>Node0&#45;&gt;Node5</title>
<g id="a_edge2018_Node000000_Node000005"><a xlink:title=" ">
<path fill="none" stroke="#63b8ff" d="M134.99,-150.41C148.89,-148.83 163.47,-147.18 177.37,-145.61"/>
<polygon fill="#63b8ff" stroke="#63b8ff" points="134.55,-146.93 125.01,-151.54 135.34,-153.89 134.55,-146.93"/>
</a>
</g>
</g>
<!-- Node6 -->
<g id="Node000006" class="node">
<title>Node6</title>
<g id="a_Node000006"><a xlink:href="d9/d14/classxii_non_uniform_box_manipulator_adapter.htm" target="_top" xlink:title=" ">
<polygon fill="white" stroke="#666666" points="332.5,-104.5 167.5,-104.5 167.5,-74.5 332.5,-74.5 332.5,-104.5"/>
<text text-anchor="start" x="175.5" y="-92.5" font-family="Helvetica,sans-Serif" font-size="10.00">xiiNonUniformBoxManipulator</text>
<text text-anchor="middle" x="250" y="-81.5" font-family="Helvetica,sans-Serif" font-size="10.00">Adapter</text>
</a>
</g>
</g>
<!-- Node0&#45;&gt;Node6 -->
<g id="edge2019_Node000000_Node000006" class="edge">
<title>Node0&#45;&gt;Node6</title>
<g id="a_edge2019_Node000000_Node000006"><a xlink:title=" ">
<path fill="none" stroke="#63b8ff" d="M90.9,-144.37C110.16,-134.8 136.72,-122.34 161,-113.5 169.78,-110.3 179.19,-107.3 188.46,-104.58"/>
<polygon fill="#63b8ff" stroke="#63b8ff" points="89.17,-141.32 81.8,-148.94 92.31,-147.57 89.17,-141.32"/>
</a>
</g>
</g>
<!-- Node7 -->
<g id="Node000007" class="node">
<title>Node7</title>
<g id="a_Node000007"><a xlink:href="d9/d4f/classxii_sphere_manipulator_adapter.htm" target="_top" xlink:title=" ">
<polygon fill="white" stroke="#666666" points="329.5,-56 170.5,-56 170.5,-37 329.5,-37 329.5,-56"/>
<text text-anchor="middle" x="250" y="-44" font-family="Helvetica,sans-Serif" font-size="10.00">xiiSphereManipulatorAdapter</text>
</a>
</g>
</g>
<!-- Node0&#45;&gt;Node7 -->
<g id="edge2020_Node000000_Node000007" class="edge">
<title>Node0&#45;&gt;Node7</title>
<g id="a_edge2020_Node000000_Node000007"><a xlink:title=" ">
<path fill="none" stroke="#63b8ff" d="M76.8,-140.89C93.88,-119.59 125.57,-84.27 161,-65.5 168.32,-61.62 176.38,-58.54 184.56,-56.08"/>
<polygon fill="#63b8ff" stroke="#63b8ff" points="74.01,-138.78 70.6,-148.81 79.52,-143.09 74.01,-138.78"/>
</a>
</g>
</g>
<!-- Node8 -->
<g id="Node000008" class="node">
<title>Node8</title>
<g id="a_Node000008"><a xlink:href="db/dde/classxii_transform_manipulator_adapter.htm" target="_top" xlink:title=" ">
<polygon fill="white" stroke="#666666" points="337,-19 163,-19 163,0 337,0 337,-19"/>
<text text-anchor="middle" x="250" y="-7" font-family="Helvetica,sans-Serif" font-size="10.00">xiiTransformManipulatorAdapter</text>
</a>
</g>
</g>
<!-- Node0&#45;&gt;Node8 -->
<g id="edge2021_Node000000_Node000008" class="edge">
<title>Node0&#45;&gt;Node8</title>
<g id="a_edge2021_Node000000_Node000008"><a xlink:title=" ">
<path fill="none" stroke="#63b8ff" d="M72.26,-139.41C86.53,-110.57 117.63,-56.29 161,-28.5 167.05,-24.62 173.77,-21.52 180.72,-19.05"/>
<polygon fill="#63b8ff" stroke="#63b8ff" points="68.93,-138.26 67.77,-148.79 75.24,-141.28 68.93,-138.26"/>
</a>
</g>
</g>
</g>
</svg>
