<?xml version="1.0" encoding="UTF-8" standalone="no"?>
<!DOCTYPE svg PUBLIC "-//W3C//DTD SVG 1.1//EN"
 "http://www.w3.org/Graphics/SVG/1.1/DTD/svg11.dtd">
<!-- Generated by graphviz version 2.43.0 (0)
 -->
<!-- Title: Graphical Class Hierarchy Pages: 1 -->
<svg width="785pt" height="86pt"
 viewBox="0.00 0.00 785.00 86.00" xmlns="http://www.w3.org/2000/svg" xmlns:xlink="http://www.w3.org/1999/xlink">
<g id="graph0" class="graph" transform="scale(1 1) rotate(0) translate(4 82)">
<title>Graphical Class Hierarchy</title>
<!-- Node0 -->
<g id="Node000000" class="node">
<title>Node0</title>
<g id="a_Node000000"><a xlink:href="da/d4c/classxii_array_base.html" target="_top" xlink:title=" ">
<polygon fill="white" stroke="#666666" points="163,-59.5 0,-59.5 0,-18.5 163,-18.5 163,-59.5"/>
<text text-anchor="start" x="8" y="-47.5" font-family="Helvetica,sans-Serif" font-size="10.00">xiiArrayBase&lt; xiiGALTexture</text>
<text text-anchor="start" x="8" y="-36.5" font-family="Helvetica,sans-Serif" font-size="10.00">Handle, xiiDynamicArrayBase</text>
<text text-anchor="middle" x="81.5" y="-25.5" font-family="Helvetica,sans-Serif" font-size="10.00">&lt; xiiGALTextureHandle &gt; &gt;</text>
</a>
</g>
</g>
<!-- Node1 -->
<g id="Node000001" class="node">
<title>Node1</title>
<g id="a_Node000001"><a xlink:href="d2/dea/classxii_dynamic_array_base.html" target="_top" xlink:title=" ">
<polygon fill="white" stroke="#666666" points="339,-54 199,-54 199,-24 339,-24 339,-54"/>
<text text-anchor="start" x="207" y="-42" font-family="Helvetica,sans-Serif" font-size="10.00">xiiDynamicArrayBase</text>
<text text-anchor="middle" x="269" y="-31" font-family="Helvetica,sans-Serif" font-size="10.00">&lt; xiiGALTextureHandle &gt;</text>
</a>
</g>
</g>
<!-- Node0&#45;&gt;Node1 -->
<g id="edge961_Node000000_Node000001" class="edge">
<title>Node0&#45;&gt;Node1</title>
<g id="a_edge961_Node000000_Node000001"><a xlink:title=" ">
<path fill="none" stroke="#63b8ff" d="M173.17,-39C181.8,-39 190.47,-39 198.85,-39"/>
<polygon fill="#63b8ff" stroke="#63b8ff" points="173.05,-35.5 163.05,-39 173.05,-42.5 173.05,-35.5"/>
</a>
</g>
</g>
<!-- Node2 -->
<g id="Node000002" class="node">
<title>Node2</title>
<g id="a_Node000002"><a xlink:href="dc/da4/classxii_dynamic_array.html" target="_top" xlink:title=" ">
<polygon fill="white" stroke="#666666" points="576,-78 375,-78 375,-48 576,-48 576,-78"/>
<text text-anchor="start" x="383" y="-66" font-family="Helvetica,sans-Serif" font-size="10.00">xiiDynamicArray&lt; xiiGALTexture</text>
<text text-anchor="middle" x="475.5" y="-55" font-family="Helvetica,sans-Serif" font-size="10.00">Handle, xiiDefaultAllocatorWrapper &gt;</text>
</a>
</g>
</g>
<!-- Node1&#45;&gt;Node2 -->
<g id="edge962_Node000001_Node000002" class="edge">
<title>Node1&#45;&gt;Node2</title>
<g id="a_edge962_Node000001_Node000002"><a xlink:title=" ">
<path fill="none" stroke="#63b8ff" d="M349.32,-48.31C357.69,-49.29 366.28,-50.3 374.84,-51.3"/>
<polygon fill="#63b8ff" stroke="#63b8ff" points="349.57,-44.81 339.23,-47.13 348.76,-51.77 349.57,-44.81"/>
</a>
</g>
</g>
<!-- Node4 -->
<g id="Node000004" class="node">
<title>Node4</title>
<g id="a_Node000004"><a xlink:href="dc/da4/classxii_dynamic_array.html" target="_top" xlink:title=" ">
<polygon fill="white" stroke="#666666" points="563.5,-30 387.5,-30 387.5,0 563.5,0 563.5,-30"/>
<text text-anchor="start" x="395.5" y="-18" font-family="Helvetica,sans-Serif" font-size="10.00">xiiDynamicArray&lt; xiiGALTexture</text>
<text text-anchor="middle" x="475.5" y="-7" font-family="Helvetica,sans-Serif" font-size="10.00">Handle &gt;</text>
</a>
</g>
</g>
<!-- Node1&#45;&gt;Node4 -->
<g id="edge964_Node000001_Node000004" class="edge">
<title>Node1&#45;&gt;Node4</title>
<g id="a_edge964_Node000001_Node000004"><a xlink:title=" ">
<path fill="none" stroke="#63b8ff" d="M349.49,-29.67C361.85,-28.22 374.68,-26.71 387.21,-25.24"/>
<polygon fill="#63b8ff" stroke="#63b8ff" points="348.76,-26.23 339.23,-30.87 349.57,-33.19 348.76,-26.23"/>
</a>
</g>
</g>
<!-- Node3 -->
<g id="Node000003" class="node">
<title>Node3</title>
<g id="a_Node000003"><a xlink:href="dc/da9/classxii_hybrid_array.html" target="_top" xlink:title=" ">
<polygon fill="white" stroke="#666666" points="777,-78 612,-78 612,-48 777,-48 777,-78"/>
<text text-anchor="start" x="620" y="-66" font-family="Helvetica,sans-Serif" font-size="10.00">xiiHybridArray&lt; xiiGALTexture</text>
<text text-anchor="middle" x="694.5" y="-55" font-family="Helvetica,sans-Serif" font-size="10.00">Handle, 2U &gt;</text>
</a>
</g>
</g>
<!-- Node2&#45;&gt;Node3 -->
<g id="edge963_Node000002_Node000003" class="edge">
<title>Node2&#45;&gt;Node3</title>
<g id="a_edge963_Node000002_Node000003"><a xlink:title=" ">
<path fill="none" stroke="#63b8ff" d="M586.19,-63C594.78,-63 603.37,-63 611.72,-63"/>
<polygon fill="#63b8ff" stroke="#63b8ff" points="586.11,-59.5 576.11,-63 586.11,-66.5 586.11,-59.5"/>
</a>
</g>
</g>
</g>
</svg>
