<?xml version="1.0" encoding="UTF-8" standalone="no"?>
<!DOCTYPE svg PUBLIC "-//W3C//DTD SVG 1.1//EN"
 "http://www.w3.org/Graphics/SVG/1.1/DTD/svg11.dtd">
<!-- Generated by graphviz version 2.43.0 (0)
 -->
<!-- Title: Graphical Class Hierarchy Pages: 1 -->
<svg width="355pt" height="142pt"
 viewBox="0.00 0.00 355.00 142.00" xmlns="http://www.w3.org/2000/svg" xmlns:xlink="http://www.w3.org/1999/xlink">
<g id="graph0" class="graph" transform="scale(1 1) rotate(0) translate(4 138)">
<title>Graphical Class Hierarchy</title>
<polygon fill="white" stroke="transparent" points="-4,4 -4,-138 351,-138 351,4 -4,4"/>
<!-- Node0 -->
<g id="node1" class="node">
<title>Node0</title>
<g id="a_node1"><a xlink:href="d6/db1/classxii_o_s_thread.htm" target="_top" xlink:title="Implementation of a thread.">
<polygon fill="white" stroke="black" points="0,-57.5 0,-76.5 76,-76.5 76,-57.5 0,-57.5"/>
<text text-anchor="middle" x="38" y="-64.5" font-family="Helvetica,sans-Serif" font-size="10.00">xiiOSThread</text>
</a>
</g>
</g>
<!-- Node1 -->
<g id="node2" class="node">
<title>Node1</title>
<g id="a_node2"><a xlink:href="d8/d8c/classxii_thread.htm" target="_top" xlink:title="This class is the base class for platform independent long running threads.">
<polygon fill="white" stroke="black" points="112,-57.5 112,-76.5 174,-76.5 174,-57.5 112,-57.5"/>
<text text-anchor="middle" x="143" y="-64.5" font-family="Helvetica,sans-Serif" font-size="10.00">xiiThread</text>
</a>
</g>
</g>
<!-- Node0&#45;&gt;Node1 -->
<g id="edge1" class="edge">
<title>Node0&#45;&gt;Node1</title>
<path fill="none" stroke="midnightblue" d="M86.3,-67C95.03,-67 103.92,-67 111.97,-67"/>
<polygon fill="midnightblue" stroke="midnightblue" points="86.19,-63.5 76.19,-67 86.19,-70.5 86.19,-63.5"/>
</g>
<!-- Node2 -->
<g id="node3" class="node">
<title>Node2</title>
<g id="a_node3"><a xlink:href="d7/de3/classxii_process_thread.htm" target="_top" xlink:title=" ">
<polygon fill="white" stroke="black" points="228.5,-114.5 228.5,-133.5 328.5,-133.5 328.5,-114.5 228.5,-114.5"/>
<text text-anchor="middle" x="278.5" y="-121.5" font-family="Helvetica,sans-Serif" font-size="10.00">xiiProcessThread</text>
</a>
</g>
</g>
<!-- Node1&#45;&gt;Node2 -->
<g id="edge2" class="edge">
<title>Node1&#45;&gt;Node2</title>
<path fill="none" stroke="midnightblue" d="M166.88,-82.06C179.26,-89.71 195.05,-98.71 210,-105 218.64,-108.64 228.19,-111.8 237.32,-114.46"/>
<polygon fill="midnightblue" stroke="midnightblue" points="168.47,-78.92 158.15,-76.53 164.72,-84.83 168.47,-78.92"/>
</g>
<!-- Node3 -->
<g id="node4" class="node">
<title>Node3</title>
<g id="a_node4"><a xlink:href="d1/d49/classxii_remote_thread.htm" target="_top" xlink:title="The remote interface thread updates in regular intervals to keep the connection alive.">
<polygon fill="white" stroke="black" points="228,-76.5 228,-95.5 329,-95.5 329,-76.5 228,-76.5"/>
<text text-anchor="middle" x="278.5" y="-83.5" font-family="Helvetica,sans-Serif" font-size="10.00">xiiRemoteThread</text>
</a>
</g>
</g>
<!-- Node1&#45;&gt;Node3 -->
<g id="edge3" class="edge">
<title>Node1&#45;&gt;Node3</title>
<path fill="none" stroke="midnightblue" d="M184.39,-72.75C198.11,-74.7 213.6,-76.91 227.95,-78.95"/>
<polygon fill="midnightblue" stroke="midnightblue" points="184.69,-69.26 174.29,-71.31 183.7,-76.19 184.69,-69.26"/>
</g>
<!-- Node4 -->
<g id="node5" class="node">
<title>Node4</title>
<g id="a_node5"><a xlink:href="d9/d85/classxii_task_worker_thread.htm" target="_top" xlink:title=" ">
<polygon fill="white" stroke="black" points="219.5,-38.5 219.5,-57.5 337.5,-57.5 337.5,-38.5 219.5,-38.5"/>
<text text-anchor="middle" x="278.5" y="-45.5" font-family="Helvetica,sans-Serif" font-size="10.00">xiiTaskWorkerThread</text>
</a>
</g>
</g>
<!-- Node1&#45;&gt;Node4 -->
<g id="edge4" class="edge">
<title>Node1&#45;&gt;Node4</title>
<path fill="none" stroke="midnightblue" d="M184.47,-61.24C195.49,-59.67 207.66,-57.94 219.45,-56.26"/>
<polygon fill="midnightblue" stroke="midnightblue" points="183.7,-57.81 174.29,-62.69 184.69,-64.74 183.7,-57.81"/>
</g>
<!-- Node5 -->
<g id="node6" class="node">
<title>Node5</title>
<g id="a_node6"><a xlink:href="de/d20/classxii_thread_with_dispatcher.htm" target="_top" xlink:title="This class is the base class for threads which need dispatching of calls.">
<polygon fill="white" stroke="black" points="210,-0.5 210,-19.5 347,-19.5 347,-0.5 210,-0.5"/>
<text text-anchor="middle" x="278.5" y="-7.5" font-family="Helvetica,sans-Serif" font-size="10.00">xiiThreadWithDispatcher</text>
</a>
</g>
</g>
<!-- Node1&#45;&gt;Node5 -->
<g id="edge5" class="edge">
<title>Node1&#45;&gt;Node5</title>
<path fill="none" stroke="midnightblue" d="M166.88,-51.94C179.26,-44.29 195.05,-35.29 210,-29 218.64,-25.36 228.19,-22.2 237.32,-19.54"/>
<polygon fill="midnightblue" stroke="midnightblue" points="164.72,-49.17 158.15,-57.47 168.47,-55.08 164.72,-49.17"/>
</g>
</g>
</svg>
