<?xml version="1.0" encoding="UTF-8" standalone="no"?>
<!DOCTYPE svg PUBLIC "-//W3C//DTD SVG 1.1//EN"
 "http://www.w3.org/Graphics/SVG/1.1/DTD/svg11.dtd">
<!-- Generated by graphviz version 2.43.0 (0)
 -->
<!-- Title: Graphical Class Hierarchy Pages: 1 -->
<svg width="452pt" height="61pt"
 viewBox="0.00 0.00 452.00 61.00" xmlns="http://www.w3.org/2000/svg" xmlns:xlink="http://www.w3.org/1999/xlink">
<g id="graph0" class="graph" transform="scale(1 1) rotate(0) translate(4 57)">
<title>Graphical Class Hierarchy</title>
<polygon fill="white" stroke="transparent" points="-4,4 -4,-57 448,-57 448,4 -4,4"/>
<!-- Node0 -->
<g id="node1" class="node">
<title>Node0</title>
<g id="a_node1"><a xlink:href="da/d4c/classxii_array_base.htm" target="_top" xlink:title=" ">
<polygon fill="white" stroke="black" points="0,-0.5 0,-52.5 225,-52.5 225,-0.5 0,-0.5"/>
<text text-anchor="start" x="8" y="-40.5" font-family="Helvetica,sans-Serif" font-size="10.00">xiiArrayBase&lt; xiiGALAttachment</text>
<text text-anchor="start" x="8" y="-29.5" font-family="Helvetica,sans-Serif" font-size="10.00">ReferenceDescription, xiiStaticArray</text>
<text text-anchor="start" x="8" y="-18.5" font-family="Helvetica,sans-Serif" font-size="10.00">&lt; xiiGALAttachmentReferenceDescription,</text>
<text text-anchor="middle" x="112.5" y="-7.5" font-family="Helvetica,sans-Serif" font-size="10.00"> Capacity &gt; &gt;</text>
</a>
</g>
</g>
<!-- Node1 -->
<g id="node2" class="node">
<title>Node1</title>
<g id="a_node2"><a xlink:href="d9/d25/classxii_static_array.htm" target="_top" xlink:title=" ">
<polygon fill="white" stroke="black" points="261,-11.5 261,-41.5 444,-41.5 444,-11.5 261,-11.5"/>
<text text-anchor="start" x="269" y="-29.5" font-family="Helvetica,sans-Serif" font-size="10.00">xiiStaticArray&lt; xiiGALAttachment</text>
<text text-anchor="middle" x="352.5" y="-18.5" font-family="Helvetica,sans-Serif" font-size="10.00">ReferenceDescription, 1U &gt;</text>
</a>
</g>
</g>
<!-- Node0&#45;&gt;Node1 -->
<g id="edge1" class="edge">
<title>Node0&#45;&gt;Node1</title>
<path fill="none" stroke="midnightblue" d="M235.28,-26.5C243.89,-26.5 252.48,-26.5 260.86,-26.5"/>
<polygon fill="midnightblue" stroke="midnightblue" points="235.18,-23 225.18,-26.5 235.18,-30 235.18,-23"/>
</g>
</g>
</svg>
