<?xml version="1.0" encoding="UTF-8" standalone="no"?>
<!DOCTYPE svg PUBLIC "-//W3C//DTD SVG 1.1//EN"
 "http://www.w3.org/Graphics/SVG/1.1/DTD/svg11.dtd">
<!-- Generated by graphviz version 2.43.0 (0)
 -->
<!-- Title: Graphical Class Hierarchy Pages: 1 -->
<svg width="767pt" height="60pt"
 viewBox="0.00 0.00 767.00 60.00" xmlns="http://www.w3.org/2000/svg" xmlns:xlink="http://www.w3.org/1999/xlink">
<g id="graph0" class="graph" transform="scale(1 1) rotate(0) translate(4 56)">
<title>Graphical Class Hierarchy</title>
<!-- Node0 -->
<g id="Node000000" class="node">
<title>Node0</title>
<g id="a_Node000000"><a xlink:href="da/d4c/classxii_array_base.htm" target="_top" xlink:title=" ">
<polygon fill="white" stroke="#666666" points="188,-52 0,-52 0,0 188,0 188,-52"/>
<text text-anchor="start" x="8" y="-40" font-family="Helvetica,sans-Serif" font-size="10.00">xiiArrayBase&lt; xiiAbstract</text>
<text text-anchor="start" x="8" y="-29" font-family="Helvetica,sans-Serif" font-size="10.00">ObjectNode::Property, xiiDynamic</text>
<text text-anchor="start" x="8" y="-18" font-family="Helvetica,sans-Serif" font-size="10.00">ArrayBase&lt; xiiAbstractObjectNode</text>
<text text-anchor="middle" x="94" y="-7" font-family="Helvetica,sans-Serif" font-size="10.00">::Property &gt; &gt;</text>
</a>
</g>
</g>
<!-- Node1 -->
<g id="Node000001" class="node">
<title>Node1</title>
<g id="a_Node000001"><a xlink:href="d2/dea/classxii_dynamic_array_base.htm" target="_top" xlink:title=" ">
<polygon fill="white" stroke="#666666" points="361,-46.5 224,-46.5 224,-5.5 361,-5.5 361,-46.5"/>
<text text-anchor="start" x="232" y="-34.5" font-family="Helvetica,sans-Serif" font-size="10.00">xiiDynamicArrayBase</text>
<text text-anchor="start" x="232" y="-23.5" font-family="Helvetica,sans-Serif" font-size="10.00">&lt; xiiAbstractObjectNode</text>
<text text-anchor="middle" x="292.5" y="-12.5" font-family="Helvetica,sans-Serif" font-size="10.00">::Property &gt;</text>
</a>
</g>
</g>
<!-- Node0&#45;&gt;Node1 -->
<g id="edge623_Node000000_Node000001" class="edge">
<title>Node0&#45;&gt;Node1</title>
<g id="a_edge623_Node000000_Node000001"><a xlink:title=" ">
<path fill="none" stroke="#63b8ff" d="M198.29,-26C206.99,-26 215.64,-26 223.96,-26"/>
<polygon fill="#63b8ff" stroke="#63b8ff" points="198.07,-22.5 188.07,-26 198.07,-29.5 198.07,-22.5"/>
</a>
</g>
</g>
<!-- Node2 -->
<g id="Node000002" class="node">
<title>Node2</title>
<g id="a_Node000002"><a xlink:href="dc/da4/classxii_dynamic_array.htm" target="_top" xlink:title=" ">
<polygon fill="white" stroke="#666666" points="572,-46.5 397,-46.5 397,-5.5 572,-5.5 572,-46.5"/>
<text text-anchor="start" x="405" y="-34.5" font-family="Helvetica,sans-Serif" font-size="10.00">xiiDynamicArray&lt; xiiAbstract</text>
<text text-anchor="start" x="405" y="-23.5" font-family="Helvetica,sans-Serif" font-size="10.00">ObjectNode::Property, xiiDefault</text>
<text text-anchor="middle" x="484.5" y="-12.5" font-family="Helvetica,sans-Serif" font-size="10.00">AllocatorWrapper &gt;</text>
</a>
</g>
</g>
<!-- Node1&#45;&gt;Node2 -->
<g id="edge624_Node000001_Node000002" class="edge">
<title>Node1&#45;&gt;Node2</title>
<g id="a_edge624_Node000001_Node000002"><a xlink:title=" ">
<path fill="none" stroke="#63b8ff" d="M371.24,-26C379.7,-26 388.36,-26 396.92,-26"/>
<polygon fill="#63b8ff" stroke="#63b8ff" points="371.02,-22.5 361.02,-26 371.02,-29.5 371.02,-22.5"/>
</a>
</g>
</g>
<!-- Node3 -->
<g id="Node000003" class="node">
<title>Node3</title>
<g id="a_Node000003"><a xlink:href="dc/da9/classxii_hybrid_array.htm" target="_top" xlink:title=" ">
<polygon fill="white" stroke="#666666" points="759,-41 608,-41 608,-11 759,-11 759,-41"/>
<text text-anchor="start" x="616" y="-29" font-family="Helvetica,sans-Serif" font-size="10.00">xiiHybridArray&lt; xiiAbstract</text>
<text text-anchor="middle" x="683.5" y="-18" font-family="Helvetica,sans-Serif" font-size="10.00">ObjectNode::Property, 16 &gt;</text>
</a>
</g>
</g>
<!-- Node2&#45;&gt;Node3 -->
<g id="edge625_Node000002_Node000003" class="edge">
<title>Node2&#45;&gt;Node3</title>
<g id="a_edge625_Node000002_Node000003"><a xlink:title=" ">
<path fill="none" stroke="#63b8ff" d="M582.25,-26C590.84,-26 599.44,-26 607.8,-26"/>
<polygon fill="#63b8ff" stroke="#63b8ff" points="582.19,-22.5 572.19,-26 582.19,-29.5 582.19,-22.5"/>
</a>
</g>
</g>
</g>
</svg>
