<?xml version="1.0" encoding="UTF-8" standalone="no"?>
<!DOCTYPE svg PUBLIC "-//W3C//DTD SVG 1.1//EN"
 "http://www.w3.org/Graphics/SVG/1.1/DTD/svg11.dtd">
<!-- Generated by graphviz version 2.43.0 (0)
 -->
<!-- Title: Graphical Class Hierarchy Pages: 1 -->
<svg width="765pt" height="49pt"
 viewBox="0.00 0.00 765.00 49.00" xmlns="http://www.w3.org/2000/svg" xmlns:xlink="http://www.w3.org/1999/xlink">
<g id="graph0" class="graph" transform="scale(1 1) rotate(0) translate(4 45)">
<title>Graphical Class Hierarchy</title>
<!-- Node0 -->
<g id="Node000000" class="node">
<title>Node0</title>
<g id="a_Node000000"><a xlink:href="da/d4c/classxii_array_base.html" target="_top" xlink:title=" ">
<polygon fill="white" stroke="#666666" points="178,-41 0,-41 0,0 178,0 178,-41"/>
<text text-anchor="start" x="8" y="-29" font-family="Helvetica,sans-Serif" font-size="10.00">xiiArrayBase&lt; xiiUniquePtr</text>
<text text-anchor="start" x="8" y="-18" font-family="Helvetica,sans-Serif" font-size="10.00">&lt; xiiPin &gt;, xiiDynamicArrayBase</text>
<text text-anchor="middle" x="89" y="-7" font-family="Helvetica,sans-Serif" font-size="10.00">&lt; xiiUniquePtr&lt; xiiPin &gt; &gt; &gt;</text>
</a>
</g>
</g>
<!-- Node1 -->
<g id="Node000001" class="node">
<title>Node1</title>
<g id="a_Node000001"><a xlink:href="d2/dea/classxii_dynamic_array_base.html" target="_top" xlink:title=" ">
<polygon fill="white" stroke="#666666" points="363,-35.5 214,-35.5 214,-5.5 363,-5.5 363,-35.5"/>
<text text-anchor="start" x="222" y="-23.5" font-family="Helvetica,sans-Serif" font-size="10.00">xiiDynamicArrayBase</text>
<text text-anchor="middle" x="288.5" y="-12.5" font-family="Helvetica,sans-Serif" font-size="10.00">&lt; xiiUniquePtr&lt; xiiPin &gt; &gt;</text>
</a>
</g>
</g>
<!-- Node0&#45;&gt;Node1 -->
<g id="edge1389_Node000000_Node000001" class="edge">
<title>Node0&#45;&gt;Node1</title>
<g id="a_edge1389_Node000000_Node000001"><a xlink:title=" ">
<path fill="none" stroke="#63b8ff" d="M188.17,-20.5C196.79,-20.5 205.41,-20.5 213.78,-20.5"/>
<polygon fill="#63b8ff" stroke="#63b8ff" points="188.06,-17 178.06,-20.5 188.06,-24 188.06,-17"/>
</a>
</g>
</g>
<!-- Node2 -->
<g id="Node000002" class="node">
<title>Node2</title>
<g id="a_Node000002"><a xlink:href="dc/da4/classxii_dynamic_array.html" target="_top" xlink:title=" ">
<polygon fill="white" stroke="#666666" points="576,-41 399,-41 399,0 576,0 576,-41"/>
<text text-anchor="start" x="407" y="-29" font-family="Helvetica,sans-Serif" font-size="10.00">xiiDynamicArray&lt; xiiUnique</text>
<text text-anchor="start" x="407" y="-18" font-family="Helvetica,sans-Serif" font-size="10.00">Ptr&lt; xiiPin &gt;, xiiDefaultAllocator</text>
<text text-anchor="middle" x="487.5" y="-7" font-family="Helvetica,sans-Serif" font-size="10.00">Wrapper &gt;</text>
</a>
</g>
</g>
<!-- Node1&#45;&gt;Node2 -->
<g id="edge1390_Node000001_Node000002" class="edge">
<title>Node1&#45;&gt;Node2</title>
<g id="a_edge1390_Node000001_Node000002"><a xlink:title=" ">
<path fill="none" stroke="#63b8ff" d="M373.38,-20.5C381.86,-20.5 390.48,-20.5 399,-20.5"/>
<polygon fill="#63b8ff" stroke="#63b8ff" points="373.14,-17 363.14,-20.5 373.14,-24 373.14,-17"/>
</a>
</g>
</g>
<!-- Node3 -->
<g id="Node000003" class="node">
<title>Node3</title>
<g id="a_Node000003"><a xlink:href="dc/da9/classxii_hybrid_array.html" target="_top" xlink:title=" ">
<polygon fill="white" stroke="#666666" points="757,-35.5 612,-35.5 612,-5.5 757,-5.5 757,-35.5"/>
<text text-anchor="start" x="620" y="-23.5" font-family="Helvetica,sans-Serif" font-size="10.00">xiiHybridArray&lt; xiiUnique</text>
<text text-anchor="middle" x="684.5" y="-12.5" font-family="Helvetica,sans-Serif" font-size="10.00">Ptr&lt; xiiPin &gt;, 6 &gt;</text>
</a>
</g>
</g>
<!-- Node2&#45;&gt;Node3 -->
<g id="edge1391_Node000002_Node000003" class="edge">
<title>Node2&#45;&gt;Node3</title>
<g id="a_edge1391_Node000002_Node000003"><a xlink:title=" ">
<path fill="none" stroke="#63b8ff" d="M586.13,-20.5C594.76,-20.5 603.38,-20.5 611.74,-20.5"/>
<polygon fill="#63b8ff" stroke="#63b8ff" points="586.02,-17 576.02,-20.5 586.02,-24 586.02,-17"/>
</a>
</g>
</g>
</g>
</svg>
