<?xml version="1.0" encoding="UTF-8" standalone="no"?>
<!DOCTYPE svg PUBLIC "-//W3C//DTD SVG 1.1//EN"
 "http://www.w3.org/Graphics/SVG/1.1/DTD/svg11.dtd">
<!-- Generated by graphviz version 2.43.0 (0)
 -->
<!-- Title: Graphical Class Hierarchy Pages: 1 -->
<svg width="572pt" height="49pt"
 viewBox="0.00 0.00 572.00 49.00" xmlns="http://www.w3.org/2000/svg" xmlns:xlink="http://www.w3.org/1999/xlink">
<g id="graph0" class="graph" transform="scale(1 1) rotate(0) translate(4 45)">
<title>Graphical Class Hierarchy</title>
<!-- Node0 -->
<g id="Node000000" class="node">
<title>Node0</title>
<g id="a_Node000000"><a xlink:href="da/d4c/classxii_array_base.htm" target="_top" xlink:title=" ">
<polygon fill="white" stroke="#666666" points="158,-41 0,-41 0,0 158,0 158,-41"/>
<text text-anchor="start" x="8" y="-29" font-family="Helvetica,sans-Serif" font-size="10.00">xiiArrayBase&lt; xiiColorLinear</text>
<text text-anchor="start" x="8" y="-18" font-family="Helvetica,sans-Serif" font-size="10.00">UB, xiiDynamicArrayBase</text>
<text text-anchor="middle" x="79" y="-7" font-family="Helvetica,sans-Serif" font-size="10.00">&lt; xiiColorLinearUB &gt; &gt;</text>
</a>
</g>
</g>
<!-- Node1 -->
<g id="Node000001" class="node">
<title>Node1</title>
<g id="a_Node000001"><a xlink:href="d2/dea/classxii_dynamic_array_base.htm" target="_top" xlink:title=" ">
<polygon fill="white" stroke="#666666" points="316,-35.5 194,-35.5 194,-5.5 316,-5.5 316,-35.5"/>
<text text-anchor="start" x="202" y="-23.5" font-family="Helvetica,sans-Serif" font-size="10.00">xiiDynamicArrayBase</text>
<text text-anchor="middle" x="255" y="-12.5" font-family="Helvetica,sans-Serif" font-size="10.00">&lt; xiiColorLinearUB &gt;</text>
</a>
</g>
</g>
<!-- Node0&#45;&gt;Node1 -->
<g id="edge737_Node000000_Node000001" class="edge">
<title>Node0&#45;&gt;Node1</title>
<g id="a_edge737_Node000000_Node000001"><a xlink:title=" ">
<path fill="none" stroke="#63b8ff" d="M168.27,-20.5C176.94,-20.5 185.6,-20.5 193.9,-20.5"/>
<polygon fill="#63b8ff" stroke="#63b8ff" points="168.09,-17 158.09,-20.5 168.09,-24 168.09,-17"/>
</a>
</g>
</g>
<!-- Node2 -->
<g id="Node000002" class="node">
<title>Node2</title>
<g id="a_Node000002"><a xlink:href="dc/da4/classxii_dynamic_array.htm" target="_top" xlink:title=" ">
<polygon fill="white" stroke="#666666" points="564,-35.5 352,-35.5 352,-5.5 564,-5.5 564,-35.5"/>
<text text-anchor="start" x="360" y="-23.5" font-family="Helvetica,sans-Serif" font-size="10.00">xiiDynamicArray&lt; xiiColor</text>
<text text-anchor="middle" x="458" y="-12.5" font-family="Helvetica,sans-Serif" font-size="10.00">LinearUB, xiiAlignedAllocatorWrapper &gt;</text>
</a>
</g>
</g>
<!-- Node1&#45;&gt;Node2 -->
<g id="edge738_Node000001_Node000002" class="edge">
<title>Node1&#45;&gt;Node2</title>
<g id="a_edge738_Node000001_Node000002"><a xlink:title=" ">
<path fill="none" stroke="#63b8ff" d="M326.05,-20.5C334.41,-20.5 343.07,-20.5 351.79,-20.5"/>
<polygon fill="#63b8ff" stroke="#63b8ff" points="326.03,-17 316.03,-20.5 326.03,-24 326.03,-17"/>
</a>
</g>
</g>
</g>
</svg>
