<?xml version="1.0" encoding="UTF-8" standalone="no"?>
<!DOCTYPE svg PUBLIC "-//W3C//DTD SVG 1.1//EN"
 "http://www.w3.org/Graphics/SVG/1.1/DTD/svg11.dtd">
<!-- Generated by graphviz version 2.43.0 (0)
 -->
<!-- Title: Graphical Class Hierarchy Pages: 1 -->
<svg width="468pt" height="101pt"
 viewBox="0.00 0.00 468.00 101.00" xmlns="http://www.w3.org/2000/svg" xmlns:xlink="http://www.w3.org/1999/xlink">
<g id="graph0" class="graph" transform="scale(1 1) rotate(0) translate(4 97)">
<title>Graphical Class Hierarchy</title>
<!-- Node0 -->
<g id="Node000000" class="node">
<title>Node0</title>
<g id="a_Node000000"><a xlink:href="d5/d99/classxii_translator.htm" target="_top" xlink:title="Base class to translate one string into another.">
<polygon fill="white" stroke="#666666" points="77,-74 0,-74 0,-55 77,-55 77,-74"/>
<text text-anchor="middle" x="38.5" y="-62" font-family="Helvetica,sans-Serif" font-size="10.00">xiiTranslator</text>
</a>
</g>
</g>
<!-- Node1 -->
<g id="Node000001" class="node">
<title>Node1</title>
<g id="a_Node000001"><a xlink:href="d9/d1e/classxii_translator_pass_through.htm" target="_top" xlink:title="Just returns the same string that is passed into it. Can be used to display the actually untranslated...">
<polygon fill="white" stroke="#666666" points="251,-93 113,-93 113,-74 251,-74 251,-93"/>
<text text-anchor="middle" x="182" y="-81" font-family="Helvetica,sans-Serif" font-size="10.00">xiiTranslatorPassThrough</text>
</a>
</g>
</g>
<!-- Node0&#45;&gt;Node1 -->
<g id="edge3328_Node000000_Node000001" class="edge">
<title>Node0&#45;&gt;Node1</title>
<g id="a_edge3328_Node000000_Node000001"><a xlink:title=" ">
<path fill="none" stroke="#63b8ff" d="M87.22,-70.91C95.48,-72.02 104.22,-73.19 112.9,-74.36"/>
<polygon fill="#63b8ff" stroke="#63b8ff" points="87.42,-67.4 77.05,-69.54 86.49,-74.34 87.42,-67.4"/>
</a>
</g>
</g>
<!-- Node2 -->
<g id="Node000002" class="node">
<title>Node2</title>
<g id="a_Node000002"><a xlink:href="da/db1/classxii_translator_storage.htm" target="_top" xlink:title="Can store translated strings and all translation requests will come from that storage....">
<polygon fill="white" stroke="#666666" points="239,-56 125,-56 125,-37 239,-37 239,-56"/>
<text text-anchor="middle" x="182" y="-44" font-family="Helvetica,sans-Serif" font-size="10.00">xiiTranslatorStorage</text>
</a>
</g>
</g>
<!-- Node0&#45;&gt;Node2 -->
<g id="edge3329_Node000000_Node000002" class="edge">
<title>Node0&#45;&gt;Node2</title>
<g id="a_edge3329_Node000000_Node000002"><a xlink:title=" ">
<path fill="none" stroke="#63b8ff" d="M86.98,-58.46C99.14,-56.91 112.33,-55.24 124.88,-53.64"/>
<polygon fill="#63b8ff" stroke="#63b8ff" points="86.53,-54.99 77.05,-59.72 87.41,-61.93 86.53,-54.99"/>
</a>
</g>
</g>
<!-- Node3 -->
<g id="Node000003" class="node">
<title>Node3</title>
<g id="a_Node000003"><a xlink:href="d6/dff/classxii_translator_from_files.htm" target="_top" xlink:title="Loads translations from files. Each translator can have different search paths, but the files to be l...">
<polygon fill="white" stroke="#666666" points="435.5,-93 311.5,-93 311.5,-74 435.5,-74 435.5,-93"/>
<text text-anchor="middle" x="373.5" y="-81" font-family="Helvetica,sans-Serif" font-size="10.00">xiiTranslatorFromFiles</text>
</a>
</g>
</g>
<!-- Node2&#45;&gt;Node3 -->
<g id="edge3330_Node000002_Node000003" class="edge">
<title>Node2&#45;&gt;Node3</title>
<g id="a_edge3330_Node000002_Node000003"><a xlink:title=" ">
<path fill="none" stroke="#63b8ff" d="M241.63,-57.95C267.9,-63.08 298.52,-69.06 323.54,-73.94"/>
<polygon fill="#63b8ff" stroke="#63b8ff" points="242.29,-54.51 231.8,-56.03 240.94,-61.38 242.29,-54.51"/>
</a>
</g>
</g>
<!-- Node4 -->
<g id="Node000004" class="node">
<title>Node4</title>
<g id="a_Node000004"><a xlink:href="db/d93/classxii_translator_log_missing.htm" target="_top" xlink:title="Outputs a &#39;Missing Translation&#39; warning the first time a string translation is requested....">
<polygon fill="white" stroke="#666666" points="439,-56 308,-56 308,-37 439,-37 439,-56"/>
<text text-anchor="middle" x="373.5" y="-44" font-family="Helvetica,sans-Serif" font-size="10.00">xiiTranslatorLogMissing</text>
</a>
</g>
</g>
<!-- Node2&#45;&gt;Node4 -->
<g id="edge3331_Node000002_Node000004" class="edge">
<title>Node2&#45;&gt;Node4</title>
<g id="a_edge3331_Node000002_Node000004"><a xlink:title=" ">
<path fill="none" stroke="#63b8ff" d="M249.17,-46.5C268.21,-46.5 288.95,-46.5 307.89,-46.5"/>
<polygon fill="#63b8ff" stroke="#63b8ff" points="249.09,-43 239.09,-46.5 249.09,-50 249.09,-43"/>
</a>
</g>
</g>
<!-- Node5 -->
<g id="Node000005" class="node">
<title>Node5</title>
<g id="a_Node000005"><a xlink:href="d8/db6/classxii_translator_make_more_readable.htm" target="_top" xlink:title="Returns the same string that is passed into it, but strips off class names and separates the text at ...">
<polygon fill="white" stroke="#666666" points="460,-19 287,-19 287,0 460,0 460,-19"/>
<text text-anchor="middle" x="373.5" y="-7" font-family="Helvetica,sans-Serif" font-size="10.00">xiiTranslatorMakeMoreReadable</text>
</a>
</g>
</g>
<!-- Node2&#45;&gt;Node5 -->
<g id="edge3332_Node000002_Node000005" class="edge">
<title>Node2&#45;&gt;Node5</title>
<g id="a_edge3332_Node000002_Node000005"><a xlink:title=" ">
<path fill="none" stroke="#63b8ff" d="M241.63,-35.05C267.9,-29.92 298.52,-23.94 323.54,-19.06"/>
<polygon fill="#63b8ff" stroke="#63b8ff" points="240.94,-31.62 231.8,-36.97 242.29,-38.49 240.94,-31.62"/>
</a>
</g>
</g>
</g>
</svg>
