<?xml version="1.0" encoding="UTF-8" standalone="no"?>
<!DOCTYPE svg PUBLIC "-//W3C//DTD SVG 1.1//EN"
 "http://www.w3.org/Graphics/SVG/1.1/DTD/svg11.dtd">
<!-- Generated by graphviz version 2.43.0 (0)
 -->
<!-- Title: Graphical Class Hierarchy Pages: 1 -->
<svg width="771pt" height="76pt"
 viewBox="0.00 0.00 771.00 75.50" xmlns="http://www.w3.org/2000/svg" xmlns:xlink="http://www.w3.org/1999/xlink">
<g id="graph0" class="graph" transform="scale(1 1) rotate(0) translate(4 71.5)">
<title>Graphical Class Hierarchy</title>
<!-- Node0 -->
<g id="Node000000" class="node">
<title>Node0</title>
<g id="a_Node000000"><a xlink:href="da/d4c/classxii_array_base.html" target="_top" xlink:title=" ">
<polygon fill="white" stroke="#666666" points="213,-51 0,-51 0,-21 213,-21 213,-51"/>
<text text-anchor="start" x="8" y="-39" font-family="Helvetica,sans-Serif" font-size="10.00">xiiArrayBase&lt; xiiCurve1D,</text>
<text text-anchor="middle" x="106.5" y="-28" font-family="Helvetica,sans-Serif" font-size="10.00"> xiiDynamicArrayBase&lt; xiiCurve1D &gt; &gt;</text>
</a>
</g>
</g>
<!-- Node1 -->
<g id="Node000001" class="node">
<title>Node1</title>
<g id="a_Node000001"><a xlink:href="d2/dea/classxii_dynamic_array_base.html" target="_top" xlink:title=" ">
<polygon fill="white" stroke="#666666" points="371,-51 249,-51 249,-21 371,-21 371,-51"/>
<text text-anchor="start" x="257" y="-39" font-family="Helvetica,sans-Serif" font-size="10.00">xiiDynamicArrayBase</text>
<text text-anchor="middle" x="310" y="-28" font-family="Helvetica,sans-Serif" font-size="10.00">&lt; xiiCurve1D &gt;</text>
</a>
</g>
</g>
<!-- Node0&#45;&gt;Node1 -->
<g id="edge795_Node000000_Node000001" class="edge">
<title>Node0&#45;&gt;Node1</title>
<g id="a_edge795_Node000000_Node000001"><a xlink:title=" ">
<path fill="none" stroke="#63b8ff" d="M223.49,-36C232.15,-36 240.66,-36 248.75,-36"/>
<polygon fill="#63b8ff" stroke="#63b8ff" points="223.27,-32.5 213.27,-36 223.27,-39.5 223.27,-32.5"/>
</a>
</g>
</g>
<!-- Node2 -->
<g id="Node000002" class="node">
<title>Node2</title>
<g id="a_Node000002"><a xlink:href="dc/da4/classxii_dynamic_array.html" target="_top" xlink:title=" ">
<polygon fill="white" stroke="#666666" points="582,-67.5 407,-67.5 407,-48.5 582,-48.5 582,-67.5"/>
<text text-anchor="middle" x="494.5" y="-55.5" font-family="Helvetica,sans-Serif" font-size="10.00">xiiDynamicArray&lt; xiiCurve1D &gt;</text>
</a>
</g>
</g>
<!-- Node1&#45;&gt;Node2 -->
<g id="edge796_Node000001_Node000002" class="edge">
<title>Node1&#45;&gt;Node2</title>
<g id="a_edge796_Node000001_Node000002"><a xlink:title=" ">
<path fill="none" stroke="#63b8ff" d="M380.96,-44.43C391.95,-45.76 403.38,-47.14 414.55,-48.48"/>
<polygon fill="#63b8ff" stroke="#63b8ff" points="381.36,-40.96 371.01,-43.23 380.52,-47.91 381.36,-40.96"/>
</a>
</g>
</g>
<!-- Node3 -->
<g id="Node000003" class="node">
<title>Node3</title>
<g id="a_Node000003"><a xlink:href="dc/da4/classxii_dynamic_array.html" target="_top" xlink:title=" ">
<polygon fill="white" stroke="#666666" points="581.5,-30 407.5,-30 407.5,0 581.5,0 581.5,-30"/>
<text text-anchor="start" x="415.5" y="-18" font-family="Helvetica,sans-Serif" font-size="10.00">xiiDynamicArray&lt; xiiCurve1</text>
<text text-anchor="middle" x="494.5" y="-7" font-family="Helvetica,sans-Serif" font-size="10.00">D, xiiDefaultAllocatorWrapper &gt;</text>
</a>
</g>
</g>
<!-- Node1&#45;&gt;Node3 -->
<g id="edge797_Node000001_Node000003" class="edge">
<title>Node1&#45;&gt;Node3</title>
<g id="a_edge797_Node000001_Node000003"><a xlink:title=" ">
<path fill="none" stroke="#63b8ff" d="M380.99,-27.95C389.61,-26.95 398.51,-25.93 407.34,-24.91"/>
<polygon fill="#63b8ff" stroke="#63b8ff" points="380.54,-24.47 371.01,-29.09 381.34,-31.43 380.54,-24.47"/>
</a>
</g>
</g>
<!-- Node4 -->
<g id="Node000004" class="node">
<title>Node4</title>
<g id="a_Node000004"><a xlink:href="dc/da9/classxii_hybrid_array.html" target="_top" xlink:title=" ">
<polygon fill="white" stroke="#666666" points="763,-30 618,-30 618,0 763,0 763,-30"/>
<text text-anchor="start" x="626" y="-18" font-family="Helvetica,sans-Serif" font-size="10.00">xiiHybridArray&lt; xiiCurve1</text>
<text text-anchor="middle" x="690.5" y="-7" font-family="Helvetica,sans-Serif" font-size="10.00">D, 4 &gt;</text>
</a>
</g>
</g>
<!-- Node3&#45;&gt;Node4 -->
<g id="edge798_Node000003_Node000004" class="edge">
<title>Node3&#45;&gt;Node4</title>
<g id="a_edge798_Node000003_Node000004"><a xlink:title=" ">
<path fill="none" stroke="#63b8ff" d="M591.92,-15C600.62,-15 609.33,-15 617.77,-15"/>
<polygon fill="#63b8ff" stroke="#63b8ff" points="591.72,-11.5 581.72,-15 591.72,-18.5 591.72,-11.5"/>
</a>
</g>
</g>
</g>
</svg>
