<?xml version="1.0" encoding="UTF-8" standalone="no"?>
<!DOCTYPE svg PUBLIC "-//W3C//DTD SVG 1.1//EN"
 "http://www.w3.org/Graphics/SVG/1.1/DTD/svg11.dtd">
<!-- Generated by graphviz version 2.43.0 (0)
 -->
<!-- Title: Graphical Class Hierarchy Pages: 1 -->
<svg width="366pt" height="108pt"
 viewBox="0.00 0.00 366.00 108.00" xmlns="http://www.w3.org/2000/svg" xmlns:xlink="http://www.w3.org/1999/xlink">
<g id="graph0" class="graph" transform="scale(1 1) rotate(0) translate(4 104)">
<title>Graphical Class Hierarchy</title>
<!-- Node0 -->
<g id="Node000000" class="node">
<title>Node0</title>
<g id="a_Node000000"><a xlink:href="d0/d92/classxii_small_array_base.htm" target="_top" xlink:title=" ">
<polygon fill="white" stroke="#666666" points="131,-70 0,-70 0,-29 131,-29 131,-70"/>
<text text-anchor="start" x="8" y="-58" font-family="Helvetica,sans-Serif" font-size="10.00">xiiSmallArrayBase&lt;</text>
<text text-anchor="start" x="8" y="-47" font-family="Helvetica,sans-Serif" font-size="10.00"> xiiTagSetBlockStorage,</text>
<text text-anchor="middle" x="65.5" y="-36" font-family="Helvetica,sans-Serif" font-size="10.00"> Size &gt;</text>
</a>
</g>
</g>
<!-- Node1 -->
<g id="Node000001" class="node">
<title>Node1</title>
<g id="a_Node000001"><a xlink:href="d6/d1f/classxii_small_array.htm" target="_top" xlink:title=" ">
<polygon fill="white" stroke="#666666" points="358,-100 167,-100 167,-59 358,-59 358,-100"/>
<text text-anchor="start" x="175" y="-88" font-family="Helvetica,sans-Serif" font-size="10.00">xiiSmallArray&lt; xiiTagSet</text>
<text text-anchor="start" x="175" y="-77" font-family="Helvetica,sans-Serif" font-size="10.00">BlockStorage, 1, xiiDefaultAllocator</text>
<text text-anchor="middle" x="262.5" y="-66" font-family="Helvetica,sans-Serif" font-size="10.00">Wrapper &gt;</text>
</a>
</g>
</g>
<!-- Node0&#45;&gt;Node1 -->
<g id="edge3263_Node000000_Node000001" class="edge">
<title>Node0&#45;&gt;Node1</title>
<g id="a_edge3263_Node000000_Node000001"><a xlink:title=" ">
<path fill="none" stroke="#63b8ff" d="M141.22,-60.99C149.57,-62.28 158.16,-63.6 166.72,-64.92"/>
<polygon fill="#63b8ff" stroke="#63b8ff" points="141.58,-57.51 131.16,-59.45 140.51,-64.43 141.58,-57.51"/>
</a>
</g>
</g>
<!-- Node2 -->
<g id="Node000002" class="node">
<title>Node2</title>
<g id="a_Node000002"><a xlink:href="d6/d1f/classxii_small_array.htm" target="_top" xlink:title=" ">
<polygon fill="white" stroke="#666666" points="344.5,-41 180.5,-41 180.5,0 344.5,0 344.5,-41"/>
<text text-anchor="start" x="188.5" y="-29" font-family="Helvetica,sans-Serif" font-size="10.00">xiiSmallArray&lt; xiiTagSet</text>
<text text-anchor="start" x="188.5" y="-18" font-family="Helvetica,sans-Serif" font-size="10.00">BlockStorage, 1, BlockStorage</text>
<text text-anchor="middle" x="262.5" y="-7" font-family="Helvetica,sans-Serif" font-size="10.00">Allocator &gt;</text>
</a>
</g>
</g>
<!-- Node0&#45;&gt;Node2 -->
<g id="edge3264_Node000000_Node000002" class="edge">
<title>Node0&#45;&gt;Node2</title>
<g id="a_edge3264_Node000000_Node000002"><a xlink:title=" ">
<path fill="none" stroke="#63b8ff" d="M141.28,-38.38C154.06,-36.48 167.4,-34.49 180.34,-32.57"/>
<polygon fill="#63b8ff" stroke="#63b8ff" points="140.54,-34.95 131.16,-39.88 141.57,-41.87 140.54,-34.95"/>
</a>
</g>
</g>
</g>
</svg>
