<?xml version="1.0" encoding="UTF-8" standalone="no"?>
<!DOCTYPE svg PUBLIC "-//W3C//DTD SVG 1.1//EN"
 "http://www.w3.org/Graphics/SVG/1.1/DTD/svg11.dtd">
<!-- Generated by graphviz version 2.43.0 (0)
 -->
<!-- Title: Graphical Class Hierarchy Pages: 1 -->
<svg width="748pt" height="49pt"
 viewBox="0.00 0.00 748.00 49.00" xmlns="http://www.w3.org/2000/svg" xmlns:xlink="http://www.w3.org/1999/xlink">
<g id="graph0" class="graph" transform="scale(1 1) rotate(0) translate(4 45)">
<title>Graphical Class Hierarchy</title>
<!-- Node0 -->
<g id="Node000000" class="node">
<title>Node0</title>
<g id="a_Node000000"><a xlink:href="da/d4c/classxii_array_base.html" target="_top" xlink:title=" ">
<polygon fill="white" stroke="#666666" points="194,-41 0,-41 0,0 194,0 194,-41"/>
<text text-anchor="start" x="8" y="-29" font-family="Helvetica,sans-Serif" font-size="10.00">xiiArrayBase&lt; xiiRenderContext</text>
<text text-anchor="start" x="8" y="-18" font-family="Helvetica,sans-Serif" font-size="10.00"> *, xiiDynamicArrayBase&lt; xiiRender</text>
<text text-anchor="middle" x="97" y="-7" font-family="Helvetica,sans-Serif" font-size="10.00">Context * &gt; &gt;</text>
</a>
</g>
</g>
<!-- Node1 -->
<g id="Node000001" class="node">
<title>Node1</title>
<g id="a_Node000001"><a xlink:href="d2/dea/classxii_dynamic_array_base.html" target="_top" xlink:title=" ">
<polygon fill="white" stroke="#666666" points="362,-35.5 230,-35.5 230,-5.5 362,-5.5 362,-35.5"/>
<text text-anchor="start" x="238" y="-23.5" font-family="Helvetica,sans-Serif" font-size="10.00">xiiDynamicArrayBase</text>
<text text-anchor="middle" x="296" y="-12.5" font-family="Helvetica,sans-Serif" font-size="10.00">&lt; xiiRenderContext * &gt;</text>
</a>
</g>
</g>
<!-- Node0&#45;&gt;Node1 -->
<g id="edge1200_Node000000_Node000001" class="edge">
<title>Node0&#45;&gt;Node1</title>
<g id="a_edge1200_Node000000_Node000001"><a xlink:title=" ">
<path fill="none" stroke="#63b8ff" d="M204.41,-20.5C213.09,-20.5 221.69,-20.5 229.93,-20.5"/>
<polygon fill="#63b8ff" stroke="#63b8ff" points="204.19,-17 194.19,-20.5 204.19,-24 204.19,-17"/>
</a>
</g>
</g>
<!-- Node2 -->
<g id="Node000002" class="node">
<title>Node2</title>
<g id="a_Node000002"><a xlink:href="dc/da4/classxii_dynamic_array.html" target="_top" xlink:title=" ">
<polygon fill="white" stroke="#666666" points="559,-41 398,-41 398,0 559,0 559,-41"/>
<text text-anchor="start" x="406" y="-29" font-family="Helvetica,sans-Serif" font-size="10.00">xiiDynamicArray&lt; xiiRender</text>
<text text-anchor="start" x="406" y="-18" font-family="Helvetica,sans-Serif" font-size="10.00">Context *, xiiDefaultAllocator</text>
<text text-anchor="middle" x="478.5" y="-7" font-family="Helvetica,sans-Serif" font-size="10.00">Wrapper &gt;</text>
</a>
</g>
</g>
<!-- Node1&#45;&gt;Node2 -->
<g id="edge1201_Node000001_Node000002" class="edge">
<title>Node1&#45;&gt;Node2</title>
<g id="a_edge1201_Node000001_Node000002"><a xlink:title=" ">
<path fill="none" stroke="#63b8ff" d="M372.37,-20.5C380.82,-20.5 389.45,-20.5 397.95,-20.5"/>
<polygon fill="#63b8ff" stroke="#63b8ff" points="372.16,-17 362.16,-20.5 372.16,-24 372.16,-17"/>
</a>
</g>
</g>
<!-- Node3 -->
<g id="Node000003" class="node">
<title>Node3</title>
<g id="a_Node000003"><a xlink:href="dc/da9/classxii_hybrid_array.html" target="_top" xlink:title=" ">
<polygon fill="white" stroke="#666666" points="740,-35.5 595,-35.5 595,-5.5 740,-5.5 740,-35.5"/>
<text text-anchor="start" x="603" y="-23.5" font-family="Helvetica,sans-Serif" font-size="10.00">xiiHybridArray&lt; xiiRender</text>
<text text-anchor="middle" x="667.5" y="-12.5" font-family="Helvetica,sans-Serif" font-size="10.00">Context *, 4 &gt;</text>
</a>
</g>
</g>
<!-- Node2&#45;&gt;Node3 -->
<g id="edge1202_Node000002_Node000003" class="edge">
<title>Node2&#45;&gt;Node3</title>
<g id="a_edge1202_Node000002_Node000003"><a xlink:title=" ">
<path fill="none" stroke="#63b8ff" d="M569.2,-20.5C577.85,-20.5 586.55,-20.5 594.99,-20.5"/>
<polygon fill="#63b8ff" stroke="#63b8ff" points="569.08,-17 559.08,-20.5 569.08,-24 569.08,-17"/>
</a>
</g>
</g>
</g>
</svg>
