<?xml version="1.0" encoding="UTF-8" standalone="no"?>
<!DOCTYPE svg PUBLIC "-//W3C//DTD SVG 1.1//EN"
 "http://www.w3.org/Graphics/SVG/1.1/DTD/svg11.dtd">
<!-- Generated by graphviz version 2.43.0 (0)
 -->
<!-- Title: Graphical Class Hierarchy Pages: 1 -->
<svg width="434pt" height="28pt"
 viewBox="0.00 0.00 434.00 28.00" xmlns="http://www.w3.org/2000/svg" xmlns:xlink="http://www.w3.org/1999/xlink">
<g id="graph0" class="graph" transform="scale(1 1) rotate(0) translate(4 24)">
<title>Graphical Class Hierarchy</title>
<polygon fill="white" stroke="transparent" points="-4,4 -4,-24 430,-24 430,4 -4,4"/>
<!-- Node454 -->
<g id="node1" class="node">
<title>Node454</title>
<g id="a_node1"><a xlink:title=" ">
<polygon fill="white" stroke="#bfbfbf" points="0,-0.5 0,-19.5 65,-19.5 65,-0.5 0,-0.5"/>
<text text-anchor="middle" x="32.5" y="-7.5" font-family="Helvetica,sans-Serif" font-size="10.00">QListView</text>
</a>
</g>
</g>
<!-- Node0 -->
<g id="node2" class="node">
<title>Node0</title>
<g id="a_node2"><a xlink:href="d9/daa/classxii_qt_item_view.htm" target="_top" xlink:title=" ">
<polygon fill="white" stroke="black" points="101,-0.5 101,-19.5 259,-19.5 259,-0.5 101,-0.5"/>
<text text-anchor="middle" x="180" y="-7.5" font-family="Helvetica,sans-Serif" font-size="10.00">xiiQtItemView&lt; QListView &gt;</text>
</a>
</g>
</g>
<!-- Node454&#45;&gt;Node0 -->
<g id="edge1" class="edge">
<title>Node454&#45;&gt;Node0</title>
<path fill="none" stroke="midnightblue" d="M75.3,-10C83.39,-10 92.1,-10 100.93,-10"/>
<polygon fill="midnightblue" stroke="midnightblue" points="75.07,-6.5 65.07,-10 75.07,-13.5 75.07,-6.5"/>
</g>
<!-- Node1 -->
<g id="node3" class="node">
<title>Node1</title>
<g id="a_node3"><a xlink:href="d7/d7f/classxii_qt_asset_browser_view.htm" target="_top" xlink:title=" ">
<polygon fill="white" stroke="black" points="295,-0.5 295,-19.5 426,-19.5 426,-0.5 295,-0.5"/>
<text text-anchor="middle" x="360.5" y="-7.5" font-family="Helvetica,sans-Serif" font-size="10.00">xiiQtAssetBrowserView</text>
</a>
</g>
</g>
<!-- Node0&#45;&gt;Node1 -->
<g id="edge2" class="edge">
<title>Node0&#45;&gt;Node1</title>
<path fill="none" stroke="midnightblue" d="M269.21,-10C277.9,-10 286.61,-10 294.99,-10"/>
<polygon fill="midnightblue" stroke="midnightblue" points="269.03,-6.5 259.03,-10 269.03,-13.5 269.03,-6.5"/>
</g>
</g>
</svg>
