<?xml version="1.0" encoding="UTF-8" standalone="no"?>
<!DOCTYPE svg PUBLIC "-//W3C//DTD SVG 1.1//EN"
 "http://www.w3.org/Graphics/SVG/1.1/DTD/svg11.dtd">
<!-- Generated by graphviz version 2.43.0 (0)
 -->
<!-- Title: Graphical Class Hierarchy Pages: 1 -->
<svg width="249pt" height="66pt"
 viewBox="0.00 0.00 249.00 66.00" xmlns="http://www.w3.org/2000/svg" xmlns:xlink="http://www.w3.org/1999/xlink">
<g id="graph0" class="graph" transform="scale(1 1) rotate(0) translate(4 62)">
<title>Graphical Class Hierarchy</title>
<polygon fill="white" stroke="transparent" points="-4,4 -4,-62 245,-62 245,4 -4,4"/>
<!-- Node629 -->
<g id="node1" class="node">
<title>Node629</title>
<g id="a_node1"><a xlink:title=" ">
<polygon fill="white" stroke="#bfbfbf" points="0,-19.5 0,-38.5 89,-38.5 89,-19.5 0,-19.5"/>
<text text-anchor="middle" x="44.5" y="-26.5" font-family="Helvetica,sans-Serif" font-size="10.00">ozz::io::Stream</text>
</a>
</g>
</g>
<!-- Node0 -->
<g id="node2" class="node">
<title>Node0</title>
<g id="a_node2"><a xlink:href="db/de0/classxii_ozz_stream_reader.htm" target="_top" xlink:title="Implements the ozz::io::Stream interface for reading. The data has to be present in an xiiOzzArchiveD...">
<polygon fill="white" stroke="black" points="125,-38.5 125,-57.5 241,-57.5 241,-38.5 125,-38.5"/>
<text text-anchor="middle" x="183" y="-45.5" font-family="Helvetica,sans-Serif" font-size="10.00">xiiOzzStreamReader</text>
</a>
</g>
</g>
<!-- Node629&#45;&gt;Node0 -->
<g id="edge1" class="edge">
<title>Node629&#45;&gt;Node0</title>
<path fill="none" stroke="midnightblue" d="M99.17,-36.47C107.62,-37.65 116.37,-38.86 124.89,-40.05"/>
<polygon fill="midnightblue" stroke="midnightblue" points="99.45,-32.98 89.06,-35.06 98.49,-39.91 99.45,-32.98"/>
</g>
<!-- Node631 -->
<g id="node3" class="node">
<title>Node631</title>
<g id="a_node3"><a xlink:href="d9/d81/classxii_ozz_stream_writer.htm" target="_top" xlink:title="Implements the ozz::io::Stream interface for writing. The data is gathered in an xiiOzzArchiveData ob...">
<polygon fill="white" stroke="black" points="127,-0.5 127,-19.5 239,-19.5 239,-0.5 127,-0.5"/>
<text text-anchor="middle" x="183" y="-7.5" font-family="Helvetica,sans-Serif" font-size="10.00">xiiOzzStreamWriter</text>
</a>
</g>
</g>
<!-- Node629&#45;&gt;Node631 -->
<g id="edge2" class="edge">
<title>Node629&#45;&gt;Node631</title>
<path fill="none" stroke="midnightblue" d="M99.15,-21.53C108.25,-20.27 117.71,-18.95 126.85,-17.68"/>
<polygon fill="midnightblue" stroke="midnightblue" points="98.49,-18.09 89.06,-22.94 99.45,-25.02 98.49,-18.09"/>
</g>
</g>
</svg>
