<?xml version="1.0" encoding="UTF-8" standalone="no"?>
<!DOCTYPE svg PUBLIC "-//W3C//DTD SVG 1.1//EN"
 "http://www.w3.org/Graphics/SVG/1.1/DTD/svg11.dtd">
<!-- Generated by graphviz version 2.43.0 (0)
 -->
<!-- Title: Graphical Class Hierarchy Pages: 1 -->
<svg width="788pt" height="49pt"
 viewBox="0.00 0.00 788.00 49.00" xmlns="http://www.w3.org/2000/svg" xmlns:xlink="http://www.w3.org/1999/xlink">
<g id="graph0" class="graph" transform="scale(1 1) rotate(0) translate(4 45)">
<title>Graphical Class Hierarchy</title>
<!-- Node0 -->
<g id="Node000000" class="node">
<title>Node0</title>
<g id="a_Node000000"><a xlink:href="da/d4c/classxii_array_base.html" target="_top" xlink:title=" ">
<polygon fill="white" stroke="#666666" points="188,-41 0,-41 0,0 188,0 188,-41"/>
<text text-anchor="start" x="8" y="-29" font-family="Helvetica,sans-Serif" font-size="10.00">xiiArrayBase&lt; xiiShaderResource</text>
<text text-anchor="start" x="8" y="-18" font-family="Helvetica,sans-Serif" font-size="10.00">Definition, xiiDynamicArrayBase</text>
<text text-anchor="middle" x="94" y="-7" font-family="Helvetica,sans-Serif" font-size="10.00">&lt; xiiShaderResourceDefinition &gt; &gt;</text>
</a>
</g>
</g>
<!-- Node1 -->
<g id="Node000001" class="node">
<title>Node1</title>
<g id="a_Node000001"><a xlink:href="d2/dea/classxii_dynamic_array_base.html" target="_top" xlink:title=" ">
<polygon fill="white" stroke="#666666" points="401,-35.5 224,-35.5 224,-5.5 401,-5.5 401,-35.5"/>
<text text-anchor="start" x="232" y="-23.5" font-family="Helvetica,sans-Serif" font-size="10.00">xiiDynamicArrayBase</text>
<text text-anchor="middle" x="312.5" y="-12.5" font-family="Helvetica,sans-Serif" font-size="10.00">&lt; xiiShaderResourceDefinition &gt;</text>
</a>
</g>
</g>
<!-- Node0&#45;&gt;Node1 -->
<g id="edge1222_Node000000_Node000001" class="edge">
<title>Node0&#45;&gt;Node1</title>
<g id="a_edge1222_Node000000_Node000001"><a xlink:title=" ">
<path fill="none" stroke="#63b8ff" d="M198.17,-20.5C206.81,-20.5 215.49,-20.5 223.99,-20.5"/>
<polygon fill="#63b8ff" stroke="#63b8ff" points="198.07,-17 188.07,-20.5 198.07,-24 198.07,-17"/>
</a>
</g>
</g>
<!-- Node2 -->
<g id="Node000002" class="node">
<title>Node2</title>
<g id="a_Node000002"><a xlink:href="dc/da4/classxii_dynamic_array.html" target="_top" xlink:title=" ">
<polygon fill="white" stroke="#666666" points="600,-41 437,-41 437,0 600,0 600,-41"/>
<text text-anchor="start" x="445" y="-29" font-family="Helvetica,sans-Serif" font-size="10.00">xiiDynamicArray&lt; xiiShader</text>
<text text-anchor="start" x="445" y="-18" font-family="Helvetica,sans-Serif" font-size="10.00">ResourceDefinition, xiiDefault</text>
<text text-anchor="middle" x="518.5" y="-7" font-family="Helvetica,sans-Serif" font-size="10.00">AllocatorWrapper &gt;</text>
</a>
</g>
</g>
<!-- Node1&#45;&gt;Node2 -->
<g id="edge1223_Node000001_Node000002" class="edge">
<title>Node1&#45;&gt;Node2</title>
<g id="a_edge1223_Node000001_Node000002"><a xlink:title=" ">
<path fill="none" stroke="#63b8ff" d="M411.27,-20.5C419.88,-20.5 428.52,-20.5 436.97,-20.5"/>
<polygon fill="#63b8ff" stroke="#63b8ff" points="411.2,-17 401.2,-20.5 411.2,-24 411.2,-17"/>
</a>
</g>
</g>
<!-- Node3 -->
<g id="Node000003" class="node">
<title>Node3</title>
<g id="a_Node000003"><a xlink:href="dc/da9/classxii_hybrid_array.html" target="_top" xlink:title=" ">
<polygon fill="white" stroke="#666666" points="780,-35.5 636,-35.5 636,-5.5 780,-5.5 780,-35.5"/>
<text text-anchor="start" x="644" y="-23.5" font-family="Helvetica,sans-Serif" font-size="10.00">xiiHybridArray&lt; xiiShader</text>
<text text-anchor="middle" x="708" y="-12.5" font-family="Helvetica,sans-Serif" font-size="10.00">ResourceDefinition, 8U &gt;</text>
</a>
</g>
</g>
<!-- Node2&#45;&gt;Node3 -->
<g id="edge1224_Node000002_Node000003" class="edge">
<title>Node2&#45;&gt;Node3</title>
<g id="a_edge1224_Node000002_Node000003"><a xlink:title=" ">
<path fill="none" stroke="#63b8ff" d="M610.21,-20.5C618.84,-20.5 627.51,-20.5 635.91,-20.5"/>
<polygon fill="#63b8ff" stroke="#63b8ff" points="610.11,-17 600.11,-20.5 610.1,-24 610.11,-17"/>
</a>
</g>
</g>
</g>
</svg>
