<?xml version="1.0" encoding="UTF-8" standalone="no"?>
<!DOCTYPE svg PUBLIC "-//W3C//DTD SVG 1.1//EN"
 "http://www.w3.org/Graphics/SVG/1.1/DTD/svg11.dtd">
<!-- Generated by graphviz version 2.43.0 (0)
 -->
<!-- Title: Graphical Class Hierarchy Pages: 1 -->
<svg width="842pt" height="49pt"
 viewBox="0.00 0.00 842.00 49.00" xmlns="http://www.w3.org/2000/svg" xmlns:xlink="http://www.w3.org/1999/xlink">
<g id="graph0" class="graph" transform="scale(1 1) rotate(0) translate(4 45)">
<title>Graphical Class Hierarchy</title>
<!-- Node0 -->
<g id="Node000000" class="node">
<title>Node0</title>
<g id="a_Node000000"><a xlink:href="da/d4c/classxii_array_base.htm" target="_top" xlink:title=" ">
<polygon fill="white" stroke="#666666" points="272,-35.5 0,-35.5 0,-5.5 272,-5.5 272,-35.5"/>
<text text-anchor="start" x="8" y="-23.5" font-family="Helvetica,sans-Serif" font-size="10.00">xiiArrayBase&lt; xiiActionDescriptor</text>
<text text-anchor="middle" x="136" y="-12.5" font-family="Helvetica,sans-Serif" font-size="10.00"> *, xiiDynamicArrayBase&lt; xiiActionDescriptor * &gt; &gt;</text>
</a>
</g>
</g>
<!-- Node1 -->
<g id="Node000001" class="node">
<title>Node1</title>
<g id="a_Node000001"><a xlink:href="d2/dea/classxii_dynamic_array_base.htm" target="_top" xlink:title=" ">
<polygon fill="white" stroke="#666666" points="448,-35.5 308,-35.5 308,-5.5 448,-5.5 448,-35.5"/>
<text text-anchor="start" x="316" y="-23.5" font-family="Helvetica,sans-Serif" font-size="10.00">xiiDynamicArrayBase</text>
<text text-anchor="middle" x="378" y="-12.5" font-family="Helvetica,sans-Serif" font-size="10.00">&lt; xiiActionDescriptor * &gt;</text>
</a>
</g>
</g>
<!-- Node0&#45;&gt;Node1 -->
<g id="edge627_Node000000_Node000001" class="edge">
<title>Node0&#45;&gt;Node1</title>
<g id="a_edge627_Node000000_Node000001"><a xlink:title=" ">
<path fill="none" stroke="#63b8ff" d="M282.16,-20.5C291.03,-20.5 299.71,-20.5 307.99,-20.5"/>
<polygon fill="#63b8ff" stroke="#63b8ff" points="282.08,-17 272.08,-20.5 282.08,-24 282.08,-17"/>
</a>
</g>
</g>
<!-- Node2 -->
<g id="Node000002" class="node">
<title>Node2</title>
<g id="a_Node000002"><a xlink:href="dc/da4/classxii_dynamic_array.htm" target="_top" xlink:title=" ">
<polygon fill="white" stroke="#666666" points="657,-41 484,-41 484,0 657,0 657,-41"/>
<text text-anchor="start" x="492" y="-29" font-family="Helvetica,sans-Serif" font-size="10.00">xiiDynamicArray&lt; xiiAction</text>
<text text-anchor="start" x="492" y="-18" font-family="Helvetica,sans-Serif" font-size="10.00">Descriptor *, xiiDefaultAllocator</text>
<text text-anchor="middle" x="570.5" y="-7" font-family="Helvetica,sans-Serif" font-size="10.00">Wrapper &gt;</text>
</a>
</g>
</g>
<!-- Node1&#45;&gt;Node2 -->
<g id="edge628_Node000001_Node000002" class="edge">
<title>Node1&#45;&gt;Node2</title>
<g id="a_edge628_Node000001_Node000002"><a xlink:title=" ">
<path fill="none" stroke="#63b8ff" d="M458.23,-20.5C466.67,-20.5 475.28,-20.5 483.79,-20.5"/>
<polygon fill="#63b8ff" stroke="#63b8ff" points="458.04,-17 448.04,-20.5 458.04,-24 458.04,-17"/>
</a>
</g>
</g>
<!-- Node3 -->
<g id="Node000003" class="node">
<title>Node3</title>
<g id="a_Node000003"><a xlink:href="dc/da9/classxii_hybrid_array.htm" target="_top" xlink:title=" ">
<polygon fill="white" stroke="#666666" points="834,-35.5 693,-35.5 693,-5.5 834,-5.5 834,-35.5"/>
<text text-anchor="start" x="701" y="-23.5" font-family="Helvetica,sans-Serif" font-size="10.00">xiiHybridArray&lt; xiiAction</text>
<text text-anchor="middle" x="763.5" y="-12.5" font-family="Helvetica,sans-Serif" font-size="10.00">Descriptor *, 32 &gt;</text>
</a>
</g>
</g>
<!-- Node2&#45;&gt;Node3 -->
<g id="edge629_Node000002_Node000003" class="edge">
<title>Node2&#45;&gt;Node3</title>
<g id="a_edge629_Node000002_Node000003"><a xlink:title=" ">
<path fill="none" stroke="#63b8ff" d="M667.3,-20.5C675.89,-20.5 684.48,-20.5 692.79,-20.5"/>
<polygon fill="#63b8ff" stroke="#63b8ff" points="667.22,-17 657.22,-20.5 667.22,-24 667.22,-17"/>
</a>
</g>
</g>
</g>
</svg>
