<?xml version="1.0" encoding="UTF-8" standalone="no"?>
<!DOCTYPE svg PUBLIC "-//W3C//DTD SVG 1.1//EN"
 "http://www.w3.org/Graphics/SVG/1.1/DTD/svg11.dtd">
<!-- Generated by graphviz version 2.43.0 (0)
 -->
<!-- Title: Graphical Class Hierarchy Pages: 1 -->
<svg width="446pt" height="332pt"
 viewBox="0.00 0.00 446.00 332.00" xmlns="http://www.w3.org/2000/svg" xmlns:xlink="http://www.w3.org/1999/xlink">
<g id="graph0" class="graph" transform="scale(1 1) rotate(0) translate(4 328)">
<title>Graphical Class Hierarchy</title>
<polygon fill="white" stroke="transparent" points="-4,4 -4,-328 442,-328 442,4 -4,4"/>
<!-- Node417 -->
<g id="node1" class="node">
<title>Node417</title>
<g id="a_node1"><a xlink:title=" ">
<polygon fill="white" stroke="#bfbfbf" points="0,-171.5 0,-190.5 110,-190.5 110,-171.5 0,-171.5"/>
<text text-anchor="middle" x="55" y="-178.5" font-family="Helvetica,sans-Serif" font-size="10.00">QGraphicsPathItem</text>
</a>
</g>
</g>
<!-- Node0 -->
<g id="node2" class="node">
<title>Node0</title>
<g id="a_node2"><a xlink:href="d0/dde/classxii_qt_connection.htm" target="_top" xlink:title=" ">
<polygon fill="white" stroke="black" points="146,-266.5 146,-285.5 241,-285.5 241,-266.5 146,-266.5"/>
<text text-anchor="middle" x="193.5" y="-273.5" font-family="Helvetica,sans-Serif" font-size="10.00">xiiQtConnection</text>
</a>
</g>
</g>
<!-- Node417&#45;&gt;Node0 -->
<g id="edge1" class="edge">
<title>Node417&#45;&gt;Node0</title>
<path fill="none" stroke="midnightblue" d="M78.31,-196.53C106.74,-216.31 154.99,-249.89 178.62,-266.34"/>
<polygon fill="midnightblue" stroke="midnightblue" points="80.05,-193.47 69.84,-190.63 76.05,-199.22 80.05,-193.47"/>
</g>
<!-- Node421 -->
<g id="node5" class="node">
<title>Node421</title>
<g id="a_node5"><a xlink:href="d2/dfd/classxii_qt_node.htm" target="_top" xlink:title=" ">
<polygon fill="white" stroke="black" points="161,-171.5 161,-190.5 226,-190.5 226,-171.5 161,-171.5"/>
<text text-anchor="middle" x="193.5" y="-178.5" font-family="Helvetica,sans-Serif" font-size="10.00">xiiQtNode</text>
</a>
</g>
</g>
<!-- Node417&#45;&gt;Node421 -->
<g id="edge4" class="edge">
<title>Node417&#45;&gt;Node421</title>
<path fill="none" stroke="midnightblue" d="M120.47,-181C134.47,-181 148.68,-181 160.75,-181"/>
<polygon fill="midnightblue" stroke="midnightblue" points="120.34,-177.5 110.34,-181 120.34,-184.5 120.34,-177.5"/>
</g>
<!-- Node426 -->
<g id="node10" class="node">
<title>Node426</title>
<g id="a_node10"><a xlink:href="d4/d6e/classxii_qt_pin.htm" target="_top" xlink:title=" ">
<polygon fill="white" stroke="black" points="166,-57.5 166,-76.5 221,-76.5 221,-57.5 166,-57.5"/>
<text text-anchor="middle" x="193.5" y="-64.5" font-family="Helvetica,sans-Serif" font-size="10.00">xiiQtPin</text>
</a>
</g>
</g>
<!-- Node417&#45;&gt;Node426 -->
<g id="edge9" class="edge">
<title>Node417&#45;&gt;Node426</title>
<path fill="none" stroke="midnightblue" d="M75.41,-164.79C104.22,-140.73 157.44,-96.28 180.89,-76.69"/>
<polygon fill="midnightblue" stroke="midnightblue" points="73.07,-162.18 67.64,-171.28 77.56,-167.56 73.07,-162.18"/>
</g>
<!-- Node1 -->
<g id="node3" class="node">
<title>Node1</title>
<g id="a_node3"><a xlink:href="d2/d6e/classxii_qt_state_machine_connection.htm" target="_top" xlink:title=" ">
<polygon fill="white" stroke="black" points="277,-304.5 277,-323.5 438,-323.5 438,-304.5 277,-304.5"/>
<text text-anchor="middle" x="357.5" y="-311.5" font-family="Helvetica,sans-Serif" font-size="10.00">xiiQtStateMachineConnection</text>
</a>
</g>
</g>
<!-- Node0&#45;&gt;Node1 -->
<g id="edge2" class="edge">
<title>Node0&#45;&gt;Node1</title>
<path fill="none" stroke="midnightblue" d="M245.21,-287.9C267.99,-293.24 294.49,-299.45 315.91,-304.48"/>
<polygon fill="midnightblue" stroke="midnightblue" points="245.91,-284.47 235.38,-285.59 244.32,-291.28 245.91,-284.47"/>
</g>
<!-- Node2 -->
<g id="node4" class="node">
<title>Node2</title>
<g id="a_node4"><a xlink:href="dc/ded/classxii_qt_visual_script_connection.htm" target="_top" xlink:title=" ">
<polygon fill="white" stroke="black" points="281.5,-266.5 281.5,-285.5 433.5,-285.5 433.5,-266.5 281.5,-266.5"/>
<text text-anchor="middle" x="357.5" y="-273.5" font-family="Helvetica,sans-Serif" font-size="10.00">xiiQtVisualScriptConnection</text>
</a>
</g>
</g>
<!-- Node0&#45;&gt;Node2 -->
<g id="edge3" class="edge">
<title>Node0&#45;&gt;Node2</title>
<path fill="none" stroke="midnightblue" d="M251.59,-276C261.22,-276 271.35,-276 281.37,-276"/>
<polygon fill="midnightblue" stroke="midnightblue" points="251.36,-272.5 241.36,-276 251.36,-279.5 251.36,-272.5"/>
</g>
<!-- Node422 -->
<g id="node6" class="node">
<title>Node422</title>
<g id="a_node6"><a xlink:href="df/dc2/classxii_qt_animation_graph_node.htm" target="_top" xlink:title=" ">
<polygon fill="white" stroke="black" points="285,-228.5 285,-247.5 430,-247.5 430,-228.5 285,-228.5"/>
<text text-anchor="middle" x="357.5" y="-235.5" font-family="Helvetica,sans-Serif" font-size="10.00">xiiQtAnimationGraphNode</text>
</a>
</g>
</g>
<!-- Node421&#45;&gt;Node422 -->
<g id="edge5" class="edge">
<title>Node421&#45;&gt;Node422</title>
<path fill="none" stroke="midnightblue" d="M221.62,-195.14C237.45,-202.97 257.99,-212.42 277,-219 287.46,-222.62 298.93,-225.8 309.82,-228.47"/>
<polygon fill="midnightblue" stroke="midnightblue" points="222.93,-191.88 212.42,-190.51 219.78,-198.13 222.93,-191.88"/>
</g>
<!-- Node423 -->
<g id="node7" class="node">
<title>Node423</title>
<g id="a_node7"><a xlink:href="dd/d84/classxii_qt_state_machine_node.htm" target="_top" xlink:title=" ">
<polygon fill="white" stroke="black" points="291.5,-190.5 291.5,-209.5 423.5,-209.5 423.5,-190.5 291.5,-190.5"/>
<text text-anchor="middle" x="357.5" y="-197.5" font-family="Helvetica,sans-Serif" font-size="10.00">xiiQtStateMachineNode</text>
</a>
</g>
</g>
<!-- Node421&#45;&gt;Node423 -->
<g id="edge6" class="edge">
<title>Node421&#45;&gt;Node423</title>
<path fill="none" stroke="midnightblue" d="M236.17,-185.89C252.99,-187.86 272.81,-190.18 291.45,-192.37"/>
<polygon fill="midnightblue" stroke="midnightblue" points="236.46,-182.4 226.12,-184.71 235.64,-189.35 236.46,-182.4"/>
</g>
<!-- Node424 -->
<g id="node8" class="node">
<title>Node424</title>
<g id="a_node8"><a xlink:href="d0/d01/classxii_qt_visual_script_node.htm" target="_top" xlink:title=" ">
<polygon fill="white" stroke="black" points="296,-152.5 296,-171.5 419,-171.5 419,-152.5 296,-152.5"/>
<text text-anchor="middle" x="357.5" y="-159.5" font-family="Helvetica,sans-Serif" font-size="10.00">xiiQtVisualScriptNode</text>
</a>
</g>
</g>
<!-- Node421&#45;&gt;Node424 -->
<g id="edge7" class="edge">
<title>Node421&#45;&gt;Node424</title>
<path fill="none" stroke="midnightblue" d="M236.09,-176.12C254.23,-173.99 275.87,-171.46 295.77,-169.12"/>
<polygon fill="midnightblue" stroke="midnightblue" points="235.64,-172.65 226.12,-177.29 236.46,-179.6 235.64,-172.65"/>
</g>
<!-- Node425 -->
<g id="node9" class="node">
<title>Node425</title>
<g id="a_node9"><a xlink:href="dc/d68/classxii_qt_visual_shader_node.htm" target="_top" xlink:title=" ">
<polygon fill="white" stroke="black" points="293,-114.5 293,-133.5 422,-133.5 422,-114.5 293,-114.5"/>
<text text-anchor="middle" x="357.5" y="-121.5" font-family="Helvetica,sans-Serif" font-size="10.00">xiiQtVisualShaderNode</text>
</a>
</g>
</g>
<!-- Node421&#45;&gt;Node425 -->
<g id="edge8" class="edge">
<title>Node421&#45;&gt;Node425</title>
<path fill="none" stroke="midnightblue" d="M221.62,-166.86C237.45,-159.03 257.99,-149.58 277,-143 287.46,-139.38 298.93,-136.2 309.82,-133.53"/>
<polygon fill="midnightblue" stroke="midnightblue" points="219.78,-163.87 212.42,-171.49 222.93,-170.12 219.78,-163.87"/>
</g>
<!-- Node427 -->
<g id="node11" class="node">
<title>Node427</title>
<g id="a_node11"><a xlink:href="db/d56/classxii_qt_state_machine_pin.htm" target="_top" xlink:title=" ">
<polygon fill="white" stroke="black" points="296.5,-76.5 296.5,-95.5 418.5,-95.5 418.5,-76.5 296.5,-76.5"/>
<text text-anchor="middle" x="357.5" y="-83.5" font-family="Helvetica,sans-Serif" font-size="10.00">xiiQtStateMachinePin</text>
</a>
</g>
</g>
<!-- Node426&#45;&gt;Node427 -->
<g id="edge10" class="edge">
<title>Node426&#45;&gt;Node427</title>
<path fill="none" stroke="midnightblue" d="M231.39,-71.33C250.61,-73.58 274.59,-76.39 296.4,-78.95"/>
<polygon fill="midnightblue" stroke="midnightblue" points="231.59,-67.83 221.25,-70.14 230.78,-74.78 231.59,-67.83"/>
</g>
<!-- Node428 -->
<g id="node12" class="node">
<title>Node428</title>
<g id="a_node12"><a xlink:href="d2/d52/classxii_qt_visual_script_pin.htm" target="_top" xlink:title=" ">
<polygon fill="white" stroke="black" points="301,-38.5 301,-57.5 414,-57.5 414,-38.5 301,-38.5"/>
<text text-anchor="middle" x="357.5" y="-45.5" font-family="Helvetica,sans-Serif" font-size="10.00">xiiQtVisualScriptPin</text>
</a>
</g>
</g>
<!-- Node426&#45;&gt;Node428 -->
<g id="edge11" class="edge">
<title>Node426&#45;&gt;Node428</title>
<path fill="none" stroke="midnightblue" d="M231.44,-62.67C251.95,-60.26 277.88,-57.22 300.81,-54.53"/>
<polygon fill="midnightblue" stroke="midnightblue" points="230.78,-59.22 221.25,-63.86 231.59,-66.17 230.78,-59.22"/>
</g>
<!-- Node429 -->
<g id="node13" class="node">
<title>Node429</title>
<g id="a_node13"><a xlink:href="d8/dbc/classxii_qt_visual_shader_pin.htm" target="_top" xlink:title=" ">
<polygon fill="white" stroke="black" points="298,-0.5 298,-19.5 417,-19.5 417,-0.5 298,-0.5"/>
<text text-anchor="middle" x="357.5" y="-7.5" font-family="Helvetica,sans-Serif" font-size="10.00">xiiQtVisualShaderPin</text>
</a>
</g>
</g>
<!-- Node426&#45;&gt;Node429 -->
<g id="edge12" class="edge">
<title>Node426&#45;&gt;Node429</title>
<path fill="none" stroke="midnightblue" d="M221.62,-52.86C237.45,-45.03 257.99,-35.58 277,-29 287.46,-25.38 298.93,-22.2 309.82,-19.53"/>
<polygon fill="midnightblue" stroke="midnightblue" points="219.78,-49.87 212.42,-57.49 222.93,-56.12 219.78,-49.87"/>
</g>
</g>
</svg>
