<?xml version="1.0" encoding="UTF-8" standalone="no"?>
<!DOCTYPE svg PUBLIC "-//W3C//DTD SVG 1.1//EN"
 "http://www.w3.org/Graphics/SVG/1.1/DTD/svg11.dtd">
<!-- Generated by graphviz version 2.43.0 (0)
 -->
<!-- Title: Graphical Class Hierarchy Pages: 1 -->
<svg width="529pt" height="64pt"
 viewBox="0.00 0.00 529.00 64.00" xmlns="http://www.w3.org/2000/svg" xmlns:xlink="http://www.w3.org/1999/xlink">
<g id="graph0" class="graph" transform="scale(1 1) rotate(0) translate(4 60)">
<title>Graphical Class Hierarchy</title>
<!-- Node0 -->
<g id="Node000000" class="node">
<title>Node0</title>
<g id="a_Node000000"><a xlink:href="de/d33/classxii_data_directory_type.html" target="_top" xlink:title="The base class for all data directory types.">
<polygon fill="white" stroke="#666666" points="119,-37 0,-37 0,-18 119,-18 119,-37"/>
<text text-anchor="middle" x="59.5" y="-25" font-family="Helvetica,sans-Serif" font-size="10.00">xiiDataDirectoryType</text>
</a>
</g>
</g>
<!-- Node1 -->
<g id="Node000001" class="node">
<title>Node1</title>
<g id="a_Node000001"><a xlink:href="d1/d7b/classxii_data_directory_1_1_archive_type.html" target="_top" xlink:title=" ">
<polygon fill="white" stroke="#666666" points="316,-56 155,-56 155,-37 316,-37 316,-56"/>
<text text-anchor="middle" x="235.5" y="-44" font-family="Helvetica,sans-Serif" font-size="10.00">xiiDataDirectory::ArchiveType</text>
</a>
</g>
</g>
<!-- Node0&#45;&gt;Node1 -->
<g id="edge1480_Node000000_Node000001" class="edge">
<title>Node0&#45;&gt;Node1</title>
<g id="a_edge1480_Node000000_Node000001"><a xlink:title=" ">
<path fill="none" stroke="#63b8ff" d="M129.49,-35.03C137.86,-35.95 146.47,-36.89 154.98,-37.82"/>
<polygon fill="#63b8ff" stroke="#63b8ff" points="129.73,-31.54 119.41,-33.93 128.97,-38.5 129.73,-31.54"/>
</a>
</g>
</g>
<!-- Node2 -->
<g id="Node000002" class="node">
<title>Node2</title>
<g id="a_Node000002"><a xlink:href="d5/dd5/classxii_data_directory_1_1_folder_type.html" target="_top" xlink:title="A data directory type to handle access to ordinary files.">
<polygon fill="white" stroke="#666666" points="313,-19 158,-19 158,0 313,0 313,-19"/>
<text text-anchor="middle" x="235.5" y="-7" font-family="Helvetica,sans-Serif" font-size="10.00">xiiDataDirectory::FolderType</text>
</a>
</g>
</g>
<!-- Node0&#45;&gt;Node2 -->
<g id="edge1481_Node000000_Node000002" class="edge">
<title>Node0&#45;&gt;Node2</title>
<g id="a_edge1481_Node000000_Node000002"><a xlink:title=" ">
<path fill="none" stroke="#63b8ff" d="M129.39,-20.37C138.71,-19.41 148.32,-18.42 157.76,-17.44"/>
<polygon fill="#63b8ff" stroke="#63b8ff" points="129,-16.9 119.41,-21.41 129.72,-23.86 129,-16.9"/>
</a>
</g>
</g>
<!-- Node3 -->
<g id="Node000003" class="node">
<title>Node3</title>
<g id="a_Node000003"><a xlink:href="d9/df6/classxii_data_directory_1_1_fileserve_type.html" target="_top" xlink:title="A data directory type to handle access to files that are served from a network host.">
<polygon fill="white" stroke="#666666" points="521,-19 352,-19 352,0 521,0 521,-19"/>
<text text-anchor="middle" x="436.5" y="-7" font-family="Helvetica,sans-Serif" font-size="10.00">xiiDataDirectory::FileserveType</text>
</a>
</g>
</g>
<!-- Node2&#45;&gt;Node3 -->
<g id="edge1482_Node000002_Node000003" class="edge">
<title>Node2&#45;&gt;Node3</title>
<g id="a_edge1482_Node000002_Node000003"><a xlink:title=" ">
<path fill="none" stroke="#63b8ff" d="M323.37,-9.5C332.86,-9.5 342.5,-9.5 351.94,-9.5"/>
<polygon fill="#63b8ff" stroke="#63b8ff" points="323.15,-6 313.15,-9.5 323.15,-13 323.15,-6"/>
</a>
</g>
</g>
</g>
</svg>
