<?xml version="1.0" encoding="UTF-8" standalone="no"?>
<!DOCTYPE svg PUBLIC "-//W3C//DTD SVG 1.1//EN"
 "http://www.w3.org/Graphics/SVG/1.1/DTD/svg11.dtd">
<!-- Generated by graphviz version 2.43.0 (0)
 -->
<!-- Title: Graphical Class Hierarchy Pages: 1 -->
<svg width="545pt" height="60pt"
 viewBox="0.00 0.00 545.00 60.00" xmlns="http://www.w3.org/2000/svg" xmlns:xlink="http://www.w3.org/1999/xlink">
<g id="graph0" class="graph" transform="scale(1 1) rotate(0) translate(4 56)">
<title>Graphical Class Hierarchy</title>
<!-- Node0 -->
<g id="Node000000" class="node">
<title>Node0</title>
<g id="a_Node000000"><a xlink:href="da/d4c/classxii_array_base.html" target="_top" xlink:title=" ">
<polygon fill="white" stroke="#666666" points="175,-52 0,-52 0,0 175,0 175,-52"/>
<text text-anchor="start" x="8" y="-40" font-family="Helvetica,sans-Serif" font-size="10.00">xiiArrayBase&lt; typename</text>
<text text-anchor="start" x="8" y="-29" font-family="Helvetica,sans-Serif" font-size="10.00"> DataMap::Iterator, xiiDynamic</text>
<text text-anchor="start" x="8" y="-18" font-family="Helvetica,sans-Serif" font-size="10.00">ArrayBase&lt; typename DataMap</text>
<text text-anchor="middle" x="87.5" y="-7" font-family="Helvetica,sans-Serif" font-size="10.00">::Iterator &gt; &gt;</text>
</a>
</g>
</g>
<!-- Node1 -->
<g id="Node000001" class="node">
<title>Node1</title>
<g id="a_Node000001"><a xlink:href="d2/dea/classxii_dynamic_array_base.html" target="_top" xlink:title=" ">
<polygon fill="white" stroke="#666666" points="342,-46.5 211,-46.5 211,-5.5 342,-5.5 342,-46.5"/>
<text text-anchor="start" x="219" y="-34.5" font-family="Helvetica,sans-Serif" font-size="10.00">xiiDynamicArrayBase</text>
<text text-anchor="start" x="219" y="-23.5" font-family="Helvetica,sans-Serif" font-size="10.00">&lt; typename DataMap::</text>
<text text-anchor="middle" x="276.5" y="-12.5" font-family="Helvetica,sans-Serif" font-size="10.00">Iterator &gt;</text>
</a>
</g>
</g>
<!-- Node0&#45;&gt;Node1 -->
<g id="edge618_Node000000_Node000001" class="edge">
<title>Node0&#45;&gt;Node1</title>
<g id="a_edge618_Node000000_Node000001"><a xlink:title=" ">
<path fill="none" stroke="#63b8ff" d="M185.33,-26C194,-26 202.63,-26 210.92,-26"/>
<polygon fill="#63b8ff" stroke="#63b8ff" points="185.16,-22.5 175.16,-26 185.16,-29.5 185.16,-22.5"/>
</a>
</g>
</g>
<!-- Node2 -->
<g id="Node000002" class="node">
<title>Node2</title>
<g id="a_Node000002"><a xlink:href="dc/da4/classxii_dynamic_array.html" target="_top" xlink:title=" ">
<polygon fill="white" stroke="#666666" points="537,-41 378,-41 378,-11 537,-11 537,-41"/>
<text text-anchor="start" x="386" y="-29" font-family="Helvetica,sans-Serif" font-size="10.00">xiiDynamicArray&lt; typename</text>
<text text-anchor="middle" x="457.5" y="-18" font-family="Helvetica,sans-Serif" font-size="10.00"> DataMap::Iterator &gt;</text>
</a>
</g>
</g>
<!-- Node1&#45;&gt;Node2 -->
<g id="edge619_Node000001_Node000002" class="edge">
<title>Node1&#45;&gt;Node2</title>
<g id="a_edge619_Node000001_Node000002"><a xlink:title=" ">
<path fill="none" stroke="#63b8ff" d="M352.33,-26C360.78,-26 369.42,-26 377.92,-26"/>
<polygon fill="#63b8ff" stroke="#63b8ff" points="352.12,-22.5 342.12,-26 352.12,-29.5 352.12,-22.5"/>
</a>
</g>
</g>
</g>
</svg>
