<?xml version="1.0" encoding="UTF-8" standalone="no"?>
<!DOCTYPE svg PUBLIC "-//W3C//DTD SVG 1.1//EN"
 "http://www.w3.org/Graphics/SVG/1.1/DTD/svg11.dtd">
<!-- Generated by graphviz version 2.43.0 (0)
 -->
<!-- Title: Graphical Class Hierarchy Pages: 1 -->
<svg width="885pt" height="98pt"
 viewBox="0.00 0.00 885.00 97.50" xmlns="http://www.w3.org/2000/svg" xmlns:xlink="http://www.w3.org/1999/xlink">
<g id="graph0" class="graph" transform="scale(1 1) rotate(0) translate(4 93.5)">
<title>Graphical Class Hierarchy</title>
<!-- Node0 -->
<g id="Node000000" class="node">
<title>Node0</title>
<g id="a_Node000000"><a xlink:href="da/d4c/classxii_array_base.htm" target="_top" xlink:title=" ">
<polygon fill="white" stroke="#666666" points="221,-68 0,-68 0,-27 221,-27 221,-68"/>
<text text-anchor="start" x="8" y="-56" font-family="Helvetica,sans-Serif" font-size="10.00">xiiArrayBase&lt; xiiRenderPipeline</text>
<text text-anchor="start" x="8" y="-45" font-family="Helvetica,sans-Serif" font-size="10.00">PassConnection *, xiiDynamicArrayBase</text>
<text text-anchor="middle" x="110.5" y="-34" font-family="Helvetica,sans-Serif" font-size="10.00">&lt; xiiRenderPipelinePassConnection * &gt; &gt;</text>
</a>
</g>
</g>
<!-- Node1 -->
<g id="Node000001" class="node">
<title>Node1</title>
<g id="a_Node000001"><a xlink:href="d2/dea/classxii_dynamic_array_base.htm" target="_top" xlink:title=" ">
<polygon fill="white" stroke="#666666" points="466,-62.5 257,-62.5 257,-32.5 466,-32.5 466,-62.5"/>
<text text-anchor="start" x="265" y="-50.5" font-family="Helvetica,sans-Serif" font-size="10.00">xiiDynamicArrayBase</text>
<text text-anchor="middle" x="361.5" y="-39.5" font-family="Helvetica,sans-Serif" font-size="10.00">&lt; xiiRenderPipelinePassConnection * &gt;</text>
</a>
</g>
</g>
<!-- Node0&#45;&gt;Node1 -->
<g id="edge1168_Node000000_Node000001" class="edge">
<title>Node0&#45;&gt;Node1</title>
<g id="a_edge1168_Node000000_Node000001"><a xlink:title=" ">
<path fill="none" stroke="#63b8ff" d="M231.13,-47.5C239.71,-47.5 248.33,-47.5 256.81,-47.5"/>
<polygon fill="#63b8ff" stroke="#63b8ff" points="231.08,-44 221.08,-47.5 231.08,-51 231.08,-44"/>
</a>
</g>
</g>
<!-- Node2 -->
<g id="Node000002" class="node">
<title>Node2</title>
<g id="a_Node000002"><a xlink:href="dc/da4/classxii_dynamic_array.htm" target="_top" xlink:title=" ">
<polygon fill="white" stroke="#666666" points="667.5,-89.5 511.5,-89.5 511.5,-59.5 667.5,-59.5 667.5,-89.5"/>
<text text-anchor="start" x="519.5" y="-77.5" font-family="Helvetica,sans-Serif" font-size="10.00">xiiDynamicArray&lt; xiiRender</text>
<text text-anchor="middle" x="589.5" y="-66.5" font-family="Helvetica,sans-Serif" font-size="10.00">PipelinePassConnection * &gt;</text>
</a>
</g>
</g>
<!-- Node1&#45;&gt;Node2 -->
<g id="edge1169_Node000001_Node000002" class="edge">
<title>Node1&#45;&gt;Node2</title>
<g id="a_edge1169_Node000001_Node000002"><a xlink:title=" ">
<path fill="none" stroke="#63b8ff" d="M476.24,-61.09C488.15,-62.51 500.05,-63.93 511.41,-65.29"/>
<polygon fill="#63b8ff" stroke="#63b8ff" points="476.58,-57.6 466.24,-59.89 475.75,-64.56 476.58,-57.6"/>
</a>
</g>
</g>
<!-- Node3 -->
<g id="Node000003" class="node">
<title>Node3</title>
<g id="a_Node000003"><a xlink:href="dc/da4/classxii_dynamic_array.htm" target="_top" xlink:title=" ">
<polygon fill="white" stroke="#666666" points="677,-41 502,-41 502,0 677,0 677,-41"/>
<text text-anchor="start" x="510" y="-29" font-family="Helvetica,sans-Serif" font-size="10.00">xiiDynamicArray&lt; xiiRender</text>
<text text-anchor="start" x="510" y="-18" font-family="Helvetica,sans-Serif" font-size="10.00">PipelinePassConnection</text>
<text text-anchor="middle" x="589.5" y="-7" font-family="Helvetica,sans-Serif" font-size="10.00"> *, xiiDefaultAllocatorWrapper &gt;</text>
</a>
</g>
</g>
<!-- Node1&#45;&gt;Node3 -->
<g id="edge1170_Node000001_Node000003" class="edge">
<title>Node1&#45;&gt;Node3</title>
<g id="a_edge1170_Node000001_Node000003"><a xlink:title=" ">
<path fill="none" stroke="#63b8ff" d="M476.35,-33.9C484.96,-32.87 493.57,-31.84 501.97,-30.84"/>
<polygon fill="#63b8ff" stroke="#63b8ff" points="475.75,-30.44 466.24,-35.11 476.58,-37.4 475.75,-30.44"/>
</a>
</g>
</g>
<!-- Node4 -->
<g id="Node000004" class="node">
<title>Node4</title>
<g id="a_Node000004"><a xlink:href="dc/da9/classxii_hybrid_array.htm" target="_top" xlink:title=" ">
<polygon fill="white" stroke="#666666" points="877,-35.5 713,-35.5 713,-5.5 877,-5.5 877,-35.5"/>
<text text-anchor="start" x="721" y="-23.5" font-family="Helvetica,sans-Serif" font-size="10.00">xiiHybridArray&lt; xiiRender</text>
<text text-anchor="middle" x="795" y="-12.5" font-family="Helvetica,sans-Serif" font-size="10.00">PipelinePassConnection *, 4 &gt;</text>
</a>
</g>
</g>
<!-- Node3&#45;&gt;Node4 -->
<g id="edge1171_Node000003_Node000004" class="edge">
<title>Node3&#45;&gt;Node4</title>
<g id="a_edge1171_Node000003_Node000004"><a xlink:title=" ">
<path fill="none" stroke="#63b8ff" d="M687.19,-20.5C695.82,-20.5 704.5,-20.5 712.97,-20.5"/>
<polygon fill="#63b8ff" stroke="#63b8ff" points="687.1,-17 677.1,-20.5 687.1,-24 687.1,-17"/>
</a>
</g>
</g>
</g>
</svg>
