<?xml version="1.0" encoding="UTF-8" standalone="no"?>
<!DOCTYPE svg PUBLIC "-//W3C//DTD SVG 1.1//EN"
 "http://www.w3.org/Graphics/SVG/1.1/DTD/svg11.dtd">
<!-- Generated by graphviz version 2.43.0 (0)
 -->
<!-- Title: Graphical Class Hierarchy Pages: 1 -->
<svg width="816pt" height="314pt"
 viewBox="0.00 0.00 816.00 314.00" xmlns="http://www.w3.org/2000/svg" xmlns:xlink="http://www.w3.org/1999/xlink">
<g id="graph0" class="graph" transform="scale(1 1) rotate(0) translate(4 310)">
<title>Graphical Class Hierarchy</title>
<!-- Node0 -->
<g id="Node000000" class="node">
<title>Node0</title>
<g id="a_Node000000"><a xlink:title=" ">
<polygon fill="#e0e0e0" stroke="#999999" points="56,-148 0,-148 0,-129 56,-129 56,-148"/>
<text text-anchor="middle" x="28" y="-136" font-family="Helvetica,sans-Serif" font-size="10.00">QObject</text>
</a>
</g>
</g>
<!-- Node1 -->
<g id="Node000001" class="node">
<title>Node1</title>
<g id="a_Node000001"><a xlink:href="df/d86/class_page_downloader.html" target="_top" xlink:title=" ">
<polygon fill="white" stroke="#666666" points="230.5,-296 132.5,-296 132.5,-277 230.5,-277 230.5,-296"/>
<text text-anchor="middle" x="181.5" y="-284" font-family="Helvetica,sans-Serif" font-size="10.00">PageDownloader</text>
</a>
</g>
</g>
<!-- Node0&#45;&gt;Node1 -->
<g id="edge191_Node000000_Node000001" class="edge">
<title>Node0&#45;&gt;Node1</title>
<g id="a_edge191_Node000000_Node000001"><a xlink:title=" ">
<path fill="none" stroke="#63b8ff" d="M32.82,-158.28C39.5,-187.22 56.15,-240.67 92,-268.5 103.39,-277.35 118.03,-282.16 132.1,-284.69"/>
<polygon fill="#63b8ff" stroke="#63b8ff" points="36.18,-157.22 30.67,-148.17 29.33,-158.68 36.18,-157.22"/>
</a>
</g>
</g>
<!-- Node2 -->
<g id="Node000002" class="node">
<title>Node2</title>
<g id="a_Node000002"><a xlink:href="d6/de1/classxii_qt_asset_filter.html" target="_top" xlink:title="Interface class of the asset filter used to decide which items are shown in the asset browser.">
<polygon fill="white" stroke="#666666" points="227.5,-259 135.5,-259 135.5,-240 227.5,-240 227.5,-259"/>
<text text-anchor="middle" x="181.5" y="-247" font-family="Helvetica,sans-Serif" font-size="10.00">xiiQtAssetFilter</text>
</a>
</g>
</g>
<!-- Node0&#45;&gt;Node2 -->
<g id="edge192_Node000000_Node000002" class="edge">
<title>Node0&#45;&gt;Node2</title>
<g id="a_edge192_Node000000_Node000002"><a xlink:title=" ">
<path fill="none" stroke="#63b8ff" d="M40.31,-156.44C51.63,-173.16 70.42,-197.79 92,-213.5 108.23,-225.31 128.89,-234 146.16,-239.88"/>
<polygon fill="#63b8ff" stroke="#63b8ff" points="43.23,-154.52 34.82,-148.08 37.38,-158.36 43.23,-154.52"/>
</a>
</g>
</g>
<!-- Node5 -->
<g id="Node000005" class="node">
<title>Node5</title>
<g id="a_Node000005"><a xlink:href="d5/d1b/classxii_qt_document_tree_model_adapter.html" target="_top" xlink:title="Adapter that defines data for specific type in the xiiQtDocumentTreeModel.">
<polygon fill="white" stroke="#666666" points="271,-204 92,-204 92,-185 271,-185 271,-204"/>
<text text-anchor="middle" x="181.5" y="-192" font-family="Helvetica,sans-Serif" font-size="10.00">xiiQtDocumentTreeModelAdapter</text>
</a>
</g>
</g>
<!-- Node0&#45;&gt;Node5 -->
<g id="edge195_Node000000_Node000005" class="edge">
<title>Node0&#45;&gt;Node5</title>
<g id="a_edge195_Node000000_Node000005"><a xlink:title=" ">
<path fill="none" stroke="#63b8ff" d="M50.12,-153.74C61.92,-161.61 77.21,-170.73 92,-176.5 100.62,-179.86 109.97,-182.63 119.25,-184.9"/>
<polygon fill="#63b8ff" stroke="#63b8ff" points="52.06,-150.83 41.83,-148.05 48.09,-156.6 52.06,-150.83"/>
</a>
</g>
</g>
<!-- Node12 -->
<g id="Node000012" class="node">
<title>Node12</title>
<g id="a_Node000012"><a xlink:href="d1/d83/classxii_qt_editor_app.html" target="_top" xlink:title=" ">
<polygon fill="white" stroke="#666666" points="225,-167 138,-167 138,-148 225,-148 225,-167"/>
<text text-anchor="middle" x="181.5" y="-155" font-family="Helvetica,sans-Serif" font-size="10.00">xiiQtEditorApp</text>
</a>
</g>
</g>
<!-- Node0&#45;&gt;Node12 -->
<g id="edge202_Node000000_Node000012" class="edge">
<title>Node0&#45;&gt;Node12</title>
<g id="a_edge202_Node000000_Node000012"><a xlink:title=" ">
<path fill="none" stroke="#63b8ff" d="M66.23,-143.17C87.92,-145.89 115.36,-149.33 137.91,-152.16"/>
<polygon fill="#63b8ff" stroke="#63b8ff" points="66.44,-139.67 56.09,-141.9 65.57,-146.61 66.44,-139.67"/>
</a>
</g>
</g>
<!-- Node13 -->
<g id="Node000013" class="node">
<title>Node13</title>
<g id="a_Node000013"><a xlink:href="d1/d47/classxii_qt_image_cache.html" target="_top" xlink:title="A singleton class that caches Qt images that are typically used for thumbnails.">
<polygon fill="white" stroke="#666666" points="232,-130 131,-130 131,-111 232,-111 232,-130"/>
<text text-anchor="middle" x="181.5" y="-118" font-family="Helvetica,sans-Serif" font-size="10.00">xiiQtImageCache</text>
</a>
</g>
</g>
<!-- Node0&#45;&gt;Node13 -->
<g id="edge203_Node000000_Node000013" class="edge">
<title>Node0&#45;&gt;Node13</title>
<g id="a_edge203_Node000000_Node000013"><a xlink:title=" ">
<path fill="none" stroke="#63b8ff" d="M66.12,-134.09C85.66,-131.77 109.88,-128.89 130.99,-126.38"/>
<polygon fill="#63b8ff" stroke="#63b8ff" points="65.6,-130.63 56.09,-135.28 66.43,-137.58 65.6,-130.63"/>
</a>
</g>
</g>
<!-- Node14 -->
<g id="Node000014" class="node">
<title>Node14</title>
<g id="a_Node000014"><a xlink:href="d7/da8/classxii_qt_proxy.html" target="_top" xlink:title="Glue class that maps xiiActions to QActions. QActions are only created if the xiiAction is actually m...">
<polygon fill="white" stroke="#666666" points="215.5,-93 147.5,-93 147.5,-74 215.5,-74 215.5,-93"/>
<text text-anchor="middle" x="181.5" y="-81" font-family="Helvetica,sans-Serif" font-size="10.00">xiiQtProxy</text>
</a>
</g>
</g>
<!-- Node0&#45;&gt;Node14 -->
<g id="edge204_Node000000_Node000014" class="edge">
<title>Node0&#45;&gt;Node14</title>
<g id="a_edge204_Node000000_Node000014"><a xlink:title=" ">
<path fill="none" stroke="#63b8ff" d="M51.51,-123.38C63.17,-116.14 77.89,-107.9 92,-102.5 109.76,-95.71 130.5,-91.09 147.44,-88.11"/>
<polygon fill="#63b8ff" stroke="#63b8ff" points="49.43,-120.55 42.89,-128.89 53.2,-126.45 49.43,-120.55"/>
</a>
</g>
</g>
<!-- Node22 -->
<g id="Node000022" class="node">
<title>Node22</title>
<g id="a_Node000022"><a xlink:href="d0/db6/classxii_qt_ui_services.html" target="_top" xlink:title=" ">
<polygon fill="white" stroke="#666666" points="227.5,-56 135.5,-56 135.5,-37 227.5,-37 227.5,-56"/>
<text text-anchor="middle" x="181.5" y="-44" font-family="Helvetica,sans-Serif" font-size="10.00">xiiQtUiServices</text>
</a>
</g>
</g>
<!-- Node0&#45;&gt;Node22 -->
<g id="edge212_Node000000_Node000022" class="edge">
<title>Node0&#45;&gt;Node22</title>
<g id="a_edge212_Node000000_Node000022"><a xlink:title=" ">
<path fill="none" stroke="#63b8ff" d="M39.58,-120.15C50.48,-102.99 69.07,-78.03 92,-64.5 104.96,-56.85 120.65,-52.41 135.19,-49.84"/>
<polygon fill="#63b8ff" stroke="#63b8ff" points="36.55,-118.4 34.34,-128.76 42.53,-122.04 36.55,-118.4"/>
</a>
</g>
</g>
<!-- Node23 -->
<g id="Node000023" class="node">
<title>Node23</title>
<g id="a_Node000023"><a xlink:href="da/da2/classxii_qt_version_checker.html" target="_top" xlink:title="Downloads a web page and checks whether the latest version online is newer than the current one.">
<polygon fill="white" stroke="#666666" points="239,-19 124,-19 124,0 239,0 239,-19"/>
<text text-anchor="middle" x="181.5" y="-7" font-family="Helvetica,sans-Serif" font-size="10.00">xiiQtVersionChecker</text>
</a>
</g>
</g>
<!-- Node0&#45;&gt;Node23 -->
<g id="edge213_Node000000_Node000023" class="edge">
<title>Node0&#45;&gt;Node23</title>
<g id="a_edge213_Node000000_Node000023"><a xlink:title=" ">
<path fill="none" stroke="#63b8ff" d="M34.49,-119.07C42.68,-93.82 60.6,-50.28 92,-27.5 101.26,-20.78 112.44,-16.43 123.69,-13.64"/>
<polygon fill="#63b8ff" stroke="#63b8ff" points="31.05,-118.37 31.48,-128.95 37.74,-120.41 31.05,-118.37"/>
</a>
</g>
</g>
<!-- Node3 -->
<g id="Node000003" class="node">
<title>Node3</title>
<g id="a_Node000003"><a xlink:href="d0/db0/classxii_qt_asset_browser_filter.html" target="_top" xlink:title=" ">
<polygon fill="white" stroke="#666666" points="438,-306 307,-306 307,-287 438,-287 438,-306"/>
<text text-anchor="middle" x="372.5" y="-294" font-family="Helvetica,sans-Serif" font-size="10.00">xiiQtAssetBrowserFilter</text>
</a>
</g>
</g>
<!-- Node2&#45;&gt;Node3 -->
<g id="edge193_Node000002_Node000003" class="edge">
<title>Node2&#45;&gt;Node3</title>
<g id="a_edge193_Node000002_Node000003"><a xlink:title=" ">
<path fill="none" stroke="#63b8ff" d="M237.65,-260.8C248.72,-263.22 260.25,-265.85 271,-268.5 271.85,-268.71 308.51,-278.93 337.31,-286.96"/>
<polygon fill="#63b8ff" stroke="#63b8ff" points="238.16,-257.33 227.64,-258.64 236.68,-264.17 238.16,-257.33"/>
</a>
</g>
</g>
<!-- Node4 -->
<g id="Node000004" class="node">
<title>Node4</title>
<g id="a_Node000004"><a xlink:href="d2/dae/classxii_qt_asset_curator_filter.html" target="_top" xlink:title=" ">
<polygon fill="white" stroke="#666666" points="436.5,-269 308.5,-269 308.5,-250 436.5,-250 436.5,-269"/>
<text text-anchor="middle" x="372.5" y="-257" font-family="Helvetica,sans-Serif" font-size="10.00">xiiQtAssetCuratorFilter</text>
</a>
</g>
</g>
<!-- Node2&#45;&gt;Node4 -->
<g id="edge194_Node000002_Node000004" class="edge">
<title>Node2&#45;&gt;Node4</title>
<g id="a_edge194_Node000002_Node000004"><a xlink:title=" ">
<path fill="none" stroke="#63b8ff" d="M237.98,-252.44C260.06,-253.6 285.59,-254.95 308.38,-256.16"/>
<polygon fill="#63b8ff" stroke="#63b8ff" points="237.94,-248.93 227.77,-251.9 237.57,-255.92 237.94,-248.93"/>
</a>
</g>
</g>
<!-- Node6 -->
<g id="Node000006" class="node">
<title>Node6</title>
<g id="a_Node000006"><a xlink:href="d6/d97/classxii_qt_dummy_adapter.html" target="_top" xlink:title="Convenience class that returns the typename as Qt::DisplayRole. Use this for testing or for the docum...">
<polygon fill="white" stroke="#666666" points="431,-232 314,-232 314,-213 431,-213 431,-232"/>
<text text-anchor="middle" x="372.5" y="-220" font-family="Helvetica,sans-Serif" font-size="10.00">xiiQtDummyAdapter</text>
</a>
</g>
</g>
<!-- Node5&#45;&gt;Node6 -->
<g id="edge196_Node000005_Node000006" class="edge">
<title>Node5&#45;&gt;Node6</title>
<g id="a_edge196_Node000005_Node000006"><a xlink:title=" ">
<path fill="none" stroke="#63b8ff" d="M256.83,-205.51C275.75,-208.32 295.81,-211.29 313.77,-213.95"/>
<polygon fill="#63b8ff" stroke="#63b8ff" points="257.16,-202.02 246.75,-204.02 256.13,-208.95 257.16,-202.02"/>
</a>
</g>
</g>
<!-- Node7 -->
<g id="Node000007" class="node">
<title>Node7</title>
<g id="a_Node000007"><a xlink:href="d8/dc3/classxii_qt_layer_adapter.html" target="_top" xlink:title="Custom adapter for layers, used in xiiQtLayerPanel.">
<polygon fill="white" stroke="#666666" points="425,-195 320,-195 320,-176 425,-176 425,-195"/>
<text text-anchor="middle" x="372.5" y="-183" font-family="Helvetica,sans-Serif" font-size="10.00">xiiQtLayerAdapter</text>
</a>
</g>
</g>
<!-- Node5&#45;&gt;Node7 -->
<g id="edge197_Node000005_Node000007" class="edge">
<title>Node5&#45;&gt;Node7</title>
<g id="a_edge197_Node000005_Node000007"><a xlink:title=" ">
<path fill="none" stroke="#63b8ff" d="M281.37,-189.79C294.68,-189.16 307.87,-188.53 319.89,-187.96"/>
<polygon fill="#63b8ff" stroke="#63b8ff" points="281.01,-186.3 271.19,-190.28 281.34,-193.3 281.01,-186.3"/>
</a>
</g>
</g>
<!-- Node8 -->
<g id="Node000008" class="node">
<title>Node8</title>
<g id="a_Node000008"><a xlink:href="d2/d9c/classxii_qt_named_adapter.html" target="_top" xlink:title="Convenience class that implements getting the name via a property on the object.">
<polygon fill="white" stroke="#666666" points="429,-158 316,-158 316,-139 429,-139 429,-158"/>
<text text-anchor="middle" x="372.5" y="-146" font-family="Helvetica,sans-Serif" font-size="10.00">xiiQtNamedAdapter</text>
</a>
</g>
</g>
<!-- Node5&#45;&gt;Node8 -->
<g id="edge198_Node000005_Node000008" class="edge">
<title>Node5&#45;&gt;Node8</title>
<g id="a_edge198_Node000005_Node000008"><a xlink:title=" ">
<path fill="none" stroke="#63b8ff" d="M242.55,-182.89C252.1,-180.87 261.84,-178.71 271,-176.5 294.07,-170.95 319.84,-163.75 339.52,-158.04"/>
<polygon fill="#63b8ff" stroke="#63b8ff" points="241.79,-179.47 232.72,-184.93 243.22,-186.32 241.79,-179.47"/>
</a>
</g>
</g>
<!-- Node9 -->
<g id="Node000009" class="node">
<title>Node9</title>
<g id="a_Node000009"><a xlink:href="d9/d68/classxii_qt_joint_adapter.html" target="_top" xlink:title=" ">
<polygon fill="white" stroke="#666666" points="593,-195 493,-195 493,-176 593,-176 593,-195"/>
<text text-anchor="middle" x="543" y="-183" font-family="Helvetica,sans-Serif" font-size="10.00">xiiQtJointAdapter</text>
</a>
</g>
</g>
<!-- Node8&#45;&gt;Node9 -->
<g id="edge199_Node000008_Node000009" class="edge">
<title>Node8&#45;&gt;Node9</title>
<g id="a_edge199_Node000008_Node000009"><a xlink:title=" ">
<path fill="none" stroke="#63b8ff" d="M426.87,-160.22C449.95,-165.29 476.61,-171.14 498.46,-175.94"/>
<polygon fill="#63b8ff" stroke="#63b8ff" points="427.41,-156.75 416.89,-158.03 425.91,-163.59 427.41,-156.75"/>
</a>
</g>
</g>
<!-- Node10 -->
<g id="Node000010" class="node">
<title>Node10</title>
<g id="a_Node000010"><a xlink:href="de/d29/classxii_qt_nameable_adapter.html" target="_top" xlink:title="Convenience class that implements setting the name via a property on the object.">
<polygon fill="white" stroke="#666666" points="607,-158 479,-158 479,-139 607,-139 607,-158"/>
<text text-anchor="middle" x="543" y="-146" font-family="Helvetica,sans-Serif" font-size="10.00">xiiQtNameableAdapter</text>
</a>
</g>
</g>
<!-- Node8&#45;&gt;Node10 -->
<g id="edge200_Node000008_Node000010" class="edge">
<title>Node8&#45;&gt;Node10</title>
<g id="a_edge200_Node000008_Node000010"><a xlink:title=" ">
<path fill="none" stroke="#63b8ff" d="M439.39,-148.5C452.37,-148.5 465.96,-148.5 478.84,-148.5"/>
<polygon fill="#63b8ff" stroke="#63b8ff" points="439.14,-145 429.14,-148.5 439.14,-152 439.14,-145"/>
</a>
</g>
</g>
<!-- Node11 -->
<g id="Node000011" class="node">
<title>Node11</title>
<g id="a_Node000011"><a xlink:href="d5/d21/classxii_qt_game_object_adapter.html" target="_top" xlink:title=" ">
<polygon fill="white" stroke="#666666" points="797.5,-158 658.5,-158 658.5,-139 797.5,-139 797.5,-158"/>
<text text-anchor="middle" x="728" y="-146" font-family="Helvetica,sans-Serif" font-size="10.00">xiiQtGameObjectAdapter</text>
</a>
</g>
</g>
<!-- Node10&#45;&gt;Node11 -->
<g id="edge201_Node000010_Node000011" class="edge">
<title>Node10&#45;&gt;Node11</title>
<g id="a_edge201_Node000010_Node000011"><a xlink:title=" ">
<path fill="none" stroke="#63b8ff" d="M617.46,-148.5C630.99,-148.5 645.07,-148.5 658.45,-148.5"/>
<polygon fill="#63b8ff" stroke="#63b8ff" points="617.23,-145 607.23,-148.5 617.23,-152 617.23,-145"/>
</a>
</g>
</g>
<!-- Node15 -->
<g id="Node000015" class="node">
<title>Node15</title>
<g id="a_Node000015"><a xlink:href="d9/d4f/classxii_qt_action_proxy.html" target="_top" xlink:title=" ">
<polygon fill="white" stroke="#666666" points="421.5,-121 323.5,-121 323.5,-102 421.5,-102 421.5,-121"/>
<text text-anchor="middle" x="372.5" y="-109" font-family="Helvetica,sans-Serif" font-size="10.00">xiiQtActionProxy</text>
</a>
</g>
</g>
<!-- Node14&#45;&gt;Node15 -->
<g id="edge205_Node000014_Node000015" class="edge">
<title>Node14&#45;&gt;Node15</title>
<g id="a_edge205_Node000014_Node000015"><a xlink:title=" ">
<path fill="none" stroke="#63b8ff" d="M226.1,-89.96C255.13,-94.26 293.28,-99.91 323.23,-104.35"/>
<polygon fill="#63b8ff" stroke="#63b8ff" points="226.26,-86.44 215.85,-88.44 225.23,-93.37 226.26,-86.44"/>
</a>
</g>
</g>
<!-- Node18 -->
<g id="Node000018" class="node">
<title>Node18</title>
<g id="a_Node000018"><a xlink:href="d3/d29/classxii_qt_category_proxy.html" target="_top" xlink:title=" ">
<polygon fill="white" stroke="#666666" points="428.5,-84 316.5,-84 316.5,-65 428.5,-65 428.5,-84"/>
<text text-anchor="middle" x="372.5" y="-72" font-family="Helvetica,sans-Serif" font-size="10.00">xiiQtCategoryProxy</text>
</a>
</g>
</g>
<!-- Node14&#45;&gt;Node18 -->
<g id="edge208_Node000014_Node000018" class="edge">
<title>Node14&#45;&gt;Node18</title>
<g id="a_edge208_Node000014_Node000018"><a xlink:title=" ">
<path fill="none" stroke="#63b8ff" d="M226.09,-81.42C252.92,-80.15 287.54,-78.5 316.27,-77.13"/>
<polygon fill="#63b8ff" stroke="#63b8ff" points="225.68,-77.94 215.85,-81.91 226.01,-84.93 225.68,-77.94"/>
</a>
</g>
</g>
<!-- Node19 -->
<g id="Node000019" class="node">
<title>Node19</title>
<g id="a_Node000019"><a xlink:href="d8/d45/classxii_qt_menu_proxy.html" target="_top" xlink:title=" ">
<polygon fill="white" stroke="#666666" points="420,-47 325,-47 325,-28 420,-28 420,-47"/>
<text text-anchor="middle" x="372.5" y="-35" font-family="Helvetica,sans-Serif" font-size="10.00">xiiQtMenuProxy</text>
</a>
</g>
</g>
<!-- Node14&#45;&gt;Node19 -->
<g id="edge209_Node000014_Node000019" class="edge">
<title>Node14&#45;&gt;Node19</title>
<g id="a_edge209_Node000014_Node000019"><a xlink:title=" ">
<path fill="none" stroke="#63b8ff" d="M225.92,-74.64C240.31,-71.58 256.37,-68.03 271,-64.5 293.3,-59.11 318.21,-52.43 337.65,-47.06"/>
<polygon fill="#63b8ff" stroke="#63b8ff" points="224.86,-71.29 215.79,-76.77 226.3,-78.14 224.86,-71.29"/>
</a>
</g>
</g>
<!-- Node16 -->
<g id="Node000016" class="node">
<title>Node16</title>
<g id="a_Node000016"><a xlink:href="d8/d99/classxii_qt_button_proxy.html" target="_top" xlink:title=" ">
<polygon fill="white" stroke="#666666" points="593,-121 493,-121 493,-102 593,-102 593,-121"/>
<text text-anchor="middle" x="543" y="-109" font-family="Helvetica,sans-Serif" font-size="10.00">xiiQtButtonProxy</text>
</a>
</g>
</g>
<!-- Node15&#45;&gt;Node16 -->
<g id="edge206_Node000015_Node000016" class="edge">
<title>Node15&#45;&gt;Node16</title>
<g id="a_edge206_Node000015_Node000016"><a xlink:title=" ">
<path fill="none" stroke="#63b8ff" d="M431.95,-111.5C451.8,-111.5 473.77,-111.5 492.83,-111.5"/>
<polygon fill="#63b8ff" stroke="#63b8ff" points="431.79,-108 421.79,-111.5 431.79,-115 431.79,-108"/>
</a>
</g>
</g>
<!-- Node17 -->
<g id="Node000017" class="node">
<title>Node17</title>
<g id="a_Node000017"><a xlink:href="da/dfe/classxii_qt_slider_proxy.html" target="_top" xlink:title=" ">
<polygon fill="white" stroke="#666666" points="590.5,-84 495.5,-84 495.5,-65 590.5,-65 590.5,-84"/>
<text text-anchor="middle" x="543" y="-72" font-family="Helvetica,sans-Serif" font-size="10.00">xiiQtSliderProxy</text>
</a>
</g>
</g>
<!-- Node15&#45;&gt;Node17 -->
<g id="edge207_Node000015_Node000017" class="edge">
<title>Node15&#45;&gt;Node17</title>
<g id="a_edge207_Node000015_Node000017"><a xlink:title=" ">
<path fill="none" stroke="#63b8ff" d="M426.87,-99.78C449.95,-94.71 476.61,-88.86 498.46,-84.06"/>
<polygon fill="#63b8ff" stroke="#63b8ff" points="425.91,-96.41 416.89,-101.97 427.41,-103.25 425.91,-96.41"/>
</a>
</g>
</g>
<!-- Node20 -->
<g id="Node000020" class="node">
<title>Node20</title>
<g id="a_Node000020"><a xlink:href="d0/de2/classxii_qt_dynamic_menu_proxy.html" target="_top" xlink:title=" ">
<polygon fill="white" stroke="#666666" points="612,-47 474,-47 474,-28 612,-28 612,-47"/>
<text text-anchor="middle" x="543" y="-35" font-family="Helvetica,sans-Serif" font-size="10.00">xiiQtDynamicMenuProxy</text>
</a>
</g>
</g>
<!-- Node19&#45;&gt;Node20 -->
<g id="edge210_Node000019_Node000020" class="edge">
<title>Node19&#45;&gt;Node20</title>
<g id="a_edge210_Node000019_Node000020"><a xlink:title=" ">
<path fill="none" stroke="#63b8ff" d="M430.79,-37.5C444.65,-37.5 459.6,-37.5 473.9,-37.5"/>
<polygon fill="#63b8ff" stroke="#63b8ff" points="430.44,-34 420.44,-37.5 430.44,-41 430.44,-34"/>
</a>
</g>
</g>
<!-- Node21 -->
<g id="Node000021" class="node">
<title>Node21</title>
<g id="a_Node000021"><a xlink:href="d1/d3d/classxii_qt_dynamic_action_and_menu_proxy.html" target="_top" xlink:title=" ">
<polygon fill="white" stroke="#666666" points="808,-52.5 648,-52.5 648,-22.5 808,-22.5 808,-52.5"/>
<text text-anchor="start" x="656" y="-40.5" font-family="Helvetica,sans-Serif" font-size="10.00">xiiQtDynamicActionAndMenu</text>
<text text-anchor="middle" x="728" y="-29.5" font-family="Helvetica,sans-Serif" font-size="10.00">Proxy</text>
</a>
</g>
</g>
<!-- Node20&#45;&gt;Node21 -->
<g id="edge211_Node000020_Node000021" class="edge">
<title>Node20&#45;&gt;Node21</title>
<g id="a_edge211_Node000020_Node000021"><a xlink:title=" ">
<path fill="none" stroke="#63b8ff" d="M622.3,-37.5C630.71,-37.5 639.27,-37.5 647.69,-37.5"/>
<polygon fill="#63b8ff" stroke="#63b8ff" points="622.14,-34 612.14,-37.5 622.14,-41 622.14,-34"/>
</a>
</g>
</g>
</g>
</svg>
