<?xml version="1.0" encoding="UTF-8" standalone="no"?>
<!DOCTYPE svg PUBLIC "-//W3C//DTD SVG 1.1//EN"
 "http://www.w3.org/Graphics/SVG/1.1/DTD/svg11.dtd">
<!-- Generated by graphviz version 2.43.0 (0)
 -->
<!-- Title: Graphical Class Hierarchy Pages: 1 -->
<svg width="460pt" height="66pt"
 viewBox="0.00 0.00 460.00 66.00" xmlns="http://www.w3.org/2000/svg" xmlns:xlink="http://www.w3.org/1999/xlink">
<g id="graph0" class="graph" transform="scale(1 1) rotate(0) translate(4 62)">
<title>Graphical Class Hierarchy</title>
<polygon fill="white" stroke="transparent" points="-4,4 -4,-62 456,-62 456,4 -4,4"/>
<!-- Node522 -->
<g id="node1" class="node">
<title>Node522</title>
<g id="a_node1"><a xlink:title=" ">
<polygon fill="white" stroke="#bfbfbf" points="0,-19.5 0,-38.5 68,-38.5 68,-19.5 0,-19.5"/>
<text text-anchor="middle" x="34" y="-26.5" font-family="Helvetica,sans-Serif" font-size="10.00">QTreeView</text>
</a>
</g>
</g>
<!-- Node0 -->
<g id="node2" class="node">
<title>Node0</title>
<g id="a_node2"><a xlink:href="d9/daa/classxii_qt_item_view.htm" target="_top" xlink:title=" ">
<polygon fill="white" stroke="black" points="112.5,-38.5 112.5,-57.5 273.5,-57.5 273.5,-38.5 112.5,-38.5"/>
<text text-anchor="middle" x="193" y="-45.5" font-family="Helvetica,sans-Serif" font-size="10.00">xiiQtItemView&lt; QTreeView &gt;</text>
</a>
</g>
</g>
<!-- Node522&#45;&gt;Node0 -->
<g id="edge1" class="edge">
<title>Node522&#45;&gt;Node0</title>
<path fill="none" stroke="midnightblue" d="M78.33,-34.24C89.2,-35.56 101.2,-37.01 113.21,-38.46"/>
<polygon fill="midnightblue" stroke="midnightblue" points="78.64,-30.76 68.3,-33.03 77.8,-37.71 78.64,-30.76"/>
</g>
<!-- Node525 -->
<g id="node4" class="node">
<title>Node525</title>
<g id="a_node4"><a xlink:href="dc/d30/classxii_qt_property_anim_asset_tree_view.htm" target="_top" xlink:title=" ">
<polygon fill="white" stroke="black" points="104,-0.5 104,-19.5 282,-19.5 282,-0.5 104,-0.5"/>
<text text-anchor="middle" x="193" y="-7.5" font-family="Helvetica,sans-Serif" font-size="10.00">xiiQtPropertyAnimAssetTreeView</text>
</a>
</g>
</g>
<!-- Node522&#45;&gt;Node525 -->
<g id="edge3" class="edge">
<title>Node522&#45;&gt;Node525</title>
<path fill="none" stroke="midnightblue" d="M78.33,-23.76C89.2,-22.44 101.2,-20.99 113.21,-19.54"/>
<polygon fill="midnightblue" stroke="midnightblue" points="77.8,-20.29 68.3,-24.97 78.64,-27.24 77.8,-20.29"/>
</g>
<!-- Node1 -->
<g id="node3" class="node">
<title>Node1</title>
<g id="a_node3"><a xlink:href="d4/dc1/classxii_qt_document_tree_view.htm" target="_top" xlink:title=" ">
<polygon fill="white" stroke="black" points="318,-38.5 318,-57.5 452,-57.5 452,-38.5 318,-38.5"/>
<text text-anchor="middle" x="385" y="-45.5" font-family="Helvetica,sans-Serif" font-size="10.00">xiiQtDocumentTreeView</text>
</a>
</g>
</g>
<!-- Node0&#45;&gt;Node1 -->
<g id="edge2" class="edge">
<title>Node0&#45;&gt;Node1</title>
<path fill="none" stroke="midnightblue" d="M283.82,-48C295.33,-48 306.94,-48 317.97,-48"/>
<polygon fill="midnightblue" stroke="midnightblue" points="283.75,-44.5 273.75,-48 283.75,-51.5 283.75,-44.5"/>
</g>
</g>
</svg>
