<?xml version="1.0" encoding="UTF-8" standalone="no"?>
<!DOCTYPE svg PUBLIC "-//W3C//DTD SVG 1.1//EN"
 "http://www.w3.org/Graphics/SVG/1.1/DTD/svg11.dtd">
<!-- Generated by graphviz version 2.43.0 (0)
 -->
<!-- Title: Graphical Class Hierarchy Pages: 1 -->
<svg width="982pt" height="60pt"
 viewBox="0.00 0.00 982.00 60.00" xmlns="http://www.w3.org/2000/svg" xmlns:xlink="http://www.w3.org/1999/xlink">
<g id="graph0" class="graph" transform="scale(1 1) rotate(0) translate(4 56)">
<title>Graphical Class Hierarchy</title>
<!-- Node0 -->
<g id="Node000000" class="node">
<title>Node0</title>
<g id="a_Node000000"><a xlink:href="da/d4c/classxii_array_base.html" target="_top" xlink:title=" ">
<polygon fill="white" stroke="#666666" points="246,-52 0,-52 0,0 246,0 246,-52"/>
<text text-anchor="start" x="8" y="-40" font-family="Helvetica,sans-Serif" font-size="10.00">xiiArrayBase&lt; xiiAnimPose</text>
<text text-anchor="start" x="8" y="-29" font-family="Helvetica,sans-Serif" font-size="10.00">GeneratorCommandSampleEventTrack,</text>
<text text-anchor="start" x="8" y="-18" font-family="Helvetica,sans-Serif" font-size="10.00"> xiiDynamicArrayBase&lt; xiiAnimPoseGenerator</text>
<text text-anchor="middle" x="123" y="-7" font-family="Helvetica,sans-Serif" font-size="10.00">CommandSampleEventTrack &gt; &gt;</text>
</a>
</g>
</g>
<!-- Node1 -->
<g id="Node000001" class="node">
<title>Node1</title>
<g id="a_Node000001"><a xlink:href="d2/dea/classxii_dynamic_array_base.html" target="_top" xlink:title=" ">
<polygon fill="white" stroke="#666666" points="470,-46.5 282,-46.5 282,-5.5 470,-5.5 470,-46.5"/>
<text text-anchor="start" x="290" y="-34.5" font-family="Helvetica,sans-Serif" font-size="10.00">xiiDynamicArrayBase</text>
<text text-anchor="start" x="290" y="-23.5" font-family="Helvetica,sans-Serif" font-size="10.00">&lt; xiiAnimPoseGeneratorCommand</text>
<text text-anchor="middle" x="376" y="-12.5" font-family="Helvetica,sans-Serif" font-size="10.00">SampleEventTrack &gt;</text>
</a>
</g>
</g>
<!-- Node0&#45;&gt;Node1 -->
<g id="edge717_Node000000_Node000001" class="edge">
<title>Node0&#45;&gt;Node1</title>
<g id="a_edge717_Node000000_Node000001"><a xlink:title=" ">
<path fill="none" stroke="#63b8ff" d="M256.29,-26C264.88,-26 273.44,-26 281.78,-26"/>
<polygon fill="#63b8ff" stroke="#63b8ff" points="256.19,-22.5 246.19,-26 256.19,-29.5 256.19,-22.5"/>
</a>
</g>
</g>
<!-- Node2 -->
<g id="Node000002" class="node">
<title>Node2</title>
<g id="a_Node000002"><a xlink:href="dc/da4/classxii_dynamic_array.html" target="_top" xlink:title=" ">
<polygon fill="white" stroke="#666666" points="709,-46.5 506,-46.5 506,-5.5 709,-5.5 709,-46.5"/>
<text text-anchor="start" x="514" y="-34.5" font-family="Helvetica,sans-Serif" font-size="10.00">xiiDynamicArray&lt; xiiAnim</text>
<text text-anchor="start" x="514" y="-23.5" font-family="Helvetica,sans-Serif" font-size="10.00">PoseGeneratorCommandSampleEvent</text>
<text text-anchor="middle" x="607.5" y="-12.5" font-family="Helvetica,sans-Serif" font-size="10.00">Track, xiiDefaultAllocatorWrapper &gt;</text>
</a>
</g>
</g>
<!-- Node1&#45;&gt;Node2 -->
<g id="edge718_Node000001_Node000002" class="edge">
<title>Node1&#45;&gt;Node2</title>
<g id="a_edge718_Node000001_Node000002"><a xlink:title=" ">
<path fill="none" stroke="#63b8ff" d="M480.04,-26C488.62,-26 497.29,-26 505.86,-26"/>
<polygon fill="#63b8ff" stroke="#63b8ff" points="480.02,-22.5 470.02,-26 480.02,-29.5 480.02,-22.5"/>
</a>
</g>
</g>
<!-- Node3 -->
<g id="Node000003" class="node">
<title>Node3</title>
<g id="a_Node000003"><a xlink:href="dc/da9/classxii_hybrid_array.html" target="_top" xlink:title=" ">
<polygon fill="white" stroke="#666666" points="974,-41 745,-41 745,-11 974,-11 974,-41"/>
<text text-anchor="start" x="753" y="-29" font-family="Helvetica,sans-Serif" font-size="10.00">xiiHybridArray&lt; xiiAnimPose</text>
<text text-anchor="middle" x="859.5" y="-18" font-family="Helvetica,sans-Serif" font-size="10.00">GeneratorCommandSampleEventTrack, 2 &gt;</text>
</a>
</g>
</g>
<!-- Node2&#45;&gt;Node3 -->
<g id="edge719_Node000002_Node000003" class="edge">
<title>Node2&#45;&gt;Node3</title>
<g id="a_edge719_Node000002_Node000003"><a xlink:title=" ">
<path fill="none" stroke="#63b8ff" d="M719.13,-26C727.71,-26 736.38,-26 744.98,-26"/>
<polygon fill="#63b8ff" stroke="#63b8ff" points="719.1,-22.5 709.1,-26 719.1,-29.5 719.1,-22.5"/>
</a>
</g>
</g>
</g>
</svg>
