<?xml version="1.0" encoding="UTF-8" standalone="no"?>
<!DOCTYPE svg PUBLIC "-//W3C//DTD SVG 1.1//EN"
 "http://www.w3.org/Graphics/SVG/1.1/DTD/svg11.dtd">
<!-- Generated by graphviz version 2.43.0 (0)
 -->
<!-- Title: Graphical Class Hierarchy Pages: 1 -->
<svg width="369pt" height="1026pt"
 viewBox="0.00 0.00 369.00 1026.00" xmlns="http://www.w3.org/2000/svg" xmlns:xlink="http://www.w3.org/1999/xlink">
<g id="graph0" class="graph" transform="scale(1 1) rotate(0) translate(4 1022)">
<title>Graphical Class Hierarchy</title>
<!-- Node0 -->
<g id="Node000000" class="node">
<title>Node0</title>
<g id="a_Node000000"><a xlink:title=" ">
<polygon fill="#e0e0e0" stroke="#999999" points="111.5,-537 55.5,-537 55.5,-518 111.5,-518 111.5,-537"/>
<text text-anchor="middle" x="83.5" y="-525" font-family="Helvetica,sans-Serif" font-size="10.00">QDialog</text>
</a>
</g>
</g>
<!-- Node1 -->
<g id="Node000001" class="node">
<title>Node1</title>
<g id="a_Node000001"><a xlink:href="df/d61/classxii_qt_asset_browser_dlg.htm" target="_top" xlink:title=" ">
<polygon fill="white" stroke="#666666" points="343.5,-1017 220.5,-1017 220.5,-998 343.5,-998 343.5,-1017"/>
<text text-anchor="middle" x="282" y="-1005" font-family="Helvetica,sans-Serif" font-size="10.00">xiiQtAssetBrowserDlg</text>
</a>
</g>
</g>
<!-- Node0&#45;&gt;Node1 -->
<g id="edge59_Node000000_Node000001" class="edge">
<title>Node0&#45;&gt;Node1</title>
<g id="a_edge59_Node000000_Node000001"><a xlink:title=" ">
<path fill="none" stroke="#63b8ff" d="M122.02,-526.81C138.22,-528.59 155.96,-533.73 167,-546.5 231.59,-621.22 138.43,-914.76 203,-989.5 207.72,-994.97 213.75,-998.96 220.35,-1001.84"/>
<polygon fill="#63b8ff" stroke="#63b8ff" points="121.9,-523.29 111.68,-526.08 121.41,-530.28 121.9,-523.29"/>
</a>
</g>
</g>
<!-- Node3 -->
<g id="Node000003" class="node">
<title>Node3</title>
<g id="a_Node000003"><a xlink:href="d1/d1f/classxii_qt_asset_import_dlg.htm" target="_top" xlink:title=" ">
<polygon fill="white" stroke="#666666" points="340,-980 224,-980 224,-961 340,-961 340,-980"/>
<text text-anchor="middle" x="282" y="-968" font-family="Helvetica,sans-Serif" font-size="10.00">xiiQtAssetImportDlg</text>
</a>
</g>
</g>
<!-- Node0&#45;&gt;Node3 -->
<g id="edge60_Node000000_Node000003" class="edge">
<title>Node0&#45;&gt;Node3</title>
<g id="a_edge60_Node000000_Node000003"><a xlink:title=" ">
<path fill="none" stroke="#63b8ff" d="M121.98,-526.85C138.17,-528.64 155.92,-533.77 167,-546.5 226.48,-614.81 143.53,-884.18 203,-952.5 208.57,-958.89 215.91,-963.26 223.86,-966.21"/>
<polygon fill="#63b8ff" stroke="#63b8ff" points="121.87,-523.33 111.64,-526.11 121.37,-530.31 121.87,-523.33"/>
</a>
</g>
</g>
<!-- Node5 -->
<g id="Node000005" class="node">
<title>Node5</title>
<g id="a_Node000005"><a xlink:href="d0/dc5/classxii_qt_asset_profiles_dlg.htm" target="_top" xlink:title=" ">
<polygon fill="white" stroke="#666666" points="341.5,-943 222.5,-943 222.5,-924 341.5,-924 341.5,-943"/>
<text text-anchor="middle" x="282" y="-931" font-family="Helvetica,sans-Serif" font-size="10.00">xiiQtAssetProfilesDlg</text>
</a>
</g>
</g>
<!-- Node0&#45;&gt;Node5 -->
<g id="edge61_Node000000_Node000005" class="edge">
<title>Node0&#45;&gt;Node5</title>
<g id="a_edge61_Node000000_Node000005"><a xlink:title=" ">
<path fill="none" stroke="#63b8ff" d="M121.93,-526.89C138.11,-528.69 155.86,-533.82 167,-546.5 221.38,-608.39 148.64,-853.59 203,-915.5 208.23,-921.45 214.99,-925.65 222.35,-928.57"/>
<polygon fill="#63b8ff" stroke="#63b8ff" points="121.83,-523.38 111.6,-526.15 121.32,-530.36 121.83,-523.38"/>
</a>
</g>
</g>
<!-- Node7 -->
<g id="Node000007" class="node">
<title>Node7</title>
<g id="a_Node000007"><a xlink:href="de/db6/classxii_qt_color_dialog.htm" target="_top" xlink:title=" ">
<polygon fill="white" stroke="#666666" points="330.5,-906 233.5,-906 233.5,-887 330.5,-887 330.5,-906"/>
<text text-anchor="middle" x="282" y="-894" font-family="Helvetica,sans-Serif" font-size="10.00">xiiQtColorDialog</text>
</a>
</g>
</g>
<!-- Node0&#45;&gt;Node7 -->
<g id="edge62_Node000000_Node000007" class="edge">
<title>Node0&#45;&gt;Node7</title>
<g id="a_edge62_Node000000_Node000007"><a xlink:title=" ">
<path fill="none" stroke="#63b8ff" d="M121.86,-526.95C138.04,-528.76 155.79,-533.88 167,-546.5 265.56,-657.47 104.47,-767.51 203,-878.5 210.75,-887.23 221.81,-892.17 233.18,-894.86"/>
<polygon fill="#63b8ff" stroke="#63b8ff" points="121.78,-523.43 111.55,-526.19 121.27,-530.41 121.78,-523.43"/>
</a>
</g>
</g>
<!-- Node9 -->
<g id="Node000009" class="node">
<title>Node9</title>
<g id="a_Node000009"><a xlink:href="dc/d28/classxii_qt_cpp_project_dlg.htm" target="_top" xlink:title=" ">
<polygon fill="white" stroke="#666666" points="336.5,-869 227.5,-869 227.5,-850 336.5,-850 336.5,-869"/>
<text text-anchor="middle" x="282" y="-857" font-family="Helvetica,sans-Serif" font-size="10.00">xiiQtCppProjectDlg</text>
</a>
</g>
</g>
<!-- Node0&#45;&gt;Node9 -->
<g id="edge63_Node000000_Node000009" class="edge">
<title>Node0&#45;&gt;Node9</title>
<g id="a_edge63_Node000000_Node000009"><a xlink:title=" ">
<path fill="none" stroke="#63b8ff" d="M122.13,-527.06C138.2,-528.92 155.79,-534.04 167,-546.5 255.37,-644.67 114.65,-743.31 203,-841.5 209.41,-848.63 218.04,-853.22 227.21,-856.13"/>
<polygon fill="#63b8ff" stroke="#63b8ff" points="122.12,-523.55 111.88,-526.26 121.58,-530.52 122.12,-523.55"/>
</a>
</g>
</g>
<!-- Node11 -->
<g id="Node000011" class="node">
<title>Node11</title>
<g id="a_Node000011"><a xlink:href="d6/df4/classxii_qt_curve_edit_dlg.htm" target="_top" xlink:title=" ">
<polygon fill="white" stroke="#666666" points="334,-832 230,-832 230,-813 334,-813 334,-832"/>
<text text-anchor="middle" x="282" y="-820" font-family="Helvetica,sans-Serif" font-size="10.00">xiiQtCurveEditDlg</text>
</a>
</g>
</g>
<!-- Node0&#45;&gt;Node11 -->
<g id="edge64_Node000000_Node000011" class="edge">
<title>Node0&#45;&gt;Node11</title>
<g id="a_edge64_Node000000_Node000011"><a xlink:title=" ">
<path fill="none" stroke="#63b8ff" d="M122.03,-527.15C138.08,-529.02 155.68,-534.14 167,-546.5 245.2,-631.88 124.82,-719.1 203,-804.5 210.04,-812.19 219.65,-816.92 229.72,-819.76"/>
<polygon fill="#63b8ff" stroke="#63b8ff" points="122.04,-523.64 111.8,-526.34 121.49,-530.61 122.04,-523.64"/>
</a>
</g>
</g>
<!-- Node13 -->
<g id="Node000013" class="node">
<title>Node13</title>
<g id="a_Node000013"><a xlink:href="d2/d52/classxii_qt_dashboard_dlg.htm" target="_top" xlink:title=" ">
<polygon fill="white" stroke="#666666" points="336.5,-795 227.5,-795 227.5,-776 336.5,-776 336.5,-795"/>
<text text-anchor="middle" x="282" y="-783" font-family="Helvetica,sans-Serif" font-size="10.00">xiiQtDashboardDlg</text>
</a>
</g>
</g>
<!-- Node0&#45;&gt;Node13 -->
<g id="edge65_Node000000_Node000013" class="edge">
<title>Node0&#45;&gt;Node13</title>
<g id="a_edge65_Node000000_Node000013"><a xlink:title=" ">
<path fill="none" stroke="#63b8ff" d="M121.91,-527.27C137.92,-529.17 155.54,-534.27 167,-546.5 235.05,-619.11 134.97,-694.87 203,-767.5 209.56,-774.5 218.24,-779.03 227.44,-781.92"/>
<polygon fill="#63b8ff" stroke="#63b8ff" points="121.94,-523.76 111.69,-526.44 121.38,-530.73 121.94,-523.76"/>
</a>
</g>
</g>
<!-- Node15 -->
<g id="Node000015" class="node">
<title>Node15</title>
<g id="a_Node000015"><a xlink:href="d5/d9c/classxii_qt_data_dirs_dlg.htm" target="_top" xlink:title=" ">
<polygon fill="white" stroke="#666666" points="331.5,-758 232.5,-758 232.5,-739 331.5,-739 331.5,-758"/>
<text text-anchor="middle" x="282" y="-746" font-family="Helvetica,sans-Serif" font-size="10.00">xiiQtDataDirsDlg</text>
</a>
</g>
</g>
<!-- Node0&#45;&gt;Node15 -->
<g id="edge66_Node000000_Node000015" class="edge">
<title>Node0&#45;&gt;Node15</title>
<g id="a_edge66_Node000000_Node000015"><a xlink:title=" ">
<path fill="none" stroke="#63b8ff" d="M121.73,-527.44C137.71,-529.37 155.35,-534.45 167,-546.5 224.94,-606.39 145.08,-670.6 203,-730.5 210.83,-738.59 221.51,-743.37 232.45,-746.11"/>
<polygon fill="#63b8ff" stroke="#63b8ff" points="121.8,-523.93 111.54,-526.58 121.22,-530.9 121.8,-523.93"/>
</a>
</g>
</g>
<!-- Node17 -->
<g id="Node000017" class="node">
<title>Node17</title>
<g id="a_Node000017"><a xlink:href="de/df2/classxii_qt_delta_transform_dlg.htm" target="_top" xlink:title=" ">
<polygon fill="white" stroke="#666666" points="347.5,-721 216.5,-721 216.5,-702 347.5,-702 347.5,-721"/>
<text text-anchor="middle" x="282" y="-709" font-family="Helvetica,sans-Serif" font-size="10.00">xiiQtDeltaTransformDlg</text>
</a>
</g>
</g>
<!-- Node0&#45;&gt;Node17 -->
<g id="edge67_Node000000_Node000017" class="edge">
<title>Node0&#45;&gt;Node17</title>
<g id="a_edge67_Node000000_Node000017"><a xlink:title=" ">
<path fill="none" stroke="#63b8ff" d="M121.8,-527.74C137.64,-529.76 155.14,-534.83 167,-546.5 214.62,-593.39 155.68,-645.31 203,-692.5 206.85,-696.34 211.34,-699.45 216.18,-701.96"/>
<polygon fill="#63b8ff" stroke="#63b8ff" points="121.99,-524.25 111.71,-526.82 121.35,-531.22 121.99,-524.25"/>
</a>
</g>
</g>
<!-- Node19 -->
<g id="Node000019" class="node">
<title>Node19</title>
<g id="a_Node000019"><a xlink:href="dc/d1f/classxii_qt_duplicate_dlg.htm" target="_top" xlink:title=" ">
<polygon fill="white" stroke="#666666" points="333.5,-683 230.5,-683 230.5,-664 333.5,-664 333.5,-683"/>
<text text-anchor="middle" x="282" y="-671" font-family="Helvetica,sans-Serif" font-size="10.00">xiiQtDuplicateDlg</text>
</a>
</g>
</g>
<!-- Node0&#45;&gt;Node19 -->
<g id="edge68_Node000000_Node000019" class="edge">
<title>Node0&#45;&gt;Node19</title>
<g id="a_edge68_Node000000_Node000019"><a xlink:title=" ">
<path fill="none" stroke="#63b8ff" d="M121.72,-528.24C137.39,-530.37 154.78,-535.39 167,-546.5 204.44,-580.53 165.77,-620.23 203,-654.5 210.59,-661.48 220.31,-666.02 230.29,-668.94"/>
<polygon fill="#63b8ff" stroke="#63b8ff" points="122.05,-524.76 111.75,-527.22 121.34,-531.72 122.05,-524.76"/>
</a>
</g>
</g>
<!-- Node21 -->
<g id="Node000021" class="node">
<title>Node21</title>
<g id="a_Node000021"><a xlink:href="db/da1/classxii_qt_edit_dynamic_enums_dlg.htm" target="_top" xlink:title=" ">
<polygon fill="white" stroke="#666666" points="358,-645 206,-645 206,-626 358,-626 358,-645"/>
<text text-anchor="middle" x="282" y="-633" font-family="Helvetica,sans-Serif" font-size="10.00">xiiQtEditDynamicEnumsDlg</text>
</a>
</g>
</g>
<!-- Node0&#45;&gt;Node21 -->
<g id="edge69_Node000000_Node000021" class="edge">
<title>Node0&#45;&gt;Node21</title>
<g id="a_edge69_Node000000_Node000021"><a xlink:title=" ">
<path fill="none" stroke="#63b8ff" d="M122.04,-529.36C137.28,-531.74 154.25,-536.64 167,-546.5 194.37,-567.66 175.9,-594.01 203,-615.5 208.48,-619.84 214.79,-623.25 221.4,-625.93"/>
<polygon fill="#63b8ff" stroke="#63b8ff" points="122.21,-525.85 111.85,-528.09 121.34,-532.8 122.21,-525.85"/>
</a>
</g>
</g>
<!-- Node23 -->
<g id="Node000023" class="node">
<title>Node23</title>
<g id="a_Node000023"><a xlink:href="d8/d63/classxii_qt_export_and_run_dlg.htm" target="_top" xlink:title=" ">
<polygon fill="white" stroke="#666666" points="344.5,-606 219.5,-606 219.5,-587 344.5,-587 344.5,-606"/>
<text text-anchor="middle" x="282" y="-594" font-family="Helvetica,sans-Serif" font-size="10.00">xiiQtExportAndRunDlg</text>
</a>
</g>
</g>
<!-- Node0&#45;&gt;Node23 -->
<g id="edge70_Node000000_Node000023" class="edge">
<title>Node0&#45;&gt;Node23</title>
<g id="a_edge70_Node000000_Node000023"><a xlink:title=" ">
<path fill="none" stroke="#63b8ff" d="M121.97,-532.71C136.48,-535.6 152.95,-539.97 167,-546.5 185.14,-554.93 185.12,-564.53 203,-573.5 214.1,-579.07 226.79,-583.53 238.66,-586.98"/>
<polygon fill="#63b8ff" stroke="#63b8ff" points="122.28,-529.21 111.81,-530.86 121.02,-536.1 122.28,-529.21"/>
</a>
</g>
</g>
<!-- Node25 -->
<g id="Node000025" class="node">
<title>Node25</title>
<g id="a_Node000025"><a xlink:href="d0/d02/classxii_qt_export_project_dlg.htm" target="_top" xlink:title=" ">
<polygon fill="white" stroke="#666666" points="343,-564 221,-564 221,-545 343,-545 343,-564"/>
<text text-anchor="middle" x="282" y="-552" font-family="Helvetica,sans-Serif" font-size="10.00">xiiQtExportProjectDlg</text>
</a>
</g>
</g>
<!-- Node0&#45;&gt;Node25 -->
<g id="edge71_Node000000_Node000025" class="edge">
<title>Node0&#45;&gt;Node25</title>
<g id="a_edge71_Node000000_Node000025"><a xlink:title=" ">
<path fill="none" stroke="#63b8ff" d="M121.96,-532.65C149.87,-536.48 188.56,-541.8 220.79,-546.23"/>
<polygon fill="#63b8ff" stroke="#63b8ff" points="122.21,-529.15 111.82,-531.25 121.25,-536.08 122.21,-529.15"/>
</a>
</g>
</g>
<!-- Node27 -->
<g id="Node000027" class="node">
<title>Node27</title>
<g id="a_Node000027"><a xlink:href="da/d58/classxii_qt_extract_geometry_dlg.htm" target="_top" xlink:title=" ">
<polygon fill="white" stroke="#666666" points="352,-518 212,-518 212,-499 352,-499 352,-518"/>
<text text-anchor="middle" x="282" y="-506" font-family="Helvetica,sans-Serif" font-size="10.00">xiiQtExtractGeometryDlg</text>
</a>
</g>
</g>
<!-- Node0&#45;&gt;Node27 -->
<g id="edge72_Node000000_Node000027" class="edge">
<title>Node0&#45;&gt;Node27</title>
<g id="a_edge72_Node000000_Node000027"><a xlink:title=" ">
<path fill="none" stroke="#63b8ff" d="M122.09,-523.87C147.38,-521.42 181.49,-518.12 211.62,-515.21"/>
<polygon fill="#63b8ff" stroke="#63b8ff" points="121.44,-520.41 111.82,-524.86 122.11,-527.38 121.44,-520.41"/>
</a>
</g>
</g>
<!-- Node29 -->
<g id="Node000029" class="node">
<title>Node29</title>
<g id="a_Node000029"><a xlink:href="d1/d78/classxii_qt_input_config_dlg.htm" target="_top" xlink:title=" ">
<polygon fill="white" stroke="#666666" points="338,-463 226,-463 226,-444 338,-444 338,-463"/>
<text text-anchor="middle" x="282" y="-451" font-family="Helvetica,sans-Serif" font-size="10.00">xiiQtInputConfigDlg</text>
</a>
</g>
</g>
<!-- Node0&#45;&gt;Node29 -->
<g id="edge73_Node000000_Node000029" class="edge">
<title>Node0&#45;&gt;Node29</title>
<g id="a_edge73_Node000000_Node000029"><a xlink:title=" ">
<path fill="none" stroke="#63b8ff" d="M121.82,-521.58C136.19,-518.73 152.6,-514.76 167,-509.5 183.99,-503.29 186.82,-498.6 203,-490.5 222.16,-480.9 244.26,-470.48 260.03,-463.15"/>
<polygon fill="#63b8ff" stroke="#63b8ff" points="120.96,-518.18 111.77,-523.46 122.25,-525.06 120.96,-518.18"/>
</a>
</g>
</g>
<!-- Node31 -->
<g id="Node000031" class="node">
<title>Node31</title>
<g id="a_Node000031"><a xlink:href="dd/d3b/classxii_qt_launch_fileserve_dlg.htm" target="_top" xlink:title=" ">
<polygon fill="white" stroke="#666666" points="349.5,-426 214.5,-426 214.5,-407 349.5,-407 349.5,-426"/>
<text text-anchor="middle" x="282" y="-414" font-family="Helvetica,sans-Serif" font-size="10.00">xiiQtLaunchFileserveDlg</text>
</a>
</g>
</g>
<!-- Node0&#45;&gt;Node31 -->
<g id="edge74_Node000000_Node000031" class="edge">
<title>Node0&#45;&gt;Node31</title>
<g id="a_edge74_Node000000_Node000031"><a xlink:title=" ">
<path fill="none" stroke="#63b8ff" d="M121.82,-526.37C137.16,-524.24 154.27,-519.51 167,-509.5 195.75,-486.89 174.53,-458.45 203,-435.5 207.77,-431.65 213.21,-428.56 218.94,-426.09"/>
<polygon fill="#63b8ff" stroke="#63b8ff" points="121.13,-522.92 111.56,-527.47 121.87,-529.88 121.13,-522.92"/>
</a>
</g>
</g>
<!-- Node33 -->
<g id="Node000033" class="node">
<title>Node33</title>
<g id="a_Node000033"><a xlink:href="db/d42/classxii_qt_modified_documents_dlg.htm" target="_top" xlink:title=" ">
<polygon fill="white" stroke="#666666" points="359,-389 205,-389 205,-370 359,-370 359,-389"/>
<text text-anchor="middle" x="282" y="-377" font-family="Helvetica,sans-Serif" font-size="10.00">xiiQtModifiedDocumentsDlg</text>
</a>
</g>
</g>
<!-- Node0&#45;&gt;Node33 -->
<g id="edge75_Node000000_Node000033" class="edge">
<title>Node0&#45;&gt;Node33</title>
<g id="a_edge75_Node000000_Node000033"><a xlink:title=" ">
<path fill="none" stroke="#63b8ff" d="M121.73,-527.3C137.4,-525.38 154.79,-520.56 167,-509.5 205.44,-474.68 164.98,-433.78 203,-398.5 207.09,-394.71 211.8,-391.64 216.85,-389.15"/>
<polygon fill="#63b8ff" stroke="#63b8ff" points="121.41,-523.82 111.76,-528.19 122.03,-530.79 121.41,-523.82"/>
</a>
</g>
</g>
<!-- Node35 -->
<g id="Node000035" class="node">
<title>Node35</title>
<g id="a_Node000035"><a xlink:href="d4/d0c/classxii_qt_pick_document_object_dlg.htm" target="_top" xlink:title=" ">
<polygon fill="white" stroke="#666666" points="361,-352 203,-352 203,-333 361,-333 361,-352"/>
<text text-anchor="middle" x="282" y="-340" font-family="Helvetica,sans-Serif" font-size="10.00">xiiQtPickDocumentObjectDlg</text>
</a>
</g>
</g>
<!-- Node0&#45;&gt;Node35 -->
<g id="edge76_Node000000_Node000035" class="edge">
<title>Node0&#45;&gt;Node35</title>
<g id="a_edge76_Node000000_Node000035"><a xlink:title=" ">
<path fill="none" stroke="#63b8ff" d="M121.79,-527.77C137.62,-525.95 155.13,-521.09 167,-509.5 215.43,-462.2 155.14,-409.38 203,-361.5 206.84,-357.66 211.33,-354.54 216.16,-352.02"/>
<polygon fill="#63b8ff" stroke="#63b8ff" points="121.4,-524.29 111.7,-528.56 121.94,-531.27 121.4,-524.29"/>
</a>
</g>
</g>
<!-- Node37 -->
<g id="Node000037" class="node">
<title>Node37</title>
<g id="a_Node000037"><a xlink:href="db/dcb/classxii_qt_plugin_selection_dlg.htm" target="_top" xlink:title=" ">
<polygon fill="white" stroke="#666666" points="347.5,-315 216.5,-315 216.5,-296 347.5,-296 347.5,-315"/>
<text text-anchor="middle" x="282" y="-303" font-family="Helvetica,sans-Serif" font-size="10.00">xiiQtPluginSelectionDlg</text>
</a>
</g>
</g>
<!-- Node0&#45;&gt;Node37 -->
<g id="edge77_Node000000_Node000037" class="edge">
<title>Node0&#45;&gt;Node37</title>
<g id="a_edge77_Node000000_Node000037"><a xlink:title=" ">
<path fill="none" stroke="#63b8ff" d="M121.7,-528.06C137.67,-526.33 155.31,-521.45 167,-509.5 225.56,-449.6 145.17,-385.1 203,-324.5 206.85,-320.47 211.4,-317.23 216.34,-314.64"/>
<polygon fill="#63b8ff" stroke="#63b8ff" points="121.24,-524.58 111.52,-528.79 121.74,-531.57 121.24,-524.58"/>
</a>
</g>
</g>
<!-- Node39 -->
<g id="Node000039" class="node">
<title>Node39</title>
<g id="a_Node000039"><a xlink:href="dc/d8a/classxii_qt_preferences_dlg.htm" target="_top" xlink:title=" ">
<polygon fill="white" stroke="#666666" points="339,-278 225,-278 225,-259 339,-259 339,-278"/>
<text text-anchor="middle" x="282" y="-266" font-family="Helvetica,sans-Serif" font-size="10.00">xiiQtPreferencesDlg</text>
</a>
</g>
</g>
<!-- Node0&#45;&gt;Node39 -->
<g id="edge78_Node000000_Node000039" class="edge">
<title>Node0&#45;&gt;Node39</title>
<g id="a_edge78_Node000000_Node000039"><a xlink:title=" ">
<path fill="none" stroke="#63b8ff" d="M121.87,-528.23C137.88,-526.53 155.5,-521.63 167,-509.5 235.74,-436.94 135.14,-360.89 203,-287.5 208.87,-281.16 216.47,-276.77 224.62,-273.77"/>
<polygon fill="#63b8ff" stroke="#63b8ff" points="121.4,-524.75 111.66,-528.93 121.88,-531.74 121.4,-524.75"/>
</a>
</g>
</g>
<!-- Node41 -->
<g id="Node000041" class="node">
<title>Node41</title>
<g id="a_Node000041"><a xlink:href="d3/dd3/classxii_qt_remote_connection_dlg.htm" target="_top" xlink:title=" ">
<polygon fill="white" stroke="#666666" points="356.5,-241 207.5,-241 207.5,-222 356.5,-222 356.5,-241"/>
<text text-anchor="middle" x="282" y="-229" font-family="Helvetica,sans-Serif" font-size="10.00">xiiQtRemoteConnectionDlg</text>
</a>
</g>
</g>
<!-- Node0&#45;&gt;Node41 -->
<g id="edge79_Node000000_Node000041" class="edge">
<title>Node0&#45;&gt;Node41</title>
<g id="a_edge79_Node000000_Node000041"><a xlink:title=" ">
<path fill="none" stroke="#63b8ff" d="M122,-528.35C138.04,-526.67 155.64,-521.76 167,-509.5 245.97,-424.23 125.07,-336.72 203,-250.5 206.46,-246.67 210.55,-243.56 215.01,-241.02"/>
<polygon fill="#63b8ff" stroke="#63b8ff" points="121.52,-524.87 111.77,-529.03 121.98,-531.86 121.52,-524.87"/>
</a>
</g>
</g>
<!-- Node43 -->
<g id="Node000043" class="node">
<title>Node43</title>
<g id="a_Node000043"><a xlink:href="d3/d92/classxii_qt_shader_template_dlg.htm" target="_top" xlink:title=" ">
<polygon fill="white" stroke="#666666" points="349.5,-204 214.5,-204 214.5,-185 349.5,-185 349.5,-204"/>
<text text-anchor="middle" x="282" y="-192" font-family="Helvetica,sans-Serif" font-size="10.00">xiiQtShaderTemplateDlg</text>
</a>
</g>
</g>
<!-- Node0&#45;&gt;Node43 -->
<g id="edge80_Node000000_Node000043" class="edge">
<title>Node0&#45;&gt;Node43</title>
<g id="a_edge80_Node000000_Node000043"><a xlink:title=" ">
<path fill="none" stroke="#63b8ff" d="M122.1,-528.44C138.15,-526.78 155.75,-521.86 167,-509.5 256.21,-411.5 114.97,-312.57 203,-213.5 206.33,-209.75 210.27,-206.68 214.58,-204.17"/>
<polygon fill="#63b8ff" stroke="#63b8ff" points="121.6,-524.96 111.85,-529.1 122.05,-531.95 121.6,-524.96"/>
</a>
</g>
</g>
<!-- Node45 -->
<g id="Node000045" class="node">
<title>Node45</title>
<g id="a_Node000045"><a xlink:href="d4/db1/classxii_qt_shortcut_editor_dlg.htm" target="_top" xlink:title=" ">
<polygon fill="white" stroke="#666666" points="344.5,-167 219.5,-167 219.5,-148 344.5,-148 344.5,-167"/>
<text text-anchor="middle" x="282" y="-155" font-family="Helvetica,sans-Serif" font-size="10.00">xiiQtShortcutEditorDlg</text>
</a>
</g>
</g>
<!-- Node0&#45;&gt;Node45 -->
<g id="edge81_Node000000_Node000045" class="edge">
<title>Node0&#45;&gt;Node45</title>
<g id="a_edge81_Node000000_Node000045"><a xlink:title=" ">
<path fill="none" stroke="#63b8ff" d="M121.83,-528.54C137.99,-526.93 155.75,-522.03 167,-509.5 266.48,-398.75 104.87,-288.44 203,-176.5 207.5,-171.36 213.14,-167.5 219.31,-164.61"/>
<polygon fill="#63b8ff" stroke="#63b8ff" points="121.29,-525.07 111.52,-529.17 121.71,-532.05 121.29,-525.07"/>
</a>
</g>
</g>
<!-- Node47 -->
<g id="Node000047" class="node">
<title>Node47</title>
<g id="a_Node000047"><a xlink:href="d5/da8/classxii_qt_snap_settings_dlg.htm" target="_top" xlink:title=" ">
<polygon fill="white" stroke="#666666" points="342,-130 222,-130 222,-111 342,-111 342,-130"/>
<text text-anchor="middle" x="282" y="-118" font-family="Helvetica,sans-Serif" font-size="10.00">xiiQtSnapSettingsDlg</text>
</a>
</g>
</g>
<!-- Node0&#45;&gt;Node47 -->
<g id="edge82_Node000000_Node000047" class="edge">
<title>Node0&#45;&gt;Node47</title>
<g id="a_edge82_Node000000_Node000047"><a xlink:title=" ">
<path fill="none" stroke="#63b8ff" d="M121.89,-528.6C138.06,-527 155.82,-522.09 167,-509.5 221.87,-447.75 148.87,-201.91 203,-139.5 208.11,-133.6 214.72,-129.38 221.93,-126.37"/>
<polygon fill="#63b8ff" stroke="#63b8ff" points="121.34,-525.12 111.57,-529.21 121.76,-532.11 121.34,-525.12"/>
</a>
</g>
</g>
<!-- Node49 -->
<g id="Node000049" class="node">
<title>Node49</title>
<g id="a_Node000049"><a xlink:href="db/d36/classxii_qt_tags_dlg.htm" target="_top" xlink:title=" ">
<polygon fill="white" stroke="#666666" points="321,-93 243,-93 243,-74 321,-74 321,-93"/>
<text text-anchor="middle" x="282" y="-81" font-family="Helvetica,sans-Serif" font-size="10.00">xiiQtTagsDlg</text>
</a>
</g>
</g>
<!-- Node0&#45;&gt;Node49 -->
<g id="edge83_Node000000_Node000049" class="edge">
<title>Node0&#45;&gt;Node49</title>
<g id="a_edge83_Node000000_Node000049"><a xlink:title=" ">
<path fill="none" stroke="#63b8ff" d="M121.94,-528.64C138.13,-527.06 155.87,-522.13 167,-509.5 227.01,-441.36 143.81,-171.35 203,-102.5 212.81,-91.09 228.23,-85.92 242.77,-83.76"/>
<polygon fill="#63b8ff" stroke="#63b8ff" points="121.39,-525.17 111.61,-529.25 121.8,-532.15 121.39,-525.17"/>
</a>
</g>
</g>
<!-- Node51 -->
<g id="Node000051" class="node">
<title>Node51</title>
<g id="a_Node000051"><a xlink:href="db/d92/classxii_qt_wait_for_operation_dlg.htm" target="_top" xlink:title=" ">
<polygon fill="white" stroke="#666666" points="352.5,-56 211.5,-56 211.5,-37 352.5,-37 352.5,-56"/>
<text text-anchor="middle" x="282" y="-44" font-family="Helvetica,sans-Serif" font-size="10.00">xiiQtWaitForOperationDlg</text>
</a>
</g>
</g>
<!-- Node0&#45;&gt;Node51 -->
<g id="edge84_Node000000_Node000051" class="edge">
<title>Node0&#45;&gt;Node51</title>
<g id="a_edge84_Node000000_Node000051"><a xlink:title=" ">
<path fill="none" stroke="#63b8ff" d="M121.98,-528.68C138.18,-527.1 155.92,-522.17 167,-509.5 232.16,-434.98 138.75,-140.8 203,-65.5 206.26,-61.68 210.14,-58.56 214.41,-56.02"/>
<polygon fill="#63b8ff" stroke="#63b8ff" points="121.42,-525.2 111.65,-529.28 121.83,-532.19 121.42,-525.2"/>
</a>
</g>
</g>
<!-- Node53 -->
<g id="Node000053" class="node">
<title>Node53</title>
<g id="a_Node000053"><a xlink:href="de/d5d/classxii_qt_window_cfg_dlg.htm" target="_top" xlink:title=" ">
<polygon fill="white" stroke="#666666" points="338,-19 226,-19 226,0 338,0 338,-19"/>
<text text-anchor="middle" x="282" y="-7" font-family="Helvetica,sans-Serif" font-size="10.00">xiiQtWindowCfgDlg</text>
</a>
</g>
</g>
<!-- Node0&#45;&gt;Node53 -->
<g id="edge85_Node000000_Node000053" class="edge">
<title>Node0&#45;&gt;Node53</title>
<g id="a_edge85_Node000000_Node000053"><a xlink:title=" ">
<path fill="none" stroke="#63b8ff" d="M122.02,-528.71C138.22,-527.14 155.96,-522.21 167,-509.5 237.3,-428.59 133.68,-110.25 203,-28.5 208.95,-21.48 217.02,-16.82 225.71,-13.77"/>
<polygon fill="#63b8ff" stroke="#63b8ff" points="121.46,-525.24 111.67,-529.3 121.86,-532.22 121.46,-525.24"/>
</a>
</g>
</g>
<!-- Node2 -->
<g id="Node000002" class="node">
<title>Node2</title>
<g id="a_Node000002"><a xlink:title=" ">
<polygon fill="#e0e0e0" stroke="#999999" points="141.5,-1018 25.5,-1018 25.5,-999 141.5,-999 141.5,-1018"/>
<text text-anchor="middle" x="83.5" y="-1006" font-family="Helvetica,sans-Serif" font-size="10.00">Ui_AssetBrowserDlg</text>
</a>
</g>
</g>
<!-- Node2&#45;&gt;Node1 -->
<g id="edge86_Node000002_Node000001" class="edge">
<title>Node2&#45;&gt;Node1</title>
<g id="a_edge86_Node000002_Node000001"><a xlink:title=" ">
<path fill="none" stroke="#63b8ff" d="M151.65,-1008.16C173.92,-1008.04 198.57,-1007.92 220.33,-1007.81"/>
<polygon fill="#63b8ff" stroke="#63b8ff" points="151.58,-1004.66 141.6,-1008.21 151.62,-1011.66 151.58,-1004.66"/>
</a>
</g>
</g>
<!-- Node4 -->
<g id="Node000004" class="node">
<title>Node4</title>
<g id="a_Node000004"><a xlink:title=" ">
<polygon fill="#e0e0e0" stroke="#999999" points="137.5,-981 29.5,-981 29.5,-962 137.5,-962 137.5,-981"/>
<text text-anchor="middle" x="83.5" y="-969" font-family="Helvetica,sans-Serif" font-size="10.00">Ui_AssetImportDlg</text>
</a>
</g>
</g>
<!-- Node4&#45;&gt;Node3 -->
<g id="edge87_Node000004_Node000003" class="edge">
<title>Node4&#45;&gt;Node3</title>
<g id="a_edge87_Node000004_Node000003"><a xlink:title=" ">
<path fill="none" stroke="#63b8ff" d="M147.94,-971.18C172.4,-971.05 200.17,-970.91 223.99,-970.79"/>
<polygon fill="#63b8ff" stroke="#63b8ff" points="147.66,-967.68 137.68,-971.23 147.69,-974.68 147.66,-967.68"/>
</a>
</g>
</g>
<!-- Node8 -->
<g id="Node000008" class="node">
<title>Node8</title>
<g id="a_Node000008"><a xlink:title=" ">
<polygon fill="#e0e0e0" stroke="#999999" points="128,-907 39,-907 39,-888 128,-888 128,-907"/>
<text text-anchor="middle" x="83.5" y="-895" font-family="Helvetica,sans-Serif" font-size="10.00">Ui_ColorDialog</text>
</a>
</g>
</g>
<!-- Node8&#45;&gt;Node7 -->
<g id="edge88_Node000008_Node000007" class="edge">
<title>Node8&#45;&gt;Node7</title>
<g id="a_edge88_Node000008_Node000007"><a xlink:title=" ">
<path fill="none" stroke="#8b1a1a" d="M138.32,-897.23C168.06,-897.07 204.69,-896.89 233.39,-896.74"/>
<polygon fill="#8b1a1a" stroke="#8b1a1a" points="138.09,-893.73 128.11,-897.28 138.13,-900.73 138.09,-893.73"/>
</a>
</g>
</g>
<!-- Node12 -->
<g id="Node000012" class="node">
<title>Node12</title>
<g id="a_Node000012"><a xlink:title=" ">
<polygon fill="#e0e0e0" stroke="#999999" points="131.5,-833 35.5,-833 35.5,-814 131.5,-814 131.5,-833"/>
<text text-anchor="middle" x="83.5" y="-821" font-family="Helvetica,sans-Serif" font-size="10.00">Ui_CurveEditDlg</text>
</a>
</g>
</g>
<!-- Node12&#45;&gt;Node11 -->
<g id="edge89_Node000012_Node000011" class="edge">
<title>Node12&#45;&gt;Node11</title>
<g id="a_edge89_Node000012_Node000011"><a xlink:title=" ">
<path fill="none" stroke="#8b1a1a" d="M141.58,-823.21C169.47,-823.07 202.78,-822.9 229.84,-822.76"/>
<polygon fill="#8b1a1a" stroke="#8b1a1a" points="141.55,-819.71 131.57,-823.26 141.58,-826.71 141.55,-819.71"/>
</a>
</g>
</g>
<!-- Node18 -->
<g id="Node000018" class="node">
<title>Node18</title>
<g id="a_Node000018"><a xlink:title=" ">
<polygon fill="#e0e0e0" stroke="#999999" points="145.5,-722 21.5,-722 21.5,-703 145.5,-703 145.5,-722"/>
<text text-anchor="middle" x="83.5" y="-710" font-family="Helvetica,sans-Serif" font-size="10.00">Ui_DeltaTransformDlg</text>
</a>
</g>
</g>
<!-- Node18&#45;&gt;Node17 -->
<g id="edge90_Node000018_Node000017" class="edge">
<title>Node18&#45;&gt;Node17</title>
<g id="a_edge90_Node000018_Node000017"><a xlink:title=" ">
<path fill="none" stroke="#63b8ff" d="M155.76,-712.14C175.51,-712.04 196.84,-711.93 216.2,-711.83"/>
<polygon fill="#63b8ff" stroke="#63b8ff" points="155.58,-708.64 145.6,-712.19 155.61,-715.64 155.58,-708.64"/>
</a>
</g>
</g>
<!-- Node34 -->
<g id="Node000034" class="node">
<title>Node34</title>
<g id="a_Node000034"><a xlink:title=" ">
<polygon fill="#e0e0e0" stroke="#999999" points="133.5,-389 33.5,-389 33.5,-370 133.5,-370 133.5,-389"/>
<text text-anchor="middle" x="83.5" y="-377" font-family="Helvetica,sans-Serif" font-size="10.00">Ui_DocumentList</text>
</a>
</g>
</g>
<!-- Node34&#45;&gt;Node33 -->
<g id="edge91_Node000034_Node000033" class="edge">
<title>Node34&#45;&gt;Node33</title>
<g id="a_edge91_Node000034_Node000033"><a xlink:title=" ">
<path fill="none" stroke="#63b8ff" d="M143.67,-379.5C162.85,-379.5 184.41,-379.5 204.66,-379.5"/>
<polygon fill="#63b8ff" stroke="#63b8ff" points="143.58,-376 133.58,-379.5 143.58,-383 143.58,-376"/>
</a>
</g>
</g>
<!-- Node20 -->
<g id="Node000020" class="node">
<title>Node20</title>
<g id="a_Node000020"><a xlink:title=" ">
<polygon fill="#e0e0e0" stroke="#999999" points="131,-685 36,-685 36,-666 131,-666 131,-685"/>
<text text-anchor="middle" x="83.5" y="-673" font-family="Helvetica,sans-Serif" font-size="10.00">Ui_DuplicateDlg</text>
</a>
</g>
</g>
<!-- Node20&#45;&gt;Node19 -->
<g id="edge92_Node000020_Node000019" class="edge">
<title>Node20&#45;&gt;Node19</title>
<g id="a_edge92_Node000020_Node000019"><a xlink:title=" ">
<path fill="none" stroke="#63b8ff" d="M141.16,-674.92C169.29,-674.64 203.01,-674.29 230.29,-674.02"/>
<polygon fill="#63b8ff" stroke="#63b8ff" points="141.03,-671.42 131.07,-675.03 141.1,-678.42 141.03,-671.42"/>
</a>
</g>
</g>
<!-- Node24 -->
<g id="Node000024" class="node">
<title>Node24</title>
<g id="a_Node000024"><a xlink:title=" ">
<polygon fill="#e0e0e0" stroke="#999999" points="142.5,-611 24.5,-611 24.5,-592 142.5,-592 142.5,-611"/>
<text text-anchor="middle" x="83.5" y="-599" font-family="Helvetica,sans-Serif" font-size="10.00">Ui_ExportAndRunDlg</text>
</a>
</g>
</g>
<!-- Node24&#45;&gt;Node23 -->
<g id="edge93_Node000024_Node000023" class="edge">
<title>Node24&#45;&gt;Node23</title>
<g id="a_edge93_Node000024_Node000023"><a xlink:title=" ">
<path fill="none" stroke="#63b8ff" d="M152.74,-599.76C174.35,-599.21 198.1,-598.61 219.23,-598.07"/>
<polygon fill="#63b8ff" stroke="#63b8ff" points="152.57,-596.27 142.66,-600.02 152.74,-603.26 152.57,-596.27"/>
</a>
</g>
</g>
<!-- Node26 -->
<g id="Node000026" class="node">
<title>Node26</title>
<g id="a_Node000026"><a xlink:title=" ">
<polygon fill="#e0e0e0" stroke="#999999" points="140.5,-574 26.5,-574 26.5,-555 140.5,-555 140.5,-574"/>
<text text-anchor="middle" x="83.5" y="-562" font-family="Helvetica,sans-Serif" font-size="10.00">Ui_ExportProjectDlg</text>
</a>
</g>
</g>
<!-- Node26&#45;&gt;Node25 -->
<g id="edge94_Node000026_Node000025" class="edge">
<title>Node26&#45;&gt;Node25</title>
<g id="a_edge94_Node000026_Node000025"><a xlink:title=" ">
<path fill="none" stroke="#63b8ff" d="M150.75,-561.13C173.41,-559.98 198.6,-558.69 220.76,-557.57"/>
<polygon fill="#63b8ff" stroke="#63b8ff" points="150.36,-557.64 140.55,-561.65 150.71,-564.63 150.36,-557.64"/>
</a>
</g>
</g>
<!-- Node28 -->
<g id="Node000028" class="node">
<title>Node28</title>
<g id="a_Node000028"><a xlink:title=" ">
<polygon fill="#e0e0e0" stroke="#999999" points="149.5,-500 17.5,-500 17.5,-481 149.5,-481 149.5,-500"/>
<text text-anchor="middle" x="83.5" y="-488" font-family="Helvetica,sans-Serif" font-size="10.00">Ui_ExtractGeometryDlg</text>
</a>
</g>
</g>
<!-- Node28&#45;&gt;Node27 -->
<g id="edge95_Node000028_Node000027" class="edge">
<title>Node28&#45;&gt;Node27</title>
<g id="a_edge95_Node000028_Node000027"><a xlink:title=" ">
<path fill="none" stroke="#63b8ff" d="M159.65,-497.38C176.85,-498.96 195.05,-500.63 211.97,-502.18"/>
<polygon fill="#63b8ff" stroke="#63b8ff" points="159.94,-493.9 149.66,-496.47 159.3,-500.87 159.94,-493.9"/>
</a>
</g>
</g>
<!-- Node30 -->
<g id="Node000030" class="node">
<title>Node30</title>
<g id="a_Node000030"><a xlink:title=" ">
<polygon fill="#e0e0e0" stroke="#999999" points="143,-463 24,-463 24,-444 143,-444 143,-463"/>
<text text-anchor="middle" x="83.5" y="-451" font-family="Helvetica,sans-Serif" font-size="10.00">Ui_InputConfigDialog</text>
</a>
</g>
</g>
<!-- Node30&#45;&gt;Node29 -->
<g id="edge96_Node000030_Node000029" class="edge">
<title>Node30&#45;&gt;Node29</title>
<g id="a_edge96_Node000030_Node000029"><a xlink:title=" ">
<path fill="none" stroke="#63b8ff" d="M153.22,-453.5C177.04,-453.5 203.41,-453.5 225.97,-453.5"/>
<polygon fill="#63b8ff" stroke="#63b8ff" points="153.19,-450 143.19,-453.5 153.19,-457 153.19,-450"/>
</a>
</g>
</g>
<!-- Node36 -->
<g id="Node000036" class="node">
<title>Node36</title>
<g id="a_Node000036"><a xlink:title=" ">
<polygon fill="#e0e0e0" stroke="#999999" points="159,-352 8,-352 8,-333 159,-333 159,-352"/>
<text text-anchor="middle" x="83.5" y="-340" font-family="Helvetica,sans-Serif" font-size="10.00">Ui_PickDocumentObjectDlg</text>
</a>
</g>
</g>
<!-- Node36&#45;&gt;Node35 -->
<g id="edge97_Node000036_Node000035" class="edge">
<title>Node36&#45;&gt;Node35</title>
<g id="a_edge97_Node000036_Node000035"><a xlink:title=" ">
<path fill="none" stroke="#63b8ff" d="M169.25,-342.5C180.42,-342.5 191.83,-342.5 202.89,-342.5"/>
<polygon fill="#63b8ff" stroke="#63b8ff" points="169.07,-339 159.07,-342.5 169.07,-346 169.07,-339"/>
</a>
</g>
</g>
<!-- Node38 -->
<g id="Node000038" class="node">
<title>Node38</title>
<g id="a_Node000038"><a xlink:title=" ">
<polygon fill="#e0e0e0" stroke="#999999" points="145.5,-315 21.5,-315 21.5,-296 145.5,-296 145.5,-315"/>
<text text-anchor="middle" x="83.5" y="-303" font-family="Helvetica,sans-Serif" font-size="10.00">Ui_PluginSelectionDlg</text>
</a>
</g>
</g>
<!-- Node38&#45;&gt;Node37 -->
<g id="edge98_Node000038_Node000037" class="edge">
<title>Node38&#45;&gt;Node37</title>
<g id="a_edge98_Node000038_Node000037"><a xlink:title=" ">
<path fill="none" stroke="#63b8ff" d="M155.76,-305.5C175.51,-305.5 196.84,-305.5 216.2,-305.5"/>
<polygon fill="#63b8ff" stroke="#63b8ff" points="155.6,-302 145.6,-305.5 155.6,-309 155.6,-302"/>
</a>
</g>
</g>
<!-- Node52 -->
<g id="Node000052" class="node">
<title>Node52</title>
<g id="a_Node000052"><a xlink:title=" ">
<polygon fill="#e0e0e0" stroke="#999999" points="156,-56 11,-56 11,-37 156,-37 156,-56"/>
<text text-anchor="middle" x="83.5" y="-44" font-family="Helvetica,sans-Serif" font-size="10.00">Ui_QtWaitForOperationDlg</text>
</a>
</g>
</g>
<!-- Node52&#45;&gt;Node51 -->
<g id="edge99_Node000052_Node000051" class="edge">
<title>Node52&#45;&gt;Node51</title>
<g id="a_edge99_Node000052_Node000051"><a xlink:title=" ">
<path fill="none" stroke="#63b8ff" d="M166.51,-46.5C181.43,-46.5 196.86,-46.5 211.39,-46.5"/>
<polygon fill="#63b8ff" stroke="#63b8ff" points="166.28,-43 156.28,-46.5 166.28,-50 166.28,-43"/>
</a>
</g>
</g>
<!-- Node44 -->
<g id="Node000044" class="node">
<title>Node44</title>
<g id="a_Node000044"><a xlink:title=" ">
<polygon fill="#e0e0e0" stroke="#999999" points="147.5,-204 19.5,-204 19.5,-185 147.5,-185 147.5,-204"/>
<text text-anchor="middle" x="83.5" y="-192" font-family="Helvetica,sans-Serif" font-size="10.00">Ui_ShaderTemplateDlg</text>
</a>
</g>
</g>
<!-- Node44&#45;&gt;Node43 -->
<g id="edge100_Node000044_Node000043" class="edge">
<title>Node44&#45;&gt;Node43</title>
<g id="a_edge100_Node000044_Node000043"><a xlink:title=" ">
<path fill="none" stroke="#63b8ff" d="M157.91,-194.5C176.47,-194.5 196.29,-194.5 214.48,-194.5"/>
<polygon fill="#63b8ff" stroke="#63b8ff" points="157.76,-191 147.76,-194.5 157.76,-198 157.76,-191"/>
</a>
</g>
</g>
<!-- Node46 -->
<g id="Node000046" class="node">
<title>Node46</title>
<g id="a_Node000046"><a xlink:title=" ">
<polygon fill="#e0e0e0" stroke="#999999" points="134,-167 33,-167 33,-148 134,-148 134,-167"/>
<text text-anchor="middle" x="83.5" y="-155" font-family="Helvetica,sans-Serif" font-size="10.00">Ui_ShortcutEditor</text>
</a>
</g>
</g>
<!-- Node46&#45;&gt;Node45 -->
<g id="edge101_Node000046_Node000045" class="edge">
<title>Node46&#45;&gt;Node45</title>
<g id="a_edge101_Node000046_Node000045"><a xlink:title=" ">
<path fill="none" stroke="#63b8ff" d="M144.39,-157.5C168.18,-157.5 195.52,-157.5 219.47,-157.5"/>
<polygon fill="#63b8ff" stroke="#63b8ff" points="144.09,-154 134.09,-157.5 144.09,-161 144.09,-154"/>
</a>
</g>
</g>
<!-- Node48 -->
<g id="Node000048" class="node">
<title>Node48</title>
<g id="a_Node000048"><a xlink:title=" ">
<polygon fill="#e0e0e0" stroke="#999999" points="140,-130 27,-130 27,-111 140,-111 140,-130"/>
<text text-anchor="middle" x="83.5" y="-118" font-family="Helvetica,sans-Serif" font-size="10.00">Ui_SnapSettingsDlg</text>
</a>
</g>
</g>
<!-- Node48&#45;&gt;Node47 -->
<g id="edge102_Node000048_Node000047" class="edge">
<title>Node48&#45;&gt;Node47</title>
<g id="a_edge102_Node000048_Node000047"><a xlink:title=" ">
<path fill="none" stroke="#63b8ff" d="M150.11,-120.5C173.3,-120.5 199.22,-120.5 221.84,-120.5"/>
<polygon fill="#63b8ff" stroke="#63b8ff" points="150.02,-117 140.02,-120.5 150.02,-124 150.02,-117"/>
</a>
</g>
</g>
<!-- Node6 -->
<g id="Node000006" class="node">
<title>Node6</title>
<g id="a_Node000006"><a xlink:title=" ">
<polygon fill="#e0e0e0" stroke="#999999" points="151,-944 16,-944 16,-925 151,-925 151,-944"/>
<text text-anchor="middle" x="83.5" y="-932" font-family="Helvetica,sans-Serif" font-size="10.00">Ui_xiiQtAssetProfilesDlg</text>
</a>
</g>
</g>
<!-- Node6&#45;&gt;Node5 -->
<g id="edge103_Node000006_Node000005" class="edge">
<title>Node6&#45;&gt;Node5</title>
<g id="a_edge103_Node000006_Node000005"><a xlink:title=" ">
<path fill="none" stroke="#63b8ff" d="M161.21,-934.11C181.57,-934.01 203.22,-933.9 222.44,-933.8"/>
<polygon fill="#63b8ff" stroke="#63b8ff" points="161.01,-930.61 151.03,-934.16 161.04,-937.61 161.01,-930.61"/>
</a>
</g>
</g>
<!-- Node10 -->
<g id="Node000010" class="node">
<title>Node10</title>
<g id="a_Node000010"><a xlink:title=" ">
<polygon fill="#e0e0e0" stroke="#999999" points="146,-870 21,-870 21,-851 146,-851 146,-870"/>
<text text-anchor="middle" x="83.5" y="-858" font-family="Helvetica,sans-Serif" font-size="10.00">Ui_xiiQtCppProjectDlg</text>
</a>
</g>
</g>
<!-- Node10&#45;&gt;Node9 -->
<g id="edge104_Node000010_Node000009" class="edge">
<title>Node10&#45;&gt;Node9</title>
<g id="a_edge104_Node000010_Node000009"><a xlink:title=" ">
<path fill="none" stroke="#63b8ff" d="M156.37,-860.13C179.79,-860.02 205.36,-859.88 227.22,-859.77"/>
<polygon fill="#63b8ff" stroke="#63b8ff" points="156.12,-856.64 146.13,-860.19 156.15,-863.64 156.12,-856.64"/>
</a>
</g>
</g>
<!-- Node14 -->
<g id="Node000014" class="node">
<title>Node14</title>
<g id="a_Node000014"><a xlink:title=" ">
<polygon fill="#e0e0e0" stroke="#999999" points="146,-796 21,-796 21,-777 146,-777 146,-796"/>
<text text-anchor="middle" x="83.5" y="-784" font-family="Helvetica,sans-Serif" font-size="10.00">Ui_xiiQtDashboardDlg</text>
</a>
</g>
</g>
<!-- Node14&#45;&gt;Node13 -->
<g id="edge105_Node000014_Node000013" class="edge">
<title>Node14&#45;&gt;Node13</title>
<g id="a_edge105_Node000014_Node000013"><a xlink:title=" ">
<path fill="none" stroke="#63b8ff" d="M156.37,-786.13C179.79,-786.02 205.36,-785.88 227.22,-785.77"/>
<polygon fill="#63b8ff" stroke="#63b8ff" points="156.12,-782.64 146.13,-786.19 156.15,-789.64 156.12,-782.64"/>
</a>
</g>
</g>
<!-- Node16 -->
<g id="Node000016" class="node">
<title>Node16</title>
<g id="a_Node000016"><a xlink:title=" ">
<polygon fill="#e0e0e0" stroke="#999999" points="141,-759 26,-759 26,-740 141,-740 141,-759"/>
<text text-anchor="middle" x="83.5" y="-747" font-family="Helvetica,sans-Serif" font-size="10.00">Ui_xiiQtDataDirsDlg</text>
</a>
</g>
</g>
<!-- Node16&#45;&gt;Node15 -->
<g id="edge106_Node000016_Node000015" class="edge">
<title>Node16&#45;&gt;Node15</title>
<g id="a_edge106_Node000016_Node000015"><a xlink:title=" ">
<path fill="none" stroke="#63b8ff" d="M151.11,-749.16C177.78,-749.03 207.94,-748.87 232.48,-748.75"/>
<polygon fill="#63b8ff" stroke="#63b8ff" points="151.05,-745.66 141.07,-749.21 151.09,-752.66 151.05,-745.66"/>
</a>
</g>
</g>
<!-- Node22 -->
<g id="Node000022" class="node">
<title>Node22</title>
<g id="a_Node000022"><a xlink:title=" ">
<polygon fill="#e0e0e0" stroke="#999999" points="167,-648 0,-648 0,-629 167,-629 167,-648"/>
<text text-anchor="middle" x="83.5" y="-636" font-family="Helvetica,sans-Serif" font-size="10.00">Ui_xiiQtEditDynamicEnumsDlg</text>
</a>
</g>
</g>
<!-- Node22&#45;&gt;Node21 -->
<g id="edge107_Node000022_Node000021" class="edge">
<title>Node22&#45;&gt;Node21</title>
<g id="a_edge107_Node000022_Node000021"><a xlink:title=" ">
<path fill="none" stroke="#63b8ff" d="M177.52,-637.08C187.01,-636.93 196.57,-636.79 205.83,-636.65"/>
<polygon fill="#63b8ff" stroke="#63b8ff" points="177.21,-633.58 167.26,-637.24 177.32,-640.58 177.21,-633.58"/>
</a>
</g>
</g>
<!-- Node32 -->
<g id="Node000032" class="node">
<title>Node32</title>
<g id="a_Node000032"><a xlink:title=" ">
<polygon fill="#e0e0e0" stroke="#999999" points="159,-426 8,-426 8,-407 159,-407 159,-426"/>
<text text-anchor="middle" x="83.5" y="-414" font-family="Helvetica,sans-Serif" font-size="10.00">Ui_xiiQtLaunchFileserveDlg</text>
</a>
</g>
</g>
<!-- Node32&#45;&gt;Node31 -->
<g id="edge108_Node000032_Node000031" class="edge">
<title>Node32&#45;&gt;Node31</title>
<g id="a_edge108_Node000032_Node000031"><a xlink:title=" ">
<path fill="none" stroke="#63b8ff" d="M169.37,-416.5C184.37,-416.5 199.8,-416.5 214.22,-416.5"/>
<polygon fill="#63b8ff" stroke="#63b8ff" points="169.07,-413 159.07,-416.5 169.07,-420 169.07,-413"/>
</a>
</g>
</g>
<!-- Node40 -->
<g id="Node000040" class="node">
<title>Node40</title>
<g id="a_Node000040"><a xlink:title=" ">
<polygon fill="#e0e0e0" stroke="#999999" points="148.5,-278 18.5,-278 18.5,-259 148.5,-259 148.5,-278"/>
<text text-anchor="middle" x="83.5" y="-266" font-family="Helvetica,sans-Serif" font-size="10.00">Ui_xiiQtPreferencesDlg</text>
</a>
</g>
</g>
<!-- Node40&#45;&gt;Node39 -->
<g id="edge109_Node000040_Node000039" class="edge">
<title>Node40&#45;&gt;Node39</title>
<g id="a_edge109_Node000040_Node000039"><a xlink:title=" ">
<path fill="none" stroke="#63b8ff" d="M158.84,-268.5C180.77,-268.5 204.38,-268.5 224.95,-268.5"/>
<polygon fill="#63b8ff" stroke="#63b8ff" points="158.57,-265 148.57,-268.5 158.57,-272 158.57,-265"/>
</a>
</g>
</g>
<!-- Node42 -->
<g id="Node000042" class="node">
<title>Node42</title>
<g id="a_Node000042"><a xlink:title=" ">
<polygon fill="#e0e0e0" stroke="#999999" points="166,-241 1,-241 1,-222 166,-222 166,-241"/>
<text text-anchor="middle" x="83.5" y="-229" font-family="Helvetica,sans-Serif" font-size="10.00">Ui_xiiQtRemoteConnectionDlg</text>
</a>
</g>
</g>
<!-- Node42&#45;&gt;Node41 -->
<g id="edge110_Node000042_Node000041" class="edge">
<title>Node42&#45;&gt;Node41</title>
<g id="a_edge110_Node000042_Node000041"><a xlink:title=" ">
<path fill="none" stroke="#63b8ff" d="M176.15,-231.5C186.65,-231.5 197.25,-231.5 207.47,-231.5"/>
<polygon fill="#63b8ff" stroke="#63b8ff" points="176.13,-228 166.13,-231.5 176.13,-235 176.13,-228"/>
</a>
</g>
</g>
<!-- Node50 -->
<g id="Node000050" class="node">
<title>Node50</title>
<g id="a_Node000050"><a xlink:title=" ">
<polygon fill="#e0e0e0" stroke="#999999" points="130.5,-93 36.5,-93 36.5,-74 130.5,-74 130.5,-93"/>
<text text-anchor="middle" x="83.5" y="-81" font-family="Helvetica,sans-Serif" font-size="10.00">Ui_xiiQtTagsDlg</text>
</a>
</g>
</g>
<!-- Node50&#45;&gt;Node49 -->
<g id="edge111_Node000050_Node000049" class="edge">
<title>Node50&#45;&gt;Node49</title>
<g id="a_edge111_Node000050_Node000049"><a xlink:title=" ">
<path fill="none" stroke="#63b8ff" d="M140.89,-83.5C173.56,-83.5 213.84,-83.5 242.81,-83.5"/>
<polygon fill="#63b8ff" stroke="#63b8ff" points="140.57,-80 130.57,-83.5 140.57,-87 140.57,-80"/>
</a>
</g>
</g>
<!-- Node54 -->
<g id="Node000054" class="node">
<title>Node54</title>
<g id="a_Node000054"><a xlink:title=" ">
<polygon fill="#e0e0e0" stroke="#999999" points="147.5,-19 19.5,-19 19.5,0 147.5,0 147.5,-19"/>
<text text-anchor="middle" x="83.5" y="-7" font-family="Helvetica,sans-Serif" font-size="10.00">Ui_xiiQtWindowCfgDlg</text>
</a>
</g>
</g>
<!-- Node54&#45;&gt;Node53 -->
<g id="edge112_Node000054_Node000053" class="edge">
<title>Node54&#45;&gt;Node53</title>
<g id="a_edge112_Node000054_Node000053"><a xlink:title=" ">
<path fill="none" stroke="#63b8ff" d="M157.94,-9.5C180.42,-9.5 204.76,-9.5 225.81,-9.5"/>
<polygon fill="#63b8ff" stroke="#63b8ff" points="157.76,-6 147.76,-9.5 157.76,-13 157.76,-6"/>
</a>
</g>
</g>
</g>
</svg>
