<?xml version="1.0" encoding="UTF-8" standalone="no"?>
<!DOCTYPE svg PUBLIC "-//W3C//DTD SVG 1.1//EN"
 "http://www.w3.org/Graphics/SVG/1.1/DTD/svg11.dtd">
<!-- Generated by graphviz version 2.43.0 (0)
 -->
<!-- Title: Graphical Class Hierarchy Pages: 1 -->
<svg width="308pt" height="64pt"
 viewBox="0.00 0.00 308.00 64.00" xmlns="http://www.w3.org/2000/svg" xmlns:xlink="http://www.w3.org/1999/xlink">
<g id="graph0" class="graph" transform="scale(1 1) rotate(0) translate(4 60)">
<title>Graphical Class Hierarchy</title>
<!-- Node0 -->
<g id="Node000000" class="node">
<title>Node0</title>
<g id="a_Node000000"><a xlink:href="d6/d91/classxii_long_op_manager.htm" target="_top" xlink:title="Base class with shared functionality for xiiLongOpControllerManager and xiiLongOpWorkerManager.">
<polygon fill="white" stroke="#666666" points="108,-37 0,-37 0,-18 108,-18 108,-37"/>
<text text-anchor="middle" x="54" y="-25" font-family="Helvetica,sans-Serif" font-size="10.00">xiiLongOpManager</text>
</a>
</g>
</g>
<!-- Node1 -->
<g id="Node000001" class="node">
<title>Node1</title>
<g id="a_Node000001"><a xlink:href="df/d2a/classxii_long_op_controller_manager.htm" target="_top" xlink:title="The LongOp controller is active in the editor process and manages which long ops are available,...">
<polygon fill="white" stroke="#666666" points="300,-56 144,-56 144,-37 300,-37 300,-56"/>
<text text-anchor="middle" x="222" y="-44" font-family="Helvetica,sans-Serif" font-size="10.00">xiiLongOpControllerManager</text>
</a>
</g>
</g>
<!-- Node0&#45;&gt;Node1 -->
<g id="edge2007_Node000000_Node000001" class="edge">
<title>Node0&#45;&gt;Node1</title>
<g id="a_edge2007_Node000000_Node000001"><a xlink:title=" ">
<path fill="none" stroke="#63b8ff" d="M118.4,-34.76C126.71,-35.71 135.29,-36.69 143.79,-37.66"/>
<polygon fill="#63b8ff" stroke="#63b8ff" points="118.77,-31.28 108.44,-33.62 117.97,-38.23 118.77,-31.28"/>
</a>
</g>
</g>
<!-- Node2 -->
<g id="Node000002" class="node">
<title>Node2</title>
<g id="a_Node000002"><a xlink:href="dd/d8f/classxii_long_op_worker_manager.htm" target="_top" xlink:title="The LongOp worker manager is active in the engine process of the editor.">
<polygon fill="white" stroke="#666666" points="293,-19 151,-19 151,0 293,0 293,-19"/>
<text text-anchor="middle" x="222" y="-7" font-family="Helvetica,sans-Serif" font-size="10.00">xiiLongOpWorkerManager</text>
</a>
</g>
</g>
<!-- Node0&#45;&gt;Node2 -->
<g id="edge2008_Node000000_Node000002" class="edge">
<title>Node0&#45;&gt;Node2</title>
<g id="a_edge2008_Node000000_Node000002"><a xlink:title=" ">
<path fill="none" stroke="#63b8ff" d="M118.47,-20.62C129.11,-19.46 140.2,-18.26 150.99,-17.09"/>
<polygon fill="#63b8ff" stroke="#63b8ff" points="118,-17.15 108.44,-21.71 118.76,-24.11 118,-17.15"/>
</a>
</g>
</g>
</g>
</svg>
