<?xml version="1.0" encoding="UTF-8" standalone="no"?>
<!DOCTYPE svg PUBLIC "-//W3C//DTD SVG 1.1//EN"
 "http://www.w3.org/Graphics/SVG/1.1/DTD/svg11.dtd">
<!-- Generated by graphviz version 2.43.0 (0)
 -->
<!-- Title: xiiQtColorGradientEditorWidget Pages: 1 -->
<svg width="248pt" height="93pt"
 viewBox="0.00 0.00 248.00 93.00" xmlns="http://www.w3.org/2000/svg" xmlns:xlink="http://www.w3.org/1999/xlink">
<g id="graph0" class="graph" transform="scale(1 1) rotate(0) translate(4 89)">
<title>xiiQtColorGradientEditorWidget</title>
<!-- Node1 -->
<g id="Node000001" class="node">
<title>Node1</title>
<g id="a_Node000001"><a xlink:title=" ">
<polygon fill="#999999" stroke="#666666" points="161.5,-30 25.5,-30 25.5,0 161.5,0 161.5,-30"/>
<text text-anchor="start" x="33.5" y="-18" font-family="Helvetica,sans-Serif" font-size="10.00">xiiQtColorGradientEditor</text>
<text text-anchor="middle" x="93.5" y="-7" font-family="Helvetica,sans-Serif" font-size="10.00">Widget</text>
</a>
</g>
</g>
<!-- Node2 -->
<g id="Node000002" class="node">
<title>Node2</title>
<g id="a_Node000002"><a xlink:title=" ">
<polygon fill="white" stroke="#bfbfbf" points="59,-85 0,-85 0,-66 59,-66 59,-85"/>
<text text-anchor="middle" x="29.5" y="-73" font-family="Helvetica,sans-Serif" font-size="10.00">QWidget</text>
</a>
</g>
</g>
<!-- Node2&#45;&gt;Node1 -->
<g id="edge1_Node000001_Node000002" class="edge">
<title>Node2&#45;&gt;Node1</title>
<g id="a_edge1_Node000001_Node000002"><a xlink:title=" ">
<path fill="none" stroke="#63b8ff" d="M46.49,-58.97C56.3,-50.01 68.53,-38.82 78.06,-30.11"/>
<polygon fill="#63b8ff" stroke="#63b8ff" points="43.96,-56.54 38.94,-65.87 48.69,-61.7 43.96,-56.54"/>
</a>
</g>
</g>
<!-- Node3 -->
<g id="Node000003" class="node">
<title>Node3</title>
<g id="a_Node000003"><a xlink:title=" ">
<polygon fill="white" stroke="#bfbfbf" points="240,-85 77,-85 77,-66 240,-66 240,-85"/>
<text text-anchor="middle" x="158.5" y="-73" font-family="Helvetica,sans-Serif" font-size="10.00">Ui_ColorGradientEditorWidget</text>
</a>
</g>
</g>
<!-- Node3&#45;&gt;Node1 -->
<g id="edge2_Node000001_Node000003" class="edge">
<title>Node3&#45;&gt;Node1</title>
<g id="a_edge2_Node000001_Node000003"><a xlink:title=" ">
<path fill="none" stroke="#63b8ff" d="M141.24,-58.97C131.28,-50.01 118.86,-38.82 109.18,-30.11"/>
<polygon fill="#63b8ff" stroke="#63b8ff" points="139.13,-61.78 148.91,-65.87 143.82,-56.58 139.13,-61.78"/>
</a>
</g>
</g>
</g>
</svg>
