<?xml version="1.0" encoding="UTF-8" standalone="no"?>
<!DOCTYPE svg PUBLIC "-//W3C//DTD SVG 1.1//EN"
 "http://www.w3.org/Graphics/SVG/1.1/DTD/svg11.dtd">
<!-- Generated by graphviz version 2.43.0 (0)
 -->
<!-- Title: xiiObjectCommandAccessor Pages: 1 -->
<svg width="344pt" height="192pt"
 viewBox="0.00 0.00 344.00 192.00" xmlns="http://www.w3.org/2000/svg" xmlns:xlink="http://www.w3.org/1999/xlink">
<g id="graph0" class="graph" transform="scale(1 1) rotate(0) translate(4 188)">
<title>xiiObjectCommandAccessor</title>
<!-- Node1 -->
<g id="Node000001" class="node">
<title>Node1</title>
<g id="a_Node000001"><a xlink:title=" ">
<polygon fill="#999999" stroke="#666666" points="239,-74 85,-74 85,-55 239,-55 239,-74"/>
<text text-anchor="middle" x="162" y="-62" font-family="Helvetica,sans-Serif" font-size="10.00">xiiObjectCommandAccessor</text>
</a>
</g>
</g>
<!-- Node4 -->
<g id="Node000004" class="node">
<title>Node4</title>
<g id="a_Node000004"><a xlink:href="../../d5/d84/classxii_node_command_accessor.htm" target="_top" xlink:title=" ">
<polygon fill="white" stroke="#bfbfbf" points="148,-19 0,-19 0,0 148,0 148,-19"/>
<text text-anchor="middle" x="74" y="-7" font-family="Helvetica,sans-Serif" font-size="10.00">xiiNodeCommandAccessor</text>
</a>
</g>
</g>
<!-- Node1&#45;&gt;Node4 -->
<g id="edge3_Node000001_Node000004" class="edge">
<title>Node1&#45;&gt;Node4</title>
<g id="a_edge3_Node000001_Node000004"><a xlink:title=" ">
<path fill="none" stroke="#63b8ff" d="M139.08,-49.7C123.05,-40.04 102.13,-27.44 88.4,-19.17"/>
<polygon fill="#63b8ff" stroke="#63b8ff" points="137.49,-52.82 147.86,-54.98 141.1,-46.83 137.49,-52.82"/>
</a>
</g>
</g>
<!-- Node5 -->
<g id="Node000005" class="node">
<title>Node5</title>
<g id="a_Node000005"><a xlink:href="../../db/d68/classxii_property_anim_object_accessor.htm" target="_top" xlink:title=" ">
<polygon fill="white" stroke="#bfbfbf" points="336,-19 166,-19 166,0 336,0 336,-19"/>
<text text-anchor="middle" x="251" y="-7" font-family="Helvetica,sans-Serif" font-size="10.00">xiiPropertyAnimObjectAccessor</text>
</a>
</g>
</g>
<!-- Node1&#45;&gt;Node5 -->
<g id="edge4_Node000001_Node000005" class="edge">
<title>Node1&#45;&gt;Node5</title>
<g id="a_edge4_Node000001_Node000005"><a xlink:title=" ">
<path fill="none" stroke="#63b8ff" d="M185.18,-49.7C201.39,-40.04 222.55,-27.44 236.44,-19.17"/>
<polygon fill="#63b8ff" stroke="#63b8ff" points="183.1,-46.86 176.3,-54.98 186.68,-52.88 183.1,-46.86"/>
</a>
</g>
</g>
<!-- Node2 -->
<g id="Node000002" class="node">
<title>Node2</title>
<g id="a_Node000002"><a xlink:href="../../d8/d91/classxii_object_direct_accessor.htm" target="_top" xlink:title=" ">
<polygon fill="white" stroke="#bfbfbf" points="228.5,-129 95.5,-129 95.5,-110 228.5,-110 228.5,-129"/>
<text text-anchor="middle" x="162" y="-117" font-family="Helvetica,sans-Serif" font-size="10.00">xiiObjectDirectAccessor</text>
</a>
</g>
</g>
<!-- Node2&#45;&gt;Node1 -->
<g id="edge1_Node000001_Node000002" class="edge">
<title>Node2&#45;&gt;Node1</title>
<g id="a_edge1_Node000001_Node000002"><a xlink:title=" ">
<path fill="none" stroke="#63b8ff" d="M162,-99.66C162,-90.93 162,-80.99 162,-74.09"/>
<polygon fill="#63b8ff" stroke="#63b8ff" points="158.5,-99.75 162,-109.75 165.5,-99.75 158.5,-99.75"/>
</a>
</g>
</g>
<!-- Node3 -->
<g id="Node000003" class="node">
<title>Node3</title>
<g id="a_Node000003"><a xlink:href="../../de/d12/classxii_object_accessor_base.htm" target="_top" xlink:title=" ">
<polygon fill="white" stroke="#bfbfbf" points="226,-184 98,-184 98,-165 226,-165 226,-184"/>
<text text-anchor="middle" x="162" y="-172" font-family="Helvetica,sans-Serif" font-size="10.00">xiiObjectAccessorBase</text>
</a>
</g>
</g>
<!-- Node3&#45;&gt;Node2 -->
<g id="edge2_Node000002_Node000003" class="edge">
<title>Node3&#45;&gt;Node2</title>
<g id="a_edge2_Node000002_Node000003"><a xlink:title=" ">
<path fill="none" stroke="#63b8ff" d="M162,-154.66C162,-145.93 162,-135.99 162,-129.09"/>
<polygon fill="#63b8ff" stroke="#63b8ff" points="158.5,-154.75 162,-164.75 165.5,-154.75 158.5,-154.75"/>
</a>
</g>
</g>
</g>
</svg>
