<?xml version="1.0" encoding="UTF-8" standalone="no"?>
<!DOCTYPE svg PUBLIC "-//W3C//DTD SVG 1.1//EN"
 "http://www.w3.org/Graphics/SVG/1.1/DTD/svg11.dtd">
<!-- Generated by graphviz version 2.43.0 (0)
 -->
<!-- Title: xiiExtractor Pages: 1 -->
<svg width="720pt" height="218pt"
 viewBox="0.00 0.00 720.00 218.00" xmlns="http://www.w3.org/2000/svg" xmlns:xlink="http://www.w3.org/1999/xlink">
<g id="graph0" class="graph" transform="scale(1 1) rotate(0) translate(4 214)">
<title>xiiExtractor</title>
<polygon fill="white" stroke="transparent" points="-4,4 -4,-214 716,-214 716,4 -4,4"/>
<!-- Node1 -->
<g id="node1" class="node">
<title>Node1</title>
<g id="a_node1"><a xlink:title=" ">
<polygon fill="#bfbfbf" stroke="black" points="239,-95.5 239,-114.5 312,-114.5 312,-95.5 239,-95.5"/>
<text text-anchor="middle" x="275.5" y="-102.5" font-family="Helvetica,sans-Serif" font-size="10.00">xiiExtractor</text>
</a>
</g>
</g>
<!-- Node4 -->
<g id="node4" class="node">
<title>Node4</title>
<g id="a_node4"><a xlink:href="../../d0/d1f/classxii_clustered_data_extractor.htm" target="_top" xlink:title=" ">
<polygon fill="white" stroke="black" points="364.5,-190.5 364.5,-209.5 507.5,-209.5 507.5,-190.5 364.5,-190.5"/>
<text text-anchor="middle" x="436" y="-197.5" font-family="Helvetica,sans-Serif" font-size="10.00">xiiClusteredDataExtractor</text>
</a>
</g>
</g>
<!-- Node1&#45;&gt;Node4 -->
<g id="edge3" class="edge">
<title>Node1&#45;&gt;Node4</title>
<path fill="none" stroke="midnightblue" d="M288.46,-122.99C301.13,-140.57 322.77,-166.7 348,-181 354.86,-184.89 362.44,-187.98 370.18,-190.44"/>
<polygon fill="midnightblue" stroke="midnightblue" points="291.27,-120.89 282.68,-114.68 285.52,-124.89 291.27,-120.89"/>
</g>
<!-- Node5 -->
<g id="node5" class="node">
<title>Node5</title>
<g id="a_node5"><a xlink:href="../../dd/d7e/classxii_editor_grid_extractor.htm" target="_top" xlink:title=" ">
<polygon fill="white" stroke="black" points="375,-152.5 375,-171.5 497,-171.5 497,-152.5 375,-152.5"/>
<text text-anchor="middle" x="436" y="-159.5" font-family="Helvetica,sans-Serif" font-size="10.00">xiiEditorGridExtractor</text>
</a>
</g>
</g>
<!-- Node1&#45;&gt;Node5 -->
<g id="edge4" class="edge">
<title>Node1&#45;&gt;Node5</title>
<path fill="none" stroke="midnightblue" d="M300.24,-119.74C313.81,-127.61 331.38,-136.9 348,-143 358.3,-146.78 369.59,-149.93 380.51,-152.5"/>
<polygon fill="midnightblue" stroke="midnightblue" points="301.94,-116.67 291.55,-114.57 298.36,-122.69 301.94,-116.67"/>
</g>
<!-- Node6 -->
<g id="node6" class="node">
<title>Node6</title>
<g id="a_node6"><a xlink:href="../../db/d68/classxii_editor_shape_icons_extractor.htm" target="_top" xlink:title=" ">
<polygon fill="white" stroke="black" points="357.5,-114.5 357.5,-133.5 514.5,-133.5 514.5,-114.5 357.5,-114.5"/>
<text text-anchor="middle" x="436" y="-121.5" font-family="Helvetica,sans-Serif" font-size="10.00">xiiEditorShapeIconsExtractor</text>
</a>
</g>
</g>
<!-- Node1&#45;&gt;Node6 -->
<g id="edge5" class="edge">
<title>Node1&#45;&gt;Node6</title>
<path fill="none" stroke="midnightblue" d="M322.28,-110.49C333.31,-111.81 345.4,-113.26 357.43,-114.7"/>
<polygon fill="midnightblue" stroke="midnightblue" points="322.42,-106.98 312.07,-109.26 321.58,-113.93 322.42,-106.98"/>
</g>
<!-- Node7 -->
<g id="node7" class="node">
<title>Node7</title>
<g id="a_node7"><a xlink:href="../../da/d19/classxii_selected_objects_extractor_base.htm" target="_top" xlink:title=" ">
<polygon fill="white" stroke="black" points="348,-76.5 348,-95.5 524,-95.5 524,-76.5 348,-76.5"/>
<text text-anchor="middle" x="436" y="-83.5" font-family="Helvetica,sans-Serif" font-size="10.00">xiiSelectedObjectsExtractorBase</text>
</a>
</g>
</g>
<!-- Node1&#45;&gt;Node7 -->
<g id="edge6" class="edge">
<title>Node1&#45;&gt;Node7</title>
<path fill="none" stroke="midnightblue" d="M322.18,-99.52C332.65,-98.27 344.07,-96.9 355.5,-95.53"/>
<polygon fill="midnightblue" stroke="midnightblue" points="321.58,-96.07 312.07,-100.74 322.42,-103.02 321.58,-96.07"/>
</g>
<!-- Node10 -->
<g id="node10" class="node">
<title>Node10</title>
<g id="a_node10"><a xlink:href="../../d0/d4d/classxii_simplified_data_extractor.htm" target="_top" xlink:title=" ">
<polygon fill="white" stroke="black" points="363.5,-38.5 363.5,-57.5 508.5,-57.5 508.5,-38.5 363.5,-38.5"/>
<text text-anchor="middle" x="436" y="-45.5" font-family="Helvetica,sans-Serif" font-size="10.00">xiiSimplifiedDataExtractor</text>
</a>
</g>
</g>
<!-- Node1&#45;&gt;Node10 -->
<g id="edge9" class="edge">
<title>Node1&#45;&gt;Node10</title>
<path fill="none" stroke="midnightblue" d="M300.24,-90.26C313.81,-82.39 331.38,-73.1 348,-67 358.3,-63.22 369.59,-60.07 380.51,-57.5"/>
<polygon fill="midnightblue" stroke="midnightblue" points="298.36,-87.31 291.55,-95.43 301.94,-93.33 298.36,-87.31"/>
</g>
<!-- Node11 -->
<g id="node11" class="node">
<title>Node11</title>
<g id="a_node11"><a xlink:href="../../d6/d2f/classxii_visible_objects_extractor.htm" target="_top" xlink:title=" ">
<polygon fill="white" stroke="black" points="364.5,-0.5 364.5,-19.5 507.5,-19.5 507.5,-0.5 364.5,-0.5"/>
<text text-anchor="middle" x="436" y="-7.5" font-family="Helvetica,sans-Serif" font-size="10.00">xiiVisibleObjectsExtractor</text>
</a>
</g>
</g>
<!-- Node1&#45;&gt;Node11 -->
<g id="edge10" class="edge">
<title>Node1&#45;&gt;Node11</title>
<path fill="none" stroke="midnightblue" d="M288.46,-87.01C301.13,-69.43 322.77,-43.3 348,-29 354.86,-25.11 362.44,-22.02 370.18,-19.56"/>
<polygon fill="midnightblue" stroke="midnightblue" points="285.52,-85.11 282.68,-95.32 291.27,-89.11 285.52,-85.11"/>
</g>
<!-- Node2 -->
<g id="node2" class="node">
<title>Node2</title>
<g id="a_node2"><a xlink:href="../../dc/d71/classxii_reflected_class.htm" target="_top" xlink:title="All classes that should be dynamically reflectable, need to be derived from this base class.">
<polygon fill="white" stroke="black" points="102,-95.5 102,-114.5 203,-114.5 203,-95.5 102,-95.5"/>
<text text-anchor="middle" x="152.5" y="-102.5" font-family="Helvetica,sans-Serif" font-size="10.00">xiiReflectedClass</text>
</a>
</g>
</g>
<!-- Node2&#45;&gt;Node1 -->
<g id="edge1" class="edge">
<title>Node2&#45;&gt;Node1</title>
<path fill="none" stroke="midnightblue" d="M213.29,-105C222.05,-105 230.83,-105 238.9,-105"/>
<polygon fill="midnightblue" stroke="midnightblue" points="213.06,-101.5 203.06,-105 213.06,-108.5 213.06,-101.5"/>
</g>
<!-- Node3 -->
<g id="node3" class="node">
<title>Node3</title>
<g id="a_node3"><a xlink:href="../../d2/d38/classxii_no_base.htm" target="_top" xlink:title="Dummy type to pass to templates and macros that expect a base type for a class that has no base.">
<polygon fill="white" stroke="black" points="0,-95.5 0,-114.5 66,-114.5 66,-95.5 0,-95.5"/>
<text text-anchor="middle" x="33" y="-102.5" font-family="Helvetica,sans-Serif" font-size="10.00">xiiNoBase</text>
</a>
</g>
</g>
<!-- Node3&#45;&gt;Node2 -->
<g id="edge2" class="edge">
<title>Node3&#45;&gt;Node2</title>
<path fill="none" stroke="midnightblue" d="M76.27,-105C84.54,-105 93.29,-105 101.78,-105"/>
<polygon fill="midnightblue" stroke="midnightblue" points="76.11,-101.5 66.11,-105 76.11,-108.5 76.11,-101.5"/>
</g>
<!-- Node8 -->
<g id="node8" class="node">
<title>Node8</title>
<g id="a_node8"><a xlink:href="../../d6/d37/classxii_editor_selected_objects_extractor.htm" target="_top" xlink:title=" ">
<polygon fill="white" stroke="black" points="568,-93 568,-123 704,-123 704,-93 568,-93"/>
<text text-anchor="start" x="576" y="-111" font-family="Helvetica,sans-Serif" font-size="10.00">xiiEditorSelectedObjects</text>
<text text-anchor="middle" x="636" y="-100" font-family="Helvetica,sans-Serif" font-size="10.00">Extractor</text>
</a>
</g>
</g>
<!-- Node7&#45;&gt;Node8 -->
<g id="edge7" class="edge">
<title>Node7&#45;&gt;Node8</title>
<path fill="none" stroke="midnightblue" d="M532.68,-96.63C544.61,-97.96 556.61,-99.29 567.97,-100.55"/>
<polygon fill="midnightblue" stroke="midnightblue" points="533.02,-93.15 522.69,-95.52 532.25,-100.1 533.02,-93.15"/>
</g>
<!-- Node9 -->
<g id="node9" class="node">
<title>Node9</title>
<g id="a_node9"><a xlink:href="../../d3/d40/classxii_selected_objects_extractor.htm" target="_top" xlink:title="An extractor that can be instantiated in a render pipeline, to define manually which objects should b...">
<polygon fill="white" stroke="black" points="560,-54.5 560,-73.5 712,-73.5 712,-54.5 560,-54.5"/>
<text text-anchor="middle" x="636" y="-61.5" font-family="Helvetica,sans-Serif" font-size="10.00">xiiSelectedObjectsExtractor</text>
</a>
</g>
</g>
<!-- Node7&#45;&gt;Node9 -->
<g id="edge8" class="edge">
<title>Node7&#45;&gt;Node9</title>
<path fill="none" stroke="midnightblue" d="M532.86,-75.35C541.89,-74.35 550.95,-73.34 559.75,-72.36"/>
<polygon fill="midnightblue" stroke="midnightblue" points="532.25,-71.9 522.69,-76.48 533.02,-78.85 532.25,-71.9"/>
</g>
</g>
</svg>
