<?xml version="1.0" encoding="UTF-8" standalone="no"?>
<!DOCTYPE svg PUBLIC "-//W3C//DTD SVG 1.1//EN"
 "http://www.w3.org/Graphics/SVG/1.1/DTD/svg11.dtd">
<!-- Generated by graphviz version 2.43.0 (0)
 -->
<!-- Title: xiiSelectedObjectsExtractorBase Pages: 1 -->
<svg width="314pt" height="263pt"
 viewBox="0.00 0.00 314.00 263.00" xmlns="http://www.w3.org/2000/svg" xmlns:xlink="http://www.w3.org/1999/xlink">
<g id="graph0" class="graph" transform="scale(1 1) rotate(0) translate(4 259)">
<title>xiiSelectedObjectsExtractorBase</title>
<polygon fill="white" stroke="transparent" points="-4,4 -4,-259 310,-259 310,4 -4,4"/>
<!-- Node1 -->
<g id="node1" class="node">
<title>Node1</title>
<g id="a_node1"><a xlink:title=" ">
<polygon fill="#bfbfbf" stroke="black" points="61,-67.5 61,-86.5 237,-86.5 237,-67.5 61,-67.5"/>
<text text-anchor="middle" x="149" y="-74.5" font-family="Helvetica,sans-Serif" font-size="10.00">xiiSelectedObjectsExtractorBase</text>
</a>
</g>
</g>
<!-- Node5 -->
<g id="node5" class="node">
<title>Node5</title>
<g id="a_node5"><a xlink:href="../../d6/d37/classxii_editor_selected_objects_extractor.htm" target="_top" xlink:title=" ">
<polygon fill="white" stroke="black" points="0,-0.5 0,-30.5 136,-30.5 136,-0.5 0,-0.5"/>
<text text-anchor="start" x="8" y="-18.5" font-family="Helvetica,sans-Serif" font-size="10.00">xiiEditorSelectedObjects</text>
<text text-anchor="middle" x="68" y="-7.5" font-family="Helvetica,sans-Serif" font-size="10.00">Extractor</text>
</a>
</g>
</g>
<!-- Node1&#45;&gt;Node5 -->
<g id="edge4" class="edge">
<title>Node1&#45;&gt;Node5</title>
<path fill="none" stroke="midnightblue" d="M129.22,-61.47C116.39,-52.05 99.77,-39.84 87.09,-30.52"/>
<polygon fill="midnightblue" stroke="midnightblue" points="127.26,-64.38 137.39,-67.48 131.41,-58.73 127.26,-64.38"/>
</g>
<!-- Node6 -->
<g id="node6" class="node">
<title>Node6</title>
<g id="a_node6"><a xlink:href="../../d3/d40/classxii_selected_objects_extractor.htm" target="_top" xlink:title="An extractor that can be instantiated in a render pipeline, to define manually which objects should b...">
<polygon fill="white" stroke="black" points="154,-6 154,-25 306,-25 306,-6 154,-6"/>
<text text-anchor="middle" x="230" y="-13" font-family="Helvetica,sans-Serif" font-size="10.00">xiiSelectedObjectsExtractor</text>
</a>
</g>
</g>
<!-- Node1&#45;&gt;Node6 -->
<g id="edge5" class="edge">
<title>Node1&#45;&gt;Node6</title>
<path fill="none" stroke="midnightblue" d="M169.02,-61.29C184.56,-49.88 205.55,-34.46 218.42,-25.01"/>
<polygon fill="midnightblue" stroke="midnightblue" points="166.59,-58.73 160.61,-67.48 170.74,-64.38 166.59,-58.73"/>
</g>
<!-- Node2 -->
<g id="node2" class="node">
<title>Node2</title>
<g id="a_node2"><a xlink:href="../../d9/dcf/classxii_extractor.htm" target="_top" xlink:title=" ">
<polygon fill="white" stroke="black" points="112.5,-123.5 112.5,-142.5 185.5,-142.5 185.5,-123.5 112.5,-123.5"/>
<text text-anchor="middle" x="149" y="-130.5" font-family="Helvetica,sans-Serif" font-size="10.00">xiiExtractor</text>
</a>
</g>
</g>
<!-- Node2&#45;&gt;Node1 -->
<g id="edge1" class="edge">
<title>Node2&#45;&gt;Node1</title>
<path fill="none" stroke="midnightblue" d="M149,-112.8C149,-103.91 149,-93.78 149,-86.75"/>
<polygon fill="midnightblue" stroke="midnightblue" points="145.5,-113.08 149,-123.08 152.5,-113.08 145.5,-113.08"/>
</g>
<!-- Node3 -->
<g id="node3" class="node">
<title>Node3</title>
<g id="a_node3"><a xlink:href="../../dc/d71/classxii_reflected_class.htm" target="_top" xlink:title="All classes that should be dynamically reflectable, need to be derived from this base class.">
<polygon fill="white" stroke="black" points="98.5,-179.5 98.5,-198.5 199.5,-198.5 199.5,-179.5 98.5,-179.5"/>
<text text-anchor="middle" x="149" y="-186.5" font-family="Helvetica,sans-Serif" font-size="10.00">xiiReflectedClass</text>
</a>
</g>
</g>
<!-- Node3&#45;&gt;Node2 -->
<g id="edge2" class="edge">
<title>Node3&#45;&gt;Node2</title>
<path fill="none" stroke="midnightblue" d="M149,-168.8C149,-159.91 149,-149.78 149,-142.75"/>
<polygon fill="midnightblue" stroke="midnightblue" points="145.5,-169.08 149,-179.08 152.5,-169.08 145.5,-169.08"/>
</g>
<!-- Node4 -->
<g id="node4" class="node">
<title>Node4</title>
<g id="a_node4"><a xlink:href="../../d2/d38/classxii_no_base.htm" target="_top" xlink:title="Dummy type to pass to templates and macros that expect a base type for a class that has no base.">
<polygon fill="white" stroke="black" points="116,-235.5 116,-254.5 182,-254.5 182,-235.5 116,-235.5"/>
<text text-anchor="middle" x="149" y="-242.5" font-family="Helvetica,sans-Serif" font-size="10.00">xiiNoBase</text>
</a>
</g>
</g>
<!-- Node4&#45;&gt;Node3 -->
<g id="edge3" class="edge">
<title>Node4&#45;&gt;Node3</title>
<path fill="none" stroke="midnightblue" d="M149,-224.8C149,-215.91 149,-205.78 149,-198.75"/>
<polygon fill="midnightblue" stroke="midnightblue" points="145.5,-225.08 149,-235.08 152.5,-225.08 145.5,-225.08"/>
</g>
</g>
</svg>
