<?xml version="1.0" encoding="UTF-8" standalone="no"?>
<!DOCTYPE svg PUBLIC "-//W3C//DTD SVG 1.1//EN"
 "http://www.w3.org/Graphics/SVG/1.1/DTD/svg11.dtd">
<!-- Generated by graphviz version 2.43.0 (0)
 -->
<!-- Title: xiiScriptMessageHandler Pages: 1 -->
<svg width="342pt" height="148pt"
 viewBox="0.00 0.00 341.50 148.00" xmlns="http://www.w3.org/2000/svg" xmlns:xlink="http://www.w3.org/1999/xlink">
<g id="graph0" class="graph" transform="scale(1 1) rotate(0) translate(4 144)">
<title>xiiScriptMessageHandler</title>
<!-- Node1 -->
<g id="Node000001" class="node">
<title>Node1</title>
<g id="a_Node000001"><a xlink:title=" ">
<polygon fill="#999999" stroke="#666666" points="230.5,-85 92.5,-85 92.5,-66 230.5,-66 230.5,-85"/>
<text text-anchor="middle" x="161.5" y="-73" font-family="Helvetica,sans-Serif" font-size="10.00">xiiScriptMessageHandler</text>
</a>
</g>
</g>
<!-- Node3 -->
<g id="Node000003" class="node">
<title>Node3</title>
<g id="a_Node000003"><a xlink:href="../../db/d31/classxii_script_coroutine_message_handler.htm" target="_top" xlink:title="A message handler that creates an instance of the given coroutine type and starts it immediately.">
<polygon fill="white" stroke="#666666" points="147,-30 0,-30 0,0 147,0 147,-30"/>
<text text-anchor="start" x="8" y="-18" font-family="Helvetica,sans-Serif" font-size="10.00">xiiScriptCoroutineMessage</text>
<text text-anchor="middle" x="73.5" y="-7" font-family="Helvetica,sans-Serif" font-size="10.00">Handler</text>
</a>
</g>
</g>
<!-- Node1&#45;&gt;Node3 -->
<g id="edge2_Node000001_Node000003" class="edge">
<title>Node1&#45;&gt;Node3</title>
<g id="a_edge2_Node000001_Node000003"><a xlink:title=" ">
<path fill="none" stroke="#63b8ff" d="M140.13,-60.29C126.34,-51.13 108.49,-39.26 94.73,-30.11"/>
<polygon fill="#63b8ff" stroke="#63b8ff" points="138.25,-63.25 148.52,-65.87 142.13,-57.42 138.25,-63.25"/>
</a>
</g>
</g>
<!-- Node4 -->
<g id="Node000004" class="node">
<title>Node4</title>
<g id="a_Node000004"><a xlink:href="../../d2/de5/classxii_visual_script_message_handler.htm" target="_top" xlink:title=" ">
<polygon fill="white" stroke="#bfbfbf" points="333.5,-24.5 165.5,-24.5 165.5,-5.5 333.5,-5.5 333.5,-24.5"/>
<text text-anchor="middle" x="249.5" y="-12.5" font-family="Helvetica,sans-Serif" font-size="10.00">xiiVisualScriptMessageHandler</text>
</a>
</g>
</g>
<!-- Node1&#45;&gt;Node4 -->
<g id="edge3_Node000001_Node000004" class="edge">
<title>Node1&#45;&gt;Node4</title>
<g id="a_edge3_Node000001_Node000004"><a xlink:title=" ">
<path fill="none" stroke="#63b8ff" d="M183.07,-60.16C199.79,-49.05 222.4,-34.01 236.46,-24.67"/>
<polygon fill="#63b8ff" stroke="#63b8ff" points="180.87,-57.42 174.48,-65.87 184.75,-63.25 180.87,-57.42"/>
</a>
</g>
</g>
<!-- Node2 -->
<g id="Node000002" class="node">
<title>Node2</title>
<g id="a_Node000002"><a xlink:href="../../d8/d84/classxii_abstract_message_handler.htm" target="_top" xlink:title="The base class for all message handlers that a type provides.">
<polygon fill="white" stroke="#666666" points="237,-140 86,-140 86,-121 237,-121 237,-140"/>
<text text-anchor="middle" x="161.5" y="-128" font-family="Helvetica,sans-Serif" font-size="10.00">xiiAbstractMessageHandler</text>
</a>
</g>
</g>
<!-- Node2&#45;&gt;Node1 -->
<g id="edge1_Node000001_Node000002" class="edge">
<title>Node2&#45;&gt;Node1</title>
<g id="a_edge1_Node000001_Node000002"><a xlink:title=" ">
<path fill="none" stroke="#63b8ff" d="M161.5,-110.66C161.5,-101.93 161.5,-91.99 161.5,-85.09"/>
<polygon fill="#63b8ff" stroke="#63b8ff" points="158,-110.75 161.5,-120.75 165,-110.75 158,-110.75"/>
</a>
</g>
</g>
</g>
</svg>
