<?xml version="1.0" encoding="UTF-8" standalone="no"?>
<!DOCTYPE svg PUBLIC "-//W3C//DTD SVG 1.1//EN"
 "http://www.w3.org/Graphics/SVG/1.1/DTD/svg11.dtd">
<!-- Generated by graphviz version 2.43.0 (0)
 -->
<!-- Title: xiiTransparentForwardRenderPass Pages: 1 -->
<svg width="189pt" height="302pt"
 viewBox="0.00 0.00 189.00 302.00" xmlns="http://www.w3.org/2000/svg" xmlns:xlink="http://www.w3.org/1999/xlink">
<g id="graph0" class="graph" transform="scale(1 1) rotate(0) translate(4 298)">
<title>xiiTransparentForwardRenderPass</title>
<!-- Node1 -->
<g id="Node000001" class="node">
<title>Node1</title>
<g id="a_Node000001"><a xlink:title="A forward render pass that renders all transparent objects into the color target.">
<polygon fill="#999999" stroke="#666666" points="181,-19 0,-19 0,0 181,0 181,-19"/>
<text text-anchor="middle" x="90.5" y="-7" font-family="Helvetica,sans-Serif" font-size="10.00">xiiTransparentForwardRenderPass</text>
</a>
</g>
</g>
<!-- Node2 -->
<g id="Node000002" class="node">
<title>Node2</title>
<g id="a_Node000002"><a xlink:href="../../da/d8f/classxii_forward_render_pass.html" target="_top" xlink:title="A standard forward render pass that renders into the color target.">
<polygon fill="white" stroke="#666666" points="152.5,-74 28.5,-74 28.5,-55 152.5,-55 152.5,-74"/>
<text text-anchor="middle" x="90.5" y="-62" font-family="Helvetica,sans-Serif" font-size="10.00">xiiForwardRenderPass</text>
</a>
</g>
</g>
<!-- Node2&#45;&gt;Node1 -->
<g id="edge1_Node000001_Node000002" class="edge">
<title>Node2&#45;&gt;Node1</title>
<g id="a_edge1_Node000001_Node000002"><a xlink:title=" ">
<path fill="none" stroke="#63b8ff" d="M90.5,-44.66C90.5,-35.93 90.5,-25.99 90.5,-19.09"/>
<polygon fill="#63b8ff" stroke="#63b8ff" points="87,-44.75 90.5,-54.75 94,-44.75 87,-44.75"/>
</a>
</g>
</g>
<!-- Node3 -->
<g id="Node000003" class="node">
<title>Node3</title>
<g id="a_Node000003"><a xlink:href="../../d5/d44/classxii_render_pipeline_pass.html" target="_top" xlink:title=" ">
<polygon fill="white" stroke="#bfbfbf" points="152.5,-129 28.5,-129 28.5,-110 152.5,-110 152.5,-129"/>
<text text-anchor="middle" x="90.5" y="-117" font-family="Helvetica,sans-Serif" font-size="10.00">xiiRenderPipelinePass</text>
</a>
</g>
</g>
<!-- Node3&#45;&gt;Node2 -->
<g id="edge2_Node000002_Node000003" class="edge">
<title>Node3&#45;&gt;Node2</title>
<g id="a_edge2_Node000002_Node000003"><a xlink:title=" ">
<path fill="none" stroke="#63b8ff" d="M90.5,-99.66C90.5,-90.93 90.5,-80.99 90.5,-74.09"/>
<polygon fill="#63b8ff" stroke="#63b8ff" points="87,-99.75 90.5,-109.75 94,-99.75 87,-99.75"/>
</a>
</g>
</g>
<!-- Node4 -->
<g id="Node000004" class="node">
<title>Node4</title>
<g id="a_Node000004"><a xlink:href="../../d9/d98/classxii_render_pipeline_node.html" target="_top" xlink:title=" ">
<polygon fill="white" stroke="#bfbfbf" points="154.5,-184 26.5,-184 26.5,-165 154.5,-165 154.5,-184"/>
<text text-anchor="middle" x="90.5" y="-172" font-family="Helvetica,sans-Serif" font-size="10.00">xiiRenderPipelineNode</text>
</a>
</g>
</g>
<!-- Node4&#45;&gt;Node3 -->
<g id="edge3_Node000003_Node000004" class="edge">
<title>Node4&#45;&gt;Node3</title>
<g id="a_edge3_Node000003_Node000004"><a xlink:title=" ">
<path fill="none" stroke="#63b8ff" d="M90.5,-154.66C90.5,-145.93 90.5,-135.99 90.5,-129.09"/>
<polygon fill="#63b8ff" stroke="#63b8ff" points="87,-154.75 90.5,-164.75 94,-154.75 87,-154.75"/>
</a>
</g>
</g>
<!-- Node5 -->
<g id="Node000005" class="node">
<title>Node5</title>
<g id="a_Node000005"><a xlink:href="../../dc/d71/classxii_reflected_class.html" target="_top" xlink:title="All classes that should be dynamically reflectable, need to be derived from this base class.">
<polygon fill="white" stroke="#666666" points="141,-239 40,-239 40,-220 141,-220 141,-239"/>
<text text-anchor="middle" x="90.5" y="-227" font-family="Helvetica,sans-Serif" font-size="10.00">xiiReflectedClass</text>
</a>
</g>
</g>
<!-- Node5&#45;&gt;Node4 -->
<g id="edge4_Node000004_Node000005" class="edge">
<title>Node5&#45;&gt;Node4</title>
<g id="a_edge4_Node000004_Node000005"><a xlink:title=" ">
<path fill="none" stroke="#63b8ff" d="M90.5,-209.66C90.5,-200.93 90.5,-190.99 90.5,-184.09"/>
<polygon fill="#63b8ff" stroke="#63b8ff" points="87,-209.75 90.5,-219.75 94,-209.75 87,-209.75"/>
</a>
</g>
</g>
<!-- Node6 -->
<g id="Node000006" class="node">
<title>Node6</title>
<g id="a_Node000006"><a xlink:href="../../d2/d38/classxii_no_base.html" target="_top" xlink:title="Dummy type to pass to templates and macros that expect a base type for a class that has no base.">
<polygon fill="white" stroke="#666666" points="123.5,-294 57.5,-294 57.5,-275 123.5,-275 123.5,-294"/>
<text text-anchor="middle" x="90.5" y="-282" font-family="Helvetica,sans-Serif" font-size="10.00">xiiNoBase</text>
</a>
</g>
</g>
<!-- Node6&#45;&gt;Node5 -->
<g id="edge5_Node000005_Node000006" class="edge">
<title>Node6&#45;&gt;Node5</title>
<g id="a_edge5_Node000005_Node000006"><a xlink:title=" ">
<path fill="none" stroke="#63b8ff" d="M90.5,-264.66C90.5,-255.93 90.5,-245.99 90.5,-239.09"/>
<polygon fill="#63b8ff" stroke="#63b8ff" points="87,-264.75 90.5,-274.75 94,-264.75 87,-264.75"/>
</a>
</g>
</g>
</g>
</svg>
