<?xml version="1.0" encoding="UTF-8" standalone="no"?>
<!DOCTYPE svg PUBLIC "-//W3C//DTD SVG 1.1//EN"
 "http://www.w3.org/Graphics/SVG/1.1/DTD/svg11.dtd">
<!-- Generated by graphviz version 2.43.0 (0)
 -->
<!-- Title: xiiStateMachineTransition Pages: 1 -->
<svg width="569pt" height="182pt"
 viewBox="0.00 0.00 569.00 182.00" xmlns="http://www.w3.org/2000/svg" xmlns:xlink="http://www.w3.org/1999/xlink">
<g id="graph0" class="graph" transform="scale(1 1) rotate(0) translate(4 178)">
<title>xiiStateMachineTransition</title>
<!-- Node1 -->
<g id="Node000001" class="node">
<title>Node1</title>
<g id="a_Node000001"><a xlink:title="Base class for a transition in a state machine. The target state of a transition is automatically set...">
<polygon fill="#999999" stroke="#666666" points="382,-96.5 239,-96.5 239,-77.5 382,-77.5 382,-96.5"/>
<text text-anchor="middle" x="310.5" y="-84.5" font-family="Helvetica,sans-Serif" font-size="10.00">xiiStateMachineTransition</text>
</a>
</g>
</g>
<!-- Node4 -->
<g id="Node000004" class="node">
<title>Node4</title>
<g id="a_Node000004"><a xlink:href="../../d4/d24/classxii_state_machine_transition___blackboard_conditions.htm" target="_top" xlink:title="A state machine transition implementation that checks the instance&#39;s blackboard for the given conditi...">
<polygon fill="white" stroke="#666666" points="561,-174 418,-174 418,-144 561,-144 561,-174"/>
<text text-anchor="start" x="426" y="-162" font-family="Helvetica,sans-Serif" font-size="10.00">xiiStateMachineTransition</text>
<text text-anchor="middle" x="489.5" y="-151" font-family="Helvetica,sans-Serif" font-size="10.00">_BlackboardConditions</text>
</a>
</g>
</g>
<!-- Node1&#45;&gt;Node4 -->
<g id="edge3_Node000001_Node000004" class="edge">
<title>Node1&#45;&gt;Node4</title>
<g id="a_edge3_Node000001_Node000004"><a xlink:title=" ">
<path fill="none" stroke="#63b8ff" d="M340.4,-100.93C361.65,-110.94 391.33,-124.48 418,-135 425.7,-138.04 433.95,-141.06 442,-143.87"/>
<polygon fill="#63b8ff" stroke="#63b8ff" points="341.81,-97.72 331.28,-96.6 338.81,-104.05 341.81,-97.72"/>
</a>
</g>
</g>
<!-- Node5 -->
<g id="Node000005" class="node">
<title>Node5</title>
<g id="a_Node000005"><a xlink:href="../../d1/dea/classxii_state_machine_transition___compound.htm" target="_top" xlink:title="A state machine transition implementation that combines multiple sub transition into one.">
<polygon fill="white" stroke="#666666" points="561,-126 418,-126 418,-96 561,-96 561,-126"/>
<text text-anchor="start" x="426" y="-114" font-family="Helvetica,sans-Serif" font-size="10.00">xiiStateMachineTransition</text>
<text text-anchor="middle" x="489.5" y="-103" font-family="Helvetica,sans-Serif" font-size="10.00">_Compound</text>
</a>
</g>
</g>
<!-- Node1&#45;&gt;Node5 -->
<g id="edge4_Node000001_Node000005" class="edge">
<title>Node1&#45;&gt;Node5</title>
<g id="a_edge4_Node000001_Node000005"><a xlink:title=" ">
<path fill="none" stroke="#63b8ff" d="M391.81,-97.89C400.48,-99.07 409.25,-100.25 417.8,-101.41"/>
<polygon fill="#63b8ff" stroke="#63b8ff" points="392.09,-94.4 381.71,-96.52 391.15,-101.33 392.09,-94.4"/>
</a>
</g>
</g>
<!-- Node6 -->
<g id="Node000006" class="node">
<title>Node6</title>
<g id="a_Node000006"><a xlink:href="../../da/d7b/classxii_state_machine_transition___timeout.htm" target="_top" xlink:title="A state machine transition implementation that triggers after the given time.">
<polygon fill="white" stroke="#666666" points="561,-78 418,-78 418,-48 561,-48 561,-78"/>
<text text-anchor="start" x="426" y="-66" font-family="Helvetica,sans-Serif" font-size="10.00">xiiStateMachineTransition</text>
<text text-anchor="middle" x="489.5" y="-55" font-family="Helvetica,sans-Serif" font-size="10.00">_Timeout</text>
</a>
</g>
</g>
<!-- Node1&#45;&gt;Node6 -->
<g id="edge5_Node000001_Node000006" class="edge">
<title>Node1&#45;&gt;Node6</title>
<g id="a_edge5_Node000001_Node000006"><a xlink:title=" ">
<path fill="none" stroke="#63b8ff" d="M391.81,-76.11C400.48,-74.93 409.25,-73.75 417.8,-72.59"/>
<polygon fill="#63b8ff" stroke="#63b8ff" points="391.15,-72.67 381.71,-77.48 392.09,-79.6 391.15,-72.67"/>
</a>
</g>
</g>
<!-- Node7 -->
<g id="Node000007" class="node">
<title>Node7</title>
<g id="a_Node000007"><a xlink:href="../../dc/de5/classxii_state_machine_transition___transition_event.htm" target="_top" xlink:title="A state machine transition implementation that triggers when a &#39;transition event&#39; is sent.">
<polygon fill="white" stroke="#666666" points="561,-30 418,-30 418,0 561,0 561,-30"/>
<text text-anchor="start" x="426" y="-18" font-family="Helvetica,sans-Serif" font-size="10.00">xiiStateMachineTransition</text>
<text text-anchor="middle" x="489.5" y="-7" font-family="Helvetica,sans-Serif" font-size="10.00">_TransitionEvent</text>
</a>
</g>
</g>
<!-- Node1&#45;&gt;Node7 -->
<g id="edge6_Node000001_Node000007" class="edge">
<title>Node1&#45;&gt;Node7</title>
<g id="a_edge6_Node000001_Node000007"><a xlink:title=" ">
<path fill="none" stroke="#63b8ff" d="M340.4,-73.07C361.65,-63.06 391.33,-49.52 418,-39 425.7,-35.96 433.95,-32.94 442,-30.13"/>
<polygon fill="#63b8ff" stroke="#63b8ff" points="338.81,-69.95 331.28,-77.4 341.81,-76.28 338.81,-69.95"/>
</a>
</g>
</g>
<!-- Node2 -->
<g id="Node000002" class="node">
<title>Node2</title>
<g id="a_Node000002"><a xlink:href="../../dc/d71/classxii_reflected_class.htm" target="_top" xlink:title="All classes that should be dynamically reflectable, need to be derived from this base class.">
<polygon fill="white" stroke="#666666" points="203,-96.5 102,-96.5 102,-77.5 203,-77.5 203,-96.5"/>
<text text-anchor="middle" x="152.5" y="-84.5" font-family="Helvetica,sans-Serif" font-size="10.00">xiiReflectedClass</text>
</a>
</g>
</g>
<!-- Node2&#45;&gt;Node1 -->
<g id="edge1_Node000001_Node000002" class="edge">
<title>Node2&#45;&gt;Node1</title>
<g id="a_edge1_Node000001_Node000002"><a xlink:title=" ">
<path fill="none" stroke="#63b8ff" d="M213.31,-87C221.67,-87 230.32,-87 238.86,-87"/>
<polygon fill="#63b8ff" stroke="#63b8ff" points="213.29,-83.5 203.29,-87 213.29,-90.5 213.29,-83.5"/>
</a>
</g>
</g>
<!-- Node3 -->
<g id="Node000003" class="node">
<title>Node3</title>
<g id="a_Node000003"><a xlink:href="../../d2/d38/classxii_no_base.htm" target="_top" xlink:title="Dummy type to pass to templates and macros that expect a base type for a class that has no base.">
<polygon fill="white" stroke="#666666" points="66,-96.5 0,-96.5 0,-77.5 66,-77.5 66,-96.5"/>
<text text-anchor="middle" x="33" y="-84.5" font-family="Helvetica,sans-Serif" font-size="10.00">xiiNoBase</text>
</a>
</g>
</g>
<!-- Node3&#45;&gt;Node2 -->
<g id="edge2_Node000002_Node000003" class="edge">
<title>Node3&#45;&gt;Node2</title>
<g id="a_edge2_Node000002_Node000003"><a xlink:title=" ">
<path fill="none" stroke="#63b8ff" d="M76.27,-87C84.54,-87 93.29,-87 101.78,-87"/>
<polygon fill="#63b8ff" stroke="#63b8ff" points="76.11,-83.5 66.11,-87 76.11,-90.5 76.11,-83.5"/>
</a>
</g>
</g>
</g>
</svg>
