<?xml version="1.0" encoding="UTF-8" standalone="no"?>
<!DOCTYPE svg PUBLIC "-//W3C//DTD SVG 1.1//EN"
 "http://www.w3.org/Graphics/SVG/1.1/DTD/svg11.dtd">
<!-- Generated by graphviz version 2.43.0 (0)
 -->
<!-- Title: xiiQtPropertyWidget Pages: 1 -->
<!--zoomable 954 -->

<svg id="main" version="1.1" xmlns="http://www.w3.org/2000/svg" xmlns:xlink="http://www.w3.org/1999/xlink" xml:space="preserve" onload="init(evt)">
<style type="text/css"><![CDATA[
.node, .edge {opacity: 0.7;}
.node.selected, .edge.selected {opacity: 1;}
.edge:hover path { stroke: red; }
.edge:hover polygon { stroke: red; fill: red; }
]]></style>

<defs>
  <circle id="rim" cx="0" cy="0" r="7"/>
  <circle id="rim2" cx="0" cy="0" r="3.5"/>
  <g id="zoomPlus">
    <use xlink:href="#rim" fill="#404040"><set attributeName="fill" to="#808080" begin="zoomplus.mouseover" end="zoomplus.mouseout"/></use>
    <path d="M-4,0h8M0,-4v8" fill="none" stroke="white" stroke-width="1.5" pointer-events="none"/>
  </g>
  <g id="zoomMin">
    <use xlink:href="#rim" fill="#404040"><set attributeName="fill" to="#808080" begin="zoomminus.mouseover" end="zoomminus.mouseout"/></use>
    <path d="M-4,0h8" fill="none" stroke="white" stroke-width="1.5" pointer-events="none"/>
  </g>
  <g id="arrowUp" transform="translate(30 24)">
    <use xlink:href="#rim"/>
    <path pointer-events="none" fill="none" stroke="white" stroke-width="1.5" d="M0,-3.0v7 M-2.5,-0.5L0,-3.0L2.5,-0.5"/>
  </g>
  <g id="arrowRight" transform="rotate(90) translate(36 -43)">
    <use xlink:href="#rim"/>
    <path pointer-events="none" fill="none" stroke="white" stroke-width="1.5" d="M0,-3.0v7 M-2.5,-0.5L0,-3.0L2.5,-0.5"/>
  </g>
  <g id="arrowDown" transform="rotate(180) translate(-30 -48)">
    <use xlink:href="#rim"/>
    <path pointer-events="none" fill="none" stroke="white" stroke-width="1.5" d="M0,-3.0v7 M-2.5,-0.5L0,-3.0L2.5,-0.5"/>
  </g>
  <g id="arrowLeft" transform="rotate(270) translate(-36 17)">
    <use xlink:href="#rim"/>
    <path pointer-events="none" fill="none" stroke="white" stroke-width="1.5" d="M0,-3.0v7 M-2.5,-0.5L0,-3.0L2.5,-0.5"/>
  </g>
  <g id="resetDef">
    <use xlink:href="#rim2" fill="#404040"><set attributeName="fill" to="#808080" begin="reset.mouseover" end="reset.mouseout"/></use>
  </g>
</defs>
<script type="application/ecmascript">
var viewWidth = 849;
var viewHeight = 954;
var sectionId = 'dynsection-0';
</script>
<script type="application/ecmascript" xlink:href="../../svg.min.js"/>
<svg id="graph" class="graph">
<g id="viewport">
<title>xiiQtPropertyWidget</title>
<!-- Node1 -->
<g id="Node000001" class="node">
<title>Node1</title>
<g id="a_Node000001"><a xlink:title="Base class for all property widgets.">
<polygon fill="#999999" stroke="#666666" points="211,-704.5 95,-704.5 95,-685.5 211,-685.5 211,-704.5"/>
<text text-anchor="middle" x="153" y="-692.5" font-family="Helvetica,sans-Serif" font-size="10.00">xiiQtPropertyWidget</text>
</a>
</g>
</g>
<!-- Node3 -->
<g id="Node000003" class="node">
<title>Node3</title>
<g id="a_Node000003"><a xlink:href="../../d9/dd3/classxii_qt_add_sub_element_button.html" target="_top" xlink:title=" ">
<polygon fill="white" stroke="#bfbfbf" points="403,-881.5 254,-881.5 254,-862.5 403,-862.5 403,-881.5"/>
<text text-anchor="middle" x="328.5" y="-869.5" font-family="Helvetica,sans-Serif" font-size="10.00">xiiQtAddSubElementButton</text>
</a>
</g>
</g>
<!-- Node1&#45;&gt;Node3 -->
<g id="edge2_Node000001_Node000003" class="edge">
<title>Node1&#45;&gt;Node3</title>
<g id="a_edge2_Node000001_Node000003"><a xlink:title=" ">
<path fill="none" stroke="#63b8ff" d="M159.74,-714.2C170.82,-747.83 198.45,-817.21 247,-853 252.2,-856.83 258.06,-859.91 264.19,-862.37"/>
<polygon fill="#63b8ff" stroke="#63b8ff" points="163.07,-713.11 156.72,-704.63 156.39,-715.22 163.07,-713.11"/>
</a>
</g>
</g>
<!-- Node4 -->
<g id="Node000004" class="node">
<title>Node4</title>
<g id="a_Node000004"><a xlink:href="../../d7/d85/classxii_qt_embedded_class_property_widget.html" target="_top" xlink:title="Base class for more &#39;advanced&#39; property type widgets for Pointer or Class type properties....">
<polygon fill="white" stroke="#666666" points="408,-844 249,-844 249,-814 408,-814 408,-844"/>
<text text-anchor="start" x="257" y="-832" font-family="Helvetica,sans-Serif" font-size="10.00">xiiQtEmbeddedClassProperty</text>
<text text-anchor="middle" x="328.5" y="-821" font-family="Helvetica,sans-Serif" font-size="10.00">Widget</text>
</a>
</g>
</g>
<!-- Node1&#45;&gt;Node4 -->
<g id="edge3_Node000001_Node000004" class="edge">
<title>Node1&#45;&gt;Node4</title>
<g id="a_edge3_Node000001_Node000004"><a xlink:title=" ">
<path fill="none" stroke="#63b8ff" d="M164.63,-713.22C179.83,-737.67 210.05,-780.83 247,-805 252.25,-808.43 258,-811.39 263.95,-813.93"/>
<polygon fill="#63b8ff" stroke="#63b8ff" points="167.57,-711.3 159.4,-704.56 161.58,-714.93 167.57,-711.3"/>
</a>
</g>
</g>
<!-- Node5 -->
<g id="Node000005" class="node">
<title>Node5</title>
<g id="a_Node000005"><a xlink:href="../../dd/d44/classxii_qt_property_container_widget.html" target="_top" xlink:title="Base class for all container properties.">
<polygon fill="white" stroke="#666666" points="410,-795.5 247,-795.5 247,-776.5 410,-776.5 410,-795.5"/>
<text text-anchor="middle" x="328.5" y="-783.5" font-family="Helvetica,sans-Serif" font-size="10.00">xiiQtPropertyContainerWidget</text>
</a>
</g>
</g>
<!-- Node1&#45;&gt;Node5 -->
<g id="edge4_Node000001_Node000005" class="edge">
<title>Node1&#45;&gt;Node5</title>
<g id="a_edge4_Node000001_Node000005"><a xlink:title=" ">
<path fill="none" stroke="#63b8ff" d="M171.04,-711.89C188.61,-728.37 217.54,-752.94 247,-767 255.03,-770.83 263.9,-773.93 272.72,-776.41"/>
<polygon fill="#63b8ff" stroke="#63b8ff" points="173.01,-708.93 163.37,-704.54 168.16,-713.98 173.01,-708.93"/>
</a>
</g>
</g>
<!-- Node9 -->
<g id="Node000009" class="node">
<title>Node9</title>
<g id="a_Node000009"><a xlink:href="../../dc/d27/classxii_qt_property_editor_curve1_d_widget.html" target="_top" xlink:title=" ">
<polygon fill="white" stroke="#bfbfbf" points="400.5,-758 256.5,-758 256.5,-728 400.5,-728 400.5,-758"/>
<text text-anchor="start" x="264.5" y="-746" font-family="Helvetica,sans-Serif" font-size="10.00">xiiQtPropertyEditorCurve1</text>
<text text-anchor="middle" x="328.5" y="-735" font-family="Helvetica,sans-Serif" font-size="10.00">DWidget</text>
</a>
</g>
</g>
<!-- Node1&#45;&gt;Node9 -->
<g id="edge8_Node000001_Node000009" class="edge">
<title>Node1&#45;&gt;Node9</title>
<g id="a_edge8_Node000001_Node000009"><a xlink:title=" ">
<path fill="none" stroke="#63b8ff" d="M198.42,-707.29C221.16,-713.58 249.03,-721.29 273.05,-727.94"/>
<polygon fill="#63b8ff" stroke="#63b8ff" points="199.26,-703.89 188.69,-704.6 197.4,-710.64 199.26,-703.89"/>
</a>
</g>
</g>
<!-- Node10 -->
<g id="Node000010" class="node">
<title>Node10</title>
<g id="a_Node000010"><a xlink:href="../../d8/dc8/classxii_qt_property_editor_tag_set_widget.html" target="_top" xlink:title=" ">
<polygon fill="white" stroke="#bfbfbf" points="399.5,-710 257.5,-710 257.5,-680 399.5,-680 399.5,-710"/>
<text text-anchor="start" x="265.5" y="-698" font-family="Helvetica,sans-Serif" font-size="10.00">xiiQtPropertyEditorTagSet</text>
<text text-anchor="middle" x="328.5" y="-687" font-family="Helvetica,sans-Serif" font-size="10.00">Widget</text>
</a>
</g>
</g>
<!-- Node1&#45;&gt;Node10 -->
<g id="edge9_Node000001_Node000010" class="edge">
<title>Node1&#45;&gt;Node10</title>
<g id="a_edge9_Node000001_Node000010"><a xlink:title=" ">
<path fill="none" stroke="#63b8ff" d="M221.46,-695C233.21,-695 245.45,-695 257.27,-695"/>
<polygon fill="#63b8ff" stroke="#63b8ff" points="221.29,-691.5 211.29,-695 221.29,-698.5 221.29,-691.5"/>
</a>
</g>
</g>
<!-- Node11 -->
<g id="Node000011" class="node">
<title>Node11</title>
<g id="a_Node000011"><a xlink:href="../../d4/dc5/classxii_qt_property_pointer_widget.html" target="_top" xlink:title="Used for property types that are pointers.">
<polygon fill="white" stroke="#666666" points="403.5,-661.5 253.5,-661.5 253.5,-642.5 403.5,-642.5 403.5,-661.5"/>
<text text-anchor="middle" x="328.5" y="-649.5" font-family="Helvetica,sans-Serif" font-size="10.00">xiiQtPropertyPointerWidget</text>
</a>
</g>
</g>
<!-- Node1&#45;&gt;Node11 -->
<g id="edge10_Node000001_Node000011" class="edge">
<title>Node1&#45;&gt;Node11</title>
<g id="a_edge10_Node000001_Node000011"><a xlink:title=" ">
<path fill="none" stroke="#63b8ff" d="M200.19,-682.88C215.11,-679.02 231.74,-674.77 247,-671 259.83,-667.83 273.83,-664.49 286.51,-661.5"/>
<polygon fill="#63b8ff" stroke="#63b8ff" points="198.97,-679.58 190.17,-685.48 200.73,-686.35 198.97,-679.58"/>
</a>
</g>
</g>
<!-- Node12 -->
<g id="Node000012" class="node">
<title>Node12</title>
<g id="a_Node000012"><a xlink:href="../../d3/d12/classxii_qt_property_type_widget.html" target="_top" xlink:title=" ">
<polygon fill="white" stroke="#666666" points="397.5,-624.5 259.5,-624.5 259.5,-605.5 397.5,-605.5 397.5,-624.5"/>
<text text-anchor="middle" x="328.5" y="-612.5" font-family="Helvetica,sans-Serif" font-size="10.00">xiiQtPropertyTypeWidget</text>
</a>
</g>
</g>
<!-- Node1&#45;&gt;Node12 -->
<g id="edge11_Node000001_Node000012" class="edge">
<title>Node1&#45;&gt;Node12</title>
<g id="a_edge11_Node000001_Node000012"><a xlink:title=" ">
<path fill="none" stroke="#63b8ff" d="M173.2,-679.1C191.2,-664.98 219.4,-644.8 247,-633 254.9,-629.62 263.52,-626.84 272.09,-624.56"/>
<polygon fill="#63b8ff" stroke="#63b8ff" points="170.85,-676.5 165.23,-685.48 175.22,-681.96 170.85,-676.5"/>
</a>
</g>
</g>
<!-- Node13 -->
<g id="Node000013" class="node">
<title>Node13</title>
<g id="a_Node000013"><a xlink:href="../../d5/db2/classxii_qt_standard_property_widget.html" target="_top" xlink:title="Base class for most &#39;simple&#39; property type widgets. Implements some of the standard functionality.">
<polygon fill="white" stroke="#666666" points="408,-491.5 249,-491.5 249,-472.5 408,-472.5 408,-491.5"/>
<text text-anchor="middle" x="328.5" y="-479.5" font-family="Helvetica,sans-Serif" font-size="10.00">xiiQtStandardPropertyWidget</text>
</a>
</g>
</g>
<!-- Node1&#45;&gt;Node13 -->
<g id="edge12_Node000001_Node000013" class="edge">
<title>Node1&#45;&gt;Node13</title>
<g id="a_edge12_Node000001_Node000013"><a xlink:title=" ">
<path fill="none" stroke="#63b8ff" d="M168.34,-677.4C203.37,-634.38 292.44,-525.05 319.55,-491.76"/>
<polygon fill="#63b8ff" stroke="#63b8ff" points="165.51,-675.33 161.91,-685.29 170.94,-679.75 165.51,-675.33"/>
</a>
</g>
</g>
<!-- Node35 -->
<g id="Node000035" class="node">
<title>Node35</title>
<g id="a_Node000035"><a xlink:href="../../d4/dc6/classxii_qt_unsupported_property_widget.html" target="_top" xlink:title="Fallback widget for all property types for which no other widget type is registered.">
<polygon fill="white" stroke="#666666" points="400,-454 257,-454 257,-424 400,-424 400,-454"/>
<text text-anchor="start" x="265" y="-442" font-family="Helvetica,sans-Serif" font-size="10.00">xiiQtUnsupportedProperty</text>
<text text-anchor="middle" x="328.5" y="-431" font-family="Helvetica,sans-Serif" font-size="10.00">Widget</text>
</a>
</g>
</g>
<!-- Node1&#45;&gt;Node35 -->
<g id="edge34_Node000001_Node000035" class="edge">
<title>Node1&#45;&gt;Node35</title>
<g id="a_edge34_Node000001_Node000035"><a xlink:title=" ">
<path fill="none" stroke="#63b8ff" d="M156.15,-675.31C162.08,-630.78 182.72,-521.66 247,-463 250.77,-459.56 255.01,-456.61 259.53,-454.08"/>
<polygon fill="#63b8ff" stroke="#63b8ff" points="152.66,-675.05 154.92,-685.4 159.61,-675.9 152.66,-675.05"/>
</a>
</g>
</g>
<!-- Node2 -->
<g id="Node000002" class="node">
<title>Node2</title>
<g id="a_Node000002"><a xlink:title=" ">
<polygon fill="white" stroke="#bfbfbf" points="59,-704.5 0,-704.5 0,-685.5 59,-685.5 59,-704.5"/>
<text text-anchor="middle" x="29.5" y="-692.5" font-family="Helvetica,sans-Serif" font-size="10.00">QWidget</text>
</a>
</g>
</g>
<!-- Node2&#45;&gt;Node1 -->
<g id="edge1_Node000001_Node000002" class="edge">
<title>Node2&#45;&gt;Node1</title>
<g id="a_edge1_Node000001_Node000002"><a xlink:title=" ">
<path fill="none" stroke="#63b8ff" d="M69.5,-695C77.56,-695 86.21,-695 94.77,-695"/>
<polygon fill="#63b8ff" stroke="#63b8ff" points="69.29,-691.5 59.29,-695 69.29,-698.5 69.29,-691.5"/>
</a>
</g>
</g>
<!-- Node6 -->
<g id="Node000006" class="node">
<title>Node6</title>
<g id="a_Node000006"><a xlink:href="../../df/d59/classxii_qt_property_standard_type_container_widget.html" target="_top" xlink:title=" ">
<polygon fill="white" stroke="#bfbfbf" points="610,-946 463,-946 463,-916 610,-916 610,-946"/>
<text text-anchor="start" x="471" y="-934" font-family="Helvetica,sans-Serif" font-size="10.00">xiiQtPropertyStandardType</text>
<text text-anchor="middle" x="536.5" y="-923" font-family="Helvetica,sans-Serif" font-size="10.00">ContainerWidget</text>
</a>
</g>
</g>
<!-- Node5&#45;&gt;Node6 -->
<g id="edge5_Node000005_Node000006" class="edge">
<title>Node5&#45;&gt;Node6</title>
<g id="a_edge5_Node000005_Node000006"><a xlink:title=" ">
<path fill="none" stroke="#63b8ff" d="M404.5,-800.68C406.42,-802 408.26,-803.44 410,-805 445.77,-837.12 410.72,-874.35 446,-907 450.96,-911.59 456.7,-915.32 462.83,-918.35"/>
<polygon fill="#63b8ff" stroke="#63b8ff" points="406,-797.51 395.59,-795.56 402.52,-803.58 406,-797.51"/>
</a>
</g>
</g>
<!-- Node8 -->
<g id="Node000008" class="node">
<title>Node8</title>
<g id="a_Node000008"><a xlink:href="../../dc/d61/classxii_qt_property_type_container_widget.html" target="_top" xlink:title=" ">
<polygon fill="white" stroke="#bfbfbf" points="612,-898 461,-898 461,-868 612,-868 612,-898"/>
<text text-anchor="start" x="469" y="-886" font-family="Helvetica,sans-Serif" font-size="10.00">xiiQtPropertyTypeContainer</text>
<text text-anchor="middle" x="536.5" y="-875" font-family="Helvetica,sans-Serif" font-size="10.00">Widget</text>
</a>
</g>
</g>
<!-- Node5&#45;&gt;Node8 -->
<g id="edge7_Node000005_Node000008" class="edge">
<title>Node5&#45;&gt;Node8</title>
<g id="a_edge7_Node000005_Node000008"><a xlink:title=" ">
<path fill="none" stroke="#63b8ff" d="M400.95,-799.64C404.1,-801.23 407.14,-803.01 410,-805 433.69,-821.46 422.56,-842.18 446,-859 450.84,-862.47 456.14,-865.44 461.69,-867.98"/>
<polygon fill="#63b8ff" stroke="#63b8ff" points="402.34,-796.43 391.77,-795.61 399.52,-802.84 402.34,-796.43"/>
</a>
</g>
</g>
<!-- Node7 -->
<g id="Node000007" class="node">
<title>Node7</title>
<g id="a_Node000007"><a xlink:href="../../d9/d92/classxii_qt_exposed_parameters_property_widget.html" target="_top" xlink:title=" ">
<polygon fill="white" stroke="#bfbfbf" points="841,-946 663,-946 663,-916 841,-916 841,-946"/>
<text text-anchor="start" x="671" y="-934" font-family="Helvetica,sans-Serif" font-size="10.00">xiiQtExposedParametersProperty</text>
<text text-anchor="middle" x="752" y="-923" font-family="Helvetica,sans-Serif" font-size="10.00">Widget</text>
</a>
</g>
</g>
<!-- Node6&#45;&gt;Node7 -->
<g id="edge6_Node000006_Node000007" class="edge">
<title>Node6&#45;&gt;Node7</title>
<g id="a_edge6_Node000006_Node000007"><a xlink:title=" ">
<path fill="none" stroke="#63b8ff" d="M620.13,-931C634.09,-931 648.63,-931 662.73,-931"/>
<polygon fill="#63b8ff" stroke="#63b8ff" points="620.08,-927.5 610.08,-931 620.08,-934.5 620.08,-927.5"/>
</a>
</g>
</g>
<!-- Node14 -->
<g id="Node000014" class="node">
<title>Node14</title>
<g id="a_Node000014"><a xlink:href="../../d1/d7a/classxii_qt_asset_property_widget.html" target="_top" xlink:title="*** Asset Browser ***">
<polygon fill="white" stroke="#666666" points="608,-849.5 465,-849.5 465,-830.5 608,-830.5 608,-849.5"/>
<text text-anchor="middle" x="536.5" y="-837.5" font-family="Helvetica,sans-Serif" font-size="10.00">xiiQtAssetPropertyWidget</text>
</a>
</g>
</g>
<!-- Node13&#45;&gt;Node14 -->
<g id="edge13_Node000013_Node000014" class="edge">
<title>Node13&#45;&gt;Node14</title>
<g id="a_edge13_Node000013_Node000014"><a xlink:title=" ">
<path fill="none" stroke="#63b8ff" d="M345.56,-499.22C364.24,-520.32 394.51,-557.97 410,-596 448.2,-689.79 376.22,-747.6 446,-821 451.25,-826.53 457.68,-830.65 464.66,-833.7"/>
<polygon fill="#63b8ff" stroke="#63b8ff" points="348.09,-496.81 338.79,-491.73 342.9,-501.5 348.09,-496.81"/>
</a>
</g>
</g>
<!-- Node15 -->
<g id="Node000015" class="node">
<title>Node15</title>
<g id="a_Node000015"><a xlink:href="../../d8/d8d/classxii_qt_dynamic_bitflags_property_widget.html" target="_top" xlink:title=" ">
<polygon fill="white" stroke="#bfbfbf" points="617,-812 456,-812 456,-782 617,-782 617,-812"/>
<text text-anchor="start" x="464" y="-800" font-family="Helvetica,sans-Serif" font-size="10.00">xiiQtDynamicBitflagsProperty</text>
<text text-anchor="middle" x="536.5" y="-789" font-family="Helvetica,sans-Serif" font-size="10.00">Widget</text>
</a>
</g>
</g>
<!-- Node13&#45;&gt;Node15 -->
<g id="edge14_Node000013_Node000015" class="edge">
<title>Node13&#45;&gt;Node15</title>
<g id="a_edge14_Node000013_Node000015"><a xlink:title=" ">
<path fill="none" stroke="#63b8ff" d="M345,-499.01C363.39,-520.15 393.63,-558.1 410,-596 441.83,-669.7 391,-714.52 446,-773 449.2,-776.4 452.82,-779.33 456.72,-781.87"/>
<polygon fill="#63b8ff" stroke="#63b8ff" points="347.61,-496.68 338.36,-491.51 342.37,-501.32 347.61,-496.68"/>
</a>
</g>
</g>
<!-- Node16 -->
<g id="Node000016" class="node">
<title>Node16</title>
<g id="a_Node000016"><a xlink:href="../../dc/d0a/classxii_qt_dynamic_enum_property_widget.html" target="_top" xlink:title="*** Asset Browser ***">
<polygon fill="white" stroke="#666666" points="612.5,-764 460.5,-764 460.5,-734 612.5,-734 612.5,-764"/>
<text text-anchor="start" x="468.5" y="-752" font-family="Helvetica,sans-Serif" font-size="10.00">xiiQtDynamicEnumProperty</text>
<text text-anchor="middle" x="536.5" y="-741" font-family="Helvetica,sans-Serif" font-size="10.00">Widget</text>
</a>
</g>
</g>
<!-- Node13&#45;&gt;Node16 -->
<g id="edge15_Node000013_Node000016" class="edge">
<title>Node13&#45;&gt;Node16</title>
<g id="a_edge15_Node000013_Node000016"><a xlink:title=" ">
<path fill="none" stroke="#63b8ff" d="M344.78,-499.5C362.76,-520.9 392.36,-558.88 410,-596 435.54,-649.77 403.7,-683.12 446,-725 450.23,-729.19 455.11,-732.67 460.36,-735.55"/>
<polygon fill="#63b8ff" stroke="#63b8ff" points="347.23,-496.98 338.08,-491.64 341.91,-501.52 347.23,-496.98"/>
</a>
</g>
</g>
<!-- Node17 -->
<g id="Node000017" class="node">
<title>Node17</title>
<g id="a_Node000017"><a xlink:href="../../d9/d6a/classxii_qt_dynamic_string_enum_property_widget.html" target="_top" xlink:title=" ">
<polygon fill="white" stroke="#bfbfbf" points="627,-716 446,-716 446,-686 627,-686 627,-716"/>
<text text-anchor="start" x="454" y="-704" font-family="Helvetica,sans-Serif" font-size="10.00">xiiQtDynamicStringEnumProperty</text>
<text text-anchor="middle" x="536.5" y="-693" font-family="Helvetica,sans-Serif" font-size="10.00">Widget</text>
</a>
</g>
</g>
<!-- Node13&#45;&gt;Node17 -->
<g id="edge16_Node000013_Node000017" class="edge">
<title>Node13&#45;&gt;Node17</title>
<g id="a_edge16_Node000013_Node000017"><a xlink:title=" ">
<path fill="none" stroke="#63b8ff" d="M343.58,-499.65C360.61,-521.47 389.51,-560.13 410,-596 429.33,-629.86 416.44,-650.58 446,-676 450.53,-679.89 455.61,-683.18 461.01,-685.96"/>
<polygon fill="#63b8ff" stroke="#63b8ff" points="346.21,-497.33 337.28,-491.64 340.71,-501.66 346.21,-497.33"/>
</a>
</g>
</g>
<!-- Node18 -->
<g id="Node000018" class="node">
<title>Node18</title>
<g id="a_Node000018"><a xlink:href="../../d7/d0c/classxii_qt_exposed_bone_widget.html" target="_top" xlink:title=" ">
<polygon fill="white" stroke="#bfbfbf" points="606.5,-667.5 466.5,-667.5 466.5,-648.5 606.5,-648.5 606.5,-667.5"/>
<text text-anchor="middle" x="536.5" y="-655.5" font-family="Helvetica,sans-Serif" font-size="10.00">xiiQtExposedBoneWidget</text>
</a>
</g>
</g>
<!-- Node13&#45;&gt;Node18 -->
<g id="edge17_Node000013_Node000018" class="edge">
<title>Node13&#45;&gt;Node18</title>
<g id="a_edge17_Node000013_Node000018"><a xlink:title=" ">
<path fill="none" stroke="#63b8ff" d="M342.41,-500.1C371.22,-540.41 438.83,-634.4 446,-639 452.15,-642.95 458.98,-646.09 466.04,-648.59"/>
<polygon fill="#63b8ff" stroke="#63b8ff" points="345.24,-498.04 336.58,-491.94 339.54,-502.11 345.24,-498.04"/>
</a>
</g>
</g>
<!-- Node19 -->
<g id="Node000019" class="node">
<title>Node19</title>
<g id="a_Node000019"><a xlink:href="../../d8/d2a/classxii_qt_file_property_widget.html" target="_top" xlink:title=" ">
<polygon fill="white" stroke="#bfbfbf" points="603,-630.5 470,-630.5 470,-611.5 603,-611.5 603,-630.5"/>
<text text-anchor="middle" x="536.5" y="-618.5" font-family="Helvetica,sans-Serif" font-size="10.00">xiiQtFilePropertyWidget</text>
</a>
</g>
</g>
<!-- Node13&#45;&gt;Node19 -->
<g id="edge18_Node000013_Node000019" class="edge">
<title>Node13&#45;&gt;Node19</title>
<g id="a_edge18_Node000013_Node000019"><a xlink:title=" ">
<path fill="none" stroke="#63b8ff" d="M341.61,-500.06C360.55,-526.8 399.85,-576.5 446,-602 453.37,-606.07 461.52,-609.27 469.82,-611.79"/>
<polygon fill="#63b8ff" stroke="#63b8ff" points="344.35,-497.87 335.78,-491.64 338.59,-501.85 344.35,-497.87"/>
</a>
</g>
</g>
<!-- Node20 -->
<g id="Node000020" class="node">
<title>Node20</title>
<g id="a_Node000020"><a xlink:href="../../d5/dc6/classxii_qt_game_object_reference_property_widget.html" target="_top" xlink:title=" ">
<polygon fill="white" stroke="#bfbfbf" points="611.5,-593 461.5,-593 461.5,-563 611.5,-563 611.5,-593"/>
<text text-anchor="start" x="469.5" y="-581" font-family="Helvetica,sans-Serif" font-size="10.00">xiiQtGameObjectReference</text>
<text text-anchor="middle" x="536.5" y="-570" font-family="Helvetica,sans-Serif" font-size="10.00">PropertyWidget</text>
</a>
</g>
</g>
<!-- Node13&#45;&gt;Node20 -->
<g id="edge19_Node000013_Node000020" class="edge">
<title>Node13&#45;&gt;Node20</title>
<g id="a_edge19_Node000013_Node000020"><a xlink:title=" ">
<path fill="none" stroke="#63b8ff" d="M350.24,-497.42C372.77,-513.55 410.35,-538.6 446,-554 453.68,-557.32 461.93,-560.28 470.21,-562.89"/>
<polygon fill="#63b8ff" stroke="#63b8ff" points="352.24,-494.56 342.09,-491.52 348.13,-500.22 352.24,-494.56"/>
</a>
</g>
</g>
<!-- Node21 -->
<g id="Node000021" class="node">
<title>Node21</title>
<g id="a_Node000021"><a xlink:href="../../da/d96/classxii_qt_property_editor_angle_widget.html" target="_top" xlink:title="*** ANGLE SPINBOX ***">
<polygon fill="white" stroke="#666666" points="605,-545 468,-545 468,-515 605,-515 605,-545"/>
<text text-anchor="start" x="476" y="-533" font-family="Helvetica,sans-Serif" font-size="10.00">xiiQtPropertyEditorAngle</text>
<text text-anchor="middle" x="536.5" y="-522" font-family="Helvetica,sans-Serif" font-size="10.00">Widget</text>
</a>
</g>
</g>
<!-- Node13&#45;&gt;Node21 -->
<g id="edge20_Node000013_Node000021" class="edge">
<title>Node13&#45;&gt;Node21</title>
<g id="a_edge20_Node000013_Node000021"><a xlink:title=" ">
<path fill="none" stroke="#63b8ff" d="M380.43,-493.87C407.75,-500.23 441.69,-508.14 470.85,-514.94"/>
<polygon fill="#63b8ff" stroke="#63b8ff" points="381.23,-490.46 370.69,-491.6 379.64,-497.28 381.23,-490.46"/>
</a>
</g>
</g>
<!-- Node22 -->
<g id="Node000022" class="node">
<title>Node22</title>
<g id="a_Node000022"><a xlink:href="../../de/dac/classxii_qt_property_editor_bitflags_widget.html" target="_top" xlink:title="*** BITFLAGS COMBOBOX ***">
<polygon fill="white" stroke="#666666" points="609.5,-497 463.5,-497 463.5,-467 609.5,-467 609.5,-497"/>
<text text-anchor="start" x="471.5" y="-485" font-family="Helvetica,sans-Serif" font-size="10.00">xiiQtPropertyEditorBitflags</text>
<text text-anchor="middle" x="536.5" y="-474" font-family="Helvetica,sans-Serif" font-size="10.00">Widget</text>
</a>
</g>
</g>
<!-- Node13&#45;&gt;Node22 -->
<g id="edge21_Node000013_Node000022" class="edge">
<title>Node13&#45;&gt;Node22</title>
<g id="a_edge21_Node000013_Node000022"><a xlink:title=" ">
<path fill="none" stroke="#63b8ff" d="M418.52,-482C433.44,-482 448.77,-482 463.21,-482"/>
<polygon fill="#63b8ff" stroke="#63b8ff" points="418.26,-478.5 408.26,-482 418.26,-485.5 418.26,-478.5"/>
</a>
</g>
</g>
<!-- Node23 -->
<g id="Node000023" class="node">
<title>Node23</title>
<g id="a_Node000023"><a xlink:href="../../d3/d49/classxii_qt_property_editor_checkbox_widget.html" target="_top" xlink:title="*** CHECKBOX ***">
<polygon fill="white" stroke="#666666" points="615.5,-449 457.5,-449 457.5,-419 615.5,-419 615.5,-449"/>
<text text-anchor="start" x="465.5" y="-437" font-family="Helvetica,sans-Serif" font-size="10.00">xiiQtPropertyEditorCheckbox</text>
<text text-anchor="middle" x="536.5" y="-426" font-family="Helvetica,sans-Serif" font-size="10.00">Widget</text>
</a>
</g>
</g>
<!-- Node13&#45;&gt;Node23 -->
<g id="edge22_Node000013_Node000023" class="edge">
<title>Node13&#45;&gt;Node23</title>
<g id="a_edge22_Node000013_Node000023"><a xlink:title=" ">
<path fill="none" stroke="#63b8ff" d="M380.43,-470.13C407.75,-463.77 441.69,-455.86 470.85,-449.06"/>
<polygon fill="#63b8ff" stroke="#63b8ff" points="379.64,-466.72 370.69,-472.4 381.23,-473.54 379.64,-466.72"/>
</a>
</g>
</g>
<!-- Node24 -->
<g id="Node000024" class="node">
<title>Node24</title>
<g id="a_Node000024"><a xlink:href="../../de/dc4/classxii_qt_property_editor_color_widget.html" target="_top" xlink:title=" ">
<polygon fill="white" stroke="#bfbfbf" points="604,-401 469,-401 469,-371 604,-371 604,-401"/>
<text text-anchor="start" x="477" y="-389" font-family="Helvetica,sans-Serif" font-size="10.00">xiiQtPropertyEditorColor</text>
<text text-anchor="middle" x="536.5" y="-378" font-family="Helvetica,sans-Serif" font-size="10.00">Widget</text>
</a>
</g>
</g>
<!-- Node13&#45;&gt;Node24 -->
<g id="edge23_Node000013_Node000024" class="edge">
<title>Node13&#45;&gt;Node24</title>
<g id="a_edge23_Node000013_Node000024"><a xlink:title=" ">
<path fill="none" stroke="#63b8ff" d="M400.72,-468.43C403.96,-466.82 407.07,-465.02 410,-463 433.45,-446.85 422.79,-426.5 446,-410 452.82,-405.15 460.56,-401.28 468.57,-398.2"/>
<polygon fill="#63b8ff" stroke="#63b8ff" points="399.12,-465.31 391.33,-472.49 401.9,-471.74 399.12,-465.31"/>
</a>
</g>
</g>
<!-- Node25 -->
<g id="Node000025" class="node">
<title>Node25</title>
<g id="a_Node000025"><a xlink:href="../../dd/dab/classxii_qt_property_editor_double_spinbox_widget.html" target="_top" xlink:title="*** DOUBLE SPINBOX ***">
<polygon fill="white" stroke="#666666" points="608.5,-353 464.5,-353 464.5,-323 608.5,-323 608.5,-353"/>
<text text-anchor="start" x="472.5" y="-341" font-family="Helvetica,sans-Serif" font-size="10.00">xiiQtPropertyEditorDouble</text>
<text text-anchor="middle" x="536.5" y="-330" font-family="Helvetica,sans-Serif" font-size="10.00">SpinboxWidget</text>
</a>
</g>
</g>
<!-- Node13&#45;&gt;Node25 -->
<g id="edge24_Node000013_Node000025" class="edge">
<title>Node13&#45;&gt;Node25</title>
<g id="a_edge24_Node000013_Node000025"><a xlink:title=" ">
<path fill="none" stroke="#63b8ff" d="M404.49,-467.31C406.42,-465.99 408.26,-464.56 410,-463 445.51,-431.22 410.98,-394.32 446,-362 451.32,-357.09 457.54,-353.17 464.17,-350.03"/>
<polygon fill="#63b8ff" stroke="#63b8ff" points="402.51,-464.42 395.58,-472.43 405.99,-470.49 402.51,-464.42"/>
</a>
</g>
</g>
<!-- Node26 -->
<g id="Node000026" class="node">
<title>Node26</title>
<g id="a_Node000026"><a xlink:href="../../da/d30/classxii_qt_property_editor_enum_widget.html" target="_top" xlink:title="*** ENUM COMBOBOX ***">
<polygon fill="white" stroke="#666666" points="622.5,-304.5 450.5,-304.5 450.5,-285.5 622.5,-285.5 622.5,-304.5"/>
<text text-anchor="middle" x="536.5" y="-292.5" font-family="Helvetica,sans-Serif" font-size="10.00">xiiQtPropertyEditorEnumWidget</text>
</a>
</g>
</g>
<!-- Node13&#45;&gt;Node26 -->
<g id="edge25_Node000013_Node000026" class="edge">
<title>Node13&#45;&gt;Node26</title>
<g id="a_edge25_Node000013_Node000026"><a xlink:title=" ">
<path fill="none" stroke="#63b8ff" d="M405.92,-466.63C407.34,-465.49 408.71,-464.29 410,-463 458.3,-414.95 397.16,-361.5 446,-314 449.87,-310.23 454.29,-307.13 459.05,-304.59"/>
<polygon fill="#63b8ff" stroke="#63b8ff" points="403.65,-463.92 397.17,-472.3 407.46,-469.79 403.65,-463.92"/>
</a>
</g>
</g>
<!-- Node27 -->
<g id="Node000027" class="node">
<title>Node27</title>
<g id="a_Node000027"><a xlink:href="../../d6/de7/classxii_qt_property_editor_int_spinbox_widget.html" target="_top" xlink:title="*** INT SPINBOX ***">
<polygon fill="white" stroke="#666666" points="617,-267 456,-267 456,-237 617,-237 617,-267"/>
<text text-anchor="start" x="464" y="-255" font-family="Helvetica,sans-Serif" font-size="10.00">xiiQtPropertyEditorIntSpinbox</text>
<text text-anchor="middle" x="536.5" y="-244" font-family="Helvetica,sans-Serif" font-size="10.00">Widget</text>
</a>
</g>
</g>
<!-- Node13&#45;&gt;Node27 -->
<g id="edge26_Node000013_Node000027" class="edge">
<title>Node13&#45;&gt;Node27</title>
<g id="a_edge26_Node000013_Node000027"><a xlink:title=" ">
<path fill="none" stroke="#63b8ff" d="M406,-466.71C407.4,-465.55 408.74,-464.32 410,-463 468.59,-401.92 388.34,-337.96 446,-276 449.18,-272.58 452.79,-269.64 456.68,-267.09"/>
<polygon fill="#63b8ff" stroke="#63b8ff" points="403.72,-464.02 397.37,-472.49 407.62,-469.83 403.72,-464.02"/>
</a>
</g>
</g>
<!-- Node28 -->
<g id="Node000028" class="node">
<title>Node28</title>
<g id="a_Node000028"><a xlink:href="../../d5/d11/classxii_qt_property_editor_line_edit_widget.html" target="_top" xlink:title="*** LINEEDIT ***">
<polygon fill="white" stroke="#666666" points="611,-219 462,-219 462,-189 611,-189 611,-219"/>
<text text-anchor="start" x="470" y="-207" font-family="Helvetica,sans-Serif" font-size="10.00">xiiQtPropertyEditorLineEdit</text>
<text text-anchor="middle" x="536.5" y="-196" font-family="Helvetica,sans-Serif" font-size="10.00">Widget</text>
</a>
</g>
</g>
<!-- Node13&#45;&gt;Node28 -->
<g id="edge27_Node000013_Node000028" class="edge">
<title>Node13&#45;&gt;Node28</title>
<g id="a_edge27_Node000013_Node000028"><a xlink:title=" ">
<path fill="none" stroke="#63b8ff" d="M406.18,-466.68C407.52,-465.53 408.79,-464.31 410,-463 481.68,-385.37 375.5,-306.71 446,-228 450.51,-222.97 455.95,-218.94 461.89,-215.72"/>
<polygon fill="#63b8ff" stroke="#63b8ff" points="404.11,-463.85 397.9,-472.44 408.11,-469.6 404.11,-463.85"/>
</a>
</g>
</g>
<!-- Node29 -->
<g id="Node000029" class="node">
<title>Node29</title>
<g id="a_Node000029"><a xlink:href="../../d4/d9a/classxii_qt_property_editor_quaternion_widget.html" target="_top" xlink:title="*** QUATERNION ***">
<polygon fill="white" stroke="#666666" points="618.5,-171 454.5,-171 454.5,-141 618.5,-141 618.5,-171"/>
<text text-anchor="start" x="462.5" y="-159" font-family="Helvetica,sans-Serif" font-size="10.00">xiiQtPropertyEditorQuaternion</text>
<text text-anchor="middle" x="536.5" y="-148" font-family="Helvetica,sans-Serif" font-size="10.00">Widget</text>
</a>
</g>
</g>
<!-- Node13&#45;&gt;Node29 -->
<g id="edge28_Node000013_Node000029" class="edge">
<title>Node13&#45;&gt;Node29</title>
<g id="a_edge28_Node000013_Node000029"><a xlink:title=" ">
<path fill="none" stroke="#63b8ff" d="M406.68,-466.31C407.84,-465.27 408.95,-464.17 410,-463 494.81,-368.75 362.62,-275.52 446,-180 448.96,-176.61 452.35,-173.67 456.03,-171.13"/>
<polygon fill="#63b8ff" stroke="#63b8ff" points="404.43,-463.62 398.38,-472.32 408.53,-469.29 404.43,-463.62"/>
</a>
</g>
</g>
<!-- Node30 -->
<g id="Node000030" class="node">
<title>Node30</title>
<g id="a_Node000030"><a xlink:href="../../d3/d59/classxii_qt_property_editor_time_widget.html" target="_top" xlink:title="*** TIME SPINBOX ***">
<polygon fill="white" stroke="#666666" points="621,-122.5 452,-122.5 452,-103.5 621,-103.5 621,-122.5"/>
<text text-anchor="middle" x="536.5" y="-110.5" font-family="Helvetica,sans-Serif" font-size="10.00">xiiQtPropertyEditorTimeWidget</text>
</a>
</g>
</g>
<!-- Node13&#45;&gt;Node30 -->
<g id="edge29_Node000013_Node000030" class="edge">
<title>Node13&#45;&gt;Node30</title>
<g id="a_edge29_Node000013_Node000030"><a xlink:title=" ">
<path fill="none" stroke="#63b8ff" d="M406.71,-466.34C407.86,-465.29 408.96,-464.18 410,-463 507.98,-352.11 346.77,-241.78 446,-132 449.41,-128.23 453.36,-125.1 457.67,-122.52"/>
<polygon fill="#63b8ff" stroke="#63b8ff" points="404.45,-463.65 398.46,-472.39 408.59,-469.3 404.45,-463.65"/>
</a>
</g>
</g>
<!-- Node31 -->
<g id="Node000031" class="node">
<title>Node31</title>
<g id="a_Node000031"><a xlink:href="../../d5/dd4/classxii_qt_variance_type_widget.html" target="_top" xlink:title=" ">
<polygon fill="white" stroke="#bfbfbf" points="606,-85.5 467,-85.5 467,-66.5 606,-66.5 606,-85.5"/>
<text text-anchor="middle" x="536.5" y="-73.5" font-family="Helvetica,sans-Serif" font-size="10.00">xiiQtVarianceTypeWidget</text>
</a>
</g>
</g>
<!-- Node13&#45;&gt;Node31 -->
<g id="edge30_Node000013_Node000031" class="edge">
<title>Node13&#45;&gt;Node31</title>
<g id="a_edge30_Node000013_Node000031"><a xlink:title=" ">
<path fill="none" stroke="#63b8ff" d="M406.73,-466.35C407.87,-465.3 408.97,-464.18 410,-463 464.21,-400.96 390.76,-155.13 446,-94 451.74,-87.65 459.04,-83.18 466.98,-80.07"/>
<polygon fill="#63b8ff" stroke="#63b8ff" points="404.47,-463.67 398.5,-472.43 408.63,-469.3 404.47,-463.67"/>
</a>
</g>
</g>
<!-- Node32 -->
<g id="Node000032" class="node">
<title>Node32</title>
<g id="a_Node000032"><a xlink:href="../../df/d7e/classxii_qt_variant_property_widget.html" target="_top" xlink:title=" ">
<polygon fill="white" stroke="#bfbfbf" points="611.5,-48.5 461.5,-48.5 461.5,-29.5 611.5,-29.5 611.5,-48.5"/>
<text text-anchor="middle" x="536.5" y="-36.5" font-family="Helvetica,sans-Serif" font-size="10.00">xiiQtVariantPropertyWidget</text>
</a>
</g>
</g>
<!-- Node13&#45;&gt;Node32 -->
<g id="edge31_Node000013_Node000032" class="edge">
<title>Node13&#45;&gt;Node32</title>
<g id="a_edge31_Node000013_Node000032"><a xlink:title=" ">
<path fill="none" stroke="#63b8ff" d="M406.75,-466.36C407.88,-465.31 408.97,-464.19 410,-463 469.3,-394.53 385.57,-124.47 446,-57 450.34,-52.16 455.58,-48.41 461.33,-45.52"/>
<polygon fill="#63b8ff" stroke="#63b8ff" points="404.48,-463.69 398.54,-472.46 408.65,-469.31 404.48,-463.69"/>
</a>
</g>
</g>
<!-- Node33 -->
<g id="Node000033" class="node">
<title>Node33</title>
<g id="a_Node000033"><a xlink:href="../../d8/dd3/classxii_qt_exposed_parameter_property_widget.html" target="_top" xlink:title=" ">
<polygon fill="white" stroke="#bfbfbf" points="838.5,-78 665.5,-78 665.5,-48 838.5,-48 838.5,-78"/>
<text text-anchor="start" x="673.5" y="-66" font-family="Helvetica,sans-Serif" font-size="10.00">xiiQtExposedParameterProperty</text>
<text text-anchor="middle" x="752" y="-55" font-family="Helvetica,sans-Serif" font-size="10.00">Widget</text>
</a>
</g>
</g>
<!-- Node32&#45;&gt;Node33 -->
<g id="edge32_Node000032_Node000033" class="edge">
<title>Node32&#45;&gt;Node33</title>
<g id="a_edge32_Node000032_Node000033"><a xlink:title=" ">
<path fill="none" stroke="#63b8ff" d="M621.86,-48.48C636.16,-50.09 651.01,-51.76 665.33,-53.37"/>
<polygon fill="#63b8ff" stroke="#63b8ff" points="621.9,-44.97 611.57,-47.33 621.12,-51.92 621.9,-44.97"/>
</a>
</g>
</g>
<!-- Node34 -->
<g id="Node000034" class="node">
<title>Node34</title>
<g id="a_Node000034"><a xlink:href="../../de/d6a/classxii_qt_visual_script_variable_widget.html" target="_top" xlink:title=" ">
<polygon fill="white" stroke="#bfbfbf" points="820.5,-30 683.5,-30 683.5,0 820.5,0 820.5,-30"/>
<text text-anchor="start" x="691.5" y="-18" font-family="Helvetica,sans-Serif" font-size="10.00">xiiQtVisualScriptVariable</text>
<text text-anchor="middle" x="752" y="-7" font-family="Helvetica,sans-Serif" font-size="10.00">Widget</text>
</a>
</g>
</g>
<!-- Node32&#45;&gt;Node34 -->
<g id="edge33_Node000032_Node000034" class="edge">
<title>Node32&#45;&gt;Node34</title>
<g id="a_edge33_Node000032_Node000034"><a xlink:title=" ">
<path fill="none" stroke="#63b8ff" d="M621.55,-29.55C642.1,-27.24 663.83,-24.8 683.5,-22.59"/>
<polygon fill="#63b8ff" stroke="#63b8ff" points="621.12,-26.08 611.57,-30.67 621.9,-33.03 621.12,-26.08"/>
</a>
</g>
</g>
</g>
</svg>

<g id="navigator" transform="translate(0 0)" fill="#404254">
  <rect fill="#f2f5e9" fill-opacity="0.5" stroke="#606060" stroke-width=".5" x="0" y="0" width="60" height="60"/>
  <use id="zoomplus" xlink:href="#zoomPlus" x="17" y="9" onmousedown="handleZoom(evt,'in')"/>
  <use id="zoomminus" xlink:href="#zoomMin" x="42" y="9" onmousedown="handleZoom(evt,'out')"/>
  <use id="reset" xlink:href="#resetDef" x="30" y="36" onmousedown="handleReset()"/>
   <use id="arrowup" xlink:href="#arrowUp" x="0" y="0" onmousedown="handlePan(0,-1)"/>
  <use id="arrowright" xlink:href="#arrowRight" x="0" y="0" onmousedown="handlePan(1,0)"/>
  <use id="arrowdown" xlink:href="#arrowDown" x="0" y="0" onmousedown="handlePan(0,1)"/>
  <use id="arrowleft" xlink:href="#arrowLeft" x="0" y="0" onmousedown="handlePan(-1,0)"/>
</g>
<svg viewBox="0 0 15 15" width="100%" height="30px" preserveAspectRatio="xMaxYMin meet">
 <g id="arrow_out" transform="scale(0.3 0.3)">
  <a xlink:href="classxii_qt_property_widget__inherit__graph_org.svg" target="_base">
   <rect id="button" ry="5" rx="5" y="6" x="6" height="38" width="38"
        fill="#f2f5e9" fill-opacity="0.5" stroke="#606060" stroke-width="1.0"/>
   <path id="arrow"
     d="M 11.500037,31.436501 C 11.940474,20.09759 22.043105,11.32322 32.158766,21.979434 L 37.068811,17.246167 C 37.068811,17.246167 37.088388,32 37.088388,32 L 22.160133,31.978069 C 22.160133,31.978069 26.997745,27.140456 26.997745,27.140456 C 18.528582,18.264221 13.291696,25.230495 11.500037,31.436501 z"
     style="fill:#404040;"/>
  </a>
 </g>
</svg>

<style type='text/css'>
<![CDATA[
[data-mouse-over-selected='false'] { opacity: 0.7; }
[data-mouse-over-selected='true']  { opacity: 1.0; }
]]>
</style>
<script type="application/ecmascript"><![CDATA[
document.addEventListener('DOMContentLoaded', (event) => {
  highlightEdges();
  highlightAdjacentNodes();
});
]]></script>
</svg>
