<?xml version="1.0" encoding="UTF-8" standalone="no"?>
<!DOCTYPE svg PUBLIC "-//W3C//DTD SVG 1.1//EN"
 "http://www.w3.org/Graphics/SVG/1.1/DTD/svg11.dtd">
<!-- Generated by graphviz version 2.43.0 (0)
 -->
<!-- Title: xiiQtPropertyWidget Pages: 1 -->
<svg width="849pt" height="975pt"
 viewBox="0.00 0.00 849.00 975.00" xmlns="http://www.w3.org/2000/svg" xmlns:xlink="http://www.w3.org/1999/xlink">
<g id="graph0" class="graph" transform="scale(1 1) rotate(0) translate(4 971)">
<title>xiiQtPropertyWidget</title>
<polygon fill="white" stroke="transparent" points="-4,4 -4,-971 845,-971 845,4 -4,4"/>
<!-- Node1 -->
<g id="node1" class="node">
<title>Node1</title>
<g id="a_node1"><a xlink:title="Base class for all property widgets.">
<polygon fill="#bfbfbf" stroke="black" points="95,-701 95,-720 211,-720 211,-701 95,-701"/>
<text text-anchor="middle" x="153" y="-708" font-family="Helvetica,sans-Serif" font-size="10.00">xiiQtPropertyWidget</text>
</a>
</g>
</g>
<!-- Node3 -->
<g id="node3" class="node">
<title>Node3</title>
<g id="a_node3"><a xlink:href="../../d9/dd3/classxii_qt_add_sub_element_button.htm" target="_top" xlink:title=" ">
<polygon fill="white" stroke="black" points="254,-882 254,-901 403,-901 403,-882 254,-882"/>
<text text-anchor="middle" x="328.5" y="-889" font-family="Helvetica,sans-Serif" font-size="10.00">xiiQtAddSubElementButton</text>
</a>
</g>
</g>
<!-- Node1&#45;&gt;Node3 -->
<g id="edge2" class="edge">
<title>Node1&#45;&gt;Node3</title>
<path fill="none" stroke="midnightblue" d="M159.59,-730.18C170.45,-764.65 197.74,-835.77 247,-872.5 252.18,-876.36 258.03,-879.45 264.15,-881.93"/>
<polygon fill="midnightblue" stroke="midnightblue" points="162.87,-728.94 156.64,-720.37 156.17,-730.95 162.87,-728.94"/>
</g>
<!-- Node4 -->
<g id="node4" class="node">
<title>Node4</title>
<g id="a_node4"><a xlink:href="../../d7/d85/classxii_qt_embedded_class_property_widget.htm" target="_top" xlink:title="Base class for more &#39;advanced&#39; property type widgets for Pointer or Class type properties....">
<polygon fill="white" stroke="black" points="249,-832.5 249,-862.5 408,-862.5 408,-832.5 249,-832.5"/>
<text text-anchor="start" x="257" y="-850.5" font-family="Helvetica,sans-Serif" font-size="10.00">xiiQtEmbeddedClassProperty</text>
<text text-anchor="middle" x="328.5" y="-839.5" font-family="Helvetica,sans-Serif" font-size="10.00">Widget</text>
</a>
</g>
</g>
<!-- Node1&#45;&gt;Node4 -->
<g id="edge3" class="edge">
<title>Node1&#45;&gt;Node4</title>
<path fill="none" stroke="midnightblue" d="M164.59,-728.99C179.74,-753.83 209.91,-797.69 247,-822.5 252.72,-826.32 259.05,-829.59 265.58,-832.36"/>
<polygon fill="midnightblue" stroke="midnightblue" points="167.49,-727.01 159.37,-720.2 161.47,-730.59 167.49,-727.01"/>
</g>
<!-- Node5 -->
<g id="node5" class="node">
<title>Node5</title>
<g id="a_node5"><a xlink:href="../../dd/d44/classxii_qt_property_container_widget.htm" target="_top" xlink:title="Base class for all container properties.">
<polygon fill="white" stroke="black" points="247,-794 247,-813 410,-813 410,-794 247,-794"/>
<text text-anchor="middle" x="328.5" y="-801" font-family="Helvetica,sans-Serif" font-size="10.00">xiiQtPropertyContainerWidget</text>
</a>
</g>
</g>
<!-- Node1&#45;&gt;Node5 -->
<g id="edge4" class="edge">
<title>Node1&#45;&gt;Node5</title>
<path fill="none" stroke="midnightblue" d="M170.19,-727.15C187.62,-744.09 216.9,-769.89 247,-784.5 254.88,-788.33 263.58,-791.41 272.25,-793.88"/>
<polygon fill="midnightblue" stroke="midnightblue" points="172.62,-724.63 163.06,-720.06 167.68,-729.59 172.62,-724.63"/>
</g>
<!-- Node9 -->
<g id="node9" class="node">
<title>Node9</title>
<g id="a_node9"><a xlink:href="../../dc/d27/classxii_qt_property_editor_curve1_d_widget.htm" target="_top" xlink:title=" ">
<polygon fill="white" stroke="black" points="256.5,-744.5 256.5,-774.5 400.5,-774.5 400.5,-744.5 256.5,-744.5"/>
<text text-anchor="start" x="264.5" y="-762.5" font-family="Helvetica,sans-Serif" font-size="10.00">xiiQtPropertyEditorCurve1</text>
<text text-anchor="middle" x="328.5" y="-751.5" font-family="Helvetica,sans-Serif" font-size="10.00">DWidget</text>
</a>
</g>
</g>
<!-- Node1&#45;&gt;Node9 -->
<g id="edge8" class="edge">
<title>Node1&#45;&gt;Node9</title>
<path fill="none" stroke="midnightblue" d="M197.78,-722.87C221.02,-729.43 249.74,-737.54 274.26,-744.46"/>
<polygon fill="midnightblue" stroke="midnightblue" points="198.44,-719.41 187.86,-720.06 196.54,-726.15 198.44,-719.41"/>
</g>
<!-- Node10 -->
<g id="node10" class="node">
<title>Node10</title>
<g id="a_node10"><a xlink:href="../../d8/dc8/classxii_qt_property_editor_tag_set_widget.htm" target="_top" xlink:title=" ">
<polygon fill="white" stroke="black" points="257.5,-695.5 257.5,-725.5 399.5,-725.5 399.5,-695.5 257.5,-695.5"/>
<text text-anchor="start" x="265.5" y="-713.5" font-family="Helvetica,sans-Serif" font-size="10.00">xiiQtPropertyEditorTagSet</text>
<text text-anchor="middle" x="328.5" y="-702.5" font-family="Helvetica,sans-Serif" font-size="10.00">Widget</text>
</a>
</g>
</g>
<!-- Node1&#45;&gt;Node10 -->
<g id="edge9" class="edge">
<title>Node1&#45;&gt;Node10</title>
<path fill="none" stroke="midnightblue" d="M221.46,-710.5C233.21,-710.5 245.45,-710.5 257.27,-710.5"/>
<polygon fill="midnightblue" stroke="midnightblue" points="221.29,-707 211.29,-710.5 221.29,-714 221.29,-707"/>
</g>
<!-- Node11 -->
<g id="node11" class="node">
<title>Node11</title>
<g id="a_node11"><a xlink:href="../../d4/dc5/classxii_qt_property_pointer_widget.htm" target="_top" xlink:title="Used for property types that are pointers.">
<polygon fill="white" stroke="black" points="253.5,-657 253.5,-676 403.5,-676 403.5,-657 253.5,-657"/>
<text text-anchor="middle" x="328.5" y="-664" font-family="Helvetica,sans-Serif" font-size="10.00">xiiQtPropertyPointerWidget</text>
</a>
</g>
</g>
<!-- Node1&#45;&gt;Node11 -->
<g id="edge10" class="edge">
<title>Node1&#45;&gt;Node11</title>
<path fill="none" stroke="midnightblue" d="M198.19,-698.32C213.61,-694.15 231.04,-689.53 247,-685.5 259.67,-682.3 273.5,-678.98 286.07,-676.02"/>
<polygon fill="midnightblue" stroke="midnightblue" points="197.12,-694.99 188.38,-700.99 198.95,-701.74 197.12,-694.99"/>
</g>
<!-- Node12 -->
<g id="node12" class="node">
<title>Node12</title>
<g id="a_node12"><a xlink:href="../../d3/d12/classxii_qt_property_type_widget.htm" target="_top" xlink:title=" ">
<polygon fill="white" stroke="black" points="259.5,-619 259.5,-638 397.5,-638 397.5,-619 259.5,-619"/>
<text text-anchor="middle" x="328.5" y="-626" font-family="Helvetica,sans-Serif" font-size="10.00">xiiQtPropertyTypeWidget</text>
</a>
</g>
</g>
<!-- Node1&#45;&gt;Node12 -->
<g id="edge11" class="edge">
<title>Node1&#45;&gt;Node12</title>
<path fill="none" stroke="midnightblue" d="M173.19,-694.41C191.18,-680.1 219.38,-659.62 247,-647.5 255.68,-643.69 265.23,-640.58 274.63,-638.07"/>
<polygon fill="midnightblue" stroke="midnightblue" points="170.78,-691.85 165.22,-700.87 175.19,-697.29 170.78,-691.85"/>
</g>
<!-- Node13 -->
<g id="node13" class="node">
<title>Node13</title>
<g id="a_node13"><a xlink:href="../../d5/db2/classxii_qt_standard_property_widget.htm" target="_top" xlink:title="Base class for most &#39;simple&#39; property type widgets. Implements some of the standard functionality.">
<polygon fill="white" stroke="black" points="249,-483 249,-502 408,-502 408,-483 249,-483"/>
<text text-anchor="middle" x="328.5" y="-490" font-family="Helvetica,sans-Serif" font-size="10.00">xiiQtStandardPropertyWidget</text>
</a>
</g>
</g>
<!-- Node1&#45;&gt;Node13 -->
<g id="edge12" class="edge">
<title>Node1&#45;&gt;Node13</title>
<path fill="none" stroke="midnightblue" d="M168.09,-692.79C203.11,-648.79 293.18,-535.63 319.91,-502.04"/>
<polygon fill="midnightblue" stroke="midnightblue" points="165.17,-690.85 161.68,-700.85 170.64,-695.21 165.17,-690.85"/>
</g>
<!-- Node35 -->
<g id="node35" class="node">
<title>Node35</title>
<g id="a_node35"><a xlink:href="../../d4/dc6/classxii_qt_unsupported_property_widget.htm" target="_top" xlink:title="Fallback widget for all property types for which no other widget type is registered.">
<polygon fill="white" stroke="black" points="257,-433.5 257,-463.5 400,-463.5 400,-433.5 257,-433.5"/>
<text text-anchor="start" x="265" y="-451.5" font-family="Helvetica,sans-Serif" font-size="10.00">xiiQtUnsupportedProperty</text>
<text text-anchor="middle" x="328.5" y="-440.5" font-family="Helvetica,sans-Serif" font-size="10.00">Widget</text>
</a>
</g>
</g>
<!-- Node1&#45;&gt;Node35 -->
<g id="edge34" class="edge">
<title>Node1&#45;&gt;Node35</title>
<path fill="none" stroke="midnightblue" d="M156.03,-690.74C161.72,-645.56 181.94,-533.98 247,-473.5 251.18,-469.61 255.95,-466.33 261.05,-463.56"/>
<polygon fill="midnightblue" stroke="midnightblue" points="152.54,-690.39 154.87,-700.72 159.5,-691.19 152.54,-690.39"/>
</g>
<!-- Node2 -->
<g id="node2" class="node">
<title>Node2</title>
<g id="a_node2"><a xlink:title=" ">
<polygon fill="white" stroke="#bfbfbf" points="0,-701 0,-720 59,-720 59,-701 0,-701"/>
<text text-anchor="middle" x="29.5" y="-708" font-family="Helvetica,sans-Serif" font-size="10.00">QWidget</text>
</a>
</g>
</g>
<!-- Node2&#45;&gt;Node1 -->
<g id="edge1" class="edge">
<title>Node2&#45;&gt;Node1</title>
<path fill="none" stroke="midnightblue" d="M69.5,-710.5C77.56,-710.5 86.21,-710.5 94.77,-710.5"/>
<polygon fill="midnightblue" stroke="midnightblue" points="69.29,-707 59.29,-710.5 69.29,-714 69.29,-707"/>
</g>
<!-- Node6 -->
<g id="node6" class="node">
<title>Node6</title>
<g id="a_node6"><a xlink:href="../../df/d59/classxii_qt_property_standard_type_container_widget.htm" target="_top" xlink:title=" ">
<polygon fill="white" stroke="black" points="463,-936.5 463,-966.5 610,-966.5 610,-936.5 463,-936.5"/>
<text text-anchor="start" x="471" y="-954.5" font-family="Helvetica,sans-Serif" font-size="10.00">xiiQtPropertyStandardType</text>
<text text-anchor="middle" x="536.5" y="-943.5" font-family="Helvetica,sans-Serif" font-size="10.00">ContainerWidget</text>
</a>
</g>
</g>
<!-- Node5&#45;&gt;Node6 -->
<g id="edge5" class="edge">
<title>Node5&#45;&gt;Node6</title>
<path fill="none" stroke="midnightblue" d="M402.96,-818.05C405.45,-819.69 407.81,-821.5 410,-823.5 446.1,-856.5 410.2,-894.17 446,-927.5 450.94,-932.1 456.68,-935.84 462.8,-938.88"/>
<polygon fill="midnightblue" stroke="midnightblue" points="404.51,-814.91 394.06,-813.14 401.12,-821.03 404.51,-814.91"/>
</g>
<!-- Node8 -->
<g id="node8" class="node">
<title>Node8</title>
<g id="a_node8"><a xlink:href="../../dc/d61/classxii_qt_property_type_container_widget.htm" target="_top" xlink:title=" ">
<polygon fill="white" stroke="black" points="461,-887.5 461,-917.5 612,-917.5 612,-887.5 461,-887.5"/>
<text text-anchor="start" x="469" y="-905.5" font-family="Helvetica,sans-Serif" font-size="10.00">xiiQtPropertyTypeContainer</text>
<text text-anchor="middle" x="536.5" y="-894.5" font-family="Helvetica,sans-Serif" font-size="10.00">Widget</text>
</a>
</g>
</g>
<!-- Node5&#45;&gt;Node8 -->
<g id="edge7" class="edge">
<title>Node5&#45;&gt;Node8</title>
<path fill="none" stroke="midnightblue" d="M398.98,-817.07C402.85,-818.95 406.56,-821.08 410,-823.5 433.59,-840.1 422.65,-860.56 446,-877.5 451.35,-881.38 457.29,-884.67 463.48,-887.44"/>
<polygon fill="midnightblue" stroke="midnightblue" points="400.29,-813.83 389.72,-813.15 397.56,-820.27 400.29,-813.83"/>
</g>
<!-- Node7 -->
<g id="node7" class="node">
<title>Node7</title>
<g id="a_node7"><a xlink:href="../../d9/d92/classxii_qt_exposed_parameters_property_widget.htm" target="_top" xlink:title=" ">
<polygon fill="white" stroke="black" points="663,-936.5 663,-966.5 841,-966.5 841,-936.5 663,-936.5"/>
<text text-anchor="start" x="671" y="-954.5" font-family="Helvetica,sans-Serif" font-size="10.00">xiiQtExposedParametersProperty</text>
<text text-anchor="middle" x="752" y="-943.5" font-family="Helvetica,sans-Serif" font-size="10.00">Widget</text>
</a>
</g>
</g>
<!-- Node6&#45;&gt;Node7 -->
<g id="edge6" class="edge">
<title>Node6&#45;&gt;Node7</title>
<path fill="none" stroke="midnightblue" d="M620.13,-951.5C634.09,-951.5 648.63,-951.5 662.73,-951.5"/>
<polygon fill="midnightblue" stroke="midnightblue" points="620.08,-948 610.08,-951.5 620.08,-955 620.08,-948"/>
</g>
<!-- Node14 -->
<g id="node14" class="node">
<title>Node14</title>
<g id="a_node14"><a xlink:href="../../d1/d7a/classxii_qt_asset_property_widget.htm" target="_top" xlink:title="*** Asset Browser ***">
<polygon fill="white" stroke="black" points="465,-849 465,-868 608,-868 608,-849 465,-849"/>
<text text-anchor="middle" x="536.5" y="-856" font-family="Helvetica,sans-Serif" font-size="10.00">xiiQtAssetPropertyWidget</text>
</a>
</g>
</g>
<!-- Node13&#45;&gt;Node14 -->
<g id="edge13" class="edge">
<title>Node13&#45;&gt;Node14</title>
<path fill="none" stroke="midnightblue" d="M345.27,-509.91C363.95,-531.57 394.46,-570.47 410,-609.5 448.28,-705.63 374.84,-764.39 446,-839.5 451.24,-845.03 457.67,-849.16 464.65,-852.21"/>
<polygon fill="midnightblue" stroke="midnightblue" points="347.76,-507.44 338.53,-502.24 342.5,-512.06 347.76,-507.44"/>
</g>
<!-- Node15 -->
<g id="node15" class="node">
<title>Node15</title>
<g id="a_node15"><a xlink:href="../../d8/d8d/classxii_qt_dynamic_bitflags_property_widget.htm" target="_top" xlink:title=" ">
<polygon fill="white" stroke="black" points="456,-799.5 456,-829.5 617,-829.5 617,-799.5 456,-799.5"/>
<text text-anchor="start" x="464" y="-817.5" font-family="Helvetica,sans-Serif" font-size="10.00">xiiQtDynamicBitflagsProperty</text>
<text text-anchor="middle" x="536.5" y="-806.5" font-family="Helvetica,sans-Serif" font-size="10.00">Widget</text>
</a>
</g>
</g>
<!-- Node13&#45;&gt;Node15 -->
<g id="edge14" class="edge">
<title>Node13&#45;&gt;Node15</title>
<path fill="none" stroke="midnightblue" d="M344.72,-509.68C363.1,-531.38 393.58,-570.6 410,-609.5 441.9,-685.06 389.94,-730.63 446,-790.5 449.19,-793.91 452.8,-796.85 456.71,-799.39"/>
<polygon fill="midnightblue" stroke="midnightblue" points="347.29,-507.3 338.1,-502.01 341.98,-511.87 347.29,-507.3"/>
</g>
<!-- Node16 -->
<g id="node16" class="node">
<title>Node16</title>
<g id="a_node16"><a xlink:href="../../dc/d0a/classxii_qt_dynamic_enum_property_widget.htm" target="_top" xlink:title="*** Asset Browser ***">
<polygon fill="white" stroke="black" points="460.5,-750.5 460.5,-780.5 612.5,-780.5 612.5,-750.5 460.5,-750.5"/>
<text text-anchor="start" x="468.5" y="-768.5" font-family="Helvetica,sans-Serif" font-size="10.00">xiiQtDynamicEnumProperty</text>
<text text-anchor="middle" x="536.5" y="-757.5" font-family="Helvetica,sans-Serif" font-size="10.00">Widget</text>
</a>
</g>
</g>
<!-- Node13&#45;&gt;Node16 -->
<g id="edge15" class="edge">
<title>Node13&#45;&gt;Node16</title>
<path fill="none" stroke="midnightblue" d="M344.28,-509.88C362.2,-531.78 392.23,-571.2 410,-609.5 435.6,-664.66 402.91,-698.59 446,-741.5 450.22,-745.7 455.09,-749.19 460.33,-752.08"/>
<polygon fill="midnightblue" stroke="midnightblue" points="346.92,-507.58 337.84,-502.13 341.54,-512.06 346.92,-507.58"/>
</g>
<!-- Node17 -->
<g id="node17" class="node">
<title>Node17</title>
<g id="a_node17"><a xlink:href="../../d9/d6a/classxii_qt_dynamic_string_enum_property_widget.htm" target="_top" xlink:title=" ">
<polygon fill="white" stroke="black" points="446,-701.5 446,-731.5 627,-731.5 627,-701.5 446,-701.5"/>
<text text-anchor="start" x="454" y="-719.5" font-family="Helvetica,sans-Serif" font-size="10.00">xiiQtDynamicStringEnumProperty</text>
<text text-anchor="middle" x="536.5" y="-708.5" font-family="Helvetica,sans-Serif" font-size="10.00">Widget</text>
</a>
</g>
</g>
<!-- Node13&#45;&gt;Node17 -->
<g id="edge16" class="edge">
<title>Node13&#45;&gt;Node17</title>
<path fill="none" stroke="midnightblue" d="M343.33,-510.3C360.33,-532.66 389.44,-572.58 410,-609.5 429.37,-644.27 415.94,-665.41 446,-691.5 450.39,-695.31 455.31,-698.54 460.53,-701.28"/>
<polygon fill="midnightblue" stroke="midnightblue" points="345.91,-507.91 337.05,-502.11 340.36,-512.17 345.91,-507.91"/>
</g>
<!-- Node18 -->
<g id="node18" class="node">
<title>Node18</title>
<g id="a_node18"><a xlink:href="../../d7/d0c/classxii_qt_exposed_bone_widget.htm" target="_top" xlink:title=" ">
<polygon fill="white" stroke="black" points="466.5,-663 466.5,-682 606.5,-682 606.5,-663 466.5,-663"/>
<text text-anchor="middle" x="536.5" y="-670" font-family="Helvetica,sans-Serif" font-size="10.00">xiiQtExposedBoneWidget</text>
</a>
</g>
</g>
<!-- Node13&#45;&gt;Node18 -->
<g id="edge17" class="edge">
<title>Node13&#45;&gt;Node18</title>
<path fill="none" stroke="midnightblue" d="M342,-510.49C370.56,-551.5 438.71,-648.76 446,-653.5 452.26,-657.57 459.23,-660.79 466.46,-663.33"/>
<polygon fill="midnightblue" stroke="midnightblue" points="344.83,-508.43 336.24,-502.22 339.08,-512.42 344.83,-508.43"/>
</g>
<!-- Node19 -->
<g id="node19" class="node">
<title>Node19</title>
<g id="a_node19"><a xlink:href="../../d8/d2a/classxii_qt_file_property_widget.htm" target="_top" xlink:title=" ">
<polygon fill="white" stroke="black" points="470,-625 470,-644 603,-644 603,-625 470,-625"/>
<text text-anchor="middle" x="536.5" y="-632" font-family="Helvetica,sans-Serif" font-size="10.00">xiiQtFilePropertyWidget</text>
</a>
</g>
</g>
<!-- Node13&#45;&gt;Node19 -->
<g id="edge18" class="edge">
<title>Node13&#45;&gt;Node19</title>
<path fill="none" stroke="midnightblue" d="M341.57,-510.8C360.46,-537.91 399.69,-588.35 446,-614.5 453.76,-618.88 462.41,-622.31 471.19,-624.98"/>
<polygon fill="midnightblue" stroke="midnightblue" points="344.28,-508.56 335.76,-502.26 338.49,-512.5 344.28,-508.56"/>
</g>
<!-- Node20 -->
<g id="node20" class="node">
<title>Node20</title>
<g id="a_node20"><a xlink:href="../../d5/dc6/classxii_qt_game_object_reference_property_widget.htm" target="_top" xlink:title=" ">
<polygon fill="white" stroke="black" points="461.5,-575.5 461.5,-605.5 611.5,-605.5 611.5,-575.5 461.5,-575.5"/>
<text text-anchor="start" x="469.5" y="-593.5" font-family="Helvetica,sans-Serif" font-size="10.00">xiiQtGameObjectReference</text>
<text text-anchor="middle" x="536.5" y="-582.5" font-family="Helvetica,sans-Serif" font-size="10.00">PropertyWidget</text>
</a>
</g>
</g>
<!-- Node13&#45;&gt;Node20 -->
<g id="edge19" class="edge">
<title>Node13&#45;&gt;Node20</title>
<path fill="none" stroke="midnightblue" d="M350.23,-508.08C372.77,-524.38 410.34,-549.74 446,-565.5 454.41,-569.22 463.51,-572.52 472.58,-575.4"/>
<polygon fill="midnightblue" stroke="midnightblue" points="352.23,-505.2 342.09,-502.11 348.09,-510.85 352.23,-505.2"/>
</g>
<!-- Node21 -->
<g id="node21" class="node">
<title>Node21</title>
<g id="a_node21"><a xlink:href="../../da/d96/classxii_qt_property_editor_angle_widget.htm" target="_top" xlink:title="*** ANGLE SPINBOX ***">
<polygon fill="white" stroke="black" points="468,-526.5 468,-556.5 605,-556.5 605,-526.5 468,-526.5"/>
<text text-anchor="start" x="476" y="-544.5" font-family="Helvetica,sans-Serif" font-size="10.00">xiiQtPropertyEditorAngle</text>
<text text-anchor="middle" x="536.5" y="-533.5" font-family="Helvetica,sans-Serif" font-size="10.00">Widget</text>
</a>
</g>
</g>
<!-- Node13&#45;&gt;Node21 -->
<g id="edge20" class="edge">
<title>Node13&#45;&gt;Node21</title>
<path fill="none" stroke="midnightblue" d="M379.64,-504.43C407.54,-511.06 442.53,-519.39 472.28,-526.46"/>
<polygon fill="midnightblue" stroke="midnightblue" points="380.25,-500.97 369.71,-502.06 378.63,-507.78 380.25,-500.97"/>
</g>
<!-- Node22 -->
<g id="node22" class="node">
<title>Node22</title>
<g id="a_node22"><a xlink:href="../../de/dac/classxii_qt_property_editor_bitflags_widget.htm" target="_top" xlink:title="*** BITFLAGS COMBOBOX ***">
<polygon fill="white" stroke="black" points="463.5,-477.5 463.5,-507.5 609.5,-507.5 609.5,-477.5 463.5,-477.5"/>
<text text-anchor="start" x="471.5" y="-495.5" font-family="Helvetica,sans-Serif" font-size="10.00">xiiQtPropertyEditorBitflags</text>
<text text-anchor="middle" x="536.5" y="-484.5" font-family="Helvetica,sans-Serif" font-size="10.00">Widget</text>
</a>
</g>
</g>
<!-- Node13&#45;&gt;Node22 -->
<g id="edge21" class="edge">
<title>Node13&#45;&gt;Node22</title>
<path fill="none" stroke="midnightblue" d="M418.52,-492.5C433.44,-492.5 448.77,-492.5 463.21,-492.5"/>
<polygon fill="midnightblue" stroke="midnightblue" points="418.26,-489 408.26,-492.5 418.26,-496 418.26,-489"/>
</g>
<!-- Node23 -->
<g id="node23" class="node">
<title>Node23</title>
<g id="a_node23"><a xlink:href="../../d3/d49/classxii_qt_property_editor_checkbox_widget.htm" target="_top" xlink:title="*** CHECKBOX ***">
<polygon fill="white" stroke="black" points="457.5,-428.5 457.5,-458.5 615.5,-458.5 615.5,-428.5 457.5,-428.5"/>
<text text-anchor="start" x="465.5" y="-446.5" font-family="Helvetica,sans-Serif" font-size="10.00">xiiQtPropertyEditorCheckbox</text>
<text text-anchor="middle" x="536.5" y="-435.5" font-family="Helvetica,sans-Serif" font-size="10.00">Widget</text>
</a>
</g>
</g>
<!-- Node13&#45;&gt;Node23 -->
<g id="edge22" class="edge">
<title>Node13&#45;&gt;Node23</title>
<path fill="none" stroke="midnightblue" d="M379.64,-480.57C407.54,-473.94 442.53,-465.61 472.28,-458.54"/>
<polygon fill="midnightblue" stroke="midnightblue" points="378.63,-477.22 369.71,-482.94 380.25,-484.03 378.63,-477.22"/>
</g>
<!-- Node24 -->
<g id="node24" class="node">
<title>Node24</title>
<g id="a_node24"><a xlink:href="../../de/dc4/classxii_qt_property_editor_color_widget.htm" target="_top" xlink:title=" ">
<polygon fill="white" stroke="black" points="469,-379.5 469,-409.5 604,-409.5 604,-379.5 469,-379.5"/>
<text text-anchor="start" x="477" y="-397.5" font-family="Helvetica,sans-Serif" font-size="10.00">xiiQtPropertyEditorColor</text>
<text text-anchor="middle" x="536.5" y="-386.5" font-family="Helvetica,sans-Serif" font-size="10.00">Widget</text>
</a>
</g>
</g>
<!-- Node13&#45;&gt;Node24 -->
<g id="edge23" class="edge">
<title>Node13&#45;&gt;Node24</title>
<path fill="none" stroke="midnightblue" d="M398.98,-478.93C402.85,-477.05 406.56,-474.92 410,-472.5 433.59,-455.9 422.56,-435.32 446,-418.5 452.93,-413.53 460.82,-409.59 468.99,-406.46"/>
<polygon fill="midnightblue" stroke="midnightblue" points="397.56,-475.73 389.72,-482.85 400.29,-482.17 397.56,-475.73"/>
</g>
<!-- Node25 -->
<g id="node25" class="node">
<title>Node25</title>
<g id="a_node25"><a xlink:href="../../dd/dab/classxii_qt_property_editor_double_spinbox_widget.htm" target="_top" xlink:title="*** DOUBLE SPINBOX ***">
<polygon fill="white" stroke="black" points="464.5,-330.5 464.5,-360.5 608.5,-360.5 608.5,-330.5 464.5,-330.5"/>
<text text-anchor="start" x="472.5" y="-348.5" font-family="Helvetica,sans-Serif" font-size="10.00">xiiQtPropertyEditorDouble</text>
<text text-anchor="middle" x="536.5" y="-337.5" font-family="Helvetica,sans-Serif" font-size="10.00">SpinboxWidget</text>
</a>
</g>
</g>
<!-- Node13&#45;&gt;Node25 -->
<g id="edge24" class="edge">
<title>Node13&#45;&gt;Node25</title>
<path fill="none" stroke="midnightblue" d="M402.95,-477.94C405.44,-476.31 407.8,-474.5 410,-472.5 445.84,-439.84 410.46,-402.49 446,-369.5 451.31,-364.57 457.51,-360.64 464.14,-357.5"/>
<polygon fill="midnightblue" stroke="midnightblue" points="401.12,-474.96 394.05,-482.85 404.5,-481.09 401.12,-474.96"/>
</g>
<!-- Node26 -->
<g id="node26" class="node">
<title>Node26</title>
<g id="a_node26"><a xlink:href="../../da/d30/classxii_qt_property_editor_enum_widget.htm" target="_top" xlink:title="*** ENUM COMBOBOX ***">
<polygon fill="white" stroke="black" points="450.5,-292 450.5,-311 622.5,-311 622.5,-292 450.5,-292"/>
<text text-anchor="middle" x="536.5" y="-299" font-family="Helvetica,sans-Serif" font-size="10.00">xiiQtPropertyEditorEnumWidget</text>
</a>
</g>
</g>
<!-- Node13&#45;&gt;Node26 -->
<g id="edge25" class="edge">
<title>Node13&#45;&gt;Node26</title>
<path fill="none" stroke="midnightblue" d="M404.01,-477.66C406.13,-476.1 408.14,-474.38 410,-472.5 458.82,-423.14 396.34,-369.01 446,-320.5 449.86,-316.73 454.28,-313.62 459.03,-311.07"/>
<polygon fill="midnightblue" stroke="midnightblue" points="402.02,-474.77 395.29,-482.95 405.66,-480.75 402.02,-474.77"/>
</g>
<!-- Node27 -->
<g id="node27" class="node">
<title>Node27</title>
<g id="a_node27"><a xlink:href="../../d6/de7/classxii_qt_property_editor_int_spinbox_widget.htm" target="_top" xlink:title="*** INT SPINBOX ***">
<polygon fill="white" stroke="black" points="456,-242.5 456,-272.5 617,-272.5 617,-242.5 456,-242.5"/>
<text text-anchor="start" x="464" y="-260.5" font-family="Helvetica,sans-Serif" font-size="10.00">xiiQtPropertyEditorIntSpinbox</text>
<text text-anchor="middle" x="536.5" y="-249.5" font-family="Helvetica,sans-Serif" font-size="10.00">Widget</text>
</a>
</g>
</g>
<!-- Node13&#45;&gt;Node27 -->
<g id="edge26" class="edge">
<title>Node13&#45;&gt;Node27</title>
<path fill="none" stroke="midnightblue" d="M404.7,-477.31C406.58,-475.84 408.35,-474.24 410,-472.5 469.04,-410.04 387.87,-345.8 446,-282.5 449.49,-278.7 453.51,-275.45 457.87,-272.69"/>
<polygon fill="midnightblue" stroke="midnightblue" points="402.42,-474.62 395.88,-482.95 406.19,-480.51 402.42,-474.62"/>
</g>
<!-- Node28 -->
<g id="node28" class="node">
<title>Node28</title>
<g id="a_node28"><a xlink:href="../../d5/d11/classxii_qt_property_editor_line_edit_widget.htm" target="_top" xlink:title="*** LINEEDIT ***">
<polygon fill="white" stroke="black" points="462,-193.5 462,-223.5 611,-223.5 611,-193.5 462,-193.5"/>
<text text-anchor="start" x="470" y="-211.5" font-family="Helvetica,sans-Serif" font-size="10.00">xiiQtPropertyEditorLineEdit</text>
<text text-anchor="middle" x="536.5" y="-200.5" font-family="Helvetica,sans-Serif" font-size="10.00">Widget</text>
</a>
</g>
</g>
<!-- Node13&#45;&gt;Node28 -->
<g id="edge27" class="edge">
<title>Node13&#45;&gt;Node28</title>
<path fill="none" stroke="midnightblue" d="M404.93,-477.29C406.73,-475.82 408.43,-474.23 410,-472.5 482.58,-392.71 374.16,-312.96 446,-232.5 450.5,-227.46 455.93,-223.43 461.87,-220.21"/>
<polygon fill="midnightblue" stroke="midnightblue" points="402.84,-474.47 396.44,-482.91 406.71,-480.3 402.84,-474.47"/>
</g>
<!-- Node29 -->
<g id="node29" class="node">
<title>Node29</title>
<g id="a_node29"><a xlink:href="../../d4/d9a/classxii_qt_property_editor_quaternion_widget.htm" target="_top" xlink:title="*** QUATERNION ***">
<polygon fill="white" stroke="black" points="454.5,-144.5 454.5,-174.5 618.5,-174.5 618.5,-144.5 454.5,-144.5"/>
<text text-anchor="start" x="462.5" y="-162.5" font-family="Helvetica,sans-Serif" font-size="10.00">xiiQtPropertyEditorQuaternion</text>
<text text-anchor="middle" x="536.5" y="-151.5" font-family="Helvetica,sans-Serif" font-size="10.00">Widget</text>
</a>
</g>
</g>
<!-- Node13&#45;&gt;Node29 -->
<g id="edge28" class="edge">
<title>Node13&#45;&gt;Node29</title>
<path fill="none" stroke="midnightblue" d="M405.51,-476.89C407.1,-475.54 408.6,-474.08 410,-472.5 495.89,-375.67 361.01,-281.12 446,-183.5 448.96,-180.1 452.34,-177.16 456.02,-174.62"/>
<polygon fill="midnightblue" stroke="midnightblue" points="403.18,-474.25 396.93,-482.81 407.15,-480.01 403.18,-474.25"/>
</g>
<!-- Node30 -->
<g id="node30" class="node">
<title>Node30</title>
<g id="a_node30"><a xlink:href="../../d3/d59/classxii_qt_property_editor_time_widget.htm" target="_top" xlink:title="*** TIME SPINBOX ***">
<polygon fill="white" stroke="black" points="452,-106 452,-125 621,-125 621,-106 452,-106"/>
<text text-anchor="middle" x="536.5" y="-113" font-family="Helvetica,sans-Serif" font-size="10.00">xiiQtPropertyEditorTimeWidget</text>
</a>
</g>
</g>
<!-- Node13&#45;&gt;Node30 -->
<g id="edge29" class="edge">
<title>Node13&#45;&gt;Node30</title>
<path fill="none" stroke="midnightblue" d="M405.55,-476.92C407.13,-475.56 408.62,-474.09 410,-472.5 509.24,-358.59 344.82,-246.69 446,-134.5 449.4,-130.73 453.36,-127.6 457.66,-125.01"/>
<polygon fill="midnightblue" stroke="midnightblue" points="403.21,-474.29 397.01,-482.88 407.22,-480.03 403.21,-474.29"/>
</g>
<!-- Node31 -->
<g id="node31" class="node">
<title>Node31</title>
<g id="a_node31"><a xlink:href="../../d5/dd4/classxii_qt_variance_type_widget.htm" target="_top" xlink:title=" ">
<polygon fill="white" stroke="black" points="467,-68 467,-87 606,-87 606,-68 467,-68"/>
<text text-anchor="middle" x="536.5" y="-75" font-family="Helvetica,sans-Serif" font-size="10.00">xiiQtVarianceTypeWidget</text>
</a>
</g>
</g>
<!-- Node13&#45;&gt;Node31 -->
<g id="edge30" class="edge">
<title>Node13&#45;&gt;Node31</title>
<path fill="none" stroke="midnightblue" d="M405.57,-476.94C407.14,-475.57 408.63,-474.1 410,-472.5 464.8,-408.92 390.12,-159.13 446,-96.5 451.71,-90.1 458.99,-85.55 466.93,-82.37"/>
<polygon fill="midnightblue" stroke="midnightblue" points="403.23,-474.31 397.06,-482.92 407.26,-480.04 403.23,-474.31"/>
</g>
<!-- Node32 -->
<g id="node32" class="node">
<title>Node32</title>
<g id="a_node32"><a xlink:href="../../df/d7e/classxii_qt_variant_property_widget.htm" target="_top" xlink:title=" ">
<polygon fill="white" stroke="black" points="461.5,-30 461.5,-49 611.5,-49 611.5,-30 461.5,-30"/>
<text text-anchor="middle" x="536.5" y="-37" font-family="Helvetica,sans-Serif" font-size="10.00">xiiQtVariantPropertyWidget</text>
</a>
</g>
</g>
<!-- Node13&#45;&gt;Node32 -->
<g id="edge31" class="edge">
<title>Node13&#45;&gt;Node32</title>
<path fill="none" stroke="midnightblue" d="M405.59,-476.96C407.16,-475.58 408.63,-474.1 410,-472.5 469.99,-402.29 384.82,-127.67 446,-58.5 450.31,-53.62 455.54,-49.82 461.28,-46.87"/>
<polygon fill="midnightblue" stroke="midnightblue" points="403.25,-474.33 397.1,-482.96 407.29,-480.05 403.25,-474.33"/>
</g>
<!-- Node33 -->
<g id="node33" class="node">
<title>Node33</title>
<g id="a_node33"><a xlink:href="../../d8/dd3/classxii_qt_exposed_parameter_property_widget.htm" target="_top" xlink:title=" ">
<polygon fill="white" stroke="black" points="665.5,-49.5 665.5,-79.5 838.5,-79.5 838.5,-49.5 665.5,-49.5"/>
<text text-anchor="start" x="673.5" y="-67.5" font-family="Helvetica,sans-Serif" font-size="10.00">xiiQtExposedParameterProperty</text>
<text text-anchor="middle" x="752" y="-56.5" font-family="Helvetica,sans-Serif" font-size="10.00">Widget</text>
</a>
</g>
</g>
<!-- Node32&#45;&gt;Node33 -->
<g id="edge32" class="edge">
<title>Node32&#45;&gt;Node33</title>
<path fill="none" stroke="midnightblue" d="M621.86,-49.38C636.16,-51.05 651.01,-52.79 665.33,-54.47"/>
<polygon fill="midnightblue" stroke="midnightblue" points="621.91,-45.86 611.57,-48.17 621.1,-52.81 621.91,-45.86"/>
</g>
<!-- Node34 -->
<g id="node34" class="node">
<title>Node34</title>
<g id="a_node34"><a xlink:href="../../de/d6a/classxii_qt_visual_script_variable_widget.htm" target="_top" xlink:title=" ">
<polygon fill="white" stroke="black" points="683.5,-0.5 683.5,-30.5 820.5,-30.5 820.5,-0.5 683.5,-0.5"/>
<text text-anchor="start" x="691.5" y="-18.5" font-family="Helvetica,sans-Serif" font-size="10.00">xiiQtVisualScriptVariable</text>
<text text-anchor="middle" x="752" y="-7.5" font-family="Helvetica,sans-Serif" font-size="10.00">Widget</text>
</a>
</g>
</g>
<!-- Node32&#45;&gt;Node34 -->
<g id="edge33" class="edge">
<title>Node32&#45;&gt;Node34</title>
<path fill="none" stroke="midnightblue" d="M621.55,-30.05C642.1,-27.74 663.83,-25.3 683.5,-23.09"/>
<polygon fill="midnightblue" stroke="midnightblue" points="621.12,-26.58 611.57,-31.17 621.9,-33.53 621.12,-26.58"/>
</g>
</g>
</svg>
