<?xml version="1.0" encoding="UTF-8" standalone="no"?>
<!DOCTYPE svg PUBLIC "-//W3C//DTD SVG 1.1//EN"
 "http://www.w3.org/Graphics/SVG/1.1/DTD/svg11.dtd">
<!-- Generated by graphviz version 2.43.0 (0)
 -->
<!-- Title: xiiTypedCVar&lt; Type, CVarType &gt; Pages: 1 -->
<svg width="152pt" height="207pt"
 viewBox="0.00 0.00 152.00 207.00" xmlns="http://www.w3.org/2000/svg" xmlns:xlink="http://www.w3.org/1999/xlink">
<g id="graph0" class="graph" transform="scale(1 1) rotate(0) translate(4 203)">
<title>xiiTypedCVar&lt; Type, CVarType &gt;</title>
<polygon fill="white" stroke="transparent" points="-4,4 -4,-203 148,-203 148,4 -4,4"/>
<!-- Node1 -->
<g id="node1" class="node">
<title>Node1</title>
<g id="a_node1"><a xlink:title="[internal] Helper class to implement xiiCVarInt, xiiCVarFlag, xiiCVarBool and xiiCVarString.">
<polygon fill="#bfbfbf" stroke="black" points="14,-0.5 14,-30.5 130,-30.5 130,-0.5 14,-0.5"/>
<text text-anchor="start" x="22" y="-18.5" font-family="Helvetica,sans-Serif" font-size="10.00">xiiTypedCVar&lt; Type,</text>
<text text-anchor="middle" x="72" y="-7.5" font-family="Helvetica,sans-Serif" font-size="10.00"> CVarType &gt;</text>
</a>
</g>
</g>
<!-- Node2 -->
<g id="node2" class="node">
<title>Node2</title>
<g id="a_node2"><a xlink:href="../../d9/d07/classxii_c_var.htm" target="_top" xlink:title="CVars are global variables that are used for configuring the engine.">
<polygon fill="white" stroke="black" points="46.5,-67.5 46.5,-86.5 97.5,-86.5 97.5,-67.5 46.5,-67.5"/>
<text text-anchor="middle" x="72" y="-74.5" font-family="Helvetica,sans-Serif" font-size="10.00">xiiCVar</text>
</a>
</g>
</g>
<!-- Node2&#45;&gt;Node1 -->
<g id="edge1" class="edge">
<title>Node2&#45;&gt;Node1</title>
<path fill="none" stroke="midnightblue" d="M72,-57.23C72,-48.59 72,-38.5 72,-30.52"/>
<polygon fill="midnightblue" stroke="midnightblue" points="68.5,-57.48 72,-67.48 75.5,-57.48 68.5,-57.48"/>
</g>
<!-- Node3 -->
<g id="node3" class="node">
<title>Node3</title>
<g id="a_node3"><a xlink:href="../../dc/d54/classxii_enumerable.htm" target="_top" xlink:title=" ">
<polygon fill="white" stroke="black" points="0,-123.5 0,-142.5 144,-142.5 144,-123.5 0,-123.5"/>
<text text-anchor="middle" x="72" y="-130.5" font-family="Helvetica,sans-Serif" font-size="10.00">xiiEnumerable&lt; xiiCVar &gt;</text>
</a>
</g>
</g>
<!-- Node3&#45;&gt;Node2 -->
<g id="edge2" class="edge">
<title>Node3&#45;&gt;Node2</title>
<path fill="none" stroke="midnightblue" d="M72,-112.8C72,-103.91 72,-93.78 72,-86.75"/>
<polygon fill="midnightblue" stroke="midnightblue" points="68.5,-113.08 72,-123.08 75.5,-113.08 68.5,-113.08"/>
</g>
<!-- Node4 -->
<g id="node4" class="node">
<title>Node4</title>
<g id="a_node4"><a xlink:href="../../d2/d38/classxii_no_base.htm" target="_top" xlink:title="Dummy type to pass to templates and macros that expect a base type for a class that has no base.">
<polygon fill="white" stroke="black" points="39,-179.5 39,-198.5 105,-198.5 105,-179.5 39,-179.5"/>
<text text-anchor="middle" x="72" y="-186.5" font-family="Helvetica,sans-Serif" font-size="10.00">xiiNoBase</text>
</a>
</g>
</g>
<!-- Node4&#45;&gt;Node3 -->
<g id="edge3" class="edge">
<title>Node4&#45;&gt;Node3</title>
<path fill="none" stroke="midnightblue" d="M72,-168.8C72,-159.91 72,-149.78 72,-142.75"/>
<polygon fill="midnightblue" stroke="midnightblue" points="68.5,-169.08 72,-179.08 75.5,-169.08 68.5,-169.08"/>
</g>
</g>
</svg>
