<?xml version="1.0" encoding="UTF-8" standalone="no"?>
<!DOCTYPE svg PUBLIC "-//W3C//DTD SVG 1.1//EN"
 "http://www.w3.org/Graphics/SVG/1.1/DTD/svg11.dtd">
<!-- Generated by graphviz version 2.43.0 (0)
 -->
<!-- Title: xiiDragToPositionGizmo Pages: 1 -->
<svg width="141pt" height="252pt"
 viewBox="0.00 0.00 141.00 252.00" xmlns="http://www.w3.org/2000/svg" xmlns:xlink="http://www.w3.org/1999/xlink">
<g id="graph0" class="graph" transform="scale(1 1) rotate(0) translate(4 248)">
<title>xiiDragToPositionGizmo</title>
<polygon fill="white" stroke="transparent" points="-4,4 -4,-248 137,-248 137,4 -4,4"/>
<!-- Node1 -->
<g id="node1" class="node">
<title>Node1</title>
<g id="a_node1"><a xlink:title=" ">
<polygon fill="#bfbfbf" stroke="black" points="0,-0.5 0,-19.5 133,-19.5 133,-0.5 0,-0.5"/>
<text text-anchor="middle" x="66.5" y="-7.5" font-family="Helvetica,sans-Serif" font-size="10.00">xiiDragToPositionGizmo</text>
</a>
</g>
</g>
<!-- Node2 -->
<g id="node2" class="node">
<title>Node2</title>
<g id="a_node2"><a xlink:href="../../d7/dec/classxii_gizmo.htm" target="_top" xlink:title=" ">
<polygon fill="white" stroke="black" points="36.5,-56.5 36.5,-75.5 96.5,-75.5 96.5,-56.5 36.5,-56.5"/>
<text text-anchor="middle" x="66.5" y="-63.5" font-family="Helvetica,sans-Serif" font-size="10.00">xiiGizmo</text>
</a>
</g>
</g>
<!-- Node2&#45;&gt;Node1 -->
<g id="edge1" class="edge">
<title>Node2&#45;&gt;Node1</title>
<path fill="none" stroke="midnightblue" d="M66.5,-45.8C66.5,-36.91 66.5,-26.78 66.5,-19.75"/>
<polygon fill="midnightblue" stroke="midnightblue" points="63,-46.08 66.5,-56.08 70,-46.08 63,-46.08"/>
</g>
<!-- Node3 -->
<g id="node3" class="node">
<title>Node3</title>
<g id="a_node3"><a xlink:href="../../d0/d47/classxii_editor_input_context.htm" target="_top" xlink:title=" ">
<polygon fill="white" stroke="black" points="6.5,-112.5 6.5,-131.5 126.5,-131.5 126.5,-112.5 6.5,-112.5"/>
<text text-anchor="middle" x="66.5" y="-119.5" font-family="Helvetica,sans-Serif" font-size="10.00">xiiEditorInputContext</text>
</a>
</g>
</g>
<!-- Node3&#45;&gt;Node2 -->
<g id="edge2" class="edge">
<title>Node3&#45;&gt;Node2</title>
<path fill="none" stroke="midnightblue" d="M66.5,-101.8C66.5,-92.91 66.5,-82.78 66.5,-75.75"/>
<polygon fill="midnightblue" stroke="midnightblue" points="63,-102.08 66.5,-112.08 70,-102.08 63,-102.08"/>
</g>
<!-- Node4 -->
<g id="node4" class="node">
<title>Node4</title>
<g id="a_node4"><a xlink:href="../../dc/d71/classxii_reflected_class.htm" target="_top" xlink:title="All classes that should be dynamically reflectable, need to be derived from this base class.">
<polygon fill="white" stroke="black" points="16,-168.5 16,-187.5 117,-187.5 117,-168.5 16,-168.5"/>
<text text-anchor="middle" x="66.5" y="-175.5" font-family="Helvetica,sans-Serif" font-size="10.00">xiiReflectedClass</text>
</a>
</g>
</g>
<!-- Node4&#45;&gt;Node3 -->
<g id="edge3" class="edge">
<title>Node4&#45;&gt;Node3</title>
<path fill="none" stroke="midnightblue" d="M66.5,-157.8C66.5,-148.91 66.5,-138.78 66.5,-131.75"/>
<polygon fill="midnightblue" stroke="midnightblue" points="63,-158.08 66.5,-168.08 70,-158.08 63,-158.08"/>
</g>
<!-- Node5 -->
<g id="node5" class="node">
<title>Node5</title>
<g id="a_node5"><a xlink:href="../../d2/d38/classxii_no_base.htm" target="_top" xlink:title="Dummy type to pass to templates and macros that expect a base type for a class that has no base.">
<polygon fill="white" stroke="black" points="33.5,-224.5 33.5,-243.5 99.5,-243.5 99.5,-224.5 33.5,-224.5"/>
<text text-anchor="middle" x="66.5" y="-231.5" font-family="Helvetica,sans-Serif" font-size="10.00">xiiNoBase</text>
</a>
</g>
</g>
<!-- Node5&#45;&gt;Node4 -->
<g id="edge4" class="edge">
<title>Node5&#45;&gt;Node4</title>
<path fill="none" stroke="midnightblue" d="M66.5,-213.8C66.5,-204.91 66.5,-194.78 66.5,-187.75"/>
<polygon fill="midnightblue" stroke="midnightblue" points="63,-214.08 66.5,-224.08 70,-214.08 63,-214.08"/>
</g>
</g>
</svg>
