<?xml version="1.0" encoding="UTF-8" standalone="no"?>
<!DOCTYPE svg PUBLIC "-//W3C//DTD SVG 1.1//EN"
 "http://www.w3.org/Graphics/SVG/1.1/DTD/svg11.dtd">
<!-- Generated by graphviz version 2.43.0 (0)
 -->
<!-- Title: xiiGameObjectDocument Pages: 1 -->
<svg width="1295pt" height="126pt"
 viewBox="0.00 0.00 1295.00 126.00" xmlns="http://www.w3.org/2000/svg" xmlns:xlink="http://www.w3.org/1999/xlink">
<g id="graph0" class="graph" transform="scale(1 1) rotate(0) translate(4 122)">
<title>xiiGameObjectDocument</title>
<polygon fill="white" stroke="transparent" points="-4,4 -4,-122 1291,-122 1291,4 -4,4"/>
<!-- Node1 -->
<g id="node1" class="node">
<title>Node1</title>
<g id="a_node1"><a xlink:title=" ">
<polygon fill="#bfbfbf" stroke="black" points="496,-57.5 496,-76.5 636,-76.5 636,-57.5 496,-57.5"/>
<text text-anchor="middle" x="566" y="-64.5" font-family="Helvetica,sans-Serif" font-size="10.00">xiiGameObjectDocument</text>
</a>
</g>
</g>
<!-- Node6 -->
<g id="node6" class="node">
<title>Node6</title>
<g id="a_node6"><a xlink:href="../../d5/dcd/classxii_game_object_context_document.htm" target="_top" xlink:title=" ">
<polygon fill="white" stroke="black" points="672,-81.5 672,-100.5 850,-100.5 850,-81.5 672,-81.5"/>
<text text-anchor="middle" x="761" y="-88.5" font-family="Helvetica,sans-Serif" font-size="10.00">xiiGameObjectContextDocument</text>
</a>
</g>
</g>
<!-- Node1&#45;&gt;Node6 -->
<g id="edge5" class="edge">
<title>Node1&#45;&gt;Node6</title>
<path fill="none" stroke="midnightblue" d="M646.34,-76.87C658.62,-78.39 671.28,-79.97 683.49,-81.49"/>
<polygon fill="midnightblue" stroke="midnightblue" points="646.49,-73.36 636.13,-75.6 645.62,-80.3 646.49,-73.36"/>
</g>
<!-- Node9 -->
<g id="node9" class="node">
<title>Node9</title>
<g id="a_node9"><a xlink:href="../../da/d0a/classxii_scene_document.htm" target="_top" xlink:title=" ">
<polygon fill="white" stroke="black" points="707,-38.5 707,-57.5 815,-57.5 815,-38.5 707,-38.5"/>
<text text-anchor="middle" x="761" y="-45.5" font-family="Helvetica,sans-Serif" font-size="10.00">xiiSceneDocument</text>
</a>
</g>
</g>
<!-- Node1&#45;&gt;Node9 -->
<g id="edge8" class="edge">
<title>Node1&#45;&gt;Node9</title>
<path fill="none" stroke="midnightblue" d="M646.34,-59.19C666.7,-57.19 688.11,-55.08 706.79,-53.24"/>
<polygon fill="midnightblue" stroke="midnightblue" points="645.74,-55.73 636.13,-60.19 646.43,-62.7 645.74,-55.73"/>
</g>
<!-- Node2 -->
<g id="node2" class="node">
<title>Node2</title>
<g id="a_node2"><a xlink:href="../../d7/dd5/classxii_asset_document.htm" target="_top" xlink:title=" ">
<polygon fill="white" stroke="black" points="354,-57.5 354,-76.5 460,-76.5 460,-57.5 354,-57.5"/>
<text text-anchor="middle" x="407" y="-64.5" font-family="Helvetica,sans-Serif" font-size="10.00">xiiAssetDocument</text>
</a>
</g>
</g>
<!-- Node2&#45;&gt;Node1 -->
<g id="edge1" class="edge">
<title>Node2&#45;&gt;Node1</title>
<path fill="none" stroke="midnightblue" d="M470.36,-67C478.76,-67 487.41,-67 495.91,-67"/>
<polygon fill="midnightblue" stroke="midnightblue" points="470.28,-63.5 460.28,-67 470.28,-70.5 470.28,-63.5"/>
</g>
<!-- Node3 -->
<g id="node3" class="node">
<title>Node3</title>
<g id="a_node3"><a xlink:href="../../d8/da9/classxii_document.htm" target="_top" xlink:title=" ">
<polygon fill="white" stroke="black" points="239,-57.5 239,-76.5 318,-76.5 318,-57.5 239,-57.5"/>
<text text-anchor="middle" x="278.5" y="-64.5" font-family="Helvetica,sans-Serif" font-size="10.00">xiiDocument</text>
</a>
</g>
</g>
<!-- Node3&#45;&gt;Node2 -->
<g id="edge2" class="edge">
<title>Node3&#45;&gt;Node2</title>
<path fill="none" stroke="midnightblue" d="M328.38,-67C336.65,-67 345.26,-67 353.62,-67"/>
<polygon fill="midnightblue" stroke="midnightblue" points="328.14,-63.5 318.14,-67 328.14,-70.5 328.14,-63.5"/>
</g>
<!-- Node4 -->
<g id="node4" class="node">
<title>Node4</title>
<g id="a_node4"><a xlink:href="../../dc/d71/classxii_reflected_class.htm" target="_top" xlink:title="All classes that should be dynamically reflectable, need to be derived from this base class.">
<polygon fill="white" stroke="black" points="102,-57.5 102,-76.5 203,-76.5 203,-57.5 102,-57.5"/>
<text text-anchor="middle" x="152.5" y="-64.5" font-family="Helvetica,sans-Serif" font-size="10.00">xiiReflectedClass</text>
</a>
</g>
</g>
<!-- Node4&#45;&gt;Node3 -->
<g id="edge3" class="edge">
<title>Node4&#45;&gt;Node3</title>
<path fill="none" stroke="midnightblue" d="M213.33,-67C222.01,-67 230.73,-67 238.84,-67"/>
<polygon fill="midnightblue" stroke="midnightblue" points="213.22,-63.5 203.22,-67 213.22,-70.5 213.22,-63.5"/>
</g>
<!-- Node5 -->
<g id="node5" class="node">
<title>Node5</title>
<g id="a_node5"><a xlink:href="../../d2/d38/classxii_no_base.htm" target="_top" xlink:title="Dummy type to pass to templates and macros that expect a base type for a class that has no base.">
<polygon fill="white" stroke="black" points="0,-57.5 0,-76.5 66,-76.5 66,-57.5 0,-57.5"/>
<text text-anchor="middle" x="33" y="-64.5" font-family="Helvetica,sans-Serif" font-size="10.00">xiiNoBase</text>
</a>
</g>
</g>
<!-- Node5&#45;&gt;Node4 -->
<g id="edge4" class="edge">
<title>Node5&#45;&gt;Node4</title>
<path fill="none" stroke="midnightblue" d="M76.27,-67C84.54,-67 93.29,-67 101.78,-67"/>
<polygon fill="midnightblue" stroke="midnightblue" points="76.11,-63.5 66.11,-67 76.11,-70.5 76.11,-63.5"/>
</g>
<!-- Node7 -->
<g id="node7" class="node">
<title>Node7</title>
<g id="a_node7"><a xlink:href="../../d4/d60/classxii_simple_asset_document.htm" target="_top" xlink:title=" ">
<polygon fill="white" stroke="black" points="886,-76.5 886,-117.5 1078,-117.5 1078,-76.5 886,-76.5"/>
<text text-anchor="start" x="894" y="-105.5" font-family="Helvetica,sans-Serif" font-size="10.00">xiiSimpleAssetDocument</text>
<text text-anchor="start" x="894" y="-94.5" font-family="Helvetica,sans-Serif" font-size="10.00">&lt; xiiPropertyAnimationTrackGroup,</text>
<text text-anchor="middle" x="982" y="-83.5" font-family="Helvetica,sans-Serif" font-size="10.00"> xiiGameObjectContextDocument &gt;</text>
</a>
</g>
</g>
<!-- Node6&#45;&gt;Node7 -->
<g id="edge6" class="edge">
<title>Node6&#45;&gt;Node7</title>
<path fill="none" stroke="midnightblue" d="M860.13,-93.69C868.69,-93.92 877.35,-94.16 885.88,-94.39"/>
<polygon fill="midnightblue" stroke="midnightblue" points="860.22,-90.19 850.13,-93.41 860.03,-97.19 860.22,-90.19"/>
</g>
<!-- Node8 -->
<g id="node8" class="node">
<title>Node8</title>
<g id="a_node8"><a xlink:href="../../d8/db8/classxii_property_anim_asset_document.htm" target="_top" xlink:title=" ">
<polygon fill="white" stroke="black" points="1114,-87.5 1114,-106.5 1287,-106.5 1287,-87.5 1114,-87.5"/>
<text text-anchor="middle" x="1200.5" y="-94.5" font-family="Helvetica,sans-Serif" font-size="10.00">xiiPropertyAnimAssetDocument</text>
</a>
</g>
</g>
<!-- Node7&#45;&gt;Node8 -->
<g id="edge7" class="edge">
<title>Node7&#45;&gt;Node8</title>
<path fill="none" stroke="midnightblue" d="M1088.55,-97C1096.98,-97 1105.45,-97 1113.72,-97"/>
<polygon fill="midnightblue" stroke="midnightblue" points="1088.28,-93.5 1078.28,-97 1088.28,-100.5 1088.28,-93.5"/>
</g>
<!-- Node10 -->
<g id="node10" class="node">
<title>Node10</title>
<g id="a_node10"><a xlink:href="../../d3/daf/classxii_layer_document.htm" target="_top" xlink:title=" ">
<polygon fill="white" stroke="black" points="929,-38.5 929,-57.5 1035,-57.5 1035,-38.5 929,-38.5"/>
<text text-anchor="middle" x="982" y="-45.5" font-family="Helvetica,sans-Serif" font-size="10.00">xiiLayerDocument</text>
</a>
</g>
</g>
<!-- Node9&#45;&gt;Node10 -->
<g id="edge9" class="edge">
<title>Node9&#45;&gt;Node10</title>
<path fill="none" stroke="midnightblue" d="M825.41,-48C858.24,-48 897.83,-48 928.85,-48"/>
<polygon fill="midnightblue" stroke="midnightblue" points="825.01,-44.5 815.01,-48 825.01,-51.5 825.01,-44.5"/>
</g>
<!-- Node11 -->
<g id="node11" class="node">
<title>Node11</title>
<g id="a_node11"><a xlink:href="../../df/dac/classxii_scene2_document.htm" target="_top" xlink:title=" ">
<polygon fill="white" stroke="black" points="925,-0.5 925,-19.5 1039,-19.5 1039,-0.5 925,-0.5"/>
<text text-anchor="middle" x="982" y="-7.5" font-family="Helvetica,sans-Serif" font-size="10.00">xiiScene2Document</text>
</a>
</g>
</g>
<!-- Node9&#45;&gt;Node11 -->
<g id="edge10" class="edge">
<title>Node9&#45;&gt;Node11</title>
<path fill="none" stroke="midnightblue" d="M825.14,-37.04C857.09,-31.5 895.49,-24.84 926.19,-19.51"/>
<polygon fill="midnightblue" stroke="midnightblue" points="824.27,-33.64 815.01,-38.8 825.46,-40.54 824.27,-33.64"/>
</g>
</g>
</svg>
