<?xml version="1.0" encoding="UTF-8" standalone="no"?>
<!DOCTYPE svg PUBLIC "-//W3C//DTD SVG 1.1//EN"
 "http://www.w3.org/Graphics/SVG/1.1/DTD/svg11.dtd">
<!-- Generated by graphviz version 2.43.0 (0)
 -->
<!-- Title: xiiResource Pages: 1 -->
<!--zoomable 1063 -->

<svg id="main" version="1.1" xmlns="http://www.w3.org/2000/svg" xmlns:xlink="http://www.w3.org/1999/xlink" xml:space="preserve" onload="init(evt)">
<style type="text/css"><![CDATA[
.node, .edge {opacity: 0.7;}
.node.selected, .edge.selected {opacity: 1;}
.edge:hover path { stroke: red; }
.edge:hover polygon { stroke: red; fill: red; }
]]></style>

<defs>
  <circle id="rim" cx="0" cy="0" r="7"/>
  <circle id="rim2" cx="0" cy="0" r="3.5"/>
  <g id="zoomPlus">
    <use xlink:href="#rim" fill="#404040"><set attributeName="fill" to="#808080" begin="zoomplus.mouseover" end="zoomplus.mouseout"/></use>
    <path d="M-4,0h8M0,-4v8" fill="none" stroke="white" stroke-width="1.5" pointer-events="none"/>
  </g>
  <g id="zoomMin">
    <use xlink:href="#rim" fill="#404040"><set attributeName="fill" to="#808080" begin="zoomminus.mouseover" end="zoomminus.mouseout"/></use>
    <path d="M-4,0h8" fill="none" stroke="white" stroke-width="1.5" pointer-events="none"/>
  </g>
  <g id="arrowUp" transform="translate(30 24)">
    <use xlink:href="#rim"/>
    <path pointer-events="none" fill="none" stroke="white" stroke-width="1.5" d="M0,-3.0v7 M-2.5,-0.5L0,-3.0L2.5,-0.5"/>
  </g>
  <g id="arrowRight" transform="rotate(90) translate(36 -43)">
    <use xlink:href="#rim"/>
    <path pointer-events="none" fill="none" stroke="white" stroke-width="1.5" d="M0,-3.0v7 M-2.5,-0.5L0,-3.0L2.5,-0.5"/>
  </g>
  <g id="arrowDown" transform="rotate(180) translate(-30 -48)">
    <use xlink:href="#rim"/>
    <path pointer-events="none" fill="none" stroke="white" stroke-width="1.5" d="M0,-3.0v7 M-2.5,-0.5L0,-3.0L2.5,-0.5"/>
  </g>
  <g id="arrowLeft" transform="rotate(270) translate(-36 17)">
    <use xlink:href="#rim"/>
    <path pointer-events="none" fill="none" stroke="white" stroke-width="1.5" d="M0,-3.0v7 M-2.5,-0.5L0,-3.0L2.5,-0.5"/>
  </g>
  <g id="resetDef">
    <use xlink:href="#rim2" fill="#404040"><set attributeName="fill" to="#808080" begin="reset.mouseover" end="reset.mouseout"/></use>
  </g>
</defs>
<script type="application/ecmascript">
var viewWidth = 734;
var viewHeight = 1063;
var sectionId = 'dynsection-0';
</script>
<script type="application/ecmascript" xlink:href="../../svg.min.js"/>
<svg id="graph" class="graph">
<g id="viewport">
<title>xiiResource</title>
<!-- Node1 -->
<g id="Node000001" class="node">
<title>Node1</title>
<g id="a_Node000001"><a xlink:title="The base class for all resources.">
<polygon fill="#999999" stroke="#666666" points="313,-537 239,-537 239,-518 313,-518 313,-537"/>
<text text-anchor="middle" x="276" y="-525" font-family="Helvetica,sans-Serif" font-size="10.00">xiiResource</text>
</a>
</g>
</g>
<!-- Node4 -->
<g id="Node000004" class="node">
<title>Node4</title>
<g id="a_Node000004"><a xlink:href="../../d3/dcc/classxii_anim_graph_resource.html" target="_top" xlink:title=" ">
<polygon fill="white" stroke="#bfbfbf" points="499.5,-1055 371.5,-1055 371.5,-1036 499.5,-1036 499.5,-1055"/>
<text text-anchor="middle" x="435.5" y="-1043" font-family="Helvetica,sans-Serif" font-size="10.00">xiiAnimGraphResource</text>
</a>
</g>
</g>
<!-- Node1&#45;&gt;Node4 -->
<g id="edge3_Node000001_Node000004" class="edge">
<title>Node1&#45;&gt;Node4</title>
<g id="a_edge3_Node000001_Node000004"><a xlink:title=" ">
<path fill="none" stroke="#63b8ff" d="M276.95,-547.25C277.14,-631.07 282.26,-956.31 349,-1027.5 355.12,-1034.03 362.96,-1038.5 371.41,-1041.53"/>
<polygon fill="#63b8ff" stroke="#63b8ff" points="280.45,-547.08 276.95,-537.08 273.45,-547.08 280.45,-547.08"/>
</a>
</g>
</g>
<!-- Node5 -->
<g id="Node000005" class="node">
<title>Node5</title>
<g id="a_Node000005"><a xlink:href="../../d9/dca/classxii_animation_clip_resource.html" target="_top" xlink:title=" ">
<polygon fill="white" stroke="#bfbfbf" points="507,-1018 364,-1018 364,-999 507,-999 507,-1018"/>
<text text-anchor="middle" x="435.5" y="-1006" font-family="Helvetica,sans-Serif" font-size="10.00">xiiAnimationClipResource</text>
</a>
</g>
</g>
<!-- Node1&#45;&gt;Node5 -->
<g id="edge4_Node000001_Node000005" class="edge">
<title>Node1&#45;&gt;Node5</title>
<g id="a_edge4_Node000001_Node000005"><a xlink:title=" ">
<path fill="none" stroke="#63b8ff" d="M277.2,-547.3C278.42,-627.27 287.12,-925.23 349,-990.5 353.28,-995.01 358.38,-998.54 363.93,-1001.29"/>
<polygon fill="#63b8ff" stroke="#63b8ff" points="280.7,-547.09 277.07,-537.14 273.7,-547.18 280.7,-547.09"/>
</a>
</g>
</g>
<!-- Node6 -->
<g id="Node000006" class="node">
<title>Node6</title>
<g id="a_Node000006"><a xlink:href="../../da/dc4/classxii_blackboard_template_resource.html" target="_top" xlink:title="Describes the initial state of a blackboard.">
<polygon fill="white" stroke="#666666" points="522,-981 349,-981 349,-962 522,-962 522,-981"/>
<text text-anchor="middle" x="435.5" y="-969" font-family="Helvetica,sans-Serif" font-size="10.00">xiiBlackboardTemplateResource</text>
</a>
</g>
</g>
<!-- Node1&#45;&gt;Node6 -->
<g id="edge5_Node000001_Node000006" class="edge">
<title>Node1&#45;&gt;Node6</title>
<g id="a_edge5_Node000001_Node000006"><a xlink:title=" ">
<path fill="none" stroke="#63b8ff" d="M277.49,-547.16C279.78,-622.84 291.91,-894.08 349,-953.5 352.15,-956.78 355.74,-959.54 359.62,-961.86"/>
<polygon fill="#63b8ff" stroke="#63b8ff" points="280.99,-547.01 277.21,-537.11 273.99,-547.2 280.99,-547.01"/>
</a>
</g>
</g>
<!-- Node7 -->
<g id="Node000007" class="node">
<title>Node7</title>
<g id="a_Node000007"><a xlink:href="../../d8/d56/classxii_collection_resource.html" target="_top" xlink:title="An xiiCollectionResource is used to tell the engine about resources that it should preload in the bac...">
<polygon fill="white" stroke="#666666" points="496.5,-944 374.5,-944 374.5,-925 496.5,-925 496.5,-944"/>
<text text-anchor="middle" x="435.5" y="-932" font-family="Helvetica,sans-Serif" font-size="10.00">xiiCollectionResource</text>
</a>
</g>
</g>
<!-- Node1&#45;&gt;Node7 -->
<g id="edge6_Node000001_Node000007" class="edge">
<title>Node1&#45;&gt;Node7</title>
<g id="a_edge6_Node000001_Node000007"><a xlink:title=" ">
<path fill="none" stroke="#63b8ff" d="M277.86,-547.72C281.35,-619.86 296.86,-863.07 349,-916.5 355.89,-923.56 364.79,-928.19 374.24,-931.18"/>
<polygon fill="#63b8ff" stroke="#63b8ff" points="281.34,-547.16 277.39,-537.33 274.35,-547.48 281.34,-547.16"/>
</a>
</g>
</g>
<!-- Node8 -->
<g id="Node000008" class="node">
<title>Node8</title>
<g id="a_Node000008"><a xlink:href="../../d3/dc0/classxii_color_gradient_resource.html" target="_top" xlink:title="A resource that stores a single color gradient. The data is stored in the descriptor.">
<polygon fill="white" stroke="#666666" points="506,-907 365,-907 365,-888 506,-888 506,-907"/>
<text text-anchor="middle" x="435.5" y="-895" font-family="Helvetica,sans-Serif" font-size="10.00">xiiColorGradientResource</text>
</a>
</g>
</g>
<!-- Node1&#45;&gt;Node8 -->
<g id="edge7_Node000001_Node000008" class="edge">
<title>Node1&#45;&gt;Node8</title>
<g id="a_edge7_Node000001_Node000008"><a xlink:title=" ">
<path fill="none" stroke="#63b8ff" d="M278.24,-547.09C282.9,-613.97 301.5,-831.73 349,-879.5 353.6,-884.13 359.07,-887.7 364.98,-890.46"/>
<polygon fill="#63b8ff" stroke="#63b8ff" points="281.73,-546.81 277.57,-537.06 274.75,-547.27 281.73,-546.81"/>
</a>
</g>
</g>
<!-- Node9 -->
<g id="Node000009" class="node">
<title>Node9</title>
<g id="a_Node000009"><a xlink:href="../../d0/d17/classxii_config_file_resource.html" target="_top" xlink:title="This resource loads config files containing key/value pairs.">
<polygon fill="white" stroke="#666666" points="496.5,-870 374.5,-870 374.5,-851 496.5,-851 496.5,-870"/>
<text text-anchor="middle" x="435.5" y="-858" font-family="Helvetica,sans-Serif" font-size="10.00">xiiConfigFileResource</text>
</a>
</g>
</g>
<!-- Node1&#45;&gt;Node9 -->
<g id="edge8_Node000001_Node000009" class="edge">
<title>Node1&#45;&gt;Node9</title>
<g id="a_edge8_Node000001_Node000009"><a xlink:title=" ">
<path fill="none" stroke="#63b8ff" d="M278.79,-547.43C284.8,-609.96 306.35,-800.57 349,-842.5 356.03,-849.41 365,-853.97 374.48,-856.93"/>
<polygon fill="#63b8ff" stroke="#63b8ff" points="282.26,-546.94 277.84,-537.31 275.29,-547.59 282.26,-546.94"/>
</a>
</g>
</g>
<!-- Node10 -->
<g id="Node000010" class="node">
<title>Node10</title>
<g id="a_Node000010"><a xlink:href="../../d3/da1/classxii_cpu_mesh_resource.html" target="_top" xlink:title=" ">
<polygon fill="white" stroke="#bfbfbf" points="495,-833 376,-833 376,-814 495,-814 495,-833"/>
<text text-anchor="middle" x="435.5" y="-821" font-family="Helvetica,sans-Serif" font-size="10.00">xiiCpuMeshResource</text>
</a>
</g>
</g>
<!-- Node1&#45;&gt;Node10 -->
<g id="edge9_Node000001_Node000010" class="edge">
<title>Node1&#45;&gt;Node10</title>
<g id="a_edge9_Node000001_Node000010"><a xlink:title=" ">
<path fill="none" stroke="#63b8ff" d="M279.42,-547.29C286.83,-604.66 311.05,-769.26 349,-805.5 356.46,-812.62 365.99,-817.23 375.96,-820.16"/>
<polygon fill="#63b8ff" stroke="#63b8ff" points="282.85,-546.52 278.13,-537.04 275.9,-547.4 282.85,-546.52"/>
</a>
</g>
</g>
<!-- Node11 -->
<g id="Node000011" class="node">
<title>Node11</title>
<g id="a_Node000011"><a xlink:href="../../da/de2/classxii_curve1_d_resource.html" target="_top" xlink:title="A resource that stores 1D curves. The curves are stored in the descriptor.">
<polygon fill="white" stroke="#666666" points="493.5,-796 377.5,-796 377.5,-777 493.5,-777 493.5,-796"/>
<text text-anchor="middle" x="435.5" y="-784" font-family="Helvetica,sans-Serif" font-size="10.00">xiiCurve1DResource</text>
</a>
</g>
</g>
<!-- Node1&#45;&gt;Node11 -->
<g id="edge10_Node000001_Node000011" class="edge">
<title>Node1&#45;&gt;Node11</title>
<g id="a_edge10_Node000001_Node000011"><a xlink:title=" ">
<path fill="none" stroke="#63b8ff" d="M276.6,-547.25C276.8,-593.37 284.13,-708.8 349,-768.5 356.92,-775.79 367.03,-780.43 377.5,-783.31"/>
<polygon fill="#63b8ff" stroke="#63b8ff" points="280.1,-547.11 276.67,-537.09 273.1,-547.06 280.1,-547.11"/>
</a>
</g>
</g>
<!-- Node12 -->
<g id="Node000012" class="node">
<title>Node12</title>
<g id="a_Node000012"><a xlink:href="../../dc/dd8/classxii_custom_data_resource_base.html" target="_top" xlink:title="Base class for resources that represent different implementations of xiiCustomData.">
<polygon fill="white" stroke="#666666" points="514.5,-759 356.5,-759 356.5,-740 514.5,-740 514.5,-759"/>
<text text-anchor="middle" x="435.5" y="-747" font-family="Helvetica,sans-Serif" font-size="10.00">xiiCustomDataResourceBase</text>
</a>
</g>
</g>
<!-- Node1&#45;&gt;Node12 -->
<g id="edge11_Node000001_Node000012" class="edge">
<title>Node1&#45;&gt;Node12</title>
<g id="a_edge11_Node000001_Node000012"><a xlink:title=" ">
<path fill="none" stroke="#63b8ff" d="M277.86,-547.54C280.77,-588.68 293.48,-682.86 349,-731.5 352.77,-734.8 356.98,-737.55 361.47,-739.83"/>
<polygon fill="#63b8ff" stroke="#63b8ff" points="281.35,-547.21 277.28,-537.43 274.36,-547.61 281.35,-547.21"/>
</a>
</g>
</g>
<!-- Node14 -->
<g id="Node000014" class="node">
<title>Node14</title>
<g id="a_Node000014"><a xlink:href="../../db/da6/classxii_decal_atlas_resource.html" target="_top" xlink:title=" ">
<polygon fill="white" stroke="#bfbfbf" points="498.5,-722 372.5,-722 372.5,-703 498.5,-703 498.5,-722"/>
<text text-anchor="middle" x="435.5" y="-710" font-family="Helvetica,sans-Serif" font-size="10.00">xiiDecalAtlasResource</text>
</a>
</g>
</g>
<!-- Node1&#45;&gt;Node14 -->
<g id="edge13_Node000001_Node000014" class="edge">
<title>Node1&#45;&gt;Node14</title>
<g id="a_edge13_Node000001_Node000014"><a xlink:title=" ">
<path fill="none" stroke="#63b8ff" d="M279.59,-547.28C285.33,-582.62 302.47,-656.44 349,-694.5 355.81,-700.07 363.92,-704.04 372.4,-706.85"/>
<polygon fill="#63b8ff" stroke="#63b8ff" points="283.04,-546.64 278.11,-537.26 276.11,-547.66 283.04,-546.64"/>
</a>
</g>
</g>
<!-- Node15 -->
<g id="Node000015" class="node">
<title>Node15</title>
<g id="a_Node000015"><a xlink:href="../../d9/d00/classxii_decal_resource.html" target="_top" xlink:title=" ">
<polygon fill="white" stroke="#bfbfbf" points="486,-685 385,-685 385,-666 486,-666 486,-685"/>
<text text-anchor="middle" x="435.5" y="-673" font-family="Helvetica,sans-Serif" font-size="10.00">xiiDecalResource</text>
</a>
</g>
</g>
<!-- Node1&#45;&gt;Node15 -->
<g id="edge14_Node000001_Node000015" class="edge">
<title>Node1&#45;&gt;Node15</title>
<g id="a_edge14_Node000001_Node000015"><a xlink:title=" ">
<path fill="none" stroke="#63b8ff" d="M282.13,-546.92C290.82,-575.8 311.28,-629.63 349,-657.5 359.37,-665.16 372.28,-669.72 384.9,-672.39"/>
<polygon fill="#63b8ff" stroke="#63b8ff" points="285.47,-545.84 279.37,-537.18 278.73,-547.76 285.47,-545.84"/>
</a>
</g>
</g>
<!-- Node16 -->
<g id="Node000016" class="node">
<title>Node16</title>
<g id="a_Node000016"><a xlink:href="../../dd/d17/classxii_dynamic_mesh_buffer_resource.html" target="_top" xlink:title=" ">
<polygon fill="white" stroke="#bfbfbf" points="522,-648 349,-648 349,-629 522,-629 522,-648"/>
<text text-anchor="middle" x="435.5" y="-636" font-family="Helvetica,sans-Serif" font-size="10.00">xiiDynamicMeshBufferResource</text>
</a>
</g>
</g>
<!-- Node1&#45;&gt;Node16 -->
<g id="edge15_Node000001_Node000016" class="edge">
<title>Node1&#45;&gt;Node16</title>
<g id="a_edge15_Node000001_Node000016"><a xlink:title=" ">
<path fill="none" stroke="#63b8ff" d="M286.3,-546.33C297.92,-567.79 319.87,-602.25 349,-620.5 354.4,-623.88 360.33,-626.64 366.47,-628.89"/>
<polygon fill="#63b8ff" stroke="#63b8ff" points="289.29,-544.48 281.57,-537.22 283.07,-547.71 289.29,-544.48"/>
</a>
</g>
</g>
<!-- Node17 -->
<g id="Node000017" class="node">
<title>Node17</title>
<g id="a_Node000017"><a xlink:href="../../de/d75/classxii_image_data_resource.html" target="_top" xlink:title=" ">
<polygon fill="white" stroke="#bfbfbf" points="499.5,-611 371.5,-611 371.5,-592 499.5,-592 499.5,-611"/>
<text text-anchor="middle" x="435.5" y="-599" font-family="Helvetica,sans-Serif" font-size="10.00">xiiImageDataResource</text>
</a>
</g>
</g>
<!-- Node1&#45;&gt;Node17 -->
<g id="edge16_Node000001_Node000017" class="edge">
<title>Node1&#45;&gt;Node17</title>
<g id="a_edge16_Node000001_Node000017"><a xlink:title=" ">
<path fill="none" stroke="#63b8ff" d="M294.47,-544.36C308.22,-556.72 328.45,-572.94 349,-582.5 357.27,-586.35 366.36,-589.44 375.43,-591.91"/>
<polygon fill="#63b8ff" stroke="#63b8ff" points="296.51,-541.48 286.79,-537.26 291.76,-546.62 296.51,-541.48"/>
</a>
</g>
</g>
<!-- Node18 -->
<g id="Node000018" class="node">
<title>Node18</title>
<g id="a_Node000018"><a xlink:href="../../d5/df2/classxii_material_resource.html" target="_top" xlink:title=" ">
<polygon fill="white" stroke="#bfbfbf" points="492.5,-574 378.5,-574 378.5,-555 492.5,-555 492.5,-574"/>
<text text-anchor="middle" x="435.5" y="-562" font-family="Helvetica,sans-Serif" font-size="10.00">xiiMaterialResource</text>
</a>
</g>
</g>
<!-- Node1&#45;&gt;Node18 -->
<g id="edge17_Node000001_Node000018" class="edge">
<title>Node1&#45;&gt;Node18</title>
<g id="a_edge17_Node000001_Node000018"><a xlink:title=" ">
<path fill="none" stroke="#63b8ff" d="M323.11,-539.22C331.7,-541.35 340.62,-543.52 349,-545.5 362.47,-548.68 377.16,-552 390.51,-554.96"/>
<polygon fill="#63b8ff" stroke="#63b8ff" points="323.76,-535.77 313.21,-536.75 322.07,-542.57 323.76,-535.77"/>
</a>
</g>
</g>
<!-- Node19 -->
<g id="Node000019" class="node">
<title>Node19</title>
<g id="a_Node000019"><a xlink:href="../../da/d98/classxii_mesh_buffer_resource.html" target="_top" xlink:title=" ">
<polygon fill="white" stroke="#bfbfbf" points="500,-537 371,-537 371,-518 500,-518 500,-537"/>
<text text-anchor="middle" x="435.5" y="-525" font-family="Helvetica,sans-Serif" font-size="10.00">xiiMeshBufferResource</text>
</a>
</g>
</g>
<!-- Node1&#45;&gt;Node19 -->
<g id="edge18_Node000001_Node000019" class="edge">
<title>Node1&#45;&gt;Node19</title>
<g id="a_edge18_Node000001_Node000019"><a xlink:title=" ">
<path fill="none" stroke="#63b8ff" d="M323.54,-527.5C338.32,-527.5 354.94,-527.5 370.72,-527.5"/>
<polygon fill="#63b8ff" stroke="#63b8ff" points="323.13,-524 313.13,-527.5 323.13,-531 323.13,-524"/>
</a>
</g>
</g>
<!-- Node20 -->
<g id="Node000020" class="node">
<title>Node20</title>
<g id="a_Node000020"><a xlink:href="../../d0/d6b/classxii_mesh_resource.html" target="_top" xlink:title=" ">
<polygon fill="white" stroke="#bfbfbf" points="485.5,-500 385.5,-500 385.5,-481 485.5,-481 485.5,-500"/>
<text text-anchor="middle" x="435.5" y="-488" font-family="Helvetica,sans-Serif" font-size="10.00">xiiMeshResource</text>
</a>
</g>
</g>
<!-- Node1&#45;&gt;Node20 -->
<g id="edge19_Node000001_Node000020" class="edge">
<title>Node1&#45;&gt;Node20</title>
<g id="a_edge19_Node000001_Node000020"><a xlink:title=" ">
<path fill="none" stroke="#63b8ff" d="M321.37,-515.41C330.49,-513.04 340.04,-510.62 349,-508.5 361.25,-505.6 374.55,-502.68 386.92,-500.07"/>
<polygon fill="#63b8ff" stroke="#63b8ff" points="320.48,-512.03 311.7,-517.96 322.26,-518.8 320.48,-512.03"/>
</a>
</g>
</g>
<!-- Node21 -->
<g id="Node000021" class="node">
<title>Node21</title>
<g id="a_Node000021"><a xlink:href="../../d8/d95/classxii_prefab_resource.html" target="_top" xlink:title=" ">
<polygon fill="white" stroke="#bfbfbf" points="488,-463 383,-463 383,-444 488,-444 488,-463"/>
<text text-anchor="middle" x="435.5" y="-451" font-family="Helvetica,sans-Serif" font-size="10.00">xiiPrefabResource</text>
</a>
</g>
</g>
<!-- Node1&#45;&gt;Node21 -->
<g id="edge20_Node000001_Node000021" class="edge">
<title>Node1&#45;&gt;Node21</title>
<g id="a_edge20_Node000001_Node000021"><a xlink:title=" ">
<path fill="none" stroke="#63b8ff" d="M293.91,-510.69C307.63,-498.02 328.06,-481.21 349,-471.5 359.46,-466.65 371.24,-463.09 382.64,-460.49"/>
<polygon fill="#63b8ff" stroke="#63b8ff" points="291.12,-508.52 286.29,-517.95 295.95,-513.58 291.12,-508.52"/>
</a>
</g>
</g>
<!-- Node22 -->
<g id="Node000022" class="node">
<title>Node22</title>
<g id="a_Node000022"><a xlink:href="../../d8/d47/classxii_probe_tree_sector_resource.html" target="_top" xlink:title=" ">
<polygon fill="white" stroke="#bfbfbf" points="511.5,-426 359.5,-426 359.5,-407 511.5,-407 511.5,-426"/>
<text text-anchor="middle" x="435.5" y="-414" font-family="Helvetica,sans-Serif" font-size="10.00">xiiProbeTreeSectorResource</text>
</a>
</g>
</g>
<!-- Node1&#45;&gt;Node22 -->
<g id="edge21_Node000001_Node000022" class="edge">
<title>Node1&#45;&gt;Node22</title>
<g id="a_edge21_Node000001_Node000022"><a xlink:title=" ">
<path fill="none" stroke="#63b8ff" d="M286.3,-508.67C297.92,-487.21 319.87,-452.75 349,-434.5 354.4,-431.12 360.33,-428.36 366.47,-426.11"/>
<polygon fill="#63b8ff" stroke="#63b8ff" points="283.07,-507.29 281.57,-517.78 289.29,-510.52 283.07,-507.29"/>
</a>
</g>
</g>
<!-- Node23 -->
<g id="Node000023" class="node">
<title>Node23</title>
<g id="a_Node000023"><a xlink:href="../../d8/d88/classxii_property_anim_resource.html" target="_top" xlink:title=" ">
<polygon fill="white" stroke="#bfbfbf" points="505.5,-389 365.5,-389 365.5,-370 505.5,-370 505.5,-389"/>
<text text-anchor="middle" x="435.5" y="-377" font-family="Helvetica,sans-Serif" font-size="10.00">xiiPropertyAnimResource</text>
</a>
</g>
</g>
<!-- Node1&#45;&gt;Node23 -->
<g id="edge22_Node000001_Node000023" class="edge">
<title>Node1&#45;&gt;Node23</title>
<g id="a_edge22_Node000001_Node000023"><a xlink:title=" ">
<path fill="none" stroke="#63b8ff" d="M282.13,-508.08C290.82,-479.2 311.28,-425.37 349,-397.5 354,-393.8 359.6,-390.83 365.46,-388.44"/>
<polygon fill="#63b8ff" stroke="#63b8ff" points="278.73,-507.24 279.37,-517.82 285.47,-509.16 278.73,-507.24"/>
</a>
</g>
</g>
<!-- Node24 -->
<g id="Node000024" class="node">
<title>Node24</title>
<g id="a_Node000024"><a xlink:href="../../d9/d26/classxii_render_pipeline_resource.html" target="_top" xlink:title=" ">
<polygon fill="white" stroke="#bfbfbf" points="509,-352 362,-352 362,-333 509,-333 509,-352"/>
<text text-anchor="middle" x="435.5" y="-340" font-family="Helvetica,sans-Serif" font-size="10.00">xiiRenderPipelineResource</text>
</a>
</g>
</g>
<!-- Node1&#45;&gt;Node24 -->
<g id="edge23_Node000001_Node000024" class="edge">
<title>Node1&#45;&gt;Node24</title>
<g id="a_edge23_Node000001_Node000024"><a xlink:title=" ">
<path fill="none" stroke="#63b8ff" d="M279.59,-507.72C285.33,-472.38 302.47,-398.56 349,-360.5 353.11,-357.14 357.69,-354.36 362.55,-352.07"/>
<polygon fill="#63b8ff" stroke="#63b8ff" points="276.11,-507.34 278.11,-517.74 283.04,-508.36 276.11,-507.34"/>
</a>
</g>
</g>
<!-- Node25 -->
<g id="Node000025" class="node">
<title>Node25</title>
<g id="a_Node000025"><a xlink:href="../../d4/d06/classxii_script_class_resource.html" target="_top" xlink:title=" ">
<polygon fill="white" stroke="#bfbfbf" points="499.5,-315 371.5,-315 371.5,-296 499.5,-296 499.5,-315"/>
<text text-anchor="middle" x="435.5" y="-303" font-family="Helvetica,sans-Serif" font-size="10.00">xiiScriptClassResource</text>
</a>
</g>
</g>
<!-- Node1&#45;&gt;Node25 -->
<g id="edge24_Node000001_Node000025" class="edge">
<title>Node1&#45;&gt;Node25</title>
<g id="a_edge24_Node000001_Node000025"><a xlink:title=" ">
<path fill="none" stroke="#63b8ff" d="M277.86,-507.46C280.77,-466.32 293.48,-372.14 349,-323.5 355.39,-317.9 363.07,-313.89 371.18,-311.04"/>
<polygon fill="#63b8ff" stroke="#63b8ff" points="274.36,-507.39 277.28,-517.57 281.35,-507.79 274.36,-507.39"/>
</a>
</g>
</g>
<!-- Node27 -->
<g id="Node000027" class="node">
<title>Node27</title>
<g id="a_Node000027"><a xlink:href="../../d3/d91/classxii_shader_permutation_resource.html" target="_top" xlink:title=" ">
<polygon fill="white" stroke="#bfbfbf" points="519,-278 352,-278 352,-259 519,-259 519,-278"/>
<text text-anchor="middle" x="435.5" y="-266" font-family="Helvetica,sans-Serif" font-size="10.00">xiiShaderPermutationResource</text>
</a>
</g>
</g>
<!-- Node1&#45;&gt;Node27 -->
<g id="edge26_Node000001_Node000027" class="edge">
<title>Node1&#45;&gt;Node27</title>
<g id="a_edge26_Node000001_Node000027"><a xlink:title=" ">
<path fill="none" stroke="#63b8ff" d="M276.6,-507.75C276.8,-461.63 284.13,-346.2 349,-286.5 352.57,-283.21 356.59,-280.47 360.88,-278.18"/>
<polygon fill="#63b8ff" stroke="#63b8ff" points="273.1,-507.94 276.67,-517.91 280.1,-507.89 273.1,-507.94"/>
</a>
</g>
</g>
<!-- Node28 -->
<g id="Node000028" class="node">
<title>Node28</title>
<g id="a_Node000028"><a xlink:href="../../da/d7c/classxii_shader_resource.html" target="_top" xlink:title=" ">
<polygon fill="white" stroke="#bfbfbf" points="489,-241 382,-241 382,-222 489,-222 489,-241"/>
<text text-anchor="middle" x="435.5" y="-229" font-family="Helvetica,sans-Serif" font-size="10.00">xiiShaderResource</text>
</a>
</g>
</g>
<!-- Node1&#45;&gt;Node28 -->
<g id="edge27_Node000001_Node000028" class="edge">
<title>Node1&#45;&gt;Node28</title>
<g id="a_edge27_Node000001_Node000028"><a xlink:title=" ">
<path fill="none" stroke="#63b8ff" d="M279.42,-507.71C286.83,-450.34 311.05,-285.74 349,-249.5 357.89,-241.01 369.71,-236.1 381.72,-233.34"/>
<polygon fill="#63b8ff" stroke="#63b8ff" points="275.9,-507.6 278.13,-517.96 282.85,-508.48 275.9,-507.6"/>
</a>
</g>
</g>
<!-- Node29 -->
<g id="Node000029" class="node">
<title>Node29</title>
<g id="a_Node000029"><a xlink:href="../../d6/da3/classxii_skeleton_resource.html" target="_top" xlink:title=" ">
<polygon fill="white" stroke="#bfbfbf" points="493.5,-204 377.5,-204 377.5,-185 493.5,-185 493.5,-204"/>
<text text-anchor="middle" x="435.5" y="-192" font-family="Helvetica,sans-Serif" font-size="10.00">xiiSkeletonResource</text>
</a>
</g>
</g>
<!-- Node1&#45;&gt;Node29 -->
<g id="edge28_Node000001_Node000029" class="edge">
<title>Node1&#45;&gt;Node29</title>
<g id="a_edge28_Node000001_Node000029"><a xlink:title=" ">
<path fill="none" stroke="#63b8ff" d="M278.79,-507.57C284.8,-445.04 306.35,-254.43 349,-212.5 356.68,-204.95 366.68,-200.2 377.12,-197.29"/>
<polygon fill="#63b8ff" stroke="#63b8ff" points="275.29,-507.41 277.84,-517.69 282.26,-508.06 275.29,-507.41"/>
</a>
</g>
</g>
<!-- Node30 -->
<g id="Node000030" class="node">
<title>Node30</title>
<g id="a_Node000030"><a xlink:href="../../dd/d1e/classxii_state_machine_resource.html" target="_top" xlink:title=" ">
<polygon fill="white" stroke="#bfbfbf" points="505.5,-167 365.5,-167 365.5,-148 505.5,-148 505.5,-167"/>
<text text-anchor="middle" x="435.5" y="-155" font-family="Helvetica,sans-Serif" font-size="10.00">xiiStateMachineResource</text>
</a>
</g>
</g>
<!-- Node1&#45;&gt;Node30 -->
<g id="edge29_Node000001_Node000030" class="edge">
<title>Node1&#45;&gt;Node30</title>
<g id="a_edge29_Node000001_Node000030"><a xlink:title=" ">
<path fill="none" stroke="#63b8ff" d="M278.24,-507.91C282.9,-441.03 301.5,-223.27 349,-175.5 353.71,-170.77 359.32,-167.13 365.39,-164.35"/>
<polygon fill="#63b8ff" stroke="#63b8ff" points="274.75,-507.73 277.57,-517.94 281.73,-508.19 274.75,-507.73"/>
</a>
</g>
</g>
<!-- Node31 -->
<g id="Node000031" class="node">
<title>Node31</title>
<g id="a_Node000031"><a xlink:href="../../db/d96/classxii_surface_resource.html" target="_top" xlink:title=" ">
<polygon fill="white" stroke="#bfbfbf" points="490.5,-130 380.5,-130 380.5,-111 490.5,-111 490.5,-130"/>
<text text-anchor="middle" x="435.5" y="-118" font-family="Helvetica,sans-Serif" font-size="10.00">xiiSurfaceResource</text>
</a>
</g>
</g>
<!-- Node1&#45;&gt;Node31 -->
<g id="edge30_Node000001_Node000031" class="edge">
<title>Node1&#45;&gt;Node31</title>
<g id="a_edge30_Node000001_Node000031"><a xlink:title=" ">
<path fill="none" stroke="#63b8ff" d="M277.86,-507.28C281.35,-435.14 296.86,-191.93 349,-138.5 357.37,-129.92 368.72,-124.93 380.4,-122.12"/>
<polygon fill="#63b8ff" stroke="#63b8ff" points="274.35,-507.52 277.39,-517.67 281.34,-507.84 274.35,-507.52"/>
</a>
</g>
</g>
<!-- Node32 -->
<g id="Node000032" class="node">
<title>Node32</title>
<g id="a_Node000032"><a xlink:href="../../dc/d2e/classxii_texture2_d_resource.html" target="_top" xlink:title=" ">
<polygon fill="white" stroke="#bfbfbf" points="497,-93 374,-93 374,-74 497,-74 497,-93"/>
<text text-anchor="middle" x="435.5" y="-81" font-family="Helvetica,sans-Serif" font-size="10.00">xiiTexture2DResource</text>
</a>
</g>
</g>
<!-- Node1&#45;&gt;Node32 -->
<g id="edge31_Node000001_Node000032" class="edge">
<title>Node1&#45;&gt;Node32</title>
<g id="a_edge31_Node000001_Node000032"><a xlink:title=" ">
<path fill="none" stroke="#63b8ff" d="M277.49,-507.84C279.78,-432.16 291.91,-160.92 349,-101.5 355.73,-94.5 364.43,-89.87 373.71,-86.87"/>
<polygon fill="#63b8ff" stroke="#63b8ff" points="273.99,-507.8 277.21,-517.89 280.99,-507.99 273.99,-507.8"/>
</a>
</g>
</g>
<!-- Node34 -->
<g id="Node000034" class="node">
<title>Node34</title>
<g id="a_Node000034"><a xlink:href="../../d3/d13/classxii_texture3_d_resource.html" target="_top" xlink:title=" ">
<polygon fill="white" stroke="#bfbfbf" points="497,-56 374,-56 374,-37 497,-37 497,-56"/>
<text text-anchor="middle" x="435.5" y="-44" font-family="Helvetica,sans-Serif" font-size="10.00">xiiTexture3DResource</text>
</a>
</g>
</g>
<!-- Node1&#45;&gt;Node34 -->
<g id="edge33_Node000001_Node000034" class="edge">
<title>Node1&#45;&gt;Node34</title>
<g id="a_edge33_Node000001_Node000034"><a xlink:title=" ">
<path fill="none" stroke="#63b8ff" d="M277.2,-507.7C278.42,-427.73 287.12,-129.77 349,-64.5 355.68,-57.46 364.36,-52.81 373.63,-49.8"/>
<polygon fill="#63b8ff" stroke="#63b8ff" points="273.7,-507.82 277.07,-517.86 280.7,-507.91 273.7,-507.82"/>
</a>
</g>
</g>
<!-- Node35 -->
<g id="Node000035" class="node">
<title>Node35</title>
<g id="a_Node000035"><a xlink:href="../../d2/d07/classxii_texture_cube_resource.html" target="_top" xlink:title=" ">
<polygon fill="white" stroke="#bfbfbf" points="502.5,-19 368.5,-19 368.5,0 502.5,0 502.5,-19"/>
<text text-anchor="middle" x="435.5" y="-7" font-family="Helvetica,sans-Serif" font-size="10.00">xiiTextureCubeResource</text>
</a>
</g>
</g>
<!-- Node1&#45;&gt;Node35 -->
<g id="edge34_Node000001_Node000035" class="edge">
<title>Node1&#45;&gt;Node35</title>
<g id="a_edge34_Node000001_Node000035"><a xlink:title=" ">
<path fill="none" stroke="#63b8ff" d="M276.95,-507.75C277.14,-423.93 282.26,-98.69 349,-27.5 354.39,-21.75 361.13,-17.59 368.43,-14.61"/>
<polygon fill="#63b8ff" stroke="#63b8ff" points="273.45,-507.92 276.95,-517.92 280.45,-507.92 273.45,-507.92"/>
</a>
</g>
</g>
<!-- Node2 -->
<g id="Node000002" class="node">
<title>Node2</title>
<g id="a_Node000002"><a xlink:href="../../dc/d71/classxii_reflected_class.html" target="_top" xlink:title="All classes that should be dynamically reflectable, need to be derived from this base class.">
<polygon fill="white" stroke="#666666" points="203,-537 102,-537 102,-518 203,-518 203,-537"/>
<text text-anchor="middle" x="152.5" y="-525" font-family="Helvetica,sans-Serif" font-size="10.00">xiiReflectedClass</text>
</a>
</g>
</g>
<!-- Node2&#45;&gt;Node1 -->
<g id="edge1_Node000001_Node000002" class="edge">
<title>Node2&#45;&gt;Node1</title>
<g id="a_edge1_Node000001_Node000002"><a xlink:title=" ">
<path fill="none" stroke="#63b8ff" d="M213.43,-527.5C222.13,-527.5 230.85,-527.5 238.88,-527.5"/>
<polygon fill="#63b8ff" stroke="#63b8ff" points="213.27,-524 203.27,-527.5 213.27,-531 213.27,-524"/>
</a>
</g>
</g>
<!-- Node3 -->
<g id="Node000003" class="node">
<title>Node3</title>
<g id="a_Node000003"><a xlink:href="../../d2/d38/classxii_no_base.html" target="_top" xlink:title="Dummy type to pass to templates and macros that expect a base type for a class that has no base.">
<polygon fill="white" stroke="#666666" points="66,-537 0,-537 0,-518 66,-518 66,-537"/>
<text text-anchor="middle" x="33" y="-525" font-family="Helvetica,sans-Serif" font-size="10.00">xiiNoBase</text>
</a>
</g>
</g>
<!-- Node3&#45;&gt;Node2 -->
<g id="edge2_Node000002_Node000003" class="edge">
<title>Node3&#45;&gt;Node2</title>
<g id="a_edge2_Node000002_Node000003"><a xlink:title=" ">
<path fill="none" stroke="#63b8ff" d="M76.27,-527.5C84.54,-527.5 93.29,-527.5 101.78,-527.5"/>
<polygon fill="#63b8ff" stroke="#63b8ff" points="76.11,-524 66.11,-527.5 76.11,-531 76.11,-524"/>
</a>
</g>
</g>
<!-- Node13 -->
<g id="Node000013" class="node">
<title>Node13</title>
<g id="a_Node000013"><a xlink:href="../../d1/dac/classxii_custom_data_resource.html" target="_top" xlink:title="Template resource type for sub&#45;classed xiiCustomData types.">
<polygon fill="white" stroke="#666666" points="723.5,-759 560.5,-759 560.5,-740 723.5,-740 723.5,-759"/>
<text text-anchor="middle" x="642" y="-747" font-family="Helvetica,sans-Serif" font-size="10.00">xiiCustomDataResource&lt; T &gt;</text>
</a>
</g>
</g>
<!-- Node12&#45;&gt;Node13 -->
<g id="edge12_Node000012_Node000013" class="edge">
<title>Node12&#45;&gt;Node13</title>
<g id="a_edge12_Node000012_Node000013"><a xlink:title=" ">
<path fill="none" stroke="#63b8ff" d="M524.98,-749.5C536.78,-749.5 548.83,-749.5 560.48,-749.5"/>
<polygon fill="#63b8ff" stroke="#63b8ff" points="524.69,-746 514.69,-749.5 524.69,-753 524.69,-746"/>
</a>
</g>
</g>
<!-- Node26 -->
<g id="Node000026" class="node">
<title>Node26</title>
<g id="a_Node000026"><a xlink:href="../../d6/d14/classxii_visual_script_class_resource.html" target="_top" xlink:title=" ">
<polygon fill="white" stroke="#bfbfbf" points="721,-315 563,-315 563,-296 721,-296 721,-315"/>
<text text-anchor="middle" x="642" y="-303" font-family="Helvetica,sans-Serif" font-size="10.00">xiiVisualScriptClassResource</text>
</a>
</g>
</g>
<!-- Node25&#45;&gt;Node26 -->
<g id="edge25_Node000025_Node000026" class="edge">
<title>Node25&#45;&gt;Node26</title>
<g id="a_edge25_Node000025_Node000026"><a xlink:title=" ">
<path fill="none" stroke="#63b8ff" d="M510,-305.5C527.1,-305.5 545.37,-305.5 562.66,-305.5"/>
<polygon fill="#63b8ff" stroke="#63b8ff" points="509.53,-302 499.53,-305.5 509.53,-309 509.53,-302"/>
</a>
</g>
</g>
<!-- Node33 -->
<g id="Node000033" class="node">
<title>Node33</title>
<g id="a_Node000033"><a xlink:href="../../d5/d63/classxii_render_to_texture2_d_resource.html" target="_top" xlink:title=" ">
<polygon fill="white" stroke="#bfbfbf" points="726,-93 558,-93 558,-74 726,-74 726,-93"/>
<text text-anchor="middle" x="642" y="-81" font-family="Helvetica,sans-Serif" font-size="10.00">xiiRenderToTexture2DResource</text>
</a>
</g>
</g>
<!-- Node32&#45;&gt;Node33 -->
<g id="edge32_Node000032_Node000033" class="edge">
<title>Node32&#45;&gt;Node33</title>
<g id="a_edge32_Node000032_Node000033"><a xlink:title=" ">
<path fill="none" stroke="#63b8ff" d="M507.05,-83.5C523.44,-83.5 541.03,-83.5 557.89,-83.5"/>
<polygon fill="#63b8ff" stroke="#63b8ff" points="507.03,-80 497.03,-83.5 507.03,-87 507.03,-80"/>
</a>
</g>
</g>
</g>
</svg>

<g id="navigator" transform="translate(0 0)" fill="#404254">
  <rect fill="#f2f5e9" fill-opacity="0.5" stroke="#606060" stroke-width=".5" x="0" y="0" width="60" height="60"/>
  <use id="zoomplus" xlink:href="#zoomPlus" x="17" y="9" onmousedown="handleZoom(evt,'in')"/>
  <use id="zoomminus" xlink:href="#zoomMin" x="42" y="9" onmousedown="handleZoom(evt,'out')"/>
  <use id="reset" xlink:href="#resetDef" x="30" y="36" onmousedown="handleReset()"/>
   <use id="arrowup" xlink:href="#arrowUp" x="0" y="0" onmousedown="handlePan(0,-1)"/>
  <use id="arrowright" xlink:href="#arrowRight" x="0" y="0" onmousedown="handlePan(1,0)"/>
  <use id="arrowdown" xlink:href="#arrowDown" x="0" y="0" onmousedown="handlePan(0,1)"/>
  <use id="arrowleft" xlink:href="#arrowLeft" x="0" y="0" onmousedown="handlePan(-1,0)"/>
</g>
<svg viewBox="0 0 15 15" width="100%" height="30px" preserveAspectRatio="xMaxYMin meet">
 <g id="arrow_out" transform="scale(0.3 0.3)">
  <a xlink:href="classxii_resource__inherit__graph_org.svg" target="_base">
   <rect id="button" ry="5" rx="5" y="6" x="6" height="38" width="38"
        fill="#f2f5e9" fill-opacity="0.5" stroke="#606060" stroke-width="1.0"/>
   <path id="arrow"
     d="M 11.500037,31.436501 C 11.940474,20.09759 22.043105,11.32322 32.158766,21.979434 L 37.068811,17.246167 C 37.068811,17.246167 37.088388,32 37.088388,32 L 22.160133,31.978069 C 22.160133,31.978069 26.997745,27.140456 26.997745,27.140456 C 18.528582,18.264221 13.291696,25.230495 11.500037,31.436501 z"
     style="fill:#404040;"/>
  </a>
 </g>
</svg>

<style type='text/css'>
<![CDATA[
[data-mouse-over-selected='false'] { opacity: 0.7; }
[data-mouse-over-selected='true']  { opacity: 1.0; }
]]>
</style>
<script type="application/ecmascript"><![CDATA[
document.addEventListener('DOMContentLoaded', (event) => {
  highlightEdges();
  highlightAdjacentNodes();
});
]]></script>
</svg>
