<?xml version="1.0" encoding="UTF-8" standalone="no"?>
<!DOCTYPE svg PUBLIC "-//W3C//DTD SVG 1.1//EN"
 "http://www.w3.org/Graphics/SVG/1.1/DTD/svg11.dtd">
<!-- Generated by graphviz version 2.43.0 (0)
 -->
<!-- Title: xiiResource Pages: 1 -->
<!--zoomable 1054 -->
<svg id="main" version="1.1" xmlns="http://www.w3.org/2000/svg" xmlns:xlink="http://www.w3.org/1999/xlink" xml:space="preserve" onload="init(evt)">
<style type="text/css"><![CDATA[
.edge:hover path { stroke: red; }
.edge:hover polygon { stroke: red; fill: red; }
]]></style>
<script type="text/javascript"><![CDATA[
var edges = document.getElementsByTagName('g');
if (edges && edges.length) {
  for (var i=0;i<edges.length;i++) {
    if (edges[i].id.substr(0,4)=='edge') {
      edges[i].setAttribute('class','edge');
    }
  }
}
]]></script>
        <defs>
                <circle id="rim" cx="0" cy="0" r="7"/>
                <circle id="rim2" cx="0" cy="0" r="3.5"/>
                <g id="zoomPlus">
                        <use xlink:href="#rim" fill="#404040">
                                <set attributeName="fill" to="#808080" begin="zoomplus.mouseover" end="zoomplus.mouseout"/>
                        </use>
                        <path d="M-4,0h8M0,-4v8" fill="none" stroke="white" stroke-width="1.5" pointer-events="none"/>
                </g>
                <g id="zoomMin">
                        <use xlink:href="#rim" fill="#404040">
                                <set attributeName="fill" to="#808080" begin="zoomminus.mouseover" end="zoomminus.mouseout"/>
                        </use>
                        <path d="M-4,0h8" fill="none" stroke="white" stroke-width="1.5" pointer-events="none"/>
                </g>
                <g id="dirArrow">
                        <path fill="none" stroke="white" stroke-width="1.5" d="M0,-3.0v7 M-2.5,-0.5L0,-3.0L2.5,-0.5"/>
                </g>
               <g id="resetDef">
                       <use xlink:href="#rim2" fill="#404040">
                               <set attributeName="fill" to="#808080" begin="reset.mouseover" end="reset.mouseout"/>
                       </use>
               </g>
        </defs>

<script type="text/javascript">
var viewWidth = 734;
var viewHeight = 1054;
var sectionId = 'dynsection-0';
</script>
<script xlink:href="../../svgpan.js"/>
<svg id="graph" class="graph">
<g id="viewport">
<title>xiiResource</title>
<polygon fill="white" stroke="transparent" points="-4,4 -4,-1050 730,-1050 730,4 -4,4"/>
<!-- Node1 -->
<g id="node1" class="node">
<title>Node1</title>
<g id="a_node1"><a xlink:title="The base class for all resources.">
<polygon fill="#bfbfbf" stroke="black" points="239,-513.5 239,-532.5 313,-532.5 313,-513.5 239,-513.5"/>
<text text-anchor="middle" x="276" y="-520.5" font-family="Helvetica,sans-Serif" font-size="10.00">xiiResource</text>
</a>
</g>
</g>
<!-- Node4 -->
<g id="node4" class="node">
<title>Node4</title>
<g id="a_node4"><a xlink:href="../../d3/dcc/classxii_anim_graph_resource.htm" target="_top" xlink:title=" ">
<polygon fill="white" stroke="black" points="371.5,-1026.5 371.5,-1045.5 499.5,-1045.5 499.5,-1026.5 371.5,-1026.5"/>
<text text-anchor="middle" x="435.5" y="-1033.5" font-family="Helvetica,sans-Serif" font-size="10.00">xiiAnimGraphResource</text>
</a>
</g>
</g>
<!-- Node1&#45;&gt;Node4 -->
<g id="edge3" class="edge">
<title>Node1&#45;&gt;Node4</title>
<path fill="none" stroke="midnightblue" d="M277.01,-543.03C277.46,-626.62 283.52,-946.49 349,-1017 355.1,-1023.57 362.94,-1028.13 371.38,-1031.24"/>
<polygon fill="midnightblue" stroke="midnightblue" points="280.51,-542.85 276.98,-532.86 273.51,-542.87 280.51,-542.85"/>
</g>
<!-- Node5 -->
<g id="node5" class="node">
<title>Node5</title>
<g id="a_node5"><a xlink:href="../../d9/dca/classxii_animation_clip_resource.htm" target="_top" xlink:title=" ">
<polygon fill="white" stroke="black" points="364,-988.5 364,-1007.5 507,-1007.5 507,-988.5 364,-988.5"/>
<text text-anchor="middle" x="435.5" y="-995.5" font-family="Helvetica,sans-Serif" font-size="10.00">xiiAnimationClipResource</text>
</a>
</g>
</g>
<!-- Node1&#45;&gt;Node5 -->
<g id="edge4" class="edge">
<title>Node1&#45;&gt;Node5</title>
<path fill="none" stroke="midnightblue" d="M277.28,-543C278.79,-622.45 288.45,-914.57 349,-979 353.27,-983.54 358.36,-987.12 363.91,-989.92"/>
<polygon fill="midnightblue" stroke="midnightblue" points="280.77,-542.81 277.11,-532.87 273.77,-542.93 280.77,-542.81"/>
</g>
<!-- Node6 -->
<g id="node6" class="node">
<title>Node6</title>
<g id="a_node6"><a xlink:href="../../da/dc4/classxii_blackboard_template_resource.htm" target="_top" xlink:title="Describes the initial state of a blackboard.">
<polygon fill="white" stroke="black" points="349,-950.5 349,-969.5 522,-969.5 522,-950.5 349,-950.5"/>
<text text-anchor="middle" x="435.5" y="-957.5" font-family="Helvetica,sans-Serif" font-size="10.00">xiiBlackboardTemplateResource</text>
</a>
</g>
</g>
<!-- Node1&#45;&gt;Node6 -->
<g id="edge5" class="edge">
<title>Node1&#45;&gt;Node6</title>
<path fill="none" stroke="midnightblue" d="M277.6,-543.22C280.25,-618.72 293.42,-882.68 349,-941 352.57,-944.74 356.69,-947.83 361.17,-950.36"/>
<polygon fill="midnightblue" stroke="midnightblue" points="281.08,-542.67 277.26,-532.79 274.09,-542.9 281.08,-542.67"/>
</g>
<!-- Node7 -->
<g id="node7" class="node">
<title>Node7</title>
<g id="a_node7"><a xlink:href="../../d8/d56/classxii_collection_resource.htm" target="_top" xlink:title="An xiiCollectionResource is used to tell the engine about resources that it should preload in the bac...">
<polygon fill="white" stroke="black" points="374.5,-912.5 374.5,-931.5 496.5,-931.5 496.5,-912.5 374.5,-912.5"/>
<text text-anchor="middle" x="435.5" y="-919.5" font-family="Helvetica,sans-Serif" font-size="10.00">xiiCollectionResource</text>
</a>
</g>
</g>
<!-- Node1&#45;&gt;Node7 -->
<g id="edge6" class="edge">
<title>Node1&#45;&gt;Node7</title>
<path fill="none" stroke="midnightblue" d="M277.95,-542.74C281.76,-613.15 298.21,-850.59 349,-903 355.88,-910.1 364.78,-914.82 374.22,-917.91"/>
<polygon fill="midnightblue" stroke="midnightblue" points="281.44,-542.4 277.43,-532.59 274.45,-542.76 281.44,-542.4"/>
</g>
<!-- Node8 -->
<g id="node8" class="node">
<title>Node8</title>
<g id="a_node8"><a xlink:href="../../d3/dc0/classxii_color_gradient_resource.htm" target="_top" xlink:title="A resource that stores a single color gradient. The data is stored in the descriptor.">
<polygon fill="white" stroke="black" points="365,-874.5 365,-893.5 506,-893.5 506,-874.5 365,-874.5"/>
<text text-anchor="middle" x="435.5" y="-881.5" font-family="Helvetica,sans-Serif" font-size="10.00">xiiColorGradientResource</text>
</a>
</g>
</g>
<!-- Node1&#45;&gt;Node8 -->
<g id="edge7" class="edge">
<title>Node1&#45;&gt;Node8</title>
<path fill="none" stroke="midnightblue" d="M278.41,-542.86C283.51,-608.75 303.12,-818.6 349,-865 353.6,-869.65 359.06,-873.27 364.97,-876.08"/>
<polygon fill="midnightblue" stroke="midnightblue" points="281.88,-542.33 277.65,-532.61 274.9,-542.85 281.88,-542.33"/>
</g>
<!-- Node9 -->
<g id="node9" class="node">
<title>Node9</title>
<g id="a_node9"><a xlink:href="../../d0/d17/classxii_config_file_resource.htm" target="_top" xlink:title="This resource loads config files containing key/value pairs.">
<polygon fill="white" stroke="black" points="374.5,-836.5 374.5,-855.5 496.5,-855.5 496.5,-836.5 374.5,-836.5"/>
<text text-anchor="middle" x="435.5" y="-843.5" font-family="Helvetica,sans-Serif" font-size="10.00">xiiConfigFileResource</text>
</a>
</g>
</g>
<!-- Node1&#45;&gt;Node9 -->
<g id="edge8" class="edge">
<title>Node1&#45;&gt;Node9</title>
<path fill="none" stroke="midnightblue" d="M278.99,-543C285.48,-604.1 308,-786.57 349,-827 356.04,-833.94 365.01,-838.58 374.49,-841.64"/>
<polygon fill="midnightblue" stroke="midnightblue" points="282.45,-542.36 277.94,-532.77 275.48,-543.08 282.45,-542.36"/>
</g>
<!-- Node10 -->
<g id="node10" class="node">
<title>Node10</title>
<g id="a_node10"><a xlink:href="../../d3/da1/classxii_cpu_mesh_resource.htm" target="_top" xlink:title=" ">
<polygon fill="white" stroke="black" points="376,-798.5 376,-817.5 495,-817.5 495,-798.5 376,-798.5"/>
<text text-anchor="middle" x="435.5" y="-805.5" font-family="Helvetica,sans-Serif" font-size="10.00">xiiCpuMeshResource</text>
</a>
</g>
</g>
<!-- Node1&#45;&gt;Node10 -->
<g id="edge9" class="edge">
<title>Node1&#45;&gt;Node10</title>
<path fill="none" stroke="midnightblue" d="M279.67,-542.66C287.6,-598.19 312.75,-754.37 349,-789 356.48,-796.14 366.01,-800.83 375.99,-803.87"/>
<polygon fill="midnightblue" stroke="midnightblue" points="283.13,-542.11 278.28,-532.69 276.19,-543.08 283.13,-542.11"/>
</g>
<!-- Node11 -->
<g id="node11" class="node">
<title>Node11</title>
<g id="a_node11"><a xlink:href="../../da/de2/classxii_curve1_d_resource.htm" target="_top" xlink:title="A resource that stores 1D curves. The curves are stored in the descriptor.">
<polygon fill="white" stroke="black" points="377.5,-760.5 377.5,-779.5 493.5,-779.5 493.5,-760.5 377.5,-760.5"/>
<text text-anchor="middle" x="435.5" y="-767.5" font-family="Helvetica,sans-Serif" font-size="10.00">xiiCurve1DResource</text>
</a>
</g>
</g>
<!-- Node1&#45;&gt;Node11 -->
<g id="edge10" class="edge">
<title>Node1&#45;&gt;Node11</title>
<path fill="none" stroke="midnightblue" d="M277.03,-542.55C278.23,-586.72 287.63,-694.76 349,-751 356.85,-758.19 366.8,-762.87 377.11,-765.87"/>
<polygon fill="midnightblue" stroke="midnightblue" points="280.53,-542.48 276.88,-532.54 273.53,-542.59 280.53,-542.48"/>
</g>
<!-- Node12 -->
<g id="node12" class="node">
<title>Node12</title>
<g id="a_node12"><a xlink:href="../../db/da6/classxii_decal_atlas_resource.htm" target="_top" xlink:title=" ">
<polygon fill="white" stroke="black" points="372.5,-722.5 372.5,-741.5 498.5,-741.5 498.5,-722.5 372.5,-722.5"/>
<text text-anchor="middle" x="435.5" y="-729.5" font-family="Helvetica,sans-Serif" font-size="10.00">xiiDecalAtlasResource</text>
</a>
</g>
</g>
<!-- Node1&#45;&gt;Node12 -->
<g id="edge11" class="edge">
<title>Node1&#45;&gt;Node12</title>
<path fill="none" stroke="midnightblue" d="M278.47,-542.69C282.48,-581.5 297.06,-668.03 349,-713 355.67,-718.77 363.7,-722.91 372.14,-725.84"/>
<polygon fill="midnightblue" stroke="midnightblue" points="281.95,-542.32 277.57,-532.67 274.98,-542.95 281.95,-542.32"/>
</g>
<!-- Node13 -->
<g id="node13" class="node">
<title>Node13</title>
<g id="a_node13"><a xlink:href="../../d9/d00/classxii_decal_resource.htm" target="_top" xlink:title=" ">
<polygon fill="white" stroke="black" points="385,-684.5 385,-703.5 486,-703.5 486,-684.5 385,-684.5"/>
<text text-anchor="middle" x="435.5" y="-691.5" font-family="Helvetica,sans-Serif" font-size="10.00">xiiDecalResource</text>
</a>
</g>
</g>
<!-- Node1&#45;&gt;Node13 -->
<g id="edge12" class="edge">
<title>Node1&#45;&gt;Node13</title>
<path fill="none" stroke="midnightblue" d="M280.58,-542.77C287.58,-575.56 306.33,-640.95 349,-675 359.22,-683.16 372.22,-687.98 384.99,-690.78"/>
<polygon fill="midnightblue" stroke="midnightblue" points="283.94,-541.77 278.57,-532.64 277.08,-543.13 283.94,-541.77"/>
</g>
<!-- Node14 -->
<g id="node14" class="node">
<title>Node14</title>
<g id="a_node14"><a xlink:href="../../dd/d17/classxii_dynamic_mesh_buffer_resource.htm" target="_top" xlink:title=" ">
<polygon fill="white" stroke="black" points="349,-646.5 349,-665.5 522,-665.5 522,-646.5 349,-646.5"/>
<text text-anchor="middle" x="435.5" y="-653.5" font-family="Helvetica,sans-Serif" font-size="10.00">xiiDynamicMeshBufferResource</text>
</a>
</g>
</g>
<!-- Node1&#45;&gt;Node14 -->
<g id="edge13" class="edge">
<title>Node1&#45;&gt;Node14</title>
<path fill="none" stroke="midnightblue" d="M283.71,-542.21C293.75,-567.96 315.18,-613.21 349,-637 354.47,-640.85 360.59,-643.94 366.97,-646.41"/>
<polygon fill="midnightblue" stroke="midnightblue" points="286.98,-540.93 280.21,-532.78 280.41,-543.37 286.98,-540.93"/>
</g>
<!-- Node15 -->
<g id="node15" class="node">
<title>Node15</title>
<g id="a_node15"><a xlink:href="../../de/d75/classxii_image_data_resource.htm" target="_top" xlink:title=" ">
<polygon fill="white" stroke="black" points="371.5,-608.5 371.5,-627.5 499.5,-627.5 499.5,-608.5 371.5,-608.5"/>
<text text-anchor="middle" x="435.5" y="-615.5" font-family="Helvetica,sans-Serif" font-size="10.00">xiiImageDataResource</text>
</a>
</g>
</g>
<!-- Node1&#45;&gt;Node15 -->
<g id="edge14" class="edge">
<title>Node1&#45;&gt;Node15</title>
<path fill="none" stroke="midnightblue" d="M289.08,-540.97C301.87,-558.53 323.68,-584.65 349,-599 355.88,-602.9 363.49,-606 371.26,-608.46"/>
<polygon fill="midnightblue" stroke="midnightblue" points="291.87,-538.84 283.25,-532.67 286.14,-542.87 291.87,-538.84"/>
</g>
<!-- Node16 -->
<g id="node16" class="node">
<title>Node16</title>
<g id="a_node16"><a xlink:href="../../d5/df2/classxii_material_resource.htm" target="_top" xlink:title=" ">
<polygon fill="white" stroke="black" points="378.5,-570.5 378.5,-589.5 492.5,-589.5 492.5,-570.5 378.5,-570.5"/>
<text text-anchor="middle" x="435.5" y="-577.5" font-family="Helvetica,sans-Serif" font-size="10.00">xiiMaterialResource</text>
</a>
</g>
</g>
<!-- Node1&#45;&gt;Node16 -->
<g id="edge15" class="edge">
<title>Node1&#45;&gt;Node16</title>
<path fill="none" stroke="midnightblue" d="M300.93,-537.7C314.6,-545.57 332.29,-554.86 349,-561 359.13,-564.72 370.22,-567.84 380.96,-570.41"/>
<polygon fill="midnightblue" stroke="midnightblue" points="302.57,-534.61 292.18,-532.55 299.02,-540.64 302.57,-534.61"/>
</g>
<!-- Node17 -->
<g id="node17" class="node">
<title>Node17</title>
<g id="a_node17"><a xlink:href="../../da/d98/classxii_mesh_buffer_resource.htm" target="_top" xlink:title=" ">
<polygon fill="white" stroke="black" points="371,-532.5 371,-551.5 500,-551.5 500,-532.5 371,-532.5"/>
<text text-anchor="middle" x="435.5" y="-539.5" font-family="Helvetica,sans-Serif" font-size="10.00">xiiMeshBufferResource</text>
</a>
</g>
</g>
<!-- Node1&#45;&gt;Node17 -->
<g id="edge16" class="edge">
<title>Node1&#45;&gt;Node17</title>
<path fill="none" stroke="midnightblue" d="M323.11,-528.56C338,-530.36 354.78,-532.38 370.72,-534.31"/>
<polygon fill="midnightblue" stroke="midnightblue" points="323.48,-525.08 313.13,-527.36 322.64,-532.03 323.48,-525.08"/>
</g>
<!-- Node18 -->
<g id="node18" class="node">
<title>Node18</title>
<g id="a_node18"><a xlink:href="../../d0/d6b/classxii_mesh_resource.htm" target="_top" xlink:title=" ">
<polygon fill="white" stroke="black" points="385.5,-494.5 385.5,-513.5 485.5,-513.5 485.5,-494.5 385.5,-494.5"/>
<text text-anchor="middle" x="435.5" y="-501.5" font-family="Helvetica,sans-Serif" font-size="10.00">xiiMeshResource</text>
</a>
</g>
</g>
<!-- Node1&#45;&gt;Node18 -->
<g id="edge17" class="edge">
<title>Node1&#45;&gt;Node18</title>
<path fill="none" stroke="midnightblue" d="M323.31,-517.41C342.84,-515.06 365.59,-512.31 385.4,-509.92"/>
<polygon fill="midnightblue" stroke="midnightblue" points="322.64,-513.97 313.13,-518.64 323.48,-520.92 322.64,-513.97"/>
</g>
<!-- Node19 -->
<g id="node19" class="node">
<title>Node19</title>
<g id="a_node19"><a xlink:href="../../d8/d95/classxii_prefab_resource.htm" target="_top" xlink:title=" ">
<polygon fill="white" stroke="black" points="383,-456.5 383,-475.5 488,-475.5 488,-456.5 383,-456.5"/>
<text text-anchor="middle" x="435.5" y="-463.5" font-family="Helvetica,sans-Serif" font-size="10.00">xiiPrefabResource</text>
</a>
</g>
</g>
<!-- Node1&#45;&gt;Node19 -->
<g id="edge18" class="edge">
<title>Node1&#45;&gt;Node19</title>
<path fill="none" stroke="midnightblue" d="M300.93,-508.3C314.6,-500.43 332.29,-491.14 349,-485 359.7,-481.07 371.48,-477.81 382.77,-475.16"/>
<polygon fill="midnightblue" stroke="midnightblue" points="299.02,-505.36 292.18,-513.45 302.57,-511.39 299.02,-505.36"/>
</g>
<!-- Node20 -->
<g id="node20" class="node">
<title>Node20</title>
<g id="a_node20"><a xlink:href="../../d8/d47/classxii_probe_tree_sector_resource.htm" target="_top" xlink:title=" ">
<polygon fill="white" stroke="black" points="359.5,-418.5 359.5,-437.5 511.5,-437.5 511.5,-418.5 359.5,-418.5"/>
<text text-anchor="middle" x="435.5" y="-425.5" font-family="Helvetica,sans-Serif" font-size="10.00">xiiProbeTreeSectorResource</text>
</a>
</g>
</g>
<!-- Node1&#45;&gt;Node20 -->
<g id="edge19" class="edge">
<title>Node1&#45;&gt;Node20</title>
<path fill="none" stroke="midnightblue" d="M289.08,-505.03C301.87,-487.47 323.68,-461.35 349,-447 355.88,-443.1 363.49,-440 371.26,-437.54"/>
<polygon fill="midnightblue" stroke="midnightblue" points="286.14,-503.13 283.25,-513.33 291.87,-507.16 286.14,-503.13"/>
</g>
<!-- Node21 -->
<g id="node21" class="node">
<title>Node21</title>
<g id="a_node21"><a xlink:href="../../d8/d88/classxii_property_anim_resource.htm" target="_top" xlink:title=" ">
<polygon fill="white" stroke="black" points="365.5,-380.5 365.5,-399.5 505.5,-399.5 505.5,-380.5 365.5,-380.5"/>
<text text-anchor="middle" x="435.5" y="-387.5" font-family="Helvetica,sans-Serif" font-size="10.00">xiiPropertyAnimResource</text>
</a>
</g>
</g>
<!-- Node1&#45;&gt;Node21 -->
<g id="edge20" class="edge">
<title>Node1&#45;&gt;Node21</title>
<path fill="none" stroke="midnightblue" d="M283.71,-503.79C293.75,-478.04 315.18,-432.79 349,-409 354.47,-405.15 360.59,-402.06 366.97,-399.59"/>
<polygon fill="midnightblue" stroke="midnightblue" points="280.41,-502.63 280.21,-513.22 286.98,-505.07 280.41,-502.63"/>
</g>
<!-- Node22 -->
<g id="node22" class="node">
<title>Node22</title>
<g id="a_node22"><a xlink:href="../../d9/d26/classxii_render_pipeline_resource.htm" target="_top" xlink:title=" ">
<polygon fill="white" stroke="black" points="362,-342.5 362,-361.5 509,-361.5 509,-342.5 362,-342.5"/>
<text text-anchor="middle" x="435.5" y="-349.5" font-family="Helvetica,sans-Serif" font-size="10.00">xiiRenderPipelineResource</text>
</a>
</g>
</g>
<!-- Node1&#45;&gt;Node22 -->
<g id="edge21" class="edge">
<title>Node1&#45;&gt;Node22</title>
<path fill="none" stroke="midnightblue" d="M280.58,-503.23C287.58,-470.44 306.33,-405.05 349,-371 353.75,-367.21 359.11,-364.13 364.76,-361.65"/>
<polygon fill="midnightblue" stroke="midnightblue" points="277.08,-502.87 278.57,-513.36 283.94,-504.23 277.08,-502.87"/>
</g>
<!-- Node23 -->
<g id="node23" class="node">
<title>Node23</title>
<g id="a_node23"><a xlink:href="../../d4/d06/classxii_script_class_resource.htm" target="_top" xlink:title=" ">
<polygon fill="white" stroke="black" points="371.5,-304.5 371.5,-323.5 499.5,-323.5 499.5,-304.5 371.5,-304.5"/>
<text text-anchor="middle" x="435.5" y="-311.5" font-family="Helvetica,sans-Serif" font-size="10.00">xiiScriptClassResource</text>
</a>
</g>
</g>
<!-- Node1&#45;&gt;Node23 -->
<g id="edge22" class="edge">
<title>Node1&#45;&gt;Node23</title>
<path fill="none" stroke="midnightblue" d="M278.47,-503.31C282.48,-464.5 297.06,-377.97 349,-333 355.44,-327.43 363.15,-323.38 371.27,-320.46"/>
<polygon fill="midnightblue" stroke="midnightblue" points="274.98,-503.05 277.57,-513.33 281.95,-503.68 274.98,-503.05"/>
</g>
<!-- Node25 -->
<g id="node25" class="node">
<title>Node25</title>
<g id="a_node25"><a xlink:href="../../d3/d91/classxii_shader_permutation_resource.htm" target="_top" xlink:title=" ">
<polygon fill="white" stroke="black" points="352,-266.5 352,-285.5 519,-285.5 519,-266.5 352,-266.5"/>
<text text-anchor="middle" x="435.5" y="-273.5" font-family="Helvetica,sans-Serif" font-size="10.00">xiiShaderPermutationResource</text>
</a>
</g>
</g>
<!-- Node1&#45;&gt;Node25 -->
<g id="edge24" class="edge">
<title>Node1&#45;&gt;Node25</title>
<path fill="none" stroke="midnightblue" d="M277.03,-503.45C278.23,-459.28 287.63,-351.24 349,-295 353.15,-291.2 357.88,-288.1 362.95,-285.58"/>
<polygon fill="midnightblue" stroke="midnightblue" points="273.53,-503.41 276.88,-513.46 280.53,-503.52 273.53,-503.41"/>
</g>
<!-- Node26 -->
<g id="node26" class="node">
<title>Node26</title>
<g id="a_node26"><a xlink:href="../../da/d7c/classxii_shader_resource.htm" target="_top" xlink:title=" ">
<polygon fill="white" stroke="black" points="382,-228.5 382,-247.5 489,-247.5 489,-228.5 382,-228.5"/>
<text text-anchor="middle" x="435.5" y="-235.5" font-family="Helvetica,sans-Serif" font-size="10.00">xiiShaderResource</text>
</a>
</g>
</g>
<!-- Node1&#45;&gt;Node26 -->
<g id="edge25" class="edge">
<title>Node1&#45;&gt;Node26</title>
<path fill="none" stroke="midnightblue" d="M279.67,-503.34C287.6,-447.81 312.75,-291.63 349,-257 357.91,-248.49 369.74,-243.47 381.75,-240.57"/>
<polygon fill="midnightblue" stroke="midnightblue" points="276.19,-502.92 278.28,-513.31 283.13,-503.89 276.19,-502.92"/>
</g>
<!-- Node27 -->
<g id="node27" class="node">
<title>Node27</title>
<g id="a_node27"><a xlink:href="../../d6/da3/classxii_skeleton_resource.htm" target="_top" xlink:title=" ">
<polygon fill="white" stroke="black" points="377.5,-190.5 377.5,-209.5 493.5,-209.5 493.5,-190.5 377.5,-190.5"/>
<text text-anchor="middle" x="435.5" y="-197.5" font-family="Helvetica,sans-Serif" font-size="10.00">xiiSkeletonResource</text>
</a>
</g>
</g>
<!-- Node1&#45;&gt;Node27 -->
<g id="edge26" class="edge">
<title>Node1&#45;&gt;Node27</title>
<path fill="none" stroke="midnightblue" d="M278.99,-503C285.48,-441.9 308,-259.43 349,-219 356.69,-211.42 366.69,-206.58 377.12,-203.55"/>
<polygon fill="midnightblue" stroke="midnightblue" points="275.48,-502.92 277.94,-513.23 282.45,-503.64 275.48,-502.92"/>
</g>
<!-- Node28 -->
<g id="node28" class="node">
<title>Node28</title>
<g id="a_node28"><a xlink:href="../../dd/d1e/classxii_state_machine_resource.htm" target="_top" xlink:title=" ">
<polygon fill="white" stroke="black" points="365.5,-152.5 365.5,-171.5 505.5,-171.5 505.5,-152.5 365.5,-152.5"/>
<text text-anchor="middle" x="435.5" y="-159.5" font-family="Helvetica,sans-Serif" font-size="10.00">xiiStateMachineResource</text>
</a>
</g>
</g>
<!-- Node1&#45;&gt;Node28 -->
<g id="edge27" class="edge">
<title>Node1&#45;&gt;Node28</title>
<path fill="none" stroke="midnightblue" d="M278.41,-503.14C283.51,-437.25 303.12,-227.4 349,-181 353.7,-176.24 359.32,-172.56 365.39,-169.72"/>
<polygon fill="midnightblue" stroke="midnightblue" points="274.9,-503.15 277.65,-513.39 281.88,-503.67 274.9,-503.15"/>
</g>
<!-- Node29 -->
<g id="node29" class="node">
<title>Node29</title>
<g id="a_node29"><a xlink:href="../../db/d96/classxii_surface_resource.htm" target="_top" xlink:title=" ">
<polygon fill="white" stroke="black" points="380.5,-114.5 380.5,-133.5 490.5,-133.5 490.5,-114.5 380.5,-114.5"/>
<text text-anchor="middle" x="435.5" y="-121.5" font-family="Helvetica,sans-Serif" font-size="10.00">xiiSurfaceResource</text>
</a>
</g>
</g>
<!-- Node1&#45;&gt;Node29 -->
<g id="edge28" class="edge">
<title>Node1&#45;&gt;Node29</title>
<path fill="none" stroke="midnightblue" d="M277.95,-503.26C281.76,-432.85 298.21,-195.41 349,-143 357.36,-134.37 368.7,-129.26 380.39,-126.32"/>
<polygon fill="midnightblue" stroke="midnightblue" points="274.45,-503.24 277.43,-513.41 281.44,-503.6 274.45,-503.24"/>
</g>
<!-- Node30 -->
<g id="node30" class="node">
<title>Node30</title>
<g id="a_node30"><a xlink:href="../../dc/d2e/classxii_texture2_d_resource.htm" target="_top" xlink:title=" ">
<polygon fill="white" stroke="black" points="374,-76.5 374,-95.5 497,-95.5 497,-76.5 374,-76.5"/>
<text text-anchor="middle" x="435.5" y="-83.5" font-family="Helvetica,sans-Serif" font-size="10.00">xiiTexture2DResource</text>
</a>
</g>
</g>
<!-- Node1&#45;&gt;Node30 -->
<g id="edge29" class="edge">
<title>Node1&#45;&gt;Node30</title>
<path fill="none" stroke="midnightblue" d="M277.6,-502.78C280.25,-427.28 293.42,-163.32 349,-105 355.71,-97.96 364.41,-93.25 373.69,-90.14"/>
<polygon fill="midnightblue" stroke="midnightblue" points="274.09,-503.1 277.26,-513.21 281.08,-503.33 274.09,-503.1"/>
</g>
<!-- Node32 -->
<g id="node32" class="node">
<title>Node32</title>
<g id="a_node32"><a xlink:href="../../d3/d13/classxii_texture3_d_resource.htm" target="_top" xlink:title=" ">
<polygon fill="white" stroke="black" points="374,-38.5 374,-57.5 497,-57.5 497,-38.5 374,-38.5"/>
<text text-anchor="middle" x="435.5" y="-45.5" font-family="Helvetica,sans-Serif" font-size="10.00">xiiTexture3DResource</text>
</a>
</g>
</g>
<!-- Node1&#45;&gt;Node32 -->
<g id="edge31" class="edge">
<title>Node1&#45;&gt;Node32</title>
<path fill="none" stroke="midnightblue" d="M277.28,-503C278.79,-423.55 288.45,-131.43 349,-67 355.66,-59.91 364.34,-55.18 373.61,-52.06"/>
<polygon fill="midnightblue" stroke="midnightblue" points="273.77,-503.07 277.11,-513.13 280.77,-503.19 273.77,-503.07"/>
</g>
<!-- Node33 -->
<g id="node33" class="node">
<title>Node33</title>
<g id="a_node33"><a xlink:href="../../d2/d07/classxii_texture_cube_resource.htm" target="_top" xlink:title=" ">
<polygon fill="white" stroke="black" points="368.5,-0.5 368.5,-19.5 502.5,-19.5 502.5,-0.5 368.5,-0.5"/>
<text text-anchor="middle" x="435.5" y="-7.5" font-family="Helvetica,sans-Serif" font-size="10.00">xiiTextureCubeResource</text>
</a>
</g>
</g>
<!-- Node1&#45;&gt;Node33 -->
<g id="edge32" class="edge">
<title>Node1&#45;&gt;Node33</title>
<path fill="none" stroke="midnightblue" d="M277.01,-502.97C277.46,-419.38 283.52,-99.51 349,-29 354.38,-23.21 361.1,-18.98 368.4,-15.93"/>
<polygon fill="midnightblue" stroke="midnightblue" points="273.51,-503.13 276.98,-513.14 280.51,-503.15 273.51,-503.13"/>
</g>
<!-- Node2 -->
<g id="node2" class="node">
<title>Node2</title>
<g id="a_node2"><a xlink:href="../../dc/d71/classxii_reflected_class.htm" target="_top" xlink:title="All classes that should be dynamically reflectable, need to be derived from this base class.">
<polygon fill="white" stroke="black" points="102,-513.5 102,-532.5 203,-532.5 203,-513.5 102,-513.5"/>
<text text-anchor="middle" x="152.5" y="-520.5" font-family="Helvetica,sans-Serif" font-size="10.00">xiiReflectedClass</text>
</a>
</g>
</g>
<!-- Node2&#45;&gt;Node1 -->
<g id="edge1" class="edge">
<title>Node2&#45;&gt;Node1</title>
<path fill="none" stroke="midnightblue" d="M213.43,-523C222.13,-523 230.85,-523 238.88,-523"/>
<polygon fill="midnightblue" stroke="midnightblue" points="213.27,-519.5 203.27,-523 213.27,-526.5 213.27,-519.5"/>
</g>
<!-- Node3 -->
<g id="node3" class="node">
<title>Node3</title>
<g id="a_node3"><a xlink:href="../../d2/d38/classxii_no_base.htm" target="_top" xlink:title="Dummy type to pass to templates and macros that expect a base type for a class that has no base.">
<polygon fill="white" stroke="black" points="0,-513.5 0,-532.5 66,-532.5 66,-513.5 0,-513.5"/>
<text text-anchor="middle" x="33" y="-520.5" font-family="Helvetica,sans-Serif" font-size="10.00">xiiNoBase</text>
</a>
</g>
</g>
<!-- Node3&#45;&gt;Node2 -->
<g id="edge2" class="edge">
<title>Node3&#45;&gt;Node2</title>
<path fill="none" stroke="midnightblue" d="M76.27,-523C84.54,-523 93.29,-523 101.78,-523"/>
<polygon fill="midnightblue" stroke="midnightblue" points="76.11,-519.5 66.11,-523 76.11,-526.5 76.11,-519.5"/>
</g>
<!-- Node24 -->
<g id="node24" class="node">
<title>Node24</title>
<g id="a_node24"><a xlink:href="../../d6/d14/classxii_visual_script_class_resource.htm" target="_top" xlink:title=" ">
<polygon fill="white" stroke="black" points="563,-304.5 563,-323.5 721,-323.5 721,-304.5 563,-304.5"/>
<text text-anchor="middle" x="642" y="-311.5" font-family="Helvetica,sans-Serif" font-size="10.00">xiiVisualScriptClassResource</text>
</a>
</g>
</g>
<!-- Node23&#45;&gt;Node24 -->
<g id="edge23" class="edge">
<title>Node23&#45;&gt;Node24</title>
<path fill="none" stroke="midnightblue" d="M510,-314C527.1,-314 545.37,-314 562.66,-314"/>
<polygon fill="midnightblue" stroke="midnightblue" points="509.53,-310.5 499.53,-314 509.53,-317.5 509.53,-310.5"/>
</g>
<!-- Node31 -->
<g id="node31" class="node">
<title>Node31</title>
<g id="a_node31"><a xlink:href="../../d5/d63/classxii_render_to_texture2_d_resource.htm" target="_top" xlink:title=" ">
<polygon fill="white" stroke="black" points="558,-76.5 558,-95.5 726,-95.5 726,-76.5 558,-76.5"/>
<text text-anchor="middle" x="642" y="-83.5" font-family="Helvetica,sans-Serif" font-size="10.00">xiiRenderToTexture2DResource</text>
</a>
</g>
</g>
<!-- Node30&#45;&gt;Node31 -->
<g id="edge30" class="edge">
<title>Node30&#45;&gt;Node31</title>
<path fill="none" stroke="midnightblue" d="M507.05,-86C523.44,-86 541.03,-86 557.89,-86"/>
<polygon fill="midnightblue" stroke="midnightblue" points="507.03,-82.5 497.03,-86 507.03,-89.5 507.03,-82.5"/>
</g>
</g>
</svg>
        <g id="navigator" transform="translate(0 0)" fill="#404254">
                <rect fill="#f2f5e9" fill-opacity="0.5" stroke="#606060" stroke-width=".5" x="0" y="0" width="60" height="60"/>
                <use id="zoomplus" xlink:href="#zoomPlus" x="17" y="9" onmousedown="handleZoom(evt,'in')"/>
                <use id="zoomminus" xlink:href="#zoomMin" x="42" y="9" onmousedown="handleZoom(evt,'out')"/>
                <use id="reset" xlink:href="#resetDef" x="30" y="36" onmousedown="handleReset()"/>
                <g id="arrowUp" xlink:href="#dirArrow" transform="translate(30 24)" onmousedown="handlePan(0,-1)">
                  <use xlink:href="#rim" fill="#404040">
                        <set attributeName="fill" to="#808080" begin="arrowUp.mouseover" end="arrowUp.mouseout"/>
                  </use>
                  <path fill="none" stroke="white" stroke-width="1.5" d="M0,-3.0v7 M-2.5,-0.5L0,-3.0L2.5,-0.5"/>
                </g>
                <g id="arrowRight" xlink:href="#dirArrow" transform="rotate(90) translate(36 -43)" onmousedown="handlePan(1,0)">
                  <use xlink:href="#rim" fill="#404040">
                        <set attributeName="fill" to="#808080" begin="arrowRight.mouseover" end="arrowRight.mouseout"/>
                  </use>
                  <path fill="none" stroke="white" stroke-width="1.5" d="M0,-3.0v7 M-2.5,-0.5L0,-3.0L2.5,-0.5"/>
                </g>
                <g id="arrowDown" xlink:href="#dirArrow" transform="rotate(180) translate(-30 -48)" onmousedown="handlePan(0,1)">
                  <use xlink:href="#rim" fill="#404040">
                        <set attributeName="fill" to="#808080" begin="arrowDown.mouseover" end="arrowDown.mouseout"/>
                  </use>
                  <path fill="none" stroke="white" stroke-width="1.5" d="M0,-3.0v7 M-2.5,-0.5L0,-3.0L2.5,-0.5"/>
                </g>
                <g id="arrowLeft" xlink:href="#dirArrow" transform="rotate(270) translate(-36 17)" onmousedown="handlePan(-1,0)">
                  <use xlink:href="#rim" fill="#404040">
                        <set attributeName="fill" to="#808080" begin="arrowLeft.mouseover" end="arrowLeft.mouseout"/>
                  </use>
                  <path fill="none" stroke="white" stroke-width="1.5" d="M0,-3.0v7 M-2.5,-0.5L0,-3.0L2.5,-0.5"/>
                </g>
        </g>
        <svg viewBox="0 0 15 15" width="100%" height="30px" preserveAspectRatio="xMaxYMin meet">
         <g id="arrow_out" transform="scale(0.3 0.3)">
          <a xlink:href="classxii_resource__inherit__graph_org.svg" target="_base">
           <rect id="button" ry="5" rx="5" y="6" x="6" height="38" width="38"
                fill="#f2f5e9" fill-opacity="0.5" stroke="#606060" stroke-width="1.0"/>
           <path id="arrow"
             d="M 11.500037,31.436501 C 11.940474,20.09759 22.043105,11.32322 32.158766,21.979434 L 37.068811,17.246167 C 37.068811,17.246167 37.088388,32 37.088388,32 L 22.160133,31.978069 C 22.160133,31.978069 26.997745,27.140456 26.997745,27.140456 C 18.528582,18.264221 13.291696,25.230495 11.500037,31.436501 z"
             style="fill:#404040;"/>
          </a>
         </g>
        </svg>
</svg>
