<?xml version="1.0" encoding="UTF-8" standalone="no"?>
<!DOCTYPE svg PUBLIC "-//W3C//DTD SVG 1.1//EN"
 "http://www.w3.org/Graphics/SVG/1.1/DTD/svg11.dtd">
<!-- Generated by graphviz version 2.43.0 (0)
 -->
<!-- Title: xiiDocumentNodeManager Pages: 1 -->
<svg width="735pt" height="175pt"
 viewBox="0.00 0.00 735.00 175.00" xmlns="http://www.w3.org/2000/svg" xmlns:xlink="http://www.w3.org/1999/xlink">
<g id="graph0" class="graph" transform="scale(1 1) rotate(0) translate(4 171)">
<title>xiiDocumentNodeManager</title>
<!-- Node1 -->
<g id="Node000001" class="node">
<title>Node1</title>
<g id="a_Node000001"><a xlink:title=" ">
<polygon fill="#999999" stroke="#666666" points="336,-93 189,-93 189,-74 336,-74 336,-93"/>
<text text-anchor="middle" x="262.5" y="-81" font-family="Helvetica,sans-Serif" font-size="10.00">xiiDocumentNodeManager</text>
</a>
</g>
</g>
<!-- Node3 -->
<g id="Node000003" class="node">
<title>Node3</title>
<g id="a_Node000003"><a xlink:href="../../dc/d7f/classxii_animation_graph_node_manager.htm" target="_top" xlink:title=" ">
<polygon fill="white" stroke="#bfbfbf" points="548,-167 372,-167 372,-148 548,-148 548,-167"/>
<text text-anchor="middle" x="460" y="-155" font-family="Helvetica,sans-Serif" font-size="10.00">xiiAnimationGraphNodeManager</text>
</a>
</g>
</g>
<!-- Node1&#45;&gt;Node3 -->
<g id="edge2_Node000001_Node000003" class="edge">
<title>Node1&#45;&gt;Node3</title>
<g id="a_edge2_Node000001_Node000003"><a xlink:title=" ">
<path fill="none" stroke="#63b8ff" d="M287.45,-98.28C308.88,-110.92 341.54,-128.72 372,-139.5 381.45,-142.85 391.71,-145.65 401.76,-147.98"/>
<polygon fill="#63b8ff" stroke="#63b8ff" points="289.09,-95.19 278.71,-93.05 285.49,-101.19 289.09,-95.19"/>
</a>
</g>
</g>
<!-- Node4 -->
<g id="Node000004" class="node">
<title>Node4</title>
<g id="a_Node000004"><a xlink:href="../../d3/d1c/classxii_render_pipeline_node_manager.htm" target="_top" xlink:title=" ">
<polygon fill="white" stroke="#bfbfbf" points="545,-130 375,-130 375,-111 545,-111 545,-130"/>
<text text-anchor="middle" x="460" y="-118" font-family="Helvetica,sans-Serif" font-size="10.00">xiiRenderPipelineNodeManager</text>
</a>
</g>
</g>
<!-- Node1&#45;&gt;Node4 -->
<g id="edge3_Node000001_Node000004" class="edge">
<title>Node1&#45;&gt;Node4</title>
<g id="a_edge3_Node000001_Node000004"><a xlink:title=" ">
<path fill="none" stroke="#63b8ff" d="M323.99,-94.95C351.09,-100.08 382.68,-106.06 408.49,-110.94"/>
<polygon fill="#63b8ff" stroke="#63b8ff" points="324.32,-91.45 313.85,-93.03 323.02,-98.33 324.32,-91.45"/>
</a>
</g>
</g>
<!-- Node5 -->
<g id="Node000005" class="node">
<title>Node5</title>
<g id="a_Node000005"><a xlink:href="../../d0/d88/classxii_state_machine_node_manager.htm" target="_top" xlink:title=" ">
<polygon fill="white" stroke="#bfbfbf" points="542,-93 378,-93 378,-74 542,-74 542,-93"/>
<text text-anchor="middle" x="460" y="-81" font-family="Helvetica,sans-Serif" font-size="10.00">xiiStateMachineNodeManager</text>
</a>
</g>
</g>
<!-- Node1&#45;&gt;Node5 -->
<g id="edge4_Node000001_Node000005" class="edge">
<title>Node1&#45;&gt;Node5</title>
<g id="a_edge4_Node000001_Node000005"><a xlink:title=" ">
<path fill="none" stroke="#63b8ff" d="M346.32,-83.5C356.71,-83.5 367.34,-83.5 377.71,-83.5"/>
<polygon fill="#63b8ff" stroke="#63b8ff" points="346.02,-80 336.02,-83.5 346.02,-87 346.02,-80"/>
</a>
</g>
</g>
<!-- Node6 -->
<g id="Node000006" class="node">
<title>Node6</title>
<g id="a_Node000006"><a xlink:href="../../d0/de2/classxii_visual_script_node_manager.htm" target="_top" xlink:title=" ">
<polygon fill="white" stroke="#bfbfbf" points="537.5,-56 382.5,-56 382.5,-37 537.5,-37 537.5,-56"/>
<text text-anchor="middle" x="460" y="-44" font-family="Helvetica,sans-Serif" font-size="10.00">xiiVisualScriptNodeManager</text>
</a>
</g>
</g>
<!-- Node1&#45;&gt;Node6 -->
<g id="edge5_Node000001_Node000006" class="edge">
<title>Node1&#45;&gt;Node6</title>
<g id="a_edge5_Node000001_Node000006"><a xlink:title=" ">
<path fill="none" stroke="#63b8ff" d="M323.99,-72.05C351.09,-66.92 382.68,-60.94 408.49,-56.06"/>
<polygon fill="#63b8ff" stroke="#63b8ff" points="323.02,-68.67 313.85,-73.97 324.32,-75.55 323.02,-68.67"/>
</a>
</g>
</g>
<!-- Node7 -->
<g id="Node000007" class="node">
<title>Node7</title>
<g id="a_Node000007"><a xlink:href="../../d5/dec/classxii_visual_shader_node_manager.htm" target="_top" xlink:title=" ">
<polygon fill="white" stroke="#bfbfbf" points="540.5,-19 379.5,-19 379.5,0 540.5,0 540.5,-19"/>
<text text-anchor="middle" x="460" y="-7" font-family="Helvetica,sans-Serif" font-size="10.00">xiiVisualShaderNodeManager</text>
</a>
</g>
</g>
<!-- Node1&#45;&gt;Node7 -->
<g id="edge6_Node000001_Node000007" class="edge">
<title>Node1&#45;&gt;Node7</title>
<g id="a_edge6_Node000001_Node000007"><a xlink:title=" ">
<path fill="none" stroke="#63b8ff" d="M287.45,-68.72C308.88,-56.08 341.54,-38.28 372,-27.5 381.45,-24.15 391.71,-21.35 401.76,-19.02"/>
<polygon fill="#63b8ff" stroke="#63b8ff" points="285.49,-65.81 278.71,-73.95 289.09,-71.81 285.49,-65.81"/>
</a>
</g>
</g>
<!-- Node2 -->
<g id="Node000002" class="node">
<title>Node2</title>
<g id="a_Node000002"><a xlink:href="../../d2/d8c/classxii_document_object_manager.htm" target="_top" xlink:title="Represents to content of a document. Every document has exactly one root object under which all objec...">
<polygon fill="white" stroke="#666666" points="153,-93 0,-93 0,-74 153,-74 153,-93"/>
<text text-anchor="middle" x="76.5" y="-81" font-family="Helvetica,sans-Serif" font-size="10.00">xiiDocumentObjectManager</text>
</a>
</g>
</g>
<!-- Node2&#45;&gt;Node1 -->
<g id="edge1_Node000001_Node000002" class="edge">
<title>Node2&#45;&gt;Node1</title>
<g id="a_edge1_Node000001_Node000002"><a xlink:title=" ">
<path fill="none" stroke="#63b8ff" d="M163.16,-83.5C171.74,-83.5 180.4,-83.5 188.83,-83.5"/>
<polygon fill="#63b8ff" stroke="#63b8ff" points="163.14,-80 153.14,-83.5 163.14,-87 163.14,-80"/>
</a>
</g>
</g>
<!-- Node8 -->
<g id="Node000008" class="node">
<title>Node8</title>
<g id="a_Node000008"><a xlink:href="../../db/d4c/classxii_material_object_manager.htm" target="_top" xlink:title=" ">
<polygon fill="white" stroke="#bfbfbf" points="727,-19 584,-19 584,0 727,0 727,-19"/>
<text text-anchor="middle" x="655.5" y="-7" font-family="Helvetica,sans-Serif" font-size="10.00">xiiMaterialObjectManager</text>
</a>
</g>
</g>
<!-- Node7&#45;&gt;Node8 -->
<g id="edge7_Node000007_Node000008" class="edge">
<title>Node7&#45;&gt;Node8</title>
<g id="a_edge7_Node000007_Node000008"><a xlink:title=" ">
<path fill="none" stroke="#63b8ff" d="M550.73,-9.5C561.87,-9.5 573.14,-9.5 583.94,-9.5"/>
<polygon fill="#63b8ff" stroke="#63b8ff" points="550.54,-6 540.54,-9.5 550.54,-13 550.54,-6"/>
</a>
</g>
</g>
</g>
</svg>
