<?xml version="1.0" encoding="UTF-8" standalone="no"?>
<!DOCTYPE svg PUBLIC "-//W3C//DTD SVG 1.1//EN"
 "http://www.w3.org/Graphics/SVG/1.1/DTD/svg11.dtd">
<!-- Generated by graphviz version 2.43.0 (0)
 -->
<!-- Title: xiiImageConversionStepDecompressBlocks Pages: 1 -->
<!--zoomable 333 -->
<svg id="main" version="1.1" xmlns="http://www.w3.org/2000/svg" xmlns:xlink="http://www.w3.org/1999/xlink" xml:space="preserve" onload="init(evt)">
<style type="text/css"><![CDATA[
.edge:hover path { stroke: red; }
.edge:hover polygon { stroke: red; fill: red; }
]]></style>
<script type="text/javascript"><![CDATA[
var edges = document.getElementsByTagName('g');
if (edges && edges.length) {
  for (var i=0;i<edges.length;i++) {
    if (edges[i].id.substr(0,4)=='edge') {
      edges[i].setAttribute('class','edge');
    }
  }
}
]]></script>
        <defs>
                <circle id="rim" cx="0" cy="0" r="7"/>
                <circle id="rim2" cx="0" cy="0" r="3.5"/>
                <g id="zoomPlus">
                        <use xlink:href="#rim" fill="#404040">
                                <set attributeName="fill" to="#808080" begin="zoomplus.mouseover" end="zoomplus.mouseout"/>
                        </use>
                        <path d="M-4,0h8M0,-4v8" fill="none" stroke="white" stroke-width="1.5" pointer-events="none"/>
                </g>
                <g id="zoomMin">
                        <use xlink:href="#rim" fill="#404040">
                                <set attributeName="fill" to="#808080" begin="zoomminus.mouseover" end="zoomminus.mouseout"/>
                        </use>
                        <path d="M-4,0h8" fill="none" stroke="white" stroke-width="1.5" pointer-events="none"/>
                </g>
                <g id="dirArrow">
                        <path fill="none" stroke="white" stroke-width="1.5" d="M0,-3.0v7 M-2.5,-0.5L0,-3.0L2.5,-0.5"/>
                </g>
               <g id="resetDef">
                       <use xlink:href="#rim2" fill="#404040">
                               <set attributeName="fill" to="#808080" begin="reset.mouseover" end="reset.mouseout"/>
                       </use>
               </g>
        </defs>

<script type="text/javascript">
var viewWidth = 861;
var viewHeight = 333;
var sectionId = 'dynsection-0';
</script>
<script xlink:href="../../svgpan.js"/>
<svg id="graph" class="graph">
<g id="viewport">
<title>xiiImageConversionStepDecompressBlocks</title>
<polygon fill="white" stroke="transparent" points="-4,4 -4,-329 857,-329 857,4 -4,4"/>
<!-- Node1 -->
<g id="node1" class="node">
<title>Node1</title>
<g id="a_node1"><a xlink:title="Interface for a single image conversion step where the source format is compressed and the target for...">
<polygon fill="#bfbfbf" stroke="black" points="506,-147.5 506,-177.5 703,-177.5 703,-147.5 506,-147.5"/>
<text text-anchor="start" x="514" y="-165.5" font-family="Helvetica,sans-Serif" font-size="10.00">xiiImageConversionStepDecompress</text>
<text text-anchor="middle" x="604.5" y="-154.5" font-family="Helvetica,sans-Serif" font-size="10.00">Blocks</text>
</a>
</g>
</g>
<!-- Node5 -->
<g id="node5" class="node">
<title>Node5</title>
<g id="a_node5"><a xlink:title=" ">
<polygon fill="white" stroke="#bfbfbf" points="739,-294.5 739,-324.5 853,-324.5 853,-294.5 739,-294.5"/>
<text text-anchor="start" x="747" y="-312.5" font-family="Helvetica,sans-Serif" font-size="10.00">xiiImageConversion</text>
<text text-anchor="middle" x="796" y="-301.5" font-family="Helvetica,sans-Serif" font-size="10.00">_BC1_RGBA</text>
</a>
</g>
</g>
<!-- Node1&#45;&gt;Node5 -->
<g id="edge4" class="edge">
<title>Node1&#45;&gt;Node5</title>
<path fill="none" stroke="midnightblue" d="M625.58,-185.21C650.19,-211.97 694.17,-256.47 739,-285.5 744.06,-288.78 749.64,-291.78 755.27,-294.48"/>
<polygon fill="midnightblue" stroke="midnightblue" points="627.9,-182.56 618.59,-177.51 622.72,-187.26 627.9,-182.56"/>
</g>
<!-- Node6 -->
<g id="node6" class="node">
<title>Node6</title>
<g id="a_node6"><a xlink:title=" ">
<polygon fill="white" stroke="#bfbfbf" points="739,-245.5 739,-275.5 853,-275.5 853,-245.5 739,-245.5"/>
<text text-anchor="start" x="747" y="-263.5" font-family="Helvetica,sans-Serif" font-size="10.00">xiiImageConversion</text>
<text text-anchor="middle" x="796" y="-252.5" font-family="Helvetica,sans-Serif" font-size="10.00">_BC2_RGBA</text>
</a>
</g>
</g>
<!-- Node1&#45;&gt;Node6 -->
<g id="edge5" class="edge">
<title>Node1&#45;&gt;Node6</title>
<path fill="none" stroke="midnightblue" d="M640.11,-182.95C666.76,-198.39 704.73,-219.71 739,-236.5 745.17,-239.52 751.82,-242.56 758.31,-245.41"/>
<polygon fill="midnightblue" stroke="midnightblue" points="641.58,-179.76 631.18,-177.75 638.06,-185.81 641.58,-179.76"/>
</g>
<!-- Node7 -->
<g id="node7" class="node">
<title>Node7</title>
<g id="a_node7"><a xlink:title=" ">
<polygon fill="white" stroke="#bfbfbf" points="739,-196.5 739,-226.5 853,-226.5 853,-196.5 739,-196.5"/>
<text text-anchor="start" x="747" y="-214.5" font-family="Helvetica,sans-Serif" font-size="10.00">xiiImageConversion</text>
<text text-anchor="middle" x="796" y="-203.5" font-family="Helvetica,sans-Serif" font-size="10.00">_BC3_RGBA</text>
</a>
</g>
</g>
<!-- Node1&#45;&gt;Node7 -->
<g id="edge6" class="edge">
<title>Node1&#45;&gt;Node7</title>
<path fill="none" stroke="midnightblue" d="M673.36,-180.05C694.85,-185.6 718.35,-191.68 738.91,-197"/>
<polygon fill="midnightblue" stroke="midnightblue" points="674.2,-176.65 663.64,-177.53 672.45,-183.43 674.2,-176.65"/>
</g>
<!-- Node8 -->
<g id="node8" class="node">
<title>Node8</title>
<g id="a_node8"><a xlink:title=" ">
<polygon fill="white" stroke="#bfbfbf" points="739,-147.5 739,-177.5 853,-177.5 853,-147.5 739,-147.5"/>
<text text-anchor="start" x="747" y="-165.5" font-family="Helvetica,sans-Serif" font-size="10.00">xiiImageConversion</text>
<text text-anchor="middle" x="796" y="-154.5" font-family="Helvetica,sans-Serif" font-size="10.00">_BC4_R</text>
</a>
</g>
</g>
<!-- Node1&#45;&gt;Node8 -->
<g id="edge7" class="edge">
<title>Node1&#45;&gt;Node8</title>
<path fill="none" stroke="midnightblue" d="M713.04,-162.5C721.86,-162.5 730.54,-162.5 738.75,-162.5"/>
<polygon fill="midnightblue" stroke="midnightblue" points="713.03,-159 703.03,-162.5 713.03,-166 713.03,-159"/>
</g>
<!-- Node9 -->
<g id="node9" class="node">
<title>Node9</title>
<g id="a_node9"><a xlink:title=" ">
<polygon fill="white" stroke="#bfbfbf" points="739,-98.5 739,-128.5 853,-128.5 853,-98.5 739,-98.5"/>
<text text-anchor="start" x="747" y="-116.5" font-family="Helvetica,sans-Serif" font-size="10.00">xiiImageConversion</text>
<text text-anchor="middle" x="796" y="-105.5" font-family="Helvetica,sans-Serif" font-size="10.00">_BC5_RG</text>
</a>
</g>
</g>
<!-- Node1&#45;&gt;Node9 -->
<g id="edge8" class="edge">
<title>Node1&#45;&gt;Node9</title>
<path fill="none" stroke="midnightblue" d="M673.36,-144.95C694.85,-139.4 718.35,-133.32 738.91,-128"/>
<polygon fill="midnightblue" stroke="midnightblue" points="672.45,-141.57 663.64,-147.47 674.2,-148.35 672.45,-141.57"/>
</g>
<!-- Node10 -->
<g id="node10" class="node">
<title>Node10</title>
<g id="a_node10"><a xlink:title=" ">
<polygon fill="white" stroke="#bfbfbf" points="739,-49.5 739,-79.5 853,-79.5 853,-49.5 739,-49.5"/>
<text text-anchor="start" x="747" y="-67.5" font-family="Helvetica,sans-Serif" font-size="10.00">xiiImageConversion</text>
<text text-anchor="middle" x="796" y="-56.5" font-family="Helvetica,sans-Serif" font-size="10.00">_BC6_RGB</text>
</a>
</g>
</g>
<!-- Node1&#45;&gt;Node10 -->
<g id="edge9" class="edge">
<title>Node1&#45;&gt;Node10</title>
<path fill="none" stroke="midnightblue" d="M640.11,-142.05C666.76,-126.61 704.73,-105.29 739,-88.5 745.17,-85.48 751.82,-82.44 758.31,-79.59"/>
<polygon fill="midnightblue" stroke="midnightblue" points="638.06,-139.19 631.18,-147.25 641.58,-145.24 638.06,-139.19"/>
</g>
<!-- Node11 -->
<g id="node11" class="node">
<title>Node11</title>
<g id="a_node11"><a xlink:title=" ">
<polygon fill="white" stroke="#bfbfbf" points="739,-0.5 739,-30.5 853,-30.5 853,-0.5 739,-0.5"/>
<text text-anchor="start" x="747" y="-18.5" font-family="Helvetica,sans-Serif" font-size="10.00">xiiImageConversion</text>
<text text-anchor="middle" x="796" y="-7.5" font-family="Helvetica,sans-Serif" font-size="10.00">_BC7_RGBA</text>
</a>
</g>
</g>
<!-- Node1&#45;&gt;Node11 -->
<g id="edge10" class="edge">
<title>Node1&#45;&gt;Node11</title>
<path fill="none" stroke="midnightblue" d="M625.58,-139.79C650.19,-113.03 694.17,-68.53 739,-39.5 744.06,-36.22 749.64,-33.22 755.27,-30.52"/>
<polygon fill="midnightblue" stroke="midnightblue" points="622.72,-137.74 618.59,-147.49 627.9,-142.44 622.72,-137.74"/>
</g>
<!-- Node2 -->
<g id="node2" class="node">
<title>Node2</title>
<g id="a_node2"><a xlink:href="../../dc/d44/classxii_image_conversion_step.htm" target="_top" xlink:title="Interface for a single image conversion step.">
<polygon fill="white" stroke="black" points="334,-153 334,-172 470,-172 470,-153 334,-153"/>
<text text-anchor="middle" x="402" y="-160" font-family="Helvetica,sans-Serif" font-size="10.00">xiiImageConversionStep</text>
</a>
</g>
</g>
<!-- Node2&#45;&gt;Node1 -->
<g id="edge1" class="edge">
<title>Node2&#45;&gt;Node1</title>
<path fill="none" stroke="midnightblue" d="M480.16,-162.5C488.56,-162.5 497.19,-162.5 505.8,-162.5"/>
<polygon fill="midnightblue" stroke="midnightblue" points="480.04,-159 470.04,-162.5 480.04,-166 480.04,-159"/>
</g>
<!-- Node3 -->
<g id="node3" class="node">
<title>Node3</title>
<g id="a_node3"><a xlink:href="../../dc/d54/classxii_enumerable.htm" target="_top" xlink:title=" ">
<polygon fill="white" stroke="black" points="102,-147.5 102,-177.5 298,-177.5 298,-147.5 102,-147.5"/>
<text text-anchor="start" x="110" y="-165.5" font-family="Helvetica,sans-Serif" font-size="10.00">xiiEnumerable&lt; xiiImageConversion</text>
<text text-anchor="middle" x="200" y="-154.5" font-family="Helvetica,sans-Serif" font-size="10.00">Step &gt;</text>
</a>
</g>
</g>
<!-- Node3&#45;&gt;Node2 -->
<g id="edge2" class="edge">
<title>Node3&#45;&gt;Node2</title>
<path fill="none" stroke="midnightblue" d="M308.31,-162.5C317.02,-162.5 325.66,-162.5 333.95,-162.5"/>
<polygon fill="midnightblue" stroke="midnightblue" points="308.07,-159 298.07,-162.5 308.07,-166 308.07,-159"/>
</g>
<!-- Node4 -->
<g id="node4" class="node">
<title>Node4</title>
<g id="a_node4"><a xlink:href="../../d2/d38/classxii_no_base.htm" target="_top" xlink:title="Dummy type to pass to templates and macros that expect a base type for a class that has no base.">
<polygon fill="white" stroke="black" points="0,-153 0,-172 66,-172 66,-153 0,-153"/>
<text text-anchor="middle" x="33" y="-160" font-family="Helvetica,sans-Serif" font-size="10.00">xiiNoBase</text>
</a>
</g>
</g>
<!-- Node4&#45;&gt;Node3 -->
<g id="edge3" class="edge">
<title>Node4&#45;&gt;Node3</title>
<path fill="none" stroke="midnightblue" d="M76.26,-162.5C84.23,-162.5 92.86,-162.5 101.72,-162.5"/>
<polygon fill="midnightblue" stroke="midnightblue" points="76.21,-159 66.21,-162.5 76.21,-166 76.21,-159"/>
</g>
</g>
</svg>
        <g id="navigator" transform="translate(0 0)" fill="#404254">
                <rect fill="#f2f5e9" fill-opacity="0.5" stroke="#606060" stroke-width=".5" x="0" y="0" width="60" height="60"/>
                <use id="zoomplus" xlink:href="#zoomPlus" x="17" y="9" onmousedown="handleZoom(evt,'in')"/>
                <use id="zoomminus" xlink:href="#zoomMin" x="42" y="9" onmousedown="handleZoom(evt,'out')"/>
                <use id="reset" xlink:href="#resetDef" x="30" y="36" onmousedown="handleReset()"/>
                <g id="arrowUp" xlink:href="#dirArrow" transform="translate(30 24)" onmousedown="handlePan(0,-1)">
                  <use xlink:href="#rim" fill="#404040">
                        <set attributeName="fill" to="#808080" begin="arrowUp.mouseover" end="arrowUp.mouseout"/>
                  </use>
                  <path fill="none" stroke="white" stroke-width="1.5" d="M0,-3.0v7 M-2.5,-0.5L0,-3.0L2.5,-0.5"/>
                </g>
                <g id="arrowRight" xlink:href="#dirArrow" transform="rotate(90) translate(36 -43)" onmousedown="handlePan(1,0)">
                  <use xlink:href="#rim" fill="#404040">
                        <set attributeName="fill" to="#808080" begin="arrowRight.mouseover" end="arrowRight.mouseout"/>
                  </use>
                  <path fill="none" stroke="white" stroke-width="1.5" d="M0,-3.0v7 M-2.5,-0.5L0,-3.0L2.5,-0.5"/>
                </g>
                <g id="arrowDown" xlink:href="#dirArrow" transform="rotate(180) translate(-30 -48)" onmousedown="handlePan(0,1)">
                  <use xlink:href="#rim" fill="#404040">
                        <set attributeName="fill" to="#808080" begin="arrowDown.mouseover" end="arrowDown.mouseout"/>
                  </use>
                  <path fill="none" stroke="white" stroke-width="1.5" d="M0,-3.0v7 M-2.5,-0.5L0,-3.0L2.5,-0.5"/>
                </g>
                <g id="arrowLeft" xlink:href="#dirArrow" transform="rotate(270) translate(-36 17)" onmousedown="handlePan(-1,0)">
                  <use xlink:href="#rim" fill="#404040">
                        <set attributeName="fill" to="#808080" begin="arrowLeft.mouseover" end="arrowLeft.mouseout"/>
                  </use>
                  <path fill="none" stroke="white" stroke-width="1.5" d="M0,-3.0v7 M-2.5,-0.5L0,-3.0L2.5,-0.5"/>
                </g>
        </g>
        <svg viewBox="0 0 15 15" width="100%" height="30px" preserveAspectRatio="xMaxYMin meet">
         <g id="arrow_out" transform="scale(0.3 0.3)">
          <a xlink:href="classxii_image_conversion_step_decompress_blocks__inherit__graph_org.svg" target="_base">
           <rect id="button" ry="5" rx="5" y="6" x="6" height="38" width="38"
                fill="#f2f5e9" fill-opacity="0.5" stroke="#606060" stroke-width="1.0"/>
           <path id="arrow"
             d="M 11.500037,31.436501 C 11.940474,20.09759 22.043105,11.32322 32.158766,21.979434 L 37.068811,17.246167 C 37.068811,17.246167 37.088388,32 37.088388,32 L 22.160133,31.978069 C 22.160133,31.978069 26.997745,27.140456 26.997745,27.140456 C 18.528582,18.264221 13.291696,25.230495 11.500037,31.436501 z"
             style="fill:#404040;"/>
          </a>
         </g>
        </svg>
</svg>
