<?xml version="1.0" encoding="UTF-8" standalone="no"?>
<!DOCTYPE svg PUBLIC "-//W3C//DTD SVG 1.1//EN"
 "http://www.w3.org/Graphics/SVG/1.1/DTD/svg11.dtd">
<!-- Generated by graphviz version 2.43.0 (0)
 -->
<!-- Title: xiiAccessorProperty&lt; Class, Type &gt; Pages: 1 -->
<svg width="172pt" height="229pt"
 viewBox="0.00 0.00 172.00 229.00" xmlns="http://www.w3.org/2000/svg" xmlns:xlink="http://www.w3.org/1999/xlink">
<g id="graph0" class="graph" transform="scale(1 1) rotate(0) translate(4 225)">
<title>xiiAccessorProperty&lt; Class, Type &gt;</title>
<polygon fill="white" stroke="transparent" points="-4,4 -4,-225 168,-225 168,4 -4,4"/>
<!-- Node1 -->
<g id="node1" class="node">
<title>Node1</title>
<g id="a_node1"><a xlink:title="[internal] An implementation of xiiTypedMemberProperty that uses custom getter / setter functions to ...">
<polygon fill="#bfbfbf" stroke="black" points="25.5,-0.5 25.5,-30.5 138.5,-30.5 138.5,-0.5 25.5,-0.5"/>
<text text-anchor="start" x="33.5" y="-18.5" font-family="Helvetica,sans-Serif" font-size="10.00">xiiAccessorProperty</text>
<text text-anchor="middle" x="82" y="-7.5" font-family="Helvetica,sans-Serif" font-size="10.00">&lt; Class, Type &gt;</text>
</a>
</g>
</g>
<!-- Node2 -->
<g id="node2" class="node">
<title>Node2</title>
<g id="a_node2"><a xlink:href="../../df/ddc/classxii_typed_member_property.htm" target="_top" xlink:title=" ">
<polygon fill="white" stroke="black" points="0,-67.5 0,-108.5 164,-108.5 164,-67.5 0,-67.5"/>
<text text-anchor="start" x="8" y="-96.5" font-family="Helvetica,sans-Serif" font-size="10.00">xiiTypedMemberProperty</text>
<text text-anchor="start" x="8" y="-85.5" font-family="Helvetica,sans-Serif" font-size="10.00">&lt; xiiTypeTraits&lt; Type</text>
<text text-anchor="middle" x="82" y="-74.5" font-family="Helvetica,sans-Serif" font-size="10.00"> &gt;::NonConstReferenceType &gt;</text>
</a>
</g>
</g>
<!-- Node2&#45;&gt;Node1 -->
<g id="edge1" class="edge">
<title>Node2&#45;&gt;Node1</title>
<path fill="none" stroke="midnightblue" d="M82,-57.08C82,-48.01 82,-38.45 82,-30.89"/>
<polygon fill="midnightblue" stroke="midnightblue" points="78.5,-57.36 82,-67.36 85.5,-57.36 78.5,-57.36"/>
</g>
<!-- Node3 -->
<g id="node3" class="node">
<title>Node3</title>
<g id="a_node3"><a xlink:href="../../dd/d67/classxii_abstract_member_property.htm" target="_top" xlink:title="This is the base class for all properties that are members of a class. It provides more information a...">
<polygon fill="white" stroke="black" points="6.5,-145.5 6.5,-164.5 157.5,-164.5 157.5,-145.5 6.5,-145.5"/>
<text text-anchor="middle" x="82" y="-152.5" font-family="Helvetica,sans-Serif" font-size="10.00">xiiAbstractMemberProperty</text>
</a>
</g>
</g>
<!-- Node3&#45;&gt;Node2 -->
<g id="edge2" class="edge">
<title>Node3&#45;&gt;Node2</title>
<path fill="none" stroke="midnightblue" d="M82,-135.04C82,-126.71 82,-116.94 82,-108.54"/>
<polygon fill="midnightblue" stroke="midnightblue" points="78.5,-135.23 82,-145.23 85.5,-135.23 78.5,-135.23"/>
</g>
<!-- Node4 -->
<g id="node4" class="node">
<title>Node4</title>
<g id="a_node4"><a xlink:href="../../da/d25/classxii_abstract_property.htm" target="_top" xlink:title="This is the base interface for all properties in the reflection system. It provides enough informatio...">
<polygon fill="white" stroke="black" points="27,-201.5 27,-220.5 137,-220.5 137,-201.5 27,-201.5"/>
<text text-anchor="middle" x="82" y="-208.5" font-family="Helvetica,sans-Serif" font-size="10.00">xiiAbstractProperty</text>
</a>
</g>
</g>
<!-- Node4&#45;&gt;Node3 -->
<g id="edge3" class="edge">
<title>Node4&#45;&gt;Node3</title>
<path fill="none" stroke="midnightblue" d="M82,-190.8C82,-181.91 82,-171.78 82,-164.75"/>
<polygon fill="midnightblue" stroke="midnightblue" points="78.5,-191.08 82,-201.08 85.5,-191.08 78.5,-191.08"/>
</g>
</g>
</svg>
