<?xml version="1.0" encoding="UTF-8" standalone="no"?>
<!DOCTYPE svg PUBLIC "-//W3C//DTD SVG 1.1//EN"
 "http://www.w3.org/Graphics/SVG/1.1/DTD/svg11.dtd">
<!-- Generated by graphviz version 2.43.0 (0)
 -->
<!-- Title: xiiHashSetBase&lt; KeyType, Hasher &gt; Pages: 1 -->
<svg width="371pt" height="401pt"
 viewBox="0.00 0.00 371.00 400.50" xmlns="http://www.w3.org/2000/svg" xmlns:xlink="http://www.w3.org/1999/xlink">
<g id="graph0" class="graph" transform="scale(1 1) rotate(0) translate(4 396.5)">
<title>xiiHashSetBase&lt; KeyType, Hasher &gt;</title>
<polygon fill="white" stroke="transparent" points="-4,4 -4,-396.5 367,-396.5 367,4 -4,4"/>
<!-- Node1 -->
<g id="node1" class="node">
<title>Node1</title>
<g id="a_node1"><a xlink:title="Implementation of a hashset.">
<polygon fill="#bfbfbf" stroke="black" points="0,-176 0,-206 148,-206 148,-176 0,-176"/>
<text text-anchor="start" x="8" y="-194" font-family="Helvetica,sans-Serif" font-size="10.00">xiiHashSetBase&lt; KeyType,</text>
<text text-anchor="middle" x="74" y="-183" font-family="Helvetica,sans-Serif" font-size="10.00"> Hasher &gt;</text>
</a>
</g>
</g>
<!-- Node2 -->
<g id="node2" class="node">
<title>Node2</title>
<g id="a_node2"><a xlink:href="../../d3/d8b/classxii_hash_set.htm" target="_top" xlink:title=" ">
<polygon fill="white" stroke="black" points="187.5,-362 187.5,-392 359.5,-392 359.5,-362 187.5,-362"/>
<text text-anchor="start" x="195.5" y="-380" font-family="Helvetica,sans-Serif" font-size="10.00">xiiHashSet&lt; const xiiDocument</text>
<text text-anchor="middle" x="273.5" y="-369" font-family="Helvetica,sans-Serif" font-size="10.00">Object * &gt;</text>
</a>
</g>
</g>
<!-- Node1&#45;&gt;Node2 -->
<g id="edge1" class="edge">
<title>Node1&#45;&gt;Node2</title>
<path fill="none" stroke="midnightblue" d="M85.04,-215.61C100.79,-251.13 134.69,-316.38 184,-352 189.31,-355.83 195.18,-359.08 201.31,-361.83"/>
<polygon fill="midnightblue" stroke="midnightblue" points="88.08,-213.82 80.91,-206.02 81.65,-216.59 88.08,-213.82"/>
</g>
<!-- Node3 -->
<g id="node3" class="node">
<title>Node3</title>
<g id="a_node3"><a xlink:href="../../d3/d8b/classxii_hash_set.htm" target="_top" xlink:title=" ">
<polygon fill="white" stroke="black" points="192.5,-323.5 192.5,-342.5 354.5,-342.5 354.5,-323.5 192.5,-323.5"/>
<text text-anchor="middle" x="273.5" y="-330.5" font-family="Helvetica,sans-Serif" font-size="10.00">xiiHashSet&lt; const xiiRTTI * &gt;</text>
</a>
</g>
</g>
<!-- Node1&#45;&gt;Node3 -->
<g id="edge2" class="edge">
<title>Node1&#45;&gt;Node3</title>
<path fill="none" stroke="midnightblue" d="M89.28,-214.76C107.57,-243.03 141.98,-289.46 184,-314 190.65,-317.88 198,-320.98 205.53,-323.44"/>
<polygon fill="midnightblue" stroke="midnightblue" points="92.22,-212.86 83.92,-206.28 86.3,-216.6 92.22,-212.86"/>
</g>
<!-- Node4 -->
<g id="node4" class="node">
<title>Node4</title>
<g id="a_node4"><a xlink:href="../../d3/d8b/classxii_hash_set.htm" target="_top" xlink:title=" ">
<polygon fill="white" stroke="black" points="199,-274 199,-304 348,-304 348,-274 199,-274"/>
<text text-anchor="start" x="207" y="-292" font-family="Helvetica,sans-Serif" font-size="10.00">xiiHashSet&lt; xiiComponent</text>
<text text-anchor="middle" x="273.5" y="-281" font-family="Helvetica,sans-Serif" font-size="10.00">Handle &gt;</text>
</a>
</g>
</g>
<!-- Node1&#45;&gt;Node4 -->
<g id="edge3" class="edge">
<title>Node1&#45;&gt;Node4</title>
<path fill="none" stroke="midnightblue" d="M101.03,-212.34C122.24,-228.79 153.54,-251.01 184,-265 191.38,-268.39 199.33,-271.38 207.33,-274"/>
<polygon fill="midnightblue" stroke="midnightblue" points="103.17,-209.57 93.15,-206.13 98.84,-215.07 103.17,-209.57"/>
</g>
<!-- Node5 -->
<g id="node5" class="node">
<title>Node5</title>
<g id="a_node5"><a xlink:href="../../d3/d8b/classxii_hash_set.htm" target="_top" xlink:title=" ">
<polygon fill="white" stroke="black" points="197,-225 197,-255 350,-255 350,-225 197,-225"/>
<text text-anchor="start" x="205" y="-243" font-family="Helvetica,sans-Serif" font-size="10.00">xiiHashSet&lt; xiiGameObject</text>
<text text-anchor="middle" x="273.5" y="-232" font-family="Helvetica,sans-Serif" font-size="10.00">Handle &gt;</text>
</a>
</g>
</g>
<!-- Node1&#45;&gt;Node5 -->
<g id="edge4" class="edge">
<title>Node1&#45;&gt;Node5</title>
<path fill="none" stroke="midnightblue" d="M145.44,-208.48C167.21,-213.88 190.98,-219.78 212.02,-224.99"/>
<polygon fill="midnightblue" stroke="midnightblue" points="146.15,-205.05 135.6,-206.03 144.46,-211.84 146.15,-205.05"/>
</g>
<!-- Node6 -->
<g id="node6" class="node">
<title>Node6</title>
<g id="a_node6"><a xlink:href="../../d3/d8b/classxii_hash_set.htm" target="_top" xlink:title=" ">
<polygon fill="white" stroke="black" points="184,-176 184,-206 363,-206 363,-176 184,-176"/>
<text text-anchor="start" x="192" y="-194" font-family="Helvetica,sans-Serif" font-size="10.00">xiiHashSet&lt; xiiTypelessResource</text>
<text text-anchor="middle" x="273.5" y="-183" font-family="Helvetica,sans-Serif" font-size="10.00">Handle &gt;</text>
</a>
</g>
</g>
<!-- Node1&#45;&gt;Node6 -->
<g id="edge5" class="edge">
<title>Node1&#45;&gt;Node6</title>
<path fill="none" stroke="midnightblue" d="M158.46,-191C166.9,-191 175.49,-191 183.98,-191"/>
<polygon fill="midnightblue" stroke="midnightblue" points="158.26,-187.5 148.26,-191 158.26,-194.5 158.26,-187.5"/>
</g>
<!-- Node7 -->
<g id="node7" class="node">
<title>Node7</title>
<g id="a_node7"><a xlink:href="../../d3/d8b/classxii_hash_set.htm" target="_top" xlink:title=" ">
<polygon fill="white" stroke="black" points="210.5,-137.5 210.5,-156.5 336.5,-156.5 336.5,-137.5 210.5,-137.5"/>
<text text-anchor="middle" x="273.5" y="-144.5" font-family="Helvetica,sans-Serif" font-size="10.00">xiiHashSet&lt; xiiUuid &gt;</text>
</a>
</g>
</g>
<!-- Node1&#45;&gt;Node7 -->
<g id="edge6" class="edge">
<title>Node1&#45;&gt;Node7</title>
<path fill="none" stroke="midnightblue" d="M152.39,-173.76C178.73,-167.89 207.19,-161.55 229.8,-156.51"/>
<polygon fill="midnightblue" stroke="midnightblue" points="151.42,-170.39 142.42,-175.98 152.94,-177.22 151.42,-170.39"/>
</g>
<!-- Node8 -->
<g id="node8" class="node">
<title>Node8</title>
<g id="a_node8"><a xlink:href="../../d3/d8b/classxii_hash_set.htm" target="_top" xlink:title=" ">
<polygon fill="white" stroke="black" points="204.5,-88 204.5,-118 342.5,-118 342.5,-88 204.5,-88"/>
<text text-anchor="start" x="212.5" y="-106" font-family="Helvetica,sans-Serif" font-size="10.00">xiiHashSet&lt; Connection,</text>
<text text-anchor="middle" x="273.5" y="-95" font-family="Helvetica,sans-Serif" font-size="10.00"> ConnectionHasher &gt;</text>
</a>
</g>
</g>
<!-- Node1&#45;&gt;Node8 -->
<g id="edge7" class="edge">
<title>Node1&#45;&gt;Node8</title>
<path fill="none" stroke="midnightblue" d="M106.11,-170.22C127.35,-156.75 156.52,-139.61 184,-128 192.68,-124.33 202.06,-121.03 211.35,-118.12"/>
<polygon fill="midnightblue" stroke="midnightblue" points="104.04,-167.39 97.52,-175.74 107.83,-173.28 104.04,-167.39"/>
</g>
<!-- Node9 -->
<g id="node9" class="node">
<title>Node9</title>
<g id="a_node9"><a xlink:href="../../d3/d8b/classxii_hash_set.htm" target="_top" xlink:title=" ">
<polygon fill="white" stroke="black" points="203,-39 203,-69 344,-69 344,-39 203,-39"/>
<text text-anchor="start" x="211" y="-57" font-family="Helvetica,sans-Serif" font-size="10.00">xiiHashSet&lt; xiiReflection</text>
<text text-anchor="middle" x="273.5" y="-46" font-family="Helvetica,sans-Serif" font-size="10.00">ProbeRef &gt;</text>
</a>
</g>
</g>
<!-- Node1&#45;&gt;Node9 -->
<g id="edge8" class="edge">
<title>Node1&#45;&gt;Node9</title>
<path fill="none" stroke="midnightblue" d="M91.77,-167.51C111.17,-142.05 145.42,-101.98 184,-79 190.45,-75.16 197.51,-71.89 204.75,-69.1"/>
<polygon fill="midnightblue" stroke="midnightblue" points="88.72,-165.75 85.55,-175.86 94.33,-169.94 88.72,-165.75"/>
</g>
<!-- Node10 -->
<g id="node10" class="node">
<title>Node10</title>
<g id="a_node10"><a xlink:href="../../d3/d8b/classxii_hash_set.htm" target="_top" xlink:title=" ">
<polygon fill="white" stroke="black" points="191.5,-0.5 191.5,-19.5 355.5,-19.5 355.5,-0.5 191.5,-0.5"/>
<text text-anchor="middle" x="273.5" y="-7.5" font-family="Helvetica,sans-Serif" font-size="10.00">xiiHashSet&lt; xiiHybridString &gt;</text>
</a>
</g>
</g>
<!-- Node1&#45;&gt;Node10 -->
<g id="edge9" class="edge">
<title>Node1&#45;&gt;Node10</title>
<path fill="none" stroke="midnightblue" d="M84.6,-166.5C99.95,-130.65 133.54,-64.44 184,-30 190.37,-25.65 197.55,-22.23 204.99,-19.55"/>
<polygon fill="midnightblue" stroke="midnightblue" points="81.36,-165.18 80.75,-175.75 87.82,-167.86 81.36,-165.18"/>
</g>
</g>
</svg>
