<?xml version="1.0" encoding="UTF-8" standalone="no"?>
<!DOCTYPE svg PUBLIC "-//W3C//DTD SVG 1.1//EN"
 "http://www.w3.org/Graphics/SVG/1.1/DTD/svg11.dtd">
<!-- Generated by graphviz version 2.43.0 (0)
 -->
<!-- Title: xiiReflectionProbeRenderData Pages: 1 -->
<svg width="171pt" height="192pt"
 viewBox="0.00 0.00 171.00 192.00" xmlns="http://www.w3.org/2000/svg" xmlns:xlink="http://www.w3.org/1999/xlink">
<g id="graph0" class="graph" transform="scale(1 1) rotate(0) translate(4 188)">
<title>xiiReflectionProbeRenderData</title>
<!-- Node1 -->
<g id="Node000001" class="node">
<title>Node1</title>
<g id="a_Node000001"><a xlink:title="Render data for a reflection probe.">
<polygon fill="#999999" stroke="#666666" points="163,-19 0,-19 0,0 163,0 163,-19"/>
<text text-anchor="middle" x="81.5" y="-7" font-family="Helvetica,sans-Serif" font-size="10.00">xiiReflectionProbeRenderData</text>
</a>
</g>
</g>
<!-- Node2 -->
<g id="Node000002" class="node">
<title>Node2</title>
<g id="a_Node000002"><a xlink:href="../../d8/da5/classxii_render_data.htm" target="_top" xlink:title="Base class for all render data. Render data must contain all information that is needed to render the...">
<polygon fill="white" stroke="#666666" points="124.5,-74 38.5,-74 38.5,-55 124.5,-55 124.5,-74"/>
<text text-anchor="middle" x="81.5" y="-62" font-family="Helvetica,sans-Serif" font-size="10.00">xiiRenderData</text>
</a>
</g>
</g>
<!-- Node2&#45;&gt;Node1 -->
<g id="edge1_Node000001_Node000002" class="edge">
<title>Node2&#45;&gt;Node1</title>
<g id="a_edge1_Node000001_Node000002"><a xlink:title=" ">
<path fill="none" stroke="#63b8ff" d="M81.5,-44.66C81.5,-35.93 81.5,-25.99 81.5,-19.09"/>
<polygon fill="#63b8ff" stroke="#63b8ff" points="78,-44.75 81.5,-54.75 85,-44.75 78,-44.75"/>
</a>
</g>
</g>
<!-- Node3 -->
<g id="Node000003" class="node">
<title>Node3</title>
<g id="a_Node000003"><a xlink:href="../../dc/d71/classxii_reflected_class.htm" target="_top" xlink:title="All classes that should be dynamically reflectable, need to be derived from this base class.">
<polygon fill="white" stroke="#666666" points="132,-129 31,-129 31,-110 132,-110 132,-129"/>
<text text-anchor="middle" x="81.5" y="-117" font-family="Helvetica,sans-Serif" font-size="10.00">xiiReflectedClass</text>
</a>
</g>
</g>
<!-- Node3&#45;&gt;Node2 -->
<g id="edge2_Node000002_Node000003" class="edge">
<title>Node3&#45;&gt;Node2</title>
<g id="a_edge2_Node000002_Node000003"><a xlink:title=" ">
<path fill="none" stroke="#63b8ff" d="M81.5,-99.66C81.5,-90.93 81.5,-80.99 81.5,-74.09"/>
<polygon fill="#63b8ff" stroke="#63b8ff" points="78,-99.75 81.5,-109.75 85,-99.75 78,-99.75"/>
</a>
</g>
</g>
<!-- Node4 -->
<g id="Node000004" class="node">
<title>Node4</title>
<g id="a_Node000004"><a xlink:href="../../d2/d38/classxii_no_base.htm" target="_top" xlink:title="Dummy type to pass to templates and macros that expect a base type for a class that has no base.">
<polygon fill="white" stroke="#666666" points="114.5,-184 48.5,-184 48.5,-165 114.5,-165 114.5,-184"/>
<text text-anchor="middle" x="81.5" y="-172" font-family="Helvetica,sans-Serif" font-size="10.00">xiiNoBase</text>
</a>
</g>
</g>
<!-- Node4&#45;&gt;Node3 -->
<g id="edge3_Node000003_Node000004" class="edge">
<title>Node4&#45;&gt;Node3</title>
<g id="a_edge3_Node000003_Node000004"><a xlink:title=" ">
<path fill="none" stroke="#63b8ff" d="M81.5,-154.66C81.5,-145.93 81.5,-135.99 81.5,-129.09"/>
<polygon fill="#63b8ff" stroke="#63b8ff" points="78,-154.75 81.5,-164.75 85,-154.75 78,-154.75"/>
</a>
</g>
</g>
</g>
</svg>
