<?xml version="1.0" encoding="UTF-8" standalone="no"?>
<!DOCTYPE svg PUBLIC "-//W3C//DTD SVG 1.1//EN"
 "http://www.w3.org/Graphics/SVG/1.1/DTD/svg11.dtd">
<!-- Generated by graphviz version 2.43.0 (0)
 -->
<!-- Title: xiiAnimGraphOutputPin Pages: 1 -->
<svg width="743pt" height="218pt"
 viewBox="0.00 0.00 743.00 218.00" xmlns="http://www.w3.org/2000/svg" xmlns:xlink="http://www.w3.org/1999/xlink">
<g id="graph0" class="graph" transform="scale(1 1) rotate(0) translate(4 214)">
<title>xiiAnimGraphOutputPin</title>
<polygon fill="white" stroke="transparent" points="-4,4 -4,-214 739,-214 739,4 -4,4"/>
<!-- Node1 -->
<g id="node1" class="node">
<title>Node1</title>
<g id="a_node1"><a xlink:title=" ">
<polygon fill="#bfbfbf" stroke="black" points="373,-95.5 373,-114.5 504,-114.5 504,-95.5 373,-95.5"/>
<text text-anchor="middle" x="438.5" y="-102.5" font-family="Helvetica,sans-Serif" font-size="10.00">xiiAnimGraphOutputPin</text>
</a>
</g>
</g>
<!-- Node5 -->
<g id="node5" class="node">
<title>Node5</title>
<g id="a_node5"><a xlink:href="../../d5/d9a/classxii_anim_graph_bone_weights_output_pin.htm" target="_top" xlink:title=" ">
<polygon fill="white" stroke="black" points="540,-190.5 540,-209.5 735,-209.5 735,-190.5 540,-190.5"/>
<text text-anchor="middle" x="637.5" y="-197.5" font-family="Helvetica,sans-Serif" font-size="10.00">xiiAnimGraphBoneWeightsOutputPin</text>
</a>
</g>
</g>
<!-- Node1&#45;&gt;Node5 -->
<g id="edge4" class="edge">
<title>Node1&#45;&gt;Node5</title>
<path fill="none" stroke="midnightblue" d="M456.5,-121.79C475.31,-139.35 507.3,-166.36 540,-181 548.73,-184.91 558.25,-188.01 567.81,-190.48"/>
<polygon fill="midnightblue" stroke="midnightblue" points="458.71,-119.05 449.06,-114.68 453.88,-124.12 458.71,-119.05"/>
</g>
<!-- Node6 -->
<g id="node6" class="node">
<title>Node6</title>
<g id="a_node6"><a xlink:href="../../d5/de1/classxii_anim_graph_bool_output_pin.htm" target="_top" xlink:title=" ">
<polygon fill="white" stroke="black" points="561,-152.5 561,-171.5 714,-171.5 714,-152.5 561,-152.5"/>
<text text-anchor="middle" x="637.5" y="-159.5" font-family="Helvetica,sans-Serif" font-size="10.00">xiiAnimGraphBoolOutputPin</text>
</a>
</g>
</g>
<!-- Node1&#45;&gt;Node6 -->
<g id="edge5" class="edge">
<title>Node1&#45;&gt;Node6</title>
<path fill="none" stroke="midnightblue" d="M470.84,-118.4C490.44,-126.39 516.37,-136.26 540,-143 552.73,-146.63 566.59,-149.8 579.74,-152.47"/>
<polygon fill="midnightblue" stroke="midnightblue" points="472.07,-115.12 461.49,-114.54 469.4,-121.59 472.07,-115.12"/>
</g>
<!-- Node7 -->
<g id="node7" class="node">
<title>Node7</title>
<g id="a_node7"><a xlink:href="../../d7/d9c/classxii_anim_graph_local_pose_output_pin.htm" target="_top" xlink:title=" ">
<polygon fill="white" stroke="black" points="547.5,-114.5 547.5,-133.5 727.5,-133.5 727.5,-114.5 547.5,-114.5"/>
<text text-anchor="middle" x="637.5" y="-121.5" font-family="Helvetica,sans-Serif" font-size="10.00">xiiAnimGraphLocalPoseOutputPin</text>
</a>
</g>
</g>
<!-- Node1&#45;&gt;Node7 -->
<g id="edge6" class="edge">
<title>Node1&#45;&gt;Node7</title>
<path fill="none" stroke="midnightblue" d="M514.19,-112.2C524.97,-113.24 536.15,-114.32 547.17,-115.38"/>
<polygon fill="midnightblue" stroke="midnightblue" points="514.3,-108.7 504.01,-111.22 513.62,-115.67 514.3,-108.7"/>
</g>
<!-- Node8 -->
<g id="node8" class="node">
<title>Node8</title>
<g id="a_node8"><a xlink:href="../../d6/d02/classxii_anim_graph_model_pose_output_pin.htm" target="_top" xlink:title=" ">
<polygon fill="white" stroke="black" points="545,-76.5 545,-95.5 730,-95.5 730,-76.5 545,-76.5"/>
<text text-anchor="middle" x="637.5" y="-83.5" font-family="Helvetica,sans-Serif" font-size="10.00">xiiAnimGraphModelPoseOutputPin</text>
</a>
</g>
</g>
<!-- Node1&#45;&gt;Node8 -->
<g id="edge7" class="edge">
<title>Node1&#45;&gt;Node8</title>
<path fill="none" stroke="midnightblue" d="M514.23,-97.79C524.19,-96.83 534.49,-95.84 544.69,-94.86"/>
<polygon fill="midnightblue" stroke="midnightblue" points="513.62,-94.33 504.01,-98.78 514.3,-101.3 513.62,-94.33"/>
</g>
<!-- Node9 -->
<g id="node9" class="node">
<title>Node9</title>
<g id="a_node9"><a xlink:href="../../d0/d58/classxii_anim_graph_number_output_pin.htm" target="_top" xlink:title=" ">
<polygon fill="white" stroke="black" points="552.5,-38.5 552.5,-57.5 722.5,-57.5 722.5,-38.5 552.5,-38.5"/>
<text text-anchor="middle" x="637.5" y="-45.5" font-family="Helvetica,sans-Serif" font-size="10.00">xiiAnimGraphNumberOutputPin</text>
</a>
</g>
</g>
<!-- Node1&#45;&gt;Node9 -->
<g id="edge8" class="edge">
<title>Node1&#45;&gt;Node9</title>
<path fill="none" stroke="midnightblue" d="M470.84,-91.6C490.44,-83.61 516.37,-73.74 540,-67 552.73,-63.37 566.59,-60.2 579.74,-57.53"/>
<polygon fill="midnightblue" stroke="midnightblue" points="469.4,-88.41 461.49,-95.46 472.07,-94.88 469.4,-88.41"/>
</g>
<!-- Node10 -->
<g id="node10" class="node">
<title>Node10</title>
<g id="a_node10"><a xlink:href="../../d4/d8e/classxii_anim_graph_trigger_output_pin.htm" target="_top" xlink:title=" ">
<polygon fill="white" stroke="black" points="555.5,-0.5 555.5,-19.5 719.5,-19.5 719.5,-0.5 555.5,-0.5"/>
<text text-anchor="middle" x="637.5" y="-7.5" font-family="Helvetica,sans-Serif" font-size="10.00">xiiAnimGraphTriggerOutputPin</text>
</a>
</g>
</g>
<!-- Node1&#45;&gt;Node10 -->
<g id="edge9" class="edge">
<title>Node1&#45;&gt;Node10</title>
<path fill="none" stroke="midnightblue" d="M456.5,-88.21C475.31,-70.65 507.3,-43.64 540,-29 548.73,-25.09 558.25,-21.99 567.81,-19.52"/>
<polygon fill="midnightblue" stroke="midnightblue" points="453.88,-85.88 449.06,-95.32 458.71,-90.95 453.88,-85.88"/>
</g>
<!-- Node2 -->
<g id="node2" class="node">
<title>Node2</title>
<g id="a_node2"><a xlink:href="../../dc/d71/classxii_anim_graph_pin.htm" target="_top" xlink:title=" ">
<polygon fill="white" stroke="black" points="239,-95.5 239,-114.5 337,-114.5 337,-95.5 239,-95.5"/>
<text text-anchor="middle" x="288" y="-102.5" font-family="Helvetica,sans-Serif" font-size="10.00">xiiAnimGraphPin</text>
</a>
</g>
</g>
<!-- Node2&#45;&gt;Node1 -->
<g id="edge1" class="edge">
<title>Node2&#45;&gt;Node1</title>
<path fill="none" stroke="midnightblue" d="M347.26,-105C355.63,-105 364.29,-105 372.78,-105"/>
<polygon fill="midnightblue" stroke="midnightblue" points="347.21,-101.5 337.21,-105 347.21,-108.5 347.21,-101.5"/>
</g>
<!-- Node3 -->
<g id="node3" class="node">
<title>Node3</title>
<g id="a_node3"><a xlink:href="../../dc/d71/classxii_reflected_class.htm" target="_top" xlink:title="All classes that should be dynamically reflectable, need to be derived from this base class.">
<polygon fill="white" stroke="black" points="102,-95.5 102,-114.5 203,-114.5 203,-95.5 102,-95.5"/>
<text text-anchor="middle" x="152.5" y="-102.5" font-family="Helvetica,sans-Serif" font-size="10.00">xiiReflectedClass</text>
</a>
</g>
</g>
<!-- Node3&#45;&gt;Node2 -->
<g id="edge2" class="edge">
<title>Node3&#45;&gt;Node2</title>
<path fill="none" stroke="midnightblue" d="M213.39,-105C221.82,-105 230.4,-105 238.58,-105"/>
<polygon fill="midnightblue" stroke="midnightblue" points="213.21,-101.5 203.21,-105 213.21,-108.5 213.21,-101.5"/>
</g>
<!-- Node4 -->
<g id="node4" class="node">
<title>Node4</title>
<g id="a_node4"><a xlink:href="../../d2/d38/classxii_no_base.htm" target="_top" xlink:title="Dummy type to pass to templates and macros that expect a base type for a class that has no base.">
<polygon fill="white" stroke="black" points="0,-95.5 0,-114.5 66,-114.5 66,-95.5 0,-95.5"/>
<text text-anchor="middle" x="33" y="-102.5" font-family="Helvetica,sans-Serif" font-size="10.00">xiiNoBase</text>
</a>
</g>
</g>
<!-- Node4&#45;&gt;Node3 -->
<g id="edge3" class="edge">
<title>Node4&#45;&gt;Node3</title>
<path fill="none" stroke="midnightblue" d="M76.27,-105C84.54,-105 93.29,-105 101.78,-105"/>
<polygon fill="midnightblue" stroke="midnightblue" points="76.11,-101.5 66.11,-105 76.11,-108.5 76.11,-101.5"/>
</g>
</g>
</svg>
