<?xml version="1.0" encoding="UTF-8" standalone="no"?>
<!DOCTYPE svg PUBLIC "-//W3C//DTD SVG 1.1//EN"
 "http://www.w3.org/Graphics/SVG/1.1/DTD/svg11.dtd">
<!-- Generated by graphviz version 2.43.0 (0)
 -->
<!-- Title: xiiMessageSenderBase&lt; T &gt; Pages: 1 -->
<svg width="408pt" height="333pt"
 viewBox="0.00 0.00 408.00 333.00" xmlns="http://www.w3.org/2000/svg" xmlns:xlink="http://www.w3.org/1999/xlink">
<g id="graph0" class="graph" transform="scale(1 1) rotate(0) translate(4 329)">
<title>xiiMessageSenderBase&lt; T &gt;</title>
<polygon fill="white" stroke="transparent" points="-4,4 -4,-329 404,-329 404,4 -4,4"/>
<!-- Node1 -->
<g id="node1" class="node">
<title>Node1</title>
<g id="a_node1"><a xlink:title="Base class for all message senders.">
<polygon fill="#bfbfbf" stroke="black" points="0,-153 0,-172 158,-172 158,-153 0,-153"/>
<text text-anchor="middle" x="79" y="-160" font-family="Helvetica,sans-Serif" font-size="10.00">xiiMessageSenderBase&lt; T &gt;</text>
</a>
</g>
</g>
<!-- Node2 -->
<g id="node2" class="node">
<title>Node2</title>
<g id="a_node2"><a xlink:href="../../d1/ddc/classxii_event_message_sender.htm" target="_top" xlink:title=" ">
<polygon fill="white" stroke="black" points="206,-294.5 206,-324.5 388,-324.5 388,-294.5 206,-294.5"/>
<text text-anchor="start" x="214" y="-312.5" font-family="Helvetica,sans-Serif" font-size="10.00">xiiEventMessageSender</text>
<text text-anchor="middle" x="297" y="-301.5" font-family="Helvetica,sans-Serif" font-size="10.00">&lt; xiiMsgAnimationReachedEnd &gt;</text>
</a>
</g>
</g>
<!-- Node1&#45;&gt;Node2 -->
<g id="edge1" class="edge">
<title>Node1&#45;&gt;Node2</title>
<path fill="none" stroke="midnightblue" d="M91.71,-180.89C110.08,-208.15 148.31,-258.9 194,-285.5 199.97,-288.98 206.42,-291.95 213.07,-294.5"/>
<polygon fill="midnightblue" stroke="midnightblue" points="94.49,-178.74 86.07,-172.31 88.64,-182.59 94.49,-178.74"/>
</g>
<!-- Node3 -->
<g id="node3" class="node">
<title>Node3</title>
<g id="a_node3"><a xlink:href="../../d1/ddc/classxii_event_message_sender.htm" target="_top" xlink:title=" ">
<polygon fill="white" stroke="black" points="228.5,-245.5 228.5,-275.5 365.5,-275.5 365.5,-245.5 228.5,-245.5"/>
<text text-anchor="start" x="236.5" y="-263.5" font-family="Helvetica,sans-Serif" font-size="10.00">xiiEventMessageSender</text>
<text text-anchor="middle" x="297" y="-252.5" font-family="Helvetica,sans-Serif" font-size="10.00">&lt; xiiMsgGenericEvent &gt;</text>
</a>
</g>
</g>
<!-- Node1&#45;&gt;Node3 -->
<g id="edge2" class="edge">
<title>Node1&#45;&gt;Node3</title>
<path fill="none" stroke="midnightblue" d="M100.01,-178.58C121.87,-195.38 158.52,-221.36 194,-236.5 204.79,-241.11 216.62,-244.92 228.28,-248.04"/>
<polygon fill="midnightblue" stroke="midnightblue" points="101.89,-175.61 91.86,-172.21 97.58,-181.12 101.89,-175.61"/>
</g>
<!-- Node4 -->
<g id="node4" class="node">
<title>Node4</title>
<g id="a_node4"><a xlink:href="../../d1/ddc/classxii_event_message_sender.htm" target="_top" xlink:title=" ">
<polygon fill="white" stroke="black" points="200,-196.5 200,-226.5 394,-226.5 394,-196.5 200,-196.5"/>
<text text-anchor="start" x="208" y="-214.5" font-family="Helvetica,sans-Serif" font-size="10.00">xiiEventMessageSender</text>
<text text-anchor="middle" x="297" y="-203.5" font-family="Helvetica,sans-Serif" font-size="10.00">&lt; xiiMsgBlackboardEntryChanged &gt;</text>
</a>
</g>
</g>
<!-- Node1&#45;&gt;Node4 -->
<g id="edge3" class="edge">
<title>Node1&#45;&gt;Node4</title>
<path fill="none" stroke="midnightblue" d="M131.93,-174.28C161.24,-180.93 198.17,-189.31 229.56,-196.43"/>
<polygon fill="midnightblue" stroke="midnightblue" points="132.43,-170.8 121.9,-172.01 130.88,-177.63 132.43,-170.8"/>
</g>
<!-- Node5 -->
<g id="node5" class="node">
<title>Node5</title>
<g id="a_node5"><a xlink:href="../../d1/ddc/classxii_event_message_sender.htm" target="_top" xlink:title=" ">
<polygon fill="white" stroke="black" points="222.5,-147.5 222.5,-177.5 371.5,-177.5 371.5,-147.5 222.5,-147.5"/>
<text text-anchor="start" x="230.5" y="-165.5" font-family="Helvetica,sans-Serif" font-size="10.00">xiiEventMessageSender</text>
<text text-anchor="middle" x="297" y="-154.5" font-family="Helvetica,sans-Serif" font-size="10.00">&lt; xiiMsgTriggerTriggered &gt;</text>
</a>
</g>
</g>
<!-- Node1&#45;&gt;Node5 -->
<g id="edge4" class="edge">
<title>Node1&#45;&gt;Node5</title>
<path fill="none" stroke="midnightblue" d="M168.68,-162.5C186.5,-162.5 205.05,-162.5 222.3,-162.5"/>
<polygon fill="midnightblue" stroke="midnightblue" points="168.29,-159 158.29,-162.5 168.29,-166 168.29,-159"/>
</g>
<!-- Node6 -->
<g id="node6" class="node">
<title>Node6</title>
<g id="a_node6"><a xlink:href="../../d1/ddc/classxii_event_message_sender.htm" target="_top" xlink:title=" ">
<polygon fill="white" stroke="black" points="211,-98.5 211,-128.5 383,-128.5 383,-98.5 211,-98.5"/>
<text text-anchor="start" x="219" y="-116.5" font-family="Helvetica,sans-Serif" font-size="10.00">xiiEventMessageSender</text>
<text text-anchor="middle" x="297" y="-105.5" font-family="Helvetica,sans-Serif" font-size="10.00">&lt; xiiMsgInputActionTriggered &gt;</text>
</a>
</g>
</g>
<!-- Node1&#45;&gt;Node6 -->
<g id="edge5" class="edge">
<title>Node1&#45;&gt;Node6</title>
<path fill="none" stroke="midnightblue" d="M131.93,-150.72C161.24,-144.07 198.17,-135.69 229.56,-128.57"/>
<polygon fill="midnightblue" stroke="midnightblue" points="130.88,-147.37 121.9,-152.99 132.43,-154.2 130.88,-147.37"/>
</g>
<!-- Node7 -->
<g id="node7" class="node">
<title>Node7</title>
<g id="a_node7"><a xlink:href="../../d1/ddc/classxii_event_message_sender.htm" target="_top" xlink:title=" ">
<polygon fill="white" stroke="black" points="230,-49.5 230,-79.5 364,-79.5 364,-49.5 230,-49.5"/>
<text text-anchor="start" x="238" y="-67.5" font-family="Helvetica,sans-Serif" font-size="10.00">xiiEventMessageSender</text>
<text text-anchor="middle" x="297" y="-56.5" font-family="Helvetica,sans-Serif" font-size="10.00">&lt; xiiMessage &gt;</text>
</a>
</g>
</g>
<!-- Node1&#45;&gt;Node7 -->
<g id="edge6" class="edge">
<title>Node1&#45;&gt;Node7</title>
<path fill="none" stroke="midnightblue" d="M100.07,-146.72C121.99,-130.21 158.69,-104.64 194,-89.5 205.31,-84.65 217.75,-80.62 229.93,-77.32"/>
<polygon fill="midnightblue" stroke="midnightblue" points="97.71,-144.12 91.9,-152.97 101.97,-149.68 97.71,-144.12"/>
</g>
<!-- Node8 -->
<g id="node8" class="node">
<title>Node8</title>
<g id="a_node8"><a xlink:href="../../d1/ddc/classxii_event_message_sender.htm" target="_top" xlink:title=" ">
<polygon fill="white" stroke="black" points="194,-0.5 194,-30.5 400,-30.5 400,-0.5 194,-0.5"/>
<text text-anchor="start" x="202" y="-18.5" font-family="Helvetica,sans-Serif" font-size="10.00">xiiEventMessageSender</text>
<text text-anchor="middle" x="297" y="-7.5" font-family="Helvetica,sans-Serif" font-size="10.00">&lt; xiiMsgStateMachineStateChanged &gt;</text>
</a>
</g>
</g>
<!-- Node1&#45;&gt;Node8 -->
<g id="edge7" class="edge">
<title>Node1&#45;&gt;Node8</title>
<path fill="none" stroke="midnightblue" d="M91.78,-144.31C110.23,-117.35 148.58,-67.1 194,-40.5 200.61,-36.63 207.79,-33.36 215.19,-30.59"/>
<polygon fill="midnightblue" stroke="midnightblue" points="88.76,-142.54 86.11,-152.8 94.57,-146.43 88.76,-142.54"/>
</g>
</g>
</svg>
