<?xml version="1.0" encoding="UTF-8" standalone="no"?>
<!DOCTYPE svg PUBLIC "-//W3C//DTD SVG 1.1//EN"
 "http://www.w3.org/Graphics/SVG/1.1/DTD/svg11.dtd">
<!-- Generated by graphviz version 2.43.0 (0)
 -->
<!-- Title: xiiArrayMapBase&lt; KEY, VALUE &gt; Pages: 1 -->
<svg width="373pt" height="319pt"
 viewBox="0.00 0.00 373.00 318.50" xmlns="http://www.w3.org/2000/svg" xmlns:xlink="http://www.w3.org/1999/xlink">
<g id="graph0" class="graph" transform="scale(1 1) rotate(0) translate(4 314.5)">
<title>xiiArrayMapBase&lt; KEY, VALUE &gt;</title>
<polygon fill="white" stroke="transparent" points="-4,4 -4,-314.5 369,-314.5 369,4 -4,4"/>
<!-- Node1 -->
<g id="node1" class="node">
<title>Node1</title>
<g id="a_node1"><a xlink:title="An associative container, similar to xiiMap, but all data is stored in a sorted contiguous array,...">
<polygon fill="#bfbfbf" stroke="black" points="0,-134.5 0,-164.5 133,-164.5 133,-134.5 0,-134.5"/>
<text text-anchor="start" x="8" y="-152.5" font-family="Helvetica,sans-Serif" font-size="10.00">xiiArrayMapBase&lt; KEY,</text>
<text text-anchor="middle" x="66.5" y="-141.5" font-family="Helvetica,sans-Serif" font-size="10.00"> VALUE &gt;</text>
</a>
</g>
</g>
<!-- Node2 -->
<g id="node2" class="node">
<title>Node2</title>
<g id="a_node2"><a xlink:href="../../d2/db1/classxii_array_map.htm" target="_top" xlink:title=" ">
<polygon fill="white" stroke="black" points="169,-269 169,-310 365,-310 365,-269 169,-269"/>
<text text-anchor="start" x="177" y="-298" font-family="Helvetica,sans-Serif" font-size="10.00">xiiArrayMap&lt; xiiHashedString,</text>
<text text-anchor="start" x="177" y="-287" font-family="Helvetica,sans-Serif" font-size="10.00"> xiiAnimationClipResourceDescriptor</text>
<text text-anchor="middle" x="267" y="-276" font-family="Helvetica,sans-Serif" font-size="10.00">::JointInfo &gt;</text>
</a>
</g>
</g>
<!-- Node1&#45;&gt;Node2 -->
<g id="edge1" class="edge">
<title>Node1&#45;&gt;Node2</title>
<path fill="none" stroke="midnightblue" d="M83.24,-172.83C101.21,-197.73 132.83,-236.68 169,-259.5 174.52,-262.98 180.46,-266.08 186.6,-268.84"/>
<polygon fill="midnightblue" stroke="midnightblue" points="86.1,-170.81 77.47,-164.66 80.38,-174.84 86.1,-170.81"/>
</g>
<!-- Node3 -->
<g id="node3" class="node">
<title>Node3</title>
<g id="a_node3"><a xlink:href="../../d2/db1/classxii_array_map.htm" target="_top" xlink:title=" ">
<polygon fill="white" stroke="black" points="188,-209 188,-250 346,-250 346,-209 188,-209"/>
<text text-anchor="start" x="196" y="-238" font-family="Helvetica,sans-Serif" font-size="10.00">xiiArrayMap&lt; xiiUInt32,</text>
<text text-anchor="start" x="196" y="-227" font-family="Helvetica,sans-Serif" font-size="10.00"> xiiTextureAtlasRuntimeDesc</text>
<text text-anchor="middle" x="267" y="-216" font-family="Helvetica,sans-Serif" font-size="10.00">::Item &gt;</text>
</a>
</g>
</g>
<!-- Node1&#45;&gt;Node3 -->
<g id="edge2" class="edge">
<title>Node1&#45;&gt;Node3</title>
<path fill="none" stroke="midnightblue" d="M103.9,-169.17C122.97,-179.03 146.89,-190.7 169,-199.5 177.35,-202.82 186.23,-206.02 195.08,-208.99"/>
<polygon fill="midnightblue" stroke="midnightblue" points="105.45,-166.03 94.97,-164.5 102.21,-172.24 105.45,-166.03"/>
</g>
<!-- Node4 -->
<g id="node4" class="node">
<title>Node4</title>
<g id="a_node4"><a xlink:href="../../d2/db1/classxii_array_map.htm" target="_top" xlink:title=" ">
<polygon fill="white" stroke="black" points="183.5,-159.5 183.5,-189.5 350.5,-189.5 350.5,-159.5 183.5,-159.5"/>
<text text-anchor="start" x="191.5" y="-177.5" font-family="Helvetica,sans-Serif" font-size="10.00">xiiArrayMap&lt; xiiHashedString,</text>
<text text-anchor="middle" x="267" y="-166.5" font-family="Helvetica,sans-Serif" font-size="10.00"> xiiExposedBone &gt;</text>
</a>
</g>
</g>
<!-- Node1&#45;&gt;Node4 -->
<g id="edge3" class="edge">
<title>Node1&#45;&gt;Node4</title>
<path fill="none" stroke="midnightblue" d="M143.35,-159.05C156.38,-160.69 169.98,-162.41 183.18,-164.07"/>
<polygon fill="midnightblue" stroke="midnightblue" points="143.41,-155.53 133.05,-157.76 142.53,-162.48 143.41,-155.53"/>
</g>
<!-- Node5 -->
<g id="node5" class="node">
<title>Node5</title>
<g id="a_node5"><a xlink:href="../../d2/db1/classxii_array_map.htm" target="_top" xlink:title=" ">
<polygon fill="white" stroke="black" points="183.5,-110.5 183.5,-140.5 350.5,-140.5 350.5,-110.5 183.5,-110.5"/>
<text text-anchor="start" x="191.5" y="-128.5" font-family="Helvetica,sans-Serif" font-size="10.00">xiiArrayMap&lt; xiiHashedString,</text>
<text text-anchor="middle" x="267" y="-117.5" font-family="Helvetica,sans-Serif" font-size="10.00"> xiiVariant &gt;</text>
</a>
</g>
</g>
<!-- Node1&#45;&gt;Node5 -->
<g id="edge4" class="edge">
<title>Node1&#45;&gt;Node5</title>
<path fill="none" stroke="midnightblue" d="M143.35,-140.33C156.38,-138.75 169.98,-137.11 183.18,-135.51"/>
<polygon fill="midnightblue" stroke="midnightblue" points="142.55,-136.9 133.05,-141.57 143.39,-143.85 142.55,-136.9"/>
</g>
<!-- Node6 -->
<g id="node6" class="node">
<title>Node6</title>
<g id="a_node6"><a xlink:href="../../d2/db1/classxii_array_map.htm" target="_top" xlink:title=" ">
<polygon fill="white" stroke="black" points="188,-50 188,-91 346,-91 346,-50 188,-50"/>
<text text-anchor="start" x="196" y="-79" font-family="Helvetica,sans-Serif" font-size="10.00">xiiArrayMap&lt; xiiUInt32,</text>
<text text-anchor="start" x="196" y="-68" font-family="Helvetica,sans-Serif" font-size="10.00"> ozz::animation::SamplingJob</text>
<text text-anchor="middle" x="267" y="-57" font-family="Helvetica,sans-Serif" font-size="10.00">::Context * &gt;</text>
</a>
</g>
</g>
<!-- Node1&#45;&gt;Node6 -->
<g id="edge5" class="edge">
<title>Node1&#45;&gt;Node6</title>
<path fill="none" stroke="midnightblue" d="M105.91,-129.86C124.68,-120.65 147.75,-109.88 169,-101.5 178.21,-97.87 188.03,-94.34 197.76,-91.05"/>
<polygon fill="midnightblue" stroke="midnightblue" points="104.21,-126.8 96.8,-134.38 107.32,-133.07 104.21,-126.8"/>
</g>
<!-- Node7 -->
<g id="node7" class="node">
<title>Node7</title>
<g id="a_node7"><a xlink:href="../../d2/db1/classxii_array_map.htm" target="_top" xlink:title="See xiiArrayMapBase for details.">
<polygon fill="white" stroke="black" points="194,-0.5 194,-30.5 340,-30.5 340,-0.5 194,-0.5"/>
<text text-anchor="start" x="202" y="-18.5" font-family="Helvetica,sans-Serif" font-size="10.00">xiiArrayMap&lt; KEY, VALUE,</text>
<text text-anchor="middle" x="267" y="-7.5" font-family="Helvetica,sans-Serif" font-size="10.00"> AllocatorWrapper &gt;</text>
</a>
</g>
</g>
<!-- Node1&#45;&gt;Node7 -->
<g id="edge6" class="edge">
<title>Node1&#45;&gt;Node7</title>
<path fill="none" stroke="midnightblue" d="M83.32,-125.73C101.2,-100.76 132.58,-62.16 169,-40.5 176.7,-35.92 185.22,-32.17 193.93,-29.11"/>
<polygon fill="midnightblue" stroke="midnightblue" points="80.22,-124.05 77.37,-134.26 85.96,-128.06 80.22,-124.05"/>
</g>
</g>
</svg>
