<?xml version="1.0" encoding="UTF-8" standalone="no"?>
<!DOCTYPE svg PUBLIC "-//W3C//DTD SVG 1.1//EN"
 "http://www.w3.org/Graphics/SVG/1.1/DTD/svg11.dtd">
<!-- Generated by graphviz version 2.43.0 (0)
 -->
<!-- Title: xiiQtConnection Pages: 1 -->
<svg width="340pt" height="140pt"
 viewBox="0.00 0.00 339.50 140.00" xmlns="http://www.w3.org/2000/svg" xmlns:xlink="http://www.w3.org/1999/xlink">
<g id="graph0" class="graph" transform="scale(1 1) rotate(0) translate(4 136)">
<title>xiiQtConnection</title>
<polygon fill="white" stroke="transparent" points="-4,4 -4,-136 335.5,-136 335.5,4 -4,4"/>
<!-- Node1 -->
<g id="node1" class="node">
<title>Node1</title>
<g id="a_node1"><a xlink:title=" ">
<polygon fill="#bfbfbf" stroke="black" points="120,-56.5 120,-75.5 215,-75.5 215,-56.5 120,-56.5"/>
<text text-anchor="middle" x="167.5" y="-63.5" font-family="Helvetica,sans-Serif" font-size="10.00">xiiQtConnection</text>
</a>
</g>
</g>
<!-- Node3 -->
<g id="node3" class="node">
<title>Node3</title>
<g id="a_node3"><a xlink:href="../../d2/d6e/classxii_qt_state_machine_connection.htm" target="_top" xlink:title=" ">
<polygon fill="white" stroke="black" points="0,-0.5 0,-19.5 161,-19.5 161,-0.5 0,-0.5"/>
<text text-anchor="middle" x="80.5" y="-7.5" font-family="Helvetica,sans-Serif" font-size="10.00">xiiQtStateMachineConnection</text>
</a>
</g>
</g>
<!-- Node1&#45;&gt;Node3 -->
<g id="edge2" class="edge">
<title>Node1&#45;&gt;Node3</title>
<path fill="none" stroke="midnightblue" d="M144.78,-50.9C128.83,-41 108,-28.07 94.44,-19.65"/>
<polygon fill="midnightblue" stroke="midnightblue" points="143.18,-54.02 153.52,-56.32 146.87,-48.08 143.18,-54.02"/>
</g>
<!-- Node4 -->
<g id="node4" class="node">
<title>Node4</title>
<g id="a_node4"><a xlink:href="../../dc/ded/classxii_qt_visual_script_connection.htm" target="_top" xlink:title=" ">
<polygon fill="white" stroke="black" points="179.5,-0.5 179.5,-19.5 331.5,-19.5 331.5,-0.5 179.5,-0.5"/>
<text text-anchor="middle" x="255.5" y="-7.5" font-family="Helvetica,sans-Serif" font-size="10.00">xiiQtVisualScriptConnection</text>
</a>
</g>
</g>
<!-- Node1&#45;&gt;Node4 -->
<g id="edge3" class="edge">
<title>Node1&#45;&gt;Node4</title>
<path fill="none" stroke="midnightblue" d="M190.48,-50.9C206.61,-41 227.68,-28.07 241.4,-19.65"/>
<polygon fill="midnightblue" stroke="midnightblue" points="188.33,-48.11 181.64,-56.32 191.99,-54.08 188.33,-48.11"/>
</g>
<!-- Node2 -->
<g id="node2" class="node">
<title>Node2</title>
<g id="a_node2"><a xlink:title=" ">
<polygon fill="white" stroke="#bfbfbf" points="112.5,-112.5 112.5,-131.5 222.5,-131.5 222.5,-112.5 112.5,-112.5"/>
<text text-anchor="middle" x="167.5" y="-119.5" font-family="Helvetica,sans-Serif" font-size="10.00">QGraphicsPathItem</text>
</a>
</g>
</g>
<!-- Node2&#45;&gt;Node1 -->
<g id="edge1" class="edge">
<title>Node2&#45;&gt;Node1</title>
<path fill="none" stroke="midnightblue" d="M167.5,-101.8C167.5,-92.91 167.5,-82.78 167.5,-75.75"/>
<polygon fill="midnightblue" stroke="midnightblue" points="164,-102.08 167.5,-112.08 171,-102.08 164,-102.08"/>
</g>
</g>
</svg>
