<?xml version="1.0" encoding="UTF-8" standalone="no"?>
<!DOCTYPE svg PUBLIC "-//W3C//DTD SVG 1.1//EN"
 "http://www.w3.org/Graphics/SVG/1.1/DTD/svg11.dtd">
<!-- Generated by graphviz version 2.43.0 (0)
 -->
<!-- Title: xiiMsgExtractRenderData Pages: 1 -->
<svg width="149pt" height="192pt"
 viewBox="0.00 0.00 149.00 192.00" xmlns="http://www.w3.org/2000/svg" xmlns:xlink="http://www.w3.org/1999/xlink">
<g id="graph0" class="graph" transform="scale(1 1) rotate(0) translate(4 188)">
<title>xiiMsgExtractRenderData</title>
<!-- Node1 -->
<g id="Node000001" class="node">
<title>Node1</title>
<g id="a_Node000001"><a xlink:title=" ">
<polygon fill="#999999" stroke="#666666" points="141,-19 0,-19 0,0 141,0 141,-19"/>
<text text-anchor="middle" x="70.5" y="-7" font-family="Helvetica,sans-Serif" font-size="10.00">xiiMsgExtractRenderData</text>
</a>
</g>
</g>
<!-- Node2 -->
<g id="Node000002" class="node">
<title>Node2</title>
<g id="a_Node000002"><a xlink:href="../../d9/d55/classxii_message.html" target="_top" xlink:title="Base class for all message types. Each message type has it&#39;s own id which is used to dispatch message...">
<polygon fill="white" stroke="#666666" points="106.5,-74 34.5,-74 34.5,-55 106.5,-55 106.5,-74"/>
<text text-anchor="middle" x="70.5" y="-62" font-family="Helvetica,sans-Serif" font-size="10.00">xiiMessage</text>
</a>
</g>
</g>
<!-- Node2&#45;&gt;Node1 -->
<g id="edge1_Node000001_Node000002" class="edge">
<title>Node2&#45;&gt;Node1</title>
<g id="a_edge1_Node000001_Node000002"><a xlink:title=" ">
<path fill="none" stroke="#63b8ff" d="M70.5,-44.66C70.5,-35.93 70.5,-25.99 70.5,-19.09"/>
<polygon fill="#63b8ff" stroke="#63b8ff" points="67,-44.75 70.5,-54.75 74,-44.75 67,-44.75"/>
</a>
</g>
</g>
<!-- Node3 -->
<g id="Node000003" class="node">
<title>Node3</title>
<g id="a_Node000003"><a xlink:href="../../dc/d71/classxii_reflected_class.html" target="_top" xlink:title="All classes that should be dynamically reflectable, need to be derived from this base class.">
<polygon fill="white" stroke="#666666" points="121,-129 20,-129 20,-110 121,-110 121,-129"/>
<text text-anchor="middle" x="70.5" y="-117" font-family="Helvetica,sans-Serif" font-size="10.00">xiiReflectedClass</text>
</a>
</g>
</g>
<!-- Node3&#45;&gt;Node2 -->
<g id="edge2_Node000002_Node000003" class="edge">
<title>Node3&#45;&gt;Node2</title>
<g id="a_edge2_Node000002_Node000003"><a xlink:title=" ">
<path fill="none" stroke="#63b8ff" d="M70.5,-99.66C70.5,-90.93 70.5,-80.99 70.5,-74.09"/>
<polygon fill="#63b8ff" stroke="#63b8ff" points="67,-99.75 70.5,-109.75 74,-99.75 67,-99.75"/>
</a>
</g>
</g>
<!-- Node4 -->
<g id="Node000004" class="node">
<title>Node4</title>
<g id="a_Node000004"><a xlink:href="../../d2/d38/classxii_no_base.html" target="_top" xlink:title="Dummy type to pass to templates and macros that expect a base type for a class that has no base.">
<polygon fill="white" stroke="#666666" points="103.5,-184 37.5,-184 37.5,-165 103.5,-165 103.5,-184"/>
<text text-anchor="middle" x="70.5" y="-172" font-family="Helvetica,sans-Serif" font-size="10.00">xiiNoBase</text>
</a>
</g>
</g>
<!-- Node4&#45;&gt;Node3 -->
<g id="edge3_Node000003_Node000004" class="edge">
<title>Node4&#45;&gt;Node3</title>
<g id="a_edge3_Node000003_Node000004"><a xlink:title=" ">
<path fill="none" stroke="#63b8ff" d="M70.5,-154.66C70.5,-145.93 70.5,-135.99 70.5,-129.09"/>
<polygon fill="#63b8ff" stroke="#63b8ff" points="67,-154.75 70.5,-164.75 74,-154.75 67,-154.75"/>
</a>
</g>
</g>
</g>
</svg>
