<?xml version="1.0" encoding="UTF-8" standalone="no"?>
<!DOCTYPE svg PUBLIC "-//W3C//DTD SVG 1.1//EN"
 "http://www.w3.org/Graphics/SVG/1.1/DTD/svg11.dtd">
<!-- Generated by graphviz version 2.43.0 (0)
 -->
<!-- Title: xiiConstantProperty&lt; Type &gt; Pages: 1 -->
<svg width="162pt" height="218pt"
 viewBox="0.00 0.00 162.00 218.00" xmlns="http://www.w3.org/2000/svg" xmlns:xlink="http://www.w3.org/1999/xlink">
<g id="graph0" class="graph" transform="scale(1 1) rotate(0) translate(4 214)">
<title>xiiConstantProperty&lt; Type &gt;</title>
<polygon fill="white" stroke="transparent" points="-4,4 -4,-214 158,-214 158,4 -4,4"/>
<!-- Node1 -->
<g id="node1" class="node">
<title>Node1</title>
<g id="a_node1"><a xlink:title="[internal] An implementation of xiiTypedConstantProperty that accesses the property data directly.">
<polygon fill="#bfbfbf" stroke="black" points="20.5,-0.5 20.5,-30.5 133.5,-30.5 133.5,-0.5 20.5,-0.5"/>
<text text-anchor="start" x="28.5" y="-18.5" font-family="Helvetica,sans-Serif" font-size="10.00">xiiConstantProperty</text>
<text text-anchor="middle" x="77" y="-7.5" font-family="Helvetica,sans-Serif" font-size="10.00">&lt; Type &gt;</text>
</a>
</g>
</g>
<!-- Node2 -->
<g id="node2" class="node">
<title>Node2</title>
<g id="a_node2"><a xlink:href="../../d3/de4/classxii_typed_constant_property.htm" target="_top" xlink:title="The base class for all typed member properties. Ie. once the type of a property is determined,...">
<polygon fill="white" stroke="black" points="6,-67.5 6,-97.5 148,-97.5 148,-67.5 6,-67.5"/>
<text text-anchor="start" x="14" y="-85.5" font-family="Helvetica,sans-Serif" font-size="10.00">xiiTypedConstantProperty</text>
<text text-anchor="middle" x="77" y="-74.5" font-family="Helvetica,sans-Serif" font-size="10.00">&lt; Type &gt;</text>
</a>
</g>
</g>
<!-- Node2&#45;&gt;Node1 -->
<g id="edge1" class="edge">
<title>Node2&#45;&gt;Node1</title>
<path fill="none" stroke="midnightblue" d="M77,-57.11C77,-48.15 77,-38.32 77,-30.58"/>
<polygon fill="midnightblue" stroke="midnightblue" points="73.5,-57.4 77,-67.4 80.5,-57.4 73.5,-57.4"/>
</g>
<!-- Node3 -->
<g id="node3" class="node">
<title>Node3</title>
<g id="a_node3"><a xlink:href="../../d9/de1/classxii_abstract_constant_property.htm" target="_top" xlink:title="This is the base class for all constant properties that are stored inside the RTTI data.">
<polygon fill="white" stroke="black" points="0,-134.5 0,-153.5 154,-153.5 154,-134.5 0,-134.5"/>
<text text-anchor="middle" x="77" y="-141.5" font-family="Helvetica,sans-Serif" font-size="10.00">xiiAbstractConstantProperty</text>
</a>
</g>
</g>
<!-- Node3&#45;&gt;Node2 -->
<g id="edge2" class="edge">
<title>Node3&#45;&gt;Node2</title>
<path fill="none" stroke="midnightblue" d="M77,-124.23C77,-115.59 77,-105.5 77,-97.52"/>
<polygon fill="midnightblue" stroke="midnightblue" points="73.5,-124.48 77,-134.48 80.5,-124.48 73.5,-124.48"/>
</g>
<!-- Node4 -->
<g id="node4" class="node">
<title>Node4</title>
<g id="a_node4"><a xlink:href="../../da/d25/classxii_abstract_property.htm" target="_top" xlink:title="This is the base interface for all properties in the reflection system. It provides enough informatio...">
<polygon fill="white" stroke="black" points="22,-190.5 22,-209.5 132,-209.5 132,-190.5 22,-190.5"/>
<text text-anchor="middle" x="77" y="-197.5" font-family="Helvetica,sans-Serif" font-size="10.00">xiiAbstractProperty</text>
</a>
</g>
</g>
<!-- Node4&#45;&gt;Node3 -->
<g id="edge3" class="edge">
<title>Node4&#45;&gt;Node3</title>
<path fill="none" stroke="midnightblue" d="M77,-179.8C77,-170.91 77,-160.78 77,-153.75"/>
<polygon fill="midnightblue" stroke="midnightblue" points="73.5,-180.08 77,-190.08 80.5,-180.08 73.5,-180.08"/>
</g>
</g>
</svg>
