<?xml version="1.0" encoding="UTF-8" standalone="no"?>
<!DOCTYPE svg PUBLIC "-//W3C//DTD SVG 1.1//EN"
 "http://www.w3.org/Graphics/SVG/1.1/DTD/svg11.dtd">
<!-- Generated by graphviz version 2.43.0 (0)
 -->
<!-- Title: xiiDataDirectory::ArchiveReaderUncompressed Pages: 1 -->
<svg width="193pt" height="214pt"
 viewBox="0.00 0.00 193.00 214.00" xmlns="http://www.w3.org/2000/svg" xmlns:xlink="http://www.w3.org/1999/xlink">
<g id="graph0" class="graph" transform="scale(1 1) rotate(0) translate(4 210)">
<title>xiiDataDirectory::ArchiveReaderUncompressed</title>
<!-- Node1 -->
<g id="Node000001" class="node">
<title>Node1</title>
<g id="a_Node000001"><a xlink:title=" ">
<polygon fill="#999999" stroke="#666666" points="162,-30 23,-30 23,0 162,0 162,-30"/>
<text text-anchor="start" x="31" y="-18" font-family="Helvetica,sans-Serif" font-size="10.00">xiiDataDirectory::Archive</text>
<text text-anchor="middle" x="92.5" y="-7" font-family="Helvetica,sans-Serif" font-size="10.00">ReaderUncompressed</text>
</a>
</g>
</g>
<!-- Node2 -->
<g id="Node000002" class="node">
<title>Node2</title>
<g id="a_Node000002"><a xlink:href="../../db/d24/classxii_data_directory_1_1_archive_reader_common.html" target="_top" xlink:title=" ">
<polygon fill="white" stroke="#bfbfbf" points="162,-96 23,-96 23,-66 162,-66 162,-96"/>
<text text-anchor="start" x="31" y="-84" font-family="Helvetica,sans-Serif" font-size="10.00">xiiDataDirectory::Archive</text>
<text text-anchor="middle" x="92.5" y="-73" font-family="Helvetica,sans-Serif" font-size="10.00">ReaderCommon</text>
</a>
</g>
</g>
<!-- Node2&#45;&gt;Node1 -->
<g id="edge1_Node000001_Node000002" class="edge">
<title>Node2&#45;&gt;Node1</title>
<g id="a_edge1_Node000001_Node000002"><a xlink:title=" ">
<path fill="none" stroke="#63b8ff" d="M92.5,-55.54C92.5,-46.96 92.5,-37.61 92.5,-30.16"/>
<polygon fill="#63b8ff" stroke="#63b8ff" points="89,-55.8 92.5,-65.8 96,-55.8 89,-55.8"/>
</a>
</g>
</g>
<!-- Node3 -->
<g id="Node000003" class="node">
<title>Node3</title>
<g id="a_Node000003"><a xlink:href="../../de/d3d/classxii_data_directory_reader.html" target="_top" xlink:title="A base class for readers that handle reading from a (virtual) file inside a data directory.">
<polygon fill="white" stroke="#666666" points="158,-151 27,-151 27,-132 158,-132 158,-151"/>
<text text-anchor="middle" x="92.5" y="-139" font-family="Helvetica,sans-Serif" font-size="10.00">xiiDataDirectoryReader</text>
</a>
</g>
</g>
<!-- Node3&#45;&gt;Node2 -->
<g id="edge2_Node000002_Node000003" class="edge">
<title>Node3&#45;&gt;Node2</title>
<g id="a_edge2_Node000002_Node000003"><a xlink:title=" ">
<path fill="none" stroke="#63b8ff" d="M92.5,-121.65C92.5,-113.36 92.5,-103.78 92.5,-96.11"/>
<polygon fill="#63b8ff" stroke="#63b8ff" points="89,-121.87 92.5,-131.87 96,-121.87 89,-121.87"/>
</a>
</g>
</g>
<!-- Node4 -->
<g id="Node000004" class="node">
<title>Node4</title>
<g id="a_Node000004"><a xlink:href="../../d5/d39/classxii_data_directory_reader_writer_base.html" target="_top" xlink:title="This is the base class for all data directory readers/writers.">
<polygon fill="white" stroke="#666666" points="185,-206 0,-206 0,-187 185,-187 185,-206"/>
<text text-anchor="middle" x="92.5" y="-194" font-family="Helvetica,sans-Serif" font-size="10.00">xiiDataDirectoryReaderWriterBase</text>
</a>
</g>
</g>
<!-- Node4&#45;&gt;Node3 -->
<g id="edge3_Node000003_Node000004" class="edge">
<title>Node4&#45;&gt;Node3</title>
<g id="a_edge3_Node000003_Node000004"><a xlink:title=" ">
<path fill="none" stroke="#63b8ff" d="M92.5,-176.66C92.5,-167.93 92.5,-157.99 92.5,-151.09"/>
<polygon fill="#63b8ff" stroke="#63b8ff" points="89,-176.75 92.5,-186.75 96,-176.75 89,-176.75"/>
</a>
</g>
</g>
</g>
</svg>
