<?xml version="1.0" encoding="UTF-8" standalone="no"?>
<!DOCTYPE svg PUBLIC "-//W3C//DTD SVG 1.1//EN"
 "http://www.w3.org/Graphics/SVG/1.1/DTD/svg11.dtd">
<!-- Generated by graphviz version 2.43.0 (0)
 -->
<!-- Title: xiiWindowBase Pages: 1 -->
<svg width="365pt" height="137pt"
 viewBox="0.00 0.00 364.50 137.00" xmlns="http://www.w3.org/2000/svg" xmlns:xlink="http://www.w3.org/1999/xlink">
<g id="graph0" class="graph" transform="scale(1 1) rotate(0) translate(4 133)">
<title>xiiWindowBase</title>
<!-- Node1 -->
<g id="Node000001" class="node">
<title>Node1</title>
<g id="a_Node000001"><a xlink:title="Base class of all window classes that have a client area and a native window handle.">
<polygon fill="#999999" stroke="#666666" points="256,-129 164,-129 164,-110 256,-110 256,-129"/>
<text text-anchor="middle" x="210" y="-117" font-family="Helvetica,sans-Serif" font-size="10.00">xiiWindowBase</text>
</a>
</g>
</g>
<!-- Node2 -->
<g id="Node000002" class="node">
<title>Node2</title>
<g id="a_Node000002"><a xlink:href="../../d5/d92/classxii_editor_process_view_window.htm" target="_top" xlink:title="Represents the window inside the editor process, into which the engine process renders.">
<polygon fill="white" stroke="#666666" points="158,-74 0,-74 0,-55 158,-55 158,-74"/>
<text text-anchor="middle" x="79" y="-62" font-family="Helvetica,sans-Serif" font-size="10.00">xiiEditorProcessViewWindow</text>
</a>
</g>
</g>
<!-- Node1&#45;&gt;Node2 -->
<g id="edge1_Node000001_Node000002" class="edge">
<title>Node1&#45;&gt;Node2</title>
<g id="a_edge1_Node000001_Node000002"><a xlink:title=" ">
<path fill="none" stroke="#63b8ff" d="M179.5,-106.16C155.25,-96.35 121.93,-82.87 100.43,-74.17"/>
<polygon fill="#63b8ff" stroke="#63b8ff" points="178.37,-109.48 188.95,-109.98 181,-102.99 178.37,-109.48"/>
</a>
</g>
</g>
<!-- Node3 -->
<g id="Node000003" class="node">
<title>Node3</title>
<g id="a_Node000003"><a xlink:href="../../d2/d13/classxii_window.htm" target="_top" xlink:title="A simple abstraction for platform specific window creation.">
<polygon fill="white" stroke="#666666" points="244,-74 176,-74 176,-55 244,-55 244,-74"/>
<text text-anchor="middle" x="210" y="-62" font-family="Helvetica,sans-Serif" font-size="10.00">xiiWindow</text>
</a>
</g>
</g>
<!-- Node1&#45;&gt;Node3 -->
<g id="edge2_Node000001_Node000003" class="edge">
<title>Node1&#45;&gt;Node3</title>
<g id="a_edge2_Node000001_Node000003"><a xlink:title=" ">
<path fill="none" stroke="#63b8ff" d="M210,-99.66C210,-90.93 210,-80.99 210,-74.09"/>
<polygon fill="#63b8ff" stroke="#63b8ff" points="206.5,-99.75 210,-109.75 213.5,-99.75 206.5,-99.75"/>
</a>
</g>
</g>
<!-- Node6 -->
<g id="Node000006" class="node">
<title>Node6</title>
<g id="a_Node000006"><a xlink:href="../../d0/d31/classxii_window_x_r.htm" target="_top" xlink:title="XR Window base implementation. Optionally wraps a companion window.">
<polygon fill="white" stroke="#666666" points="343.5,-74 262.5,-74 262.5,-55 343.5,-55 343.5,-74"/>
<text text-anchor="middle" x="303" y="-62" font-family="Helvetica,sans-Serif" font-size="10.00">xiiWindowXR</text>
</a>
</g>
</g>
<!-- Node1&#45;&gt;Node6 -->
<g id="edge5_Node000001_Node000006" class="edge">
<title>Node1&#45;&gt;Node6</title>
<g id="a_edge5_Node000001_Node000006"><a xlink:title=" ">
<path fill="none" stroke="#63b8ff" d="M233.75,-104.97C250.75,-95.28 273.13,-82.52 287.79,-74.17"/>
<polygon fill="#63b8ff" stroke="#63b8ff" points="231.9,-101.99 224.94,-109.98 235.36,-108.07 231.9,-101.99"/>
</a>
</g>
</g>
<!-- Node4 -->
<g id="Node000004" class="node">
<title>Node4</title>
<g id="a_Node000004"><a xlink:href="../../dd/d17/classxii_game_state_window.htm" target="_top" xlink:title="A window class that expands a little on xiiWindow. Default type used by xiiGameState to create a wind...">
<polygon fill="white" stroke="#666666" points="195,-19 73,-19 73,0 195,0 195,-19"/>
<text text-anchor="middle" x="134" y="-7" font-family="Helvetica,sans-Serif" font-size="10.00">xiiGameStateWindow</text>
</a>
</g>
</g>
<!-- Node3&#45;&gt;Node4 -->
<g id="edge3_Node000003_Node000004" class="edge">
<title>Node3&#45;&gt;Node4</title>
<g id="a_edge3_Node000003_Node000004"><a xlink:title=" ">
<path fill="none" stroke="#63b8ff" d="M189.42,-49.15C175.69,-39.57 158.07,-27.29 146.43,-19.17"/>
<polygon fill="#63b8ff" stroke="#63b8ff" points="187.58,-52.14 197.79,-54.98 191.59,-46.39 187.58,-52.14"/>
</a>
</g>
</g>
<!-- Node5 -->
<g id="Node000005" class="node">
<title>Node5</title>
<g id="a_Node000005"><a xlink:href="../../d8/d01/classxii_remote_process_window.htm" target="_top" xlink:title=" ">
<polygon fill="white" stroke="#bfbfbf" points="356.5,-19 213.5,-19 213.5,0 356.5,0 356.5,-19"/>
<text text-anchor="middle" x="285" y="-7" font-family="Helvetica,sans-Serif" font-size="10.00">xiiRemoteProcessWindow</text>
</a>
</g>
</g>
<!-- Node3&#45;&gt;Node5 -->
<g id="edge4_Node000003_Node000005" class="edge">
<title>Node3&#45;&gt;Node5</title>
<g id="a_edge4_Node000003_Node000005"><a xlink:title=" ">
<path fill="none" stroke="#63b8ff" d="M230.31,-49.15C243.86,-39.57 261.24,-27.29 272.73,-19.17"/>
<polygon fill="#63b8ff" stroke="#63b8ff" points="228.2,-46.36 222.05,-54.98 232.24,-52.07 228.2,-46.36"/>
</a>
</g>
</g>
</g>
</svg>
